<svg width="108" height="53" viewBox="0 0 108 53" fill="none" xmlns="http://www.w3.org/2000/svg">
<g filter="url(#filter0_d_120_3188)">
<rect x="14.0659" y="13.9836" width="76.5" height="21.5164" rx="3.245" fill="white"/>
<rect x="14.0659" y="13.9836" width="76.5" height="21.5164" rx="3.245" stroke="url(#paint0_linear_120_3188)" stroke-opacity="0.3" stroke-width="0.650789"/>
</g>
<g filter="url(#filter1_d_120_3188)">
<path d="M30.168 22.3537C30.4997 21.333 30.6655 20.8226 31.102 20.5055C31.5384 20.1884 32.0751 20.1884 33.1484 20.1884H37.1529C39.7645 20.1884 41.0704 20.1884 41.631 20.96C42.1916 21.7316 41.7881 22.9736 40.981 25.4574L39.8592 28.9099C39.5386 29.8967 39.3783 30.39 38.9564 30.6966C38.5345 31.0031 38.0157 31.0031 36.9782 31.0031H35.4782C31.6501 31.0031 29.7361 31.0031 28.9144 29.8721C28.0926 28.7411 28.6841 26.9207 29.867 23.28L30.168 22.3537Z" fill="#5F0010"/>
<path d="M31.2456 22.0122C31.5773 20.9914 31.7431 20.4811 32.1796 20.164C32.616 19.8469 33.1527 19.8469 34.226 19.8469H37.8974C39.8651 19.8469 40.849 19.8469 41.2713 20.4282C41.6937 21.0096 41.3897 21.9453 40.7817 23.8167L39.1548 28.8237C38.9779 29.3681 38.8894 29.6403 38.6567 29.8094C38.4239 29.9786 38.1377 29.9785 37.5652 29.9785H32.6795C30.7834 29.9785 29.8353 29.9786 29.4283 29.4183C29.0212 28.8581 29.3142 27.9564 29.9002 26.1531L31.2456 22.0122Z" fill="#E0B05D"/>
<path d="M30.368 28.82C30.5916 29.1652 30.5718 29.5752 30.3239 29.7358C30.0759 29.8964 29.6936 29.7468 29.4701 29.4017C29.2465 29.0565 29.2663 28.6465 29.5142 28.4859C29.7622 28.3253 30.1444 28.4749 30.368 28.82Z" fill="#DAAA57"/>
<path d="M35.0608 29.1408L29.3261 28.5149L29.5638 29.5512L35.0608 29.1408Z" fill="url(#paint1_linear_120_3188)"/>
<path d="M29.3261 28.5149C29.3016 28.5176 29.278 28.5548 29.2669 28.5794C29.2518 28.6131 29.2441 28.6321 29.2348 28.6895C29.2316 28.748 29.2348 28.8161 29.2441 28.889C29.2535 28.9619 29.2689 29.0381 29.2891 29.1123C29.3094 29.1866 29.3341 29.2572 29.3616 29.3195C29.3891 29.3817 29.4188 29.4342 29.4486 29.4733C29.4785 29.5123 29.5078 29.5372 29.5346 29.5461C29.5614 29.555 29.585 29.5478 29.604 29.5249L29.4426 29.0219L29.3261 28.5149Z" fill="#BF7B3D"/>
<path d="M30.98 20.001C31.3116 18.9803 31.4775 18.4699 31.9139 18.1528C32.3504 17.8357 32.887 17.8357 33.9603 17.8357H36.794C39.191 17.8357 40.3895 17.8357 40.9041 18.5439C41.4186 19.2521 41.0483 20.392 40.3075 22.6716L39.5905 24.8786C39.0709 26.4778 38.8111 27.2774 38.1273 27.7742C37.4435 28.271 36.6027 28.271 34.9213 28.271H31.4804C29.9778 28.271 29.2265 28.271 28.904 27.827C28.5814 27.3831 28.8136 26.6685 29.2779 25.2395L30.98 20.001Z" fill="url(#paint2_linear_120_3188)"/>
<path d="M30.4307 28.2514C29.1902 28.1883 29.2227 28.9463 29.1411 29.1522C29.1411 29.1522 29.2429 28.317 29.2664 28.0871C29.29 27.8572 29.4369 27.0663 29.4369 27.0663C30.032 27.4748 31.064 28.2837 30.4307 28.2514Z" fill="#5E000F"/>
<path d="M30.9544 20.001C31.2861 18.9803 31.4519 18.4699 31.8884 18.1528C32.3249 17.8357 32.8615 17.8357 33.9348 17.8357H37.7674C39.4489 17.8357 40.2896 17.8357 40.6505 18.3325C41.0115 18.8293 40.7517 19.6289 40.2321 21.2281L39.2679 24.1955C38.7483 25.7947 38.4885 26.5943 37.8047 27.0911C37.1209 27.5879 36.2802 27.5879 34.5987 27.5879H30.3866C29.4922 27.5879 29.045 27.5879 28.853 27.3237C28.661 27.0594 28.7992 26.6341 29.0756 25.7835L30.9544 20.001Z" fill="url(#paint3_linear_120_3188)"/>
<path d="M30.5262 27.5879C28.534 27.5879 28.6478 28.271 28.534 28.4607C28.534 28.4607 28.6289 27.7018 28.6478 27.4931C28.6668 27.2844 28.8376 26.5634 28.8376 26.5634C29.8242 26.9049 31.5431 27.5879 30.5262 27.5879Z" fill="url(#paint4_linear_120_3188)"/>
<path d="M32.9737 18.9172L29.6344 27.9674L30.6021 27.8346L32.9737 18.9172Z" fill="url(#paint5_linear_120_3188)"/>
<path d="M29.867 23.28L29.3798 23.1217L29.3798 23.1217L29.867 23.28ZM39.8592 28.9099L39.372 28.7516L39.372 28.7516L39.8592 28.9099ZM40.981 25.4574L41.4682 25.6157L40.981 25.4574ZM30.168 22.3537L30.6552 22.512L30.6552 22.512L30.168 22.3537ZM29.9002 26.1531L29.4129 25.9948L29.9002 26.1531ZM39.1548 28.8237L38.6676 28.6654L38.6676 28.6654L39.1548 28.8237ZM40.7817 23.8167L41.2689 23.975L41.2689 23.975L40.7817 23.8167ZM31.2456 22.0122L31.7328 22.1705L31.2456 22.0122ZM29.3261 28.5149L29.3816 28.0057L29.3256 27.9996L29.2695 28.0058L29.3261 28.5149ZM35.0608 29.1408L35.0989 29.6516L35.1164 28.6315L35.0608 29.1408ZM29.5638 29.5512L29.0645 29.6658L29.1629 30.0949L29.6019 30.0621L29.5638 29.5512ZM29.2669 28.5794L29.7339 28.7902L29.734 28.7899L29.2669 28.5794ZM29.2348 28.6895L28.7292 28.6068L28.7247 28.634L28.7232 28.6616L29.2348 28.6895ZM29.604 29.5249L29.9983 29.852L30.1776 29.6358L30.0918 29.3684L29.604 29.5249ZM29.4426 29.0219L28.9433 29.1367L28.9482 29.1578L28.9548 29.1785L29.4426 29.0219ZM29.2779 25.2395L29.7651 25.3978L29.7651 25.3978L29.2779 25.2395ZM39.5905 24.8786L40.0777 25.0369L40.0777 25.0369L39.5905 24.8786ZM40.3075 22.6716L39.8203 22.5133L39.8203 22.5133L40.3075 22.6716ZM30.98 20.001L30.4928 19.8427L30.4928 19.8427L30.98 20.001ZM29.1411 29.1522L28.6326 29.0903L29.6174 29.3408L29.1411 29.1522ZM30.4307 28.2514L30.4568 27.7398L30.4307 28.2514ZM29.4369 27.0663L29.7268 26.6439L29.0771 26.198L28.9332 26.9728L29.4369 27.0663ZM29.2664 28.0871L28.7568 28.0349L29.2664 28.0871ZM29.0756 25.7835L29.5628 25.9418L29.0756 25.7835ZM39.2679 24.1955L38.7807 24.0372L38.7807 24.0372L39.2679 24.1955ZM40.2321 21.2281L40.7193 21.3864L40.2321 21.2281ZM30.9544 20.001L30.4672 19.8427L30.9544 20.001ZM28.534 28.4607L28.0257 28.3972L28.9733 28.7243L28.534 28.4607ZM28.8376 26.5634L29.0051 26.0793L28.4697 25.8939L28.3391 26.4453L28.8376 26.5634ZM29.6344 27.9674L29.1538 27.7901L28.8583 28.591L29.7041 28.4749L29.6344 27.9674ZM32.9737 18.9172L33.4688 19.0488L32.4931 18.7398L32.9737 18.9172ZM30.6021 27.8346L30.6717 28.3421L31.0095 28.2957L31.0971 27.9662L30.6021 27.8346ZM33.1484 20.1884V20.7006H37.1529V20.1884V19.6761H33.1484V20.1884ZM40.981 25.4574L40.4938 25.2991L39.372 28.7516L39.8592 28.9099L40.3464 29.0682L41.4682 25.6157L40.981 25.4574ZM36.9782 31.0031V30.4908H35.4782V31.0031V31.5154H36.9782V31.0031ZM29.867 23.28L30.3542 23.4383L30.6552 22.512L30.168 22.3537L29.6808 22.1954L29.3798 23.1217L29.867 23.28ZM35.4782 31.0031V30.4908C33.5488 30.4908 32.1544 30.4897 31.1367 30.3539C30.119 30.2182 29.6135 29.9628 29.3288 29.571L28.9144 29.8721L28.4999 30.1732C29.037 30.9124 29.8994 31.2225 31.0012 31.3695C32.1029 31.5165 33.5795 31.5154 35.4782 31.5154V31.0031ZM29.867 23.28L29.3798 23.1217C28.7931 24.9275 28.3358 26.3315 28.1351 27.4247C27.9344 28.518 27.9629 29.434 28.4999 30.1732L28.9144 29.8721L29.3288 29.571C29.0441 29.1791 28.9575 28.6195 29.1428 27.6097C29.3282 26.5998 29.758 25.2732 30.3542 23.4383L29.867 23.28ZM39.8592 28.9099L39.372 28.7516C39.2079 29.2568 39.0981 29.5918 38.9815 29.8418C38.8721 30.0764 38.7744 30.1956 38.6553 30.2821L38.9564 30.6966L39.2575 31.111C39.5604 30.891 39.7537 30.6102 39.9101 30.2748C40.0593 29.9548 40.19 29.5498 40.3464 29.0682L39.8592 28.9099ZM36.9782 31.0031V31.5154C37.4846 31.5154 37.9102 31.5163 38.2606 31.4732C38.6279 31.4282 38.9547 31.331 39.2575 31.111L38.9564 30.6966L38.6553 30.2821C38.5362 30.3686 38.3927 30.4248 38.1357 30.4563C37.8619 30.4899 37.5094 30.4908 36.9782 30.4908V31.0031ZM37.1529 20.1884V20.7006C38.474 20.7006 39.4123 20.7017 40.0933 20.7926C40.7743 20.8834 41.0624 21.0489 41.2165 21.2611L41.631 20.96L42.0454 20.6589C41.6389 20.0994 40.9938 19.8791 40.2288 19.777C39.4638 19.675 38.4434 19.6761 37.1529 19.6761V20.1884ZM40.981 25.4574L41.4682 25.6157C41.867 24.3883 42.1834 23.4182 42.3227 22.6591C42.4621 21.9 42.4519 21.2184 42.0454 20.6589L41.631 20.96L41.2165 21.2611C41.3707 21.4733 41.4391 21.7984 41.315 22.4741C41.191 23.1499 40.9021 24.0426 40.4938 25.2991L40.981 25.4574ZM33.1484 20.1884V19.6761C32.6241 19.6761 32.1851 19.6752 31.8239 19.7196C31.4459 19.766 31.111 19.8657 30.8009 20.091L31.102 20.5055L31.4031 20.9199C31.5294 20.8281 31.6811 20.7693 31.9488 20.7365C32.2334 20.7015 32.5993 20.7006 33.1484 20.7006V20.1884ZM30.168 22.3537L30.6552 22.512C30.8249 21.9899 30.9388 21.6421 31.06 21.3822C31.174 21.1378 31.2767 21.0117 31.4031 20.9199L31.102 20.5055L30.8009 20.091C30.4907 20.3164 30.2924 20.604 30.1314 20.9492C29.9776 21.279 29.8428 21.6968 29.6808 22.1954L30.168 22.3537ZM34.226 19.8469V20.3591H37.8974V19.8469V19.3346H34.226V19.8469ZM40.7817 23.8167L40.2944 23.6584L38.6676 28.6654L39.1548 28.8237L39.642 28.982L41.2689 23.975L40.7817 23.8167ZM37.5652 29.9785V29.4663H32.6795V29.9785V30.4908H37.5652V29.9785ZM29.9002 26.1531L30.3874 26.3114L31.7328 22.1705L31.2456 22.0122L30.7584 21.8539L29.4129 25.9948L29.9002 26.1531ZM32.6795 29.9785V29.4663C31.7161 29.4663 31.0462 29.4652 30.5632 29.4007C30.0803 29.3363 29.9201 29.2237 29.8427 29.1172L29.4283 29.4183L29.0138 29.7194C29.3435 30.1732 29.8608 30.3407 30.4277 30.4163C30.9946 30.4919 31.7468 30.4908 32.6795 30.4908V29.9785ZM29.9002 26.1531L29.4129 25.9948C29.1247 26.8819 28.8912 27.5969 28.788 28.1594C28.6847 28.722 28.6842 29.2657 29.0138 29.7194L29.4283 29.4183L29.8427 29.1172C29.7654 29.0108 29.7078 28.8235 29.7957 28.3444C29.8837 27.8651 30.0897 27.2276 30.3874 26.3114L29.9002 26.1531ZM39.1548 28.8237L38.6676 28.6654C38.5753 28.9494 38.5194 29.1185 38.4624 29.2408C38.4126 29.3477 38.38 29.3772 38.3555 29.395L38.6567 29.8094L38.9578 30.2239C39.166 30.0725 39.2941 29.8814 39.391 29.6738C39.4806 29.4816 39.5574 29.2424 39.642 28.982L39.1548 28.8237ZM37.5652 29.9785V30.4908C37.8391 30.4908 38.0902 30.4917 38.3007 30.4659C38.5281 30.438 38.7495 30.3752 38.9578 30.2239L38.6567 29.8094L38.3555 29.395C38.3311 29.4128 38.2929 29.4346 38.1759 29.4489C38.042 29.4654 37.8639 29.4663 37.5652 29.4663V29.9785ZM37.8974 19.8469V20.3591C38.8966 20.3591 39.5934 20.3602 40.0961 20.4273C40.5988 20.4944 40.7719 20.6123 40.8569 20.7293L41.2713 20.4282L41.6858 20.1271C41.3484 19.6628 40.8184 19.49 40.2316 19.4117C39.6449 19.3335 38.8659 19.3346 37.8974 19.3346V19.8469ZM40.7817 23.8167L41.2689 23.975C41.5681 23.0538 41.8099 22.3133 41.9168 21.7312C42.0236 21.1489 42.0231 20.5914 41.6858 20.1271L41.2713 20.4282L40.8569 20.7293C40.9419 20.8464 41.0006 21.0474 40.9091 21.5462C40.8175 22.0451 40.6032 22.7081 40.2944 23.6584L40.7817 23.8167ZM34.226 19.8469V19.3346C33.7017 19.3346 33.2627 19.3337 32.9015 19.378C32.5235 19.4244 32.1886 19.5242 31.8785 19.7495L32.1796 20.164L32.4807 20.5784C32.607 20.4866 32.7587 20.4278 33.0264 20.395C33.311 20.36 33.6769 20.3591 34.226 20.3591V19.8469ZM31.2456 22.0122L31.7328 22.1705C31.9025 21.6483 32.0164 21.3006 32.1376 21.0407C32.2516 20.7963 32.3543 20.6702 32.4807 20.5784L32.1796 20.164L31.8785 19.7495C31.5683 19.9748 31.37 20.2625 31.209 20.6077C31.0552 20.9375 30.9204 21.3553 30.7584 21.8539L31.2456 22.0122ZM30.368 28.82L29.9381 29.0985C29.9981 29.1913 30.0134 29.2754 30.0111 29.3224C30.0088 29.3705 29.9955 29.3381 30.0453 29.3058L30.3239 29.7358L30.6024 30.1658C30.9001 29.9729 31.0208 29.6551 31.0344 29.3718C31.0482 29.0874 30.9615 28.7939 30.798 28.5415L30.368 28.82ZM30.3239 29.7358L30.0453 29.3058C30.0951 29.2736 30.1193 29.2989 30.0745 29.2814C30.0306 29.2642 29.9601 29.2159 29.9 29.1232L29.4701 29.4017L29.0401 29.6802C29.2036 29.9326 29.436 30.1317 29.7011 30.2355C29.9653 30.3388 30.3046 30.3586 30.6024 30.1658L30.3239 29.7358ZM29.4701 29.4017L29.9 29.1232C29.8399 29.0304 29.8247 28.9464 29.827 28.8993C29.8293 28.8512 29.8425 28.8836 29.7927 28.9159L29.5142 28.4859L29.2357 28.056C28.938 28.2488 28.8173 28.5666 28.8036 28.8499C28.7899 29.1343 28.8766 29.4278 29.0401 29.6802L29.4701 29.4017ZM29.5142 28.4859L29.7927 28.9159C29.7429 28.9481 29.7188 28.9228 29.7636 28.9404C29.8075 28.9575 29.878 29.0058 29.9381 29.0985L30.368 28.82L30.798 28.5415C30.6345 28.2891 30.4021 28.09 30.1369 27.9863C29.8728 27.8829 29.5335 27.8631 29.2357 28.056L29.5142 28.4859ZM29.3261 28.5149L29.2705 29.0242L35.0052 29.65L35.0608 29.1408L35.1164 28.6315L29.3816 28.0057L29.3261 28.5149ZM35.0608 29.1408L35.0226 28.6299L29.5256 29.0404L29.5638 29.5512L29.6019 30.0621L35.0989 29.6516L35.0608 29.1408ZM29.5638 29.5512L30.0631 29.4367L29.8254 28.4004L29.3261 28.5149L28.8268 28.6295L29.0645 29.6658L29.5638 29.5512ZM29.3261 28.5149L29.2695 28.0058C29.0429 28.031 28.9183 28.186 28.894 28.2158C28.8488 28.2715 28.8185 28.3277 28.7999 28.369L29.2669 28.5794L29.734 28.7899C29.7265 28.8066 29.7135 28.8319 29.689 28.8621C29.6763 28.8777 29.6508 28.9068 29.6103 28.9363C29.5713 28.9648 29.4938 29.0117 29.3826 29.0241L29.3261 28.5149ZM29.2669 28.5794L28.8 28.3687C28.7681 28.4393 28.7465 28.5013 28.7292 28.6068L29.2348 28.6895L29.7403 28.7722C29.7431 28.7552 29.7429 28.7614 29.7382 28.7765C29.7358 28.7843 29.7334 28.7908 29.7318 28.7947C29.7311 28.7964 29.7308 28.797 29.7312 28.7962C29.7316 28.7953 29.7323 28.7937 29.7339 28.7902L29.2669 28.5794ZM29.2348 28.6895L28.7232 28.6616C28.718 28.7579 28.7237 28.8579 28.736 28.9543L29.2441 28.889L29.7522 28.8237C29.7459 28.7742 29.7451 28.7382 29.7463 28.7174L29.2348 28.6895ZM29.2441 28.889L28.736 28.9543C28.7486 29.0518 28.7687 29.1512 28.7949 29.2472L29.2891 29.1123L29.7833 28.9775C29.769 28.925 29.7585 28.8721 29.7522 28.8237L29.2441 28.889ZM29.2891 29.1123L28.7949 29.2472C28.821 29.343 28.854 29.4381 28.8931 29.5266L29.3616 29.3195L29.8302 29.1124C29.8142 29.0763 29.7977 29.0302 29.7833 28.9775L29.2891 29.1123ZM29.3616 29.3195L28.8931 29.5266C28.9311 29.6127 28.9798 29.7033 29.0414 29.7841L29.4486 29.4733L29.8559 29.1625C29.8578 29.165 29.8555 29.1623 29.8501 29.1528C29.8449 29.1435 29.838 29.1302 29.8302 29.1124L29.3616 29.3195ZM29.4486 29.4733L29.0414 29.7841C29.0928 29.8514 29.1998 29.9746 29.3729 30.0322L29.5346 29.5461L29.6962 29.06C29.7625 29.082 29.8048 29.114 29.824 29.1302C29.8444 29.1476 29.8545 29.1607 29.8559 29.1625L29.4486 29.4733ZM29.5346 29.5461L29.3729 30.0322C29.4713 30.0649 29.5936 30.0765 29.7216 30.0375C29.8475 29.9991 29.9384 29.9242 29.9983 29.852L29.604 29.5249L29.2097 29.1979C29.2506 29.1486 29.3202 29.0887 29.4229 29.0574C29.5276 29.0255 29.6246 29.0362 29.6962 29.06L29.5346 29.5461ZM29.604 29.5249L30.0918 29.3684L29.9304 28.8654L29.4426 29.0219L28.9548 29.1785L29.1162 29.6815L29.604 29.5249ZM29.4426 29.0219L29.9418 28.9072L29.8253 28.4002L29.3261 28.5149L28.8268 28.6297L28.9433 29.1367L29.4426 29.0219ZM33.9603 17.8357V18.348H36.794V17.8357V17.3234H33.9603V17.8357ZM40.3075 22.6716L39.8203 22.5133L39.1033 24.7203L39.5905 24.8786L40.0777 25.0369L40.7947 22.8299L40.3075 22.6716ZM34.9213 28.271V27.7587H31.4804V28.271V28.7832H34.9213V28.271ZM29.2779 25.2395L29.7651 25.3978L31.4672 20.1593L30.98 20.001L30.4928 19.8427L28.7907 25.0812L29.2779 25.2395ZM31.4804 28.271V27.7587C30.7138 27.7587 30.1914 27.7576 29.8174 27.7077C29.4435 27.6578 29.3535 27.5742 29.3184 27.5259L28.904 27.827L28.4895 28.1281C28.777 28.5237 29.2239 28.6621 29.6819 28.7232C30.1399 28.7843 30.7444 28.7832 31.4804 28.7832V28.271ZM29.2779 25.2395L28.7907 25.0812C28.5633 25.7811 28.3754 26.3558 28.292 26.8102C28.2086 27.2646 28.2021 27.7325 28.4895 28.1281L28.904 27.827L29.3184 27.5259C29.2833 27.4776 29.2316 27.3662 29.2997 26.9951C29.3678 26.624 29.5282 26.1269 29.7651 25.3978L29.2779 25.2395ZM39.5905 24.8786L39.1033 24.7203C38.8396 25.5317 38.6552 26.0964 38.4562 26.5233C38.2643 26.9348 38.0762 27.1781 37.8262 27.3597L38.1273 27.7742L38.4284 28.1886C38.8622 27.8734 39.1459 27.4685 39.3847 26.9563C39.6164 26.4594 39.8217 25.8247 40.0777 25.0369L39.5905 24.8786ZM34.9213 28.271V28.7832C35.7496 28.7832 36.4167 28.7841 36.9608 28.7173C37.5218 28.6484 37.9946 28.5038 38.4284 28.1886L38.1273 27.7742L37.8262 27.3597C37.5762 27.5414 37.2866 27.6451 36.836 27.7004C36.3684 27.7578 35.7744 27.7587 34.9213 27.7587V28.271ZM36.794 17.8357V18.348C38.0078 18.348 38.8656 18.3491 39.4872 18.432C40.1088 18.5149 40.3585 18.6646 40.4896 18.845L40.9041 18.5439L41.3185 18.2428C40.9351 17.715 40.3283 17.5106 39.6227 17.4164C38.9172 17.3223 37.9772 17.3234 36.794 17.3234V17.8357ZM40.3075 22.6716L40.7947 22.8299C41.1604 21.7047 41.4519 20.811 41.5804 20.111C41.7089 19.4108 41.702 18.7705 41.3185 18.2428L40.9041 18.5439L40.4896 18.845C40.6207 19.0255 40.6859 19.3093 40.5727 19.926C40.4595 20.5428 40.1954 21.3589 39.8203 22.5133L40.3075 22.6716ZM33.9603 17.8357V17.3234C33.4361 17.3234 32.9971 17.3225 32.6359 17.3669C32.2578 17.4133 31.923 17.513 31.6128 17.7384L31.9139 18.1528L32.2151 18.5672C32.3414 18.4755 32.4931 18.4167 32.7608 18.3838C33.0453 18.3489 33.4113 18.348 33.9603 18.348V17.8357ZM30.98 20.001L31.4672 20.1593C31.6369 19.6372 31.7508 19.2894 31.8719 19.0295C31.9859 18.7851 32.0887 18.659 32.2151 18.5672L31.9139 18.1528L31.6128 17.7384C31.3027 17.9637 31.1044 18.2513 30.9434 18.5966C30.7896 18.9264 30.6548 19.3442 30.4928 19.8427L30.98 20.001ZM29.1411 29.1522L29.6174 29.3408C29.6443 29.273 29.6606 29.1999 29.6681 29.1674C29.6788 29.1214 29.6859 29.0895 29.6958 29.0542C29.7146 28.9872 29.7349 28.9429 29.7596 28.9103C29.7824 28.8803 29.893 28.737 30.4047 28.763L30.4307 28.2514L30.4568 27.7398C29.728 27.7027 29.2345 27.9069 28.9431 28.2915C28.8106 28.4662 28.7462 28.6462 28.7094 28.7772C28.6915 28.841 28.6781 28.9015 28.67 28.9362C28.6589 28.9843 28.6584 28.9799 28.6649 28.9636L29.1411 29.1522ZM30.4307 28.2514L30.4047 28.763C30.5055 28.7682 30.6964 28.7685 30.8689 28.659C30.9711 28.594 31.0622 28.4927 31.1094 28.3562C31.1537 28.2277 31.1447 28.11 31.1267 28.0278C31.094 27.8782 31.0125 27.7588 30.9603 27.6897C30.8996 27.6092 30.8268 27.5309 30.7538 27.459C30.4676 27.1774 30.0308 26.8526 29.7268 26.6439L29.4369 27.0663L29.147 27.4887C29.4381 27.6885 29.8148 27.9724 30.0351 28.1892C30.0887 28.242 30.1233 28.2814 30.1426 28.3069C30.1704 28.3438 30.1416 28.3187 30.1258 28.2468C30.1163 28.2034 30.1069 28.1204 30.1409 28.0219C30.1777 27.9153 30.2486 27.8392 30.3196 27.7941C30.4296 27.7242 30.5142 27.7427 30.4568 27.7398L30.4307 28.2514ZM29.4369 27.0663C28.9332 26.9728 28.9332 26.9728 28.9332 26.9728C28.9332 26.9728 28.9332 26.9728 28.9332 26.9728C28.9332 26.9729 28.9332 26.9729 28.9332 26.973C28.9332 26.9731 28.9331 26.9732 28.9331 26.9734C28.933 26.9738 28.9329 26.9744 28.9328 26.9752C28.9325 26.9768 28.932 26.9791 28.9315 26.9821C28.9304 26.9881 28.9288 26.9968 28.9267 27.008C28.9226 27.0304 28.9167 27.0625 28.9095 27.1018C28.8953 27.1803 28.876 27.2875 28.8559 27.4021C28.8174 27.6219 28.7709 27.8977 28.7568 28.0349L29.2664 28.0871L29.7761 28.1393C29.7856 28.0466 29.8243 27.812 29.8651 27.5789C29.8847 27.467 29.9036 27.3621 29.9176 27.2851C29.9246 27.2467 29.9303 27.2152 29.9343 27.1934C29.9363 27.1826 29.9379 27.1741 29.939 27.1684C29.9395 27.1655 29.9399 27.1634 29.9402 27.1619C29.9403 27.1612 29.9404 27.1607 29.9404 27.1603C29.9405 27.1601 29.9405 27.16 29.9405 27.1599C29.9405 27.1599 29.9405 27.1599 29.9405 27.1598C29.9405 27.1598 29.9405 27.1598 29.9405 27.1598C29.9405 27.1598 29.9405 27.1598 29.4369 27.0663ZM29.2664 28.0871L28.7568 28.0349C28.7456 28.1446 28.7149 28.4059 28.6863 28.6451C28.6722 28.7635 28.6587 28.8749 28.6488 28.9566C28.6439 28.9975 28.6398 29.0309 28.637 29.0541C28.6356 29.0657 28.6345 29.0748 28.6338 29.0809C28.6334 29.084 28.6331 29.0863 28.6329 29.0879C28.6328 29.0887 28.6327 29.0893 28.6327 29.0897C28.6327 29.0899 28.6327 29.09 28.6326 29.0901C28.6326 29.0902 28.6326 29.0902 28.6326 29.0902C28.6326 29.0902 28.6326 29.0902 28.6326 29.0903C28.6326 29.0903 28.6326 29.0903 29.1411 29.1522C29.6497 29.2142 29.6497 29.2142 29.6497 29.2142C29.6497 29.2141 29.6497 29.2141 29.6497 29.2141C29.6497 29.2141 29.6497 29.2141 29.6497 29.214C29.6497 29.2139 29.6497 29.2137 29.6497 29.2135C29.6498 29.2131 29.6499 29.2125 29.65 29.2117C29.6502 29.2101 29.6504 29.2077 29.6508 29.2046C29.6516 29.1984 29.6527 29.1893 29.6541 29.1776C29.6569 29.1543 29.661 29.1207 29.666 29.0796C29.6759 28.9976 29.6894 28.8857 29.7036 28.7666C29.7318 28.5308 29.7637 28.2595 29.7761 28.1393L29.2664 28.0871ZM33.9348 17.8357V18.348H37.7674V17.8357V17.3234H33.9348V17.8357ZM40.2321 21.2281L39.7449 21.0698L38.7807 24.0372L39.2679 24.1955L39.7551 24.3538L40.7193 21.3864L40.2321 21.2281ZM34.5987 27.5879V27.0756H30.3866V27.5879V28.1002H34.5987V27.5879ZM29.0756 25.7835L29.5628 25.9418L31.4416 20.1593L30.9544 20.001L30.4672 19.8427L28.5884 25.6252L29.0756 25.7835ZM30.3866 27.5879V27.0756C29.9241 27.0756 29.6298 27.0745 29.4242 27.0471C29.2186 27.0197 29.2373 26.981 29.2675 27.0226L28.853 27.3237L28.4386 27.6248C28.6607 27.9306 28.999 28.024 29.2887 28.0627C29.5783 28.1013 29.9547 28.1002 30.3866 28.1002V27.5879ZM29.0756 25.7835L28.5884 25.6252C28.4549 26.0359 28.3376 26.3936 28.2848 26.681C28.2321 26.9684 28.2164 27.319 28.4386 27.6248L28.853 27.3237L29.2675 27.0226C29.2976 27.0641 29.2551 27.0699 29.2925 26.8659C29.33 26.6619 29.4199 26.3817 29.5628 25.9418L29.0756 25.7835ZM39.2679 24.1955L38.7807 24.0372C38.5171 24.8486 38.3326 25.4133 38.1336 25.8402C37.9417 26.2517 37.7536 26.495 37.5036 26.6767L37.8047 27.0911L38.1058 27.5056C38.5396 27.1904 38.8233 26.7855 39.0622 26.2732C39.2938 25.7763 39.4991 25.1416 39.7551 24.3538L39.2679 24.1955ZM34.5987 27.5879V28.1002C35.427 28.1002 36.0941 28.1011 36.6382 28.0343C37.1993 27.9654 37.672 27.8207 38.1058 27.5056L37.8047 27.0911L37.5036 26.6767C37.2536 26.8583 36.9641 26.962 36.5134 27.0174C36.0459 27.0748 35.4518 27.0756 34.5987 27.0756V27.5879ZM37.7674 17.8357V18.348C38.6234 18.348 39.2129 18.3491 39.6364 18.4056C40.0599 18.4621 40.1818 18.5589 40.2361 18.6336L40.6505 18.3325L41.065 18.0314C40.7584 17.6093 40.2794 17.4577 39.7719 17.39C39.2644 17.3223 38.5928 17.3234 37.7674 17.3234V17.8357ZM40.2321 21.2281L40.7193 21.3864C40.9744 20.6014 41.183 19.9629 41.2754 19.4594C41.3678 18.9558 41.3716 18.4534 41.065 18.0314L40.6505 18.3325L40.2361 18.6336C40.2904 18.7084 40.3448 18.8542 40.2677 19.2744C40.1905 19.6947 40.0094 20.2556 39.7449 21.0698L40.2321 21.2281ZM33.9348 17.8357V17.3234C33.4105 17.3234 32.9715 17.3225 32.6104 17.3669C32.2323 17.4133 31.8974 17.513 31.5873 17.7384L31.8884 18.1528L32.1895 18.5672C32.3158 18.4755 32.4675 18.4167 32.7352 18.3838C33.0198 18.3489 33.3857 18.348 33.9348 18.348V17.8357ZM30.9544 20.001L31.4416 20.1593C31.6113 19.6372 31.7252 19.2894 31.8464 19.0295C31.9604 18.7851 32.0632 18.659 32.1895 18.5672L31.8884 18.1528L31.5873 17.7384C31.2772 17.9637 31.0788 18.2514 30.9178 18.5966C30.764 18.9264 30.6292 19.3442 30.4672 19.8427L30.9544 20.001ZM28.534 28.4607L28.9733 28.7243C29.0235 28.6406 29.0502 28.551 29.0589 28.5235C29.0734 28.4778 29.0792 28.4583 29.0885 28.4353C29.1009 28.4044 29.1151 28.3786 29.1525 28.3477C29.2458 28.2704 29.5634 28.1002 30.5262 28.1002V27.5879V27.0756C29.4968 27.0756 28.8752 27.247 28.4989 27.5586C28.3015 27.7222 28.1983 27.9027 28.1378 28.0532C28.1106 28.121 28.0911 28.186 28.0822 28.214C28.0676 28.2601 28.073 28.2334 28.0947 28.1971L28.534 28.4607ZM30.5262 27.5879V28.1002C30.6586 28.1002 30.8294 28.0923 30.9762 28.0336C31.0503 28.004 31.1995 27.9297 31.2883 27.7565C31.3908 27.5568 31.3456 27.3651 31.2913 27.2528C31.2425 27.1519 31.1737 27.0818 31.1312 27.0426C31.0834 26.9985 31.032 26.9605 30.9849 26.9288C30.8906 26.8653 30.778 26.8035 30.6627 26.7457C30.2051 26.5164 29.5021 26.2513 29.0051 26.0793L28.8376 26.5634L28.67 27.0475C29.1597 27.217 29.8095 27.4641 30.2037 27.6617C30.3014 27.7106 30.3704 27.7502 30.413 27.7788C30.4343 27.7932 30.4401 27.7989 30.4365 27.7956C30.4344 27.7936 30.4263 27.786 30.4154 27.7727C30.4051 27.76 30.3866 27.7354 30.369 27.699C30.3314 27.6214 30.2884 27.461 30.3767 27.2888C30.4515 27.1431 30.5703 27.0925 30.5959 27.0822C30.646 27.0622 30.648 27.0756 30.5262 27.0756V27.5879ZM28.8376 26.5634C28.3391 26.4453 28.3391 26.4453 28.3391 26.4453C28.3391 26.4453 28.3391 26.4454 28.3391 26.4454C28.3391 26.4454 28.339 26.4455 28.339 26.4455C28.339 26.4456 28.339 26.4458 28.3389 26.446C28.3388 26.4464 28.3387 26.447 28.3385 26.4477C28.3382 26.4492 28.3377 26.4513 28.337 26.4541C28.3357 26.4597 28.3338 26.4678 28.3314 26.4781C28.3266 26.4987 28.3197 26.5283 28.3114 26.5644C28.2948 26.6365 28.2724 26.7351 28.2493 26.8407C28.2069 27.0351 28.1507 27.3033 28.1377 27.4467L28.6478 27.4931L29.158 27.5394C29.164 27.4741 29.2026 27.2774 29.2503 27.0593C29.2723 26.9585 29.2938 26.8638 29.3098 26.7942C29.3178 26.7594 29.3244 26.731 29.329 26.7114C29.3313 26.7016 29.3331 26.694 29.3343 26.6889C29.3349 26.6864 29.3353 26.6844 29.3356 26.6832C29.3358 26.6826 29.3359 26.6821 29.336 26.6818C29.336 26.6817 29.336 26.6815 29.336 26.6815C29.3361 26.6815 29.3361 26.6814 29.3361 26.6814C29.3361 26.6814 29.3361 26.6814 29.3361 26.6814C29.3361 26.6814 29.3361 26.6814 28.8376 26.5634ZM28.6478 27.4931L28.1377 27.4467C28.129 27.5417 28.1017 27.7748 28.0752 27.9937C28.0623 28.101 28.0499 28.2019 28.0407 28.2761C28.0361 28.3131 28.0324 28.3434 28.0297 28.3645C28.0284 28.375 28.0274 28.3832 28.0267 28.3887C28.0264 28.3915 28.0261 28.3936 28.0259 28.395C28.0259 28.3958 28.0258 28.3963 28.0257 28.3966C28.0257 28.3968 28.0257 28.3969 28.0257 28.397C28.0257 28.3971 28.0257 28.3971 28.0257 28.3971C28.0257 28.3971 28.0257 28.3971 28.0257 28.3971C28.0257 28.3972 28.0257 28.3972 28.534 28.4607C29.0423 28.5242 29.0423 28.5242 29.0423 28.5242C29.0423 28.5242 29.0423 28.5242 29.0423 28.5242C29.0423 28.5242 29.0423 28.5241 29.0423 28.5241C29.0424 28.524 29.0424 28.5238 29.0424 28.5236C29.0424 28.5233 29.0425 28.5227 29.0426 28.522C29.0428 28.5205 29.0431 28.5183 29.0434 28.5155C29.0441 28.5098 29.0451 28.5015 29.0465 28.4909C29.0491 28.4696 29.0529 28.439 29.0575 28.4016C29.0668 28.3269 29.0793 28.2251 29.0924 28.1166C29.1181 27.9038 29.1477 27.6531 29.158 27.5394L28.6478 27.4931ZM29.6344 27.9674L30.115 28.1447L33.4543 19.0945L32.9737 18.9172L32.4931 18.7398L29.1538 27.7901L29.6344 27.9674ZM32.9737 18.9172L32.4787 18.7855L30.107 27.7029L30.6021 27.8346L31.0971 27.9662L33.4688 19.0488L32.9737 18.9172ZM30.6021 27.8346L30.5324 27.3271L29.5648 27.4599L29.6344 27.9674L29.7041 28.4749L30.6717 28.3421L30.6021 27.8346Z" fill="url(#paint6_linear_120_3188)"/>
</g>
<path d="M30.168 22.3538C30.4997 21.3331 30.6655 20.8227 31.102 20.5056C31.5384 20.1885 32.0751 20.1885 33.1484 20.1885H37.1529C39.7645 20.1885 41.0704 20.1885 41.631 20.9601C42.1916 21.7317 41.7881 22.9737 40.981 25.4575L39.8592 28.91C39.5386 29.8968 39.3783 30.3901 38.9564 30.6967C38.5345 31.0032 38.0157 31.0032 36.9782 31.0032H35.4782C31.6501 31.0032 29.7361 31.0032 28.9144 29.8722C28.0926 28.7412 28.6841 26.9208 29.867 23.2801L30.168 22.3538Z" fill="#870000"/>
<mask id="mask0_120_3188" style="mask-type:alpha" maskUnits="userSpaceOnUse" x="28" y="20" width="14" height="12">
<path d="M30.168 22.3538C30.4997 21.3331 30.6655 20.8227 31.102 20.5056C31.5384 20.1885 32.0751 20.1885 33.1484 20.1885H37.1529C39.7645 20.1885 41.0704 20.1885 41.631 20.9601C42.1916 21.7317 41.7881 22.9737 40.981 25.4575L39.8592 28.91C39.5386 29.8968 39.3783 30.3901 38.9564 30.6967C38.5345 31.0032 38.0157 31.0032 36.9782 31.0032H35.4782C31.6501 31.0032 29.7361 31.0032 28.9144 29.8722C28.0926 28.7412 28.6841 26.9208 29.867 23.2801L30.168 22.3538Z" fill="#B81219"/>
</mask>
<g mask="url(#mask0_120_3188)">
<rect width="9.90402" height="16.8482" transform="matrix(1 0 0.309017 0.951057 34.5295 17.2285)" fill="#B81219"/>
</g>
<path d="M31.2454 22.0123C31.5771 20.9915 31.7429 20.4811 32.1794 20.164C32.6158 19.8469 33.1525 19.8469 34.2258 19.8469H37.8972C39.8649 19.8469 40.8488 19.8469 41.2711 20.4283C41.6935 21.0097 41.3895 21.9453 40.7814 23.8167L39.1546 28.8238C38.9777 29.3682 38.8892 29.6404 38.6565 29.8095C38.4237 29.9786 38.1375 29.9786 37.565 29.9786H32.6793C30.7832 29.9786 29.8351 29.9786 29.4281 29.4184C29.021 28.8582 29.314 27.9565 29.9 26.1532L31.2454 22.0123Z" fill="url(#paint7_linear_120_3188)"/>
<mask id="mask1_120_3188" style="mask-type:alpha" maskUnits="userSpaceOnUse" x="29" y="19" width="13" height="11">
<path d="M31.2457 22.0123C31.5773 20.9915 31.7431 20.4811 32.1796 20.164C32.6161 19.8469 33.1527 19.8469 34.226 19.8469H37.8975C39.8651 19.8469 40.849 19.8469 41.2714 20.4283C41.6938 21.0097 41.3897 21.9453 40.7817 23.8167L39.1548 28.8238C38.9779 29.3682 38.8895 29.6404 38.6567 29.8095C38.4239 29.9786 38.1377 29.9786 37.5653 29.9786H32.6796C30.7834 29.9786 29.8353 29.9786 29.4283 29.4184C29.0213 28.8582 29.3143 27.9565 29.9002 26.1532L31.2457 22.0123Z" fill="#E0B05D"/>
</mask>
<g mask="url(#mask1_120_3188)">
<ellipse cx="41.1305" cy="23.7956" rx="3.41982" ry="6.5837" transform="rotate(23.5588 41.1305 23.7956)" fill="url(#paint8_linear_120_3188)"/>
</g>
<ellipse cx="29.919" cy="29.111" rx="0.534943" ry="0.744599" transform="rotate(-32.934 29.919 29.111)" fill="#C68643"/>
<mask id="mask2_120_3188" style="mask-type:alpha" maskUnits="userSpaceOnUse" x="29" y="19" width="13" height="11">
<path d="M31.2454 22.0123C31.5771 20.9915 31.7429 20.4811 32.1794 20.164C32.6158 19.8469 33.1525 19.8469 34.2258 19.8469H37.8972C39.8649 19.8469 40.8488 19.8469 41.2711 20.4283C41.6935 21.0097 41.3895 21.9453 40.7814 23.8167L39.1546 28.8238C38.9777 29.3682 38.8892 29.6404 38.6565 29.8095C38.4237 29.9786 38.1375 29.9786 37.565 29.9786H32.6793C30.7832 29.9786 29.8351 29.9786 29.4281 29.4184C29.021 28.8582 29.314 27.9565 29.9 26.1532L31.2454 22.0123Z" fill="#E0B05D"/>
</mask>
<g mask="url(#mask2_120_3188)">
<path d="M29.4375 20.1907C29.7692 19.17 29.935 18.6596 30.3715 18.3425C30.808 18.0254 31.3446 18.0254 32.4179 18.0254H36.9921C39.3891 18.0254 40.5876 18.0254 41.1021 18.7336C41.6167 19.4418 41.2463 20.5817 40.5056 22.8613L39.7885 25.0683C39.2689 26.6675 39.0091 27.4671 38.3253 27.9639C37.6416 28.4607 36.8008 28.4607 35.1193 28.4607H29.938C28.4354 28.4607 27.6841 28.4607 27.3615 28.0167C27.039 27.5728 27.2712 26.8582 27.7355 25.4292L29.4375 20.1907Z" fill="url(#paint9_linear_120_3188)"/>
</g>
<path d="M35.0606 29.1407L29.3259 28.5149L29.5636 29.5512L35.0606 29.1407Z" fill="#BF7B3D"/>
<path d="M29.3259 28.5149C29.3014 28.5176 29.2779 28.5548 29.2668 28.5794C29.2516 28.613 29.244 28.6321 29.2346 28.6894C29.2314 28.748 29.2346 28.816 29.244 28.8889C29.2534 28.9619 29.2687 29.038 29.289 29.1123C29.3092 29.1865 29.3339 29.2572 29.3614 29.3194C29.389 29.3817 29.4186 29.4341 29.4485 29.4732C29.4783 29.5123 29.5076 29.5371 29.5344 29.546C29.5612 29.5549 29.5849 29.5477 29.6038 29.5249L29.4424 29.0219L29.3259 28.5149Z" fill="#BF7B3D"/>
<path d="M30.9798 20.001C31.3114 18.9803 31.4773 18.4699 31.9137 18.1528C32.3502 17.8357 32.8868 17.8357 33.9601 17.8357H36.7938C39.1908 17.8357 40.3893 17.8357 40.9039 18.5439C41.4184 19.2521 41.0481 20.392 40.3073 22.6716L39.5903 24.8786C39.0707 26.4778 38.8109 27.2774 38.1271 27.7742C37.4433 28.271 36.6025 28.271 34.9211 28.271H31.4802C29.9776 28.271 29.2263 28.271 28.9038 27.827C28.5812 27.3831 28.8134 26.6685 29.2777 25.2395L30.9798 20.001Z" fill="url(#paint10_linear_120_3188)"/>
<mask id="mask3_120_3188" style="mask-type:alpha" maskUnits="userSpaceOnUse" x="28" y="17" width="14" height="12">
<path d="M30.9798 20.001C31.3114 18.9803 31.4773 18.4699 31.9137 18.1528C32.3502 17.8357 32.8868 17.8357 33.9601 17.8357H36.7938C39.1908 17.8357 40.3893 17.8357 40.9039 18.5439C41.4184 19.2521 41.0481 20.392 40.3073 22.6716L39.5903 24.8786C39.0707 26.4778 38.8109 27.2774 38.1271 27.7742C37.4433 28.271 36.6025 28.271 34.9211 28.271H31.4802C29.9776 28.271 29.2263 28.271 28.9038 27.827C28.5812 27.3831 28.8134 26.6685 29.2777 25.2395L30.9798 20.001Z" fill="url(#paint11_linear_120_3188)"/>
</mask>
<g mask="url(#mask3_120_3188)">
<path d="M33.9413 28.9541L33.7705 27.626L38.9881 24.9508L39.4625 25.6338C39.355 26.5635 39.1399 28.4532 39.1399 28.5746C39.1399 28.6961 35.6742 28.8782 33.9413 28.9541Z" fill="url(#paint12_linear_120_3188)"/>
<path d="M40.4681 22.3514L40.2593 21.0802C40.0696 20.6755 39.6902 19.8432 39.6902 19.7521C39.6902 19.6383 38.362 17.5891 38.3241 17.3994C38.2937 17.2476 39.2221 17.0705 39.6902 17.001C40.2973 17.4184 41.5306 18.2684 41.6064 18.3291C41.6823 18.3898 40.8791 21.0359 40.4681 22.3514Z" fill="url(#paint13_linear_120_3188)"/>
</g>
<path d="M30.4307 28.2514C29.1902 28.1882 29.2227 28.9462 29.1411 29.1522C29.1411 29.1522 29.2429 28.317 29.2664 28.0871C29.29 27.8572 29.4368 27.0663 29.4368 27.0663C30.032 27.4747 31.0639 28.2836 30.4307 28.2514Z" fill="#870000"/>
<g filter="url(#filter2_i_120_3188)">
<path d="M30.9544 20.001C31.286 18.9803 31.4519 18.4699 31.8883 18.1528C32.3248 17.8357 32.8614 17.8357 33.9347 17.8357H37.7673C39.4488 17.8357 40.2895 17.8357 40.6505 18.3325C41.0114 18.8293 40.7516 19.6289 40.232 21.2281L39.2678 24.1955C38.7482 25.7947 38.4884 26.5943 37.8046 27.0911C37.1208 27.5879 36.2801 27.5879 34.5986 27.5879H30.3866C29.4922 27.5879 29.045 27.5879 28.853 27.3237C28.661 27.0594 28.7992 26.6341 29.0756 25.7835L30.9544 20.001Z" fill="url(#paint14_linear_120_3188)"/>
<path d="M30.5261 27.5879C28.5339 27.5879 28.6478 28.271 28.5339 28.4607C28.5339 28.4607 28.6288 27.7018 28.6478 27.4931C28.6667 27.2844 28.8375 26.5634 28.8375 26.5634C29.8241 26.9049 31.5431 27.5879 30.5261 27.5879Z" fill="url(#paint15_linear_120_3188)"/>
</g>
<mask id="mask4_120_3188" style="mask-type:alpha" maskUnits="userSpaceOnUse" x="28" y="17" width="13" height="12">
<path d="M30.9544 20.001C31.286 18.9803 31.4519 18.4699 31.8883 18.1528C32.3248 17.8357 32.8614 17.8357 33.9347 17.8357H37.7673C39.4488 17.8357 40.2895 17.8357 40.6505 18.3325C41.0114 18.8293 40.7516 19.6289 40.232 21.2281L39.2678 24.1955C38.7482 25.7947 38.4884 26.5943 37.8046 27.0911C37.1208 27.5879 36.2801 27.5879 34.5986 27.5879H30.3866C29.4922 27.5879 29.045 27.5879 28.853 27.3237C28.661 27.0594 28.7992 26.6341 29.0756 25.7835L30.9544 20.001Z" fill="url(#paint16_linear_120_3188)"/>
<path d="M30.5261 27.5879C28.5339 27.5879 28.6478 28.271 28.5339 28.4607C28.5339 28.4607 28.6288 27.7018 28.6478 27.4931C28.6667 27.2844 28.8375 26.5634 28.8375 26.5634C29.8241 26.9049 31.5431 27.5879 30.5261 27.5879Z" fill="url(#paint17_linear_120_3188)"/>
</mask>
<g mask="url(#mask4_120_3188)">
<path d="M33.6567 16.8871C32.4741 20.4415 30.1087 27.5956 30.1087 27.7778L28.8945 28.8403L26.6177 29.9976L29.236 15.54L33.6567 16.8871Z" fill="url(#paint18_linear_120_3188)"/>
</g>
<mask id="mask5_120_3188" style="mask-type:alpha" maskUnits="userSpaceOnUse" x="28" y="17" width="13" height="12">
<path d="M30.9544 20.001C31.286 18.9803 31.4519 18.4699 31.8883 18.1528C32.3248 17.8357 32.8614 17.8357 33.9347 17.8357H37.7673C39.4488 17.8357 40.2895 17.8357 40.6505 18.3325C41.0114 18.8293 40.7516 19.6289 40.232 21.2281L39.2678 24.1955C38.7482 25.7947 38.4884 26.5943 37.8046 27.0911C37.1208 27.5879 36.2801 27.5879 34.5986 27.5879H30.3866C29.4922 27.5879 29.045 27.5879 28.853 27.3237C28.661 27.0594 28.7992 26.6341 29.0756 25.7835L30.9544 20.001Z" fill="url(#paint19_linear_120_3188)"/>
<path d="M30.5261 27.5879C28.5339 27.5879 28.6478 28.271 28.5339 28.4607C28.5339 28.4607 28.6288 27.7018 28.6478 27.4931C28.6667 27.2844 28.8375 26.5634 28.8375 26.5634C29.8241 26.9049 31.5431 27.5879 30.5261 27.5879Z" fill="url(#paint20_linear_120_3188)"/>
</mask>
<g mask="url(#mask5_120_3188)">
<ellipse cx="35.9714" cy="19.6003" rx="6.71652" ry="2.86496" fill="url(#paint21_linear_120_3188)" fill-opacity="0.6"/>
</g>
<g filter="url(#filter3_i_120_3188)">
<mask id="mask6_120_3188" style="mask-type:alpha" maskUnits="userSpaceOnUse" x="28" y="17" width="13" height="12">
<path d="M30.9544 20.001C31.286 18.9803 31.4519 18.4699 31.8883 18.1528C32.3248 17.8357 32.8614 17.8357 33.9347 17.8357H37.7673C39.4488 17.8357 40.2895 17.8357 40.6505 18.3325C41.0114 18.8293 40.7516 19.6289 40.232 21.2281L39.2678 24.1955C38.7482 25.7947 38.4884 26.5943 37.8046 27.0911C37.1208 27.5879 36.2801 27.5879 34.5986 27.5879H30.3866C29.4922 27.5879 29.045 27.5879 28.853 27.3237C28.661 27.0594 28.7992 26.6341 29.0756 25.7835L30.9544 20.001Z" fill="url(#paint22_linear_120_3188)"/>
<path d="M30.5261 27.5879C28.5339 27.5879 28.6478 28.271 28.5339 28.4607C28.5339 28.4607 28.6288 27.7018 28.6478 27.4931C28.6667 27.2844 28.8375 26.5634 28.8375 26.5634C29.8241 26.9049 31.5431 27.5879 30.5261 27.5879Z" fill="url(#paint23_linear_120_3188)"/>
</mask>
<g mask="url(#mask6_120_3188)">
<path d="M40.9992 21.8277L36.9389 17.6119L42.1186 17.2666L40.9992 21.8277Z" fill="url(#paint24_linear_120_3188)"/>
<path d="M33.8083 27.588L39.3675 24.7714L39.0829 27.588H33.8083Z" fill="url(#paint25_linear_120_3188)"/>
</g>
</g>
<path d="M32.9736 18.9172L29.6343 27.9675L30.6019 27.8346L32.9736 18.9172Z" fill="url(#paint26_linear_120_3188)"/>
<path d="M48.454 26.7419L50.1975 22.8644H50.8795L52.623 26.7419H51.8255L51.3635 25.6584L51.6935 25.9389H49.3725L49.697 25.6584L49.235 26.7419H48.454ZM50.5165 23.6564L49.752 25.4659L49.6145 25.3064H51.4515L51.3085 25.4659L50.5495 23.6564H50.5165ZM54.4435 26.7969C54.1355 26.7969 53.899 26.7144 53.734 26.5494C53.569 26.3844 53.4865 26.1516 53.4865 25.8509V22.8644H54.251V25.7849C54.251 25.8766 54.2638 25.9536 54.2895 26.0159C54.3151 26.0783 54.3536 26.1259 54.405 26.1589C54.4563 26.1919 54.5186 26.2084 54.592 26.2084C54.6506 26.2084 54.7038 26.2066 54.7515 26.2029C54.8028 26.1956 54.8578 26.1846 54.9165 26.1699L54.977 26.7089C54.889 26.7419 54.8046 26.7639 54.724 26.7749C54.647 26.7896 54.5535 26.7969 54.4435 26.7969ZM57.4548 26.7969C57.2275 26.7969 57.0295 26.7474 56.8608 26.6484C56.6958 26.5458 56.5656 26.3936 56.4703 26.1919H56.4318V26.7419H55.7663V22.8644H56.5308V24.4484H56.5638C56.6481 24.2871 56.7655 24.1588 56.9158 24.0634C57.0661 23.9681 57.2531 23.9204 57.4768 23.9204C57.7408 23.9204 57.9663 23.9828 58.1533 24.1074C58.344 24.2321 58.4888 24.4026 58.5878 24.6189C58.6905 24.8353 58.7418 25.0809 58.7418 25.3559C58.7418 25.6346 58.6905 25.8839 58.5878 26.1039C58.4851 26.3203 58.3385 26.4908 58.1478 26.6154C57.9571 26.7364 57.7261 26.7969 57.4548 26.7969ZM57.2568 26.2029C57.4915 26.2029 57.6711 26.1278 57.7958 25.9774C57.9241 25.8234 57.9883 25.6163 57.9883 25.3559C57.9883 25.0956 57.9241 24.8903 57.7958 24.7399C57.6675 24.5896 57.486 24.5144 57.2513 24.5144C57.0203 24.5144 56.8406 24.5896 56.7123 24.7399C56.584 24.8903 56.5198 25.0956 56.5198 25.3559C56.5198 25.6163 56.584 25.8234 56.7123 25.9774C56.8443 26.1278 57.0258 26.2029 57.2568 26.2029ZM60.8696 26.7969C60.6423 26.7969 60.448 26.7548 60.2866 26.6704C60.1253 26.5824 60.0025 26.4523 59.9181 26.2799C59.8338 26.1039 59.7916 25.8839 59.7916 25.6199V23.9754H60.5561V25.5814C60.5561 25.6951 60.5745 25.7959 60.6111 25.8839C60.6478 25.9719 60.7046 26.0398 60.7816 26.0874C60.8623 26.1351 60.965 26.1589 61.0896 26.1589C61.218 26.1589 61.3335 26.1278 61.4361 26.0654C61.5425 26.0031 61.625 25.9206 61.6836 25.8179C61.746 25.7116 61.7771 25.5998 61.7771 25.4824V23.9754H62.5416V26.7419H61.8596V26.1699H61.8266C61.7276 26.3679 61.5993 26.5219 61.4416 26.6319C61.284 26.7419 61.0933 26.7969 60.8696 26.7969ZM63.7584 26.7419V23.9754H64.4239V24.5529H64.4569C64.5119 24.4319 64.5852 24.3238 64.6769 24.2284C64.7722 24.1331 64.8822 24.0579 65.0069 24.0029C65.1352 23.9479 65.2745 23.9204 65.4249 23.9204C65.6522 23.9204 65.8429 23.9773 65.9969 24.0909C66.1545 24.2009 66.2572 24.3421 66.3049 24.5144H66.3379C66.4075 24.3568 66.5212 24.2193 66.6789 24.1019C66.8402 23.9809 67.0437 23.9204 67.2894 23.9204C67.502 23.9204 67.6835 23.9644 67.8339 24.0524C67.9842 24.1368 68.0979 24.2688 68.1749 24.4484C68.2555 24.6244 68.2959 24.8499 68.2959 25.1249V26.7419H67.5424V25.1469C67.5424 24.9526 67.5075 24.8059 67.4379 24.7069C67.3719 24.6079 67.2472 24.5584 67.0639 24.5584C66.9245 24.5584 66.8035 24.5896 66.7009 24.6519C66.6019 24.7106 66.5249 24.7913 66.4699 24.8939C66.4185 24.9966 66.3929 25.1121 66.3929 25.2404V26.7419H65.6559V25.1469C65.6559 24.9563 65.6155 24.8114 65.5349 24.7124C65.4542 24.6098 65.3332 24.5584 65.1719 24.5584C65.0362 24.5584 64.9189 24.5933 64.8199 24.6629C64.7209 24.7289 64.6439 24.8133 64.5889 24.9159C64.5339 25.0186 64.5064 25.1231 64.5064 25.2294V26.7419H63.7584Z" fill="#202224"/>
<mask id="mask7_120_3188" style="mask-type:alpha" maskUnits="userSpaceOnUse" x="13" y="13" width="16" height="23">
<path d="M14.0659 17.2286C14.0659 15.4365 15.5188 13.9836 17.3109 13.9836H21.8203C25.2697 13.9836 28.0659 16.7799 28.0659 20.2293V29.2544C28.0659 32.7038 25.2697 35.5 21.8203 35.5H17.3109C15.5188 35.5 14.0659 34.0472 14.0659 32.255V17.2286Z" fill="white" stroke="url(#paint27_linear_120_3188)" stroke-opacity="0.3" stroke-width="0.650789"/>
</mask>
<g mask="url(#mask7_120_3188)">
<rect x="13.5659" y="13.5698" width="7" height="22.3439" fill="#587ED7"/>
</g>
<defs>
<filter id="filter0_d_120_3188" x="0.214528" y="0.132253" width="107.584" height="52.6006" filterUnits="userSpaceOnUse" color-interpolation-filters="sRGB">
<feFlood flood-opacity="0" result="BackgroundImageFix"/>
<feColorMatrix in="SourceAlpha" type="matrix" values="0 0 0 0 0 0 0 0 0 0 0 0 0 0 0 0 0 0 127 0" result="hardAlpha"/>
<feOffset dx="1.69074" dy="1.69074"/>
<feGaussianBlur stdDeviation="7.60835"/>
<feColorMatrix type="matrix" values="0 0 0 0 0 0 0 0 0 0 0 0 0 0 0 0 0 0 0.05 0"/>
<feBlend mode="normal" in2="BackgroundImageFix" result="effect1_dropShadow_120_3188"/>
<feBlend mode="normal" in="SourceGraphic" in2="effect1_dropShadow_120_3188" result="shape"/>
</filter>
<filter id="filter1_d_120_3188" x="28.0205" y="17.3235" width="14.6487" height="14.7231" filterUnits="userSpaceOnUse" color-interpolation-filters="sRGB">
<feFlood flood-opacity="0" result="BackgroundImageFix"/>
<feColorMatrix in="SourceAlpha" type="matrix" values="0 0 0 0 0 0 0 0 0 0 0 0 0 0 0 0 0 0 127 0" result="hardAlpha"/>
<feOffset dx="0.265625" dy="0.53125"/>
<feComposite in2="hardAlpha" operator="out"/>
<feColorMatrix type="matrix" values="0 0 0 0 0.2125 0 0 0 0 0 0 0 0 0 0 0 0 0 1 0"/>
<feBlend mode="normal" in2="BackgroundImageFix" result="effect1_dropShadow_120_3188"/>
<feBlend mode="normal" in="SourceGraphic" in2="effect1_dropShadow_120_3188" result="shape"/>
</filter>
<filter id="filter2_i_120_3188" x="28.5339" y="17.8357" width="12.2842" height="10.625" filterUnits="userSpaceOnUse" color-interpolation-filters="sRGB">
<feFlood flood-opacity="0" result="BackgroundImageFix"/>
<feBlend mode="normal" in="SourceGraphic" in2="BackgroundImageFix" result="shape"/>
<feColorMatrix in="SourceAlpha" type="matrix" values="0 0 0 0 0 0 0 0 0 0 0 0 0 0 0 0 0 0 127 0" result="hardAlpha"/>
<feOffset dx="-0.265625" dy="-0.303571"/>
<feComposite in2="hardAlpha" operator="arithmetic" k2="-1" k3="1"/>
<feColorMatrix type="matrix" values="0 0 0 0 1 0 0 0 0 0.281167 0 0 0 0 0.0541667 0 0 0 1 0"/>
<feBlend mode="normal" in2="shape" result="effect1_innerShadow_120_3188"/>
</filter>
<filter id="filter3_i_120_3188" x="33.8083" y="17.8357" width="7.00977" height="9.75244" filterUnits="userSpaceOnUse" color-interpolation-filters="sRGB">
<feFlood flood-opacity="0" result="BackgroundImageFix"/>
<feBlend mode="normal" in="SourceGraphic" in2="BackgroundImageFix" result="shape"/>
<feColorMatrix in="SourceAlpha" type="matrix" values="0 0 0 0 0 0 0 0 0 0 0 0 0 0 0 0 0 0 127 0" result="hardAlpha"/>
<feOffset dx="-0.265625" dy="-0.303571"/>
<feComposite in2="hardAlpha" operator="arithmetic" k2="-1" k3="1"/>
<feColorMatrix type="matrix" values="0 0 0 0 1 0 0 0 0 0.92 0 0 0 0 0.2 0 0 0 1 0"/>
<feBlend mode="normal" in2="shape" result="effect1_innerShadow_120_3188"/>
</filter>
<linearGradient id="paint0_linear_120_3188" x1="31.5096" y1="6.21206" x2="69.5424" y2="49.2588" gradientUnits="userSpaceOnUse">
<stop stop-color="#F1F1F1"/>
<stop offset="1" stop-color="#E1E1E1"/>
</linearGradient>
<linearGradient id="paint1_linear_120_3188" x1="33.8465" y1="20.1884" x2="31.0005" y2="28.4607" gradientUnits="userSpaceOnUse">
<stop stop-color="#B70A0A"/>
<stop offset="1" stop-color="#5D0010"/>
</linearGradient>
<linearGradient id="paint2_linear_120_3188" x1="43.3293" y1="20.134" x2="39.7216" y2="31.1131" gradientUnits="userSpaceOnUse">
<stop stop-color="#C00D12"/>
<stop offset="1" stop-color="#5E0010"/>
</linearGradient>
<linearGradient id="paint3_linear_120_3188" x1="41.5313" y1="18.1649" x2="32.8814" y2="25.4499" gradientUnits="userSpaceOnUse">
<stop offset="0.0620359" stop-color="#FC2424"/>
<stop offset="1" stop-color="#BD1818"/>
</linearGradient>
<linearGradient id="paint4_linear_120_3188" x1="41.5313" y1="18.1649" x2="32.8814" y2="25.4499" gradientUnits="userSpaceOnUse">
<stop offset="0.0620359" stop-color="#FC2424"/>
<stop offset="1" stop-color="#BD1818"/>
</linearGradient>
<linearGradient id="paint5_linear_120_3188" x1="33.8465" y1="20.1884" x2="31.0005" y2="28.4607" gradientUnits="userSpaceOnUse">
<stop stop-color="#B70A0A"/>
<stop offset="1" stop-color="#5D0010"/>
</linearGradient>
<linearGradient id="paint6_linear_120_3188" x1="35.212" y1="17.8357" x2="35.212" y2="31.0031" gradientUnits="userSpaceOnUse">
<stop stop-color="#880000"/>
<stop offset="1" stop-color="#4D0000"/>
</linearGradient>
<linearGradient id="paint7_linear_120_3188" x1="35.8195" y1="28.7264" x2="30.124" y2="31.0513" gradientUnits="userSpaceOnUse">
<stop stop-color="#E0B05D"/>
<stop offset="1" stop-color="#C68643"/>
</linearGradient>
<linearGradient id="paint8_linear_120_3188" x1="41.1305" y1="17.2119" x2="41.1305" y2="30.3793" gradientUnits="userSpaceOnUse">
<stop stop-color="#FFE3B3"/>
<stop offset="1" stop-color="#FFD48B"/>
</linearGradient>
<linearGradient id="paint9_linear_120_3188" x1="29.9447" y1="28.8022" x2="39.7122" y2="14.0169" gradientUnits="userSpaceOnUse">
<stop stop-color="#9B2929" stop-opacity="0.58"/>
<stop offset="1" stop-color="#9B292C" stop-opacity="0"/>
</linearGradient>
<linearGradient id="paint10_linear_120_3188" x1="42.3842" y1="19.6571" x2="38.7574" y2="29.1079" gradientUnits="userSpaceOnUse">
<stop stop-color="#E11D22"/>
<stop offset="1" stop-color="#870000"/>
<stop offset="1" stop-color="#5E0010"/>
</linearGradient>
<linearGradient id="paint11_linear_120_3188" x1="42.3842" y1="19.6571" x2="38.7574" y2="29.1079" gradientUnits="userSpaceOnUse">
<stop stop-color="#C00D12"/>
<stop offset="1" stop-color="#5E0010"/>
</linearGradient>
<linearGradient id="paint12_linear_120_3188" x1="41.8531" y1="18.8983" x2="34.0741" y2="28.9541" gradientUnits="userSpaceOnUse">
<stop offset="0.0544723" stop-color="#D67114"/>
<stop offset="1" stop-color="#9B3B25"/>
</linearGradient>
<linearGradient id="paint13_linear_120_3188" x1="41.8531" y1="18.8983" x2="34.0741" y2="28.9541" gradientUnits="userSpaceOnUse">
<stop offset="0.0544723" stop-color="#D67114"/>
<stop offset="1" stop-color="#9B3B25"/>
</linearGradient>
<linearGradient id="paint14_linear_120_3188" x1="40.4871" y1="18.1013" x2="33.4101" y2="24.8937" gradientUnits="userSpaceOnUse">
<stop stop-color="#FC3E24"/>
<stop offset="1" stop-color="#C10000"/>
</linearGradient>
<linearGradient id="paint15_linear_120_3188" x1="40.4871" y1="18.1013" x2="33.4101" y2="24.8937" gradientUnits="userSpaceOnUse">
<stop stop-color="#FC3E24"/>
<stop offset="1" stop-color="#C10000"/>
</linearGradient>
<linearGradient id="paint16_linear_120_3188" x1="40.4871" y1="18.1013" x2="33.4101" y2="24.8937" gradientUnits="userSpaceOnUse">
<stop stop-color="#FC3E24"/>
<stop offset="1" stop-color="#C10000"/>
</linearGradient>
<linearGradient id="paint17_linear_120_3188" x1="40.4871" y1="18.1013" x2="33.4101" y2="24.8937" gradientUnits="userSpaceOnUse">
<stop stop-color="#FC3E24"/>
<stop offset="1" stop-color="#C10000"/>
</linearGradient>
<linearGradient id="paint18_linear_120_3188" x1="31.5887" y1="17.8737" x2="34.3398" y2="18.8034" gradientUnits="userSpaceOnUse">
<stop offset="0.167371" stop-color="#870000" stop-opacity="0.38"/>
<stop offset="1" stop-color="#FF0000" stop-opacity="0"/>
</linearGradient>
<linearGradient id="paint19_linear_120_3188" x1="40.4871" y1="18.1013" x2="33.4101" y2="24.8937" gradientUnits="userSpaceOnUse">
<stop offset="0.0620359" stop-color="#FC2424"/>
<stop offset="1" stop-color="#BD1818"/>
</linearGradient>
<linearGradient id="paint20_linear_120_3188" x1="40.4871" y1="18.1013" x2="33.4101" y2="24.8937" gradientUnits="userSpaceOnUse">
<stop offset="0.0620359" stop-color="#FC2424"/>
<stop offset="1" stop-color="#BD1818"/>
</linearGradient>
<linearGradient id="paint21_linear_120_3188" x1="36.6162" y1="22.9708" x2="32.8353" y2="18.09" gradientUnits="userSpaceOnUse">
<stop stop-color="#FF7E46"/>
<stop offset="1" stop-color="#FF7E46" stop-opacity="0"/>
</linearGradient>
<linearGradient id="paint22_linear_120_3188" x1="40.4871" y1="18.1013" x2="33.4101" y2="24.8937" gradientUnits="userSpaceOnUse">
<stop offset="0.0620359" stop-color="#FC2424"/>
<stop offset="1" stop-color="#BD1818"/>
</linearGradient>
<linearGradient id="paint23_linear_120_3188" x1="40.4871" y1="18.1013" x2="33.4101" y2="24.8937" gradientUnits="userSpaceOnUse">
<stop offset="0.0620359" stop-color="#FC2424"/>
<stop offset="1" stop-color="#BD1818"/>
</linearGradient>
<linearGradient id="paint24_linear_120_3188" x1="42.1186" y1="20.9284" x2="31.7592" y2="25.6528" gradientUnits="userSpaceOnUse">
<stop offset="0.0645942" stop-color="#FFD74B"/>
<stop offset="1" stop-color="#FF8A00"/>
</linearGradient>
<linearGradient id="paint25_linear_120_3188" x1="42.1186" y1="20.9284" x2="31.7592" y2="25.6528" gradientUnits="userSpaceOnUse">
<stop offset="0.0645942" stop-color="#FFD74B"/>
<stop offset="1" stop-color="#FF8A00"/>
</linearGradient>
<linearGradient id="paint26_linear_120_3188" x1="33.8463" y1="20.1884" x2="31.0003" y2="28.4608" gradientUnits="userSpaceOnUse">
<stop stop-color="#B70A0A"/>
<stop offset="1" stop-color="#870000"/>
</linearGradient>
<linearGradient id="paint27_linear_120_3188" x1="17.2582" y1="6.21206" x2="32.4817" y2="9.36534" gradientUnits="userSpaceOnUse">
<stop stop-color="#F1F1F1"/>
<stop offset="1" stop-color="#E1E1E1"/>
</linearGradient>
</defs>
</svg>
