<svg width="109" height="54" viewBox="0 0 109 54" fill="none" xmlns="http://www.w3.org/2000/svg">
<g filter="url(#filter0_d_120_3099)">
<rect x="14.6973" y="14.7378" width="76.5" height="21.5164" rx="3.245" fill="white"/>
<rect x="14.6973" y="14.7378" width="76.5" height="21.5164" rx="3.245" stroke="url(#paint0_linear_120_3099)" stroke-opacity="0.3" stroke-width="0.650789"/>
</g>
<g filter="url(#filter1_d_120_3099)">
<mask id="path-3-outside-1_120_3099" maskUnits="userSpaceOnUse" x="25.7512" y="17.3149" width="17.7171" height="16.2652" fill="black">
<rect fill="white" x="25.7512" y="17.3149" width="17.7171" height="16.2652"/>
<path d="M30.5924 21.6463C31.644 20.5837 33.1385 19.9195 34.7973 19.9194C37.9806 19.9194 40.5615 22.3641 40.5615 25.3799C40.5615 28.3955 37.9813 30.8404 34.7982 30.8407C34.3031 30.8407 33.8221 30.7809 33.3636 30.6697C33.2938 30.8615 33.2188 31.0247 33.148 31.1498C32.7351 31.4643 32.2318 31.5989 31.9305 31.6422C31.6445 31.7465 31.1376 31.8661 30.625 31.7842C29.9658 31.368 28.6689 30.0542 28.7565 28.1295C28.782 27.5713 28.9091 27.1287 29.0232 26.7312C29.0608 26.6004 29.095 26.4738 29.1257 26.35C29.0661 26.0352 29.034 25.7113 29.034 25.3802C29.034 25.2421 29.0398 25.1048 29.0505 24.9692C29.0419 24.9499 29.0348 24.9297 29.0255 24.9101C28.9304 24.7099 28.8184 24.5161 28.7083 24.3252C28.358 23.7177 28.0224 23.1349 28.2752 22.4383C28.5313 21.7331 29.1023 21.5314 29.3544 21.4641L29.3875 21.4558L29.4976 21.4332C29.749 21.3892 30.1684 21.3716 30.5924 21.6463Z"/>
</mask>
<path d="M30.5924 21.6463C31.644 20.5837 33.1385 19.9195 34.7973 19.9194C37.9806 19.9194 40.5615 22.3641 40.5615 25.3799C40.5615 28.3955 37.9813 30.8404 34.7982 30.8407C34.3031 30.8407 33.8221 30.7809 33.3636 30.6697C33.2938 30.8615 33.2188 31.0247 33.148 31.1498C32.7351 31.4643 32.2318 31.5989 31.9305 31.6422C31.6445 31.7465 31.1376 31.8661 30.625 31.7842C29.9658 31.368 28.6689 30.0542 28.7565 28.1295C28.782 27.5713 28.9091 27.1287 29.0232 26.7312C29.0608 26.6004 29.095 26.4738 29.1257 26.35C29.0661 26.0352 29.034 25.7113 29.034 25.3802C29.034 25.2421 29.0398 25.1048 29.0505 24.9692C29.0419 24.9499 29.0348 24.9297 29.0255 24.9101C28.9304 24.7099 28.8184 24.5161 28.7083 24.3252C28.358 23.7177 28.0224 23.1349 28.2752 22.4383C28.5313 21.7331 29.1023 21.5314 29.3544 21.4641L29.3875 21.4558L29.4976 21.4332C29.749 21.3892 30.1684 21.3716 30.5924 21.6463Z" fill="#FDEDDD"/>
<path d="M30.5924 21.6463L30.2332 22.2007L30.6841 22.4928L31.062 22.111L30.5924 21.6463ZM34.7973 19.9194L34.7973 19.2588L34.7972 19.2588L34.7973 19.9194ZM40.5615 25.3799L41.2222 25.3799V25.3799H40.5615ZM34.7982 30.8407L34.7982 31.5013L34.7983 31.5013L34.7982 30.8407ZM33.3636 30.6697L33.5194 30.0277L32.9449 29.8883L32.7428 30.4438L33.3636 30.6697ZM33.148 31.1498L33.5483 31.6754L33.6562 31.5932L33.7229 31.4752L33.148 31.1498ZM31.9305 31.6422L31.8364 30.9883L31.7686 30.9981L31.7043 31.0216L31.9305 31.6422ZM30.625 31.7842L30.2723 32.3428L30.3869 32.4152L30.5207 32.4365L30.625 31.7842ZM28.7565 28.1295L28.0966 28.0994L28.0966 28.0994L28.7565 28.1295ZM29.0232 26.7312L28.3883 26.5489L28.3883 26.5489L29.0232 26.7312ZM29.1257 26.35L29.7669 26.5091L29.8017 26.369L29.7748 26.2271L29.1257 26.35ZM29.034 25.3802L28.3733 25.3802L28.3733 25.3802L29.034 25.3802ZM29.0505 24.9692L29.7091 25.0209L29.7221 24.8546L29.6547 24.7021L29.0505 24.9692ZM29.0255 24.9101L29.6222 24.6265L29.6222 24.6265L29.0255 24.9101ZM28.7083 24.3252L28.136 24.6553L28.136 24.6553L28.7083 24.3252ZM28.2752 22.4383L27.6542 22.2129L27.6542 22.213L28.2752 22.4383ZM29.3544 21.4641L29.1933 20.8234L29.1841 20.8258L29.3544 21.4641ZM29.3875 21.4558L29.2544 20.8087L29.2404 20.8116L29.2264 20.8151L29.3875 21.4558ZM29.4976 21.4332L29.3838 20.7824L29.3741 20.7841L29.3645 20.7861L29.4976 21.4332ZM30.5924 21.6463L31.062 22.111C31.9907 21.1725 33.3168 20.5802 34.7973 20.5801L34.7973 19.9194L34.7972 19.2588C32.9603 19.2589 31.2972 19.9949 30.1228 21.1816L30.5924 21.6463ZM34.7973 19.9194V20.5801C37.65 20.5801 39.9009 22.7622 39.9009 25.3799H40.5615H41.2222C41.2222 21.9659 38.3113 19.2588 34.7973 19.2588V19.9194ZM40.5615 25.3799L39.9009 25.3799C39.9009 27.9975 37.6505 30.1798 34.7982 30.18L34.7982 30.8407L34.7983 31.5013C38.3122 31.501 41.2221 28.7935 41.2222 25.3799L40.5615 25.3799ZM34.7982 30.8407V30.18C34.3563 30.18 33.9276 30.1267 33.5194 30.0277L33.3636 30.6697L33.2079 31.3117C33.7166 31.4351 34.2499 31.5013 34.7982 31.5013V30.8407ZM33.3636 30.6697L32.7428 30.4438C32.683 30.608 32.6227 30.7368 32.5731 30.8244L33.148 31.1498L33.7229 31.4752C33.815 31.3125 33.9045 31.1151 33.9844 30.8956L33.3636 30.6697ZM33.148 31.1498L32.7477 30.6243C32.4555 30.8468 32.0731 30.9543 31.8364 30.9883L31.9305 31.6422L32.0247 32.2961C32.3905 32.2435 33.0146 32.0818 33.5483 31.6754L33.148 31.1498ZM31.9305 31.6422L31.7043 31.0216C31.4794 31.1035 31.0918 31.1898 30.7292 31.1318L30.625 31.7842L30.5207 32.4365C31.1833 32.5424 31.8097 32.3895 32.1568 32.2629L31.9305 31.6422ZM30.625 31.7842L30.9776 31.2256C30.4396 30.8859 29.3433 29.766 29.4165 28.1595L28.7565 28.1295L28.0966 28.0994C27.9944 30.3424 29.492 31.8502 30.2723 32.3428L30.625 31.7842ZM28.7565 28.1295L29.4165 28.1596C29.438 27.6868 29.5441 27.3109 29.6582 26.9136L29.0232 26.7312L28.3883 26.5489C28.2741 26.9465 28.1259 27.4557 28.0966 28.0994L28.7565 28.1295ZM29.0232 26.7312L29.6582 26.9136C29.6976 26.7764 29.7339 26.642 29.7669 26.5091L29.1257 26.35L28.4846 26.1908C28.4561 26.3056 28.424 26.4244 28.3883 26.5489L29.0232 26.7312ZM29.1257 26.35L29.7748 26.2271C29.7226 25.9511 29.6946 25.6683 29.6946 25.3802L29.034 25.3802L28.3733 25.3802C28.3734 25.7542 28.4097 26.1193 28.4766 26.4729L29.1257 26.35ZM29.034 25.3802H29.6946C29.6946 25.2607 29.6997 25.1408 29.7091 25.0209L29.0505 24.9692L28.3919 24.9176C28.38 25.0689 28.3733 25.2234 28.3733 25.3802H29.034ZM29.0505 24.9692L29.6547 24.7021C29.656 24.7051 29.6566 24.7065 29.6558 24.7047C29.6545 24.7015 29.6542 24.7006 29.6509 24.6926C29.6465 24.6815 29.6361 24.6557 29.6222 24.6265L29.0255 24.9101L28.4288 25.1936C28.4262 25.1881 28.4246 25.1844 28.4242 25.1834C28.4239 25.1826 28.4241 25.183 28.4256 25.1869C28.4264 25.1889 28.43 25.1978 28.4327 25.2045C28.436 25.2125 28.4407 25.2237 28.4463 25.2364L29.0505 24.9692ZM29.0255 24.9101L29.6222 24.6265C29.5138 24.3985 29.3881 24.1816 29.2806 23.9952L28.7083 24.3252L28.136 24.6553C28.2486 24.8505 28.347 25.0214 28.4289 25.1937L29.0255 24.9101ZM28.7083 24.3252L29.2806 23.9952C28.9006 23.3363 28.7641 23.0277 28.8962 22.6637L28.2752 22.4383L27.6542 22.213C27.2807 23.2421 27.8153 24.0992 28.136 24.6553L28.7083 24.3252ZM28.2752 22.4383L28.8961 22.6638C29.042 22.2622 29.3502 22.149 29.5246 22.1025L29.3544 21.4641L29.1841 20.8258C28.8544 20.9138 28.0206 21.2039 27.6542 22.2129L28.2752 22.4383ZM29.3544 21.4641L29.5155 22.1048L29.5486 22.0965L29.3875 21.4558L29.2264 20.8151L29.1933 20.8235L29.3544 21.4641ZM29.3875 21.4558L29.5206 22.1029L29.6307 22.0802L29.4976 21.4332L29.3645 20.7861L29.2544 20.8087L29.3875 21.4558ZM29.4976 21.4332L29.6114 22.0839C29.7724 22.0558 30.0013 22.0505 30.2332 22.2007L30.5924 21.6463L30.9516 21.0919C30.3356 20.6927 29.7257 20.7226 29.3838 20.7824L29.4976 21.4332Z" fill="url(#paint1_linear_120_3099)" mask="url(#path-3-outside-1_120_3099)"/>
</g>
<g filter="url(#filter2_i_120_3099)">
<ellipse cx="34.7977" cy="25.3798" rx="5.76399" ry="5.46062" fill="url(#paint2_radial_120_3099)"/>
</g>
<ellipse opacity="0.5" cx="34.8311" cy="21.2238" rx="0.842302" ry="0.809271" fill="url(#paint3_linear_120_3099)"/>
<ellipse opacity="0.5" cx="37.1758" cy="22.0497" rx="0.842302" ry="0.809271" fill="url(#paint4_linear_120_3099)"/>
<g filter="url(#filter3_d_120_3099)">
<path d="M29.3809 21.4751C29.6352 21.4151 30.2342 21.323 30.7938 21.8237C31.5195 22.4737 31.2556 23.4311 31.3009 24.3576C31.3616 25.5958 32.3256 25.8352 33.062 27.0686C34.0503 28.724 33.5293 30.496 33.145 31.1753C32.7315 31.4904 32.2272 31.6248 31.9256 31.6681C31.6393 31.7725 31.1321 31.8924 30.6191 31.8103C29.9594 31.3938 28.6621 30.079 28.7499 28.1528C28.8155 26.7178 29.5507 26.0512 29.0185 24.9315C28.6202 24.0937 27.9356 23.3748 28.2679 22.4588C28.5239 21.7535 29.0941 21.5512 29.3468 21.4837L29.3809 21.4751Z" fill="#FDEDDD"/>
<mask id="mask0_120_3099" style="mask-type:alpha" maskUnits="userSpaceOnUse" x="28" y="21" width="6" height="11">
<path d="M29.3809 21.4751C29.6352 21.4151 30.2342 21.323 30.7938 21.8237C31.5195 22.4737 31.2556 23.4311 31.3009 24.3576C31.3616 25.5958 32.3256 25.8352 33.062 27.0686C34.0503 28.724 33.5293 30.496 33.145 31.1753C32.7315 31.4904 32.2272 31.6248 31.9256 31.6681C31.6393 31.7725 31.1321 31.8924 30.6191 31.8103C29.9594 31.3938 28.6621 30.079 28.7499 28.1528C28.8155 26.7178 29.5507 26.0512 29.0185 24.9315C28.6202 24.0937 27.9356 23.3748 28.2679 22.4588C28.5239 21.7535 29.0941 21.5512 29.3468 21.4837L29.3809 21.4751Z" fill="#FDEDDD"/>
<path d="M29.3809 21.4751L29.3783 21.464L29.3782 21.4641L29.3809 21.4751ZM30.7938 21.8237L30.8013 21.8153L30.8013 21.8153L30.7938 21.8237ZM31.3009 24.3576L31.2896 24.3582L31.2896 24.3582L31.3009 24.3576ZM33.062 27.0686L33.0718 27.0628L33.0718 27.0628L33.062 27.0686ZM33.145 31.1753L33.1525 31.1851L33.1549 31.1809L33.145 31.1753ZM31.9256 31.6681L31.924 31.6566L31.9217 31.6574L31.9256 31.6681ZM30.6191 31.8103L30.6125 31.8208L30.6173 31.8216L30.6191 31.8103ZM28.7499 28.1528L28.7386 28.1523L28.7386 28.1523L28.7499 28.1528ZM29.0185 24.9315L29.0287 24.9266L29.0287 24.9266L29.0185 24.9315ZM28.2679 22.4588L28.2572 22.4549L28.2572 22.4549L28.2679 22.4588ZM29.3468 21.4837L29.3441 21.4726L29.3439 21.4727L29.3468 21.4837ZM29.3809 21.4751L29.3836 21.4862C29.6365 21.4264 30.2308 21.3352 30.7862 21.8322L30.7938 21.8237L30.8013 21.8153C30.2377 21.3108 29.634 21.4037 29.3783 21.464L29.3809 21.4751ZM30.7938 21.8237L30.7862 21.8322C31.146 22.1545 31.2609 22.5529 31.2912 22.9878C31.3063 23.2053 31.3003 23.4316 31.2933 23.6619C31.2862 23.892 31.2782 24.126 31.2896 24.3582L31.3009 24.3576L31.3123 24.357C31.301 24.126 31.309 23.8929 31.316 23.6626C31.323 23.4324 31.3291 23.205 31.3138 22.9862C31.2833 22.5482 31.1673 22.143 30.8013 21.8153L30.7938 21.8237ZM31.3009 24.3576L31.2896 24.3582C31.3201 24.981 31.5782 25.3529 31.9197 25.7226C32.2612 26.0924 32.6848 26.4591 33.0523 27.0744L33.062 27.0686L33.0718 27.0628C32.7028 26.4447 32.2762 26.0751 31.9364 25.7072C31.5967 25.3394 31.3425 24.9724 31.3123 24.357L31.3009 24.3576ZM33.062 27.0686L33.0523 27.0744C34.0378 28.7251 33.5181 30.4926 33.1351 31.1697L33.145 31.1753L33.1549 31.1809C33.5404 30.4995 34.0629 28.7229 33.0718 27.0628L33.062 27.0686ZM33.145 31.1753L33.1381 31.1662C32.7267 31.4798 32.2245 31.6137 31.924 31.6569L31.9256 31.6681L31.9272 31.6794C32.2299 31.6359 32.7363 31.501 33.1519 31.1843L33.145 31.1753ZM31.9256 31.6681L31.9217 31.6574C31.6365 31.7614 31.1314 31.8807 30.6209 31.7991L30.6191 31.8103L30.6173 31.8216C31.1329 31.904 31.6422 31.7836 31.9295 31.6788L31.9256 31.6681ZM30.6191 31.8103L30.6252 31.8007C29.9675 31.3855 28.6737 30.074 28.7613 28.1533L28.7499 28.1528L28.7386 28.1523C28.6505 30.084 29.9512 31.4021 30.613 31.82L30.6191 31.8103ZM28.7499 28.1528L28.7613 28.1533C28.794 27.4374 28.9936 26.914 29.1194 26.4268C29.2452 25.9395 29.2965 25.4899 29.0287 24.9266L29.0185 24.9315L29.0082 24.9364C29.2727 25.4928 29.2225 25.9364 29.0974 26.4211C28.9722 26.9058 28.7714 27.4332 28.7386 28.1523L28.7499 28.1528ZM29.0185 24.9315L29.0287 24.9266C28.9289 24.7167 28.8112 24.5142 28.6963 24.3148C28.5813 24.1152 28.469 23.9187 28.3796 23.7198C28.2009 23.3223 28.1138 22.9169 28.2786 22.4627L28.2679 22.4588L28.2572 22.4549C28.0897 22.9168 28.1788 23.3287 28.3589 23.7291C28.4488 23.9292 28.5616 24.1267 28.6766 24.3262C28.7917 24.5258 28.9089 24.7274 29.0082 24.9364L29.0185 24.9315ZM28.2679 22.4588L28.2786 22.4627C28.5327 21.7626 29.0984 21.5618 29.3498 21.4947L29.3468 21.4837L29.3439 21.4727C29.0899 21.5406 28.5151 21.7444 28.2572 22.4549L28.2679 22.4588ZM29.3468 21.4837L29.3496 21.4947L29.3837 21.4861L29.3809 21.4751L29.3782 21.4641L29.3441 21.4726L29.3468 21.4837Z" fill="black"/>
</mask>
<g mask="url(#mask0_120_3099)">
<g filter="url(#filter4_ii_120_3099)">
<path d="M29.3809 21.4751C29.6352 21.4151 30.2342 21.323 30.7938 21.8237C31.5195 22.4737 31.2556 23.4311 31.3009 24.3576C31.3616 25.5958 32.3256 25.8352 33.062 27.0686C34.0503 28.724 33.5293 30.496 33.145 31.1753C32.7315 31.4904 32.2272 31.6248 31.9256 31.6681C31.6393 31.7725 31.1321 31.8924 30.6191 31.8103C29.9594 31.3938 28.6621 30.079 28.7499 28.1528C28.8155 26.7178 29.5507 26.0512 29.0185 24.9315C28.6202 24.0937 27.9356 23.3748 28.2679 22.4588C28.5239 21.7535 29.0941 21.5512 29.3468 21.4837L29.3809 21.4751Z" fill="#FDEDDD"/>
</g>
<path d="M28.605 26.3135C28.605 26.3135 29.2393 26.2713 30.6729 25.9108C32.1066 25.5503 32.6854 25.2875 32.6854 25.2875L32.9627 26.3904C32.9627 26.3904 32.4721 26.631 30.9502 27.0136C29.4283 27.3963 28.8823 27.4163 28.8823 27.4163L28.605 26.3135Z" fill="#F55353" style="mix-blend-mode:multiply"/>
<path d="M28.2722 24.99C28.2722 24.99 28.9065 24.9478 30.3402 24.5873C31.7739 24.2268 32.3527 23.964 32.3527 23.964L32.569 24.8243C32.569 24.8243 32.0784 25.0649 30.5565 25.4475C29.0346 25.8302 28.4885 25.8502 28.4885 25.8502L28.2722 24.99Z" fill="#F55353" style="mix-blend-mode:multiply"/>
<ellipse cx="30.1442" cy="22.5026" rx="0.511719" ry="0.636806" transform="rotate(-14.1132 30.1442 22.5026)" fill="url(#paint5_linear_120_3099)" style="mix-blend-mode:screen"/>
</g>
</g>
<path d="M47.2638 27.4961V23.6186H49.0238C49.4528 23.6186 49.7883 23.7048 50.0303 23.8771C50.2723 24.0494 50.3933 24.2988 50.3933 24.6251C50.3933 24.8561 50.3383 25.0431 50.2283 25.1861C50.1183 25.3254 49.9863 25.4208 49.8323 25.4721V25.5051C49.9459 25.5308 50.0523 25.5803 50.1513 25.6536C50.2539 25.7269 50.3364 25.8259 50.3988 25.9506C50.4611 26.0716 50.4923 26.2238 50.4923 26.4071C50.4923 26.6344 50.4354 26.8306 50.3218 26.9956C50.2118 27.1569 50.0504 27.2816 49.8378 27.3696C49.6288 27.4539 49.3758 27.4961 49.0788 27.4961H47.2638ZM48.0283 26.8636H49.0568C49.1448 26.8636 49.2236 26.8563 49.2933 26.8416C49.3666 26.8269 49.4308 26.8068 49.4858 26.7811C49.5408 26.7518 49.5848 26.7169 49.6178 26.6766C49.6544 26.6326 49.6819 26.5849 49.7003 26.5336C49.7186 26.4786 49.7278 26.4199 49.7278 26.3576C49.7278 26.2843 49.7168 26.2201 49.6948 26.1651C49.6764 26.1101 49.6489 26.0643 49.6123 26.0276C49.5756 25.9873 49.5298 25.9543 49.4748 25.9286C49.4198 25.9029 49.3574 25.8846 49.2878 25.8736C49.2181 25.8626 49.1411 25.8571 49.0568 25.8571H48.0283V26.8636ZM48.0283 25.2246H48.9633C49.1906 25.2246 49.3574 25.1843 49.4638 25.1036C49.5738 25.0193 49.6288 24.8928 49.6288 24.7241C49.6288 24.5664 49.5756 24.4491 49.4693 24.3721C49.3629 24.2914 49.1943 24.2511 48.9633 24.2511H48.0283V25.2246ZM52.9616 27.5511C52.661 27.5511 52.3988 27.4906 52.1751 27.3696C51.9551 27.2486 51.7846 27.0799 51.6636 26.8636C51.5463 26.6473 51.4876 26.3961 51.4876 26.1101C51.4876 25.8204 51.5463 25.5693 51.6636 25.3566C51.7846 25.1403 51.9551 24.9734 52.1751 24.8561C52.3988 24.7351 52.661 24.6746 52.9616 24.6746C53.266 24.6746 53.5263 24.7351 53.7426 24.8561C53.9626 24.9734 54.1313 25.1403 54.2486 25.3566C54.3696 25.5693 54.4301 25.8204 54.4301 26.1101C54.4301 26.3961 54.3696 26.6473 54.2486 26.8636C54.1313 27.0799 53.9626 27.2486 53.7426 27.3696C53.5263 27.4906 53.266 27.5511 52.9616 27.5511ZM52.9616 26.9131C53.1926 26.9131 53.3723 26.8398 53.5006 26.6931C53.629 26.5464 53.6931 26.3503 53.6931 26.1046C53.6931 25.8589 53.629 25.6664 53.5006 25.5271C53.376 25.3841 53.1963 25.3126 52.9616 25.3126C52.727 25.3126 52.5455 25.3841 52.4171 25.5271C52.2888 25.6664 52.2246 25.8589 52.2246 26.1046C52.2246 26.3503 52.2888 26.5464 52.4171 26.6931C52.5491 26.8398 52.7306 26.9131 52.9616 26.9131ZM56.0025 27.4961L55.0675 24.7296H55.8155L56.3765 26.6436H56.4095L57.097 24.7296H57.6745L58.3565 26.6436H58.3895L58.956 24.7296H59.6985L58.7635 27.4961H58.1145L57.3995 25.5546H57.3665L56.646 27.4961H56.0025ZM61.498 27.5511C61.19 27.5511 60.9535 27.4686 60.7885 27.3036C60.6235 27.1386 60.541 26.9058 60.541 26.6051V23.6186H61.3055V26.5391C61.3055 26.6308 61.3183 26.7078 61.344 26.7701C61.3697 26.8324 61.4082 26.8801 61.4595 26.9131C61.5108 26.9461 61.5732 26.9626 61.6465 26.9626C61.7052 26.9626 61.7583 26.9608 61.806 26.9571C61.8573 26.9498 61.9123 26.9388 61.971 26.9241L62.0315 27.4631C61.9435 27.4961 61.8592 27.5181 61.7785 27.5291C61.7015 27.5438 61.608 27.5511 61.498 27.5511ZM62.7549 24.1906V23.4206H63.6349V24.1906H62.7549ZM62.8209 27.4961V24.7296H63.5854V27.4961H62.8209ZM64.7892 27.4961V24.7296H65.4767V25.2906H65.5097C65.605 25.0963 65.7407 24.9459 65.9167 24.8396C66.0927 24.7296 66.2888 24.6746 66.5052 24.6746C66.7325 24.6746 66.925 24.7186 67.0827 24.8066C67.2403 24.8909 67.3595 25.0229 67.4402 25.2026C67.5208 25.3786 67.5612 25.6041 67.5612 25.8791V27.4961H66.7967V25.9066C66.7967 25.7819 66.7783 25.6756 66.7417 25.5876C66.7087 25.4996 66.6537 25.4318 66.5767 25.3841C66.4997 25.3364 66.397 25.3126 66.2687 25.3126C66.133 25.3126 66.0102 25.3438 65.9002 25.4061C65.7938 25.4684 65.7095 25.5528 65.6472 25.6591C65.5848 25.7654 65.5537 25.8828 65.5537 26.0111V27.4961H64.7892ZM69.9984 28.5411C69.7894 28.5411 69.5749 28.5118 69.3549 28.4531C69.1386 28.3981 68.9534 28.3193 68.7994 28.2166L69.0029 27.6171C69.0946 27.6758 69.1954 27.7271 69.3054 27.7711C69.4191 27.8151 69.5346 27.8481 69.6519 27.8701C69.7692 27.8958 69.8792 27.9086 69.9819 27.9086C70.2752 27.9086 70.4989 27.8463 70.6529 27.7216C70.8106 27.6006 70.8894 27.4173 70.8894 27.1716V26.8251H70.8454C70.7684 26.9828 70.6492 27.1148 70.4879 27.2211C70.3266 27.3274 70.1377 27.3806 69.9214 27.3806C69.6611 27.3806 69.4319 27.3256 69.2339 27.2156C69.0396 27.1019 68.8874 26.9443 68.7774 26.7426C68.6674 26.5373 68.6124 26.2989 68.6124 26.0276C68.6124 25.7563 68.6674 25.5198 68.7774 25.3181C68.8874 25.1128 69.0396 24.9551 69.2339 24.8451C69.4319 24.7314 69.6611 24.6746 69.9214 24.6746C70.1377 24.6746 70.3266 24.7278 70.4879 24.8341C70.6529 24.9404 70.7757 25.0816 70.8564 25.2576H70.8894V24.7296H71.5879V27.1276C71.5879 27.4136 71.5237 27.6611 71.3954 27.8701C71.2671 28.0828 71.0837 28.2478 70.8454 28.3651C70.6107 28.4824 70.3284 28.5411 69.9984 28.5411ZM70.1029 26.7866C70.3302 26.7866 70.5099 26.7188 70.6419 26.5831C70.7739 26.4438 70.8399 26.2568 70.8399 26.0221C70.8399 25.7911 70.7739 25.6078 70.6419 25.4721C70.5099 25.3364 70.3302 25.2686 70.1029 25.2686C69.8756 25.2686 69.6941 25.3364 69.5584 25.4721C69.4264 25.6078 69.3604 25.7911 69.3604 26.0221C69.3604 26.2568 69.4264 26.4438 69.5584 26.5831C69.6941 26.7188 69.8756 26.7866 70.1029 26.7866Z" fill="#202224"/>
<mask id="mask1_120_3099" style="mask-type:alpha" maskUnits="userSpaceOnUse" x="14" y="14" width="16" height="23">
<path d="M14.6973 17.9828C14.6973 16.1906 16.1501 14.7378 17.9423 14.7378H22.4517C25.901 14.7378 28.6973 17.5341 28.6973 20.9834V30.0086C28.6973 33.4579 25.901 36.2542 22.4517 36.2542H17.9423C16.1501 36.2542 14.6973 34.8014 14.6973 33.0092V17.9828Z" fill="white" stroke="url(#paint6_linear_120_3099)" stroke-opacity="0.3" stroke-width="0.650789"/>
</mask>
<g mask="url(#mask1_120_3099)">
<rect x="14.1973" y="14.324" width="7" height="22.3439" fill="#587ED7"/>
</g>
<defs>
<filter id="filter0_d_120_3099" x="0.845876" y="0.886403" width="107.584" height="52.6006" filterUnits="userSpaceOnUse" color-interpolation-filters="sRGB">
<feFlood flood-opacity="0" result="BackgroundImageFix"/>
<feColorMatrix in="SourceAlpha" type="matrix" values="0 0 0 0 0 0 0 0 0 0 0 0 0 0 0 0 0 0 127 0" result="hardAlpha"/>
<feOffset dx="1.69074" dy="1.69074"/>
<feGaussianBlur stdDeviation="7.60835"/>
<feColorMatrix type="matrix" values="0 0 0 0 0 0 0 0 0 0 0 0 0 0 0 0 0 0 0.05 0"/>
<feBlend mode="normal" in2="BackgroundImageFix" result="effect1_dropShadow_120_3099"/>
<feBlend mode="normal" in="SourceGraphic" in2="effect1_dropShadow_120_3099" result="shape"/>
</filter>
<filter id="filter1_d_120_3099" x="27.5266" y="19.2588" width="13.6956" height="13.8738" filterUnits="userSpaceOnUse" color-interpolation-filters="sRGB">
<feFlood flood-opacity="0" result="BackgroundImageFix"/>
<feColorMatrix in="SourceAlpha" type="matrix" values="0 0 0 0 0 0 0 0 0 0 0 0 0 0 0 0 0 0 127 0" result="hardAlpha"/>
<feOffset dy="0.660629"/>
<feComposite in2="hardAlpha" operator="out"/>
<feColorMatrix type="matrix" values="0 0 0 0 0.00784314 0 0 0 0 0.133333 0 0 0 0 0.12549 0 0 0 1 0"/>
<feBlend mode="normal" in2="BackgroundImageFix" result="effect1_dropShadow_120_3099"/>
<feBlend mode="normal" in="SourceGraphic" in2="effect1_dropShadow_120_3099" result="shape"/>
</filter>
<filter id="filter2_i_120_3099" x="29.0337" y="19.9192" width="11.5281" height="10.9211" filterUnits="userSpaceOnUse" color-interpolation-filters="sRGB">
<feFlood flood-opacity="0" result="BackgroundImageFix"/>
<feBlend mode="normal" in="SourceGraphic" in2="BackgroundImageFix" result="shape"/>
<feColorMatrix in="SourceAlpha" type="matrix" values="0 0 0 0 0 0 0 0 0 0 0 0 0 0 0 0 0 0 127 0" result="hardAlpha"/>
<feOffset dx="-1.53591" dy="-1.93817"/>
<feComposite in2="hardAlpha" operator="arithmetic" k2="-1" k3="1"/>
<feColorMatrix type="matrix" values="0 0 0 0 0.0364583 0 0 0 0 0.416667 0 0 0 0 0.325416 0 0 0 0.34 0"/>
<feBlend mode="normal" in2="shape" result="effect1_innerShadow_120_3099"/>
</filter>
<filter id="filter3_d_120_3099" x="27.0437" y="20.8592" width="8.19391" height="11.4067" filterUnits="userSpaceOnUse" color-interpolation-filters="sRGB">
<feFlood flood-opacity="0" result="BackgroundImageFix"/>
<feColorMatrix in="SourceAlpha" type="matrix" values="0 0 0 0 0 0 0 0 0 0 0 0 0 0 0 0 0 0 127 0" result="hardAlpha"/>
<feOffset dx="0.987372" dy="-0.0365693"/>
<feComposite in2="hardAlpha" operator="out"/>
<feColorMatrix type="matrix" values="0 0 0 0 0 0 0 0 0 0 0 0 0 0 0 0 0 0 0.11 0"/>
<feBlend mode="normal" in2="BackgroundImageFix" result="effect1_dropShadow_120_3099"/>
<feBlend mode="normal" in="SourceGraphic" in2="effect1_dropShadow_120_3099" result="shape"/>
</filter>
<filter id="filter4_ii_120_3099" x="28.1797" y="21.1996" width="5.45093" height="10.6381" filterUnits="userSpaceOnUse" color-interpolation-filters="sRGB">
<feFlood flood-opacity="0" result="BackgroundImageFix"/>
<feBlend mode="normal" in="SourceGraphic" in2="BackgroundImageFix" result="shape"/>
<feColorMatrix in="SourceAlpha" type="matrix" values="0 0 0 0 0 0 0 0 0 0 0 0 0 0 0 0 0 0 127 0" result="hardAlpha"/>
<feOffset dy="-0.227431"/>
<feGaussianBlur stdDeviation="0.614063"/>
<feComposite in2="hardAlpha" operator="arithmetic" k2="-1" k3="1"/>
<feColorMatrix type="matrix" values="0 0 0 0 0.866667 0 0 0 0 0.596078 0 0 0 0 0.537255 0 0 0 1 0"/>
<feBlend mode="normal" in2="shape" result="effect1_innerShadow_120_3099"/>
<feColorMatrix in="SourceAlpha" type="matrix" values="0 0 0 0 0 0 0 0 0 0 0 0 0 0 0 0 0 0 127 0" result="hardAlpha"/>
<feOffset dy="0.406984"/>
<feComposite in2="hardAlpha" operator="arithmetic" k2="-1" k3="1"/>
<feColorMatrix type="matrix" values="0 0 0 0 1 0 0 0 0 1 0 0 0 0 1 0 0 0 0.5 0"/>
<feBlend mode="normal" in2="effect1_innerShadow_120_3099" result="effect2_innerShadow_120_3099"/>
</filter>
<linearGradient id="paint0_linear_120_3099" x1="32.1409" y1="6.96621" x2="70.1737" y2="50.013" gradientUnits="userSpaceOnUse">
<stop stop-color="#F1F1F1"/>
<stop offset="1" stop-color="#E1E1E1"/>
</linearGradient>
<linearGradient id="paint1_linear_120_3099" x1="29.3706" y1="21.4605" x2="31.934" y2="31.656" gradientUnits="userSpaceOnUse">
<stop stop-color="#489072"/>
<stop offset="1" stop-color="#0A4742"/>
</linearGradient>
<radialGradient id="paint2_radial_120_3099" cx="0" cy="0" r="1" gradientUnits="userSpaceOnUse" gradientTransform="translate(34.7812 21.9176) rotate(89.8939) scale(8.92285 9.41857)">
<stop stop-color="#91EAB0"/>
<stop offset="1" stop-color="#508588"/>
</radialGradient>
<linearGradient id="paint3_linear_120_3099" x1="34.8311" y1="20.4146" x2="34.8311" y2="22.0331" gradientUnits="userSpaceOnUse">
<stop stop-color="#074642"/>
<stop offset="1" stop-color="#1A8E7B"/>
</linearGradient>
<linearGradient id="paint4_linear_120_3099" x1="37.1758" y1="21.2405" x2="37.1758" y2="22.859" gradientUnits="userSpaceOnUse">
<stop stop-color="#074642"/>
<stop offset="1" stop-color="#1A8E7B"/>
</linearGradient>
<linearGradient id="paint5_linear_120_3099" x1="30.1556" y1="22.0022" x2="30.1556" y2="23.3554" gradientUnits="userSpaceOnUse">
<stop stop-color="#FAECE4"/>
<stop offset="1" stop-color="#FAECE4" stop-opacity="0"/>
</linearGradient>
<linearGradient id="paint6_linear_120_3099" x1="17.8896" y1="6.96621" x2="33.1131" y2="10.1195" gradientUnits="userSpaceOnUse">
<stop stop-color="#F1F1F1"/>
<stop offset="1" stop-color="#E1E1E1"/>
</linearGradient>
</defs>
</svg>
