<svg width="109" height="53" viewBox="0 0 109 53" fill="none" xmlns="http://www.w3.org/2000/svg">
<g filter="url(#filter0_d_120_3090)">
<rect x="14.6973" y="14.0984" width="76.5" height="21.5164" rx="3.245" fill="white"/>
<rect x="14.6973" y="14.0984" width="76.5" height="21.5164" rx="3.245" stroke="url(#paint0_linear_120_3090)" stroke-opacity="0.3" stroke-width="0.650789"/>
</g>
<g filter="url(#filter1_di_120_3090)">
<mask id="path-3-outside-1_120_3090" maskUnits="userSpaceOnUse" x="27.6104" y="15.8845" width="18" height="18" fill="black">
<rect fill="white" x="27.6104" y="15.8845" width="18" height="18"/>
<path d="M34.7043 17.8288C34.8141 17.2075 35.4072 16.7925 36.0285 16.9021L43.8459 18.2849C44.4671 18.3947 44.8822 18.9869 44.7726 19.6081L42.8664 30.3874C42.7563 31.0086 42.1635 31.4231 41.5422 31.3132L38.5519 30.7839C37.9322 31.5316 37.0926 32.1099 36.089 32.407C33.3641 33.2134 30.4716 31.6478 29.6281 28.9099C29.2056 27.538 29.3775 26.1322 29.9972 24.9695L28.6857 21.656C28.468 21.1059 28.7381 20.4831 29.2882 20.2654L34.6476 18.1433L34.7043 17.8288Z"/>
</mask>
<path d="M34.7043 17.8288C34.8141 17.2075 35.4072 16.7925 36.0285 16.9021L43.8459 18.2849C44.4671 18.3947 44.8822 18.9869 44.7726 19.6081L42.8664 30.3874C42.7563 31.0086 42.1635 31.4231 41.5422 31.3132L38.5519 30.7839C37.9322 31.5316 37.0926 32.1099 36.089 32.407C33.3641 33.2134 30.4716 31.6478 29.6281 28.9099C29.2056 27.538 29.3775 26.1322 29.9972 24.9695L28.6857 21.656C28.468 21.1059 28.7381 20.4831 29.2882 20.2654L34.6476 18.1433L34.7043 17.8288Z" fill="url(#paint1_linear_120_3090)"/>
<path d="M34.7043 17.8288L35.496 17.9715L35.4965 17.9689L34.7043 17.8288ZM36.0285 16.9021L36.1686 16.1099L36.1683 16.1098L36.0285 16.9021ZM43.8459 18.2849L43.7057 19.0771L43.7058 19.0771L43.8459 18.2849ZM44.7726 19.6081L45.5649 19.7482L45.5649 19.7479L44.7726 19.6081ZM42.8664 30.3874L43.6586 30.5278L43.6586 30.5275L42.8664 30.3874ZM41.5422 31.3132L41.4019 32.1054L41.4021 32.1054L41.5422 31.3132ZM38.5519 30.7839L38.6921 29.9917L38.2312 29.9101L37.9325 30.2705L38.5519 30.7839ZM36.089 32.407L36.3173 33.1784L36.3174 33.1784L36.089 32.407ZM29.6281 28.9099L28.8592 29.1467L28.8592 29.1468L29.6281 28.9099ZM29.9972 24.9695L30.7072 25.3479L30.8823 25.0194L30.7453 24.6734L29.9972 24.9695ZM28.6857 21.656L27.9376 21.952L27.9376 21.9521L28.6857 21.656ZM29.2882 20.2654L29.5843 21.0134L29.5844 21.0134L29.2882 20.2654ZM34.6476 18.1433L34.9438 18.8913L35.36 18.7265L35.4394 18.2859L34.6476 18.1433ZM34.7043 17.8288L35.4965 17.9689C35.529 17.785 35.7049 17.6619 35.8887 17.6944L36.0285 16.9021L36.1683 16.1098C35.1094 15.923 34.0992 16.6301 33.912 17.6888L34.7043 17.8288ZM36.0285 16.9021L35.8883 17.6943L43.7057 19.0771L43.8459 18.2849L43.986 17.4927L36.1686 16.1099L36.0285 16.9021ZM43.8459 18.2849L43.7058 19.0771C43.8904 19.1098 44.0126 19.2853 43.9803 19.4684L44.7726 19.6081L45.5649 19.7479C45.7518 18.6884 45.0439 17.6797 43.9859 17.4927L43.8459 18.2849ZM44.7726 19.6081L43.9804 19.468L42.0741 30.2473L42.8664 30.3874L43.6586 30.5275L45.5649 19.7482L44.7726 19.6081ZM42.8664 30.3874L42.0742 30.2471C42.0416 30.4307 41.8662 30.5535 41.6822 30.521L41.5422 31.3132L41.4021 32.1054C42.4607 32.2926 43.471 31.5865 43.6586 30.5278L42.8664 30.3874ZM41.5422 31.3132L41.6824 30.521L38.6921 29.9917L38.5519 30.7839L38.4117 31.5761L41.4019 32.1054L41.5422 31.3132ZM38.5519 30.7839L37.9325 30.2705C37.4113 30.8994 36.7062 31.3853 35.8607 31.6355L36.089 32.407L36.3174 33.1784C37.479 32.8346 38.4531 32.1639 39.1713 31.2973L38.5519 30.7839ZM36.089 32.407L35.8607 31.6355C33.5643 32.3151 31.1124 30.9954 30.397 28.673L29.6281 28.9099L28.8592 29.1468C29.8307 32.3001 33.1639 34.1117 36.3173 33.1784L36.089 32.407ZM29.6281 28.9099L30.397 28.6731C30.0393 27.5119 30.1852 26.3272 30.7072 25.3479L29.9972 24.9695L29.2873 24.5911C28.5697 25.9373 28.3718 27.5641 28.8592 29.1467L29.6281 28.9099ZM29.9972 24.9695L30.7453 24.6734L29.4338 21.3599L28.6857 21.656L27.9376 21.9521L29.2492 25.2656L29.9972 24.9695ZM28.6857 21.656L29.4338 21.3599C29.3798 21.2236 29.4468 21.0679 29.5843 21.0134L29.2882 20.2654L28.9922 19.5173C28.0295 19.8983 27.5562 20.9882 27.9376 21.952L28.6857 21.656ZM29.2882 20.2654L29.5844 21.0134L34.9438 18.8913L34.6476 18.1433L34.3514 17.3953L28.9921 19.5173L29.2882 20.2654ZM34.6476 18.1433L35.4394 18.2859L35.496 17.9715L34.7043 17.8288L33.9125 17.6862L33.8558 18.0007L34.6476 18.1433Z" fill="#460860" mask="url(#path-3-outside-1_120_3090)"/>
</g>
<g filter="url(#filter2_i_120_3090)">
<rect x="28.2834" y="20.6582" width="9.41906" height="12.1894" rx="1.07122" transform="rotate(-21.5906 28.2834 20.6582)" fill="url(#paint2_linear_120_3090)"/>
</g>
<rect x="29.0027" y="20.9695" width="8.31094" height="11.0813" rx="0.479229" transform="rotate(-21.5906 29.0027 20.9695)" fill="#E74342"/>
<mask id="mask0_120_3090" style="mask-type:alpha" maskUnits="userSpaceOnUse" x="29" y="18" width="12" height="14">
<rect x="29.0027" y="20.9695" width="8.31094" height="11.0813" rx="0.479229" transform="rotate(-21.5906 29.0027 20.9695)" fill="url(#paint3_linear_120_3090)"/>
</mask>
<g mask="url(#mask0_120_3090)">
<path d="M33.1308 27.6018C33.3164 27.1732 33.8146 26.976 34.2432 27.1616L35.7488 27.8134C36.1775 27.999 36.3746 28.4972 36.189 28.9258L35.5372 30.4314C35.3516 30.8601 34.8534 31.0572 34.4248 30.8716L32.9192 30.2198C32.4905 30.0342 32.2934 29.5361 32.479 29.1074L33.1308 27.6018ZM37.1271 26.0203C37.3127 25.5917 37.8109 25.3945 38.2395 25.5801L39.7451 26.2319C40.1738 26.4175 40.3709 26.9157 40.1853 27.3443L39.5335 28.85C39.3479 29.2786 38.8498 29.4757 38.4211 29.2902L36.9155 28.6383C36.4868 28.4527 36.2897 27.9546 36.4753 27.5259L37.1271 26.0203ZM37.8188 27.6275C37.556 27.7318 37.4268 28.0299 37.5308 28.2929C37.635 28.5557 37.9328 28.6839 38.1958 28.5801C38.4589 28.476 38.5881 28.1787 38.4842 27.9156C38.38 27.6526 38.082 27.5234 37.8188 27.6275ZM34.0809 28.421C33.8182 28.5252 33.6891 28.8234 33.7929 29.0863C33.897 29.3494 34.1952 29.4782 34.4583 29.3744C34.7215 29.2702 34.8505 28.9722 34.7463 28.709C34.642 28.4461 34.344 28.3169 34.0809 28.421ZM38.4204 26.2867C38.1577 26.3911 38.0293 26.6888 38.1332 26.9517C38.2373 27.2147 38.5347 27.3439 38.7977 27.2402C39.0609 27.136 39.1899 26.838 39.0858 26.5748C38.9815 26.3117 38.6835 26.1826 38.4204 26.2867ZM31.6004 23.7344C31.7859 23.3058 32.2841 23.1086 32.7127 23.2942L34.2184 23.9461C34.647 24.1316 34.8441 24.6298 34.6586 25.0584L34.0067 26.5641C33.8212 26.9927 33.323 27.1898 32.8944 27.0043L31.3887 26.3524C30.9601 26.1669 30.7629 25.6687 30.9485 25.2401L31.6004 23.7344ZM35.5967 22.1529C35.7822 21.7243 36.2804 21.5272 36.709 21.7127L38.2147 22.3646C38.6433 22.5501 38.8404 23.0483 38.6549 23.4769L38.003 24.9826C37.8175 25.4112 37.3193 25.6084 36.8907 25.4228L35.3841 24.7713C34.9557 24.5857 34.7586 24.0875 34.9439 23.6589L35.5967 22.1529ZM33.0108 25.7168C32.7482 25.8211 32.6187 26.1184 32.7224 26.3813C32.8265 26.6443 33.1247 26.7731 33.3878 26.6693C33.651 26.5652 33.78 26.2672 33.6758 26.004C33.5715 25.7412 33.2738 25.6127 33.0108 25.7168ZM36.6262 23.1833C36.3634 23.2876 36.2342 23.5857 36.3381 23.8487C36.4422 24.1117 36.7404 24.2406 37.0035 24.1368C37.2667 24.0326 37.3957 23.7346 37.2915 23.4714C37.1873 23.2083 36.8893 23.0792 36.6262 23.1833ZM31.5114 25.0887C31.2486 25.1929 31.1192 25.4902 31.223 25.7532C31.3271 26.0163 31.6252 26.1453 31.8884 26.0413C32.1514 25.937 32.2806 25.639 32.1764 25.3759C32.0721 25.1131 31.7744 24.9848 31.5114 25.0887ZM33.7261 24.2123C33.4635 24.3166 33.3349 24.6135 33.4386 24.8764C33.5427 25.1394 33.84 25.2685 34.1031 25.1648C34.3663 25.0607 34.4953 24.7626 34.3912 24.4994C34.2868 24.2366 33.9891 24.1082 33.7261 24.2123ZM32.1951 23.6555C31.9323 23.7598 31.8031 24.0579 31.907 24.3209C32.0111 24.584 32.3093 24.7128 32.5724 24.609C32.8356 24.5048 32.9646 24.2068 32.8605 23.9436C32.7562 23.6806 32.4582 23.5514 32.1951 23.6555ZM30.0699 19.8671C30.2555 19.4384 30.7536 19.2413 31.1823 19.4269L32.6879 20.0787C33.1165 20.2643 33.3137 20.7624 33.1281 21.1911L32.4763 22.6967C32.2907 23.1253 31.7925 23.3225 31.3639 23.1369L29.8582 22.4851C29.4296 22.2995 29.2325 21.8013 29.418 21.3727L30.0699 19.8671ZM34.0662 18.2856C34.2518 17.8569 34.7499 17.6598 35.1786 17.8454L36.6842 18.4972C37.1128 18.6828 37.31 19.181 37.1244 19.6096L36.4726 21.1152C36.287 21.5439 35.7888 21.741 35.3602 21.5554L33.8536 20.9039C33.4252 20.7184 33.228 20.2201 33.4134 19.7916L34.0662 18.2856ZM35.4845 20.2985C35.2217 20.4027 35.0925 20.7008 35.1965 20.9638C35.3007 21.2267 35.5985 21.3548 35.8615 21.251C36.1246 21.1469 36.2538 20.8496 36.1499 20.5865C36.0457 20.3235 35.7476 20.1943 35.4845 20.2985ZM31.4509 21.775C31.1881 21.8792 31.059 22.1774 31.1628 22.4404C31.2669 22.7034 31.5651 22.8323 31.8282 22.7284C32.0914 22.6243 32.2204 22.3262 32.1163 22.063C32.012 21.8001 31.7139 21.6709 31.4509 21.775ZM33.8712 19.685C33.6085 19.7893 33.4793 20.0875 33.5831 20.3504C33.6872 20.6134 33.9854 20.7422 34.2485 20.6385C34.5117 20.5343 34.6407 20.2363 34.5366 19.9731C34.4323 19.7102 34.1342 19.5809 33.8712 19.685ZM35.0562 19.2161C34.7934 19.3203 34.6643 19.6185 34.7681 19.8814C34.8722 20.1445 35.1704 20.2733 35.4335 20.1695C35.6967 20.0654 35.8257 19.7673 35.7216 19.5041C35.6173 19.2412 35.3193 19.112 35.0562 19.2161ZM36.2412 18.7471C35.9785 18.8514 35.8502 19.1492 35.954 19.4121C36.0581 19.6751 36.3554 19.8043 36.6185 19.7006C36.8817 19.5964 37.0107 19.2984 36.9066 19.0352C36.8023 18.7722 36.5042 18.643 36.2412 18.7471ZM30.707 19.8953C30.4443 19.9996 30.3149 20.2969 30.4186 20.5598C30.5227 20.8229 30.8209 20.9517 31.084 20.8479C31.3472 20.7437 31.4762 20.4457 31.3721 20.1825C31.2677 19.9197 30.9701 19.7912 30.707 19.8953ZM34.6282 18.1346C34.3654 18.2389 34.2362 18.537 34.3401 18.8C34.4443 19.0629 34.7425 19.1918 35.0055 19.088C35.2687 18.9839 35.3976 18.6858 35.2936 18.4226C35.1894 18.1596 34.8913 18.0305 34.6282 18.1346Z" fill="#FFA09F" style="mix-blend-mode:overlay"/>
</g>
<mask id="mask1_120_3090" style="mask-type:alpha" maskUnits="userSpaceOnUse" x="28" y="17" width="14" height="15">
<rect x="28.2839" y="20.658" width="9.41907" height="12.1894" rx="1.07122" transform="rotate(-21.5906 28.2839 20.658)" fill="url(#paint4_linear_120_3090)"/>
</mask>
<g mask="url(#mask1_120_3090)">
<path d="M33.3957 26.9273L32.7927 17.3377L34.8322 16.447L40.2029 23.6789L39.9186 29.1301L35.3125 30.3772L33.3957 26.9273Z" fill="#A56363" style="mix-blend-mode:multiply"/>
</g>
<g filter="url(#filter3_i_120_3090)">
<rect x="34.8953" y="16.7017" width="10.224" height="13.231" rx="1.14268" transform="rotate(10.0275 34.8953 16.7017)" fill="url(#paint5_linear_120_3090)"/>
</g>
<rect x="35.3828" y="17.3987" width="9.02114" height="12.0282" rx="0.511198" transform="rotate(10.0275 35.3828 17.3987)" fill="#E74342"/>
<mask id="mask2_120_3090" style="mask-type:alpha" maskUnits="userSpaceOnUse" x="33" y="17" width="12" height="14">
<rect x="35.3828" y="17.3987" width="9.02114" height="12.0282" rx="0.511198" transform="rotate(10.0275 35.3828 17.3987)" fill="url(#paint6_linear_120_3090)"/>
</mask>
<g mask="url(#mask2_120_3090)">
<path d="M35.4374 25.8691C35.8456 25.5836 36.4087 25.6831 36.6942 26.0914L37.7336 27.5773C38.0189 27.9855 37.9196 28.5477 37.5115 28.8332L36.0256 29.8726C35.6174 30.1581 35.0543 30.0586 34.7688 29.6503L33.7304 28.1646C33.4448 27.7563 33.5442 27.1943 33.9524 26.9087L35.4374 25.8691ZM40.0313 26.6805C40.4395 26.395 41.0026 26.4946 41.2882 26.9027L42.3276 28.3886C42.6131 28.7968 42.5135 29.3599 42.1053 29.6455L40.6194 30.6848C40.2112 30.9704 39.6481 30.8709 39.3625 30.4626L38.3232 28.9767C38.0377 28.5685 38.1372 28.0054 38.5454 27.7198L40.0313 26.6805ZM39.7439 28.5694C39.4417 28.5162 39.1525 28.7185 39.0988 29.0206C39.0456 29.323 39.248 29.6111 39.5502 29.6647C39.8526 29.7181 40.1405 29.5166 40.1942 29.2143C40.2473 28.912 40.0462 28.623 39.7439 28.5694ZM35.8369 27.1765C35.5347 27.1232 35.2456 27.3255 35.1919 27.6277C35.1387 27.9299 35.3411 28.2181 35.6433 28.2718C35.9456 28.3252 36.2344 28.1238 36.2881 27.8215C36.3413 27.5192 36.1393 27.2299 35.8369 27.1765ZM41.0627 27.6731C40.7606 27.6198 40.4717 27.8213 40.4178 28.1233C40.3643 28.4257 40.5667 28.7147 40.869 28.7684C41.1715 28.8218 41.4596 28.6195 41.5131 28.317C41.5661 28.0148 41.3649 27.7266 41.0627 27.6731ZM36.2235 21.4235C36.6317 21.1379 37.1948 21.2374 37.4803 21.6457L38.5197 23.1316C38.805 23.5398 38.7057 24.102 38.2976 24.3875L36.8117 25.4269C36.4035 25.7125 35.8404 25.6129 35.5549 25.2046L34.5164 23.7189C34.2309 23.3107 34.3303 22.7486 34.7385 22.463L36.2235 21.4235ZM40.8172 22.2357C41.2255 21.9502 41.7885 22.0497 42.0741 22.458L43.1135 23.9439C43.3986 24.352 43.2994 24.9143 42.8914 25.1998L41.4055 26.2392C40.9972 26.5247 40.4342 26.4252 40.1486 26.0169L39.1093 24.531C38.8239 24.1229 38.9235 23.5607 39.3313 23.2751L40.8172 22.2357ZM36.3867 24.0675C36.0845 24.0142 35.7956 24.2157 35.7418 24.5177C35.6883 24.8201 35.8906 25.1091 36.193 25.1628C36.4955 25.2163 36.7846 25.0141 36.8381 24.7116C36.8911 24.4093 36.689 24.1209 36.3867 24.0675ZM41.1704 23.7828C40.8682 23.7295 40.5791 23.9318 40.5254 24.234C40.472 24.5364 40.6743 24.8254 40.9766 24.8791C41.279 24.9324 41.5672 24.7301 41.6207 24.4277C41.6739 24.1254 41.4727 23.8364 41.1704 23.7828ZM35.358 22.633C35.0558 22.5798 34.7667 22.7821 34.713 23.0843C34.6596 23.3866 34.8621 23.6747 35.1643 23.7284C35.4668 23.7817 35.7547 23.5803 35.8083 23.2779C35.8615 22.9756 35.6603 22.6866 35.358 22.633ZM37.9045 23.0833C37.6022 23.0301 37.3131 23.2324 37.2594 23.5345C37.206 23.8369 37.4085 24.125 37.7108 24.1786C38.0132 24.232 38.3011 24.0306 38.3547 23.7282C38.4079 23.4259 38.2067 23.1369 37.9045 23.0833ZM36.8056 21.698C36.5034 21.6447 36.2143 21.847 36.1606 22.1492C36.1072 22.4516 36.3095 22.7406 36.6118 22.7942C36.9143 22.8477 37.2033 22.6455 37.2569 22.343C37.3101 22.0407 37.108 21.7515 36.8056 21.698ZM37.0095 16.9778C37.4178 16.6922 37.9808 16.7918 38.2664 17.2L39.3058 18.6859C39.5911 19.0941 39.4918 19.6563 39.0837 19.9418L37.5978 20.9812C37.1896 21.2668 36.6265 21.1672 36.341 20.759L35.3025 19.2732C35.017 18.865 35.1164 18.3029 35.5246 18.0173L37.0095 16.9778ZM41.6033 17.7901C42.0116 17.5045 42.5746 17.604 42.8602 18.0123L43.8996 19.4982C44.1848 19.9064 44.0855 20.4686 43.6775 20.7541L42.1916 21.7935C41.7833 22.0791 41.2203 21.9795 40.9347 21.5712L39.8954 20.0853C39.6101 19.6772 39.7096 19.115 40.1174 18.8294L41.6033 17.7901ZM41.7567 20.467C41.4546 20.4138 41.1656 20.6153 41.1119 20.9173C41.0584 21.2197 41.2607 21.5087 41.5631 21.5623C41.8655 21.6157 42.1537 21.4134 42.2072 21.111C42.2602 20.8088 42.0589 20.5206 41.7567 20.467ZM37.1879 19.5362C36.8857 19.483 36.5966 19.6853 36.5428 19.9874C36.4894 20.2898 36.6917 20.5788 36.994 20.6325C37.2966 20.686 37.5856 20.4838 37.6391 20.1812C37.6922 19.8789 37.4902 19.5897 37.1879 19.5362ZM40.6141 18.9817C40.312 18.9286 40.0237 19.131 39.97 19.4331C39.9166 19.7354 40.1181 20.0242 40.4203 20.078C40.7228 20.1315 41.0118 19.9292 41.0653 19.6268C41.1185 19.3244 40.9165 19.0352 40.6141 18.9817ZM41.9768 19.2227C41.6745 19.1694 41.3854 19.3717 41.3317 19.6739C41.2782 19.9763 41.4806 20.2653 41.7829 20.3189C42.0854 20.3722 42.3735 20.17 42.427 19.8676C42.4802 19.5653 42.279 19.2763 41.9768 19.2227ZM43.3385 19.4634C43.0363 19.4103 42.748 19.6127 42.6944 19.9148C42.6409 20.2172 42.8424 20.506 43.1446 20.5597C43.4472 20.6132 43.7362 20.411 43.7897 20.1085C43.8429 19.8061 43.6408 19.5169 43.3385 19.4634ZM37.57 17.3754C37.2678 17.3222 36.9788 17.5236 36.9251 17.8256C36.8716 18.128 37.074 18.417 37.3763 18.4707C37.6788 18.5242 37.9679 18.322 38.0214 18.0195C38.0745 17.7172 37.8723 17.4288 37.57 17.3754ZM42.1966 17.9793C41.8944 17.926 41.6053 18.1283 41.5516 18.4305C41.4983 18.7328 41.7007 19.0209 42.003 19.0746C42.3053 19.1279 42.5933 18.9265 42.6469 18.6241C42.7001 18.3219 42.4989 18.0328 42.1966 17.9793Z" fill="#FFA09F" style="mix-blend-mode:overlay"/>
</g>
<mask id="mask3_120_3090" style="mask-type:alpha" maskUnits="userSpaceOnUse" x="29" y="22" width="11" height="11">
<ellipse cx="5.14559" cy="5.1874" rx="5.14559" ry="5.1874" transform="matrix(0.958878 -0.283819 0.294432 0.955673 28.0923 23.9514)" fill="url(#paint7_radial_120_3090)"/>
</mask>
<g mask="url(#mask3_120_3090)">
<g filter="url(#filter4_i_120_3090)">
<ellipse cx="5.14559" cy="5.1874" rx="5.14559" ry="5.1874" transform="matrix(0.958878 -0.283819 0.294432 0.955673 28.0923 23.9514)" fill="url(#paint8_radial_120_3090)"/>
</g>
<ellipse cx="3.06639" cy="3.10732" rx="3.06639" ry="3.10732" transform="matrix(0.624618 -0.780931 0.778705 0.62739 29.969 27.083)" fill="url(#paint9_linear_120_3090)"/>
<path d="M31.8075 24.6265C32.8999 23.2607 34.9028 23.0571 36.2804 24.167C37.658 25.2769 37.8923 27.283 36.7999 28.6488C35.7075 30.0145 33.7048 30.2194 32.3272 29.1096C30.9495 27.9997 30.7151 25.9923 31.8075 24.6265Z" stroke="black" stroke-opacity="0.36" stroke-width="0.196297"/>
<path d="M34.5733 28.9154C34.3704 28.9497 34.2439 28.8351 34.2052 28.6364L34.1389 28.3295C34.092 28.1134 34.1934 27.9995 34.4095 27.9526C34.5868 27.9092 34.8037 27.828 34.975 27.664C35.1816 27.4664 35.2925 27.1161 35.0444 26.8569C34.8089 26.6108 34.4549 26.6718 34.1693 26.9452C34.0682 27.0419 33.9972 27.1435 33.9479 27.2328C33.8629 27.3815 33.7833 27.4829 33.627 27.5483L33.5618 27.577C33.3796 27.6504 33.2297 27.617 33.1084 27.4638L32.0528 26.176C31.9188 26.0096 31.9266 25.8506 32.0804 25.7035L33.3633 24.4757C33.5215 24.3243 33.6849 24.3279 33.8363 24.4861L34.0044 24.6618C34.1558 24.82 34.1522 24.9834 33.994 25.1348L33.1461 25.9463L33.406 26.2531C33.4649 26.3146 33.5061 26.3929 33.5061 26.3929L33.5149 26.3845C33.5149 26.3845 33.5953 26.2486 33.714 26.1351C34.4609 25.4203 35.2845 25.5244 35.8269 26.0912C36.4492 26.7415 36.4202 27.67 35.7347 28.3259C35.3129 28.7295 34.8668 28.8703 34.5733 28.9154Z" fill="url(#paint10_linear_120_3090)"/>
</g>
<g style="mix-blend-mode:overlay">
<path d="M31.4779 24.14C33.119 22.5698 35.5098 22.4054 36.8182 23.7726C38.1264 25.1398 37.8572 27.5211 36.2163 29.0915C34.5753 30.662 32.1838 30.8268 30.8753 29.4597C29.5669 28.0924 29.8368 25.7105 31.4779 24.14Z" fill="url(#paint11_linear_120_3090)"/>
</g>
<path d="M48.744 26.8567V22.9792H51.4445V23.6282H49.5085V24.6237H51.3345V25.2727H49.5085V26.8567H48.744ZM53.3383 26.9117C53.1329 26.9117 52.9478 26.8732 52.7828 26.7962C52.6214 26.7192 52.4931 26.6147 52.3978 26.4827C52.3061 26.3507 52.2603 26.2022 52.2603 26.0372C52.2603 25.8355 52.3208 25.6705 52.4418 25.5422C52.5664 25.4102 52.7534 25.313 53.0028 25.2507C53.2558 25.1884 53.5748 25.1572 53.9598 25.1572H54.3833V25.6247H54.0093C53.8406 25.6247 53.6939 25.6302 53.5693 25.6412C53.4446 25.6522 53.3401 25.6724 53.2558 25.7017C53.1751 25.7274 53.1128 25.764 53.0688 25.8117C53.0284 25.8594 53.0083 25.9217 53.0083 25.9987C53.0083 26.1234 53.0559 26.2132 53.1513 26.2682C53.2503 26.3232 53.3768 26.3507 53.5308 26.3507C53.6628 26.3507 53.7856 26.3195 53.8993 26.2572C54.0129 26.1949 54.1046 26.1124 54.1743 26.0097C54.2439 25.907 54.2788 25.797 54.2788 25.6797V25.0967C54.2788 24.9134 54.2183 24.7887 54.0973 24.7227C53.9763 24.653 53.8003 24.6182 53.5693 24.6182C53.4189 24.6182 53.2631 24.6384 53.1018 24.6787C52.9404 24.719 52.7663 24.7887 52.5793 24.8877L52.3758 24.3542C52.5114 24.2809 52.6508 24.2222 52.7938 24.1782C52.9368 24.1305 53.0853 24.0957 53.2393 24.0737C53.3969 24.048 53.5564 24.0352 53.7178 24.0352C53.9781 24.0352 54.2054 24.0755 54.3998 24.1562C54.5978 24.2332 54.7499 24.356 54.8563 24.5247C54.9663 24.6934 55.0213 24.9152 55.0213 25.1902V26.8567H54.4053V26.2957H54.3668C54.3044 26.4094 54.2256 26.5139 54.1303 26.6092C54.0386 26.7009 53.9268 26.7742 53.7948 26.8292C53.6664 26.8842 53.5143 26.9117 53.3383 26.9117ZM56.2343 26.8567V24.0902H56.8998V24.6677H56.9328C56.9878 24.5467 57.0612 24.4385 57.1528 24.3432C57.2482 24.2479 57.3582 24.1727 57.4828 24.1177C57.6112 24.0627 57.7505 24.0352 57.9008 24.0352C58.1282 24.0352 58.3188 24.092 58.4728 24.2057C58.6305 24.3157 58.7332 24.4569 58.7808 24.6292H58.8138C58.8835 24.4715 58.9972 24.334 59.1548 24.2167C59.3162 24.0957 59.5197 24.0352 59.7653 24.0352C59.978 24.0352 60.1595 24.0792 60.3098 24.1672C60.4602 24.2515 60.5738 24.3835 60.6508 24.5632C60.7315 24.7392 60.7718 24.9647 60.7718 25.2397V26.8567H60.0183V25.2617C60.0183 25.0674 59.9835 24.9207 59.9138 24.8217C59.8478 24.7227 59.7232 24.6732 59.5398 24.6732C59.4005 24.6732 59.2795 24.7044 59.1768 24.7667C59.0778 24.8254 59.0008 24.906 58.9458 25.0087C58.8945 25.1114 58.8688 25.2269 58.8688 25.3552V26.8567H58.1318V25.2617C58.1318 25.071 58.0915 24.9262 58.0108 24.8272C57.9302 24.7245 57.8092 24.6732 57.6478 24.6732C57.5122 24.6732 57.3948 24.708 57.2958 24.7777C57.1968 24.8437 57.1198 24.928 57.0648 25.0307C57.0098 25.1334 56.9823 25.2379 56.9823 25.3442V26.8567H56.2343ZM61.9176 23.5512V22.7812H62.7976V23.5512H61.9176ZM61.9836 26.8567V24.0902H62.7481V26.8567H61.9836ZM64.909 26.9117C64.601 26.9117 64.3645 26.8292 64.1995 26.6642C64.0345 26.4992 63.952 26.2664 63.952 25.9657V22.9792H64.7165V25.8997C64.7165 25.9914 64.7293 26.0684 64.755 26.1307C64.7806 26.193 64.8191 26.2407 64.8705 26.2737C64.9218 26.3067 64.9841 26.3232 65.0575 26.3232C65.1161 26.3232 65.1693 26.3214 65.217 26.3177C65.2683 26.3104 65.3233 26.2994 65.382 26.2847L65.4425 26.8237C65.3545 26.8567 65.2701 26.8787 65.1895 26.8897C65.1125 26.9044 65.019 26.9117 64.909 26.9117ZM66.4645 27.8467L67.0475 26.5652V27.2087L65.7385 24.0902H66.547L67.262 26.0757H67.3005L68.0045 24.0902H68.791L67.2565 27.8467H66.4645ZM73.4739 26.9117C73.0669 26.9117 72.7149 26.8329 72.4179 26.6752C72.1209 26.5139 71.8918 26.2847 71.7304 25.9877C71.5691 25.6907 71.4884 25.3332 71.4884 24.9152C71.4884 24.4972 71.5673 24.1397 71.7249 23.8427C71.8826 23.5457 72.1081 23.3184 72.4014 23.1607C72.6984 23.003 73.0486 22.9242 73.4519 22.9242C73.6463 22.9242 73.8333 22.9407 74.0129 22.9737C74.1926 23.0067 74.3576 23.0562 74.5079 23.1222C74.6619 23.1845 74.7903 23.2634 74.8929 23.3587L74.6454 23.9417C74.4694 23.8134 74.2843 23.7235 74.0899 23.6722C73.8956 23.6172 73.6884 23.5897 73.4684 23.5897C73.1018 23.5897 72.8103 23.6997 72.5939 23.9197C72.3776 24.1397 72.2694 24.4715 72.2694 24.9152C72.2694 25.3699 72.3758 25.709 72.5884 25.9327C72.8048 26.1527 73.1183 26.2627 73.5289 26.2627C73.7306 26.2627 73.9103 26.2517 74.0679 26.2297C74.2256 26.204 74.3686 26.1637 74.4969 26.1087L74.2934 26.4497V25.2837H73.4464V24.6457H74.9754V26.6257C74.8581 26.6844 74.7169 26.7357 74.5519 26.7797C74.3906 26.82 74.2164 26.8512 74.0294 26.8732C73.8461 26.8989 73.6609 26.9117 73.4739 26.9117ZM77.2141 26.9117C77.0088 26.9117 76.8236 26.8732 76.6586 26.7962C76.4973 26.7192 76.369 26.6147 76.2736 26.4827C76.182 26.3507 76.1361 26.2022 76.1361 26.0372C76.1361 25.8355 76.1966 25.6705 76.3176 25.5422C76.4423 25.4102 76.6293 25.313 76.8786 25.2507C77.1316 25.1884 77.4506 25.1572 77.8356 25.1572H78.2591V25.6247H77.8851C77.7165 25.6247 77.5698 25.6302 77.4451 25.6412C77.3205 25.6522 77.216 25.6724 77.1316 25.7017C77.051 25.7274 76.9886 25.764 76.9446 25.8117C76.9043 25.8594 76.8841 25.9217 76.8841 25.9987C76.8841 26.1234 76.9318 26.2132 77.0271 26.2682C77.1261 26.3232 77.2526 26.3507 77.4066 26.3507C77.5386 26.3507 77.6615 26.3195 77.7751 26.2572C77.8888 26.1949 77.9805 26.1124 78.0501 26.0097C78.1198 25.907 78.1546 25.797 78.1546 25.6797V25.0967C78.1546 24.9134 78.0941 24.7887 77.9731 24.7227C77.8521 24.653 77.6761 24.6182 77.4451 24.6182C77.2948 24.6182 77.139 24.6384 76.9776 24.6787C76.8163 24.719 76.6421 24.7887 76.4551 24.8877L76.2516 24.3542C76.3873 24.2809 76.5266 24.2222 76.6696 24.1782C76.8126 24.1305 76.9611 24.0957 77.1151 24.0737C77.2728 24.048 77.4323 24.0352 77.5936 24.0352C77.854 24.0352 78.0813 24.0755 78.2756 24.1562C78.4736 24.2332 78.6258 24.356 78.7321 24.5247C78.8421 24.6934 78.8971 24.9152 78.8971 25.1902V26.8567H78.2811V26.2957H78.2426C78.1803 26.4094 78.1015 26.5139 78.0061 26.6092C77.9145 26.7009 77.8026 26.7742 77.6706 26.8292C77.5423 26.8842 77.3901 26.9117 77.2141 26.9117ZM80.1102 26.8567V24.0902H80.7757V24.6677H80.8087C80.8637 24.5467 80.937 24.4385 81.0287 24.3432C81.124 24.2479 81.234 24.1727 81.3587 24.1177C81.487 24.0627 81.6264 24.0352 81.7767 24.0352C82.004 24.0352 82.1947 24.092 82.3487 24.2057C82.5064 24.3157 82.609 24.4569 82.6567 24.6292H82.6897C82.7594 24.4715 82.873 24.334 83.0307 24.2167C83.192 24.0957 83.3955 24.0352 83.6412 24.0352C83.8539 24.0352 84.0354 24.0792 84.1857 24.1672C84.336 24.2515 84.4497 24.3835 84.5267 24.5632C84.6074 24.7392 84.6477 24.9647 84.6477 25.2397V26.8567H83.8942V25.2617C83.8942 25.0674 83.8594 24.9207 83.7897 24.8217C83.7237 24.7227 83.599 24.6732 83.4157 24.6732C83.2764 24.6732 83.1554 24.7044 83.0527 24.7667C82.9537 24.8254 82.8767 24.906 82.8217 25.0087C82.7704 25.1114 82.7447 25.2269 82.7447 25.3552V26.8567H82.0077V25.2617C82.0077 25.071 81.9674 24.9262 81.8867 24.8272C81.806 24.7245 81.685 24.6732 81.5237 24.6732C81.388 24.6732 81.2707 24.708 81.1717 24.7777C81.0727 24.8437 80.9957 24.928 80.9407 25.0307C80.8857 25.1334 80.8582 25.2379 80.8582 25.3442V26.8567H80.1102ZM87.3555 26.9117C86.9998 26.9117 86.6992 26.8549 86.4535 26.7412C86.2078 26.6239 86.0227 26.457 85.898 26.2407C85.7733 26.0244 85.711 25.7677 85.711 25.4707C85.711 25.1994 85.7678 24.9555 85.8815 24.7392C85.9988 24.5229 86.1675 24.3524 86.3875 24.2277C86.6075 24.0994 86.8715 24.0352 87.1795 24.0352C87.4545 24.0352 87.6947 24.0939 87.9 24.2112C88.1053 24.3249 88.263 24.4899 88.373 24.7062C88.4867 24.9189 88.5435 25.1774 88.5435 25.4817V25.7127H86.305V25.2342H87.988L87.9055 25.3387C87.9055 25.0784 87.8413 24.8877 87.713 24.7667C87.5883 24.6457 87.4123 24.5852 87.185 24.5852C87.0383 24.5852 86.9082 24.6145 86.7945 24.6732C86.6808 24.7319 86.591 24.8199 86.525 24.9372C86.459 25.0509 86.426 25.1957 86.426 25.3717V25.4597C86.426 25.6614 86.4627 25.8245 86.536 25.9492C86.6093 26.0739 86.7175 26.1655 86.8605 26.2242C87.0035 26.2829 87.1795 26.3122 87.3885 26.3122C87.5315 26.3122 87.6782 26.2957 87.8285 26.2627C87.9825 26.2297 88.1218 26.1692 88.2465 26.0812L88.461 26.6092C88.307 26.7192 88.131 26.798 87.933 26.8457C87.735 26.8897 87.5425 26.9117 87.3555 26.9117ZM90.7169 26.9117C90.5482 26.9117 90.3832 26.8989 90.2219 26.8732C90.0642 26.8512 89.9194 26.8182 89.7874 26.7742C89.6554 26.7302 89.5417 26.6734 89.4464 26.6037L89.6444 26.0702C89.7434 26.1325 89.8516 26.1839 89.9689 26.2242C90.0862 26.2609 90.2054 26.2884 90.3264 26.3067C90.4511 26.3214 90.5684 26.3287 90.6784 26.3287C90.8947 26.3287 91.0579 26.3085 91.1679 26.2682C91.2779 26.2279 91.3329 26.1582 91.3329 26.0592C91.3329 25.9749 91.3036 25.9144 91.2449 25.8777C91.1862 25.841 91.0872 25.8135 90.9479 25.7952L90.3154 25.7127C90.0367 25.676 89.8296 25.5844 89.6939 25.4377C89.5619 25.2874 89.4959 25.1114 89.4959 24.9097C89.4959 24.741 89.5417 24.5925 89.6334 24.4642C89.7287 24.3322 89.8717 24.2277 90.0624 24.1507C90.2567 24.0737 90.4987 24.0352 90.7884 24.0352C90.9314 24.0352 91.0744 24.0462 91.2174 24.0682C91.3641 24.0902 91.4979 24.125 91.6189 24.1727C91.7436 24.2167 91.8444 24.2717 91.9214 24.3377L91.7069 24.8602C91.6299 24.8015 91.5401 24.7557 91.4374 24.7227C91.3347 24.686 91.2266 24.6604 91.1129 24.6457C91.0029 24.6274 90.8947 24.6182 90.7884 24.6182C90.5831 24.6182 90.4272 24.6402 90.3209 24.6842C90.2182 24.7282 90.1669 24.7979 90.1669 24.8932C90.1669 24.9739 90.1944 25.0325 90.2494 25.0692C90.3081 25.1022 90.4016 25.1279 90.5299 25.1462L91.1294 25.2397C91.4337 25.2874 91.6556 25.379 91.7949 25.5147C91.9342 25.6467 92.0039 25.8264 92.0039 26.0537C92.0039 26.2297 91.9507 26.3819 91.8444 26.5102C91.7417 26.6385 91.5932 26.7375 91.3989 26.8072C91.2082 26.8769 90.9809 26.9117 90.7169 26.9117Z" fill="#202224"/>
<mask id="mask4_120_3090" style="mask-type:alpha" maskUnits="userSpaceOnUse" x="14" y="13" width="16" height="23">
<path d="M14.6973 17.3434C14.6973 15.5512 16.1501 14.0984 17.9423 14.0984H22.4517C25.901 14.0984 28.6973 16.8946 28.6973 20.344V29.3692C28.6973 32.8185 25.901 35.6148 22.4517 35.6148H17.9423C16.1501 35.6148 14.6973 34.1619 14.6973 32.3698V17.3434Z" fill="white" stroke="url(#paint12_linear_120_3090)" stroke-opacity="0.3" stroke-width="0.650789"/>
</mask>
<g mask="url(#mask4_120_3090)">
<rect x="14.1973" y="13.6846" width="7" height="22.3439" fill="#587ED7"/>
</g>
<defs>
<filter id="filter0_d_120_3090" x="0.845876" y="0.246999" width="107.584" height="52.6006" filterUnits="userSpaceOnUse" color-interpolation-filters="sRGB">
<feFlood flood-opacity="0" result="BackgroundImageFix"/>
<feColorMatrix in="SourceAlpha" type="matrix" values="0 0 0 0 0 0 0 0 0 0 0 0 0 0 0 0 0 0 127 0" result="hardAlpha"/>
<feOffset dx="1.69074" dy="1.69074"/>
<feGaussianBlur stdDeviation="7.60835"/>
<feColorMatrix type="matrix" values="0 0 0 0 0 0 0 0 0 0 0 0 0 0 0 0 0 0 0.05 0"/>
<feBlend mode="normal" in2="BackgroundImageFix" result="effect1_dropShadow_120_3090"/>
<feBlend mode="normal" in="SourceGraphic" in2="effect1_dropShadow_120_3090" result="shape"/>
</filter>
<filter id="filter1_di_120_3090" x="27.8057" y="16.0798" width="17.7891" height="18.1119" filterUnits="userSpaceOnUse" color-interpolation-filters="sRGB">
<feFlood flood-opacity="0" result="BackgroundImageFix"/>
<feColorMatrix in="SourceAlpha" type="matrix" values="0 0 0 0 0 0 0 0 0 0 0 0 0 0 0 0 0 0 127 0" result="hardAlpha"/>
<feOffset dy="0.767956"/>
<feComposite in2="hardAlpha" operator="out"/>
<feColorMatrix type="matrix" values="0 0 0 0 0.176471 0 0 0 0 0.0352941 0 0 0 0 0.262745 0 0 0 1 0"/>
<feBlend mode="normal" in2="BackgroundImageFix" result="effect1_dropShadow_120_3090"/>
<feBlend mode="normal" in="SourceGraphic" in2="effect1_dropShadow_120_3090" result="shape"/>
<feColorMatrix in="SourceAlpha" type="matrix" values="0 0 0 0 0 0 0 0 0 0 0 0 0 0 0 0 0 0 127 0" result="hardAlpha"/>
<feOffset dx="0.120282" dy="-0.210493"/>
<feComposite in2="hardAlpha" operator="arithmetic" k2="-1" k3="1"/>
<feColorMatrix type="matrix" values="0 0 0 0 0 0 0 0 0 0 0 0 0 0 0 0 0 0 0.25 0"/>
<feBlend mode="normal" in2="shape" result="effect2_innerShadow_120_3090"/>
</filter>
<filter id="filter2_i_120_3090" x="28.6023" y="17.511" width="12.606" height="14.1626" filterUnits="userSpaceOnUse" color-interpolation-filters="sRGB">
<feFlood flood-opacity="0" result="BackgroundImageFix"/>
<feBlend mode="normal" in="SourceGraphic" in2="BackgroundImageFix" result="shape"/>
<feColorMatrix in="SourceAlpha" type="matrix" values="0 0 0 0 0 0 0 0 0 0 0 0 0 0 0 0 0 0 127 0" result="hardAlpha"/>
<feOffset dx="0.11276" dy="-0.19733"/>
<feComposite in2="hardAlpha" operator="arithmetic" k2="-1" k3="1"/>
<feColorMatrix type="matrix" values="0 0 0 0 0 0 0 0 0 0 0 0 0 0 0 0 0 0 0.25 0"/>
<feBlend mode="normal" in2="shape" result="effect1_innerShadow_120_3090"/>
</filter>
<filter id="filter3_i_120_3090" x="32.7727" y="16.8831" width="12.009" height="14.4463" filterUnits="userSpaceOnUse" color-interpolation-filters="sRGB">
<feFlood flood-opacity="0" result="BackgroundImageFix"/>
<feBlend mode="normal" in="SourceGraphic" in2="BackgroundImageFix" result="shape"/>
<feColorMatrix in="SourceAlpha" type="matrix" values="0 0 0 0 0 0 0 0 0 0 0 0 0 0 0 0 0 0 127 0" result="hardAlpha"/>
<feOffset dx="0.120282" dy="-0.210493"/>
<feComposite in2="hardAlpha" operator="arithmetic" k2="-1" k3="1"/>
<feColorMatrix type="matrix" values="0 0 0 0 0 0 0 0 0 0 0 0 0 0 0 0 0 0 0.25 0"/>
<feBlend mode="normal" in2="shape" result="effect1_innerShadow_120_3090"/>
</filter>
<filter id="filter4_i_120_3090" x="29.3872" y="21.7556" width="10.3328" height="10.8623" filterUnits="userSpaceOnUse" color-interpolation-filters="sRGB">
<feFlood flood-opacity="0" result="BackgroundImageFix"/>
<feBlend mode="normal" in="SourceGraphic" in2="BackgroundImageFix" result="shape"/>
<feColorMatrix in="SourceAlpha" type="matrix" values="0 0 0 0 0 0 0 0 0 0 0 0 0 0 0 0 0 0 127 0" result="hardAlpha"/>
<feOffset dy="-0.523459"/>
<feGaussianBlur stdDeviation="0.883337"/>
<feComposite in2="hardAlpha" operator="arithmetic" k2="-1" k3="1"/>
<feColorMatrix type="matrix" values="0 0 0 0 0 0 0 0 0 0 0 0 0 0 0 0 0 0 0.35 0"/>
<feBlend mode="normal" in2="shape" result="effect1_innerShadow_120_3090"/>
</filter>
<linearGradient id="paint0_linear_120_3090" x1="32.1409" y1="6.3268" x2="70.1737" y2="49.3736" gradientUnits="userSpaceOnUse">
<stop stop-color="#F1F1F1"/>
<stop offset="1" stop-color="#E1E1E1"/>
</linearGradient>
<linearGradient id="paint1_linear_120_3090" x1="39.9375" y1="17.5933" x2="37.6339" y2="30.6218" gradientUnits="userSpaceOnUse">
<stop stop-color="#FFF9E2"/>
<stop offset="1" stop-color="#FCE5C3"/>
</linearGradient>
<linearGradient id="paint2_linear_120_3090" x1="32.993" y1="20.6582" x2="32.993" y2="32.8476" gradientUnits="userSpaceOnUse">
<stop stop-color="#FFF9E2"/>
<stop offset="1" stop-color="#FCE5C3"/>
</linearGradient>
<linearGradient id="paint3_linear_120_3090" x1="33.1582" y1="20.9695" x2="33.1582" y2="32.0507" gradientUnits="userSpaceOnUse">
<stop stop-color="#E74443"/>
<stop offset="1" stop-color="#CC0A09"/>
</linearGradient>
<linearGradient id="paint4_linear_120_3090" x1="32.9935" y1="20.658" x2="32.9935" y2="32.8473" gradientUnits="userSpaceOnUse">
<stop stop-color="#FFF9E2"/>
<stop offset="1" stop-color="#FCE5C3"/>
</linearGradient>
<linearGradient id="paint5_linear_120_3090" x1="40.0072" y1="16.7017" x2="40.0072" y2="29.9327" gradientUnits="userSpaceOnUse">
<stop stop-color="#FFF9E2"/>
<stop offset="1" stop-color="#FCE5C3"/>
</linearGradient>
<linearGradient id="paint6_linear_120_3090" x1="39.8934" y1="17.3987" x2="39.8934" y2="29.4269" gradientUnits="userSpaceOnUse">
<stop stop-color="#E74443"/>
<stop offset="1" stop-color="#CC0A09"/>
</linearGradient>
<radialGradient id="paint7_radial_120_3090" cx="0" cy="0" r="1" gradientUnits="userSpaceOnUse" gradientTransform="translate(5.11322 3.09939) rotate(75.3868) scale(8.41814 8.39465)">
<stop offset="0.135417" stop-color="#00E0FF"/>
<stop offset="1" stop-color="#0055A3"/>
</radialGradient>
<radialGradient id="paint8_radial_120_3090" cx="0" cy="0" r="1" gradientUnits="userSpaceOnUse" gradientTransform="translate(5.11322 3.09939) rotate(75.3868) scale(8.41814 8.39465)">
<stop offset="0.135417" stop-color="#00E0FF"/>
<stop offset="1" stop-color="#0055A3"/>
</radialGradient>
<linearGradient id="paint9_linear_120_3090" x1="3.06639" y1="0" x2="3.06639" y2="6.21464" gradientUnits="userSpaceOnUse">
<stop stop-color="white"/>
<stop offset="1" stop-color="#C6C6C6" stop-opacity="0.47"/>
</linearGradient>
<linearGradient id="paint10_linear_120_3090" x1="31.799" y1="23.6866" x2="38.7579" y2="31.0099" gradientUnits="userSpaceOnUse">
<stop stop-color="#1A3699"/>
<stop offset="1" stop-color="#1A4C99" stop-opacity="0"/>
</linearGradient>
<linearGradient id="paint11_linear_120_3090" x1="31.4775" y1="24.1403" x2="36.216" y2="29.0919" gradientUnits="userSpaceOnUse">
<stop stop-color="white"/>
<stop offset="1" stop-color="#D9D9D9" stop-opacity="0"/>
</linearGradient>
<linearGradient id="paint12_linear_120_3090" x1="17.8896" y1="6.3268" x2="33.1131" y2="9.48009" gradientUnits="userSpaceOnUse">
<stop stop-color="#F1F1F1"/>
<stop offset="1" stop-color="#E1E1E1"/>
</linearGradient>
</defs>
</svg>
