<svg width="109" height="54" viewBox="0 0 109 54" fill="none" xmlns="http://www.w3.org/2000/svg">
<g filter="url(#filter0_d_120_3206)">
<rect x="14.6973" y="14.4836" width="76.5" height="21.5164" rx="3.245" fill="white"/>
<rect x="14.6973" y="14.4836" width="76.5" height="21.5164" rx="3.245" stroke="url(#paint0_linear_120_3206)" stroke-opacity="0.3" stroke-width="0.650789"/>
</g>
<g filter="url(#filter1_dii_120_3206)">
<mask id="path-3-outside-1_120_3206" maskUnits="userSpaceOnUse" x="25.8402" y="14.6796" width="21.3404" height="19.7071" fill="black">
<rect fill="white" x="25.8402" y="14.6796" width="21.3404" height="19.7071"/>
<path d="M35.4587 17.1067C37.4966 16.7904 39.4258 17.8744 40.2784 19.6456C42.3308 19.3484 44.2403 20.7668 44.5537 22.8309C44.8449 24.75 43.6538 26.5539 41.8406 27.0703L42.2496 29.765C42.3455 30.3966 41.9119 30.9886 41.2806 31.0867L34.0932 32.2022C33.4619 32.3002 32.8721 31.8675 32.7762 31.2358L32.3707 28.5642C32.3659 28.565 32.3612 28.5667 32.3564 28.5674C30.2894 28.8883 28.3577 27.4642 28.0424 25.3872C27.7271 23.3102 29.1471 21.3661 31.214 21.0453C31.3476 21.0245 31.4807 21.0109 31.6128 21.0044C31.8955 19.05 33.4161 17.4239 35.4587 17.1067Z"/>
</mask>
<path d="M35.4587 17.1067C37.4966 16.7904 39.4258 17.8744 40.2784 19.6456C42.3308 19.3484 44.2403 20.7668 44.5537 22.8309C44.8449 24.75 43.6538 26.5539 41.8406 27.0703L42.2496 29.765C42.3455 30.3966 41.9119 30.9886 41.2806 31.0867L34.0932 32.2022C33.4619 32.3002 32.8721 31.8675 32.7762 31.2358L32.3707 28.5642C32.3659 28.565 32.3612 28.5667 32.3564 28.5674C30.2894 28.8883 28.3577 27.4642 28.0424 25.3872C27.7271 23.3102 29.1471 21.3661 31.214 21.0453C31.3476 21.0245 31.4807 21.0109 31.6128 21.0044C31.8955 19.05 33.4161 17.4239 35.4587 17.1067Z" fill="url(#paint1_linear_120_3206)"/>
<path d="M35.4587 17.1067L35.3368 16.3115L35.3368 16.3115L35.4587 17.1067ZM40.2784 19.6456L39.5537 19.9959L39.8091 20.5265L40.3922 20.4421L40.2784 19.6456ZM44.5537 22.8309L45.3489 22.7086L45.3489 22.7085L44.5537 22.8309ZM41.8406 27.0703L41.6218 26.2963L40.9389 26.4908L41.0454 27.1926L41.8406 27.0703ZM42.2496 29.765L41.4545 29.8873L41.4545 29.8873L42.2496 29.765ZM41.2806 31.0867L41.4025 31.8819L41.4026 31.8819L41.2806 31.0867ZM34.0932 32.2022L33.9714 31.407L33.9714 31.407L34.0932 32.2022ZM32.7762 31.2358L31.981 31.3581L31.981 31.3581L32.7762 31.2358ZM32.3707 28.5642L33.1659 28.4419L33.0445 27.6423L32.2458 27.7695L32.3707 28.5642ZM32.3564 28.5674L32.4782 29.3627L32.4783 29.3627L32.3564 28.5674ZM28.0424 25.3872L27.2472 25.5094L27.2472 25.5095L28.0424 25.3872ZM31.214 21.0453L31.0921 20.25L31.0921 20.25L31.214 21.0453ZM31.6128 21.0044L31.6505 21.8082L32.3136 21.7758L32.4088 21.1182L31.6128 21.0044ZM35.4587 17.1067L35.5805 17.902C37.2573 17.6417 38.8493 18.5327 39.5537 19.9959L40.2784 19.6456L41.0032 19.2953C40.0022 17.216 37.7359 15.9391 35.3368 16.3115L35.4587 17.1067ZM40.2784 19.6456L40.3922 20.4421C42.005 20.2085 43.511 21.3231 43.7585 22.9532L44.5537 22.8309L45.3489 22.7085C44.9696 20.2105 42.6565 18.4883 40.1647 18.8491L40.2784 19.6456ZM44.5537 22.8309L43.7585 22.9531C43.9885 24.4683 43.0477 25.8902 41.6218 26.2963L41.8406 27.0703L42.0595 27.8443C44.2599 27.2176 45.7014 25.0317 45.3489 22.7086L44.5537 22.8309ZM41.8406 27.0703L41.0454 27.1926L41.4545 29.8873L42.2496 29.765L43.0448 29.6427L42.6358 26.948L41.8406 27.0703ZM42.2496 29.765L41.4545 29.8873C41.4839 30.0808 41.3506 30.2616 41.1586 30.2915L41.2806 31.0867L41.4026 31.8819C42.4731 31.7155 43.2072 30.7124 43.0448 29.6427L42.2496 29.765ZM41.2806 31.0867L41.1588 30.2914L33.9714 31.407L34.0932 32.2022L34.2151 32.9975L41.4025 31.8819L41.2806 31.0867ZM34.0932 32.2022L33.9714 31.407C33.7795 31.4368 33.6005 31.3054 33.5714 31.1135L32.7762 31.2358L31.981 31.3581C32.1437 32.4295 33.1442 33.1637 34.2151 32.9975L34.0932 32.2022ZM32.7762 31.2358L33.5714 31.1135L33.1659 28.4419L32.3707 28.5642L31.5755 28.6865L31.981 31.3581L32.7762 31.2358ZM32.3707 28.5642L32.2458 27.7695C32.2199 27.7736 32.199 27.7781 32.1862 27.7811C32.1796 27.7827 32.1742 27.784 32.1708 27.7849C32.1676 27.7857 32.1648 27.7864 32.1647 27.7864C32.1639 27.7866 32.1657 27.7862 32.168 27.7856C32.1705 27.785 32.1749 27.7839 32.1805 27.7826C32.1916 27.78 32.2105 27.7759 32.2345 27.7722L32.3564 28.5674L32.4783 29.3627C32.5047 29.3586 32.526 29.354 32.5394 29.3509C32.5462 29.3493 32.5519 29.3479 32.5555 29.347C32.559 29.3461 32.562 29.3453 32.5623 29.3452C32.5635 29.345 32.5618 29.3454 32.5599 29.3459C32.5576 29.3464 32.5534 29.3475 32.548 29.3487C32.5376 29.3512 32.5191 29.3552 32.4956 29.359L32.3707 28.5642ZM32.3564 28.5674L32.2345 27.7722C30.6103 28.0243 29.0867 26.9055 28.8375 25.2648L28.0424 25.3872L27.2472 25.5095C27.6288 28.023 29.9684 29.7523 32.4782 29.3627L32.3564 28.5674ZM28.0424 25.3872L28.8376 25.2649C28.5884 23.6234 29.7109 22.0928 31.3358 21.8405L31.214 21.0453L31.0921 20.25C28.5832 20.6395 26.8659 22.9969 27.2472 25.5094L28.0424 25.3872ZM31.214 21.0453L31.3358 21.8405C31.4424 21.824 31.5474 21.8132 31.6505 21.8082L31.6128 21.0044L31.575 20.2006C31.414 20.2085 31.2528 20.2251 31.0921 20.25L31.214 21.0453ZM31.6128 21.0044L32.4088 21.1182C32.6425 19.5023 33.8996 18.163 35.5806 17.902L35.4587 17.1067L35.3368 16.3115C32.9325 16.6849 31.1485 18.5977 30.8168 20.8906L31.6128 21.0044Z" fill="#460860" mask="url(#path-3-outside-1_120_3206)"/>
</g>
<path fill-rule="evenodd" clip-rule="evenodd" d="M37.9837 26.1066C37.5413 26.2154 37.3246 26.3642 37.2638 26.4505C37.1127 26.6652 36.8161 26.7167 36.6014 26.5656C36.3867 26.4144 36.3352 26.1179 36.4864 25.9032C36.7547 25.5221 37.2648 25.3043 37.7566 25.1833C38.2773 25.0552 38.898 25.0063 39.5201 25.0491C40.1419 25.0918 40.789 25.2278 41.3549 25.488C41.9205 25.748 42.4668 26.0879 42.7628 26.6681C42.4455 26.8547 42.2149 26.9542 41.8485 27.0704C41.6782 26.7364 41.3949 26.5529 40.9577 26.3519C40.5208 26.151 39.992 26.0346 39.4549 25.9976C38.9183 25.9607 38.3973 26.0048 37.9837 26.1066Z" fill="url(#paint2_linear_120_3206)"/>
<path d="M37.2273 23.7702C38.4576 21.5191 37.1613 18.8836 36.4364 17.8731C37.8507 17.8731 38.9488 18.4043 39.7836 19.3846C40.1232 19.7834 40.2559 20.3175 40.1772 20.8348C39.8737 22.8303 38.8653 24.096 37.4605 24.2023C37.2378 24.2191 37.1202 23.9661 37.2273 23.7702Z" fill="#FEF1F1"/>
<path d="M32.178 21.848C32.4561 20.0805 33.7038 19.0985 34.2284 18.7821C33.2859 19.6163 32.6684 21.2335 34.2226 24.2956C34.3741 24.5942 34.0723 24.8884 33.8103 24.6798C32.9241 23.9746 32.0385 22.9309 32.178 21.848Z" fill="#E9C7C7" style="mix-blend-mode:multiply"/>
<path d="M29.458 27.528C28.2108 26.7179 28.2353 25.0627 28.4034 24.3365C28.8845 26.7917 31.0223 27.0299 32.878 26.5982C33.8299 26.3768 34.8967 26.8924 35.0802 27.8532L35.7522 31.3707L34.078 31.7141C33.663 31.7993 33.2601 31.522 33.1909 31.1038L32.775 28.5895C32.7331 28.3361 32.4825 28.1706 32.2268 28.1926C31.5313 28.2523 30.4377 28.1644 29.458 27.528Z" fill="#E9C7C7" style="mix-blend-mode:multiply"/>
<rect x="33.5107" y="27.8584" width="1.09708" height="3.43752" rx="0.54854" transform="rotate(-10.6594 33.5107 27.8584)" fill="url(#paint3_linear_120_3206)"/>
<rect x="36.5095" y="27.3831" width="1.09708" height="3.43752" rx="0.54854" transform="rotate(-10.6594 36.5095 27.3831)" fill="url(#paint4_linear_120_3206)"/>
<rect x="39.4714" y="26.9807" width="1.09708" height="3.43752" rx="0.54854" transform="rotate(-10.6594 39.4714 26.9807)" fill="url(#paint5_linear_120_3206)"/>
<ellipse cx="30.2378" cy="22.953" rx="1.77683" ry="0.849789" transform="rotate(-38.4497 30.2378 22.953)" fill="url(#paint6_linear_120_3206)"/>
<ellipse cx="41.5556" cy="20.3347" rx="1.01763" ry="0.486694" transform="rotate(12.0185 41.5556 20.3347)" fill="url(#paint7_linear_120_3206)"/>
<path d="M51.244 27.2419V23.3644H53.9445V24.0134H52.0085V25.0089H53.8345V25.6579H52.0085V27.2419H51.244ZM55.8383 27.2969C55.6329 27.2969 55.4478 27.2584 55.2828 27.1814C55.1214 27.1044 54.9931 26.9999 54.8978 26.8679C54.8061 26.7359 54.7603 26.5874 54.7603 26.4224C54.7603 26.2208 54.8208 26.0558 54.9418 25.9274C55.0664 25.7954 55.2534 25.6983 55.5028 25.6359C55.7558 25.5736 56.0748 25.5424 56.4598 25.5424H56.8833V26.0099H56.5093C56.3406 26.0099 56.1939 26.0154 56.0693 26.0264C55.9446 26.0374 55.8401 26.0576 55.7558 26.0869C55.6751 26.1126 55.6128 26.1493 55.5688 26.1969C55.5284 26.2446 55.5083 26.3069 55.5083 26.3839C55.5083 26.5086 55.5559 26.5984 55.6513 26.6534C55.7503 26.7084 55.8768 26.7359 56.0308 26.7359C56.1628 26.7359 56.2856 26.7048 56.3993 26.6424C56.5129 26.5801 56.6046 26.4976 56.6743 26.3949C56.7439 26.2923 56.7788 26.1823 56.7788 26.0649V25.4819C56.7788 25.2986 56.7183 25.1739 56.5973 25.1079C56.4763 25.0383 56.3003 25.0034 56.0693 25.0034C55.9189 25.0034 55.7631 25.0236 55.6018 25.0639C55.4404 25.1043 55.2663 25.1739 55.0793 25.2729L54.8758 24.7394C55.0114 24.6661 55.1508 24.6074 55.2938 24.5634C55.4368 24.5158 55.5853 24.4809 55.7393 24.4589C55.8969 24.4333 56.0564 24.4204 56.2178 24.4204C56.4781 24.4204 56.7054 24.4608 56.8998 24.5414C57.0978 24.6184 57.2499 24.7413 57.3563 24.9099C57.4663 25.0786 57.5213 25.3004 57.5213 25.5754V27.2419H56.9053V26.6809H56.8668C56.8044 26.7946 56.7256 26.8991 56.6303 26.9944C56.5386 27.0861 56.4268 27.1594 56.2948 27.2144C56.1664 27.2694 56.0143 27.2969 55.8383 27.2969ZM58.7343 27.2419V24.4754H59.3998V25.0529H59.4328C59.4878 24.9319 59.5612 24.8238 59.6528 24.7284C59.7482 24.6331 59.8582 24.5579 59.9828 24.5029C60.1112 24.4479 60.2505 24.4204 60.4008 24.4204C60.6282 24.4204 60.8188 24.4773 60.9728 24.5909C61.1305 24.7009 61.2332 24.8421 61.2808 25.0144H61.3138C61.3835 24.8568 61.4972 24.7193 61.6548 24.6019C61.8162 24.4809 62.0197 24.4204 62.2653 24.4204C62.478 24.4204 62.6595 24.4644 62.8098 24.5524C62.9602 24.6368 63.0738 24.7688 63.1508 24.9484C63.2315 25.1244 63.2718 25.3499 63.2718 25.6249V27.2419H62.5183V25.6469C62.5183 25.4526 62.4835 25.3059 62.4138 25.2069C62.3478 25.1079 62.2232 25.0584 62.0398 25.0584C61.9005 25.0584 61.7795 25.0896 61.6768 25.1519C61.5778 25.2106 61.5008 25.2913 61.4458 25.3939C61.3945 25.4966 61.3688 25.6121 61.3688 25.7404V27.2419H60.6318V25.6469C60.6318 25.4563 60.5915 25.3114 60.5108 25.2124C60.4302 25.1098 60.3092 25.0584 60.1478 25.0584C60.0122 25.0584 59.8948 25.0933 59.7958 25.1629C59.6968 25.2289 59.6198 25.3133 59.5648 25.4159C59.5098 25.5186 59.4823 25.6231 59.4823 25.7294V27.2419H58.7343ZM64.4176 23.9364V23.1664H65.2976V23.9364H64.4176ZM64.4836 27.2419V24.4754H65.2481V27.2419H64.4836ZM67.409 27.2969C67.101 27.2969 66.8645 27.2144 66.6995 27.0494C66.5345 26.8844 66.452 26.6516 66.452 26.3509V23.3644H67.2165V26.2849C67.2165 26.3766 67.2293 26.4536 67.255 26.5159C67.2806 26.5783 67.3191 26.6259 67.3705 26.6589C67.4218 26.6919 67.4841 26.7084 67.5575 26.7084C67.6161 26.7084 67.6693 26.7066 67.717 26.7029C67.7683 26.6956 67.8233 26.6846 67.882 26.6699L67.9425 27.2089C67.8545 27.2419 67.7701 27.2639 67.6895 27.2749C67.6125 27.2896 67.519 27.2969 67.409 27.2969ZM68.9645 28.2319L69.5475 26.9504V27.5939L68.2385 24.4754H69.047L69.762 26.4609H69.8005L70.5045 24.4754H71.291L69.7565 28.2319H68.9645ZM74.1369 27.2419V23.3644H76.8374V24.0134H74.9014V25.0089H76.7274V25.6579H74.9014V27.2419H74.1369ZM79.248 27.2969C78.8923 27.2969 78.5916 27.2401 78.346 27.1264C78.1003 27.0091 77.9151 26.8423 77.7905 26.6259C77.6658 26.4096 77.6035 26.1529 77.6035 25.8559C77.6035 25.5846 77.6603 25.3408 77.774 25.1244C77.8913 24.9081 78.06 24.7376 78.28 24.6129C78.5 24.4846 78.764 24.4204 79.072 24.4204C79.347 24.4204 79.5871 24.4791 79.7925 24.5964C79.9978 24.7101 80.1555 24.8751 80.2655 25.0914C80.3791 25.3041 80.436 25.5626 80.436 25.8669V26.0979H78.1975V25.6194H79.8805L79.798 25.7239C79.798 25.4636 79.7338 25.2729 79.6055 25.1519C79.4808 25.0309 79.3048 24.9704 79.0775 24.9704C78.9308 24.9704 78.8006 24.9998 78.687 25.0584C78.5733 25.1171 78.4835 25.2051 78.4175 25.3224C78.3515 25.4361 78.3185 25.5809 78.3185 25.7569V25.8449C78.3185 26.0466 78.3551 26.2098 78.4285 26.3344C78.5018 26.4591 78.61 26.5508 78.753 26.6094C78.896 26.6681 79.072 26.6974 79.281 26.6974C79.424 26.6974 79.5706 26.6809 79.721 26.6479C79.875 26.6149 80.0143 26.5544 80.139 26.4664L80.3535 26.9944C80.1995 27.1044 80.0235 27.1833 79.8255 27.2309C79.6275 27.2749 79.435 27.2969 79.248 27.2969ZM82.4774 27.2969C82.272 27.2969 82.0869 27.2584 81.9219 27.1814C81.7605 27.1044 81.6322 26.9999 81.5369 26.8679C81.4452 26.7359 81.3994 26.5874 81.3994 26.4224C81.3994 26.2208 81.4599 26.0558 81.5809 25.9274C81.7055 25.7954 81.8925 25.6983 82.1419 25.6359C82.3949 25.5736 82.7139 25.5424 83.0989 25.5424H83.5224V26.0099H83.1484C82.9797 26.0099 82.833 26.0154 82.7084 26.0264C82.5837 26.0374 82.4792 26.0576 82.3949 26.0869C82.3142 26.1126 82.2519 26.1493 82.2079 26.1969C82.1675 26.2446 82.1474 26.3069 82.1474 26.3839C82.1474 26.5086 82.195 26.5984 82.2904 26.6534C82.3894 26.7084 82.5159 26.7359 82.6699 26.7359C82.8019 26.7359 82.9247 26.7048 83.0384 26.6424C83.152 26.5801 83.2437 26.4976 83.3134 26.3949C83.383 26.2923 83.4179 26.1823 83.4179 26.0649V25.4819C83.4179 25.2986 83.3574 25.1739 83.2364 25.1079C83.1154 25.0383 82.9394 25.0034 82.7084 25.0034C82.558 25.0034 82.4022 25.0236 82.2409 25.0639C82.0795 25.1043 81.9054 25.1739 81.7184 25.2729L81.5149 24.7394C81.6505 24.6661 81.7899 24.6074 81.9329 24.5634C82.0759 24.5158 82.2244 24.4809 82.3784 24.4589C82.536 24.4333 82.6955 24.4204 82.8569 24.4204C83.1172 24.4204 83.3445 24.4608 83.5389 24.5414C83.7369 24.6184 83.889 24.7413 83.9954 24.9099C84.1054 25.0786 84.1604 25.3004 84.1604 25.5754V27.2419H83.5444V26.6809H83.5059C83.4435 26.7946 83.3647 26.8991 83.2694 26.9944C83.1777 27.0861 83.0659 27.1594 82.9339 27.2144C82.8055 27.2694 82.6534 27.2969 82.4774 27.2969ZM86.4844 27.2969C86.3158 27.2969 86.1508 27.2841 85.9894 27.2584C85.8318 27.2364 85.6869 27.2034 85.5549 27.1594C85.4229 27.1154 85.3093 27.0586 85.2139 26.9889L85.4119 26.4554C85.5109 26.5178 85.6191 26.5691 85.7364 26.6094C85.8538 26.6461 85.9729 26.6736 86.0939 26.6919C86.2186 26.7066 86.3359 26.7139 86.4459 26.7139C86.6623 26.7139 86.8254 26.6938 86.9354 26.6534C87.0454 26.6131 87.1004 26.5434 87.1004 26.4444C87.1004 26.3601 87.0711 26.2996 87.0124 26.2629C86.9538 26.2263 86.8548 26.1988 86.7154 26.1804L86.0829 26.0979C85.8043 26.0613 85.5971 25.9696 85.4614 25.8229C85.3294 25.6726 85.2634 25.4966 85.2634 25.2949C85.2634 25.1263 85.3093 24.9778 85.4009 24.8494C85.4963 24.7174 85.6393 24.6129 85.8299 24.5359C86.0243 24.4589 86.2663 24.4204 86.5559 24.4204C86.6989 24.4204 86.8419 24.4314 86.9849 24.4534C87.1316 24.4754 87.2654 24.5103 87.3864 24.5579C87.5111 24.6019 87.6119 24.6569 87.6889 24.7229L87.4744 25.2454C87.3974 25.1868 87.3076 25.1409 87.2049 25.1079C87.1023 25.0713 86.9941 25.0456 86.8804 25.0309C86.7704 25.0126 86.6623 25.0034 86.5559 25.0034C86.3506 25.0034 86.1948 25.0254 86.0884 25.0694C85.9858 25.1134 85.9344 25.1831 85.9344 25.2784C85.9344 25.3591 85.9619 25.4178 86.0169 25.4544C86.0756 25.4874 86.1691 25.5131 86.2974 25.5314L86.8969 25.6249C87.2013 25.6726 87.4231 25.7643 87.5624 25.8999C87.7018 26.0319 87.7714 26.2116 87.7714 26.4389C87.7714 26.6149 87.7183 26.7671 87.6119 26.8954C87.5093 27.0238 87.3608 27.1228 87.1664 27.1924C86.9758 27.2621 86.7484 27.2969 86.4844 27.2969ZM90.0961 27.2969C89.7037 27.2969 89.4122 27.1998 89.2216 27.0054C89.0309 26.8074 88.9356 26.5269 88.9356 26.1639V25.1024H88.3911V24.4754H88.9906V23.7109H89.7001V24.4754H90.7011V25.1024H89.7001V26.1364C89.7001 26.3088 89.7441 26.4389 89.8321 26.5269C89.9201 26.6113 90.0521 26.6534 90.2281 26.6534C90.3051 26.6534 90.3802 26.6461 90.4536 26.6314C90.5306 26.6168 90.6039 26.5966 90.6736 26.5709L90.7781 27.1594C90.6791 27.2071 90.5709 27.2419 90.4536 27.2639C90.3399 27.2859 90.2207 27.2969 90.0961 27.2969Z" fill="#202224"/>
<mask id="mask0_120_3206" style="mask-type:alpha" maskUnits="userSpaceOnUse" x="14" y="14" width="16" height="23">
<path d="M14.6973 17.7286C14.6973 15.9365 16.1501 14.4836 17.9423 14.4836H22.4517C25.901 14.4836 28.6973 17.2799 28.6973 20.7293V29.7544C28.6973 33.2038 25.901 36 22.4517 36H17.9423C16.1501 36 14.6973 34.5472 14.6973 32.755V17.7286Z" fill="white" stroke="url(#paint8_linear_120_3206)" stroke-opacity="0.3" stroke-width="0.650789"/>
</mask>
<g mask="url(#mask0_120_3206)">
<rect x="14.1973" y="14.0698" width="7" height="22.3439" fill="#587ED7"/>
</g>
<defs>
<filter id="filter0_d_120_3206" x="0.845876" y="0.632253" width="107.584" height="52.6006" filterUnits="userSpaceOnUse" color-interpolation-filters="sRGB">
<feFlood flood-opacity="0" result="BackgroundImageFix"/>
<feColorMatrix in="SourceAlpha" type="matrix" values="0 0 0 0 0 0 0 0 0 0 0 0 0 0 0 0 0 0 127 0" result="hardAlpha"/>
<feOffset dx="1.69074" dy="1.69074"/>
<feGaussianBlur stdDeviation="7.60835"/>
<feColorMatrix type="matrix" values="0 0 0 0 0 0 0 0 0 0 0 0 0 0 0 0 0 0 0.05 0"/>
<feBlend mode="normal" in2="BackgroundImageFix" result="effect1_dropShadow_120_3206"/>
<feBlend mode="normal" in="SourceGraphic" in2="effect1_dropShadow_120_3206" result="shape"/>
</filter>
<filter id="filter1_dii_120_3206" x="27.1941" y="16.2471" width="18.2078" height="17.5419" filterUnits="userSpaceOnUse" color-interpolation-filters="sRGB">
<feFlood flood-opacity="0" result="BackgroundImageFix"/>
<feColorMatrix in="SourceAlpha" type="matrix" values="0 0 0 0 0 0 0 0 0 0 0 0 0 0 0 0 0 0 127 0" result="hardAlpha"/>
<feOffset dy="0.767956"/>
<feComposite in2="hardAlpha" operator="out"/>
<feColorMatrix type="matrix" values="0 0 0 0 0.176471 0 0 0 0 0.0352941 0 0 0 0 0.262745 0 0 0 1 0"/>
<feBlend mode="normal" in2="BackgroundImageFix" result="effect1_dropShadow_120_3206"/>
<feBlend mode="normal" in="SourceGraphic" in2="effect1_dropShadow_120_3206" result="shape"/>
<feColorMatrix in="SourceAlpha" type="matrix" values="0 0 0 0 0 0 0 0 0 0 0 0 0 0 0 0 0 0 127 0" result="hardAlpha"/>
<feOffset dx="0.621678" dy="1.38963"/>
<feComposite in2="hardAlpha" operator="arithmetic" k2="-1" k3="1"/>
<feColorMatrix type="matrix" values="0 0 0 0 1 0 0 0 0 1 0 0 0 0 1 0 0 0 0.4 0"/>
<feBlend mode="normal" in2="shape" result="effect2_innerShadow_120_3206"/>
<feColorMatrix in="SourceAlpha" type="matrix" values="0 0 0 0 0 0 0 0 0 0 0 0 0 0 0 0 0 0 127 0" result="hardAlpha"/>
<feOffset dx="-1.4262" dy="-0.950802"/>
<feComposite in2="hardAlpha" operator="arithmetic" k2="-1" k3="1"/>
<feColorMatrix type="matrix" values="0 0 0 0 0.425 0 0 0 0 0.141667 0 0 0 0 0.141667 0 0 0 0.25 0"/>
<feBlend mode="normal" in2="effect2_innerShadow_120_3206" result="effect3_innerShadow_120_3206"/>
</filter>
<linearGradient id="paint0_linear_120_3206" x1="32.1409" y1="6.71206" x2="70.1737" y2="49.7588" gradientUnits="userSpaceOnUse">
<stop stop-color="#F1F1F1"/>
<stop offset="1" stop-color="#E1E1E1"/>
</linearGradient>
<linearGradient id="paint1_linear_120_3206" x1="35.2353" y1="17.1412" x2="37.4816" y2="31.6786" gradientUnits="userSpaceOnUse">
<stop stop-color="#FFEBEB"/>
<stop offset="1" stop-color="#E1B1AE"/>
</linearGradient>
<linearGradient id="paint2_linear_120_3206" x1="42.1959" y1="26.8327" x2="38.2464" y2="25.5345" gradientUnits="userSpaceOnUse">
<stop stop-color="#C89492" stop-opacity="0.995"/>
<stop offset="0.427178" stop-color="#C4B9B8" stop-opacity="0.569958"/>
<stop offset="1" stop-color="#C89492" stop-opacity="0"/>
</linearGradient>
<linearGradient id="paint3_linear_120_3206" x1="34.0593" y1="27.8584" x2="34.0593" y2="31.2959" gradientUnits="userSpaceOnUse">
<stop stop-color="#E4B5B2" stop-opacity="0"/>
<stop offset="1" stop-color="#E4B5B2"/>
</linearGradient>
<linearGradient id="paint4_linear_120_3206" x1="37.0581" y1="27.3831" x2="37.0581" y2="30.8206" gradientUnits="userSpaceOnUse">
<stop stop-color="#CC9997"/>
<stop offset="1" stop-color="#EDC7C5" stop-opacity="0"/>
</linearGradient>
<linearGradient id="paint5_linear_120_3206" x1="40.02" y1="26.9807" x2="40.02" y2="30.4182" gradientUnits="userSpaceOnUse">
<stop stop-color="#CB9B9A"/>
<stop offset="1" stop-color="#CB9C9A" stop-opacity="0"/>
</linearGradient>
<linearGradient id="paint6_linear_120_3206" x1="31.5698" y1="21.8532" x2="30.6118" y2="24.505" gradientUnits="userSpaceOnUse">
<stop stop-color="white"/>
<stop offset="1" stop-color="white" stop-opacity="0"/>
</linearGradient>
<linearGradient id="paint7_linear_120_3206" x1="42.3184" y1="19.7048" x2="41.7698" y2="21.2235" gradientUnits="userSpaceOnUse">
<stop stop-color="white"/>
<stop offset="1" stop-color="white" stop-opacity="0"/>
</linearGradient>
<linearGradient id="paint8_linear_120_3206" x1="17.8896" y1="6.71206" x2="33.1131" y2="9.86534" gradientUnits="userSpaceOnUse">
<stop stop-color="#F1F1F1"/>
<stop offset="1" stop-color="#E1E1E1"/>
</linearGradient>
</defs>
</svg>
