<svg width="108" height="53" viewBox="0 0 108 53" fill="none" xmlns="http://www.w3.org/2000/svg">
<g filter="url(#filter0_d_120_3161)">
<rect x="14.0659" y="13.9917" width="76.5" height="21.5164" rx="3.245" fill="white"/>
<rect x="14.0659" y="13.9917" width="76.5" height="21.5164" rx="3.245" stroke="url(#paint0_linear_120_3161)" stroke-opacity="0.3" stroke-width="0.650789"/>
</g>
<g filter="url(#filter1_d_120_3161)">
<g filter="url(#filter2_d_120_3161)">
<path d="M40.1387 22.4278L40.1335 22.419L40.1295 22.4168C40.128 22.415 40.1268 22.4132 40.125 22.4113C39.7865 21.9335 39.4077 21.4857 38.9928 21.0729C38.341 20.4207 37.6073 19.8563 36.81 19.3942C36.3558 19.1298 35.8833 18.8983 35.3962 18.7013C35.0171 18.5476 34.6298 18.4152 34.236 18.3045L34.2336 18.3045L34.2336 18.2996C33.6587 18.1371 33.07 18.029 32.475 17.9767C32.4569 17.9712 32.4382 17.9678 32.4193 17.9666C32.3836 17.9643 32.3478 17.9696 32.3142 17.9822C32.2807 17.9948 32.2502 18.0145 32.2247 18.0399C32.2221 18.0435 32.2199 18.0474 32.218 18.0515L29.7563 20.8266L29.5432 21.0671C29.5058 21.1083 29.4782 21.1575 29.4625 21.2109C29.4463 21.2643 29.4424 21.3208 29.4509 21.376L29.524 21.8665L29.626 22.5505L29.6976 23.0312C29.2424 23.3897 28.86 23.8322 28.5709 24.3349C27.9682 25.381 27.8049 26.6242 28.1167 27.791C28.4285 28.9579 29.1899 29.9528 30.2335 30.557C31.2773 31.1608 32.5176 31.3243 33.6817 31.0116C34.8457 30.6988 35.8382 29.9354 36.4407 28.8892C36.711 28.4212 36.8958 27.9086 36.9864 27.3756L37.5524 27.1475L38.1724 26.8982L38.656 26.7034C38.7071 26.683 38.7532 26.6518 38.7912 26.6119C38.829 26.5713 38.8574 26.523 38.8746 26.4702L39.0065 26.0765L40.1636 22.6149C40.1688 22.5992 40.1718 22.5829 40.1728 22.5664C40.1778 22.5176 40.1657 22.4686 40.1387 22.4278ZM36.2443 24.0193C35.8621 23.4651 35.3617 23.0032 34.7793 22.6671C34.2232 22.3443 33.6049 22.1439 32.9656 22.0792L32.9406 21.9059L32.8913 21.2676L32.8983 21.2698L32.9208 21.2768C33.0012 21.3024 33.0801 21.3284 33.1602 21.3562C33.1991 21.3693 33.2378 21.383 33.2765 21.3968L33.3578 21.4273L33.3931 21.4401L33.5168 21.4865L33.5344 21.4932C33.6682 21.5447 33.8002 21.5985 33.9303 21.6547L34.0216 21.6944L34.0521 21.7075C34.8521 22.0633 35.609 22.5096 36.3079 23.0377C36.3761 23.0895 36.4477 23.1445 36.5183 23.201L36.5281 23.2065C36.6164 23.2767 36.7038 23.3479 36.7903 23.4201L36.8691 23.4879L36.951 23.559C36.9763 23.5819 37.0052 23.6066 37.0308 23.6307C37.0404 23.6384 37.0496 23.6466 37.0582 23.6554L36.4492 23.9366L36.2443 24.0193Z" fill="#021956"/>
<path d="M32.4404 17.636C32.4714 17.6379 32.502 17.6427 32.5322 17.6497C33.1383 17.7047 33.7385 17.8141 34.3242 17.9797L34.5654 18.0481L34.5654 18.0549C34.8883 18.1534 35.2066 18.2661 35.5195 18.3928L35.5205 18.3928C36.0223 18.5957 36.5096 18.8344 36.9775 19.1067L36.9766 19.1067C37.7984 19.5831 38.5547 20.1649 39.2266 20.8372L39.2275 20.8372C39.6383 21.2458 40.0132 21.6889 40.3516 22.1594L40.373 22.1711L40.416 22.2444L40.4199 22.2512L40.4258 22.26L40.4248 22.26C40.4847 22.3573 40.5112 22.4704 40.5029 22.5842L40.5049 22.5852C40.5023 22.6304 40.4935 22.675 40.4795 22.718L40.4785 22.72L39.3213 26.1819L39.1895 26.5725L39.1904 26.5735C39.1583 26.672 39.1048 26.7622 39.0342 26.8381L39.0322 26.8411C38.9614 26.9155 38.8747 26.9728 38.7793 27.011L38.7803 27.012L38.2969 27.2063L37.6768 27.4553L37.2773 27.6155C37.1861 28.0502 37.0377 28.4706 36.833 28.8645L36.7285 29.0549C36.0821 30.1774 35.0169 30.9966 33.7676 31.3323C32.5962 31.6469 31.3531 31.5123 30.2793 30.9602L30.0674 30.845C28.9475 30.1967 28.1305 29.1288 27.7959 27.8772C27.4614 26.6254 27.6367 25.2915 28.2832 24.1692L28.4043 23.97C28.6622 23.5673 28.9774 23.2044 29.3408 22.8938L29.2979 22.5999L29.1953 21.9153L29.1221 21.427L29.1152 21.3479C29.112 21.2699 29.1211 21.1916 29.1436 21.1165L29.1699 21.0422C29.1903 20.9939 29.2164 20.9481 29.2471 20.9055L29.2969 20.844L29.5078 20.6067L29.5078 20.6057L31.9521 17.8518C31.953 17.8506 31.9533 17.8491 31.9541 17.8479L31.9697 17.8245L31.9902 17.8049C32.0489 17.7464 32.1197 17.7004 32.1973 17.6711L32.3174 17.6399C32.3574 17.634 32.3979 17.6335 32.4385 17.636L32.4395 17.635L32.4395 17.636L32.4414 17.635L32.4404 17.636ZM36.0674 23.2737C36.1686 23.3821 36.2663 23.494 36.3574 23.6116L36.4492 23.5706C36.4128 23.5409 36.3766 23.511 36.3398 23.4817L36.332 23.4768L36.3105 23.4602C36.2434 23.4066 36.1746 23.3541 36.1074 23.303L36.0674 23.2737ZM33.2637 21.7825C33.3252 21.7921 33.3863 21.8037 33.4473 21.8157C33.4368 21.8116 33.4265 21.807 33.416 21.803L33.416 21.804L33.3984 21.7971L33.3984 21.7961L33.2764 21.7512L33.2764 21.7502L33.2607 21.7454L33.2637 21.7825Z" stroke="#460860" stroke-width="0.664519"/>
</g>
<path d="M40.1484 22.4452C40.1045 22.4321 40.071 22.4004 40.0226 22.422L39.7342 22.5554L38.0314 23.3408L37.1568 23.7446L37.06 23.6564C37.0511 23.647 37.0416 23.6383 37.0314 23.6304C37.0009 23.5999 36.9629 23.5694 36.9349 23.5434C36.807 23.4313 36.675 23.3206 36.539 23.2113L36.518 23.1994C36.4473 23.143 36.3758 23.088 36.3076 23.0361C35.5587 22.4705 34.7436 21.999 33.8803 21.6321C33.834 21.6116 33.789 21.5933 33.7418 21.575C33.6946 21.5567 33.6504 21.5372 33.6032 21.5195L33.464 21.4661C33.3629 21.4282 33.2612 21.391 33.1595 21.3568C33.0794 21.329 33.0006 21.3031 32.9202 21.2774L32.8976 21.2704L32.7713 21.2313L32.6988 20.2818L32.5542 18.4232L32.5307 18.1055C32.5255 18.0609 32.5081 18.0187 32.4805 17.9834C32.567 17.9913 32.6537 18.0002 32.7408 18.01L32.7524 18.0115C32.8377 18.0213 32.9235 18.0316 33.0088 18.0447L33.0128 18.0472C33.0874 18.0573 33.161 18.0689 33.236 18.0823C33.26 18.086 33.2835 18.0899 33.3063 18.0948C33.3568 18.1037 33.4086 18.1125 33.4586 18.1232C33.5085 18.1339 33.535 18.1375 33.5734 18.1464C33.6464 18.1607 33.7207 18.1769 33.7944 18.1946C33.943 18.2282 34.0914 18.2661 34.2396 18.3085C35.1381 18.5605 36.001 18.9256 36.8079 19.3951C37.6051 19.8572 38.3389 20.4216 38.9906 21.0738C39.407 21.488 39.7871 21.9374 40.1267 22.4168L40.1313 22.4196L40.1484 22.4452Z" fill="#3354A9"/>
<path d="M40.1482 22.4452C40.1043 22.432 40.0708 22.4003 40.0224 22.422L39.734 22.5553C39.7088 22.5221 39.6835 22.4888 39.6573 22.4571C39.3442 22.0537 39.0001 21.6756 38.6281 21.3262C37.362 20.1425 35.8416 19.2662 34.184 18.765C33.69 18.616 33.1849 18.5065 32.6736 18.4375C32.6319 18.4308 32.5902 18.4265 32.5488 18.421L32.5253 18.1033C32.5201 18.0587 32.5027 18.0165 32.4751 17.9812C32.5612 17.9891 32.648 17.998 32.7355 18.0078L32.747 18.0093C32.832 18.0194 32.9179 18.0297 33.0034 18.0429L33.0071 18.045C33.082 18.0551 33.1557 18.0667 33.2306 18.0801C33.2546 18.0838 33.2781 18.088 33.3006 18.0926C33.3515 18.1015 33.4029 18.1106 33.4529 18.1213C33.5028 18.132 33.5293 18.1353 33.5677 18.1442C33.6408 18.1585 33.7151 18.1747 33.7885 18.1924C33.9371 18.226 34.0856 18.2639 34.234 18.3063C35.1324 18.5583 35.9954 18.9235 36.8022 19.3932C37.5994 19.8547 38.3332 20.4184 38.9849 21.0701C39.4012 21.4843 39.7813 21.9336 40.1208 22.4131L40.1256 22.4159L40.1482 22.4452Z" fill="#6DA8FF"/>
<path d="M38.0319 23.3402L37.1564 23.7431C35.9008 22.5848 34.4007 21.7252 32.7678 21.2284L32.6953 20.2788C32.8768 20.3224 33.0559 20.3701 33.2325 20.422C34.8652 20.9189 36.3653 21.7781 37.6214 22.9358C37.7637 23.0681 37.9005 23.2029 38.0319 23.3402Z" fill="url(#paint1_linear_120_3161)"/>
<path d="M33.8772 21.629C33.5145 21.475 33.1437 21.3409 32.7664 21.2273L32.5228 18.0996C32.5168 18.0552 32.4993 18.013 32.4719 17.9775C33.0676 18.0298 33.6571 18.138 34.2326 18.3008L33.8772 21.629Z" fill="url(#paint2_linear_120_3161)"/>
<path d="M40.1484 22.4451C40.0132 22.5294 40.0665 22.4082 40.0227 22.4219L39.7343 22.555L38.0315 23.3407L37.1569 23.7442L37.0601 23.656C37.0511 23.6468 37.0415 23.6382 37.0314 23.6303C37.001 23.5998 36.9681 23.572 36.9349 23.5433C36.8066 23.4312 36.6747 23.3205 36.539 23.2112L36.518 23.1993C36.4474 23.1429 36.3758 23.0879 36.3076 23.036L37.0789 22.4692L38.6298 21.3307L38.9873 21.0688C39.4037 21.483 39.7837 21.9323 40.1231 22.4119L40.1277 22.4146L40.1484 22.4451Z" fill="url(#paint3_linear_120_3161)"/>
<path d="M33.3168 24.5321L30.4023 27.7605L29.6258 22.5503L29.5238 21.8663L29.4507 21.3758C29.4421 21.3205 29.4461 21.2641 29.4622 21.2106C29.478 21.1572 29.5056 21.1081 29.5429 21.0669L29.7561 20.8263L32.2178 18.0512C32.2196 18.0471 32.2219 18.0433 32.2245 18.0396C32.2499 18.0143 32.2804 17.9946 32.314 17.9819C32.3475 17.9693 32.3833 17.964 32.4191 17.9664C32.455 17.9689 32.4899 17.9793 32.5214 17.9969C32.553 18.0136 32.5807 18.0369 32.6027 18.0653C32.6294 18.0997 32.6466 18.1407 32.6523 18.184L32.8496 20.7247L32.8865 21.2009L32.941 21.9072L33.3168 24.5321Z" fill="url(#paint4_linear_120_3161)"/>
<path d="M33.3169 24.5321L30.4024 27.7605L29.6259 22.5502L29.5239 21.8662C30.4703 21.1239 31.6378 20.7214 32.8394 20.7232L32.8492 20.7232L32.886 21.1993L32.9405 21.9056L33.3169 24.5321Z" fill="url(#paint5_linear_120_3161)"/>
<path d="M40.1745 22.5649C40.1736 22.5814 40.1705 22.5977 40.1654 22.6134L39.0082 26.075L38.8764 26.4687C38.8592 26.5215 38.8307 26.5698 38.7929 26.6104C38.755 26.6503 38.7089 26.6815 38.6577 26.7019L38.1742 26.8967L37.5542 27.146L32.6284 29.13L33.996 24.9246L36.45 23.9362L37.1224 23.6258L37.5183 23.4427L39.8858 22.3509C39.9299 22.3328 39.9786 22.33 40.0244 22.343C40.071 22.357 40.1113 22.3868 40.1386 22.4272C40.1661 22.4675 40.1788 22.5162 40.1745 22.5649Z" fill="url(#paint6_linear_120_3161)"/>
<path d="M38.2283 26.1247C38.2284 26.3834 38.2101 26.6417 38.1735 26.8978L37.5535 27.1472L32.6277 29.1312L33.9953 24.9257L36.4493 23.9374L37.1217 23.627L37.5175 23.4438C37.9844 24.2597 38.2294 25.1841 38.2283 26.1247Z" fill="url(#paint7_linear_120_3161)"/>
<path d="M30.2347 30.5567C31.2785 31.1605 32.5188 31.3241 33.6829 31.0113C34.8469 30.6985 35.8394 29.9351 36.4419 28.8889C36.7403 28.3709 36.9341 27.7991 37.012 27.2061C37.09 26.6131 37.0506 26.0105 36.8962 25.4327C36.7418 24.8549 36.4754 24.3133 36.1122 23.8387C35.749 23.3642 35.296 22.966 34.7793 22.6668C33.7355 22.063 32.4952 21.8995 31.3311 22.2122C30.167 22.525 29.1746 23.2884 28.5721 24.3346C27.9695 25.3807 27.8061 26.6239 28.1179 27.7908C28.4297 28.9576 29.1911 29.9526 30.2347 30.5567Z" fill="url(#paint8_linear_120_3161)"/>
<path d="M36.8502 25.8824C36.8123 25.4979 36.721 25.1205 36.5792 24.7612C32.4753 23.9997 29.9299 25.3522 28.5151 26.6271C28.5349 26.8781 28.5773 27.1267 28.6418 27.37C28.9732 28.3205 29.6318 29.1213 30.4993 29.6287C31.3677 30.1361 32.3882 30.3164 33.3773 30.1372C34.3666 29.958 35.2596 29.4309 35.8959 28.6508C36.5324 27.8711 36.8708 26.8896 36.8502 25.8824ZM36.366 24.2952C36.4212 24.3965 36.4714 24.4991 36.5183 24.6044C36.4678 24.4978 36.4135 24.3922 36.366 24.2961L36.366 24.2952ZM28.5733 25.5503C28.5916 25.4471 28.6144 25.3445 28.6409 25.2429C28.6113 25.3432 28.5874 25.4451 28.5693 25.5481L28.5733 25.5503ZM28.6409 25.2429C28.6671 25.144 28.6966 25.0442 28.7304 24.9459C28.6933 25.0422 28.6622 25.1406 28.6372 25.2408L28.6409 25.2429Z" fill="#FFFFF4"/>
<path d="M36.5792 24.7612C32.4753 23.9996 29.9298 25.3521 28.5151 26.627C28.4372 25.6253 28.7207 24.6289 29.3138 23.8189C29.9068 23.0092 30.7699 22.4395 31.7463 22.2134C32.7226 21.9875 33.7473 22.1203 34.6342 22.5876C35.5214 23.0552 36.2116 23.8265 36.5792 24.7612Z" fill="#FFFFF4"/>
<path d="M36.3103 28.3969C35.8963 29.1169 35.2783 29.6975 34.5347 30.0649C33.791 30.4323 32.9551 30.5699 32.1333 30.4602C31.3115 30.3506 30.5407 29.9988 29.9189 29.4493C29.2969 28.8997 28.8517 28.1773 28.6399 27.3737C28.5754 27.1305 28.5331 26.8818 28.5135 26.6308C28.5099 26.5798 28.5087 26.5246 28.5038 26.4782C28.4989 26.4318 28.5023 26.3735 28.5001 26.3256C28.498 26.2777 28.5001 26.2224 28.5026 26.1708C28.505 26.1193 28.5081 26.0701 28.5099 26.0259C28.5117 25.9816 28.5172 25.9141 28.5242 25.8592C28.5312 25.8043 28.5339 25.7676 28.5403 25.7237C28.5403 25.7109 28.544 25.6977 28.5458 25.6852C28.5525 25.6416 28.5595 25.597 28.5678 25.5543C28.586 25.4508 28.6086 25.3492 28.6354 25.2466C28.6621 25.1441 28.6911 25.0479 28.7249 24.9496C28.7273 24.945 28.7297 24.9408 28.7325 24.9365C28.7492 24.8892 28.7663 24.8422 28.7852 24.7952C28.804 24.7482 28.8126 24.7241 28.8275 24.6893C28.8285 24.6868 28.8298 24.6844 28.8315 24.6822C28.84 24.6603 28.8494 24.6386 28.8595 24.6175C28.875 24.5904 28.8841 24.5605 28.8963 24.5354C28.9068 24.5183 28.9153 24.4999 28.9216 24.4808C28.9441 24.442 28.9618 24.4005 28.9825 24.3587C28.9834 24.3562 28.9848 24.3538 28.9865 24.3517L29.0656 24.2143C29.6209 23.2513 30.5349 22.5487 31.6068 22.2609C32.6787 21.973 33.8208 22.1236 34.7819 22.6796L34.8754 22.734L34.9668 22.7865C35.0319 22.824 35.0919 22.8701 35.1525 22.9134L35.2295 22.9717C35.2579 22.9901 35.2848 23.0105 35.3102 23.0328C35.3562 23.0697 35.4016 23.1085 35.4497 23.1494L35.5146 23.2068C35.5377 23.2278 35.5599 23.2489 35.5813 23.2703L35.6422 23.3298C35.6839 23.3704 35.7247 23.4125 35.764 23.4558L35.8188 23.5169C35.8398 23.5395 35.8599 23.5636 35.8797 23.588C35.9159 23.6307 35.9509 23.6741 35.9856 23.7177L35.9948 23.729C36.0277 23.7721 36.0603 23.8157 36.0919 23.86C36.1236 23.9042 36.1528 23.9454 36.1814 23.9894L36.1936 24.0077C36.2241 24.055 36.2527 24.102 36.281 24.1496C36.3093 24.1972 36.3392 24.2494 36.3651 24.3022C36.4199 24.4023 36.4704 24.5061 36.5173 24.6111C36.5399 24.6636 36.5609 24.7149 36.5834 24.7692C36.8143 25.3565 36.9101 25.9885 36.8636 26.618C36.8173 27.2473 36.6299 27.8581 36.3154 28.4048L36.3103 28.3969Z" fill="url(#paint9_linear_120_3161)"/>
<path opacity="0.75" d="M36.5792 24.7612C32.4753 23.9996 29.9298 25.3521 28.5151 26.627C28.4372 25.6253 28.7207 24.6289 29.3138 23.8189C29.9068 23.0092 30.7699 22.4395 31.7463 22.2134C32.7226 21.9875 33.7473 22.1203 34.6342 22.5876C35.5214 23.0552 36.2116 23.8265 36.5792 24.7612Z" fill="#FFF076"/>
<path d="M31.136 28.9934C31.4932 29.2002 31.8876 29.3344 32.2966 29.3883C32.7055 29.4423 33.1211 29.415 33.5196 29.308C33.918 29.2009 34.2915 29.0163 34.6188 28.7646C34.946 28.5129 35.2206 28.199 35.4269 27.8409C35.8435 27.1177 35.9564 26.2583 35.7408 25.4516C35.5252 24.645 34.9988 23.9572 34.2773 23.5396C33.556 23.1227 32.699 23.0099 31.8947 23.2261C31.0905 23.4423 30.4047 23.9697 29.9883 24.6925C29.5715 25.4154 29.4583 26.2746 29.6736 27.0812C29.8888 27.8877 30.4148 28.5756 31.136 28.9934Z" fill="url(#paint10_linear_120_3161)"/>
<path d="M35.3826 27.8527C35.0315 28.7351 33.2879 29.9307 31.4848 29.2094C29.8076 28.5379 29.275 26.3574 29.5987 25.544C30.1511 24.1588 31.9383 23.9263 33.3634 24.4964C34.7885 25.0666 35.9353 26.467 35.3826 27.8527Z" fill="url(#paint11_linear_120_3161)"/>
<path d="M33.4785 29.667C31.6532 30.1011 30.1261 28.4827 29.8578 27.5832C29.8688 27.6373 29.8417 27.5283 29.8578 27.5832C30.4973 28.8347 31.6675 29.743 33.4185 29.327C35.3019 28.878 35.8984 27.1077 35.8387 26.2772C35.8579 26.3266 35.7885 26.0794 35.804 26.1319C36.0954 27.1132 35.4447 29.2037 33.4785 29.667Z" fill="url(#paint12_linear_120_3161)"/>
<path d="M33.9333 25.0174L34.0426 25.8495C34.0546 25.9416 34.0929 26.0282 34.1529 26.0989L34.6967 26.7374C34.7443 26.7933 34.7783 26.8594 34.7963 26.9306C34.8143 27.0019 34.8158 27.0763 34.8006 27.1482C34.7856 27.2201 34.7544 27.2876 34.7092 27.3454C34.6638 27.4031 34.6058 27.4495 34.5396 27.4812L33.7841 27.8429C33.7006 27.8831 33.6304 27.9467 33.5822 28.0261L33.1437 28.7421C33.1055 28.805 33.0535 28.8583 32.9915 28.8978C32.9294 28.9371 32.8592 28.9616 32.7862 28.9695C32.7132 28.9772 32.6393 28.968 32.5703 28.9427C32.501 28.9173 32.4384 28.8761 32.3876 28.8224L31.8091 28.2135C31.7464 28.1469 31.6656 28.1002 31.5767 28.0792L30.7612 27.8817C30.6899 27.8644 30.6235 27.831 30.567 27.784C30.5105 27.7369 30.4656 27.6773 30.4357 27.6101C30.406 27.5429 30.392 27.4698 30.3949 27.3964C30.3979 27.3227 30.4178 27.2508 30.4531 27.1861L30.8535 26.448C30.8971 26.3664 30.9166 26.274 30.9098 26.1816L30.8438 25.3443C30.8381 25.271 30.8494 25.1974 30.8766 25.1292C30.9039 25.0609 30.9464 24.9998 31.0009 24.9506C31.0556 24.9016 31.1206 24.8657 31.1912 24.8456C31.2619 24.8258 31.3361 24.8224 31.4083 24.8358L32.2305 24.9884C32.3214 25.0044 32.415 24.9938 32.5 24.9579L33.2768 24.6383C33.3443 24.6108 33.4172 24.5991 33.49 24.6042C33.5627 24.6091 33.6333 24.6307 33.6964 24.6674C33.7597 24.7039 33.8137 24.7544 33.8545 24.8151C33.8958 24.8756 33.9228 24.9448 33.9333 25.0174Z" fill="url(#paint13_linear_120_3161)"/>
<path d="M34.1699 24.6068L34.2789 25.4389C34.2911 25.5308 34.3295 25.6173 34.3895 25.6879L34.9333 26.3268C34.9809 26.3826 35.015 26.4488 35.0329 26.52C35.051 26.5913 35.0523 26.6657 35.0369 26.7376C35.0219 26.8094 34.9906 26.8767 34.9455 26.9345C34.9002 26.9923 34.8422 27.0388 34.7759 27.0703L34.0204 27.4323C33.9367 27.4723 33.8664 27.536 33.8182 27.6154L33.3803 28.3306C33.3422 28.3936 33.2901 28.4468 33.2281 28.4863C33.166 28.5256 33.0958 28.5502 33.0228 28.558C32.9497 28.5657 32.8759 28.5564 32.8069 28.5308C32.7376 28.5055 32.6751 28.4644 32.6242 28.4109L32.0457 27.8004C31.9825 27.7346 31.902 27.688 31.8136 27.6658L30.9978 27.4692C30.9263 27.452 30.8598 27.4184 30.8032 27.3713C30.7468 27.3242 30.7019 27.2648 30.672 27.1976C30.6424 27.1304 30.6284 27.0573 30.6312 26.9839C30.6342 26.9103 30.6541 26.8383 30.6894 26.7736L31.0892 26.0365C31.1331 25.9549 31.1528 25.8625 31.1458 25.77L31.0797 24.9328C31.074 24.8595 31.0852 24.7858 31.1126 24.7176C31.1398 24.6493 31.1823 24.5882 31.2369 24.5391C31.2914 24.4899 31.3565 24.4539 31.4272 24.4341C31.4979 24.4142 31.5721 24.4109 31.6443 24.4243L32.4665 24.5769C32.5575 24.5929 32.6511 24.5823 32.7363 24.5464L33.5107 24.2256C33.5781 24.1976 33.651 24.1855 33.7238 24.1902C33.7971 24.195 33.8682 24.2166 33.9318 24.2534C33.9954 24.2901 34.0497 24.3411 34.0904 24.4023C34.1322 24.4635 34.1594 24.5335 34.1699 24.6068Z" fill="url(#paint14_linear_120_3161)"/>
<path opacity="0.75" d="M34.3788 25.6728C34.325 25.6054 34.2905 25.5246 34.2789 25.439L34.1699 24.6069C34.1602 24.534 34.1341 24.4643 34.0935 24.403C34.0527 24.3418 33.9984 24.2909 33.9348 24.2541C33.8713 24.2173 33.8001 24.1957 33.7269 24.1909C33.654 24.1863 33.5811 24.1984 33.5137 24.2263L32.7393 24.5471C32.6542 24.583 32.5605 24.5936 32.4695 24.5776L31.6473 24.425C31.5752 24.4116 31.5009 24.4149 31.4302 24.4348C31.3596 24.4547 31.2945 24.4906 31.2399 24.5398C31.1853 24.5889 31.1428 24.65 31.1157 24.7183C31.0883 24.7866 31.077 24.8602 31.0828 24.9335L31.1489 25.7708C31.1558 25.8632 31.1361 25.9557 31.0922 26.0372L30.6924 26.7744C30.6653 26.8248 30.6473 26.8797 30.6394 26.9364C31.4607 26.2329 32.7481 25.4887 34.3788 25.6728Z" fill="#FFF076"/>
<path d="M36.8677 26.1979C36.8285 25.8171 36.7363 25.4436 36.5936 25.0884C36.5723 25.0356 36.5513 24.9828 36.5269 24.9315C36.4814 24.8273 36.4306 24.7254 36.3747 24.6263C36.3476 24.5766 36.3189 24.5259 36.2906 24.4737C36.2623 24.4215 36.234 24.3788 36.2035 24.3333L36.1913 24.3147C36.1627 24.2713 36.1362 24.231 36.1 24.1862L36.0025 24.0562L35.9934 24.0449C35.959 24.0009 35.924 23.9579 35.8877 23.9164C35.8673 23.8929 35.8469 23.8687 35.8268 23.8458L35.7717 23.7848C35.7324 23.7424 35.6916 23.7003 35.6499 23.6594L35.589 23.5998L35.5217 23.5373L35.4566 23.4799C35.4121 23.4408 35.3652 23.4017 35.3171 23.3639C35.2891 23.3449 35.262 23.3246 35.2361 23.3028L35.16 23.2452C35.0991 23.2018 35.0382 23.1588 34.9742 23.1182L34.8829 23.0657L34.79 23.012C32.7915 21.8555 30.2497 22.5205 29.1114 24.4969L29.0335 24.6321C29.0318 24.6341 29.0305 24.6364 29.0295 24.6388C29.0062 24.6773 28.9858 24.7175 28.9686 24.7591C28.9581 24.7758 28.9498 24.7939 28.944 24.8128C28.9388 24.8326 28.9181 24.8684 28.9068 24.8949C28.8955 24.9215 28.8879 24.937 28.8794 24.959C28.8776 24.9609 28.8763 24.9632 28.8754 24.9657C28.8608 24.9999 28.8468 25.035 28.8337 25.0701C28.8206 25.1052 28.799 25.1617 28.7823 25.2099L28.775 25.2224C28.7421 25.3192 28.7125 25.4169 28.6879 25.5154C28.6632 25.614 28.6398 25.7175 28.6224 25.8207C28.6142 25.8637 28.6075 25.9074 28.6014 25.9504C28.5996 25.9626 28.5971 25.9757 28.5962 25.9879C28.5898 26.0328 28.584 26.0771 28.581 26.1219C28.5779 26.1668 28.5697 26.2312 28.5667 26.2864C28.5636 26.3417 28.5594 26.3857 28.5606 26.4299C28.5618 26.4742 28.5585 26.5322 28.5606 26.5825C28.5627 26.6329 28.5606 26.6863 28.5652 26.7351C28.5697 26.784 28.5685 26.8404 28.5758 26.8878C28.5965 27.1361 28.64 27.3821 28.7058 27.6224C28.5018 27.0566 28.4235 26.4529 28.4765 25.8536C28.5294 25.2543 28.7123 24.6737 29.0125 24.1526C30.1614 22.1576 32.7275 21.4864 34.7437 22.6533C35.3715 23.0128 35.8968 23.5277 36.2693 24.1489C36.6402 24.7695 36.8462 25.4749 36.8677 26.1979Z" fill="url(#paint15_linear_120_3161)"/>
</g>
<path d="M47.3538 26.75V22.8725H50.0543V23.5215H48.1183V24.517H49.9443V25.166H48.1183V26.75H47.3538ZM51.9481 26.805C51.7428 26.805 51.5576 26.7665 51.3926 26.6895C51.2313 26.6125 51.103 26.508 51.0076 26.376C50.916 26.244 50.8701 26.0955 50.8701 25.9305C50.8701 25.7288 50.9306 25.5638 51.0516 25.4355C51.1763 25.3035 51.3633 25.2063 51.6126 25.144C51.8656 25.0817 52.1846 25.0505 52.5696 25.0505H52.9931V25.518H52.6191C52.4505 25.518 52.3038 25.5235 52.1791 25.5345C52.0545 25.5455 51.95 25.5657 51.8656 25.595C51.785 25.6207 51.7226 25.6573 51.6786 25.705C51.6383 25.7527 51.6181 25.815 51.6181 25.892C51.6181 26.0167 51.6658 26.1065 51.7611 26.1615C51.8601 26.2165 51.9866 26.244 52.1406 26.244C52.2726 26.244 52.3955 26.2128 52.5091 26.1505C52.6228 26.0882 52.7145 26.0057 52.7841 25.903C52.8538 25.8003 52.8886 25.6903 52.8886 25.573V24.99C52.8886 24.8067 52.8281 24.682 52.7071 24.616C52.5861 24.5463 52.4101 24.5115 52.1791 24.5115C52.0288 24.5115 51.873 24.5317 51.7116 24.572C51.5503 24.6123 51.3761 24.682 51.1891 24.781L50.9856 24.2475C51.1213 24.1742 51.2606 24.1155 51.4036 24.0715C51.5466 24.0238 51.6951 23.989 51.8491 23.967C52.0068 23.9413 52.1663 23.9285 52.3276 23.9285C52.588 23.9285 52.8153 23.9688 53.0096 24.0495C53.2076 24.1265 53.3598 24.2493 53.4661 24.418C53.5761 24.5867 53.6311 24.8085 53.6311 25.0835V26.75H53.0151V26.189H52.9766C52.9143 26.3027 52.8355 26.4072 52.7401 26.5025C52.6485 26.5942 52.5366 26.6675 52.4046 26.7225C52.2763 26.7775 52.1241 26.805 51.9481 26.805ZM54.8442 26.75V23.9835H55.5097V24.561H55.5427C55.5977 24.44 55.671 24.3318 55.7627 24.2365C55.858 24.1412 55.968 24.066 56.0927 24.011C56.221 23.956 56.3604 23.9285 56.5107 23.9285C56.738 23.9285 56.9287 23.9853 57.0827 24.099C57.2404 24.209 57.343 24.3502 57.3907 24.5225H57.4237C57.4934 24.3648 57.607 24.2273 57.7647 24.11C57.926 23.989 58.1295 23.9285 58.3752 23.9285C58.5879 23.9285 58.7694 23.9725 58.9197 24.0605C59.07 24.1448 59.1837 24.2768 59.2607 24.4565C59.3414 24.6325 59.3817 24.858 59.3817 25.133V26.75H58.6282V25.155C58.6282 24.9607 58.5934 24.814 58.5237 24.715C58.4577 24.616 58.333 24.5665 58.1497 24.5665C58.0104 24.5665 57.8894 24.5977 57.7867 24.66C57.6877 24.7187 57.6107 24.7993 57.5557 24.902C57.5044 25.0047 57.4787 25.1202 57.4787 25.2485V26.75H56.7417V25.155C56.7417 24.9643 56.7014 24.8195 56.6207 24.7205C56.54 24.6178 56.419 24.5665 56.2577 24.5665C56.122 24.5665 56.0047 24.6013 55.9057 24.671C55.8067 24.737 55.7297 24.8213 55.6747 24.924C55.6197 25.0267 55.5922 25.1312 55.5922 25.2375V26.75H54.8442ZM60.5275 23.4445V22.6745H61.4075V23.4445H60.5275ZM60.5935 26.75V23.9835H61.358V26.75H60.5935ZM63.5188 26.805C63.2108 26.805 62.9743 26.7225 62.8093 26.5575C62.6443 26.3925 62.5618 26.1597 62.5618 25.859V22.8725H63.3263V25.793C63.3263 25.8847 63.3392 25.9617 63.3648 26.024C63.3905 26.0863 63.429 26.134 63.4803 26.167C63.5317 26.2 63.594 26.2165 63.6673 26.2165C63.726 26.2165 63.7792 26.2147 63.8268 26.211C63.8782 26.2037 63.9332 26.1927 63.9918 26.178L64.0523 26.717C63.9643 26.75 63.88 26.772 63.7993 26.783C63.7223 26.7977 63.6288 26.805 63.5188 26.805ZM65.0743 27.74L65.6573 26.4585V27.102L64.3483 23.9835H65.1568L65.8718 25.969H65.9103L66.6143 23.9835H67.4008L65.8663 27.74H65.0743ZM72.0123 26.8105C71.631 26.8105 71.2955 26.7317 71.0058 26.574C70.7198 26.4127 70.4961 26.1835 70.3348 25.8865C70.1771 25.5858 70.0983 25.2265 70.0983 24.8085C70.0983 24.3905 70.1771 24.033 70.3348 23.736C70.4961 23.439 70.7198 23.2117 71.0058 23.054C71.2918 22.8963 71.6273 22.8175 72.0123 22.8175C72.2836 22.8175 72.5311 22.8542 72.7548 22.9275C72.9821 22.9972 73.1728 23.1053 73.3268 23.252L73.0738 23.8405C72.9088 23.7085 72.7438 23.6168 72.5788 23.5655C72.4138 23.5105 72.2341 23.483 72.0398 23.483C71.6878 23.483 71.4055 23.5948 71.1928 23.8185C70.9838 24.0385 70.8793 24.3667 70.8793 24.803C70.8793 25.243 70.9838 25.5767 71.1928 25.804C71.4018 26.0277 71.6841 26.1395 72.0398 26.1395C72.2341 26.1395 72.4138 26.1138 72.5788 26.0625C72.7438 26.0075 72.9088 25.914 73.0738 25.782L73.3268 26.3705C73.1728 26.5172 72.9821 26.6272 72.7548 26.7005C72.5311 26.7738 72.2836 26.8105 72.0123 26.8105ZM74.4258 26.75V22.8725H75.1408V24.506H75.1793C75.2673 24.3337 75.3956 24.1943 75.5643 24.088C75.733 23.9817 75.9255 23.9285 76.1418 23.9285C76.3691 23.9285 76.5616 23.9725 76.7193 24.0605C76.877 24.1448 76.9961 24.2768 77.0768 24.4565C77.1575 24.6325 77.1978 24.858 77.1978 25.133V26.75H76.4333V25.1605C76.4333 25.0358 76.415 24.9295 76.3783 24.8415C76.3416 24.7535 76.2848 24.6857 76.2078 24.638C76.1308 24.5903 76.03 24.5665 75.9053 24.5665C75.7696 24.5665 75.6468 24.5977 75.5368 24.66C75.4305 24.7223 75.3461 24.8067 75.2838 24.913C75.2215 25.0193 75.1903 25.1367 75.1903 25.265V26.75H74.4258ZM79.3875 26.805C79.1822 26.805 78.997 26.7665 78.832 26.6895C78.6707 26.6125 78.5424 26.508 78.447 26.376C78.3554 26.244 78.3095 26.0955 78.3095 25.9305C78.3095 25.7288 78.37 25.5638 78.491 25.4355C78.6157 25.3035 78.8027 25.2063 79.052 25.144C79.305 25.0817 79.624 25.0505 80.009 25.0505H80.4325V25.518H80.0585C79.8899 25.518 79.7432 25.5235 79.6185 25.5345C79.4939 25.5455 79.3894 25.5657 79.305 25.595C79.2244 25.6207 79.162 25.6573 79.118 25.705C79.0777 25.7527 79.0575 25.815 79.0575 25.892C79.0575 26.0167 79.1052 26.1065 79.2005 26.1615C79.2995 26.2165 79.426 26.244 79.58 26.244C79.712 26.244 79.8349 26.2128 79.9485 26.1505C80.0622 26.0882 80.1539 26.0057 80.2235 25.903C80.2932 25.8003 80.328 25.6903 80.328 25.573V24.99C80.328 24.8067 80.2675 24.682 80.1465 24.616C80.0255 24.5463 79.8495 24.5115 79.6185 24.5115C79.4682 24.5115 79.3124 24.5317 79.151 24.572C78.9897 24.6123 78.8155 24.682 78.6285 24.781L78.425 24.2475C78.5607 24.1742 78.7 24.1155 78.843 24.0715C78.986 24.0238 79.1345 23.989 79.2885 23.967C79.4462 23.9413 79.6057 23.9285 79.767 23.9285C80.0274 23.9285 80.2547 23.9688 80.449 24.0495C80.647 24.1265 80.7992 24.2493 80.9055 24.418C81.0155 24.5867 81.0705 24.8085 81.0705 25.0835V26.75H80.4545V26.189H80.416C80.3537 26.3027 80.2749 26.4072 80.1795 26.5025C80.0879 26.5942 79.976 26.6675 79.844 26.7225C79.7157 26.7775 79.5635 26.805 79.3875 26.805ZM82.2836 26.75V23.9835H82.9491V24.561H82.9821C83.0371 24.44 83.1104 24.3318 83.2021 24.2365C83.2974 24.1412 83.4074 24.066 83.5321 24.011C83.6604 23.956 83.7997 23.9285 83.9501 23.9285C84.1774 23.9285 84.3681 23.9853 84.5221 24.099C84.6797 24.209 84.7824 24.3502 84.8301 24.5225H84.8631C84.9327 24.3648 85.0464 24.2273 85.2041 24.11C85.3654 23.989 85.5689 23.9285 85.8146 23.9285C86.0272 23.9285 86.2087 23.9725 86.3591 24.0605C86.5094 24.1448 86.6231 24.2768 86.7001 24.4565C86.7807 24.6325 86.8211 24.858 86.8211 25.133V26.75H86.0676V25.155C86.0676 24.9607 86.0327 24.814 85.9631 24.715C85.8971 24.616 85.7724 24.5665 85.5891 24.5665C85.4497 24.5665 85.3287 24.5977 85.2261 24.66C85.1271 24.7187 85.0501 24.7993 84.9951 24.902C84.9437 25.0047 84.9181 25.1202 84.9181 25.2485V26.75H84.1811V25.155C84.1811 24.9643 84.1407 24.8195 84.0601 24.7205C83.9794 24.6178 83.8584 24.5665 83.6971 24.5665C83.5614 24.5665 83.4441 24.6013 83.3451 24.671C83.2461 24.737 83.1691 24.8213 83.1141 24.924C83.0591 25.0267 83.0316 25.1312 83.0316 25.2375V26.75H82.2836ZM88.0329 27.74V23.978H88.6984V24.528H88.7369C88.8322 24.33 88.9642 24.1815 89.1329 24.0825C89.3052 23.9798 89.5051 23.9285 89.7324 23.9285C89.9964 23.9285 90.2237 23.9908 90.4144 24.1155C90.6051 24.2365 90.7517 24.4052 90.8544 24.6215C90.9571 24.8342 91.0084 25.0817 91.0084 25.364C91.0084 25.6353 90.9589 25.881 90.8599 26.101C90.7609 26.3173 90.6161 26.4897 90.4254 26.618C90.2384 26.7427 90.0092 26.805 89.7379 26.805C89.5216 26.805 89.3364 26.7573 89.1824 26.662C89.0321 26.563 88.9147 26.4347 88.8304 26.277H88.7974V27.74H88.0329ZM89.5234 26.211C89.7544 26.211 89.9341 26.134 90.0624 25.98C90.1907 25.826 90.2549 25.6188 90.2549 25.3585C90.2549 25.0982 90.1907 24.8947 90.0624 24.748C89.9377 24.5977 89.7581 24.5225 89.5234 24.5225C89.2887 24.5225 89.1072 24.5977 88.9789 24.748C88.8506 24.8947 88.7864 25.0982 88.7864 25.3585C88.7864 25.6188 88.8506 25.826 88.9789 25.98C89.1109 26.134 89.2924 26.211 89.5234 26.211ZM91.8572 26.75V25.9085H92.7757V26.75H91.8572Z" fill="#202224"/>
<mask id="mask0_120_3161" style="mask-type:alpha" maskUnits="userSpaceOnUse" x="13" y="13" width="16" height="23">
<path d="M14.0659 17.2367C14.0659 15.4445 15.5188 13.9917 17.3109 13.9917H21.8203C25.2697 13.9917 28.0659 16.788 28.0659 20.2373V29.2625C28.0659 32.7118 25.2697 35.5081 21.8203 35.5081H17.3109C15.5188 35.5081 14.0659 34.0553 14.0659 32.2631V17.2367Z" fill="white" stroke="url(#paint16_linear_120_3161)" stroke-opacity="0.3" stroke-width="0.650789"/>
</mask>
<g mask="url(#mask0_120_3161)">
<rect x="13.5659" y="13.5781" width="7" height="22.3439" fill="#587ED7"/>
</g>
<defs>
<filter id="filter0_d_120_3161" x="0.214528" y="0.14031" width="107.584" height="52.6006" filterUnits="userSpaceOnUse" color-interpolation-filters="sRGB">
<feFlood flood-opacity="0" result="BackgroundImageFix"/>
<feColorMatrix in="SourceAlpha" type="matrix" values="0 0 0 0 0 0 0 0 0 0 0 0 0 0 0 0 0 0 127 0" result="hardAlpha"/>
<feOffset dx="1.69074" dy="1.69074"/>
<feGaussianBlur stdDeviation="7.60835"/>
<feColorMatrix type="matrix" values="0 0 0 0 0 0 0 0 0 0 0 0 0 0 0 0 0 0 0.05 0"/>
<feBlend mode="normal" in2="BackgroundImageFix" result="effect1_dropShadow_120_3161"/>
<feBlend mode="normal" in="SourceGraphic" in2="effect1_dropShadow_120_3161" result="shape"/>
</filter>
<filter id="filter1_d_120_3161" x="26.333" y="17.0173" width="15.4651" height="16.0994" filterUnits="userSpaceOnUse" color-interpolation-filters="sRGB">
<feFlood flood-opacity="0" result="BackgroundImageFix"/>
<feColorMatrix in="SourceAlpha" type="matrix" values="0 0 0 0 0 0 0 0 0 0 0 0 0 0 0 0 0 0 127 0" result="hardAlpha"/>
<feOffset dy="0.634314"/>
<feComposite in2="hardAlpha" operator="out"/>
<feColorMatrix type="matrix" values="0 0 0 0 0.176471 0 0 0 0 0.0352941 0 0 0 0 0.262745 0 0 0 1 0"/>
<feBlend mode="normal" in2="BackgroundImageFix" result="effect1_dropShadow_120_3161"/>
<feBlend mode="normal" in="SourceGraphic" in2="effect1_dropShadow_120_3161" result="shape"/>
</filter>
<filter id="filter2_d_120_3161" x="27.2974" y="17.3015" width="13.541" height="14.9529" filterUnits="userSpaceOnUse" color-interpolation-filters="sRGB">
<feFlood flood-opacity="0" result="BackgroundImageFix"/>
<feColorMatrix in="SourceAlpha" type="matrix" values="0 0 0 0 0 0 0 0 0 0 0 0 0 0 0 0 0 0 127 0" result="hardAlpha"/>
<feOffset dy="0.422876"/>
<feComposite in2="hardAlpha" operator="out"/>
<feColorMatrix type="matrix" values="0 0 0 0 0.176471 0 0 0 0 0.0352941 0 0 0 0 0.262745 0 0 0 1 0"/>
<feBlend mode="normal" in2="BackgroundImageFix" result="effect1_dropShadow_120_3161"/>
<feBlend mode="normal" in="SourceGraphic" in2="effect1_dropShadow_120_3161" result="shape"/>
</filter>
<linearGradient id="paint0_linear_120_3161" x1="31.5096" y1="6.22011" x2="69.5424" y2="49.2669" gradientUnits="userSpaceOnUse">
<stop stop-color="#F1F1F1"/>
<stop offset="1" stop-color="#E1E1E1"/>
</linearGradient>
<linearGradient id="paint1_linear_120_3161" x1="35.5605" y1="21.4677" x2="35.1265" y2="22.2173" gradientUnits="userSpaceOnUse">
<stop stop-color="#232C7B" stop-opacity="0"/>
<stop offset="1" stop-color="#232C7B"/>
</linearGradient>
<linearGradient id="paint2_linear_120_3161" x1="33.7241" y1="19.7546" x2="32.8751" y2="19.8281" gradientUnits="userSpaceOnUse">
<stop stop-color="#232C7B" stop-opacity="0"/>
<stop offset="1" stop-color="#232C7B"/>
</linearGradient>
<linearGradient id="paint3_linear_120_3161" x1="38.0047" y1="22.266" x2="38.3412" y2="22.9759" gradientUnits="userSpaceOnUse">
<stop stop-color="#232C7B" stop-opacity="0"/>
<stop offset="1" stop-color="#232C7B"/>
</linearGradient>
<linearGradient id="paint4_linear_120_3161" x1="34.0186" y1="20.4201" x2="28.6929" y2="25.2788" gradientUnits="userSpaceOnUse">
<stop offset="0.86" stop-color="#3986E6"/>
<stop offset="1" stop-color="#6DA8FF"/>
</linearGradient>
<linearGradient id="paint5_linear_120_3161" x1="33.6083" y1="23.277" x2="30.1126" y2="24.6242" gradientUnits="userSpaceOnUse">
<stop stop-color="#232C7B" stop-opacity="0"/>
<stop offset="1" stop-color="#232C7B"/>
</linearGradient>
<linearGradient id="paint6_linear_120_3161" x1="32.0075" y1="27.197" x2="40.8074" y2="24.1946" gradientUnits="userSpaceOnUse">
<stop offset="0.83" stop-color="#3986E6"/>
<stop offset="1" stop-color="#6DA8FF"/>
</linearGradient>
<linearGradient id="paint7_linear_120_3161" x1="34.6877" y1="24.5915" x2="35.4771" y2="27.4194" gradientUnits="userSpaceOnUse">
<stop stop-color="#232C7B" stop-opacity="0"/>
<stop offset="1" stop-color="#232C7B"/>
</linearGradient>
<linearGradient id="paint8_linear_120_3161" x1="34.1979" y1="23.595" x2="30.3743" y2="30.3848" gradientUnits="userSpaceOnUse">
<stop offset="0.04" stop-color="#FF6400"/>
<stop offset="0.44" stop-color="#F52600"/>
<stop offset="0.49" stop-color="#EF2B00"/>
<stop offset="0.76" stop-color="#D64001"/>
<stop offset="0.92" stop-color="#CC4801"/>
</linearGradient>
<linearGradient id="paint9_linear_120_3161" x1="32.3373" y1="24.83" x2="33.5865" y2="30.0395" gradientUnits="userSpaceOnUse">
<stop stop-color="#FED635"/>
<stop offset="1" stop-color="#FFA800"/>
</linearGradient>
<linearGradient id="paint10_linear_120_3161" x1="32.6025" y1="26.4472" x2="34.7288" y2="22.7729" gradientUnits="userSpaceOnUse">
<stop offset="0.45" stop-color="#FF6400"/>
<stop offset="1" stop-color="#F52600"/>
</linearGradient>
<linearGradient id="paint11_linear_120_3161" x1="31.9724" y1="27.7532" x2="34.0723" y2="23.4909" gradientUnits="userSpaceOnUse">
<stop stop-color="#F59C0C"/>
<stop offset="1" stop-color="#F38700"/>
</linearGradient>
<linearGradient id="paint12_linear_120_3161" x1="30.8051" y1="27.9751" x2="35.8993" y2="27.9132" gradientUnits="userSpaceOnUse">
<stop stop-color="#FFF4B4" stop-opacity="0"/>
<stop offset="0.26" stop-color="#FFF4B4"/>
<stop offset="0.82" stop-color="#FFF4B4" stop-opacity="0.54"/>
<stop offset="1" stop-color="#FFF4B4" stop-opacity="0"/>
</linearGradient>
<linearGradient id="paint13_linear_120_3161" x1="31.7345" y1="28.1237" x2="33.6496" y2="24.7267" gradientUnits="userSpaceOnUse">
<stop offset="0.04" stop-color="#FF6400"/>
<stop offset="0.44" stop-color="#F52600"/>
<stop offset="0.49" stop-color="#EF2B00"/>
<stop offset="0.76" stop-color="#D64001"/>
<stop offset="0.92" stop-color="#CC4801"/>
</linearGradient>
<linearGradient id="paint14_linear_120_3161" x1="32.6267" y1="26.317" x2="33.2546" y2="27.7936" gradientUnits="userSpaceOnUse">
<stop stop-color="#FED635"/>
<stop offset="1" stop-color="#FFA800"/>
</linearGradient>
<linearGradient id="paint15_linear_120_3161" x1="31.1547" y1="22.3368" x2="33.1966" y2="27.6174" gradientUnits="userSpaceOnUse">
<stop stop-color="#FFF4B4" stop-opacity="0"/>
<stop offset="0.26" stop-color="#FFF4B4"/>
<stop offset="0.82" stop-color="#FFF4B4" stop-opacity="0.54"/>
<stop offset="1" stop-color="#FFF4B4" stop-opacity="0"/>
</linearGradient>
<linearGradient id="paint16_linear_120_3161" x1="17.2582" y1="6.22011" x2="32.4817" y2="9.3734" gradientUnits="userSpaceOnUse">
<stop stop-color="#F1F1F1"/>
<stop offset="1" stop-color="#E1E1E1"/>
</linearGradient>
</defs>
</svg>
