<svg width="108" height="54" viewBox="0 0 108 54" fill="none" xmlns="http://www.w3.org/2000/svg">
<g filter="url(#filter0_d_120_3170)">
<rect x="14.0659" y="14.7051" width="76.5" height="21.5164" rx="3.245" fill="white"/>
<rect x="14.0659" y="14.7051" width="76.5" height="21.5164" rx="3.245" stroke="url(#paint0_linear_120_3170)" stroke-opacity="0.3" stroke-width="0.650789"/>
</g>
<g filter="url(#filter1_d_120_3170)">
<path d="M38.2897 19.3849C38.182 19.334 37.7571 19.1325 37.6479 19.0796C37.3196 18.9228 36.9447 18.9017 36.6047 19.0208C36.5809 19.0294 36.5572 19.0387 36.534 19.0486C36.5266 19.0514 36.5194 19.055 36.512 19.0584L36.4649 19.0803L36.4406 19.0927L36.3979 19.1158L36.374 19.13L36.3316 19.1564L36.3116 19.1712L36.2656 19.2055L36.2518 19.2158C36.2315 19.2309 36.211 19.2461 36.1927 19.2637L36.1882 19.267C36.171 19.2821 36.1541 19.2977 36.137 19.3139L36.1207 19.3309C36.1086 19.3429 36.0961 19.3557 36.0855 19.3675L36.0761 19.3745L36.0589 19.3943L36.0447 19.411C36.0337 19.424 36.0234 19.4374 36.0128 19.451L36.005 19.4607C35.9925 19.4775 35.9801 19.4945 35.9682 19.5121L35.9579 19.5272L35.9329 19.5664L35.9215 19.5853L35.8993 19.6237L35.8889 19.6428C35.8813 19.6568 35.8744 19.6707 35.8674 19.685L35.8588 19.7019C35.8496 19.7219 35.8405 19.7422 35.8317 19.7627C35.7828 19.8853 35.709 19.996 35.6148 20.0878C35.5207 20.1796 35.4083 20.2506 35.2848 20.2961C35.1607 20.3402 35.0281 20.3564 34.8963 20.3437L33.051 20.1729C32.8581 20.1546 32.6641 20.1788 32.4826 20.2439V20.2439C32.4573 20.2527 32.4325 20.2628 32.4079 20.2732L32.3859 20.283C32.3689 20.2909 32.3517 20.2989 32.3351 20.3073L32.3108 20.3198C32.2949 20.328 32.2801 20.3365 32.2639 20.3459L32.2398 20.3599L32.1953 20.3887L32.179 20.4008L32.1221 20.4432L32.0944 20.4638L32.0703 20.4817C32.0611 20.4886 32.052 20.4954 32.0442 20.5046C32.0273 20.5172 32.0132 20.533 31.9983 20.5476L30.6908 21.8452C30.5977 21.9385 30.4851 22.0099 30.361 22.0544C30.2366 22.0973 30.1043 22.1138 29.9726 22.1026C29.8408 22.0915 29.7124 22.0531 29.5955 21.9898C29.431 21.9023 29.2506 21.8499 29.0657 21.8359C28.8809 21.8218 28.6957 21.8464 28.5219 21.9082V21.9082C28.1834 22.0318 27.9089 22.285 27.7579 22.6129C27.68 22.7834 27.6368 22.9682 27.6307 23.1566C27.6246 23.3449 27.6557 23.5331 27.7223 23.7103L28.5952 26.0942C28.6241 26.1723 28.6533 26.2493 28.6821 26.3267C28.6901 26.3473 28.6987 26.368 28.7067 26.3887C28.7315 26.4509 28.7569 26.5128 28.7828 26.5742C28.7889 26.5888 28.7948 26.6037 28.8012 26.6186C28.8329 26.6928 28.8652 26.7663 28.8979 26.8389C28.9046 26.8536 28.9115 26.8681 28.9184 26.8831C28.9454 26.9425 28.973 27.0013 29.0014 27.0594L29.0276 27.1137C29.0621 27.1838 29.0971 27.2534 29.1325 27.3218C29.1361 27.3266 29.1383 27.3324 29.1413 27.3376C29.1664 27.3858 29.1917 27.4337 29.2177 27.4808C29.2256 27.4955 29.2339 27.5094 29.2418 27.5241C29.2497 27.5387 29.2613 27.5589 29.271 27.5761C29.3073 27.6403 29.344 27.7039 29.3811 27.7668C29.3843 27.771 29.3876 27.7756 29.3907 27.7798C29.4261 27.8388 29.462 27.897 29.4986 27.9542C29.5099 27.9694 29.5187 27.9864 29.5292 28.0022C29.5672 28.0613 29.6057 28.12 29.6454 28.1779C29.6539 28.1894 29.6625 28.201 29.6711 28.2125C29.7046 28.261 29.7384 28.3092 29.7721 28.3557C29.7837 28.3712 29.795 28.3864 29.8063 28.4016C29.8467 28.4558 29.8866 28.5095 29.9264 28.5629C29.9369 28.577 29.9473 28.5911 29.9578 28.6051C29.9931 28.6496 30.0287 28.6939 30.0648 28.7373C30.0743 28.75 30.0837 28.7626 30.095 28.7738C30.1381 28.8253 30.1822 28.8759 30.2265 28.9255C30.2361 28.9384 30.2482 28.9495 30.2587 28.9613C30.3018 29.0088 30.345 29.0558 30.3892 29.1019L30.4007 29.1139C30.4495 29.1649 30.4973 29.2124 30.5463 29.2602C30.5568 29.2703 30.5671 29.2806 30.5774 29.2904C30.6271 29.3381 30.677 29.3854 30.7277 29.431C30.9653 29.6453 31.2189 29.8407 31.4864 30.0154C32.2904 30.5665 33.2572 31.0746 33.6313 31.1675C35.2477 31.569 36.8859 31.1247 36.9423 31.1084L36.985 31.0958L37.026 31.0785C37.0799 31.0554 38.3542 30.5026 39.3363 29.1724C39.9161 28.3907 40.2888 27.4725 40.4203 26.5023C40.5868 25.3052 40.4114 23.989 39.8991 22.5903L39.026 20.2061C38.9628 20.0279 38.8651 19.8635 38.7387 19.7226C38.6124 19.5816 38.4597 19.4668 38.2897 19.3849V19.3849Z" fill="#1F1F1F"/>
<path d="M27.4698 22.289C27.6463 21.9882 27.9079 21.7465 28.2219 21.5952L28.3833 21.5274L28.3862 21.5265L28.5599 21.4751C28.7351 21.4329 28.9166 21.418 29.0973 21.4317C29.2781 21.4455 29.4554 21.4874 29.6229 21.5555L29.7868 21.6318L29.7894 21.6336L29.8953 21.6777C29.9318 21.6886 29.9694 21.6959 30.0073 21.699C30.0823 21.7052 30.1571 21.6946 30.2271 21.6705C30.2946 21.6461 30.3564 21.6078 30.407 21.5573L30.4078 21.5567L31.7146 20.2588L31.8551 20.1335C32.0026 20.016 32.1689 19.9232 32.3475 19.8595L32.3467 19.8601C32.5843 19.7749 32.838 19.7435 33.0896 19.7672L34.9357 19.9379L34.937 19.9381L35.0454 19.9365C35.0794 19.9323 35.1128 19.9245 35.1451 19.9134L35.1459 19.9128C35.2158 19.887 35.2795 19.8475 35.3327 19.7957C35.3859 19.7438 35.4275 19.6805 35.4554 19.6106L35.4572 19.6081L35.5335 19.4441C35.6187 19.285 35.7289 19.1405 35.8595 19.0152C35.9902 18.8897 36.1393 18.785 36.3018 18.7066L36.4682 18.6374L36.4712 18.6365L36.6397 18.5865C37.0343 18.4911 37.4519 18.5351 37.8225 18.7116L37.8233 18.711L38.4659 19.0166L38.4679 19.0176L38.6267 19.1051C38.7812 19.1994 38.9217 19.316 39.0429 19.4515C39.2033 19.6309 39.3264 19.8401 39.4071 20.0667L39.4085 20.0669L40.2813 22.451C40.8109 23.8972 40.9994 25.2803 40.8223 26.5565L40.8237 26.5567C40.6831 27.5944 40.2834 28.577 39.6625 29.4141L39.6639 29.4143C38.6195 30.8288 37.2685 31.4171 37.1865 31.4522L37.1849 31.4534L37.1441 31.4704L37.1231 31.4799L37.1006 31.4857L37.0582 31.499L37.0553 31.5C36.9866 31.5197 35.4669 31.9334 33.8569 31.6323L33.5335 31.5626C33.3639 31.5205 33.1376 31.4253 32.901 31.3115C32.6566 31.194 32.3754 31.0437 32.087 30.8754C31.5861 30.5832 31.044 30.2261 30.6268 29.8806L30.4564 29.7335C29.494 28.8668 28.7425 27.6807 28.2136 26.2351L27.3408 23.8509C27.2565 23.6252 27.2166 23.3854 27.2244 23.145C27.2323 22.9031 27.2885 22.6651 27.389 22.4454L27.3892 22.444L27.4698 22.289Z" fill="#837886" stroke="#460860" stroke-width="0.813067"/>
<path d="M34.8368 21.1078L32.9914 20.9369C32.9087 20.929 32.8256 20.9393 32.7477 20.9671C32.6699 20.9949 32.5992 21.0394 32.5407 21.0977L31.2332 22.3953C30.7138 22.913 29.9281 23.0213 29.2531 22.6713C28.7523 22.4113 28.2393 22.9056 28.4403 23.4546L29.3132 25.8385L33.9277 24.1895L38.5422 22.5404L37.6693 20.1566C37.468 19.6073 36.7537 19.5518 36.5369 20.0684C36.245 20.7638 35.5715 21.1756 34.8368 21.1078Z" fill="#A72518"/>
<path d="M33.9268 24.1884L29.3124 25.8374C31.3642 31.4409 36.0779 30.0641 36.0779 30.0641C36.0779 30.0641 40.5927 28.1423 38.5409 22.5388L33.9268 24.1884Z" fill="#214BA2"/>
<path d="M33.8136 20.7854L32.8097 21.3947C32.74 21.3857 32.6695 21.3933 32.6038 21.4168C32.5381 21.4403 32.479 21.4791 32.4313 21.53L31.3526 22.6691C30.923 23.1221 30.2609 23.2039 29.6817 22.8743C29.2519 22.6298 28.828 23.0633 29.0106 23.5614L29.8024 25.7247L33.6743 24.341L37.5462 22.9572L36.7544 20.794C36.5718 20.2959 35.9657 20.2306 35.7936 20.6904C35.5615 21.311 34.4363 20.8632 33.8136 20.7854Z" fill="#FF3E29"/>
<path d="M33.6734 24.341L29.8015 25.7247C31.5233 30.4265 35.4789 29.2715 35.4789 29.2715C35.4789 29.2715 39.2668 27.6593 37.5453 22.9573L33.6734 24.341Z" fill="#0066F6"/>
<path d="M37.9504 19.2743C37.7145 19.2288 37.4718 19.2468 37.2467 19.3262C37.1155 19.3728 36.9928 19.4403 36.8832 19.5261C36.7029 19.6682 36.5622 19.8546 36.4743 20.0677L36.4727 20.069C36.4236 20.1911 36.3498 20.3014 36.2558 20.3929C36.1618 20.4843 36.0497 20.555 35.9266 20.6005C35.8025 20.6447 35.6699 20.6609 35.5381 20.6481L33.6925 20.4769C33.4999 20.4594 33.3063 20.4842 33.1253 20.5496C32.9436 20.6143 32.7787 20.7183 32.6421 20.8543L31.3346 22.1519C31.2416 22.2452 31.129 22.3166 31.0049 22.3611C30.8804 22.4041 30.7482 22.4206 30.6163 22.4095C30.4845 22.3984 30.3561 22.36 30.2391 22.2967C30.0746 22.2091 29.8942 22.1565 29.7094 22.1425C29.5245 22.1284 29.3393 22.1532 29.1655 22.2151C28.827 22.3383 28.5524 22.5914 28.4015 22.9193C28.3236 23.0898 28.2803 23.2746 28.2742 23.463C28.2681 23.6513 28.2993 23.8396 28.3659 24.0167L29.2389 26.4006C29.7508 27.7996 30.4692 28.9213 31.3718 29.7367C31.7152 30.0467 32.0924 30.3163 32.4961 30.5404C32.755 30.6446 33.0206 30.7306 33.2909 30.7978C34.9071 31.199 36.2449 30.8183 36.3008 30.802L36.3438 30.7897L36.3847 30.7724C36.4386 30.7493 37.7129 30.1965 38.6952 28.8666C39.275 28.0847 39.6476 27.1663 39.7789 26.1959C39.9456 24.999 39.7704 23.6827 39.2582 22.2839L38.3855 19.8999C38.2977 19.657 38.1476 19.4411 37.9504 19.2743V19.2743ZM39.1827 22.847C40.2086 25.6487 39.5933 27.5299 38.722 28.7099C37.8508 29.8898 36.7214 30.371 36.7214 30.371C36.7214 30.371 34.76 30.9437 32.8171 29.8466C31.7485 29.2439 30.6835 28.1334 29.9551 26.144L29.0822 23.7601C28.9461 23.3886 29.137 23.042 29.4298 22.9377C29.5054 22.9112 29.5859 22.901 29.6661 22.9078C29.7463 22.9145 29.8244 22.938 29.8954 22.9769C30.1107 23.0893 30.346 23.1568 30.5868 23.1752C30.8188 23.1926 31.0511 23.1614 31.2692 23.0837C31.497 23.002 31.7037 22.8714 31.8751 22.7008L33.1826 21.4032C33.2411 21.3448 33.3118 21.3001 33.3897 21.2722C33.4675 21.2445 33.5505 21.2342 33.6331 21.2421L35.4787 21.4128C35.7207 21.4359 35.9642 21.4058 36.1919 21.3244C36.4216 21.2421 36.63 21.1101 36.8024 20.9377C36.963 20.7762 37.0908 20.5848 37.1788 20.3739C37.2109 20.2962 37.2585 20.2261 37.3188 20.1679C37.374 20.1155 37.4395 20.0753 37.5112 20.0496C37.5419 20.0386 37.5736 20.0304 37.6058 20.025C37.6392 20.0194 37.6731 20.0167 37.7071 20.0169C37.9519 20.0177 38.2046 20.1708 38.3109 20.4618L39.1827 22.847Z" fill="#A49CA6"/>
<path d="M37.9503 19.2745C37.8583 19.1966 37.7567 19.1311 37.648 19.0796C37.3196 18.9229 36.9446 18.9018 36.6045 19.0211C36.4308 19.0834 36.2725 19.1815 36.1395 19.3092C36.0066 19.4368 35.9019 19.5912 35.8321 19.7625C35.7832 19.8851 35.7093 19.9958 35.6152 20.0876C35.5211 20.1794 35.4087 20.2504 35.2852 20.2959C35.161 20.3401 35.0283 20.3564 34.8964 20.3437L33.0509 20.1726C32.858 20.1543 32.6641 20.1787 32.4827 20.2439C32.301 20.3085 32.1362 20.4124 31.9997 20.5483L30.6922 21.8459C30.5992 21.9392 30.4866 22.0107 30.3625 22.0552C30.238 22.0981 30.1058 22.1146 29.974 22.1035C29.8422 22.0924 29.7137 22.054 29.5967 21.9908C29.4322 21.9032 29.2517 21.8508 29.0669 21.8367C28.882 21.8226 28.6968 21.8472 28.5229 21.9089C28.1844 22.0324 27.9099 22.2856 27.7589 22.6135C27.681 22.7841 27.6378 22.9689 27.6317 23.1572C27.6256 23.3456 27.6567 23.5338 27.7233 23.711L28.5962 26.0949C29.1085 27.4936 29.8265 28.6156 30.7294 29.4308C31.2493 29.9024 31.8475 30.2782 32.4961 30.5406C32.7549 30.6448 33.0205 30.7308 33.2908 30.798C34.907 31.1992 36.2448 30.8185 36.3008 30.8022L36.3437 30.7899L36.3847 30.7725C36.4386 30.7494 37.7129 30.1967 38.6952 28.8668C39.2749 28.0848 39.6476 27.1664 39.7788 26.196C39.9455 24.9992 39.7704 23.6829 39.2581 22.2841L38.3855 19.9C38.2977 19.6572 38.1475 19.4413 37.9503 19.2745V19.2745ZM29.3132 25.8386L28.4402 23.4547C28.3041 23.0833 28.4948 22.7369 28.7878 22.6323C28.8634 22.6058 28.9439 22.5956 29.024 22.6024C29.1042 22.6092 29.1823 22.6328 29.2532 22.6717C29.4686 22.7844 29.7041 22.852 29.9453 22.8704C30.1772 22.8878 30.4096 22.8566 30.6276 22.7789C30.8555 22.6972 31.0622 22.5665 31.2333 22.3957L32.541 21.0984C32.5995 21.0401 32.6701 20.9954 32.7478 20.9676C32.8257 20.9398 32.9089 20.9295 32.9916 20.9373L34.8369 21.1081C35.079 21.1311 35.3225 21.1009 35.5504 21.0196C35.7722 20.9389 35.9744 20.8128 36.1443 20.6492C36.3142 20.4856 36.448 20.288 36.5375 20.0689C36.5695 19.9912 36.617 19.9212 36.6772 19.8631C36.7323 19.8107 36.7977 19.7705 36.8694 19.7449C37.0046 19.6996 37.1519 19.7028 37.2863 19.7541C37.4206 19.8054 37.5338 19.9016 37.6066 20.0263C37.6323 20.0678 37.6535 20.1119 37.67 20.1578L38.543 22.5417C39.5689 25.3434 38.9532 27.2249 38.0823 28.4046C37.2113 29.5843 36.0814 30.0659 36.0814 30.0659C36.0814 30.0659 34.5298 30.5188 32.8193 29.8469C31.5464 29.3477 30.1877 28.2274 29.3132 25.8386V25.8386Z" fill="white"/>
<path d="M37.9503 19.2743C37.8583 19.1965 37.7566 19.131 37.648 19.0795C37.3196 18.9227 36.9445 18.9017 36.6044 19.0209C36.4016 19.093 36.2203 19.2143 36.0764 19.3742C35.974 19.4889 35.8914 19.62 35.832 19.7624C35.7831 19.885 35.7093 19.9957 35.6151 20.0875C35.521 20.1793 35.4087 20.2502 35.2852 20.2958C35.161 20.34 35.0283 20.3563 34.8964 20.3436L33.0508 20.1725C32.858 20.1542 32.664 20.1785 32.4826 20.2437C32.3747 20.2821 32.2723 20.3345 32.1782 20.3996C32.1145 20.4439 32.0548 20.4936 31.9997 20.5482L30.6922 21.8458C30.5991 21.9391 30.4866 22.0105 30.3624 22.055C30.238 22.098 30.1057 22.1144 29.9739 22.1033C29.8421 22.0922 29.7137 22.0539 29.5967 21.9906C29.4321 21.9031 29.2517 21.8506 29.0668 21.8365C28.882 21.8224 28.6967 21.847 28.5228 21.9087C28.1844 22.0323 27.9099 22.2855 27.7588 22.6134C27.681 22.7839 27.6377 22.9687 27.6316 23.1571C27.6255 23.3454 27.6566 23.5337 27.7232 23.7109L28.5962 26.0947C28.769 26.5714 28.9775 27.0346 29.2198 27.4805C29.642 28.2525 30.1471 28.9054 30.7293 29.4306C31.2492 29.9023 31.8475 30.2781 32.496 30.5405C32.6416 30.599 32.7897 30.6519 32.9403 30.6991C33.0558 30.7355 33.1727 30.7683 33.2911 30.7976C34.9073 31.1989 36.2451 30.8182 36.301 30.8019L36.344 30.7895L36.3849 30.7722C36.4388 30.7491 37.7131 30.1963 38.6954 28.8664C39.2752 28.0845 39.6478 27.1661 39.779 26.1957C39.9458 24.9989 39.7706 23.6825 39.2584 22.2837L38.3857 19.8997C38.2978 19.6569 38.1476 19.4411 37.9503 19.2743V19.2743ZM38.5421 22.5404C39.568 25.3421 38.9524 27.2236 38.0814 28.4033C37.2105 29.583 36.0805 30.0646 36.0805 30.0646C36.0805 30.0646 35.2035 30.3207 34.0418 30.1618C33.6237 30.1055 33.2132 29.9992 32.819 29.8452C31.8233 29.4539 30.7731 28.681 29.9445 27.2149C29.6971 26.7735 29.4866 26.3126 29.3151 25.837L28.4421 23.4531C28.306 23.0817 28.4967 22.7353 28.7897 22.6307C28.8653 22.6042 28.9458 22.594 29.0259 22.6008C29.1061 22.6076 29.1842 22.6312 29.2551 22.6701C29.4698 22.783 29.7047 22.8511 29.9452 22.8703C30.1772 22.8877 30.4096 22.8565 30.6276 22.7787C30.8554 22.6971 31.0621 22.5663 31.2333 22.3955L32.541 21.0982C32.5667 21.0724 32.595 21.0493 32.6254 21.0293C32.6634 21.0036 32.7045 20.9828 32.7478 20.9674C32.8257 20.9397 32.9088 20.9294 32.9915 20.9372L34.8369 21.108C35.079 21.1309 35.3224 21.1007 35.5503 21.0195C35.9614 20.8703 36.2976 20.5676 36.4895 20.1739C36.507 20.1395 36.524 20.1045 36.5375 20.0687C36.5694 19.9911 36.617 19.921 36.6772 19.8629C36.7323 19.8106 36.7977 19.7704 36.8693 19.7448C37.0045 19.6994 37.1518 19.7026 37.2862 19.7539C37.4206 19.8052 37.5338 19.9014 37.6065 20.0262C37.6322 20.0677 37.6535 20.1118 37.67 20.1577L38.5421 22.5404Z" fill="#E3DFD4"/>
<path d="M38.9631 23.1731L29.6225 26.511L29.3816 25.8536L38.7468 22.507L38.9631 23.1731Z" fill="#A49CA6"/>
<path d="M29.0715 25.5559L29.3123 26.2134L38.6624 22.8726L38.4217 22.2151L29.0715 25.5559Z" fill="#E3DFD4"/>
<g style="mix-blend-mode:overlay" opacity="0.25">
<path d="M33.5733 24.9099C32.9514 27.3344 29.4487 27.4033 29.2198 27.4806C28.9775 27.0347 28.769 26.5715 28.5962 26.0948L27.7232 23.711C27.6567 23.5338 27.6255 23.3456 27.6316 23.1572C27.6377 22.9688 27.681 22.784 27.7588 22.6135C27.9099 22.2856 28.1844 22.0324 28.5229 21.9088C28.6967 21.8471 28.882 21.8225 29.0668 21.8366C29.2517 21.8507 29.4321 21.9032 29.5967 21.9907C29.7139 22.054 29.8426 22.0923 29.9746 22.1033C30.1066 22.1142 30.239 22.0975 30.3635 22.0543C30.4877 22.0098 30.6003 21.9384 30.6933 21.8451L32.0008 20.5475C32.056 20.4929 32.1157 20.4432 32.1793 20.3989C32.3357 20.5945 34.2936 22.1046 33.5733 24.9099Z" fill="#E5E5E5"/>
</g>
<path d="M37.7069 20.017C37.673 20.0167 37.6391 20.0194 37.6057 20.0251C37.5735 20.0305 37.5418 20.0387 37.5111 20.0496C37.4394 20.0753 37.3739 20.1156 37.3187 20.1679C37.2584 20.2262 37.2108 20.2963 37.1787 20.374C37.0906 20.5849 36.9628 20.7763 36.8022 20.9378L36.4891 20.1734L36.4732 20.0699L36.4749 20.0686C36.5627 19.8555 36.7034 19.6691 36.8837 19.527L37.5273 19.5958L37.6233 19.8577L37.7069 20.017Z" fill="#958D96"/>
<path d="M37.4053 22.5781L37.646 23.2356L38.7101 22.8554L38.4694 22.1979L37.4053 22.5781Z" fill="#D1C0C1"/>
<path d="M37.6458 23.2319L37.7539 23.6051L38.9557 23.1835L38.79 22.8232L37.6458 23.2319Z" fill="#958D96"/>
<path d="M38.3862 19.9002L39.2589 22.2843C39.7711 23.683 39.9452 25.0002 39.7796 26.1962C39.6483 27.1666 39.2757 28.085 38.696 28.8669C37.7137 30.1968 36.4393 30.7496 36.3854 30.7727L36.3445 30.7901L36.3015 30.8024C36.2456 30.8187 34.9078 31.1994 33.2916 30.7981C33.1737 30.7694 33.0568 30.7365 32.9408 30.6996C33.3245 30.5206 33.6912 30.3429 34.0399 30.1632C35.2023 30.3217 36.0786 30.066 36.0786 30.066L36.0814 30.064L36.0912 30.0597C36.2184 30.0026 37.2615 29.5114 38.0796 28.4047C38.8735 27.3299 39.4552 25.673 38.7797 23.2685C38.7131 23.0325 38.6343 22.7896 38.543 22.5397L37.6701 20.1559C37.6536 20.11 37.6323 20.0659 37.6067 20.0244C37.5339 19.8996 37.4207 19.8034 37.2863 19.7521C37.1519 19.7009 37.0046 19.6976 36.8694 19.743C36.7978 19.7686 36.7324 19.8088 36.6773 19.8611C36.6171 19.9192 36.5695 19.9893 36.5376 20.067C36.5218 20.1036 36.5065 20.1381 36.4896 20.1721C36.3658 19.899 36.2281 19.6322 36.077 19.373C36.2208 19.2131 36.4021 19.0917 36.605 19.0197C36.945 18.9005 37.3201 18.9215 37.6485 19.0782C37.7572 19.1298 37.8588 19.1953 37.9508 19.2731C38.1483 19.4403 38.2986 19.6568 38.3862 19.9002V19.9002Z" fill="#D1C0C1"/>
<path style="mix-blend-mode:overlay" d="M36.0921 30.0599C36.2193 30.0027 37.2625 29.5115 38.0805 28.4048C38.8745 27.3301 39.4561 25.6732 38.7806 23.2686C38.7788 23.2691 41.3928 27.814 36.0921 30.0599Z" fill="url(#paint1_linear_120_3170)"/>
<path style="mix-blend-mode:overlay" d="M29.1873 25.5044L38.4223 22.2123C38.4223 22.2123 37.3716 23.0203 33.6741 24.3414C29.9767 25.6626 29.1873 25.5044 29.1873 25.5044Z" fill="url(#paint2_linear_120_3170)"/>
</g>
<path d="M47.7572 27.4634V23.5859H50.4577V24.2349H48.5217V25.2304H50.3477V25.8794H48.5217V27.4634H47.7572ZM52.3515 27.5184C52.1461 27.5184 51.961 27.4799 51.796 27.4029C51.6346 27.3259 51.5063 27.2214 51.411 27.0894C51.3193 26.9574 51.2735 26.8089 51.2735 26.6439C51.2735 26.4422 51.334 26.2772 51.455 26.1489C51.5796 26.0169 51.7666 25.9197 52.016 25.8574C52.269 25.795 52.588 25.7639 52.973 25.7639H53.3965V26.2314H53.0225C52.8538 26.2314 52.7071 26.2369 52.5825 26.2479C52.4578 26.2589 52.3533 26.279 52.269 26.3084C52.1883 26.334 52.126 26.3707 52.082 26.4184C52.0416 26.466 52.0215 26.5284 52.0215 26.6054C52.0215 26.73 52.0691 26.8199 52.1645 26.8749C52.2635 26.9299 52.39 26.9574 52.544 26.9574C52.676 26.9574 52.7988 26.9262 52.9125 26.8639C53.0261 26.8015 53.1178 26.719 53.1875 26.6164C53.2571 26.5137 53.292 26.4037 53.292 26.2864V25.7034C53.292 25.52 53.2315 25.3954 53.1105 25.3294C52.9895 25.2597 52.8135 25.2249 52.5825 25.2249C52.4321 25.2249 52.2763 25.245 52.115 25.2854C51.9536 25.3257 51.7795 25.3954 51.5925 25.4944L51.389 24.9609C51.5246 24.8875 51.664 24.8289 51.807 24.7849C51.95 24.7372 52.0985 24.7024 52.2525 24.6804C52.4101 24.6547 52.5696 24.6419 52.731 24.6419C52.9913 24.6419 53.2186 24.6822 53.413 24.7629C53.611 24.8399 53.7631 24.9627 53.8695 25.1314C53.9795 25.3 54.0345 25.5219 54.0345 25.7969V27.4634H53.4185V26.9024H53.38C53.3176 27.016 53.2388 27.1205 53.1435 27.2159C53.0518 27.3075 52.94 27.3809 52.808 27.4359C52.6796 27.4909 52.5275 27.5184 52.3515 27.5184ZM55.2475 27.4634V24.6969H55.913V25.2744H55.946C56.001 25.1534 56.0744 25.0452 56.166 24.9499C56.2614 24.8545 56.3714 24.7794 56.496 24.7244C56.6244 24.6694 56.7637 24.6419 56.914 24.6419C57.1414 24.6419 57.332 24.6987 57.486 24.8124C57.6437 24.9224 57.7464 25.0635 57.794 25.2359H57.827C57.8967 25.0782 58.0104 24.9407 58.168 24.8234C58.3294 24.7024 58.5329 24.6419 58.7785 24.6419C58.9912 24.6419 59.1727 24.6859 59.323 24.7739C59.4734 24.8582 59.587 24.9902 59.664 25.1699C59.7447 25.3459 59.785 25.5714 59.785 25.8464V27.4634H59.0315V25.8684C59.0315 25.674 58.9967 25.5274 58.927 25.4284C58.861 25.3294 58.7364 25.2799 58.553 25.2799C58.4137 25.2799 58.2927 25.311 58.19 25.3734C58.091 25.432 58.014 25.5127 57.959 25.6154C57.9077 25.718 57.882 25.8335 57.882 25.9619V27.4634H57.145V25.8684C57.145 25.6777 57.1047 25.5329 57.024 25.4339C56.9434 25.3312 56.8224 25.2799 56.661 25.2799C56.5254 25.2799 56.408 25.3147 56.309 25.3844C56.21 25.4504 56.133 25.5347 56.078 25.6374C56.023 25.74 55.9955 25.8445 55.9955 25.9509V27.4634H55.2475ZM60.9308 24.1579V23.3879H61.8108V24.1579H60.9308ZM60.9968 27.4634V24.6969H61.7613V27.4634H60.9968ZM63.9221 27.5184C63.6141 27.5184 63.3776 27.4359 63.2126 27.2709C63.0476 27.1059 62.9651 26.873 62.9651 26.5724V23.5859H63.7296V26.5064C63.7296 26.598 63.7425 26.675 63.7681 26.7374C63.7938 26.7997 63.8323 26.8474 63.8836 26.8804C63.935 26.9134 63.9973 26.9299 64.0706 26.9299C64.1293 26.9299 64.1825 26.928 64.2301 26.9244C64.2815 26.917 64.3365 26.906 64.3951 26.8914L64.4556 27.4304C64.3676 27.4634 64.2833 27.4854 64.2026 27.4964C64.1256 27.511 64.0321 27.5184 63.9221 27.5184ZM65.4777 28.4534L66.0607 27.1719V27.8154L64.7517 24.6969H65.5602L66.2752 26.6824H66.3137L67.0177 24.6969H67.8042L66.2697 28.4534H65.4777ZM70.6501 27.4634V23.5859H72.4101C72.8574 23.5859 73.2003 23.6849 73.4386 23.8829C73.6769 24.0809 73.7961 24.3669 73.7961 24.7409C73.7961 24.9352 73.7576 25.102 73.6806 25.2414C73.6073 25.3807 73.5083 25.4962 73.3836 25.5879C73.2589 25.6759 73.1196 25.74 72.9656 25.7804V25.8134L72.9986 25.8299C73.0609 25.8555 73.1196 25.8977 73.1746 25.9564C73.2333 26.0114 73.2938 26.0975 73.3561 26.2149L74.0161 27.4634H73.1801L72.5696 26.3029C72.5256 26.2185 72.4761 26.1544 72.4211 26.1104C72.3698 26.0627 72.3093 26.0297 72.2396 26.0114C72.1699 25.993 72.0856 25.9839 71.9866 25.9839H71.4146V27.4634H70.6501ZM71.4146 25.3679H72.3496C72.5879 25.3679 72.7621 25.3202 72.8721 25.2249C72.9821 25.1259 73.0371 24.9792 73.0371 24.7849C73.0371 24.5905 72.9803 24.4475 72.8666 24.3559C72.7529 24.2642 72.5733 24.2184 72.3276 24.2184H71.4146V25.3679ZM76.2513 27.5184C75.9506 27.5184 75.6885 27.4579 75.4648 27.3369C75.2448 27.2159 75.0743 27.0472 74.9533 26.8309C74.836 26.6145 74.7773 26.3634 74.7773 26.0774C74.7773 25.7877 74.836 25.5365 74.9533 25.3239C75.0743 25.1075 75.2448 24.9407 75.4648 24.8234C75.6885 24.7024 75.9506 24.6419 76.2513 24.6419C76.5556 24.6419 76.816 24.7024 77.0323 24.8234C77.2523 24.9407 77.421 25.1075 77.5383 25.3239C77.6593 25.5365 77.7198 25.7877 77.7198 26.0774C77.7198 26.3634 77.6593 26.6145 77.5383 26.8309C77.421 27.0472 77.2523 27.2159 77.0323 27.3369C76.816 27.4579 76.5556 27.5184 76.2513 27.5184ZM76.2513 26.8804C76.4823 26.8804 76.662 26.807 76.7903 26.6604C76.9186 26.5137 76.9828 26.3175 76.9828 26.0719C76.9828 25.8262 76.9186 25.6337 76.7903 25.4944C76.6656 25.3514 76.486 25.2799 76.2513 25.2799C76.0166 25.2799 75.8351 25.3514 75.7068 25.4944C75.5785 25.6337 75.5143 25.8262 75.5143 26.0719C75.5143 26.3175 75.5785 26.5137 75.7068 26.6604C75.8388 26.807 76.0203 26.8804 76.2513 26.8804ZM79.7694 27.5184C79.564 27.5184 79.3789 27.4799 79.2139 27.4029C79.0525 27.3259 78.9242 27.2214 78.8289 27.0894C78.7372 26.9574 78.6914 26.8089 78.6914 26.6439C78.6914 26.4422 78.7519 26.2772 78.8729 26.1489C78.9975 26.0169 79.1845 25.9197 79.4339 25.8574C79.6869 25.795 80.0059 25.7639 80.3909 25.7639H80.8144V26.2314H80.4404C80.2717 26.2314 80.125 26.2369 80.0004 26.2479C79.8757 26.2589 79.7712 26.279 79.6869 26.3084C79.6062 26.334 79.5439 26.3707 79.4999 26.4184C79.4595 26.466 79.4394 26.5284 79.4394 26.6054C79.4394 26.73 79.487 26.8199 79.5824 26.8749C79.6814 26.9299 79.8079 26.9574 79.9619 26.9574C80.0939 26.9574 80.2167 26.9262 80.3304 26.8639C80.444 26.8015 80.5357 26.719 80.6054 26.6164C80.675 26.5137 80.7099 26.4037 80.7099 26.2864V25.7034C80.7099 25.52 80.6494 25.3954 80.5284 25.3294C80.4074 25.2597 80.2314 25.2249 80.0004 25.2249C79.85 25.2249 79.6942 25.245 79.5329 25.2854C79.3715 25.3257 79.1974 25.3954 79.0104 25.4944L78.8069 24.9609C78.9425 24.8875 79.0819 24.8289 79.2249 24.7849C79.3679 24.7372 79.5164 24.7024 79.6704 24.6804C79.828 24.6547 79.9875 24.6419 80.1489 24.6419C80.4092 24.6419 80.6365 24.6822 80.8309 24.7629C81.0289 24.8399 81.181 24.9627 81.2874 25.1314C81.3974 25.3 81.4524 25.5219 81.4524 25.7969V27.4634H80.8364V26.9024H80.7979C80.7355 27.016 80.6567 27.1205 80.5614 27.2159C80.4697 27.3075 80.3579 27.3809 80.2259 27.4359C80.0975 27.4909 79.9454 27.5184 79.7694 27.5184ZM83.7929 27.5184C83.5253 27.5184 83.2943 27.4579 83.0999 27.3369C82.9093 27.2122 82.7626 27.0417 82.6599 26.8254C82.5573 26.6054 82.5059 26.356 82.5059 26.0774C82.5059 25.8024 82.5554 25.5567 82.6544 25.3404C82.7571 25.124 82.9038 24.9535 83.0944 24.8289C83.2851 24.7042 83.5106 24.6419 83.7709 24.6419C83.9946 24.6419 84.1816 24.6895 84.3319 24.7849C84.4859 24.8802 84.6033 25.0085 84.6839 25.1699H84.7169V23.5859H85.4814V27.4634H84.8159V26.9134H84.7774C84.6821 27.115 84.5501 27.2672 84.3814 27.3699C84.2164 27.4689 84.0203 27.5184 83.7929 27.5184ZM83.9964 26.9244C84.2311 26.9244 84.4108 26.8492 84.5354 26.6989C84.6638 26.5449 84.7279 26.3377 84.7279 26.0774C84.7279 25.817 84.6638 25.6117 84.5354 25.4614C84.4108 25.311 84.2311 25.2359 83.9964 25.2359C83.7654 25.2359 83.5839 25.311 83.4519 25.4614C83.3236 25.6117 83.2594 25.817 83.2594 26.0774C83.2594 26.3377 83.3236 26.5449 83.4519 26.6989C83.5839 26.8492 83.7654 26.9244 83.9964 26.9244ZM89.9902 27.5184C89.5978 27.5184 89.3063 27.4212 89.1157 27.2269C88.925 27.0289 88.8297 26.7484 88.8297 26.3854V25.3239H88.2852V24.6969H88.8847V23.9324H89.5942V24.6969H90.5952V25.3239H89.5942V26.3579C89.5942 26.5302 89.6382 26.6604 89.7262 26.7484C89.8142 26.8327 89.9462 26.8749 90.1222 26.8749C90.1992 26.8749 90.2743 26.8675 90.3477 26.8529C90.4247 26.8382 90.498 26.818 90.5677 26.7924L90.6722 27.3809C90.5732 27.4285 90.465 27.4634 90.3477 27.4854C90.234 27.5074 90.1148 27.5184 89.9902 27.5184ZM91.5379 27.4634V26.6219H92.4564V27.4634H91.5379Z" fill="#202224"/>
<mask id="mask0_120_3170" style="mask-type:alpha" maskUnits="userSpaceOnUse" x="13" y="14" width="16" height="23">
<path d="M14.0659 17.9501C14.0659 16.1579 15.5188 14.7051 17.3109 14.7051H21.8203C25.2697 14.7051 28.0659 17.5013 28.0659 20.9507V29.9759C28.0659 33.4252 25.2697 36.2215 21.8203 36.2215H17.3109C15.5188 36.2215 14.0659 34.7686 14.0659 32.9765V17.9501Z" fill="white" stroke="url(#paint3_linear_120_3170)" stroke-opacity="0.3" stroke-width="0.650789"/>
</mask>
<g mask="url(#mask0_120_3170)">
<rect x="13.5659" y="14.291" width="7" height="22.3439" fill="#587ED7"/>
</g>
<defs>
<filter id="filter0_d_120_3170" x="0.214528" y="0.853688" width="107.584" height="52.6006" filterUnits="userSpaceOnUse" color-interpolation-filters="sRGB">
<feFlood flood-opacity="0" result="BackgroundImageFix"/>
<feColorMatrix in="SourceAlpha" type="matrix" values="0 0 0 0 0 0 0 0 0 0 0 0 0 0 0 0 0 0 127 0" result="hardAlpha"/>
<feOffset dx="1.69074" dy="1.69074"/>
<feGaussianBlur stdDeviation="7.60835"/>
<feColorMatrix type="matrix" values="0 0 0 0 0 0 0 0 0 0 0 0 0 0 0 0 0 0 0.05 0"/>
<feBlend mode="normal" in2="BackgroundImageFix" result="effect1_dropShadow_120_3170"/>
<feBlend mode="normal" in="SourceGraphic" in2="effect1_dropShadow_120_3170" result="shape"/>
</filter>
<filter id="filter1_d_120_3170" x="26.2017" y="17.4634" width="16" height="16.5847" filterUnits="userSpaceOnUse" color-interpolation-filters="sRGB">
<feFlood flood-opacity="0" result="BackgroundImageFix"/>
<feColorMatrix in="SourceAlpha" type="matrix" values="0 0 0 0 0 0 0 0 0 0 0 0 0 0 0 0 0 0 127 0" result="hardAlpha"/>
<feOffset dy="0.584691"/>
<feComposite in2="hardAlpha" operator="out"/>
<feColorMatrix type="matrix" values="0 0 0 0 0.176466 0 0 0 0 0.0360937 0 0 0 0 0.2625 0 0 0 1 0"/>
<feBlend mode="normal" in2="BackgroundImageFix" result="effect1_dropShadow_120_3170"/>
<feBlend mode="normal" in="SourceGraphic" in2="effect1_dropShadow_120_3170" result="shape"/>
</filter>
<linearGradient id="paint0_linear_120_3170" x1="31.5096" y1="6.93349" x2="69.5424" y2="49.9803" gradientUnits="userSpaceOnUse">
<stop stop-color="#F1F1F1"/>
<stop offset="1" stop-color="#E1E1E1"/>
</linearGradient>
<linearGradient id="paint1_linear_120_3170" x1="37.5961" y1="28.7421" x2="39.2472" y2="24.1036" gradientUnits="userSpaceOnUse">
<stop stop-color="white" stop-opacity="0"/>
<stop offset="0.55" stop-color="white"/>
<stop offset="0.99" stop-color="white" stop-opacity="0"/>
</linearGradient>
<linearGradient id="paint2_linear_120_3170" x1="29.5943" y1="25.5572" x2="38.3586" y2="22.3799" gradientUnits="userSpaceOnUse">
<stop stop-color="white" stop-opacity="0"/>
<stop offset="0.55" stop-color="white"/>
<stop offset="0.99" stop-color="white" stop-opacity="0"/>
</linearGradient>
<linearGradient id="paint3_linear_120_3170" x1="17.2582" y1="6.93349" x2="32.4817" y2="10.0868" gradientUnits="userSpaceOnUse">
<stop stop-color="#F1F1F1"/>
<stop offset="1" stop-color="#E1E1E1"/>
</linearGradient>
</defs>
</svg>
