<svg width="108" height="53" viewBox="0 0 108 53" fill="none" xmlns="http://www.w3.org/2000/svg">
<g filter="url(#filter0_d_120_3133)">
<rect x="14.0659" y="14.0984" width="76.5" height="21.5164" rx="3.245" fill="white"/>
<rect x="14.0659" y="14.0984" width="76.5" height="21.5164" rx="3.245" stroke="url(#paint0_linear_120_3133)" stroke-opacity="0.3" stroke-width="0.650789"/>
</g>
<g filter="url(#filter1_d_120_3133)">
<mask id="path-3-outside-1_120_3133" maskUnits="userSpaceOnUse" x="26.2847" y="16.8613" width="19" height="16" fill="black">
<rect fill="white" x="26.2847" y="16.8613" width="19" height="16"/>
<path fill-rule="evenodd" clip-rule="evenodd" d="M41.0375 19.2818L41.1195 19.0947L41.161 19.1129L41.191 19.147C41.5072 19.5073 41.7257 20.1263 41.868 20.843C41.9978 21.4966 42.0695 22.2594 42.0835 23.0436C42.4729 22.7426 42.8099 22.4226 43.0153 22.1081C43.0736 22.019 43.1907 21.981 43.2796 22.0395C45.0003 23.1712 44.1453 26.2404 43.4071 26.589C43.3121 26.6339 43.4215 26.8266 43.5081 26.9541C43.5586 27.0283 43.577 27.121 43.544 27.2044C43.1508 28.1972 41.7998 30.0371 40.8494 29.7743L40.9139 29.989C40.9313 30.047 40.9155 30.1101 40.8713 30.1515C40.1415 30.8358 39.2144 31.1034 38.6375 30.4985C37.4336 31.2427 36.1938 31.7219 35.7289 31.7219C35.2827 31.7219 34.0254 31.3167 32.8279 30.6378C32.2495 31.0532 31.4195 30.7758 30.7537 30.1515C30.7096 30.1101 30.6938 30.047 30.7112 29.989L30.7756 29.7743C29.8252 30.0371 28.4743 28.1972 28.081 27.2044C28.048 27.121 28.0665 27.0283 28.1169 26.9541C28.2036 26.8266 28.313 26.6339 28.2179 26.589C27.4797 26.2404 26.6247 23.1712 28.3454 22.0395C28.4343 21.981 28.5515 22.0189 28.6097 22.1081C28.8089 22.413 29.1316 22.7229 29.5059 23.0159C29.5015 22.23 29.5464 21.4679 29.6507 20.8178C29.7636 20.1144 29.9513 19.5041 30.2526 19.1495L30.2833 19.1134L30.3269 19.0944L30.4083 19.2818C30.3269 19.0944 30.3269 19.0944 30.327 19.0944L30.3294 19.0934L30.336 19.0905L30.3609 19.0799C30.3828 19.0707 30.4148 19.0574 30.4563 19.0404C30.5393 19.0065 30.6602 18.9584 30.813 18.9007C31.1185 18.7853 31.552 18.6317 32.0653 18.478C33.089 18.1716 34.4425 17.8613 35.7348 17.8613C37.0272 17.8613 38.3748 18.1716 39.3927 18.4781C39.9031 18.6318 40.3337 18.7855 40.637 18.9008C40.7886 18.9586 40.9086 19.0067 40.991 19.0406C41.0322 19.0576 41.064 19.071 41.0856 19.0802L41.1104 19.0908L41.1126 19.0917L41.1169 19.0936L41.1187 19.0944L41.1194 19.0947C41.1194 19.0947 41.1195 19.0947 41.0375 19.2818ZM41.0375 19.2818C41.0375 19.2818 41.0375 19.2818 41.0375 19.2818C41.0375 19.2818 38.262 18.0656 35.7348 18.0656C33.2076 18.0656 30.4083 19.2818 30.4083 19.2818C29.8913 19.8903 29.6882 21.4795 29.7117 23.1716C29.7117 23.1716 29.7117 23.1717 29.7117 23.1717C29.6882 21.4795 29.8913 19.8903 30.4083 19.2818C30.4083 19.2818 33.2077 18.0656 35.7348 18.0656C38.2583 18.0656 41.0294 19.2783 41.0375 19.2818Z"/>
</mask>
<path fill-rule="evenodd" clip-rule="evenodd" d="M41.0375 19.2818L41.1195 19.0947L41.161 19.1129L41.191 19.147C41.5072 19.5073 41.7257 20.1263 41.868 20.843C41.9978 21.4966 42.0695 22.2594 42.0835 23.0436C42.4729 22.7426 42.8099 22.4226 43.0153 22.1081C43.0736 22.019 43.1907 21.981 43.2796 22.0395C45.0003 23.1712 44.1453 26.2404 43.4071 26.589C43.3121 26.6339 43.4215 26.8266 43.5081 26.9541C43.5586 27.0283 43.577 27.121 43.544 27.2044C43.1508 28.1972 41.7998 30.0371 40.8494 29.7743L40.9139 29.989C40.9313 30.047 40.9155 30.1101 40.8713 30.1515C40.1415 30.8358 39.2144 31.1034 38.6375 30.4985C37.4336 31.2427 36.1938 31.7219 35.7289 31.7219C35.2827 31.7219 34.0254 31.3167 32.8279 30.6378C32.2495 31.0532 31.4195 30.7758 30.7537 30.1515C30.7096 30.1101 30.6938 30.047 30.7112 29.989L30.7756 29.7743C29.8252 30.0371 28.4743 28.1972 28.081 27.2044C28.048 27.121 28.0665 27.0283 28.1169 26.9541C28.2036 26.8266 28.313 26.6339 28.2179 26.589C27.4797 26.2404 26.6247 23.1712 28.3454 22.0395C28.4343 21.981 28.5515 22.0189 28.6097 22.1081C28.8089 22.413 29.1316 22.7229 29.5059 23.0159C29.5015 22.23 29.5464 21.4679 29.6507 20.8178C29.7636 20.1144 29.9513 19.5041 30.2526 19.1495L30.2833 19.1134L30.3269 19.0944L30.4083 19.2818C30.3269 19.0944 30.3269 19.0944 30.327 19.0944L30.3294 19.0934L30.336 19.0905L30.3609 19.0799C30.3828 19.0707 30.4148 19.0574 30.4563 19.0404C30.5393 19.0065 30.6602 18.9584 30.813 18.9007C31.1185 18.7853 31.552 18.6317 32.0653 18.478C33.089 18.1716 34.4425 17.8613 35.7348 17.8613C37.0272 17.8613 38.3748 18.1716 39.3927 18.4781C39.9031 18.6318 40.3337 18.7855 40.637 18.9008C40.7886 18.9586 40.9086 19.0067 40.991 19.0406C41.0322 19.0576 41.064 19.071 41.0856 19.0802L41.1104 19.0908L41.1126 19.0917L41.1169 19.0936L41.1187 19.0944L41.1194 19.0947C41.1194 19.0947 41.1195 19.0947 41.0375 19.2818ZM41.0375 19.2818C41.0375 19.2818 41.0375 19.2818 41.0375 19.2818C41.0375 19.2818 38.262 18.0656 35.7348 18.0656C33.2076 18.0656 30.4083 19.2818 30.4083 19.2818C29.8913 19.8903 29.6882 21.4795 29.7117 23.1716C29.7117 23.1716 29.7117 23.1717 29.7117 23.1717C29.6882 21.4795 29.8913 19.8903 30.4083 19.2818C30.4083 19.2818 33.2077 18.0656 35.7348 18.0656C38.2583 18.0656 41.0294 19.2783 41.0375 19.2818Z" fill="#D9D9D9"/>
<path d="M41.1195 19.0947L40.5756 18.8564L40.8139 18.3126L41.3578 18.5509L41.1195 19.0947ZM41.161 19.1129L41.3993 18.5691L41.5202 18.622L41.6072 18.7212L41.161 19.1129ZM41.191 19.147L41.6372 18.7553L41.6372 18.7553L41.191 19.147ZM41.868 20.843L41.2856 20.9586L41.2856 20.9586L41.868 20.843ZM42.0835 23.0436L42.4467 23.5133L41.511 24.2368L41.4899 23.0542L42.0835 23.0436ZM43.0153 22.1081L42.5183 21.7834L42.5183 21.7834L43.0153 22.1081ZM43.2796 22.0395L43.6059 21.5434L43.6059 21.5434L43.2796 22.0395ZM43.4071 26.589L43.1536 26.0521L43.1536 26.0521L43.4071 26.589ZM43.5081 26.9541L43.9992 26.6203L43.9992 26.6203L43.5081 26.9541ZM43.544 27.2044L42.992 26.9857L42.992 26.9857L43.544 27.2044ZM40.8494 29.7743L40.2807 29.945L39.9717 28.9156L41.0077 29.202L40.8494 29.7743ZM40.9139 29.989L41.4826 29.8183L41.4826 29.8183L40.9139 29.989ZM40.8713 30.1515L40.4652 29.7184L40.4652 29.7184L40.8713 30.1515ZM38.6375 30.4985L38.3253 29.9934L38.7349 29.7402L39.0672 30.0887L38.6375 30.4985ZM32.8279 30.6378L32.4816 30.1555L32.7902 29.9339L33.1208 30.1213L32.8279 30.6378ZM30.7537 30.1515L30.3476 30.5846L30.3476 30.5846L30.7537 30.1515ZM30.7112 29.989L30.1425 29.8183L30.1425 29.8183L30.7112 29.989ZM30.7756 29.7743L30.6174 29.202L31.6534 28.9156L31.3443 29.945L30.7756 29.7743ZM28.081 27.2044L27.529 27.4231L27.529 27.4231L28.081 27.2044ZM28.1169 26.9541L28.6079 27.2879L28.6079 27.2879L28.1169 26.9541ZM28.2179 26.589L28.4715 26.0521L28.4715 26.0521L28.2179 26.589ZM28.3454 22.0395L28.0191 21.5434L28.0191 21.5434L28.3454 22.0395ZM28.6097 22.1081L29.1068 21.7834L29.1068 21.7834L28.6097 22.1081ZM29.5059 23.0159L30.0996 23.0126L30.1064 24.2399L29.1399 23.4834L29.5059 23.0159ZM29.6507 20.8178L29.0645 20.7237L29.0645 20.7237L29.6507 20.8178ZM30.2526 19.1495L29.8001 18.7651L29.8001 18.7651L30.2526 19.1495ZM30.2833 19.1134L29.8309 18.7289L29.9202 18.6238L30.0467 18.5688L30.2833 19.1134ZM30.3269 19.0944L30.0903 18.5499L30.6348 18.3133L30.8714 18.8579L30.3269 19.0944ZM30.327 19.0944L30.0911 18.5495L30.0912 18.5495L30.327 19.0944ZM30.3294 19.0934L30.0937 18.5484L30.095 18.5478L30.3294 19.0934ZM30.336 19.0905L30.1016 18.545L30.1039 18.544L30.336 19.0905ZM30.3609 19.0799L30.1288 18.5334L30.1302 18.5328L30.3609 19.0799ZM30.4563 19.0404L30.2319 18.4907L30.2319 18.4907L30.4563 19.0404ZM30.813 18.9007L30.6032 18.3452L30.6032 18.3452L30.813 18.9007ZM32.0653 18.478L32.2355 19.0468L32.2355 19.0468L32.0653 18.478ZM39.3927 18.4781L39.5639 17.9096L39.5639 17.9096L39.3927 18.4781ZM40.637 18.9008L40.8481 18.3459L40.8481 18.3459L40.637 18.9008ZM40.991 19.0406L40.7651 19.5897L40.7651 19.5897L40.991 19.0406ZM41.0856 19.0802L41.318 18.5338L41.3194 18.5344L41.0856 19.0802ZM41.1104 19.0908L41.3442 18.545L41.346 18.5458L41.1104 19.0908ZM41.1126 19.0917L41.3482 18.5467L41.3489 18.547L41.1126 19.0917ZM41.1169 19.0936L41.3532 18.5489L41.3541 18.5493L41.1169 19.0936ZM41.1187 19.0944L41.3559 18.5501L41.3565 18.5503L41.1187 19.0944ZM41.1194 19.0947L41.3572 18.5506L41.3575 18.5508L41.1194 19.0947ZM41.0375 19.2818L41.4715 18.8767L40.7993 19.8257L41.0375 19.2818ZM29.7117 23.1716L29.3449 23.6385L29.1219 23.4634L29.118 23.1799L29.7117 23.1716ZM29.7117 23.1717L30.3054 23.1634L30.3227 24.4068L29.3449 23.6385L29.7117 23.1717ZM30.4083 19.2818L29.9558 18.8974L30.0452 18.7922L30.1717 18.7373L30.4083 19.2818ZM41.1195 19.0947L41.6633 19.333L41.5813 19.5201L41.0375 19.2818L40.4936 19.0435L40.5756 18.8564L41.1195 19.0947ZM41.161 19.1129L40.9227 19.6568L40.8812 19.6385L41.1195 19.0947L41.3578 18.5509L41.3993 18.5691L41.161 19.1129ZM41.191 19.147L40.7448 19.5388L40.7148 19.5047L41.161 19.1129L41.6072 18.7212L41.6372 18.7553L41.191 19.147ZM41.868 20.843L41.2856 20.9586C41.1471 20.2608 40.952 19.7748 40.7448 19.5388L41.191 19.147L41.6372 18.7553C42.0625 19.2397 42.3043 19.9918 42.4504 20.7273L41.868 20.843ZM42.0835 23.0436L41.4899 23.0542C41.4763 22.2966 41.4071 21.5701 41.2856 20.9586L41.868 20.843L42.4504 20.7273C42.5886 21.4232 42.6627 22.2222 42.6772 23.033L42.0835 23.0436ZM42.0835 23.0436L41.7203 22.5739C42.0897 22.2883 42.3662 22.0162 42.5183 21.7834L43.0153 22.1081L43.5124 22.4328C43.2536 22.8291 42.856 23.1968 42.4467 23.5133L42.0835 23.0436ZM43.0153 22.1081L42.5183 21.7834C42.7137 21.4842 43.1816 21.2644 43.6059 21.5434L43.2796 22.0395L42.9534 22.5356C43.0674 22.6106 43.1962 22.6181 43.2957 22.5903C43.3897 22.564 43.4645 22.5062 43.5124 22.4328L43.0153 22.1081ZM43.2796 22.0395L43.6059 21.5434C44.737 22.2874 44.9562 23.6209 44.8565 24.6644C44.8053 25.201 44.6676 25.7152 44.4834 26.1308C44.3913 26.3386 44.2823 26.5339 44.1571 26.6987C44.0377 26.8561 43.8742 27.025 43.6606 27.1259L43.4071 26.589L43.1536 26.0521C43.1245 26.0658 43.1492 26.0625 43.2111 25.9809C43.2674 25.9068 43.3328 25.7963 43.3978 25.6496C43.5278 25.3563 43.6347 24.9671 43.6744 24.5515C43.7566 23.6903 43.5429 22.9234 42.9534 22.5356L43.2796 22.0395ZM43.4071 26.589L43.6606 27.1259C43.7486 27.0843 43.831 27.0149 43.8887 26.9195C43.9432 26.8294 43.9593 26.7434 43.9631 26.6864C43.9668 26.6306 43.9598 26.589 43.9556 26.5689C43.9511 26.5474 43.9462 26.5341 43.945 26.531C43.9431 26.5259 43.9457 26.5336 43.958 26.5551C43.9692 26.5747 43.9835 26.5972 43.9992 26.6203L43.5081 26.9541L43.0171 27.2879C42.9684 27.2162 42.8861 27.0885 42.834 26.9501C42.8101 26.8869 42.768 26.7601 42.7782 26.6077C42.7908 26.4182 42.892 26.1756 43.1536 26.0521L43.4071 26.589ZM43.5081 26.9541L43.9992 26.6203C44.1354 26.8207 44.2163 27.1193 44.096 27.4231L43.544 27.2044L42.992 26.9857C42.9377 27.1227 42.9817 27.2358 43.0171 27.2879L43.5081 26.9541ZM43.544 27.2044L44.096 27.4231C43.8701 27.9933 43.3929 28.7623 42.8432 29.3616C42.5673 29.6623 42.2492 29.9469 41.9089 30.1398C41.5749 30.3291 41.1432 30.4716 40.6912 30.3466L40.8494 29.7743L41.0077 29.202C41.0308 29.2084 41.1244 29.2194 41.3233 29.1067C41.5159 28.9975 41.7384 28.8093 41.9681 28.5588C42.4297 28.0556 42.8246 27.4083 42.992 26.9857L43.544 27.2044ZM40.8494 29.7743L41.4181 29.6036L41.4826 29.8183L40.9139 29.989L40.3452 30.1598L40.2807 29.945L40.8494 29.7743ZM40.9139 29.989L41.4826 29.8183C41.5621 30.0832 41.4926 30.3829 41.2774 30.5846L40.8713 30.1515L40.4652 29.7184C40.3383 29.8373 40.3005 30.0108 40.3452 30.1598L40.9139 29.989ZM40.8713 30.1515L41.2774 30.5846C40.857 30.9789 40.3457 31.2872 39.8104 31.3913C39.2538 31.4995 38.6602 31.3826 38.2079 30.9082L38.6375 30.4985L39.0672 30.0887C39.1917 30.2193 39.3502 30.271 39.5838 30.2256C39.8387 30.176 40.1558 30.0084 40.4652 29.7184L40.8713 30.1515ZM38.6375 30.4985L38.9497 31.0035C38.3206 31.3924 37.6807 31.7132 37.1315 31.9386C36.857 32.0512 36.5989 32.1427 36.3714 32.2068C36.1546 32.268 35.9274 32.3156 35.7289 32.3156V31.7219V31.1281C35.7628 31.1281 35.865 31.1159 36.049 31.064C36.2223 31.015 36.4366 30.9402 36.6806 30.84C37.1686 30.6397 37.7505 30.3488 38.3253 29.9934L38.6375 30.4985ZM35.7289 31.7219V32.3156C35.394 32.3156 34.8834 32.1809 34.36 31.9934C33.8102 31.7965 33.1653 31.5116 32.5351 31.1543L32.8279 30.6378L33.1208 30.1213C33.6881 30.4429 34.2705 30.7 34.7604 30.8755C35.2765 31.0603 35.6175 31.1281 35.7289 31.1281V31.7219ZM32.8279 30.6378L33.1743 31.1201C32.7076 31.4552 32.1622 31.4876 31.6726 31.3588C31.1909 31.2321 30.7327 30.9457 30.3476 30.5846L30.7537 30.1515L31.1598 29.7184C31.4405 29.9815 31.7302 30.146 31.9746 30.2103C32.211 30.2725 32.3698 30.2358 32.4816 30.1555L32.8279 30.6378ZM30.7537 30.1515L30.3476 30.5846C30.1324 30.3829 30.063 30.0832 30.1425 29.8183L30.7112 29.989L31.2798 30.1597C31.3246 30.0107 31.2867 29.8373 31.1598 29.7184L30.7537 30.1515ZM30.7112 29.989L30.1425 29.8183L30.207 29.6036L30.7756 29.7743L31.3443 29.945L31.2798 30.1597L30.7112 29.989ZM30.7756 29.7743L30.9339 30.3466C30.4818 30.4716 30.0501 30.3291 29.7161 30.1397C29.3759 29.9469 29.0578 29.6623 28.7819 29.3616C28.2321 28.7623 27.7549 27.9933 27.529 27.4231L28.081 27.2044L28.6331 26.9857C28.8004 27.4083 29.1953 28.0556 29.6569 28.5588C29.8867 28.8093 30.1091 28.9975 30.3018 29.1067C30.5006 29.2194 30.5942 29.2084 30.6174 29.202L30.7756 29.7743ZM28.081 27.2044L27.529 27.4231C27.4087 27.1193 27.4896 26.8207 27.6259 26.6203L28.1169 26.9541L28.6079 27.2879C28.6433 27.2358 28.6873 27.1227 28.6331 26.9857L28.081 27.2044ZM28.1169 26.9541L27.6259 26.6203C27.6416 26.5972 27.6558 26.5747 27.667 26.5551C27.6793 26.5336 27.6819 26.5259 27.68 26.531C27.6788 26.5341 27.6739 26.5474 27.6694 26.5689C27.6652 26.589 27.6583 26.6306 27.662 26.6864C27.6658 26.7434 27.6818 26.8294 27.7363 26.9195C27.794 27.0149 27.8764 27.0843 27.9644 27.1259L28.2179 26.589L28.4715 26.0521C28.7331 26.1756 28.8343 26.4182 28.8469 26.6077C28.857 26.76 28.8149 26.8869 28.7911 26.9501C28.7389 27.0885 28.6566 27.2162 28.6079 27.2879L28.1169 26.9541ZM28.2179 26.589L27.9644 27.1259C27.7508 27.025 27.5873 26.8561 27.4679 26.6987C27.3428 26.5339 27.2337 26.3386 27.1416 26.1308C26.9574 25.7152 26.8198 25.201 26.7685 24.6644C26.6689 23.6209 26.888 22.2874 28.0191 21.5434L28.3454 22.0395L28.6717 22.5356C28.0821 22.9233 27.8684 23.6903 27.9506 24.5515C27.9903 24.9671 28.0973 25.3563 28.2273 25.6496C28.2923 25.7963 28.3577 25.9068 28.4139 25.9809C28.4758 26.0625 28.5005 26.0658 28.4715 26.0521L28.2179 26.589ZM28.3454 22.0395L28.0191 21.5434C28.4434 21.2643 28.9114 21.4842 29.1068 21.7834L28.6097 22.1081L28.1126 22.4328C28.1605 22.5061 28.2353 22.564 28.3293 22.5903C28.4288 22.6181 28.5577 22.6106 28.6717 22.5356L28.3454 22.0395ZM28.6097 22.1081L29.1068 21.7834C29.2539 22.0085 29.518 22.2713 29.8718 22.5483L29.5059 23.0159L29.1399 23.4834C28.7453 23.1746 28.3638 22.8174 28.1126 22.4328L28.6097 22.1081ZM29.6507 20.8178L30.237 20.9118C30.1393 21.5206 30.0954 22.2484 30.0996 23.0126L29.5059 23.0159L28.9121 23.0192C28.9076 22.2115 28.9535 21.4153 29.0645 20.7237L29.6507 20.8178ZM30.2526 19.1495L30.7051 19.534C30.5171 19.7552 30.3476 20.2222 30.237 20.9118L29.6507 20.8178L29.0645 20.7237C29.1795 20.0066 29.3856 19.253 29.8001 18.7651L30.2526 19.1495ZM30.2833 19.1134L30.7358 19.4978L30.7051 19.534L30.2526 19.1495L29.8001 18.7651L29.8309 18.7289L30.2833 19.1134ZM30.3269 19.0944L30.5635 19.639L30.5199 19.6579L30.2833 19.1134L30.0467 18.5688L30.0903 18.5499L30.3269 19.0944ZM30.4083 19.2818L29.8637 19.5184L29.7823 19.331L30.3269 19.0944L30.8714 18.8579L30.9528 19.0452L30.4083 19.2818ZM30.4083 19.2818L29.8637 19.5184C29.823 19.4248 29.8026 19.3777 29.7923 19.3541C29.7873 19.3425 29.7844 19.3358 29.7827 19.3319C29.7823 19.3309 29.7805 19.3267 29.7787 19.3223C29.7781 19.3209 29.777 19.3182 29.7756 19.3147C29.7747 19.3124 29.7713 19.3041 29.7675 19.2933C29.7656 19.2879 29.7618 19.277 29.7576 19.263C29.7547 19.253 29.745 19.22 29.7389 19.1766C29.7359 19.1553 29.7124 19.0092 29.7878 18.8457C29.8907 18.6226 30.0916 18.5493 30.0911 18.5495L30.327 19.0944L30.5628 19.6393C30.5535 19.6434 30.6142 19.6195 30.6757 19.575C30.7518 19.5197 30.8205 19.4421 30.8661 19.3431C30.9415 19.1796 30.918 19.0336 30.915 19.0123C30.9089 18.9688 30.8992 18.9358 30.8963 18.9259C30.8921 18.9119 30.8883 18.901 30.8864 18.8956C30.8826 18.8849 30.8793 18.8766 30.8784 18.8744C30.8771 18.871 30.876 18.8684 30.8755 18.8672C30.874 18.8636 30.8728 18.8609 30.8737 18.8628C30.8745 18.8648 30.8767 18.8698 30.8818 18.8817C30.8919 18.9049 30.9121 18.9515 30.9528 19.0452L30.4083 19.2818ZM30.327 19.0944L30.0912 18.5495L30.0937 18.5484L30.3294 19.0934L30.5651 19.6383L30.5627 19.6394L30.327 19.0944ZM30.3294 19.0934L30.095 18.5478L30.1016 18.545L30.336 19.0905L30.5703 19.6361L30.5638 19.6389L30.3294 19.0934ZM30.336 19.0905L30.1039 18.544L30.1288 18.5334L30.3609 19.0799L30.593 19.6264L30.568 19.637L30.336 19.0905ZM30.3609 19.0799L30.1302 18.5328C30.154 18.5228 30.1882 18.5085 30.2319 18.4907L30.4563 19.0404L30.6807 19.5901C30.6414 19.6062 30.6115 19.6187 30.5917 19.627L30.3609 19.0799ZM30.4563 19.0404L30.2319 18.4907C30.3193 18.455 30.4451 18.4049 30.6032 18.3452L30.813 18.9007L31.0227 19.4561C30.8753 19.5118 30.7592 19.5581 30.6807 19.5901L30.4563 19.0404ZM30.813 18.9007L30.6032 18.3452C30.919 18.2259 31.3659 18.0676 31.895 17.9092L32.0653 18.478L32.2355 19.0468C31.738 19.1957 31.3179 19.3447 31.0227 19.4561L30.813 18.9007ZM32.0653 18.478L31.895 17.9092C32.942 17.5958 34.3589 17.2676 35.7348 17.2676V17.8613V18.4551C34.526 18.4551 33.236 18.7473 32.2355 19.0468L32.0653 18.478ZM35.7348 17.8613V17.2676C37.111 17.2676 38.5223 17.5959 39.5639 17.9096L39.3927 18.4781L39.2215 19.0466C38.2273 18.7473 36.9434 18.4551 35.7348 18.4551V17.8613ZM39.3927 18.4781L39.5639 17.9096C40.0903 18.0681 40.5343 18.2265 40.8481 18.3459L40.637 18.9008L40.4258 19.4558C40.133 19.3444 39.7159 19.1955 39.2215 19.0466L39.3927 18.4781ZM40.637 18.9008L40.8481 18.3459C41.0052 18.4057 41.1301 18.4558 41.2169 18.4915L40.991 19.0406L40.7651 19.5897C40.6872 19.5577 40.5721 19.5115 40.4258 19.4558L40.637 18.9008ZM40.991 19.0406L41.2169 18.4915C41.2603 18.5094 41.2943 18.5237 41.318 18.5338L41.0856 19.0802L40.8533 19.6266C40.8337 19.6182 40.804 19.6057 40.7651 19.5897L40.991 19.0406ZM41.0856 19.0802L41.3194 18.5344L41.3442 18.545L41.1104 19.0908L40.8767 19.6366L40.8519 19.626L41.0856 19.0802ZM41.1104 19.0908L41.346 18.5458L41.3482 18.5467L41.1126 19.0917L40.877 19.6367L40.8748 19.6358L41.1104 19.0908ZM41.1126 19.0917L41.3489 18.547L41.3532 18.5489L41.1169 19.0936L40.8807 19.6383L40.8763 19.6364L41.1126 19.0917ZM41.1169 19.0936L41.3541 18.5493L41.3559 18.5501L41.1187 19.0944L40.8815 19.6387L40.8797 19.6379L41.1169 19.0936ZM41.1187 19.0944L41.3565 18.5503L41.3572 18.5506L41.1194 19.0947L40.8816 19.6387L40.8809 19.6384L41.1187 19.0944ZM41.1194 19.0947L41.3575 18.5508C41.3568 18.5504 41.5564 18.6242 41.6587 18.8464C41.7341 19.0101 41.7103 19.1562 41.7073 19.1779C41.7011 19.2216 41.6912 19.2547 41.6883 19.2647C41.684 19.2788 41.6802 19.2898 41.6783 19.2951C41.6744 19.306 41.671 19.3144 41.6701 19.3167C41.6687 19.3201 41.6675 19.3229 41.6669 19.3243C41.6651 19.3287 41.6633 19.3329 41.6629 19.3338C41.6612 19.3377 41.6582 19.3444 41.6532 19.356C41.6428 19.3796 41.6223 19.4266 41.5813 19.5201L41.0375 19.2818L40.4936 19.0435C40.5346 18.9499 40.555 18.9033 40.5652 18.8802C40.5704 18.8683 40.5725 18.8633 40.5734 18.8614C40.5742 18.8594 40.5731 18.8621 40.5715 18.8658C40.571 18.867 40.5699 18.8696 40.5686 18.873C40.5677 18.8752 40.5643 18.8835 40.5605 18.8943C40.5585 18.8996 40.5547 18.9106 40.5505 18.9247C40.5475 18.9347 40.5377 18.9678 40.5315 19.0115C40.5284 19.0332 40.5047 19.1793 40.58 19.3429C40.6823 19.5652 40.882 19.6389 40.8812 19.6386L41.1194 19.0947ZM41.0375 19.2818L41.4715 18.8767C41.4785 18.8841 41.4839 18.8904 41.4872 18.8942C41.4889 18.8962 41.4903 18.8978 41.4911 18.8988C41.4915 18.8993 41.4919 18.8997 41.4921 18.8999C41.4922 18.9 41.4923 18.9001 41.4923 18.9002C41.4923 18.9002 41.4924 18.9002 41.4924 18.9003C41.4924 18.9003 41.4924 18.9003 41.4924 18.9003C41.4924 18.9003 41.4924 18.9003 41.4924 18.9003C41.4924 18.9003 41.4924 18.9003 41.4924 18.9003C41.4924 18.9003 41.4924 18.9003 41.4924 18.9003C41.4928 18.9008 41.4903 18.8977 41.4872 18.8942C41.4839 18.8904 41.4785 18.8841 41.4715 18.8767L41.0375 19.2818L40.6034 19.687C40.5965 19.6795 40.591 19.6733 40.5877 19.6694C40.586 19.6675 40.5846 19.6659 40.5838 19.6649C40.5834 19.6644 40.5831 19.664 40.5829 19.6638C40.5828 19.6636 40.5827 19.6635 40.5826 19.6635C40.5826 19.6635 40.5826 19.6634 40.5826 19.6634C40.5826 19.6634 40.5825 19.6634 40.5825 19.6634C40.5825 19.6634 40.5825 19.6634 40.5825 19.6634C40.5825 19.6634 40.5825 19.6634 40.5825 19.6634C40.5825 19.6634 40.5825 19.6634 40.5825 19.6634C40.5821 19.6629 40.5847 19.6659 40.5877 19.6694C40.591 19.6733 40.5965 19.6795 40.6034 19.687L41.0375 19.2818ZM41.0375 19.2818C40.7992 19.8257 40.7992 19.8257 40.7993 19.8257C40.7993 19.8257 40.7994 19.8258 40.7994 19.8258C40.7994 19.8258 40.7994 19.8258 40.7994 19.8258C40.7993 19.8257 40.799 19.8256 40.7986 19.8254C40.7977 19.825 40.7962 19.8244 40.794 19.8234C40.7897 19.8216 40.7827 19.8186 40.7733 19.8146C40.7544 19.8065 40.7255 19.7944 40.6874 19.7787C40.611 19.7472 40.4976 19.7017 40.3532 19.6467C40.0639 19.5367 39.6515 19.3895 39.1626 19.2423C38.1766 18.9454 36.9146 18.6594 35.7348 18.6594V18.0656V17.4719C37.0822 17.4719 38.4715 17.794 39.505 18.1052C40.0259 18.262 40.4653 18.4189 40.7754 18.5369C40.9307 18.5959 41.0539 18.6454 41.1392 18.6805C41.1818 18.698 41.215 18.712 41.238 18.7218C41.2495 18.7267 41.2585 18.7305 41.2648 18.7333C41.268 18.7346 41.2705 18.7357 41.2723 18.7365C41.2732 18.7369 41.274 18.7372 41.2745 18.7375C41.2748 18.7376 41.2751 18.7377 41.2753 18.7378C41.2754 18.7378 41.2755 18.7379 41.2756 18.7379C41.2757 18.738 41.2758 18.738 41.0375 19.2818ZM35.7348 18.0656V18.6594C34.5548 18.6594 33.2866 18.9455 32.2941 19.2425C31.8021 19.3898 31.3865 19.5371 31.0949 19.6473C30.9493 19.7023 30.8349 19.7478 30.7579 19.7793C30.7193 19.795 30.6902 19.8072 30.6711 19.8153C30.6615 19.8193 30.6545 19.8223 30.6501 19.8242C30.6479 19.8251 30.6464 19.8258 30.6455 19.8261C30.645 19.8263 30.6448 19.8264 30.6447 19.8265C30.6446 19.8265 30.6446 19.8265 30.6446 19.8265C30.6447 19.8265 30.6447 19.8265 30.6447 19.8265C30.6448 19.8264 30.6449 19.8264 30.4083 19.2818C30.1717 18.7373 30.1718 18.7372 30.1719 18.7372C30.1719 18.7371 30.1721 18.7371 30.1722 18.737C30.1724 18.737 30.1726 18.7369 30.1729 18.7367C30.1735 18.7365 30.1742 18.7362 30.1751 18.7358C30.177 18.735 30.1795 18.7339 30.1827 18.7325C30.189 18.7298 30.198 18.726 30.2096 18.7211C30.2327 18.7113 30.2662 18.6974 30.3091 18.6798C30.395 18.6448 30.5191 18.5954 30.6754 18.5363C30.9876 18.4184 31.4299 18.2617 31.9536 18.1049C32.9926 17.7939 34.3877 17.4719 35.7348 17.4719V18.0656ZM29.7117 23.1716L29.118 23.1799C29.106 22.3112 29.1516 21.4539 29.2714 20.7242C29.3862 20.0248 29.585 19.3337 29.9558 18.8974L30.4083 19.2818L30.8607 19.6663C30.7145 19.8384 30.5533 20.2461 30.4432 20.9166C30.3381 21.5565 30.294 22.3399 30.3054 23.1634L29.7117 23.1716ZM29.7117 23.1716L30.0785 22.7048C30.0731 22.7005 30.0687 22.6972 30.0668 22.6958C30.0648 22.6943 30.0631 22.6931 30.0634 22.6933C30.0634 22.6933 30.0634 22.6933 30.0634 22.6933C30.0634 22.6933 30.0634 22.6933 30.0634 22.6933C30.0634 22.6933 30.0634 22.6933 30.0634 22.6933C30.0634 22.6933 30.0634 22.6933 30.0635 22.6933C30.0635 22.6933 30.0635 22.6933 30.0635 22.6933C30.0635 22.6934 30.0636 22.6934 30.0636 22.6934C30.0638 22.6935 30.064 22.6937 30.0643 22.6939C30.0648 22.6943 30.0657 22.6949 30.0668 22.6958C30.0687 22.6972 30.0731 22.7005 30.0786 22.7048L29.7117 23.1717L29.3449 23.6385C29.3503 23.6428 29.3547 23.6461 29.3566 23.6475C29.3586 23.649 29.3603 23.6503 29.36 23.65C29.36 23.65 29.36 23.65 29.36 23.65C29.36 23.65 29.36 23.65 29.36 23.65C29.36 23.65 29.36 23.65 29.36 23.65C29.36 23.65 29.36 23.65 29.36 23.65C29.36 23.65 29.3599 23.65 29.3599 23.65C29.3599 23.6499 29.3598 23.6499 29.3598 23.6499C29.3596 23.6498 29.3594 23.6496 29.3592 23.6494C29.3586 23.649 29.3577 23.6484 29.3566 23.6475C29.3547 23.6461 29.3503 23.6428 29.3449 23.6385L29.7117 23.1716ZM29.7117 23.1717L29.118 23.1799C29.106 22.3113 29.1516 21.454 29.2714 20.7242C29.3862 20.0249 29.5851 19.3338 29.9558 18.8974L30.4083 19.2818L30.8608 19.6663C30.7145 19.8384 30.5533 20.2461 30.4432 20.9166C30.3381 21.5565 30.294 22.3399 30.3054 23.1634L29.7117 23.1717ZM30.4083 19.2818C30.1717 18.7373 30.1718 18.7372 30.1719 18.7372C30.172 18.7372 30.1721 18.7371 30.1722 18.7371C30.1724 18.737 30.1726 18.7369 30.1729 18.7367C30.1735 18.7365 30.1742 18.7362 30.1752 18.7358C30.177 18.735 30.1795 18.7339 30.1827 18.7325C30.189 18.7298 30.198 18.726 30.2096 18.7211C30.2328 18.7113 30.2662 18.6974 30.3092 18.6799C30.395 18.6448 30.5191 18.5954 30.6754 18.5364C30.9877 18.4184 31.4299 18.2617 31.9536 18.1049C32.9926 17.7939 34.3877 17.4719 35.7348 17.4719V18.0656V18.6594C34.5548 18.6594 33.2866 18.9455 32.2941 19.2426C31.8021 19.3899 31.3865 19.5372 31.0949 19.6473C30.9493 19.7023 30.835 19.7479 30.7579 19.7793C30.7194 19.795 30.6902 19.8072 30.6711 19.8153C30.6615 19.8193 30.6545 19.8223 30.6501 19.8242C30.6479 19.8251 30.6464 19.8258 30.6455 19.8262C30.6451 19.8263 30.6448 19.8265 30.6447 19.8265C30.6446 19.8265 30.6446 19.8265 30.6447 19.8265C30.6447 19.8265 30.6447 19.8265 30.6447 19.8265C30.6448 19.8265 30.6449 19.8264 30.4083 19.2818ZM35.7348 18.0656V17.4719C38.3954 17.4719 41.269 18.735 41.2756 18.738L41.0375 19.2818L40.7993 19.8257C40.8085 19.8298 40.1372 19.5355 39.1584 19.241C38.1729 18.9445 36.9128 18.6594 35.7348 18.6594V18.0656Z" fill="#1F1F1F" mask="url(#path-3-outside-1_120_3133)"/>
</g>
<mask id="mask0_120_3133" style="mask-type:alpha" maskUnits="userSpaceOnUse" x="27" y="17" width="18" height="15">
<path fill-rule="evenodd" clip-rule="evenodd" d="M41.0374 19.2818L41.1194 19.0947L41.161 19.1129L41.191 19.147C41.5072 19.5073 41.7256 20.1263 41.868 20.843C41.9978 21.4966 42.0694 22.2594 42.0835 23.0436C42.4728 22.7426 42.8099 22.4226 43.0153 22.1081C43.0736 22.019 43.1907 21.981 43.2796 22.0395C45.0003 23.1712 44.1453 26.2404 43.4071 26.589C43.3121 26.6339 43.4215 26.8266 43.5081 26.9541C43.5586 27.0283 43.577 27.121 43.544 27.2044C43.1508 28.1972 41.7998 30.0371 40.8494 29.7743L40.9139 29.989C40.9313 30.047 40.9155 30.1101 40.8713 30.1515C40.1415 30.8358 39.2144 31.1034 38.6375 30.4984C37.4335 31.2427 36.1938 31.7219 35.7288 31.7219C35.2826 31.7219 34.0254 31.3167 32.8279 30.6378C32.2494 31.0532 31.4195 30.7758 30.7537 30.1515C30.7096 30.1101 30.6938 30.047 30.7112 29.989L30.7756 29.7743C29.8252 30.0371 28.4743 28.1972 28.081 27.2044C28.048 27.121 28.0665 27.0283 28.1169 26.9541C28.2036 26.8266 28.313 26.6339 28.2179 26.589C27.4797 26.2404 26.6247 23.1712 28.3454 22.0395C28.4343 21.981 28.5515 22.0189 28.6097 22.1081C28.8089 22.413 29.1316 22.7229 29.5058 23.0158C29.5015 22.2299 29.5464 21.4679 29.6507 20.8178C29.7635 20.1144 29.9513 19.5041 30.2525 19.1495L30.2833 19.1134L30.3268 19.0944L30.4082 19.2818C30.3268 19.0944 30.3269 19.0944 30.3269 19.0944L30.3294 19.0934L30.3359 19.0905L30.3609 19.0799C30.3827 19.0707 30.4148 19.0574 30.4563 19.0404C30.5393 19.0065 30.6602 18.9584 30.8129 18.9007C31.1184 18.7853 31.5519 18.6317 32.0652 18.478C33.089 18.1716 34.4424 17.8613 35.7348 17.8613C37.0272 17.8613 38.3748 18.1716 39.3927 18.4781C39.9031 18.6318 40.3336 18.7855 40.6369 18.9008C40.7886 18.9586 40.9086 19.0067 40.991 19.0406C41.0322 19.0576 41.0639 19.071 41.0856 19.0802L41.1104 19.0908L41.1125 19.0917L41.1169 19.0936L41.1187 19.0944L41.1193 19.0947C41.1194 19.0947 41.1194 19.0947 41.0374 19.2818ZM41.8811 23.1951C41.8668 21.5046 41.583 19.9032 41.0374 19.2818C41.0374 19.2818 38.2619 18.0656 35.7348 18.0656C33.2076 18.0656 30.4082 19.2818 30.4082 19.2818C30.4082 19.2818 30.4082 19.2818 30.4082 19.2818C30.4082 19.2818 33.2076 18.0656 35.7348 18.0656C38.2619 18.0656 41.0374 19.2818 41.0374 19.2818C41.583 19.9032 41.8667 21.5046 41.8811 23.1952C41.8811 23.1952 41.8811 23.1951 41.8811 23.1951Z" fill="#D9D9D9"/>
</mask>
<g mask="url(#mask0_120_3133)">
<path d="M43.0154 22.1082C42.5809 22.7732 41.5584 23.4624 40.6966 23.9463C39.6313 25.4732 37.8162 28.6882 38.3111 29.9616C38.7931 31.2018 39.9794 30.9878 40.8713 30.1516C40.9155 30.1102 40.9313 30.0471 40.9139 29.9891L40.8494 29.7744C41.7998 30.0372 43.1508 28.1973 43.544 27.2045C43.577 27.1211 43.5586 27.0284 43.5082 26.9542C43.4215 26.8267 43.3121 26.6339 43.4071 26.5891C44.1454 26.2405 45.0003 23.1713 43.2797 22.0396C43.1907 21.9811 43.0736 22.019 43.0154 22.1082Z" fill="url(#paint1_linear_120_3133)"/>
<path d="M28.6096 22.1082C29.0441 22.7732 30.0666 23.4624 30.9284 23.9463C31.9937 25.4732 33.8088 28.6882 33.3139 29.9616C32.8319 31.2018 31.6456 30.9878 30.7537 30.1516C30.7095 30.1102 30.6937 30.0471 30.7111 29.9891L30.7756 29.7744C29.8252 30.0372 28.4742 28.1973 28.081 27.2045C28.048 27.1211 28.0664 27.0284 28.1168 26.9542C28.2035 26.8267 28.3129 26.6339 28.2179 26.5891C27.4796 26.2405 26.6247 23.1713 28.3453 22.0396C28.4343 21.9811 28.5514 22.019 28.6096 22.1082Z" fill="url(#paint2_linear_120_3133)"/>
<mask id="mask1_120_3133" style="mask-type:alpha" maskUnits="userSpaceOnUse" x="27" y="22" width="18" height="9">
<path d="M43.28 22.0398C43.191 21.9813 43.0736 22.019 43.0153 22.1082C42.5809 22.7731 41.5587 23.4622 40.697 23.9461C39.6317 25.4729 37.8164 28.6883 38.3112 29.9617C38.7933 31.2016 39.98 30.9873 40.8718 30.1511C40.9157 30.1097 40.9312 30.0469 40.9138 29.989L40.8493 29.7742C41.7998 30.037 43.1514 28.1966 43.5446 27.2039C43.5774 27.1206 43.5588 27.0279 43.5085 26.9539C43.4219 26.8265 43.3123 26.6337 43.407 26.5886C44.1452 26.2401 45.0003 23.1717 43.28 22.0398ZM28.6101 22.1082C28.5519 22.019 28.4344 21.9813 28.3454 22.0398C26.6252 23.1717 27.4803 26.2401 28.2185 26.5886C28.3133 26.6336 28.2036 26.8264 28.1169 26.9539C28.0665 27.028 28.0489 27.1205 28.0818 27.2039C28.475 28.1966 29.8257 30.037 30.7761 29.7742L30.7116 29.989C30.6943 30.0468 30.7097 30.1097 30.7536 30.1511C31.6455 30.9873 32.8321 31.2016 33.3142 29.9617C33.809 28.6883 31.9937 25.4729 30.9284 23.9461C30.0667 23.4622 29.0445 22.7731 28.6101 22.1082Z" fill="url(#paint3_linear_120_3133)"/>
</mask>
<g mask="url(#mask1_120_3133)">
<path d="M42.7357 27.0138C43.4849 26.9593 43.8991 26.2306 44.0126 25.8731L44.7107 24.2727C44.4723 24.46 43.7706 25.3394 43.0422 25.6347C42.4123 25.8901 41.5667 25.7369 41.4418 25.6347L41.0502 26.8436C41.2999 26.923 41.9866 27.0683 42.7357 27.0138Z" fill="url(#paint4_linear_120_3133)"/>
<path d="M40.5564 29.7509C41.1224 30.0473 41.7485 29.7061 41.9908 29.4985L43.2126 28.6543C42.9564 28.6829 42.0549 29.0042 41.396 28.8913C40.8261 28.7936 40.2835 28.3039 40.239 28.1741L39.4141 28.8725C39.5591 29.0418 39.9904 29.4546 40.5564 29.7509Z" fill="url(#paint5_linear_120_3133)"/>
<path d="M38.4528 30.9423C38.9188 31.3794 39.6133 31.2183 39.9024 31.0831L41.3057 30.5969C41.0511 30.5558 40.0965 30.6241 39.4919 30.3388C38.969 30.0921 38.5773 29.475 38.5692 29.338L37.5874 29.7901C37.6817 29.992 37.9868 30.5052 38.4528 30.9423Z" fill="url(#paint6_linear_120_3133)"/>
<path d="M43.9394 22.4359L43.2997 21.9181L41.8561 22.1266C41.6003 22.6483 41.2027 23.7247 41.658 23.8563C42.1133 23.9879 43.3686 22.9642 43.9394 22.4359Z" fill="#15B2D7"/>
<path d="M41.4418 26.8266C41.6731 26.9527 43.0888 26.8301 43.4165 26.6052C43.6328 26.6909 43.6969 27.0965 43.4165 27.2522C43.1424 27.4044 41.8711 27.2905 41.3056 27.2522C41.2349 27.0894 41.2722 26.734 41.4418 26.8266Z" fill="#15B2D7"/>
<path d="M40.0594 28.9448C40.0696 29.13 40.6028 29.717 40.9528 29.8198C40.9826 29.9792 40.9286 30.1225 40.6927 30.1295C40.4958 30.1354 39.9265 29.3804 39.8732 29.0616C39.9481 28.9519 40.0519 28.8089 40.0594 28.9448Z" fill="#15B2D7"/>
<path d="M28.8927 27.0138C28.1436 26.9593 27.7293 26.2306 27.6158 25.8731L26.9177 24.2727C27.1561 24.46 27.8578 25.3394 28.5862 25.6347C29.2162 25.8901 30.0618 25.7369 30.1866 25.6347L30.5782 26.8436C30.3285 26.923 29.6418 27.0683 28.8927 27.0138Z" fill="url(#paint7_linear_120_3133)"/>
<path d="M31.0722 29.7509C30.5062 30.0473 29.8802 29.7061 29.6379 29.4985L28.416 28.6543C28.6723 28.6829 29.5737 29.0042 30.2327 28.8913C30.8025 28.7936 31.3452 28.3039 31.3897 28.1741L32.2145 28.8725C32.0696 29.0418 31.6382 29.4546 31.0722 29.7509Z" fill="url(#paint8_linear_120_3133)"/>
<path d="M33.1756 30.9423C32.7096 31.3794 32.0151 31.2183 31.726 31.0831L30.3228 30.5969C30.5773 30.5558 31.5319 30.6241 32.1365 30.3388C32.6594 30.0921 33.0512 29.475 33.0593 29.338L34.041 29.7901C33.9467 29.992 33.6416 30.5052 33.1756 30.9423Z" fill="url(#paint9_linear_120_3133)"/>
<path d="M27.689 22.4359L28.3287 21.9181L29.7723 22.1266C30.0281 22.6483 30.4258 23.7247 29.9705 23.8563C29.5151 23.9879 28.2598 22.9642 27.689 22.4359Z" fill="#15B2D7"/>
<path d="M30.1866 26.8266C29.9553 26.9527 28.5397 26.8301 28.2119 26.6052C27.9956 26.6909 27.9315 27.0965 28.212 27.2522C28.486 27.4044 29.7574 27.2905 30.3228 27.2522C30.3935 27.0894 30.3563 26.734 30.1866 26.8266Z" fill="#15B2D7"/>
<path d="M31.5691 28.9448C31.5588 29.13 31.0256 29.717 30.6756 29.8198C30.6458 29.9792 30.6998 30.1225 30.9357 30.1295C31.1326 30.1354 31.7019 29.3804 31.7552 29.0616C31.6803 28.9519 31.5766 28.8089 31.5691 28.9448Z" fill="#15B2D7"/>
<path d="M41.4744 28.3763C40.2475 30.4171 36.6459 32.1216 35.7441 32.1216C34.8422 32.1216 30.8703 30.556 30.0009 28.3763C29.1315 26.1965 28.8804 21.9453 30.0009 19.0277C30.6215 18.8775 32.6551 18.845 33.0804 19.0568C33.6889 18.4365 35.1778 17.6499 35.7505 17.6499C36.3233 17.6499 37.9027 18.4321 38.3949 19.0568C38.8202 18.845 41.06 18.8974 41.4744 19.0277C42.6118 21.9623 42.7013 26.3355 41.4744 28.3763Z" fill="#8BAEC0" style="mix-blend-mode:multiply"/>
</g>
<path d="M41.0375 28.3229C39.9009 30.175 36.5644 31.7219 35.7289 31.7219C34.8934 31.7219 31.2138 30.3011 30.4084 28.3229C29.6029 26.3446 29.3594 21.0731 30.4084 19.8385C30.4084 19.8385 33.2077 18.6223 35.7349 18.6223C38.2621 18.6223 41.0375 19.8385 41.0375 19.8385C42.1524 21.1084 42.1741 26.4707 41.0375 28.3229Z" fill="#CA4B00"/>
<path d="M35.7354 17.9631C34.4575 17.9631 33.1144 18.2702 32.0947 18.5754C31.5844 18.7282 31.1533 18.8817 30.8496 18.9963C30.6978 19.0537 30.5774 19.1014 30.4951 19.135C30.454 19.1518 30.4219 19.165 30.4004 19.1741C30.3898 19.1785 30.3815 19.1825 30.376 19.1848C30.3736 19.1858 30.3715 19.1862 30.3701 19.1868L30.3682 19.1877C30.3681 19.1878 30.3678 19.1881 30.3799 19.2161L30.3672 19.1877L30.3457 19.1975L30.3301 19.2161C30.0485 19.5477 29.8644 20.1335 29.752 20.8342C29.6386 21.5406 29.5951 22.3837 29.6104 23.2473C29.639 24.8633 29.8717 26.5703 30.2383 27.6067L30.3135 27.8049C30.5231 28.3197 30.9166 28.792 31.3945 29.2092C31.8732 29.627 32.4416 29.9944 33.0088 30.2981C33.5762 30.6019 34.1449 30.8432 34.625 31.009C35.1005 31.1733 35.5011 31.2677 35.7285 31.2678C35.9582 31.2678 36.3396 31.1636 36.7881 30.9895C37.2412 30.8136 37.777 30.5607 38.3213 30.2493C39.3385 29.6673 40.4005 28.8744 41.0088 27.9963L41.125 27.8196C41.4189 27.3406 41.6332 26.6434 41.7744 25.8557C41.916 25.0659 41.9857 24.1763 41.9844 23.3059C41.983 22.4355 41.9102 21.5808 41.7676 20.8625C41.6259 20.1493 41.4117 19.5529 41.1143 19.2141L41.0996 19.1975L41.0781 19.1887V19.1877H41.0762C41.0748 19.1871 41.0729 19.1859 41.0703 19.1848C41.0648 19.1824 41.0565 19.1786 41.0459 19.1741C41.0246 19.165 40.9929 19.1518 40.9521 19.135C40.8706 19.1014 40.7513 19.0537 40.6006 18.9963C40.2991 18.8816 39.8708 18.7292 39.3633 18.5764C38.3496 18.2712 37.0132 17.9632 35.7354 17.9631Z" fill="url(#paint10_linear_120_3133)" stroke="url(#paint11_linear_120_3133)" stroke-width="0.204306"/>
<mask id="mask2_120_3133" style="mask-type:alpha" maskUnits="userSpaceOnUse" x="29" y="18" width="13" height="14">
<path d="M41.0375 27.7662C39.9009 29.6184 36.5644 31.1653 35.7289 31.1653C34.8934 31.1653 31.2138 29.7445 30.4084 27.7662C29.6029 25.788 29.3594 20.5164 30.4084 19.2819C30.4084 19.2819 33.2077 18.0657 35.7349 18.0657C38.2621 18.0657 41.0375 19.2819 41.0375 19.2819C42.1524 20.5517 42.1741 25.9141 41.0375 27.7662Z" fill="url(#paint12_linear_120_3133)"/>
</mask>
<g mask="url(#mask2_120_3133)">
<path d="M35.6873 17.1731V21.3273H37.2707L38.7349 17.786L35.6873 17.1731Z" fill="#FFFFCB"/>
<g filter="url(#filter2_i_120_3133)">
<path d="M39.6683 26.7966C38.8367 28.1661 36.3953 29.3098 35.784 29.3098C35.1727 29.3098 32.4802 28.2593 31.8909 26.7966C31.3016 25.334 31.1233 21.4363 31.8909 20.5235C31.8909 20.5235 33.9392 19.6243 35.7884 19.6243C37.6375 19.6243 39.6684 20.5235 39.6684 20.5235C40.4841 21.4624 40.5 25.4272 39.6683 26.7966Z" fill="url(#paint13_linear_120_3133)"/>
</g>
<path d="M35.7881 19.4387C34.8373 19.4388 33.8432 19.6697 33.0928 19.8967C32.7163 20.0106 32.398 20.1237 32.1738 20.2092C32.0618 20.252 31.9731 20.2886 31.9121 20.3137C31.8816 20.3263 31.8579 20.3362 31.8418 20.343C31.8338 20.3464 31.8275 20.349 31.8232 20.3508C31.8212 20.3517 31.8195 20.3523 31.8184 20.3528L31.8174 20.3538H31.8164L31.7764 20.3713L31.749 20.4045C31.5223 20.6744 31.3834 21.1332 31.3008 21.6536C31.2166 22.1841 31.185 22.8146 31.1963 23.4573C31.2159 24.5766 31.3663 25.7629 31.6094 26.553L31.7188 26.8665C31.8808 27.2685 32.1822 27.6308 32.5391 27.9456C32.8973 28.2615 33.3211 28.5376 33.7412 28.7649C34.1616 28.9924 34.5828 29.1736 34.9395 29.2981C35.2884 29.4199 35.5974 29.4954 35.7842 29.4954C35.9752 29.4953 36.2712 29.4113 36.5996 29.2825C36.9368 29.1502 37.3337 28.9605 37.7363 28.7278C38.4854 28.2947 39.28 27.6979 39.7393 27.0276L39.8271 26.8928C40.0525 26.5217 40.2122 25.9909 40.3164 25.4036C40.4213 24.8122 40.4727 24.1473 40.4717 23.4983C40.4707 22.8496 40.4175 22.2106 40.3115 21.6711C40.2072 21.1405 40.0462 20.6751 39.8086 20.4016L39.7812 20.3704L39.7432 20.3538L39.7412 20.3528C39.7401 20.3523 39.7382 20.3517 39.7363 20.3508C39.7322 20.349 39.7264 20.3463 39.7188 20.343C39.7028 20.3362 39.6787 20.3263 39.6484 20.3137C39.5879 20.2886 39.4999 20.253 39.3887 20.2102C39.1661 20.1246 38.85 20.0107 38.4756 19.8967C37.7293 19.6697 36.7391 19.4387 35.7881 19.4387Z" stroke="url(#paint14_linear_120_3133)" stroke-width="0.371094"/>
<path d="M35.7881 19.717C34.8768 19.7171 33.9123 19.9387 33.1729 20.1624C32.8038 20.274 32.4917 20.3863 32.2725 20.47C32.1631 20.5117 32.0764 20.5463 32.0176 20.5706C31.9884 20.5826 31.9663 20.5924 31.9512 20.5989H31.9502C31.7821 20.8099 31.6559 21.1952 31.5762 21.6975C31.4953 22.2072 31.4635 22.8202 31.4746 23.4524C31.494 24.5612 31.643 25.7154 31.873 26.4661L31.9766 26.762C32.1165 27.1094 32.3849 27.4378 32.7236 27.7366C33.0617 28.0347 33.4659 28.2994 33.873 28.5198C34.2802 28.7401 34.6882 28.9157 35.0312 29.0354C35.3781 29.1565 35.6483 29.217 35.7842 29.217C35.9179 29.217 36.1707 29.1521 36.498 29.0237C36.8211 28.8969 37.2051 28.7129 37.5967 28.4866C38.3341 28.0602 39.0853 27.4895 39.5088 26.8723L39.5889 26.7483C39.788 26.4204 39.941 25.9293 40.043 25.3547C40.1446 24.782 40.1943 24.1336 40.1934 23.4983C40.1923 22.863 40.1399 22.2427 40.0381 21.7249C39.9378 21.2145 39.7925 20.8175 39.6113 20.5989H39.6084C39.5934 20.5924 39.5712 20.5827 39.542 20.5706C39.4836 20.5463 39.3977 20.5117 39.2891 20.47C39.0714 20.3863 38.7614 20.274 38.3945 20.1624C37.6594 19.9387 36.6993 19.717 35.7881 19.717Z" stroke="url(#paint15_linear_120_3133)" stroke-width="0.185547"/>
<g filter="url(#filter3_d_120_3133)">
<path d="M35.8044 26.4153C34.6061 26.4153 33.1581 26.2322 32.6921 25.6996C32.2261 25.167 32.0597 22.7431 32.3759 22.4269C32.6921 22.3223 33.9903 23.0839 33.9903 23.6383C34.0488 22.7381 34.9584 21.8481 35.5699 21.4116C35.7109 21.311 35.898 21.311 36.039 21.4116C36.6505 21.8481 37.5601 22.7381 37.6186 23.6383C37.6186 23.1745 38.8334 22.3404 39.233 22.4269C39.5492 22.7431 39.3828 25.167 38.9168 25.6996C38.4508 26.2322 37.0028 26.4153 35.8044 26.4153Z" fill="url(#paint16_linear_120_3133)"/>
<path d="M36.0322 21.2815C35.8645 21.1978 35.6632 21.2119 35.5068 21.3235L35.2607 21.511C35.0048 21.7189 34.7263 21.9842 34.4873 22.2834C34.2559 22.5733 34.0582 22.9019 33.9551 23.2454C33.9276 23.2056 33.8973 23.1665 33.8652 23.1292C33.7305 22.972 33.5496 22.8224 33.3623 22.6956C33.1749 22.5686 32.9764 22.4615 32.8018 22.3928C32.7145 22.3585 32.6305 22.3322 32.5557 22.3186C32.5016 22.3088 32.4449 22.3044 32.3926 22.3118L32.3418 22.3235L32.3174 22.3313L32.2988 22.3499C32.2375 22.4112 32.1996 22.5084 32.1738 22.6096C32.1469 22.7154 32.1292 22.8451 32.1182 22.9885C32.096 23.2759 32.1013 23.6314 32.1318 23.9915C32.1624 24.3517 32.218 24.7205 32.2959 25.0344C32.3629 25.3044 32.4502 25.5481 32.5615 25.7083L32.6104 25.7717C32.7421 25.9222 32.9366 26.0418 33.1641 26.137C33.3928 26.2327 33.6628 26.3065 33.9521 26.3635C34.3864 26.4491 34.8718 26.4966 35.3418 26.5149L35.8047 26.5237C36.4084 26.5237 37.0773 26.4776 37.6562 26.3635C37.9456 26.3065 38.2155 26.2327 38.4443 26.137C38.6153 26.0654 38.7676 25.9798 38.8887 25.8782L38.999 25.7717C39.1341 25.6173 39.236 25.3427 39.3125 25.0344C39.3904 24.7205 39.446 24.3517 39.4766 23.9915C39.5071 23.6314 39.5133 23.2759 39.4912 22.9885C39.4802 22.845 39.4615 22.7154 39.4346 22.6096C39.4088 22.5084 39.3709 22.4112 39.3096 22.3499L39.2871 22.3274L39.2559 22.3206C39.1848 22.3052 39.1051 22.3114 39.0264 22.3284C38.9462 22.3457 38.8587 22.3759 38.7695 22.4143C38.5908 22.4913 38.3938 22.607 38.2119 22.7385C38.0303 22.8699 37.8587 23.0206 37.7314 23.1711C37.7066 23.2005 37.6834 23.2312 37.6611 23.262C37.5596 22.9121 37.3565 22.5782 37.1211 22.2834C36.8027 21.8847 36.4148 21.5464 36.1025 21.3235L36.0322 21.2815Z" stroke="#FF421F" stroke-width="0.217605"/>
</g>
<path fill-rule="evenodd" clip-rule="evenodd" d="M32.6921 25.3733C33.1581 25.9059 34.6061 26.089 35.8044 26.089C37.0028 26.089 38.4508 25.9059 38.9168 25.3733C39.1997 25.05 39.3722 24.0295 39.3933 23.2068C39.4176 24.0615 39.2387 25.3318 38.9168 25.6997C38.4508 26.2323 37.0028 26.4154 35.8044 26.4154C34.6061 26.4154 33.1581 26.2323 32.6921 25.6997C32.3702 25.3318 32.1913 24.0615 32.2156 23.2068C32.2367 24.0295 32.4092 25.05 32.6921 25.3733Z" fill="#FFDCC6" style="mix-blend-mode:multiply"/>
<mask id="mask3_120_3133" style="mask-type:alpha" maskUnits="userSpaceOnUse" x="32" y="21" width="8" height="6">
<path d="M35.8044 26.4153C34.6061 26.4153 33.1581 26.2322 32.6921 25.6996C32.2261 25.167 32.0597 22.7431 32.3759 22.4269C32.6921 22.3223 33.9903 23.0839 33.9903 23.6383C34.0488 22.7381 34.9584 21.8481 35.5699 21.4116C35.7109 21.311 35.898 21.311 36.039 21.4116C36.6505 21.8481 37.5601 22.7381 37.6186 23.6383C37.6186 23.1745 38.8334 22.3404 39.233 22.4269C39.5492 22.7431 39.3828 25.167 38.9168 25.6996C38.4508 26.2322 37.0028 26.4153 35.8044 26.4153Z" fill="url(#paint17_linear_120_3133)"/>
</mask>
<g mask="url(#mask3_120_3133)">
<path fill-rule="evenodd" clip-rule="evenodd" d="M39.3885 23.6692C39.3711 23.3436 39.3205 23.0947 39.233 23.0072C38.9012 22.9354 38.0699 23.3982 37.7455 23.9058C37.7221 23.9424 37.5731 23.9259 37.562 23.8839C37.3436 23.0544 36.5712 22.1353 36.0334 21.7047C35.8982 21.5964 35.7107 21.5964 35.5755 21.7047C35.0353 22.1371 34.2585 23.0625 34.044 23.8948C34.0332 23.9368 33.884 23.9557 33.8596 23.9199C33.5193 23.4198 32.6389 22.9202 32.3759 23.0072C32.2884 23.0947 32.2378 23.3436 32.2204 23.6692C32.1941 23.0787 32.2412 22.5616 32.3759 22.4269C32.6921 22.3223 33.9903 23.0839 33.9903 23.6384C34.0489 22.7355 34.9639 21.6141 35.5755 21.1244C35.7107 21.0162 35.8982 21.0162 36.0334 21.1244C36.645 21.6141 37.56 22.7355 37.6186 23.6384C37.6186 23.1746 38.8334 22.3405 39.233 22.4269C39.3677 22.5616 39.4148 23.0787 39.3885 23.6692Z" fill="#FFFF85"/>
<path d="M34.9215 26.854C34.1813 25.244 34.1105 22.1636 34.9709 21.2461L31.5801 21.2162L31.7301 26.8258L34.9215 26.854Z" fill="#FFDCC6" style="mix-blend-mode:multiply"/>
<path d="M33.9191 27.0893C33.0165 25.5644 32.6279 22.5078 33.3889 21.5063L30.0131 21.8269L30.7418 27.391L33.9191 27.0893Z" fill="#FFDCC6" style="mix-blend-mode:multiply"/>
<path d="M37.0926 26.854C37.8328 25.244 37.9036 22.1636 37.0432 21.2461L40.4341 21.2162L40.2841 26.8258L37.0926 26.854Z" fill="#FFDCC6" style="mix-blend-mode:multiply"/>
<path d="M37.8597 26.9999C38.6852 25.432 38.9212 22.3598 38.1113 21.3975L41.4989 21.5496L41.048 27.1431L37.8597 26.9999Z" fill="#FFDCC6" style="mix-blend-mode:multiply"/>
<path d="M36.071 22.1678C35.9167 22.0624 35.7136 22.0676 35.5627 22.1775L35.4923 22.241C35.3583 22.3895 35.1903 22.5819 35.0296 22.7865C34.9313 22.9117 34.8458 23.0305 34.7735 23.1366L34.5974 23.4108C34.5141 23.5484 34.5151 23.7214 34.6146 23.8534C34.6999 23.9664 34.8349 24.1276 35.0359 24.3285C35.1362 24.4289 35.2315 24.5176 35.3183 24.5943L35.5496 24.7884C35.7056 24.912 35.9217 24.9094 36.0765 24.7863C36.2141 24.6769 36.4006 24.5188 36.5909 24.3285C36.7953 24.1241 36.9385 23.9477 37.0267 23.8292C37.1128 23.7132 37.13 23.5609 37.0626 23.4301C36.9884 23.2865 36.8551 23.0639 36.631 22.7858C36.4525 22.5644 36.2795 22.3739 36.1435 22.2306L36.071 22.1678Z" fill="url(#paint18_linear_120_3133)" stroke="#740015" stroke-width="0.143172"/>
<mask id="mask4_120_3133" style="mask-type:alpha" maskUnits="userSpaceOnUse" x="34" y="22" width="4" height="3">
<path d="M36.9693 23.7871C37.0402 23.6918 37.0529 23.5685 36.9984 23.463C36.9265 23.3237 36.7961 23.1051 36.575 22.8309C36.398 22.6112 36.2268 22.4218 36.0917 22.2796C35.9407 22.1207 35.692 22.1259 35.5452 22.2887C35.4118 22.4365 35.2455 22.6279 35.0863 22.8309C34.892 23.0783 34.7478 23.3002 34.6585 23.4476C34.5891 23.5622 34.5914 23.7033 34.6721 23.8103C34.7554 23.9205 34.8876 24.0792 35.0863 24.2779C35.2851 24.4767 35.4639 24.629 35.5945 24.7325C35.7238 24.8351 35.9025 24.8334 36.0317 24.7306C36.1679 24.6224 36.3526 24.466 36.5407 24.2779C36.7423 24.0763 36.883 23.903 36.9693 23.7871Z" fill="#D9D9D9"/>
</mask>
<g mask="url(#mask4_120_3133)">
<g filter="url(#filter4_d_120_3133)">
<path d="M37.0348 23.7638C37.1074 23.6662 37.1204 23.5399 37.0646 23.4318C36.9909 23.2891 36.8574 23.0652 36.6309 22.7842C36.4495 22.5592 36.2741 22.3652 36.1357 22.2195C35.9811 22.0567 35.7263 22.0621 35.5759 22.2289C35.4393 22.3802 35.269 22.5764 35.1058 22.7842C34.9068 23.0378 34.7591 23.265 34.6676 23.416C34.5965 23.5334 34.5988 23.678 34.6816 23.7875C34.7668 23.9005 34.9023 24.0631 35.1058 24.2666C35.3095 24.4703 35.4926 24.6262 35.6264 24.7323C35.7589 24.8374 35.9419 24.8356 36.0743 24.7304C36.2138 24.6195 36.403 24.4593 36.5957 24.2666C36.8023 24.06 36.9464 23.8825 37.0348 23.7638Z" fill="#D9D9D9"/>
<path d="M36.1767 22.1803C36.0213 22.0169 35.7779 22.0023 35.6043 22.1285L35.5345 22.1914C35.3974 22.3434 35.2257 22.5408 35.0615 22.75C34.861 23.0055 34.7119 23.2343 34.6196 23.3867C34.5476 23.5054 34.5403 23.6503 34.6051 23.7713L34.6368 23.821C34.7237 23.9361 34.8604 24.1013 35.0656 24.3065C35.1683 24.4091 35.2663 24.4995 35.355 24.5779L35.5918 24.7761C35.7452 24.8976 35.9566 24.8952 36.109 24.774C36.2497 24.6622 36.4413 24.5011 36.6359 24.3065C36.8444 24.0979 36.9901 23.9183 37.0799 23.7976L37.1303 23.7057C37.1674 23.6098 37.1646 23.5019 37.1151 23.406C37.0397 23.26 36.9035 23.0326 36.6746 22.7486L36.4094 22.4351C36.325 22.3397 36.2463 22.2536 36.1767 22.1803Z" stroke="#1F1F1F" stroke-width="0.112488"/>
</g>
<path d="M36.1532 22.2024C35.9886 22.0294 35.7178 22.0353 35.558 22.2121C35.4212 22.3637 35.25 22.5609 35.0864 22.7694C34.9865 22.8966 34.8995 23.0172 34.826 23.125L34.6472 23.4033C34.5807 23.5129 34.5736 23.6455 34.6327 23.7561L34.6624 23.8024C34.7483 23.9162 34.8844 24.0796 35.0884 24.2837C35.1906 24.3858 35.2874 24.4764 35.3757 24.5544L35.6112 24.7512C35.7528 24.8635 35.9485 24.8614 36.0897 24.7491C36.2297 24.6378 36.4197 24.4771 36.6131 24.2837C36.8203 24.0765 36.9653 23.8985 37.0544 23.7789C37.1323 23.6742 37.1471 23.5373 37.0868 23.4205C37.0124 23.2764 36.8779 23.0509 36.6504 22.7687C36.4685 22.5431 36.2919 22.3485 36.1532 22.2024Z" fill="url(#paint19_linear_120_3133)" stroke="#AE060C" stroke-width="0.0492134"/>
<mask id="mask5_120_3133" style="mask-type:alpha" maskUnits="userSpaceOnUse" x="34" y="22" width="4" height="3">
<path d="M37.0348 23.7638C37.1074 23.6662 37.1204 23.5399 37.0646 23.4318C36.9909 23.2891 36.8574 23.0652 36.6309 22.7842C36.4495 22.5592 36.2741 22.3652 36.1357 22.2195C35.9811 22.0567 35.7263 22.0621 35.5759 22.2289C35.4393 22.3802 35.269 22.5764 35.1058 22.7842C34.9068 23.0378 34.7591 23.265 34.6676 23.416C34.5965 23.5334 34.5988 23.678 34.6816 23.7875C34.7668 23.9005 34.9023 24.0631 35.1058 24.2666C35.3095 24.4703 35.4926 24.6262 35.6264 24.7323C35.7589 24.8374 35.9419 24.8356 36.0743 24.7304C36.2138 24.6195 36.403 24.4593 36.5957 24.2666C36.8023 24.06 36.9464 23.8825 37.0348 23.7638Z" fill="#D9D9D9"/>
</mask>
<g mask="url(#mask5_120_3133)">
<rect x="34.4746" y="22.0029" width="1.32876" height="1.53265" fill="#FF6C88"/>
<rect x="35.8032" y="23.5354" width="1.32876" height="1.53265" fill="#CA134A"/>
<rect x="35.9712" y="22.0029" width="1.32876" height="1.53265" fill="#D51342"/>
<path d="M36.0483 21.8621H35.6546L35.7952 22.6706H35.9077L36.0483 21.8621Z" fill="url(#paint20_linear_120_3133)"/>
<path d="M36.0483 25.0962H35.6546L35.7952 24.2877H35.9077L36.0483 25.0962Z" fill="url(#paint21_linear_120_3133)"/>
<path d="M37.3982 23.3455L37.3982 23.7392L36.5897 23.5986L36.5897 23.4861L37.3982 23.3455Z" fill="url(#paint22_linear_120_3133)"/>
<path d="M34.3469 23.3455L34.3469 23.7392L35.1554 23.5986L35.1554 23.4861L34.3469 23.3455Z" fill="url(#paint23_linear_120_3133)"/>
<path d="M36.6354 23.4757C36.6354 23.4757 36.5992 23.3508 36.3392 23.0282C36.141 22.7823 36.0066 22.6093 35.9288 22.5336C35.9046 22.51 35.7917 22.5196 35.7706 22.5336C35.7495 22.5477 35.5879 22.7372 35.3595 23.0282C35.1311 23.3192 35.057 23.4898 35.057 23.4898L35.0413 23.6093C35.0869 23.6764 35.1836 23.8047 35.3595 23.9805C35.5443 24.1653 35.7028 24.2889 35.7827 24.3475C35.8182 24.3735 35.9147 24.358 35.9147 24.358C35.9147 24.358 36.0731 24.224 36.3166 23.9805C36.4721 23.825 36.5761 23.6864 36.6283 23.6128C36.6579 23.5712 36.6354 23.4757 36.6354 23.4757Z" fill="url(#paint24_linear_120_3133)"/>
<path d="M36.6182 23.4395C36.6165 23.4567 36.612 23.4734 36.6035 23.4854C36.5512 23.559 36.4473 23.6973 36.292 23.8525C36.1652 23.9794 36.0615 24.0767 35.9912 24.1406C35.926 24.2 35.829 24.2718 35.7578 24.2197C35.6778 24.1611 35.5197 24.0372 35.335 23.8525C35.2216 23.7391 35.1411 23.6454 35.086 23.5752C35.0668 23.5507 35.0521 23.5237 35.041 23.4951V23.6094C35.0866 23.6764 35.1836 23.8047 35.3594 23.9805C35.5441 24.1652 35.7023 24.2891 35.7822 24.3477C35.8177 24.3736 35.9151 24.3584 35.9151 24.3584C35.918 24.3559 36.0752 24.2217 36.3164 23.9805C36.472 23.8249 36.5757 23.6859 36.628 23.6123C36.6574 23.5706 36.6348 23.4756 36.6348 23.4756C36.6343 23.4741 36.6294 23.463 36.6182 23.4395Z" fill="#EBA9B1" style="mix-blend-mode:overlay"/>
<path d="M35.7672 22.5296C35.7922 22.5059 35.9048 22.5148 35.9264 22.5286C35.9342 22.5338 35.9602 22.5641 36.0026 22.6136C35.9476 22.5779 35.8784 22.554 35.8424 22.5931C35.7635 22.67 35.6407 22.8302 35.4391 23.0794C35.175 23.4059 35.0492 23.5696 35.0485 23.6019C35.0484 23.6104 35.055 23.6209 35.0602 23.6341C35.0577 23.6306 35.0547 23.6276 35.0524 23.6243C35.0229 23.5826 35.0465 23.4857 35.0465 23.4857C35.0487 23.4789 35.0916 23.351 35.3493 23.0325C35.5513 22.7829 35.6882 22.6066 35.7672 22.5296Z" fill="url(#paint25_linear_120_3133)"/>
<ellipse cx="1.79052" cy="1.40331" rx="1.79052" ry="1.40331" transform="matrix(-1 0 0 1 37.6257 20.5264)" fill="#B9ABA0" style="mix-blend-mode:overlay"/>
<g filter="url(#filter5_i_120_3133)">
<path d="M34.6686 23.7638C34.596 23.6662 34.583 23.5399 34.6388 23.4318C34.7125 23.2891 34.846 23.0652 35.0725 22.7842C35.2539 22.5592 35.4293 22.3652 35.5676 22.2195C35.7223 22.0567 35.977 22.0621 36.1275 22.2289C36.2641 22.3802 36.4344 22.5764 36.5976 22.7842C36.7966 23.0378 36.9443 23.265 37.0358 23.416C37.1069 23.5334 37.1045 23.678 37.0218 23.7875C36.9366 23.9005 36.8011 24.0631 36.5976 24.2666C36.3939 24.4703 36.2107 24.6262 36.077 24.7323C35.9445 24.8374 35.7615 24.8356 35.6291 24.7304C35.4896 24.6195 35.3004 24.4593 35.1076 24.2666C34.9011 24.06 34.757 23.8825 34.6686 23.7638Z" fill="#D9D9D9" fill-opacity="0.01"/>
</g>
</g>
</g>
<path d="M38.0685 22.0483C38.0079 23.7771 37.241 25.3694 36.884 25.3864C36.1814 25.3547 35.745 22.7316 35.7399 21.7271C35.7299 19.7669 38.129 20.3195 38.0685 22.0483Z" fill="url(#paint26_linear_120_3133)" style="mix-blend-mode:lighten"/>
</g>
</g>
<ellipse cx="9.14811" cy="5.67754" rx="9.14811" ry="5.67754" transform="matrix(-1 0 0 1 44.9832 14.0063)" fill="#AFAFAF" style="mix-blend-mode:overlay"/>
</g>
<path d="M50.8885 26.8567V22.9792H52.676C52.9583 22.9792 53.2003 23.0287 53.402 23.1277C53.6073 23.223 53.765 23.3624 53.875 23.5457C53.985 23.729 54.04 23.9472 54.04 24.2002C54.04 24.4495 53.9832 24.6677 53.8695 24.8547C53.7595 25.0417 53.6018 25.1865 53.3965 25.2892C53.1948 25.3919 52.9547 25.4432 52.676 25.4432H51.653V26.8567H50.8885ZM51.653 24.8107H52.544C52.7823 24.8107 52.9638 24.763 53.0885 24.6677C53.2132 24.5724 53.2755 24.4202 53.2755 24.2112C53.2755 24.0022 53.2132 23.85 53.0885 23.7547C52.9675 23.6594 52.786 23.6117 52.544 23.6117H51.653V24.8107ZM55.046 26.8567V24.0902H55.695V24.7722H55.7335C55.7995 24.5705 55.9095 24.4055 56.0635 24.2772C56.2212 24.1452 56.4137 24.0719 56.641 24.0572L56.993 24.0352L57.0645 24.7447L56.52 24.7887C56.2927 24.807 56.1167 24.884 55.992 25.0197C55.871 25.1517 55.8105 25.3112 55.8105 25.4982V26.8567H55.046ZM57.8829 23.5512V22.7812H58.7629V23.5512H57.8829ZM57.9489 26.8567V24.0902H58.7134V26.8567H57.9489ZM59.7852 26.8567V26.3562L61.4352 24.4807L61.4627 24.7172H59.8182V24.0902H62.1887V24.5742L60.5167 26.4717L60.4947 26.2297H62.2492V26.8567H59.7852ZM64.6975 26.9117C64.3418 26.9117 64.0411 26.8549 63.7955 26.7412C63.5498 26.6239 63.3646 26.457 63.24 26.2407C63.1153 26.0244 63.053 25.7677 63.053 25.4707C63.053 25.1994 63.1098 24.9555 63.2235 24.7392C63.3408 24.5229 63.5095 24.3524 63.7295 24.2277C63.9495 24.0994 64.2135 24.0352 64.5215 24.0352C64.7965 24.0352 65.0366 24.0939 65.242 24.2112C65.4473 24.3249 65.605 24.4899 65.715 24.7062C65.8286 24.9189 65.8855 25.1774 65.8855 25.4817V25.7127H63.647V25.2342H65.33L65.2475 25.3387C65.2475 25.0784 65.1833 24.8877 65.055 24.7667C64.9303 24.6457 64.7543 24.5852 64.527 24.5852C64.3803 24.5852 64.2501 24.6145 64.1365 24.6732C64.0228 24.7319 63.933 24.8199 63.867 24.9372C63.801 25.0509 63.768 25.1957 63.768 25.3717V25.4597C63.768 25.6614 63.8046 25.8245 63.878 25.9492C63.9513 26.0739 64.0595 26.1655 64.2025 26.2242C64.3455 26.2829 64.5215 26.3122 64.7305 26.3122C64.8735 26.3122 65.0201 26.2957 65.1705 26.2627C65.3245 26.2297 65.4638 26.1692 65.5885 26.0812L65.803 26.6092C65.649 26.7192 65.473 26.798 65.275 26.8457C65.077 26.8897 64.8845 26.9117 64.6975 26.9117ZM68.9933 26.8567V22.9792H70.7808C71.0631 22.9792 71.3051 23.0287 71.5068 23.1277C71.7121 23.223 71.8698 23.3624 71.9798 23.5457C72.0898 23.729 72.1448 23.9472 72.1448 24.2002C72.1448 24.4495 72.088 24.6677 71.9743 24.8547C71.8643 25.0417 71.7066 25.1865 71.5013 25.2892C71.2996 25.3919 71.0595 25.4432 70.7808 25.4432H69.7578V26.8567H68.9933ZM69.7578 24.8107H70.6488C70.8871 24.8107 71.0686 24.763 71.1933 24.6677C71.318 24.5724 71.3803 24.4202 71.3803 24.2112C71.3803 24.0022 71.318 23.85 71.1933 23.7547C71.0723 23.6594 70.8908 23.6117 70.6488 23.6117H69.7578V24.8107ZM74.0656 26.9117C73.8603 26.9117 73.6751 26.8732 73.5101 26.7962C73.3488 26.7192 73.2205 26.6147 73.1251 26.4827C73.0335 26.3507 72.9876 26.2022 72.9876 26.0372C72.9876 25.8355 73.0481 25.6705 73.1691 25.5422C73.2938 25.4102 73.4808 25.313 73.7301 25.2507C73.9831 25.1884 74.3021 25.1572 74.6871 25.1572H75.1106V25.6247H74.7366C74.568 25.6247 74.4213 25.6302 74.2966 25.6412C74.172 25.6522 74.0675 25.6724 73.9831 25.7017C73.9025 25.7274 73.8401 25.764 73.7961 25.8117C73.7558 25.8594 73.7356 25.9217 73.7356 25.9987C73.7356 26.1234 73.7833 26.2132 73.8786 26.2682C73.9776 26.3232 74.1041 26.3507 74.2581 26.3507C74.3901 26.3507 74.513 26.3195 74.6266 26.2572C74.7403 26.1949 74.832 26.1124 74.9016 26.0097C74.9713 25.907 75.0061 25.797 75.0061 25.6797V25.0967C75.0061 24.9134 74.9456 24.7887 74.8246 24.7227C74.7036 24.653 74.5276 24.6182 74.2966 24.6182C74.1463 24.6182 73.9905 24.6384 73.8291 24.6787C73.6678 24.719 73.4936 24.7887 73.3066 24.8877L73.1031 24.3542C73.2388 24.2809 73.3781 24.2222 73.5211 24.1782C73.6641 24.1305 73.8126 24.0957 73.9666 24.0737C74.1243 24.048 74.2838 24.0352 74.4451 24.0352C74.7055 24.0352 74.9328 24.0755 75.1271 24.1562C75.3251 24.2332 75.4773 24.356 75.5836 24.5247C75.6936 24.6934 75.7486 24.9152 75.7486 25.1902V26.8567H75.1326V26.2957H75.0941C75.0318 26.4094 74.953 26.5139 74.8576 26.6092C74.766 26.7009 74.6541 26.7742 74.5221 26.8292C74.3938 26.8842 74.2416 26.9117 74.0656 26.9117ZM78.0727 26.9117C77.904 26.9117 77.739 26.8989 77.5777 26.8732C77.42 26.8512 77.2752 26.8182 77.1432 26.7742C77.0112 26.7302 76.8975 26.6734 76.8022 26.6037L77.0002 26.0702C77.0992 26.1325 77.2074 26.1839 77.3247 26.2242C77.442 26.2609 77.5612 26.2884 77.6822 26.3067C77.8069 26.3214 77.9242 26.3287 78.0342 26.3287C78.2505 26.3287 78.4137 26.3085 78.5237 26.2682C78.6337 26.2279 78.6887 26.1582 78.6887 26.0592C78.6887 25.9749 78.6594 25.9144 78.6007 25.8777C78.542 25.841 78.443 25.8135 78.3037 25.7952L77.6712 25.7127C77.3925 25.676 77.1854 25.5844 77.0497 25.4377C76.9177 25.2874 76.8517 25.1114 76.8517 24.9097C76.8517 24.741 76.8975 24.5925 76.9892 24.4642C77.0845 24.3322 77.2275 24.2277 77.4182 24.1507C77.6125 24.0737 77.8545 24.0352 78.1442 24.0352C78.2872 24.0352 78.4302 24.0462 78.5732 24.0682C78.7199 24.0902 78.8537 24.125 78.9747 24.1727C79.0994 24.2167 79.2002 24.2717 79.2772 24.3377L79.0627 24.8602C78.9857 24.8015 78.8959 24.7557 78.7932 24.7227C78.6905 24.686 78.5824 24.6604 78.4687 24.6457C78.3587 24.6274 78.2505 24.6182 78.1442 24.6182C77.9389 24.6182 77.783 24.6402 77.6767 24.6842C77.574 24.7282 77.5227 24.7979 77.5227 24.8932C77.5227 24.9739 77.5502 25.0325 77.6052 25.0692C77.6639 25.1022 77.7574 25.1279 77.8857 25.1462L78.4852 25.2397C78.7895 25.2874 79.0114 25.379 79.1507 25.5147C79.29 25.6467 79.3597 25.8264 79.3597 26.0537C79.3597 26.2297 79.3065 26.3819 79.2002 26.5102C79.0975 26.6385 78.949 26.7375 78.7547 26.8072C78.564 26.8769 78.3367 26.9117 78.0727 26.9117ZM81.4912 26.9117C81.3225 26.9117 81.1575 26.8989 80.9962 26.8732C80.8385 26.8512 80.6937 26.8182 80.5617 26.7742C80.4297 26.7302 80.316 26.6734 80.2207 26.6037L80.4187 26.0702C80.5177 26.1325 80.6259 26.1839 80.7432 26.2242C80.8605 26.2609 80.9797 26.2884 81.1007 26.3067C81.2254 26.3214 81.3427 26.3287 81.4527 26.3287C81.669 26.3287 81.8322 26.3085 81.9422 26.2682C82.0522 26.2279 82.1072 26.1582 82.1072 26.0592C82.1072 25.9749 82.0779 25.9144 82.0192 25.8777C81.9605 25.841 81.8615 25.8135 81.7222 25.7952L81.0897 25.7127C80.811 25.676 80.6039 25.5844 80.4682 25.4377C80.3362 25.2874 80.2702 25.1114 80.2702 24.9097C80.2702 24.741 80.316 24.5925 80.4077 24.4642C80.503 24.3322 80.646 24.2277 80.8367 24.1507C81.031 24.0737 81.273 24.0352 81.5627 24.0352C81.7057 24.0352 81.8487 24.0462 81.9917 24.0682C82.1384 24.0902 82.2722 24.125 82.3932 24.1727C82.5179 24.2167 82.6187 24.2717 82.6957 24.3377L82.4812 24.8602C82.4042 24.8015 82.3144 24.7557 82.2117 24.7227C82.109 24.686 82.0009 24.6604 81.8872 24.6457C81.7772 24.6274 81.669 24.6182 81.5627 24.6182C81.3574 24.6182 81.2015 24.6402 81.0952 24.6842C80.9925 24.7282 80.9412 24.7979 80.9412 24.8932C80.9412 24.9739 80.9687 25.0325 81.0237 25.0692C81.0824 25.1022 81.1759 25.1279 81.3042 25.1462L81.9037 25.2397C82.208 25.2874 82.4299 25.379 82.5692 25.5147C82.7085 25.6467 82.7782 25.8264 82.7782 26.0537C82.7782 26.2297 82.725 26.3819 82.6187 26.5102C82.516 26.6385 82.3675 26.7375 82.1732 26.8072C81.9825 26.8769 81.7552 26.9117 81.4912 26.9117Z" fill="#202224"/>
<mask id="mask6_120_3133" style="mask-type:alpha" maskUnits="userSpaceOnUse" x="13" y="13" width="16" height="23">
<path d="M14.0659 17.3434C14.0659 15.5512 15.5188 14.0984 17.3109 14.0984H21.8203C25.2697 14.0984 28.0659 16.8946 28.0659 20.344V29.3692C28.0659 32.8185 25.2697 35.6148 21.8203 35.6148H17.3109C15.5188 35.6148 14.0659 34.1619 14.0659 32.3698V17.3434Z" fill="white" stroke="url(#paint27_linear_120_3133)" stroke-opacity="0.3" stroke-width="0.650789"/>
</mask>
<g mask="url(#mask6_120_3133)">
<rect x="13.5659" y="13.6846" width="7" height="22.3439" fill="#587ED7"/>
</g>
<defs>
<filter id="filter0_d_120_3133" x="0.214528" y="0.246999" width="107.584" height="52.6006" filterUnits="userSpaceOnUse" color-interpolation-filters="sRGB">
<feFlood flood-opacity="0" result="BackgroundImageFix"/>
<feColorMatrix in="SourceAlpha" type="matrix" values="0 0 0 0 0 0 0 0 0 0 0 0 0 0 0 0 0 0 127 0" result="hardAlpha"/>
<feOffset dx="1.69074" dy="1.69074"/>
<feGaussianBlur stdDeviation="7.60835"/>
<feColorMatrix type="matrix" values="0 0 0 0 0 0 0 0 0 0 0 0 0 0 0 0 0 0 0.05 0"/>
<feBlend mode="normal" in2="BackgroundImageFix" result="effect1_dropShadow_120_3133"/>
<feBlend mode="normal" in="SourceGraphic" in2="effect1_dropShadow_120_3133" result="shape"/>
</filter>
<filter id="filter1_d_120_3133" x="26.7471" y="17.2676" width="18.4277" height="15.4934" filterUnits="userSpaceOnUse" color-interpolation-filters="sRGB">
<feFlood flood-opacity="0" result="BackgroundImageFix"/>
<feColorMatrix in="SourceAlpha" type="matrix" values="0 0 0 0 0 0 0 0 0 0 0 0 0 0 0 0 0 0 127 0" result="hardAlpha"/>
<feOffset dx="0.296875" dy="0.445312"/>
<feColorMatrix type="matrix" values="0 0 0 0 0 0 0 0 0 0 0 0 0 0 0 0 0 0 0.25 0"/>
<feBlend mode="normal" in2="BackgroundImageFix" result="effect1_dropShadow_120_3133"/>
<feBlend mode="normal" in="SourceGraphic" in2="effect1_dropShadow_120_3133" result="shape"/>
</filter>
<filter id="filter2_i_120_3133" x="31.0088" y="19.2532" width="9.64844" height="10.4277" filterUnits="userSpaceOnUse" color-interpolation-filters="sRGB">
<feFlood flood-opacity="0" result="BackgroundImageFix"/>
<feBlend mode="normal" in="SourceGraphic" in2="BackgroundImageFix" result="shape"/>
<feColorMatrix in="SourceAlpha" type="matrix" values="0 0 0 0 0 0 0 0 0 0 0 0 0 0 0 0 0 0 127 0" result="hardAlpha"/>
<feOffset dy="0.927595"/>
<feComposite in2="hardAlpha" operator="arithmetic" k2="-1" k3="1"/>
<feColorMatrix type="matrix" values="0 0 0 0 0.0460938 0 0 0 0 0.462769 0 0 0 0 0.7375 0 0 0 1 0"/>
<feBlend mode="normal" in2="shape" result="effect1_innerShadow_120_3133"/>
</filter>
<filter id="filter3_d_120_3133" x="31.9958" y="21.1184" width="7.61719" height="5.87708" filterUnits="userSpaceOnUse" color-interpolation-filters="sRGB">
<feFlood flood-opacity="0" result="BackgroundImageFix"/>
<feColorMatrix in="SourceAlpha" type="matrix" values="0 0 0 0 0 0 0 0 0 0 0 0 0 0 0 0 0 0 127 0" result="hardAlpha"/>
<feOffset dy="0.362676"/>
<feComposite in2="hardAlpha" operator="out"/>
<feColorMatrix type="matrix" values="0 0 0 0 0 0 0 0 0 0.247059 0 0 0 0 0.384314 0 0 0 1 0"/>
<feBlend mode="normal" in2="BackgroundImageFix" result="effect1_dropShadow_120_3133"/>
<feBlend mode="normal" in="SourceGraphic" in2="effect1_dropShadow_120_3133" result="shape"/>
</filter>
<filter id="filter4_d_120_3133" x="34.5042" y="21.988" width="2.76376" height="3.01894" filterUnits="userSpaceOnUse" color-interpolation-filters="sRGB">
<feFlood flood-opacity="0" result="BackgroundImageFix"/>
<feColorMatrix in="SourceAlpha" type="matrix" values="0 0 0 0 0 0 0 0 0 0 0 0 0 0 0 0 0 0 127 0" result="hardAlpha"/>
<feOffset dx="0.0562439" dy="0.0843658"/>
<feColorMatrix type="matrix" values="0 0 0 0 0 0 0 0 0 0 0 0 0 0 0 0 0 0 0.25 0"/>
<feBlend mode="normal" in2="BackgroundImageFix" result="effect1_dropShadow_120_3133"/>
<feBlend mode="normal" in="SourceGraphic" in2="effect1_dropShadow_120_3133" result="shape"/>
</filter>
<filter id="filter5_i_120_3133" x="34.6042" y="22.1006" width="2.48242" height="2.73784" filterUnits="userSpaceOnUse" color-interpolation-filters="sRGB">
<feFlood flood-opacity="0" result="BackgroundImageFix"/>
<feBlend mode="normal" in="SourceGraphic" in2="BackgroundImageFix" result="shape"/>
<feColorMatrix in="SourceAlpha" type="matrix" values="0 0 0 0 0 0 0 0 0 0 0 0 0 0 0 0 0 0 127 0" result="hardAlpha"/>
<feOffset dy="0.0281219"/>
<feGaussianBlur stdDeviation="0.105457"/>
<feComposite in2="hardAlpha" operator="arithmetic" k2="-1" k3="1"/>
<feColorMatrix type="matrix" values="0 0 0 0 1 0 0 0 0 0.4125 0 0 0 0 0.4125 0 0 0 1 0"/>
<feBlend mode="lighten" in2="shape" result="effect1_innerShadow_120_3133"/>
</filter>
<linearGradient id="paint0_linear_120_3133" x1="31.5096" y1="6.3268" x2="69.5424" y2="49.3736" gradientUnits="userSpaceOnUse">
<stop stop-color="#F1F1F1"/>
<stop offset="1" stop-color="#E1E1E1"/>
</linearGradient>
<linearGradient id="paint1_linear_120_3133" x1="41.3671" y1="21.9009" x2="41.1546" y2="31.3432" gradientUnits="userSpaceOnUse">
<stop stop-color="#098ECA"/>
<stop offset="1" stop-color="#006096"/>
</linearGradient>
<linearGradient id="paint2_linear_120_3133" x1="30.2579" y1="21.9009" x2="30.4704" y2="31.3432" gradientUnits="userSpaceOnUse">
<stop stop-color="#098ECA"/>
<stop offset="1" stop-color="#006096"/>
</linearGradient>
<linearGradient id="paint3_linear_120_3133" x1="30.2583" y1="21.9011" x2="30.4708" y2="31.3429" gradientUnits="userSpaceOnUse">
<stop stop-color="#098ECA"/>
<stop offset="1" stop-color="#006096"/>
</linearGradient>
<linearGradient id="paint4_linear_120_3133" x1="42.3442" y1="27.0138" x2="42.8038" y2="24.9537" gradientUnits="userSpaceOnUse">
<stop stop-color="#014879"/>
<stop offset="1" stop-color="#014879" stop-opacity="0"/>
</linearGradient>
<linearGradient id="paint5_linear_120_3133" x1="40.2733" y1="29.5754" x2="41.5289" y2="28.2921" gradientUnits="userSpaceOnUse">
<stop stop-color="#014879"/>
<stop offset="1" stop-color="#014879" stop-opacity="0"/>
</linearGradient>
<linearGradient id="paint6_linear_120_3133" x1="38.227" y1="30.6974" x2="39.7803" y2="29.7971" gradientUnits="userSpaceOnUse">
<stop stop-color="#014879"/>
<stop offset="1" stop-color="#014879" stop-opacity="0"/>
</linearGradient>
<linearGradient id="paint7_linear_120_3133" x1="29.2843" y1="27.0138" x2="28.8246" y2="24.9537" gradientUnits="userSpaceOnUse">
<stop stop-color="#014879"/>
<stop offset="1" stop-color="#014879" stop-opacity="0"/>
</linearGradient>
<linearGradient id="paint8_linear_120_3133" x1="31.3553" y1="29.5754" x2="30.0998" y2="28.2921" gradientUnits="userSpaceOnUse">
<stop stop-color="#014879"/>
<stop offset="1" stop-color="#014879" stop-opacity="0"/>
</linearGradient>
<linearGradient id="paint9_linear_120_3133" x1="33.4014" y1="30.6974" x2="31.8481" y2="29.7971" gradientUnits="userSpaceOnUse">
<stop stop-color="#014879"/>
<stop offset="1" stop-color="#014879" stop-opacity="0"/>
</linearGradient>
<linearGradient id="paint10_linear_120_3133" x1="35.7319" y1="18.0987" x2="35.7319" y2="31.1653" gradientUnits="userSpaceOnUse">
<stop stop-color="#FFFF5A"/>
<stop offset="0.375" stop-color="#FFEE53"/>
<stop offset="1" stop-color="#FF9736"/>
</linearGradient>
<linearGradient id="paint11_linear_120_3133" x1="35.7319" y1="18.0987" x2="35.7319" y2="31.1653" gradientUnits="userSpaceOnUse">
<stop stop-color="#FF8F12"/>
<stop offset="1" stop-color="#FF341C"/>
</linearGradient>
<linearGradient id="paint12_linear_120_3133" x1="35.7319" y1="18.0987" x2="35.7319" y2="31.1653" gradientUnits="userSpaceOnUse">
<stop stop-color="#FFFF5A"/>
<stop offset="0.375" stop-color="#FFEE53"/>
<stop offset="1" stop-color="#FF9736"/>
</linearGradient>
<linearGradient id="paint13_linear_120_3133" x1="35.833" y1="19.6245" x2="34.9156" y2="29.9665" gradientUnits="userSpaceOnUse">
<stop stop-color="#29D0ED"/>
<stop offset="1" stop-color="#055F9C"/>
</linearGradient>
<linearGradient id="paint14_linear_120_3133" x1="35.833" y1="19.6243" x2="35.833" y2="29.3098" gradientUnits="userSpaceOnUse">
<stop stop-color="#FF5A46"/>
<stop offset="1" stop-color="#FFF258"/>
</linearGradient>
<linearGradient id="paint15_linear_120_3133" x1="35.833" y1="19.6243" x2="35.833" y2="29.3098" gradientUnits="userSpaceOnUse">
<stop stop-color="#0C76BC"/>
<stop offset="1" stop-color="#003D60"/>
</linearGradient>
<linearGradient id="paint16_linear_120_3133" x1="32.2134" y1="24.4535" x2="39.1779" y2="24.5488" gradientUnits="userSpaceOnUse">
<stop stop-color="#FFC242"/>
<stop offset="0.432949" stop-color="#FFFD62"/>
<stop offset="0.706146" stop-color="#FFFA61"/>
<stop offset="1" stop-color="#FFC241"/>
</linearGradient>
<linearGradient id="paint17_linear_120_3133" x1="32.2134" y1="24.4535" x2="39.1779" y2="24.5488" gradientUnits="userSpaceOnUse">
<stop stop-color="#FFC242"/>
<stop offset="0.432949" stop-color="#FFFD62"/>
<stop offset="0.706146" stop-color="#FFFA61"/>
<stop offset="1" stop-color="#FFC241"/>
</linearGradient>
<linearGradient id="paint18_linear_120_3133" x1="36.5664" y1="22.7502" x2="35.0625" y2="24.2541" gradientUnits="userSpaceOnUse">
<stop stop-color="#E41245"/>
<stop offset="1" stop-color="#D41342"/>
</linearGradient>
<linearGradient id="paint19_linear_120_3133" x1="36.6221" y1="22.7016" x2="35.0815" y2="24.2422" gradientUnits="userSpaceOnUse">
<stop stop-color="#E41245"/>
<stop offset="1" stop-color="#D41342"/>
</linearGradient>
<linearGradient id="paint20_linear_120_3133" x1="35.8515" y1="22.2698" x2="35.8515" y2="22.6706" gradientUnits="userSpaceOnUse">
<stop stop-color="#FF829A"/>
<stop offset="0.338542" stop-color="#FEA6B2"/>
<stop offset="0.65625" stop-color="#FFCED8"/>
</linearGradient>
<linearGradient id="paint21_linear_120_3133" x1="35.9464" y1="24.3334" x2="35.9499" y2="25.0189" gradientUnits="userSpaceOnUse">
<stop offset="0.00520833" stop-color="#FF8383"/>
<stop offset="0.229167" stop-color="#F23C5C"/>
<stop offset="1" stop-color="#F23C5C" stop-opacity="0"/>
</linearGradient>
<linearGradient id="paint22_linear_120_3133" x1="37.3982" y1="23.5423" x2="36.5897" y2="23.5423" gradientUnits="userSpaceOnUse">
<stop stop-color="#F23C5C" stop-opacity="0"/>
<stop offset="0.890625" stop-color="#F74961"/>
</linearGradient>
<linearGradient id="paint23_linear_120_3133" x1="34.3469" y1="23.5423" x2="35.1554" y2="23.5423" gradientUnits="userSpaceOnUse">
<stop offset="0.5" stop-color="#FF92A7"/>
<stop offset="0.911458" stop-color="#FFCED8"/>
</linearGradient>
<linearGradient id="paint24_linear_120_3133" x1="35.6265" y1="22.7867" x2="36.2135" y2="24.0874" gradientUnits="userSpaceOnUse">
<stop stop-color="#F23C5C"/>
<stop offset="0.802083" stop-color="#FF616A"/>
<stop offset="1" stop-color="#FF8383"/>
</linearGradient>
<linearGradient id="paint25_linear_120_3133" x1="35.4851" y1="22.5264" x2="35.1744" y2="23.8678" gradientUnits="userSpaceOnUse">
<stop stop-color="#FFCED8"/>
<stop offset="1" stop-color="#FF92A7"/>
</linearGradient>
<linearGradient id="paint26_linear_120_3133" x1="37.1069" y1="22.2211" x2="36.2364" y2="23.622" gradientUnits="userSpaceOnUse">
<stop stop-color="#FFECEC"/>
<stop offset="1" stop-color="#FFF3F3" stop-opacity="0"/>
</linearGradient>
<linearGradient id="paint27_linear_120_3133" x1="17.2582" y1="6.3268" x2="32.4817" y2="9.48009" gradientUnits="userSpaceOnUse">
<stop stop-color="#F1F1F1"/>
<stop offset="1" stop-color="#E1E1E1"/>
</linearGradient>
</defs>
</svg>
