<svg width="108" height="54" viewBox="0 0 108 54" fill="none" xmlns="http://www.w3.org/2000/svg">
<g filter="url(#filter0_d_120_3197)">
<rect x="14.1973" y="14.4836" width="76.5" height="21.5164" rx="3.245" fill="white"/>
<rect x="14.1973" y="14.4836" width="76.5" height="21.5164" rx="3.245" stroke="url(#paint0_linear_120_3197)" stroke-opacity="0.3" stroke-width="0.650789"/>
</g>
<g filter="url(#filter1_di_120_3197)">
<path d="M33.3461 17.5979C34.2205 17.1029 35.2925 17.112 36.1584 17.6217L40.6306 20.2545C41.4965 20.7642 42.0246 21.6972 42.0161 22.7019L41.9722 27.8914C41.9637 28.8961 41.4198 29.82 40.5455 30.315L36.0293 32.8717C35.1549 33.3667 34.0829 33.3576 33.217 32.8479L28.7447 30.2151C27.8789 29.7054 27.3507 28.7724 27.3592 27.7677L27.4031 22.5782C27.4116 21.5735 27.9555 20.6496 28.8299 20.1546L33.3461 17.5979Z" fill="url(#paint1_linear_120_3197)"/>
<path d="M33.1116 17.1844C34.1338 16.6058 35.3873 16.6164 36.3996 17.2123L40.8716 19.8449C41.8838 20.4408 42.5019 21.5319 42.492 22.7064L42.448 27.8957C42.438 29.0702 41.8016 30.1497 40.7795 30.7283L36.2635 33.2849C35.2413 33.8636 33.9878 33.853 32.9755 33.2571L28.5035 30.6244C27.4915 30.0286 26.8743 28.9383 26.8841 27.7639L26.9281 22.5747C26.938 21.4001 27.5735 20.3197 28.5957 19.741L33.1116 17.1844Z" stroke="url(#paint2_linear_120_3197)" stroke-width="0.950802"/>
</g>
<path d="M33.3456 17.5979C34.22 17.1029 35.292 17.112 36.1579 17.6217L40.6301 20.2545C41.496 20.7642 42.0242 21.6972 42.0156 22.7019L41.9717 27.8914C41.9632 28.8961 41.4193 29.82 40.545 30.315L36.0288 32.8717C35.1544 33.3667 34.0824 33.3576 33.2165 32.8479L28.7442 30.2151C27.8784 29.7054 27.3502 28.7724 27.3587 27.7677L27.4026 22.5782C27.4111 21.5735 27.955 20.6496 28.8294 20.1546L33.3456 17.5979Z" fill="url(#paint3_linear_120_3197)"/>
<path d="M33.2269 18.163C34.1622 17.634 35.3075 17.6387 36.2386 18.1752L40.3069 20.5196C40.8277 20.8197 40.8338 21.5691 40.318 21.8777L36.1261 24.3854C35.2326 24.9199 34.1142 24.9052 33.235 24.3476L29.186 21.7794C28.6837 21.4609 28.7024 20.7218 29.2201 20.429L33.2269 18.163Z" fill="url(#paint4_linear_120_3197)"/>
<path d="M34.3907 27.3278C34.3992 26.2733 33.8601 25.2899 32.9666 24.7299L29.1716 22.3512C28.6589 22.0298 27.9903 22.3828 27.9666 22.9876L27.7831 27.6672C27.7424 28.7034 28.2869 29.6747 29.1921 30.1808L33.1837 32.4125C33.7062 32.7047 34.3507 32.3301 34.3554 31.7315L34.3907 27.3278Z" fill="url(#paint5_linear_120_3197)"/>
<g filter="url(#filter2_i_120_3197)">
<ellipse cx="38.5225" cy="27.3766" rx="1.43431" ry="1.71555" transform="rotate(10.2543 38.5225 27.3766)" fill="#C4B295" style="mix-blend-mode:multiply"/>
</g>
<g filter="url(#filter3_i_120_3197)">
<path d="M33.0751 29.483C33.6793 29.6707 34.0169 30.3127 33.8292 30.9168C33.6415 31.521 32.9995 31.8586 32.3954 31.6709C31.7914 31.4831 31.4537 30.8411 31.6413 30.2371C31.829 29.633 32.4711 29.2955 33.0751 29.483ZM31.5002 26.4883C32.1043 26.676 32.4419 27.318 32.2542 27.9221C32.0664 28.5261 31.4245 28.8638 30.8204 28.6762C30.2165 28.4884 29.8788 27.8464 30.0664 27.2424C30.2541 26.6383 30.8961 26.3007 31.5002 26.4883ZM29.977 23.6692C30.5811 23.8569 30.9187 24.4989 30.731 25.103C30.5433 25.7071 29.9014 26.0447 29.2972 25.8571C28.6931 25.6694 28.3555 25.0274 28.5432 24.4233C28.7309 23.8191 29.3728 23.4815 29.977 23.6692Z" fill="#C4B295" style="mix-blend-mode:multiply"/>
</g>
<g filter="url(#filter4_i_120_3197)">
<path d="M37.627 20.7313C38.5024 20.7388 39.2078 21.2295 39.2027 21.8277C39.1975 22.4258 38.4839 22.9046 37.6086 22.8973C36.7333 22.8898 36.028 22.399 36.0329 21.8009C36.038 21.2027 36.7516 20.7239 37.627 20.7313ZM31.8786 19.3613C32.754 19.3687 33.4594 19.8478 33.4546 20.4313C33.4496 21.015 32.7361 21.4819 31.8607 21.4745C30.9854 21.467 30.2798 20.9881 30.2848 20.4045C30.2898 19.821 31.0033 19.354 31.8786 19.3613Z" fill="#C4B295" style="mix-blend-mode:multiply"/>
</g>
<path d="M40.7964 22.1997L35.918 25.0569V26.0077L40.7805 23.1392C40.878 23.0816 41.0011 23.1519 41.0011 23.2651V29.5184L41.7873 28.8784V22.7677C41.7873 22.2592 41.2353 21.9427 40.7964 22.1997Z" fill="url(#paint6_radial_120_3197)"/>
<path d="M48.4896 27.2419V23.3644H50.2771C50.5594 23.3644 50.8014 23.4139 51.0031 23.5129C51.2084 23.6083 51.3661 23.7476 51.4761 23.9309C51.5861 24.1143 51.6411 24.3324 51.6411 24.5854C51.6411 24.8348 51.5842 25.0529 51.4706 25.2399C51.3606 25.4269 51.2029 25.5718 50.9976 25.6744C50.7959 25.7771 50.5557 25.8284 50.2771 25.8284H49.2541V27.2419H48.4896ZM49.2541 25.1959H50.1451C50.3834 25.1959 50.5649 25.1483 50.6896 25.0529C50.8142 24.9576 50.8766 24.8054 50.8766 24.5964C50.8766 24.3874 50.8142 24.2353 50.6896 24.1399C50.5686 24.0446 50.3871 23.9969 50.1451 23.9969H49.2541V25.1959ZM53.8998 27.2419L52.2113 23.3644H53.0363L54.2133 26.2574H54.2463L55.4233 23.3644H56.2483L54.5543 27.2419H53.8998ZM57.0561 27.2419V23.3644H58.8436C59.1259 23.3644 59.3679 23.4139 59.5696 23.5129C59.7749 23.6083 59.9326 23.7476 60.0426 23.9309C60.1526 24.1143 60.2076 24.3324 60.2076 24.5854C60.2076 24.8348 60.1508 25.0529 60.0371 25.2399C59.9271 25.4269 59.7694 25.5718 59.5641 25.6744C59.3624 25.7771 59.1223 25.8284 58.8436 25.8284H57.8206V27.2419H57.0561ZM57.8206 25.1959H58.7116C58.9499 25.1959 59.1314 25.1483 59.2561 25.0529C59.3808 24.9576 59.4431 24.8054 59.4431 24.5964C59.4431 24.3874 59.3808 24.2353 59.2561 24.1399C59.1351 24.0446 58.9536 23.9969 58.7116 23.9969H57.8206V25.1959ZM64.4403 27.2969C64.1579 27.2969 63.9141 27.2566 63.7088 27.1759C63.5034 27.0953 63.3458 26.9816 63.2358 26.8349C63.1294 26.6846 63.0763 26.5031 63.0763 26.2904C63.0763 26.1144 63.1093 25.9623 63.1753 25.8339C63.2413 25.7019 63.3293 25.5846 63.4393 25.4819C63.5529 25.3793 63.6776 25.2839 63.8133 25.1959L64.0498 25.0419L63.9893 25.1684C63.8096 24.9961 63.6776 24.8421 63.5933 24.7064C63.5089 24.5708 63.4668 24.4149 63.4668 24.2389C63.4668 24.0593 63.5163 23.8998 63.6153 23.7604C63.7179 23.6211 63.8573 23.5111 64.0333 23.4304C64.2093 23.3498 64.4109 23.3094 64.6383 23.3094C64.8656 23.3094 65.0581 23.3443 65.2158 23.4139C65.3771 23.4836 65.4999 23.5808 65.5843 23.7054C65.6686 23.8264 65.7108 23.9713 65.7108 24.1399C65.7108 24.2829 65.6723 24.4149 65.5953 24.5359C65.5183 24.6569 65.4138 24.7706 65.2818 24.8769C65.1498 24.9833 64.9976 25.0878 64.8253 25.1904L64.7538 25.0914L65.6943 26.0429L65.6393 26.0704C65.7126 25.9494 65.7768 25.7899 65.8318 25.5919C65.8904 25.3939 65.9253 25.1886 65.9363 24.9759H66.5743C66.5633 25.2766 66.5101 25.5534 66.4148 25.8064C66.3194 26.0558 66.1984 26.2703 66.0518 26.4499L65.9693 26.3014L66.9373 27.2419H66.0848L65.6228 26.7799H65.7438C65.5861 26.9486 65.3954 27.0769 65.1718 27.1649C64.9518 27.2529 64.7079 27.2969 64.4403 27.2969ZM64.5008 26.7469C64.6804 26.7469 64.8473 26.7176 65.0013 26.6589C65.1553 26.5966 65.2799 26.5049 65.3753 26.3839L65.3863 26.5599L64.2038 25.3829L64.4788 25.3774L64.2973 25.4874C64.1946 25.5534 64.1048 25.6213 64.0278 25.6909C63.9544 25.7569 63.8976 25.8321 63.8573 25.9164C63.8169 25.9971 63.7968 26.0924 63.7968 26.2024C63.7968 26.3821 63.8609 26.5178 63.9893 26.6094C64.1176 26.7011 64.2881 26.7469 64.5008 26.7469ZM64.6383 23.8154C64.4916 23.8154 64.3706 23.8558 64.2753 23.9364C64.1836 24.0171 64.1378 24.1198 64.1378 24.2444C64.1378 24.3214 64.1543 24.3948 64.1873 24.4644C64.2203 24.5341 64.2698 24.6074 64.3358 24.6844C64.4054 24.7578 64.4879 24.8421 64.5833 24.9374L64.4513 24.8879C64.5906 24.8036 64.7079 24.7266 64.8033 24.6569C64.9023 24.5836 64.9756 24.5103 65.0233 24.4369C65.0746 24.3636 65.1003 24.2884 65.1003 24.2114C65.1003 24.0868 65.0563 23.9896 64.9683 23.9199C64.8803 23.8503 64.7703 23.8154 64.6383 23.8154ZM69.6935 27.2419V23.3644H70.458V24.9484H72.3775V23.3644H73.142V27.2419H72.3775V25.6084H70.458V27.2419H69.6935ZM74.5354 27.2419V23.3644H76.2954C76.7427 23.3644 77.0855 23.4634 77.3239 23.6614C77.5622 23.8594 77.6814 24.1454 77.6814 24.5194C77.6814 24.7138 77.6429 24.8806 77.5659 25.0199C77.4925 25.1593 77.3935 25.2748 77.2689 25.3664C77.1442 25.4544 77.0049 25.5186 76.8509 25.5589V25.5919L76.8839 25.6084C76.9462 25.6341 77.0049 25.6763 77.0599 25.7349C77.1185 25.7899 77.179 25.8761 77.2414 25.9934L77.9014 27.2419H77.0654L76.4549 26.0814C76.4109 25.9971 76.3614 25.9329 76.3064 25.8889C76.255 25.8413 76.1945 25.8083 76.1249 25.7899C76.0552 25.7716 75.9709 25.7624 75.8719 25.7624H75.2999V27.2419H74.5354ZM75.2999 25.1464H76.2349C76.4732 25.1464 76.6474 25.0988 76.7574 25.0034C76.8674 24.9044 76.9224 24.7578 76.9224 24.5634C76.9224 24.3691 76.8655 24.2261 76.7519 24.1344C76.6382 24.0428 76.4585 23.9969 76.2129 23.9969H75.2999V25.1464Z" fill="#202224"/>
<mask id="mask0_120_3197" style="mask-type:alpha" maskUnits="userSpaceOnUse" x="13" y="14" width="16" height="23">
<path d="M14.1973 17.7286C14.1973 15.9365 15.6501 14.4836 17.4423 14.4836H21.9517C25.401 14.4836 28.1973 17.2799 28.1973 20.7293V29.7544C28.1973 33.2038 25.401 36 21.9517 36H17.4423C15.6501 36 14.1973 34.5472 14.1973 32.755V17.7286Z" fill="white" stroke="url(#paint7_linear_120_3197)" stroke-opacity="0.3" stroke-width="0.650789"/>
</mask>
<g mask="url(#mask0_120_3197)">
<rect x="13.6973" y="14.0698" width="7" height="22.3439" fill="#587ED7"/>
</g>
<defs>
<filter id="filter0_d_120_3197" x="0.345876" y="0.632253" width="107.584" height="52.6006" filterUnits="userSpaceOnUse" color-interpolation-filters="sRGB">
<feFlood flood-opacity="0" result="BackgroundImageFix"/>
<feColorMatrix in="SourceAlpha" type="matrix" values="0 0 0 0 0 0 0 0 0 0 0 0 0 0 0 0 0 0 127 0" result="hardAlpha"/>
<feOffset dx="1.69074" dy="1.69074"/>
<feGaussianBlur stdDeviation="7.60835"/>
<feColorMatrix type="matrix" values="0 0 0 0 0 0 0 0 0 0 0 0 0 0 0 0 0 0 0.05 0"/>
<feBlend mode="normal" in2="BackgroundImageFix" result="effect1_dropShadow_120_3197"/>
<feBlend mode="normal" in="SourceGraphic" in2="effect1_dropShadow_120_3197" result="shape"/>
</filter>
<filter id="filter1_di_120_3197" x="26.4082" y="16.2822" width="16.5588" height="18.4904" filterUnits="userSpaceOnUse" color-interpolation-filters="sRGB">
<feFlood flood-opacity="0" result="BackgroundImageFix"/>
<feColorMatrix in="SourceAlpha" type="matrix" values="0 0 0 0 0 0 0 0 0 0 0 0 0 0 0 0 0 0 127 0" result="hardAlpha"/>
<feOffset dy="0.585109"/>
<feComposite in2="hardAlpha" operator="out"/>
<feColorMatrix type="matrix" values="0 0 0 0 0 0 0 0 0 0.137255 0 0 0 0 0.203922 0 0 0 1 0"/>
<feBlend mode="normal" in2="BackgroundImageFix" result="effect1_dropShadow_120_3197"/>
<feBlend mode="normal" in="SourceGraphic" in2="effect1_dropShadow_120_3197" result="shape"/>
<feColorMatrix in="SourceAlpha" type="matrix" values="0 0 0 0 0 0 0 0 0 0 0 0 0 0 0 0 0 0 127 0" result="hardAlpha"/>
<feOffset dy="1.031"/>
<feComposite in2="hardAlpha" operator="arithmetic" k2="-1" k3="1"/>
<feColorMatrix type="matrix" values="0 0 0 0 1 0 0 0 0 1 0 0 0 0 1 0 0 0 0.55 0"/>
<feBlend mode="normal" in2="shape" result="effect2_innerShadow_120_3197"/>
</filter>
<filter id="filter2_i_120_3197" x="37.0781" y="25.6689" width="2.88867" height="3.41528" filterUnits="userSpaceOnUse" color-interpolation-filters="sRGB">
<feFlood flood-opacity="0" result="BackgroundImageFix"/>
<feBlend mode="normal" in="SourceGraphic" in2="BackgroundImageFix" result="shape"/>
<feColorMatrix in="SourceAlpha" type="matrix" values="0 0 0 0 0 0 0 0 0 0 0 0 0 0 0 0 0 0 127 0" result="hardAlpha"/>
<feOffset dy="0.22499"/>
<feComposite in2="hardAlpha" operator="arithmetic" k2="-1" k3="1"/>
<feColorMatrix type="matrix" values="0 0 0 0 0 0 0 0 0 0 0 0 0 0 0 0 0 0 0.15 0"/>
<feBlend mode="normal" in2="shape" result="effect1_innerShadow_120_3197"/>
</filter>
<filter id="filter3_i_120_3197" x="28.4912" y="23.6174" width="5.38989" height="8.10522" filterUnits="userSpaceOnUse" color-interpolation-filters="sRGB">
<feFlood flood-opacity="0" result="BackgroundImageFix"/>
<feBlend mode="normal" in="SourceGraphic" in2="BackgroundImageFix" result="shape"/>
<feColorMatrix in="SourceAlpha" type="matrix" values="0 0 0 0 0 0 0 0 0 0 0 0 0 0 0 0 0 0 127 0" result="hardAlpha"/>
<feOffset dy="0.22499"/>
<feComposite in2="hardAlpha" operator="arithmetic" k2="-1" k3="1"/>
<feColorMatrix type="matrix" values="0 0 0 0 0 0 0 0 0 0 0 0 0 0 0 0 0 0 0.15 0"/>
<feBlend mode="normal" in2="shape" result="effect1_innerShadow_120_3197"/>
</filter>
<filter id="filter4_i_120_3197" x="30.2847" y="19.3613" width="8.91797" height="3.53589" filterUnits="userSpaceOnUse" color-interpolation-filters="sRGB">
<feFlood flood-opacity="0" result="BackgroundImageFix"/>
<feBlend mode="normal" in="SourceGraphic" in2="BackgroundImageFix" result="shape"/>
<feColorMatrix in="SourceAlpha" type="matrix" values="0 0 0 0 0 0 0 0 0 0 0 0 0 0 0 0 0 0 127 0" result="hardAlpha"/>
<feOffset dy="0.22499"/>
<feComposite in2="hardAlpha" operator="arithmetic" k2="-1" k3="1"/>
<feColorMatrix type="matrix" values="0 0 0 0 0 0 0 0 0 0 0 0 0 0 0 0 0 0 0.15 0"/>
<feBlend mode="normal" in2="shape" result="effect1_innerShadow_120_3197"/>
</filter>
<linearGradient id="paint0_linear_120_3197" x1="31.6409" y1="6.71206" x2="69.6737" y2="49.7588" gradientUnits="userSpaceOnUse">
<stop stop-color="#F1F1F1"/>
<stop offset="1" stop-color="#E1E1E1"/>
</linearGradient>
<linearGradient id="paint1_linear_120_3197" x1="34.7591" y1="16.798" x2="35.4302" y2="38.4089" gradientUnits="userSpaceOnUse">
<stop offset="0.149706" stop-color="#FFB1F3"/>
<stop offset="1" stop-color="#A101ED"/>
</linearGradient>
<linearGradient id="paint2_linear_120_3197" x1="34.7591" y1="16.798" x2="34.6162" y2="33.6716" gradientUnits="userSpaceOnUse">
<stop offset="0.270331" stop-color="#017772"/>
<stop offset="0.851711" stop-color="#014E5F"/>
</linearGradient>
<linearGradient id="paint3_linear_120_3197" x1="36.2634" y1="19.6358" x2="27.4351" y2="31.7188" gradientUnits="userSpaceOnUse">
<stop stop-color="#F1FBE0"/>
<stop offset="0.177083" stop-color="#C6E314"/>
<stop offset="0.375971" stop-color="#DFE314"/>
<stop offset="1" stop-color="#A6861F"/>
</linearGradient>
<linearGradient id="paint4_linear_120_3197" x1="34.9962" y1="25.6174" x2="33.7947" y2="18.099" gradientUnits="userSpaceOnUse">
<stop stop-color="#96E415"/>
<stop offset="1" stop-color="#F1FBE0"/>
</linearGradient>
<linearGradient id="paint5_linear_120_3197" x1="35.5563" y1="25.5518" x2="32.7378" y2="32.4501" gradientUnits="userSpaceOnUse">
<stop stop-color="#CABA39"/>
<stop offset="0.978825" stop-color="#DCD00F"/>
</linearGradient>
<radialGradient id="paint6_radial_120_3197" cx="0" cy="0" r="1" gradientUnits="userSpaceOnUse" gradientTransform="translate(41.4765 22.0948) rotate(120.329) scale(6.22807 4.79729)">
<stop stop-color="#F1FBE0"/>
<stop offset="1" stop-color="#F1FBE0" stop-opacity="0"/>
</radialGradient>
<linearGradient id="paint7_linear_120_3197" x1="17.3896" y1="6.71206" x2="32.6131" y2="9.86534" gradientUnits="userSpaceOnUse">
<stop stop-color="#F1F1F1"/>
<stop offset="1" stop-color="#E1E1E1"/>
</linearGradient>
</defs>
</svg>
