<svg width="108" height="54" viewBox="0 0 108 54" fill="none" xmlns="http://www.w3.org/2000/svg">
<g filter="url(#filter0_d_120_3152)">
<rect x="14.0659" y="14.3525" width="76.5" height="21.5164" rx="3.245" fill="white"/>
<rect x="14.0659" y="14.3525" width="76.5" height="21.5164" rx="3.245" stroke="url(#paint0_linear_120_3152)" stroke-opacity="0.3" stroke-width="0.650789"/>
</g>
<g filter="url(#filter1_d_120_3152)">
<mask id="path-3-outside-1_120_3152" maskUnits="userSpaceOnUse" x="27.2716" y="16.5635" width="15.3296" height="16.9662" fill="black">
<rect fill="white" x="27.2716" y="16.5635" width="15.3296" height="16.9662"/>
<path d="M33.0932 19.3126C33.4822 18.873 34.7776 18.1299 36.4495 18.5273C36.4954 18.5382 36.5189 18.6697 36.4053 18.8676C36.3804 18.9116 36.4136 18.9721 36.4641 18.9745C36.8157 18.9911 37.1932 19.173 37.2104 19.4083C37.2247 19.6051 36.8241 20.681 36.6695 21.4715C37.3996 20.9663 38.1763 20.771 38.5761 20.7007C38.7445 20.6711 38.9059 20.7529 39.0013 20.8998C39.2036 21.2118 39.0221 21.658 38.6722 21.7611C38.4129 21.8374 38.1154 21.9407 37.824 22.0746C38.7286 22.2854 39.4195 22.7705 39.7457 23.0358C39.8783 23.1437 39.9228 23.3202 39.8741 23.4884C39.7706 23.8454 39.3143 24 39.0073 23.8031C38.6383 23.5662 38.1497 23.2989 37.6525 23.1577C38.6813 23.8796 40.0151 25.1298 40.8753 27.3627C41.3947 28.7115 40.5834 30.1604 39.2282 30.6629C36.8098 31.5597 35.2579 31.7968 33.1364 31.6081C31.5147 31.4639 30.0416 30.3052 30.0034 28.6776C29.9682 27.17 30.4501 25.3919 32.2192 23.577C32.2237 23.559 32.2308 23.542 32.236 23.5246C32.2147 23.4928 32.1949 23.4614 32.1773 23.4296C32.0125 23.1325 32.3921 22.6799 32.4515 22.6123C32.442 22.5986 32.4319 22.5852 32.42 22.5731C32.1295 22.2761 31.7639 21.7583 30.9827 21.489C30.1352 21.1963 31.1447 20.0714 31.8356 19.7404C32.5265 19.4094 32.9144 19.5149 33.0932 19.3126Z"/>
</mask>
<path d="M33.0932 19.3126C33.4822 18.873 34.7776 18.1299 36.4495 18.5273C36.4954 18.5382 36.5189 18.6697 36.4053 18.8676C36.3804 18.9116 36.4136 18.9721 36.4641 18.9745C36.8157 18.9911 37.1932 19.173 37.2104 19.4083C37.2247 19.6051 36.8241 20.681 36.6695 21.4715C37.3996 20.9663 38.1763 20.771 38.5761 20.7007C38.7445 20.6711 38.9059 20.7529 39.0013 20.8998C39.2036 21.2118 39.0221 21.658 38.6722 21.7611C38.4129 21.8374 38.1154 21.9407 37.824 22.0746C38.7286 22.2854 39.4195 22.7705 39.7457 23.0358C39.8783 23.1437 39.9228 23.3202 39.8741 23.4884C39.7706 23.8454 39.3143 24 39.0073 23.8031C38.6383 23.5662 38.1497 23.2989 37.6525 23.1577C38.6813 23.8796 40.0151 25.1298 40.8753 27.3627C41.3947 28.7115 40.5834 30.1604 39.2282 30.6629C36.8098 31.5597 35.2579 31.7968 33.1364 31.6081C31.5147 31.4639 30.0416 30.3052 30.0034 28.6776C29.9682 27.17 30.4501 25.3919 32.2192 23.577C32.2237 23.559 32.2308 23.542 32.236 23.5246C32.2147 23.4928 32.1949 23.4614 32.1773 23.4296C32.0125 23.1325 32.3921 22.6799 32.4515 22.6123C32.442 22.5986 32.4319 22.5852 32.42 22.5731C32.1295 22.2761 31.7639 21.7583 30.9827 21.489C30.1352 21.1963 31.1447 20.0714 31.8356 19.7404C32.5265 19.4094 32.9144 19.5149 33.0932 19.3126Z" fill="#67F4FF" fill-opacity="0.5" shape-rendering="crispEdges"/>
<path d="M33.0932 19.3126L32.4458 18.74L32.4456 18.7403L33.0932 19.3126ZM36.4495 18.5273L36.6494 17.6864L36.6493 17.6864L36.4495 18.5273ZM36.4053 18.8676L35.6557 18.4373L35.6533 18.4415L36.4053 18.8676ZM36.4641 18.9745L36.5048 18.1111L36.5044 18.1111L36.4641 18.9745ZM37.2104 19.4083L38.0724 19.3455L38.0724 19.3451L37.2104 19.4083ZM36.6695 21.4715L35.8213 21.3056L35.4133 23.3918L37.1613 22.1822L36.6695 21.4715ZM38.5761 20.7007L38.4265 19.8494L38.4263 19.8494L38.5761 20.7007ZM39.0013 20.8998L39.7264 20.4295L39.7263 20.4293L39.0013 20.8998ZM38.6722 21.7611L38.9163 22.5902L38.9163 22.5902L38.6722 21.7611ZM37.824 22.0746L37.463 21.2893L35.1698 22.3436L37.6279 22.9164L37.824 22.0746ZM39.7457 23.0358L40.2911 22.3653L40.291 22.3652L39.7457 23.0358ZM39.8741 23.4884L40.7042 23.729L40.7043 23.7287L39.8741 23.4884ZM39.0073 23.8031L38.5404 24.5304L38.5407 24.5307L39.0073 23.8031ZM37.6525 23.1577L37.8886 22.3263L37.1561 23.8653L37.6525 23.1577ZM40.8753 27.3627L41.6819 27.0522L41.6818 27.052L40.8753 27.3627ZM39.2282 30.6629L38.9277 29.8525L38.9277 29.8525L39.2282 30.6629ZM33.1364 31.6081L33.0598 32.469L33.0599 32.469L33.1364 31.6081ZM30.0034 28.6776L29.1394 28.6978L29.1394 28.6978L30.0034 28.6776ZM32.2192 23.577L32.8381 24.1803L33.0017 24.0125L33.0581 23.7851L32.2192 23.577ZM32.236 23.5246L33.063 23.776L33.1823 23.3833L32.9535 23.0427L32.236 23.5246ZM32.1773 23.4296L31.4215 23.8489L31.4216 23.849L32.1773 23.4296ZM32.4515 22.6123L33.1011 23.1824L33.5462 22.6751L33.162 22.1203L32.4515 22.6123ZM32.42 22.5731L33.0383 21.9691L33.0379 21.9687L32.42 22.5731ZM30.9827 21.489L30.7005 22.306L30.7011 22.3062L30.9827 21.489ZM31.8356 19.7404L31.4622 18.9609L31.4621 18.9609L31.8356 19.7404ZM33.0932 19.3126L33.7406 19.8853C33.928 19.6735 34.9021 19.0479 36.2496 19.3681L36.4495 18.5273L36.6493 17.6864C34.6531 17.2119 33.0363 18.0725 32.4458 18.74L33.0932 19.3126ZM36.4495 18.5273L36.2495 19.3681C35.878 19.2798 35.7235 18.9964 35.6772 18.8825C35.6236 18.7506 35.6214 18.6417 35.6237 18.5894C35.6287 18.4763 35.663 18.4247 35.6557 18.4373L36.4053 18.8676L37.1549 19.2979C37.2612 19.1126 37.3406 18.8962 37.3507 18.6652C37.3556 18.554 37.3461 18.3978 37.2787 18.2319C37.2186 18.0841 37.0439 17.7802 36.6494 17.6864L36.4495 18.5273ZM36.4053 18.8676L35.6533 18.4415C35.468 18.7686 35.5194 19.1171 35.6489 19.3528C35.7784 19.5886 36.0461 19.8202 36.4238 19.8379L36.4641 18.9745L36.5044 18.1111C36.8316 18.1264 37.0574 18.3266 37.164 18.5205C37.2704 18.7143 37.3177 19.0105 37.1573 19.2936L36.4053 18.8676ZM36.4641 18.9745L36.4234 19.8378C36.4459 19.8389 36.4733 19.843 36.5005 19.8504C36.5284 19.858 36.5443 19.8657 36.5473 19.8674C36.5537 19.8709 36.5225 19.8558 36.4804 19.8068C36.4363 19.7555 36.3609 19.6421 36.3484 19.4715L37.2104 19.4083L38.0724 19.3451C38.0308 18.7776 37.5965 18.4711 37.3779 18.3514C37.1125 18.206 36.8003 18.1251 36.5048 18.1111L36.4641 18.9745ZM37.2104 19.4083L36.3484 19.4711C36.3409 19.3686 36.3592 19.3058 36.3498 19.3528C36.3455 19.3748 36.3361 19.4147 36.3191 19.4777C36.2851 19.6039 36.236 19.7672 36.1754 19.969C36.0604 20.3525 35.9082 20.861 35.8213 21.3056L36.6695 21.4715L37.5178 21.6374C37.5854 21.2914 37.7109 20.8667 37.8312 20.4655C37.8884 20.275 37.9463 20.083 37.9882 19.9274C38.0092 19.8495 38.03 19.7669 38.0454 19.6893C38.0558 19.6366 38.0835 19.4972 38.0724 19.3455L37.2104 19.4083ZM36.6695 21.4715L37.1613 22.1822C37.7504 21.7746 38.3924 21.6106 38.726 21.5519L38.5761 20.7007L38.4263 19.8494C37.9602 19.9315 37.0489 20.1579 36.1777 20.7607L36.6695 21.4715ZM38.5761 20.7007L38.7258 21.5519C38.5046 21.5908 38.3416 21.4711 38.2762 21.3703L39.0013 20.8998L39.7263 20.4293C39.4702 20.0348 38.9844 19.7513 38.4265 19.8494L38.5761 20.7007ZM39.0013 20.8998L38.2761 21.3702C38.2032 21.2577 38.2175 21.1488 38.2387 21.0944C38.2588 21.0431 38.313 20.9658 38.428 20.932L38.6722 21.7611L38.9163 22.5902C39.7877 22.3336 40.2619 21.255 39.7264 20.4295L39.0013 20.8998ZM38.6722 21.7611L38.4281 20.932C38.1403 21.0167 37.8018 21.1336 37.463 21.2893L37.824 22.0746L38.1851 22.8599C38.4291 22.7477 38.6856 22.6581 38.9163 22.5902L38.6722 21.7611ZM37.824 22.0746L37.6279 22.9164C38.3535 23.0855 38.9255 23.4828 39.2003 23.7063L39.7457 23.0358L40.291 22.3652C39.9135 22.0582 39.1038 21.4854 38.0202 21.2329L37.824 22.0746ZM39.7457 23.0358L39.2002 23.7063C39.0274 23.5656 39.0099 23.3655 39.0438 23.2482L39.8741 23.4884L40.7043 23.7287C40.8357 23.2748 40.7293 22.7218 40.2911 22.3653L39.7457 23.0358ZM39.8741 23.4884L39.0439 23.2478C39.0814 23.1187 39.1734 23.0583 39.2281 23.0389C39.2796 23.0206 39.3732 23.011 39.474 23.0756L39.0073 23.8031L38.5407 24.5307C39.3041 25.0203 40.4302 24.6746 40.7042 23.729L39.8741 23.4884ZM39.0073 23.8031L39.4743 23.0758C39.0734 22.8184 38.5029 22.5007 37.8886 22.3263L37.6525 23.1577L37.4164 23.9892C37.7966 24.0971 38.2032 24.3139 38.5404 24.5304L39.0073 23.8031ZM37.6525 23.1577L37.1561 23.8653C38.0782 24.5122 39.2836 25.6353 40.0688 27.6735L40.8753 27.3627L41.6818 27.052C40.7466 24.6244 39.2844 23.2469 38.1489 22.4502L37.6525 23.1577ZM40.8753 27.3627L40.0687 27.6733C40.3843 28.4929 39.916 29.4861 38.9277 29.8525L39.2282 30.6629L39.5287 31.4733C41.2509 30.8347 42.405 28.9301 41.6819 27.0522L40.8753 27.3627ZM39.2282 30.6629L38.9277 29.8525C36.6062 30.7134 35.1838 30.9225 33.213 30.7472L33.1364 31.6081L33.0599 32.469C35.332 32.6711 37.0134 32.406 39.5287 31.4733L39.2282 30.6629ZM33.1364 31.6081L33.213 30.7472C31.8807 30.6287 30.8922 29.7105 30.8675 28.6574L30.0034 28.6776L29.1394 28.6978C29.1909 30.9 31.1488 32.299 33.0598 32.469L33.1364 31.6081ZM30.0034 28.6776L30.8675 28.6574C30.8377 27.381 31.232 25.828 32.8381 24.1803L32.2192 23.577L31.6003 22.9737C29.6681 24.9558 29.0987 26.959 29.1394 28.6978L30.0034 28.6776ZM32.2192 23.577L33.0581 23.7851C33.054 23.8015 33.0502 23.8142 33.0478 23.8218C33.0455 23.8291 33.0439 23.8338 33.0443 23.8325C33.0446 23.8318 33.0448 23.8311 33.0458 23.8282C33.0466 23.8259 33.048 23.8219 33.0496 23.8174C33.0526 23.8086 33.0576 23.7938 33.063 23.776L32.236 23.5246L31.4091 23.2732C31.4119 23.2641 31.414 23.2579 31.4141 23.2577C31.4141 23.2576 31.414 23.2579 31.4133 23.2599C31.4128 23.2613 31.4115 23.265 31.4103 23.2686C31.4058 23.2816 31.3923 23.3206 31.3803 23.3689L32.2192 23.577ZM32.236 23.5246L32.9535 23.0427C32.9413 23.0245 32.9355 23.0146 32.933 23.0102L32.1773 23.4296L31.4216 23.849C31.4544 23.9081 31.488 23.9611 31.5186 24.0065L32.236 23.5246ZM32.1773 23.4296L32.9331 23.0103C33.0113 23.1513 33.003 23.2759 32.9962 23.3197C32.9901 23.3582 32.982 23.3631 32.9987 23.3306C33.0131 23.3027 33.0343 23.2695 33.0581 23.2369C33.0811 23.2055 33.099 23.1848 33.1011 23.1824L32.4515 22.6123L31.8018 22.0423C31.7546 22.096 31.5913 22.2879 31.4619 22.5392C31.3659 22.7257 31.1085 23.2848 31.4215 23.8489L32.1773 23.4296ZM32.4515 22.6123L33.162 22.1203C33.1411 22.09 33.0993 22.0315 33.0383 21.9691L32.42 22.5731L31.8017 23.1771C31.7645 23.1389 31.7429 23.1073 31.7409 23.1044L32.4515 22.6123ZM32.42 22.5731L33.0379 21.9687C32.8331 21.7593 32.2913 21.0259 31.2644 20.6719L30.9827 21.489L30.7011 22.3062C31.2365 22.4907 31.426 22.7929 31.8021 23.1774L32.42 22.5731ZM30.9827 21.489L31.2649 20.6721C31.2621 20.6711 31.3266 20.6927 31.3973 20.7733C31.4749 20.8616 31.5137 20.9685 31.5221 21.0609C31.5346 21.1987 31.4771 21.2232 31.5576 21.0991C31.6208 21.0015 31.7274 20.8795 31.8615 20.7619C31.9964 20.6436 32.1239 20.5606 32.209 20.5198L31.8356 19.7404L31.4621 18.9609C30.9746 19.1945 30.4271 19.6649 30.1069 20.159C29.9546 20.3941 29.7605 20.7754 29.8005 21.2168C29.8226 21.461 29.9162 21.7064 30.0981 21.9136C30.2731 22.113 30.4915 22.2338 30.7005 22.306L30.9827 21.489ZM31.8356 19.7404L32.2089 20.5199C32.4562 20.4014 32.6418 20.3618 32.8225 20.3264C32.8996 20.3114 33.0518 20.2841 33.1879 20.2395C33.3445 20.1881 33.5587 20.0911 33.7408 19.885L33.0932 19.3126L32.4456 18.7403C32.5383 18.6353 32.637 18.601 32.649 18.597C32.6527 18.5958 32.645 18.5985 32.6147 18.6051C32.5827 18.6121 32.5482 18.6187 32.4903 18.63C32.2596 18.6752 31.9059 18.7483 31.4622 18.9609L31.8356 19.7404Z" fill="url(#paint1_linear_120_3152)" mask="url(#path-3-outside-1_120_3152)"/>
</g>
<path d="M35.5879 24.4165L34.994 23.5009C34.994 23.5009 35.5029 22.3252 36.5694 21.5398C37.327 20.9819 38.1581 20.7742 38.576 20.7006C38.7445 20.671 38.9063 20.7527 39.0016 20.8997V20.8997C39.204 21.2117 39.0222 21.6584 38.6722 21.7614C38.2069 21.8984 37.6179 22.1207 37.1633 22.4554C36.2785 23.1069 35.5879 24.4165 35.5879 24.4165Z" fill="#723D31"/>
<mask id="mask0_120_3152" style="mask-type:alpha" maskUnits="userSpaceOnUse" x="34" y="20" width="6" height="5">
<path d="M35.5879 24.4165L34.994 23.5009C34.994 23.5009 35.5029 22.3252 36.5694 21.5398C37.327 20.9819 38.1581 20.7742 38.576 20.7006C38.7445 20.671 38.9063 20.7527 39.0016 20.8997V20.8997C39.204 21.2117 39.0222 21.6584 38.6722 21.7614C38.2069 21.8984 37.6179 22.1207 37.1633 22.4554C36.2785 23.1069 35.5879 24.4165 35.5879 24.4165Z" fill="#522920"/>
</mask>
<g mask="url(#mask0_120_3152)">
<path d="M37.6117 21.0708C37.6709 20.6273 38.2588 20.3929 38.2588 20.3929L39.209 19.8278C39.4154 20.2511 39.755 21.1758 39.2575 21.3441C38.6356 21.5544 37.5728 21.3629 37.6117 21.0708Z" fill="#A15443"/>
</g>
<path d="M34.9807 23.2095L35.2841 22.1612C35.2841 22.1612 36.506 21.7762 37.7979 22.0683C38.7156 22.2758 39.4167 22.7681 39.7458 23.0359C39.8785 23.1438 39.9227 23.3197 39.874 23.488V23.488C39.7706 23.8452 39.3139 24.0001 39.0069 23.803C38.5987 23.5409 38.0451 23.2411 37.4945 23.1166C36.4228 22.8743 34.9807 23.2095 34.9807 23.2095Z" fill="#A15443"/>
<mask id="mask1_120_3152" style="mask-type:alpha" maskUnits="userSpaceOnUse" x="34" y="21" width="6" height="3">
<path d="M34.9807 23.2095L35.2841 22.1612C35.2841 22.1612 36.506 21.7762 37.7979 22.0683C38.7156 22.2758 39.4167 22.7681 39.7458 23.0359C39.8785 23.1438 39.9227 23.3197 39.874 23.488V23.488C39.7706 23.8452 39.3139 24.0001 39.0069 23.803C38.5987 23.5409 38.0451 23.2411 37.4945 23.1166C36.4228 22.8743 34.9807 23.2095 34.9807 23.2095Z" fill="#A15443"/>
</mask>
<g mask="url(#mask1_120_3152)">
<path d="M37.8704 22.5364C37.8459 22.7439 38.1329 23.3189 38.3603 23.4845L37.7572 23.4525L34.068 22.7642L37.3325 20.9539C38.049 21.5346 39.3728 22.6518 38.9362 22.4749C38.3904 22.2538 37.9011 22.2771 37.8704 22.5364Z" fill="#723D31"/>
</g>
<path d="M32.2195 23.5769C30.4502 25.3918 29.9682 27.1696 30.0035 28.6772C30.0415 30.3049 31.5142 31.4632 33.1359 31.6075C35.2577 31.7963 36.8096 31.5598 39.2282 30.6629C40.5836 30.1603 41.395 28.7109 40.8753 27.362C39.3538 23.4126 36.3496 22.5404 36.175 22.2212C35.9699 21.8461 35.1816 21.9946 35.4487 21.4025C35.7158 20.8104 35.5844 20.9847 34.486 20.6793C33.6547 20.4482 33.455 20.5113 33.4384 21.7442C32.9718 21.4955 31.9102 20.5309 32.2442 21.9471C33.7632 22.5637 32.4461 22.6636 32.2195 23.5769Z" fill="#FF902F"/>
<mask id="mask2_120_3152" style="mask-type:alpha" maskUnits="userSpaceOnUse" x="30" y="20" width="12" height="12">
<path d="M32.2195 23.5769C30.4502 25.3918 29.9682 27.1696 30.0035 28.6772C30.0415 30.3049 31.5142 31.4632 33.1359 31.6075C35.2577 31.7963 36.8096 31.5598 39.2282 30.6629C40.5836 30.1603 41.395 28.7109 40.8753 27.362C39.3538 23.4126 36.3496 22.5404 36.175 22.2212C35.9699 21.8461 35.1816 21.9946 35.4487 21.4025C35.7158 20.8104 35.5844 20.9847 34.486 20.6793C33.6547 20.4482 33.455 20.5113 33.4384 21.7442C32.9718 21.4955 31.9102 20.5309 32.2442 21.9471C33.7632 22.5637 32.4461 22.6636 32.2195 23.5769Z" fill="#FF902F"/>
</mask>
<g mask="url(#mask2_120_3152)">
<path d="M35.1255 30.3061C36.9678 30.2417 38.8349 29.3971 39.739 27.857C40.6431 26.3169 38.5599 23.8251 38.1947 23.1676C39.2355 22.9907 41.1051 25.6124 41.6492 27.1734C42.3293 29.1247 39.7959 30.9026 37.1903 31.7894C34.5846 32.6762 29.0392 31.5519 28.9163 29.3375C28.8399 27.9621 30.4929 24.4153 31.4022 22.8063L32.9734 23.2895C32.8872 23.414 37.774 22.4697 37.6665 22.6517C37.7915 23.8905 35.2179 24.4493 33.7131 24.5039C33.3507 24.5171 32.3451 25.0029 32.2325 25.3477C31.9912 26.0859 31.8645 26.8842 31.8798 27.5202C31.9112 28.8285 33.2832 30.3706 35.1255 30.3061Z" fill="url(#paint2_linear_120_3152)"/>
</g>
<path d="M32.5982 23.2621C32.8556 23.8271 33.5974 23.7592 34.6727 23.5749C35.4609 23.4398 36.7057 22.6871 36.7057 22.6871C36.7057 22.6871 36.8769 22.5437 36.675 22.2655C36.373 21.8492 37.2311 19.6951 37.2102 19.4083C37.1931 19.1728 36.8152 18.9904 36.4634 18.9739C36.4128 18.9716 36.3801 18.9112 36.4054 18.8672C36.519 18.6692 36.4958 18.5383 36.4498 18.5274C34.7773 18.1296 33.4814 18.8732 33.0928 19.3129C32.914 19.5152 32.5262 19.4092 31.8352 19.7403C31.1442 20.0714 30.1347 21.1966 30.9831 21.4891C31.7643 21.7583 32.1292 22.2759 32.4197 22.5729C32.466 22.6203 32.4958 22.6806 32.4975 22.747C32.5007 22.8715 32.5106 23.0699 32.5982 23.2621Z" fill="#FF902F"/>
<mask id="mask3_120_3152" style="mask-type:alpha" maskUnits="userSpaceOnUse" x="30" y="18" width="8" height="6">
<path d="M32.5982 23.2621C32.8556 23.8271 33.5974 23.7592 34.6727 23.5749C35.4609 23.4398 36.7057 22.6871 36.7057 22.6871C36.7057 22.6871 36.8769 22.5437 36.675 22.2655C36.373 21.8492 37.2311 19.6951 37.2102 19.4083C37.1931 19.1728 36.8152 18.9904 36.4634 18.9739C36.4128 18.9716 36.3801 18.9112 36.4054 18.8672C36.519 18.6692 36.4958 18.5383 36.4498 18.5274C34.7773 18.1296 33.4814 18.8732 33.0928 19.3129C32.914 19.5152 32.5262 19.4092 31.8352 19.7403C31.1442 20.0714 30.1347 21.1966 30.9831 21.4891C31.7643 21.7583 32.1292 22.2759 32.4197 22.5729C32.466 22.6203 32.4958 22.6806 32.4975 22.747C32.5007 22.8715 32.5106 23.0699 32.5982 23.2621Z" fill="#FF902F"/>
</mask>
<g mask="url(#mask3_120_3152)">
<path d="M33.3835 21.7163C32.9389 21.897 31.8576 21.7899 31.5495 21.714L32.1809 22.9014C33.2997 23.2604 35.5574 23.8091 35.6375 23.1323C35.7176 22.4555 35.2559 21.3479 34.7047 21.0336C34.477 21.1744 33.8281 21.5355 33.3835 21.7163Z" fill="url(#paint3_linear_120_3152)"/>
<path d="M35.0993 22.9065C35.1211 22.2576 34.6076 21.4125 34.3481 21.071C34.6212 21.157 35.1862 21.4427 35.2616 21.8975C35.3585 21.5478 36.3887 20.9618 36.8917 20.7125L37.1039 21.9277C36.4266 22.5243 35.0774 23.5553 35.0993 22.9065Z" fill="url(#paint4_linear_120_3152)"/>
<path d="M35.1447 20.8324C35.1447 20.8324 35.1706 20.5215 35.1129 20.3746C35.1862 20.5203 35.265 20.5728 35.1447 20.8324C34.8777 20.5888 34.7101 20.4738 34.5452 20.4711C34.3803 20.4684 34.2629 20.4783 34.0246 20.624C33.8114 20.7545 33.498 20.9462 33.0278 21.1908C32.1286 21.5542 31.3619 21.5859 31.0188 21.5323L30.6506 21.6515L30.3205 20.5569L32.7336 18.6546L33.8703 18.5041L35.0631 17.9705L36.6082 17.9231L37.3837 18.9984L37.1734 19.6655C36.9508 19.8512 36.7006 19.9033 36.3213 20.0031C35.8693 20.1711 35.1447 20.8324 35.1447 20.8324Z" fill="#FFBD57"/>
<path d="M34.5075 20.0139C34.1806 19.9362 33.2641 20.9032 31.3929 21.0922C31.3211 21.0995 31.2581 21.0427 31.2705 20.9716C31.3871 20.3031 32.4116 19.9669 32.4407 19.9619C32.6297 19.9298 33.2191 19.9038 33.6794 19.4225C34.1743 18.905 35.703 18.5747 35.8359 18.8319C35.8175 18.9094 35.7706 18.9849 35.7132 19.0531C35.6687 19.1061 35.7434 19.2686 35.8119 19.2609C36.0823 19.2306 36.4381 19.226 36.7661 19.3327C36.8468 19.359 36.8375 19.4656 36.7559 19.49C35.947 19.7324 35.3312 20.0262 35.114 20.39C35.0408 20.2444 34.842 20.0934 34.5075 20.0139Z" fill="url(#paint5_linear_120_3152)"/>
</g>
<path d="M34.3622 23.0464C33.549 23.1799 32.8898 22.9514 32.4603 22.6618C32.4603 22.6618 31.9033 23.0424 32.0988 23.5771C32.2942 24.1118 32.6659 24.3307 34.38 24.2045C36.0942 24.0783 36.7609 23.5806 37.0897 23.0427C37.3349 22.6415 36.9083 21.9906 36.5741 21.9991C35.9967 22.7237 35.5543 22.8508 34.3622 23.0464Z" fill="#522920"/>
<path d="M34.3606 22.9438C33.5472 23.0656 32.8884 22.8624 32.4594 22.604C32.4594 22.604 31.9985 23.1074 32.177 23.4293C32.3555 23.7511 32.6623 24.0993 34.3766 23.9817C36.0909 23.8641 36.5904 23.4658 36.92 22.9828C37.1659 22.6225 36.9083 21.9907 36.5741 21.9992C35.9956 22.6502 35.553 22.7652 34.3606 22.9438Z" fill="#723D31"/>
<mask id="mask4_120_3152" style="mask-type:alpha" maskUnits="userSpaceOnUse" x="32" y="21" width="6" height="4">
<path d="M34.3606 22.9438C33.5472 23.0656 32.8884 22.8624 32.4594 22.604C32.4594 22.604 31.9985 23.1074 32.177 23.4293C32.3555 23.7511 32.6623 24.0993 34.3766 23.9817C36.0909 23.8641 36.5904 23.4658 36.92 22.9828C37.1659 22.6225 36.9083 21.9907 36.5741 21.9992C35.9956 22.6502 35.553 22.7652 34.3606 22.9438Z" fill="#723D31"/>
</mask>
<g mask="url(#mask4_120_3152)">
<path d="M32.7819 23.5508C32.7103 23.1295 32.9283 22.8583 33.1453 22.7865L33.0225 22.2395L31.0613 22.5728L31.1944 24.0597L33.3551 24.0213C33.1491 23.9816 32.8396 23.8899 32.7819 23.5508Z" fill="#522920"/>
<path d="M36.4773 22.4151C36.3012 22.6028 35.2479 23.0235 34.6436 23.0734C34.0393 23.1232 34.3833 23.4757 34.727 23.564C35.0707 23.6523 36.0015 23.4756 36.5712 22.9673C36.9973 22.5871 36.6533 22.2273 36.4773 22.4151Z" fill="#A15443"/>
</g>
<path d="M35.9243 24.2506C36.2161 24.1855 36.4699 24.0958 36.7339 23.9353C37.0728 23.7292 37.5116 23.6907 37.8114 23.9504C41.655 27.2804 38.0719 30.039 38.0678 28.885C38.0557 25.5678 36.7396 25.2126 35.8566 24.4944C35.7639 24.419 35.8077 24.2766 35.9243 24.2506Z" fill="url(#paint6_linear_120_3152)" style="mix-blend-mode:overlay"/>
<g filter="url(#filter2_i_120_3152)">
<path d="M34.9763 28.9288C37.1623 29.2568 38.1971 28.4984 38.2994 27.3141C38.4016 26.1299 37.3291 25.7974 36.7323 25.7285C36.1355 25.6596 36.1963 25.9084 35.6415 25.7391C35.2232 25.6115 35.0668 25.3065 34.7643 25.1725C33.6104 24.6616 32.7853 25.1818 32.4588 25.9639C32.0903 26.8465 32.7903 28.6007 34.9763 28.9288Z" fill="#A15443"/>
</g>
<path d="M33.3608 25.218C33.0549 25.3462 32.8148 25.5868 32.6581 25.8882L32.5962 26.0211C32.2834 26.7715 32.8466 28.3634 34.8035 28.7505L34.9973 28.784C36.073 28.9455 36.8408 28.8358 37.346 28.5608C37.7817 28.3235 38.0353 27.9564 38.1235 27.5004L38.151 27.3007C38.1975 26.7626 37.9809 26.4318 37.6903 26.2205C37.4652 26.057 37.1911 25.9618 36.9475 25.9108L36.717 25.8737C36.4474 25.8426 36.3349 25.8814 36.2101 25.9128C36.1406 25.9304 36.062 25.9476 35.9607 25.9457C35.911 25.9447 35.8576 25.9384 35.7981 25.9276L35.5989 25.8783C35.3603 25.8054 35.1976 25.6815 35.0633 25.5683C34.9588 25.4802 34.8802 25.4077 34.7943 25.3535L34.7044 25.3053C34.1588 25.0637 33.7077 25.0727 33.3608 25.218Z" stroke="#723D31" stroke-width="0.294702"/>
<path d="M34.8491 26.1289C35.1213 26.4115 35.7614 26.5717 36.081 26.5174" stroke="#CC6C57" stroke-width="0.854636" stroke-linecap="round"/>
<path d="M50.7058 27.1658C50.4895 27.1658 50.2805 27.1512 50.0788 27.1218C49.8771 27.0962 49.692 27.0558 49.5233 27.0008C49.3546 26.9422 49.208 26.8707 49.0833 26.7863L49.3363 26.1648C49.461 26.2492 49.5966 26.317 49.7433 26.3683C49.89 26.416 50.044 26.4508 50.2053 26.4728C50.3703 26.4912 50.5371 26.5003 50.7058 26.5003C50.9661 26.5003 51.166 26.4582 51.3053 26.3738C51.4446 26.2858 51.5143 26.1575 51.5143 25.9888C51.5143 25.8935 51.4923 25.8202 51.4483 25.7688C51.4043 25.7138 51.3346 25.6717 51.2393 25.6423C51.144 25.6093 51.0211 25.58 50.8708 25.5543L50.2218 25.4388C49.8478 25.3728 49.5783 25.2445 49.4133 25.0538C49.2483 24.8595 49.1658 24.6193 49.1658 24.3333C49.1658 24.0987 49.2355 23.8952 49.3748 23.7228C49.5141 23.5505 49.7066 23.4167 49.9523 23.3213C50.198 23.226 50.4785 23.1783 50.7938 23.1783C50.9808 23.1783 51.1586 23.1948 51.3273 23.2278C51.4996 23.2572 51.6573 23.3012 51.8003 23.3598C51.9433 23.4185 52.068 23.4918 52.1743 23.5798L51.9213 24.2013C51.7673 24.0693 51.595 23.9777 51.4043 23.9263C51.2136 23.8713 51.0083 23.8438 50.7883 23.8438C50.6233 23.8438 50.4748 23.8622 50.3428 23.8988C50.2145 23.9355 50.1136 23.9905 50.0403 24.0638C49.967 24.1335 49.9303 24.2252 49.9303 24.3388C49.9303 24.4635 49.9725 24.5588 50.0568 24.6248C50.1411 24.6908 50.2951 24.744 50.5188 24.7843L51.1623 24.8943C51.54 24.9567 51.8205 25.0777 52.0038 25.2573C52.1872 25.437 52.2788 25.668 52.2788 25.9503C52.2788 26.1887 52.2128 26.3995 52.0808 26.5828C51.9525 26.7662 51.771 26.9092 51.5363 27.0118C51.3016 27.1145 51.0248 27.1658 50.7058 27.1658ZM54.6518 27.1658C54.3511 27.1658 54.089 27.1053 53.8653 26.9843C53.6453 26.8633 53.4748 26.6947 53.3538 26.4783C53.2365 26.262 53.1778 26.0108 53.1778 25.7248C53.1778 25.4352 53.2365 25.184 53.3538 24.9713C53.4748 24.755 53.6453 24.5882 53.8653 24.4708C54.089 24.3498 54.3511 24.2893 54.6518 24.2893C54.9561 24.2893 55.2165 24.3498 55.4328 24.4708C55.6528 24.5882 55.8215 24.755 55.9388 24.9713C56.0598 25.184 56.1203 25.4352 56.1203 25.7248C56.1203 26.0108 56.0598 26.262 55.9388 26.4783C55.8215 26.6947 55.6528 26.8633 55.4328 26.9843C55.2165 27.1053 54.9561 27.1658 54.6518 27.1658ZM54.6518 26.5278C54.8828 26.5278 55.0625 26.4545 55.1908 26.3078C55.3191 26.1612 55.3833 25.965 55.3833 25.7193C55.3833 25.4737 55.3191 25.2812 55.1908 25.1418C55.0661 24.9988 54.8865 24.9273 54.6518 24.9273C54.4171 24.9273 54.2356 24.9988 54.1073 25.1418C53.979 25.2812 53.9148 25.4737 53.9148 25.7193C53.9148 25.965 53.979 26.1612 54.1073 26.3078C54.2393 26.4545 54.4208 26.5278 54.6518 26.5278ZM58.1369 27.1658C57.8289 27.1658 57.5924 27.0833 57.4274 26.9183C57.2624 26.7533 57.1799 26.5205 57.1799 26.2198V23.2333H57.9444V26.1538C57.9444 26.2455 57.9572 26.3225 57.9829 26.3848C58.0085 26.4472 58.047 26.4948 58.0984 26.5278C58.1497 26.5608 58.212 26.5773 58.2854 26.5773C58.344 26.5773 58.3972 26.5755 58.4449 26.5718C58.4962 26.5645 58.5512 26.5535 58.6099 26.5388L58.6704 27.0778C58.5824 27.1108 58.498 27.1328 58.4174 27.1438C58.3404 27.1585 58.2469 27.1658 58.1369 27.1658ZM60.7584 27.1658C60.4577 27.1658 60.1955 27.1053 59.9719 26.9843C59.7519 26.8633 59.5814 26.6947 59.4604 26.4783C59.343 26.262 59.2844 26.0108 59.2844 25.7248C59.2844 25.4352 59.343 25.184 59.4604 24.9713C59.5814 24.755 59.7519 24.5882 59.9719 24.4708C60.1955 24.3498 60.4577 24.2893 60.7584 24.2893C61.0627 24.2893 61.323 24.3498 61.5394 24.4708C61.7594 24.5882 61.928 24.755 62.0454 24.9713C62.1664 25.184 62.2269 25.4352 62.2269 25.7248C62.2269 26.0108 62.1664 26.262 62.0454 26.4783C61.928 26.6947 61.7594 26.8633 61.5394 26.9843C61.323 27.1053 61.0627 27.1658 60.7584 27.1658ZM60.7584 26.5278C60.9894 26.5278 61.169 26.4545 61.2974 26.3078C61.4257 26.1612 61.4899 25.965 61.4899 25.7193C61.4899 25.4737 61.4257 25.2812 61.2974 25.1418C61.1727 24.9988 60.993 24.9273 60.7584 24.9273C60.5237 24.9273 60.3422 24.9988 60.2139 25.1418C60.0855 25.2812 60.0214 25.4737 60.0214 25.7193C60.0214 25.965 60.0855 26.1612 60.2139 26.3078C60.3459 26.4545 60.5274 26.5278 60.7584 26.5278ZM66.7454 27.1658C66.3897 27.1658 66.089 27.109 65.8434 26.9953C65.5977 26.878 65.4125 26.7112 65.2879 26.4948C65.1632 26.2785 65.1009 26.0218 65.1009 25.7248C65.1009 25.4535 65.1577 25.2097 65.2714 24.9933C65.3887 24.777 65.5574 24.6065 65.7774 24.4818C65.9974 24.3535 66.2614 24.2893 66.5694 24.2893C66.8444 24.2893 67.0845 24.348 67.2899 24.4653C67.4952 24.579 67.6529 24.744 67.7629 24.9603C67.8765 25.173 67.9334 25.4315 67.9334 25.7358V25.9668H65.6949V25.4883H67.3779L67.2954 25.5928C67.2954 25.3325 67.2312 25.1418 67.1029 25.0208C66.9782 24.8998 66.8022 24.8393 66.5749 24.8393C66.4282 24.8393 66.298 24.8687 66.1844 24.9273C66.0707 24.986 65.9809 25.074 65.9149 25.1913C65.8489 25.305 65.8159 25.4498 65.8159 25.6258V25.7138C65.8159 25.9155 65.8525 26.0787 65.9259 26.2033C65.9992 26.328 66.1074 26.4197 66.2504 26.4783C66.3934 26.537 66.5694 26.5663 66.7784 26.5663C66.9214 26.5663 67.068 26.5498 67.2184 26.5168C67.3724 26.4838 67.5117 26.4233 67.6364 26.3353L67.8509 26.8633C67.6969 26.9733 67.5209 27.0522 67.3229 27.0998C67.1249 27.1438 66.9324 27.1658 66.7454 27.1658ZM69.6513 27.1108L68.5183 24.3443H69.3268L70.0363 26.3243H70.0748L70.7843 24.3443H71.5708L70.4323 27.1108H69.6513ZM73.7919 27.1658C73.4362 27.1658 73.1355 27.109 72.8899 26.9953C72.6442 26.878 72.459 26.7112 72.3344 26.4948C72.2097 26.2785 72.1474 26.0218 72.1474 25.7248C72.1474 25.4535 72.2042 25.2097 72.3179 24.9933C72.4352 24.777 72.6039 24.6065 72.8239 24.4818C73.0439 24.3535 73.3079 24.2893 73.6159 24.2893C73.8909 24.2893 74.131 24.348 74.3364 24.4653C74.5417 24.579 74.6994 24.744 74.8094 24.9603C74.923 25.173 74.9799 25.4315 74.9799 25.7358V25.9668H72.7414V25.4883H74.4244L74.3419 25.5928C74.3419 25.3325 74.2777 25.1418 74.1494 25.0208C74.0247 24.8998 73.8487 24.8393 73.6214 24.8393C73.4747 24.8393 73.3445 24.8687 73.2309 24.9273C73.1172 24.986 73.0274 25.074 72.9614 25.1913C72.8954 25.305 72.8624 25.4498 72.8624 25.6258V25.7138C72.8624 25.9155 72.899 26.0787 72.9724 26.2033C73.0457 26.328 73.1539 26.4197 73.2969 26.4783C73.4399 26.537 73.6159 26.5663 73.8249 26.5663C73.9679 26.5663 74.1145 26.5498 74.2649 26.5168C74.4189 26.4838 74.5582 26.4233 74.6829 26.3353L74.8974 26.8633C74.7434 26.9733 74.5674 27.0522 74.3694 27.0998C74.1714 27.1438 73.9789 27.1658 73.7919 27.1658ZM76.0313 27.1108V24.3443H76.7188V24.9053H76.7518C76.8471 24.711 76.9828 24.5607 77.1588 24.4543C77.3348 24.3443 77.5309 24.2893 77.7473 24.2893C77.9746 24.2893 78.1671 24.3333 78.3248 24.4213C78.4824 24.5057 78.6016 24.6377 78.6823 24.8173C78.7629 24.9933 78.8033 25.2188 78.8033 25.4938V27.1108H78.0388V25.5213C78.0388 25.3967 78.0204 25.2903 77.9838 25.2023C77.9508 25.1143 77.8958 25.0465 77.8188 24.9988C77.7418 24.9512 77.6391 24.9273 77.5108 24.9273C77.3751 24.9273 77.2523 24.9585 77.1423 25.0208C77.0359 25.0832 76.9516 25.1675 76.8893 25.2738C76.8269 25.3802 76.7958 25.4975 76.7958 25.6258V27.1108H76.0313ZM81.345 27.1658C80.9527 27.1658 80.6612 27.0687 80.4705 26.8743C80.2798 26.6763 80.1845 26.3958 80.1845 26.0328V24.9713H79.64V24.3443H80.2395V23.5798H80.949V24.3443H81.95V24.9713H80.949V26.0053C80.949 26.1777 80.993 26.3078 81.081 26.3958C81.169 26.4802 81.301 26.5223 81.477 26.5223C81.554 26.5223 81.6292 26.515 81.7025 26.5003C81.7795 26.4857 81.8528 26.4655 81.9225 26.4398L82.027 27.0283C81.928 27.076 81.8198 27.1108 81.7025 27.1328C81.5888 27.1548 81.4697 27.1658 81.345 27.1658ZM84.0225 27.1658C83.8538 27.1658 83.6888 27.153 83.5275 27.1273C83.3698 27.1053 83.225 27.0723 83.093 27.0283C82.961 26.9843 82.8473 26.9275 82.752 26.8578L82.95 26.3243C83.049 26.3867 83.1572 26.438 83.2745 26.4783C83.3918 26.515 83.511 26.5425 83.632 26.5608C83.7567 26.5755 83.874 26.5828 83.984 26.5828C84.2003 26.5828 84.3635 26.5627 84.4735 26.5223C84.5835 26.482 84.6385 26.4123 84.6385 26.3133C84.6385 26.229 84.6092 26.1685 84.5505 26.1318C84.4918 26.0952 84.3928 26.0677 84.2535 26.0493L83.621 25.9668C83.3423 25.9302 83.1352 25.8385 82.9995 25.6918C82.8675 25.5415 82.8015 25.3655 82.8015 25.1638C82.8015 24.9952 82.8473 24.8467 82.939 24.7183C83.0343 24.5863 83.1773 24.4818 83.368 24.4048C83.5623 24.3278 83.8043 24.2893 84.094 24.2893C84.237 24.2893 84.38 24.3003 84.523 24.3223C84.6697 24.3443 84.8035 24.3792 84.9245 24.4268C85.0492 24.4708 85.15 24.5258 85.227 24.5918L85.0125 25.1143C84.9355 25.0557 84.8457 25.0098 84.743 24.9768C84.6403 24.9402 84.5322 24.9145 84.4185 24.8998C84.3085 24.8815 84.2003 24.8723 84.094 24.8723C83.8887 24.8723 83.7328 24.8943 83.6265 24.9383C83.5238 24.9823 83.4725 25.052 83.4725 25.1473C83.4725 25.228 83.5 25.2867 83.555 25.3233C83.6137 25.3563 83.7072 25.382 83.8355 25.4003L84.435 25.4938C84.7393 25.5415 84.9612 25.6332 85.1005 25.7688C85.2398 25.9008 85.3095 26.0805 85.3095 26.3078C85.3095 26.4838 85.2563 26.636 85.15 26.7643C85.0473 26.8927 84.8988 26.9917 84.7045 27.0613C84.5138 27.131 84.2865 27.1658 84.0225 27.1658Z" fill="#202224"/>
<mask id="mask5_120_3152" style="mask-type:alpha" maskUnits="userSpaceOnUse" x="13" y="14" width="16" height="23">
<path d="M14.0659 17.5975C14.0659 15.8054 15.5188 14.3525 17.3109 14.3525H21.8203C25.2697 14.3525 28.0659 17.1488 28.0659 20.5982V29.6233C28.0659 33.0727 25.2697 35.8689 21.8203 35.8689H17.3109C15.5188 35.8689 14.0659 34.4161 14.0659 32.6239V17.5975Z" fill="white" stroke="url(#paint7_linear_120_3152)" stroke-opacity="0.3" stroke-width="0.650789"/>
</mask>
<g mask="url(#mask5_120_3152)">
<rect x="13.5659" y="13.9387" width="7" height="22.3439" fill="#587ED7"/>
</g>
<defs>
<filter id="filter0_d_120_3152" x="0.214528" y="0.501149" width="107.584" height="52.6006" filterUnits="userSpaceOnUse" color-interpolation-filters="sRGB">
<feFlood flood-opacity="0" result="BackgroundImageFix"/>
<feColorMatrix in="SourceAlpha" type="matrix" values="0 0 0 0 0 0 0 0 0 0 0 0 0 0 0 0 0 0 127 0" result="hardAlpha"/>
<feOffset dx="1.69074" dy="1.69074"/>
<feGaussianBlur stdDeviation="7.60835"/>
<feColorMatrix type="matrix" values="0 0 0 0 0 0 0 0 0 0 0 0 0 0 0 0 0 0 0.05 0"/>
<feBlend mode="normal" in2="BackgroundImageFix" result="effect1_dropShadow_120_3152"/>
<feBlend mode="normal" in="SourceGraphic" in2="effect1_dropShadow_120_3152" result="shape"/>
</filter>
<filter id="filter1_d_120_3152" x="29.1375" y="17.5496" width="13.1961" height="15.8346" filterUnits="userSpaceOnUse" color-interpolation-filters="sRGB">
<feFlood flood-opacity="0" result="BackgroundImageFix"/>
<feColorMatrix in="SourceAlpha" type="matrix" values="0 0 0 0 0 0 0 0 0 0 0 0 0 0 0 0 0 0 127 0" result="hardAlpha"/>
<feOffset dx="0.432157" dy="0.851471"/>
<feComposite in2="hardAlpha" operator="out"/>
<feColorMatrix type="matrix" values="0 0 0 0 0.313726 0 0 0 0 0.0431373 0 0 0 0 0.0431373 0 0 0 1 0"/>
<feBlend mode="normal" in2="BackgroundImageFix" result="effect1_dropShadow_120_3152"/>
<feBlend mode="normal" in="SourceGraphic" in2="effect1_dropShadow_120_3152" result="shape"/>
</filter>
<filter id="filter2_i_120_3152" x="32.3655" y="24.5063" width="6.38273" height="4.4993" filterUnits="userSpaceOnUse" color-interpolation-filters="sRGB">
<feFlood flood-opacity="0" result="BackgroundImageFix"/>
<feBlend mode="normal" in="SourceGraphic" in2="BackgroundImageFix" result="shape"/>
<feColorMatrix in="SourceAlpha" type="matrix" values="0 0 0 0 0 0 0 0 0 0 0 0 0 0 0 0 0 0 127 0" result="hardAlpha"/>
<feOffset dx="0.442053" dy="-0.618874"/>
<feGaussianBlur stdDeviation="0.231341"/>
<feComposite in2="hardAlpha" operator="arithmetic" k2="-1" k3="1"/>
<feColorMatrix type="matrix" values="0 0 0 0 0.0891668 0 0 0 0 0 0 0 0 0 0 0 0 0 0.25 0"/>
<feBlend mode="normal" in2="shape" result="effect1_innerShadow_120_3152"/>
</filter>
<linearGradient id="paint0_linear_120_3152" x1="31.5096" y1="6.58095" x2="69.5424" y2="49.6277" gradientUnits="userSpaceOnUse">
<stop stop-color="#F1F1F1"/>
<stop offset="1" stop-color="#E1E1E1"/>
</linearGradient>
<linearGradient id="paint1_linear_120_3152" x1="33.8544" y1="18.6373" x2="36.0486" y2="31.5474" gradientUnits="userSpaceOnUse">
<stop stop-color="#A80908"/>
<stop offset="1" stop-color="#730606"/>
</linearGradient>
<linearGradient id="paint2_linear_120_3152" x1="30.7268" y1="29.8404" x2="38.7108" y2="25.3976" gradientUnits="userSpaceOnUse">
<stop stop-color="#D03E1D"/>
<stop offset="1" stop-color="#D03E1D" stop-opacity="0"/>
</linearGradient>
<linearGradient id="paint3_linear_120_3152" x1="34.7408" y1="23.4428" x2="34.0988" y2="20.6212" gradientUnits="userSpaceOnUse">
<stop offset="0.286458" stop-color="#D03E1D"/>
<stop offset="1" stop-color="#FF7F63" stop-opacity="0"/>
</linearGradient>
<linearGradient id="paint4_linear_120_3152" x1="36.8964" y1="22.6427" x2="35.3854" y2="20.5166" gradientUnits="userSpaceOnUse">
<stop offset="0.286458" stop-color="#D03E1D"/>
<stop offset="1" stop-color="#FF7F63" stop-opacity="0"/>
</linearGradient>
<linearGradient id="paint5_linear_120_3152" x1="32.8009" y1="18.4309" x2="33.6429" y2="20.6736" gradientUnits="userSpaceOnUse">
<stop offset="0.531412" stop-color="#FF902F"/>
<stop offset="1" stop-color="#D2411E"/>
</linearGradient>
<linearGradient id="paint6_linear_120_3152" x1="37.9365" y1="24.5071" x2="38.2435" y2="28.9509" gradientUnits="userSpaceOnUse">
<stop stop-color="#FFBD57"/>
<stop offset="1" stop-color="#FFBD57" stop-opacity="0"/>
</linearGradient>
<linearGradient id="paint7_linear_120_3152" x1="17.2582" y1="6.58095" x2="32.4817" y2="9.73424" gradientUnits="userSpaceOnUse">
<stop stop-color="#F1F1F1"/>
<stop offset="1" stop-color="#E1E1E1"/>
</linearGradient>
</defs>
</svg>
