<svg width="109" height="53" viewBox="0 0 109 53" fill="none" xmlns="http://www.w3.org/2000/svg">
<g filter="url(#filter0_d_120_3072)">
<rect x="14.6973" y="14.1763" width="76.5" height="21.5164" rx="3.245" fill="white"/>
<rect x="14.6973" y="14.1763" width="76.5" height="21.5164" rx="3.245" stroke="url(#paint0_linear_120_3072)" stroke-opacity="0.3" stroke-width="0.650789"/>
</g>
<g filter="url(#filter1_d_120_3072)">
<mask id="path-3-outside-1_120_3072" maskUnits="userSpaceOnUse" x="27.6699" y="16.6838" width="13.7439" height="16.3546" fill="black">
<rect fill="white" x="27.6699" y="16.6838" width="13.7439" height="16.3546"/>
<path d="M37.3048 18.6671C37.7238 18.7703 38.1063 18.9786 38.4085 19.2685C38.7108 19.5584 38.9206 19.9183 39.0137 20.3063C39.1068 20.6943 39.0798 21.0951 38.9352 21.4626C38.7906 21.8301 38.534 22.1494 38.196 22.384C38.1759 22.3979 38.1555 22.4115 38.1349 22.4247C38.0932 22.4622 37.6111 22.8217 37.5355 23.2886C37.5136 23.4378 37.5163 23.5901 37.5428 23.7401C37.5751 23.9409 37.7773 24.3616 37.8108 24.4166C38.2836 25.1939 38.6842 26.1951 38.8296 27.1525C39.0852 28.8349 38.7048 29.643 38.6062 29.885L38.606 29.8869C38.4218 30.4962 37.0849 30.7784 35.4706 30.5702L35.1439 30.5221C35.1408 30.5216 35.1375 30.5205 35.1343 30.52C35.1308 30.5194 35.1272 30.5192 35.1237 30.5186L35.0437 30.5049L35.0408 30.5045C35.038 30.504 35.035 30.503 35.0322 30.5025L35.0206 30.501C34.9942 30.4962 34.9681 30.4905 34.9418 30.4854C34.9383 30.4847 34.9348 30.4838 34.9313 30.4831L34.9206 30.4818C34.6316 30.4257 34.3549 30.3556 34.0937 30.2776C33.8201 30.4036 33.5059 30.5172 33.1636 30.6068L32.9233 30.6648C32.9209 30.6653 32.9185 30.6663 32.9162 30.6669C32.9135 30.6674 32.9107 30.6682 32.908 30.6688C32.8886 30.6731 32.869 30.6772 32.8494 30.6813L32.8485 30.6811L32.8464 30.6819L32.8343 30.6843L32.8322 30.6851C32.8125 30.6891 32.7925 30.6926 32.7728 30.6964C32.7701 30.6969 32.7673 30.6979 32.7647 30.6984L32.7567 30.6994C31.4463 30.9538 30.3154 30.769 30.161 30.2763L30.1611 30.2753C30.0846 30.0923 29.7908 29.4815 29.9621 28.1924C30.0596 27.4587 30.3476 26.687 30.692 26.0852C30.717 26.0412 30.8626 25.7171 30.8842 25.5637C30.9022 25.4488 30.9014 25.3327 30.8833 25.2193C30.8213 24.8642 30.4566 24.5984 30.425 24.5705C30.4096 24.5609 30.3943 24.5513 30.3794 24.5412C30.1241 24.3682 29.9286 24.1287 29.816 23.851C29.7035 23.5732 29.6788 23.268 29.7435 22.9703C29.8081 22.6725 29.9598 22.3941 30.1819 22.1672C30.4039 21.9404 30.687 21.7741 30.9986 21.6873C31.0038 21.6859 31.1876 21.6474 31.1936 21.6464C31.5136 21.601 31.8374 21.6403 32.1271 21.7604C32.4165 21.8804 32.6602 22.0766 32.8308 22.3253C33.0015 22.5741 33.0925 22.8667 33.0921 23.1682C33.0915 23.4696 32.9998 23.7682 32.8285 24.0302C32.8182 24.0457 32.8079 24.0613 32.7972 24.0765C32.7784 24.1149 32.5405 24.5065 32.6152 24.8589C32.6407 24.9709 32.6839 25.078 32.7433 25.1768C32.7919 25.2608 32.9133 25.3859 33.0046 25.4756C33.4482 24.8447 34.0074 24.2674 34.5611 23.8313C34.6117 23.7914 34.9475 23.4669 35.0479 23.2901C35.1253 23.1588 35.1811 23.0171 35.2128 22.8696C35.3053 22.4059 34.9794 21.9015 34.9535 21.8518C34.9388 21.8322 34.9245 21.8123 34.9106 21.7924C34.6764 21.4549 34.5489 21.0668 34.5419 20.6725C34.5348 20.278 34.649 19.8929 34.8715 19.5619C35.094 19.2309 35.4156 18.967 35.7997 18.8005C36.1837 18.634 36.6146 18.5714 37.043 18.6201C37.0501 18.6209 37.2993 18.6657 37.3048 18.6671Z"/>
</mask>
<path d="M37.3048 18.6671C37.7238 18.7703 38.1063 18.9786 38.4085 19.2685C38.7108 19.5584 38.9206 19.9183 39.0137 20.3063C39.1068 20.6943 39.0798 21.0951 38.9352 21.4626C38.7906 21.8301 38.534 22.1494 38.196 22.384C38.1759 22.3979 38.1555 22.4115 38.1349 22.4247C38.0932 22.4622 37.6111 22.8217 37.5355 23.2886C37.5136 23.4378 37.5163 23.5901 37.5428 23.7401C37.5751 23.9409 37.7773 24.3616 37.8108 24.4166C38.2836 25.1939 38.6842 26.1951 38.8296 27.1525C39.0852 28.8349 38.7048 29.643 38.6062 29.885L38.606 29.8869C38.4218 30.4962 37.0849 30.7784 35.4706 30.5702L35.1439 30.5221C35.1408 30.5216 35.1375 30.5205 35.1343 30.52C35.1308 30.5194 35.1272 30.5192 35.1237 30.5186L35.0437 30.5049L35.0408 30.5045C35.038 30.504 35.035 30.503 35.0322 30.5025L35.0206 30.501C34.9942 30.4962 34.9681 30.4905 34.9418 30.4854C34.9383 30.4847 34.9348 30.4838 34.9313 30.4831L34.9206 30.4818C34.6316 30.4257 34.3549 30.3556 34.0937 30.2776C33.8201 30.4036 33.5059 30.5172 33.1636 30.6068L32.9233 30.6648C32.9209 30.6653 32.9185 30.6663 32.9162 30.6669C32.9135 30.6674 32.9107 30.6682 32.908 30.6688C32.8886 30.6731 32.869 30.6772 32.8494 30.6813L32.8485 30.6811L32.8464 30.6819L32.8343 30.6843L32.8322 30.6851C32.8125 30.6891 32.7925 30.6926 32.7728 30.6964C32.7701 30.6969 32.7673 30.6979 32.7647 30.6984L32.7567 30.6994C31.4463 30.9538 30.3154 30.769 30.161 30.2763L30.1611 30.2753C30.0846 30.0923 29.7908 29.4815 29.9621 28.1924C30.0596 27.4587 30.3476 26.687 30.692 26.0852C30.717 26.0412 30.8626 25.7171 30.8842 25.5637C30.9022 25.4488 30.9014 25.3327 30.8833 25.2193C30.8213 24.8642 30.4566 24.5984 30.425 24.5705C30.4096 24.5609 30.3943 24.5513 30.3794 24.5412C30.1241 24.3682 29.9286 24.1287 29.816 23.851C29.7035 23.5732 29.6788 23.268 29.7435 22.9703C29.8081 22.6725 29.9598 22.3941 30.1819 22.1672C30.4039 21.9404 30.687 21.7741 30.9986 21.6873C31.0038 21.6859 31.1876 21.6474 31.1936 21.6464C31.5136 21.601 31.8374 21.6403 32.1271 21.7604C32.4165 21.8804 32.6602 22.0766 32.8308 22.3253C33.0015 22.5741 33.0925 22.8667 33.0921 23.1682C33.0915 23.4696 32.9998 23.7682 32.8285 24.0302C32.8182 24.0457 32.8079 24.0613 32.7972 24.0765C32.7784 24.1149 32.5405 24.5065 32.6152 24.8589C32.6407 24.9709 32.6839 25.078 32.7433 25.1768C32.7919 25.2608 32.9133 25.3859 33.0046 25.4756C33.4482 24.8447 34.0074 24.2674 34.5611 23.8313C34.6117 23.7914 34.9475 23.4669 35.0479 23.2901C35.1253 23.1588 35.1811 23.0171 35.2128 22.8696C35.3053 22.4059 34.9794 21.9015 34.9535 21.8518C34.9388 21.8322 34.9245 21.8123 34.9106 21.7924C34.6764 21.4549 34.5489 21.0668 34.5419 20.6725C34.5348 20.278 34.649 19.8929 34.8715 19.5619C35.094 19.2309 35.4156 18.967 35.7997 18.8005C36.1837 18.634 36.6146 18.5714 37.043 18.6201C37.0501 18.6209 37.2993 18.6657 37.3048 18.6671Z" fill="#D9D9D9"/>
<path d="M37.3048 18.6671L37.4944 17.8975L37.4937 17.8973L37.3048 18.6671ZM38.4085 19.2685L38.9572 18.6965L38.9571 18.6964L38.4085 19.2685ZM39.0137 20.3063L39.7845 20.1215L39.7845 20.1214L39.0137 20.3063ZM38.9352 21.4626L39.6728 21.7528L39.6729 21.7527L38.9352 21.4626ZM38.196 22.384L38.6461 23.0364L38.6479 23.0352L38.196 22.384ZM38.1349 22.4247L37.708 21.7568L37.6529 21.792L37.6044 21.8357L38.1349 22.4247ZM37.5355 23.2886L36.753 23.1618L36.7512 23.1737L37.5355 23.2886ZM37.5428 23.7401L38.3255 23.6142L38.3233 23.6018L37.5428 23.7401ZM37.8108 24.4166L38.488 24.0047L38.4879 24.0047L37.8108 24.4166ZM38.8296 27.1525L38.046 27.2715L38.046 27.2716L38.8296 27.1525ZM38.6062 29.885L37.8721 29.5859L37.8324 29.6835L37.8195 29.7881L38.6062 29.885ZM38.606 29.8869L39.3647 30.1162L39.3843 30.0512L39.3926 29.9838L38.606 29.8869ZM35.4706 30.5702L35.3551 31.3544L35.3621 31.3554L35.3692 31.3564L35.4706 30.5702ZM35.1439 30.5221L35.0126 31.3038L35.0205 31.3051L35.0284 31.3063L35.1439 30.5221ZM35.1343 30.52L35.2656 29.7383L35.2649 29.7381L35.1343 30.52ZM35.1237 30.5186L34.989 31.2998L34.9914 31.3002L35.1237 30.5186ZM35.0437 30.5049L35.1784 29.7237L35.1596 29.7205L35.1406 29.7182L35.0437 30.5049ZM35.0408 30.5045L34.8999 31.2845L34.9218 31.2885L34.9439 31.2912L35.0408 30.5045ZM35.0322 30.5025L35.1816 29.724L35.1555 29.719L35.1291 29.7158L35.0322 30.5025ZM35.0206 30.501L34.8793 31.281L34.9014 31.285L34.9237 31.2877L35.0206 30.501ZM34.9418 30.4854L35.092 29.7071L35.0911 29.707L34.9418 30.4854ZM34.9313 30.4831L35.0814 29.7048L35.0549 29.6997L35.0282 29.6964L34.9313 30.4831ZM34.9206 30.4818L34.7696 31.2599L34.7965 31.2652L34.8237 31.2685L34.9206 30.4818ZM34.0937 30.2776L34.3205 29.5181L34.0338 29.4325L33.7621 29.5577L34.0937 30.2776ZM33.1636 30.6068L33.3495 31.3774L33.357 31.3755L33.3645 31.3736L33.1636 30.6068ZM32.9233 30.6648L33.0943 31.4388L33.1017 31.4371L33.1091 31.4353L32.9233 30.6648ZM32.9162 30.6669L32.7452 29.8929L32.7444 29.8931L32.9162 30.6669ZM32.908 30.6688L32.7381 29.8946L32.7367 29.8949L32.908 30.6688ZM32.8494 30.6813L32.7525 31.468L32.8831 31.484L33.0119 31.4571L32.8494 30.6813ZM32.8485 30.6811L32.9454 29.8945L32.7597 29.8716L32.5833 29.9342L32.8485 30.6811ZM32.8464 30.6819L33.0033 31.4588L33.0585 31.4477L33.1116 31.4289L32.8464 30.6819ZM32.8343 30.6843L32.6775 29.9074L32.6222 29.9185L32.5692 29.9373L32.8343 30.6843ZM32.8322 30.6851L32.9932 31.4612L33.0463 31.4502L33.0974 31.432L32.8322 30.6851ZM32.7728 30.6964L32.6209 29.9185L32.62 29.9187L32.7728 30.6964ZM32.7647 30.6984L32.8615 31.4851L32.8892 31.4817L32.9166 31.4763L32.7647 30.6984ZM32.7567 30.6994L32.6599 29.9127L32.6326 29.916L32.6056 29.9213L32.7567 30.6994ZM30.161 30.2763L29.3743 30.1794L29.3533 30.3496L29.4046 30.5133L30.161 30.2763ZM30.1611 30.2753L30.9478 30.3722L30.9735 30.1635L30.8924 29.9694L30.1611 30.2753ZM29.9621 28.1924L30.7479 28.2968L30.7479 28.2968L29.9621 28.1924ZM30.692 26.0852L31.38 26.4788L31.3813 26.4765L30.692 26.0852ZM30.8842 25.5637L30.1011 25.4407L30.0993 25.4531L30.8842 25.5637ZM30.8833 25.2193L31.6662 25.0944L31.6641 25.0828L30.8833 25.2193ZM30.425 24.5705L30.9498 23.9764L30.8999 23.9323L30.8433 23.8972L30.425 24.5705ZM30.3794 24.5412L29.9348 25.1974L29.9358 25.1981L30.3794 24.5412ZM29.816 23.851L29.0814 24.1485L29.0814 24.1485L29.816 23.851ZM29.7435 22.9703L28.9689 22.8021L28.9689 22.8021L29.7435 22.9703ZM30.1819 22.1672L29.6155 21.6127L29.6155 21.6127L30.1819 22.1672ZM30.9986 21.6873L30.7868 20.9235L30.7861 20.9237L30.9986 21.6873ZM31.1936 21.6464L31.0821 20.8616L31.0742 20.8628L31.0663 20.864L31.1936 21.6464ZM32.1271 21.7604L32.4306 21.0282L32.4306 21.0282L32.1271 21.7604ZM32.8308 22.3253L33.4845 21.877L33.4844 21.8768L32.8308 22.3253ZM33.0921 23.1682L33.8847 23.1696L33.8847 23.1694L33.0921 23.1682ZM32.8285 24.0302L33.4907 24.4658L33.4918 24.464L32.8285 24.0302ZM32.7972 24.0765L32.1505 23.6181L32.1133 23.6706L32.0851 23.7283L32.7972 24.0765ZM32.6152 24.8589L31.8397 25.0234L31.8423 25.035L32.6152 24.8589ZM32.7433 25.1768L33.4293 24.7795L33.4226 24.7683L32.7433 25.1768ZM33.0046 25.4756L32.4489 26.0408L33.1154 26.6962L33.653 25.9315L33.0046 25.4756ZM34.5611 23.8313L34.0707 23.2086L34.0707 23.2086L34.5611 23.8313ZM35.0479 23.2901L34.3651 22.8873L34.3587 22.8987L35.0479 23.2901ZM35.2128 22.8696L35.9878 23.0365L35.9902 23.0247L35.2128 22.8696ZM34.9535 21.8518L35.6564 21.4854L35.626 21.4271L35.5863 21.3745L34.9535 21.8518ZM34.9106 21.7924L34.2595 22.2444L34.2601 22.2453L34.9106 21.7924ZM34.5419 20.6725L33.7493 20.6865L33.7493 20.6867L34.5419 20.6725ZM34.8715 19.5619L34.2137 19.1196L34.2137 19.1197L34.8715 19.5619ZM35.7997 18.8005L35.4844 18.0733L35.4844 18.0733L35.7997 18.8005ZM37.043 18.6201L37.1333 17.8326L37.1325 17.8325L37.043 18.6201ZM37.3048 18.6671L37.1152 19.4367C37.4037 19.5078 37.6612 19.65 37.8599 19.8406L38.4085 19.2685L38.9571 18.6964C38.5514 18.3073 38.0439 18.0328 37.4944 17.8975L37.3048 18.6671ZM38.4085 19.2685L37.8598 19.8405C38.0582 20.0308 38.1871 20.2583 38.243 20.4912L39.0137 20.3063L39.7845 20.1214C39.6542 19.5782 39.3633 19.086 38.9572 18.6965L38.4085 19.2685ZM39.0137 20.3063L38.2429 20.4911C38.2986 20.7234 38.2818 20.9583 38.1976 21.1725L38.9352 21.4626L39.6729 21.7527C39.8777 21.232 39.9149 20.6652 39.7845 20.1215L39.0137 20.3063ZM38.9352 21.4626L38.1976 21.1724C38.1132 21.387 37.9596 21.5832 37.744 21.7328L38.196 22.384L38.6479 23.0352C39.1084 22.7155 39.468 22.2733 39.6728 21.7528L38.9352 21.4626ZM38.196 22.384L37.7458 21.7316C37.7318 21.7413 37.7193 21.7496 37.708 21.7568L38.1349 22.4247L38.5618 23.0925C38.5917 23.0734 38.6199 23.0545 38.6461 23.0364L38.196 22.384ZM38.1349 22.4247L37.6044 21.8357C37.6416 21.8022 37.4286 21.9731 37.254 22.1707C37.0787 22.369 36.8259 22.712 36.753 23.1619L37.5355 23.2886L38.3179 23.4153C38.3207 23.3983 38.3467 23.3281 38.4417 23.2206C38.5375 23.1123 38.5864 23.0847 38.6653 23.0137L38.1349 22.4247ZM37.5355 23.2886L36.7512 23.1737C36.7168 23.4085 36.7212 23.6464 36.7624 23.8784L37.5428 23.7401L38.3233 23.6018C38.3113 23.5339 38.3104 23.467 38.3198 23.4034L37.5355 23.2886ZM37.5428 23.7401L36.7603 23.866C36.7939 24.0753 36.8916 24.3141 36.9478 24.4452C37.0073 24.5842 37.085 24.7487 37.1336 24.8286L37.8108 24.4166L38.4879 24.0047C38.5001 24.0247 38.5046 24.0346 38.4964 24.0185C38.4913 24.0087 38.4837 23.9932 38.4738 23.9728C38.4542 23.9319 38.4295 23.8782 38.4049 23.8208C38.38 23.7627 38.3579 23.707 38.3416 23.6606C38.3226 23.6062 38.3222 23.5946 38.3254 23.6143L37.5428 23.7401ZM37.8108 24.4166L37.1336 24.8285C37.5602 25.5299 37.9186 26.4326 38.046 27.2715L38.8296 27.1525L39.6133 27.0335C39.4499 25.9575 39.0069 24.8579 38.488 24.0047L37.8108 24.4166ZM38.8296 27.1525L38.046 27.2716C38.1619 28.0345 38.1297 28.5718 38.0694 28.9256C38.01 29.2739 37.9214 29.4649 37.8721 29.5859L38.6062 29.885L39.3403 30.184C39.3895 30.0631 39.5405 29.729 39.6321 29.1921C39.7227 28.6609 39.7529 27.9529 39.6133 27.0335L38.8296 27.1525ZM38.6062 29.885L37.8195 29.7881L37.8193 29.79L38.606 29.8869L39.3926 29.9838L39.3929 29.9819L38.6062 29.885ZM38.606 29.8869L37.8472 29.6576C37.8759 29.5628 37.9258 29.5581 37.8492 29.6054C37.7742 29.6517 37.6327 29.7117 37.4073 29.7603C36.9593 29.857 36.316 29.88 35.5719 29.7841L35.4706 30.5702L35.3692 31.3564C36.2394 31.4686 37.0718 31.4545 37.7418 31.3099C38.0755 31.2378 38.4037 31.126 38.6816 30.9545C38.9579 30.7841 39.244 30.5157 39.3647 30.1162L38.606 29.8869ZM35.4706 30.5702L35.5861 29.786L35.2594 29.7379L35.1439 30.5221L35.0284 31.3063L35.3551 31.3544L35.4706 30.5702ZM35.1439 30.5221L35.2752 29.7404C35.2961 29.7439 35.3125 29.7476 35.3215 29.7497C35.3262 29.7508 35.3299 29.7517 35.3319 29.7522C35.3338 29.7527 35.3353 29.7531 35.3346 29.7529C35.3345 29.7529 35.3322 29.7523 35.3295 29.7516C35.3267 29.7509 35.3222 29.7498 35.3167 29.7485C35.3061 29.746 35.2881 29.742 35.2656 29.7383L35.1343 30.52L35.0031 31.3016C34.9822 31.2981 34.9658 31.2945 34.9568 31.2924C34.9521 31.2913 34.9484 31.2904 34.9463 31.2899C34.9445 31.2894 34.943 31.289 34.9437 31.2892C34.9438 31.2892 34.9461 31.2898 34.9487 31.2905C34.9516 31.2912 34.9561 31.2923 34.9616 31.2936C34.9722 31.296 34.9902 31.3 35.0126 31.3038L35.1439 30.5221ZM35.1343 30.52L35.2649 29.7381C35.2473 29.7352 35.2328 29.7334 35.2238 29.7323C35.2192 29.7318 35.2154 29.7314 35.213 29.7311C35.2108 29.7309 35.2087 29.7307 35.2086 29.7307C35.208 29.7306 35.2092 29.7307 35.2108 29.7309C35.2125 29.7311 35.2155 29.7314 35.2194 29.7319C35.2269 29.7327 35.2398 29.7344 35.2559 29.7371L35.1237 30.5186L34.9914 31.3002C35.0093 31.3032 35.024 31.3051 35.0333 31.3062C35.0381 31.3067 35.042 31.3072 35.0446 31.3074C35.047 31.3077 35.0491 31.3079 35.0494 31.3079C35.0502 31.308 35.0491 31.3079 35.0477 31.3078C35.0462 31.3076 35.0433 31.3073 35.0395 31.3068C35.0323 31.306 35.0196 31.3044 35.0038 31.3018L35.1343 30.52ZM35.1237 30.5186L35.2583 29.7375L35.1784 29.7237L35.0437 30.5049L34.9091 31.286L34.989 31.2998L35.1237 30.5186ZM35.0437 30.5049L35.1406 29.7182L35.1377 29.7178L35.0408 30.5045L34.9439 31.2912L34.9468 31.2915L35.0437 30.5049ZM35.0408 30.5045L35.1817 29.7245C35.201 29.728 35.2162 29.7315 35.2244 29.7335C35.2288 29.7345 35.2322 29.7354 35.2343 29.7359C35.2362 29.7364 35.2377 29.7368 35.2374 29.7367C35.2373 29.7367 35.2374 29.7367 35.2372 29.7367C35.237 29.7366 35.2368 29.7366 35.2365 29.7365C35.236 29.7364 35.2351 29.7361 35.234 29.7359C35.2319 29.7353 35.2284 29.7344 35.224 29.7333C35.2157 29.7313 35.2006 29.7277 35.1816 29.724L35.0322 30.5025L34.8828 31.2809C34.8652 31.2775 34.8515 31.2742 34.8447 31.2725C34.841 31.2716 34.8382 31.2709 34.8368 31.2705C34.8357 31.2703 34.8345 31.27 34.8356 31.2702C34.8361 31.2704 34.8383 31.2709 34.8409 31.2716C34.8437 31.2723 34.8479 31.2734 34.853 31.2746C34.8626 31.2769 34.8792 31.2808 34.8999 31.2845L35.0408 30.5045ZM35.0322 30.5025L35.1291 29.7158L35.1175 29.7143L35.0206 30.501L34.9237 31.2877L34.9353 31.2891L35.0322 30.5025ZM35.0206 30.501L35.1619 29.7211C35.1316 29.7156 35.1553 29.7194 35.092 29.7071L34.9418 30.4854L34.7916 31.2637C34.7995 31.2652 34.8067 31.2667 34.8229 31.27C34.8368 31.2728 34.857 31.2769 34.8793 31.281L35.0206 30.501ZM34.9418 30.4854L35.0911 29.707C35.0991 29.7085 35.1054 29.7099 35.1089 29.7106C35.1121 29.7113 35.1146 29.7119 35.1133 29.7116C35.113 29.7115 35.1088 29.7106 35.1041 29.7095C35.099 29.7084 35.0911 29.7067 35.0814 29.7048L34.9313 30.4831L34.7811 31.2614C34.7732 31.2599 34.7671 31.2586 34.7637 31.2578C34.7607 31.2572 34.7583 31.2566 34.7598 31.257C34.7602 31.2571 34.7645 31.258 34.7694 31.2591C34.7747 31.2603 34.7828 31.262 34.7926 31.2639L34.9418 30.4854ZM34.9313 30.4831L35.0282 29.6964L35.0175 29.6951L34.9206 30.4818L34.8237 31.2685L34.8344 31.2698L34.9313 30.4831ZM34.9206 30.4818L35.0716 29.7037C34.8108 29.6531 34.5595 29.5895 34.3205 29.5181L34.0937 30.2776L33.8668 31.0371C34.1502 31.1217 34.4523 31.1984 34.7696 31.2599L34.9206 30.4818ZM34.0937 30.2776L33.7621 29.5577C33.5325 29.6634 33.2623 29.7616 32.9628 29.84L33.1636 30.6068L33.3645 31.3736C33.7495 31.2727 34.1076 31.1439 34.4252 30.9976L34.0937 30.2776ZM33.1636 30.6068L32.9778 29.8363L32.7375 29.8942L32.9233 30.6648L33.1091 31.4353L33.3495 31.3774L33.1636 30.6068ZM32.9233 30.6648L32.7523 29.8908C32.7392 29.8937 32.7278 29.8966 32.7184 29.8991C32.7089 29.9016 32.7009 29.9039 32.6947 29.9058C32.6886 29.9076 32.6836 29.9091 32.6806 29.9101C32.679 29.9106 32.6777 29.911 32.6768 29.9113C32.6761 29.9116 32.6754 29.9118 32.6753 29.9118C32.6746 29.912 32.6765 29.9114 32.6787 29.9107C32.6812 29.9099 32.6856 29.9085 32.6911 29.9069C32.6967 29.9052 32.7041 29.9031 32.7129 29.9007C32.7218 29.8984 32.7327 29.8956 32.7452 29.8929L32.9162 30.6669L33.0872 31.4408C33.1002 31.4379 33.1117 31.4351 33.1211 31.4325C33.1306 31.43 33.1386 31.4277 33.1448 31.4259C33.1509 31.424 33.1558 31.4225 33.1589 31.4215C33.1605 31.421 33.1618 31.4206 33.1626 31.4203C33.1634 31.4201 33.1641 31.4198 33.1642 31.4198C33.1648 31.4196 33.1629 31.4202 33.1607 31.4209C33.1582 31.4217 33.1538 31.4231 33.1483 31.4248C33.1427 31.4264 33.1353 31.4286 33.1265 31.4309C33.1176 31.4333 33.1068 31.436 33.0943 31.4388L32.9233 30.6648ZM32.9162 30.6669L32.7444 29.8931C32.7366 29.8948 32.7303 29.8963 32.7264 29.8972C32.7228 29.8981 32.7195 29.8989 32.7195 29.899C32.7185 29.8992 32.7206 29.8987 32.7232 29.898C32.7261 29.8973 32.7313 29.8961 32.7381 29.8946L32.908 30.6688L33.078 31.443C33.0861 31.4412 33.0927 31.4397 33.0969 31.4386C33.1009 31.4377 33.1043 31.4368 33.1047 31.4367C33.106 31.4364 33.1041 31.4369 33.1018 31.4374C33.0993 31.438 33.0943 31.4392 33.0879 31.4407L32.9162 30.6669ZM32.908 30.6688L32.7367 29.8949C32.7229 29.898 32.7092 29.9008 32.687 29.9055L32.8494 30.6813L33.0119 31.4571C33.0289 31.4535 33.0543 31.4483 33.0794 31.4427L32.908 30.6688ZM32.8494 30.6813L32.9463 29.8946L32.9454 29.8945L32.8485 30.6811L32.7516 31.4678L32.7525 31.468L32.8494 30.6813ZM32.8485 30.6811L32.5833 29.9342L32.5813 29.9349L32.8464 30.6819L33.1116 31.4289L33.1136 31.4281L32.8485 30.6811ZM32.8464 30.6819L32.6896 29.9049L32.6775 29.9074L32.8343 30.6843L32.9911 31.4613L33.0033 31.4588L32.8464 30.6819ZM32.8343 30.6843L32.5692 29.9373L32.5671 29.9381L32.8322 30.6851L33.0974 31.432L33.0994 31.4313L32.8343 30.6843ZM32.8322 30.6851L32.6713 29.9089C32.6509 29.9132 32.6713 29.9086 32.6209 29.9185L32.7728 30.6964L32.9247 31.4744C32.9301 31.4733 32.9346 31.4725 32.9476 31.4701C32.9584 31.4681 32.975 31.465 32.9932 31.4612L32.8322 30.6851ZM32.7728 30.6964L32.62 29.9187C32.6029 29.922 32.5891 29.9253 32.5811 29.9273C32.5769 29.9283 32.5735 29.9292 32.5713 29.9297C32.5693 29.9303 32.5675 29.9307 32.5675 29.9307C32.5669 29.9309 32.5681 29.9306 32.5695 29.9302C32.571 29.9298 32.5738 29.9291 32.5774 29.9282C32.5842 29.9265 32.5968 29.9236 32.6127 29.9204L32.7647 30.6984L32.9166 31.4763C32.9339 31.4729 32.9478 31.4696 32.956 31.4676C32.9602 31.4666 32.9637 31.4657 32.966 31.4651C32.968 31.4646 32.9699 31.4641 32.97 31.4641C32.9706 31.4639 32.9695 31.4642 32.9682 31.4645C32.9667 31.4649 32.964 31.4656 32.9605 31.4665C32.9538 31.4681 32.9414 31.4711 32.9256 31.4742L32.7728 30.6964ZM32.7647 30.6984L32.6679 29.9117L32.6599 29.9127L32.7567 30.6994L32.8535 31.4861L32.8615 31.4851L32.7647 30.6984ZM32.7567 30.6994L32.6056 29.9213C32.0181 30.0353 31.5048 30.0431 31.1529 29.9857C30.9752 29.9567 30.875 29.9169 30.8334 29.8937C30.7891 29.8691 30.8742 29.9015 30.9174 30.0393L30.161 30.2763L29.4046 30.5133C29.525 30.8975 29.8093 31.1378 30.0615 31.2784C30.3163 31.4204 30.6097 31.5033 30.8978 31.5503C31.4776 31.6449 32.1849 31.6178 32.9078 31.4775L32.7567 30.6994ZM30.161 30.2763L30.9477 30.3732L30.9478 30.3722L30.1611 30.2753L29.3744 30.1784L29.3743 30.1794L30.161 30.2763ZM30.1611 30.2753L30.8924 29.9694C30.8543 29.8785 30.793 29.7501 30.7484 29.506C30.7027 29.2562 30.6724 28.8648 30.7479 28.2968L29.9621 28.1924L29.1764 28.088C29.0806 28.8091 29.1115 29.3677 29.189 29.7913C29.2675 30.2206 29.3914 30.4891 29.4299 30.5812L30.1611 30.2753ZM29.9621 28.1924L30.7479 28.2968C30.8299 27.6793 31.0789 27.005 31.38 26.4788L30.692 26.0852L30.0041 25.6915C29.6164 26.369 29.2893 27.2381 29.1764 28.088L29.9621 28.1924ZM30.692 26.0852L31.3813 26.4765C31.4227 26.4037 31.4821 26.268 31.5254 26.1595C31.5653 26.0597 31.6432 25.8579 31.6691 25.6744L30.8842 25.5637L30.0993 25.4531C30.1021 25.4334 30.1047 25.4246 30.1033 25.4303C30.1022 25.4345 30.0995 25.444 30.0946 25.4591C30.0846 25.49 30.0703 25.5289 30.0533 25.5715C30.0366 25.6132 30.0198 25.6524 30.0065 25.6821C29.9998 25.6969 29.9948 25.7076 29.9919 25.7137C29.9861 25.7257 29.9912 25.7141 30.0027 25.6939L30.692 26.0852ZM30.8842 25.5637L31.6672 25.6868C31.6986 25.4871 31.6968 25.2873 31.6661 25.0944L30.8833 25.2193L30.1006 25.3441C30.106 25.3781 30.1059 25.4105 30.1012 25.4407L30.8842 25.5637ZM30.8833 25.2193L31.6641 25.0828C31.5958 24.692 31.3766 24.4027 31.232 24.242C31.089 24.0831 30.9065 23.9382 30.9498 23.9764L30.425 24.5705L29.9003 25.1645C29.9182 25.1804 29.9365 25.1949 29.937 25.1954C29.9444 25.2013 29.9462 25.2027 29.9521 25.2075C29.9609 25.2146 29.9706 25.2227 29.9815 25.2321C30.0039 25.2516 30.0295 25.2757 30.0535 25.3024C30.0783 25.3298 30.0944 25.3525 30.1033 25.3679C30.1123 25.3836 30.1066 25.3791 30.1025 25.3558L30.8833 25.2193ZM30.425 24.5705L30.8433 23.8972C30.8287 23.8881 30.8245 23.8853 30.823 23.8843L30.3794 24.5412L29.9358 25.1981C29.9642 25.2173 29.9905 25.2337 30.0067 25.2437L30.425 24.5705ZM30.3794 24.5412L30.8241 23.8851C30.6946 23.7973 30.6024 23.6809 30.5507 23.5534L29.816 23.851L29.0814 24.1485C29.2548 24.5766 29.5536 24.9391 29.9348 25.1974L30.3794 24.5412ZM29.816 23.851L30.5507 23.5534C30.4995 23.4271 30.4864 23.2844 30.5181 23.1384L29.7435 22.9703L28.9689 22.8021C28.8713 23.2515 28.9075 23.7193 29.0814 24.1485L29.816 23.851ZM29.7435 22.9703L30.5181 23.1384C30.5499 22.992 30.6265 22.8461 30.7483 22.7217L30.1819 22.1672L29.6155 21.6127C29.293 21.9421 29.0664 22.353 28.9689 22.8021L29.7435 22.9703ZM30.1819 22.1672L30.7482 22.7218C30.8709 22.5964 31.0312 22.501 31.2111 22.4509L30.9986 21.6873L30.7861 20.9237C30.3427 21.0471 29.9369 21.2845 29.6155 21.6127L30.1819 22.1672ZM30.9986 21.6873L31.2104 22.4511C31.197 22.4549 31.1863 22.4574 31.1849 22.4577C31.1814 22.4586 31.1786 22.4592 31.1773 22.4595C31.1747 22.4601 31.173 22.4605 31.1729 22.4605C31.1724 22.4607 31.173 22.4605 31.1752 22.46C31.1795 22.4591 31.1861 22.4577 31.1948 22.4559C31.2121 22.4522 31.2352 22.4473 31.2585 22.4424C31.2819 22.4375 31.305 22.4327 31.3225 22.4291C31.3313 22.4272 31.3382 22.4258 31.3428 22.4249C31.3439 22.4246 31.3448 22.4245 31.3454 22.4243C31.3461 22.4242 31.3463 22.4242 31.3462 22.4242C31.3462 22.4242 31.3459 22.4242 31.3455 22.4243C31.3452 22.4244 31.3444 22.4245 31.3434 22.4247C31.3425 22.4249 31.3405 22.4253 31.338 22.4258C31.3367 22.426 31.3298 22.4273 31.3208 22.4288L31.1936 21.6464L31.0663 20.864C31.0397 20.8684 30.9608 20.8851 30.9331 20.8909C30.9142 20.8949 30.8218 20.9138 30.7868 20.9235L30.9986 21.6873ZM31.1936 21.6464L31.305 22.4312C31.4895 22.405 31.6696 22.4288 31.8235 22.4926L32.1271 21.7604L32.4306 21.0282C32.0052 20.8519 31.5377 20.7969 31.0821 20.8616L31.1936 21.6464ZM32.1271 21.7604L31.8235 22.4926C31.9759 22.5558 32.0962 22.6555 32.1773 22.7738L32.8308 22.3253L33.4844 21.8768C33.2242 21.4977 32.8572 21.205 32.4306 21.0282L32.1271 21.7604ZM32.8308 22.3253L32.1772 22.7736C32.2577 22.891 32.2996 23.0269 32.2994 23.1671L33.0921 23.1682L33.8847 23.1694C33.8854 22.7064 33.7454 22.2573 33.4845 21.877L32.8308 22.3253ZM33.0921 23.1682L32.2994 23.1669C32.2992 23.3073 32.2564 23.4567 32.1651 23.5964L32.8285 24.0302L33.4918 24.464C33.7431 24.0797 33.8839 23.632 33.8847 23.1696L33.0921 23.1682ZM32.8285 24.0302L32.1662 23.5946C32.1555 23.6109 32.1523 23.6156 32.1505 23.6181L32.7972 24.0765L33.4438 24.5349C33.4636 24.5069 33.481 24.4805 33.4907 24.4658L32.8285 24.0302ZM32.7972 24.0765L32.0851 23.7283C32.1096 23.6782 31.9969 23.8815 31.9248 24.083C31.8523 24.2855 31.7578 24.6367 31.8398 25.0233L32.6152 24.8589L33.3906 24.6946C33.3955 24.7177 33.3917 24.7229 33.3945 24.7027C33.3973 24.6829 33.4043 24.6537 33.4174 24.6169C33.4302 24.5811 33.4455 24.5474 33.4594 24.5195C33.4662 24.506 33.4724 24.4943 33.478 24.484C33.4817 24.4771 33.4829 24.475 33.4874 24.4667C33.4878 24.4658 33.4989 24.4458 33.5092 24.4247L32.7972 24.0765ZM32.6152 24.8589L31.8423 25.035C31.8866 25.2294 31.9616 25.4149 32.064 25.5853L32.7433 25.1768L33.4226 24.7683C33.4062 24.7411 33.3947 24.7123 33.388 24.6828L32.6152 24.8589ZM32.7433 25.1768L32.0574 25.5741C32.1259 25.6923 32.2162 25.796 32.2696 25.8552C32.3328 25.9252 32.3987 25.9914 32.4489 26.0408L33.0046 25.4756L33.5604 24.9105C33.5193 24.8701 33.4788 24.8289 33.4463 24.7929C33.4302 24.7751 33.4199 24.7628 33.4144 24.7558C33.407 24.7464 33.4153 24.7555 33.4292 24.7795L32.7433 25.1768ZM33.0046 25.4756L33.653 25.9315C34.0507 25.3659 34.556 24.8443 35.0515 24.454L34.5611 23.8313L34.0707 23.2086C33.4588 23.6905 32.8458 24.3235 32.3562 25.0197L33.0046 25.4756ZM34.5611 23.8313L35.0515 24.454C35.126 24.3954 35.2569 24.267 35.3605 24.158C35.4588 24.0545 35.6329 23.8651 35.7371 23.6816L35.0479 23.2901L34.3587 22.8987C34.3682 22.8819 34.3635 22.893 34.3266 22.9375C34.295 22.9755 34.2548 23.0201 34.2112 23.0661C34.1681 23.1114 34.1263 23.1532 34.0937 23.1847C34.0774 23.2004 34.0649 23.2122 34.0569 23.2195C34.0434 23.2318 34.0516 23.2236 34.0707 23.2086L34.5611 23.8313ZM35.0479 23.2901L35.7306 23.6929C35.8504 23.4898 35.9377 23.2686 35.9877 23.0365L35.2128 22.8696L34.438 22.7027C34.4244 22.7656 34.4003 22.8279 34.3652 22.8874L35.0479 23.2901ZM35.2128 22.8696L35.9902 23.0247C36.0793 22.5777 35.9624 22.1681 35.8674 21.921C35.773 21.6754 35.6328 21.4401 35.6564 21.4854L34.9535 21.8518L34.2506 22.2181C34.3001 22.3132 34.3358 22.3549 34.3877 22.4899C34.439 22.6234 34.4388 22.6979 34.4355 22.7146L35.2128 22.8696ZM34.9535 21.8518L35.5863 21.3745C35.5795 21.3654 35.5713 21.3541 35.5611 21.3394L34.9106 21.7924L34.2601 22.2453C34.2777 22.2705 34.298 22.299 34.3207 22.329L34.9535 21.8518ZM34.9106 21.7924L35.5617 21.3403C35.4134 21.1266 35.3385 20.8899 35.3344 20.6582L34.5419 20.6725L33.7493 20.6867C33.7593 21.2437 33.9394 21.7832 34.2595 22.2444L34.9106 21.7924ZM34.5419 20.6725L35.3344 20.6584C35.3303 20.4277 35.3965 20.2017 35.5293 20.0041L34.8715 19.5619L34.2137 19.1197C33.9015 19.5841 33.7394 20.1282 33.7493 20.6865L34.5419 20.6725ZM34.8715 19.5619L35.5293 20.0041C35.663 19.8052 35.8628 19.637 36.115 19.5277L35.7997 18.8005L35.4844 18.0733C34.9684 18.297 34.525 18.6566 34.2137 19.1196L34.8715 19.5619ZM35.7997 18.8005L36.115 19.5277C36.3679 19.4181 36.6588 19.3742 36.9535 19.4076L37.043 18.6201L37.1325 17.8325C36.5704 17.7686 35.9996 17.8499 35.4844 18.0733L35.7997 18.8005ZM37.043 18.6201L36.9527 19.4076C36.9388 19.406 36.928 19.4043 36.9267 19.4041C36.9231 19.4036 36.9203 19.4032 36.9192 19.403C36.9178 19.4028 36.9168 19.4026 36.9163 19.4025C36.9157 19.4024 36.9154 19.4024 36.9154 19.4024C36.9153 19.4023 36.9156 19.4024 36.9165 19.4026C36.9174 19.4027 36.9186 19.4029 36.9201 19.4032C36.9263 19.4043 36.9356 19.4059 36.9476 19.408C36.9713 19.4122 37.0026 19.4178 37.0343 19.4235C37.0659 19.4292 37.0972 19.4349 37.1208 19.4392C37.1327 19.4413 37.1421 19.443 37.1484 19.4442C37.15 19.4445 37.1512 19.4447 37.1521 19.4449C37.1526 19.445 37.153 19.445 37.1532 19.4451C37.1534 19.4451 37.1535 19.4451 37.1535 19.4451C37.1536 19.4452 37.1537 19.4452 37.1536 19.4452C37.1536 19.4452 37.1536 19.4452 37.1535 19.4451C37.1534 19.4451 37.1533 19.4451 37.153 19.445C37.1527 19.445 37.1518 19.4448 37.1506 19.4446C37.1496 19.4444 37.1471 19.4439 37.1438 19.4432C37.1437 19.4432 37.1313 19.4407 37.1159 19.4369L37.3048 18.6671L37.4937 17.8973C37.4588 17.8887 37.3499 17.8696 37.3147 17.8633C37.2795 17.8569 37.1702 17.8368 37.1333 17.8326L37.043 18.6201Z" fill="url(#paint1_linear_120_3072)" mask="url(#path-3-outside-1_120_3072)"/>
</g>
<path d="M38.8455 27.1734C38.7001 26.2158 38.299 25.2147 37.8261 24.4374C37.7926 24.3823 37.5908 23.9615 37.5586 23.7609C37.532 23.6108 37.5296 23.4587 37.5515 23.3094C37.6271 22.8426 38.1091 22.4836 38.1508 22.446C38.1714 22.4328 38.1918 22.4193 38.2119 22.4054C38.55 22.1708 38.806 21.8514 38.9506 21.4838C39.0952 21.1163 39.1226 20.7155 39.0295 20.3274C38.9365 19.9393 38.7268 19.5797 38.4245 19.2897C38.1222 18.9997 37.7396 18.7912 37.3204 18.6879C37.3149 18.6866 37.0661 18.6419 37.059 18.6411C36.6305 18.5923 36.1995 18.6548 35.8153 18.8213C35.4312 18.9879 35.1094 19.2518 34.8869 19.5828C34.6644 19.9138 34.5501 20.2986 34.5571 20.6931C34.5641 21.0876 34.6921 21.4759 34.9265 21.8134C34.9404 21.8334 34.9548 21.8532 34.9695 21.8728C34.9955 21.9225 35.3213 22.4271 35.2287 22.8909C35.1969 23.0384 35.1414 23.18 35.0639 23.3113C34.9636 23.4881 34.6271 23.8119 34.5764 23.8518C33.8612 24.4151 33.1349 25.213 32.6634 26.0594C31.8348 27.5464 31.9081 28.4365 31.9157 28.6977C31.9158 28.6982 31.9157 28.6987 31.9158 28.6992C31.8717 29.3767 33.1876 30.1633 34.9366 30.5026L34.9366 30.5026C34.9399 30.5033 34.9432 30.5039 34.9464 30.5045C34.9501 30.5052 34.9537 30.5059 34.9574 30.5066C34.9838 30.5117 35.0101 30.5168 35.0367 30.5216L35.0368 30.5216L35.0372 30.5217C35.038 30.5219 35.0388 30.522 35.0396 30.5222C35.0425 30.5227 35.0453 30.5232 35.0482 30.5236C35.051 30.5242 35.0538 30.5247 35.0567 30.5252C35.0575 30.5254 35.0583 30.5255 35.0591 30.5257L35.0595 30.5257L35.0596 30.5257C35.0862 30.5305 35.1126 30.535 35.1391 30.5394C35.1428 30.54 35.1465 30.5406 35.1501 30.5412C35.1534 30.5418 35.1567 30.5423 35.16 30.5429L35.16 30.5429C36.9175 30.8354 38.4258 30.5577 38.6217 29.9075C38.6219 29.9072 38.622 29.9066 38.6223 29.9061C38.7209 29.6641 39.1012 28.8558 38.8455 27.1734Z" fill="url(#paint2_linear_120_3072)"/>
<path d="M38.463 27.008C38.3489 26.0796 38.0084 25.113 37.6006 24.365C37.5718 24.312 37.3991 23.9061 37.3737 23.7116C37.3524 23.5654 37.3527 23.4179 37.3744 23.273C37.4489 22.8182 37.8825 22.4617 37.9201 22.4246C37.9387 22.4114 37.957 22.3979 37.975 22.3842C38.3641 22.0856 38.6479 21.6462 38.7422 21.1248C38.9279 20.0978 38.3215 19.1669 37.3521 18.8682C37.2814 18.8468 37.2097 18.8289 37.1372 18.8145C37.0696 18.8027 36.9604 18.7924 36.922 18.7901C35.9072 18.729 34.9314 19.3759 34.7454 20.4046C34.6511 20.926 34.8067 21.4445 35.0668 21.8601C35.0788 21.8793 35.0912 21.8983 35.1041 21.9171C35.1263 21.9651 35.4078 22.4504 35.3182 22.9025C35.2879 23.0459 35.2365 23.1842 35.1654 23.3137C35.0735 23.4871 34.7696 23.807 34.724 23.8466C34.08 24.4051 33.4226 25.1919 32.9906 26.0219C32.2315 27.48 32.2826 28.3439 32.2853 28.5976C32.2853 28.5981 32.2852 28.5986 32.2853 28.599C32.2355 29.2581 33.3918 30.0021 34.9397 30.3045L34.9397 30.3046C34.9426 30.3051 34.9455 30.3057 34.9484 30.3063C34.9516 30.3069 34.9548 30.3075 34.9581 30.3081C34.9814 30.3127 35.0047 30.3172 35.0282 30.3214L35.0283 30.3215L35.0287 30.3215C35.0294 30.3217 35.0301 30.3218 35.0308 30.3219C35.0333 30.3224 35.0359 30.3228 35.0384 30.3232C35.0409 30.3237 35.0434 30.3242 35.0459 30.3246C35.0466 30.3248 35.0474 30.3249 35.0481 30.325L35.0484 30.3251L35.0485 30.3251C35.072 30.3293 35.0955 30.3332 35.1189 30.3371C35.1222 30.3377 35.1254 30.3382 35.1287 30.3387C35.1316 30.3392 35.1345 30.3397 35.1374 30.3402L35.1374 30.3402C36.6936 30.597 38.0373 30.3036 38.2215 29.6687C38.2217 29.6683 38.2218 29.6678 38.222 29.6673C38.3133 29.4306 38.6637 28.6391 38.463 27.008Z" fill="url(#paint3_linear_120_3072)"/>
<g style="mix-blend-mode:overlay">
<path d="M38.4882 27.0038C38.374 26.0755 38.0335 25.1089 37.6258 24.3608C37.5969 24.3078 37.4242 23.902 37.3988 23.7075C37.3775 23.5613 37.3778 23.4138 37.3995 23.2689C37.474 22.814 37.9076 22.4576 37.9452 22.4204C37.9638 22.4073 37.9821 22.3938 38.0001 22.38C38.3893 22.0814 38.6731 21.642 38.7673 21.1206C38.9603 20.053 38.2881 19.0304 37.252 18.7774L37.2524 18.7749C37.228 18.7696 37.2036 18.7646 37.1788 18.7602C37.1705 18.7587 37.1621 18.7574 37.1537 18.756C37.1454 18.7544 37.1372 18.7527 37.1288 18.7511C37.104 18.7467 37.0794 18.7428 37.0547 18.7393L37.0542 18.7418C35.9948 18.6172 35.007 19.3406 34.814 20.4083C34.7198 20.9297 34.8318 21.4404 35.0919 21.856C35.1039 21.8752 35.1163 21.8942 35.1292 21.913C35.1514 21.9609 35.4329 22.4462 35.3434 22.8984C35.313 23.0417 35.2616 23.18 35.1905 23.3096C35.0986 23.4829 34.7947 23.8029 34.7491 23.8424C34.1051 24.401 33.4477 25.1878 33.0157 26.0177C32.2566 27.4758 32.3077 28.3397 32.3104 28.5934C32.3105 28.5939 32.3104 28.5945 32.3104 28.5949C32.2606 29.254 33.4169 29.9979 34.9648 30.3004L34.9648 30.3004C34.9677 30.301 34.9706 30.3015 34.9735 30.3021C34.9767 30.3027 34.9799 30.3034 34.9832 30.304C35.0065 30.3085 35.0299 30.313 35.0534 30.3173L35.0534 30.3173L35.0538 30.3174C35.0545 30.3175 35.0552 30.3176 35.0559 30.3178C35.0585 30.3182 35.061 30.3186 35.0635 30.3191C35.066 30.3196 35.0685 30.32 35.071 30.3205C35.0718 30.3206 35.0725 30.3207 35.0732 30.3209L35.0735 30.3209L35.0736 30.3209C35.0971 30.3252 35.1206 30.3291 35.144 30.333C35.1473 30.3335 35.1505 30.3341 35.1538 30.3346C35.1567 30.3351 35.1596 30.3356 35.1625 30.336L35.1625 30.336C36.7187 30.5929 38.0624 30.2994 38.2466 29.6645C38.2468 29.6642 38.2469 29.6636 38.2471 29.6632C38.3384 29.4264 38.6888 28.6349 38.4882 27.0038Z" fill="url(#paint4_radial_120_3072)"/>
</g>
<path d="M38.4883 27.0031C38.3742 26.0747 38.0337 25.1081 37.6259 24.36C37.597 24.3071 37.4244 23.9012 37.3989 23.7067C37.3777 23.5605 37.3779 23.413 37.3997 23.2681C37.4741 22.8133 37.9078 22.4568 37.9454 22.4197C37.9639 22.4065 37.9822 22.393 38.0003 22.3792C38.3894 22.0807 38.6732 21.6413 38.7675 21.1199C38.9588 20.0615 38.2999 19.0474 37.2789 18.7834C37.27 18.7811 37.0429 18.7397 37.0372 18.7391C35.9843 18.6243 35.0061 19.3457 34.8142 20.4075C34.7199 20.9289 34.832 21.4396 35.092 21.8552C35.1041 21.8744 35.1165 21.8934 35.1293 21.9122C35.1516 21.9602 35.433 22.4455 35.3435 22.8976C35.3132 23.0409 35.2618 23.1793 35.1906 23.3088C35.0987 23.4822 34.7949 23.8021 34.7492 23.8417C34.1053 24.4002 33.4478 25.187 33.0158 26.017C32.2568 27.4751 32.3079 28.339 32.3106 28.5926C32.3106 28.5932 32.3105 28.5937 32.3106 28.5941C32.2608 29.2532 33.417 29.9971 34.9649 30.2996L34.9649 30.2997C34.9678 30.3002 34.9707 30.3008 34.9736 30.3013C34.9769 30.302 34.9801 30.3026 34.9833 30.3032C35.0067 30.3078 35.03 30.3123 35.0535 30.3165L35.0536 30.3166L35.0539 30.3166C35.0546 30.3167 35.0554 30.3169 35.0561 30.317C35.0586 30.3175 35.0611 30.3179 35.0637 30.3183C35.0662 30.3188 35.0687 30.3193 35.0712 30.3197C35.0719 30.3199 35.0726 30.32 35.0734 30.3201L35.0737 30.3202L35.0738 30.3202C35.0973 30.3244 35.1207 30.3283 35.1442 30.3322C35.1474 30.3328 35.1507 30.3333 35.1539 30.3338C35.1569 30.3343 35.1598 30.3348 35.1627 30.3353L35.1627 30.3352C36.7188 30.5921 38.0626 30.2987 38.2467 29.6638C38.2469 29.6634 38.247 29.6629 38.2473 29.6624C38.3386 29.4257 38.689 28.6341 38.4883 27.0031Z" fill="url(#paint5_radial_120_3072)"/>
<path d="M37.9704 29.4255C37.9703 29.4259 37.9702 29.4264 37.97 29.4268C37.8033 29.9963 36.5703 30.2548 35.1401 30.0181L35.14 30.0182L35.1321 30.0168C35.1291 30.0164 35.1262 30.0159 35.1231 30.0153C35.1016 30.0118 35.08 30.0082 35.0584 30.0043L35.0398 30.0009C35.0182 29.997 34.9967 29.9929 34.9753 29.9887C34.9723 29.9881 34.9693 29.9876 34.9664 29.987L34.9584 29.9855L34.9584 29.9854C33.5356 29.7079 32.4709 29.0354 32.5141 28.4437C32.5142 28.4432 32.5142 28.4428 32.5142 28.4423C32.5133 28.3773 32.5085 28.2676 32.5182 28.1135C33.2314 28.8362 34.0761 29.243 34.9359 29.1906C36.3199 29.1062 37.5811 27.8298 37.969 26.0603C38.0664 26.3817 38.1375 26.7086 38.1817 27.0382C38.3722 28.5037 38.0533 29.2134 37.9704 29.4255Z" fill="url(#paint6_linear_120_3072)"/>
<g style="mix-blend-mode:overlay">
<path d="M35.0544 20.5095C35.0952 20.2835 35.1845 20.0686 35.3172 19.8769C35.4498 19.6852 35.6231 19.5205 35.8274 19.3923C36.0316 19.2641 36.2626 19.1748 36.5073 19.1296C36.752 19.0844 37.0056 19.0841 37.2535 19.1288" stroke="#FFF8B1" stroke-width="0.380294" stroke-linecap="round" stroke-linejoin="round"/>
</g>
<path d="M32.6671 28.1001C32.9948 26.2869 33.9388 24.8174 34.9096 24.1299" stroke="#FAEE88" stroke-width="0.290813" stroke-linecap="round" stroke-linejoin="round"/>
<path d="M37.8805 22.5193C37.899 22.5061 37.9173 22.4926 37.9354 22.4789C38.3245 22.1803 38.6083 21.7409 38.7026 21.2195C38.8882 20.1925 38.2818 19.2616 37.3124 18.9628C37.2417 18.9415 37.17 18.9236 37.0975 18.9092C37.03 18.8974 36.9208 18.8871 36.8824 18.8848C35.8676 18.8237 34.8917 19.4706 34.7058 20.4993C34.6115 21.0207 34.7671 21.5392 35.0271 21.9548C35.0392 21.974 35.0516 21.993 35.0644 22.0118C35.085 22.0563 35.3281 22.4763 35.2923 22.8976C35.3301 22.9055 35.3682 22.9131 35.4065 22.92C36.1644 23.0566 37.0756 22.8878 37.8537 22.5437C37.8668 22.5318 37.8762 22.5234 37.8805 22.5193Z" fill="url(#paint7_linear_120_3072)"/>
<path d="M36.0419 20.7228C36.2001 20.7513 36.3644 20.5746 36.4089 20.3281C36.4535 20.0816 36.3614 19.8586 36.2033 19.8302C36.0452 19.8017 35.8809 19.9784 35.8363 20.2249C35.7918 20.4714 35.8838 20.6943 36.0419 20.7228Z" fill="#F7EA69"/>
<path d="M36.0512 20.6713C36.2093 20.6998 36.3736 20.5231 36.4182 20.2766C36.4628 20.0301 36.3707 19.8071 36.2126 19.7786C36.0545 19.7501 35.8901 19.9269 35.8456 20.1734C35.801 20.4199 35.8931 20.6428 36.0512 20.6713Z" fill="#F28422"/>
<path d="M36.2126 19.7786C36.0544 19.7501 35.8901 19.9269 35.8456 20.1734C35.843 20.1879 35.8408 20.2024 35.8391 20.2168C35.894 19.9931 36.0482 19.8382 36.197 19.865C36.3457 19.8918 36.436 20.0907 36.409 20.3195C36.4125 20.3054 36.4156 20.2911 36.4182 20.2766C36.4627 20.0301 36.3707 19.8071 36.2126 19.7786Z" fill="#C45C00"/>
<path d="M37.6127 21.0058C37.7709 21.0343 37.9352 20.8575 37.9797 20.611C38.0243 20.3645 37.9322 20.1416 37.7741 20.1131C37.616 20.0846 37.4517 20.2614 37.4071 20.5078C37.3626 20.7543 37.4546 20.9773 37.6127 21.0058Z" fill="#F7EA69"/>
<path d="M37.622 20.9543C37.7801 20.9827 37.9444 20.806 37.989 20.5595C38.0336 20.313 37.9415 20.0901 37.7834 20.0616C37.6253 20.0331 37.4609 20.2098 37.4164 20.4563C37.3718 20.7028 37.4639 20.9258 37.622 20.9543Z" fill="#F28422"/>
<path d="M37.7834 20.0616C37.6253 20.0331 37.4609 20.2098 37.4164 20.4563C37.4138 20.4709 37.4116 20.4854 37.4099 20.4998C37.4648 20.276 37.619 20.1211 37.7678 20.1479C37.9165 20.1748 38.0068 20.3737 37.9798 20.6024C37.9833 20.5884 37.9864 20.5741 37.989 20.5595C38.0335 20.313 37.9415 20.0901 37.7834 20.0616Z" fill="#C45C00"/>
<path d="M37.3538 21.5768C37.1642 21.6959 36.9282 21.7395 36.6979 21.698C36.4676 21.6565 36.2618 21.5333 36.1257 21.3555" stroke="#F7EA6B" stroke-width="0.492145" stroke-linecap="round" stroke-linejoin="round"/>
<path d="M37.3619 21.545C37.1722 21.6641 36.9363 21.7077 36.7059 21.6662C36.4756 21.6247 36.2698 21.5015 36.1338 21.3237" stroke="#F28422" stroke-width="0.492145" stroke-linecap="round" stroke-linejoin="round"/>
<path d="M36.0666 21.2806C36.0892 21.2664 36.1173 21.2612 36.1448 21.2661C36.1722 21.2711 36.1967 21.2858 36.2129 21.3069C36.2723 21.3845 36.3473 21.451 36.4338 21.5028C36.5202 21.5546 36.6165 21.5905 36.7169 21.6086C36.8174 21.6267 36.9201 21.6266 37.0192 21.6083C37.1184 21.59 37.212 21.5538 37.2947 21.5019C37.3059 21.4948 37.3186 21.49 37.332 21.4875C37.3454 21.485 37.3593 21.485 37.3729 21.4874C37.3865 21.4899 37.3995 21.4947 37.4112 21.5017C37.4229 21.5087 37.433 21.5177 37.4411 21.5282C37.4534 21.5443 37.4605 21.5805 37.4605 21.5806L37.4605 21.5806C37.4687 21.5616 37.4699 21.5404 37.4639 21.5203C37.4578 21.5001 37.4449 21.4821 37.4271 21.4689C37.4092 21.4557 37.3874 21.448 37.3648 21.447C37.3422 21.4459 37.3201 21.4516 37.3017 21.4631C37.219 21.5151 37.1254 21.5512 37.0262 21.5696C36.9271 21.5879 36.8244 21.588 36.7239 21.5699C36.6235 21.5518 36.5273 21.5158 36.4408 21.4641C36.3543 21.4123 36.2793 21.3457 36.2199 21.2682C36.2068 21.251 36.188 21.238 36.1665 21.2311C36.145 21.2241 36.1218 21.2237 36.1005 21.2299C36.0791 21.236 36.0607 21.2484 36.048 21.2651C36.0353 21.2819 36.029 21.3021 36.03 21.3228C36.0373 21.3056 36.0501 21.2909 36.0666 21.2806V21.2806Z" fill="#C45C00"/>
<path opacity="0.4" d="M38.8382 26.8324C37.8784 27.6433 36.6678 28.0369 35.4462 27.8167C34.3219 27.6141 33.3883 26.9278 32.767 25.9664C32.7501 25.9956 32.7335 26.0248 32.7171 26.0541C31.8885 27.5412 31.9618 28.4313 31.9694 28.6924C31.9695 28.693 31.9694 28.6935 31.9695 28.6939C31.9254 29.3714 33.2413 30.158 34.9903 30.4974L34.9903 30.4974C34.9936 30.498 34.9969 30.4987 35.0001 30.4993C35.0038 30.5 35.0074 30.5007 35.0111 30.5014C35.0375 30.5065 35.0638 30.5116 35.0904 30.5164L35.0905 30.5164L35.0909 30.5165C35.0917 30.5166 35.0925 30.5168 35.0933 30.5169C35.0962 30.5174 35.099 30.5179 35.1018 30.5184C35.1047 30.5189 35.1075 30.5195 35.1103 30.52C35.1112 30.5201 35.112 30.5203 35.1128 30.5204L35.1132 30.5205L35.1133 30.5205C35.1398 30.5253 35.1663 30.5297 35.1928 30.5341C35.1965 30.5348 35.2002 30.5354 35.2038 30.536C35.2071 30.5365 35.2104 30.5371 35.2137 30.5377L35.2137 30.5376C36.9712 30.8301 38.4795 30.5524 38.6754 29.9023C38.6756 29.9019 38.6757 29.9014 38.676 29.9009C38.7745 29.6589 39.1549 28.8505 38.8992 27.1681C38.8823 27.0567 38.862 26.9448 38.8382 26.8324Z" fill="url(#paint8_linear_120_3072)"/>
<path d="M34.5698 27.3634C34.2145 26.6912 33.6612 26.056 33.1137 25.6065C33.0749 25.5746 32.818 25.3166 32.7423 25.1762C32.6839 25.0719 32.6426 24.9595 32.6197 24.8427C32.5535 24.4752 32.8121 24.0778 32.8328 24.0385C32.8445 24.0231 32.8558 24.0075 32.8669 23.9918C33.0528 23.7257 33.1567 23.4189 33.1667 23.1066C33.1768 22.7942 33.0925 22.489 32.9236 22.2258C32.7547 21.9626 32.508 21.7522 32.2118 21.6186C31.9156 21.4851 31.5819 21.4338 31.249 21.4707C31.2446 21.4712 31.0513 21.5055 31.0459 21.5068C30.7202 21.5867 30.4217 21.75 30.1845 21.9779C29.9472 22.2058 29.7809 22.4892 29.7045 22.7955C29.628 23.1019 29.6446 23.4188 29.7524 23.7101C29.8601 24.0014 30.0545 24.2552 30.3135 24.4425C30.3289 24.4536 30.3445 24.4644 30.3604 24.475C30.3923 24.5049 30.7615 24.7916 30.8145 25.1614C30.8296 25.2796 30.8259 25.3999 30.8035 25.5185C30.7762 25.6771 30.6147 26.009 30.588 26.0523C30.2122 26.6648 29.8893 27.4547 29.7651 28.2116C29.5467 29.5414 29.8317 30.183 29.9052 30.375C29.9054 30.3754 29.9055 30.3758 29.9056 30.3761C30.0496 30.8916 31.2152 31.1194 32.5809 30.8974L32.5809 30.8974C32.5834 30.897 32.586 30.8966 32.5885 30.8962C32.5914 30.8957 32.5942 30.8952 32.5971 30.8948C32.6177 30.8914 32.6383 30.888 32.6589 30.8844L32.659 30.8844L32.6593 30.8843C32.6599 30.8842 32.6605 30.8841 32.6612 30.884C32.6634 30.8836 32.6656 30.8832 32.6678 30.8828C32.67 30.8824 32.6722 30.882 32.6744 30.8817C32.6751 30.8815 32.6757 30.8814 32.6763 30.8813L32.6766 30.8813L32.6767 30.8812C32.6973 30.8776 32.7178 30.8737 32.7383 30.8698C32.7412 30.8693 32.744 30.8688 32.7469 30.8682C32.7494 30.8677 32.7519 30.8673 32.7545 30.8668L32.7545 30.8667C34.1141 30.6077 35.1434 29.9924 35.1174 29.4561C35.1175 29.4557 35.1174 29.4553 35.1175 29.4549C35.1265 29.2483 35.194 28.5444 34.5698 27.3634Z" fill="url(#paint9_linear_120_3072)"/>
<path d="M34.2473 27.344C33.9225 26.685 33.4224 26.0589 32.93 25.6135C32.8952 25.582 32.6635 25.3272 32.5944 25.1896C32.5408 25.0867 32.5026 24.977 32.4808 24.8634C32.4169 24.5052 32.6409 24.1227 32.6587 24.0849C32.6688 24.0701 32.6787 24.0551 32.6883 24.04C32.8948 23.7126 32.9878 23.3091 32.921 22.896C32.7895 22.0825 32.1045 21.555 31.3188 21.5959C31.2617 21.5992 31.2046 21.6053 31.148 21.6143C31.0956 21.6237 31.0131 21.6457 30.9845 21.6544C30.2275 21.8842 29.683 22.6295 29.8147 23.4444C29.8815 23.8575 30.13 24.2006 30.428 24.439C30.4418 24.45 30.4558 24.4607 30.4701 24.4712C30.4988 24.5008 30.8306 24.7852 30.8828 25.1455C30.8979 25.2602 30.8963 25.377 30.8781 25.4925C30.856 25.6463 30.7173 25.9665 30.6943 26.0082C30.3693 26.5979 30.0938 27.3609 29.9941 28.0948C29.819 29.3842 30.081 30.0124 30.149 30.2002C30.1491 30.2006 30.1492 30.201 30.1493 30.2013C30.2844 30.7046 31.3223 30.944 32.5315 30.7491L32.5315 30.7492C32.5337 30.7488 32.536 30.7484 32.5383 30.748C32.5408 30.7476 32.5433 30.7472 32.5458 30.7468C32.5641 30.7439 32.5823 30.7409 32.6006 30.7377L32.6006 30.7377L32.6009 30.7376C32.6014 30.7375 32.602 30.7374 32.6026 30.7373C32.6045 30.737 32.6065 30.7366 32.6084 30.7363C32.6104 30.7359 32.6123 30.7356 32.6143 30.7353C32.6149 30.7352 32.6154 30.7351 32.616 30.735L32.6162 30.7349L32.6163 30.7349C32.6346 30.7317 32.6527 30.7282 32.6708 30.7247C32.6734 30.7243 32.6759 30.7238 32.6784 30.7233C32.6806 30.7229 32.6829 30.7225 32.6851 30.722L32.6851 30.722C33.8884 30.491 34.7935 29.9086 34.7629 29.3868C34.7629 29.3865 34.7628 29.3861 34.7629 29.3857C34.768 29.185 34.818 28.5017 34.2473 27.344Z" fill="url(#paint10_linear_120_3072)"/>
<g style="mix-blend-mode:overlay">
<path d="M34.2646 27.3345C33.9398 26.6755 33.4397 26.0495 32.9474 25.6041C32.9125 25.5725 32.6808 25.3177 32.6117 25.1801C32.5581 25.0772 32.52 24.9675 32.4982 24.8539C32.4342 24.4957 32.6582 24.1132 32.676 24.0754C32.6861 24.0606 32.696 24.0456 32.7056 24.0305C32.9121 23.7031 33.0051 23.2996 32.9384 22.8865C32.8016 22.0408 32.0448 21.4631 31.2222 21.556L31.2219 21.554C31.2027 21.5566 31.1836 21.5596 31.1643 21.563C31.1578 21.5641 31.1514 21.5654 31.1449 21.5667C31.1384 21.5677 31.1319 21.5687 31.1254 21.5698C31.1062 21.5732 31.0872 21.577 31.0682 21.5811L31.0685 21.5831C30.2624 21.7777 29.7292 22.5832 29.8659 23.4289C29.9327 23.842 30.1474 24.1911 30.4453 24.4295C30.4591 24.4405 30.4732 24.4513 30.4874 24.4618C30.5161 24.4914 30.8479 24.7757 30.9001 25.136C30.9152 25.2508 30.9137 25.3675 30.8954 25.483C30.8734 25.6368 30.7347 25.957 30.7117 25.9987C30.3866 26.5884 30.1111 27.3514 30.0115 28.0853C29.8363 29.3747 30.0984 30.0029 30.1663 30.1907C30.1665 30.1911 30.1665 30.1915 30.1667 30.1918C30.3018 30.6951 31.3397 30.9345 32.5488 30.7396L32.5488 30.7397C32.5511 30.7393 32.5533 30.7389 32.5556 30.7386C32.5581 30.7381 32.5606 30.7377 32.5632 30.7373C32.5814 30.7344 32.5996 30.7314 32.6179 30.7282L32.6179 30.7282L32.6182 30.7281C32.6188 30.728 32.6193 30.7279 32.6199 30.7278C32.6219 30.7275 32.6238 30.7271 32.6258 30.7268C32.6277 30.7264 32.6297 30.7261 32.6316 30.7258C32.6322 30.7257 32.6328 30.7256 32.6333 30.7255L32.6336 30.7254L32.6336 30.7254C32.6519 30.7222 32.67 30.7187 32.6882 30.7153C32.6907 30.7148 32.6932 30.7143 32.6957 30.7138C32.698 30.7134 32.7002 30.713 32.7025 30.7125L32.7025 30.7125C33.9058 30.4815 34.8108 29.8991 34.7802 29.3773C34.7802 29.377 34.7802 29.3766 34.7802 29.3762C34.7854 29.1755 34.8354 28.4923 34.2646 27.3345Z" fill="url(#paint11_radial_120_3072)"/>
</g>
<path d="M34.2645 27.3335C33.9397 26.6745 33.4396 26.0485 32.9472 25.6031C32.9124 25.5716 32.6807 25.3168 32.6116 25.1791C32.558 25.0762 32.5198 24.9665 32.498 24.8529C32.4341 24.4947 32.6581 24.1123 32.6759 24.0744C32.686 24.0596 32.6959 24.0447 32.7055 24.0295C32.912 23.7021 33.005 23.2987 32.9382 22.8856C32.8027 22.0471 32.0577 21.4721 31.2434 21.5527C31.2363 21.5534 31.0597 21.5843 31.0553 21.5853C30.2565 21.7855 29.7298 22.5868 29.8658 23.428C29.9325 23.841 30.1472 24.1902 30.4452 24.4285C30.459 24.4395 30.473 24.4503 30.4873 24.4608C30.516 24.4904 30.8478 24.7748 30.9 25.1351C30.9151 25.2498 30.9135 25.3665 30.8953 25.4821C30.8732 25.6358 30.7345 25.956 30.7115 25.9978C30.3865 26.5875 30.111 27.3504 30.0113 28.0844C29.8362 29.3738 30.0982 30.0019 30.1662 30.1897C30.1663 30.1901 30.1664 30.1905 30.1665 30.1908C30.3016 30.6941 31.3395 30.9335 32.5487 30.7387L32.5487 30.7387C32.5509 30.7383 32.5532 30.738 32.5555 30.7376C32.558 30.7372 32.5605 30.7368 32.563 30.7364C32.5813 30.7334 32.5995 30.7304 32.6178 30.7272L32.6178 30.7272L32.6181 30.7272C32.6186 30.7271 32.6192 30.727 32.6198 30.7269C32.6217 30.7265 32.6237 30.7262 32.6256 30.7258C32.6276 30.7255 32.6295 30.7252 32.6315 30.7248C32.6321 30.7247 32.6326 30.7246 32.6332 30.7245L32.6334 30.7245L32.6335 30.7245C32.6518 30.7212 32.6699 30.7178 32.688 30.7143C32.6906 30.7138 32.6931 30.7133 32.6956 30.7129C32.6978 30.7124 32.7001 30.712 32.7023 30.7116L32.7023 30.7115C33.9056 30.4805 34.8107 29.8982 34.7801 29.3764C34.7801 29.3761 34.78 29.3757 34.7801 29.3752C34.7852 29.1745 34.8352 28.4913 34.2645 27.3335Z" fill="url(#paint12_radial_120_3072)"/>
<g style="mix-blend-mode:overlay">
<path d="M30.0678 23.4388C30.0389 23.2597 30.0482 23.0757 30.0952 22.8973C30.1422 22.7189 30.226 22.5495 30.3417 22.3989C30.4575 22.2482 30.6031 22.1193 30.77 22.0193C30.937 21.9194 31.1221 21.8504 31.3148 21.8164" stroke="#FFF8B1" stroke-width="0.416477" stroke-linecap="round" stroke-linejoin="round"/>
</g>
<path d="M30.2984 29.7273C30.0662 28.2909 30.3734 26.9429 30.9036 26.1687" stroke="#FAEE88" stroke-width="0.318482" stroke-linecap="round" stroke-linejoin="round"/>
<path d="M32.6544 24.1664C32.6645 24.1516 32.6744 24.1366 32.684 24.1215C32.8905 23.794 32.9835 23.3906 32.9167 22.9775C32.7852 22.1639 32.1002 21.6365 31.3146 21.6773C31.2574 21.6806 31.2004 21.6868 31.1437 21.6957C31.0913 21.7052 31.0089 21.7272 30.9802 21.7359C30.2232 21.9656 29.6787 22.711 29.8105 23.5259C29.8773 23.9389 30.1257 24.2821 30.4237 24.5205C30.4375 24.5315 30.4515 24.5422 30.4658 24.5527C30.4924 24.5802 30.7792 24.8265 30.8626 25.1492C30.8923 25.1448 30.9221 25.1402 30.9519 25.1349C31.5409 25.031 32.1624 24.6585 32.6412 24.1918C32.6477 24.1794 32.6524 24.1706 32.6544 24.1664Z" fill="url(#paint13_linear_120_3072)"/>
<path d="M30.8444 23.3297C30.9673 23.308 31.0413 23.1322 31.0097 22.9369C30.9782 22.7416 30.853 22.6009 30.7301 22.6226C30.6072 22.6443 30.5332 22.8202 30.5647 23.0154C30.5963 23.2107 30.7215 23.3514 30.8444 23.3297Z" fill="#F7EA69"/>
<path d="M30.8378 23.2887C30.9607 23.267 31.0347 23.0911 31.0032 22.8959C30.9716 22.7006 30.8464 22.5599 30.7235 22.5816C30.6006 22.6033 30.5266 22.7791 30.5581 22.9744C30.5897 23.1697 30.7149 23.3104 30.8378 23.2887Z" fill="#F28422"/>
<path d="M30.7235 22.5816C30.6006 22.6033 30.5266 22.7791 30.5581 22.9744C30.56 22.986 30.5622 22.9973 30.5647 23.0084C30.5466 22.8273 30.6189 22.6704 30.7345 22.65C30.8502 22.6296 30.9678 22.7529 31.0076 22.9302C31.0065 22.9189 31.005 22.9074 31.0032 22.8959C30.9716 22.7006 30.8464 22.5599 30.7235 22.5816Z" fill="#C45C00"/>
<path d="M32.0653 23.1139C32.1882 23.0922 32.2623 22.9163 32.2307 22.7211C32.1991 22.5258 32.0739 22.3851 31.951 22.4068C31.8281 22.4285 31.7541 22.6043 31.7857 22.7996C31.8172 22.9949 31.9425 23.1356 32.0653 23.1139Z" fill="#F7EA69"/>
<path d="M32.0588 23.0734C32.1816 23.0517 32.2557 22.8758 32.2241 22.6805C32.1925 22.4853 32.0673 22.3445 31.9444 22.3662C31.8215 22.3879 31.7475 22.5638 31.7791 22.7591C31.8107 22.9544 31.9359 23.0951 32.0588 23.0734Z" fill="#F28422"/>
<path d="M31.9444 22.3662C31.8215 22.3879 31.7475 22.5638 31.7791 22.7591C31.7809 22.7706 31.7832 22.782 31.7857 22.7931C31.7675 22.612 31.8399 22.4551 31.9555 22.4346C32.0711 22.4142 32.1888 22.5376 32.2286 22.7149C32.2274 22.7035 32.226 22.6921 32.2241 22.6805C32.1925 22.4853 32.0673 22.3445 31.9444 22.3662Z" fill="#C45C00"/>
<path d="M32.0308 23.5948C31.9266 23.7695 31.7658 23.8858 31.5838 23.9179C31.4018 23.95 31.2134 23.8954 31.0601 23.7661" stroke="#F7EA6B" stroke-width="0.451758" stroke-linecap="round" stroke-linejoin="round"/>
<path d="M32.0273 23.562C31.9232 23.7368 31.7624 23.8531 31.5804 23.8852C31.3983 23.9173 31.2099 23.8627 31.0566 23.7334" stroke="#F28422" stroke-width="0.451758" stroke-linecap="round" stroke-linejoin="round"/>
<path d="M30.9941 23.7124C31.0066 23.6916 31.0257 23.6778 31.0474 23.6739C31.0691 23.6701 31.0915 23.6766 31.1098 23.692C31.1767 23.7484 31.2518 23.7893 31.331 23.8122C31.4101 23.8352 31.4917 23.8397 31.5711 23.8257C31.6505 23.8117 31.7262 23.7794 31.7937 23.7305C31.8613 23.6817 31.9194 23.6173 31.9648 23.5411C31.971 23.5308 31.9789 23.5221 31.988 23.5155C31.9971 23.5089 32.0074 23.5045 32.0181 23.5026C32.0288 23.5007 32.0399 23.5013 32.0506 23.5044C32.0613 23.5075 32.0715 23.513 32.0805 23.5207C32.0944 23.5324 32.1105 23.5652 32.1105 23.5652L32.1105 23.5652C32.1108 23.5442 32.1054 23.5234 32.0949 23.5058C32.0845 23.4882 32.0696 23.4748 32.0525 23.4677C32.0354 23.4605 32.017 23.4599 32.0001 23.466C31.9831 23.4721 31.9685 23.4845 31.9584 23.5014C31.913 23.5776 31.8549 23.642 31.7873 23.6908C31.7198 23.7397 31.6441 23.772 31.5647 23.7861C31.4853 23.8001 31.4037 23.7955 31.3246 23.7725C31.2454 23.7496 31.1702 23.7088 31.1034 23.6523C31.0886 23.6398 31.0709 23.6331 31.0529 23.6332C31.035 23.6333 31.0178 23.6401 31.0039 23.6528C30.99 23.6654 30.9802 23.6832 30.9758 23.7033C30.9715 23.7235 30.9729 23.7451 30.9798 23.7648C30.9801 23.7459 30.985 23.7277 30.9941 23.7124V23.7124Z" fill="#C45C00"/>
<path d="M48.5615 26.9896C48.3452 26.9896 48.1362 26.9749 47.9345 26.9456C47.7329 26.9199 47.5477 26.8796 47.379 26.8246C47.2104 26.7659 47.0637 26.6944 46.939 26.6101L47.192 25.9886C47.3167 26.0729 47.4524 26.1407 47.599 26.1921C47.7457 26.2397 47.8997 26.2746 48.061 26.2966C48.226 26.3149 48.3929 26.3241 48.5615 26.3241C48.8219 26.3241 49.0217 26.2819 49.161 26.1976C49.3004 26.1096 49.37 25.9812 49.37 25.8126C49.37 25.7172 49.348 25.6439 49.304 25.5926C49.26 25.5376 49.1904 25.4954 49.095 25.4661C48.9997 25.4331 48.8769 25.4037 48.7265 25.3781L48.0775 25.2626C47.7035 25.1966 47.434 25.0682 47.269 24.8776C47.104 24.6832 47.0215 24.4431 47.0215 24.1571C47.0215 23.9224 47.0912 23.7189 47.2305 23.5466C47.3699 23.3742 47.5624 23.2404 47.808 23.1451C48.0537 23.0497 48.3342 23.0021 48.6495 23.0021C48.8365 23.0021 49.0144 23.0186 49.183 23.0516C49.3554 23.0809 49.513 23.1249 49.656 23.1836C49.799 23.2422 49.9237 23.3156 50.03 23.4036L49.777 24.0251C49.623 23.8931 49.4507 23.8014 49.26 23.7501C49.0694 23.6951 48.864 23.6676 48.644 23.6676C48.479 23.6676 48.3305 23.6859 48.1985 23.7226C48.0702 23.7592 47.9694 23.8142 47.896 23.8876C47.8227 23.9572 47.786 24.0489 47.786 24.1626C47.786 24.2872 47.8282 24.3826 47.9125 24.4486C47.9969 24.5146 48.1509 24.5677 48.3745 24.6081L49.018 24.7181C49.3957 24.7804 49.6762 24.9014 49.8595 25.0811C50.0429 25.2607 50.1345 25.4917 50.1345 25.7741C50.1345 26.0124 50.0685 26.2232 49.9365 26.4066C49.8082 26.5899 49.6267 26.7329 49.392 26.8356C49.1574 26.9382 48.8805 26.9896 48.5615 26.9896ZM52.2545 26.9896C52.0272 26.9896 51.8329 26.9474 51.6715 26.8631C51.5102 26.7751 51.3874 26.6449 51.303 26.4726C51.2187 26.2966 51.1765 26.0766 51.1765 25.8126V24.1681H51.941V25.7741C51.941 25.8877 51.9594 25.9886 51.996 26.0766C52.0327 26.1646 52.0895 26.2324 52.1665 26.2801C52.2472 26.3277 52.3499 26.3516 52.4745 26.3516C52.6029 26.3516 52.7184 26.3204 52.821 26.2581C52.9274 26.1957 53.0099 26.1132 53.0685 26.0106C53.1309 25.9042 53.162 25.7924 53.162 25.6751V24.1681H53.9265V26.9346H53.2445V26.3626H53.2115C53.1125 26.5606 52.9842 26.7146 52.8265 26.8246C52.6689 26.9346 52.4782 26.9896 52.2545 26.9896ZM55.1323 26.9346V24.1681H55.7813V24.8501H55.8198C55.8858 24.6484 55.9958 24.4834 56.1498 24.3551C56.3074 24.2231 56.4999 24.1497 56.7273 24.1351L57.0793 24.1131L57.1508 24.8226L56.6063 24.8666C56.3789 24.8849 56.2029 24.9619 56.0783 25.0976C55.9573 25.2296 55.8968 25.3891 55.8968 25.5761V26.9346H55.1323ZM58.9112 26.9346L57.7782 24.1681H58.5867L59.2962 26.1481H59.3347L60.0442 24.1681H60.8307L59.6922 26.9346H58.9112ZM61.5434 23.6291V22.8591H62.4234V23.6291H61.5434ZM61.6094 26.9346V24.1681H62.3739V26.9346H61.6094ZM64.2872 26.9346L63.1542 24.1681H63.9627L64.6722 26.1481H64.7107L65.4202 24.1681H66.2067L65.0682 26.9346H64.2872ZM68.2573 26.9896C67.9566 26.9896 67.6945 26.9291 67.4708 26.8081C67.2508 26.6871 67.0803 26.5184 66.9593 26.3021C66.842 26.0857 66.7833 25.8346 66.7833 25.5486C66.7833 25.2589 66.842 25.0077 66.9593 24.7951C67.0803 24.5787 67.2508 24.4119 67.4708 24.2946C67.6945 24.1736 67.9566 24.1131 68.2573 24.1131C68.5616 24.1131 68.822 24.1736 69.0383 24.2946C69.2583 24.4119 69.427 24.5787 69.5443 24.7951C69.6653 25.0077 69.7258 25.2589 69.7258 25.5486C69.7258 25.8346 69.6653 26.0857 69.5443 26.3021C69.427 26.5184 69.2583 26.6871 69.0383 26.8081C68.822 26.9291 68.5616 26.9896 68.2573 26.9896ZM68.2573 26.3516C68.4883 26.3516 68.668 26.2782 68.7963 26.1316C68.9246 25.9849 68.9888 25.7887 68.9888 25.5431C68.9888 25.2974 68.9246 25.1049 68.7963 24.9656C68.6716 24.8226 68.492 24.7511 68.2573 24.7511C68.0226 24.7511 67.8411 24.8226 67.7128 24.9656C67.5845 25.1049 67.5203 25.2974 67.5203 25.5431C67.5203 25.7887 67.5845 25.9849 67.7128 26.1316C67.8448 26.2782 68.0263 26.3516 68.2573 26.3516ZM70.7854 26.9346V24.1681H71.4344V24.8501H71.4729C71.5389 24.6484 71.6489 24.4834 71.8029 24.3551C71.9605 24.2231 72.153 24.1497 72.3804 24.1351L72.7324 24.1131L72.8039 24.8226L72.2594 24.8666C72.032 24.8849 71.856 24.9619 71.7314 25.0976C71.6104 25.2296 71.5499 25.3891 71.5499 25.5761V26.9346H70.7854Z" fill="#202224"/>
<mask id="mask0_120_3072" style="mask-type:alpha" maskUnits="userSpaceOnUse" x="14" y="13" width="16" height="24">
<path d="M14.6973 17.4213C14.6973 15.6291 16.1501 14.1763 17.9423 14.1763H22.4517C25.901 14.1763 28.6973 16.9725 28.6973 20.4219V29.4471C28.6973 32.8964 25.901 35.6927 22.4517 35.6927H17.9423C16.1501 35.6927 14.6973 34.2398 14.6973 32.4477V17.4213Z" fill="white" stroke="url(#paint14_linear_120_3072)" stroke-opacity="0.3" stroke-width="0.650789"/>
</mask>
<g mask="url(#mask0_120_3072)">
<rect x="14.1973" y="13.7625" width="7" height="22.3439" fill="#587ED7"/>
</g>
<defs>
<filter id="filter0_d_120_3072" x="0.845876" y="0.32488" width="107.584" height="52.6006" filterUnits="userSpaceOnUse" color-interpolation-filters="sRGB">
<feFlood flood-opacity="0" result="BackgroundImageFix"/>
<feColorMatrix in="SourceAlpha" type="matrix" values="0 0 0 0 0 0 0 0 0 0 0 0 0 0 0 0 0 0 127 0" result="hardAlpha"/>
<feOffset dx="1.69074" dy="1.69074"/>
<feGaussianBlur stdDeviation="7.60835"/>
<feColorMatrix type="matrix" values="0 0 0 0 0 0 0 0 0 0 0 0 0 0 0 0 0 0 0.05 0"/>
<feBlend mode="normal" in2="BackgroundImageFix" result="effect1_dropShadow_120_3072"/>
<feBlend mode="normal" in="SourceGraphic" in2="effect1_dropShadow_120_3072" result="shape"/>
</filter>
<filter id="filter1_d_120_3072" x="28.9158" y="17.8113" width="10.9448" height="14.5153" filterUnits="userSpaceOnUse" color-interpolation-filters="sRGB">
<feFlood flood-opacity="0" result="BackgroundImageFix"/>
<feColorMatrix in="SourceAlpha" type="matrix" values="0 0 0 0 0 0 0 0 0 0 0 0 0 0 0 0 0 0 127 0" result="hardAlpha"/>
<feOffset dy="0.720578"/>
<feComposite in2="hardAlpha" operator="out"/>
<feColorMatrix type="matrix" values="0 0 0 0 0.0823333 0 0 0 0 0 0 0 0 0 0.316667 0 0 0 1 0"/>
<feBlend mode="normal" in2="BackgroundImageFix" result="effect1_dropShadow_120_3072"/>
<feBlend mode="normal" in="SourceGraphic" in2="effect1_dropShadow_120_3072" result="shape"/>
</filter>
<linearGradient id="paint0_linear_120_3072" x1="32.1409" y1="6.40468" x2="70.1737" y2="49.4515" gradientUnits="userSpaceOnUse">
<stop stop-color="#F1F1F1"/>
<stop offset="1" stop-color="#E1E1E1"/>
</linearGradient>
<linearGradient id="paint1_linear_120_3072" x1="34.661" y1="19.8235" x2="35.4709" y2="29.3841" gradientUnits="userSpaceOnUse">
<stop stop-color="#995BFC"/>
<stop offset="0.510417" stop-color="#5E18D7"/>
<stop offset="1" stop-color="#5D0F72"/>
<stop offset="1" stop-color="#5E1072"/>
</linearGradient>
<linearGradient id="paint2_linear_120_3072" x1="36.3335" y1="31.5162" x2="35.3553" y2="18.3184" gradientUnits="userSpaceOnUse">
<stop stop-color="#DF3E00"/>
<stop offset="1" stop-color="#FFA100"/>
</linearGradient>
<linearGradient id="paint3_linear_120_3072" x1="36.3369" y1="31.2385" x2="35.3923" y2="18.4929" gradientUnits="userSpaceOnUse">
<stop stop-color="#FF8A00"/>
<stop offset="1" stop-color="#FFE600"/>
</linearGradient>
<radialGradient id="paint4_radial_120_3072" cx="0" cy="0" r="1" gradientUnits="userSpaceOnUse" gradientTransform="translate(36.5151 20.4197) rotate(10.2147) scale(3.23658 2.95047)">
<stop stop-color="white"/>
<stop offset="0.09619" stop-color="#FFED3B" stop-opacity="0.8"/>
<stop offset="0.71251" stop-color="#F6D146" stop-opacity="0"/>
<stop offset="1" stop-color="#F6D146" stop-opacity="0"/>
</radialGradient>
<radialGradient id="paint5_radial_120_3072" cx="0" cy="0" r="1" gradientUnits="userSpaceOnUse" gradientTransform="translate(35.318 25.7266) rotate(10.2147) scale(5.33951 4.90181)">
<stop stop-color="#FFE800"/>
<stop offset="0.71251" stop-color="#FFC900" stop-opacity="0"/>
</radialGradient>
<linearGradient id="paint6_linear_120_3072" x1="36.295" y1="30.0947" x2="33.3134" y2="19.9211" gradientUnits="userSpaceOnUse">
<stop offset="0.00149" stop-color="#FF8A00"/>
<stop offset="0.71251" stop-color="#FFC900" stop-opacity="0"/>
</linearGradient>
<linearGradient id="paint7_linear_120_3072" x1="38.95" y1="23.5894" x2="33.9489" y2="17.074" gradientUnits="userSpaceOnUse">
<stop offset="0.00149" stop-color="#FF8A00"/>
<stop offset="0.71251" stop-color="#F6D146" stop-opacity="0"/>
</linearGradient>
<linearGradient id="paint8_linear_120_3072" x1="35.8163" y1="31.0689" x2="35.4112" y2="25.6029" gradientUnits="userSpaceOnUse">
<stop offset="0.00269" stop-color="#6F0100"/>
<stop offset="0.96044" stop-color="#FF9E00" stop-opacity="0.09"/>
</linearGradient>
<linearGradient id="paint9_linear_120_3072" x1="33.8646" y1="31.2719" x2="29.5269" y2="21.8164" gradientUnits="userSpaceOnUse">
<stop stop-color="#DF3E00"/>
<stop offset="1" stop-color="#FFA100"/>
</linearGradient>
<linearGradient id="paint10_linear_120_3072" x1="33.7948" y1="31.0644" x2="29.6057" y2="21.9329" gradientUnits="userSpaceOnUse">
<stop stop-color="#FF8A00"/>
<stop offset="1" stop-color="#FFE600"/>
</linearGradient>
<radialGradient id="paint11_radial_120_3072" cx="0" cy="0" r="1" gradientUnits="userSpaceOnUse" gradientTransform="translate(31.1112 22.9763) rotate(-10.0113) scale(2.51385 2.32966)">
<stop stop-color="white"/>
<stop offset="0.09619" stop-color="#FFED3B" stop-opacity="0.8"/>
<stop offset="0.71251" stop-color="#F6D146" stop-opacity="0"/>
<stop offset="1" stop-color="#F6D146" stop-opacity="0"/>
</radialGradient>
<radialGradient id="paint12_radial_120_3072" cx="0" cy="0" r="1" gradientUnits="userSpaceOnUse" gradientTransform="translate(31.6171 27.2444) rotate(-10.0113) scale(4.14718 3.87041)">
<stop stop-color="#FFE800"/>
<stop offset="0.71251" stop-color="#FFC900" stop-opacity="0"/>
</radialGradient>
<linearGradient id="paint13_linear_120_3072" x1="33.7138" y1="24.6717" x2="28.3152" y2="21.2674" gradientUnits="userSpaceOnUse">
<stop offset="0.00149" stop-color="#FF8A00"/>
<stop offset="0.71251" stop-color="#F6D146" stop-opacity="0"/>
</linearGradient>
<linearGradient id="paint14_linear_120_3072" x1="17.8896" y1="6.40468" x2="33.1131" y2="9.55797" gradientUnits="userSpaceOnUse">
<stop stop-color="#F1F1F1"/>
<stop offset="1" stop-color="#E1E1E1"/>
</linearGradient>
</defs>
</svg>
