<svg width="109" height="53" viewBox="0 0 109 53" fill="none" xmlns="http://www.w3.org/2000/svg">
<g filter="url(#filter0_d_120_3081)">
<rect x="14.6973" y="14.2542" width="76.5" height="21.5164" rx="3.245" fill="white"/>
<rect x="14.6973" y="14.2542" width="76.5" height="21.5164" rx="3.245" stroke="url(#paint0_linear_120_3081)" stroke-opacity="0.3" stroke-width="0.650789"/>
</g>
<g filter="url(#filter1_d_120_3081)">
<mask id="path-3-outside-1_120_3081" maskUnits="userSpaceOnUse" x="26.6187" y="18.4155" width="15" height="13" fill="black">
<rect fill="white" x="26.6187" y="18.4155" width="15" height="13"/>
<path d="M27.6235 20.7154C27.5689 19.9475 30.2192 18.9969 30.8862 19.6138V20.7241L31.5317 19.7427C32.522 20.0699 34.8389 20.7241 36.1821 20.7241C36.9942 20.7241 38.0728 20.4719 38.9907 20.1001C39.7929 19.7752 40.9324 20.2128 40.8188 21.0708C40.3724 24.4436 39.0392 30.0792 38.7915 30.2564C38.4557 30.4889 36.8795 31.0574 34.2964 30.1275C34.0901 29.7974 33.9007 29.5944 33.8315 29.5337L33.6167 29.4634L33.3921 29.1978L32.9526 29.8433C32.384 29.6368 31.16 29.3197 30.1392 29.4146L30.1118 29.8404C30.0778 30.3551 29.6918 30.7372 29.2095 30.5542C28.9245 30.4461 28.6296 30.3022 28.3892 30.1753C28.0567 29.9996 27.8553 29.6565 27.8394 29.2808C27.7707 27.6651 27.5962 23.1862 27.6362 20.8745C27.6257 20.8387 27.6197 20.8029 27.6187 20.7671C27.619 20.7507 27.6235 20.7154 27.6235 20.7154Z"/>
</mask>
<path d="M27.6235 20.7154C27.5689 19.9475 30.2192 18.9969 30.8862 19.6138V20.7241L31.5317 19.7427C32.522 20.0699 34.8389 20.7241 36.1821 20.7241C36.9942 20.7241 38.0728 20.4719 38.9907 20.1001C39.7929 19.7752 40.9324 20.2128 40.8188 21.0708C40.3724 24.4436 39.0392 30.0792 38.7915 30.2564C38.4557 30.4889 36.8795 31.0574 34.2964 30.1275C34.0901 29.7974 33.9007 29.5944 33.8315 29.5337L33.6167 29.4634L33.3921 29.1978L32.9526 29.8433C32.384 29.6368 31.16 29.3197 30.1392 29.4146L30.1118 29.8404C30.0778 30.3551 29.6918 30.7372 29.2095 30.5542C28.9245 30.4461 28.6296 30.3022 28.3892 30.1753C28.0567 29.9996 27.8553 29.6565 27.8394 29.2808C27.7707 27.6651 27.5962 23.1862 27.6362 20.8745C27.6257 20.8387 27.6197 20.8029 27.6187 20.7671C27.619 20.7507 27.6235 20.7154 27.6235 20.7154Z" fill="url(#paint1_linear_120_3081)"/>
<path d="M27.6235 20.7154L28.3496 20.8089L28.3589 20.7364L28.3538 20.6634L27.6235 20.7154ZM30.8862 19.6138H31.6183V19.2937L31.3833 19.0763L30.8862 19.6138ZM30.8862 20.7241H30.1542V23.1694L31.4979 21.1264L30.8862 20.7241ZM31.5317 19.7427L31.7614 19.0476L31.2285 18.8715L30.9201 19.3404L31.5317 19.7427ZM36.1821 20.7241L36.1821 21.4562L36.1822 21.4562L36.1821 20.7241ZM38.9907 20.1001L39.2656 20.7786L39.2656 20.7786L38.9907 20.1001ZM40.8188 21.0708L41.5446 21.1669L41.5446 21.1669L40.8188 21.0708ZM38.7915 30.2564L39.2082 30.8583L39.2174 30.8518L38.7915 30.2564ZM34.2964 30.1275L33.6756 30.5155L33.8099 30.7304L34.0484 30.8163L34.2964 30.1275ZM33.8315 29.5337L34.3142 28.9833L34.2016 28.8845L34.0592 28.838L33.8315 29.5337ZM33.6167 29.4634L33.0577 29.9361L33.1917 30.0946L33.389 30.1592L33.6167 29.4634ZM33.3921 29.1978L33.9511 28.7251L33.3291 27.9895L32.787 28.7858L33.3921 29.1978ZM32.9526 29.8433L32.7028 30.5314L33.2376 30.7256L33.5578 30.2553L32.9526 29.8433ZM30.1392 29.4146L30.0714 28.6857L29.4487 28.7435L29.4086 29.3677L30.1392 29.4146ZM30.1118 29.8404L30.8423 29.8887L30.8424 29.8873L30.1118 29.8404ZM29.2095 30.5542L28.9498 31.2387L28.9498 31.2387L29.2095 30.5542ZM28.3892 30.1753L28.0471 30.8226L28.0474 30.8227L28.3892 30.1753ZM27.8394 29.2808L27.108 29.3119L27.108 29.3119L27.8394 29.2808ZM27.6362 20.8745L28.3682 20.8872L28.3701 20.7752L28.3385 20.6678L27.6362 20.8745ZM27.6187 20.7671L26.8867 20.7524L26.8864 20.7708L26.8869 20.7893L27.6187 20.7671ZM27.6235 20.7154L28.3538 20.6634C28.3627 20.7888 28.3118 20.8544 28.3211 20.841C28.33 20.8284 28.3667 20.7846 28.4543 20.7192C28.6284 20.5893 28.9025 20.4486 29.2243 20.3369C29.5443 20.2258 29.8647 20.1598 30.1181 20.1491C30.4157 20.1366 30.4475 20.2052 30.3892 20.1513L30.8862 19.6138L31.3833 19.0763C30.9914 18.714 30.4418 18.6701 30.0566 18.6863C29.6271 18.7043 29.1634 18.8082 28.7442 18.9537C28.3269 19.0985 27.9069 19.3009 27.5787 19.5458C27.4151 19.6679 27.2485 19.8196 27.1203 20.0035C26.9925 20.1867 26.8708 20.4499 26.8933 20.7673L27.6235 20.7154ZM30.8862 19.6138H30.1542V20.7241H30.8862H31.6183V19.6138H30.8862ZM30.8862 20.7241L31.4979 21.1264L32.1434 20.145L31.5317 19.7427L30.9201 19.3404L30.2746 20.3219L30.8862 20.7241ZM31.5317 19.7427L31.3021 20.4378C31.8156 20.6075 32.6632 20.8589 33.5572 21.0688C34.4368 21.2753 35.421 21.4562 36.1821 21.4562V20.7241V19.9921C35.6 19.9921 34.7541 19.8459 33.8919 19.6434C33.044 19.4444 32.2381 19.2051 31.7614 19.0476L31.5317 19.7427ZM36.1821 20.7241L36.1822 21.4562C37.1153 21.4562 38.2893 21.1741 39.2656 20.7786L38.9907 20.1001L38.7159 19.4216C37.8563 19.7698 36.873 19.9921 36.1821 19.9921L36.1821 20.7241ZM38.9907 20.1001L39.2656 20.7786C39.466 20.6975 39.7378 20.71 39.9343 20.8032C40.0259 20.8467 40.068 20.8921 40.083 20.9148C40.0914 20.9276 40.0978 20.939 40.0931 20.9748L40.8188 21.0708L41.5446 21.1669C41.6558 20.3266 41.1216 19.746 40.5621 19.4805C40.0166 19.2217 39.3177 19.1778 38.7159 19.4216L38.9907 20.1001ZM40.8188 21.0708L40.0931 20.9748C39.8741 22.6296 39.4345 24.8573 39.0167 26.7001C38.8081 27.62 38.607 28.4348 38.4442 29.0264C38.3623 29.3238 38.2929 29.5548 38.2391 29.7113C38.2116 29.7912 38.193 29.8377 38.1834 29.859C38.1782 29.8704 38.1816 29.8611 38.194 29.841C38.1942 29.8407 38.2482 29.7449 38.3656 29.661L38.7915 30.2564L39.2174 30.8518C39.3503 30.7567 39.4219 30.6393 39.4417 30.6071C39.4737 30.555 39.4987 30.5036 39.517 30.4632C39.5543 30.3808 39.5902 30.2847 39.6238 30.187C39.6921 29.9882 39.7709 29.7235 39.8558 29.415C40.0266 28.7946 40.2331 27.9565 40.4446 27.0238C40.8669 25.1612 41.3172 22.8848 41.5446 21.1669L40.8188 21.0708ZM38.7915 30.2564L38.3748 29.6545C38.3802 29.6507 38.3612 29.6641 38.3085 29.6877C38.2589 29.7099 38.1889 29.737 38.098 29.7646C37.9164 29.8197 37.6609 29.874 37.3338 29.8977C36.6823 29.9448 35.7448 29.8708 34.5443 29.4387L34.2964 30.1275L34.0484 30.8163C36.7912 31.8036 38.6287 31.2594 39.2082 30.8583L38.7915 30.2564ZM34.2964 30.1275L34.9172 29.7395C34.6826 29.3641 34.4492 29.1016 34.3142 28.9833L33.8315 29.5337L33.3489 30.0842C33.3431 30.0791 33.3797 30.1125 33.4468 30.1941C33.5094 30.2704 33.5898 30.3782 33.6756 30.5155L34.2964 30.1275ZM33.8315 29.5337L34.0592 28.838L33.8444 28.7677L33.6167 29.4634L33.389 30.1592L33.6038 30.2295L33.8315 29.5337ZM33.6167 29.4634L34.1757 28.9907L33.9511 28.7251L33.3921 29.1978L32.8331 29.6705L33.0577 29.9361L33.6167 29.4634ZM33.3921 29.1978L32.787 28.7858L32.3475 29.4313L32.9526 29.8433L33.5578 30.2553L33.9972 29.6098L33.3921 29.1978ZM32.9526 29.8433L33.2025 29.1552C32.5901 28.9329 31.2478 28.5764 30.0714 28.6857L30.1392 29.4146L30.2069 30.1435C31.0722 30.0631 32.1778 30.3408 32.7028 30.5314L32.9526 29.8433ZM30.1392 29.4146L29.4086 29.3677L29.3813 29.7934L30.1118 29.8404L30.8424 29.8873L30.8697 29.4615L30.1392 29.4146ZM30.1118 29.8404L29.3814 29.792C29.3784 29.8366 29.3683 29.869 29.3593 29.8886C29.3502 29.9085 29.3449 29.9094 29.3544 29.9013C29.3656 29.8918 29.3897 29.8769 29.424 29.871C29.4593 29.8648 29.4775 29.8729 29.4691 29.8697L29.2095 30.5542L28.9498 31.2387C29.4411 31.4251 29.9393 31.3259 30.3031 31.0165C30.6414 30.7287 30.8147 30.3055 30.8423 29.8887L30.1118 29.8404ZM29.2095 30.5542L29.4691 29.8698C29.2238 29.7767 28.9585 29.6481 28.7309 29.5279L28.3892 30.1753L28.0474 30.8227C28.3007 30.9564 28.6253 31.1156 28.9498 31.2387L29.2095 30.5542ZM28.3892 30.1753L28.7312 29.5281C28.6465 29.4833 28.5765 29.386 28.5708 29.2497L27.8394 29.2808L27.108 29.3119C27.1341 29.927 27.4669 30.5159 28.0471 30.8226L28.3892 30.1753ZM27.8394 29.2808L28.5708 29.2497C28.5019 27.6277 28.3286 23.1725 28.3682 20.8872L27.6362 20.8745L26.9043 20.8619C26.8638 23.1999 27.0396 27.7025 27.108 29.3119L27.8394 29.2808ZM27.6362 20.8745L28.3385 20.6678C28.3443 20.6877 28.3494 20.7139 28.3504 20.7449L27.6187 20.7671L26.8869 20.7893C26.89 20.892 26.907 20.9898 26.934 21.0813L27.6362 20.8745ZM27.6187 20.7671L28.3506 20.7819C28.35 20.8101 28.3476 20.8273 28.349 20.8139C28.3492 20.8123 28.3494 20.8105 28.3496 20.8091C28.3497 20.8084 28.3497 20.808 28.3497 20.808C28.3497 20.8079 28.3497 20.808 28.3497 20.8081C28.3497 20.8082 28.3497 20.8083 28.3497 20.8084C28.3496 20.8085 28.3496 20.8086 28.3496 20.8086C28.3496 20.8087 28.3496 20.8087 28.3496 20.8088C28.3496 20.8088 28.3496 20.8088 28.3496 20.8088C28.3496 20.8088 28.3496 20.8089 28.3496 20.8089C28.3496 20.8089 28.3496 20.8089 27.6235 20.7154C26.8975 20.6218 26.8975 20.6218 26.8975 20.6218C26.8975 20.6219 26.8975 20.6219 26.8975 20.6219C26.8975 20.6219 26.8975 20.6219 26.8975 20.622C26.8975 20.622 26.8974 20.6221 26.8974 20.6221C26.8974 20.6222 26.8974 20.6224 26.8974 20.6225C26.8974 20.6228 26.8973 20.6231 26.8973 20.6234C26.8972 20.6241 26.8971 20.6249 26.897 20.6259C26.8967 20.6278 26.8964 20.6303 26.8961 20.6332C26.8954 20.6389 26.8944 20.647 26.8934 20.6562C26.8925 20.6646 26.8876 20.7077 26.8867 20.7524L27.6187 20.7671Z" fill="url(#paint2_linear_120_3081)" mask="url(#path-3-outside-1_120_3081)"/>
</g>
<g filter="url(#filter2_ii_120_3081)">
<path fill-rule="evenodd" clip-rule="evenodd" d="M27.6186 20.7666C27.6189 20.7501 27.6194 20.7245 27.6194 20.7245C27.6185 20.7385 27.6182 20.7525 27.6186 20.7666Z" fill="url(#paint3_linear_120_3081)"/>
<path d="M27.6832 20.9828C28.1172 21.7268 29.1179 22.1883 29.6173 22.1194L29.532 29.5332C30.6184 29.1819 32.2653 29.5935 32.9529 29.8432L33.3921 29.1974L33.6246 29.9724L33.8312 29.5332C33.9001 29.5935 34.0896 29.7967 34.2962 30.1274C36.8794 31.0573 38.4552 30.489 38.791 30.2565C39.0377 30.0857 40.3717 24.4226 40.8166 21.0396C40.9295 20.1814 39.7956 19.7509 38.9961 20.0824C38.0774 20.4633 36.9961 20.7245 36.182 20.7245C34.8387 20.7245 32.5224 20.0701 31.5322 19.7429L30.8864 20.7245V19.6137C30.2297 19.0743 27.6781 19.8763 27.6194 20.7245L27.6186 20.7666C27.6207 20.8387 27.6413 20.9111 27.6832 20.9828Z" fill="url(#paint4_linear_120_3081)"/>
</g>
<path d="M34.3966 27.5274L34.1692 28.0392C34.0927 28.2121 33.8904 28.2908 33.7175 28.2143L33.22 27.9939C33.0785 27.9312 32.9129 27.9952 32.8503 28.1367L32.5837 28.7398C32.5072 28.9126 32.3049 28.9903 32.1321 28.914L31.6192 28.6875C31.4464 28.6109 31.3685 28.4087 31.445 28.2359L31.7117 27.6327C31.7743 27.4912 31.7103 27.3258 31.5687 27.2632L30.9282 26.9802C30.7556 26.9036 30.6778 26.7013 30.754 26.5286L30.9805 26.0157C31.057 25.8429 31.2593 25.7652 31.4321 25.8415L32.0727 26.1246C32.2142 26.1871 32.3796 26.1231 32.4421 25.9816L32.6874 25.4269C32.7639 25.2541 32.9661 25.1764 33.139 25.2527L33.6519 25.4792C33.8247 25.5558 33.9026 25.758 33.8261 25.9308L33.5808 26.4857C33.5182 26.6271 33.5821 26.7924 33.7235 26.855L34.2214 27.0756C34.3943 27.1522 34.473 27.3545 34.3966 27.5274Z" fill="url(#paint5_linear_120_3081)" style="mix-blend-mode:multiply"/>
<path d="M31.4446 20.6607C31.5109 21.1754 34.0555 22.5807 34.6764 22.5807C35.7045 22.5807 38.4256 21.1554 39.051 23.8606C39.4531 25.5999 36.6557 28.5048 34.6764 25.9657" stroke="#DAC5AE" stroke-width="0.684702" stroke-linecap="round" stroke-dasharray="1.56 1.56" style="mix-blend-mode:multiply"/>
<g filter="url(#filter3_i_120_3081)">
<path d="M27.727 20.8051C28.1463 21.3241 28.913 21.6426 29.6468 21.6491C30.0427 21.6526 30.4516 21.9508 30.4355 22.3464L30.1601 29.1028L30.1095 29.8675C30.0765 30.3661 29.7031 30.7381 29.2349 30.5637C28.942 30.4546 28.637 30.3061 28.3894 30.1754C28.0567 29.9998 27.8557 29.6566 27.8397 29.2807C27.7682 27.5974 27.5789 22.8053 27.6402 20.5952C27.643 20.6653 27.6708 20.7355 27.727 20.8051Z" fill="url(#paint6_linear_120_3081)"/>
</g>
<path opacity="0.8" d="M35.4076 21.3248L34.8755 29.6366C34.871 29.7074 34.9073 29.7754 34.973 29.8025C35.5808 30.0525 36.7839 29.9842 37.1892 29.7239C37.2272 29.6995 37.248 29.6576 37.2534 29.6127L38.2648 21.1798C38.2836 21.0224 38.096 20.9007 37.9473 20.9556C37.3159 21.1891 36.3394 21.2436 35.6239 21.1509C35.5152 21.1368 35.4146 21.2154 35.4076 21.3248Z" fill="url(#paint7_linear_120_3081)"/>
<path d="M27.9415 21.7731L28.1269 29.2558C28.1319 29.4594 28.2424 29.6457 28.4186 29.7477L29.0167 30.094C29.0889 30.1358 29.1795 30.0849 29.1814 30.0015L29.3579 22.1633C29.3591 22.1088 29.32 22.0618 29.2664 22.0522C28.6721 21.9465 28.3728 21.8417 28.1556 21.678C28.0731 21.6159 27.9389 21.6699 27.9415 21.7731Z" fill="url(#paint8_linear_120_3081)"/>
<path d="M48.083 27.0125V23.795H46.763V23.135H50.1675V23.795H48.8475V27.0125H48.083ZM50.6503 27.0125V24.246H51.2993V24.928H51.3378C51.4038 24.7263 51.5138 24.5613 51.6678 24.433C51.8255 24.301 52.018 24.2276 52.2453 24.213L52.5973 24.191L52.6688 24.9005L52.1243 24.9445C51.897 24.9628 51.721 25.0398 51.5963 25.1755C51.4753 25.3075 51.4148 25.467 51.4148 25.654V27.0125H50.6503ZM55.0062 27.0675C54.6505 27.0675 54.3499 27.0106 54.1042 26.897C53.8585 26.7796 53.6734 26.6128 53.5487 26.3965C53.424 26.1801 53.3617 25.9235 53.3617 25.6265C53.3617 25.3551 53.4185 25.1113 53.5322 24.895C53.6495 24.6786 53.8182 24.5081 54.0382 24.3835C54.2582 24.2551 54.5222 24.191 54.8302 24.191C55.1052 24.191 55.3454 24.2496 55.5507 24.367C55.756 24.4806 55.9137 24.6456 56.0237 24.862C56.1374 25.0746 56.1942 25.3331 56.1942 25.6375V25.8685H53.9557V25.39H55.6387L55.5562 25.4945C55.5562 25.2341 55.492 25.0435 55.3637 24.9225C55.239 24.8015 55.063 24.741 54.8357 24.741C54.689 24.741 54.5589 24.7703 54.4452 24.829C54.3315 24.8876 54.2417 24.9756 54.1757 25.093C54.1097 25.2066 54.0767 25.3515 54.0767 25.5275V25.6155C54.0767 25.8171 54.1134 25.9803 54.1867 26.105C54.26 26.2296 54.3682 26.3213 54.5112 26.38C54.6542 26.4386 54.8302 26.468 55.0392 26.468C55.1822 26.468 55.3289 26.4515 55.4792 26.4185C55.6332 26.3855 55.7725 26.325 55.8972 26.237L56.1117 26.765C55.9577 26.875 55.7817 26.9538 55.5837 27.0015C55.3857 27.0455 55.1932 27.0675 55.0062 27.0675ZM58.2356 27.0675C58.0303 27.0675 57.8451 27.029 57.6801 26.952C57.5188 26.875 57.3904 26.7705 57.2951 26.6385C57.2034 26.5065 57.1576 26.358 57.1576 26.193C57.1576 25.9913 57.2181 25.8263 57.3391 25.698C57.4638 25.566 57.6508 25.4688 57.9001 25.4065C58.1531 25.3441 58.4721 25.313 58.8571 25.313H59.2806V25.7805H58.9066C58.7379 25.7805 58.5913 25.786 58.4666 25.797C58.3419 25.808 58.2374 25.8281 58.1531 25.8575C58.0724 25.8831 58.0101 25.9198 57.9661 25.9675C57.9258 26.0151 57.9056 26.0775 57.9056 26.1545C57.9056 26.2791 57.9533 26.369 58.0486 26.424C58.1476 26.479 58.2741 26.5065 58.4281 26.5065C58.5601 26.5065 58.6829 26.4753 58.7966 26.413C58.9103 26.3506 59.0019 26.2681 59.0716 26.1655C59.1413 26.0628 59.1761 25.9528 59.1761 25.8355V25.2525C59.1761 25.0691 59.1156 24.9445 58.9946 24.8785C58.8736 24.8088 58.6976 24.774 58.4666 24.774C58.3163 24.774 58.1604 24.7941 57.9991 24.8345C57.8378 24.8748 57.6636 24.9445 57.4766 25.0435L57.2731 24.51C57.4088 24.4366 57.5481 24.378 57.6911 24.334C57.8341 24.2863 57.9826 24.2515 58.1366 24.2295C58.2943 24.2038 58.4538 24.191 58.6151 24.191C58.8754 24.191 59.1028 24.2313 59.2971 24.312C59.4951 24.389 59.6473 24.5118 59.7536 24.6805C59.8636 24.8491 59.9186 25.071 59.9186 25.346V27.0125H59.3026V26.4515H59.2641C59.2018 26.5651 59.1229 26.6696 59.0276 26.765C58.9359 26.8566 58.8241 26.93 58.6921 26.985C58.5638 27.04 58.4116 27.0675 58.2356 27.0675ZM62.2427 27.0675C62.074 27.0675 61.909 27.0546 61.7477 27.029C61.59 27.007 61.4452 26.974 61.3132 26.93C61.1812 26.886 61.0675 26.8291 60.9722 26.7595L61.1702 26.226C61.2692 26.2883 61.3773 26.3396 61.4947 26.38C61.612 26.4166 61.7312 26.4441 61.8522 26.4625C61.9768 26.4771 62.0942 26.4845 62.2042 26.4845C62.4205 26.4845 62.5837 26.4643 62.6937 26.424C62.8037 26.3836 62.8587 26.314 62.8587 26.215C62.8587 26.1306 62.8293 26.0701 62.7707 26.0335C62.712 25.9968 62.613 25.9693 62.4737 25.951L61.8412 25.8685C61.5625 25.8318 61.3553 25.7401 61.2197 25.5935C61.0877 25.4431 61.0217 25.2671 61.0217 25.0655C61.0217 24.8968 61.0675 24.7483 61.1592 24.62C61.2545 24.488 61.3975 24.3835 61.5882 24.3065C61.7825 24.2295 62.0245 24.191 62.3142 24.191C62.4572 24.191 62.6002 24.202 62.7432 24.224C62.8898 24.246 63.0237 24.2808 63.1447 24.3285C63.2693 24.3725 63.3702 24.4275 63.4472 24.4935L63.2327 25.016C63.1557 24.9573 63.0658 24.9115 62.9632 24.8785C62.8605 24.8418 62.7523 24.8161 62.6387 24.8015C62.5287 24.7831 62.4205 24.774 62.3142 24.774C62.1088 24.774 61.953 24.796 61.8467 24.84C61.744 24.884 61.6927 24.9536 61.6927 25.049C61.6927 25.1296 61.7202 25.1883 61.7752 25.225C61.8338 25.258 61.9273 25.2836 62.0557 25.302L62.6552 25.3955C62.9595 25.4431 63.1813 25.5348 63.3207 25.6705C63.46 25.8025 63.5297 25.9821 63.5297 26.2095C63.5297 26.3855 63.4765 26.5376 63.3702 26.666C63.2675 26.7943 63.119 26.8933 62.9247 26.963C62.734 27.0326 62.5067 27.0675 62.2427 27.0675ZM65.6117 27.0675C65.3843 27.0675 65.19 27.0253 65.0287 26.941C64.8673 26.853 64.7445 26.7228 64.6602 26.5505C64.5758 26.3745 64.5337 26.1545 64.5337 25.8905V24.246H65.2982V25.852C65.2982 25.9656 65.3165 26.0665 65.3532 26.1545C65.3898 26.2425 65.4467 26.3103 65.5237 26.358C65.6043 26.4056 65.707 26.4295 65.8317 26.4295C65.96 26.4295 66.0755 26.3983 66.1782 26.336C66.2845 26.2736 66.367 26.1911 66.4257 26.0885C66.488 25.9821 66.5192 25.8703 66.5192 25.753V24.246H67.2837V27.0125H66.6017V26.4405H66.5687C66.4697 26.6385 66.3413 26.7925 66.1837 26.9025C66.026 27.0125 65.8353 27.0675 65.6117 27.0675ZM68.4894 27.0125V24.246H69.1384V24.928H69.1769C69.2429 24.7263 69.3529 24.5613 69.5069 24.433C69.6646 24.301 69.8571 24.2276 70.0844 24.213L70.4364 24.191L70.5079 24.9005L69.9634 24.9445C69.7361 24.9628 69.5601 25.0398 69.4354 25.1755C69.3144 25.3075 69.2539 25.467 69.2539 25.654V27.0125H68.4894ZM72.8453 27.0675C72.4897 27.0675 72.189 27.0106 71.9433 26.897C71.6977 26.7796 71.5125 26.6128 71.3878 26.3965C71.2632 26.1801 71.2008 25.9235 71.2008 25.6265C71.2008 25.3551 71.2577 25.1113 71.3713 24.895C71.4887 24.6786 71.6573 24.5081 71.8773 24.3835C72.0973 24.2551 72.3613 24.191 72.6693 24.191C72.9443 24.191 73.1845 24.2496 73.3898 24.367C73.5952 24.4806 73.7528 24.6456 73.8628 24.862C73.9765 25.0746 74.0333 25.3331 74.0333 25.6375V25.8685H71.7948V25.39H73.4778L73.3953 25.4945C73.3953 25.2341 73.3312 25.0435 73.2028 24.9225C73.0782 24.8015 72.9022 24.741 72.6748 24.741C72.5282 24.741 72.398 24.7703 72.2843 24.829C72.1707 24.8876 72.0808 24.9756 72.0148 25.093C71.9488 25.2066 71.9158 25.3515 71.9158 25.5275V25.6155C71.9158 25.8171 71.9525 25.9803 72.0258 26.105C72.0992 26.2296 72.2073 26.3213 72.3503 26.38C72.4933 26.4386 72.6693 26.468 72.8783 26.468C73.0213 26.468 73.168 26.4515 73.3183 26.4185C73.4723 26.3855 73.6117 26.325 73.7363 26.237L73.9508 26.765C73.7968 26.875 73.6208 26.9538 73.4228 27.0015C73.2248 27.0455 73.0323 27.0675 72.8453 27.0675ZM77.1412 27.0125V23.135H77.9057V24.719H79.8252V23.135H80.5897V27.0125H79.8252V25.379H77.9057V27.0125H77.1412ZM82.962 27.0675C82.7347 27.0675 82.5404 27.0253 82.379 26.941C82.2177 26.853 82.0949 26.7228 82.0105 26.5505C81.9262 26.3745 81.884 26.1545 81.884 25.8905V24.246H82.6485V25.852C82.6485 25.9656 82.6669 26.0665 82.7035 26.1545C82.7402 26.2425 82.797 26.3103 82.874 26.358C82.9547 26.4056 83.0574 26.4295 83.182 26.4295C83.3104 26.4295 83.4259 26.3983 83.5285 26.336C83.6349 26.2736 83.7174 26.1911 83.776 26.0885C83.8384 25.9821 83.8695 25.8703 83.8695 25.753V24.246H84.634V27.0125H83.952V26.4405H83.919C83.82 26.6385 83.6917 26.7925 83.534 26.9025C83.3764 27.0125 83.1857 27.0675 82.962 27.0675ZM85.8398 27.0125V24.246H86.5273V24.807H86.5603C86.6556 24.6126 86.7913 24.4623 86.9673 24.356C87.1433 24.246 87.3394 24.191 87.5558 24.191C87.7831 24.191 87.9756 24.235 88.1333 24.323C88.2909 24.4073 88.4101 24.5393 88.4908 24.719C88.5714 24.895 88.6118 25.1205 88.6118 25.3955V27.0125H87.8473V25.423C87.8473 25.2983 87.8289 25.192 87.7923 25.104C87.7593 25.016 87.7043 24.9481 87.6273 24.9005C87.5503 24.8528 87.4476 24.829 87.3193 24.829C87.1836 24.829 87.0608 24.8601 86.9508 24.9225C86.8444 24.9848 86.7601 25.0691 86.6978 25.1755C86.6354 25.2818 86.6043 25.3991 86.6043 25.5275V27.0125H85.8398ZM91.1535 27.0675C90.7612 27.0675 90.4697 26.9703 90.279 26.776C90.0883 26.578 89.993 26.2975 89.993 25.9345V24.873H89.4485V24.246H90.048V23.4815H90.7575V24.246H91.7585V24.873H90.7575V25.907C90.7575 26.0793 90.8015 26.2095 90.8895 26.2975C90.9775 26.3818 91.1095 26.424 91.2855 26.424C91.3625 26.424 91.4377 26.4166 91.511 26.402C91.588 26.3873 91.6613 26.3671 91.731 26.3415L91.8355 26.93C91.7365 26.9776 91.6283 27.0125 91.511 27.0345C91.3973 27.0565 91.2782 27.0675 91.1535 27.0675Z" fill="#202224"/>
<mask id="mask0_120_3081" style="mask-type:alpha" maskUnits="userSpaceOnUse" x="14" y="13" width="16" height="24">
<path d="M14.6973 17.4991C14.6973 15.707 16.1501 14.2542 17.9423 14.2542H22.4517C25.901 14.2542 28.6973 17.0504 28.6973 20.4998V29.5249C28.6973 32.9743 25.901 35.7705 22.4517 35.7705H17.9423C16.1501 35.7705 14.6973 34.3177 14.6973 32.5255V17.4991Z" fill="white" stroke="url(#paint9_linear_120_3081)" stroke-opacity="0.3" stroke-width="0.650789"/>
</mask>
<g mask="url(#mask0_120_3081)">
<rect x="14.1973" y="13.8403" width="7" height="22.3439" fill="#587ED7"/>
</g>
<defs>
<filter id="filter0_d_120_3081" x="0.845876" y="0.402761" width="107.584" height="52.6006" filterUnits="userSpaceOnUse" color-interpolation-filters="sRGB">
<feFlood flood-opacity="0" result="BackgroundImageFix"/>
<feColorMatrix in="SourceAlpha" type="matrix" values="0 0 0 0 0 0 0 0 0 0 0 0 0 0 0 0 0 0 127 0" result="hardAlpha"/>
<feOffset dx="1.69074" dy="1.69074"/>
<feGaussianBlur stdDeviation="7.60835"/>
<feColorMatrix type="matrix" values="0 0 0 0 0 0 0 0 0 0 0 0 0 0 0 0 0 0 0.05 0"/>
<feBlend mode="normal" in2="BackgroundImageFix" result="effect1_dropShadow_120_3081"/>
<feBlend mode="normal" in="SourceGraphic" in2="effect1_dropShadow_120_3081" result="shape"/>
</filter>
<filter id="filter1_d_120_3081" x="26.8865" y="18.6833" width="14.6729" height="13.4832" filterUnits="userSpaceOnUse" color-interpolation-filters="sRGB">
<feFlood flood-opacity="0" result="BackgroundImageFix"/>
<feColorMatrix in="SourceAlpha" type="matrix" values="0 0 0 0 0 0 0 0 0 0 0 0 0 0 0 0 0 0 127 0" result="hardAlpha"/>
<feOffset dy="0.792571"/>
<feComposite in2="hardAlpha" operator="out"/>
<feColorMatrix type="matrix" values="0 0 0 0 0.233333 0 0 0 0 0.0835391 0 0 0 0 0 0 0 0 1 0"/>
<feBlend mode="normal" in2="BackgroundImageFix" result="effect1_dropShadow_120_3081"/>
<feBlend mode="normal" in="SourceGraphic" in2="effect1_dropShadow_120_3081" result="shape"/>
</filter>
<filter id="filter2_ii_120_3081" x="27.6184" y="19.4385" width="13.2061" height="11.2036" filterUnits="userSpaceOnUse" color-interpolation-filters="sRGB">
<feFlood flood-opacity="0" result="BackgroundImageFix"/>
<feBlend mode="normal" in="SourceGraphic" in2="BackgroundImageFix" result="shape"/>
<feColorMatrix in="SourceAlpha" type="matrix" values="0 0 0 0 0 0 0 0 0 0 0 0 0 0 0 0 0 0 127 0" result="hardAlpha"/>
<feOffset dy="0.309985"/>
<feComposite in2="hardAlpha" operator="arithmetic" k2="-1" k3="1"/>
<feColorMatrix type="matrix" values="0 0 0 0 0.952941 0 0 0 0 0.933333 0 0 0 0 0.85098 0 0 0 1 0"/>
<feBlend mode="normal" in2="shape" result="effect1_innerShadow_120_3081"/>
<feColorMatrix in="SourceAlpha" type="matrix" values="0 0 0 0 0 0 0 0 0 0 0 0 0 0 0 0 0 0 127 0" result="hardAlpha"/>
<feOffset dx="0.0516642" dy="-0.258321"/>
<feComposite in2="hardAlpha" operator="arithmetic" k2="-1" k3="1"/>
<feColorMatrix type="matrix" values="0 0 0 0 0.780392 0 0 0 0 0.587059 0 0 0 0 0.447059 0 0 0 1 0"/>
<feBlend mode="normal" in2="effect1_innerShadow_120_3081" result="effect2_innerShadow_120_3081"/>
</filter>
<filter id="filter3_i_120_3081" x="27.2858" y="20.5952" width="3.15021" height="10.2923" filterUnits="userSpaceOnUse" color-interpolation-filters="sRGB">
<feFlood flood-opacity="0" result="BackgroundImageFix"/>
<feBlend mode="normal" in="SourceGraphic" in2="BackgroundImageFix" result="shape"/>
<feColorMatrix in="SourceAlpha" type="matrix" values="0 0 0 0 0 0 0 0 0 0 0 0 0 0 0 0 0 0 127 0" result="hardAlpha"/>
<feOffset dx="-0.342351" dy="0.280105"/>
<feGaussianBlur stdDeviation="0.575772"/>
<feComposite in2="hardAlpha" operator="arithmetic" k2="-1" k3="1"/>
<feColorMatrix type="matrix" values="0 0 0 0 0 0 0 0 0 0 0 0 0 0 0 0 0 0 0.25 0"/>
<feBlend mode="normal" in2="shape" result="effect1_innerShadow_120_3081"/>
</filter>
<linearGradient id="paint0_linear_120_3081" x1="32.1409" y1="6.48256" x2="70.1737" y2="49.5294" gradientUnits="userSpaceOnUse">
<stop stop-color="#F1F1F1"/>
<stop offset="1" stop-color="#E1E1E1"/>
</linearGradient>
<linearGradient id="paint1_linear_120_3081" x1="29.0348" y1="21.2387" x2="29.0348" y2="30.6423" gradientUnits="userSpaceOnUse">
<stop stop-color="#B07B5D"/>
<stop offset="1" stop-color="#C79672"/>
</linearGradient>
<linearGradient id="paint2_linear_120_3081" x1="36.0909" y1="21.1353" x2="33.1282" y2="29.6429" gradientUnits="userSpaceOnUse">
<stop offset="0.000323348" stop-color="#AB633B"/>
<stop offset="0.116401" stop-color="#9F582F"/>
<stop offset="0.784832" stop-color="#692905"/>
<stop offset="0.953012" stop-color="#632503"/>
</linearGradient>
<linearGradient id="paint3_linear_120_3081" x1="34.2854" y1="18.6321" x2="34.2854" y2="31.2011" gradientUnits="userSpaceOnUse">
<stop stop-color="#F0DCA1"/>
<stop offset="1" stop-color="#D9AF64"/>
</linearGradient>
<linearGradient id="paint4_linear_120_3081" x1="34.2854" y1="18.6321" x2="34.2854" y2="31.2011" gradientUnits="userSpaceOnUse">
<stop stop-color="#F0DCA1"/>
<stop offset="1" stop-color="#D9AF64"/>
</linearGradient>
<linearGradient id="paint5_linear_120_3081" x1="34.439" y1="27.2989" x2="30.7002" y2="26.8521" gradientUnits="userSpaceOnUse">
<stop stop-color="#AD6981"/>
<stop offset="0.484375" stop-color="#D92F58"/>
<stop offset="1" stop-color="#C93939"/>
</linearGradient>
<linearGradient id="paint6_linear_120_3081" x1="29.0489" y1="20.5952" x2="29.0489" y2="30.7214" gradientUnits="userSpaceOnUse">
<stop stop-color="#B07B5D"/>
<stop offset="1" stop-color="#C79672"/>
</linearGradient>
<linearGradient id="paint7_linear_120_3081" x1="27.3489" y1="18.6859" x2="38.2519" y2="25.6691" gradientUnits="userSpaceOnUse">
<stop stop-color="white"/>
<stop offset="1" stop-color="white" stop-opacity="0"/>
</linearGradient>
<linearGradient id="paint8_linear_120_3081" x1="19.1023" y1="19.5269" x2="30.5851" y2="27.1699" gradientUnits="userSpaceOnUse">
<stop stop-color="#5F3E21"/>
<stop offset="1" stop-color="#5F3E21" stop-opacity="0"/>
</linearGradient>
<linearGradient id="paint9_linear_120_3081" x1="17.8896" y1="6.48256" x2="33.1131" y2="9.63585" gradientUnits="userSpaceOnUse">
<stop stop-color="#F1F1F1"/>
<stop offset="1" stop-color="#E1E1E1"/>
</linearGradient>
</defs>
</svg>
