<svg width="109" height="53" viewBox="0 0 109 53" fill="none" xmlns="http://www.w3.org/2000/svg">
<g filter="url(#filter0_d_120_3063)">
<rect x="14.6973" y="14.0984" width="76.5" height="21.5164" rx="3.245" fill="white"/>
<rect x="14.6973" y="14.0984" width="76.5" height="21.5164" rx="3.245" stroke="url(#paint0_linear_120_3063)" stroke-opacity="0.3" stroke-width="0.650789"/>
</g>
<g filter="url(#filter1_d_120_3063)">
<path d="M30.8833 26.9334L30.1589 26.5442C29.8431 26.3736 29.5776 26.1237 29.3887 25.8189L29.3532 25.7594L29.3189 25.6964C29.2983 25.6577 29.2791 25.6185 29.2612 25.5789C29.1523 25.3361 29.0915 25.0737 29.0828 24.8057L28.9868 21.6844C28.9763 21.3259 29.0023 20.9675 29.1719 20.6512C29.1858 20.6251 29.2095 20.5651 29.2244 20.5403L29.2895 20.4554V20.4554C29.4209 20.2507 29.5711 20.0651 29.5853 19.8223L29.6055 19.4785C29.6111 19.3825 29.6251 19.2871 29.6472 19.1936L29.6531 19.1687L29.6705 19.1175V19.1175C29.687 19.0321 29.7477 18.9596 29.807 18.8959C29.8462 18.8538 29.896 18.8105 29.9508 18.7699C29.9787 18.7541 30.0067 18.7413 30.0347 18.7309C30.3029 18.6311 30.5974 18.7674 30.8465 18.9085L31.1982 19.1078C31.2675 19.1471 31.3487 19.1607 31.4258 19.1406C32.139 18.9549 33.0149 18.4159 33.7114 18.3944C33.9182 18.3881 34.1239 18.4131 34.3217 18.468C35.3672 18.7572 36.3311 19.2622 37.3452 19.6499C37.6609 19.82 37.9558 20.1653 38.1447 20.4702C38.3335 20.7755 38.3733 21.1418 38.3848 21.5003L38.3848 23.0054C38.3848 23.2979 38.4306 23.4805 38.636 23.6887V23.6887C38.7564 23.8108 38.8904 24.091 38.8904 24.2626L38.8904 26.3649C38.8957 26.5363 38.345 26.8899 38.1685 26.9541C38.152 26.9601 38.1371 26.9616 38.1199 26.9581V26.9581C38.0744 26.9489 38.0227 26.9483 37.9828 26.9245L37.3968 26.5751C37.3316 26.5362 37.2501 26.5369 37.1856 26.5769V26.5769C37.058 26.6558 37.057 26.841 37.1836 26.9214L37.5366 27.1458C37.6227 27.1913 37.695 27.2589 37.7462 27.3417C37.7973 27.4246 37.8253 27.5196 37.8273 27.6172L37.8275 27.6221C37.8289 27.6653 37.829 27.7868 37.826 27.9244C37.8235 28.0411 37.8188 28.1694 37.8108 28.2726C37.8073 28.3174 37.8025 28.3365 37.7978 28.3689C37.796 28.4035 37.7851 28.4252 37.7798 28.4372C37.7775 28.4452 37.769 28.4543 37.7665 28.4592C37.7176 28.538 37.729 28.5096 37.646 28.5603L35.0775 30.2071C35.0357 30.2331 34.993 30.2574 34.9497 30.2808C34.9007 30.3071 34.8508 30.3316 34.8 30.3539C34.6622 30.4152 34.5189 30.4624 34.372 30.4957L34.2951 30.5117L34.2374 30.5219C34.1397 30.5377 34.0408 30.5474 33.9412 30.5505C33.5389 30.5628 33.2115 30.511 32.8569 30.32L30.2202 28.899C30.1348 28.853 30.063 28.785 30.012 28.7026C29.9884 28.6644 29.9658 28.5021 29.9481 28.3294C29.9277 28.1289 29.9137 27.9146 29.9121 27.8625C29.9091 27.7654 29.9317 27.6692 29.9776 27.5834C30.0234 27.4976 30.0909 27.4257 30.1733 27.3741L30.8833 26.9334Z" fill="url(#paint1_linear_120_3063)"/>
<path d="M30.8833 26.9334L30.1589 26.5442C29.8431 26.3736 29.5776 26.1237 29.3887 25.8189L29.3532 25.7594L29.3189 25.6964C29.2983 25.6577 29.2791 25.6185 29.2612 25.5789C29.1523 25.3361 29.0915 25.0737 29.0828 24.8057L28.9868 21.6844C28.9763 21.3259 29.0023 20.9675 29.1719 20.6512C29.1858 20.6251 29.2095 20.5651 29.2244 20.5403L29.2895 20.4554V20.4554C29.4209 20.2507 29.5711 20.0651 29.5853 19.8223L29.6055 19.4785C29.6111 19.3825 29.6251 19.2871 29.6472 19.1936L29.6531 19.1687L29.6705 19.1175V19.1175C29.687 19.0321 29.7477 18.9596 29.807 18.8959C29.8462 18.8538 29.896 18.8105 29.9508 18.7699C29.9787 18.7541 30.0067 18.7413 30.0347 18.7309C30.3029 18.6311 30.5974 18.7674 30.8465 18.9085L31.1982 19.1078C31.2675 19.1471 31.3487 19.1607 31.4258 19.1406C32.139 18.9549 33.0149 18.4159 33.7114 18.3944C33.9182 18.3881 34.1239 18.4131 34.3217 18.468C35.3672 18.7572 36.3311 19.2622 37.3452 19.6499C37.6609 19.82 37.9558 20.1653 38.1447 20.4702C38.3335 20.7755 38.3733 21.1418 38.3848 21.5003L38.3848 23.0054C38.3848 23.2979 38.4306 23.4805 38.636 23.6887V23.6887C38.7564 23.8108 38.8904 24.091 38.8904 24.2626L38.8904 26.3649C38.8957 26.5363 38.345 26.8899 38.1685 26.9541C38.152 26.9601 38.1371 26.9616 38.1199 26.9581V26.9581C38.0744 26.9489 38.0227 26.9483 37.9828 26.9245L37.3968 26.5751C37.3316 26.5362 37.2501 26.5369 37.1856 26.5769V26.5769C37.058 26.6558 37.057 26.841 37.1836 26.9214L37.5366 27.1458C37.6227 27.1913 37.695 27.2589 37.7462 27.3417C37.7973 27.4246 37.8253 27.5196 37.8273 27.6172L37.8275 27.6221C37.8289 27.6653 37.829 27.7868 37.826 27.9244C37.8235 28.0411 37.8188 28.1694 37.8108 28.2726C37.8073 28.3174 37.8025 28.3365 37.7978 28.3689C37.796 28.4035 37.7851 28.4252 37.7798 28.4372C37.7775 28.4452 37.769 28.4543 37.7665 28.4592C37.7176 28.538 37.729 28.5096 37.646 28.5603L35.0775 30.2071C35.0357 30.2331 34.993 30.2574 34.9497 30.2808C34.9007 30.3071 34.8508 30.3316 34.8 30.3539C34.6622 30.4152 34.5189 30.4624 34.372 30.4957L34.2951 30.5117L34.2374 30.5219C34.1397 30.5377 34.0408 30.5474 33.9412 30.5505C33.5389 30.5628 33.2115 30.511 32.8569 30.32L30.2202 28.899C30.1348 28.853 30.063 28.785 30.012 28.7026C29.9884 28.6644 29.9658 28.5021 29.9481 28.3294C29.9277 28.1289 29.9137 27.9146 29.9121 27.8625C29.9091 27.7654 29.9317 27.6692 29.9776 27.5834C30.0234 27.4976 30.0909 27.4257 30.1733 27.3741L30.8833 26.9334Z" fill="#C42222" fill-opacity="0.43"/>
<path d="M38.0544 28.6378L38.0629 28.6258L38.0647 28.6209C38.0668 28.6174 38.0698 28.614 38.0721 28.6099C38.0768 28.6017 38.0811 28.5884 38.0876 28.5733L38.0896 28.5742C38.091 28.5713 38.1036 28.5449 38.1132 28.5149C38.1221 28.4869 38.1275 28.4542 38.1317 28.4176L38.1337 28.4185C38.1351 28.4089 38.1439 28.3584 38.1486 28.2988L38.1646 27.932L38.1665 27.6105L38.1663 27.6066C38.1637 27.4992 38.1393 27.3947 38.0991 27.296C38.1655 27.3021 38.2276 27.2932 38.2841 27.2727L38.3969 27.2233C38.5206 27.1614 38.6721 27.0669 38.7995 26.9725C38.8875 26.9074 38.9805 26.8301 39.0545 26.7497C39.0911 26.7099 39.1305 26.6608 39.1624 26.6048C39.1912 26.5541 39.229 26.4693 39.2283 26.3643L39.2293 26.3653L39.2291 24.2627L39.2196 24.1438C39.2011 24.0257 39.159 23.9098 39.1167 23.8168C39.0587 23.6893 38.9756 23.5502 38.8778 23.4509C38.8032 23.3753 38.7714 23.3197 38.754 23.2691C38.7347 23.2127 38.7244 23.1368 38.7244 23.0052L38.724 21.5006L38.7237 21.4898C38.7133 21.1702 38.6816 20.7886 38.5135 20.4392L38.4328 20.2922L38.4328 20.2912C38.2296 19.9634 37.8963 19.5618 37.506 19.3515L37.4871 19.3413L37.4663 19.3331L37.0944 19.1853C36.7246 19.0336 36.359 18.871 35.9777 18.7097C35.4757 18.4973 34.9562 18.293 34.4117 18.1423L34.4126 18.1413C34.1821 18.0773 33.9418 18.0483 33.7007 18.0557C33.2841 18.0686 32.8384 18.2331 32.4468 18.3923C32.0366 18.5591 31.6792 18.7204 31.3555 18.8069L31.0134 18.6132C30.8835 18.5396 30.7185 18.4537 30.5399 18.4031C30.3815 18.3582 30.1941 18.3357 30.0001 18.3865L29.9159 18.4135C29.8721 18.4298 29.828 18.4502 29.784 18.4752L29.7657 18.4855L29.7495 18.4977C29.6823 18.5475 29.6149 18.604 29.5583 18.6648C29.5068 18.7201 29.3955 18.8405 29.349 19.0083L29.332 19.0597L29.3266 19.0755L29.3232 19.0902L29.3171 19.1158C29.3038 19.172 29.2926 19.2287 29.2843 19.2858L29.2671 19.4583L29.2464 19.8029C29.2432 19.857 29.2256 19.9148 29.1838 19.9914C29.1374 20.0766 29.0877 20.1432 29.0133 20.2585L28.955 20.3336L28.9438 20.3495L28.9345 20.3655C28.9221 20.3861 28.9115 20.4061 28.9058 20.4181C28.8993 20.4318 28.8933 20.4468 28.8885 20.4577C28.8831 20.4698 28.8792 20.4777 28.8756 20.4855C28.8748 20.4874 28.8734 20.4893 28.8729 20.4905C28.7132 20.7881 28.6608 21.106 28.6489 21.404L28.648 21.6942L28.7441 24.8168L28.763 25.0497C28.7932 25.2805 28.8564 25.5059 28.9516 25.7181L28.9526 25.718C28.9734 25.7643 28.9954 25.8107 29.0193 25.8557L29.0214 25.8586L29.0618 25.9335L29.0978 25.993L29.1009 25.9978C29.321 26.3528 29.6299 26.6441 29.9974 26.8427L29.9984 26.8427L30.206 26.9535L29.9941 27.0861L29.9932 27.0871C29.8613 27.1697 29.7522 27.2856 29.6782 27.4241C29.6047 27.5619 29.568 27.7165 29.5728 27.8728C29.5747 27.9358 29.5895 28.1592 29.6104 28.3641L29.6427 28.6201C29.6488 28.6579 29.657 28.6979 29.6657 28.7337C29.6715 28.7572 29.6873 28.8221 29.724 28.8814L29.7914 28.976C29.8648 29.0659 29.9555 29.1415 30.0591 29.1974L32.6958 30.6189L32.8526 30.6962C33.2149 30.8588 33.5626 30.901 33.9518 30.889C34.0663 30.8855 34.18 30.8752 34.2918 30.8571L34.2966 30.856L34.354 30.8454L34.3647 30.8441L34.4414 30.8281L34.4472 30.8259C34.6146 30.788 34.7778 30.7334 34.9355 30.6634L34.9366 30.6643C34.996 30.6382 35.0538 30.6099 35.1098 30.5799L35.1108 30.5788C35.1581 30.5532 35.2075 30.5258 35.2567 30.4952L35.2605 30.4922L37.8226 28.8501C37.833 28.8438 37.8394 28.8404 37.8447 28.8377C37.8449 28.8376 37.8574 28.8317 37.8639 28.8283C37.8731 28.8236 37.889 28.8146 37.9071 28.8026C37.9509 28.7734 37.9825 28.7401 38.0068 28.7087C38.0258 28.684 38.0428 28.6565 38.0544 28.6378ZM38.0544 28.6378C38.0529 28.6401 38.0518 28.6423 38.0507 28.6438L38.046 28.6508C38.0467 28.6498 38.0493 28.6458 38.0526 28.6408L38.0544 28.6378Z" stroke="#820604" stroke-width="0.678137"/>
</g>
<path d="M37.8708 27.5494C37.8748 27.6468 37.87 28.3087 37.8241 28.3946C37.7782 28.4805 37.7101 28.5524 37.627 28.6028L35.0826 30.1834C34.7405 30.3959 34.3486 30.5143 33.9463 30.5267C33.5441 30.539 33.1456 30.4449 32.791 30.2539L30.1544 28.8327C30.069 28.7866 29.9971 28.7188 29.9461 28.6361C29.8951 28.5534 29.8493 27.8935 29.8463 27.7963C29.8433 27.6991 29.8659 27.6028 29.9117 27.5171C29.9575 27.4314 30.0251 27.3593 30.1075 27.3081L32.6518 25.7275C32.994 25.515 33.3859 25.3965 33.7881 25.3842C34.1904 25.3718 34.5888 25.4659 34.9434 25.6571L37.5801 27.0782C37.6661 27.1235 37.7385 27.1911 37.7896 27.274C37.8408 27.3568 37.8688 27.452 37.8708 27.5494Z" fill="#E57904"/>
<path d="M37.8708 27.5494C37.8748 27.6468 37.87 28.3087 37.8241 28.3946C37.7782 28.4805 37.7101 28.5524 37.627 28.6028L35.0826 30.1834C34.7405 30.3959 34.3486 30.5143 33.9463 30.5267C33.5441 30.539 33.1456 30.4449 32.791 30.2539L30.1544 28.8327C30.069 28.7866 29.9971 28.7188 29.9461 28.6361C29.8951 28.5534 29.8493 27.8935 29.8463 27.7963C29.8433 27.6991 29.8659 27.6028 29.9117 27.5171C29.9575 27.4314 30.0251 27.3593 30.1075 27.3081L32.6518 25.7275C32.994 25.515 33.3859 25.3965 33.7881 25.3842C34.1904 25.3718 34.5888 25.4659 34.9434 25.6571L37.5801 27.0782C37.6661 27.1235 37.7385 27.1911 37.7896 27.274C37.8408 27.3568 37.8688 27.452 37.8708 27.5494Z" fill="url(#paint2_linear_120_3063)"/>
<path fill-rule="evenodd" clip-rule="evenodd" d="M30.583 18.6505C29.8029 18.5349 29.6643 19.1343 29.6699 19.3154L29.9725 20.8698C29.9783 21.0583 30.078 21.232 30.2383 21.3318L38.3026 26.3654C38.3825 26.4151 38.4747 26.4083 38.5437 26.3647C38.607 26.3243 38.651 26.2531 38.6483 26.1666L38.5715 23.6704C38.5657 23.4818 38.4661 23.3082 38.3058 23.2083L30.583 18.6505ZM30.9669 19.6805C30.8136 19.5845 30.6152 19.6984 30.6208 19.879L30.6473 20.7421C30.6531 20.9306 30.7525 21.1034 30.9123 21.2037L37.2185 25.1535C37.3036 25.2066 37.4024 25.1956 37.4727 25.1443C37.5291 25.1028 37.5671 25.0354 37.5646 24.955L37.5381 24.0919C37.5323 23.9034 37.4329 23.7306 37.2731 23.6303L30.9669 19.6805Z" fill="#FFC40E"/>
<path d="M29.6268 19.4586C29.6372 19.2107 29.907 19.0614 30.1225 19.1844L37.8467 23.5946C38.0176 23.6921 38.1249 23.8718 38.131 24.0685L38.2073 26.5507C38.2125 26.7311 38.0148 26.8445 37.8617 26.7489L29.8198 21.7291C29.6476 21.6215 29.5459 21.4293 29.5542 21.2263L29.6268 19.4586ZM30.5798 19.9491C30.4266 19.8531 30.2277 19.9675 30.2333 20.1483L30.2598 21.0112C30.2657 21.1995 30.3654 21.3729 30.5251 21.473L36.8312 25.4226C36.9844 25.5183 37.1823 25.4041 37.1768 25.2234L37.1502 24.3605C37.1443 24.1722 37.0456 23.9987 36.8859 23.8987L30.5798 19.9491Z" fill="#FD9800"/>
<mask id="mask0_120_3063" style="mask-type:alpha" maskUnits="userSpaceOnUse" x="29" y="25" width="9" height="6">
<path d="M37.8708 27.5494C37.8748 27.6468 37.87 28.3087 37.8241 28.3946C37.7782 28.4805 37.7101 28.5524 37.627 28.6028L35.0826 30.1834C34.7405 30.3959 34.3486 30.5143 33.9463 30.5267C33.5441 30.539 33.1456 30.4449 32.791 30.2539L30.1544 28.8327C30.069 28.7866 29.9971 28.7188 29.9461 28.6361C29.8951 28.5534 29.8493 27.8935 29.8463 27.7963C29.8433 27.6991 29.8659 27.6028 29.9117 27.5171C29.9575 27.4314 30.0251 27.3593 30.1075 27.3081L32.6518 25.7275C32.994 25.515 33.3859 25.3965 33.7881 25.3842C34.1904 25.3718 34.5888 25.4659 34.9434 25.6571L37.5801 27.0782C37.6661 27.1235 37.7385 27.1911 37.7896 27.274C37.8408 27.3568 37.8688 27.452 37.8708 27.5494Z" fill="#E57904"/>
<path d="M37.8708 27.5494C37.8748 27.6468 37.87 28.3087 37.8241 28.3946C37.7782 28.4805 37.7101 28.5524 37.627 28.6028L35.0826 30.1834C34.7405 30.3959 34.3486 30.5143 33.9463 30.5267C33.5441 30.539 33.1456 30.4449 32.791 30.2539L30.1544 28.8327C30.069 28.7866 29.9971 28.7188 29.9461 28.6361C29.8951 28.5534 29.8493 27.8935 29.8463 27.7963C29.8433 27.6991 29.8659 27.6028 29.9117 27.5171C29.9575 27.4314 30.0251 27.3593 30.1075 27.3081L32.6518 25.7275C32.994 25.515 33.3859 25.3965 33.7881 25.3842C34.1904 25.3718 34.5888 25.4659 34.9434 25.6571L37.5801 27.0782C37.6661 27.1235 37.7385 27.1911 37.7896 27.274C37.8408 27.3568 37.8688 27.452 37.8708 27.5494Z" fill="url(#paint3_linear_120_3063)"/>
</mask>
<g mask="url(#mask0_120_3063)">
<path d="M33.7178 27.55L39.9399 26.071L39.9399 31.0403L34.1206 30.8563L34.1206 30.1011L33.7178 27.55Z" fill="url(#paint4_linear_120_3063)"/>
</g>
<g filter="url(#filter2_i_120_3063)">
<path d="M37.8708 27.5494C37.8748 27.6468 37.87 28.3087 37.8241 28.3946C37.7782 28.4805 37.7101 28.5524 37.627 28.6028L35.0826 30.1834C34.7405 30.3959 34.3486 30.5143 33.9463 30.5267C33.5441 30.539 33.1456 30.4449 32.791 30.2539L30.1544 28.8327C30.069 28.7866 29.9971 28.7188 29.9461 28.6361C29.8951 28.5534 29.8493 27.8935 29.8463 27.7963C29.8433 27.6991 29.8659 27.6028 29.9117 27.5171C29.9575 27.4314 30.0251 27.3593 30.1075 27.3081L32.6518 25.7275C32.994 25.515 33.3859 25.3965 33.7881 25.3842C34.1904 25.3718 34.5888 25.4659 34.9434 25.6571L37.5801 27.0782C37.6661 27.1235 37.7385 27.1911 37.7896 27.274C37.8408 27.3568 37.8688 27.452 37.8708 27.5494Z" fill="#D9D9D9" fill-opacity="0.01"/>
</g>
<g filter="url(#filter3_d_120_3063)">
<path d="M33.552 18.4071C34.7747 18.3695 36.2056 19.2025 37.3381 19.5882C37.6536 19.7583 37.9191 20.0082 38.1078 20.3129C38.2967 20.6179 38.4019 20.9679 38.4135 21.3264L38.5095 24.447C38.52 24.8056 38.4364 25.1614 38.2667 25.4775C38.097 25.7933 37.8474 26.0589 37.543 26.2481L34.8872 27.8921C34.5821 28.0808 34.2331 28.1866 33.8746 28.1978C33.5159 28.2087 33.1604 28.1246 32.8442 27.9549L30.0934 26.4773C29.7776 26.307 29.5115 26.0575 29.3227 25.7526C29.1338 25.4475 29.0286 25.0976 29.0169 24.739L28.921 21.6184C28.9105 21.2598 28.9941 20.9041 29.1638 20.588C29.186 20.5467 29.2095 20.5062 29.2343 20.4666C29.2467 20.426 29.2672 20.3866 29.2942 20.3495C29.3202 20.3139 29.3526 20.281 29.3899 20.2518C29.5307 20.0815 29.6993 19.9349 29.8885 19.8173C30.9816 19.3617 32.3406 18.4445 33.552 18.4071Z" fill="url(#paint5_linear_120_3063)"/>
</g>
<path d="M29.8874 22.0813C29.2942 21.7992 28.8533 21.1708 29.1641 20.5921V20.5921C29.3338 20.276 29.5835 20.0101 29.8882 19.8207C30.2042 19.689 30.5425 19.5188 30.8929 19.3423C31.7549 18.9085 32.6908 18.4373 33.5521 18.4108C34.4191 18.3841 35.3906 18.7951 36.2863 19.1739C36.6537 19.3294 37.0084 19.4794 37.3379 19.5916C37.6536 19.7618 37.9192 20.012 38.1081 20.317V20.317C38.4558 20.8786 38.0627 21.5403 37.4961 21.8799L35.5767 23.03C35.0566 23.2822 34.4621 23.4247 33.8532 23.4435C33.2442 23.4622 32.6421 23.3564 32.1074 23.1367L29.8874 22.0813Z" fill="url(#paint6_linear_120_3063)"/>
<path d="M38.4418 22.6085C38.4522 22.8992 38.3681 23.1875 38.1984 23.4437C38.0286 23.6998 37.7789 23.9158 37.4743 24.0693L34.8192 25.4017C34.514 25.5548 34.1643 25.6405 33.8057 25.6496C33.447 25.6585 33.0914 25.5907 32.7753 25.4532L30.883 24.657C30.5674 24.519 30.3017 24.3159 30.113 24.0688C30.0718 24.0149 30.0355 23.9588 30.0025 23.9019C30.01 23.9052 30.0173 23.9102 30.0249 23.9136L32.7759 25.1104C33.092 25.2478 33.4469 25.3157 33.8054 25.3068C34.1641 25.2977 34.5137 25.212 34.8189 25.0589L37.474 23.7265C37.7786 23.5731 38.0283 23.357 38.1981 23.1009C38.3331 22.8971 38.4127 22.6729 38.4348 22.4435L38.4418 22.6085Z" fill="#D35F00"/>
<path d="M33.0464 21.3225L34.493 21.278L34.6399 26.0537C34.6479 26.3136 34.4437 26.5308 34.1838 26.5388L33.6784 26.5544C33.4184 26.5623 33.2013 26.3581 33.1933 26.0982L33.0464 21.3225Z" fill="url(#paint7_linear_120_3063)"/>
<path opacity="0.4" d="M36.75 19.7867C36.7523 19.8346 36.7342 19.8823 36.6976 19.9249C36.6611 19.9675 36.6073 20.0035 36.5421 20.029L34.5448 20.8284C34.2762 20.9359 33.9697 20.9975 33.656 21.0072C33.3424 21.0168 33.0326 20.9741 32.7579 20.8833L30.7153 20.2083C30.6491 20.1864 30.5937 20.1537 30.5547 20.1135C30.5156 20.0733 30.4943 20.027 30.4928 19.9792C30.4914 19.9315 30.5098 19.8839 30.5463 19.8414C30.5828 19.7989 30.6361 19.7628 30.7008 19.7369L32.6981 18.9376C32.9666 18.8301 33.2732 18.7684 33.5869 18.7588C33.9005 18.7491 34.2103 18.7918 34.485 18.8826L36.5276 19.5577C36.5943 19.5792 36.6501 19.6118 36.6892 19.6521C36.7284 19.6923 36.7494 19.7389 36.75 19.7867Z" fill="url(#paint8_linear_120_3063)"/>
<path opacity="0.45" d="M33.6088 19.4733C33.9224 19.4637 34.2321 19.5063 34.5068 19.597L36.2121 20.1603L34.5449 20.8279C34.2763 20.9354 33.9693 20.9972 33.6556 21.0068C33.3421 21.0164 33.0322 20.9739 32.7576 20.8831L31.0523 20.3189L32.7205 19.6522C32.989 19.5448 33.2953 19.483 33.6088 19.4733Z" fill="#D00000"/>
<path d="M28.9716 23.327L29.6991 23.7002L29.5496 23.9856L28.9816 23.6708L28.9716 23.327Z" fill="#D35F00"/>
<g filter="url(#filter4_d_120_3063)">
<path d="M30.6155 22.6981C30.8684 22.4699 31.2663 22.5268 31.4453 22.8167L32.7665 24.9576C32.9188 25.2044 32.8515 25.5273 32.6131 25.6925L31.6658 26.3495C31.4132 26.5247 31.0657 26.4567 30.8978 26.1991L29.6107 24.225C29.464 24.0001 29.5029 23.7018 29.7023 23.5219L30.6155 22.6981Z" fill="#D35F00"/>
<path d="M31.4253 22.8288L32.7468 24.9699C32.8926 25.2061 32.8276 25.515 32.5995 25.6732L31.6526 26.3303C31.4107 26.498 31.0784 26.4325 30.9176 26.186L29.6304 24.2125C29.49 23.9972 29.5269 23.7115 29.7177 23.5393L30.6311 22.7152C30.8732 22.4969 31.254 22.5514 31.4253 22.8288Z" stroke="black" stroke-opacity="0.24" stroke-width="0.0465992"/>
</g>
<g filter="url(#filter5_d_120_3063)">
<ellipse cx="31.0476" cy="23.3507" rx="0.292544" ry="0.40921" transform="rotate(144.144 31.0476 23.3507)" fill="#FDB90E"/>
</g>
<g filter="url(#filter6_d_120_3063)">
<ellipse cx="31.1314" cy="24.5035" rx="0.292544" ry="0.40921" transform="rotate(144.144 31.1314 24.5035)" fill="#FDB90E"/>
</g>
<g filter="url(#filter7_d_120_3063)">
<ellipse cx="30.1472" cy="24.0516" rx="0.292544" ry="0.40921" transform="rotate(144.144 30.1472 24.0516)" fill="#FDB90E"/>
</g>
<g filter="url(#filter8_d_120_3063)">
<ellipse cx="31.1443" cy="25.6603" rx="0.292544" ry="0.40921" transform="rotate(144.144 31.1443 25.6603)" fill="#FDB90E"/>
</g>
<g filter="url(#filter9_d_120_3063)">
<ellipse cx="32.1521" cy="24.9537" rx="0.292544" ry="0.40921" transform="rotate(144.144 32.1521 24.9537)" fill="#FDB90E"/>
</g>
<rect x="36.2324" y="23.3013" width="0.76478" height="2.61538" fill="black" fill-opacity="0.22"/>
<path d="M36.3966 25.4111C36.1904 25.5442 36.197 25.848 36.4088 25.9721L38.0787 26.9506C38.232 27.0463 38.8973 26.5655 38.8917 26.3849L38.8917 24.1283C38.8859 23.9395 38.7669 23.4541 38.2779 23.2288L37.2793 22.7478C37.1165 22.6694 36.9285 22.662 36.76 22.7274L36.4936 22.8308C35.9572 23.0391 36.1182 23.8371 36.6934 23.8211L37.3916 23.8016C37.5515 23.9017 37.6508 24.0749 37.6566 24.2634L37.6832 25.1262C37.6887 25.307 37.2781 25.2705 37.1248 25.1745V25.1745C37.0057 25.1077 36.8593 25.1123 36.7446 25.1864L36.3966 25.4111Z" fill="url(#paint9_linear_120_3063)"/>
<g filter="url(#filter10_d_120_3063)">
<path d="M36.1997 25.719C36.203 25.826 36.2614 25.9236 36.354 25.9772L37.9801 26.9172C38.1334 27.0128 38.3314 26.8989 38.3259 26.7183L38.2491 24.2221C38.2433 24.0332 38.1436 23.8599 37.9833 23.7597L36.7174 23.0248C36.4509 22.8702 36.1182 23.0686 36.1277 23.3766V23.3766C36.132 23.5173 36.2114 23.6449 36.3356 23.7111L37.0037 24.0669C37.1635 24.1672 37.2629 24.3404 37.2687 24.5289L37.2952 25.3916C37.3007 25.5722 37.1024 25.6861 36.9491 25.5901L36.6513 25.4353C36.4418 25.3264 36.1925 25.4831 36.1997 25.719V25.719Z" fill="#E0660D"/>
<path d="M36.1997 25.719C36.203 25.826 36.2614 25.9236 36.354 25.9772L37.9801 26.9172C38.1334 27.0128 38.3314 26.8989 38.3259 26.7183L38.2491 24.2221C38.2433 24.0332 38.1436 23.8599 37.9833 23.7597L36.7174 23.0248C36.4509 22.8702 36.1182 23.0686 36.1277 23.3766V23.3766C36.132 23.5173 36.2114 23.6449 36.3356 23.7111L37.0037 24.0669C37.1635 24.1672 37.2629 24.3404 37.2687 24.5289L37.2952 25.3916C37.3007 25.5722 37.1024 25.6861 36.9491 25.5901L36.6513 25.4353C36.4418 25.3264 36.1925 25.4831 36.1997 25.719V25.719Z" fill="url(#paint10_linear_120_3063)"/>
</g>
<path d="M48.083 26.8567V23.6392H46.763V22.9792H50.1675V23.6392H48.8475V26.8567H48.083ZM51.9758 26.9117C51.6751 26.9117 51.413 26.8512 51.1893 26.7302C50.9693 26.6092 50.7988 26.4405 50.6778 26.2242C50.5605 26.0079 50.5018 25.7567 50.5018 25.4707C50.5018 25.181 50.5605 24.9299 50.6778 24.7172C50.7988 24.5009 50.9693 24.334 51.1893 24.2167C51.413 24.0957 51.6751 24.0352 51.9758 24.0352C52.2801 24.0352 52.5405 24.0957 52.7568 24.2167C52.9768 24.334 53.1455 24.5009 53.2628 24.7172C53.3838 24.9299 53.4443 25.181 53.4443 25.4707C53.4443 25.7567 53.3838 26.0079 53.2628 26.2242C53.1455 26.4405 52.9768 26.6092 52.7568 26.7302C52.5405 26.8512 52.2801 26.9117 51.9758 26.9117ZM51.9758 26.2737C52.2068 26.2737 52.3865 26.2004 52.5148 26.0537C52.6431 25.907 52.7073 25.7109 52.7073 25.4652C52.7073 25.2195 52.6431 25.027 52.5148 24.8877C52.3901 24.7447 52.2105 24.6732 51.9758 24.6732C51.7411 24.6732 51.5596 24.7447 51.4313 24.8877C51.303 25.027 51.2388 25.2195 51.2388 25.4652C51.2388 25.7109 51.303 25.907 51.4313 26.0537C51.5633 26.2004 51.7448 26.2737 51.9758 26.2737ZM55.5764 26.9117C55.349 26.9117 55.1547 26.8695 54.9934 26.7852C54.832 26.6972 54.7092 26.567 54.6249 26.3947C54.5405 26.2187 54.4984 25.9987 54.4984 25.7347V24.0902H55.2629V25.6962C55.2629 25.8099 55.2812 25.9107 55.3179 25.9987C55.3545 26.0867 55.4114 26.1545 55.4884 26.2022C55.569 26.2499 55.6717 26.2737 55.7964 26.2737C55.9247 26.2737 56.0402 26.2425 56.1429 26.1802C56.2492 26.1179 56.3317 26.0354 56.3904 25.9327C56.4527 25.8264 56.4839 25.7145 56.4839 25.5972V24.0902H57.2484V26.8567H56.5664V26.2847H56.5334C56.4344 26.4827 56.306 26.6367 56.1484 26.7467C55.9907 26.8567 55.8 26.9117 55.5764 26.9117ZM58.4541 26.8567V24.0902H59.1031V24.7722H59.1416C59.2076 24.5705 59.3176 24.4055 59.4716 24.2772C59.6293 24.1452 59.8218 24.0719 60.0491 24.0572L60.4011 24.0352L60.4726 24.7447L59.9281 24.7887C59.7008 24.807 59.5248 24.884 59.4001 25.0197C59.2791 25.1517 59.2186 25.3112 59.2186 25.4982V26.8567H58.4541ZM61.357 26.8567V24.0902H62.0445V24.6512H62.0775C62.1728 24.4569 62.3085 24.3065 62.4845 24.2002C62.6605 24.0902 62.8567 24.0352 63.073 24.0352C63.3003 24.0352 63.4928 24.0792 63.6505 24.1672C63.8082 24.2515 63.9273 24.3835 64.008 24.5632C64.0887 24.7392 64.129 24.9647 64.129 25.2397V26.8567H63.3645V25.2672C63.3645 25.1425 63.3462 25.0362 63.3095 24.9482C63.2765 24.8602 63.2215 24.7924 63.1445 24.7447C63.0675 24.697 62.9648 24.6732 62.8365 24.6732C62.7008 24.6732 62.578 24.7044 62.468 24.7667C62.3617 24.829 62.2773 24.9134 62.215 25.0197C62.1527 25.126 62.1215 25.2434 62.1215 25.3717V26.8567H61.357ZM66.3187 26.9117C66.1134 26.9117 65.9282 26.8732 65.7632 26.7962C65.6019 26.7192 65.4735 26.6147 65.3782 26.4827C65.2865 26.3507 65.2407 26.2022 65.2407 26.0372C65.2407 25.8355 65.3012 25.6705 65.4222 25.5422C65.5469 25.4102 65.7339 25.313 65.9832 25.2507C66.2362 25.1884 66.5552 25.1572 66.9402 25.1572H67.3637V25.6247H66.9897C66.821 25.6247 66.6744 25.6302 66.5497 25.6412C66.425 25.6522 66.3205 25.6724 66.2362 25.7017C66.1555 25.7274 66.0932 25.764 66.0492 25.8117C66.0089 25.8594 65.9887 25.9217 65.9887 25.9987C65.9887 26.1234 66.0364 26.2132 66.1317 26.2682C66.2307 26.3232 66.3572 26.3507 66.5112 26.3507C66.6432 26.3507 66.766 26.3195 66.8797 26.2572C66.9934 26.1949 67.085 26.1124 67.1547 26.0097C67.2244 25.907 67.2592 25.797 67.2592 25.6797V25.0967C67.2592 24.9134 67.1987 24.7887 67.0777 24.7227C66.9567 24.653 66.7807 24.6182 66.5497 24.6182C66.3994 24.6182 66.2435 24.6384 66.0822 24.6787C65.9209 24.719 65.7467 24.7887 65.5597 24.8877L65.3562 24.3542C65.4919 24.2809 65.6312 24.2222 65.7742 24.1782C65.9172 24.1305 66.0657 24.0957 66.2197 24.0737C66.3774 24.048 66.5369 24.0352 66.6982 24.0352C66.9585 24.0352 67.1859 24.0755 67.3802 24.1562C67.5782 24.2332 67.7304 24.356 67.8367 24.5247C67.9467 24.6934 68.0017 24.9152 68.0017 25.1902V26.8567H67.3857V26.2957H67.3472C67.2849 26.4094 67.206 26.5139 67.1107 26.6092C67.019 26.7009 66.9072 26.7742 66.7752 26.8292C66.6469 26.8842 66.4947 26.9117 66.3187 26.9117ZM69.2148 26.8567V24.0902H69.8803V24.6677H69.9133C69.9683 24.5467 70.0416 24.4385 70.1333 24.3432C70.2286 24.2479 70.3386 24.1727 70.4633 24.1177C70.5916 24.0627 70.7309 24.0352 70.8813 24.0352C71.1086 24.0352 71.2993 24.092 71.4533 24.2057C71.6109 24.3157 71.7136 24.4569 71.7613 24.6292H71.7943C71.8639 24.4715 71.9776 24.334 72.1353 24.2167C72.2966 24.0957 72.5001 24.0352 72.7458 24.0352C72.9584 24.0352 73.1399 24.0792 73.2903 24.1672C73.4406 24.2515 73.5543 24.3835 73.6313 24.5632C73.7119 24.7392 73.7523 24.9647 73.7523 25.2397V26.8567H72.9988V25.2617C72.9988 25.0674 72.9639 24.9207 72.8943 24.8217C72.8283 24.7227 72.7036 24.6732 72.5203 24.6732C72.3809 24.6732 72.2599 24.7044 72.1573 24.7667C72.0583 24.8254 71.9813 24.906 71.9263 25.0087C71.8749 25.1114 71.8493 25.2269 71.8493 25.3552V26.8567H71.1123V25.2617C71.1123 25.071 71.0719 24.9262 70.9913 24.8272C70.9106 24.7245 70.7896 24.6732 70.6283 24.6732C70.4926 24.6732 70.3753 24.708 70.2763 24.7777C70.1773 24.8437 70.1003 24.928 70.0453 25.0307C69.9903 25.1334 69.9628 25.2379 69.9628 25.3442V26.8567H69.2148ZM76.4601 26.9117C76.1044 26.9117 75.8037 26.8549 75.5581 26.7412C75.3124 26.6239 75.1272 26.457 75.0026 26.2407C74.8779 26.0244 74.8156 25.7677 74.8156 25.4707C74.8156 25.1994 74.8724 24.9555 74.9861 24.7392C75.1034 24.5229 75.2721 24.3524 75.4921 24.2277C75.7121 24.0994 75.9761 24.0352 76.2841 24.0352C76.5591 24.0352 76.7992 24.0939 77.0046 24.2112C77.2099 24.3249 77.3676 24.4899 77.4776 24.7062C77.5912 24.9189 77.6481 25.1774 77.6481 25.4817V25.7127H75.4096V25.2342H77.0926L77.0101 25.3387C77.0101 25.0784 76.9459 24.8877 76.8176 24.7667C76.6929 24.6457 76.5169 24.5852 76.2896 24.5852C76.1429 24.5852 76.0127 24.6145 75.8991 24.6732C75.7854 24.7319 75.6956 24.8199 75.6296 24.9372C75.5636 25.0509 75.5306 25.1957 75.5306 25.3717V25.4597C75.5306 25.6614 75.5672 25.8245 75.6406 25.9492C75.7139 26.0739 75.8221 26.1655 75.9651 26.2242C76.1081 26.2829 76.2841 26.3122 76.4931 26.3122C76.6361 26.3122 76.7827 26.2957 76.9331 26.2627C77.0871 26.2297 77.2264 26.1692 77.3511 26.0812L77.5656 26.6092C77.4116 26.7192 77.2356 26.798 77.0376 26.8457C76.8396 26.8897 76.6471 26.9117 76.4601 26.9117ZM78.6995 26.8567V24.0902H79.387V24.6512H79.42C79.5153 24.4569 79.651 24.3065 79.827 24.2002C80.003 24.0902 80.1991 24.0352 80.4155 24.0352C80.6428 24.0352 80.8353 24.0792 80.993 24.1672C81.1506 24.2515 81.2698 24.3835 81.3505 24.5632C81.4311 24.7392 81.4715 24.9647 81.4715 25.2397V26.8567H80.707V25.2672C80.707 25.1425 80.6886 25.0362 80.652 24.9482C80.619 24.8602 80.564 24.7924 80.487 24.7447C80.41 24.697 80.3073 24.6732 80.179 24.6732C80.0433 24.6732 79.9205 24.7044 79.8105 24.7667C79.7041 24.829 79.6198 24.9134 79.5575 25.0197C79.4951 25.126 79.464 25.2434 79.464 25.3717V26.8567H78.6995ZM84.0132 26.9117C83.6209 26.9117 83.3294 26.8145 83.1387 26.6202C82.948 26.4222 82.8527 26.1417 82.8527 25.7787V24.7172H82.3082V24.0902H82.9077V23.3257H83.6172V24.0902H84.6182V24.7172H83.6172V25.7512C83.6172 25.9235 83.6612 26.0537 83.7492 26.1417C83.8372 26.226 83.9692 26.2682 84.1452 26.2682C84.2222 26.2682 84.2974 26.2609 84.3707 26.2462C84.4477 26.2315 84.521 26.2114 84.5907 26.1857L84.6952 26.7742C84.5962 26.8219 84.488 26.8567 84.3707 26.8787C84.257 26.9007 84.1379 26.9117 84.0132 26.9117ZM86.6907 26.9117C86.5221 26.9117 86.3571 26.8989 86.1957 26.8732C86.0381 26.8512 85.8932 26.8182 85.7612 26.7742C85.6292 26.7302 85.5156 26.6734 85.4202 26.6037L85.6182 26.0702C85.7172 26.1325 85.8254 26.1839 85.9427 26.2242C86.0601 26.2609 86.1792 26.2884 86.3002 26.3067C86.4249 26.3214 86.5422 26.3287 86.6522 26.3287C86.8686 26.3287 87.0317 26.3085 87.1417 26.2682C87.2517 26.2279 87.3067 26.1582 87.3067 26.0592C87.3067 25.9749 87.2774 25.9144 87.2187 25.8777C87.1601 25.841 87.0611 25.8135 86.9217 25.7952L86.2892 25.7127C86.0106 25.676 85.8034 25.5844 85.6677 25.4377C85.5357 25.2874 85.4697 25.1114 85.4697 24.9097C85.4697 24.741 85.5156 24.5925 85.6072 24.4642C85.7026 24.3322 85.8456 24.2277 86.0362 24.1507C86.2306 24.0737 86.4726 24.0352 86.7622 24.0352C86.9052 24.0352 87.0482 24.0462 87.1912 24.0682C87.3379 24.0902 87.4717 24.125 87.5927 24.1727C87.7174 24.2167 87.8182 24.2717 87.8952 24.3377L87.6807 24.8602C87.6037 24.8015 87.5139 24.7557 87.4112 24.7227C87.3086 24.686 87.2004 24.6604 87.0867 24.6457C86.9767 24.6274 86.8686 24.6182 86.7622 24.6182C86.5569 24.6182 86.4011 24.6402 86.2947 24.6842C86.1921 24.7282 86.1407 24.7979 86.1407 24.8932C86.1407 24.9739 86.1682 25.0325 86.2232 25.0692C86.2819 25.1022 86.3754 25.1279 86.5037 25.1462L87.1032 25.2397C87.4076 25.2874 87.6294 25.379 87.7687 25.5147C87.9081 25.6467 87.9777 25.8264 87.9777 26.0537C87.9777 26.2297 87.9246 26.3819 87.8182 26.5102C87.7156 26.6385 87.5671 26.7375 87.3727 26.8072C87.1821 26.8769 86.9547 26.9117 86.6907 26.9117Z" fill="#202224"/>
<mask id="mask1_120_3063" style="mask-type:alpha" maskUnits="userSpaceOnUse" x="14" y="13" width="16" height="23">
<path d="M14.6973 17.3434C14.6973 15.5512 16.1501 14.0984 17.9423 14.0984H22.4517C25.901 14.0984 28.6973 16.8946 28.6973 20.344V29.3692C28.6973 32.8185 25.901 35.6148 22.4517 35.6148H17.9423C16.1501 35.6148 14.6973 34.1619 14.6973 32.3698V17.3434Z" fill="white" stroke="url(#paint11_linear_120_3063)" stroke-opacity="0.3" stroke-width="0.650789"/>
</mask>
<g mask="url(#mask1_120_3063)">
<rect x="14.1973" y="13.6846" width="7" height="22.3439" fill="#587ED7"/>
</g>
<defs>
<filter id="filter0_d_120_3063" x="0.845876" y="0.246999" width="107.584" height="52.6006" filterUnits="userSpaceOnUse" color-interpolation-filters="sRGB">
<feFlood flood-opacity="0" result="BackgroundImageFix"/>
<feColorMatrix in="SourceAlpha" type="matrix" values="0 0 0 0 0 0 0 0 0 0 0 0 0 0 0 0 0 0 127 0" result="hardAlpha"/>
<feOffset dx="1.69074" dy="1.69074"/>
<feGaussianBlur stdDeviation="7.60835"/>
<feColorMatrix type="matrix" values="0 0 0 0 0 0 0 0 0 0 0 0 0 0 0 0 0 0 0.05 0"/>
<feBlend mode="normal" in2="BackgroundImageFix" result="effect1_dropShadow_120_3063"/>
<feBlend mode="normal" in="SourceGraphic" in2="effect1_dropShadow_120_3063" result="shape"/>
</filter>
<filter id="filter1_d_120_3063" x="28.3066" y="17.7153" width="11.262" height="14.1698" filterUnits="userSpaceOnUse" color-interpolation-filters="sRGB">
<feFlood flood-opacity="0" result="BackgroundImageFix"/>
<feColorMatrix in="SourceAlpha" type="matrix" values="0 0 0 0 0 0 0 0 0 0 0 0 0 0 0 0 0 0 127 0" result="hardAlpha"/>
<feOffset dy="0.654938"/>
<feComposite in2="hardAlpha" operator="out"/>
<feColorMatrix type="matrix" values="0 0 0 0 0.263166 0 0 0 0 0.00521065 0 0 0 0 0.00105008 0 0 0 1 0"/>
<feBlend mode="normal" in2="BackgroundImageFix" result="effect1_dropShadow_120_3063"/>
<feBlend mode="normal" in="SourceGraphic" in2="effect1_dropShadow_120_3063" result="shape"/>
</filter>
<filter id="filter2_i_120_3063" x="29.8459" y="25.3831" width="8.02588" height="5.14478" filterUnits="userSpaceOnUse" color-interpolation-filters="sRGB">
<feFlood flood-opacity="0" result="BackgroundImageFix"/>
<feBlend mode="normal" in="SourceGraphic" in2="BackgroundImageFix" result="shape"/>
<feColorMatrix in="SourceAlpha" type="matrix" values="0 0 0 0 0 0 0 0 0 0 0 0 0 0 0 0 0 0 127 0" result="hardAlpha"/>
<feOffset dy="-0.419393"/>
<feComposite in2="hardAlpha" operator="arithmetic" k2="-1" k3="1"/>
<feColorMatrix type="matrix" values="0 0 0 0 1 0 0 0 0 0.849187 0 0 0 0 0.0574204 0 0 0 0.33 0"/>
<feBlend mode="normal" in2="shape" result="effect1_innerShadow_120_3063"/>
</filter>
<filter id="filter3_d_120_3063" x="28.9202" y="18.406" width="9.59033" height="10.5426" filterUnits="userSpaceOnUse" color-interpolation-filters="sRGB">
<feFlood flood-opacity="0" result="BackgroundImageFix"/>
<feColorMatrix in="SourceAlpha" type="matrix" values="0 0 0 0 0 0 0 0 0 0 0 0 0 0 0 0 0 0 127 0" result="hardAlpha"/>
<feOffset dy="0.749828"/>
<feComposite in2="hardAlpha" operator="out"/>
<feColorMatrix type="matrix" values="0 0 0 0 0.244828 0 0 0 0 0.127311 0 0 0 0 0 0 0 0 0.51 0"/>
<feBlend mode="normal" in2="BackgroundImageFix" result="effect1_dropShadow_120_3063"/>
<feBlend mode="normal" in="SourceGraphic" in2="effect1_dropShadow_120_3063" result="shape"/>
</filter>
<filter id="filter4_d_120_3063" x="29.5222" y="22.5576" width="3.32568" height="3.93576" filterUnits="userSpaceOnUse" color-interpolation-filters="sRGB">
<feFlood flood-opacity="0" result="BackgroundImageFix"/>
<feColorMatrix in="SourceAlpha" type="matrix" values="0 0 0 0 0 0 0 0 0 0 0 0 0 0 0 0 0 0 127 0" result="hardAlpha"/>
<feOffset dy="0.0465992"/>
<feComposite in2="hardAlpha" operator="out"/>
<feColorMatrix type="matrix" values="0 0 0 0 1 0 0 0 0 1 0 0 0 0 1 0 0 0 0.25 0"/>
<feBlend mode="normal" in2="BackgroundImageFix" result="effect1_dropShadow_120_3063"/>
<feBlend mode="normal" in="SourceGraphic" in2="effect1_dropShadow_120_3063" result="shape"/>
</filter>
<filter id="filter5_d_120_3063" x="30.7104" y="22.9773" width="0.674316" height="0.793425" filterUnits="userSpaceOnUse" color-interpolation-filters="sRGB">
<feFlood flood-opacity="0" result="BackgroundImageFix"/>
<feColorMatrix in="SourceAlpha" type="matrix" values="0 0 0 0 0 0 0 0 0 0 0 0 0 0 0 0 0 0 127 0" result="hardAlpha"/>
<feOffset dy="0.0465992"/>
<feComposite in2="hardAlpha" operator="out"/>
<feColorMatrix type="matrix" values="0 0 0 0 0 0 0 0 0 0 0 0 0 0 0 0 0 0 0.25 0"/>
<feBlend mode="normal" in2="BackgroundImageFix" result="effect1_dropShadow_120_3063"/>
<feBlend mode="normal" in="SourceGraphic" in2="effect1_dropShadow_120_3063" result="shape"/>
</filter>
<filter id="filter6_d_120_3063" x="30.7942" y="24.1301" width="0.674316" height="0.793425" filterUnits="userSpaceOnUse" color-interpolation-filters="sRGB">
<feFlood flood-opacity="0" result="BackgroundImageFix"/>
<feColorMatrix in="SourceAlpha" type="matrix" values="0 0 0 0 0 0 0 0 0 0 0 0 0 0 0 0 0 0 127 0" result="hardAlpha"/>
<feOffset dy="0.0465992"/>
<feComposite in2="hardAlpha" operator="out"/>
<feColorMatrix type="matrix" values="0 0 0 0 0 0 0 0 0 0 0 0 0 0 0 0 0 0 0.25 0"/>
<feBlend mode="normal" in2="BackgroundImageFix" result="effect1_dropShadow_120_3063"/>
<feBlend mode="normal" in="SourceGraphic" in2="effect1_dropShadow_120_3063" result="shape"/>
</filter>
<filter id="filter7_d_120_3063" x="29.8101" y="23.6782" width="0.674316" height="0.793425" filterUnits="userSpaceOnUse" color-interpolation-filters="sRGB">
<feFlood flood-opacity="0" result="BackgroundImageFix"/>
<feColorMatrix in="SourceAlpha" type="matrix" values="0 0 0 0 0 0 0 0 0 0 0 0 0 0 0 0 0 0 127 0" result="hardAlpha"/>
<feOffset dy="0.0465992"/>
<feComposite in2="hardAlpha" operator="out"/>
<feColorMatrix type="matrix" values="0 0 0 0 0 0 0 0 0 0 0 0 0 0 0 0 0 0 0.25 0"/>
<feBlend mode="normal" in2="BackgroundImageFix" result="effect1_dropShadow_120_3063"/>
<feBlend mode="normal" in="SourceGraphic" in2="effect1_dropShadow_120_3063" result="shape"/>
</filter>
<filter id="filter8_d_120_3063" x="30.8071" y="25.2869" width="0.674316" height="0.793425" filterUnits="userSpaceOnUse" color-interpolation-filters="sRGB">
<feFlood flood-opacity="0" result="BackgroundImageFix"/>
<feColorMatrix in="SourceAlpha" type="matrix" values="0 0 0 0 0 0 0 0 0 0 0 0 0 0 0 0 0 0 127 0" result="hardAlpha"/>
<feOffset dy="0.0465992"/>
<feComposite in2="hardAlpha" operator="out"/>
<feColorMatrix type="matrix" values="0 0 0 0 0 0 0 0 0 0 0 0 0 0 0 0 0 0 0.25 0"/>
<feBlend mode="normal" in2="BackgroundImageFix" result="effect1_dropShadow_120_3063"/>
<feBlend mode="normal" in="SourceGraphic" in2="effect1_dropShadow_120_3063" result="shape"/>
</filter>
<filter id="filter9_d_120_3063" x="31.8149" y="24.5803" width="0.674316" height="0.793425" filterUnits="userSpaceOnUse" color-interpolation-filters="sRGB">
<feFlood flood-opacity="0" result="BackgroundImageFix"/>
<feColorMatrix in="SourceAlpha" type="matrix" values="0 0 0 0 0 0 0 0 0 0 0 0 0 0 0 0 0 0 127 0" result="hardAlpha"/>
<feOffset dy="0.0465992"/>
<feComposite in2="hardAlpha" operator="out"/>
<feColorMatrix type="matrix" values="0 0 0 0 0 0 0 0 0 0 0 0 0 0 0 0 0 0 0.25 0"/>
<feBlend mode="normal" in2="BackgroundImageFix" result="effect1_dropShadow_120_3063"/>
<feBlend mode="normal" in="SourceGraphic" in2="effect1_dropShadow_120_3063" result="shape"/>
</filter>
<filter id="filter10_d_120_3063" x="36.1274" y="22.9712" width="2.19849" height="4.16711" filterUnits="userSpaceOnUse" color-interpolation-filters="sRGB">
<feFlood flood-opacity="0" result="BackgroundImageFix"/>
<feColorMatrix in="SourceAlpha" type="matrix" values="0 0 0 0 0 0 0 0 0 0 0 0 0 0 0 0 0 0 127 0" result="hardAlpha"/>
<feOffset dy="0.186397"/>
<feComposite in2="hardAlpha" operator="out"/>
<feColorMatrix type="matrix" values="0 0 0 0 0 0 0 0 0 0 0 0 0 0 0 0 0 0 0.25 0"/>
<feBlend mode="normal" in2="BackgroundImageFix" result="effect1_dropShadow_120_3063"/>
<feBlend mode="normal" in="SourceGraphic" in2="effect1_dropShadow_120_3063" result="shape"/>
</filter>
<linearGradient id="paint0_linear_120_3063" x1="32.1409" y1="6.3268" x2="70.1737" y2="49.3736" gradientUnits="userSpaceOnUse">
<stop stop-color="#F1F1F1"/>
<stop offset="1" stop-color="#E1E1E1"/>
</linearGradient>
<linearGradient id="paint1_linear_120_3063" x1="32.5367" y1="18.4698" x2="37.5351" y2="29.2324" gradientUnits="userSpaceOnUse">
<stop stop-color="#FDFD57"/>
<stop offset="1" stop-color="#FFA600"/>
</linearGradient>
<linearGradient id="paint2_linear_120_3063" x1="33.6554" y1="21.2689" x2="39.441" y2="25.3676" gradientUnits="userSpaceOnUse">
<stop stop-color="#FFAE10"/>
<stop offset="1" stop-color="#F86800"/>
</linearGradient>
<linearGradient id="paint3_linear_120_3063" x1="33.6554" y1="21.2689" x2="39.441" y2="25.3676" gradientUnits="userSpaceOnUse">
<stop stop-color="#FFAE10"/>
<stop offset="1" stop-color="#F86800"/>
</linearGradient>
<linearGradient id="paint4_linear_120_3063" x1="34.0602" y1="29.5658" x2="37.9511" y2="27.5165" gradientUnits="userSpaceOnUse">
<stop stop-color="#FFB800"/>
<stop offset="1" stop-color="#E76304"/>
</linearGradient>
<linearGradient id="paint5_linear_120_3063" x1="33.3429" y1="17.189" x2="33.3684" y2="31.4461" gradientUnits="userSpaceOnUse">
<stop stop-color="#FFF6A5"/>
<stop offset="0.869792" stop-color="#FF7507"/>
<stop offset="1" stop-color="#F8862B"/>
</linearGradient>
<linearGradient id="paint6_linear_120_3063" x1="33.5732" y1="18.4102" x2="33.7224" y2="23.4475" gradientUnits="userSpaceOnUse">
<stop stop-color="#FFFCD2"/>
<stop offset="0.315" stop-color="#FDED04"/>
<stop offset="1" stop-color="#FDED04" stop-opacity="0"/>
</linearGradient>
<linearGradient id="paint7_linear_120_3063" x1="33.7697" y1="21.3003" x2="33.9311" y2="26.5466" gradientUnits="userSpaceOnUse">
<stop stop-color="#FBD211"/>
<stop offset="1" stop-color="#FBD211" stop-opacity="0"/>
</linearGradient>
<linearGradient id="paint8_linear_120_3063" x1="33.5869" y1="18.7588" x2="33.656" y2="21.0072" gradientUnits="userSpaceOnUse">
<stop stop-color="#FF8933"/>
<stop offset="1" stop-color="#E98019"/>
</linearGradient>
<linearGradient id="paint9_linear_120_3063" x1="36.269" y1="22.6481" x2="38.722" y2="27.1091" gradientUnits="userSpaceOnUse">
<stop stop-color="#CCB22A"/>
<stop offset="0.16637" stop-color="#FFD600"/>
<stop offset="0.389385" stop-color="#F3FFAA"/>
<stop offset="1" stop-color="#F54710"/>
</linearGradient>
<linearGradient id="paint10_linear_120_3063" x1="37.2194" y1="26.8097" x2="38.3471" y2="24.2346" gradientUnits="userSpaceOnUse">
<stop stop-color="#FF9F10"/>
<stop offset="1" stop-color="#FFC226"/>
</linearGradient>
<linearGradient id="paint11_linear_120_3063" x1="17.8896" y1="6.3268" x2="33.1131" y2="9.48009" gradientUnits="userSpaceOnUse">
<stop stop-color="#F1F1F1"/>
<stop offset="1" stop-color="#E1E1E1"/>
</linearGradient>
</defs>
</svg>
