<svg width="109" height="54" viewBox="0 0 109 54" fill="none" xmlns="http://www.w3.org/2000/svg">
<g filter="url(#filter0_d_120_3115)">
<rect x="14.6973" y="14.3525" width="76.5" height="21.5164" rx="3.245" fill="white"/>
<rect x="14.6973" y="14.3525" width="76.5" height="21.5164" rx="3.245" stroke="url(#paint0_linear_120_3115)" stroke-opacity="0.3" stroke-width="0.650789"/>
</g>
<g filter="url(#filter1_d_120_3115)">
<mask id="path-3-outside-1_120_3115" maskUnits="userSpaceOnUse" x="27.1296" y="17.248" width="14" height="15" fill="black">
<rect fill="white" x="27.1296" y="17.248" width="14" height="15"/>
<path fill-rule="evenodd" clip-rule="evenodd" d="M32.6433 19.4602L32.5972 19.471C32.5253 19.4191 32.4462 19.3764 32.3619 19.3447C32.2504 19.3025 32.1296 19.2793 32.0035 19.2793C31.6932 19.2794 31.4156 19.4186 31.2294 19.6378C31.1159 19.7712 31.0363 19.9342 31.0038 20.1136C29.2839 21.1261 28.1296 22.9967 28.1296 25.1369C28.1296 28.3539 30.7375 30.9617 33.9545 30.9617C37.1715 30.9617 39.7794 28.3539 39.7794 25.1369C39.7794 22.8924 38.5099 20.9444 36.6499 19.9718C36.5145 19.5693 36.134 19.2793 35.6861 19.2793C35.5486 19.2793 35.4173 19.3064 35.2978 19.3559C35.2291 18.9639 34.99 18.6305 34.6597 18.4348C34.4602 18.3163 34.2272 18.2481 33.9781 18.248C33.7606 18.248 33.5554 18.2999 33.3739 18.3918C32.9731 18.5943 32.6879 18.9922 32.6433 19.4602Z"/>
</mask>
<path fill-rule="evenodd" clip-rule="evenodd" d="M32.6433 19.4602L32.5972 19.471C32.5253 19.4191 32.4462 19.3764 32.3619 19.3447C32.2504 19.3025 32.1296 19.2793 32.0035 19.2793C31.6932 19.2794 31.4156 19.4186 31.2294 19.6378C31.1159 19.7712 31.0363 19.9342 31.0038 20.1136C29.2839 21.1261 28.1296 22.9967 28.1296 25.1369C28.1296 28.3539 30.7375 30.9617 33.9545 30.9617C37.1715 30.9617 39.7794 28.3539 39.7794 25.1369C39.7794 22.8924 38.5099 20.9444 36.6499 19.9718C36.5145 19.5693 36.134 19.2793 35.6861 19.2793C35.5486 19.2793 35.4173 19.3064 35.2978 19.3559C35.2291 18.9639 34.99 18.6305 34.6597 18.4348C34.4602 18.3163 34.2272 18.2481 33.9781 18.248C33.7606 18.248 33.5554 18.2999 33.3739 18.3918C32.9731 18.5943 32.6879 18.9922 32.6433 19.4602Z" fill="black"/>
<path d="M32.5972 19.471L32.2183 19.9968L32.4577 20.1693L32.7451 20.102L32.5972 19.471ZM32.6433 19.4602L32.7911 20.0912L33.2444 19.9851L33.2885 19.5216L32.6433 19.4602ZM32.3619 19.3447L32.1324 19.9508L32.1334 19.9512L32.3619 19.3447ZM32.0035 19.2793L32.0035 18.6312L32.0033 18.6312L32.0035 19.2793ZM31.2294 19.6378L31.723 20.0578L31.7234 20.0574L31.2294 19.6378ZM31.0038 20.1136L31.3326 20.6722L31.5885 20.5215L31.6415 20.2292L31.0038 20.1136ZM36.6499 19.9718L36.0355 20.1784L36.1186 20.4254L36.3495 20.5461L36.6499 19.9718ZM35.6861 19.2793L35.6861 18.6312L35.6859 18.6312L35.6861 19.2793ZM35.2978 19.3559L34.6594 19.4678L34.7989 20.2638L35.5456 19.9548L35.2978 19.3559ZM34.6597 18.4348L34.3286 18.992L34.3294 18.9925L34.6597 18.4348ZM33.9781 18.248L33.9783 17.5999H33.9781V18.248ZM33.3739 18.3918L33.6662 18.9703L33.6669 18.97L33.3739 18.3918ZM32.5972 19.471L32.7451 20.102L32.7911 20.0912L32.6433 19.4602L32.4955 18.8291L32.4494 18.8399L32.5972 19.471ZM32.3619 19.3447L32.1334 19.9512C32.1636 19.9626 32.1921 19.9779 32.2183 19.9968L32.5972 19.471L32.9761 18.9451C32.8584 18.8603 32.7289 18.7903 32.5903 18.7381L32.3619 19.3447ZM32.0035 19.2793V19.9274C32.0497 19.9274 32.0928 19.9358 32.1324 19.9508L32.3619 19.3447L32.5913 18.7385C32.408 18.6691 32.2095 18.6312 32.0035 18.6312V19.2793ZM31.2294 19.6378L31.7234 20.0574C31.7918 19.9768 31.8917 19.9275 32.0036 19.9274L32.0035 19.2793L32.0033 18.6312C31.4948 18.6313 31.0394 18.8603 30.7354 19.2182L31.2294 19.6378ZM31.0038 20.1136L31.6415 20.2292C31.6531 20.1653 31.6815 20.1067 31.723 20.0578L31.2294 19.6378L30.7358 19.2178C30.5504 19.4357 30.4195 19.703 30.366 19.998L31.0038 20.1136ZM28.1296 25.1369H28.7778C28.7778 23.2356 29.8023 21.573 31.3326 20.6722L31.0038 20.1136L30.675 19.5551C28.7654 20.6792 27.4815 22.7578 27.4815 25.1369H28.1296ZM33.9545 30.9617V30.3136C31.0955 30.3136 28.7778 27.9959 28.7778 25.1369H28.1296H27.4815C27.4815 28.7118 30.3796 31.6099 33.9545 31.6099V30.9617ZM39.7794 25.1369H39.1312C39.1312 27.9959 36.8135 30.3136 33.9545 30.3136V30.9617V31.6099C37.5295 31.6099 40.4275 28.7118 40.4275 25.1369H39.7794ZM36.6499 19.9718L36.3495 20.5461C38.0043 21.4114 39.1312 23.1431 39.1312 25.1369H39.7794H40.4275C40.4275 22.6417 39.0156 20.4774 36.9502 19.3974L36.6499 19.9718ZM35.6861 19.2793V19.9274C35.8472 19.9274 35.9862 20.0316 36.0355 20.1784L36.6499 19.9718L37.2642 19.7651C37.0428 19.107 36.4208 18.6312 35.6861 18.6312V19.2793ZM35.2978 19.3559L35.5456 19.9548C35.5871 19.9376 35.6343 19.9275 35.6862 19.9274L35.6861 19.2793L35.6859 18.6312C35.4629 18.6312 35.2475 18.6752 35.0499 18.757L35.2978 19.3559ZM34.6597 18.4348L34.3294 18.9925C34.5013 19.0943 34.6242 19.2673 34.6594 19.4678L35.2978 19.3559L35.9362 19.244C35.8339 18.6605 35.4787 18.1667 34.9901 17.8772L34.6597 18.4348ZM33.9781 18.248L33.9779 18.8962C34.1073 18.8962 34.2264 18.9313 34.3286 18.992L34.6597 18.4348L34.9908 17.8777C34.6939 17.7012 34.347 17.6 33.9783 17.5999L33.9781 18.248ZM33.3739 18.3918L33.6669 18.97C33.7596 18.923 33.8647 18.8962 33.9781 18.8962V18.248V17.5999C33.6565 17.5999 33.3511 17.6768 33.0809 17.8137L33.3739 18.3918ZM32.6433 19.4602L33.2885 19.5216C33.3114 19.2819 33.4579 19.0756 33.6662 18.9703L33.3739 18.3918L33.0816 17.8134C32.4884 18.1131 32.0644 18.7024 31.9981 19.3987L32.6433 19.4602Z" fill="url(#paint1_linear_120_3115)" mask="url(#path-3-outside-1_120_3115)"/>
</g>
<g opacity="0.4" filter="url(#filter2_f_120_3115)">
<path d="M32.6434 19.4603C32.7082 18.7805 33.2808 18.2488 33.9776 18.2488C34.6386 18.2488 35.1879 18.7273 35.2979 19.3568C35.4176 19.3073 35.5488 19.2799 35.6863 19.2799C36.1342 19.2799 36.5144 19.5696 36.6498 19.9719C38.5099 20.9445 39.7794 22.8925 39.7794 25.137C39.7794 28.354 37.1715 30.9619 33.9545 30.9619C30.7375 30.9619 28.1296 28.354 28.1296 25.137C28.1296 22.9968 29.2839 21.1263 31.0038 20.1138C31.0897 19.6395 31.5047 19.2799 32.0037 19.2799C32.2253 19.2799 32.4302 19.3508 32.5972 19.4711C32.6126 19.4674 32.628 19.4638 32.6434 19.4603Z" fill="black"/>
<path d="M33.9773 18.1599C34.6455 18.1599 35.2058 18.6193 35.3621 19.239C35.4646 19.2076 35.5737 19.1912 35.6863 19.1912C36.1595 19.1912 36.5601 19.4901 36.7175 19.908C38.591 20.8999 39.8679 22.8696 39.8679 25.1375C39.8677 28.4029 37.2203 31.0504 33.9548 31.0505C30.6892 31.0505 28.041 28.4031 28.0408 25.1375C28.0408 22.9788 29.1985 21.0906 30.9255 20.0583C31.0344 19.5627 31.4753 19.1912 32.0037 19.1912C32.2111 19.1912 32.4042 19.2508 32.5701 19.3503C32.6838 18.6751 33.2698 18.1601 33.9773 18.1599Z" stroke="black" stroke-width="0.176766"/>
</g>
<path d="M33.9545 30.962C37.1715 30.962 39.7794 28.3541 39.7794 25.1371C39.7794 21.9201 37.1715 19.3123 33.9545 19.3123C30.7375 19.3123 28.1296 21.9201 28.1296 25.1371C28.1296 28.3541 30.7375 30.962 33.9545 30.962Z" fill="url(#paint2_linear_120_3115)"/>
<g filter="url(#filter3_i_120_3115)">
<path d="M33.9629 30.5342C36.9405 30.5342 39.3543 28.1204 39.3543 25.1428C39.3543 22.1653 36.9405 19.7515 33.9629 19.7515C30.9853 19.7515 28.5715 22.1653 28.5715 25.1428C28.5715 28.1204 30.9853 30.5342 33.9629 30.5342Z" fill="url(#paint3_linear_120_3115)"/>
</g>
<path d="M33.9629 29.7387C36.5011 29.7387 38.5588 27.681 38.5588 25.1428C38.5588 22.6045 36.5011 20.5469 33.9629 20.5469C31.4246 20.5469 29.3669 22.6045 29.3669 25.1428C29.3669 27.681 31.4246 29.7387 33.9629 29.7387Z" fill="url(#paint4_linear_120_3115)"/>
<path d="M33.9629 29.7387C36.5011 29.7387 38.5588 27.681 38.5588 25.1428C38.5588 22.6045 36.5011 20.5469 33.9629 20.5469C31.4246 20.5469 29.3669 22.6045 29.3669 25.1428C29.3669 27.681 31.4246 29.7387 33.9629 29.7387Z" fill="#FF0000" fill-opacity="0.31"/>
<path d="M33.9543 20.9885C36.2454 20.9885 38.1027 22.8459 38.1028 25.137C38.1028 27.4281 36.2455 29.2854 33.9543 29.2854C31.6633 29.2853 29.8059 27.428 29.8059 25.137C29.806 22.846 31.6634 20.9886 33.9543 20.9885Z" fill="url(#paint5_linear_120_3115)" stroke="url(#paint6_linear_120_3115)" stroke-width="0.29461"/>
<path d="M33.9771 18.2483C34.638 18.2483 35.1862 18.7273 35.2964 19.3567C35.4163 19.3069 35.5481 19.2796 35.686 19.2795C36.2473 19.2795 36.7026 19.7349 36.7026 20.2961C36.7026 20.8574 36.2473 21.3127 35.686 21.3127C35.2624 21.3127 34.8991 21.0533 34.7466 20.6848C34.5287 20.838 34.2637 20.9299 33.9771 20.9299C33.5906 20.9298 33.2431 20.765 32.9985 20.5032C32.9029 20.9652 32.4938 21.3127 32.0034 21.3127C31.4422 21.3126 30.9878 20.8574 30.9878 20.2961C30.9878 19.7349 31.4422 19.2796 32.0034 19.2795C32.2449 19.2795 32.4667 19.3644 32.6411 19.5051C32.6845 18.8042 33.2652 18.2485 33.9771 18.2483Z" fill="url(#paint7_linear_120_3115)"/>
<g filter="url(#filter4_d_120_3115)">
<path d="M32.0036 21.3124C32.5649 21.3124 33.0199 20.8574 33.0199 20.2961C33.0199 19.7348 32.5649 19.2798 32.0036 19.2798C31.4423 19.2798 30.9873 19.7348 30.9873 20.2961C30.9873 20.8574 31.4423 21.3124 32.0036 21.3124Z" fill="url(#paint8_linear_120_3115)"/>
<path d="M32.0036 21.3124C32.5649 21.3124 33.0199 20.8574 33.0199 20.2961C33.0199 19.7348 32.5649 19.2798 32.0036 19.2798C31.4423 19.2798 30.9873 19.7348 30.9873 20.2961C30.9873 20.8574 31.4423 21.3124 32.0036 21.3124Z" fill="url(#paint9_linear_120_3115)"/>
</g>
<g filter="url(#filter5_i_120_3115)">
<path d="M32.0037 20.9685C32.4046 20.9685 32.7297 20.6434 32.7297 20.2424C32.7297 19.8414 32.4046 19.5164 32.0037 19.5164C31.6027 19.5164 31.2776 19.8414 31.2776 20.2424C31.2776 20.6434 31.6027 20.9685 32.0037 20.9685Z" fill="url(#paint10_linear_120_3115)"/>
</g>
<g filter="url(#filter6_d_120_3115)">
<path d="M35.6862 21.3124C36.2475 21.3124 36.7025 20.8574 36.7025 20.2961C36.7025 19.7348 36.2475 19.2798 35.6862 19.2798C35.1249 19.2798 34.6699 19.7348 34.6699 20.2961C34.6699 20.8574 35.1249 21.3124 35.6862 21.3124Z" fill="url(#paint11_linear_120_3115)"/>
</g>
<g filter="url(#filter7_i_120_3115)">
<path d="M35.6863 20.9685C36.0873 20.9685 36.4123 20.6434 36.4123 20.2424C36.4123 19.8414 36.0873 19.5164 35.6863 19.5164C35.2853 19.5164 34.9602 19.8414 34.9602 20.2424C34.9602 20.6434 35.2853 20.9685 35.6863 20.9685Z" fill="url(#paint12_linear_120_3115)"/>
</g>
<g filter="url(#filter8_d_120_3115)">
<path d="M33.9776 20.9295C34.7178 20.9295 35.3179 20.3294 35.3179 19.5891C35.3179 18.8489 34.7178 18.2488 33.9776 18.2488C33.2373 18.2488 32.6372 18.8489 32.6372 19.5891C32.6372 20.3294 33.2373 20.9295 33.9776 20.9295Z" fill="url(#paint13_linear_120_3115)"/>
</g>
<g filter="url(#filter9_i_120_3115)">
<path d="M33.9775 20.5464C34.5714 20.5464 35.0527 20.065 35.0527 19.4712C35.0527 18.8774 34.5714 18.396 33.9775 18.396C33.3837 18.396 32.9023 18.8774 32.9023 19.4712C32.9023 20.065 33.3837 20.5464 33.9775 20.5464Z" fill="url(#paint14_linear_120_3115)"/>
</g>
<path d="M32.8223 22.5433C33.0779 22.2045 32.802 21.7732 32.4202 21.9583V21.9583C32.3562 21.9893 32.3031 22.0355 32.2603 22.0922L30.6516 24.224C30.5512 24.357 30.4789 24.5104 30.4574 24.6757C30.4377 24.8267 30.4275 24.9807 30.4275 25.137V25.137C30.4275 25.3342 30.667 25.3994 30.7858 25.242L32.8223 22.5433Z" fill="url(#paint15_linear_120_3115)"/>
<path d="M31.2869 26.4382C31.1101 26.6725 30.7542 26.6512 30.6512 26.3764V26.3764C30.6047 26.2525 30.6299 26.113 30.7096 26.0074L33.903 21.7755C33.9827 21.6699 34.1116 21.6075 34.2434 21.6181V21.6181C34.5362 21.6415 34.6529 21.9776 34.476 22.212L31.2869 26.4382Z" fill="url(#paint16_linear_120_3115)"/>
<path d="M31.9115 27.4708C31.772 27.6556 31.5037 27.6853 31.3478 27.5143V27.5143C31.2266 27.3813 31.2275 27.1813 31.3359 27.0376L35.0666 22.0938C35.175 21.9501 35.3682 21.8947 35.5294 21.9749V21.9749C35.7366 22.0781 35.7804 22.3437 35.641 22.5285L31.9115 27.4708Z" fill="url(#paint17_linear_120_3115)"/>
<path d="M32.799 28.1549C32.6892 28.3004 32.4927 28.3551 32.3309 28.271V28.271C32.1279 28.1654 32.0867 27.903 32.2245 27.7203L35.9661 22.762C36.104 22.5793 36.3685 22.5478 36.5256 22.7143V22.7143C36.6507 22.8468 36.6514 23.0498 36.5416 23.1952L32.799 28.1549Z" fill="url(#paint18_linear_120_3115)"/>
<path d="M33.9475 28.4931C33.8664 28.6006 33.7344 28.663 33.6004 28.6495V28.6495C33.3118 28.6205 33.1998 28.2882 33.3745 28.0567L36.6057 23.7747C36.7802 23.5434 37.1311 23.5612 37.2385 23.8304V23.8304C37.2884 23.9556 37.264 24.0981 37.1828 24.2057L33.9475 28.4931Z" fill="url(#paint19_linear_120_3115)"/>
<path d="M35.5482 28.2322C35.5029 28.2923 35.4457 28.3404 35.3767 28.3707V28.3707C35.0001 28.5362 34.7368 28.1116 34.9846 27.7832L37.0715 25.0176C37.21 24.8341 37.4882 24.9072 37.4882 25.137V25.137C37.4882 25.2441 37.4834 25.35 37.4741 25.4546C37.4581 25.6338 37.3826 25.8013 37.2742 25.9449L35.5482 28.2322Z" fill="url(#paint20_linear_120_3115)"/>
<g style="mix-blend-mode:overlay" opacity="0.6">
<path d="M33.9775 18.2483C34.6385 18.2483 35.1878 18.7272 35.2979 19.3567C35.4175 19.3072 35.549 19.2795 35.6865 19.2795C36.1343 19.2797 36.5141 19.5698 36.6494 19.9719C38.5095 20.9446 39.7793 22.8925 39.7793 25.137C39.7793 25.3703 39.763 25.6002 39.7363 25.8264C38.1748 26.484 36.1612 26.8811 33.9629 26.8811C31.7557 26.8811 29.7351 26.4799 28.1709 25.8176C28.1449 25.5943 28.1299 25.3673 28.1299 25.137C28.1299 22.9968 29.284 21.126 31.0039 20.1135C31.09 19.6394 31.505 19.2795 32.0039 19.2795C32.2252 19.2796 32.4298 19.3508 32.5967 19.4709C32.612 19.4673 32.6282 19.4637 32.6436 19.4602C32.7084 18.7804 33.2808 18.2483 33.9775 18.2483Z" fill="white"/>
</g>
<path d="M34.7894 23.3563L33.9883 22.4443C33.685 22.0989 33.1219 22.2092 32.9712 22.6434L32.5731 23.7901C32.5611 23.8246 32.5351 23.8526 32.5015 23.8671L31.3866 24.347C31.2168 24.4202 31.1041 24.5561 31.0539 24.7105C31.0487 24.7264 31.043 24.7421 31.0372 24.7578C31.0051 24.8452 31.0037 24.9429 31.0352 25.0318C31.0409 25.0478 31.0465 25.0638 31.0516 25.0799C31.0868 25.192 31.1562 25.296 31.2617 25.3759L32.2292 26.1088C32.2584 26.131 32.2769 26.1643 32.2803 26.2007L32.3923 27.4094C32.4032 27.5271 32.4457 27.6305 32.5092 27.7147C32.5301 27.7424 32.5491 27.7715 32.5679 27.8006C32.6613 27.9447 32.8424 28.0161 33.011 27.9681C33.0443 27.9586 33.0778 27.9492 33.1117 27.9421C33.1874 27.9262 33.2623 27.8949 33.3322 27.8462L34.3282 27.1525C34.3583 27.1316 34.3957 27.1242 34.4314 27.1323L35.6155 27.3993C35.6986 27.418 35.7798 27.4189 35.8559 27.405C35.89 27.3988 35.9246 27.3949 35.959 27.3911C36.1332 27.372 36.274 27.2376 36.3062 27.069C36.3127 27.0349 36.3193 27.0007 36.3282 26.9672C36.3553 26.8653 36.3557 26.7535 36.3214 26.6404L35.9694 25.4787C35.9588 25.4437 35.9634 25.4058 35.9821 25.3743L36.6019 24.3307C36.6695 24.2169 36.6945 24.0944 36.6849 23.9773C36.6835 23.9604 36.6827 23.9435 36.6819 23.9266C36.6776 23.8323 36.6395 23.7424 36.5768 23.6736C36.5655 23.6612 36.5543 23.6488 36.5435 23.636C36.4388 23.5119 36.2832 23.4285 36.0983 23.4248L34.8847 23.4006C34.8481 23.3999 34.8135 23.3838 34.7894 23.3563Z" fill="#FF7400"/>
<path d="M32.8182 22.4703C33.0704 21.9734 33.7622 21.8706 34.1455 22.307L34.9229 23.1928L36.1028 23.2166L36.1935 23.2227C36.4021 23.2498 36.5792 23.3548 36.7028 23.5011C36.7107 23.5106 36.7197 23.5211 36.731 23.5334L36.795 23.6164C36.8327 23.6756 36.8601 23.7414 36.8758 23.8106L36.8907 23.9171L36.8932 23.9604C36.9029 24.0798 36.8857 24.2031 36.8385 24.3214L36.7815 24.437L36.1788 25.4506L36.5212 26.5797L36.5474 26.693C36.559 26.768 36.5588 26.8424 36.5499 26.9144L36.5299 27.0208L36.5112 27.108C36.4683 27.3325 36.2998 27.5174 36.0791 27.5797L35.9813 27.5988L35.893 27.6102C35.8155 27.6243 35.7347 27.6274 35.6526 27.6174L35.5701 27.6027L34.4188 27.3434L33.4511 28.0174C33.3582 28.0822 33.257 28.1247 33.1539 28.1463L33.0679 28.1691C32.8415 28.2334 32.603 28.1577 32.4519 27.9911L32.393 27.9141L32.3428 27.8403C32.2563 27.7258 32.1991 27.5855 32.1845 27.4285L32.075 26.2538L31.1357 25.5421C31.0301 25.4621 30.9506 25.3631 30.8973 25.2544L30.8525 25.1427L30.8385 25.1017C30.7904 24.9659 30.7933 24.8182 30.8418 24.6861L30.8557 24.6456L30.8846 24.5693C30.9623 24.3931 31.1047 24.2417 31.3042 24.1558L32.387 23.6891L32.7741 22.5754L32.8182 22.4703Z" stroke="url(#paint21_linear_120_3115)" stroke-opacity="0.8" stroke-width="0.417193"/>
<path d="M32.9286 22.7465C33.0841 22.2986 33.665 22.1849 33.9779 22.5411L34.6177 23.2695C34.7323 23.4 34.8965 23.4764 35.0702 23.4798L36.0394 23.4992C36.5135 23.5086 36.8012 24.026 36.559 24.4337L36.064 25.2672C35.9753 25.4165 35.9534 25.5963 36.0038 25.7625L36.2849 26.6903C36.4224 27.1441 36.0193 27.5775 35.5567 27.4732L34.611 27.26C34.4416 27.2218 34.2639 27.2566 34.1213 27.3558L33.3258 27.9099C32.9367 28.1809 32.3999 27.9314 32.3562 27.4593L32.2667 26.494C32.2507 26.321 32.1627 26.1627 32.0243 26.0579L31.2515 25.4725C30.8735 25.1862 30.9449 24.5986 31.3804 24.4111L32.2709 24.0277C32.4304 23.959 32.5537 23.8264 32.6107 23.6624L32.9286 22.7465Z" fill="url(#paint22_linear_120_3115)"/>
<path d="M32.96 22.6443C33.1007 22.239 33.6271 22.1364 33.9102 22.4587L34.6368 23.2859C34.7405 23.4038 34.889 23.4732 35.046 23.4763L36.1466 23.4978C36.5755 23.5064 36.8353 23.9746 36.6163 24.3435L36.2442 24.9685C35.3115 25.1652 34.2506 25.279 33.1251 25.279C32.3712 25.279 31.6466 25.2256 30.9698 25.1335C30.8885 24.8748 30.9998 24.5707 31.2803 24.4499L32.2921 24.0154C32.4364 23.9532 32.5481 23.8328 32.5997 23.6843L32.96 22.6443Z" fill="url(#paint23_linear_120_3115)"/>
<path d="M48.2535 27.1108L46.565 23.2333H47.39L48.567 26.1263H48.6L49.777 23.2333H50.602L48.908 27.1108H48.2535ZM51.2503 23.8053V23.0353H52.1303V23.8053H51.2503ZM51.3163 27.1108V24.3443H52.0808V27.1108H51.3163ZM54.6101 27.1658C54.3131 27.1658 54.0546 27.1072 53.8346 26.9898C53.6146 26.8688 53.4423 26.702 53.3176 26.4893C53.1966 26.273 53.1361 26.02 53.1361 25.7303C53.1361 25.437 53.1966 25.1822 53.3176 24.9658C53.4423 24.7495 53.6146 24.5827 53.8346 24.4653C54.0583 24.348 54.3186 24.2893 54.6156 24.2893C54.8283 24.2893 55.0263 24.3205 55.2096 24.3828C55.3929 24.4415 55.5414 24.5185 55.6551 24.6138L55.4241 25.1858C55.3214 25.1088 55.2078 25.0483 55.0831 25.0043C54.9584 24.9603 54.8338 24.9383 54.7091 24.9383C54.4524 24.9383 54.2526 25.0062 54.1096 25.1418C53.9703 25.2738 53.9006 25.47 53.9006 25.7303C53.9006 25.9907 53.9703 26.1868 54.1096 26.3188C54.2526 26.4508 54.4506 26.5168 54.7036 26.5168C54.8319 26.5168 54.9566 26.4948 55.0776 26.4508C55.2023 26.4068 55.3123 26.35 55.4076 26.2803L55.6441 26.8468C55.5304 26.9422 55.3838 27.0192 55.2041 27.0778C55.0244 27.1365 54.8264 27.1658 54.6101 27.1658ZM57.884 27.1658C57.4917 27.1658 57.2002 27.0687 57.0095 26.8743C56.8188 26.6763 56.7235 26.3958 56.7235 26.0328V24.9713H56.179V24.3443H56.7785V23.5798H57.488V24.3443H58.489V24.9713H57.488V26.0053C57.488 26.1777 57.532 26.3078 57.62 26.3958C57.708 26.4802 57.84 26.5223 58.016 26.5223C58.093 26.5223 58.1682 26.515 58.2415 26.5003C58.3185 26.4857 58.3918 26.4655 58.4615 26.4398L58.566 27.0283C58.467 27.076 58.3588 27.1108 58.2415 27.1328C58.1278 27.1548 58.0087 27.1658 57.884 27.1658ZM60.7381 27.1658C60.4375 27.1658 60.1753 27.1053 59.9516 26.9843C59.7316 26.8633 59.5611 26.6947 59.4401 26.4783C59.3228 26.262 59.2641 26.0108 59.2641 25.7248C59.2641 25.4352 59.3228 25.184 59.4401 24.9713C59.5611 24.755 59.7316 24.5882 59.9516 24.4708C60.1753 24.3498 60.4375 24.2893 60.7381 24.2893C61.0425 24.2893 61.3028 24.3498 61.5191 24.4708C61.7391 24.5882 61.9078 24.755 62.0251 24.9713C62.1461 25.184 62.2066 25.4352 62.2066 25.7248C62.2066 26.0108 62.1461 26.262 62.0251 26.4783C61.9078 26.6947 61.7391 26.8633 61.5191 26.9843C61.3028 27.1053 61.0425 27.1658 60.7381 27.1658ZM60.7381 26.5278C60.9691 26.5278 61.1488 26.4545 61.2771 26.3078C61.4055 26.1612 61.4696 25.965 61.4696 25.7193C61.4696 25.4737 61.4055 25.2812 61.2771 25.1418C61.1525 24.9988 60.9728 24.9273 60.7381 24.9273C60.5035 24.9273 60.322 24.9988 60.1936 25.1418C60.0653 25.2812 60.0011 25.4737 60.0011 25.7193C60.0011 25.965 60.0653 26.1612 60.1936 26.3078C60.3256 26.4545 60.5071 26.5278 60.7381 26.5278ZM63.2662 27.1108V24.3443H63.9152V25.0263H63.9537C64.0197 24.8247 64.1297 24.6597 64.2837 24.5313C64.4414 24.3993 64.6339 24.326 64.8612 24.3113L65.2132 24.2893L65.2847 24.9988L64.7402 25.0428C64.5129 25.0612 64.3369 25.1382 64.2122 25.2738C64.0912 25.4058 64.0307 25.5653 64.0307 25.7523V27.1108H63.2662ZM66.6381 28.1008L67.2211 26.8193V27.4628L65.9121 24.3443H66.7206L67.4356 26.3298H67.4741L68.1781 24.3443H68.9646L67.4301 28.1008H66.6381ZM71.8106 27.1108V23.2333H73.5706C74.0179 23.2333 74.3607 23.3323 74.5991 23.5303C74.8374 23.7283 74.9566 24.0143 74.9566 24.3883C74.9566 24.5827 74.9181 24.7495 74.8411 24.8888C74.7677 25.0282 74.6687 25.1437 74.5441 25.2353C74.4194 25.3233 74.2801 25.3875 74.1261 25.4278V25.4608L74.1591 25.4773C74.2214 25.503 74.2801 25.5452 74.3351 25.6038C74.3937 25.6588 74.4542 25.745 74.5166 25.8623L75.1766 27.1108H74.3406L73.7301 25.9503C73.6861 25.866 73.6366 25.8018 73.5816 25.7578C73.5302 25.7102 73.4697 25.6772 73.4001 25.6588C73.3304 25.6405 73.2461 25.6313 73.1471 25.6313H72.5751V27.1108H71.8106ZM72.5751 25.0153H73.5101C73.7484 25.0153 73.9226 24.9677 74.0326 24.8723C74.1426 24.7733 74.1976 24.6267 74.1976 24.4323C74.1976 24.238 74.1407 24.095 74.0271 24.0033C73.9134 23.9117 73.7337 23.8658 73.4881 23.8658H72.5751V25.0153ZM77.2286 27.1658C77.0012 27.1658 76.8069 27.1237 76.6456 27.0393C76.4842 26.9513 76.3614 26.8212 76.2771 26.6488C76.1927 26.4728 76.1506 26.2528 76.1506 25.9888V24.3443H76.9151V25.9503C76.9151 26.064 76.9334 26.1648 76.9701 26.2528C77.0067 26.3408 77.0636 26.4087 77.1406 26.4563C77.2212 26.504 77.3239 26.5278 77.4486 26.5278C77.5769 26.5278 77.6924 26.4967 77.7951 26.4343C77.9014 26.372 77.9839 26.2895 78.0426 26.1868C78.1049 26.0805 78.1361 25.9687 78.1361 25.8513V24.3443H78.9006V27.1108H78.2186V26.5388H78.1856C78.0866 26.7368 77.9582 26.8908 77.8006 27.0008C77.6429 27.1108 77.4522 27.1658 77.2286 27.1658ZM81.2283 27.1658C81.0597 27.1658 80.8947 27.153 80.7333 27.1273C80.5757 27.1053 80.4308 27.0723 80.2988 27.0283C80.1668 26.9843 80.0532 26.9275 79.9578 26.8578L80.1558 26.3243C80.2548 26.3867 80.363 26.438 80.4803 26.4783C80.5977 26.515 80.7168 26.5425 80.8378 26.5608C80.9625 26.5755 81.0798 26.5828 81.1898 26.5828C81.4062 26.5828 81.5693 26.5627 81.6793 26.5223C81.7893 26.482 81.8443 26.4123 81.8443 26.3133C81.8443 26.229 81.815 26.1685 81.7563 26.1318C81.6977 26.0952 81.5987 26.0677 81.4593 26.0493L80.8268 25.9668C80.5482 25.9302 80.341 25.8385 80.2053 25.6918C80.0733 25.5415 80.0073 25.3655 80.0073 25.1638C80.0073 24.9952 80.0532 24.8467 80.1448 24.7183C80.2402 24.5863 80.3832 24.4818 80.5738 24.4048C80.7682 24.3278 81.0102 24.2893 81.2998 24.2893C81.4428 24.2893 81.5858 24.3003 81.7288 24.3223C81.8755 24.3443 82.0093 24.3792 82.1303 24.4268C82.255 24.4708 82.3558 24.5258 82.4328 24.5918L82.2183 25.1143C82.1413 25.0557 82.0515 25.0098 81.9488 24.9768C81.8462 24.9402 81.738 24.9145 81.6243 24.8998C81.5143 24.8815 81.4062 24.8723 81.2998 24.8723C81.0945 24.8723 80.9387 24.8943 80.8323 24.9383C80.7297 24.9823 80.6783 25.052 80.6783 25.1473C80.6783 25.228 80.7058 25.2867 80.7608 25.3233C80.8195 25.3563 80.913 25.382 81.0413 25.4003L81.6408 25.4938C81.9452 25.5415 82.167 25.6332 82.3063 25.7688C82.4457 25.9008 82.5153 26.0805 82.5153 26.3078C82.5153 26.4838 82.4622 26.636 82.3558 26.7643C82.2532 26.8927 82.1047 26.9917 81.9103 27.0613C81.7197 27.131 81.4923 27.1658 81.2283 27.1658ZM83.5248 27.1108V23.2333H84.2398V24.8668H84.2783C84.3663 24.6945 84.4947 24.5552 84.6633 24.4488C84.832 24.3425 85.0245 24.2893 85.2408 24.2893C85.4682 24.2893 85.6607 24.3333 85.8183 24.4213C85.976 24.5057 86.0952 24.6377 86.1758 24.8173C86.2565 24.9933 86.2968 25.2188 86.2968 25.4938V27.1108H85.5323V25.5213C85.5323 25.3967 85.514 25.2903 85.4773 25.2023C85.4407 25.1143 85.3838 25.0465 85.3068 24.9988C85.2298 24.9512 85.129 24.9273 85.0043 24.9273C84.8687 24.9273 84.7458 24.9585 84.6358 25.0208C84.5295 25.0832 84.4452 25.1675 84.3828 25.2738C84.3205 25.3802 84.2893 25.4975 84.2893 25.6258V27.1108H83.5248Z" fill="#202224"/>
<mask id="mask0_120_3115" style="mask-type:alpha" maskUnits="userSpaceOnUse" x="14" y="14" width="16" height="23">
<path d="M14.6973 17.5975C14.6973 15.8054 16.1501 14.3525 17.9423 14.3525H22.4517C25.901 14.3525 28.6973 17.1488 28.6973 20.5982V29.6233C28.6973 33.0727 25.901 35.8689 22.4517 35.8689H17.9423C16.1501 35.8689 14.6973 34.4161 14.6973 32.6239V17.5975Z" fill="white" stroke="url(#paint24_linear_120_3115)" stroke-opacity="0.3" stroke-width="0.650789"/>
</mask>
<g mask="url(#mask0_120_3115)">
<rect x="14.1973" y="13.9387" width="7" height="22.3439" fill="#587ED7"/>
</g>
<defs>
<filter id="filter0_d_120_3115" x="0.845876" y="0.501149" width="107.584" height="52.6006" filterUnits="userSpaceOnUse" color-interpolation-filters="sRGB">
<feFlood flood-opacity="0" result="BackgroundImageFix"/>
<feColorMatrix in="SourceAlpha" type="matrix" values="0 0 0 0 0 0 0 0 0 0 0 0 0 0 0 0 0 0 127 0" result="hardAlpha"/>
<feOffset dx="1.69074" dy="1.69074"/>
<feGaussianBlur stdDeviation="7.60835"/>
<feColorMatrix type="matrix" values="0 0 0 0 0 0 0 0 0 0 0 0 0 0 0 0 0 0 0.05 0"/>
<feBlend mode="normal" in2="BackgroundImageFix" result="effect1_dropShadow_120_3115"/>
<feBlend mode="normal" in="SourceGraphic" in2="effect1_dropShadow_120_3115" result="shape"/>
</filter>
<filter id="filter1_d_120_3115" x="27.4814" y="17.5999" width="12.946" height="14.393" filterUnits="userSpaceOnUse" color-interpolation-filters="sRGB">
<feFlood flood-opacity="0" result="BackgroundImageFix"/>
<feColorMatrix in="SourceAlpha" type="matrix" values="0 0 0 0 0 0 0 0 0 0 0 0 0 0 0 0 0 0 127 0" result="hardAlpha"/>
<feOffset dy="0.382993"/>
<feComposite in2="hardAlpha" operator="out"/>
<feColorMatrix type="matrix" values="0 0 0 0 0.266667 0 0 0 0 0.0196078 0 0 0 0 0.0196078 0 0 0 1 0"/>
<feBlend mode="normal" in2="BackgroundImageFix" result="effect1_dropShadow_120_3115"/>
<feBlend mode="normal" in="SourceGraphic" in2="effect1_dropShadow_120_3115" result="shape"/>
</filter>
<filter id="filter2_f_120_3115" x="27.5993" y="17.7185" width="12.7102" height="13.7737" filterUnits="userSpaceOnUse" color-interpolation-filters="sRGB">
<feFlood flood-opacity="0" result="BackgroundImageFix"/>
<feBlend mode="normal" in="SourceGraphic" in2="BackgroundImageFix" result="shape"/>
<feGaussianBlur stdDeviation="0.176766" result="effect1_foregroundBlur_120_3115"/>
</filter>
<filter id="filter3_i_120_3115" x="28.5715" y="19.7515" width="10.7827" height="10.7827" filterUnits="userSpaceOnUse" color-interpolation-filters="sRGB">
<feFlood flood-opacity="0" result="BackgroundImageFix"/>
<feBlend mode="normal" in="SourceGraphic" in2="BackgroundImageFix" result="shape"/>
<feColorMatrix in="SourceAlpha" type="matrix" values="0 0 0 0 0 0 0 0 0 0 0 0 0 0 0 0 0 0 127 0" result="hardAlpha"/>
<feOffset dy="1.64982"/>
<feComposite in2="hardAlpha" operator="arithmetic" k2="-1" k3="1"/>
<feColorMatrix type="matrix" values="0 0 0 0 0.993306 0 0 0 0 1 0 0 0 0 0.575 0 0 0 0.29 0"/>
<feBlend mode="normal" in2="shape" result="effect1_innerShadow_120_3115"/>
</filter>
<filter id="filter4_d_120_3115" x="30.9873" y="19.2798" width="2.03271" height="2.23376" filterUnits="userSpaceOnUse" color-interpolation-filters="sRGB">
<feFlood flood-opacity="0" result="BackgroundImageFix"/>
<feColorMatrix in="SourceAlpha" type="matrix" values="0 0 0 0 0 0 0 0 0 0 0 0 0 0 0 0 0 0 127 0" result="hardAlpha"/>
<feOffset dy="0.201042"/>
<feComposite in2="hardAlpha" operator="out"/>
<feColorMatrix type="matrix" values="0 0 0 0 0.886275 0 0 0 0 0.380392 0 0 0 0 0.0196078 0 0 0 1 0"/>
<feBlend mode="normal" in2="BackgroundImageFix" result="effect1_dropShadow_120_3115"/>
<feBlend mode="normal" in="SourceGraphic" in2="effect1_dropShadow_120_3115" result="shape"/>
</filter>
<filter id="filter5_i_120_3115" x="31.2776" y="19.5164" width="1.45215" height="1.45215" filterUnits="userSpaceOnUse" color-interpolation-filters="sRGB">
<feFlood flood-opacity="0" result="BackgroundImageFix"/>
<feBlend mode="normal" in="SourceGraphic" in2="BackgroundImageFix" result="shape"/>
<feColorMatrix in="SourceAlpha" type="matrix" values="0 0 0 0 0 0 0 0 0 0 0 0 0 0 0 0 0 0 127 0" result="hardAlpha"/>
<feOffset dy="0.677603"/>
<feComposite in2="hardAlpha" operator="arithmetic" k2="-1" k3="1"/>
<feColorMatrix type="matrix" values="0 0 0 0 1 0 0 0 0 0.976471 0 0 0 0 0.168627 0 0 0 1 0"/>
<feBlend mode="normal" in2="shape" result="effect1_innerShadow_120_3115"/>
</filter>
<filter id="filter6_d_120_3115" x="34.6699" y="19.2798" width="2.03271" height="2.23376" filterUnits="userSpaceOnUse" color-interpolation-filters="sRGB">
<feFlood flood-opacity="0" result="BackgroundImageFix"/>
<feColorMatrix in="SourceAlpha" type="matrix" values="0 0 0 0 0 0 0 0 0 0 0 0 0 0 0 0 0 0 127 0" result="hardAlpha"/>
<feOffset dy="0.201042"/>
<feComposite in2="hardAlpha" operator="out"/>
<feColorMatrix type="matrix" values="0 0 0 0 0.886275 0 0 0 0 0.380392 0 0 0 0 0.0196078 0 0 0 1 0"/>
<feBlend mode="normal" in2="BackgroundImageFix" result="effect1_dropShadow_120_3115"/>
<feBlend mode="normal" in="SourceGraphic" in2="effect1_dropShadow_120_3115" result="shape"/>
</filter>
<filter id="filter7_i_120_3115" x="34.9602" y="19.5164" width="1.45215" height="1.45215" filterUnits="userSpaceOnUse" color-interpolation-filters="sRGB">
<feFlood flood-opacity="0" result="BackgroundImageFix"/>
<feBlend mode="normal" in="SourceGraphic" in2="BackgroundImageFix" result="shape"/>
<feColorMatrix in="SourceAlpha" type="matrix" values="0 0 0 0 0 0 0 0 0 0 0 0 0 0 0 0 0 0 127 0" result="hardAlpha"/>
<feOffset dy="0.677603"/>
<feComposite in2="hardAlpha" operator="arithmetic" k2="-1" k3="1"/>
<feColorMatrix type="matrix" values="0 0 0 0 1 0 0 0 0 0.976471 0 0 0 0 0.168627 0 0 0 1 0"/>
<feBlend mode="normal" in2="shape" result="effect1_innerShadow_120_3115"/>
</filter>
<filter id="filter8_d_120_3115" x="32.6372" y="18.2488" width="2.68066" height="2.94581" filterUnits="userSpaceOnUse" color-interpolation-filters="sRGB">
<feFlood flood-opacity="0" result="BackgroundImageFix"/>
<feColorMatrix in="SourceAlpha" type="matrix" values="0 0 0 0 0 0 0 0 0 0 0 0 0 0 0 0 0 0 127 0" result="hardAlpha"/>
<feOffset dy="0.265149"/>
<feComposite in2="hardAlpha" operator="out"/>
<feColorMatrix type="matrix" values="0 0 0 0 0.886275 0 0 0 0 0.380392 0 0 0 0 0.0196078 0 0 0 1 0"/>
<feBlend mode="normal" in2="BackgroundImageFix" result="effect1_dropShadow_120_3115"/>
<feBlend mode="normal" in="SourceGraphic" in2="effect1_dropShadow_120_3115" result="shape"/>
</filter>
<filter id="filter9_i_120_3115" x="32.9023" y="18.396" width="2.15039" height="2.15039" filterUnits="userSpaceOnUse" color-interpolation-filters="sRGB">
<feFlood flood-opacity="0" result="BackgroundImageFix"/>
<feBlend mode="normal" in="SourceGraphic" in2="BackgroundImageFix" result="shape"/>
<feColorMatrix in="SourceAlpha" type="matrix" values="0 0 0 0 0 0 0 0 0 0 0 0 0 0 0 0 0 0 127 0" result="hardAlpha"/>
<feOffset dy="0.677603"/>
<feComposite in2="hardAlpha" operator="arithmetic" k2="-1" k3="1"/>
<feColorMatrix type="matrix" values="0 0 0 0 1 0 0 0 0 0.976471 0 0 0 0 0.168627 0 0 0 1 0"/>
<feBlend mode="normal" in2="shape" result="effect1_innerShadow_120_3115"/>
</filter>
<linearGradient id="paint0_linear_120_3115" x1="32.1409" y1="6.58095" x2="70.1737" y2="49.6277" gradientUnits="userSpaceOnUse">
<stop stop-color="#F1F1F1"/>
<stop offset="1" stop-color="#E1E1E1"/>
</linearGradient>
<linearGradient id="paint1_linear_120_3115" x1="33.9545" y1="18.248" x2="33.9545" y2="30.9617" gradientUnits="userSpaceOnUse">
<stop stop-color="#EF7E65"/>
<stop offset="1" stop-color="#771614"/>
</linearGradient>
<linearGradient id="paint2_linear_120_3115" x1="34.9057" y1="20.5469" x2="35.3182" y2="29.503" gradientUnits="userSpaceOnUse">
<stop stop-color="#FBFF01"/>
<stop offset="1" stop-color="#ED5528"/>
</linearGradient>
<linearGradient id="paint3_linear_120_3115" x1="32.4162" y1="22.1525" x2="32.5488" y2="33.8927" gradientUnits="userSpaceOnUse">
<stop stop-color="#FFF854"/>
<stop offset="0.256068" stop-color="#FFF500"/>
<stop offset="1" stop-color="#FF1700"/>
</linearGradient>
<linearGradient id="paint4_linear_120_3115" x1="33.9629" y1="21.7389" x2="33.2709" y2="31.8539" gradientUnits="userSpaceOnUse">
<stop stop-color="#F7DF0A"/>
<stop offset="1" stop-color="#ED4520"/>
</linearGradient>
<linearGradient id="paint5_linear_120_3115" x1="33.9545" y1="21.136" x2="33.5505" y2="32.7142" gradientUnits="userSpaceOnUse">
<stop stop-color="#FF7A00"/>
<stop offset="1" stop-color="#B10000"/>
</linearGradient>
<linearGradient id="paint6_linear_120_3115" x1="33.9545" y1="21.136" x2="33.9545" y2="29.1383" gradientUnits="userSpaceOnUse">
<stop stop-color="#CC2901" stop-opacity="0.49"/>
<stop offset="1" stop-color="#CC2901"/>
</linearGradient>
<linearGradient id="paint7_linear_120_3115" x1="33.9778" y1="18.2483" x2="33.9778" y2="20.9297" gradientUnits="userSpaceOnUse">
<stop stop-color="#F7CA0A"/>
<stop offset="1" stop-color="#FA9508"/>
</linearGradient>
<linearGradient id="paint8_linear_120_3115" x1="32.0036" y1="19.2798" x2="32.0036" y2="21.3124" gradientUnits="userSpaceOnUse">
<stop stop-color="#F7CA0A"/>
<stop offset="1" stop-color="#FA9508"/>
</linearGradient>
<linearGradient id="paint9_linear_120_3115" x1="32.0036" y1="19.2798" x2="32.0036" y2="21.3124" gradientUnits="userSpaceOnUse">
<stop stop-color="#F7CA0A"/>
<stop offset="1" stop-color="#FD6E08"/>
</linearGradient>
<linearGradient id="paint10_linear_120_3115" x1="32.0037" y1="19.5164" x2="32.0037" y2="20.9685" gradientUnits="userSpaceOnUse">
<stop stop-color="#FAFF00"/>
<stop offset="1" stop-color="#FAB608"/>
</linearGradient>
<linearGradient id="paint11_linear_120_3115" x1="35.6862" y1="19.2798" x2="35.6862" y2="21.3124" gradientUnits="userSpaceOnUse">
<stop stop-color="#F7CA0A"/>
<stop offset="1" stop-color="#FD6E08"/>
</linearGradient>
<linearGradient id="paint12_linear_120_3115" x1="35.6863" y1="19.5164" x2="35.6863" y2="20.9685" gradientUnits="userSpaceOnUse">
<stop stop-color="#FAFF00"/>
<stop offset="1" stop-color="#FAB608"/>
</linearGradient>
<linearGradient id="paint13_linear_120_3115" x1="33.9776" y1="18.2488" x2="33.9776" y2="20.9295" gradientUnits="userSpaceOnUse">
<stop stop-color="#F7CA0A"/>
<stop offset="1" stop-color="#FD6E08"/>
</linearGradient>
<linearGradient id="paint14_linear_120_3115" x1="33.9775" y1="18.396" x2="33.9775" y2="20.5464" gradientUnits="userSpaceOnUse">
<stop stop-color="#FAFF00"/>
<stop offset="1" stop-color="#FAB608"/>
</linearGradient>
<linearGradient id="paint15_linear_120_3115" x1="33.9578" y1="21.6074" x2="33.9578" y2="28.6647" gradientUnits="userSpaceOnUse">
<stop stop-color="#FFA800"/>
<stop offset="0.96875" stop-color="#FF4300" stop-opacity="0"/>
</linearGradient>
<linearGradient id="paint16_linear_120_3115" x1="33.9578" y1="21.6074" x2="33.9578" y2="28.6647" gradientUnits="userSpaceOnUse">
<stop stop-color="#FFA800"/>
<stop offset="0.96875" stop-color="#FF4300" stop-opacity="0"/>
</linearGradient>
<linearGradient id="paint17_linear_120_3115" x1="33.9578" y1="21.6074" x2="33.9578" y2="28.6647" gradientUnits="userSpaceOnUse">
<stop stop-color="#FFA800"/>
<stop offset="0.96875" stop-color="#FF4300" stop-opacity="0"/>
</linearGradient>
<linearGradient id="paint18_linear_120_3115" x1="33.9578" y1="21.6074" x2="33.9578" y2="28.6647" gradientUnits="userSpaceOnUse">
<stop stop-color="#FFA800"/>
<stop offset="0.96875" stop-color="#FF4300" stop-opacity="0"/>
</linearGradient>
<linearGradient id="paint19_linear_120_3115" x1="33.9578" y1="21.6074" x2="33.9578" y2="28.6647" gradientUnits="userSpaceOnUse">
<stop stop-color="#FFA800"/>
<stop offset="0.96875" stop-color="#FF4300" stop-opacity="0"/>
</linearGradient>
<linearGradient id="paint20_linear_120_3115" x1="33.9578" y1="21.6074" x2="33.9578" y2="28.6647" gradientUnits="userSpaceOnUse">
<stop stop-color="#FFA800"/>
<stop offset="0.96875" stop-color="#FF4300" stop-opacity="0"/>
</linearGradient>
<linearGradient id="paint21_linear_120_3115" x1="33.4226" y1="22.2515" x2="34.4852" y2="27.681" gradientUnits="userSpaceOnUse">
<stop stop-color="#F68B02"/>
<stop offset="1" stop-color="#CB2901"/>
</linearGradient>
<linearGradient id="paint22_linear_120_3115" x1="33.277" y1="21.743" x2="34.6551" y2="28.7843" gradientUnits="userSpaceOnUse">
<stop stop-color="#FFEB00"/>
<stop offset="1" stop-color="#FF8E00"/>
</linearGradient>
<linearGradient id="paint23_linear_120_3115" x1="33.8197" y1="22.2681" x2="34.0334" y2="27.1914" gradientUnits="userSpaceOnUse">
<stop stop-color="white"/>
<stop offset="1" stop-color="#FFE600" stop-opacity="0"/>
</linearGradient>
<linearGradient id="paint24_linear_120_3115" x1="17.8896" y1="6.58095" x2="33.1131" y2="9.73424" gradientUnits="userSpaceOnUse">
<stop stop-color="#F1F1F1"/>
<stop offset="1" stop-color="#E1E1E1"/>
</linearGradient>
</defs>
</svg>
