<svg width="279" height="132" viewBox="0 0 279 132" fill="none" xmlns="http://www.w3.org/2000/svg">
<g filter="url(#filter0_d_118_2413)">
<rect x="35.421" y="35.5" width="200" height="52.5" rx="8.1125" fill="white"/>
<rect x="35.421" y="35.5" width="200" height="52.5" rx="8.1125" stroke="url(#paint0_linear_118_2413)" stroke-opacity="0.3" stroke-width="1.62697"/>
</g>
<g filter="url(#filter1_d_118_2413)">
<path d="M65.6768 55.7794C66.506 53.2276 66.9205 51.9516 68.0117 51.1588C69.1028 50.3661 70.4445 50.3661 73.1277 50.3661H83.1389C89.6681 50.3661 92.9327 50.3661 94.3342 52.2951C95.7358 54.2242 94.727 57.329 92.7094 63.5386L89.9049 72.17C89.1033 74.6368 88.7026 75.8702 87.6478 76.6366C86.593 77.4029 85.2961 77.4029 82.7023 77.4029H78.9523C69.3821 77.4029 64.597 77.4029 62.5427 74.5753C60.4884 71.7478 61.967 67.1969 64.9244 58.0952L65.6768 55.7794Z" fill="#5F0010"/>
<path d="M68.3708 54.9257C69.2 52.3738 69.6145 51.0978 70.7057 50.305C71.7968 49.5123 73.1385 49.5123 75.8217 49.5123H85.0003C89.9195 49.5123 92.3792 49.5123 93.4351 50.9657C94.4911 52.4191 93.731 54.7583 92.2109 59.4368L88.1437 71.9544C87.7015 73.3154 87.4804 73.9959 86.8984 74.4187C86.3165 74.8415 85.6009 74.8415 84.1699 74.8415H71.9555C67.2152 74.8415 64.845 74.8415 63.8274 73.441C62.8099 72.0404 63.5423 69.7862 65.0072 65.2779L68.3708 54.9257Z" fill="#E0B05D"/>
<path d="M66.1768 71.9452C66.7358 72.8081 66.6863 73.8331 66.0664 74.2346C65.4465 74.6362 64.4909 74.2622 63.9319 73.3994C63.373 72.5365 63.4224 71.5115 64.0423 71.1099C64.6622 70.7084 65.6179 71.0823 66.1768 71.9452Z" fill="#DAAA57"/>
<path d="M77.9087 72.7471L63.5719 71.1825L64.1662 73.7733L77.9087 72.7471Z" fill="url(#paint1_linear_118_2413)"/>
<path d="M63.5719 71.1825C63.5108 71.1893 63.4518 71.2823 63.4241 71.3438C63.3861 71.4279 63.3671 71.4755 63.3437 71.6189C63.3357 71.7652 63.3437 71.9353 63.3671 72.1176C63.3906 72.3 63.4289 72.4904 63.4796 72.676C63.5302 72.8616 63.592 73.0382 63.6608 73.1938C63.7296 73.3495 63.8038 73.4806 63.8783 73.5783C63.9529 73.676 64.0262 73.7381 64.0932 73.7604C64.1602 73.7827 64.2194 73.7646 64.2668 73.7075L63.8632 72.45L63.5719 71.1825Z" fill="#BF7B3D"/>
<path d="M67.7067 49.8978C68.5359 47.3459 68.9505 46.0699 70.0416 45.2771C71.1328 44.4844 72.4744 44.4844 75.1576 44.4844H82.2418C88.2343 44.4844 91.2306 44.4844 92.517 46.2549C93.8033 48.0254 92.8774 50.875 91.0256 56.5743L89.2329 62.0916C87.9339 66.0895 87.2844 68.0885 85.5749 69.3305C83.8655 70.5725 81.7636 70.5725 77.5599 70.5725H68.9578C65.2013 70.5725 63.3231 70.5725 62.5167 69.4627C61.7103 68.3528 62.2907 66.5665 63.4516 62.9938L67.7067 49.8978Z" fill="url(#paint2_linear_118_2413)"/>
<path d="M66.3336 70.5237C63.2323 70.3658 63.3135 72.2608 63.1096 72.7757C63.1096 72.7757 63.364 70.6877 63.4229 70.1129C63.4818 69.5381 63.849 67.5609 63.849 67.5609C65.3368 68.5821 67.9167 70.6043 66.3336 70.5237Z" fill="#5E000F"/>
<path d="M67.6429 49.8978C68.472 47.3459 68.8866 46.0699 69.9778 45.2771C71.0689 44.4844 72.4105 44.4844 75.0937 44.4844H84.6752C88.8789 44.4844 90.9808 44.4844 91.8831 45.7264C92.7855 46.9684 92.136 48.9674 90.837 52.9653L88.4265 60.384C87.1275 64.382 86.478 66.3809 84.7685 67.6229C83.059 68.865 80.9572 68.865 76.7535 68.865H66.2233C63.9873 68.865 62.8693 68.865 62.3893 68.2043C61.9093 67.5437 62.2548 66.4804 62.9458 64.3538L67.6429 49.8978Z" fill="url(#paint3_linear_118_2413)"/>
<path d="M66.5722 68.865C61.5918 68.865 61.8764 70.5725 61.5918 71.0469C61.5918 71.0469 61.8289 69.1496 61.8764 68.6278C61.9238 68.106 62.3507 66.3036 62.3507 66.3036C64.8172 67.1574 69.1146 68.865 66.5722 68.865Z" fill="url(#paint4_linear_118_2413)"/>
<path d="M72.6911 47.1881L64.3429 69.8136L66.762 69.4816L72.6911 47.1881Z" fill="url(#paint5_linear_118_2413)"/>
<path d="M64.9244 58.0952L63.7064 57.6994L63.7064 57.6994L64.9244 58.0952ZM89.9049 72.17L88.6868 71.7742L88.6868 71.7742L89.9049 72.17ZM92.7094 63.5386L93.9274 63.9344L93.9274 63.9344L92.7094 63.5386ZM65.6768 55.7794L66.8948 56.1752L66.8948 56.1752L65.6768 55.7794ZM65.0072 65.2779L63.7891 64.8821L65.0072 65.2779ZM88.1437 71.9544L86.9257 71.5586L86.9257 71.5586L88.1437 71.9544ZM92.2109 59.4368L93.4289 59.8326L93.4289 59.8326L92.2109 59.4368ZM68.3708 54.9257L69.5888 55.3214L68.3708 54.9257ZM63.5719 71.1825L63.7109 69.9093L63.5707 69.894L63.4306 69.9096L63.5719 71.1825ZM77.9087 72.7471L78.0041 74.0243L78.0477 71.474L77.9087 72.7471ZM64.1662 73.7733L62.9179 74.0596L63.164 75.1323L64.2616 75.0504L64.1662 73.7733ZM63.4241 71.3438L64.5914 71.8707L64.5917 71.87L63.4241 71.3438ZM63.3437 71.6189L62.0798 71.4122L62.0686 71.4802L62.0649 71.5491L63.3437 71.6189ZM64.2668 73.7075L65.2525 74.5251L65.7008 73.9847L65.4862 73.3162L64.2668 73.7075ZM63.8632 72.45L62.6151 72.7369L62.6272 72.7897L62.6438 72.8413L63.8632 72.45ZM63.4516 62.9938L64.6696 63.3896L64.6696 63.3896L63.4516 62.9938ZM89.2329 62.0916L90.451 62.4873L90.451 62.4873L89.2329 62.0916ZM91.0256 56.5743L89.8076 56.1785L89.8076 56.1785L91.0256 56.5743ZM67.7067 49.8978L66.4887 49.502L66.4887 49.502L67.7067 49.8978ZM63.1096 72.7757L61.8383 72.6208L64.3004 73.2472L63.1096 72.7757ZM66.3336 70.5237L66.3987 69.2447L66.3336 70.5237ZM63.849 67.5609L64.5737 66.505L62.9495 65.3902L62.5898 67.3271L63.849 67.5609ZM63.4229 70.1129L62.1489 69.9824L63.4229 70.1129ZM62.9458 64.3538L64.1638 64.7496L64.1638 64.7496L62.9458 64.3538ZM88.4265 60.384L87.2085 59.9882L87.2085 59.9882L88.4265 60.384ZM90.837 52.9653L92.055 53.3611L90.837 52.9653ZM67.6429 49.8978L66.4248 49.502L67.6429 49.8978ZM61.5918 71.0469L60.321 70.888L62.6899 71.7058L61.5918 71.0469ZM62.3507 66.3036L62.7696 65.0933L61.431 64.63L61.1045 66.0084L62.3507 66.3036ZM64.3429 69.8136L63.1414 69.3703L62.4026 71.3726L64.517 71.0824L64.3429 69.8136ZM72.6911 47.1881L73.9288 47.5172L71.4896 46.7447L72.6911 47.1881ZM66.762 69.4816L66.9361 70.7504L67.7806 70.6345L67.9996 69.8108L66.762 69.4816ZM73.1277 50.3661V51.6468H83.1389V50.3661V49.0854H73.1277V50.3661ZM92.7094 63.5386L91.4913 63.1429L88.6868 71.7742L89.9049 72.17L91.1229 72.5657L93.9274 63.9344L92.7094 63.5386ZM82.7023 77.4029V76.1222H78.9523V77.4029V78.6836H82.7023V77.4029ZM64.9244 58.0952L66.1424 58.4909L66.8948 56.1752L65.6768 55.7794L64.4588 55.3837L63.7064 57.6994L64.9244 58.0952ZM78.9523 77.4029V76.1222C74.1289 76.1222 70.6428 76.1195 68.0984 75.78C65.5542 75.4406 64.2906 74.8022 63.5788 73.8226L62.5427 74.5753L61.5066 75.3281C62.8492 77.176 65.0053 77.9514 67.7597 78.3189C70.5139 78.6863 74.2055 78.6836 78.9523 78.6836V77.4029ZM64.9244 58.0952L63.7064 57.6994C62.2395 62.2139 61.0962 65.7239 60.5945 68.4569C60.0928 71.1901 60.164 73.4802 61.5066 75.3281L62.5427 74.5753L63.5788 73.8226C62.867 72.8429 62.6504 71.4439 63.1138 68.9193C63.5772 66.3945 64.6519 63.0782 66.1424 58.4909L64.9244 58.0952ZM89.9049 72.17L88.6868 71.7742C88.2765 73.0371 88.002 73.8747 87.7106 74.4997C87.4371 75.0862 87.1927 75.3842 86.895 75.6005L87.6478 76.6366L88.4006 77.6727C89.1577 77.1226 89.641 76.4206 90.032 75.5822C90.405 74.7822 90.7317 73.7697 91.1229 72.5657L89.9049 72.17ZM82.7023 77.4029V78.6836C83.9682 78.6836 85.0322 78.6858 85.9082 78.5783C86.8265 78.4655 87.6434 78.2227 88.4006 77.6727L87.6478 76.6366L86.895 75.6005C86.5974 75.8167 86.2385 75.9571 85.5961 76.036C84.9116 76.12 84.0302 76.1222 82.7023 76.1222V77.4029ZM83.1389 50.3661V51.6468C86.4418 51.6468 88.7875 51.6495 90.4901 51.8767C92.1924 52.1038 92.9128 52.5175 93.2981 53.0479L94.3342 52.2951L95.3703 51.5424C94.3541 50.1437 92.7414 49.5929 90.8288 49.3378C88.9164 49.0826 86.3652 49.0854 83.1389 49.0854V50.3661ZM92.7094 63.5386L93.9274 63.9344C94.9243 60.866 95.7153 58.4405 96.0636 56.5429C96.412 54.6451 96.3865 52.941 95.3703 51.5424L94.3342 52.2951L93.2981 53.0479C93.6835 53.5783 93.8544 54.3912 93.5443 56.0805C93.2342 57.7699 92.512 60.0016 91.4913 63.1429L92.7094 63.5386ZM73.1277 50.3661V49.0854C71.8171 49.0854 70.7196 49.0832 69.8166 49.194C68.8714 49.3101 68.0342 49.5594 67.2589 50.1227L68.0117 51.1588L68.7645 52.1949C69.0803 51.9655 69.4595 51.8185 70.1287 51.7363C70.8401 51.649 71.7551 51.6468 73.1277 51.6468V50.3661ZM65.6768 55.7794L66.8948 56.1752C67.319 54.8698 67.6038 54.0003 67.9067 53.3507C68.1916 52.7396 68.4486 52.4244 68.7645 52.1949L68.0117 51.1588L67.2589 50.1227C66.4836 50.686 65.9877 51.4052 65.5853 52.2683C65.2008 53.0928 64.8638 54.1372 64.4588 55.3837L65.6768 55.7794ZM75.8217 49.5123V50.793H85.0003V49.5123V48.2316H75.8217V49.5123ZM92.2109 59.4368L90.9929 59.041L86.9257 71.5586L88.1437 71.9544L89.3617 72.3501L93.4289 59.8326L92.2109 59.4368ZM84.1699 74.8415V73.5608H71.9555V74.8415V76.1222H84.1699V74.8415ZM65.0072 65.2779L66.2252 65.6736L69.5888 55.3214L68.3708 54.9257L67.1528 54.5299L63.7891 64.8821L65.0072 65.2779ZM71.9555 74.8415V73.5608C69.5471 73.5608 67.8722 73.5581 66.6648 73.397C65.4576 73.236 65.0569 72.9543 64.8635 72.6882L63.8274 73.441L62.7913 74.1937C63.6155 75.3281 64.9087 75.7468 66.3261 75.9359C67.7433 76.125 69.6237 76.1222 71.9555 76.1222V74.8415ZM65.0072 65.2779L63.7891 64.8821C63.0686 67.0999 62.4849 68.8874 62.2267 70.2936C61.9686 71.7001 61.9672 73.0593 62.7913 74.1937L63.8274 73.441L64.8635 72.6882C64.6702 72.422 64.5262 71.9539 64.746 70.756C64.9659 69.558 65.4809 67.9642 66.2252 65.6736L65.0072 65.2779ZM88.1437 71.9544L86.9257 71.5586C86.695 72.2686 86.5553 72.6915 86.4127 72.9971C86.2882 73.2643 86.2069 73.3381 86.1456 73.3826L86.8984 74.4187L87.6512 75.4548C88.1719 75.0765 88.4921 74.5987 88.7342 74.0796C88.9582 73.599 89.1502 73.0012 89.3617 72.3501L88.1437 71.9544ZM84.1699 74.8415V76.1222C84.8544 76.1222 85.4823 76.1244 86.0086 76.0598C86.5771 75.99 87.1305 75.8331 87.6512 75.4548L86.8984 74.4187L86.1456 73.3826C86.0844 73.4271 85.9891 73.4816 85.6965 73.5175C85.3618 73.5586 84.9164 73.5608 84.1699 73.5608V74.8415ZM85.0003 49.5123V50.793C87.4982 50.793 89.2402 50.7957 90.4971 50.9634C91.7538 51.1311 92.1864 51.4259 92.399 51.7185L93.4351 50.9657L94.4712 50.2129C93.6278 49.0521 92.3027 48.6202 90.8358 48.4245C89.3691 48.2288 87.4216 48.2316 85.0003 48.2316V49.5123ZM92.2109 59.4368L93.4289 59.8326C94.1771 57.5298 94.7815 55.6785 95.0487 54.2231C95.3159 52.7675 95.3146 51.3738 94.4712 50.2129L93.4351 50.9657L92.399 51.7185C92.6116 52.011 92.7583 52.5136 92.5294 53.7606C92.3005 55.0078 91.7648 56.6654 90.9929 59.041L92.2109 59.4368ZM75.8217 49.5123V48.2316C74.5111 48.2316 73.4136 48.2294 72.5106 48.3402C71.5654 48.4563 70.7282 48.7057 69.9529 49.2689L70.7057 50.305L71.4585 51.3411C71.7743 51.1117 72.1535 50.9647 72.8227 50.8825C73.5341 50.7952 74.4491 50.793 75.8217 50.793V49.5123ZM68.3708 54.9257L69.5888 55.3214C70.013 54.016 70.2978 53.1465 70.6007 52.4969C70.8857 51.8858 71.1426 51.5706 71.4585 51.3411L70.7057 50.305L69.9529 49.2689C69.1776 49.8322 68.6817 50.5514 68.2793 51.4145C67.8948 52.239 67.5578 53.2834 67.1528 54.5299L68.3708 54.9257ZM66.1768 71.9452L65.1019 72.6415C65.2521 72.8733 65.2902 73.0835 65.2845 73.2012C65.2787 73.3215 65.2456 73.2404 65.3701 73.1598L66.0664 74.2346L66.7627 75.3095C67.5071 74.8273 67.8087 74.033 67.8429 73.3246C67.8772 72.6137 67.6604 71.8799 67.2517 71.2489L66.1768 71.9452ZM66.0664 74.2346L65.3701 73.1598C65.4946 73.0791 65.5551 73.1424 65.443 73.0985C65.3333 73.0556 65.157 72.935 65.0068 72.7031L63.9319 73.3994L62.8571 74.0957C63.2658 74.7267 63.8468 75.2244 64.5096 75.4838C65.1701 75.7422 66.0183 75.7917 66.7627 75.3095L66.0664 74.2346ZM63.9319 73.3994L65.0068 72.7031C64.8566 72.4712 64.8186 72.2611 64.8243 72.1434C64.8301 72.0231 64.8631 72.1042 64.7386 72.1848L64.0423 71.1099L63.3461 70.0351C62.6016 70.5173 62.3 71.3116 62.2659 72.02C62.2316 72.7309 62.4483 73.4646 62.8571 74.0957L63.9319 73.3994ZM64.0423 71.1099L64.7386 72.1848C64.6141 72.2655 64.5536 72.2022 64.6657 72.246C64.7755 72.289 64.9517 72.4096 65.1019 72.6415L66.1768 71.9452L67.2517 71.2489C66.843 70.6179 66.2619 70.1201 65.5991 69.8608C64.9387 69.6023 64.0905 69.5529 63.3461 70.0351L64.0423 71.1099ZM63.5719 71.1825L63.433 72.4556L77.7698 74.0203L77.9087 72.7471L78.0477 71.474L63.7109 69.9093L63.5719 71.1825ZM77.9087 72.7471L77.8134 71.47L64.0708 72.4961L64.1662 73.7733L64.2616 75.0504L78.0041 74.0243L77.9087 72.7471ZM64.1662 73.7733L65.4145 73.4869L64.8202 70.8961L63.5719 71.1825L62.3236 71.4688L62.9179 74.0596L64.1662 73.7733ZM63.5719 71.1825L63.4306 69.9096C62.864 69.9725 62.5524 70.3601 62.4918 70.4347C62.3787 70.5738 62.3031 70.7143 62.2565 70.8176L63.4241 71.3438L64.5917 71.87C64.5729 71.9117 64.5406 71.975 64.4792 72.0505C64.4476 72.0893 64.3837 72.162 64.2824 72.236C64.1851 72.3071 63.9914 72.4244 63.7133 72.4553L63.5719 71.1825ZM63.4241 71.3438L62.2568 70.8169C62.1771 70.9934 62.1229 71.1483 62.0798 71.4122L63.3437 71.6189L64.6076 71.8256C64.6145 71.7831 64.6139 71.7987 64.6023 71.8364C64.5963 71.8559 64.5902 71.872 64.5862 71.882C64.5846 71.8861 64.5838 71.8877 64.5847 71.8858C64.5856 71.8835 64.5875 71.8793 64.5914 71.8707L63.4241 71.3438ZM63.3437 71.6189L62.0649 71.5491C62.0517 71.7899 62.0659 72.0398 62.0969 72.2809L63.3671 72.1176L64.6374 71.9544C64.6215 71.8307 64.6196 71.7405 64.6225 71.6886L63.3437 71.6189ZM63.3671 72.1176L62.0969 72.2809C62.1282 72.5246 62.1785 72.7731 62.244 73.0131L63.4796 72.676L64.7151 72.3389C64.6793 72.2077 64.6529 72.0754 64.6374 71.9544L63.3671 72.1176ZM63.4796 72.676L62.244 73.0131C62.3094 73.2526 62.3917 73.4904 62.4894 73.7116L63.6608 73.1938L64.8322 72.6761C64.7923 72.586 64.751 72.4706 64.7151 72.3389L63.4796 72.676ZM63.6608 73.1938L62.4894 73.7116C62.5846 73.9269 62.7063 74.1535 62.8603 74.3553L63.8783 73.5783L64.8964 72.8013C64.9012 72.8075 64.8955 72.801 64.882 72.7771C64.8689 72.754 64.8518 72.7206 64.8322 72.6761L63.6608 73.1938ZM63.8783 73.5783L62.8603 74.3553C62.9887 74.5236 63.2563 74.8317 63.689 74.9756L64.0932 73.7604L64.4974 72.5451C64.6629 72.6002 64.7688 72.6801 64.8167 72.7207C64.8679 72.7641 64.893 72.7968 64.8964 72.8013L63.8783 73.5783ZM64.0932 73.7604L63.689 74.9756C63.9351 75.0575 64.2407 75.0863 64.5607 74.9888C64.8756 74.8928 65.1028 74.7055 65.2525 74.5251L64.2668 73.7075L63.2811 72.8898C63.3833 72.7666 63.5573 72.6169 63.814 72.5387C64.0757 72.4589 64.3183 72.4856 64.4974 72.5451L64.0932 73.7604ZM64.2668 73.7075L65.4862 73.3162L65.0827 72.0587L63.8632 72.45L62.6438 72.8413L63.0473 74.0988L64.2668 73.7075ZM63.8632 72.45L65.1114 72.1631L64.8201 70.8956L63.5719 71.1825L62.3238 71.4693L62.6151 72.7369L63.8632 72.45ZM75.1576 44.4844V45.7651H82.2418V44.4844V43.2037H75.1576V44.4844ZM91.0256 56.5743L89.8076 56.1785L88.0149 61.6958L89.2329 62.0916L90.451 62.4873L92.2436 56.97L91.0256 56.5743ZM77.5599 70.5725V69.2919H68.9578V70.5725V71.8532H77.5599V70.5725ZM63.4516 62.9938L64.6696 63.3896L68.9247 50.2935L67.7067 49.8978L66.4887 49.502L62.2336 62.5981L63.4516 62.9938ZM68.9578 70.5725V69.2919C67.0413 69.2919 65.7353 69.2891 64.8003 69.1644C63.8655 69.0397 63.6406 68.8307 63.5528 68.7099L62.5167 69.4627L61.4806 70.2154C62.1992 71.2045 63.3166 71.5505 64.4616 71.7033C65.6065 71.856 67.1179 71.8532 68.9578 71.8532V70.5725ZM63.4516 62.9938L62.2336 62.5981C61.665 64.348 61.1953 65.7846 60.9868 66.9206C60.7782 68.0568 60.762 69.2264 61.4806 70.2154L62.5167 69.4627L63.5528 68.7099C63.465 68.5891 63.3358 68.3106 63.5061 67.383C63.6764 66.4552 64.0773 65.2123 64.6696 63.3896L63.4516 62.9938ZM89.2329 62.0916L88.0149 61.6958C87.3558 63.7243 86.8948 65.136 86.3972 66.2033C85.9175 67.2321 85.4472 67.8403 84.8222 68.2944L85.5749 69.3305L86.3277 70.3666C87.4122 69.5787 88.1214 68.5665 88.7186 67.2858C89.2978 66.0436 89.811 64.4568 90.451 62.4873L89.2329 62.0916ZM77.5599 70.5725V71.8532C79.6308 71.8532 81.2984 71.8555 82.6588 71.6884C84.0614 71.5163 85.2432 71.1546 86.3277 70.3666L85.5749 69.3305L84.8222 68.2944C84.1972 68.7485 83.4734 69.0078 82.3467 69.1461C81.1779 69.2896 79.6928 69.2919 77.5599 69.2919V70.5725ZM82.2418 44.4844V45.7651C85.2764 45.7651 87.4208 45.7678 88.9748 45.9751C90.5287 46.1824 91.1531 46.5565 91.4809 47.0077L92.517 46.2549L93.5531 45.5021C92.5945 44.1827 91.0776 43.6716 89.3136 43.4362C87.5497 43.2009 85.1998 43.2037 82.2418 43.2037V44.4844ZM91.0256 56.5743L92.2436 56.97C93.1577 54.1568 93.8865 51.9228 94.2077 50.1725C94.529 48.4221 94.5117 46.8215 93.5531 45.5021L92.517 46.2549L91.4809 47.0077C91.8086 47.4588 91.9715 48.1683 91.6885 49.7101C91.4054 51.2521 90.7454 53.2925 89.8076 56.1785L91.0256 56.5743ZM75.1576 44.4844V43.2037C73.847 43.2037 72.7495 43.2015 71.8465 43.3123C70.9014 43.4284 70.0642 43.6777 69.2889 44.241L70.0416 45.2771L70.7944 46.3132C71.1102 46.0838 71.4894 45.9368 72.1586 45.8546C72.8701 45.7673 73.785 45.7651 75.1576 45.7651V44.4844ZM67.7067 49.8978L68.9247 50.2935C69.3489 48.9881 69.6337 48.1186 69.9366 47.469C70.2216 46.8579 70.4786 46.5427 70.7944 46.3132L70.0416 45.2771L69.2889 44.241C68.5135 44.8043 68.0176 45.5235 67.6152 46.3866C67.2308 47.2111 66.8937 48.2555 66.4887 49.502L67.7067 49.8978ZM63.1096 72.7757L64.3004 73.2472C64.3675 73.0777 64.4083 72.8949 64.4271 72.8137C64.4538 72.6988 64.4715 72.6188 64.4963 72.5306C64.5433 72.363 64.594 72.2524 64.6558 72.1709C64.7127 72.0958 64.9892 71.7376 66.2684 71.8028L66.3336 70.5237L66.3987 69.2447C64.5767 69.1519 63.3431 69.6623 62.6144 70.6239C62.2833 71.0608 62.1222 71.5106 62.0303 71.8382C61.9855 71.9976 61.9519 72.1489 61.9319 72.2356C61.904 72.3559 61.9028 72.3449 61.9189 72.3041L63.1096 72.7757ZM66.3336 70.5237L66.2684 71.8028C66.5206 71.8156 66.9978 71.8163 67.429 71.5425C67.6845 71.3802 67.9124 71.127 68.0302 70.7857C68.1411 70.4645 68.1185 70.1702 68.0735 69.9647C67.9917 69.5906 67.7881 69.2922 67.6576 69.1194C67.5058 68.9182 67.3237 68.7224 67.1413 68.5428C66.4259 67.8386 65.3337 67.0267 64.5737 66.505L63.849 67.5609L63.1242 68.6168C63.852 69.1163 64.7937 69.8261 65.3445 70.3682C65.4785 70.5002 65.565 70.5986 65.6132 70.6625C65.6828 70.7547 65.6107 70.692 65.5713 70.5121C65.5476 70.4037 65.524 70.1961 65.609 69.9498C65.701 69.6834 65.8782 69.4931 66.0557 69.3804C66.3308 69.2057 66.5423 69.252 66.3987 69.2447L66.3336 70.5237ZM63.849 67.5609C62.5898 67.3271 62.5898 67.3271 62.5898 67.3271C62.5898 67.3271 62.5898 67.3272 62.5898 67.3272C62.5897 67.3273 62.5897 67.3274 62.5897 67.3275C62.5896 67.3278 62.5896 67.3282 62.5895 67.3287C62.5893 67.3298 62.589 67.3313 62.5886 67.3332C62.5879 67.3371 62.5869 67.3429 62.5855 67.3504C62.5827 67.3653 62.5787 67.3872 62.5735 67.4152C62.5632 67.4711 62.5485 67.5515 62.5306 67.6497C62.495 67.8458 62.4467 68.1138 62.3965 68.4004C62.3003 68.9499 62.184 69.6393 62.1489 69.9824L63.4229 70.1129L64.6969 70.2434C64.7206 70.0117 64.8174 69.4251 64.9195 68.8423C64.9684 68.5627 65.0157 68.3005 65.0507 68.108C65.0682 68.0118 65.0826 67.9332 65.0926 67.8787C65.0976 67.8515 65.1015 67.8304 65.1042 67.8161C65.1055 67.809 65.1065 67.8035 65.1071 67.7999C65.1075 67.7981 65.1077 67.7968 65.1079 67.7959C65.108 67.7955 65.108 67.7952 65.1081 67.795C65.1081 67.7949 65.1081 67.7948 65.1081 67.7948C65.1081 67.7947 65.1081 67.7947 65.1081 67.7947C65.1081 67.7947 65.1081 67.7947 63.849 67.5609ZM63.4229 70.1129L62.1489 69.9824C62.1208 70.2565 62.044 70.9098 61.9725 71.5079C61.9371 71.804 61.9036 72.0823 61.8789 72.2866C61.8665 72.3888 61.8564 72.4724 61.8493 72.5304C61.8458 72.5594 61.843 72.5821 61.8412 72.5974C61.8402 72.6051 61.8395 72.611 61.8391 72.6149C61.8388 72.6169 61.8386 72.6183 61.8385 72.6193C61.8385 72.6198 61.8384 72.6202 61.8384 72.6204C61.8384 72.6206 61.8384 72.6207 61.8383 72.6207C61.8383 72.6207 61.8383 72.6208 61.8383 72.6208C61.8383 72.6208 61.8383 72.6208 63.1096 72.7757C64.3809 72.9306 64.3809 72.9305 64.3809 72.9305C64.3809 72.9305 64.3809 72.9305 64.3809 72.9304C64.3809 72.9304 64.381 72.9303 64.381 72.9302C64.381 72.9299 64.381 72.9295 64.3811 72.929C64.3812 72.928 64.3814 72.9264 64.3817 72.9244C64.3822 72.9204 64.3829 72.9145 64.3838 72.9067C64.3857 72.8912 64.3885 72.8684 64.392 72.8392C64.3991 72.7809 64.4093 72.6968 64.4217 72.5943C64.4465 72.3891 64.4803 72.1095 64.5158 71.8118C64.5863 71.2222 64.6661 70.544 64.6969 70.2434L63.4229 70.1129ZM75.0937 44.4844V45.7651H84.6752V44.4844V43.2037H75.0937V44.4844ZM90.837 52.9653L89.619 52.5696L87.2085 59.9882L88.4265 60.384L89.6445 60.7797L92.055 53.3611L90.837 52.9653ZM76.7535 68.865V67.5843H66.2233V68.865V70.1456H76.7535V68.865ZM62.9458 64.3538L64.1638 64.7496L68.8609 50.2935L67.6429 49.8978L66.4248 49.502L61.7278 63.9581L62.9458 64.3538ZM66.2233 68.865V67.5843C65.067 67.5843 64.3313 67.5815 63.8172 67.5129C63.3033 67.4444 63.35 67.3477 63.4254 67.4515L62.3893 68.2043L61.3532 68.9571C61.9086 69.7215 62.7544 69.9552 63.4785 70.0518C64.2024 70.1484 65.1436 70.1456 66.2233 70.1456V68.865ZM62.9458 64.3538L61.7278 63.9581C61.3941 64.9849 61.1007 65.8792 60.9688 66.5976C60.8369 67.3161 60.7978 68.1926 61.3532 68.9571L62.3893 68.2043L63.4254 67.4515C63.5009 67.5553 63.3945 67.5699 63.4881 67.06C63.5817 66.5499 63.8065 65.8493 64.1638 64.7496L62.9458 64.3538ZM88.4265 60.384L87.2085 59.9882C86.5494 62.0167 86.0884 63.4284 85.5907 64.4957C85.111 65.5245 84.6407 66.1328 84.0157 66.5868L84.7685 67.6229L85.5213 68.659C86.6058 67.8711 87.315 66.8589 87.9121 65.5782C88.4914 64.336 89.0046 62.7492 89.6445 60.7797L88.4265 60.384ZM76.7535 68.865V70.1456C78.8243 70.1456 80.492 70.1479 81.8524 69.9809C83.255 69.8087 84.4368 69.447 85.5213 68.659L84.7685 67.6229L84.0157 66.5868C83.3907 67.0409 82.6669 67.3002 81.5403 67.4386C80.3714 67.582 78.8863 67.5843 76.7535 67.5843V68.865ZM84.6752 44.4844V45.7651C86.8154 45.7651 88.289 45.7678 89.3478 45.9091C90.4064 46.0503 90.7113 46.2923 90.847 46.4792L91.8831 45.7264L92.9192 44.9736C92.1526 43.9185 90.9554 43.5395 89.6865 43.3702C88.4179 43.2009 86.7388 43.2037 84.6752 43.2037V44.4844ZM90.837 52.9653L92.055 53.3611C92.6927 51.3985 93.2142 49.8024 93.4452 48.5436C93.6763 47.2845 93.6858 46.0287 92.9192 44.9736L91.8831 45.7264L90.847 46.4792C90.9828 46.666 91.1187 47.0307 90.9259 48.0812C90.7331 49.1318 90.2803 50.5342 89.619 52.5696L90.837 52.9653ZM75.0937 44.4844V43.2037C73.7831 43.2037 72.6856 43.2015 71.7827 43.3123C70.8375 43.4284 70.0003 43.6777 69.225 44.241L69.9778 45.2771L70.7305 46.3132C71.0464 46.0838 71.4255 45.9368 72.0948 45.8546C72.8062 45.7673 73.7211 45.7651 75.0937 45.7651V44.4844ZM67.6429 49.8978L68.8609 50.2935C69.285 48.9881 69.5699 48.1186 69.8728 47.469C70.1577 46.8579 70.4147 46.5427 70.7305 46.3132L69.9778 45.2771L69.225 44.241C68.4497 44.8043 67.9538 45.5235 67.5513 46.3866C67.1669 47.2111 66.8298 48.2555 66.4248 49.502L67.6429 49.8978ZM61.5918 71.0469L62.6899 71.7058C62.8155 71.4966 62.8823 71.2726 62.9041 71.2038C62.9402 71.0896 62.9549 71.0409 62.9779 70.9835C63.009 70.9062 63.0446 70.8417 63.138 70.7643C63.3714 70.571 64.1653 70.1456 66.5722 70.1456V68.865V67.5843C63.9987 67.5843 62.4447 68.0127 61.5041 68.7917C61.0105 69.2006 60.7526 69.6519 60.6014 70.0282C60.5333 70.1976 60.4845 70.3601 60.4623 70.43C60.4258 70.5455 60.4392 70.4786 60.4936 70.388L61.5918 71.0469ZM66.5722 68.865V70.1456C66.9032 70.1456 67.3302 70.1258 67.6973 69.9791C67.8824 69.9051 68.2555 69.7193 68.4776 69.2863C68.7337 68.7871 68.6207 68.3078 68.4849 68.0271C68.363 67.7749 68.1911 67.5995 68.0849 67.5015C67.9654 67.3913 67.8368 67.2963 67.719 67.2171C67.4834 67.0585 67.2019 66.9039 66.9136 66.7595C65.7695 66.1861 64.012 65.5234 62.7696 65.0933L62.3507 66.3036L61.9318 67.5138C63.1559 67.9375 64.7804 68.5555 65.766 69.0494C66.0102 69.1718 66.1828 69.2706 66.2892 69.3422C66.3425 69.3781 66.3569 69.3923 66.3481 69.3842C66.3427 69.3792 66.3225 69.3602 66.2953 69.3269C66.2694 69.2952 66.2232 69.2336 66.1792 69.1425C66.0853 68.9485 65.9778 68.5476 66.1986 68.1172C66.3855 67.7529 66.6825 67.6263 66.7466 67.6007C66.8717 67.5507 66.8769 67.5843 66.5722 67.5843V68.865ZM62.3507 66.3036C61.1045 66.0084 61.1045 66.0084 61.1045 66.0085C61.1045 66.0085 61.1044 66.0086 61.1044 66.0086C61.1044 66.0087 61.1044 66.0088 61.1044 66.0089C61.1043 66.0092 61.1042 66.0096 61.1041 66.0101C61.1038 66.0111 61.1035 66.0126 61.1031 66.0144C61.1022 66.0181 61.1009 66.0235 61.0993 66.0304C61.096 66.0443 61.0913 66.0646 61.0852 66.0904C61.0731 66.142 61.0559 66.2159 61.0352 66.3061C60.9937 66.4863 60.9378 66.7328 60.8801 66.9968C60.7739 67.483 60.6335 68.1534 60.6009 68.5118L61.8764 68.6278L63.1518 68.7437C63.1666 68.5804 63.2634 68.0887 63.3825 67.5433C63.4375 67.2914 63.4913 67.0546 63.5313 66.8806C63.5513 66.7937 63.5678 66.7227 63.5793 66.6737C63.585 66.6492 63.5895 66.6302 63.5925 66.6175C63.594 66.6111 63.5951 66.6063 63.5959 66.6031C63.5962 66.6015 63.5965 66.6004 63.5967 66.5996C63.5968 66.5993 63.5968 66.599 63.5969 66.5989C63.5969 66.5988 63.5969 66.5987 63.5969 66.5987C63.5969 66.5987 63.5969 66.5987 63.5969 66.5987C63.5969 66.5987 63.5969 66.5987 62.3507 66.3036ZM61.8764 68.6278L60.6009 68.5118C60.5793 68.7494 60.511 69.3322 60.4448 69.8793C60.4124 70.1477 60.3814 70.4 60.3585 70.5853C60.3471 70.6779 60.3377 70.7537 60.3311 70.8063C60.3279 70.8326 60.3253 70.8531 60.3236 70.867C60.3227 70.8739 60.3221 70.8792 60.3216 70.8828C60.3214 70.8845 60.3212 70.8859 60.3211 70.8867C60.3211 70.8872 60.321 70.8875 60.321 70.8877C60.321 70.8878 60.321 70.8879 60.321 70.888C60.321 70.888 60.321 70.888 60.321 70.888C60.321 70.888 60.321 70.888 61.5918 71.0469C62.8626 71.2057 62.8626 71.2057 62.8626 71.2057C62.8626 71.2057 62.8626 71.2056 62.8626 71.2056C62.8626 71.2055 62.8626 71.2055 62.8626 71.2053C62.8626 71.2051 62.8627 71.2047 62.8627 71.2043C62.8629 71.2033 62.863 71.2019 62.8633 71.2001C62.8637 71.1964 62.8644 71.191 62.8653 71.1839C62.8671 71.1697 62.8696 71.149 62.8729 71.1224C62.8796 71.0692 62.8891 70.9927 62.9006 70.8992C62.9237 70.7125 62.9549 70.4579 62.9877 70.1867C63.052 69.6546 63.126 69.0279 63.1518 68.7437L61.8764 68.6278ZM64.3429 69.8136L65.5444 70.2569L73.8926 47.6314L72.6911 47.1881L71.4896 46.7447L63.1414 69.3703L64.3429 69.8136ZM72.6911 47.1881L71.4534 46.8589L65.5243 69.1524L66.762 69.4816L67.9996 69.8108L73.9288 47.5172L72.6911 47.1881ZM66.762 69.4816L66.5878 68.2128L64.1687 68.5448L64.3429 69.8136L64.517 71.0824L66.9361 70.7504L66.762 69.4816Z" fill="url(#paint6_linear_118_2413)"/>
</g>
<path d="M65.6768 55.7795C66.506 53.2276 66.9205 51.9516 68.0117 51.1589C69.1029 50.3661 70.4445 50.3661 73.1277 50.3661H83.1389C89.6681 50.3661 92.9327 50.3661 94.3342 52.2952C95.7358 54.2242 94.727 57.329 92.7094 63.5386L89.9049 72.17C89.1033 74.6368 88.7026 75.8702 87.6478 76.6366C86.593 77.4029 85.2961 77.4029 82.7024 77.4029H78.9523C69.3821 77.4029 64.597 77.4029 62.5427 74.5754C60.4884 71.7478 61.967 67.1969 64.9244 58.0952L65.6768 55.7795Z" fill="#870000"/>
<mask id="mask0_118_2413" style="mask-type:alpha" maskUnits="userSpaceOnUse" x="61" y="50" width="34" height="28">
<path d="M65.6768 55.7795C66.5059 53.2276 66.9205 51.9516 68.0117 51.1589C69.1028 50.3661 70.4444 50.3661 73.1277 50.3661H83.1389C89.6681 50.3661 92.9327 50.3661 94.3342 52.2952C95.7358 54.2242 94.727 57.329 92.7093 63.5386L89.9049 72.17C89.1033 74.6368 88.7026 75.8702 87.6478 76.6366C86.593 77.4029 85.2961 77.4029 82.7023 77.4029H78.9522C69.3821 77.4029 64.597 77.4029 62.5427 74.5754C60.4884 71.7478 61.967 67.1969 64.9244 58.0952L65.6768 55.7795Z" fill="#B81219"/>
</mask>
<g mask="url(#mask0_118_2413)">
<rect width="24.76" height="42.1205" transform="matrix(1 0 0.309017 0.951057 76.5806 42.9666)" fill="#B81219"/>
</g>
<path d="M68.3708 54.9257C69.2 52.3738 69.6145 51.0979 70.7057 50.3051C71.7969 49.5123 73.1385 49.5123 75.8217 49.5123H85.0003C89.9195 49.5123 92.3792 49.5123 93.4351 50.9657C94.4911 52.4192 93.731 54.7584 92.2109 59.4369L88.1437 71.9544C87.7015 73.3154 87.4804 73.9959 86.8984 74.4188C86.3165 74.8416 85.6009 74.8416 84.1699 74.8416H71.9556C67.2152 74.8416 64.845 74.8416 63.8275 73.441C62.8099 72.0404 63.5423 69.7863 65.0072 65.2779L68.3708 54.9257Z" fill="url(#paint7_linear_118_2413)"/>
<mask id="mask1_118_2413" style="mask-type:alpha" maskUnits="userSpaceOnUse" x="63" y="49" width="31" height="26">
<path d="M68.3708 54.9257C69.2 52.3738 69.6146 51.0979 70.7057 50.3051C71.7969 49.5123 73.1385 49.5123 75.8217 49.5123H85.0003C89.9196 49.5123 92.3792 49.5123 93.4351 50.9657C94.4911 52.4192 93.731 54.7584 92.2109 59.4369L88.1437 71.9544C87.7015 73.3154 87.4804 73.9959 86.8984 74.4188C86.3165 74.8416 85.601 74.8416 84.1699 74.8416H71.9556C67.2152 74.8416 64.845 74.8416 63.8275 73.441C62.8099 72.0404 63.5423 69.7863 65.0072 65.2779L68.3708 54.9257Z" fill="#E0B05D"/>
</mask>
<g mask="url(#mask1_118_2413)">
<ellipse cx="93.0832" cy="59.3841" rx="8.54954" ry="16.4593" transform="rotate(23.5588 93.0832 59.3841)" fill="url(#paint8_linear_118_2413)"/>
</g>
<ellipse cx="65.0544" cy="72.6723" rx="1.33736" ry="1.8615" transform="rotate(-32.934 65.0544 72.6723)" fill="#C68643"/>
<mask id="mask2_118_2413" style="mask-type:alpha" maskUnits="userSpaceOnUse" x="63" y="49" width="31" height="26">
<path d="M68.3708 54.9257C69.2 52.3738 69.6145 51.0979 70.7057 50.3051C71.7969 49.5123 73.1385 49.5123 75.8217 49.5123H85.0003C89.9195 49.5123 92.3792 49.5123 93.4351 50.9657C94.4911 52.4192 93.731 54.7584 92.2109 59.4369L88.1437 71.9544C87.7015 73.3154 87.4804 73.9959 86.8984 74.4188C86.3165 74.8416 85.601 74.8416 84.1699 74.8416H71.9556C67.2152 74.8416 64.845 74.8416 63.8275 73.441C62.8099 72.0404 63.5423 69.7863 65.0072 65.2779L68.3708 54.9257Z" fill="#E0B05D"/>
</mask>
<g mask="url(#mask2_118_2413)">
<path d="M63.8507 50.3721C64.6799 47.8202 65.0944 46.5443 66.1856 45.7515C67.2768 44.9587 68.6184 44.9587 71.3016 44.9587H82.7371C88.7296 44.9587 91.7259 44.9587 93.0122 46.7293C94.2986 48.4998 93.3727 51.3494 91.5209 57.0486L89.7282 62.5659C88.4292 66.5639 87.7797 68.5629 86.0702 69.8049C84.3607 71.0469 82.2589 71.0469 78.0552 71.0469H65.1018C61.3453 71.0469 59.4671 71.0469 58.6607 69.937C57.8543 68.8272 58.4347 67.0408 59.5955 63.4682L63.8507 50.3721Z" fill="url(#paint9_linear_118_2413)"/>
</g>
<path d="M77.9087 72.7471L63.5719 71.1824L64.1662 73.7732L77.9087 72.7471Z" fill="#BF7B3D"/>
<path d="M63.5719 71.1824C63.5108 71.1892 63.4518 71.2822 63.4241 71.3437C63.3862 71.4278 63.3671 71.4754 63.3437 71.6188C63.3357 71.7652 63.3437 71.9352 63.3671 72.1176C63.3906 72.2999 63.4289 72.4903 63.4796 72.6759C63.5302 72.8616 63.592 73.0382 63.6608 73.1938C63.7296 73.3494 63.8038 73.4805 63.8783 73.5782C63.9529 73.676 64.0262 73.738 64.0932 73.7603C64.1602 73.7826 64.2194 73.7646 64.2668 73.7074L63.8632 72.4499L63.5719 71.1824Z" fill="#BF7B3D"/>
<path d="M67.7067 49.8978C68.5359 47.3459 68.9505 46.0699 70.0416 45.2771C71.1328 44.4844 72.4744 44.4844 75.1576 44.4844H82.2418C88.2343 44.4844 91.2306 44.4844 92.517 46.2549C93.8033 48.0254 92.8774 50.875 91.0256 56.5743L89.233 62.0916C87.9339 66.0895 87.2844 68.0885 85.575 69.3305C83.8655 70.5725 81.7636 70.5725 77.5599 70.5725H68.9578C65.2013 70.5725 63.3231 70.5725 62.5167 69.4627C61.7103 68.3528 62.2907 66.5665 63.4516 62.9938L67.7067 49.8978Z" fill="url(#paint10_linear_118_2413)"/>
<mask id="mask3_118_2413" style="mask-type:alpha" maskUnits="userSpaceOnUse" x="62" y="44" width="32" height="27">
<path d="M67.7067 49.8978C68.5359 47.3459 68.9505 46.0699 70.0416 45.2771C71.1328 44.4844 72.4744 44.4844 75.1576 44.4844H82.2418C88.2343 44.4844 91.2306 44.4844 92.517 46.2549C93.8033 48.0254 92.8774 50.875 91.0256 56.5743L89.2329 62.0916C87.9339 66.0895 87.2844 68.0885 85.5749 69.3305C83.8655 70.5725 81.7636 70.5725 77.5599 70.5725H68.9578C65.2013 70.5725 63.3231 70.5725 62.5167 69.4627C61.7103 68.3528 62.2907 66.5665 63.4516 62.9938L67.7067 49.8978Z" fill="url(#paint11_linear_118_2413)"/>
</mask>
<g mask="url(#mask3_118_2413)">
<path d="M75.1102 72.2801L74.6833 68.9598L87.7274 62.2718L88.9132 63.9794C88.6444 66.3036 88.1068 71.0279 88.1068 71.3315C88.1068 71.6351 79.4424 72.0904 75.1102 72.2801Z" fill="url(#paint12_linear_118_2413)"/>
<path d="M91.4271 55.7735L90.9054 52.5954C90.431 51.5835 89.4824 49.5028 89.4824 49.2751C89.4824 48.9905 86.1621 43.8678 86.0672 43.3934C85.9913 43.014 88.3124 42.5713 89.4824 42.3973C91.0002 43.4409 94.0834 45.5659 94.2731 45.7177C94.4628 45.8694 92.4548 52.4848 91.4271 55.7735Z" fill="url(#paint13_linear_118_2413)"/>
</g>
<path d="M66.3336 70.5238C63.2323 70.3658 63.3135 72.2609 63.1096 72.7757C63.1096 72.7757 63.364 70.6877 63.4229 70.1129C63.4818 69.5382 63.849 67.5609 63.849 67.5609C65.3368 68.5821 67.9167 70.6044 66.3336 70.5238Z" fill="#870000"/>
<g filter="url(#filter2_i_118_2413)">
<path d="M67.6429 49.8978C68.472 47.3459 68.8866 46.0699 69.9778 45.2771C71.0689 44.4844 72.4105 44.4844 75.0937 44.4844H84.6752C88.8789 44.4844 90.9808 44.4844 91.8831 45.7264C92.7855 46.9684 92.136 48.9674 90.837 52.9653L88.4265 60.384C87.1275 64.382 86.478 66.3809 84.7685 67.6229C83.059 68.865 80.9572 68.865 76.7535 68.865H66.2233C63.9873 68.865 62.8693 68.865 62.3893 68.2043C61.9094 67.5437 62.2548 66.4804 62.9458 64.3538L67.6429 49.8978Z" fill="url(#paint14_linear_118_2413)"/>
<path d="M66.5722 68.865C61.5918 68.865 61.8764 70.5725 61.5918 71.0469C61.5918 71.0469 61.8289 69.1496 61.8764 68.6278C61.9238 68.106 62.3507 66.3036 62.3507 66.3036C64.8172 67.1574 69.1146 68.865 66.5722 68.865Z" fill="url(#paint15_linear_118_2413)"/>
</g>
<mask id="mask4_118_2413" style="mask-type:alpha" maskUnits="userSpaceOnUse" x="61" y="44" width="32" height="28">
<path d="M67.6428 49.8978C68.472 47.3459 68.8866 46.0699 69.9777 45.2771C71.0689 44.4844 72.4105 44.4844 75.0937 44.4844H84.6752C88.8789 44.4844 90.9807 44.4844 91.8831 45.7264C92.7855 46.9684 92.136 48.9674 90.8369 52.9653L88.4265 60.384C87.1275 64.382 86.4779 66.3809 84.7685 67.6229C83.059 68.865 80.9571 68.865 76.7534 68.865H66.2233C63.9873 68.865 62.8693 68.865 62.3893 68.2043C61.9093 67.5437 62.2548 66.4804 62.9458 64.3538L67.6428 49.8978Z" fill="url(#paint16_linear_118_2413)"/>
<path d="M66.5722 68.865C61.5917 68.865 61.8763 70.5725 61.5917 71.0469C61.5917 71.0469 61.8289 69.1496 61.8763 68.6278C61.9238 68.106 62.3506 66.3036 62.3506 66.3036C64.8172 67.1574 69.1146 68.865 66.5722 68.865Z" fill="url(#paint17_linear_118_2413)"/>
</mask>
<g mask="url(#mask4_118_2413)">
<path d="M74.3986 42.1127C71.442 50.9985 65.5287 68.8839 65.5287 69.3393L62.4929 71.9956L56.801 74.889L63.3467 38.745L74.3986 42.1127Z" fill="url(#paint18_linear_118_2413)"/>
</g>
<mask id="mask5_118_2413" style="mask-type:alpha" maskUnits="userSpaceOnUse" x="61" y="44" width="32" height="28">
<path d="M67.6429 49.8978C68.472 47.3459 68.8866 46.0699 69.9778 45.2771C71.0689 44.4844 72.4105 44.4844 75.0937 44.4844H84.6752C88.8789 44.4844 90.9808 44.4844 91.8831 45.7264C92.7855 46.9684 92.136 48.9674 90.837 52.9653L88.4265 60.384C87.1275 64.382 86.478 66.3809 84.7685 67.6229C83.059 68.865 80.9572 68.865 76.7535 68.865H66.2233C63.9873 68.865 62.8693 68.865 62.3893 68.2043C61.9094 67.5437 62.2548 66.4804 62.9458 64.3538L67.6429 49.8978Z" fill="url(#paint19_linear_118_2413)"/>
<path d="M66.5722 68.865C61.5918 68.865 61.8764 70.5725 61.5918 71.0469C61.5918 71.0469 61.8289 69.1496 61.8764 68.6278C61.9238 68.106 62.3507 66.3036 62.3507 66.3036C64.8172 67.1574 69.1146 68.865 66.5722 68.865Z" fill="url(#paint20_linear_118_2413)"/>
</mask>
<g mask="url(#mask5_118_2413)">
<ellipse cx="80.1855" cy="48.8957" rx="16.7913" ry="7.16239" fill="url(#paint21_linear_118_2413)" fill-opacity="0.6"/>
</g>
<g filter="url(#filter3_i_118_2413)">
<mask id="mask6_118_2413" style="mask-type:alpha" maskUnits="userSpaceOnUse" x="61" y="44" width="32" height="28">
<path d="M67.6429 49.8978C68.472 47.3459 68.8866 46.0699 69.9778 45.2771C71.0689 44.4844 72.4105 44.4844 75.0937 44.4844H84.6752C88.8789 44.4844 90.9808 44.4844 91.8831 45.7264C92.7855 46.9684 92.136 48.9674 90.837 52.9653L88.4265 60.384C87.1275 64.382 86.478 66.3809 84.7685 67.6229C83.059 68.865 80.9572 68.865 76.7535 68.865H66.2233C63.9873 68.865 62.8693 68.865 62.3893 68.2043C61.9094 67.5437 62.2548 66.4804 62.9458 64.3538L67.6429 49.8978Z" fill="url(#paint22_linear_118_2413)"/>
<path d="M66.5722 68.865C61.5918 68.865 61.8764 70.5725 61.5918 71.0469C61.5918 71.0469 61.8289 69.1496 61.8764 68.6278C61.9238 68.106 62.3507 66.3036 62.3507 66.3036C64.8172 67.1574 69.1146 68.865 66.5722 68.865Z" fill="url(#paint23_linear_118_2413)"/>
</mask>
<g mask="url(#mask6_118_2413)">
<path d="M92.7552 54.464L82.6046 43.9245L95.5538 43.0614L92.7552 54.464Z" fill="url(#paint24_linear_118_2413)"/>
<path d="M74.7781 68.865L88.676 61.8235L87.9645 68.865H74.7781Z" fill="url(#paint25_linear_118_2413)"/>
</g>
</g>
<path d="M72.6911 47.1881L64.3429 69.8137L66.762 69.4816L72.6911 47.1881Z" fill="url(#paint26_linear_118_2413)"/>
<path d="M111.103 66.25L115.49 56.5562H116.933L121.32 66.25H119.532L118.363 63.5275L119.106 64.0087H113.303L114.046 63.5275L112.891 66.25H111.103ZM116.191 58.4675L114.266 63.0462L113.908 62.6062H118.501L118.157 63.0462L116.218 58.4675H116.191ZM125.257 66.3875C124.46 66.3875 123.868 66.1721 123.483 65.7412C123.108 65.3012 122.92 64.6596 122.92 63.8162V56.5562H124.638V63.7337C124.638 63.9996 124.675 64.2287 124.748 64.4212C124.831 64.6046 124.95 64.7421 125.106 64.8337C125.262 64.9254 125.454 64.9712 125.683 64.9712C125.784 64.9712 125.885 64.9667 125.986 64.9575C126.087 64.9483 126.183 64.93 126.275 64.9025L126.247 66.2638C126.082 66.3004 125.917 66.3279 125.752 66.3463C125.596 66.3738 125.431 66.3875 125.257 66.3875ZM131.893 66.3875C131.324 66.3875 130.825 66.2454 130.394 65.9612C129.972 65.6771 129.693 65.2967 129.555 64.82H129.693V66.25H128.015V56.5562H129.734V60.8875H129.569C129.715 60.4383 130 60.0762 130.421 59.8012C130.843 59.5262 131.333 59.3887 131.893 59.3887C132.488 59.3887 133.006 59.5308 133.446 59.815C133.886 60.0992 134.23 60.5025 134.478 61.025C134.725 61.5383 134.849 62.1571 134.849 62.8812C134.849 63.5962 134.725 64.2196 134.478 64.7512C134.23 65.2737 133.882 65.6771 133.433 65.9612C132.993 66.2454 132.479 66.3875 131.893 66.3875ZM131.411 65.0812C131.925 65.0812 132.337 64.8979 132.649 64.5312C132.96 64.1554 133.116 63.6054 133.116 62.8812C133.116 62.1479 132.96 61.6025 132.649 61.245C132.337 60.8783 131.925 60.695 131.411 60.695C130.898 60.695 130.485 60.8783 130.174 61.245C129.862 61.6025 129.706 62.1479 129.706 62.8812C129.706 63.6054 129.862 64.1554 130.174 64.5312C130.485 64.8979 130.898 65.0812 131.411 65.0812ZM139.398 66.3875C138.839 66.3875 138.376 66.2867 138.009 66.085C137.642 65.8742 137.367 65.5625 137.184 65.15C137.01 64.7375 136.923 64.2242 136.923 63.61V59.5262H138.642V63.6375C138.642 63.9492 138.683 64.2104 138.765 64.4212C138.857 64.6321 138.99 64.7879 139.164 64.8887C139.347 64.9896 139.577 65.04 139.852 65.04C140.163 65.04 140.434 64.9712 140.663 64.8337C140.901 64.6871 141.085 64.4854 141.213 64.2288C141.35 63.9629 141.419 63.6558 141.419 63.3075V59.5262H143.138V66.25H141.46V64.8475H141.653C141.46 65.3425 141.167 65.7229 140.773 65.9887C140.388 66.2546 139.93 66.3875 139.398 66.3875ZM145.659 66.25V59.5262H147.336V60.8737H147.185C147.304 60.5621 147.469 60.2962 147.68 60.0762C147.891 59.8562 148.143 59.6867 148.436 59.5675C148.73 59.4483 149.055 59.3887 149.413 59.3887C149.953 59.3887 150.398 59.5171 150.746 59.7737C151.095 60.0304 151.338 60.4246 151.475 60.9562H151.283C151.466 60.4704 151.768 60.09 152.19 59.815C152.612 59.5308 153.098 59.3887 153.648 59.3887C154.161 59.3887 154.583 59.4896 154.913 59.6912C155.252 59.8929 155.504 60.2 155.669 60.6125C155.834 61.0158 155.916 61.5292 155.916 62.1525V66.25H154.198V62.2212C154.198 61.7079 154.11 61.3321 153.936 61.0937C153.771 60.8554 153.487 60.7362 153.084 60.7362C152.79 60.7362 152.534 60.8096 152.314 60.9562C152.094 61.0937 151.924 61.2954 151.805 61.5612C151.695 61.8271 151.64 62.1479 151.64 62.5237V66.25H149.921V62.2212C149.921 61.7079 149.834 61.3321 149.66 61.0937C149.495 60.8554 149.215 60.7362 148.821 60.7362C148.519 60.7362 148.258 60.8096 148.038 60.9562C147.827 61.0937 147.662 61.2954 147.543 61.5612C147.433 61.8271 147.378 62.1479 147.378 62.5237V66.25H145.659Z" fill="#202224"/>
<mask id="mask7_118_2413" style="mask-type:alpha" maskUnits="userSpaceOnUse" x="33" y="34" width="37" height="55">
<path d="M34.171 43.6125C34.171 39.1321 37.8031 35.5 42.2835 35.5H53.557C62.1804 35.5 69.171 42.4906 69.171 51.114V72.386C69.171 81.0094 62.1804 88 53.557 88H42.2835C37.8031 88 34.171 84.3679 34.171 79.8875V43.6125Z" fill="white" stroke="url(#paint27_linear_118_2413)" stroke-opacity="0.3" stroke-width="1.62697"/>
</mask>
<g mask="url(#mask7_118_2413)">
<rect x="32.921" y="34.4904" width="17.5" height="54.5192" fill="#587ED7"/>
</g>
<defs>
<filter id="filter0_d_118_2413" x="0.792663" y="0.87165" width="277.71" height="130.21" filterUnits="userSpaceOnUse" color-interpolation-filters="sRGB">
<feFlood flood-opacity="0" result="BackgroundImageFix"/>
<feColorMatrix in="SourceAlpha" type="matrix" values="0 0 0 0 0 0 0 0 0 0 0 0 0 0 0 0 0 0 127 0" result="hardAlpha"/>
<feOffset dx="4.22686" dy="4.22686"/>
<feGaussianBlur stdDeviation="19.0209"/>
<feColorMatrix type="matrix" values="0 0 0 0 0 0 0 0 0 0 0 0 0 0 0 0 0 0 0.05 0"/>
<feBlend mode="normal" in2="BackgroundImageFix" result="effect1_dropShadow_118_2413"/>
<feBlend mode="normal" in="SourceGraphic" in2="effect1_dropShadow_118_2413" result="shape"/>
</filter>
<filter id="filter1_d_118_2413" x="60.308" y="43.2037" width="36.6218" height="36.808" filterUnits="userSpaceOnUse" color-interpolation-filters="sRGB">
<feFlood flood-opacity="0" result="BackgroundImageFix"/>
<feColorMatrix in="SourceAlpha" type="matrix" values="0 0 0 0 0 0 0 0 0 0 0 0 0 0 0 0 0 0 127 0" result="hardAlpha"/>
<feOffset dx="0.664062" dy="1.32812"/>
<feComposite in2="hardAlpha" operator="out"/>
<feColorMatrix type="matrix" values="0 0 0 0 0.2125 0 0 0 0 0 0 0 0 0 0 0 0 0 1 0"/>
<feBlend mode="normal" in2="BackgroundImageFix" result="effect1_dropShadow_118_2413"/>
<feBlend mode="normal" in="SourceGraphic" in2="effect1_dropShadow_118_2413" result="shape"/>
</filter>
<filter id="filter2_i_118_2413" x="61.5918" y="44.4844" width="30.7105" height="26.5625" filterUnits="userSpaceOnUse" color-interpolation-filters="sRGB">
<feFlood flood-opacity="0" result="BackgroundImageFix"/>
<feBlend mode="normal" in="SourceGraphic" in2="BackgroundImageFix" result="shape"/>
<feColorMatrix in="SourceAlpha" type="matrix" values="0 0 0 0 0 0 0 0 0 0 0 0 0 0 0 0 0 0 127 0" result="hardAlpha"/>
<feOffset dx="-0.664062" dy="-0.758929"/>
<feComposite in2="hardAlpha" operator="arithmetic" k2="-1" k3="1"/>
<feColorMatrix type="matrix" values="0 0 0 0 1 0 0 0 0 0.281167 0 0 0 0 0.0541667 0 0 0 1 0"/>
<feBlend mode="normal" in2="shape" result="effect1_innerShadow_118_2413"/>
</filter>
<filter id="filter3_i_118_2413" x="74.7781" y="44.4844" width="17.5241" height="24.3806" filterUnits="userSpaceOnUse" color-interpolation-filters="sRGB">
<feFlood flood-opacity="0" result="BackgroundImageFix"/>
<feBlend mode="normal" in="SourceGraphic" in2="BackgroundImageFix" result="shape"/>
<feColorMatrix in="SourceAlpha" type="matrix" values="0 0 0 0 0 0 0 0 0 0 0 0 0 0 0 0 0 0 127 0" result="hardAlpha"/>
<feOffset dx="-0.664062" dy="-0.758929"/>
<feComposite in2="hardAlpha" operator="arithmetic" k2="-1" k3="1"/>
<feColorMatrix type="matrix" values="0 0 0 0 1 0 0 0 0 0.92 0 0 0 0 0.2 0 0 0 1 0"/>
<feBlend mode="normal" in2="shape" result="effect1_innerShadow_118_2413"/>
</filter>
<linearGradient id="paint0_linear_118_2413" x1="81.0253" y1="16.5373" x2="172.825" y2="127.865" gradientUnits="userSpaceOnUse">
<stop stop-color="#F1F1F1"/>
<stop offset="1" stop-color="#E1E1E1"/>
</linearGradient>
<linearGradient id="paint1_linear_118_2413" x1="74.873" y1="50.3661" x2="67.758" y2="71.0469" gradientUnits="userSpaceOnUse">
<stop stop-color="#B70A0A"/>
<stop offset="1" stop-color="#5D0010"/>
</linearGradient>
<linearGradient id="paint2_linear_118_2413" x1="98.58" y1="50.2302" x2="89.5608" y2="77.6779" gradientUnits="userSpaceOnUse">
<stop stop-color="#C00D12"/>
<stop offset="1" stop-color="#5E0010"/>
</linearGradient>
<linearGradient id="paint3_linear_118_2413" x1="94.0851" y1="45.3073" x2="72.4602" y2="63.52" gradientUnits="userSpaceOnUse">
<stop offset="0.0620359" stop-color="#FC2424"/>
<stop offset="1" stop-color="#BD1818"/>
</linearGradient>
<linearGradient id="paint4_linear_118_2413" x1="94.0851" y1="45.3073" x2="72.4602" y2="63.52" gradientUnits="userSpaceOnUse">
<stop offset="0.0620359" stop-color="#FC2424"/>
<stop offset="1" stop-color="#BD1818"/>
</linearGradient>
<linearGradient id="paint5_linear_118_2413" x1="74.873" y1="50.3661" x2="67.758" y2="71.0469" gradientUnits="userSpaceOnUse">
<stop stop-color="#B70A0A"/>
<stop offset="1" stop-color="#5D0010"/>
</linearGradient>
<linearGradient id="paint6_linear_118_2413" x1="78.2869" y1="44.4844" x2="78.2869" y2="77.4029" gradientUnits="userSpaceOnUse">
<stop stop-color="#880000"/>
<stop offset="1" stop-color="#4D0000"/>
</linearGradient>
<linearGradient id="paint7_linear_118_2413" x1="79.8061" y1="71.711" x2="65.5673" y2="77.5233" gradientUnits="userSpaceOnUse">
<stop stop-color="#E0B05D"/>
<stop offset="1" stop-color="#C68643"/>
</linearGradient>
<linearGradient id="paint8_linear_118_2413" x1="93.0832" y1="42.9248" x2="93.0832" y2="75.8433" gradientUnits="userSpaceOnUse">
<stop stop-color="#FFE3B3"/>
<stop offset="1" stop-color="#FFD48B"/>
</linearGradient>
<linearGradient id="paint9_linear_118_2413" x1="65.1187" y1="71.9007" x2="89.5372" y2="34.9376" gradientUnits="userSpaceOnUse">
<stop stop-color="#9B2929" stop-opacity="0.58"/>
<stop offset="1" stop-color="#9B292C" stop-opacity="0"/>
</linearGradient>
<linearGradient id="paint10_linear_118_2413" x1="96.2179" y1="49.0379" x2="87.1509" y2="72.6648" gradientUnits="userSpaceOnUse">
<stop stop-color="#E11D22"/>
<stop offset="1" stop-color="#870000"/>
<stop offset="1" stop-color="#5E0010"/>
</linearGradient>
<linearGradient id="paint11_linear_118_2413" x1="96.2179" y1="49.0379" x2="87.1508" y2="72.6648" gradientUnits="userSpaceOnUse">
<stop stop-color="#C00D12"/>
<stop offset="1" stop-color="#5E0010"/>
</linearGradient>
<linearGradient id="paint12_linear_118_2413" x1="94.8897" y1="47.1406" x2="75.4422" y2="72.2801" gradientUnits="userSpaceOnUse">
<stop offset="0.0544723" stop-color="#D67114"/>
<stop offset="1" stop-color="#9B3B25"/>
</linearGradient>
<linearGradient id="paint13_linear_118_2413" x1="94.8897" y1="47.1406" x2="75.4422" y2="72.2801" gradientUnits="userSpaceOnUse">
<stop offset="0.0544723" stop-color="#D67114"/>
<stop offset="1" stop-color="#9B3B25"/>
</linearGradient>
<linearGradient id="paint14_linear_118_2413" x1="91.4746" y1="45.1484" x2="73.7821" y2="62.1295" gradientUnits="userSpaceOnUse">
<stop stop-color="#FC3E24"/>
<stop offset="1" stop-color="#C10000"/>
</linearGradient>
<linearGradient id="paint15_linear_118_2413" x1="91.4746" y1="45.1484" x2="73.7821" y2="62.1295" gradientUnits="userSpaceOnUse">
<stop stop-color="#FC3E24"/>
<stop offset="1" stop-color="#C10000"/>
</linearGradient>
<linearGradient id="paint16_linear_118_2413" x1="91.4745" y1="45.1484" x2="73.782" y2="62.1295" gradientUnits="userSpaceOnUse">
<stop stop-color="#FC3E24"/>
<stop offset="1" stop-color="#C10000"/>
</linearGradient>
<linearGradient id="paint17_linear_118_2413" x1="91.4745" y1="45.1484" x2="73.782" y2="62.1295" gradientUnits="userSpaceOnUse">
<stop stop-color="#FC3E24"/>
<stop offset="1" stop-color="#C10000"/>
</linearGradient>
<linearGradient id="paint18_linear_118_2413" x1="69.2284" y1="44.5793" x2="76.1062" y2="46.9035" gradientUnits="userSpaceOnUse">
<stop offset="0.167371" stop-color="#870000" stop-opacity="0.38"/>
<stop offset="1" stop-color="#FF0000" stop-opacity="0"/>
</linearGradient>
<linearGradient id="paint19_linear_118_2413" x1="91.4746" y1="45.1484" x2="73.7821" y2="62.1295" gradientUnits="userSpaceOnUse">
<stop offset="0.0620359" stop-color="#FC2424"/>
<stop offset="1" stop-color="#BD1818"/>
</linearGradient>
<linearGradient id="paint20_linear_118_2413" x1="91.4746" y1="45.1484" x2="73.7821" y2="62.1295" gradientUnits="userSpaceOnUse">
<stop offset="0.0620359" stop-color="#FC2424"/>
<stop offset="1" stop-color="#BD1818"/>
</linearGradient>
<linearGradient id="paint21_linear_118_2413" x1="81.7975" y1="57.322" x2="72.3452" y2="45.1199" gradientUnits="userSpaceOnUse">
<stop stop-color="#FF7E46"/>
<stop offset="1" stop-color="#FF7E46" stop-opacity="0"/>
</linearGradient>
<linearGradient id="paint22_linear_118_2413" x1="91.4746" y1="45.1484" x2="73.7821" y2="62.1295" gradientUnits="userSpaceOnUse">
<stop offset="0.0620359" stop-color="#FC2424"/>
<stop offset="1" stop-color="#BD1818"/>
</linearGradient>
<linearGradient id="paint23_linear_118_2413" x1="91.4746" y1="45.1484" x2="73.7821" y2="62.1295" gradientUnits="userSpaceOnUse">
<stop offset="0.0620359" stop-color="#FC2424"/>
<stop offset="1" stop-color="#BD1818"/>
</linearGradient>
<linearGradient id="paint24_linear_118_2413" x1="95.5538" y1="52.216" x2="69.6554" y2="64.0268" gradientUnits="userSpaceOnUse">
<stop offset="0.0645942" stop-color="#FFD74B"/>
<stop offset="1" stop-color="#FF8A00"/>
</linearGradient>
<linearGradient id="paint25_linear_118_2413" x1="95.5538" y1="52.216" x2="69.6554" y2="64.0268" gradientUnits="userSpaceOnUse">
<stop offset="0.0645942" stop-color="#FFD74B"/>
<stop offset="1" stop-color="#FF8A00"/>
</linearGradient>
<linearGradient id="paint26_linear_118_2413" x1="74.873" y1="50.3661" x2="67.7581" y2="71.0469" gradientUnits="userSpaceOnUse">
<stop stop-color="#B70A0A"/>
<stop offset="1" stop-color="#870000"/>
</linearGradient>
<linearGradient id="paint27_linear_118_2413" x1="42.1518" y1="16.5373" x2="80.1327" y2="24.5979" gradientUnits="userSpaceOnUse">
<stop stop-color="#F1F1F1"/>
<stop offset="1" stop-color="#E1E1E1"/>
</linearGradient>
</defs>
</svg>
