<svg width="277" height="132" viewBox="0 0 277 132" fill="none" xmlns="http://www.w3.org/2000/svg">
<g filter="url(#filter0_d_118_1890)">
<rect x="35" y="35.5" width="198.75" height="52.5" rx="8.1125" fill="white"/>
<rect x="35" y="35.5" width="198.75" height="52.5" rx="8.1125" stroke="url(#paint0_linear_118_1890)" stroke-opacity="0.3" stroke-width="1.62697"/>
</g>
<g filter="url(#filter1_d_118_1890)">
<mask id="path-3-outside-1_118_1890" maskUnits="userSpaceOnUse" x="56.2412" y="42.2695" width="41.7464" height="39.5685" fill="black">
<rect fill="white" x="56.2412" y="42.2695" width="41.7464" height="39.5685"/>
<path d="M67.7357 52.1257C70.3648 49.4687 74.1029 47.8084 78.2504 47.8084C86.2087 47.8084 92.6603 53.9203 92.6605 61.4596C92.6605 68.9991 86.2091 75.1118 78.2508 75.1119C77.0136 75.1119 75.8125 74.9637 74.6667 74.6859C74.4922 75.1652 74.3041 75.5713 74.1271 75.8839C73.0946 76.6707 71.8362 77.0081 71.0829 77.1166C70.3678 77.3773 69.1001 77.6749 67.8186 77.4701C66.1705 76.4296 62.9284 73.1453 63.1479 68.3332C63.2116 66.9379 63.5289 65.8333 63.8142 64.8397C63.9069 64.517 63.9931 64.2049 64.0692 63.8995C63.9185 63.108 63.8405 62.2924 63.8405 61.4598C63.8405 61.1114 63.8542 60.7662 63.8812 60.4244C63.8609 60.3785 63.842 60.3313 63.8199 60.2848C63.5821 59.7844 63.3028 59.3006 63.0276 58.8235C62.1517 57.3046 61.3123 55.8479 61.9443 54.1064C62.5845 52.343 64.0118 51.8401 64.6421 51.672L64.6418 51.671L64.7242 51.6503L64.7245 51.6513C65.2816 51.5197 66.5006 51.326 67.7357 52.1257Z"/>
</mask>
<path d="M67.7357 52.1257C70.3648 49.4687 74.1029 47.8084 78.2504 47.8084C86.2087 47.8084 92.6603 53.9203 92.6605 61.4596C92.6605 68.9991 86.2091 75.1118 78.2508 75.1119C77.0136 75.1119 75.8125 74.9637 74.6667 74.6859C74.4922 75.1652 74.3041 75.5713 74.1271 75.8839C73.0946 76.6707 71.8362 77.0081 71.0829 77.1166C70.3678 77.3773 69.1001 77.6749 67.8186 77.4701C66.1705 76.4296 62.9284 73.1453 63.1479 68.3332C63.2116 66.9379 63.5289 65.8333 63.8142 64.8397C63.9069 64.517 63.9931 64.2049 64.0692 63.8995C63.9185 63.108 63.8405 62.2924 63.8405 61.4598C63.8405 61.1114 63.8542 60.7662 63.8812 60.4244C63.8609 60.3785 63.842 60.3313 63.8199 60.2848C63.5821 59.7844 63.3028 59.3006 63.0276 58.8235C62.1517 57.3046 61.3123 55.8479 61.9443 54.1064C62.5845 52.343 64.0118 51.8401 64.6421 51.672L64.6418 51.671L64.7242 51.6503L64.7245 51.6513C65.2816 51.5197 66.5006 51.326 67.7357 52.1257Z" fill="#FDEDDD"/>
<path d="M67.7357 52.1257L66.8382 53.5121L67.9653 54.2417L68.9097 53.2873L67.7357 52.1257ZM78.2504 47.8084L78.2504 46.1568L78.2504 46.1568L78.2504 47.8084ZM92.6605 61.4596L94.3121 61.4596L94.3121 61.4596L92.6605 61.4596ZM78.2508 75.1119L78.2508 76.7635L78.2509 76.7635L78.2508 75.1119ZM74.6667 74.6859L75.0559 73.0809L73.6201 72.7327L73.1148 74.121L74.6667 74.6859ZM74.1271 75.8839L75.1281 77.1976L75.3976 76.9922L75.5644 76.6974L74.1271 75.8839ZM71.0829 77.1166L70.8476 75.4818L70.6781 75.5062L70.5172 75.5649L71.0829 77.1166ZM67.8186 77.4701L66.9369 78.8666L67.2234 79.0475L67.5579 79.1009L67.8186 77.4701ZM63.1479 68.3332L61.4981 68.2579L61.4981 68.2579L63.1479 68.3332ZM63.8142 64.8397L62.2268 64.3838L62.2268 64.3838L63.8142 64.8397ZM64.0692 63.8995L65.6717 64.2992L65.7595 63.9471L65.6917 63.5906L64.0692 63.8995ZM63.8405 61.4598L62.1889 61.4597V61.4598H63.8405ZM63.8812 60.4244L65.5277 60.5548L65.5607 60.1371L65.3907 59.7543L63.8812 60.4244ZM63.8199 60.2848L65.3116 59.5758L65.3116 59.5757L63.8199 60.2848ZM63.0276 58.8235L61.5969 59.6486L61.5969 59.6486L63.0276 58.8235ZM61.9443 54.1064L60.3919 53.5428L60.3918 53.543L61.9443 54.1064ZM64.6421 51.672L65.0678 53.2677L66.6408 52.8481L66.2438 51.2693L64.6421 51.672ZM64.6418 51.671L64.2391 50.0693L62.6374 50.472L63.0401 52.0737L64.6418 51.671ZM64.7242 51.6503L66.326 51.2476L65.9232 49.6459L64.3215 50.0486L64.7242 51.6503ZM64.7245 51.6513L63.1228 52.054L63.5197 53.6329L65.1041 53.2586L64.7245 51.6513ZM67.7357 52.1257L68.9097 53.2873C71.2316 50.9408 74.5482 49.46 78.2504 49.46L78.2504 47.8084L78.2504 46.1568C73.6576 46.1569 69.4981 47.9965 66.5618 50.964L67.7357 52.1257ZM78.2504 47.8084V49.46C85.3819 49.46 91.0088 54.9154 91.009 61.4597L92.6605 61.4596L94.3121 61.4596C94.3119 52.9251 87.0355 46.1568 78.2504 46.1568V47.8084ZM92.6605 61.4596L91.009 61.4596C91.009 68.0041 85.3821 73.4602 78.2508 73.4604L78.2508 75.1119L78.2509 76.7635C87.0361 76.7633 94.3121 69.9941 94.3121 61.4596H92.6605ZM78.2508 75.1119V73.4604C77.1458 73.4604 76.0753 73.328 75.0559 73.0809L74.6667 74.6859L74.2775 76.291C75.5497 76.5995 76.8814 76.7635 78.2508 76.7635V75.1119ZM74.6667 74.6859L73.1148 74.121C72.9667 74.5276 72.8153 74.8487 72.6898 75.0704L74.1271 75.8839L75.5644 76.6974C75.7929 76.2938 76.0177 75.8028 76.2187 75.2509L74.6667 74.6859ZM74.1271 75.8839L73.1261 74.5703C72.3949 75.1275 71.4383 75.3968 70.8476 75.4818L71.0829 77.1166L71.3182 78.7513C72.2341 78.6195 73.7943 78.2139 75.1281 77.1976L74.1271 75.8839ZM71.0829 77.1166L70.5172 75.5649C69.9564 75.7693 68.9868 75.9842 68.0792 75.8392L67.8186 77.4701L67.5579 79.1009C69.2134 79.3655 70.7791 78.9852 71.6486 78.6682L71.0829 77.1166ZM67.8186 77.4701L68.7002 76.0735C67.355 75.2243 64.6146 72.4248 64.7978 68.4084L63.1479 68.3332L61.4981 68.2579C61.2423 73.8658 64.986 77.635 66.9369 78.8666L67.8186 77.4701ZM63.1479 68.3332L64.7978 68.4084C64.8517 67.2268 65.1164 66.2886 65.4016 65.2955L63.8142 64.8397L62.2268 64.3838C61.9413 65.3779 61.5714 66.649 61.4981 68.2579L63.1479 68.3332ZM63.8142 64.8397L65.4016 65.2955C65.4969 64.9636 65.589 64.6309 65.6717 64.2992L64.0692 63.8995L62.4667 63.4998C62.3971 63.7789 62.3168 64.0705 62.2268 64.3838L63.8142 64.8397ZM64.0692 63.8995L65.6917 63.5906C65.5604 62.9011 65.492 62.189 65.492 61.4598H63.8405H62.1889C62.1889 62.3958 62.2767 63.3148 62.4468 64.2084L64.0692 63.8995ZM63.8405 61.4598L65.492 61.4598C65.492 61.1548 65.504 60.853 65.5277 60.5548L63.8812 60.4244L62.2348 60.2941C62.2043 60.6793 62.1889 61.0681 62.1889 61.4597L63.8405 61.4598ZM63.8812 60.4244L65.3907 59.7543C65.3863 59.7443 65.3851 59.7412 65.3693 59.7042C65.3572 59.6762 65.3368 59.6289 65.3116 59.5758L63.8199 60.2848L62.3283 60.9937C62.3251 60.9872 62.3252 60.9868 62.3332 61.0054C62.3351 61.0098 62.337 61.0144 62.3396 61.0204C62.342 61.0259 62.345 61.033 62.3481 61.0402C62.3542 61.0546 62.3624 61.0736 62.3717 61.0946L63.8812 60.4244ZM63.8199 60.2848L65.3116 59.5757C65.0408 59.006 64.7274 58.4651 64.4583 57.9984L63.0276 58.8235L61.5969 59.6486C61.8781 60.1362 62.1235 60.5629 62.3283 60.9938L63.8199 60.2848ZM63.0276 58.8235L64.4583 57.9984C63.5079 56.3504 63.1666 55.5797 63.4968 54.6699L61.9443 54.1064L60.3918 53.543C59.458 56.116 60.7954 58.2587 61.5969 59.6486L63.0276 58.8235ZM61.9443 54.1064L63.4967 54.6701C63.8611 53.6665 64.6305 53.3844 65.0678 53.2677L64.6421 51.672L64.2164 50.0762C63.3931 50.2958 61.308 51.0195 60.3919 53.5428L61.9443 54.1064ZM64.6421 51.672L66.2438 51.2693L66.2436 51.2683L64.6418 51.671L63.0401 52.0737L63.0404 52.0747L64.6421 51.672ZM64.6418 51.671L65.0446 53.2728L65.127 53.252L64.7242 51.6503L64.3215 50.0486L64.2391 50.0693L64.6418 51.671ZM64.7242 51.6503L63.1225 52.053L63.1228 52.054L64.7245 51.6513L66.3262 51.2485L66.326 51.2476L64.7242 51.6503ZM64.7245 51.6513L65.1041 53.2586C65.4975 53.1657 66.1656 53.0766 66.8382 53.5121L67.7357 52.1257L68.6333 50.7393C66.8355 49.5754 65.0656 49.8737 64.3448 50.0439L64.7245 51.6513Z" fill="url(#paint1_linear_118_1890)" mask="url(#path-3-outside-1_118_1890)"/>
</g>
<g filter="url(#filter2_i_118_1890)">
<ellipse cx="78.2506" cy="61.4599" rx="14.41" ry="13.6516" fill="url(#paint2_radial_118_1890)"/>
</g>
<ellipse opacity="0.5" cx="78.3335" cy="51.0699" rx="2.10576" ry="2.02318" fill="url(#paint3_linear_118_1890)"/>
<ellipse opacity="0.5" cx="84.196" cy="53.135" rx="2.10576" ry="2.02318" fill="url(#paint4_linear_118_1890)"/>
<g filter="url(#filter3_d_118_1890)">
<path d="M64.7089 51.7005C65.3441 51.5504 66.8408 51.3173 68.2404 52.5697C70.0557 54.1946 69.3974 56.5878 69.5108 58.9043C69.6624 62.0003 72.0706 62.5992 73.9119 65.6832C76.3829 69.8224 75.0794 74.2521 74.1187 75.9495C73.0854 76.737 71.826 77.0722 71.0721 77.1807C70.3566 77.4417 69.0884 77.7419 67.8054 77.5368C66.1561 76.4956 62.9125 73.2093 63.1321 68.3935C63.2958 64.8055 65.1343 63.1387 63.8037 60.3392C62.808 58.2445 61.0959 56.4474 61.9271 54.1571C62.5674 52.3929 63.9943 51.89 64.6256 51.7215L64.626 51.7193C64.6391 51.716 64.6529 51.7135 64.667 51.71C64.6814 51.7063 64.6951 51.702 64.7084 51.6986L64.7089 51.7005Z" fill="#FDEDDD"/>
<mask id="mask0_118_1890" style="mask-type:alpha" maskUnits="userSpaceOnUse" x="61" y="51" width="15" height="27">
<path d="M64.7089 51.7005C65.3441 51.5504 66.8408 51.3173 68.2404 52.5697C70.0557 54.1946 69.3974 56.5878 69.5108 58.9043C69.6624 62.0003 72.0706 62.5992 73.9119 65.6832C76.3829 69.8224 75.0794 74.2521 74.1187 75.9495C73.0854 76.737 71.826 77.0722 71.0721 77.1807C70.3566 77.4417 69.0884 77.7419 67.8054 77.5368C66.1561 76.4956 62.9125 73.2093 63.1321 68.3935C63.2958 64.8055 65.1343 63.1387 63.8037 60.3392C62.808 58.2445 61.0959 56.4474 61.9271 54.1571C62.5674 52.3929 63.9943 51.89 64.6256 51.7215L64.626 51.7193C64.6391 51.716 64.6529 51.7135 64.667 51.71C64.6814 51.7063 64.6951 51.702 64.7084 51.6986L64.7089 51.7005Z" fill="#FDEDDD"/>
<path d="M64.7089 51.7005L64.6813 51.7074L64.6882 51.7346L64.7155 51.7282L64.7089 51.7005ZM68.2404 52.5697L68.2593 52.5486L68.2593 52.5486L68.2404 52.5697ZM69.5108 58.9043L69.4824 58.9057L69.4824 58.9057L69.5108 58.9043ZM73.9119 65.6832L73.9363 65.6686L73.9363 65.6686L73.9119 65.6832ZM74.1187 75.9495L74.1374 75.9741L74.1434 75.9635L74.1187 75.9495ZM71.0721 77.1807L71.0679 77.152L71.0623 77.154L71.0721 77.1807ZM67.8054 77.5368L67.7889 77.563L67.8009 77.5649L67.8054 77.5368ZM63.1321 68.3935L63.1037 68.3922L63.1037 68.3922L63.1321 68.3935ZM63.8037 60.3392L63.8293 60.327L63.8293 60.327L63.8037 60.3392ZM61.9271 54.1571L61.9004 54.1474L61.9004 54.1474L61.9271 54.1571ZM64.6256 51.7215L64.6329 51.7489L64.6496 51.7445L64.6533 51.7276L64.6256 51.7215ZM64.626 51.7193L64.6191 51.6918L64.6021 51.696L64.5983 51.7132L64.626 51.7193ZM64.667 51.71L64.6738 51.7377L64.6741 51.7376L64.667 51.71ZM64.7084 51.6986L64.736 51.6917L64.7291 51.6641L64.7015 51.671L64.7084 51.6986ZM64.7089 51.7005L64.7155 51.7282C65.3473 51.5789 66.8322 51.3477 68.2214 52.5909L68.2404 52.5697L68.2593 52.5486C66.8494 51.2868 65.3409 51.522 64.7024 51.6728L64.7089 51.7005ZM68.2404 52.5697L68.2214 52.5909C69.1215 53.3965 69.4092 54.3927 69.4854 55.4796C69.5236 56.0235 69.5087 56.5892 69.4913 57.1649C69.4739 57.7401 69.454 58.3252 69.4824 58.9057L69.5108 58.9043L69.5392 58.9029C69.5109 58.3251 69.5307 57.7424 69.5481 57.1666C69.5655 56.5913 69.5805 56.0228 69.5422 55.4757C69.4653 54.3807 69.1746 53.3678 68.2593 52.5486L68.2404 52.5697ZM69.5108 58.9043L69.4824 58.9057C69.5587 60.4631 70.2034 61.3929 71.0568 62.3175C71.9102 63.2421 72.9688 64.1592 73.8874 65.6978L73.9119 65.6832L73.9363 65.6686C73.0136 64.1233 71.9476 63.1989 71.0986 62.279C70.2497 61.3592 69.6146 60.4415 69.5392 58.9029L69.5108 58.9043ZM73.9119 65.6832L73.8874 65.6978C76.3515 69.8252 75.0516 74.2434 74.0939 75.9355L74.1187 75.9495L74.1434 75.9635C75.1072 74.2607 76.4144 69.8196 73.9363 65.6686L73.9119 65.6832ZM74.1187 75.9495L74.1014 75.9269C73.0734 76.7104 71.8192 77.0444 71.068 77.1526L71.0721 77.1807L71.0761 77.2089C71.8328 77.0999 73.0974 76.7636 74.1359 75.9721L74.1187 75.9495ZM71.0721 77.1807L71.0623 77.154C70.3495 77.414 69.0864 77.7128 67.8099 77.5088L67.8054 77.5368L67.8009 77.5649C69.0904 77.771 70.3637 77.4694 71.0818 77.2074L71.0721 77.1807ZM67.8054 77.5368L67.8206 77.5128C66.1765 76.4749 62.9415 73.1969 63.1605 68.3948L63.1321 68.3935L63.1037 68.3922C62.8834 73.2217 66.1357 76.5164 67.7902 77.5609L67.8054 77.5368ZM63.1321 68.3935L63.1605 68.3948C63.2422 66.6047 63.7412 65.296 64.0558 64.0778C64.3704 62.8594 64.4987 61.7353 63.8293 60.327L63.8037 60.3392L63.778 60.3514C64.4393 61.7427 64.3137 62.8517 64.0007 64.0636C63.6878 65.2756 63.1857 66.5943 63.1037 68.3922L63.1321 68.3935ZM63.8037 60.3392L63.8293 60.327C63.5798 59.8021 63.2855 59.296 62.9981 58.7974C62.7105 58.2984 62.4298 57.807 62.2062 57.3098C61.7593 56.3161 61.5417 55.3024 61.9538 54.1668L61.9271 54.1571L61.9004 54.1474C61.4813 55.3021 61.7041 56.3321 62.1544 57.3331C62.3793 57.8333 62.6614 58.3271 62.9489 58.8258C63.2366 59.3249 63.5297 59.829 63.778 60.3514L63.8037 60.3392ZM61.9271 54.1571L61.9538 54.1668C62.5893 52.4157 64.0049 51.9166 64.6329 51.7489L64.6256 51.7215L64.6182 51.694C63.9836 51.8634 62.5454 52.3701 61.9004 54.1474L61.9271 54.1571ZM64.6256 51.7215L64.6533 51.7276L64.6538 51.7255L64.626 51.7193L64.5983 51.7132L64.5978 51.7153L64.6256 51.7215ZM64.626 51.7193L64.633 51.7469C64.639 51.7454 64.6453 51.744 64.6522 51.7425C64.6589 51.7411 64.6663 51.7395 64.6738 51.7377L64.667 51.71L64.6603 51.6824C64.6537 51.684 64.6471 51.6855 64.6401 51.687C64.6333 51.6884 64.6262 51.69 64.6191 51.6918L64.626 51.7193ZM64.667 51.71L64.6741 51.7376C64.6817 51.7356 64.6891 51.7335 64.6959 51.7315C64.7029 51.7295 64.7092 51.7277 64.7154 51.7262L64.7084 51.6986L64.7015 51.671C64.6943 51.6729 64.6871 51.6749 64.6803 51.6769C64.6733 51.6789 64.6667 51.6808 64.6599 51.6825L64.667 51.71ZM64.7084 51.6986L64.6809 51.7055L64.6813 51.7074L64.7089 51.7005L64.7365 51.6936L64.736 51.6917L64.7084 51.6986Z" fill="black"/>
</mask>
<g mask="url(#mask0_118_1890)">
<g filter="url(#filter4_ii_118_1890)">
<path d="M64.7089 51.7005C65.3441 51.5504 66.8408 51.3173 68.2404 52.5697C70.0557 54.1946 69.3974 56.5878 69.5108 58.9043C69.6624 62.0003 72.0706 62.5992 73.9119 65.6832C76.3829 69.8224 75.0794 74.2521 74.1187 75.9495C73.0854 76.737 71.826 77.0722 71.0721 77.1807C70.3566 77.4417 69.0884 77.7419 67.8054 77.5368C66.1561 76.4956 62.9125 73.2093 63.1321 68.3935C63.2958 64.8055 65.1343 63.1387 63.8037 60.3392C62.808 58.2445 61.0959 56.4474 61.9271 54.1571C62.5674 52.3929 63.9943 51.89 64.6256 51.7215L64.626 51.7193C64.6391 51.716 64.6529 51.7135 64.667 51.71C64.6814 51.7063 64.6951 51.702 64.7084 51.6986L64.7089 51.7005Z" fill="#FDEDDD"/>
</g>
<path d="M62.769 63.7944C62.769 63.7944 64.3547 63.6889 67.9389 62.7877C71.5231 61.8865 72.9701 61.2296 72.9701 61.2296L73.6633 63.9866C73.6633 63.9866 72.4368 64.5882 68.6321 65.5448C64.8273 66.5014 63.4622 66.5515 63.4622 66.5515L62.769 63.7944Z" fill="#F55353" style="mix-blend-mode:multiply"/>
<path d="M61.9371 60.486C61.9371 60.486 63.5228 60.3804 67.107 59.4792C70.6912 58.5781 72.1383 57.9211 72.1383 57.9211L72.679 60.0716C72.679 60.0716 71.4525 60.6731 67.6477 61.6298C63.8429 62.5864 62.4778 62.6365 62.4778 62.6365L61.9371 60.486Z" fill="#F55353" style="mix-blend-mode:multiply"/>
<ellipse cx="66.6173" cy="54.2673" rx="1.2793" ry="1.59201" transform="rotate(-14.1132 66.6173 54.2673)" fill="url(#paint5_linear_118_1890)" style="mix-blend-mode:screen"/>
</g>
</g>
<path d="M109.086 66.25V56.5562H113.321C114.338 56.5562 115.127 56.7808 115.686 57.23C116.245 57.67 116.525 58.2842 116.525 59.0725C116.525 59.6592 116.355 60.1542 116.016 60.5575C115.677 60.9608 115.214 61.2312 114.627 61.3687V61.1625C115.076 61.2267 115.461 61.3642 115.782 61.575C116.103 61.7858 116.346 62.0562 116.511 62.3862C116.685 62.7162 116.772 63.1012 116.772 63.5412C116.772 64.1096 116.639 64.6 116.373 65.0125C116.117 65.4158 115.741 65.7229 115.246 65.9337C114.751 66.1446 114.16 66.25 113.472 66.25H109.086ZM110.777 64.9162H113.252C113.5 64.9162 113.72 64.8979 113.912 64.8612C114.114 64.8246 114.283 64.7696 114.421 64.6962C114.567 64.6137 114.687 64.5129 114.778 64.3937C114.879 64.2746 114.952 64.1371 114.998 63.9812C115.044 63.8254 115.067 63.6512 115.067 63.4587C115.067 63.2571 115.044 63.0783 114.998 62.9225C114.952 62.7667 114.879 62.6337 114.778 62.5237C114.687 62.4046 114.567 62.3083 114.421 62.235C114.283 62.1525 114.114 62.0929 113.912 62.0562C113.72 62.0196 113.5 62.0012 113.252 62.0012H110.777V64.9162ZM110.777 60.6675H113.018C113.623 60.6675 114.072 60.5529 114.366 60.3237C114.668 60.0854 114.82 59.7371 114.82 59.2787C114.82 58.8204 114.668 58.4767 114.366 58.2475C114.072 58.0092 113.623 57.89 113.018 57.89H110.777V60.6675ZM122.158 66.3875C121.461 66.3875 120.856 66.2454 120.343 65.9612C119.83 65.6771 119.431 65.2737 119.147 64.7512C118.863 64.2196 118.721 63.5962 118.721 62.8812C118.721 62.1662 118.863 61.5475 119.147 61.025C119.431 60.5025 119.83 60.0992 120.343 59.815C120.856 59.5308 121.461 59.3887 122.158 59.3887C122.855 59.3887 123.46 59.5308 123.973 59.815C124.486 60.0992 124.885 60.5025 125.169 61.025C125.454 61.5475 125.596 62.1662 125.596 62.8812C125.596 63.5962 125.454 64.2196 125.169 64.7512C124.885 65.2737 124.486 65.6771 123.973 65.9612C123.46 66.2454 122.855 66.3875 122.158 66.3875ZM122.158 65.0812C122.671 65.0812 123.084 64.8979 123.396 64.5312C123.707 64.1554 123.863 63.6054 123.863 62.8812C123.863 62.1479 123.707 61.6025 123.396 61.245C123.084 60.8783 122.671 60.695 122.158 60.695C121.645 60.695 121.232 60.8783 120.921 61.245C120.609 61.6025 120.453 62.1479 120.453 62.8812C120.453 63.6054 120.609 64.1554 120.921 64.5312C121.232 64.8979 121.645 65.0812 122.158 65.0812ZM129.441 66.25L126.787 59.5262H128.547L130.417 64.6825H130.101L131.998 59.5262H133.208L135.078 64.6825H134.789L136.659 59.5262H138.323L135.683 66.25H134.184L132.149 60.8737H132.933L130.939 66.25H129.441ZM142.349 66.3875C141.551 66.3875 140.96 66.1721 140.575 65.7412C140.199 65.3012 140.011 64.6596 140.011 63.8162V56.5562H141.73V63.7337C141.73 63.9996 141.767 64.2287 141.84 64.4212C141.923 64.6046 142.042 64.7421 142.198 64.8337C142.353 64.9254 142.546 64.9712 142.775 64.9712C142.876 64.9712 142.977 64.9667 143.078 64.9575C143.178 64.9483 143.275 64.93 143.366 64.9025L143.339 66.2638C143.174 66.3004 143.009 66.3279 142.844 66.3463C142.688 66.3738 142.523 66.3875 142.349 66.3875ZM144.997 58.0825V56.405H146.922V58.0825H144.997ZM145.107 66.25V59.5262H146.825V66.25H145.107ZM149.316 66.25V59.5262H150.993V60.8737H150.842C151.044 60.3879 151.355 60.0212 151.777 59.7737C152.208 59.5171 152.694 59.3887 153.235 59.3887C153.775 59.3887 154.22 59.4896 154.568 59.6912C154.917 59.8929 155.178 60.2 155.352 60.6125C155.526 61.0158 155.613 61.5292 155.613 62.1525V66.25H153.895V62.235C153.895 61.8867 153.849 61.6025 153.757 61.3825C153.675 61.1625 153.542 61.0021 153.358 60.9012C153.184 60.7912 152.96 60.7362 152.685 60.7362C152.355 60.7362 152.066 60.8096 151.818 60.9562C151.571 61.0937 151.378 61.2954 151.241 61.5612C151.103 61.8179 151.035 62.1204 151.035 62.4687V66.25H149.316ZM161.198 68.8625C160.575 68.8625 159.988 68.7892 159.438 68.6425C158.898 68.505 158.421 68.2896 158.008 67.9963L158.503 66.8C158.76 66.965 159.031 67.1025 159.315 67.2125C159.599 67.3317 159.888 67.4188 160.181 67.4738C160.474 67.5288 160.768 67.5563 161.061 67.5563C161.675 67.5563 162.133 67.405 162.436 67.1025C162.748 66.8092 162.903 66.3692 162.903 65.7825V64.545H163.027C162.89 65.0125 162.601 65.3883 162.161 65.6725C161.73 65.9475 161.24 66.085 160.69 66.085C160.085 66.085 159.558 65.9475 159.108 65.6725C158.659 65.3883 158.311 64.9942 158.063 64.49C157.816 63.9858 157.692 63.3992 157.692 62.73C157.692 62.0608 157.816 61.4787 158.063 60.9837C158.311 60.4796 158.659 60.09 159.108 59.815C159.558 59.5308 160.085 59.3887 160.69 59.3887C161.258 59.3887 161.753 59.5308 162.175 59.815C162.606 60.09 162.885 60.4567 163.013 60.915H162.903V59.5262H164.581V65.5762C164.581 66.3004 164.453 66.9054 164.196 67.3913C163.939 67.8863 163.559 68.2529 163.055 68.4913C162.551 68.7388 161.932 68.8625 161.198 68.8625ZM161.157 64.7787C161.689 64.7787 162.111 64.5954 162.422 64.2288C162.734 63.8621 162.89 63.3625 162.89 62.73C162.89 62.0975 162.734 61.6025 162.422 61.245C162.111 60.8783 161.689 60.695 161.157 60.695C160.626 60.695 160.204 60.8783 159.892 61.245C159.581 61.6025 159.425 62.0975 159.425 62.73C159.425 63.3625 159.581 63.8621 159.892 64.2288C160.204 64.5954 160.626 64.7787 161.157 64.7787Z" fill="#202224"/>
<mask id="mask1_118_1890" style="mask-type:alpha" maskUnits="userSpaceOnUse" x="34" y="34" width="37" height="55">
<path d="M35 43.6125C35 39.1321 38.6321 35.5 43.1125 35.5H54.386C63.0094 35.5 70 42.4906 70 51.114V72.386C70 81.0094 63.0094 88 54.386 88H43.1125C38.6321 88 35 84.3679 35 79.8875V43.6125Z" fill="white" stroke="url(#paint6_linear_118_1890)" stroke-opacity="0.3" stroke-width="1.62697"/>
</mask>
<g mask="url(#mask1_118_1890)">
<rect x="33.75" y="34.4904" width="17.5" height="54.5192" fill="#587ED7"/>
</g>
<defs>
<filter id="filter0_d_118_1890" x="0.37165" y="0.87165" width="276.46" height="130.21" filterUnits="userSpaceOnUse" color-interpolation-filters="sRGB">
<feFlood flood-opacity="0" result="BackgroundImageFix"/>
<feColorMatrix in="SourceAlpha" type="matrix" values="0 0 0 0 0 0 0 0 0 0 0 0 0 0 0 0 0 0 127 0" result="hardAlpha"/>
<feOffset dx="4.22686" dy="4.22686"/>
<feGaussianBlur stdDeviation="19.0209"/>
<feColorMatrix type="matrix" values="0 0 0 0 0 0 0 0 0 0 0 0 0 0 0 0 0 0 0.05 0"/>
<feBlend mode="normal" in2="BackgroundImageFix" result="effect1_dropShadow_118_1890"/>
<feBlend mode="normal" in="SourceGraphic" in2="effect1_dropShadow_118_1890" result="shape"/>
</filter>
<filter id="filter1_d_118_1890" x="60.0731" y="46.1569" width="34.239" height="34.6845" filterUnits="userSpaceOnUse" color-interpolation-filters="sRGB">
<feFlood flood-opacity="0" result="BackgroundImageFix"/>
<feColorMatrix in="SourceAlpha" type="matrix" values="0 0 0 0 0 0 0 0 0 0 0 0 0 0 0 0 0 0 127 0" result="hardAlpha"/>
<feOffset dy="1.65157"/>
<feComposite in2="hardAlpha" operator="out"/>
<feColorMatrix type="matrix" values="0 0 0 0 0.00784314 0 0 0 0 0.133333 0 0 0 0 0.12549 0 0 0 1 0"/>
<feBlend mode="normal" in2="BackgroundImageFix" result="effect1_dropShadow_118_1890"/>
<feBlend mode="normal" in="SourceGraphic" in2="effect1_dropShadow_118_1890" result="shape"/>
</filter>
<filter id="filter2_i_118_1890" x="63.8407" y="47.8083" width="28.8199" height="27.3031" filterUnits="userSpaceOnUse" color-interpolation-filters="sRGB">
<feFlood flood-opacity="0" result="BackgroundImageFix"/>
<feBlend mode="normal" in="SourceGraphic" in2="BackgroundImageFix" result="shape"/>
<feColorMatrix in="SourceAlpha" type="matrix" values="0 0 0 0 0 0 0 0 0 0 0 0 0 0 0 0 0 0 127 0" result="hardAlpha"/>
<feOffset dx="-3.83978" dy="-4.84543"/>
<feComposite in2="hardAlpha" operator="arithmetic" k2="-1" k3="1"/>
<feColorMatrix type="matrix" values="0 0 0 0 0.0364583 0 0 0 0 0.416667 0 0 0 0 0.325416 0 0 0 0.34 0"/>
<feBlend mode="normal" in2="shape" result="effect1_innerShadow_118_1890"/>
</filter>
<filter id="filter3_d_118_1890" x="58.8659" y="50.1588" width="20.485" height="28.5165" filterUnits="userSpaceOnUse" color-interpolation-filters="sRGB">
<feFlood flood-opacity="0" result="BackgroundImageFix"/>
<feColorMatrix in="SourceAlpha" type="matrix" values="0 0 0 0 0 0 0 0 0 0 0 0 0 0 0 0 0 0 127 0" result="hardAlpha"/>
<feOffset dx="2.46843" dy="-0.0914233"/>
<feComposite in2="hardAlpha" operator="out"/>
<feColorMatrix type="matrix" values="0 0 0 0 0 0 0 0 0 0 0 0 0 0 0 0 0 0 0.11 0"/>
<feBlend mode="normal" in2="BackgroundImageFix" result="effect1_dropShadow_118_1890"/>
<feBlend mode="normal" in="SourceGraphic" in2="effect1_dropShadow_118_1890" result="shape"/>
</filter>
<filter id="filter4_ii_118_1890" x="61.7062" y="51.0106" width="13.627" height="26.5941" filterUnits="userSpaceOnUse" color-interpolation-filters="sRGB">
<feFlood flood-opacity="0" result="BackgroundImageFix"/>
<feBlend mode="normal" in="SourceGraphic" in2="BackgroundImageFix" result="shape"/>
<feColorMatrix in="SourceAlpha" type="matrix" values="0 0 0 0 0 0 0 0 0 0 0 0 0 0 0 0 0 0 127 0" result="hardAlpha"/>
<feOffset dy="-0.568577"/>
<feGaussianBlur stdDeviation="1.53516"/>
<feComposite in2="hardAlpha" operator="arithmetic" k2="-1" k3="1"/>
<feColorMatrix type="matrix" values="0 0 0 0 0.866667 0 0 0 0 0.596078 0 0 0 0 0.537255 0 0 0 1 0"/>
<feBlend mode="normal" in2="shape" result="effect1_innerShadow_118_1890"/>
<feColorMatrix in="SourceAlpha" type="matrix" values="0 0 0 0 0 0 0 0 0 0 0 0 0 0 0 0 0 0 127 0" result="hardAlpha"/>
<feOffset dy="1.01746"/>
<feComposite in2="hardAlpha" operator="arithmetic" k2="-1" k3="1"/>
<feColorMatrix type="matrix" values="0 0 0 0 1 0 0 0 0 1 0 0 0 0 1 0 0 0 0.5 0"/>
<feBlend mode="normal" in2="effect1_innerShadow_118_1890" result="effect2_innerShadow_118_1890"/>
</filter>
<linearGradient id="paint0_linear_118_1890" x1="80.3193" y1="16.5373" x2="172.227" y2="127.299" gradientUnits="userSpaceOnUse">
<stop stop-color="#F1F1F1"/>
<stop offset="1" stop-color="#E1E1E1"/>
</linearGradient>
<linearGradient id="paint1_linear_118_1890" x1="64.683" y1="51.661" x2="71.0917" y2="77.1502" gradientUnits="userSpaceOnUse">
<stop stop-color="#489072"/>
<stop offset="1" stop-color="#0A4742"/>
</linearGradient>
<radialGradient id="paint2_radial_118_1890" cx="0" cy="0" r="1" gradientUnits="userSpaceOnUse" gradientTransform="translate(78.2094 52.8044) rotate(89.8939) scale(22.3071 23.5464)">
<stop stop-color="#91EAB0"/>
<stop offset="1" stop-color="#508588"/>
</radialGradient>
<linearGradient id="paint3_linear_118_1890" x1="78.3334" y1="49.0468" x2="78.3334" y2="53.0931" gradientUnits="userSpaceOnUse">
<stop stop-color="#074642"/>
<stop offset="1" stop-color="#1A8E7B"/>
</linearGradient>
<linearGradient id="paint4_linear_118_1890" x1="84.196" y1="51.1118" x2="84.196" y2="55.1582" gradientUnits="userSpaceOnUse">
<stop stop-color="#074642"/>
<stop offset="1" stop-color="#1A8E7B"/>
</linearGradient>
<linearGradient id="paint5_linear_118_1890" x1="66.6458" y1="53.0164" x2="66.6458" y2="56.3995" gradientUnits="userSpaceOnUse">
<stop stop-color="#FAECE4"/>
<stop offset="1" stop-color="#FAECE4" stop-opacity="0"/>
</linearGradient>
<linearGradient id="paint6_linear_118_1890" x1="42.9808" y1="16.5373" x2="80.9617" y2="24.5979" gradientUnits="userSpaceOnUse">
<stop stop-color="#F1F1F1"/>
<stop offset="1" stop-color="#E1E1E1"/>
</linearGradient>
</defs>
</svg>
