<svg width="277" height="132" viewBox="0 0 277 132" fill="none" xmlns="http://www.w3.org/2000/svg">
<g filter="url(#filter0_d_118_1881)">
<rect x="35" y="35.5" width="198.75" height="52.5" rx="8.1125" fill="white"/>
<rect x="35" y="35.5" width="198.75" height="52.5" rx="8.1125" stroke="url(#paint0_linear_118_1881)" stroke-opacity="0.3" stroke-width="1.62697"/>
</g>
<g filter="url(#filter1_di_118_1881)">
<mask id="path-3-outside-1_118_1881" maskUnits="userSpaceOnUse" x="59.7826" y="38.8197" width="46" height="45" fill="black">
<rect fill="white" x="59.7826" y="38.8197" width="46" height="45"/>
<path d="M78.018 44.1792C78.2928 42.6258 79.775 41.5891 81.3285 41.8638L100.871 45.3199C102.425 45.5946 103.462 47.0768 103.187 48.6304L98.4223 75.5757C98.1476 77.1293 96.6653 78.1668 95.1117 77.8921L87.6391 76.5699C86.0898 78.4394 83.989 79.8847 81.4799 80.6275C74.6675 82.6439 67.4354 78.7291 65.3266 71.8843C64.2698 68.4542 64.6997 64.9391 66.2494 62.0318L62.9711 53.7476C62.427 52.3724 63.1008 50.8162 64.476 50.272L77.8783 44.9683L78.018 44.1792Z"/>
</mask>
<path d="M78.018 44.1792C78.2928 42.6258 79.775 41.5891 81.3285 41.8638L100.871 45.3199C102.425 45.5946 103.462 47.0768 103.187 48.6304L98.4223 75.5757C98.1476 77.1293 96.6653 78.1668 95.1117 77.8921L87.6391 76.5699C86.0898 78.4394 83.989 79.8847 81.4799 80.6275C74.6675 82.6439 67.4354 78.7291 65.3266 71.8843C64.2698 68.4542 64.6997 64.9391 66.2494 62.0318L62.9711 53.7476C62.427 52.3724 63.1008 50.8162 64.476 50.272L77.8783 44.9683L78.018 44.1792Z" fill="url(#paint1_linear_118_1881)"/>
<path d="M78.018 44.1792L79.9985 44.5298L79.9985 44.5297L78.018 44.1792ZM81.3285 41.8638L81.6788 39.8832L81.6787 39.8832L81.3285 41.8638ZM100.871 45.3199L100.521 47.3004L100.521 47.3005L100.871 45.3199ZM103.187 48.6304L105.168 48.9806L105.168 48.9806L103.187 48.6304ZM98.4223 75.5757L96.4417 75.2255L96.4417 75.2255L98.4223 75.5757ZM95.1117 77.8921L94.7613 79.8727L94.7615 79.8727L95.1117 77.8921ZM87.6391 76.5699L87.9895 74.5893L86.8371 74.3854L86.0904 75.2865L87.6391 76.5699ZM81.4799 80.6275L82.0507 82.5561L82.0508 82.5561L81.4799 80.6275ZM65.3266 71.8843L63.4044 72.4765L63.4044 72.4765L65.3266 71.8843ZM66.2494 62.0318L68.0243 62.9779L68.462 62.1568L68.1196 61.2917L66.2494 62.0318ZM62.9711 53.7476L61.1008 54.4875L61.1009 54.4877L62.9711 53.7476ZM64.476 50.272L63.7359 48.4018L63.7359 48.4018L64.476 50.272ZM77.8783 44.9683L78.6184 46.8385L79.6631 46.4251L79.8589 45.3188L77.8783 44.9683ZM78.018 44.1792L79.9985 44.5297C80.0799 44.07 80.5186 43.7631 80.9783 43.8444L81.3285 41.8638L81.6787 39.8832C79.0314 39.4151 76.5058 41.1817 76.0374 43.8288L78.018 44.1792ZM81.3285 41.8638L80.9783 43.8444L100.521 47.3004L100.871 45.3199L101.222 43.3393L81.6788 39.8832L81.3285 41.8638ZM100.871 45.3199L100.521 47.3005C100.981 47.3817 101.288 47.8202 101.206 48.2802L103.187 48.6304L105.168 48.9806C105.636 46.3335 103.869 43.8075 101.222 43.3393L100.871 45.3199ZM103.187 48.6304L101.206 48.2802L96.4417 75.2255L98.4223 75.5757L100.403 75.9259L105.168 48.9806L103.187 48.6304ZM98.4223 75.5757L96.4417 75.2255C96.3603 75.686 95.921 75.9927 95.4619 75.9115L95.1117 77.8921L94.7615 79.8727C97.4097 80.341 99.9349 78.5727 100.403 75.9259L98.4223 75.5757ZM95.1117 77.8921L95.4622 75.9116L87.9895 74.5893L87.6391 76.5699L87.2886 78.5504L94.7613 79.8727L95.1117 77.8921ZM87.6391 76.5699L86.0904 75.2865C84.7879 76.8583 83.0237 78.0729 80.909 78.6989L81.4799 80.6275L82.0508 82.5561C84.9544 81.6966 87.3917 80.0206 89.1877 77.8532L87.6391 76.5699ZM81.4799 80.6275L80.909 78.6989C75.168 80.3982 69.0375 77.0983 67.2487 71.2921L65.3266 71.8843L63.4044 72.4765C65.8332 80.36 74.1669 84.8896 82.0507 82.5561L81.4799 80.6275ZM65.3266 71.8843L67.2487 71.2921C66.3542 68.3888 66.7191 65.4265 68.0243 62.9779L66.2494 62.0318L64.4745 61.0857C62.6802 64.4517 62.1853 68.5195 63.4044 72.4765L65.3266 71.8843ZM66.2494 62.0318L68.1196 61.2917L64.8413 53.0075L62.9711 53.7476L61.1009 54.4877L64.3792 62.7719L66.2494 62.0318ZM62.9711 53.7476L64.8414 53.0077C64.7059 52.6653 64.8738 52.2777 65.2161 52.1422L64.476 50.272L63.7359 48.4018C61.3278 49.3548 60.1482 52.0795 61.1008 54.4875L62.9711 53.7476ZM64.476 50.272L65.2161 52.1422L78.6184 46.8385L77.8783 44.9683L77.1382 43.0981L63.7359 48.4018L64.476 50.272ZM77.8783 44.9683L79.8589 45.3188L79.9985 44.5298L78.018 44.1792L76.0374 43.8287L75.8978 44.6178L77.8783 44.9683Z" fill="#460860" mask="url(#path-3-outside-1_118_1881)"/>
</g>
<g filter="url(#filter2_i_118_1881)">
<rect x="61.9651" y="51.2538" width="23.5477" height="30.4734" rx="2.67805" transform="rotate(-21.5906 61.9651 51.2538)" fill="url(#paint2_linear_118_1881)"/>
</g>
<rect x="63.7629" y="52.032" width="20.7773" height="27.7031" rx="1.19807" transform="rotate(-21.5906 63.7629 52.032)" fill="#E74342"/>
<mask id="mask0_118_1881" style="mask-type:alpha" maskUnits="userSpaceOnUse" x="64" y="44" width="29" height="34">
<rect x="63.7629" y="52.032" width="20.7773" height="27.7031" rx="1.19807" transform="rotate(-21.5906 63.7629 52.032)" fill="url(#paint3_linear_118_1881)"/>
</mask>
<g mask="url(#mask0_118_1881)">
<path d="M74.0834 68.6117C74.5473 67.5402 75.7923 67.0477 76.8638 67.5114L80.6292 69.1416C81.7008 69.6055 82.1935 70.8504 81.7296 71.922L80.0994 75.6874C79.6355 76.759 78.3905 77.2516 77.319 76.7877L73.5535 75.1576C72.4822 74.6936 71.9894 73.4486 72.4532 72.3771L74.0834 68.6117ZM84.0746 64.6578C84.5385 63.5865 85.7827 63.0942 86.8541 63.5578L90.6204 65.1877C91.6918 65.6516 92.1845 66.8967 91.7208 67.9681L90.0897 71.7339C89.6257 72.8052 88.3816 73.2975 87.3102 72.8338L83.5438 71.204C82.4726 70.74 81.9798 69.495 82.4435 68.4236L84.0746 64.6578ZM85.8058 68.6768C85.1478 68.9372 84.8255 69.6816 85.0859 70.3396C85.3464 70.9974 86.0908 71.3198 86.7487 71.0595C87.4063 70.799 87.7287 70.0544 87.4686 69.3967C87.2083 68.7388 86.4637 68.4167 85.8058 68.6768ZM76.4616 70.6617C75.8036 70.9221 75.4813 71.6665 75.7417 72.3245C76.0022 72.9823 76.7467 73.3047 77.4045 73.0444C78.0622 72.7839 78.3846 72.0393 78.1244 71.3816C77.8641 70.7237 77.1195 70.4016 76.4616 70.6617ZM87.31 65.3256C86.6521 65.586 86.3298 66.3305 86.5902 66.9885C86.8506 67.6462 87.5951 67.9687 88.253 67.7083C88.9108 67.4479 89.233 66.7034 88.9729 66.0455C88.7125 65.3876 87.968 65.0653 87.31 65.3256ZM70.2574 58.9438C70.7213 57.8722 71.9663 57.3796 73.0379 57.8434L76.8033 59.4736C77.8747 59.9375 78.367 61.1816 77.9032 62.2531L76.2734 66.0195C75.8094 67.0908 74.5644 67.5836 73.493 67.1198L69.7272 65.4887C68.6561 65.0246 68.1636 63.7805 68.6272 62.7092L70.2574 58.9438ZM80.2486 54.9899C80.7125 53.9183 81.9566 53.4261 83.0282 53.8899L86.7936 55.5201C87.8651 55.984 88.3574 57.228 87.8935 58.2996L86.2637 62.0659C85.7997 63.137 84.5555 63.6293 83.4842 63.1659L79.7175 61.5352C78.6466 61.0711 78.1541 59.8269 78.6175 58.7556L80.2486 54.9899ZM73.7856 63.8995C73.1276 64.1598 72.8053 64.9043 73.0657 65.5623C73.3261 66.2201 74.0706 66.5425 74.7285 66.2822C75.3862 66.0217 75.7086 65.2772 75.4484 64.6194C75.188 63.9615 74.4435 63.6393 73.7856 63.8995ZM82.8238 57.5668C82.1661 57.8272 81.8438 58.5718 82.104 59.2296C82.3644 59.8874 83.1089 60.2097 83.7668 59.9495C84.4246 59.6891 84.7469 58.9446 84.4867 58.2867C84.2262 57.629 83.4817 57.3066 82.8238 57.5668ZM70.0355 62.3294C69.3776 62.5897 69.0554 63.3343 69.3156 63.9922C69.5761 64.65 70.3205 64.9724 70.9784 64.7121C71.6363 64.4517 71.9586 63.7071 71.6983 63.0493C71.4379 62.3915 70.6934 62.0691 70.0355 62.3294ZM75.5737 60.1377C74.9159 60.3981 74.5936 61.1427 74.8538 61.8005C75.1142 62.4584 75.8587 62.7807 76.5166 62.5204C77.1744 62.26 77.4967 61.5155 77.2365 60.8576C76.976 60.1999 76.2315 59.8775 75.5737 60.1377ZM71.7466 58.7472C71.0888 59.0076 70.7666 59.7522 71.0267 60.41C71.2872 61.0679 72.0316 61.3903 72.6895 61.1299C73.3473 60.8695 73.6697 60.1249 73.4094 59.4671C73.1489 58.8095 72.4044 58.4871 71.7466 58.7472ZM66.4311 49.2749C66.895 48.2034 68.14 47.7108 69.2115 48.1746L72.9769 49.8048C74.0485 50.2687 74.5412 51.5136 74.0773 52.5852L72.4471 56.3506C71.9832 57.4222 70.7382 57.9148 69.6667 57.4509L65.9012 55.8208C64.8298 55.3568 64.337 54.1118 64.8009 53.0403L66.4311 49.2749ZM76.4214 45.3214C76.8853 44.25 78.1304 43.7574 79.2018 44.221L82.9672 45.8512C84.0388 46.3151 84.5315 47.5601 84.0676 48.6317L82.4374 52.3971C81.9735 53.4686 80.7285 53.9613 79.657 53.4974L75.8915 51.8672C74.8203 51.4032 74.3274 50.1582 74.7912 49.0868L76.4214 45.3214ZM79.9696 50.3542C79.3117 50.6146 78.9894 51.3591 79.2497 52.017C79.5101 52.6749 80.2546 52.9972 80.9125 52.7369C81.5703 52.4765 81.8926 51.732 81.6324 51.0741C81.372 50.4162 80.6275 50.0939 79.9696 50.3542ZM69.8854 54.0466C69.2278 54.3071 68.9055 55.0517 69.1655 55.7095C69.4259 56.3672 70.1709 56.6903 70.8287 56.4303C71.4865 56.1698 71.8093 55.4241 71.5491 54.7662C71.2886 54.1085 70.5432 53.7864 69.8854 54.0466ZM75.937 48.8213C75.279 49.0817 74.9571 49.8271 75.2175 50.4851C75.4781 51.1426 76.2225 51.4653 76.8803 51.205C77.5379 50.9446 77.8601 50.1999 77.6002 49.5421C77.3398 48.8843 76.5949 48.5611 75.937 48.8213ZM78.8991 47.6492C78.2413 47.9096 77.9191 48.6541 78.1792 49.312C78.4396 49.9698 79.1841 50.2921 79.842 50.0319C80.4998 49.7715 80.8221 49.0269 80.5619 48.369C80.3014 47.7113 79.5569 47.3889 78.8991 47.6492ZM81.862 46.4766C81.2042 46.7369 80.882 47.4815 81.1421 48.1394C81.4026 48.7973 82.147 49.1197 82.8049 48.8593C83.4627 48.5989 83.7851 47.8544 83.5248 47.1965C83.2643 46.5388 82.5198 46.2164 81.862 46.4766ZM68.0259 49.3453C67.3681 49.6057 67.0459 50.3502 67.3061 51.0082C67.5665 51.666 68.3109 51.9884 68.9689 51.728C69.6265 51.4675 69.949 50.723 69.6888 50.0652C69.4283 49.4076 68.6837 49.0853 68.0259 49.3453ZM77.8289 44.945C77.1711 45.2054 76.8487 45.9499 77.109 46.6078C77.3695 47.2656 78.114 47.5879 78.7719 47.3277C79.4297 47.0673 79.752 46.3228 79.4917 45.6649C79.2314 45.007 78.4869 44.6847 77.8289 44.945Z" fill="#FFA09F" style="mix-blend-mode:overlay"/>
</g>
<mask id="mask1_118_1881" style="mask-type:alpha" maskUnits="userSpaceOnUse" x="62" y="43" width="33" height="36">
<rect x="61.9661" y="51.2534" width="23.5477" height="30.4734" rx="2.67805" transform="rotate(-21.5906 61.9661 51.2534)" fill="url(#paint4_linear_118_1881)"/>
</mask>
<g mask="url(#mask1_118_1881)">
<path d="M74.7454 66.9264L73.2378 42.9525L78.3368 40.7257L91.7633 58.8054L91.0528 72.4335L79.5375 75.5512L74.7454 66.9264Z" fill="#A56363" style="mix-blend-mode:multiply"/>
</g>
<g filter="url(#filter3_i_118_1881)">
<rect x="78.4945" y="41.3625" width="25.5599" height="33.0775" rx="2.85669" transform="rotate(10.0275 78.4945 41.3625)" fill="url(#paint5_linear_118_1881)"/>
</g>
<rect x="79.7134" y="43.105" width="22.5528" height="30.0705" rx="1.27799" transform="rotate(10.0275 79.7134 43.105)" fill="#E74342"/>
<mask id="mask2_118_1881" style="mask-type:alpha" maskUnits="userSpaceOnUse" x="74" y="43" width="28" height="34">
<rect x="79.7134" y="43.105" width="22.5528" height="30.0705" rx="1.27799" transform="rotate(10.0275 79.7134 43.105)" fill="url(#paint6_linear_118_1881)"/>
</mask>
<g mask="url(#mask2_118_1881)">
<path d="M79.8517 64.2804C80.8722 63.5669 82.2785 63.8155 82.9925 64.8358L85.5903 68.5509C86.3043 69.5716 86.0556 70.9777 85.035 71.6917L81.3208 74.2897C80.3002 75.0036 78.894 74.755 78.1801 73.7344L75.5811 70.02C74.8675 68.9995 75.1162 67.5932 76.1364 66.8793L79.8517 64.2804ZM91.3357 66.311C92.3563 65.5972 93.7624 65.846 94.4764 66.8664L97.0754 70.5808C97.7892 71.6012 97.5403 73.0075 96.5201 73.7215L92.8048 76.3203C91.7842 77.0341 90.3779 76.7855 89.664 75.765L87.0662 72.0498C86.3525 71.0292 86.601 69.623 87.6215 68.9091L91.3357 66.311ZM90.6167 71.0334C89.8604 70.8996 89.138 71.4041 89.0042 72.1605C88.8705 72.9168 89.3761 73.6384 90.1324 73.7721C90.8886 73.9056 91.6102 73.4011 91.744 72.6449C91.8777 71.8887 91.3728 71.1673 90.6167 71.0334ZM80.8493 67.551C80.0929 67.4173 79.3715 67.9219 79.2377 68.6782C79.1042 69.4344 79.6088 70.156 80.365 70.2897C81.1212 70.4234 81.8426 69.9186 81.9765 69.1625C82.1103 68.4061 81.6056 67.6847 80.8493 67.551ZM93.9138 68.792C93.1574 68.6583 92.436 69.1629 92.3023 69.9192C92.1688 70.6755 92.6733 71.397 93.4295 71.5307C94.1857 71.6643 94.9072 71.1596 95.041 70.4035C95.1748 69.6472 94.67 68.9258 93.9138 68.792ZM81.8169 53.1667C82.8374 52.4528 84.2436 52.7016 84.9576 53.722L87.5557 57.4362C88.2696 58.4569 88.021 59.863 87.0003 60.577L83.286 63.176C82.2654 63.8897 80.8592 63.6409 80.1452 62.6206L77.5464 58.9053C76.8329 57.8848 77.0814 56.4784 78.1017 55.7646L81.8169 53.1667ZM93.3008 55.1973C94.3214 54.4834 95.7276 54.7322 96.4416 55.7527L99.0396 59.4669C99.7536 60.4875 99.5049 61.8936 98.4843 62.6076L94.7699 65.2066C93.7494 65.9203 92.3432 65.6715 91.6292 64.6512L89.0303 60.9359C88.3169 59.9154 88.5654 58.509 89.5857 57.7952L93.3008 55.1973ZM82.2239 59.777C81.4677 59.6434 80.7463 60.1482 80.6123 60.9043C80.4786 61.6606 80.9832 62.3829 81.7394 62.5167C82.4958 62.6505 83.2174 62.1449 83.3511 61.3885C83.4846 60.6323 82.9801 59.9107 82.2239 59.777ZM94.1825 59.0672C93.4261 58.9335 92.7047 59.4381 92.571 60.1944C92.4372 60.9507 92.9419 61.6722 93.6982 61.8059C94.4546 61.9397 95.176 61.435 95.3097 60.6787C95.4435 59.9223 94.9388 59.2009 94.1825 59.0672ZM79.6515 56.1923C78.8953 56.0587 78.1739 56.5635 78.04 57.3196C77.9063 58.0759 78.4108 58.7982 79.1671 58.9321C79.9234 59.0658 80.645 58.5602 80.7788 57.8038C80.9123 57.0476 80.4078 56.326 79.6515 56.1923ZM86.0176 57.318C85.2614 57.1843 84.54 57.6891 84.4061 58.4452C84.2724 59.2016 84.7769 59.9239 85.5332 60.0577C86.2895 60.1915 87.0111 59.6859 87.1448 58.9295C87.2784 58.1733 86.7738 57.4517 86.0176 57.318ZM83.271 53.8552C82.5147 53.7215 81.7932 54.2262 81.6595 54.9825C81.5257 55.7388 82.0304 56.4602 82.7867 56.594C83.5431 56.7277 84.2645 56.2231 84.3982 55.4667C84.5319 54.7104 84.0273 53.9889 83.271 53.8552ZM83.7822 42.052C84.8027 41.3385 86.209 41.5872 86.9229 42.6074L89.5208 46.3225C90.2347 47.3432 89.9861 48.7493 88.9655 49.4632L85.2513 52.0613C84.2306 52.7752 82.8245 52.5266 82.1105 51.5059L79.5115 47.7916C78.798 46.7711 79.0466 45.3648 80.0669 44.6508L83.7822 42.052ZM95.2662 44.0826C96.2867 43.3691 97.693 43.6178 98.4069 44.638L101.005 48.3531C101.719 49.3738 101.47 50.7799 100.449 51.4939L96.7352 54.0919C95.7146 54.8058 94.3084 54.5572 93.5945 53.5366L90.9955 49.8222C90.282 48.8017 90.5306 47.3954 91.5508 46.6815L95.2662 44.0826ZM95.6486 50.7759C94.8923 50.6422 94.171 51.147 94.037 51.9031C93.9033 52.6595 94.4078 53.3818 95.1641 53.5156C95.9205 53.6493 96.6421 53.1437 96.7758 52.3874C96.9093 51.6312 96.4048 50.9096 95.6486 50.7759ZM84.2266 48.4508C83.4703 48.3171 82.7486 48.8227 82.6149 49.579C82.4814 50.3351 82.986 51.0567 83.7422 51.1905C84.4984 51.3242 85.2197 50.8194 85.3537 50.0632C85.4874 49.3069 84.983 48.5845 84.2266 48.4508ZM92.7931 47.0648C92.0368 46.931 91.3153 47.4356 91.1816 48.192C91.0479 48.9483 91.5525 49.6698 92.3088 49.8035C93.0651 49.9371 93.7866 49.4325 93.9204 48.6763C94.0541 47.92 93.5494 47.1986 92.7931 47.0648ZM96.1983 47.6669C95.442 47.5332 94.7207 48.0379 94.5868 48.7941C94.4531 49.5505 94.9577 50.2719 95.714 50.4056C96.4703 50.5393 97.1918 50.0347 97.3256 49.2784C97.4591 48.5222 96.9545 47.8007 96.1983 47.6669ZM99.6035 48.269C98.8473 48.1354 98.1258 48.6401 97.992 49.3962C97.8583 50.1525 98.363 50.8739 99.1192 51.0077C99.8756 51.1415 100.597 50.6368 100.731 49.8805C100.864 49.1242 100.36 48.4027 99.6035 48.269ZM85.182 43.0473C84.4258 42.9137 83.7043 43.4182 83.5705 44.1745C83.437 44.9307 83.9416 45.6522 84.6978 45.786C85.454 45.9198 86.1754 45.415 86.3093 44.6588C86.443 43.9024 85.9384 43.181 85.182 43.0473ZM96.748 44.5579C95.9918 44.4242 95.2703 44.9289 95.1365 45.6851C95.0028 46.4414 95.5075 47.1629 96.2638 47.2966C97.0201 47.4304 97.7415 46.9257 97.8753 46.1694C98.0089 45.4131 97.5044 44.6916 96.748 44.5579Z" fill="#FFA09F" style="mix-blend-mode:overlay"/>
</g>
<mask id="mask3_118_1881" style="mask-type:alpha" maskUnits="userSpaceOnUse" x="64" y="55" width="27" height="27">
<ellipse cx="12.864" cy="12.9685" rx="12.864" ry="12.9685" transform="matrix(0.958878 -0.283819 0.294432 0.955673 61.4872 59.4868)" fill="url(#paint7_radial_118_1881)"/>
</mask>
<g mask="url(#mask3_118_1881)">
<g filter="url(#filter4_i_118_1881)">
<ellipse cx="12.864" cy="12.9685" rx="12.864" ry="12.9685" transform="matrix(0.958878 -0.283819 0.294432 0.955673 61.4872 59.4868)" fill="url(#paint8_radial_118_1881)"/>
</g>
<ellipse cx="7.66598" cy="7.7683" rx="7.66598" ry="7.7683" transform="matrix(0.624618 -0.780931 0.778705 0.62739 66.1787 67.3157)" fill="url(#paint9_linear_118_1881)"/>
<path d="M70.7762 61.1753C73.5072 57.7608 78.5139 57.2501 81.9579 60.0249C85.4017 62.7997 85.9877 67.8162 83.2567 71.2307C80.5257 74.6451 75.519 75.1556 72.075 72.381C68.631 69.6062 68.0451 64.5898 70.7762 61.1753Z" stroke="black" stroke-opacity="0.36" stroke-width="0.490743"/>
<path d="M76.9984 71.1744C76.4911 71.26 76.1748 70.9735 76.0782 70.4767L75.9123 69.7096C75.7951 69.1693 76.0487 68.8846 76.589 68.7674C77.0322 68.6589 77.5744 68.4557 78.0028 68.0458C78.519 67.5517 78.7964 66.676 78.1762 66.028C77.5875 65.4128 76.7024 65.5654 75.9884 66.2487C75.7358 66.4904 75.5581 66.7446 75.4349 66.9677C75.2224 67.3394 75.0233 67.5931 74.6326 67.7566L74.4697 67.8283C74.014 68.0118 73.6395 67.9283 73.3361 67.5453L70.6971 64.3258C70.3621 63.9098 70.3816 63.5123 70.7661 63.1444L73.9735 60.075C74.3689 59.6966 74.7774 59.7056 75.1558 60.101L75.5763 60.5404C75.9547 60.9358 75.9457 61.3442 75.5503 61.7227L73.4303 63.7514L74.0801 64.5185C74.2273 64.6722 74.3305 64.8681 74.3305 64.8681L74.3525 64.847C74.3525 64.847 74.5535 64.5074 74.8501 64.2235C76.7174 62.4365 78.7763 62.6969 80.1323 64.1139C81.6881 65.7396 81.6155 68.0607 79.902 69.7005C78.8475 70.7096 77.7321 71.0615 76.9984 71.1744Z" fill="url(#paint10_linear_118_1881)"/>
</g>
<g style="mix-blend-mode:overlay">
<path d="M69.9506 59.9592C74.0533 56.033 80.0309 55.6212 83.302 59.0392C86.5731 62.4574 85.8988 68.4111 81.7961 72.3373C77.6933 76.2635 71.7157 76.6755 68.4446 73.2573C65.1737 69.8391 65.8479 63.8854 69.9506 59.9592Z" fill="url(#paint11_linear_118_1881)"/>
</g>
<path d="M112.786 66.25V56.5562H119.125V57.9587H114.546V60.695H118.836V62.0975H114.546V66.25H112.786ZM122.992 66.3875C122.506 66.3875 122.07 66.2958 121.685 66.1125C121.31 65.92 121.012 65.6633 120.792 65.3425C120.581 65.0217 120.475 64.6596 120.475 64.2562C120.475 63.7612 120.604 63.3717 120.86 63.0875C121.117 62.7942 121.534 62.5833 122.112 62.455C122.689 62.3267 123.464 62.2625 124.435 62.2625H125.123V63.2525H124.449C124.018 63.2525 123.656 63.2708 123.363 63.3075C123.07 63.335 122.831 63.3854 122.648 63.4587C122.474 63.5229 122.345 63.6146 122.263 63.7337C122.19 63.8529 122.153 63.9996 122.153 64.1737C122.153 64.4762 122.258 64.7237 122.469 64.9162C122.68 65.1087 122.973 65.205 123.349 65.205C123.652 65.205 123.917 65.1362 124.147 64.9987C124.385 64.8521 124.573 64.655 124.71 64.4075C124.848 64.16 124.917 63.8758 124.917 63.555V61.9737C124.917 61.5154 124.816 61.1854 124.614 60.9837C124.412 60.7821 124.073 60.6812 123.597 60.6812C123.221 60.6812 122.836 60.7408 122.442 60.86C122.047 60.97 121.649 61.1442 121.245 61.3825L120.75 60.2137C120.989 60.0487 121.268 59.9067 121.589 59.7875C121.919 59.6592 122.263 59.5629 122.62 59.4987C122.987 59.4254 123.331 59.3887 123.652 59.3887C124.312 59.3887 124.852 59.4896 125.274 59.6912C125.705 59.8929 126.026 60.2 126.237 60.6125C126.447 61.0158 126.553 61.5383 126.553 62.18V66.25H124.944V64.82H125.054C124.99 65.1408 124.862 65.4204 124.669 65.6587C124.486 65.8879 124.252 66.0667 123.968 66.195C123.684 66.3233 123.358 66.3875 122.992 66.3875ZM129.029 66.25V59.5262H130.707V60.8737H130.556C130.675 60.5621 130.84 60.2962 131.051 60.0762C131.261 59.8562 131.514 59.6867 131.807 59.5675C132.1 59.4483 132.426 59.3887 132.783 59.3887C133.324 59.3887 133.769 59.5171 134.117 59.7737C134.465 60.0304 134.708 60.4246 134.846 60.9562H134.653C134.836 60.4704 135.139 60.09 135.561 59.815C135.982 59.5308 136.468 59.3887 137.018 59.3887C137.531 59.3887 137.953 59.4896 138.283 59.6912C138.622 59.8929 138.874 60.2 139.039 60.6125C139.204 61.0158 139.287 61.5292 139.287 62.1525V66.25H137.568V62.2212C137.568 61.7079 137.481 61.3321 137.307 61.0937C137.142 60.8554 136.858 60.7362 136.454 60.7362C136.161 60.7362 135.904 60.8096 135.684 60.9562C135.464 61.0937 135.295 61.2954 135.176 61.5612C135.066 61.8271 135.011 62.1479 135.011 62.5237V66.25H133.292V62.2212C133.292 61.7079 133.205 61.3321 133.031 61.0937C132.866 60.8554 132.586 60.7362 132.192 60.7362C131.889 60.7362 131.628 60.8096 131.408 60.9562C131.197 61.0937 131.032 61.2954 130.913 61.5612C130.803 61.8271 130.748 62.1479 130.748 62.5237V66.25H129.029ZM141.654 58.0825V56.405H143.579V58.0825H141.654ZM141.764 66.25V59.5262H143.483V66.25H141.764ZM148.311 66.3875C147.514 66.3875 146.922 66.1721 146.537 65.7412C146.161 65.3012 145.974 64.6596 145.974 63.8162V56.5562H147.692V63.7337C147.692 63.9996 147.729 64.2287 147.802 64.4212C147.885 64.6046 148.004 64.7421 148.16 64.8337C148.316 64.9254 148.508 64.9712 148.737 64.9712C148.838 64.9712 148.939 64.9667 149.04 64.9575C149.141 64.9483 149.237 64.93 149.329 64.9025L149.301 66.2638C149.136 66.3004 148.971 66.3279 148.806 66.3463C148.65 66.3738 148.485 66.3875 148.311 66.3875ZM151.499 68.725L152.902 65.6312V66.3463L149.946 59.5262H151.774L153.864 64.7375H153.452L155.583 59.5262H157.316L153.273 68.725H151.499ZM168.073 66.3875C167.001 66.3875 166.093 66.1858 165.351 65.7825C164.617 65.3792 164.058 64.8062 163.673 64.0637C163.288 63.3212 163.096 62.4412 163.096 61.4237C163.096 60.3971 163.293 59.5125 163.687 58.77C164.081 58.0183 164.649 57.4408 165.392 57.0375C166.134 56.625 167.024 56.4187 168.059 56.4187C168.518 56.4187 168.953 56.4646 169.366 56.5562C169.787 56.6387 170.177 56.7625 170.534 56.9275C170.892 57.0925 171.199 57.2942 171.456 57.5325L170.864 58.9075C170.434 58.5683 169.994 58.3254 169.544 58.1787C169.095 58.0321 168.6 57.9587 168.059 57.9587C167.033 57.9587 166.254 58.2567 165.722 58.8525C165.199 59.4483 164.938 60.3054 164.938 61.4237C164.938 62.5512 165.209 63.4083 165.749 63.995C166.29 64.5817 167.092 64.875 168.156 64.875C168.522 64.875 168.894 64.8383 169.269 64.765C169.645 64.6917 170.012 64.5908 170.369 64.4625L170.026 65.2462V62.3175H167.798V61.0112H171.497V65.6725C171.204 65.8192 170.864 65.9475 170.479 66.0575C170.104 66.1583 169.709 66.2362 169.297 66.2913C168.884 66.3554 168.476 66.3875 168.073 66.3875ZM176.29 66.3875C175.804 66.3875 175.368 66.2958 174.983 66.1125C174.608 65.92 174.31 65.6633 174.09 65.3425C173.879 65.0217 173.773 64.6596 173.773 64.2562C173.773 63.7612 173.902 63.3717 174.158 63.0875C174.415 62.7942 174.832 62.5833 175.41 62.455C175.987 62.3267 176.762 62.2625 177.733 62.2625H178.421V63.2525H177.747C177.316 63.2525 176.954 63.2708 176.661 63.3075C176.368 63.335 176.129 63.3854 175.946 63.4587C175.772 63.5229 175.643 63.6146 175.561 63.7337C175.488 63.8529 175.451 63.9996 175.451 64.1737C175.451 64.4762 175.556 64.7237 175.767 64.9162C175.978 65.1087 176.271 65.205 176.647 65.205C176.95 65.205 177.215 65.1362 177.445 64.9987C177.683 64.8521 177.871 64.655 178.008 64.4075C178.146 64.16 178.215 63.8758 178.215 63.555V61.9737C178.215 61.5154 178.114 61.1854 177.912 60.9837C177.71 60.7821 177.371 60.6812 176.895 60.6812C176.519 60.6812 176.134 60.7408 175.74 60.86C175.345 60.97 174.947 61.1442 174.543 61.3825L174.048 60.2137C174.287 60.0487 174.566 59.9067 174.887 59.7875C175.217 59.6592 175.561 59.5629 175.918 59.4987C176.285 59.4254 176.629 59.3887 176.95 59.3887C177.61 59.3887 178.15 59.4896 178.572 59.6912C179.003 59.8929 179.324 60.2 179.535 60.6125C179.745 61.0158 179.851 61.5383 179.851 62.18V66.25H178.242V64.82H178.352C178.288 65.1408 178.16 65.4204 177.967 65.6587C177.784 65.8879 177.55 66.0667 177.266 66.195C176.982 66.3233 176.656 66.3875 176.29 66.3875ZM182.327 66.25V59.5262H184.005V60.8737H183.854C183.973 60.5621 184.138 60.2962 184.349 60.0762C184.559 59.8562 184.812 59.6867 185.105 59.5675C185.398 59.4483 185.724 59.3887 186.081 59.3887C186.622 59.3887 187.067 59.5171 187.415 59.7737C187.763 60.0304 188.006 60.4246 188.144 60.9562H187.951C188.134 60.4704 188.437 60.09 188.859 59.815C189.28 59.5308 189.766 59.3887 190.316 59.3887C190.829 59.3887 191.251 59.4896 191.581 59.6912C191.92 59.8929 192.172 60.2 192.337 60.6125C192.502 61.0158 192.585 61.5292 192.585 62.1525V66.25H190.866V62.2212C190.866 61.7079 190.779 61.3321 190.605 61.0937C190.44 60.8554 190.156 60.7362 189.752 60.7362C189.459 60.7362 189.202 60.8096 188.982 60.9562C188.762 61.0937 188.593 61.2954 188.474 61.5612C188.364 61.8271 188.309 62.1479 188.309 62.5237V66.25H186.59V62.2212C186.59 61.7079 186.503 61.3321 186.329 61.0937C186.164 60.8554 185.884 60.7362 185.49 60.7362C185.187 60.7362 184.926 60.8096 184.706 60.9562C184.495 61.0937 184.33 61.2954 184.211 61.5612C184.101 61.8271 184.046 62.1479 184.046 62.5237V66.25H182.327ZM198.376 66.3875C197.615 66.3875 196.96 66.2454 196.41 65.9612C195.86 65.6771 195.434 65.2737 195.131 64.7512C194.838 64.2287 194.691 63.61 194.691 62.895C194.691 62.1983 194.833 61.5887 195.117 61.0662C195.411 60.5437 195.81 60.1358 196.314 59.8425C196.827 59.54 197.409 59.3887 198.06 59.3887C198.702 59.3887 199.252 59.5262 199.71 59.8012C200.168 60.0762 200.521 60.4658 200.769 60.97C201.025 61.4742 201.154 62.0746 201.154 62.7712V63.28H196.08V62.29H199.944L199.724 62.4962C199.724 61.8729 199.586 61.3962 199.311 61.0662C199.036 60.7271 198.642 60.5575 198.129 60.5575C197.744 60.5575 197.414 60.6492 197.139 60.8325C196.873 61.0067 196.667 61.2587 196.52 61.5887C196.382 61.9096 196.314 62.2946 196.314 62.7437V62.84C196.314 63.3442 196.392 63.7612 196.547 64.0912C196.703 64.4212 196.937 64.6687 197.249 64.8337C197.56 64.9987 197.945 65.0812 198.404 65.0812C198.78 65.0812 199.155 65.0262 199.531 64.9162C199.907 64.7971 200.251 64.6137 200.562 64.3662L201.044 65.5212C200.723 65.7871 200.32 65.9979 199.834 66.1537C199.348 66.3096 198.862 66.3875 198.376 66.3875ZM205.681 66.3875C205.305 66.3875 204.938 66.3554 204.581 66.2913C204.232 66.2271 203.911 66.14 203.618 66.03C203.325 65.9108 203.068 65.7642 202.848 65.59L203.288 64.4625C203.517 64.6092 203.765 64.7375 204.031 64.8475C204.296 64.9575 204.571 65.04 204.856 65.095C205.14 65.15 205.419 65.1775 205.694 65.1775C206.134 65.1775 206.46 65.1042 206.671 64.9575C206.891 64.8017 207.001 64.6 207.001 64.3525C207.001 64.1417 206.927 63.9812 206.781 63.8712C206.643 63.7521 206.432 63.665 206.148 63.61L204.773 63.3487C204.205 63.2387 203.769 63.0325 203.467 62.73C203.174 62.4183 203.027 62.0196 203.027 61.5337C203.027 61.0937 203.146 60.7133 203.384 60.3925C203.632 60.0717 203.971 59.8242 204.402 59.65C204.833 59.4758 205.328 59.3887 205.887 59.3887C206.208 59.3887 206.519 59.4208 206.822 59.485C207.124 59.54 207.409 59.6271 207.674 59.7462C207.949 59.8562 208.188 60.0029 208.389 60.1862L207.922 61.3137C207.748 61.1671 207.546 61.0433 207.317 60.9425C207.088 60.8325 206.849 60.75 206.602 60.695C206.364 60.6308 206.13 60.5987 205.901 60.5987C205.451 60.5987 205.117 60.6767 204.897 60.8325C204.686 60.9883 204.581 61.1946 204.581 61.4512C204.581 61.6437 204.645 61.8042 204.773 61.9325C204.901 62.0608 205.099 62.1479 205.364 62.1937L206.739 62.455C207.335 62.565 207.784 62.7667 208.087 63.06C208.399 63.3533 208.554 63.7475 208.554 64.2425C208.554 64.6917 208.435 65.0767 208.197 65.3975C207.959 65.7183 207.624 65.9658 207.193 66.14C206.762 66.305 206.258 66.3875 205.681 66.3875Z" fill="#202224"/>
<mask id="mask4_118_1881" style="mask-type:alpha" maskUnits="userSpaceOnUse" x="34" y="34" width="37" height="55">
<path d="M35 43.6125C35 39.1321 38.6321 35.5 43.1125 35.5H54.386C63.0094 35.5 70 42.4906 70 51.114V72.386C70 81.0094 63.0094 88 54.386 88H43.1125C38.6321 88 35 84.3679 35 79.8875V43.6125Z" fill="white" stroke="url(#paint12_linear_118_1881)" stroke-opacity="0.3" stroke-width="1.62697"/>
</mask>
<g mask="url(#mask4_118_1881)">
<rect x="33.75" y="34.4904" width="17.5" height="54.5192" fill="#587ED7"/>
</g>
<defs>
<filter id="filter0_d_118_1881" x="0.37165" y="0.87165" width="276.46" height="130.21" filterUnits="userSpaceOnUse" color-interpolation-filters="sRGB">
<feFlood flood-opacity="0" result="BackgroundImageFix"/>
<feColorMatrix in="SourceAlpha" type="matrix" values="0 0 0 0 0 0 0 0 0 0 0 0 0 0 0 0 0 0 127 0" result="hardAlpha"/>
<feOffset dx="4.22686" dy="4.22686"/>
<feGaussianBlur stdDeviation="19.0209"/>
<feColorMatrix type="matrix" values="0 0 0 0 0 0 0 0 0 0 0 0 0 0 0 0 0 0 0.05 0"/>
<feBlend mode="normal" in2="BackgroundImageFix" result="effect1_dropShadow_118_1881"/>
<feBlend mode="normal" in="SourceGraphic" in2="effect1_dropShadow_118_1881" result="shape"/>
</filter>
<filter id="filter1_di_118_1881" x="60.7708" y="39.8081" width="44.4719" height="45.2815" filterUnits="userSpaceOnUse" color-interpolation-filters="sRGB">
<feFlood flood-opacity="0" result="BackgroundImageFix"/>
<feColorMatrix in="SourceAlpha" type="matrix" values="0 0 0 0 0 0 0 0 0 0 0 0 0 0 0 0 0 0 127 0" result="hardAlpha"/>
<feOffset dy="1.91989"/>
<feComposite in2="hardAlpha" operator="out"/>
<feColorMatrix type="matrix" values="0 0 0 0 0.176471 0 0 0 0 0.0352941 0 0 0 0 0.262745 0 0 0 1 0"/>
<feBlend mode="normal" in2="BackgroundImageFix" result="effect1_dropShadow_118_1881"/>
<feBlend mode="normal" in="SourceGraphic" in2="effect1_dropShadow_118_1881" result="shape"/>
<feColorMatrix in="SourceAlpha" type="matrix" values="0 0 0 0 0 0 0 0 0 0 0 0 0 0 0 0 0 0 127 0" result="hardAlpha"/>
<feOffset dx="0.300705" dy="-0.526233"/>
<feComposite in2="hardAlpha" operator="arithmetic" k2="-1" k3="1"/>
<feColorMatrix type="matrix" values="0 0 0 0 0 0 0 0 0 0 0 0 0 0 0 0 0 0 0.25 0"/>
<feBlend mode="normal" in2="shape" result="effect2_innerShadow_118_1881"/>
</filter>
<filter id="filter2_i_118_1881" x="62.7619" y="43.3857" width="31.5152" height="35.4065" filterUnits="userSpaceOnUse" color-interpolation-filters="sRGB">
<feFlood flood-opacity="0" result="BackgroundImageFix"/>
<feBlend mode="normal" in="SourceGraphic" in2="BackgroundImageFix" result="shape"/>
<feColorMatrix in="SourceAlpha" type="matrix" values="0 0 0 0 0 0 0 0 0 0 0 0 0 0 0 0 0 0 127 0" result="hardAlpha"/>
<feOffset dx="0.281899" dy="-0.493324"/>
<feComposite in2="hardAlpha" operator="arithmetic" k2="-1" k3="1"/>
<feColorMatrix type="matrix" values="0 0 0 0 0 0 0 0 0 0 0 0 0 0 0 0 0 0 0.25 0"/>
<feBlend mode="normal" in2="shape" result="effect1_innerShadow_118_1881"/>
</filter>
<filter id="filter3_i_118_1881" x="73.1883" y="41.8158" width="30.0223" height="36.1162" filterUnits="userSpaceOnUse" color-interpolation-filters="sRGB">
<feFlood flood-opacity="0" result="BackgroundImageFix"/>
<feBlend mode="normal" in="SourceGraphic" in2="BackgroundImageFix" result="shape"/>
<feColorMatrix in="SourceAlpha" type="matrix" values="0 0 0 0 0 0 0 0 0 0 0 0 0 0 0 0 0 0 127 0" result="hardAlpha"/>
<feOffset dx="0.300705" dy="-0.526233"/>
<feComposite in2="hardAlpha" operator="arithmetic" k2="-1" k3="1"/>
<feColorMatrix type="matrix" values="0 0 0 0 0 0 0 0 0 0 0 0 0 0 0 0 0 0 0.25 0"/>
<feBlend mode="normal" in2="shape" result="effect1_innerShadow_118_1881"/>
</filter>
<filter id="filter4_i_118_1881" x="64.7246" y="53.9971" width="25.8318" height="27.1559" filterUnits="userSpaceOnUse" color-interpolation-filters="sRGB">
<feFlood flood-opacity="0" result="BackgroundImageFix"/>
<feBlend mode="normal" in="SourceGraphic" in2="BackgroundImageFix" result="shape"/>
<feColorMatrix in="SourceAlpha" type="matrix" values="0 0 0 0 0 0 0 0 0 0 0 0 0 0 0 0 0 0 127 0" result="hardAlpha"/>
<feOffset dy="-1.30865"/>
<feGaussianBlur stdDeviation="2.20834"/>
<feComposite in2="hardAlpha" operator="arithmetic" k2="-1" k3="1"/>
<feColorMatrix type="matrix" values="0 0 0 0 0 0 0 0 0 0 0 0 0 0 0 0 0 0 0.35 0"/>
<feBlend mode="normal" in2="shape" result="effect1_innerShadow_118_1881"/>
</filter>
<linearGradient id="paint0_linear_118_1881" x1="80.3193" y1="16.5373" x2="172.227" y2="127.299" gradientUnits="userSpaceOnUse">
<stop stop-color="#F1F1F1"/>
<stop offset="1" stop-color="#E1E1E1"/>
</linearGradient>
<linearGradient id="paint1_linear_118_1881" x1="91.0997" y1="43.5917" x2="85.34" y2="76.1644" gradientUnits="userSpaceOnUse">
<stop stop-color="#FFF9E2"/>
<stop offset="1" stop-color="#FCE5C3"/>
</linearGradient>
<linearGradient id="paint2_linear_118_1881" x1="73.7389" y1="51.2538" x2="73.7389" y2="81.7272" gradientUnits="userSpaceOnUse">
<stop stop-color="#FFF9E2"/>
<stop offset="1" stop-color="#FCE5C3"/>
</linearGradient>
<linearGradient id="paint3_linear_118_1881" x1="74.1516" y1="52.032" x2="74.1516" y2="79.7351" gradientUnits="userSpaceOnUse">
<stop stop-color="#E74443"/>
<stop offset="1" stop-color="#CC0A09"/>
</linearGradient>
<linearGradient id="paint4_linear_118_1881" x1="73.7399" y1="51.2534" x2="73.7399" y2="81.7269" gradientUnits="userSpaceOnUse">
<stop stop-color="#FFF9E2"/>
<stop offset="1" stop-color="#FCE5C3"/>
</linearGradient>
<linearGradient id="paint5_linear_118_1881" x1="91.2745" y1="41.3625" x2="91.2745" y2="74.4401" gradientUnits="userSpaceOnUse">
<stop stop-color="#FFF9E2"/>
<stop offset="1" stop-color="#FCE5C3"/>
</linearGradient>
<linearGradient id="paint6_linear_118_1881" x1="90.9898" y1="43.105" x2="90.9898" y2="73.1755" gradientUnits="userSpaceOnUse">
<stop stop-color="#E74443"/>
<stop offset="1" stop-color="#CC0A09"/>
</linearGradient>
<radialGradient id="paint7_radial_118_1881" cx="0" cy="0" r="1" gradientUnits="userSpaceOnUse" gradientTransform="translate(12.7831 7.74848) rotate(75.3868) scale(21.0453 20.9866)">
<stop offset="0.135417" stop-color="#00E0FF"/>
<stop offset="1" stop-color="#0055A3"/>
</radialGradient>
<radialGradient id="paint8_radial_118_1881" cx="0" cy="0" r="1" gradientUnits="userSpaceOnUse" gradientTransform="translate(12.7831 7.74848) rotate(75.3868) scale(21.0453 20.9866)">
<stop offset="0.135417" stop-color="#00E0FF"/>
<stop offset="1" stop-color="#0055A3"/>
</radialGradient>
<linearGradient id="paint9_linear_118_1881" x1="7.66598" y1="0" x2="7.66598" y2="15.5366" gradientUnits="userSpaceOnUse">
<stop stop-color="white"/>
<stop offset="1" stop-color="#C6C6C6" stop-opacity="0.47"/>
</linearGradient>
<linearGradient id="paint10_linear_118_1881" x1="70.3927" y1="59.1704" x2="88.2776" y2="78.0108" gradientUnits="userSpaceOnUse">
<stop stop-color="#1A3699"/>
<stop offset="1" stop-color="#1A4C99" stop-opacity="0"/>
</linearGradient>
<linearGradient id="paint11_linear_118_1881" x1="69.9506" y1="59.9592" x2="81.7961" y2="72.3373" gradientUnits="userSpaceOnUse">
<stop stop-color="white"/>
<stop offset="1" stop-color="#D9D9D9" stop-opacity="0"/>
</linearGradient>
<linearGradient id="paint12_linear_118_1881" x1="42.9808" y1="16.5373" x2="80.9617" y2="24.5979" gradientUnits="userSpaceOnUse">
<stop stop-color="#F1F1F1"/>
<stop offset="1" stop-color="#E1E1E1"/>
</linearGradient>
</defs>
</svg>
