<svg width="279" height="132" viewBox="0 0 279 132" fill="none" xmlns="http://www.w3.org/2000/svg">
<g filter="url(#filter0_d_118_2373)">
<rect x="35.421" y="35.5" width="200" height="52.5" rx="8.1125" fill="white"/>
<rect x="35.421" y="35.5" width="200" height="52.5" rx="8.1125" stroke="url(#paint0_linear_118_2373)" stroke-opacity="0.3" stroke-width="1.62697"/>
</g>
<g filter="url(#filter1_d_118_2373)">
<path d="M85.9806 46.5536C85.7114 46.4263 84.6492 45.9226 84.3763 45.7904C83.5555 45.3985 82.6182 45.3457 81.7681 45.6435C81.7086 45.6649 81.6495 45.6881 81.5914 45.7128C81.573 45.7199 81.555 45.729 81.5364 45.7374L81.4188 45.7921L81.358 45.8232L81.2512 45.8809L81.1916 45.9165L81.0855 45.9824L81.0356 46.0195L80.9206 46.1052L80.8859 46.131C80.8353 46.1686 80.784 46.2068 80.7382 46.2508L80.7271 46.259C80.6839 46.2966 80.6419 46.3356 80.5989 46.3763L80.5582 46.4186C80.528 46.4488 80.4968 46.4807 80.4703 46.5102L80.4468 46.5278L80.4038 46.5772L80.3682 46.619C80.3407 46.6515 80.3149 46.6849 80.2885 46.7188L80.2689 46.7432C80.2376 46.7851 80.2068 46.8276 80.1771 46.8716L80.1514 46.9094L80.0886 47.0074L80.0603 47.0547L80.0047 47.1507L79.9788 47.1984C79.9596 47.2334 79.9424 47.2681 79.9249 47.304L79.9035 47.3462C79.8804 47.3962 79.8579 47.4469 79.8358 47.4982C79.7135 47.8047 79.5289 48.0814 79.2935 48.3109C79.0582 48.5405 78.7773 48.7178 78.4686 48.8317C78.1582 48.9418 77.8268 48.9824 77.4973 48.9507L72.884 48.5236C72.4017 48.4779 71.9167 48.5385 71.4629 48.7011V48.7011C71.3996 48.7231 71.3377 48.7484 71.2763 48.7745L71.2213 48.799C71.1789 48.8186 71.1357 48.8387 71.0942 48.8598L71.0334 48.8909C70.9939 48.9116 70.9568 48.9326 70.9162 48.9563L70.856 48.9912L70.7448 49.0631L70.7039 49.0935L70.5618 49.1993L70.4925 49.2509L70.4322 49.2958C70.4094 49.3128 70.3865 49.3298 70.3671 49.353C70.3248 49.3845 70.2895 49.4239 70.2521 49.4604L66.9834 52.7044C66.7508 52.9377 66.4693 53.1163 66.1589 53.2275C65.848 53.3348 65.5173 53.3758 65.188 53.348C64.8586 53.3202 64.5376 53.2242 64.2453 53.066C63.8339 52.8473 63.3829 52.7162 62.9208 52.6811C62.4588 52.6459 61.9958 52.7075 61.5612 52.862V52.862C60.7151 53.1709 60.0288 53.8038 59.6512 54.6236C59.4565 55.05 59.3484 55.5119 59.3332 55.9828C59.3179 56.4537 59.3957 56.9243 59.5621 57.3673L61.7445 63.327C61.8167 63.5223 61.8899 63.7147 61.9617 63.9081C61.9818 63.9597 62.0032 64.0115 62.0233 64.0632C62.0853 64.2188 62.1486 64.3733 62.2134 64.5269C62.2288 64.5635 62.2435 64.6006 62.2594 64.6379C62.3387 64.8235 62.4194 65.0071 62.5014 65.1886C62.518 65.2253 62.5353 65.2616 62.5524 65.2991C62.6199 65.4477 62.6891 65.5946 62.76 65.7399L62.8255 65.8757C62.9117 66.0508 62.9993 66.2249 63.0878 66.396C63.0967 66.4079 63.1022 66.4224 63.1097 66.4354C63.1724 66.5558 63.2358 66.6758 63.3008 66.7934C63.3206 66.8301 63.3412 66.865 63.3609 66.9016C63.3806 66.9383 63.4096 66.9888 63.4341 67.0318C63.5248 67.1922 63.6165 67.3511 63.7093 67.5085C63.7171 67.5191 63.7255 67.5303 63.7334 67.5408C63.8217 67.6885 63.9116 67.8338 64.0031 67.9769C64.0313 68.0149 64.0533 68.0575 64.0795 68.097C64.1745 68.2448 64.2708 68.3915 64.3699 68.5362C64.3913 68.565 64.4128 68.5938 64.4342 68.6227C64.518 68.7438 64.6024 68.8645 64.6869 68.9808C64.7156 69.0194 64.7439 69.0574 64.7721 69.0954C64.8731 69.231 64.9731 69.3652 65.0725 69.4988C65.0986 69.5339 65.1248 69.5691 65.151 69.6042C65.2392 69.7155 65.3281 69.8263 65.4186 69.9348C65.4421 69.9664 65.4657 69.998 65.4941 70.0261C65.6016 70.1546 65.712 70.2811 65.8227 70.4052C65.8467 70.4375 65.877 70.4652 65.9033 70.4948C66.011 70.6134 66.1189 70.7308 66.2296 70.8462L66.2583 70.8761C66.3803 71.0038 66.4998 71.1224 66.6223 71.242C66.6486 71.2672 66.6742 71.2929 66.7 71.3174C66.8243 71.4368 66.9489 71.5549 67.0758 71.669C67.6696 72.2046 68.3038 72.6931 68.9724 73.13C70.9824 74.5077 73.3994 75.7779 74.3348 76.0101C78.3758 77.014 82.4711 75.9031 82.6122 75.8625L82.7191 75.831L82.8214 75.7876C82.9561 75.7299 86.1419 74.3479 88.5972 71.0225C90.0467 69.0682 90.9786 66.7727 91.3073 64.3471C91.7235 61.3543 91.285 58.064 90.0043 54.5671L87.8214 48.6067C87.6634 48.1611 87.4193 47.7502 87.1034 47.3978C86.7874 47.0454 86.4058 46.7585 85.9806 46.5536V46.5536Z" fill="#1F1F1F"/>
<path d="M58.8256 54.0062C59.298 53.1005 60.0694 52.3887 61.0099 51.9917L61.2143 51.9113L61.2217 51.9082L61.4372 51.8379C61.9422 51.6879 62.4712 51.6316 62.9984 51.6716C63.5258 51.7117 64.0418 51.8474 64.5206 52.0712L64.7236 52.1721L64.7286 52.1756L64.8598 52.2374C64.9929 52.2924 65.1336 52.3264 65.2757 52.3381C65.4651 52.3536 65.6539 52.3289 65.8304 52.2672L65.8297 52.2678C65.9965 52.2066 66.1476 52.1104 66.2731 51.9852L66.2748 51.9827L69.543 48.7388L69.7147 48.5769C70.1261 48.2107 70.6051 47.9266 71.1255 47.7409L71.1247 47.7415C71.7186 47.5288 72.3522 47.4496 72.981 47.5089L77.5944 47.9362L77.5985 47.9368L77.7352 47.9422C77.8705 47.9404 78.0037 47.9157 78.1302 47.8709C78.3015 47.8063 78.4572 47.7076 78.588 47.58C78.7212 47.4501 78.826 47.2932 78.8957 47.1184L78.8989 47.1112L78.9899 46.9047C79.2141 46.4272 79.5236 45.9941 79.9048 45.6282C80.2858 45.2624 80.7307 44.9712 81.2166 44.7673L81.4277 44.6844L81.4349 44.6827L81.6437 44.6149C82.6913 44.3055 83.8202 44.3961 84.8133 44.8691L86.4202 45.6342L86.4255 45.6364L86.628 45.74C87.092 45.9931 87.5103 46.3244 87.8636 46.7194C88.2675 47.1711 88.5795 47.6981 88.7812 48.2692L90.9594 54.219C92.2837 57.8351 92.758 61.2939 92.3149 64.4848L92.3162 64.485C91.9647 67.0795 90.9669 69.5366 89.4146 71.6294L89.4132 71.6292C86.8011 75.1658 83.4239 76.6374 83.2226 76.7236L83.2197 76.7246L83.117 76.7682L83.0634 76.791L83.0073 76.8072L82.9007 76.8391L82.8943 76.8402C82.7111 76.8929 78.4006 78.068 74.0909 76.9974L74.0915 76.9982C73.6672 76.8929 73.1015 76.656 72.5097 76.3714C71.8985 76.0775 71.1953 75.7012 70.474 75.2804C69.2219 74.5499 67.8668 73.6568 66.824 72.793L66.3978 72.4248C63.9918 70.2582 62.1127 67.2934 60.7906 63.6794L58.6083 57.7193C58.3974 57.1549 58.2981 56.555 58.3177 55.9536C58.3374 55.3489 58.4762 54.7539 58.7274 54.2047L58.7284 54.2027L58.8256 54.0062Z" fill="#837886" stroke="#460860" stroke-width="2.03267"/>
<path d="M77.3483 50.8608L72.7349 50.4337C72.5282 50.414 72.3202 50.4397 72.1256 50.5091C71.931 50.5786 71.7544 50.69 71.6081 50.8357L68.3393 54.0796C67.041 55.3739 65.0765 55.6446 63.389 54.7697C62.1372 54.1198 60.8545 55.3555 61.3571 56.728L63.5394 62.6876L75.0756 58.5651L86.6118 54.4425L84.4295 48.4829C83.9263 47.1097 82.1406 46.9709 81.5986 48.2625C80.8688 50.0008 79.185 51.0305 77.3483 50.8608Z" fill="#A72518"/>
<path d="M75.0733 58.5623L63.5371 62.6848C68.6667 76.6936 80.451 73.2515 80.451 73.2515C80.451 73.2515 91.7381 68.447 86.6085 54.4383L75.0733 58.5623Z" fill="#214BA2"/>
<path d="M74.7902 50.0551L72.2804 51.5783C72.1063 51.5559 71.93 51.5748 71.7657 51.6336C71.6014 51.6923 71.4537 51.7893 71.3345 51.9166L68.6377 54.7642C67.5637 55.8969 65.9085 56.1012 64.4605 55.2774C63.386 54.666 62.3263 55.7498 62.7826 56.9951L64.7623 62.4033L74.442 58.944L84.1218 55.4847L82.1421 50.0765C81.6858 48.8312 80.1705 48.6681 79.7402 49.8175C79.1601 51.3691 76.347 50.2496 74.7902 50.0551Z" fill="#FF3E29"/>
<path d="M74.4399 58.9443L64.7602 62.4036C69.0646 74.1581 78.9535 71.2706 78.9535 71.2706C78.9535 71.2706 88.4234 67.24 84.1197 55.485L74.4399 58.9443Z" fill="#0066F6"/>
<path d="M85.1323 46.2774C84.5427 46.1638 83.9357 46.2086 83.3731 46.4073C83.045 46.5238 82.7382 46.6924 82.4644 46.9068C82.0135 47.2622 81.6618 47.7282 81.4422 48.261L81.438 48.2641C81.3154 48.5694 81.1308 48.8451 80.8959 49.0738C80.6609 49.3025 80.3806 49.4793 80.0727 49.5929C79.7625 49.7034 79.431 49.744 79.1015 49.7118L74.4876 49.284C74.006 49.2403 73.5222 49.3023 73.0697 49.4657C72.6153 49.6274 72.2031 49.8874 71.8617 50.2274L68.5929 53.4714C68.3603 53.7047 68.0789 53.8832 67.7685 53.9945C67.4574 54.102 67.1267 54.1432 66.7972 54.1155C66.4677 54.0878 66.1466 53.9917 65.8542 53.8334C65.4429 53.6143 64.9918 53.483 64.5297 53.4479C64.0676 53.4128 63.6045 53.4746 63.1701 53.6294C62.3238 53.9374 61.6374 54.5701 61.2602 55.3899C61.0653 55.8161 60.9572 56.2781 60.9419 56.7491C60.9266 57.22 61.0045 57.6906 61.1711 58.1335L63.3535 64.0932C64.6334 67.5907 66.4292 70.3949 68.6857 72.4335C69.5442 73.2083 70.4874 73.8825 71.4966 74.4428C72.1438 74.7032 72.8077 74.9182 73.4835 75.0861C77.524 76.0893 80.8685 75.1375 81.0084 75.0968L81.1158 75.066L81.2181 75.0226C81.3529 74.9649 84.5387 73.5829 86.9944 70.2581C88.4438 68.3033 89.3753 66.0073 89.7035 63.5813C90.1203 60.5893 89.6824 57.2984 88.4017 53.8015L86.2201 47.8413C86.0007 47.2343 85.6253 46.6945 85.1323 46.2774V46.2774ZM88.2131 55.2091C90.7779 62.2134 89.2395 66.9165 87.0614 69.8663C84.8834 72.8161 82.0598 74.0191 82.0598 74.0191C82.0598 74.0191 77.1564 75.4508 72.2992 72.7082C69.6276 71.2015 66.9651 68.4252 65.1442 63.4516L62.9618 57.4919C62.6216 56.5633 63.0989 55.6968 63.8309 55.4358C64.0199 55.3696 64.2211 55.3442 64.4216 55.3611C64.6221 55.3779 64.8174 55.4368 64.9949 55.5338C65.5331 55.8149 66.1213 55.9836 66.7234 56.0298C67.3033 56.0731 67.8842 55.9951 68.4293 55.8009C68.9988 55.5967 69.5157 55.2701 69.9441 54.8436L73.2128 51.5996C73.3592 51.4537 73.5358 51.342 73.7305 51.2721C73.925 51.2029 74.1326 51.1773 74.3391 51.197L78.9532 51.6236C79.5582 51.6814 80.1667 51.6061 80.7362 51.4028C81.3104 51.197 81.8313 50.867 82.2622 50.436C82.6637 50.0322 82.9832 49.5537 83.2033 49.0265C83.2836 48.8322 83.4027 48.6569 83.5533 48.5114C83.6914 48.3805 83.8551 48.2798 84.0343 48.2156C84.1111 48.1882 84.1903 48.1676 84.2708 48.1542C84.3544 48.1401 84.4391 48.1333 84.524 48.134C85.1361 48.1359 85.7679 48.5187 86.0337 49.2461L88.2131 55.2091Z" fill="#A49CA6"/>
<path d="M85.1322 46.2776C84.9021 46.083 84.648 45.9193 84.3764 45.7905C83.5553 45.3986 82.6177 45.346 81.7675 45.6441C81.3334 45.8 80.9376 46.0453 80.6051 46.3644C80.2727 46.6835 80.011 47.0695 79.8366 47.4978C79.7143 47.8042 79.5297 48.081 79.2943 48.3105C79.059 48.54 78.7781 48.7174 78.4694 48.8313C78.1589 48.9417 77.8272 48.9825 77.4974 48.9508L72.8836 48.523C72.4014 48.4773 71.9165 48.5381 71.463 48.7011C71.0089 48.8627 70.5969 49.1225 70.2557 49.4623L66.9869 52.7063C66.7543 52.9396 66.4729 53.1181 66.1625 53.2294C65.8514 53.3367 65.5207 53.3778 65.1912 53.3501C64.8617 53.3224 64.5406 53.2265 64.2482 53.0683C63.8367 52.8495 63.3856 52.7183 62.9235 52.6831C62.4614 52.6479 61.9983 52.7093 61.5636 52.8636C60.7174 53.1725 60.0312 53.8055 59.6535 54.6253C59.4589 55.0516 59.3508 55.5136 59.3355 55.9845C59.3202 56.4554 59.398 56.9259 59.5645 57.369L61.7468 63.3286C63.0275 66.8255 64.8226 69.6304 67.0798 71.6684C68.3795 72.8474 69.8752 73.787 71.4965 74.443C72.1437 74.7034 72.8076 74.9184 73.4834 75.0863C77.5239 76.0895 80.8685 75.1377 81.0083 75.097L81.1157 75.0662L81.218 75.0228C81.3528 74.965 84.5386 73.5831 86.9943 70.2583C88.4437 68.3035 89.3753 66.0075 89.7034 63.5815C90.1202 60.5895 89.6823 57.2986 88.4016 53.8017L86.22 47.8415C86.0006 47.2345 85.6252 46.6947 85.1322 46.2776V46.2776ZM63.5393 62.6879L61.3569 56.7282C61.0167 55.7996 61.4932 54.9336 62.226 54.6721C62.4148 54.6059 62.616 54.5804 62.8164 54.5974C63.0168 54.6143 63.212 54.6734 63.3893 54.7706C63.9279 55.0524 64.5167 55.2214 65.1195 55.2675C65.6994 55.311 66.2803 55.233 66.8254 55.0386C67.395 54.8345 67.9118 54.5076 68.3396 54.0806L71.6089 50.8373C71.7551 50.6916 71.9315 50.58 72.1259 50.5103C72.3206 50.441 72.5285 50.4152 72.7353 50.4347L77.3486 50.8618C77.9539 50.9191 78.5626 50.8436 79.1323 50.6405C79.6869 50.4387 80.1924 50.1234 80.6171 49.7144C81.0418 49.3053 81.3765 48.8114 81.6001 48.2637C81.68 48.0695 81.7989 47.8944 81.9495 47.7491C82.0872 47.6183 82.2507 47.5178 82.4297 47.4538C82.7677 47.3403 83.136 47.3484 83.472 47.4766C83.808 47.6049 84.0909 47.8453 84.2728 48.1572C84.337 48.261 84.3902 48.3712 84.4314 48.4859L86.6137 54.4456C89.1785 61.45 87.6394 66.1536 85.4621 69.1029C83.2847 72.0521 80.4597 73.2562 80.4597 73.2562C80.4597 73.2562 76.5807 74.3885 72.3046 72.7086C69.1224 71.4608 65.7255 68.66 63.5393 62.6879V62.6879Z" fill="white"/>
<path d="M85.1321 46.2775C84.902 46.0829 84.6479 45.9191 84.3763 45.7904C83.5553 45.3985 82.6177 45.3459 81.7674 45.6439C81.2604 45.8241 80.8071 46.1274 80.4475 46.5272C80.1913 46.8138 79.9848 47.1417 79.8365 47.4977C79.7142 47.8041 79.5296 48.0808 79.2942 48.3104C79.0589 48.5399 78.778 48.7172 78.4693 48.8311C78.1588 48.9416 77.8271 48.9824 77.4974 48.9506L72.8835 48.5228C72.4013 48.4771 71.9164 48.5379 71.463 48.701C71.1931 48.797 70.9372 48.928 70.7018 49.0907C70.5428 49.2015 70.3935 49.3258 70.2556 49.4621L66.9869 52.7061C66.7542 52.9394 66.4728 53.118 66.1624 53.2292C65.8514 53.3366 65.5207 53.3777 65.1912 53.35C64.8617 53.3223 64.5406 53.2263 64.2481 53.0682C63.8367 52.8494 63.3856 52.7182 62.9234 52.683C62.4613 52.6477 61.9982 52.7092 61.5635 52.8635C60.7174 53.1724 60.0311 53.8054 59.6534 54.6252C59.4588 55.0515 59.3507 55.5134 59.3354 55.9844C59.3201 56.4553 59.398 56.9258 59.5644 57.3688L61.7468 63.3285C62.1789 64.5201 62.7001 65.6782 63.3059 66.7929C64.3613 68.7228 65.624 70.3553 67.0797 71.6683C68.3794 72.8473 69.8751 73.7869 71.4965 74.4428C71.8604 74.5892 72.2306 74.7214 72.6071 74.8395C72.8959 74.9303 73.1882 75.0124 73.484 75.0857C77.5246 76.0888 80.8691 75.1371 81.0089 75.0963L81.1163 75.0655L81.2186 75.0221C81.3534 74.9644 84.5392 73.5824 86.995 70.2577C88.4443 68.3029 89.3759 66.0069 89.704 63.5809C90.1208 60.5888 89.6829 57.298 88.4023 53.801L86.2206 47.8409C86.0009 47.2339 85.6253 46.6944 85.1321 46.2775V46.2775ZM86.6116 54.4427C89.1764 61.447 87.6373 66.1507 85.4599 69.0999C83.2825 72.0492 80.4576 73.2532 80.4576 73.2532C80.4576 73.2532 78.2652 73.8935 75.3608 73.4962C74.3156 73.3555 73.2893 73.0897 72.3038 72.7046C69.8145 71.7264 67.1892 69.7942 65.1177 66.129C64.4992 65.0254 63.9728 63.8731 63.544 62.6842L61.3617 56.7245C61.0215 55.7958 61.498 54.9298 62.2307 54.6684C62.4196 54.6021 62.6208 54.5766 62.8212 54.5936C63.0216 54.6106 63.2168 54.6696 63.3941 54.7669C63.931 55.0492 64.518 55.2195 65.1195 55.2673C65.6993 55.3109 66.2803 55.2329 66.8253 55.0384C67.3949 54.8344 67.9117 54.5075 68.3396 54.0805L71.6089 50.8372C71.6732 50.7728 71.7439 50.715 71.8199 50.6648C71.9149 50.6007 72.0177 50.5487 72.1259 50.5102C72.3205 50.4409 72.5284 50.4151 72.7352 50.4346L77.3485 50.8616C77.9538 50.919 78.5625 50.8435 79.1322 50.6403C80.1598 50.2675 81.0003 49.5108 81.4802 48.5264C81.5239 48.4404 81.5665 48.353 81.6001 48.2635C81.6799 48.0694 81.7988 47.8942 81.9494 47.7489C82.0871 47.6182 82.2506 47.5176 82.4297 47.4537C82.7677 47.3402 83.1359 47.3483 83.4719 47.4765C83.8079 47.6047 84.0909 47.8452 84.2728 48.1571C84.337 48.2609 84.3901 48.3711 84.4313 48.4858L86.6116 54.4427Z" fill="#E3DFD4"/>
<path d="M87.6639 56.0242L64.3125 64.3689L63.7103 62.7253L87.1232 54.3588L87.6639 56.0242Z" fill="#A49CA6"/>
<path d="M62.935 61.981L63.5368 63.6248L86.9121 55.2729L86.3104 53.6292L62.935 61.981Z" fill="#E3DFD4"/>
<g style="mix-blend-mode:overlay" opacity="0.25">
<path d="M74.1898 60.3662C72.6349 66.4274 63.8782 66.5997 63.3059 66.7931C62.7001 65.6784 62.1789 64.5202 61.7468 63.3286L59.5645 57.369C59.398 56.926 59.3202 56.4554 59.3355 55.9845C59.3508 55.5136 59.4589 55.0516 59.6535 54.6253C60.0312 53.8055 60.7174 53.1726 61.5636 52.8636C61.9983 52.7094 62.4613 52.6479 62.9235 52.6831C63.3856 52.7184 63.8367 52.8496 64.2482 53.0684C64.5412 53.2266 64.8628 53.3224 65.1928 53.3497C65.5228 53.3771 65.854 53.3354 66.1653 53.2273C66.4757 53.1161 66.7571 52.9375 66.9897 52.7042L70.2585 49.4602C70.3963 49.3239 70.5456 49.1996 70.7047 49.0888C71.0956 49.5777 75.9903 53.3531 74.1898 60.3662Z" fill="#E5E5E5"/>
</g>
<path d="M84.524 48.134C84.4391 48.1334 84.3544 48.1402 84.2708 48.1543C84.1903 48.1677 84.1111 48.1882 84.0343 48.2156C83.8551 48.2799 83.6914 48.3806 83.5533 48.5114C83.4027 48.657 83.2836 48.8322 83.2033 49.0265C82.9832 49.5538 82.6637 50.0323 82.2622 50.4361L81.4793 48.525L81.4396 48.2662L81.4437 48.2631C81.6633 47.7304 82.0151 47.2644 82.466 46.909L84.075 47.081L84.3148 47.7359L84.524 48.134Z" fill="#958D96"/>
<path d="M83.7695 54.5368L84.3713 56.1805L87.0317 55.23L86.4299 53.5863L83.7695 54.5368Z" fill="#D1C0C1"/>
<path d="M84.3713 56.1716L84.6414 57.1044L87.646 56.0506L87.2318 55.1498L84.3713 56.1716Z" fill="#958D96"/>
<path d="M86.2219 47.8422L88.4036 53.8023C89.6842 57.2993 90.1193 60.5922 89.7053 63.5822C89.3772 66.0082 88.4456 68.3042 86.9962 70.259C84.5405 73.5837 81.3547 74.9657 81.2199 75.0234L81.1176 75.0668L81.0102 75.0976C80.8704 75.1384 77.5259 76.0901 73.4853 75.0869C73.1906 75.0151 72.8982 74.933 72.6084 74.8408C73.5677 74.3932 74.4843 73.9489 75.3562 73.4997C78.262 73.8959 80.453 73.2567 80.453 73.2567L80.4599 73.2516L80.4843 73.241C80.8024 73.0982 83.4102 71.8701 85.4553 69.1034C87.4402 66.4165 88.8943 62.2743 87.2055 56.2629C87.0392 55.673 86.842 55.0657 86.6139 54.441L84.4316 48.4813C84.3904 48.3666 84.3372 48.2564 84.273 48.1526C84.0911 47.8407 83.8081 47.6003 83.4721 47.472C83.1362 47.3438 82.7679 47.3357 82.4299 47.4492C82.2509 47.5132 82.0874 47.6137 81.9496 47.7445C81.7991 47.8898 81.6802 48.0649 81.6003 48.2591C81.5608 48.3507 81.5227 48.437 81.4804 48.522C81.1708 47.8391 80.8265 47.1722 80.4488 46.5241C80.8084 46.1244 81.2617 45.821 81.7687 45.6409C82.619 45.3428 83.5565 45.3954 84.3776 45.7873C84.6492 45.9161 84.9033 46.0798 85.1334 46.2744C85.6272 46.6925 86.0029 47.2337 86.2219 47.8422V47.8422Z" fill="#D1C0C1"/>
<path style="mix-blend-mode:overlay" d="M80.4867 73.2414C80.8048 73.0986 83.4126 71.8705 85.4577 69.1039C87.4426 66.4169 88.8967 62.2747 87.2079 56.2633C87.2034 56.2645 93.7383 67.6267 80.4867 73.2414Z" fill="url(#paint1_linear_118_2373)"/>
<path style="mix-blend-mode:overlay" d="M63.2245 61.8527L86.3122 53.6224C86.3122 53.6224 83.6854 55.6424 74.4418 58.9452C65.1981 62.2481 63.2245 61.8527 63.2245 61.8527Z" fill="url(#paint2_linear_118_2373)"/>
</g>
<path d="M109.319 66.25V56.5562H115.658V57.9587H111.079V60.695H115.369V62.0975H111.079V66.25H109.319ZM119.525 66.3875C119.039 66.3875 118.604 66.2958 118.219 66.1125C117.843 65.92 117.545 65.6633 117.325 65.3425C117.114 65.0217 117.009 64.6596 117.009 64.2562C117.009 63.7612 117.137 63.3717 117.394 63.0875C117.65 62.7942 118.067 62.5833 118.645 62.455C119.222 62.3267 119.997 62.2625 120.969 62.2625H121.656V63.2525H120.982C120.552 63.2525 120.189 63.2708 119.896 63.3075C119.603 63.335 119.364 63.3854 119.181 63.4587C119.007 63.5229 118.879 63.6146 118.796 63.7337C118.723 63.8529 118.686 63.9996 118.686 64.1737C118.686 64.4762 118.792 64.7237 119.002 64.9162C119.213 65.1087 119.507 65.205 119.882 65.205C120.185 65.205 120.451 65.1362 120.68 64.9987C120.918 64.8521 121.106 64.655 121.244 64.4075C121.381 64.16 121.45 63.8758 121.45 63.555V61.9737C121.45 61.5154 121.349 61.1854 121.147 60.9837C120.946 60.7821 120.607 60.6812 120.13 60.6812C119.754 60.6812 119.369 60.7408 118.975 60.86C118.581 60.97 118.182 61.1442 117.779 61.3825L117.284 60.2137C117.522 60.0487 117.802 59.9067 118.122 59.7875C118.452 59.6592 118.796 59.5629 119.154 59.4987C119.52 59.4254 119.864 59.3887 120.185 59.3887C120.845 59.3887 121.386 59.4896 121.807 59.6912C122.238 59.8929 122.559 60.2 122.77 60.6125C122.981 61.0158 123.086 61.5383 123.086 62.18V66.25H121.477V64.82H121.587C121.523 65.1408 121.395 65.4204 121.202 65.6587C121.019 65.8879 120.785 66.0667 120.501 66.195C120.217 66.3233 119.892 66.3875 119.525 66.3875ZM125.563 66.25V59.5262H127.24V60.8737H127.089C127.208 60.5621 127.373 60.2962 127.584 60.0762C127.795 59.8562 128.047 59.6867 128.34 59.5675C128.634 59.4483 128.959 59.3887 129.316 59.3887C129.857 59.3887 130.302 59.5171 130.65 59.7737C130.999 60.0304 131.241 60.4246 131.379 60.9562H131.186C131.37 60.4704 131.672 60.09 132.094 59.815C132.516 59.5308 133.001 59.3887 133.551 59.3887C134.065 59.3887 134.486 59.4896 134.816 59.6912C135.156 59.8929 135.408 60.2 135.573 60.6125C135.738 61.0158 135.82 61.5292 135.82 62.1525V66.25H134.101V62.2212C134.101 61.7079 134.014 61.3321 133.84 61.0937C133.675 60.8554 133.391 60.7362 132.988 60.7362C132.694 60.7362 132.438 60.8096 132.218 60.9562C131.998 61.0937 131.828 61.2954 131.709 61.5612C131.599 61.8271 131.544 62.1479 131.544 62.5237V66.25H129.825V62.2212C129.825 61.7079 129.738 61.3321 129.564 61.0937C129.399 60.8554 129.119 60.7362 128.725 60.7362C128.423 60.7362 128.161 60.8096 127.941 60.9562C127.731 61.0937 127.566 61.2954 127.446 61.5612C127.336 61.8271 127.281 62.1479 127.281 62.5237V66.25H125.563ZM138.188 58.0825V56.405H140.113V58.0825H138.188ZM138.298 66.25V59.5262H140.017V66.25H138.298ZM144.844 66.3875C144.047 66.3875 143.456 66.1721 143.071 65.7412C142.695 65.3012 142.507 64.6596 142.507 63.8162V56.5562H144.226V63.7337C144.226 63.9996 144.262 64.2287 144.336 64.4212C144.418 64.6046 144.537 64.7421 144.693 64.8337C144.849 64.9254 145.041 64.9712 145.271 64.9712C145.371 64.9712 145.472 64.9667 145.573 64.9575C145.674 64.9483 145.77 64.93 145.862 64.9025L145.834 66.2638C145.669 66.3004 145.504 66.3279 145.339 66.3463C145.184 66.3738 145.019 66.3875 144.844 66.3875ZM148.033 68.725L149.435 65.6312V66.3463L146.479 59.5262H148.308L150.398 64.7375H149.985L152.116 59.5262H153.849L149.806 68.725H148.033ZM159.945 66.25V56.5562H164.153C165.216 56.5562 166.036 56.8129 166.614 57.3262C167.191 57.8304 167.48 58.5408 167.48 59.4575C167.48 60.0533 167.347 60.5667 167.081 60.9975C166.825 61.4283 166.449 61.7583 165.954 61.9875C165.459 62.2167 164.859 62.3312 164.153 62.3312L164.276 62.125H164.73C165.106 62.125 165.431 62.2167 165.706 62.4C165.991 62.5833 166.238 62.8721 166.449 63.2662L168.071 66.25H166.133L164.455 63.1562C164.345 62.9546 164.221 62.7987 164.084 62.6887C163.946 62.5696 163.791 62.4871 163.616 62.4412C163.442 62.3954 163.241 62.3725 163.011 62.3725H161.705V66.25H159.945ZM161.705 61.0662H163.85C164.483 61.0662 164.959 60.9379 165.28 60.6812C165.61 60.4154 165.775 60.0212 165.775 59.4987C165.775 58.9854 165.61 58.6004 165.28 58.3437C164.959 58.0779 164.483 57.945 163.85 57.945H161.705V61.0662ZM172.803 66.3875C172.106 66.3875 171.501 66.2454 170.988 65.9612C170.474 65.6771 170.076 65.2737 169.791 64.7512C169.507 64.2196 169.365 63.5962 169.365 62.8812C169.365 62.1662 169.507 61.5475 169.791 61.025C170.076 60.5025 170.474 60.0992 170.988 59.815C171.501 59.5308 172.106 59.3887 172.803 59.3887C173.499 59.3887 174.104 59.5308 174.618 59.815C175.131 60.0992 175.53 60.5025 175.814 61.025C176.098 61.5475 176.24 62.1662 176.24 62.8812C176.24 63.5962 176.098 64.2196 175.814 64.7512C175.53 65.2737 175.131 65.6771 174.618 65.9612C174.104 66.2454 173.499 66.3875 172.803 66.3875ZM172.803 65.0812C173.316 65.0812 173.728 64.8979 174.04 64.5312C174.352 64.1554 174.508 63.6054 174.508 62.8812C174.508 62.1479 174.352 61.6025 174.04 61.245C173.728 60.8783 173.316 60.695 172.803 60.695C172.289 60.695 171.877 60.8783 171.565 61.245C171.253 61.6025 171.098 62.1479 171.098 62.8812C171.098 63.6054 171.253 64.1554 171.565 64.5312C171.877 64.8979 172.289 65.0812 172.803 65.0812ZM180.577 66.3875C180.091 66.3875 179.656 66.2958 179.271 66.1125C178.895 65.92 178.597 65.6633 178.377 65.3425C178.166 65.0217 178.061 64.6596 178.061 64.2562C178.061 63.7612 178.189 63.3717 178.446 63.0875C178.702 62.7942 179.119 62.5833 179.697 62.455C180.274 62.3267 181.049 62.2625 182.021 62.2625H182.708V63.2525H182.034C181.604 63.2525 181.242 63.2708 180.948 63.3075C180.655 63.335 180.417 63.3854 180.233 63.4587C180.059 63.5229 179.931 63.6146 179.848 63.7337C179.775 63.8529 179.738 63.9996 179.738 64.1737C179.738 64.4762 179.844 64.7237 180.054 64.9162C180.265 65.1087 180.559 65.205 180.934 65.205C181.237 65.205 181.503 65.1362 181.732 64.9987C181.97 64.8521 182.158 64.655 182.296 64.4075C182.433 64.16 182.502 63.8758 182.502 63.555V61.9737C182.502 61.5154 182.401 61.1854 182.199 60.9837C181.998 60.7821 181.659 60.6812 181.182 60.6812C180.806 60.6812 180.421 60.7408 180.027 60.86C179.633 60.97 179.234 61.1442 178.831 61.3825L178.336 60.2137C178.574 60.0487 178.854 59.9067 179.174 59.7875C179.504 59.6592 179.848 59.5629 180.206 59.4987C180.572 59.4254 180.916 59.3887 181.237 59.3887C181.897 59.3887 182.438 59.4896 182.859 59.6912C183.29 59.8929 183.611 60.2 183.822 60.6125C184.033 61.0158 184.138 61.5383 184.138 62.18V66.25H182.529V64.82H182.639C182.575 65.1408 182.447 65.4204 182.254 65.6587C182.071 65.8879 181.837 66.0667 181.553 66.195C181.269 66.3233 180.944 66.3875 180.577 66.3875ZM189.172 66.3875C188.586 66.3875 188.068 66.2454 187.618 65.9612C187.178 65.6771 186.835 65.2737 186.587 64.7512C186.34 64.2196 186.216 63.5962 186.216 62.8812C186.216 62.1571 186.34 61.5383 186.587 61.025C186.835 60.5025 187.178 60.0992 187.618 59.815C188.068 59.5308 188.586 59.3887 189.172 59.3887C189.731 59.3887 190.217 59.5262 190.63 59.8012C191.051 60.0762 191.336 60.4383 191.482 60.8875H191.331V56.5562H193.05V66.25H191.372V64.82H191.496C191.358 65.2967 191.079 65.6771 190.657 65.9612C190.236 66.2454 189.741 66.3875 189.172 66.3875ZM189.653 65.0812C190.167 65.0812 190.579 64.8979 190.891 64.5312C191.203 64.1554 191.358 63.6054 191.358 62.8812C191.358 62.1479 191.203 61.6025 190.891 61.245C190.579 60.8783 190.167 60.695 189.653 60.695C189.14 60.695 188.728 60.8783 188.416 61.245C188.104 61.6025 187.948 62.1479 187.948 62.8812C187.948 63.6054 188.104 64.1554 188.416 64.5312C188.728 64.8979 189.14 65.0812 189.653 65.0812ZM203.027 66.3875C202.129 66.3875 201.459 66.1629 201.019 65.7137C200.579 65.2646 200.359 64.6092 200.359 63.7475V60.8187H199.067V59.5262H200.359V57.5187H202.078V59.5262H204.113V60.8187H202.078V63.6512C202.078 64.0912 202.174 64.4212 202.367 64.6412C202.559 64.8612 202.871 64.9712 203.302 64.9712C203.43 64.9712 203.563 64.9575 203.701 64.93C203.838 64.8933 203.98 64.8567 204.127 64.82L204.388 66.085C204.223 66.1767 204.012 66.25 203.756 66.305C203.508 66.36 203.265 66.3875 203.027 66.3875ZM205.928 66.25V59.5262H207.606V61.1487H207.468C207.597 60.5987 207.849 60.1817 208.225 59.8975C208.601 59.6042 209.1 59.4346 209.723 59.3887L210.246 59.3475L210.356 60.805L209.366 60.9012C208.807 60.9562 208.385 61.1304 208.101 61.4237C207.817 61.7079 207.675 62.1112 207.675 62.6337V66.25H205.928ZM211.907 58.0825V56.405H213.832V58.0825H211.907ZM212.017 66.25V59.5262H213.736V66.25H212.017ZM216.227 68.725V59.5262H217.904V60.9425H217.767C217.904 60.475 218.184 60.0992 218.605 59.815C219.036 59.5308 219.536 59.3887 220.104 59.3887C220.691 59.3887 221.204 59.5308 221.644 59.815C222.093 60.0992 222.442 60.5025 222.689 61.025C222.937 61.5383 223.06 62.1571 223.06 62.8812C223.06 63.5962 222.937 64.2196 222.689 64.7512C222.442 65.2737 222.098 65.6771 221.658 65.9612C221.218 66.2454 220.7 66.3875 220.104 66.3875C219.545 66.3875 219.054 66.25 218.633 65.975C218.211 65.6908 217.927 65.3242 217.78 64.875H217.945V68.725H216.227ZM219.623 65.0812C220.136 65.0812 220.549 64.8979 220.86 64.5312C221.172 64.1554 221.328 63.6054 221.328 62.8812C221.328 62.1479 221.172 61.6025 220.86 61.245C220.549 60.8783 220.136 60.695 219.623 60.695C219.109 60.695 218.697 60.8783 218.385 61.245C218.074 61.6025 217.918 62.1479 217.918 62.8812C217.918 63.6054 218.074 64.1554 218.385 64.5312C218.697 64.8979 219.109 65.0812 219.623 65.0812Z" fill="#202224"/>
<mask id="mask0_118_2373" style="mask-type:alpha" maskUnits="userSpaceOnUse" x="33" y="34" width="37" height="55">
<path d="M34.171 43.6125C34.171 39.1321 37.8031 35.5 42.2835 35.5H53.557C62.1804 35.5 69.171 42.4906 69.171 51.114V72.386C69.171 81.0094 62.1804 88 53.557 88H42.2835C37.8031 88 34.171 84.3679 34.171 79.8875V43.6125Z" fill="white" stroke="url(#paint3_linear_118_2373)" stroke-opacity="0.3" stroke-width="1.62697"/>
</mask>
<g mask="url(#mask0_118_2373)">
<rect x="32.921" y="34.4904" width="17.5" height="54.5192" fill="#587ED7"/>
</g>
<defs>
<filter id="filter0_d_118_2373" x="0.792663" y="0.87165" width="277.71" height="130.21" filterUnits="userSpaceOnUse" color-interpolation-filters="sRGB">
<feFlood flood-opacity="0" result="BackgroundImageFix"/>
<feColorMatrix in="SourceAlpha" type="matrix" values="0 0 0 0 0 0 0 0 0 0 0 0 0 0 0 0 0 0 127 0" result="hardAlpha"/>
<feOffset dx="4.22686" dy="4.22686"/>
<feGaussianBlur stdDeviation="19.0209"/>
<feColorMatrix type="matrix" values="0 0 0 0 0 0 0 0 0 0 0 0 0 0 0 0 0 0 0.05 0"/>
<feBlend mode="normal" in2="BackgroundImageFix" result="effect1_dropShadow_118_2373"/>
<feBlend mode="normal" in="SourceGraphic" in2="effect1_dropShadow_118_2373" result="shape"/>
</filter>
<filter id="filter1_d_118_2373" x="55.7606" y="41.75" width="40" height="41.4617" filterUnits="userSpaceOnUse" color-interpolation-filters="sRGB">
<feFlood flood-opacity="0" result="BackgroundImageFix"/>
<feColorMatrix in="SourceAlpha" type="matrix" values="0 0 0 0 0 0 0 0 0 0 0 0 0 0 0 0 0 0 127 0" result="hardAlpha"/>
<feOffset dy="1.46173"/>
<feComposite in2="hardAlpha" operator="out"/>
<feColorMatrix type="matrix" values="0 0 0 0 0.176466 0 0 0 0 0.0360937 0 0 0 0 0.2625 0 0 0 1 0"/>
<feBlend mode="normal" in2="BackgroundImageFix" result="effect1_dropShadow_118_2373"/>
<feBlend mode="normal" in="SourceGraphic" in2="effect1_dropShadow_118_2373" result="shape"/>
</filter>
<linearGradient id="paint0_linear_118_2373" x1="81.0253" y1="16.5373" x2="172.825" y2="127.865" gradientUnits="userSpaceOnUse">
<stop stop-color="#F1F1F1"/>
<stop offset="1" stop-color="#E1E1E1"/>
</linearGradient>
<linearGradient id="paint1_linear_118_2373" x1="84.2466" y1="69.9469" x2="88.3743" y2="58.3509" gradientUnits="userSpaceOnUse">
<stop stop-color="white" stop-opacity="0"/>
<stop offset="0.55" stop-color="white"/>
<stop offset="0.99" stop-color="white" stop-opacity="0"/>
</linearGradient>
<linearGradient id="paint2_linear_118_2373" x1="64.2422" y1="61.9848" x2="86.153" y2="54.0415" gradientUnits="userSpaceOnUse">
<stop stop-color="white" stop-opacity="0"/>
<stop offset="0.55" stop-color="white"/>
<stop offset="0.99" stop-color="white" stop-opacity="0"/>
</linearGradient>
<linearGradient id="paint3_linear_118_2373" x1="42.1518" y1="16.5373" x2="80.1327" y2="24.5979" gradientUnits="userSpaceOnUse">
<stop stop-color="#F1F1F1"/>
<stop offset="1" stop-color="#E1E1E1"/>
</linearGradient>
</defs>
</svg>
