<svg width="279" height="131" viewBox="0 0 279 131" fill="none" xmlns="http://www.w3.org/2000/svg">
<g filter="url(#filter0_d_118_2353)">
<rect x="35.421" y="35" width="200" height="52.5" rx="8.1125" fill="white"/>
<rect x="35.421" y="35" width="200" height="52.5" rx="8.1125" stroke="url(#paint0_linear_118_2353)" stroke-opacity="0.3" stroke-width="1.62697"/>
</g>
<g filter="url(#filter1_d_118_2353)">
<g filter="url(#filter2_d_118_2353)">
<path d="M90.6035 55.4449L90.5906 55.4228L90.5807 55.4174C90.5769 55.4128 90.5738 55.4083 90.5693 55.4037C89.7231 54.2091 88.7762 53.0897 87.7388 52.0576C86.1095 50.427 84.2751 49.0162 82.282 47.8608C81.1463 47.1999 79.9651 46.6211 78.7474 46.1286C77.7996 45.7445 76.8313 45.4133 75.8469 45.1366L75.8408 45.1366L75.8408 45.1244C74.4037 44.7181 72.9318 44.4478 71.4444 44.317C71.3991 44.3033 71.3524 44.2948 71.3051 44.2919C71.2158 44.286 71.1263 44.2993 71.0425 44.3308C70.9585 44.3625 70.8823 44.4116 70.8186 44.475C70.8122 44.4841 70.8066 44.4938 70.8019 44.504L64.6477 51.4418L64.1148 52.0431C64.0214 52.1462 63.9524 52.269 63.9131 52.4025C63.8727 52.5362 63.8628 52.6773 63.8842 52.8154L64.0669 54.0416L64.3219 55.7517L64.5008 56.9535C63.3629 57.8496 62.4068 58.9559 61.6841 60.2126C60.1775 62.8278 59.769 65.9359 60.5485 68.853C61.328 71.7701 63.2316 74.2574 65.8407 75.7677C68.4501 77.2774 71.5509 77.6862 74.4611 76.9043C77.3712 76.1224 79.8523 74.2138 81.3585 71.5983C82.0343 70.4284 82.4963 69.1469 82.7228 67.8143L84.138 67.2442L85.6879 66.6208L86.8968 66.134C87.0246 66.0829 87.1399 66.0048 87.2349 65.9051C87.3293 65.8037 87.4004 65.6828 87.4435 65.551L87.7731 64.5666L90.6659 55.9127C90.6788 55.8734 90.6865 55.8326 90.6888 55.7913C90.7013 55.6694 90.6712 55.547 90.6035 55.4449ZM80.8675 59.4235C79.9122 58.0382 78.6611 56.8834 77.205 56.0432C75.8149 55.2361 74.2692 54.735 72.6708 54.5735L72.6084 54.14L72.4851 52.5445L72.5026 52.5498L72.5589 52.5674C72.7599 52.6315 72.9571 52.6963 73.1573 52.7658C73.2547 52.7986 73.3514 52.8329 73.4481 52.8672L73.6514 52.9436L73.7397 52.9756L74.0488 53.0916L74.0929 53.1084C74.4274 53.2371 74.7573 53.3716 75.0826 53.512L75.311 53.6112L75.3871 53.644C77.3872 54.5336 79.2793 55.6493 81.0266 56.9695C81.1972 57.0992 81.3761 57.2366 81.5527 57.3778L81.577 57.3915C81.7978 57.567 82.0163 57.745 82.2325 57.9256L82.4297 58.095L82.6345 58.2728C82.6976 58.3301 82.77 58.3919 82.8339 58.4522C82.858 58.4713 82.8809 58.492 82.9024 58.514L81.3799 59.2168L80.8675 59.4235Z" fill="#021956"/>
<path d="M71.356 43.4634L71.357 43.4624C71.4308 43.467 71.5035 43.4807 71.5757 43.4966C73.095 43.6338 74.5987 43.9096 76.0669 44.3247L76.6714 44.4956L76.6714 44.5142C77.4792 44.7605 78.2761 45.0416 79.0591 45.3589L79.5279 45.5532C80.6163 46.0162 81.6749 46.547 82.6978 47.1421L82.6988 47.1421C84.7543 48.3337 86.6464 49.7886 88.3267 51.4702L88.3257 51.4702C89.3526 52.492 90.2925 53.5975 91.1382 54.7739L91.19 54.8022L91.3072 55.0034L91.3208 55.0249L91.3189 55.0249C91.4688 55.2682 91.538 55.5516 91.5171 55.8364L91.5181 55.8374C91.518 55.839 91.5172 55.8406 91.5171 55.8423C91.5162 55.8536 91.5163 55.8651 91.5152 55.8765L91.5132 55.8755C91.5047 55.976 91.487 56.0755 91.4556 56.1714L91.4537 56.1763L88.5611 64.8296L88.5611 64.8306L88.231 65.8149C88.1504 66.0589 88.0184 66.283 87.8433 66.4712L87.8365 66.478C87.6593 66.6641 87.4442 66.8104 87.2056 66.9058L85.9986 67.3911L85.9976 67.3911L84.4478 68.0142L84.4488 68.0151L83.4527 68.4155C83.1875 69.6789 82.7239 70.893 82.0777 72.0122L82.0787 72.0132C80.4626 74.8193 77.7997 76.8673 74.6763 77.7065C71.6506 78.5194 68.433 78.133 65.689 76.6353L65.4244 76.4868C62.6246 74.866 60.5819 72.1972 59.7456 69.0679C58.9094 65.9386 59.3481 62.6041 60.9644 59.7983L61.2662 59.3003C61.9109 58.2938 62.7016 57.3893 63.6099 56.6128L63.5005 55.8745L63.2456 54.1646L63.2456 54.1636L63.063 52.9409L63.063 52.9419C63.0329 52.7464 63.0363 52.5477 63.0718 52.354L63.1177 52.1626C63.1917 51.9144 63.3198 51.6856 63.4927 51.4927L64.0259 50.8911L70.1363 44.0024C70.138 43.9999 70.1394 43.9971 70.1412 43.9946L70.1822 43.937L70.232 43.8862C70.3787 43.7401 70.5548 43.6264 70.7486 43.5532L70.7505 43.5532L70.898 43.5063C71.0471 43.4677 71.2017 43.4536 71.356 43.4634ZM80.44 57.5688C80.6893 57.8367 80.9271 58.1157 81.1519 58.4058L81.3794 58.3013C81.289 58.2276 81.1991 58.1533 81.1079 58.0806L81.0865 58.0688L81.0337 58.0269C80.8656 57.8925 80.6943 57.7594 80.5259 57.6313L80.5259 57.6323C80.4975 57.6109 80.4685 57.5902 80.44 57.5688ZM91.2261 54.895L91.232 54.9019L91.2329 54.9028C91.2323 54.902 91.2284 54.8974 91.2232 54.8911C91.2241 54.8924 91.2252 54.8937 91.2261 54.895ZM73.4175 53.8335C73.5698 53.8574 73.7215 53.8839 73.8726 53.9136C73.8475 53.9038 73.8225 53.8939 73.7974 53.8843L73.7974 53.8853L73.7574 53.8687L73.7574 53.8696L73.4478 53.7534L73.4478 53.7524L73.4107 53.7397L73.4175 53.8335Z" stroke="#460860" stroke-width="1.6613"/>
</g>
<path d="M90.6278 55.4881C90.5181 55.4553 90.4344 55.3759 90.3134 55.4301L89.5924 55.7635L85.3354 57.7269L83.149 58.7364L82.9069 58.5159C82.8847 58.4925 82.8608 58.4708 82.8353 58.451C82.7592 58.3747 82.664 58.2984 82.594 58.2336C82.2743 57.9533 81.9444 57.6765 81.6043 57.4034L81.5518 57.3736C81.3752 57.2324 81.1963 57.0951 81.0258 56.9654C79.1536 55.5514 77.1157 54.3725 74.9576 53.4552C74.8419 53.4041 74.7292 53.3583 74.6112 53.3125C74.4932 53.2668 74.3828 53.2179 74.2648 53.1737L73.9169 53.0401C73.6642 52.9455 73.4099 52.8524 73.1557 52.7669C72.9554 52.6975 72.7583 52.6327 72.5573 52.5686L72.501 52.551L72.185 52.4533L72.0038 50.0794L71.6422 45.4331L71.5836 44.6387C71.5705 44.5273 71.5271 44.4217 71.458 44.3335C71.6742 44.3533 71.8912 44.3755 72.1089 44.3999L72.1378 44.4037C72.351 44.4281 72.5657 44.4541 72.7788 44.4869L72.7887 44.493C72.9752 44.5182 73.1595 44.5472 73.3467 44.5807C73.4069 44.5899 73.4655 44.5998 73.5226 44.612C73.649 44.6342 73.7784 44.6563 73.9032 44.683C74.0281 44.7097 74.0943 44.7189 74.1902 44.741C74.3729 44.7768 74.5587 44.8173 74.7429 44.8616C75.1144 44.9455 75.4854 45.0404 75.8559 45.1462C78.102 45.7762 80.2594 46.689 82.2765 47.8627C84.2697 49.0181 86.104 50.4289 87.7334 52.0596C88.7744 53.0951 89.7246 54.2184 90.5737 55.4171L90.5851 55.424L90.6278 55.4881Z" fill="#3354A9"/>
<path d="M90.6277 55.4881C90.5181 55.4553 90.4344 55.376 90.3133 55.4301L89.5924 55.7636C89.5292 55.6804 89.466 55.5973 89.4006 55.5179C88.6178 54.5096 87.7575 53.5643 86.8274 52.6907C83.6623 49.7315 79.8612 47.5408 75.7173 46.2878C74.4823 45.9153 73.2196 45.6415 71.9414 45.469C71.8371 45.4522 71.7328 45.4416 71.6293 45.4278L71.5707 44.6335C71.5576 44.5221 71.5141 44.4165 71.445 44.3282C71.6602 44.3481 71.8772 44.3702 72.0959 44.3946L72.1249 44.3984C72.3373 44.4236 72.5519 44.4496 72.7659 44.4824L72.775 44.4877C72.9623 44.5129 73.1465 44.5419 73.3338 44.5755C73.3939 44.5846 73.4525 44.5953 73.5089 44.6068C73.636 44.6289 73.7647 44.6518 73.8895 44.6785C74.0144 44.7052 74.0806 44.7136 74.1765 44.7357C74.3592 44.7716 74.545 44.812 74.7284 44.8563C75.0999 44.9402 75.4712 45.0351 75.8422 45.1409C78.0884 45.771 80.2458 46.6841 82.2628 47.8582C84.2559 49.0119 86.0903 50.4212 87.7197 52.0505C88.7604 53.0861 89.7104 54.2094 90.5592 55.408L90.5714 55.4149L90.6277 55.4881Z" fill="#6DA8FF"/>
<path d="M85.3369 57.7256L83.1482 58.7329C80.0092 55.8369 76.259 53.6879 72.1767 52.4459L71.9955 50.072C72.4492 50.1809 72.8968 50.3002 73.3384 50.4299C77.4203 51.6722 81.1705 53.8202 84.3107 56.7145C84.6664 57.0452 85.0085 57.3822 85.3369 57.7256Z" fill="url(#paint1_linear_118_2353)"/>
<path d="M74.9501 53.4477C74.0432 53.0628 73.1161 52.7276 72.1729 52.4435L71.5639 44.6243C71.5491 44.5131 71.5052 44.4078 71.4368 44.3191C72.926 44.4498 74.3997 44.7203 75.8385 45.1272L74.9501 53.4477Z" fill="url(#paint2_linear_118_2353)"/>
<path d="M90.6278 55.4882C90.2898 55.6988 90.423 55.3958 90.3134 55.4302L89.5925 55.7629L85.3354 57.727L83.149 58.7358L82.9069 58.5153C82.8845 58.4923 82.8606 58.4709 82.8354 58.4512C82.7593 58.3749 82.677 58.3054 82.5941 58.2337C82.2733 57.9534 81.9434 57.6766 81.6044 57.4035L81.5519 57.3737C81.3752 57.2325 81.1963 57.0952 81.0258 56.9655L82.9541 55.5485L86.8313 52.7022L87.7251 52.0475C88.766 53.0829 89.716 54.2062 90.5646 55.405L90.5761 55.4119L90.6278 55.4882Z" fill="url(#paint3_linear_118_2353)"/>
<path d="M73.5492 60.7053L66.263 68.7763L64.3217 55.7507L64.0667 54.0406L63.884 52.8144C63.8627 52.6763 63.8725 52.5353 63.9129 52.4016C63.9523 52.2681 64.0212 52.1452 64.1146 52.0422L64.6475 51.4409L70.8017 44.503C70.8064 44.4929 70.812 44.4832 70.8185 44.474C70.8821 44.4107 70.9584 44.3615 71.0423 44.3298C71.1261 44.2983 71.2156 44.285 71.3049 44.2909C71.3947 44.2972 71.4821 44.3233 71.5607 44.3672C71.6399 44.409 71.7092 44.4673 71.764 44.5381C71.8309 44.6243 71.8737 44.7267 71.8881 44.835L72.3814 51.1868L72.4735 52.3772L72.6098 54.1429L73.5492 60.7053Z" fill="url(#paint4_linear_118_2353)"/>
<path d="M73.5493 60.7052L66.2631 68.7762L64.3219 55.7506L64.0668 54.0406C66.4327 52.1848 69.3514 51.1785 72.3556 51.1829L72.38 51.1829L72.4721 52.3733L72.6084 54.139L73.5493 60.7052Z" fill="url(#paint5_linear_118_2353)"/>
<path d="M90.6932 55.7873C90.6909 55.8285 90.6832 55.8693 90.6703 55.9086L87.7775 64.5626L87.4478 65.5469C87.4048 65.6787 87.3336 65.7996 87.2392 65.901C87.1443 66.0008 87.029 66.0789 86.9012 66.1299L85.6923 66.6168L84.1424 67.2402L71.8279 72.2002L75.2468 61.6866L81.382 59.2157L83.0629 58.4397L84.0525 57.9819L89.9715 55.2524C90.0815 55.2072 90.2034 55.2002 90.3179 55.2325C90.4344 55.2677 90.5352 55.3421 90.6033 55.4431C90.6721 55.544 90.7038 55.6656 90.6932 55.7873Z" fill="url(#paint6_linear_118_2353)"/>
<path d="M85.8279 64.687C85.8282 65.3338 85.7824 65.9797 85.6909 66.6199L84.1409 67.2433L71.8264 72.2033L75.2454 61.6897L81.3805 59.2189L83.0614 58.4428L84.0511 57.985C85.2181 60.0247 85.8308 62.3357 85.8279 64.687Z" fill="url(#paint7_linear_118_2353)"/>
<path d="M65.8436 75.7667C68.453 77.2763 71.5538 77.6852 74.464 76.9033C77.3741 76.1214 79.8552 74.2127 81.3615 71.5973C82.1076 70.3024 82.5919 68.8728 82.7868 67.3903C82.9817 65.9077 82.8834 64.4012 82.4974 62.9568C82.1114 61.5123 81.4454 60.1582 80.5373 58.9718C79.6292 57.7854 78.4969 56.7899 77.2049 56.0421C74.5955 54.5325 71.4947 54.1236 68.5845 54.9055C65.6744 55.6874 63.1933 57.5961 61.687 60.2115C60.1804 62.8268 59.772 65.9348 60.5515 68.8519C61.331 71.7691 63.2346 74.2564 65.8436 75.7667Z" fill="url(#paint8_linear_118_2353)"/>
<path d="M82.3825 64.0811C82.2876 63.1199 82.0595 62.1766 81.705 61.2784C71.4452 59.3745 65.0817 62.7557 61.5448 65.943C61.5942 66.5704 61.7002 67.1921 61.8615 67.8003C62.6899 70.1764 64.3364 72.1785 66.5053 73.447C68.6763 74.7154 71.2273 75.1661 73.7001 74.7183C76.1733 74.2703 78.406 72.9526 79.9967 71.0022C81.588 69.0531 82.4339 66.5992 82.3825 64.0811ZM81.1721 60.1132C81.3099 60.3665 81.4355 60.6229 81.5527 60.8862C81.4263 60.6198 81.2908 60.3558 81.1721 60.1155L81.1721 60.1132ZM61.6902 63.2509C61.7359 62.993 61.793 62.7366 61.8592 62.4825C61.7851 62.7332 61.7254 62.988 61.6803 63.2456L61.6902 63.2509ZM61.8592 62.4825C61.9247 62.2353 61.9985 61.9857 62.083 61.74C61.9902 61.9807 61.9124 62.2268 61.8501 62.4771L61.8592 62.4825Z" fill="#FFFFF4"/>
<path d="M81.7047 61.2783C71.445 59.3744 65.0814 62.7556 61.5445 65.9429C61.35 63.4387 62.0585 60.9476 63.5414 58.9227C65.0238 56.8983 67.1815 55.4742 69.6225 54.909C72.0632 54.3442 74.6252 54.6761 76.8424 55.8445C79.0603 57.0134 80.7857 58.9417 81.7047 61.2783Z" fill="#FFFFF4"/>
<path d="M81.0328 70.3674C79.9979 72.1675 78.4529 73.619 76.5937 74.5376C74.7345 75.4561 72.6449 75.8 70.5903 75.5258C68.5359 75.2518 66.609 74.3722 65.0543 72.9985C63.4993 71.6244 62.3865 69.8185 61.8569 67.8096C61.6955 67.2014 61.5897 66.5797 61.541 65.9523C61.5318 65.8249 61.5288 65.6867 61.5166 65.5708C61.5044 65.4548 61.5128 65.309 61.5075 65.1892C61.5021 65.0694 61.5075 64.9313 61.5136 64.8023C61.5196 64.6734 61.5273 64.5505 61.5318 64.4399C61.5364 64.3292 61.5501 64.1606 61.5676 64.0232C61.5851 63.8859 61.592 63.7943 61.608 63.6844C61.608 63.6524 61.6171 63.6196 61.6217 63.5883C61.6384 63.4792 61.6559 63.3678 61.6765 63.2609C61.7222 63.0023 61.7785 62.7482 61.8455 62.4918C61.9125 62.2354 61.9848 61.995 62.0693 61.7493C62.0754 61.7379 62.0815 61.7272 62.0883 61.7165C62.1302 61.5982 62.1728 61.4807 62.22 61.3632C62.2672 61.2457 62.2885 61.1854 62.3258 61.0984C62.3283 61.0921 62.3317 61.0862 62.3357 61.0809C62.3571 61.0259 62.3806 60.9717 62.4058 60.9191C62.4446 60.8512 62.4674 60.7764 62.4979 60.7138C62.5241 60.6709 62.5453 60.625 62.5611 60.5772C62.6174 60.4803 62.6616 60.3765 62.7133 60.272C62.7157 60.2657 62.7191 60.2598 62.7232 60.2545L62.9212 59.9111C64.3092 57.5035 66.5943 55.7469 69.274 55.0274C71.9538 54.3077 74.8091 54.6842 77.2119 56.0744L77.4456 56.2102L77.674 56.3414C77.8369 56.4353 77.9869 56.5505 78.1384 56.6589L78.331 56.8046C78.4018 56.8506 78.4692 56.9016 78.5327 56.9572C78.6477 57.0496 78.7611 57.1465 78.8814 57.2487L79.0435 57.3922C79.1014 57.4448 79.1569 57.4975 79.2102 57.5509L79.3625 57.6997C79.4668 57.8012 79.5688 57.9065 79.667 58.0148L79.804 58.1674C79.8566 58.2239 79.9068 58.2842 79.9563 58.3453C80.0469 58.4521 80.1344 58.5604 80.2212 58.6696L80.2441 58.6978C80.3263 58.8054 80.4077 58.9145 80.4869 59.0251C80.5661 59.1358 80.6392 59.2388 80.7107 59.3487L80.7412 59.3945C80.8173 59.5127 80.8889 59.6303 80.9597 59.7493C81.0305 59.8683 81.1051 59.9988 81.1698 60.1308C81.3068 60.3811 81.4332 60.6406 81.5504 60.9031C81.6067 61.0343 81.6593 61.1625 81.7156 61.2983C82.2929 62.7666 82.5323 64.3464 82.416 65.9202C82.3003 67.4936 81.8319 69.0205 81.0457 70.3873L81.0328 70.3674Z" fill="url(#paint9_linear_118_2353)"/>
<path opacity="0.75" d="M81.7047 61.2783C71.445 59.3744 65.0814 62.7556 61.5445 65.9429C61.35 63.4387 62.0585 60.9476 63.5414 58.9227C65.0238 56.8983 67.1815 55.4742 69.6225 54.909C72.0632 54.3442 74.6252 54.6761 76.8424 55.8445C79.0603 57.0134 80.7857 58.9417 81.7047 61.2783Z" fill="#FFF076"/>
<path d="M68.0969 71.859C68.99 72.3758 69.9759 72.7113 70.9984 72.8462C72.0208 72.9811 73.0598 72.9129 74.0559 72.6453C75.052 72.3777 75.9858 71.9161 76.8039 71.2868C77.6221 70.6575 78.3085 69.8728 78.8241 68.9776C79.8656 67.1697 80.1479 65.021 79.609 63.0044C79.0701 60.9878 77.754 59.2684 75.9503 58.2244C74.1469 57.1821 72.0044 56.9002 69.9938 57.4406C67.9831 57.9811 66.2688 59.2996 65.2277 61.1065C64.1858 62.9138 63.9028 65.0619 64.4409 67.0783C64.979 69.0947 66.2941 70.8144 68.0969 71.859Z" fill="url(#paint10_linear_118_2353)"/>
<path d="M78.7136 69.0068C77.8358 71.2128 73.4767 74.2018 68.9692 72.3986C64.7761 70.7199 63.4446 65.2685 64.2539 63.2349C65.6348 59.7721 70.1028 59.1907 73.6656 60.6161C77.2283 62.0415 80.0953 65.5424 78.7136 69.0068Z" fill="url(#paint11_linear_118_2353)"/>
<path d="M73.9534 73.543C69.3903 74.6281 65.5725 70.5823 64.9018 68.3336C64.9292 68.4686 64.8615 68.1962 64.9018 68.3336C66.5005 71.4621 69.4261 73.733 73.8034 72.693C78.5119 71.5705 80.0033 67.1447 79.8541 65.0684C79.902 65.192 79.7285 64.5739 79.7673 64.7052C80.4958 67.1584 78.869 72.3847 73.9534 73.543Z" fill="url(#paint12_linear_118_2353)"/>
<path d="M75.0902 61.9186L75.3634 63.9987C75.3932 64.2289 75.489 64.4454 75.639 64.6222L76.9987 66.2185C77.1175 66.3583 77.2026 66.5235 77.2476 66.7015C77.2926 66.8797 77.2963 67.0658 77.2583 67.2456C77.2209 67.4253 77.1427 67.594 77.0299 67.7386C76.9163 67.8827 76.7712 67.9989 76.6059 68.0781L74.7171 68.9823C74.5083 69.0828 74.3329 69.2419 74.2124 69.4402L73.1162 71.2304C73.0207 71.3876 72.8905 71.5207 72.7355 71.6195C72.5804 71.7177 72.4048 71.779 72.2224 71.7988C72.0397 71.818 71.8551 71.795 71.6827 71.7317C71.5092 71.6683 71.3529 71.5653 71.2259 71.431L69.7795 69.9087C69.6227 69.7423 69.4208 69.6256 69.1986 69.573L67.1599 69.0793C66.9816 69.036 66.8155 68.9525 66.6742 68.8351C66.5331 68.7172 66.4208 68.5684 66.3461 68.4001C66.2717 68.2323 66.2368 68.0495 66.2441 67.866C66.2516 67.6819 66.3014 67.5019 66.3895 67.3402L67.3906 65.4951C67.4996 65.2909 67.5484 65.0599 67.5314 64.829L67.3662 62.7359C67.3522 62.5526 67.3803 62.3685 67.4484 62.1979C67.5165 62.0272 67.6227 61.8745 67.759 61.7515C67.8957 61.6289 68.0584 61.5392 68.2348 61.489C68.4115 61.4394 68.5972 61.431 68.7776 61.4646L70.8331 61.8461C71.0603 61.8861 71.2942 61.8596 71.5068 61.7698L73.4488 60.9709C73.6176 60.9021 73.7999 60.8728 73.9817 60.8854C74.1636 60.8977 74.3402 60.9517 74.4979 61.0434C74.656 61.1347 74.7911 61.261 74.893 61.4127C74.9963 61.5641 75.0638 61.7371 75.0902 61.9186Z" fill="url(#paint13_linear_118_2353)"/>
<path d="M75.6817 60.8924L75.9542 62.9725C75.9846 63.2024 76.0806 63.4186 76.2305 63.5952L77.5902 65.1923C77.7091 65.332 77.7943 65.4973 77.8391 65.6753C77.8843 65.8535 77.8877 66.0397 77.849 66.2194C77.8115 66.3988 77.7334 66.5672 77.6206 66.7116C77.5074 66.8562 77.3623 66.9724 77.1966 67.0512L75.3079 67.9561C75.0985 68.0562 74.9228 68.2153 74.8024 68.414L73.7077 70.2019C73.6124 70.3593 73.4821 70.4924 73.327 70.591C73.172 70.6894 72.9964 70.7508 72.8139 70.7704C72.6312 70.7896 72.4465 70.7664 72.2742 70.7024C72.1009 70.6391 71.9446 70.5365 71.8174 70.4026L70.371 68.8764C70.213 68.7119 70.0119 68.5953 69.7909 68.5399L67.7514 68.0485C67.5727 68.0053 67.4063 67.9215 67.265 67.8035C67.1239 67.6859 67.0117 67.5373 66.9369 67.3693C66.8628 67.2014 66.8279 67.0187 66.8349 66.8352C66.8424 66.6511 66.8921 66.4712 66.9803 66.3094L67.9798 64.4666C68.0896 64.2627 68.1388 64.0315 68.1214 63.8005L67.9562 61.7074C67.9418 61.5241 67.9699 61.34 68.0384 61.1694C68.1063 60.9986 68.2126 60.8458 68.349 60.723C68.4854 60.6 68.6482 60.5102 68.8248 60.4605C69.0015 60.4109 69.1872 60.4025 69.3676 60.4361L71.4231 60.8176C71.6505 60.8576 71.8847 60.8311 72.0976 60.7413L74.0335 59.9393C74.2021 59.8694 74.3843 59.8392 74.5664 59.8508C74.7495 59.8628 74.9274 59.9168 75.0863 60.0088C75.2453 60.1007 75.3811 60.2281 75.483 60.3811C75.5873 60.5341 75.6553 60.709 75.6817 60.8924Z" fill="url(#paint14_linear_118_2353)"/>
<path opacity="0.75" d="M76.2037 63.557C76.0692 63.3884 75.9829 63.1864 75.954 62.9725L75.6815 60.8923C75.6572 60.7101 75.5919 60.5358 75.4904 60.3826C75.3885 60.2296 75.2528 60.1022 75.0938 60.0102C74.9349 59.9183 74.757 59.8643 74.5738 59.8523C74.3918 59.8406 74.2095 59.8709 74.041 59.9408L72.105 60.7428C71.8922 60.8326 71.658 60.8591 71.4305 60.8191L69.3751 60.4376C69.1947 60.404 69.009 60.4124 68.8323 60.462C68.6557 60.5117 68.4929 60.6015 68.3565 60.7245C68.22 60.8473 68.1137 61.0001 68.0459 61.1709C67.9774 61.3414 67.9493 61.5256 67.9637 61.7088L68.1289 63.8019C68.1462 64.033 68.0971 64.2642 67.9873 64.4681L66.9877 66.3109C66.9199 66.437 66.875 66.5742 66.8552 66.7161C68.9084 64.9572 72.1271 63.0969 76.2037 63.557Z" fill="#FFF076"/>
<path d="M82.4259 64.87C82.3281 63.9178 82.0975 62.9841 81.7408 62.0962C81.6875 61.9642 81.635 61.8322 81.5741 61.704C81.4603 61.4432 81.3333 61.1886 81.1934 60.9409C81.1257 60.8165 81.0541 60.6899 80.9833 60.5594C80.9125 60.4289 80.8417 60.3221 80.7656 60.2084L80.7351 60.1618C80.6636 60.0535 80.5974 59.9527 80.5068 59.8406L80.2632 59.5155L80.2403 59.4873C80.1543 59.3774 80.0667 59.2698 79.9762 59.166C79.9251 59.1073 79.8741 59.047 79.8239 58.9897L79.6861 58.8371C79.5879 58.7311 79.4859 58.6258 79.3816 58.5235L79.2293 58.3747L79.0611 58.2183L78.8982 58.0748C78.787 57.9771 78.6698 57.8795 78.5495 57.7848C78.4794 57.7375 78.4119 57.6866 78.347 57.6322L78.1567 57.488C78.0044 57.3797 77.8522 57.2721 77.6923 57.1706L77.4639 57.0393L77.2317 56.905C72.2355 54.0138 65.8811 55.6765 63.0354 60.6174L62.8405 60.9554C62.8364 60.9604 62.833 60.9661 62.8306 60.9722C62.7722 61.0683 62.7213 61.1688 62.6784 61.2728C62.6519 61.3146 62.6312 61.3598 62.6167 61.4071C62.6038 61.4567 62.552 61.546 62.5238 61.6124C62.4957 61.6788 62.4766 61.7177 62.4553 61.7727C62.4509 61.7775 62.4475 61.7832 62.4454 61.7894C62.4089 61.8749 62.3739 61.9627 62.3411 62.0504C62.3084 62.1382 62.2543 62.2793 62.2125 62.3999L62.1942 62.4312C62.112 62.6731 62.0381 62.9173 61.9765 63.1637C61.9148 63.4102 61.8562 63.6689 61.8128 63.9268C61.7922 64.0344 61.7755 64.1435 61.7603 64.2511C61.7557 64.2816 61.7496 64.3144 61.7473 64.345C61.7314 64.4571 61.7169 64.5678 61.7093 64.68C61.7017 64.7921 61.6811 64.9531 61.6735 65.0912C61.6659 65.2294 61.6552 65.3393 61.6583 65.4499C61.6613 65.5605 61.6529 65.7055 61.6583 65.8314C61.6636 65.9573 61.6583 66.0909 61.6697 66.213C61.6811 66.3351 61.6781 66.4762 61.6963 66.5945C61.7481 67.2155 61.8569 67.8303 62.0214 68.4312C61.5113 67.0166 61.3157 65.5075 61.4482 64.0092C61.5803 62.5108 62.0376 61.0594 62.788 59.7566C65.6603 54.7692 72.0756 53.0912 77.116 56.0084C78.6857 56.907 79.9989 58.1945 80.93 59.7475C81.8572 61.2988 82.3722 63.0624 82.4259 64.87Z" fill="url(#paint15_linear_118_2353)"/>
</g>
<path d="M105.215 65.75V56.9375H110.977V58.2125H106.815V60.7H110.715V61.975H106.815V65.75H105.215ZM114.557 65.875C114.115 65.875 113.719 65.7917 113.369 65.625C113.028 65.45 112.757 65.2167 112.557 64.925C112.365 64.6333 112.269 64.3042 112.269 63.9375C112.269 63.4875 112.386 63.1333 112.619 62.875C112.853 62.6083 113.232 62.4167 113.757 62.3C114.282 62.1833 114.986 62.125 115.869 62.125H116.494V63.025H115.882C115.49 63.025 115.161 63.0417 114.894 63.075C114.628 63.1 114.411 63.1458 114.244 63.2125C114.086 63.2708 113.969 63.3542 113.894 63.4625C113.828 63.5708 113.794 63.7042 113.794 63.8625C113.794 64.1375 113.89 64.3625 114.082 64.5375C114.274 64.7125 114.54 64.8 114.882 64.8C115.157 64.8 115.399 64.7375 115.607 64.6125C115.824 64.4792 115.994 64.3 116.119 64.075C116.244 63.85 116.307 63.5917 116.307 63.3V61.8625C116.307 61.4458 116.215 61.1458 116.032 60.9625C115.849 60.7792 115.54 60.6875 115.107 60.6875C114.765 60.6875 114.415 60.7417 114.057 60.85C113.699 60.95 113.336 61.1083 112.969 61.325L112.519 60.2625C112.736 60.1125 112.99 59.9833 113.282 59.875C113.582 59.7583 113.894 59.6708 114.219 59.6125C114.553 59.5458 114.865 59.5125 115.157 59.5125C115.757 59.5125 116.249 59.6042 116.632 59.7875C117.024 59.9708 117.315 60.25 117.507 60.625C117.699 60.9917 117.794 61.4667 117.794 62.05V65.75H116.332V64.45H116.432C116.374 64.7417 116.257 64.9958 116.082 65.2125C115.915 65.4208 115.703 65.5833 115.444 65.7C115.186 65.8167 114.89 65.875 114.557 65.875ZM120.11 65.75V59.6375H121.635V60.8625H121.497C121.606 60.5792 121.756 60.3375 121.947 60.1375C122.139 59.9375 122.368 59.7833 122.635 59.675C122.901 59.5667 123.197 59.5125 123.522 59.5125C124.014 59.5125 124.418 59.6292 124.735 59.8625C125.051 60.0958 125.272 60.4542 125.397 60.9375H125.222C125.389 60.4958 125.664 60.15 126.047 59.9C126.431 59.6417 126.872 59.5125 127.372 59.5125C127.839 59.5125 128.222 59.6042 128.522 59.7875C128.831 59.9708 129.06 60.25 129.21 60.625C129.36 60.9917 129.435 61.4583 129.435 62.025V65.75H127.872V62.0875C127.872 61.6208 127.793 61.2792 127.635 61.0625C127.485 60.8458 127.226 60.7375 126.86 60.7375C126.593 60.7375 126.36 60.8042 126.16 60.9375C125.96 61.0625 125.806 61.2458 125.697 61.4875C125.597 61.7292 125.547 62.0208 125.547 62.3625V65.75H123.985V62.0875C123.985 61.6208 123.906 61.2792 123.747 61.0625C123.597 60.8458 123.343 60.7375 122.985 60.7375C122.71 60.7375 122.472 60.8042 122.272 60.9375C122.081 61.0625 121.931 61.2458 121.822 61.4875C121.722 61.7292 121.672 62.0208 121.672 62.3625V65.75H120.11ZM131.651 58.325V56.8H133.401V58.325H131.651ZM131.751 65.75V59.6375H133.314V65.75H131.751ZM137.767 65.875C137.042 65.875 136.504 65.6792 136.154 65.2875C135.813 64.8875 135.642 64.3042 135.642 63.5375V56.9375H137.204V63.4625C137.204 63.7042 137.238 63.9125 137.304 64.0875C137.379 64.2542 137.488 64.3792 137.629 64.4625C137.771 64.5458 137.946 64.5875 138.154 64.5875C138.246 64.5875 138.338 64.5833 138.429 64.575C138.521 64.5667 138.608 64.55 138.692 64.525L138.667 65.7625C138.517 65.7958 138.367 65.8208 138.217 65.8375C138.075 65.8625 137.925 65.875 137.767 65.875ZM140.729 68L142.004 65.1875V65.8375L139.317 59.6375H140.979L142.879 64.375H142.504L144.442 59.6375H146.017L142.342 68H140.729ZM155.787 65.875C154.87 65.875 154.083 65.6917 153.424 65.325C152.774 64.95 152.274 64.425 151.924 63.75C151.574 63.0667 151.399 62.2625 151.399 61.3375C151.399 60.4125 151.574 59.6125 151.924 58.9375C152.274 58.2625 152.774 57.7417 153.424 57.375C154.083 57 154.87 56.8125 155.787 56.8125C156.379 56.8125 156.937 56.9042 157.462 57.0875C157.995 57.2708 158.433 57.5333 158.774 57.875L158.249 59.15C157.874 58.8333 157.491 58.6042 157.099 58.4625C156.708 58.3125 156.287 58.2375 155.837 58.2375C154.945 58.2375 154.266 58.5083 153.799 59.05C153.333 59.5833 153.099 60.3458 153.099 61.3375C153.099 62.3292 153.333 63.0958 153.799 63.6375C154.266 64.1792 154.945 64.45 155.837 64.45C156.287 64.45 156.708 64.3792 157.099 64.2375C157.491 64.0875 157.874 63.8542 158.249 63.5375L158.774 64.8125C158.433 65.1458 157.995 65.4083 157.462 65.6C156.937 65.7833 156.379 65.875 155.787 65.875ZM160.725 65.75V56.9375H162.288V60.8625H162.113C162.296 60.4208 162.579 60.0875 162.963 59.8625C163.354 59.6292 163.796 59.5125 164.288 59.5125C164.779 59.5125 165.184 59.6042 165.5 59.7875C165.817 59.9708 166.054 60.25 166.213 60.625C166.371 60.9917 166.45 61.4583 166.45 62.025V65.75H164.888V62.1C164.888 61.7833 164.846 61.525 164.763 61.325C164.688 61.125 164.567 60.9792 164.4 60.8875C164.242 60.7875 164.038 60.7375 163.788 60.7375C163.488 60.7375 163.225 60.8042 163 60.9375C162.775 61.0625 162.6 61.2458 162.475 61.4875C162.35 61.7208 162.288 61.9958 162.288 62.3125V65.75H160.725ZM170.754 65.875C170.313 65.875 169.917 65.7917 169.567 65.625C169.225 65.45 168.954 65.2167 168.754 64.925C168.563 64.6333 168.467 64.3042 168.467 63.9375C168.467 63.4875 168.583 63.1333 168.817 62.875C169.05 62.6083 169.429 62.4167 169.954 62.3C170.479 62.1833 171.183 62.125 172.067 62.125H172.692V63.025H172.079C171.688 63.025 171.358 63.0417 171.092 63.075C170.825 63.1 170.608 63.1458 170.442 63.2125C170.283 63.2708 170.167 63.3542 170.092 63.4625C170.025 63.5708 169.992 63.7042 169.992 63.8625C169.992 64.1375 170.088 64.3625 170.279 64.5375C170.471 64.7125 170.738 64.8 171.079 64.8C171.354 64.8 171.596 64.7375 171.804 64.6125C172.021 64.4792 172.192 64.3 172.317 64.075C172.442 63.85 172.504 63.5917 172.504 63.3V61.8625C172.504 61.4458 172.413 61.1458 172.229 60.9625C172.046 60.7792 171.738 60.6875 171.304 60.6875C170.963 60.6875 170.613 60.7417 170.254 60.85C169.896 60.95 169.533 61.1083 169.167 61.325L168.717 60.2625C168.933 60.1125 169.188 59.9833 169.479 59.875C169.779 59.7583 170.092 59.6708 170.417 59.6125C170.75 59.5458 171.063 59.5125 171.354 59.5125C171.954 59.5125 172.446 59.6042 172.829 59.7875C173.221 59.9708 173.513 60.25 173.704 60.625C173.896 60.9917 173.992 61.4667 173.992 62.05V65.75H172.529V64.45H172.629C172.571 64.7417 172.454 64.9958 172.279 65.2125C172.113 65.4208 171.9 65.5833 171.642 65.7C171.383 65.8167 171.088 65.875 170.754 65.875ZM176.307 65.75V59.6375H177.832V60.8625H177.695C177.803 60.5792 177.953 60.3375 178.145 60.1375C178.336 59.9375 178.565 59.7833 178.832 59.675C179.099 59.5667 179.395 59.5125 179.72 59.5125C180.211 59.5125 180.615 59.6292 180.932 59.8625C181.249 60.0958 181.47 60.4542 181.595 60.9375H181.42C181.586 60.4958 181.861 60.15 182.245 59.9C182.628 59.6417 183.07 59.5125 183.57 59.5125C184.036 59.5125 184.42 59.6042 184.72 59.7875C185.028 59.9708 185.257 60.25 185.407 60.625C185.557 60.9917 185.632 61.4583 185.632 62.025V65.75H184.07V62.0875C184.07 61.6208 183.99 61.2792 183.832 61.0625C183.682 60.8458 183.424 60.7375 183.057 60.7375C182.79 60.7375 182.557 60.8042 182.357 60.9375C182.157 61.0625 182.003 61.2458 181.895 61.4875C181.795 61.7292 181.745 62.0208 181.745 62.3625V65.75H180.182V62.0875C180.182 61.6208 180.103 61.2792 179.945 61.0625C179.795 60.8458 179.54 60.7375 179.182 60.7375C178.907 60.7375 178.67 60.8042 178.47 60.9375C178.278 61.0625 178.128 61.2458 178.02 61.4875C177.92 61.7292 177.87 62.0208 177.87 62.3625V65.75H176.307ZM187.949 68V59.6375H189.474V60.925H189.349C189.474 60.5 189.728 60.1583 190.111 59.9C190.503 59.6417 190.957 59.5125 191.474 59.5125C192.007 59.5125 192.474 59.6417 192.874 59.9C193.282 60.1583 193.599 60.525 193.824 61C194.049 61.4667 194.161 62.0292 194.161 62.6875C194.161 63.3375 194.049 63.9042 193.824 64.3875C193.599 64.8625 193.286 65.2292 192.886 65.4875C192.486 65.7458 192.015 65.875 191.474 65.875C190.965 65.875 190.519 65.75 190.136 65.5C189.753 65.2417 189.494 64.9083 189.361 64.5H189.511V68H187.949ZM191.036 64.6875C191.503 64.6875 191.878 64.5208 192.161 64.1875C192.444 63.8458 192.586 63.3458 192.586 62.6875C192.586 62.0208 192.444 61.525 192.161 61.2C191.878 60.8667 191.503 60.7 191.036 60.7C190.569 60.7 190.194 60.8667 189.911 61.2C189.628 61.525 189.486 62.0208 189.486 62.6875C189.486 63.3458 189.628 63.8458 189.911 64.1875C190.194 64.5208 190.569 64.6875 191.036 64.6875ZM196.048 58.325V56.8H197.798V58.325H196.048ZM196.148 65.75V59.6375H197.711V65.75H196.148ZM202.826 65.875C202.193 65.875 201.643 65.7458 201.176 65.4875C200.709 65.2292 200.347 64.8625 200.089 64.3875C199.83 63.9042 199.701 63.3375 199.701 62.6875C199.701 62.0375 199.83 61.475 200.089 61C200.347 60.525 200.709 60.1583 201.176 59.9C201.643 59.6417 202.193 59.5125 202.826 59.5125C203.459 59.5125 204.009 59.6417 204.476 59.9C204.943 60.1583 205.305 60.525 205.564 61C205.822 61.475 205.951 62.0375 205.951 62.6875C205.951 63.3375 205.822 63.9042 205.564 64.3875C205.305 64.8625 204.943 65.2292 204.476 65.4875C204.009 65.7458 203.459 65.875 202.826 65.875ZM202.826 64.6875C203.293 64.6875 203.668 64.5208 203.951 64.1875C204.234 63.8458 204.376 63.3458 204.376 62.6875C204.376 62.0208 204.234 61.525 203.951 61.2C203.668 60.8667 203.293 60.7 202.826 60.7C202.359 60.7 201.984 60.8667 201.701 61.2C201.418 61.525 201.276 62.0208 201.276 62.6875C201.276 63.3458 201.418 63.8458 201.701 64.1875C201.984 64.5208 202.359 64.6875 202.826 64.6875ZM207.945 65.75V59.6375H209.47V60.8625H209.333C209.516 60.4208 209.799 60.0875 210.183 59.8625C210.574 59.6292 211.016 59.5125 211.508 59.5125C211.999 59.5125 212.404 59.6042 212.72 59.7875C213.037 59.9708 213.274 60.25 213.433 60.625C213.591 60.9917 213.67 61.4583 213.67 62.025V65.75H212.108V62.1C212.108 61.7833 212.066 61.525 211.983 61.325C211.908 61.125 211.787 60.9792 211.62 60.8875C211.462 60.7875 211.258 60.7375 211.008 60.7375C210.708 60.7375 210.445 60.8042 210.22 60.9375C209.995 61.0625 209.82 61.2458 209.695 61.4875C209.57 61.7208 209.508 61.9958 209.508 62.3125V65.75H207.945ZM218.199 65.875C217.858 65.875 217.524 65.8458 217.199 65.7875C216.883 65.7292 216.591 65.65 216.324 65.55C216.058 65.4417 215.824 65.3083 215.624 65.15L216.024 64.125C216.233 64.2583 216.458 64.375 216.699 64.475C216.941 64.575 217.191 64.65 217.449 64.7C217.708 64.75 217.962 64.775 218.212 64.775C218.612 64.775 218.908 64.7083 219.099 64.575C219.299 64.4333 219.399 64.25 219.399 64.025C219.399 63.8333 219.333 63.6875 219.199 63.5875C219.074 63.4792 218.883 63.4 218.624 63.35L217.374 63.1125C216.858 63.0125 216.462 62.825 216.187 62.55C215.92 62.2667 215.787 61.9042 215.787 61.4625C215.787 61.0625 215.895 60.7167 216.112 60.425C216.337 60.1333 216.645 59.9083 217.037 59.75C217.428 59.5917 217.878 59.5125 218.387 59.5125C218.678 59.5125 218.962 59.5417 219.237 59.6C219.512 59.65 219.77 59.7292 220.012 59.8375C220.262 59.9375 220.478 60.0708 220.662 60.2375L220.237 61.2625C220.078 61.1292 219.895 61.0167 219.687 60.925C219.478 60.825 219.262 60.75 219.037 60.7C218.82 60.6417 218.608 60.6125 218.399 60.6125C217.991 60.6125 217.687 60.6833 217.487 60.825C217.295 60.9667 217.199 61.1542 217.199 61.3875C217.199 61.5625 217.258 61.7083 217.374 61.825C217.491 61.9417 217.67 62.0208 217.912 62.0625L219.162 62.3C219.703 62.4 220.112 62.5833 220.387 62.85C220.67 63.1167 220.812 63.475 220.812 63.925C220.812 64.3333 220.703 64.6833 220.487 64.975C220.27 65.2667 219.966 65.4917 219.574 65.65C219.183 65.8 218.724 65.875 218.199 65.875Z" fill="#202224"/>
<mask id="mask0_118_2353" style="mask-type:alpha" maskUnits="userSpaceOnUse" x="33" y="34" width="37" height="55">
<path d="M34.171 43.1125C34.171 38.6321 37.8031 35 42.2835 35H53.557C62.1804 35 69.171 41.9906 69.171 50.614V71.886C69.171 80.5094 62.1804 87.5 53.557 87.5H42.2835C37.8031 87.5 34.171 83.8679 34.171 79.3875V43.1125Z" fill="white" stroke="url(#paint16_linear_118_2353)" stroke-opacity="0.3" stroke-width="1.62697"/>
</mask>
<g mask="url(#mask0_118_2353)">
<rect x="32.921" y="33.9904" width="17.5" height="54.5192" fill="#587ED7"/>
</g>
<defs>
<filter id="filter0_d_118_2353" x="0.792663" y="0.37165" width="277.71" height="130.21" filterUnits="userSpaceOnUse" color-interpolation-filters="sRGB">
<feFlood flood-opacity="0" result="BackgroundImageFix"/>
<feColorMatrix in="SourceAlpha" type="matrix" values="0 0 0 0 0 0 0 0 0 0 0 0 0 0 0 0 0 0 127 0" result="hardAlpha"/>
<feOffset dx="4.22686" dy="4.22686"/>
<feGaussianBlur stdDeviation="19.0209"/>
<feColorMatrix type="matrix" values="0 0 0 0 0 0 0 0 0 0 0 0 0 0 0 0 0 0 0.05 0"/>
<feBlend mode="normal" in2="BackgroundImageFix" result="effect1_dropShadow_118_2353"/>
<feBlend mode="normal" in="SourceGraphic" in2="effect1_dropShadow_118_2353" result="shape"/>
</filter>
<filter id="filter1_d_118_2353" x="56.0895" y="41.9186" width="38.6629" height="40.2487" filterUnits="userSpaceOnUse" color-interpolation-filters="sRGB">
<feFlood flood-opacity="0" result="BackgroundImageFix"/>
<feColorMatrix in="SourceAlpha" type="matrix" values="0 0 0 0 0 0 0 0 0 0 0 0 0 0 0 0 0 0 127 0" result="hardAlpha"/>
<feOffset dy="1.58579"/>
<feComposite in2="hardAlpha" operator="out"/>
<feColorMatrix type="matrix" values="0 0 0 0 0.176471 0 0 0 0 0.0352941 0 0 0 0 0.262745 0 0 0 1 0"/>
<feBlend mode="normal" in2="BackgroundImageFix" result="effect1_dropShadow_118_2353"/>
<feBlend mode="normal" in="SourceGraphic" in2="effect1_dropShadow_118_2353" result="shape"/>
</filter>
<filter id="filter2_d_118_2353" x="58.5004" y="42.6293" width="33.8525" height="37.3819" filterUnits="userSpaceOnUse" color-interpolation-filters="sRGB">
<feFlood flood-opacity="0" result="BackgroundImageFix"/>
<feColorMatrix in="SourceAlpha" type="matrix" values="0 0 0 0 0 0 0 0 0 0 0 0 0 0 0 0 0 0 127 0" result="hardAlpha"/>
<feOffset dy="1.05719"/>
<feComposite in2="hardAlpha" operator="out"/>
<feColorMatrix type="matrix" values="0 0 0 0 0.176471 0 0 0 0 0.0352941 0 0 0 0 0.262745 0 0 0 1 0"/>
<feBlend mode="normal" in2="BackgroundImageFix" result="effect1_dropShadow_118_2353"/>
<feBlend mode="normal" in="SourceGraphic" in2="effect1_dropShadow_118_2353" result="shape"/>
</filter>
<linearGradient id="paint0_linear_118_2353" x1="81.0253" y1="16.0373" x2="172.825" y2="127.365" gradientUnits="userSpaceOnUse">
<stop stop-color="#F1F1F1"/>
<stop offset="1" stop-color="#E1E1E1"/>
</linearGradient>
<linearGradient id="paint1_linear_118_2353" x1="79.1583" y1="53.0442" x2="78.0735" y2="54.9184" gradientUnits="userSpaceOnUse">
<stop stop-color="#232C7B" stop-opacity="0"/>
<stop offset="1" stop-color="#232C7B"/>
</linearGradient>
<linearGradient id="paint2_linear_118_2353" x1="74.5672" y1="48.7617" x2="72.4446" y2="48.9455" gradientUnits="userSpaceOnUse">
<stop stop-color="#232C7B" stop-opacity="0"/>
<stop offset="1" stop-color="#232C7B"/>
</linearGradient>
<linearGradient id="paint3_linear_118_2353" x1="85.2684" y1="55.0402" x2="86.1098" y2="56.8151" gradientUnits="userSpaceOnUse">
<stop stop-color="#232C7B" stop-opacity="0"/>
<stop offset="1" stop-color="#232C7B"/>
</linearGradient>
<linearGradient id="paint4_linear_118_2353" x1="75.3039" y1="50.4252" x2="61.9897" y2="62.5719" gradientUnits="userSpaceOnUse">
<stop offset="0.86" stop-color="#3986E6"/>
<stop offset="1" stop-color="#6DA8FF"/>
</linearGradient>
<linearGradient id="paint5_linear_118_2353" x1="74.2779" y1="57.5675" x2="65.5384" y2="60.9356" gradientUnits="userSpaceOnUse">
<stop stop-color="#232C7B" stop-opacity="0"/>
<stop offset="1" stop-color="#232C7B"/>
</linearGradient>
<linearGradient id="paint6_linear_118_2353" x1="70.2757" y1="67.3676" x2="92.2753" y2="59.8617" gradientUnits="userSpaceOnUse">
<stop offset="0.83" stop-color="#3986E6"/>
<stop offset="1" stop-color="#6DA8FF"/>
</linearGradient>
<linearGradient id="paint7_linear_118_2353" x1="76.9765" y1="60.8541" x2="78.9499" y2="67.9239" gradientUnits="userSpaceOnUse">
<stop stop-color="#232C7B" stop-opacity="0"/>
<stop offset="1" stop-color="#232C7B"/>
</linearGradient>
<linearGradient id="paint8_linear_118_2353" x1="75.7516" y1="58.3626" x2="66.1925" y2="75.337" gradientUnits="userSpaceOnUse">
<stop offset="0.04" stop-color="#FF6400"/>
<stop offset="0.44" stop-color="#F52600"/>
<stop offset="0.49" stop-color="#EF2B00"/>
<stop offset="0.76" stop-color="#D64001"/>
<stop offset="0.92" stop-color="#CC4801"/>
</linearGradient>
<linearGradient id="paint9_linear_118_2353" x1="71.1003" y1="61.4502" x2="74.2232" y2="74.474" gradientUnits="userSpaceOnUse">
<stop stop-color="#FED635"/>
<stop offset="1" stop-color="#FFA800"/>
</linearGradient>
<linearGradient id="paint10_linear_118_2353" x1="71.7633" y1="65.4934" x2="77.0789" y2="56.3077" gradientUnits="userSpaceOnUse">
<stop offset="0.45" stop-color="#FF6400"/>
<stop offset="1" stop-color="#F52600"/>
</linearGradient>
<linearGradient id="paint11_linear_118_2353" x1="70.188" y1="68.758" x2="75.4378" y2="58.1024" gradientUnits="userSpaceOnUse">
<stop stop-color="#F59C0C"/>
<stop offset="1" stop-color="#F38700"/>
</linearGradient>
<linearGradient id="paint12_linear_118_2353" x1="67.2702" y1="69.3133" x2="80.0056" y2="69.1584" gradientUnits="userSpaceOnUse">
<stop stop-color="#FFF4B4" stop-opacity="0"/>
<stop offset="0.26" stop-color="#FFF4B4"/>
<stop offset="0.82" stop-color="#FFF4B4" stop-opacity="0.54"/>
<stop offset="1" stop-color="#FFF4B4" stop-opacity="0"/>
</linearGradient>
<linearGradient id="paint13_linear_118_2353" x1="69.593" y1="69.6844" x2="74.381" y2="61.1919" gradientUnits="userSpaceOnUse">
<stop offset="0.04" stop-color="#FF6400"/>
<stop offset="0.44" stop-color="#F52600"/>
<stop offset="0.49" stop-color="#EF2B00"/>
<stop offset="0.76" stop-color="#D64001"/>
<stop offset="0.92" stop-color="#CC4801"/>
</linearGradient>
<linearGradient id="paint14_linear_118_2353" x1="71.8235" y1="65.1679" x2="73.3934" y2="68.8593" gradientUnits="userSpaceOnUse">
<stop stop-color="#FED635"/>
<stop offset="1" stop-color="#FFA800"/>
</linearGradient>
<linearGradient id="paint15_linear_118_2353" x1="68.1436" y1="55.2171" x2="73.2483" y2="68.4186" gradientUnits="userSpaceOnUse">
<stop stop-color="#FFF4B4" stop-opacity="0"/>
<stop offset="0.26" stop-color="#FFF4B4"/>
<stop offset="0.82" stop-color="#FFF4B4" stop-opacity="0.54"/>
<stop offset="1" stop-color="#FFF4B4" stop-opacity="0"/>
</linearGradient>
<linearGradient id="paint16_linear_118_2353" x1="42.1518" y1="16.0373" x2="80.1327" y2="24.0979" gradientUnits="userSpaceOnUse">
<stop stop-color="#F1F1F1"/>
<stop offset="1" stop-color="#E1E1E1"/>
</linearGradient>
</defs>
</svg>
