<svg width="277" height="131" viewBox="0 0 277 131" fill="none" xmlns="http://www.w3.org/2000/svg">
<g filter="url(#filter0_d_118_1942)">
<rect x="35" y="35" width="198.75" height="52.5" rx="8.1125" fill="white"/>
<rect x="35" y="35" width="198.75" height="52.5" rx="8.1125" stroke="url(#paint0_linear_118_1942)" stroke-opacity="0.3" stroke-width="1.62697"/>
</g>
<g filter="url(#filter1_dii_118_1942)">
<mask id="path-3-outside-1_118_1942" maskUnits="userSpaceOnUse" x="55.2873" y="34.5027" width="52.7816" height="48.6972" fill="black">
<rect fill="white" x="55.2873" y="34.5027" width="52.7816" height="48.6972"/>
<path d="M79.9041 40.9118C84.9989 40.121 89.8204 42.8315 91.9521 47.2597C97.083 46.5165 101.856 50.0617 102.639 55.222C103.368 60.0201 100.391 64.5312 95.8581 65.8223L96.8816 72.5584C97.1214 74.1377 96.0359 75.6169 94.4575 75.8619L76.4891 78.6513C74.9107 78.8961 73.4372 77.8141 73.1975 76.235L72.1827 69.5558C72.1705 69.5577 72.1584 69.5615 72.1463 69.5634C66.979 70.3653 62.151 66.8064 61.3625 61.614C60.5741 56.4213 64.1245 51.5613 69.292 50.7592C69.6261 50.7074 69.9588 50.6736 70.289 50.6575C70.9954 45.7707 74.7967 41.7046 79.9041 40.9118Z"/>
</mask>
<path d="M79.9041 40.9118C84.9989 40.121 89.8204 42.8315 91.9521 47.2597C97.083 46.5165 101.856 50.0617 102.639 55.222C103.368 60.0201 100.391 64.5312 95.8581 65.8223L96.8816 72.5584C97.1214 74.1377 96.0359 75.6169 94.4575 75.8619L76.4891 78.6513C74.9107 78.8961 73.4372 77.8141 73.1975 76.235L72.1827 69.5558C72.1705 69.5577 72.1584 69.5615 72.1463 69.5634C66.979 70.3653 62.151 66.8064 61.3625 61.614C60.5741 56.4213 64.1245 51.5613 69.292 50.7592C69.6261 50.7074 69.9588 50.6736 70.289 50.6575C70.9954 45.7707 74.7967 41.7046 79.9041 40.9118Z" fill="url(#paint1_linear_118_1942)"/>
<path d="M79.9041 40.9118L79.5995 38.9237L79.5994 38.9237L79.9041 40.9118ZM91.9521 47.2597L90.1402 48.1355L90.7788 49.462L92.2365 49.2508L91.9521 47.2597ZM102.639 55.222L104.627 54.9162L104.627 54.9162L102.639 55.222ZM95.8581 65.8223L95.311 63.8873L93.6036 64.3736L93.8702 66.1283L95.8581 65.8223ZM96.8816 72.5584L98.8695 72.2526L98.8695 72.2524L96.8816 72.5584ZM94.4575 75.8619L94.7621 77.85L94.7621 77.85L94.4575 75.8619ZM76.4891 78.6513L76.7935 80.6394L76.7937 80.6394L76.4891 78.6513ZM73.1975 76.235L75.1854 75.9292L75.1853 75.929L73.1975 76.235ZM72.1827 69.5558L74.1705 69.2498L73.8669 67.2511L71.8704 67.5689L72.1827 69.5558ZM72.1463 69.5634L72.4508 71.5515L72.4509 71.5515L72.1463 69.5634ZM61.3625 61.614L59.3745 61.9198L59.3746 61.9199L61.3625 61.614ZM69.292 50.7592L68.9874 48.7711L68.9873 48.7711L69.292 50.7592ZM70.289 50.6575L70.3833 52.667L72.0414 52.5861L72.279 50.9419L70.289 50.6575ZM79.9041 40.9118L80.2087 42.8999C84.4003 42.2493 88.3791 44.477 90.1402 48.1355L91.9521 47.2597L93.7639 46.3839C91.2618 41.186 85.5974 37.9928 79.5995 38.9237L79.9041 40.9118ZM91.9521 47.2597L92.2365 49.2508C96.2685 48.6668 100.032 51.4524 100.651 55.5278L102.639 55.222L104.627 54.9162C103.679 48.671 97.8976 44.3661 91.6676 45.2685L91.9521 47.2597ZM102.639 55.222L100.651 55.5278C101.226 59.3168 98.8754 62.8722 95.311 63.8873L95.8581 65.8223L96.4052 67.7572C101.907 66.1903 105.509 60.7235 104.627 54.9162L102.639 55.222ZM95.8581 65.8223L93.8702 66.1283L94.8937 72.8645L96.8816 72.5584L98.8695 72.2524L97.846 65.5163L95.8581 65.8223ZM96.8816 72.5584L94.8937 72.8643C94.9669 73.3462 94.6347 73.799 94.1528 73.8738L94.4575 75.8619L94.7621 77.85C97.4371 77.4348 99.2759 74.9291 98.8695 72.2526L96.8816 72.5584ZM94.4575 75.8619L94.1528 73.8738L76.1844 76.6632L76.4891 78.6513L76.7937 80.6394L94.7621 77.85L94.4575 75.8619ZM76.4891 78.6513L76.1846 76.6631C75.7056 76.7375 75.2583 76.4097 75.1854 75.9292L73.1975 76.235L71.2095 76.5408C71.6161 79.2185 74.1159 81.0548 76.7935 80.6394L76.4891 78.6513ZM73.1975 76.235L75.1853 75.929L74.1705 69.2498L72.1827 69.5558L70.1948 69.8618L71.2096 76.541L73.1975 76.235ZM72.1827 69.5558L71.8704 67.5689C71.8443 67.573 71.8212 67.5772 71.8016 67.581C71.7821 67.5847 71.7654 67.5882 71.7522 67.5911C71.7391 67.5939 71.7284 67.5963 71.7214 67.5979C71.715 67.5994 71.7092 67.6008 71.7088 67.6009C71.7069 67.6013 71.7101 67.6006 71.7142 67.5996C71.7187 67.5986 71.7271 67.5967 71.7378 67.5944C71.7485 67.5921 71.7629 67.5891 71.78 67.5859C71.7972 67.5826 71.8179 67.5789 71.8416 67.5753L72.1463 69.5634L72.4509 71.5515C72.5035 71.5433 72.5462 71.5346 72.573 71.5289C72.5867 71.526 72.5981 71.5234 72.6056 71.5217C72.6128 71.52 72.619 71.5186 72.6201 71.5183C72.6228 71.5177 72.62 71.5183 72.6166 71.5191C72.6127 71.52 72.605 71.5218 72.5949 71.5239C72.5755 71.5281 72.5401 71.5355 72.4949 71.5427L72.1827 69.5558ZM72.1463 69.5634L71.8417 67.5753C67.7812 68.2054 63.9732 65.4094 63.3504 61.3081L61.3625 61.614L59.3746 61.9199C60.3288 68.2034 66.1767 72.5252 72.4508 71.5515L72.1463 69.5634ZM61.3625 61.614L63.3504 61.3082C62.7273 57.2047 65.5337 53.378 69.5966 52.7473L69.292 50.7592L68.9873 48.7711C62.7152 49.7447 58.4208 55.638 59.3745 61.9198L61.3625 61.614ZM69.292 50.7592L69.5965 52.7473C69.8613 52.7062 70.1238 52.6797 70.3833 52.667L70.289 50.6575L70.1948 48.648C69.7938 48.6676 69.3909 48.7085 68.9874 48.7711L69.292 50.7592ZM70.289 50.6575L72.279 50.9419C72.8631 46.9011 76.0058 43.5523 80.2087 42.8999L79.9041 40.9118L79.5994 38.9237C73.5877 39.8569 69.1277 44.6403 68.299 50.3731L70.289 50.6575Z" fill="#460860" mask="url(#path-3-outside-1_118_1942)"/>
</g>
<path fill-rule="evenodd" clip-rule="evenodd" d="M86.2158 63.4115C85.1097 63.6836 84.568 64.0557 84.416 64.2715C84.0382 64.8082 83.2967 64.937 82.76 64.5591C82.2233 64.1813 82.0945 63.4398 82.4724 62.9031C83.1433 61.9503 84.4186 61.4058 85.648 61.1034C86.9498 60.7831 88.5015 60.6609 90.0568 60.7678C91.6111 60.8747 93.2289 61.2147 94.6436 61.8651C96.0576 62.5152 97.4235 63.3649 98.1634 64.8155C97.3701 65.282 96.7938 65.5306 95.8778 65.8211C95.4519 64.9861 94.7437 64.5273 93.6507 64.0248C92.5584 63.5226 91.2364 63.2316 89.8937 63.1392C88.5521 63.047 87.2497 63.1572 86.2158 63.4115Z" fill="url(#paint2_linear_118_1942)"/>
<path d="M84.3244 57.5708C87.4002 51.943 84.1593 45.3544 82.3472 42.8281C85.883 42.8281 88.6282 44.1562 90.7152 46.607C91.564 47.6038 91.8959 48.939 91.6991 50.2324C90.9403 55.2212 88.4193 58.3854 84.9074 58.651C84.3506 58.6932 84.0567 58.0607 84.3244 57.5708Z" fill="#FEF1F1"/>
<path d="M71.7012 52.7654C72.3965 48.3466 75.5158 45.8915 76.8273 45.1006C74.4709 47.1862 72.9272 51.2291 76.8127 58.8844C77.1916 59.6308 76.4371 60.3663 75.7821 59.845C73.5666 58.0818 71.3525 55.4727 71.7012 52.7654Z" fill="#E9C7C7" style="mix-blend-mode:multiply"/>
<path d="M64.9016 66.9653C61.7836 64.9399 61.8447 60.8021 62.265 58.9864C63.4678 65.1246 68.8122 65.72 73.4516 64.6408C75.8313 64.0873 78.4982 65.3762 78.957 67.7781L80.6371 76.572L76.4515 77.4306C75.4141 77.6434 74.4067 76.9503 74.2338 75.9046L73.194 69.619C73.0892 68.9855 72.4628 68.5717 71.8234 68.6266C70.0846 68.776 67.3507 68.5562 64.9016 66.9653Z" fill="#E9C7C7" style="mix-blend-mode:multiply"/>
<rect x="75.0333" y="67.7913" width="2.7427" height="8.59379" rx="1.37135" transform="rotate(-10.6594 75.0333 67.7913)" fill="url(#paint3_linear_118_1942)"/>
<rect x="82.53" y="66.6027" width="2.7427" height="8.59379" rx="1.37135" transform="rotate(-10.6594 82.53 66.6027)" fill="url(#paint4_linear_118_1942)"/>
<rect x="89.9353" y="65.597" width="2.7427" height="8.59379" rx="1.37135" transform="rotate(-10.6594 89.9353 65.597)" fill="url(#paint5_linear_118_1942)"/>
<ellipse cx="66.8511" cy="55.5279" rx="4.44208" ry="2.12447" transform="rotate(-38.4497 66.8511 55.5279)" fill="url(#paint6_linear_118_1942)"/>
<ellipse cx="95.1454" cy="48.982" rx="2.54408" ry="1.21674" transform="rotate(12.0185 95.1454 48.982)" fill="url(#paint7_linear_118_1942)"/>
<path d="M119.036 65.75V56.0562H125.375V57.4587H120.796V60.195H125.086V61.5975H120.796V65.75H119.036ZM129.242 65.8875C128.756 65.8875 128.32 65.7958 127.935 65.6125C127.56 65.42 127.262 65.1633 127.042 64.8425C126.831 64.5217 126.725 64.1596 126.725 63.7562C126.725 63.2612 126.854 62.8717 127.11 62.5875C127.367 62.2942 127.784 62.0833 128.362 61.955C128.939 61.8267 129.714 61.7625 130.685 61.7625H131.373V62.7525H130.699C130.268 62.7525 129.906 62.7708 129.613 62.8075C129.32 62.835 129.081 62.8854 128.898 62.9587C128.724 63.0229 128.595 63.1146 128.513 63.2337C128.44 63.3529 128.403 63.4996 128.403 63.6737C128.403 63.9762 128.508 64.2237 128.719 64.4162C128.93 64.6087 129.223 64.705 129.599 64.705C129.902 64.705 130.167 64.6362 130.397 64.4987C130.635 64.3521 130.823 64.155 130.96 63.9075C131.098 63.66 131.167 63.3758 131.167 63.055V61.4737C131.167 61.0154 131.066 60.6854 130.864 60.4837C130.662 60.2821 130.323 60.1812 129.847 60.1812C129.471 60.1812 129.086 60.2408 128.692 60.36C128.297 60.47 127.899 60.6442 127.495 60.8825L127 59.7137C127.239 59.5487 127.518 59.4067 127.839 59.2875C128.169 59.1592 128.513 59.0629 128.87 58.9987C129.237 58.9254 129.581 58.8887 129.902 58.8887C130.562 58.8887 131.102 58.9896 131.524 59.1912C131.955 59.3929 132.276 59.7 132.487 60.1125C132.697 60.5158 132.803 61.0383 132.803 61.68V65.75H131.194V64.32H131.304C131.24 64.6408 131.112 64.9204 130.919 65.1587C130.736 65.3879 130.502 65.5667 130.218 65.695C129.934 65.8233 129.608 65.8875 129.242 65.8875ZM135.279 65.75V59.0262H136.957V60.3737H136.806C136.925 60.0621 137.09 59.7962 137.301 59.5762C137.511 59.3562 137.764 59.1867 138.057 59.0675C138.35 58.9483 138.676 58.8887 139.033 58.8887C139.574 58.8887 140.019 59.0171 140.367 59.2737C140.715 59.5304 140.958 59.9246 141.096 60.4562H140.903C141.086 59.9704 141.389 59.59 141.811 59.315C142.232 59.0308 142.718 58.8887 143.268 58.8887C143.781 58.8887 144.203 58.9896 144.533 59.1912C144.872 59.3929 145.124 59.7 145.289 60.1125C145.454 60.5158 145.537 61.0292 145.537 61.6525V65.75H143.818V61.7212C143.818 61.2079 143.731 60.8321 143.557 60.5937C143.392 60.3554 143.108 60.2362 142.704 60.2362C142.411 60.2362 142.154 60.3096 141.934 60.4562C141.714 60.5937 141.545 60.7954 141.426 61.0612C141.316 61.3271 141.261 61.6479 141.261 62.0237V65.75H139.542V61.7212C139.542 61.2079 139.455 60.8321 139.281 60.5937C139.116 60.3554 138.836 60.2362 138.442 60.2362C138.139 60.2362 137.878 60.3096 137.658 60.4562C137.447 60.5937 137.282 60.7954 137.163 61.0612C137.053 61.3271 136.998 61.6479 136.998 62.0237V65.75H135.279ZM147.904 57.5825V55.905H149.829V57.5825H147.904ZM148.014 65.75V59.0262H149.733V65.75H148.014ZM154.561 65.8875C153.764 65.8875 153.172 65.6721 152.787 65.2412C152.411 64.8012 152.224 64.1596 152.224 63.3162V56.0562H153.942V63.2337C153.942 63.4996 153.979 63.7287 154.052 63.9212C154.135 64.1046 154.254 64.2421 154.41 64.3337C154.566 64.4254 154.758 64.4712 154.987 64.4712C155.088 64.4712 155.189 64.4667 155.29 64.4575C155.391 64.4483 155.487 64.43 155.579 64.4025L155.551 65.7638C155.386 65.8004 155.221 65.8279 155.056 65.8463C154.9 65.8738 154.735 65.8875 154.561 65.8875ZM157.749 68.225L159.152 65.1312V65.8463L156.196 59.0262H158.024L160.114 64.2375H159.702L161.833 59.0262H163.566L159.523 68.225H157.749ZM169.662 65.75V56.0562H176.001V57.4587H171.422V60.195H175.712V61.5975H171.422V65.75H169.662ZM180.994 65.8875C180.234 65.8875 179.578 65.7454 179.028 65.4612C178.478 65.1771 178.052 64.7737 177.749 64.2512C177.456 63.7287 177.309 63.11 177.309 62.395C177.309 61.6983 177.451 61.0887 177.736 60.5662C178.029 60.0437 178.428 59.6358 178.932 59.3425C179.445 59.04 180.027 58.8887 180.678 58.8887C181.32 58.8887 181.87 59.0262 182.328 59.3012C182.786 59.5762 183.139 59.9658 183.387 60.47C183.644 60.9742 183.772 61.5746 183.772 62.2712V62.78H178.698V61.79H182.562L182.342 61.9962C182.342 61.3729 182.204 60.8962 181.929 60.5662C181.654 60.2271 181.26 60.0575 180.747 60.0575C180.362 60.0575 180.032 60.1492 179.757 60.3325C179.491 60.5067 179.285 60.7587 179.138 61.0887C179.001 61.4096 178.932 61.7946 178.932 62.2437V62.34C178.932 62.8442 179.01 63.2612 179.166 63.5912C179.321 63.9212 179.555 64.1687 179.867 64.3337C180.179 64.4987 180.564 64.5812 181.022 64.5812C181.398 64.5812 181.774 64.5262 182.149 64.4162C182.525 64.2971 182.869 64.1137 183.181 63.8662L183.662 65.0212C183.341 65.2871 182.938 65.4979 182.452 65.6537C181.966 65.8096 181.48 65.8875 180.994 65.8875ZM188.051 65.8875C187.565 65.8875 187.13 65.7958 186.745 65.6125C186.369 65.42 186.071 65.1633 185.851 64.8425C185.64 64.5217 185.535 64.1596 185.535 63.7562C185.535 63.2612 185.663 62.8717 185.92 62.5875C186.177 62.2942 186.594 62.0833 187.171 61.955C187.749 61.8267 188.523 61.7625 189.495 61.7625H190.182V62.7525H189.509C189.078 62.7525 188.716 62.7708 188.422 62.8075C188.129 62.835 187.891 62.8854 187.707 62.9587C187.533 63.0229 187.405 63.1146 187.322 63.2337C187.249 63.3529 187.212 63.4996 187.212 63.6737C187.212 63.9762 187.318 64.2237 187.529 64.4162C187.74 64.6087 188.033 64.705 188.409 64.705C188.711 64.705 188.977 64.6362 189.206 64.4987C189.445 64.3521 189.632 64.155 189.77 63.9075C189.907 63.66 189.976 63.3758 189.976 63.055V61.4737C189.976 61.0154 189.875 60.6854 189.674 60.4837C189.472 60.2821 189.133 60.1812 188.656 60.1812C188.28 60.1812 187.895 60.2408 187.501 60.36C187.107 60.47 186.708 60.6442 186.305 60.8825L185.81 59.7137C186.048 59.5487 186.328 59.4067 186.649 59.2875C186.979 59.1592 187.322 59.0629 187.68 58.9987C188.047 58.9254 188.39 58.8887 188.711 58.8887C189.371 58.8887 189.912 58.9896 190.334 59.1912C190.765 59.3929 191.085 59.7 191.296 60.1125C191.507 60.5158 191.612 61.0383 191.612 61.68V65.75H190.004V64.32H190.114C190.05 64.6408 189.921 64.9204 189.729 65.1587C189.545 65.3879 189.312 65.5667 189.027 65.695C188.743 65.8233 188.418 65.8875 188.051 65.8875ZM196.523 65.8875C196.147 65.8875 195.78 65.8554 195.423 65.7913C195.074 65.7271 194.754 65.64 194.46 65.53C194.167 65.4108 193.91 65.2642 193.69 65.09L194.13 63.9625C194.359 64.1092 194.607 64.2375 194.873 64.3475C195.139 64.4575 195.414 64.54 195.698 64.595C195.982 64.65 196.261 64.6775 196.536 64.6775C196.976 64.6775 197.302 64.6042 197.513 64.4575C197.733 64.3017 197.843 64.1 197.843 63.8525C197.843 63.6417 197.769 63.4812 197.623 63.3712C197.485 63.2521 197.274 63.165 196.99 63.11L195.615 62.8487C195.047 62.7387 194.611 62.5325 194.309 62.23C194.016 61.9183 193.869 61.5196 193.869 61.0337C193.869 60.5937 193.988 60.2133 194.226 59.8925C194.474 59.5717 194.813 59.3242 195.244 59.15C195.675 58.9758 196.17 58.8887 196.729 58.8887C197.05 58.8887 197.361 58.9208 197.664 58.985C197.966 59.04 198.251 59.1271 198.516 59.2462C198.791 59.3562 199.03 59.5029 199.231 59.6862L198.764 60.8137C198.59 60.6671 198.388 60.5433 198.159 60.4425C197.93 60.3325 197.691 60.25 197.444 60.195C197.206 60.1308 196.972 60.0987 196.743 60.0987C196.294 60.0987 195.959 60.1767 195.739 60.3325C195.528 60.4883 195.423 60.6946 195.423 60.9512C195.423 61.1437 195.487 61.3042 195.615 61.4325C195.744 61.5608 195.941 61.6479 196.206 61.6937L197.581 61.955C198.177 62.065 198.626 62.2667 198.929 62.56C199.241 62.8533 199.396 63.2475 199.396 63.7425C199.396 64.1917 199.277 64.5767 199.039 64.8975C198.801 65.2183 198.466 65.4658 198.035 65.64C197.604 65.805 197.1 65.8875 196.523 65.8875ZM204.493 65.8875C203.594 65.8875 202.925 65.6629 202.485 65.2137C202.045 64.7646 201.825 64.1092 201.825 63.2475V60.3187H200.533V59.0262H201.825V57.0187H203.544V59.0262H205.579V60.3187H203.544V63.1512C203.544 63.5912 203.64 63.9212 203.833 64.1412C204.025 64.3612 204.337 64.4712 204.768 64.4712C204.896 64.4712 205.029 64.4575 205.166 64.43C205.304 64.3933 205.446 64.3567 205.593 64.32L205.854 65.585C205.689 65.6767 205.478 65.75 205.221 65.805C204.974 65.86 204.731 65.8875 204.493 65.8875Z" fill="#202224"/>
<mask id="mask0_118_1942" style="mask-type:alpha" maskUnits="userSpaceOnUse" x="34" y="34" width="37" height="55">
<path d="M35 43.1125C35 38.6321 38.6321 35 43.1125 35H54.386C63.0094 35 70 41.9906 70 50.614V71.886C70 80.5094 63.0094 87.5 54.386 87.5H43.1125C38.6321 87.5 35 83.8679 35 79.3875V43.1125Z" fill="white" stroke="url(#paint8_linear_118_1942)" stroke-opacity="0.3" stroke-width="1.62697"/>
</mask>
<g mask="url(#mask0_118_1942)">
<rect x="33.75" y="33.9904" width="17.5" height="54.5192" fill="#587ED7"/>
</g>
<defs>
<filter id="filter0_d_118_1942" x="0.37165" y="0.37165" width="276.46" height="130.21" filterUnits="userSpaceOnUse" color-interpolation-filters="sRGB">
<feFlood flood-opacity="0" result="BackgroundImageFix"/>
<feColorMatrix in="SourceAlpha" type="matrix" values="0 0 0 0 0 0 0 0 0 0 0 0 0 0 0 0 0 0 127 0" result="hardAlpha"/>
<feOffset dx="4.22686" dy="4.22686"/>
<feGaussianBlur stdDeviation="19.0209"/>
<feColorMatrix type="matrix" values="0 0 0 0 0 0 0 0 0 0 0 0 0 0 0 0 0 0 0.05 0"/>
<feBlend mode="normal" in2="BackgroundImageFix" result="effect1_dropShadow_118_1942"/>
<feBlend mode="normal" in="SourceGraphic" in2="effect1_dropShadow_118_1942" result="shape"/>
</filter>
<filter id="filter1_dii_118_1942" x="59.242" y="38.7629" width="45.5176" height="43.8549" filterUnits="userSpaceOnUse" color-interpolation-filters="sRGB">
<feFlood flood-opacity="0" result="BackgroundImageFix"/>
<feColorMatrix in="SourceAlpha" type="matrix" values="0 0 0 0 0 0 0 0 0 0 0 0 0 0 0 0 0 0 127 0" result="hardAlpha"/>
<feOffset dy="1.91989"/>
<feComposite in2="hardAlpha" operator="out"/>
<feColorMatrix type="matrix" values="0 0 0 0 0.176471 0 0 0 0 0.0352941 0 0 0 0 0.262745 0 0 0 1 0"/>
<feBlend mode="normal" in2="BackgroundImageFix" result="effect1_dropShadow_118_1942"/>
<feBlend mode="normal" in="SourceGraphic" in2="effect1_dropShadow_118_1942" result="shape"/>
<feColorMatrix in="SourceAlpha" type="matrix" values="0 0 0 0 0 0 0 0 0 0 0 0 0 0 0 0 0 0 127 0" result="hardAlpha"/>
<feOffset dx="1.5542" dy="3.47408"/>
<feComposite in2="hardAlpha" operator="arithmetic" k2="-1" k3="1"/>
<feColorMatrix type="matrix" values="0 0 0 0 1 0 0 0 0 1 0 0 0 0 1 0 0 0 0.4 0"/>
<feBlend mode="normal" in2="shape" result="effect2_innerShadow_118_1942"/>
<feColorMatrix in="SourceAlpha" type="matrix" values="0 0 0 0 0 0 0 0 0 0 0 0 0 0 0 0 0 0 127 0" result="hardAlpha"/>
<feOffset dx="-3.56551" dy="-2.37701"/>
<feComposite in2="hardAlpha" operator="arithmetic" k2="-1" k3="1"/>
<feColorMatrix type="matrix" values="0 0 0 0 0.425 0 0 0 0 0.141667 0 0 0 0 0.141667 0 0 0 0.25 0"/>
<feBlend mode="normal" in2="effect2_innerShadow_118_1942" result="effect3_innerShadow_118_1942"/>
</filter>
<linearGradient id="paint0_linear_118_1942" x1="80.3193" y1="16.0373" x2="172.227" y2="126.799" gradientUnits="userSpaceOnUse">
<stop stop-color="#F1F1F1"/>
<stop offset="1" stop-color="#E1E1E1"/>
</linearGradient>
<linearGradient id="paint1_linear_118_1942" x1="79.3438" y1="40.9984" x2="84.9598" y2="77.3424" gradientUnits="userSpaceOnUse">
<stop stop-color="#FFEBEB"/>
<stop offset="1" stop-color="#E1B1AE"/>
</linearGradient>
<linearGradient id="paint2_linear_118_1942" x1="96.7463" y1="65.2269" x2="86.8726" y2="61.9813" gradientUnits="userSpaceOnUse">
<stop stop-color="#C89492" stop-opacity="0.995"/>
<stop offset="0.427178" stop-color="#C4B9B8" stop-opacity="0.569958"/>
<stop offset="1" stop-color="#C89492" stop-opacity="0"/>
</linearGradient>
<linearGradient id="paint3_linear_118_1942" x1="76.4046" y1="67.7913" x2="76.4046" y2="76.385" gradientUnits="userSpaceOnUse">
<stop stop-color="#E4B5B2" stop-opacity="0"/>
<stop offset="1" stop-color="#E4B5B2"/>
</linearGradient>
<linearGradient id="paint4_linear_118_1942" x1="83.9013" y1="66.6027" x2="83.9013" y2="75.1964" gradientUnits="userSpaceOnUse">
<stop stop-color="#CC9997"/>
<stop offset="1" stop-color="#EDC7C5" stop-opacity="0"/>
</linearGradient>
<linearGradient id="paint5_linear_118_1942" x1="91.3066" y1="65.597" x2="91.3066" y2="74.1908" gradientUnits="userSpaceOnUse">
<stop stop-color="#CB9B9A"/>
<stop offset="1" stop-color="#CB9C9A" stop-opacity="0"/>
</linearGradient>
<linearGradient id="paint6_linear_118_1942" x1="70.1809" y1="52.7786" x2="67.786" y2="59.408" gradientUnits="userSpaceOnUse">
<stop stop-color="white"/>
<stop offset="1" stop-color="white" stop-opacity="0"/>
</linearGradient>
<linearGradient id="paint7_linear_118_1942" x1="97.0525" y1="47.4074" x2="95.6809" y2="51.2042" gradientUnits="userSpaceOnUse">
<stop stop-color="white"/>
<stop offset="1" stop-color="white" stop-opacity="0"/>
</linearGradient>
<linearGradient id="paint8_linear_118_1942" x1="42.9808" y1="16.0373" x2="80.9617" y2="24.0979" gradientUnits="userSpaceOnUse">
<stop stop-color="#F1F1F1"/>
<stop offset="1" stop-color="#E1E1E1"/>
</linearGradient>
</defs>
</svg>
