<svg width="279" height="132" viewBox="0 0 279 132" fill="none" xmlns="http://www.w3.org/2000/svg">
<g filter="url(#filter0_d_118_2293)">
<rect x="35.421" y="35.5" width="200" height="52.5" rx="8.1125" fill="white"/>
<rect x="35.421" y="35.5" width="200" height="52.5" rx="8.1125" stroke="url(#paint0_linear_118_2293)" stroke-opacity="0.3" stroke-width="1.62697"/>
</g>
<g filter="url(#filter1_d_118_2293)">
<mask id="path-3-outside-1_118_2293" maskUnits="userSpaceOnUse" x="56.9688" y="42.2617" width="46" height="39" fill="black">
<rect fill="white" x="56.9688" y="42.2617" width="46" height="39"/>
<path fill-rule="evenodd" clip-rule="evenodd" d="M92.8508 47.813L93.0558 47.3452L93.1597 47.3907L93.2346 47.476C94.0253 48.3766 94.5713 49.9242 94.9272 51.7158C95.2517 53.35 95.4309 55.2571 95.4659 57.2177C96.4393 56.465 97.2818 55.6652 97.7955 54.8789C97.941 54.656 98.2338 54.5611 98.4562 54.7074C102.758 57.5367 100.62 65.2096 98.7748 66.0811C98.5373 66.1933 98.8108 66.6751 99.0275 66.9939C99.1535 67.1793 99.1997 67.4112 99.1171 67.6197C98.134 70.1016 94.7567 74.7014 92.3806 74.0444L92.5418 74.5812C92.5853 74.7261 92.5458 74.8839 92.4354 74.9874C90.6108 76.6982 88.2931 77.3672 86.8508 75.8547C83.8409 77.7153 80.7417 78.9131 79.5793 78.9131C78.4639 78.9131 75.3209 77.9002 72.3272 76.2031C70.8809 77.2418 68.806 76.5481 67.1414 74.9874C67.031 74.8839 66.9915 74.7261 67.035 74.5812L67.1962 74.0444C64.8201 74.7014 61.4428 70.1015 60.4597 67.6196C60.3771 67.4112 60.4233 67.1793 60.5493 66.9939C60.766 66.6751 61.0395 66.1933 60.802 66.0811C58.9563 65.2096 56.8189 57.5367 61.1206 54.7074C61.343 54.5611 61.6358 54.656 61.7813 54.8788C62.2793 55.6411 63.0862 56.416 64.0218 57.1483C64.0109 55.1835 64.1232 53.2783 64.384 51.6529C64.6661 49.8945 65.1354 48.3686 65.8886 47.4823L65.9654 47.3918L66.0743 47.3445L66.2778 47.813C66.0743 47.3445 66.0744 47.3445 66.0745 47.3444L66.0806 47.3418L66.097 47.3347L66.1595 47.3082C66.214 47.2852 66.2941 47.2518 66.3979 47.2094C66.6054 47.1248 66.9076 47.0043 67.2896 46.8601C68.0533 46.5717 69.137 46.1876 70.4203 45.8034C72.9796 45.0373 76.3633 44.2617 79.5942 44.2617C82.8252 44.2617 86.1942 45.0374 88.739 45.8037C90.0149 46.1879 91.0913 46.5721 91.8495 46.8605C92.2288 47.0048 92.5287 47.1253 92.7346 47.21C92.8376 47.2524 92.9171 47.2858 92.9712 47.3088L93.0332 47.3354L93.0386 47.3377L93.0495 47.3424L93.0539 47.3443L93.0556 47.3451C93.0557 47.3451 93.0558 47.3452 92.8508 47.813ZM92.8508 47.813C92.8508 47.813 92.8508 47.813 92.8508 47.813C92.8508 47.813 85.9121 44.7725 79.5942 44.7725C73.2762 44.7725 66.2778 47.813 66.2778 47.813C64.9852 49.3342 64.4777 53.3072 64.5364 57.5378C64.5364 57.5378 64.5364 57.5378 64.5364 57.5378C64.4777 53.3073 64.9853 49.3343 66.2779 47.813C66.2779 47.813 73.2763 44.7725 79.5942 44.7725C85.9029 44.7725 92.8305 47.8041 92.8508 47.813Z"/>
</mask>
<path fill-rule="evenodd" clip-rule="evenodd" d="M92.8508 47.813L93.0558 47.3452L93.1597 47.3907L93.2346 47.476C94.0253 48.3766 94.5713 49.9242 94.9272 51.7158C95.2517 53.35 95.4309 55.2571 95.4659 57.2177C96.4393 56.465 97.2818 55.6652 97.7955 54.8789C97.941 54.656 98.2338 54.5611 98.4562 54.7074C102.758 57.5367 100.62 65.2096 98.7748 66.0811C98.5373 66.1933 98.8108 66.6751 99.0275 66.9939C99.1535 67.1793 99.1997 67.4112 99.1171 67.6197C98.134 70.1016 94.7567 74.7014 92.3806 74.0444L92.5418 74.5812C92.5853 74.7261 92.5458 74.8839 92.4354 74.9874C90.6108 76.6982 88.2931 77.3672 86.8508 75.8547C83.8409 77.7153 80.7417 78.9131 79.5793 78.9131C78.4639 78.9131 75.3209 77.9002 72.3272 76.2031C70.8809 77.2418 68.806 76.5481 67.1414 74.9874C67.031 74.8839 66.9915 74.7261 67.035 74.5812L67.1962 74.0444C64.8201 74.7014 61.4428 70.1015 60.4597 67.6196C60.3771 67.4112 60.4233 67.1793 60.5493 66.9939C60.766 66.6751 61.0395 66.1933 60.802 66.0811C58.9563 65.2096 56.8189 57.5367 61.1206 54.7074C61.343 54.5611 61.6358 54.656 61.7813 54.8788C62.2793 55.6411 63.0862 56.416 64.0218 57.1483C64.0109 55.1835 64.1232 53.2783 64.384 51.6529C64.6661 49.8945 65.1354 48.3686 65.8886 47.4823L65.9654 47.3918L66.0743 47.3445L66.2778 47.813C66.0743 47.3445 66.0744 47.3445 66.0745 47.3444L66.0806 47.3418L66.097 47.3347L66.1595 47.3082C66.214 47.2852 66.2941 47.2518 66.3979 47.2094C66.6054 47.1248 66.9076 47.0043 67.2896 46.8601C68.0533 46.5717 69.137 46.1876 70.4203 45.8034C72.9796 45.0373 76.3633 44.2617 79.5942 44.2617C82.8252 44.2617 86.1942 45.0374 88.739 45.8037C90.0149 46.1879 91.0913 46.5721 91.8495 46.8605C92.2288 47.0048 92.5287 47.1253 92.7346 47.21C92.8376 47.2524 92.9171 47.2858 92.9712 47.3088L93.0332 47.3354L93.0386 47.3377L93.0495 47.3424L93.0539 47.3443L93.0556 47.3451C93.0557 47.3451 93.0558 47.3452 92.8508 47.813ZM92.8508 47.813C92.8508 47.813 92.8508 47.813 92.8508 47.813C92.8508 47.813 85.9121 44.7725 79.5942 44.7725C73.2762 44.7725 66.2778 47.813 66.2778 47.813C64.9852 49.3342 64.4777 53.3072 64.5364 57.5378C64.5364 57.5378 64.5364 57.5378 64.5364 57.5378C64.4777 53.3073 64.9853 49.3343 66.2779 47.813C66.2779 47.813 73.2763 44.7725 79.5942 44.7725C85.9029 44.7725 92.8305 47.8041 92.8508 47.813Z" fill="#D9D9D9"/>
<path d="M93.0558 47.3452L91.6962 46.7494L92.292 45.3898L93.6516 45.9856L93.0558 47.3452ZM93.1597 47.3907L93.7555 46.0311L94.0576 46.1635L94.2752 46.4114L93.1597 47.3907ZM93.2346 47.476L94.3501 46.4967L94.3501 46.4967L93.2346 47.476ZM94.9272 51.7158L93.4712 52.005L93.4712 52.005L94.9272 51.7158ZM95.4659 57.2177L96.3739 58.3919L94.0346 60.2007L93.9818 57.2442L95.4659 57.2177ZM97.7955 54.8789L96.5527 54.0671L96.5527 54.0671L97.7955 54.8789ZM98.4562 54.7074L97.6405 55.9476L97.6405 55.9476L98.4562 54.7074ZM98.7748 66.0811L98.141 64.7389L98.141 64.7389L98.7748 66.0811ZM99.0275 66.9939L97.7999 67.8284L97.7999 67.8284L99.0275 66.9939ZM99.1171 67.6197L97.737 67.073L97.7371 67.073L99.1171 67.6197ZM92.3806 74.0444L90.959 74.4712L90.1862 71.8975L92.7762 72.6137L92.3806 74.0444ZM92.5418 74.5812L93.9635 74.1543L93.9635 74.1543L92.5418 74.5812ZM92.4354 74.9874L93.4507 76.0702L93.4507 76.0702L92.4354 74.9874ZM86.8508 75.8547L86.0703 74.592L87.0944 73.959L87.9251 74.8303L86.8508 75.8547ZM72.3272 76.2031L71.4612 74.9974L72.2328 74.4433L73.0592 74.9118L72.3272 76.2031ZM67.1414 74.9874L66.1261 76.0702L66.1261 76.0702L67.1414 74.9874ZM67.035 74.5812L65.6133 74.1543L65.6133 74.1543L67.035 74.5812ZM67.1962 74.0444L66.8006 72.6137L69.3906 71.8975L68.6178 74.4712L67.1962 74.0444ZM60.4597 67.6196L59.0797 68.1663L59.0796 68.1663L60.4597 67.6196ZM60.5493 66.9939L61.7769 67.8283L61.7769 67.8284L60.5493 66.9939ZM60.802 66.0811L61.4358 64.7389L61.4358 64.7389L60.802 66.0811ZM61.1206 54.7074L60.3049 53.4672L60.3049 53.4672L61.1206 54.7074ZM61.7813 54.8788L60.5386 55.6906L60.5386 55.6906L61.7813 54.8788ZM64.0218 57.1483L65.5062 57.1401L65.5232 60.2086L63.1069 58.3172L64.0218 57.1483ZM64.384 51.6529L62.9183 51.4178L62.9183 51.4177L64.384 51.6529ZM65.8886 47.4823L64.7574 46.5211L64.7574 46.5211L65.8886 47.4823ZM65.9654 47.3918L64.8343 46.4306L65.0576 46.1678L65.374 46.0304L65.9654 47.3918ZM66.0743 47.3445L65.4828 45.9831L66.8442 45.3916L67.4357 46.753L66.0743 47.3445ZM66.0745 47.3444L66.6638 48.7068L66.6632 48.7071L66.0745 47.3444ZM66.0806 47.3418L65.4913 45.9794L65.4947 45.9779L66.0806 47.3418ZM66.097 47.3347L65.5111 45.9709L65.5168 45.9685L66.097 47.3347ZM66.1595 47.3082L65.5792 45.9419L65.5826 45.9405L66.1595 47.3082ZM66.3979 47.2094L66.9588 48.5838L66.9588 48.5838L66.3979 47.2094ZM67.2896 46.8601L66.7652 45.4714L66.7652 45.4714L67.2896 46.8601ZM70.4203 45.8034L70.846 47.2255L70.846 47.2255L70.4203 45.8034ZM88.739 45.8037L89.1669 44.3823L89.1669 44.3823L88.739 45.8037ZM91.8495 46.8605L92.3774 45.4732L92.3774 45.4732L91.8495 46.8605ZM92.7346 47.21L93.2994 45.8373L93.2994 45.8373L92.7346 47.21ZM92.9712 47.3088L93.5522 45.9428L93.5556 45.9443L92.9712 47.3088ZM93.0332 47.3354L93.6176 45.9708L93.6222 45.9728L93.0332 47.3354ZM93.0386 47.3377L93.6276 45.9752L93.6293 45.9759L93.0386 47.3377ZM93.0495 47.3424L93.6402 45.9806L93.6425 45.9816L93.0495 47.3424ZM93.0539 47.3443L93.6469 45.9836L93.6484 45.9842L93.0539 47.3443ZM93.0556 47.3451L93.6501 45.9849L93.6524 45.9859L93.0556 47.3451ZM92.8508 47.813L93.9862 46.8569L92.2554 49.1727L92.8508 47.813ZM64.5364 57.5378L63.6852 58.7538L63.0627 58.3181L63.0522 57.5584L64.5364 57.5378ZM64.5364 57.5378L66.0207 57.5172L66.0609 60.4169L63.6852 58.7539L64.5364 57.5378ZM66.2779 47.813L65.1467 46.8519L65.37 46.589L65.6864 46.4516L66.2779 47.813ZM93.0558 47.3452L94.4154 47.9409L94.2104 48.4087L92.8508 47.813L91.4912 47.2172L91.6962 46.7494L93.0558 47.3452ZM93.1597 47.3907L92.564 48.7503L92.46 48.7047L93.0558 47.3452L93.6516 45.9856L93.7555 46.0311L93.1597 47.3907ZM93.2346 47.476L92.1191 48.4553L92.0443 48.37L93.1597 47.3907L94.2752 46.4114L94.3501 46.4967L93.2346 47.476ZM94.9272 51.7158L93.4712 52.005C93.1248 50.2605 92.6372 49.0454 92.1191 48.4553L93.2346 47.476L94.3501 46.4967C95.4133 47.7077 96.0179 49.5878 96.3831 51.4267L94.9272 51.7158ZM95.4659 57.2177L93.9818 57.2442C93.9479 55.35 93.7748 53.5336 93.4712 52.005L94.9272 51.7158L96.3831 51.4267C96.7286 53.1664 96.9138 55.1641 96.95 57.1911L95.4659 57.2177ZM95.4659 57.2177L94.5579 56.0434C95.4814 55.3293 96.1725 54.6492 96.5527 54.0671L97.7955 54.8789L99.0382 55.6906C98.3911 56.6813 97.3971 57.6007 96.3739 58.3919L95.4659 57.2177ZM97.7955 54.8789L96.5527 54.0671C97.0413 53.3192 98.2111 52.7695 99.2719 53.4672L98.4562 54.7074L97.6405 55.9476C97.9256 56.135 98.2477 56.1538 98.4964 56.0844C98.7315 56.0187 98.9184 55.874 99.0382 55.6906L97.7955 54.8789ZM98.4562 54.7074L99.2719 53.4672C102.1 55.3271 102.648 58.6609 102.398 61.2696C102.27 62.6112 101.926 63.8967 101.466 64.9356C101.235 65.4551 100.963 65.9433 100.65 66.3555C100.351 66.749 99.9427 67.1712 99.4086 67.4234L98.7748 66.0811L98.141 64.7389C98.0684 64.7732 98.1302 64.765 98.285 64.561C98.4256 64.3757 98.589 64.0994 98.7515 63.7328C99.0765 62.9995 99.3439 62.0265 99.4431 60.9874C99.6487 58.8343 99.1145 56.917 97.6405 55.9476L98.4562 54.7074ZM98.7748 66.0811L99.4086 67.4234C99.6286 67.3195 99.8346 67.146 99.9789 66.9074C100.115 66.6821 100.155 66.4672 100.165 66.3246C100.174 66.1851 100.157 66.0811 100.146 66.0308C100.135 65.9771 100.123 65.944 100.12 65.9361C100.115 65.9235 100.121 65.9426 100.152 65.9964C100.18 66.0454 100.216 66.1015 100.255 66.1594L99.0275 66.9939L97.7999 67.8284C97.6781 67.6492 97.4725 67.3298 97.342 66.984C97.2824 66.8259 97.1772 66.5088 97.2025 66.1279C97.234 65.6541 97.487 65.0477 98.141 64.7389L98.7748 66.0811ZM99.0275 66.9939L100.255 66.1594C100.596 66.6605 100.798 67.407 100.497 68.1663L99.1171 67.6197L97.7371 67.073C97.6014 67.4154 97.7114 67.6982 97.7999 67.8284L99.0275 66.9939ZM99.1171 67.6197L100.497 68.1663C99.9325 69.5919 98.7394 71.5144 97.365 73.0126C96.6752 73.7645 95.88 74.4758 95.0294 74.958C94.1943 75.4314 93.1152 75.7876 91.985 75.4751L92.3806 74.0444L92.7762 72.6137C92.8341 72.6297 93.0681 72.6572 93.5653 72.3754C94.047 72.1024 94.603 71.6318 95.1774 71.0057C96.3314 69.7477 97.3186 68.1294 97.737 67.073L99.1171 67.6197ZM92.3806 74.0444L93.8023 73.6175L93.9635 74.1543L92.5418 74.5812L91.1201 75.008L90.959 74.4712L92.3806 74.0444ZM92.5418 74.5812L93.9635 74.1543C94.1623 74.8166 93.9887 75.5658 93.4507 76.0702L92.4354 74.9874L91.4201 73.9045C91.1029 74.202 91.0083 74.6355 91.1201 75.008L92.5418 74.5812ZM92.4354 74.9874L93.4507 76.0702C92.3995 77.0559 91.1212 77.8267 89.783 78.0869C88.3914 78.3574 86.9075 78.0651 85.7766 76.879L86.8508 75.8547L87.9251 74.8303C88.2364 75.1568 88.6325 75.2862 89.2164 75.1727C89.8538 75.0488 90.6467 74.6297 91.4201 73.9045L92.4354 74.9874ZM86.8508 75.8547L87.6313 77.1173C86.0585 78.0895 84.4588 78.8914 83.0859 79.4548C82.3996 79.7365 81.7544 79.965 81.1857 80.1255C80.6436 80.2785 80.0757 80.3975 79.5793 80.3975V78.9131V77.4288C79.6641 77.4288 79.9196 77.3981 80.3795 77.2683C80.8129 77.146 81.3486 76.9588 81.9587 76.7084C83.1784 76.2078 84.6333 75.4804 86.0703 74.592L86.8508 75.8547ZM79.5793 78.9131V80.3975C78.7423 80.3975 77.4656 80.0606 76.1571 79.592C74.7828 79.0998 73.1706 78.3875 71.5951 77.4944L72.3272 76.2031L73.0592 74.9118C74.4774 75.7157 75.9336 76.3585 77.1581 76.7971C78.4484 77.2592 79.3009 77.4288 79.5793 77.4288V78.9131ZM72.3272 76.2031L73.1931 77.4087C72.0264 78.2466 70.6629 78.3275 69.4387 78.0056C68.2346 77.689 67.089 76.973 66.1261 76.0702L67.1414 74.9874L68.1567 73.9045C68.8584 74.5625 69.5826 74.9738 70.1937 75.1345C70.7846 75.2899 71.1817 75.1982 71.4612 74.9974L72.3272 76.2031ZM67.1414 74.9874L66.1261 76.0702C65.5881 75.5658 65.4145 74.8166 65.6133 74.1543L67.035 74.5812L68.4567 75.008C68.5685 74.6355 68.4739 74.202 68.1567 73.9045L67.1414 74.9874ZM67.035 74.5812L65.6133 74.1543L65.7745 73.6175L67.1962 74.0444L68.6178 74.4712L68.4567 75.008L67.035 74.5812ZM67.1962 74.0444L67.5918 75.4751C66.4616 75.7876 65.3825 75.4314 64.5474 74.958C63.6968 74.4758 62.9016 73.7645 62.2118 73.0125C60.8374 71.5144 59.6443 69.5919 59.0797 68.1663L60.4597 67.6196L61.8398 67.073C62.2582 68.1293 63.2454 69.7477 64.3994 71.0056C64.9738 71.6318 65.5298 72.1023 66.0115 72.3754C66.5087 72.6572 66.7427 72.6297 66.8006 72.6137L67.1962 74.0444ZM60.4597 67.6196L59.0796 68.1663C58.7789 67.407 58.9811 66.6605 59.3217 66.1594L60.5493 66.9939L61.7769 67.8284C61.8654 67.6981 61.9754 67.4154 61.8398 67.073L60.4597 67.6196ZM60.5493 66.9939L59.3217 66.1594C59.3611 66.1015 59.3967 66.0454 59.4246 65.9964C59.4554 65.9426 59.4619 65.9235 59.4572 65.9361C59.4542 65.9439 59.442 65.977 59.4307 66.0308C59.4202 66.0811 59.4028 66.1851 59.4121 66.3246C59.4215 66.4672 59.4617 66.6821 59.5979 66.9074C59.7421 67.146 59.9482 67.3195 60.1682 67.4234L60.802 66.0811L61.4358 64.7389C62.0898 65.0477 62.3428 65.6541 62.3743 66.1279C62.3996 66.5088 62.2944 66.8259 62.2348 66.9839C62.1043 67.3298 61.8987 67.6492 61.7769 67.8283L60.5493 66.9939ZM60.802 66.0811L60.1682 67.4234C59.6341 67.1712 59.2254 66.7489 58.9268 66.3555C58.6141 65.9433 58.3414 65.4551 58.1111 64.9356C57.6507 63.8967 57.3065 62.6112 57.1784 61.2695C56.9293 58.6609 57.4772 55.3271 60.3049 53.4672L61.1206 54.7074L61.9363 55.9475C60.4623 56.917 59.9281 58.8343 60.1337 60.9873C60.2329 62.0265 60.5003 62.9995 60.8253 63.7327C60.9878 64.0993 61.1512 64.3757 61.2918 64.561C61.4466 64.765 61.5084 64.7731 61.4358 64.7389L60.802 66.0811ZM61.1206 54.7074L60.3049 53.4672C61.3657 52.7695 62.5355 53.3192 63.0241 54.0671L61.7813 54.8788L60.5386 55.6906C60.6584 55.874 60.8453 56.0187 61.0804 56.0844C61.3291 56.1538 61.6512 56.135 61.9363 55.9475L61.1206 54.7074ZM61.7813 54.8788L63.0241 54.0671C63.3918 54.63 64.052 55.287 64.9367 55.9795L64.0218 57.1483L63.1069 58.3172C62.1204 57.5451 61.1667 56.6522 60.5386 55.6906L61.7813 54.8788ZM64.384 51.6529L65.8496 51.888C65.6055 53.4099 65.4955 55.2295 65.5062 57.1401L64.0218 57.1483L62.5375 57.1566C62.5262 55.1375 62.641 53.1467 62.9183 51.4178L64.384 51.6529ZM65.8886 47.4823L67.0198 48.4434C66.5499 48.9965 66.1262 50.164 65.8496 51.888L64.384 51.6529L62.9183 51.4177C63.206 49.625 63.721 47.7408 64.7574 46.5211L65.8886 47.4823ZM65.9654 47.3918L67.0966 48.353L67.0198 48.4434L65.8886 47.4823L64.7574 46.5211L64.8343 46.4306L65.9654 47.3918ZM66.0743 47.3445L66.6658 48.706L66.5569 48.7532L65.9654 47.3918L65.374 46.0304L65.4828 45.9831L66.0743 47.3445ZM66.2778 47.813L64.9164 48.4045L64.7129 47.936L66.0743 47.3445L67.4357 46.753L67.6393 47.2215L66.2778 47.813ZM66.2778 47.813L64.9164 48.4045C64.8147 48.1703 64.7636 48.0527 64.738 47.9936C64.7254 47.9646 64.7182 47.9479 64.7139 47.9381C64.7129 47.9356 64.7084 47.9252 64.7038 47.9141C64.7024 47.9107 64.6995 47.9038 64.6961 47.8951C64.6937 47.8893 64.6854 47.8683 64.6757 47.8411C64.6709 47.8277 64.6614 47.8002 64.6509 47.7649C64.6436 47.7399 64.6192 47.6569 64.6041 47.5475C64.5966 47.4932 64.5384 47.127 64.7288 46.7179C64.9873 46.1627 65.4882 45.9807 65.4859 45.9818L66.0745 47.3444L66.6632 48.7071C66.6608 48.7081 67.1618 48.5261 67.4202 47.9709C67.6107 47.5618 67.5524 47.1957 67.545 47.1414C67.5298 47.032 67.5055 46.949 67.4981 46.9241C67.4877 46.8888 67.4782 46.8613 67.4734 46.8479C67.4638 46.8209 67.4555 46.8001 67.4533 46.7945C67.4499 46.7861 67.4472 46.7796 67.446 46.7766C67.4421 46.7673 67.4392 46.7606 67.4413 46.7655C67.4434 46.7704 67.4488 46.7829 67.4617 46.8125C67.4868 46.8705 67.5375 46.9872 67.6393 47.2215L66.2778 47.813ZM66.0745 47.3444L65.4853 45.982L65.4913 45.9794L66.0806 47.3418L66.6699 48.7042L66.6638 48.7068L66.0745 47.3444ZM66.0806 47.3418L65.4947 45.9779L65.5111 45.9709L66.097 47.3347L66.683 48.6986L66.6665 48.7056L66.0806 47.3418ZM66.097 47.3347L65.5168 45.9685L65.5792 45.9419L66.1595 47.3082L66.7397 48.6745L66.6773 48.701L66.097 47.3347ZM66.1595 47.3082L65.5826 45.9405C65.6422 45.9154 65.7277 45.8797 65.837 45.8351L66.3979 47.2094L66.9588 48.5838C66.8606 48.6238 66.7858 48.6551 66.7363 48.6759L66.1595 47.3082ZM66.3979 47.2094L65.837 45.8351C66.0555 45.7459 66.3699 45.6207 66.7652 45.4714L67.2896 46.8601L67.814 48.2487C67.4453 48.388 67.1553 48.5036 66.9588 48.5838L66.3979 47.2094ZM67.2896 46.8601L66.7652 45.4714C67.5547 45.1733 68.6718 44.7773 69.9946 44.3814L70.4203 45.8034L70.846 47.2255C69.6022 47.5978 68.5519 47.9701 67.814 48.2487L67.2896 46.8601ZM70.4203 45.8034L69.9946 44.3814C72.6121 43.5979 76.1544 42.7773 79.5942 42.7773V44.2617V45.7461C76.5722 45.7461 73.3472 46.4767 70.846 47.2255L70.4203 45.8034ZM79.5942 44.2617V42.7773C83.0347 42.7773 86.5628 43.5982 89.1669 44.3823L88.739 45.8037L88.311 47.225C85.8255 46.4766 82.6157 45.7461 79.5942 45.7461V44.2617ZM88.739 45.8037L89.1669 44.3823C90.4828 44.7785 91.593 45.1748 92.3774 45.4732L91.8495 46.8605L91.3217 48.2479C90.5896 47.9694 89.547 47.5972 88.311 47.225L88.739 45.8037ZM91.8495 46.8605L92.3774 45.4732C92.77 45.6226 93.0824 45.7479 93.2994 45.8373L92.7346 47.21L92.1699 48.5827C91.9751 48.5026 91.6875 48.3871 91.3217 48.2479L91.8495 46.8605ZM92.7346 47.21L93.2994 45.8373C93.408 45.8819 93.4929 45.9176 93.5521 45.9428L92.9712 47.3088L92.3903 48.6748C92.3413 48.654 92.2672 48.6228 92.1699 48.5827L92.7346 47.21ZM92.9712 47.3088L93.5556 45.9443L93.6175 45.9708L93.0332 47.3354L92.4488 48.6999L92.3869 48.6733L92.9712 47.3088ZM93.0332 47.3354L93.6222 45.9728L93.6276 45.9752L93.0386 47.3377L92.4496 48.7002L92.4442 48.6979L93.0332 47.3354ZM93.0386 47.3377L93.6293 45.9759L93.6402 45.9806L93.0495 47.3424L92.4588 48.7042L92.4479 48.6995L93.0386 47.3377ZM93.0495 47.3424L93.6425 45.9816L93.6469 45.9836L93.0539 47.3443L92.4609 48.7051L92.4565 48.7032L93.0495 47.3424ZM93.0539 47.3443L93.6484 45.9842L93.6501 45.9849L93.0556 47.3451L92.461 48.7052L92.4594 48.7044L93.0539 47.3443ZM93.0556 47.3451L93.6524 45.9859C93.6509 45.9853 94.1494 46.1701 94.4045 46.7256C94.5922 47.1344 94.5329 47.4991 94.5253 47.5534C94.5098 47.6625 94.4852 47.7452 94.4778 47.7702C94.4672 47.8054 94.4576 47.8328 94.4528 47.8463C94.4431 47.8734 94.4346 47.8943 94.4323 47.9001C94.4288 47.9087 94.4259 47.9156 94.4245 47.9191C94.4199 47.9301 94.4153 47.9405 94.4143 47.943C94.41 47.9528 94.4028 47.9695 94.3901 47.9984C94.3643 48.0575 94.3128 48.1749 94.2104 48.4087L92.8508 47.813L91.4912 47.2172C91.5938 46.9832 91.6448 46.8668 91.6701 46.8088C91.683 46.7793 91.6885 46.7667 91.6906 46.7618C91.6927 46.7569 91.6898 46.7637 91.6859 46.7729C91.6847 46.7759 91.6819 46.7824 91.6786 46.7908C91.6763 46.7964 91.668 46.8171 91.6583 46.8441C91.6535 46.8575 91.6439 46.8849 91.6333 46.92C91.6259 46.945 91.6013 47.0277 91.5859 47.1368C91.5782 47.1911 91.5189 47.5557 91.7066 47.9645C91.9617 48.52 92.4602 48.7048 92.4588 48.7042L93.0556 47.3451ZM92.8508 47.813L93.9862 46.8568C93.9765 46.8453 93.9678 46.8353 93.9606 46.8273C93.9535 46.8192 93.9473 46.8124 93.9426 46.8074C93.938 46.8023 93.9342 46.7983 93.9319 46.7959C93.9299 46.7937 93.9281 46.7918 93.9284 46.7921C93.9284 46.7921 93.9284 46.7921 93.9284 46.7921C93.9284 46.7921 93.9284 46.7921 93.9284 46.7921C93.9284 46.7921 93.9284 46.7921 93.9284 46.7921C93.9284 46.7921 93.9284 46.7922 93.9284 46.7922C93.9285 46.7922 93.9285 46.7923 93.9286 46.7924C93.9288 46.7925 93.929 46.7927 93.9293 46.7931C93.9298 46.7937 93.9308 46.7946 93.9319 46.7959C93.9342 46.7983 93.938 46.8023 93.9426 46.8074C93.9473 46.8124 93.9535 46.8192 93.9606 46.8273C93.9678 46.8353 93.9765 46.8453 93.9862 46.8569L92.8508 47.813L91.7154 48.7691C91.7251 48.7807 91.7338 48.7906 91.741 48.7987C91.7481 48.8068 91.7543 48.8135 91.759 48.8186C91.7636 48.8237 91.7674 48.8277 91.7697 48.8301C91.7717 48.8323 91.7735 48.8342 91.7732 48.8339C91.7732 48.8339 91.7732 48.8339 91.7732 48.8339C91.7732 48.8339 91.7732 48.8339 91.7732 48.8339C91.7732 48.8339 91.7732 48.8338 91.7732 48.8338C91.7732 48.8338 91.7732 48.8338 91.7732 48.8338C91.7731 48.8338 91.7731 48.8337 91.773 48.8336C91.7729 48.8335 91.7726 48.8332 91.7723 48.8329C91.7718 48.8323 91.7708 48.8313 91.7697 48.8301C91.7674 48.8277 91.7636 48.8237 91.759 48.8186C91.7543 48.8135 91.7481 48.8068 91.741 48.7987C91.7338 48.7906 91.7251 48.7807 91.7154 48.7691L92.8508 47.813ZM92.8508 47.813C92.255 49.1726 92.2552 49.1726 92.2554 49.1727C92.2554 49.1727 92.2556 49.1728 92.2556 49.1728C92.2557 49.1728 92.2557 49.1728 92.2556 49.1728C92.2553 49.1727 92.2547 49.1724 92.2536 49.1719C92.2514 49.171 92.2476 49.1693 92.2422 49.167C92.2313 49.1623 92.214 49.1549 92.1904 49.1448C92.1432 49.1247 92.0709 49.0943 91.9755 49.0551C91.7846 48.9765 91.5013 48.8627 91.1401 48.7253C90.417 48.4502 89.386 48.0821 88.1637 47.7141C85.6986 46.9718 82.5436 46.2569 79.5942 46.2569V44.7725V43.2881C82.9627 43.2881 86.436 44.0934 89.0197 44.8714C90.3218 45.2635 91.4204 45.6556 92.1957 45.9505C92.5838 46.0982 92.8919 46.2219 93.1051 46.3096C93.2117 46.3535 93.2947 46.3884 93.3523 46.4129C93.381 46.4251 93.4034 46.4347 93.4192 46.4415C93.4271 46.4449 93.4333 46.4476 93.4379 46.4496C93.4402 46.4506 93.4421 46.4514 93.4435 46.4521C93.4442 46.4524 93.4448 46.4527 93.4453 46.4529C93.4456 46.453 93.4459 46.4531 93.446 46.4532C93.4463 46.4533 93.4466 46.4534 92.8508 47.813ZM79.5942 44.7725V46.2569C76.6441 46.2569 73.4737 46.972 70.9924 47.7148C69.7623 48.083 68.7235 48.4513 67.9945 48.7266C67.6303 48.8641 67.3445 48.978 67.1518 49.0567C67.0555 49.096 66.9825 49.1264 66.9348 49.1465C66.911 49.1566 66.8934 49.1641 66.8824 49.1688C66.8769 49.1711 66.8731 49.1728 66.8709 49.1738C66.8698 49.1742 66.8691 49.1745 66.8688 49.1746C66.8687 49.1747 66.8687 49.1747 66.8688 49.1747C66.8688 49.1746 66.8689 49.1746 66.869 49.1746C66.8691 49.1745 66.8693 49.1744 66.2778 47.813C65.6863 46.4515 65.6866 46.4514 65.6869 46.4513C65.687 46.4513 65.6873 46.4511 65.6875 46.451C65.6881 46.4508 65.6887 46.4505 65.6894 46.4502C65.6908 46.4496 65.6927 46.4488 65.695 46.4478C65.6996 46.4458 65.7058 46.4431 65.7138 46.4397C65.7297 46.4329 65.7522 46.4233 65.7811 46.4111C65.839 46.3867 65.9226 46.3518 66.03 46.308C66.2447 46.2204 66.555 46.0968 66.9456 45.9492C67.7263 45.6545 68.8319 45.2626 70.1411 44.8707C72.7385 44.0932 76.2263 43.2881 79.5942 43.2881V44.7725ZM64.5364 57.5378L63.0522 57.5584C63.022 55.3867 63.136 53.2434 63.4356 51.4189C63.7227 49.6706 64.2197 47.9428 65.1467 46.8518L66.2778 47.813L67.409 48.7741C67.0434 49.2044 66.6403 50.2237 66.3651 51.8999C66.1024 53.4998 65.992 55.4583 66.0206 57.5172L64.5364 57.5378ZM64.5364 57.5378L65.3876 56.3217C65.4009 56.331 65.4113 56.3387 65.4174 56.3432C65.4206 56.3455 65.4231 56.3474 65.4247 56.3485C65.4254 56.3491 65.4261 56.3496 65.4264 56.3499C65.4266 56.35 65.4268 56.3501 65.4269 56.3502C65.4269 56.3502 65.427 56.3503 65.427 56.3503C65.427 56.3503 65.427 56.3503 65.427 56.3503C65.427 56.3503 65.427 56.3503 65.427 56.3503C65.427 56.3503 65.427 56.3503 65.427 56.3503C65.427 56.3503 65.427 56.3503 65.427 56.3503C65.4272 56.3505 65.4261 56.3496 65.4247 56.3485C65.4232 56.3474 65.4206 56.3455 65.4175 56.3432C65.4114 56.3387 65.4009 56.331 65.3877 56.3218L64.5364 57.5378L63.6852 58.7539C63.672 58.7446 63.6615 58.737 63.6554 58.7325C63.6522 58.7301 63.6497 58.7282 63.6482 58.7271C63.6474 58.7265 63.6468 58.726 63.6464 58.7258C63.6462 58.7256 63.646 58.7255 63.6459 58.7254C63.6459 58.7254 63.6459 58.7254 63.6458 58.7253C63.6458 58.7253 63.6458 58.7253 63.6458 58.7253C63.6458 58.7253 63.6458 58.7253 63.6458 58.7253C63.6458 58.7253 63.6458 58.7253 63.6458 58.7253C63.6458 58.7253 63.6458 58.7253 63.6458 58.7253C63.6456 58.7252 63.6468 58.7261 63.6482 58.7271C63.6497 58.7282 63.6522 58.7301 63.6554 58.7324C63.6614 58.7369 63.6719 58.7446 63.6852 58.7538L64.5364 57.5378ZM64.5364 57.5378L63.0522 57.5584C63.0221 55.3868 63.1361 53.2435 63.4357 51.4189C63.7227 49.6706 64.2197 47.9428 65.1467 46.8519L66.2779 47.813L67.4091 48.7742C67.0434 49.2045 66.6404 50.2238 66.3652 51.8999C66.1025 53.4999 65.9921 55.4584 66.0207 57.5172L64.5364 57.5378ZM66.2779 47.813C65.6864 46.4516 65.6866 46.4515 65.6869 46.4514C65.687 46.4513 65.6873 46.4512 65.6876 46.4511C65.6881 46.4508 65.6887 46.4506 65.6894 46.4503C65.6909 46.4496 65.6927 46.4488 65.695 46.4478C65.6996 46.4459 65.7059 46.4432 65.7138 46.4398C65.7297 46.433 65.7522 46.4234 65.7812 46.4112C65.8391 46.3868 65.9226 46.3519 66.03 46.3081C66.2448 46.2204 66.555 46.0968 66.9457 45.9493C67.7263 45.6545 68.832 45.2626 70.1412 44.8707C72.7386 44.0932 76.2263 43.2881 79.5942 43.2881V44.7725V46.2569C76.6442 46.2569 73.4737 46.9721 70.9925 47.7148C69.7623 48.083 68.7235 48.4513 67.9945 48.7266C67.6304 48.8641 67.3445 48.978 67.1518 49.0567C67.0555 49.096 66.9826 49.1264 66.9349 49.1466C66.911 49.1566 66.8935 49.1641 66.8825 49.1688C66.877 49.1712 66.8731 49.1728 66.8709 49.1738C66.8698 49.1743 66.8691 49.1746 66.8689 49.1747C66.8688 49.1747 66.8687 49.1747 66.8688 49.1747C66.8689 49.1747 66.869 49.1746 66.869 49.1746C66.8692 49.1745 66.8694 49.1745 66.2779 47.813ZM79.5942 44.7725V43.2881C86.2457 43.2881 93.4296 46.446 93.4462 46.4533L92.8508 47.813L92.2554 49.1727C92.2785 49.1828 90.6003 48.4471 88.153 47.7109C85.6893 46.9697 82.5393 46.2569 79.5942 46.2569V44.7725Z" fill="#1F1F1F" mask="url(#path-3-outside-1_118_2293)"/>
</g>
<mask id="mask0_118_2293" style="mask-type:alpha" maskUnits="userSpaceOnUse" x="58" y="44" width="43" height="35">
<path fill-rule="evenodd" clip-rule="evenodd" d="M92.8509 47.813L93.0559 47.3452L93.1598 47.3907L93.2347 47.476C94.0253 48.3766 94.5714 49.9242 94.9273 51.7158C95.2518 53.35 95.431 55.2571 95.466 57.2177C96.4394 56.465 97.2819 55.6652 97.7956 54.8789C97.9411 54.656 98.2339 54.5611 98.4563 54.7074C102.758 57.5367 100.621 65.2096 98.7749 66.0811C98.5374 66.1933 98.8109 66.6751 99.0276 66.9939C99.1536 67.1793 99.1998 67.4112 99.1172 67.6197C98.1341 70.1016 94.7568 74.7014 92.3807 74.0444L92.5419 74.5812C92.5854 74.7261 92.5459 74.8839 92.4355 74.9874C90.6108 76.6982 88.2931 77.3672 86.8509 75.8546C83.841 77.7153 80.7418 78.9131 79.5793 78.9131C78.4639 78.9131 75.3209 77.9002 72.3272 76.2031C70.881 77.2418 68.8061 76.5481 67.1415 74.9874C67.0311 74.8839 66.9916 74.7261 67.0351 74.5812L67.1963 74.0444C64.8202 74.7014 61.4429 70.1015 60.4598 67.6196C60.3772 67.4112 60.4234 67.1793 60.5494 66.9939C60.7661 66.6751 61.0396 66.1933 60.8021 66.0811C58.9564 65.2096 56.819 57.5367 61.1207 54.7074C61.343 54.5611 61.6359 54.656 61.7814 54.8788C62.2793 55.6411 63.0863 56.416 64.0219 57.1483C64.011 55.1835 64.1233 53.2783 64.3841 51.6529C64.6662 49.8945 65.1355 48.3686 65.8887 47.4823L65.9655 47.3918L66.0744 47.3445L66.2779 47.813C66.0744 47.3445 66.0745 47.3445 66.0746 47.3444L66.0807 47.3418L66.0971 47.3347L66.1596 47.3082C66.2141 47.2852 66.2942 47.2518 66.398 47.2094C66.6055 47.1248 66.9077 47.0043 67.2897 46.8601C68.0534 46.5717 69.1371 46.1876 70.4204 45.8034C72.9797 45.0373 76.3634 44.2617 79.5942 44.2617C82.8253 44.2617 86.1942 45.0374 88.7391 45.8037C90.015 46.1879 91.0914 46.5721 91.8496 46.8605C92.2289 47.0048 92.5288 47.1253 92.7347 47.21C92.8377 47.2524 92.9172 47.2858 92.9713 47.3088L93.0333 47.3354L93.0387 47.3377L93.0496 47.3424L93.054 47.3443L93.0557 47.3451C93.0558 47.3451 93.0559 47.3452 92.8509 47.813ZM94.9602 57.5964C94.9242 53.3701 94.2148 49.3665 92.8509 47.813C92.8509 47.813 85.9122 44.7725 79.5942 44.7725C75.7172 44.7725 71.5839 45.9175 68.9689 46.8022C71.5839 45.9175 75.7172 44.7725 79.5942 44.7725C85.9121 44.7725 92.8509 47.813 92.8509 47.813C94.2147 49.3665 94.9242 53.3701 94.9602 57.5964C94.9602 57.5964 94.9602 57.5964 94.9602 57.5964Z" fill="#D9D9D9"/>
</mask>
<g mask="url(#mask0_118_2293)">
<path d="M97.7955 54.8788C96.7094 56.5415 94.1531 58.2643 91.9985 59.4741C89.3353 63.2913 84.7976 71.329 86.0347 74.5123C87.2397 77.6128 90.2057 77.078 92.4354 74.9874C92.5458 74.8839 92.5853 74.726 92.5418 74.5811L92.3806 74.0444C94.7567 74.7013 98.134 70.1015 99.1171 67.6196C99.1997 67.4112 99.1535 67.1793 99.0275 66.9938C98.8108 66.6751 98.5373 66.1933 98.7748 66.0811C100.62 65.2096 102.758 57.5367 98.4562 54.7074C98.2338 54.5611 97.941 54.656 97.7955 54.8788Z" fill="url(#paint1_linear_118_2293)"/>
<path d="M61.7813 54.8788C62.8674 56.5415 65.4237 58.2643 67.5783 59.4741C70.2415 63.2913 74.7792 71.329 73.542 74.5123C72.3371 77.6128 69.3711 77.078 67.1414 74.9874C67.031 74.8839 66.9915 74.726 67.035 74.5811L67.1962 74.0444C64.8201 74.7013 61.4428 70.1015 60.4597 67.6196C60.3771 67.4112 60.4233 67.1793 60.5493 66.9938C60.766 66.6751 61.0395 66.1933 60.802 66.0811C58.9563 65.2096 56.8189 57.5367 61.1206 54.7074C61.343 54.5611 61.6358 54.656 61.7813 54.8788Z" fill="url(#paint2_linear_118_2293)"/>
<mask id="mask1_118_2293" style="mask-type:alpha" maskUnits="userSpaceOnUse" x="58" y="54" width="43" height="23">
<path d="M98.4563 54.7075C98.234 54.5613 97.9418 54.6558 97.7961 54.8784C96.7101 56.541 94.1529 58.2642 91.9983 59.4741C89.335 63.2914 84.7982 71.3289 86.0354 74.5121C87.2404 77.6125 90.2061 77.0773 92.4358 74.9867C92.5459 74.8833 92.5857 74.7253 92.5422 74.5805L92.3811 74.0444C94.7571 74.701 98.1343 70.1014 99.1174 67.6196C99.2 67.4111 99.1536 67.179 99.0276 66.9936C98.8109 66.6749 98.5374 66.1928 98.7746 66.0805C100.62 65.209 102.758 57.5368 98.4563 54.7075ZM61.7815 54.8784C61.6359 54.6558 61.3436 54.5615 61.1213 54.7075C56.82 57.5366 58.9564 65.2081 60.802 66.0805C61.0394 66.1926 60.7667 66.6748 60.55 66.9936C60.424 67.179 60.3776 67.4111 60.4602 67.6196C61.4434 70.1015 64.8205 74.7013 67.1965 74.0444L67.0354 74.5805C66.9919 74.7253 67.0316 74.8833 67.1418 74.9867C69.3716 77.0774 72.3372 77.6126 73.5422 74.5121C74.7794 71.3288 70.2416 63.2913 67.5783 59.4741C65.4238 58.2642 62.8675 56.5409 61.7815 54.8784Z" fill="url(#paint3_linear_118_2293)"/>
</mask>
<g mask="url(#mask1_118_2293)">
<path d="M97.0966 67.1429C98.9694 67.0067 100.005 65.185 100.289 64.2911L102.034 60.2902C101.438 60.7584 99.6837 62.957 97.8627 63.6953C96.2879 64.3337 94.1739 63.9506 93.8617 63.6953L92.8828 66.7173C93.507 66.9159 95.2238 67.2791 97.0966 67.1429Z" fill="url(#paint4_linear_118_2293)"/>
<path d="M91.6478 73.9856C93.0628 74.7264 94.628 73.8736 95.2337 73.3545L98.2884 71.244C97.6478 71.3155 95.3941 72.1188 93.7468 71.8364C92.3221 71.5923 90.9654 70.3679 90.8542 70.0434L88.7921 71.7895C89.1545 72.2129 90.2328 73.2448 91.6478 73.9856Z" fill="url(#paint5_linear_118_2293)"/>
<path d="M86.389 76.964C87.554 78.0567 89.2904 77.654 90.013 77.3161L93.5212 76.1006C92.8849 75.9979 90.4984 76.1685 88.9868 75.4553C87.6795 74.8386 86.7002 73.2957 86.68 72.9533L84.2257 74.0835C84.4614 74.5884 85.2241 75.8714 86.389 76.964Z" fill="url(#paint6_linear_118_2293)"/>
<path d="M100.105 55.6981L98.5062 54.4034L94.8971 54.9248C94.2577 56.2291 93.2635 58.9199 94.4018 59.2489C95.5401 59.5779 98.6785 57.0188 100.105 55.6981Z" fill="#15B2D7"/>
<path d="M93.8617 66.6748C94.4401 66.9902 97.9792 66.6837 98.7985 66.1215C99.3393 66.3357 99.4994 67.3496 98.7984 67.7389C98.1133 68.1193 94.9349 67.8345 93.5212 67.7389C93.3445 67.3319 93.4376 66.4435 93.8617 66.6748Z" fill="#15B2D7"/>
<path d="M90.4056 71.9702C90.4312 72.4334 91.7642 73.9007 92.6391 74.1577C92.7137 74.5564 92.5788 74.9146 91.9889 74.9321C91.4966 74.9467 90.0735 73.0593 89.9403 72.2622C90.1274 71.988 90.3869 71.6305 90.4056 71.9702Z" fill="#15B2D7"/>
<path d="M62.4886 67.1429C60.6158 67.0067 59.5801 65.185 59.2963 64.2911L57.5512 60.2902C58.1471 60.7584 59.9015 62.957 61.7225 63.6953C63.2973 64.3337 65.4113 63.9506 65.7235 63.6953L66.7024 66.7173C66.0782 66.9159 64.3614 67.2791 62.4886 67.1429Z" fill="url(#paint7_linear_118_2293)"/>
<path d="M67.9375 73.9856C66.5225 74.7264 64.9573 73.8736 64.3516 73.3545L61.2969 71.244C61.9375 71.3155 64.1912 72.1188 65.8385 71.8364C67.2632 71.5923 68.6199 70.3679 68.7311 70.0434L70.7931 71.7895C70.4308 72.2129 69.3525 73.2448 67.9375 73.9856Z" fill="url(#paint8_linear_118_2293)"/>
<path d="M73.1962 76.964C72.0312 78.0567 70.2948 77.654 69.5723 77.3161L66.064 76.1006C66.7004 75.9979 69.0869 76.1685 70.5984 75.4553C71.9057 74.8386 72.885 73.2957 72.9053 72.9533L75.3596 74.0835C75.1239 74.5884 74.3612 75.8714 73.1962 76.964Z" fill="url(#paint9_linear_118_2293)"/>
<path d="M59.4798 55.698L61.079 54.4033L64.6881 54.9247C65.3275 56.229 66.3216 58.9198 65.1834 59.2488C64.0451 59.5778 60.9067 57.0187 59.4798 55.698Z" fill="#15B2D7"/>
<path d="M65.7235 66.6748C65.1451 66.9902 61.606 66.6837 60.7868 66.1215C60.2459 66.3357 60.0858 67.3496 60.7868 67.7389C61.4719 68.1193 64.6503 67.8345 66.064 67.7389C66.2407 67.3319 66.1476 66.4435 65.7235 66.6748Z" fill="#15B2D7"/>
<path d="M69.1795 71.9702C69.1539 72.4334 67.8209 73.9007 66.946 74.1577C66.8714 74.5564 67.0064 74.9146 67.5962 74.9321C68.0885 74.9467 69.5116 73.0593 69.6448 72.2622C69.4577 71.988 69.1982 71.6305 69.1795 71.9702Z" fill="#15B2D7"/>
<path d="M93.9428 70.5488C90.8756 75.6508 81.8717 79.9121 79.617 79.9121C77.3624 79.9121 67.4326 75.9982 65.259 70.5488C63.0855 65.0994 62.4577 54.4714 65.259 47.1773C66.8106 46.8019 71.8946 46.7206 72.9577 47.2501C74.4791 45.6994 78.2012 43.7329 79.6332 43.7329C81.0651 43.7329 85.0135 45.6884 86.2442 47.2501C87.3073 46.7206 92.9068 46.8518 93.9428 47.1773C96.7864 54.514 97.01 65.4468 93.9428 70.5488Z" fill="#8BAEC0" style="mix-blend-mode:multiply"/>
</g>
<path d="M92.8508 70.4155C90.0094 75.0458 81.668 78.9131 79.5793 78.9131C77.4906 78.9131 68.2915 75.3611 66.2779 70.4155C64.2643 65.4698 63.6554 52.291 66.2779 49.2046C66.2779 49.2046 73.2763 46.1641 79.5942 46.1641C85.9122 46.1641 92.8509 49.2046 92.8509 49.2046C95.638 52.3792 95.6923 65.7851 92.8508 70.4155Z" fill="#CA4B00"/>
<path d="M79.5944 44.5166C76.3996 44.5166 73.0431 45.2848 70.4938 46.0479C69.2174 46.4299 68.1388 46.8119 67.3796 47.0986C67.0001 47.242 66.7004 47.3624 66.4948 47.4463C66.392 47.4882 66.3122 47.5213 66.2585 47.5439C66.232 47.5551 66.2117 47.5634 66.1979 47.5693C66.1913 47.5722 66.1859 47.5746 66.1823 47.5762C66.1805 47.5769 66.1784 47.5777 66.1774 47.5781H66.1765V47.5791L66.1218 47.6025L66.0837 47.6475C65.3793 48.4765 64.9176 49.9407 64.6364 51.6934C64.3531 53.4594 64.2457 55.5665 64.2839 57.7256C64.3554 61.7659 64.9366 66.0339 65.8532 68.625L66.0417 69.1201C66.5656 70.4069 67.549 71.5878 68.7438 72.6309C69.9405 73.6754 71.3621 74.5932 72.78 75.3525C74.1984 76.1121 75.6199 76.7163 76.82 77.1309C78.0094 77.5417 79.0114 77.7773 79.5798 77.7773C80.1541 77.7772 81.1064 77.5182 82.2272 77.083C83.3601 76.6431 84.6985 76.009 86.0593 75.2305C88.6025 73.7755 91.2591 71.7949 92.78 69.5996L93.0681 69.1572C93.8029 67.9598 94.3399 66.2176 94.6931 64.248C95.0471 62.2732 95.2199 60.0484 95.2165 57.8721C95.2131 55.6962 95.033 53.5611 94.6765 51.7656C94.3222 49.982 93.7864 48.4916 93.0427 47.6445L93.0056 47.6016L92.9538 47.5791L92.8513 47.8125L92.9528 47.5791L92.9518 47.5781C92.9509 47.5777 92.9497 47.5769 92.9479 47.5762C92.9444 47.5746 92.9391 47.5723 92.9323 47.5693C92.9186 47.5634 92.8982 47.5552 92.8718 47.5439C92.8185 47.5213 92.7394 47.4883 92.6374 47.4463C92.4334 47.3624 92.1354 47.243 91.7585 47.0996C91.0048 46.8129 89.9346 46.4299 88.6657 46.0479C86.1311 45.2847 82.7894 44.5166 79.5944 44.5166Z" fill="url(#paint10_linear_118_2293)" stroke="url(#paint11_linear_118_2293)" stroke-width="0.510764"/>
<mask id="mask2_118_2293" style="mask-type:alpha" maskUnits="userSpaceOnUse" x="64" y="44" width="31" height="34">
<path d="M92.8508 69.0238C90.0094 73.6542 81.668 77.5215 79.5793 77.5215C77.4906 77.5215 68.2915 73.9695 66.2779 69.0238C64.2643 64.0782 63.6554 50.8994 66.2779 47.813C66.2779 47.813 73.2763 44.7725 79.5942 44.7725C85.9122 44.7725 92.8509 47.813 92.8509 47.813C95.638 50.9876 95.6923 64.3935 92.8508 69.0238Z" fill="url(#paint12_linear_118_2293)"/>
</mask>
<g mask="url(#mask2_118_2293)">
<path d="M79.4752 42.5411V52.9267H83.4336L87.0941 44.0734L79.4752 42.5411Z" fill="#FFFFCB"/>
<g filter="url(#filter2_i_118_2293)">
<path d="M89.4279 66.5999C87.3488 70.0234 81.2453 72.8828 79.717 72.8828C78.1887 72.8828 71.4576 70.2565 69.9843 66.5999C68.5109 62.9432 68.0654 53.199 69.9843 50.917C69.9843 50.917 75.105 48.6689 79.7279 48.6689C84.3508 48.6689 89.4279 50.917 89.4279 50.917C91.4673 53.2643 91.507 63.1763 89.4279 66.5999Z" fill="url(#paint13_linear_118_2293)"/>
</g>
<path d="M79.7282 48.2051C77.3508 48.2051 74.8643 48.7811 72.988 49.3486C72.0466 49.6334 71.2515 49.919 70.6911 50.1328C70.4111 50.2397 70.1893 50.3287 70.0368 50.3916C69.9606 50.423 69.9013 50.4477 69.861 50.4648C69.8411 50.4733 69.8257 50.4798 69.8151 50.4844C69.8098 50.4867 69.8053 50.489 69.8024 50.4902C69.8013 50.4907 69.8002 50.4909 69.7995 50.4912L69.7985 50.4922H69.7975L69.6989 50.5361L69.6296 50.6182C69.0623 51.2928 68.7161 52.4415 68.5095 53.7432C68.2989 55.0694 68.2206 56.6443 68.2487 58.251C68.3013 61.2491 68.7276 64.4401 69.4138 66.3984L69.5544 66.7734C69.9595 67.7787 70.7128 68.6845 71.6052 69.4717C72.5006 70.2615 73.5588 70.9522 74.6091 71.5205C75.6603 72.0894 76.7142 72.5422 77.6061 72.8535C78.4785 73.158 79.2506 73.3467 79.7175 73.3467C80.1952 73.3465 80.9354 73.1366 81.7565 72.8145C82.5995 72.4837 83.5917 72.0087 84.5983 71.4268C86.4711 70.3441 88.458 68.8535 89.6061 67.1777L89.8239 66.8408C90.3876 65.9127 90.7879 64.5853 91.0485 63.1162C91.3108 61.6379 91.4387 59.977 91.4362 58.3545C91.4337 56.7327 91.3009 55.1357 91.0358 53.7871C90.775 52.4601 90.3722 51.2962 89.778 50.6123L89.7106 50.5352L89.6159 50.4932L89.6149 50.4922H89.614C89.6132 50.4919 89.6122 50.4917 89.611 50.4912C89.6082 50.49 89.6036 50.4876 89.5983 50.4854C89.5878 50.4808 89.5722 50.4743 89.5524 50.4658C89.5125 50.4487 89.4541 50.424 89.3786 50.3926C89.2273 50.3297 89.0074 50.2398 88.7292 50.1328C88.1729 49.9189 87.3829 49.6344 86.447 49.3496C84.5813 48.7819 82.1057 48.2051 79.7282 48.2051Z" stroke="url(#paint14_linear_118_2293)" stroke-width="0.927734"/>
<path d="M79.7282 48.9014C77.45 48.9014 75.039 49.4554 73.1901 50.0146C72.2673 50.2938 71.4874 50.573 70.9391 50.7822C70.6651 50.8868 70.4488 50.9744 70.3015 51.0352C70.228 51.0655 70.1713 51.0894 70.1335 51.1055C70.1325 51.1059 70.1315 51.106 70.1306 51.1064C69.7108 51.6343 69.3962 52.5979 69.197 53.8525C68.9947 55.1267 68.9163 56.6589 68.944 58.2393C68.9961 61.2096 69.4203 64.3101 70.0671 66.1602L70.1989 66.5127C70.5489 67.3812 71.2182 68.2032 72.0651 68.9502C72.9104 69.6958 73.9219 70.3572 74.9401 70.9082C75.9578 71.4589 76.9772 71.8969 77.8347 72.1963C78.7019 72.499 79.3778 72.6504 79.7175 72.6504C80.0518 72.6502 80.6835 72.4879 81.5016 72.167C82.3095 71.85 83.2705 71.3903 84.2497 70.8242C86.0933 69.7584 87.9703 68.3321 89.029 66.7891L89.2292 66.4795C89.727 65.6598 90.1081 64.4314 90.363 62.9951C90.617 61.5634 90.7424 59.9436 90.7399 58.3555C90.7375 56.7669 90.6077 55.2158 90.3532 53.9209C90.1023 52.6445 89.737 51.6532 89.2839 51.1064C89.2821 51.1057 89.2799 51.1053 89.278 51.1045C89.2405 51.0884 89.1848 51.0644 89.112 51.0342C88.9659 50.9734 88.7512 50.8868 88.4792 50.7822C87.9351 50.573 87.1611 50.2937 86.2438 50.0146C84.4061 49.4555 82.0064 48.9014 79.7282 48.9014Z" stroke="url(#paint15_linear_118_2293)" stroke-width="0.463867"/>
<g filter="url(#filter3_d_118_2293)">
<path d="M79.7681 65.6465C76.7723 65.6465 73.1524 65.1888 71.9873 63.8573C70.8223 62.5258 70.4062 56.466 71.1968 55.6754C71.9873 55.4139 75.2328 57.318 75.2328 58.7041C75.3789 56.4536 77.6529 54.2286 79.1818 53.1372C79.5342 52.8857 80.0021 52.8857 80.3544 53.1372C81.8834 54.2286 84.1573 56.4536 84.3035 58.7041C84.3035 57.5446 87.3404 55.4593 88.3395 55.6754C89.1301 56.466 88.714 62.5258 87.5489 63.8573C86.3839 65.1888 82.764 65.6465 79.7681 65.6465Z" fill="url(#paint16_linear_118_2293)"/>
<path d="M80.4274 52.8594C79.9922 52.5976 79.4431 52.617 79.0241 52.916L78.7224 53.1377C78.0027 53.6866 77.1731 54.4439 76.4763 55.3164C75.8979 56.0406 75.4003 56.8604 75.1423 57.7188C75.0742 57.6205 74.9989 57.5251 74.9196 57.4326C74.5827 57.0395 74.1321 56.6639 73.6638 56.3467C73.1949 56.029 72.6974 55.7617 72.2604 55.5898C72.0423 55.5041 71.8324 55.4401 71.6452 55.4062C71.51 55.3818 71.3689 55.3693 71.238 55.3877L71.111 55.417L71.0505 55.4375L71.0046 55.4834C70.8512 55.6369 70.7564 55.8797 70.6921 56.1328C70.6249 56.3973 70.5791 56.7207 70.5515 57.0791C70.4961 57.7976 70.5113 58.6866 70.5876 59.5869C70.6639 60.4874 70.802 61.4095 70.9968 62.1943C71.1641 62.8688 71.3819 63.4776 71.6599 63.8779L71.7829 64.0361C72.1124 64.4127 72.5993 64.711 73.1686 64.9492C73.7408 65.1886 74.4147 65.3759 75.1384 65.5186C76.4049 65.7682 77.844 65.8871 79.195 65.9131L79.7682 65.9189C81.2776 65.9189 82.9506 65.8038 84.3981 65.5186C85.1218 65.3759 85.7957 65.1886 86.3679 64.9492C86.866 64.7408 87.301 64.4865 87.6227 64.1738L87.7536 64.0361C88.0913 63.6501 88.3475 62.965 88.5388 62.1943C88.7335 61.4095 88.8726 60.4874 88.9489 59.5869C89.0252 58.6866 89.0394 57.7976 88.9841 57.0791C88.9564 56.7206 88.9106 56.3973 88.8434 56.1328C88.7791 55.8798 88.6853 55.6369 88.5319 55.4834L88.4753 55.4268L88.3972 55.4092C88.219 55.3706 88.0192 55.3871 87.822 55.4297C87.6212 55.4731 87.4028 55.5483 87.1794 55.6445C86.7327 55.8371 86.2424 56.1245 85.7878 56.4531C85.3334 56.7817 84.904 57.1596 84.5856 57.5361C84.5235 57.6097 84.4645 57.6858 84.4089 57.7627C84.1549 56.8883 83.6486 56.0531 83.0602 55.3164C82.2638 54.3192 81.2932 53.4734 80.5124 52.916L80.4274 52.8594Z" stroke="#FF421F" stroke-width="0.544013"/>
</g>
<path fill-rule="evenodd" clip-rule="evenodd" d="M71.9873 63.0413C73.1524 64.3727 76.7723 64.8304 79.7681 64.8304C82.764 64.8304 86.3839 64.3727 87.5489 63.0413C88.2563 62.2329 88.6875 59.6818 88.7403 57.625C88.8011 59.7618 88.3537 62.9376 87.5489 63.8573C86.3839 65.1888 82.764 65.6465 79.7681 65.6465C76.7723 65.6465 73.1524 65.1888 71.9873 63.8573C71.1826 62.9376 70.7352 59.7619 70.796 57.625C70.8488 59.6818 71.28 62.2329 71.9873 63.0413Z" fill="#FFDCC6" style="mix-blend-mode:multiply"/>
<mask id="mask3_118_2293" style="mask-type:alpha" maskUnits="userSpaceOnUse" x="70" y="52" width="19" height="14">
<path d="M79.7681 65.6465C76.7723 65.6465 73.1524 65.1888 71.9873 63.8573C70.8223 62.5258 70.4062 56.466 71.1968 55.6754C71.9873 55.4139 75.2328 57.318 75.2328 58.7041C75.3789 56.4536 77.6529 54.2286 79.1818 53.1372C79.5342 52.8857 80.0021 52.8857 80.3544 53.1372C81.8834 54.2286 84.1573 56.4536 84.3035 58.7041C84.3035 57.5446 87.3404 55.4593 88.3395 55.6754C89.1301 56.466 88.714 62.5258 87.5489 63.8573C86.3839 65.1888 82.764 65.6465 79.7681 65.6465Z" fill="url(#paint17_linear_118_2293)"/>
</mask>
<g mask="url(#mask3_118_2293)">
<path fill-rule="evenodd" clip-rule="evenodd" d="M88.7283 58.7812C88.6847 57.9672 88.5583 57.3449 88.3395 57.1261C87.51 56.9467 85.4319 58.1036 84.6207 59.3727C84.5621 59.4642 84.1898 59.423 84.1621 59.3179C83.6161 57.2442 81.6851 54.9463 80.3405 53.8698C80.0025 53.5992 79.5337 53.5992 79.1958 53.8698C77.8453 54.951 75.9032 57.2643 75.3671 59.3452C75.3401 59.4501 74.967 59.4974 74.9061 59.4078C74.0553 58.1577 71.8542 56.9087 71.1968 57.1261C70.978 57.3449 70.8516 57.9672 70.8079 58.7812C70.7422 57.305 70.86 56.0122 71.1968 55.6754C71.9873 55.414 75.2328 57.318 75.2328 58.7042C75.3794 56.4468 77.6668 53.6433 79.1958 52.4191C79.5337 52.1485 80.0025 52.1485 80.3405 52.4191C81.8695 53.6433 84.1569 56.4468 84.3035 58.7042C84.3035 57.5447 87.3404 55.4593 88.3395 55.6754C88.6763 56.0122 88.7941 57.305 88.7283 58.7812Z" fill="#FFFF85"/>
<path d="M77.5606 66.7428C75.7101 62.7178 75.5332 55.0169 77.6842 52.7231L69.207 52.6484L69.5821 66.6725L77.5606 66.7428Z" fill="#FFDCC6" style="mix-blend-mode:multiply"/>
<path d="M75.0549 67.3313C72.7985 63.519 71.827 55.8776 73.7295 53.3739L65.29 54.1753L67.1117 68.0856L75.0549 67.3313Z" fill="#FFDCC6" style="mix-blend-mode:multiply"/>
<path d="M82.9886 66.7428C84.8392 62.7178 85.0161 55.0169 82.8651 52.7231L91.3423 52.6484L90.9672 66.6725L82.9886 66.7428Z" fill="#FFDCC6" style="mix-blend-mode:multiply"/>
<path d="M84.9064 67.1079C86.9703 63.188 87.5604 55.5077 85.5356 53.1018L94.0046 53.4822L92.8772 67.466L84.9064 67.1079Z" fill="#FFDCC6" style="mix-blend-mode:multiply"/>
<path d="M80.528 55.1013C80.1039 54.74 79.4852 54.7533 79.0724 55.1248L78.9867 55.2104C78.6518 55.5817 78.2336 56.0636 77.8322 56.5749C77.3411 57.2005 76.9762 57.7617 76.7501 58.1348C76.5417 58.4791 76.5458 58.9117 76.795 59.2418C77.0082 59.5242 77.3439 59.9274 77.846 60.4295C78.2231 60.8066 78.572 61.1177 78.8624 61.3603L79.1317 61.5799C79.4972 61.8696 79.9939 61.8825 80.3733 61.6296L80.4472 61.5751C80.7913 61.3015 81.2587 60.9058 81.7351 60.4295C82.2459 59.9187 82.6037 59.4792 82.824 59.1831C83.04 58.8928 83.0808 58.5112 82.9117 58.1839C82.7264 57.8249 82.3942 57.268 81.8338 56.5728C81.3877 56.0194 80.9565 55.5423 80.6164 55.1842L80.528 55.1013Z" fill="url(#paint18_linear_118_2293)" stroke="#740015" stroke-width="0.357931"/>
<mask id="mask4_118_2293" style="mask-type:alpha" maskUnits="userSpaceOnUse" x="76" y="55" width="7" height="7">
<path d="M82.6802 59.0759C82.8574 58.8378 82.8892 58.5295 82.7531 58.2658C82.5732 57.9175 82.2473 57.3711 81.6946 56.6854C81.2519 56.1363 80.8239 55.6628 80.4862 55.3073C80.1087 54.9099 79.4871 54.9231 79.1199 55.3301C78.7866 55.6995 78.3709 56.1781 77.9727 56.6854C77.4869 57.3041 77.1265 57.8587 76.9033 58.2272C76.7297 58.5137 76.7355 58.8666 76.9374 59.1339C77.1454 59.4096 77.476 59.8064 77.9727 60.303C78.4698 60.8001 78.9167 61.1807 79.2431 61.4396C79.5666 61.696 80.0132 61.6917 80.3363 61.4349C80.6766 61.1642 81.1384 60.7734 81.6088 60.303C82.1128 59.799 82.4645 59.3658 82.6802 59.0759Z" fill="#D9D9D9"/>
</mask>
<g mask="url(#mask4_118_2293)">
<g filter="url(#filter4_d_118_2293)">
<path d="M82.8436 59.0179C83.0251 58.774 83.0577 58.4582 82.9182 58.1881C82.734 57.8312 82.4001 57.2715 81.8339 56.5691C81.3805 56.0066 80.942 55.5215 80.5961 55.1574C80.2094 54.7503 79.5726 54.7638 79.1965 55.1807C78.855 55.5591 78.4291 56.0494 78.0212 56.5691C77.5236 57.2029 77.1544 57.771 76.9257 58.1485C76.7479 58.442 76.7538 58.8034 76.9606 59.0774C77.1738 59.3597 77.5124 59.7662 78.0212 60.275C78.5304 60.7842 78.9883 61.1741 79.3227 61.4392C79.654 61.7019 80.1115 61.6976 80.4425 61.4344C80.7912 61.1572 81.2642 60.7568 81.746 60.275C82.2624 59.7586 82.6227 59.3149 82.8436 59.0179Z" fill="#D9D9D9"/>
<path d="M80.6981 55.0611C80.2541 54.5936 79.522 54.6096 79.092 55.086C78.7493 55.4658 78.3216 55.9593 77.9112 56.4822C77.4095 57.1213 77.0366 57.6941 76.8056 58.0753C76.6002 58.4142 76.6044 58.8389 76.8484 59.1622C77.0656 59.4499 77.4084 59.8616 77.9215 60.3748C78.4351 60.8883 78.8976 61.2814 79.2356 61.5494C79.5951 61.8343 80.0828 61.8468 80.4565 61.5977L80.5303 61.5445C80.8819 61.265 81.3588 60.8611 81.8451 60.3748C82.3667 59.8532 82.7316 59.4039 82.9562 59.1021C83.1682 58.8172 83.2085 58.4431 83.0432 58.1229C82.8546 57.7578 82.5157 57.1902 81.9439 56.4808C81.4877 55.915 81.046 55.4273 80.6981 55.0611Z" stroke="#1F1F1F" stroke-width="0.281219"/>
</g>
<path d="M80.6401 55.115C80.2283 54.6818 79.5503 54.6963 79.1507 55.1391C78.8086 55.5182 78.3817 56.0101 77.9726 56.5312C77.4733 57.1673 77.1029 57.7377 76.8733 58.1167C76.6834 58.4301 76.6882 58.819 76.9113 59.1145C77.1262 59.3992 77.4667 59.8081 77.9774 60.3188C78.4886 60.8299 78.9487 61.2215 79.2846 61.4879C79.5945 61.7333 80.0077 61.7599 80.3425 61.5749L80.4806 61.4824C80.8305 61.2042 81.3054 60.8025 81.7892 60.3188C82.3079 59.8001 82.6708 59.3535 82.8934 59.0545C83.0879 58.7927 83.1234 58.4521 82.9728 58.1602C82.7866 57.7997 82.4506 57.2362 81.8817 56.5306L81.5447 56.1231C81.2129 55.7312 80.9003 55.3888 80.6401 55.115Z" fill="url(#paint19_linear_118_2293)" stroke="#AE060C" stroke-width="0.123034"/>
<mask id="mask5_118_2293" style="mask-type:alpha" maskUnits="userSpaceOnUse" x="76" y="54" width="8" height="8">
<path d="M82.8436 59.0179C83.0251 58.774 83.0577 58.4582 82.9182 58.1881C82.734 57.8312 82.4001 57.2715 81.8339 56.5691C81.3805 56.0066 80.942 55.5215 80.5961 55.1574C80.2094 54.7503 79.5726 54.7638 79.1965 55.1807C78.855 55.5591 78.4291 56.0494 78.0212 56.5691C77.5236 57.2029 77.1544 57.771 76.9257 58.1485C76.7479 58.442 76.7538 58.8034 76.9606 59.0774C77.1738 59.3597 77.5124 59.7662 78.0212 60.275C78.5304 60.7842 78.9883 61.1741 79.3227 61.4392C79.654 61.7019 80.1115 61.6976 80.4425 61.4344C80.7912 61.1572 81.2642 60.7568 81.746 60.275C82.2624 59.7586 82.6227 59.3149 82.8436 59.0179Z" fill="#D9D9D9"/>
</mask>
<g mask="url(#mask5_118_2293)">
<rect x="76.4434" y="54.6154" width="3.32191" height="3.83162" fill="#FF6C88"/>
<rect x="79.7653" y="58.4469" width="3.32191" height="3.83162" fill="#CA134A"/>
<rect x="80.1847" y="54.6154" width="3.32191" height="3.83162" fill="#D51342"/>
<path d="M80.3781 54.2637H79.3938L79.7453 56.2849H80.0265L80.3781 54.2637Z" fill="url(#paint20_linear_118_2293)"/>
<path d="M80.3781 62.3486H79.3938L79.7453 60.3274H80.0265L80.3781 62.3486Z" fill="url(#paint21_linear_118_2293)"/>
<path d="M83.7527 57.9722L83.7527 58.9564L81.7314 58.6049L81.7314 58.3237L83.7527 57.9722Z" fill="url(#paint22_linear_118_2293)"/>
<path d="M76.1246 57.9722L76.1246 58.9564L78.1459 58.6049L78.1459 58.3237L76.1246 57.9722Z" fill="url(#paint23_linear_118_2293)"/>
<path d="M81.8457 58.2973C81.8457 58.2973 81.7554 57.985 81.1053 57.1786C80.6097 56.5638 80.2737 56.1312 80.0793 55.9421C80.0186 55.8831 79.7365 55.907 79.6838 55.9421C79.6311 55.9772 79.227 56.4511 78.6559 57.1786C78.0849 57.906 77.8998 58.3325 77.8998 58.3325L77.8605 58.6313C77.9744 58.7989 78.2164 59.1197 78.6559 59.5593C79.118 60.0213 79.5142 60.3304 79.7141 60.4768C79.8028 60.5417 80.0441 60.5031 80.0441 60.5031C80.0441 60.5031 80.4399 60.1681 81.0488 59.5593C81.4376 59.1705 81.6974 58.824 81.8281 58.6401C81.902 58.536 81.8457 58.2973 81.8457 58.2973Z" fill="url(#paint24_linear_118_2293)"/>
<path d="M81.8018 58.1974C81.7983 58.2439 81.7893 58.2885 81.7667 58.3204C81.636 58.5044 81.3762 58.8515 80.9874 59.2404C80.6701 59.5576 80.4101 59.8002 80.2345 59.9601C80.0713 60.1085 79.8303 60.2876 79.6524 60.1573C79.4525 60.0109 79.0565 59.702 78.5948 59.2404C78.3113 58.9569 78.1095 58.7225 77.9718 58.547C77.9231 58.485 77.8883 58.4153 77.8604 58.3429V58.631C77.9743 58.7986 78.2168 59.1201 78.6563 59.5597C79.1181 60.0214 79.5141 60.3303 79.714 60.4767C79.8015 60.5408 80.0379 60.504 80.044 60.5031C80.044 60.5031 80.4402 60.1684 81.0489 59.5597C81.4377 59.1709 81.6975 58.8237 81.8282 58.6398C81.9019 58.5356 81.8458 58.297 81.8458 58.297C81.8448 58.2936 81.8333 58.2625 81.8018 58.1974Z" fill="#EBA9B1" style="mix-blend-mode:overlay"/>
<path d="M79.6749 55.9334C79.7366 55.8734 80.0205 55.8945 80.0734 55.9295C80.0932 55.9426 80.161 56.0176 80.2687 56.1433C80.1304 56.0523 79.9543 55.9916 79.8634 56.0906C79.666 56.2827 79.3599 56.683 78.8556 57.3064C78.1939 58.1244 77.8777 58.5333 77.8771 58.613C77.877 58.6295 77.8838 58.6498 77.8917 58.6736C77.8905 58.6719 77.889 58.6704 77.8878 58.6687C77.815 58.5656 77.8719 58.3282 77.8732 58.323C77.8732 58.323 77.9665 58.007 78.629 57.1882C79.134 56.5642 79.4773 56.1258 79.6749 55.9334ZM80.4894 56.407C80.4856 56.4021 80.4816 56.398 80.4787 56.3933C80.4823 56.3978 80.4857 56.4025 80.4894 56.407Z" fill="url(#paint25_linear_118_2293)"/>
<ellipse cx="4.4763" cy="3.50826" rx="4.4763" ry="3.50826" transform="matrix(-1 0 0 1 84.3215 50.9242)" fill="#B9ABA0" style="mix-blend-mode:overlay"/>
<g filter="url(#filter5_i_118_2293)">
<path d="M76.9286 59.0179C76.7471 58.774 76.7145 58.4582 76.854 58.1881C77.0382 57.8312 77.3721 57.2715 77.9383 56.5691C78.3917 56.0066 78.8302 55.5215 79.1761 55.1574C79.5629 54.7503 80.1996 54.7638 80.5758 55.1807C80.9172 55.5591 81.3431 56.0494 81.751 56.5691C82.2486 57.2029 82.6178 57.771 82.8465 58.1485C83.0244 58.442 83.0184 58.8034 82.8116 59.0774C82.5985 59.3597 82.2598 59.7662 81.751 60.275C81.2418 60.7842 80.7839 61.1741 80.4495 61.4392C80.1182 61.7019 79.6607 61.6976 79.3298 61.4344C78.9811 61.1572 78.508 60.7568 78.0262 60.275C77.5098 59.7586 77.1496 59.3149 76.9286 59.0179Z" fill="#D9D9D9" fill-opacity="0.01"/>
</g>
</g>
</g>
<path d="M85.4284 54.7293C85.2771 59.0512 83.3598 63.0321 82.4672 63.0745C80.7108 62.9952 79.6198 56.4375 79.607 53.9264C79.5821 49.0259 85.5797 50.4073 85.4284 54.7293Z" fill="url(#paint26_linear_118_2293)" style="mix-blend-mode:lighten"/>
</g>
</g>
<ellipse cx="22.8703" cy="14.1938" rx="22.8703" ry="14.1938" transform="matrix(-1 0 0 1 102.715 34.6243)" fill="#AFAFAF" style="mix-blend-mode:overlay"/>
</g>
<path d="M117.148 66.25V56.5562H121.356C122.071 56.5562 122.676 56.6754 123.171 56.9137C123.666 57.1521 124.042 57.4958 124.298 57.945C124.555 58.3942 124.683 58.9396 124.683 59.5812C124.683 60.2137 124.555 60.7592 124.298 61.2175C124.042 61.6667 123.666 62.015 123.171 62.2625C122.676 62.5008 122.071 62.62 121.356 62.62H118.908V66.25H117.148ZM118.908 61.2312H121.081C121.704 61.2312 122.176 61.0937 122.497 60.8187C122.818 60.5346 122.978 60.1221 122.978 59.5812C122.978 59.0404 122.818 58.6325 122.497 58.3575C122.176 58.0825 121.704 57.945 121.081 57.945H118.908V61.2312ZM126.523 66.25V59.5262H128.201V61.1487H128.063C128.192 60.5987 128.444 60.1817 128.819 59.8975C129.195 59.6042 129.695 59.4346 130.318 59.3887L130.841 59.3475L130.951 60.805L129.961 60.9012C129.402 60.9562 128.98 61.1304 128.696 61.4237C128.412 61.7079 128.269 62.1112 128.269 62.6337V66.25H126.523ZM132.502 58.0825V56.405H134.427V58.0825H132.502ZM132.612 66.25V59.5262H134.331V66.25H132.612ZM136.601 66.25V65.1362L140.396 60.4062V60.8187H136.601V59.5262H141.936V60.64L138.1 65.4112V64.9575H142.088V66.25H136.601ZM147.218 66.3875C146.457 66.3875 145.801 66.2454 145.251 65.9612C144.701 65.6771 144.275 65.2737 143.973 64.7512C143.679 64.2287 143.533 63.61 143.533 62.895C143.533 62.1983 143.675 61.5887 143.959 61.0662C144.252 60.5437 144.651 60.1358 145.155 59.8425C145.669 59.54 146.251 59.3887 146.901 59.3887C147.543 59.3887 148.093 59.5262 148.551 59.8012C149.01 60.0762 149.363 60.4658 149.61 60.97C149.867 61.4742 149.995 62.0746 149.995 62.7712V63.28H144.921V62.29H148.785L148.565 62.4962C148.565 61.8729 148.428 61.3962 148.153 61.0662C147.878 60.7271 147.484 60.5575 146.97 60.5575C146.585 60.5575 146.255 60.6492 145.98 60.8325C145.714 61.0067 145.508 61.2587 145.361 61.5887C145.224 61.9096 145.155 62.2946 145.155 62.7437V62.84C145.155 63.3442 145.233 63.7612 145.389 64.0912C145.545 64.4212 145.779 64.6687 146.09 64.8337C146.402 64.9987 146.787 65.0812 147.245 65.0812C147.621 65.0812 147.997 65.0262 148.373 64.9162C148.749 64.7971 149.092 64.6137 149.404 64.3662L149.885 65.5212C149.564 65.7871 149.161 65.9979 148.675 66.1537C148.189 66.3096 147.704 66.3875 147.218 66.3875ZM156.636 66.25V56.5562H160.844C161.559 56.5562 162.164 56.6754 162.659 56.9137C163.154 57.1521 163.53 57.4958 163.786 57.945C164.043 58.3942 164.171 58.9396 164.171 59.5812C164.171 60.2137 164.043 60.7592 163.786 61.2175C163.53 61.6667 163.154 62.015 162.659 62.2625C162.164 62.5008 161.559 62.62 160.844 62.62H158.396V66.25H156.636ZM158.396 61.2312H160.569C161.192 61.2312 161.664 61.0937 161.985 60.8187C162.306 60.5346 162.466 60.1221 162.466 59.5812C162.466 59.0404 162.306 58.6325 161.985 58.3575C161.664 58.0825 161.192 57.945 160.569 57.945H158.396V61.2312ZM168.037 66.3875C167.551 66.3875 167.116 66.2958 166.731 66.1125C166.355 65.92 166.057 65.6633 165.837 65.3425C165.626 65.0217 165.521 64.6596 165.521 64.2562C165.521 63.7612 165.649 63.3717 165.906 63.0875C166.162 62.7942 166.58 62.5833 167.157 62.455C167.735 62.3267 168.509 62.2625 169.481 62.2625H170.168V63.2525H169.495C169.064 63.2525 168.702 63.2708 168.408 63.3075C168.115 63.335 167.877 63.3854 167.693 63.4587C167.519 63.5229 167.391 63.6146 167.308 63.7337C167.235 63.8529 167.198 63.9996 167.198 64.1737C167.198 64.4762 167.304 64.7237 167.515 64.9162C167.725 65.1087 168.019 65.205 168.395 65.205C168.697 65.205 168.963 65.1362 169.192 64.9987C169.43 64.8521 169.618 64.655 169.756 64.4075C169.893 64.16 169.962 63.8758 169.962 63.555V61.9737C169.962 61.5154 169.861 61.1854 169.66 60.9837C169.458 60.7821 169.119 60.6812 168.642 60.6812C168.266 60.6812 167.881 60.7408 167.487 60.86C167.093 60.97 166.694 61.1442 166.291 61.3825L165.796 60.2137C166.034 60.0487 166.314 59.9067 166.635 59.7875C166.965 59.6592 167.308 59.5629 167.666 59.4987C168.032 59.4254 168.376 59.3887 168.697 59.3887C169.357 59.3887 169.898 59.4896 170.32 59.6912C170.75 59.8929 171.071 60.2 171.282 60.6125C171.493 61.0158 171.598 61.5383 171.598 62.18V66.25H169.99V64.82H170.1C170.035 65.1408 169.907 65.4204 169.715 65.6587C169.531 65.8879 169.297 66.0667 169.013 66.195C168.729 66.3233 168.404 66.3875 168.037 66.3875ZM176.509 66.3875C176.133 66.3875 175.766 66.3554 175.409 66.2913C175.06 66.2271 174.739 66.14 174.446 66.03C174.153 65.9108 173.896 65.7642 173.676 65.59L174.116 64.4625C174.345 64.6092 174.593 64.7375 174.859 64.8475C175.124 64.9575 175.399 65.04 175.684 65.095C175.968 65.15 176.247 65.1775 176.522 65.1775C176.962 65.1775 177.288 65.1042 177.499 64.9575C177.719 64.8017 177.829 64.6 177.829 64.3525C177.829 64.1417 177.755 63.9812 177.609 63.8712C177.471 63.7521 177.26 63.665 176.976 63.61L175.601 63.3487C175.033 63.2387 174.597 63.0325 174.295 62.73C174.001 62.4183 173.855 62.0196 173.855 61.5337C173.855 61.0937 173.974 60.7133 174.212 60.3925C174.46 60.0717 174.799 59.8242 175.23 59.65C175.661 59.4758 176.156 59.3887 176.715 59.3887C177.036 59.3887 177.347 59.4208 177.65 59.485C177.952 59.54 178.236 59.6271 178.502 59.7462C178.777 59.8562 179.016 60.0029 179.217 60.1862L178.75 61.3137C178.576 61.1671 178.374 61.0433 178.145 60.9425C177.916 60.8325 177.677 60.75 177.43 60.695C177.191 60.6308 176.958 60.5987 176.729 60.5987C176.279 60.5987 175.945 60.6767 175.725 60.8325C175.514 60.9883 175.409 61.1946 175.409 61.4512C175.409 61.6437 175.473 61.8042 175.601 61.9325C175.729 62.0608 175.926 62.1479 176.192 62.1937L177.567 62.455C178.163 62.565 178.612 62.7667 178.915 63.06C179.226 63.3533 179.382 63.7475 179.382 64.2425C179.382 64.6917 179.263 65.0767 179.025 65.3975C178.786 65.7183 178.452 65.9658 178.021 66.14C177.59 66.305 177.086 66.3875 176.509 66.3875ZM183.927 66.3875C183.551 66.3875 183.184 66.3554 182.827 66.2913C182.479 66.2271 182.158 66.14 181.864 66.03C181.571 65.9108 181.314 65.7642 181.094 65.59L181.534 64.4625C181.764 64.6092 182.011 64.7375 182.277 64.8475C182.543 64.9575 182.818 65.04 183.102 65.095C183.386 65.15 183.666 65.1775 183.941 65.1775C184.381 65.1775 184.706 65.1042 184.917 64.9575C185.137 64.8017 185.247 64.6 185.247 64.3525C185.247 64.1417 185.174 63.9812 185.027 63.8712C184.889 63.7521 184.679 63.665 184.394 63.61L183.019 63.3487C182.451 63.2387 182.016 63.0325 181.713 62.73C181.42 62.4183 181.273 62.0196 181.273 61.5337C181.273 61.0937 181.392 60.7133 181.631 60.3925C181.878 60.0717 182.217 59.8242 182.648 59.65C183.079 59.4758 183.574 59.3887 184.133 59.3887C184.454 59.3887 184.766 59.4208 185.068 59.485C185.371 59.54 185.655 59.6271 185.921 59.7462C186.196 59.8562 186.434 60.0029 186.636 60.1862L186.168 61.3137C185.994 61.1671 185.792 61.0433 185.563 60.9425C185.334 60.8325 185.096 60.75 184.848 60.695C184.61 60.6308 184.376 60.5987 184.147 60.5987C183.698 60.5987 183.363 60.6767 183.143 60.8325C182.932 60.9883 182.827 61.1946 182.827 61.4512C182.827 61.6437 182.891 61.8042 183.019 61.9325C183.148 62.0608 183.345 62.1479 183.611 62.1937L184.986 62.455C185.581 62.565 186.031 62.7667 186.333 63.06C186.645 63.3533 186.801 63.7475 186.801 64.2425C186.801 64.6917 186.681 65.0767 186.443 65.3975C186.205 65.7183 185.87 65.9658 185.439 66.14C185.009 66.305 184.504 66.3875 183.927 66.3875Z" fill="#202224"/>
<mask id="mask6_118_2293" style="mask-type:alpha" maskUnits="userSpaceOnUse" x="33" y="34" width="37" height="55">
<path d="M34.171 43.6125C34.171 39.1321 37.8031 35.5 42.2835 35.5H53.557C62.1804 35.5 69.171 42.4906 69.171 51.114V72.386C69.171 81.0094 62.1804 88 53.557 88H42.2835C37.8031 88 34.171 84.3679 34.171 79.8875V43.6125Z" fill="white" stroke="url(#paint27_linear_118_2293)" stroke-opacity="0.3" stroke-width="1.62697"/>
</mask>
<g mask="url(#mask6_118_2293)">
<rect x="32.921" y="34.4904" width="17.5" height="54.5192" fill="#587ED7"/>
</g>
<defs>
<filter id="filter0_d_118_2293" x="0.792663" y="0.87165" width="277.71" height="130.21" filterUnits="userSpaceOnUse" color-interpolation-filters="sRGB">
<feFlood flood-opacity="0" result="BackgroundImageFix"/>
<feColorMatrix in="SourceAlpha" type="matrix" values="0 0 0 0 0 0 0 0 0 0 0 0 0 0 0 0 0 0 127 0" result="hardAlpha"/>
<feOffset dx="4.22686" dy="4.22686"/>
<feGaussianBlur stdDeviation="19.0209"/>
<feColorMatrix type="matrix" values="0 0 0 0 0 0 0 0 0 0 0 0 0 0 0 0 0 0 0.05 0"/>
<feBlend mode="normal" in2="BackgroundImageFix" result="effect1_dropShadow_118_2293"/>
<feBlend mode="normal" in="SourceGraphic" in2="effect1_dropShadow_118_2293" result="shape"/>
</filter>
<filter id="filter1_d_118_2293" x="57.1247" y="42.7773" width="46.0696" height="38.7334" filterUnits="userSpaceOnUse" color-interpolation-filters="sRGB">
<feFlood flood-opacity="0" result="BackgroundImageFix"/>
<feColorMatrix in="SourceAlpha" type="matrix" values="0 0 0 0 0 0 0 0 0 0 0 0 0 0 0 0 0 0 127 0" result="hardAlpha"/>
<feOffset dx="0.742188" dy="1.11328"/>
<feColorMatrix type="matrix" values="0 0 0 0 0 0 0 0 0 0 0 0 0 0 0 0 0 0 0.25 0"/>
<feBlend mode="normal" in2="BackgroundImageFix" result="effect1_dropShadow_118_2293"/>
<feBlend mode="normal" in="SourceGraphic" in2="effect1_dropShadow_118_2293" result="shape"/>
</filter>
<filter id="filter2_i_118_2293" x="67.779" y="47.7412" width="24.1211" height="26.0693" filterUnits="userSpaceOnUse" color-interpolation-filters="sRGB">
<feFlood flood-opacity="0" result="BackgroundImageFix"/>
<feBlend mode="normal" in="SourceGraphic" in2="BackgroundImageFix" result="shape"/>
<feColorMatrix in="SourceAlpha" type="matrix" values="0 0 0 0 0 0 0 0 0 0 0 0 0 0 0 0 0 0 127 0" result="hardAlpha"/>
<feOffset dy="2.31899"/>
<feComposite in2="hardAlpha" operator="arithmetic" k2="-1" k3="1"/>
<feColorMatrix type="matrix" values="0 0 0 0 0.0460938 0 0 0 0 0.462769 0 0 0 0 0.7375 0 0 0 1 0"/>
<feBlend mode="normal" in2="shape" result="effect1_innerShadow_118_2293"/>
</filter>
<filter id="filter3_d_118_2293" x="70.2465" y="52.4045" width="19.0433" height="14.6927" filterUnits="userSpaceOnUse" color-interpolation-filters="sRGB">
<feFlood flood-opacity="0" result="BackgroundImageFix"/>
<feColorMatrix in="SourceAlpha" type="matrix" values="0 0 0 0 0 0 0 0 0 0 0 0 0 0 0 0 0 0 127 0" result="hardAlpha"/>
<feOffset dy="0.906689"/>
<feComposite in2="hardAlpha" operator="out"/>
<feColorMatrix type="matrix" values="0 0 0 0 0 0 0 0 0 0.247059 0 0 0 0 0.384314 0 0 0 1 0"/>
<feBlend mode="normal" in2="BackgroundImageFix" result="effect1_dropShadow_118_2293"/>
<feBlend mode="normal" in="SourceGraphic" in2="effect1_dropShadow_118_2293" result="shape"/>
</filter>
<filter id="filter4_d_118_2293" x="76.5173" y="54.5786" width="6.90918" height="7.54758" filterUnits="userSpaceOnUse" color-interpolation-filters="sRGB">
<feFlood flood-opacity="0" result="BackgroundImageFix"/>
<feColorMatrix in="SourceAlpha" type="matrix" values="0 0 0 0 0 0 0 0 0 0 0 0 0 0 0 0 0 0 127 0" result="hardAlpha"/>
<feOffset dx="0.14061" dy="0.210915"/>
<feColorMatrix type="matrix" values="0 0 0 0 0 0 0 0 0 0 0 0 0 0 0 0 0 0 0.25 0"/>
<feBlend mode="normal" in2="BackgroundImageFix" result="effect1_dropShadow_118_2293"/>
<feBlend mode="normal" in="SourceGraphic" in2="effect1_dropShadow_118_2293" result="shape"/>
</filter>
<filter id="filter5_i_118_2293" x="76.7676" y="54.8599" width="6.20612" height="6.84447" filterUnits="userSpaceOnUse" color-interpolation-filters="sRGB">
<feFlood flood-opacity="0" result="BackgroundImageFix"/>
<feBlend mode="normal" in="SourceGraphic" in2="BackgroundImageFix" result="shape"/>
<feColorMatrix in="SourceAlpha" type="matrix" values="0 0 0 0 0 0 0 0 0 0 0 0 0 0 0 0 0 0 127 0" result="hardAlpha"/>
<feOffset dy="0.0703049"/>
<feGaussianBlur stdDeviation="0.263643"/>
<feComposite in2="hardAlpha" operator="arithmetic" k2="-1" k3="1"/>
<feColorMatrix type="matrix" values="0 0 0 0 1 0 0 0 0 0.4125 0 0 0 0 0.4125 0 0 0 1 0"/>
<feBlend mode="lighten" in2="shape" result="effect1_innerShadow_118_2293"/>
</filter>
<linearGradient id="paint0_linear_118_2293" x1="81.0253" y1="16.5373" x2="172.825" y2="127.865" gradientUnits="userSpaceOnUse">
<stop stop-color="#F1F1F1"/>
<stop offset="1" stop-color="#E1E1E1"/>
</linearGradient>
<linearGradient id="paint1_linear_118_2293" x1="93.6749" y1="54.3608" x2="93.1436" y2="77.9663" gradientUnits="userSpaceOnUse">
<stop stop-color="#098ECA"/>
<stop offset="1" stop-color="#006096"/>
</linearGradient>
<linearGradient id="paint2_linear_118_2293" x1="65.9019" y1="54.3608" x2="66.4332" y2="77.9663" gradientUnits="userSpaceOnUse">
<stop stop-color="#098ECA"/>
<stop offset="1" stop-color="#006096"/>
</linearGradient>
<linearGradient id="paint3_linear_118_2293" x1="65.9024" y1="54.3608" x2="66.4337" y2="77.9659" gradientUnits="userSpaceOnUse">
<stop stop-color="#098ECA"/>
<stop offset="1" stop-color="#006096"/>
</linearGradient>
<linearGradient id="paint4_linear_118_2293" x1="96.1176" y1="67.1429" x2="97.2668" y2="61.9927" gradientUnits="userSpaceOnUse">
<stop stop-color="#014879"/>
<stop offset="1" stop-color="#014879" stop-opacity="0"/>
</linearGradient>
<linearGradient id="paint5_linear_118_2293" x1="90.9401" y1="73.5469" x2="94.079" y2="70.3385" gradientUnits="userSpaceOnUse">
<stop stop-color="#014879"/>
<stop offset="1" stop-color="#014879" stop-opacity="0"/>
</linearGradient>
<linearGradient id="paint6_linear_118_2293" x1="85.8246" y1="76.3518" x2="89.7079" y2="74.101" gradientUnits="userSpaceOnUse">
<stop stop-color="#014879"/>
<stop offset="1" stop-color="#014879" stop-opacity="0"/>
</linearGradient>
<linearGradient id="paint7_linear_118_2293" x1="63.4676" y1="67.1429" x2="62.3184" y2="61.9927" gradientUnits="userSpaceOnUse">
<stop stop-color="#014879"/>
<stop offset="1" stop-color="#014879" stop-opacity="0"/>
</linearGradient>
<linearGradient id="paint8_linear_118_2293" x1="68.6452" y1="73.5469" x2="65.5063" y2="70.3385" gradientUnits="userSpaceOnUse">
<stop stop-color="#014879"/>
<stop offset="1" stop-color="#014879" stop-opacity="0"/>
</linearGradient>
<linearGradient id="paint9_linear_118_2293" x1="73.7607" y1="76.3518" x2="69.8773" y2="74.101" gradientUnits="userSpaceOnUse">
<stop stop-color="#014879"/>
<stop offset="1" stop-color="#014879" stop-opacity="0"/>
</linearGradient>
<linearGradient id="paint10_linear_118_2293" x1="79.5869" y1="44.855" x2="79.5869" y2="77.5215" gradientUnits="userSpaceOnUse">
<stop stop-color="#FFFF5A"/>
<stop offset="0.375" stop-color="#FFEE53"/>
<stop offset="1" stop-color="#FF9736"/>
</linearGradient>
<linearGradient id="paint11_linear_118_2293" x1="79.5869" y1="44.855" x2="79.5869" y2="77.5215" gradientUnits="userSpaceOnUse">
<stop stop-color="#FF8F12"/>
<stop offset="1" stop-color="#FF341C"/>
</linearGradient>
<linearGradient id="paint12_linear_118_2293" x1="79.5869" y1="44.855" x2="79.5869" y2="77.5215" gradientUnits="userSpaceOnUse">
<stop stop-color="#FFFF5A"/>
<stop offset="0.375" stop-color="#FFEE53"/>
<stop offset="1" stop-color="#FF9736"/>
</linearGradient>
<linearGradient id="paint13_linear_118_2293" x1="79.8395" y1="48.6694" x2="77.5461" y2="74.5246" gradientUnits="userSpaceOnUse">
<stop stop-color="#29D0ED"/>
<stop offset="1" stop-color="#055F9C"/>
</linearGradient>
<linearGradient id="paint14_linear_118_2293" x1="79.8395" y1="48.6689" x2="79.8395" y2="72.8828" gradientUnits="userSpaceOnUse">
<stop stop-color="#FF5A46"/>
<stop offset="1" stop-color="#FFF258"/>
</linearGradient>
<linearGradient id="paint15_linear_118_2293" x1="79.8395" y1="48.6689" x2="79.8395" y2="72.8828" gradientUnits="userSpaceOnUse">
<stop stop-color="#0C76BC"/>
<stop offset="1" stop-color="#003D60"/>
</linearGradient>
<linearGradient id="paint16_linear_118_2293" x1="70.7905" y1="60.7421" x2="88.2017" y2="60.9802" gradientUnits="userSpaceOnUse">
<stop stop-color="#FFC242"/>
<stop offset="0.432949" stop-color="#FFFD62"/>
<stop offset="0.706146" stop-color="#FFFA61"/>
<stop offset="1" stop-color="#FFC241"/>
</linearGradient>
<linearGradient id="paint17_linear_118_2293" x1="70.7905" y1="60.7421" x2="88.2017" y2="60.9802" gradientUnits="userSpaceOnUse">
<stop stop-color="#FFC242"/>
<stop offset="0.432949" stop-color="#FFFD62"/>
<stop offset="0.706146" stop-color="#FFFA61"/>
<stop offset="1" stop-color="#FFC241"/>
</linearGradient>
<linearGradient id="paint18_linear_118_2293" x1="81.673" y1="56.4839" x2="77.9133" y2="60.2436" gradientUnits="userSpaceOnUse">
<stop stop-color="#E41245"/>
<stop offset="1" stop-color="#D41342"/>
</linearGradient>
<linearGradient id="paint19_linear_118_2293" x1="81.8119" y1="56.3626" x2="77.9604" y2="60.2141" gradientUnits="userSpaceOnUse">
<stop stop-color="#E41245"/>
<stop offset="1" stop-color="#D41342"/>
</linearGradient>
<linearGradient id="paint20_linear_118_2293" x1="79.8859" y1="55.2831" x2="79.8859" y2="56.2849" gradientUnits="userSpaceOnUse">
<stop stop-color="#FF829A"/>
<stop offset="0.338542" stop-color="#FEA6B2"/>
<stop offset="0.65625" stop-color="#FFCED8"/>
</linearGradient>
<linearGradient id="paint21_linear_118_2293" x1="80.1232" y1="60.4416" x2="80.132" y2="62.1553" gradientUnits="userSpaceOnUse">
<stop offset="0.00520833" stop-color="#FF8383"/>
<stop offset="0.229167" stop-color="#F23C5C"/>
<stop offset="1" stop-color="#F23C5C" stop-opacity="0"/>
</linearGradient>
<linearGradient id="paint22_linear_118_2293" x1="83.7527" y1="58.4643" x2="81.7314" y2="58.4643" gradientUnits="userSpaceOnUse">
<stop stop-color="#F23C5C" stop-opacity="0"/>
<stop offset="0.890625" stop-color="#F74961"/>
</linearGradient>
<linearGradient id="paint23_linear_118_2293" x1="76.1246" y1="58.4643" x2="78.1459" y2="58.4643" gradientUnits="userSpaceOnUse">
<stop offset="0.5" stop-color="#FF92A7"/>
<stop offset="0.911458" stop-color="#FFCED8"/>
</linearGradient>
<linearGradient id="paint24_linear_118_2293" x1="79.3235" y1="56.5748" x2="80.7911" y2="59.8264" gradientUnits="userSpaceOnUse">
<stop stop-color="#F23C5C"/>
<stop offset="0.802083" stop-color="#FF616A"/>
<stop offset="1" stop-color="#FF8383"/>
</linearGradient>
<linearGradient id="paint25_linear_118_2293" x1="79.0744" y1="55.924" x2="78.368" y2="59.2837" gradientUnits="userSpaceOnUse">
<stop stop-color="#FFCED8"/>
<stop offset="1" stop-color="#FF92A7"/>
</linearGradient>
<linearGradient id="paint26_linear_118_2293" x1="83.0245" y1="55.1613" x2="80.8482" y2="58.6634" gradientUnits="userSpaceOnUse">
<stop stop-color="#FFECEC"/>
<stop offset="1" stop-color="#FFF3F3" stop-opacity="0"/>
</linearGradient>
<linearGradient id="paint27_linear_118_2293" x1="42.1518" y1="16.5373" x2="80.1327" y2="24.5979" gradientUnits="userSpaceOnUse">
<stop stop-color="#F1F1F1"/>
<stop offset="1" stop-color="#E1E1E1"/>
</linearGradient>
</defs>
</svg>
