<svg width="278" height="131" viewBox="0 0 278 131" fill="none" xmlns="http://www.w3.org/2000/svg">
<g filter="url(#filter0_d_118_1924)">
<rect x="35.421" y="35" width="198.75" height="52.5" rx="8.1125" fill="white"/>
<rect x="35.421" y="35" width="198.75" height="52.5" rx="8.1125" stroke="url(#paint0_linear_118_1924)" stroke-opacity="0.3" stroke-width="1.62697"/>
</g>
<g filter="url(#filter1_di_118_1924)">
<path d="M73.6213 42.1399C75.8073 40.9024 78.4874 40.9251 80.652 42.1994L91.8327 48.7814C93.9974 50.0557 95.3177 52.3881 95.2965 54.8999L95.1867 67.8736C95.1654 70.3855 93.8057 72.6951 91.6198 73.9326L80.3293 80.3244C78.1434 81.5619 75.4633 81.5392 73.2986 80.2649L62.1179 73.6829C59.9533 72.4086 58.6329 70.0762 58.6542 67.5644L58.764 54.5907C58.7852 52.0788 60.1449 49.7692 62.3309 48.5317L73.6213 42.1399Z" fill="url(#paint1_linear_118_1924)"/>
<path d="M73.2775 40.9745C75.7867 39.6624 78.8033 39.732 81.2546 41.1748L92.4356 47.757C94.9661 49.2467 96.5093 51.9734 96.4846 54.9097L96.3747 67.8839C96.3506 70.7285 94.8583 73.351 92.4418 74.8274L92.2053 74.967L80.9144 81.359C78.3592 82.8053 75.2264 82.7788 72.696 81.2894L61.515 74.7072C58.9844 73.2175 57.4412 70.4908 57.466 67.5545L57.5758 54.5804C57.6008 51.644 59.1899 48.9439 61.7453 47.4972L73.0361 41.1053L73.2775 40.9745Z" stroke="url(#paint2_linear_118_1924)" stroke-width="2.37701"/>
</g>
<path d="M73.6205 42.1399C75.8064 40.9024 78.4865 40.9251 80.6511 42.1994L91.8318 48.7814C93.9965 50.0557 95.3169 52.3881 95.2956 54.8999L95.1858 67.8736C95.1645 70.3855 93.8048 72.6951 91.6189 73.9326L80.3284 80.3244C78.1425 81.5619 75.4624 81.5392 73.2977 80.2649L62.1171 73.6829C59.9524 72.4086 58.632 70.0762 58.6533 67.5644L58.7631 54.5907C58.7843 52.0788 60.144 49.7692 62.33 48.5317L73.6205 42.1399Z" fill="url(#paint3_linear_118_1924)"/>
<path d="M73.3235 43.5526C75.6619 42.2301 78.5251 42.2417 80.8528 43.583L91.0237 49.4441C92.3256 50.1943 92.3409 52.0678 91.0514 52.8392L80.5716 59.1084C78.3379 60.4447 75.5418 60.4081 73.3438 59.014L63.2212 52.5936C61.9655 51.7972 62.0122 49.9495 63.3066 49.2175L73.3235 43.5526Z" fill="url(#paint4_linear_118_1924)"/>
<path d="M76.2332 66.4647C76.2544 63.8285 74.9066 61.37 72.6729 59.9699L63.1855 54.0232C61.9036 53.2197 60.2321 54.1024 60.1728 55.6142L59.7141 67.3132C59.6125 69.9038 60.9737 72.3321 63.2366 73.5973L73.2157 79.1766C74.5219 79.9069 76.133 78.9705 76.145 77.4741L76.2332 66.4647Z" fill="url(#paint5_linear_118_1924)"/>
<g filter="url(#filter2_i_118_1924)">
<ellipse cx="86.5622" cy="66.5867" rx="3.58578" ry="4.28887" transform="rotate(10.2543 86.5622 66.5867)" fill="#C4B295" style="mix-blend-mode:multiply"/>
</g>
<g filter="url(#filter3_i_118_1924)">
<path d="M72.9447 71.8526C74.4551 72.3219 75.2985 73.9271 74.8292 75.4374C74.3599 76.9476 72.7557 77.7915 71.2454 77.3222C69.7351 76.853 68.8915 75.2486 69.3605 73.7384C69.8298 72.228 71.4344 71.3834 72.9447 71.8526ZM69.0073 64.3658C70.5175 64.8351 71.3612 66.4394 70.8921 67.9497C70.4229 69.46 68.8183 70.3046 67.3079 69.8355C65.7976 69.3662 64.9532 67.7607 65.4225 66.2504C65.8918 64.7401 67.497 63.8966 69.0073 64.3658ZM65.1984 57.3178C66.7086 57.787 67.5531 59.3917 67.0841 60.902C66.6149 62.4123 65.0094 63.2567 63.499 62.7874C61.9889 62.318 61.1453 60.7128 61.6145 59.2026C62.0839 57.6926 63.6883 56.8489 65.1984 57.3178Z" fill="#C4B295" style="mix-blend-mode:multiply"/>
</g>
<g filter="url(#filter4_i_118_1924)">
<path d="M84.3231 49.972C86.5114 49.9905 88.2752 51.2181 88.2629 52.7134C88.2502 54.2089 86.4658 55.4063 84.2772 55.3878C82.0888 55.3691 80.3247 54.1418 80.3374 52.6463C80.3504 51.1511 82.1349 49.9536 84.3231 49.972ZM69.9531 46.5484C72.1415 46.567 73.9056 47.7646 73.8935 49.2235C73.8811 50.6825 72.0969 51.851 69.9084 51.8324C67.7198 51.8139 65.9556 50.6154 65.968 49.1564C65.9806 47.6975 67.7647 46.5299 69.9531 46.5484Z" fill="#C4B295" style="mix-blend-mode:multiply"/>
</g>
<path d="M92.2476 53.6445L80.0514 60.7874V63.1644L92.2077 55.993C92.4515 55.8492 92.7592 56.025 92.7592 56.308V71.941L94.7248 70.3411V55.0645C94.7248 53.7931 93.3446 53.002 92.2476 53.6445Z" fill="url(#paint6_radial_118_1924)"/>
<path d="M111.15 65.75V56.0562H115.358C116.073 56.0562 116.678 56.1754 117.173 56.4137C117.668 56.6521 118.044 56.9958 118.3 57.445C118.557 57.8942 118.685 58.4396 118.685 59.0812C118.685 59.7137 118.557 60.2592 118.3 60.7175C118.044 61.1667 117.668 61.515 117.173 61.7625C116.678 62.0008 116.073 62.12 115.358 62.12H112.91V65.75H111.15ZM112.91 60.7312H115.083C115.706 60.7312 116.178 60.5937 116.499 60.3187C116.82 60.0346 116.98 59.6221 116.98 59.0812C116.98 58.5404 116.82 58.1325 116.499 57.8575C116.178 57.5825 115.706 57.445 115.083 57.445H112.91V60.7312ZM123.932 65.75L119.615 56.0562H121.498L125.005 64.1825H124.413L127.906 56.0562H129.721L125.403 65.75H123.932ZM131.331 65.75V56.0562H135.539C136.254 56.0562 136.859 56.1754 137.354 56.4137C137.849 56.6521 138.225 56.9958 138.481 57.445C138.738 57.8942 138.866 58.4396 138.866 59.0812C138.866 59.7137 138.738 60.2592 138.481 60.7175C138.225 61.1667 137.849 61.515 137.354 61.7625C136.859 62.0008 136.254 62.12 135.539 62.12H133.091V65.75H131.331ZM133.091 60.7312H135.264C135.887 60.7312 136.359 60.5937 136.68 60.3187C137.001 60.0346 137.161 59.6221 137.161 59.0812C137.161 58.5404 137.001 58.1325 136.68 57.8575C136.359 57.5825 135.887 57.445 135.264 57.445H133.091V60.7312ZM148.496 65.8875C147.808 65.8875 147.213 65.7775 146.708 65.5575C146.204 65.3375 145.815 65.035 145.54 64.65C145.274 64.2558 145.141 63.7975 145.141 63.275C145.141 62.8625 145.219 62.4867 145.375 62.1475C145.531 61.7992 145.755 61.4829 146.048 61.1987C146.342 60.9054 146.695 60.6396 147.107 60.4012L147.575 60.1262L147.327 60.4975C146.924 60.0942 146.631 59.7137 146.447 59.3562C146.273 58.9896 146.186 58.6137 146.186 58.2287C146.186 57.7704 146.296 57.3671 146.516 57.0187C146.736 56.6704 147.048 56.4 147.451 56.2075C147.854 56.015 148.326 55.9187 148.867 55.9187C149.371 55.9187 149.802 56.0058 150.16 56.18C150.526 56.3542 150.811 56.6017 151.012 56.9225C151.214 57.2342 151.315 57.6054 151.315 58.0362C151.315 58.3846 151.246 58.7146 151.108 59.0262C150.971 59.3379 150.751 59.6358 150.448 59.92C150.146 60.2042 149.743 60.4837 149.238 60.7587L149.252 60.3462L151.59 62.835H151.218C151.438 62.4592 151.613 62.0192 151.741 61.515C151.869 61.0108 151.947 60.4837 151.975 59.9337H153.405C153.377 60.6854 153.258 61.3958 153.047 62.065C152.846 62.7342 152.566 63.3254 152.208 63.8387L152.195 63.4125L154.518 65.75H152.428L151.246 64.4987H151.645C151.241 64.9296 150.765 65.2687 150.215 65.5162C149.674 65.7638 149.101 65.8875 148.496 65.8875ZM148.592 64.5262C149.032 64.5262 149.422 64.4437 149.761 64.2787C150.109 64.1046 150.426 63.8479 150.71 63.5087L150.668 63.9487L147.836 61.02L148.551 61.0887L148.152 61.3225C147.841 61.5058 147.588 61.6892 147.396 61.8725C147.203 62.0467 147.061 62.2392 146.97 62.45C146.887 62.6517 146.846 62.8808 146.846 63.1375C146.846 63.5683 146.997 63.9075 147.3 64.155C147.602 64.4025 148.033 64.5262 148.592 64.5262ZM148.867 57.1425C148.537 57.1425 148.271 57.2387 148.07 57.4312C147.868 57.6146 147.767 57.8667 147.767 58.1875C147.767 58.3617 147.795 58.5267 147.85 58.6825C147.905 58.8292 148.001 58.9942 148.138 59.1775C148.276 59.3517 148.464 59.5671 148.702 59.8237L148.317 59.7962C148.702 59.5762 149.005 59.3792 149.225 59.205C149.454 59.0308 149.619 58.8567 149.72 58.6825C149.821 58.5083 149.871 58.3158 149.871 58.105C149.871 57.7933 149.779 57.555 149.596 57.39C149.413 57.225 149.17 57.1425 148.867 57.1425ZM160.508 65.75V56.0562H162.268V60.0987H167.259V56.0562H169.019V65.75H167.259V61.57H162.268V65.75H160.508ZM171.847 65.75V56.0562H176.055C177.118 56.0562 177.938 56.3129 178.516 56.8262C179.093 57.3304 179.382 58.0408 179.382 58.9575C179.382 59.5533 179.249 60.0667 178.983 60.4975C178.727 60.9283 178.351 61.2583 177.856 61.4875C177.361 61.7167 176.76 61.8312 176.055 61.8312L176.178 61.625H176.632C177.008 61.625 177.333 61.7167 177.608 61.9C177.892 62.0833 178.14 62.3721 178.351 62.7662L179.973 65.75H178.035L176.357 62.6562C176.247 62.4546 176.123 62.2987 175.986 62.1887C175.848 62.0696 175.692 61.9871 175.518 61.9412C175.344 61.8954 175.142 61.8725 174.913 61.8725H173.607V65.75H171.847ZM173.607 60.5662H175.752C176.385 60.5662 176.861 60.4379 177.182 60.1812C177.512 59.9154 177.677 59.5212 177.677 58.9987C177.677 58.4854 177.512 58.1004 177.182 57.8437C176.861 57.5779 176.385 57.445 175.752 57.445H173.607V60.5662Z" fill="#202224"/>
<mask id="mask0_118_1924" style="mask-type:alpha" maskUnits="userSpaceOnUse" x="33" y="34" width="38" height="55">
<path d="M34.5 43.1125C34.5 38.6321 38.1321 35 42.6125 35H53.886C62.5094 35 69.5 41.9906 69.5 50.614V71.886C69.5 80.5094 62.5094 87.5 53.886 87.5H42.6125C38.1321 87.5 34.5 83.8679 34.5 79.3875V43.1125Z" fill="white" stroke="url(#paint7_linear_118_1924)" stroke-opacity="0.3" stroke-width="1.62697"/>
</mask>
<g mask="url(#mask0_118_1924)">
<rect x="33.25" y="33.9904" width="17.5" height="54.5192" fill="#587ED7"/>
</g>
<defs>
<filter id="filter0_d_118_1924" x="0.792663" y="0.37165" width="276.46" height="130.21" filterUnits="userSpaceOnUse" color-interpolation-filters="sRGB">
<feFlood flood-opacity="0" result="BackgroundImageFix"/>
<feColorMatrix in="SourceAlpha" type="matrix" values="0 0 0 0 0 0 0 0 0 0 0 0 0 0 0 0 0 0 127 0" result="hardAlpha"/>
<feOffset dx="4.22686" dy="4.22686"/>
<feGaussianBlur stdDeviation="19.0209"/>
<feColorMatrix type="matrix" values="0 0 0 0 0 0 0 0 0 0 0 0 0 0 0 0 0 0 0.05 0"/>
<feBlend mode="normal" in2="BackgroundImageFix" result="effect1_dropShadow_118_1924"/>
<feBlend mode="normal" in="SourceGraphic" in2="effect1_dropShadow_118_1924" result="shape"/>
</filter>
<filter id="filter1_di_118_1924" x="56.2769" y="38.8505" width="41.3968" height="46.2261" filterUnits="userSpaceOnUse" color-interpolation-filters="sRGB">
<feFlood flood-opacity="0" result="BackgroundImageFix"/>
<feColorMatrix in="SourceAlpha" type="matrix" values="0 0 0 0 0 0 0 0 0 0 0 0 0 0 0 0 0 0 127 0" result="hardAlpha"/>
<feOffset dy="1.46277"/>
<feComposite in2="hardAlpha" operator="out"/>
<feColorMatrix type="matrix" values="0 0 0 0 0 0 0 0 0 0.137255 0 0 0 0 0.203922 0 0 0 1 0"/>
<feBlend mode="normal" in2="BackgroundImageFix" result="effect1_dropShadow_118_1924"/>
<feBlend mode="normal" in="SourceGraphic" in2="effect1_dropShadow_118_1924" result="shape"/>
<feColorMatrix in="SourceAlpha" type="matrix" values="0 0 0 0 0 0 0 0 0 0 0 0 0 0 0 0 0 0 127 0" result="hardAlpha"/>
<feOffset dy="2.57749"/>
<feComposite in2="hardAlpha" operator="arithmetic" k2="-1" k3="1"/>
<feColorMatrix type="matrix" values="0 0 0 0 1 0 0 0 0 1 0 0 0 0 1 0 0 0 0.55 0"/>
<feBlend mode="normal" in2="shape" result="effect2_innerShadow_118_1924"/>
</filter>
<filter id="filter2_i_118_1924" x="82.9513" y="62.3177" width="7.22183" height="8.53796" filterUnits="userSpaceOnUse" color-interpolation-filters="sRGB">
<feFlood flood-opacity="0" result="BackgroundImageFix"/>
<feBlend mode="normal" in="SourceGraphic" in2="BackgroundImageFix" result="shape"/>
<feColorMatrix in="SourceAlpha" type="matrix" values="0 0 0 0 0 0 0 0 0 0 0 0 0 0 0 0 0 0 127 0" result="hardAlpha"/>
<feOffset dy="0.562475"/>
<feComposite in2="hardAlpha" operator="arithmetic" k2="-1" k3="1"/>
<feColorMatrix type="matrix" values="0 0 0 0 0 0 0 0 0 0 0 0 0 0 0 0 0 0 0.15 0"/>
<feBlend mode="normal" in2="shape" result="effect1_innerShadow_118_1924"/>
</filter>
<filter id="filter3_i_118_1924" x="61.4848" y="57.1882" width="13.4742" height="20.2637" filterUnits="userSpaceOnUse" color-interpolation-filters="sRGB">
<feFlood flood-opacity="0" result="BackgroundImageFix"/>
<feBlend mode="normal" in="SourceGraphic" in2="BackgroundImageFix" result="shape"/>
<feColorMatrix in="SourceAlpha" type="matrix" values="0 0 0 0 0 0 0 0 0 0 0 0 0 0 0 0 0 0 127 0" result="hardAlpha"/>
<feOffset dy="0.562475"/>
<feComposite in2="hardAlpha" operator="arithmetic" k2="-1" k3="1"/>
<feColorMatrix type="matrix" values="0 0 0 0 0 0 0 0 0 0 0 0 0 0 0 0 0 0 0.15 0"/>
<feBlend mode="normal" in2="shape" result="effect1_innerShadow_118_1924"/>
</filter>
<filter id="filter4_i_118_1924" x="65.9679" y="46.5482" width="22.295" height="8.83972" filterUnits="userSpaceOnUse" color-interpolation-filters="sRGB">
<feFlood flood-opacity="0" result="BackgroundImageFix"/>
<feBlend mode="normal" in="SourceGraphic" in2="BackgroundImageFix" result="shape"/>
<feColorMatrix in="SourceAlpha" type="matrix" values="0 0 0 0 0 0 0 0 0 0 0 0 0 0 0 0 0 0 127 0" result="hardAlpha"/>
<feOffset dy="0.562475"/>
<feComposite in2="hardAlpha" operator="arithmetic" k2="-1" k3="1"/>
<feColorMatrix type="matrix" values="0 0 0 0 0 0 0 0 0 0 0 0 0 0 0 0 0 0 0.15 0"/>
<feBlend mode="normal" in2="shape" result="effect1_innerShadow_118_1924"/>
</filter>
<linearGradient id="paint0_linear_118_1924" x1="80.7403" y1="16.0373" x2="172.648" y2="126.799" gradientUnits="userSpaceOnUse">
<stop stop-color="#F1F1F1"/>
<stop offset="1" stop-color="#E1E1E1"/>
</linearGradient>
<linearGradient id="paint1_linear_118_1924" x1="77.1539" y1="40.1401" x2="78.8315" y2="94.1675" gradientUnits="userSpaceOnUse">
<stop offset="0.149706" stop-color="#FFB1F3"/>
<stop offset="1" stop-color="#A101ED"/>
</linearGradient>
<linearGradient id="paint2_linear_118_1924" x1="77.1539" y1="40.1401" x2="76.7968" y2="82.3242" gradientUnits="userSpaceOnUse">
<stop offset="0.270331" stop-color="#017772"/>
<stop offset="0.851711" stop-color="#014E5F"/>
</linearGradient>
<linearGradient id="paint3_linear_118_1924" x1="80.9151" y1="47.2347" x2="58.8441" y2="77.4423" gradientUnits="userSpaceOnUse">
<stop stop-color="#F1FBE0"/>
<stop offset="0.177083" stop-color="#C6E314"/>
<stop offset="0.375971" stop-color="#DFE314"/>
<stop offset="1" stop-color="#A6861F"/>
</linearGradient>
<linearGradient id="paint4_linear_118_1924" x1="77.7468" y1="62.1885" x2="74.7431" y2="43.3926" gradientUnits="userSpaceOnUse">
<stop stop-color="#96E415"/>
<stop offset="1" stop-color="#F1FBE0"/>
</linearGradient>
<linearGradient id="paint5_linear_118_1924" x1="79.1472" y1="62.0247" x2="72.1009" y2="79.2706" gradientUnits="userSpaceOnUse">
<stop stop-color="#CABA39"/>
<stop offset="0.978825" stop-color="#DCD00F"/>
</linearGradient>
<radialGradient id="paint6_radial_118_1924" cx="0" cy="0" r="1" gradientUnits="userSpaceOnUse" gradientTransform="translate(93.9477 53.3821) rotate(120.329) scale(15.5702 11.9932)">
<stop stop-color="#F1FBE0"/>
<stop offset="1" stop-color="#F1FBE0" stop-opacity="0"/>
</radialGradient>
<linearGradient id="paint7_linear_118_1924" x1="42.4808" y1="16.0373" x2="80.4617" y2="24.0979" gradientUnits="userSpaceOnUse">
<stop stop-color="#F1F1F1"/>
<stop offset="1" stop-color="#E1E1E1"/>
</linearGradient>
</defs>
</svg>
