<svg width="279" height="131" viewBox="0 0 279 131" fill="none" xmlns="http://www.w3.org/2000/svg">
<g filter="url(#filter0_d_118_2333)">
<rect x="35.421" y="35" width="200" height="52.5" rx="8.1125" fill="white"/>
<rect x="35.421" y="35" width="200" height="52.5" rx="8.1125" stroke="url(#paint0_linear_118_2333)" stroke-opacity="0.3" stroke-width="1.62697"/>
</g>
<g filter="url(#filter1_d_118_2333)">
<mask id="path-3-outside-1_118_2333" maskUnits="userSpaceOnUse" x="57.8598" y="39.3886" width="38.9006" height="42.9922" fill="black">
<rect fill="white" x="57.8598" y="39.3886" width="38.9006" height="42.9922"/>
<path d="M72.9896 46.7554C73.9612 45.6562 77.2003 43.7969 81.3817 44.7913C81.4966 44.8186 81.5543 45.1456 81.2704 45.6403C81.2073 45.7503 81.2894 45.9018 81.416 45.9077C82.2953 45.9489 83.2392 46.4046 83.2824 46.9932C83.3182 47.4843 82.3225 50.1662 81.9346 52.1414C83.7577 50.8822 85.6989 50.3992 86.6972 50.2235C87.1182 50.1495 87.5231 50.3539 87.7614 50.7212C88.2673 51.5011 87.8119 52.6185 86.937 52.8761C86.2893 53.0668 85.5467 53.3255 84.8187 53.6601C87.08 54.1875 88.8064 55.4004 89.6213 56.0632C89.9529 56.3329 90.0635 56.7719 89.942 57.1924C89.6835 58.0854 88.5414 58.4737 87.7739 57.9809C86.8499 57.3876 85.6278 56.7176 84.383 56.3651C86.9554 58.1692 90.2931 61.2926 92.4449 66.8777C93.7441 70.2498 91.7163 73.8739 88.3281 75.1305C82.2817 77.3726 78.4013 77.9632 73.0972 77.4913C69.0429 77.1306 65.361 74.235 65.2659 70.1657C65.1779 66.3969 66.3828 61.9527 70.8055 57.4157C70.8168 57.3701 70.8307 57.3253 70.8441 57.2813C70.7915 57.2027 70.7427 57.1249 70.6992 57.0464C70.2867 56.3029 71.2403 55.1711 71.3872 55.0039C71.3632 54.9691 71.336 54.9355 71.3059 54.9047C70.5798 54.1622 69.6677 52.8687 67.7153 52.1956C65.5944 51.4646 68.1173 48.6517 69.8449 47.8238C71.5725 46.9962 72.5427 47.2612 72.9896 46.7554Z"/>
</mask>
<path d="M72.9896 46.7554C73.9612 45.6562 77.2003 43.7969 81.3817 44.7913C81.4966 44.8186 81.5543 45.1456 81.2704 45.6403C81.2073 45.7503 81.2894 45.9018 81.416 45.9077C82.2953 45.9489 83.2392 46.4046 83.2824 46.9932C83.3182 47.4843 82.3225 50.1662 81.9346 52.1414C83.7577 50.8822 85.6989 50.3992 86.6972 50.2235C87.1182 50.1495 87.5231 50.3539 87.7614 50.7212C88.2673 51.5011 87.8119 52.6185 86.937 52.8761C86.2893 53.0668 85.5467 53.3255 84.8187 53.6601C87.08 54.1875 88.8064 55.4004 89.6213 56.0632C89.9529 56.3329 90.0635 56.7719 89.942 57.1924C89.6835 58.0854 88.5414 58.4737 87.7739 57.9809C86.8499 57.3876 85.6278 56.7176 84.383 56.3651C86.9554 58.1692 90.2931 61.2926 92.4449 66.8777C93.7441 70.2498 91.7163 73.8739 88.3281 75.1305C82.2817 77.3726 78.4013 77.9632 73.0972 77.4913C69.0429 77.1306 65.361 74.235 65.2659 70.1657C65.1779 66.3969 66.3828 61.9527 70.8055 57.4157C70.8168 57.3701 70.8307 57.3253 70.8441 57.2813C70.7915 57.2027 70.7427 57.1249 70.6992 57.0464C70.2867 56.3029 71.2403 55.1711 71.3872 55.0039C71.3632 54.9691 71.336 54.9355 71.3059 54.9047C70.5798 54.1622 69.6677 52.8687 67.7153 52.1956C65.5944 51.4646 68.1173 48.6517 69.8449 47.8238C71.5725 46.9962 72.5427 47.2612 72.9896 46.7554Z" fill="#67F4FF" fill-opacity="0.5" shape-rendering="crispEdges"/>
<path d="M72.9896 46.7554L71.3706 45.3244L71.3706 45.3245L72.9896 46.7554ZM81.3817 44.7913L81.8816 42.6891L81.8816 42.6891L81.3817 44.7913ZM81.2704 45.6403L83.1444 46.7159L83.1446 46.7157L81.2704 45.6403ZM81.416 45.9077L81.5169 43.7493L81.5167 43.7493L81.416 45.9077ZM83.2824 46.9932L85.4375 46.8363L85.4374 46.835L83.2824 46.9932ZM81.9346 52.1414L79.8143 51.725L78.7902 56.9394L83.1626 53.9193L81.9346 52.1414ZM86.6972 50.2235L86.3232 48.0953L86.3226 48.0954L86.6972 50.2235ZM87.7614 50.7212L89.5742 49.5453L89.5741 49.545L87.7614 50.7212ZM86.937 52.8761L86.3267 50.8033L86.3267 50.8033L86.937 52.8761ZM84.8187 53.6601L83.9163 51.6967L78.184 54.3314L84.3279 55.7644L84.8187 53.6601ZM89.6213 56.0632L90.9848 54.387L90.9848 54.3869L89.6213 56.0632ZM89.942 57.1924L92.0176 57.793L92.0178 57.7923L89.942 57.1924ZM87.7739 57.9809L88.9414 56.1626L88.9414 56.1626L87.7739 57.9809ZM84.383 56.3651L84.9718 54.2861L83.1423 58.1342L84.383 56.3651ZM92.4449 66.8777L94.4612 66.1009L94.4612 66.1009L92.4449 66.8777ZM88.3281 75.1305L89.0794 77.1565L89.0795 77.1564L88.3281 75.1305ZM73.0972 77.4913L72.9058 79.6436L72.9058 79.6436L73.0972 77.4913ZM65.2659 70.1657L63.1057 70.2162L63.1057 70.2162L65.2659 70.1657ZM70.8055 57.4157L72.3528 58.924L72.7617 58.5045L72.9027 57.936L70.8055 57.4157ZM70.8441 57.2813L72.9111 57.9111L73.2098 56.9307L72.6396 56.0791L70.8441 57.2813ZM70.6992 57.0464L68.8097 58.0947L68.8097 58.0948L70.6992 57.0464ZM71.3872 55.0039L73.0109 56.4295L74.122 55.1639L73.1661 53.7774L71.3872 55.0039ZM71.3059 54.9047L69.7611 56.4155L69.7612 56.4156L71.3059 54.9047ZM67.7153 52.1956L68.4195 50.1528L68.4194 50.1528L67.7153 52.1956ZM69.8449 47.8238L68.9113 45.8752L68.9111 45.8752L69.8449 47.8238ZM72.9896 46.7554L74.6087 48.1865C75.0763 47.6574 77.5116 46.092 80.8818 46.8934L81.3817 44.7913L81.8816 42.6891C76.889 41.5018 72.8461 43.6551 71.3706 45.3244L72.9896 46.7554ZM81.3817 44.7913L80.8818 46.8934C79.9552 46.6731 79.5676 45.967 79.4504 45.6781C79.3159 45.3466 79.3111 45.073 79.3171 44.9422C79.3299 44.6595 79.4157 44.5311 79.3963 44.5648L81.2704 45.6403L83.1446 46.7157C83.4091 46.2548 83.6079 45.7155 83.6342 45.1388C83.6468 44.861 83.6237 44.4696 83.455 44.0536C83.3036 43.6803 82.8656 42.9231 81.8816 42.6891L81.3817 44.7913ZM81.2704 45.6403L79.3964 44.5646C78.9305 45.3764 79.0496 46.2484 79.3733 46.8444C79.6974 47.441 80.3695 48.022 81.3152 48.0662L81.416 45.9077L81.5167 43.7493C82.3359 43.7876 82.9037 44.2898 83.1708 44.7817C83.4376 45.2729 83.5473 46.0141 83.1444 46.7159L81.2704 45.6403ZM81.416 45.9077L81.315 48.0662C81.371 48.0688 81.4392 48.079 81.507 48.0974C81.5765 48.1162 81.6162 48.1356 81.6238 48.1398C81.6397 48.1486 81.5619 48.1111 81.4569 47.9888C81.3469 47.8607 81.1587 47.5776 81.1274 47.1513L83.2824 46.9932L85.4374 46.835C85.3333 45.4167 84.2484 44.6504 83.7017 44.3506C83.038 43.9866 82.2569 43.7839 81.5169 43.7493L81.416 45.9077ZM83.2824 46.9932L81.1273 47.1501C81.1087 46.8947 81.154 46.7384 81.1309 46.8552C81.1201 46.9101 81.0968 47.0094 81.0546 47.1665C80.9702 47.4808 80.8479 47.8881 80.6973 48.3912C80.411 49.3479 80.0322 50.6157 79.8143 51.725L81.9346 52.1414L84.0549 52.5578C84.2249 51.6919 84.5379 50.6311 84.8374 49.6303C84.9798 49.1547 85.1239 48.6759 85.2283 48.2875C85.2805 48.0932 85.3321 47.8871 85.3704 47.6936C85.3964 47.5619 85.465 47.2144 85.4375 46.8363L83.2824 46.9932ZM81.9346 52.1414L83.1626 53.9193C84.631 52.9051 86.2342 52.499 87.0717 52.3516L86.6972 50.2235L86.3226 48.0954C85.1637 48.2994 82.8844 48.8592 80.7066 50.3635L81.9346 52.1414ZM86.6972 50.2235L87.0711 52.3517C86.5219 52.4482 86.1146 52.1529 85.9488 51.8973L87.7614 50.7212L89.5741 49.545C88.9317 48.555 87.7144 47.8509 86.3232 48.0953L86.6972 50.2235ZM87.7614 50.7212L85.9486 51.8971C85.7652 51.6144 85.8022 51.3416 85.8547 51.2075C85.9041 51.0811 86.0387 50.8881 86.3267 50.8033L86.937 52.8761L87.5473 54.9489C89.7236 54.3082 90.9143 51.6112 89.5742 49.5453L87.7614 50.7212ZM86.937 52.8761L86.3267 50.8033C85.6059 51.0155 84.7613 51.3084 83.9163 51.6967L84.8187 53.6601L85.7211 55.6234C86.3321 55.3426 86.9727 55.1181 87.5473 54.9489L86.937 52.8761ZM84.8187 53.6601L84.3279 55.7644C86.1417 56.1874 87.5711 57.1809 88.2578 57.7394L89.6213 56.0632L90.9848 54.3869C90.0417 53.6198 88.0182 52.1876 85.3095 51.5558L84.8187 53.6601ZM89.6213 56.0632L88.2577 57.7394C87.8258 57.388 87.7813 56.8861 87.8661 56.5925L89.942 57.1924L92.0178 57.7923C92.3457 56.6577 92.08 55.2779 90.9848 54.387L89.6213 56.0632ZM89.942 57.1924L87.8663 56.5918C87.9597 56.2691 88.1893 56.1186 88.3251 56.0704C88.4533 56.0248 88.6881 56 88.9414 56.1626L87.7739 57.9809L86.6064 59.7991C88.5183 61.0267 91.334 60.1553 92.0176 57.793L89.942 57.1924ZM87.7739 57.9809L88.9414 56.1626C87.9393 55.5192 86.5112 54.7221 84.9718 54.2861L84.383 56.3651L83.7942 58.4441C84.7443 58.7132 85.7606 59.256 86.6064 59.7991L87.7739 57.9809ZM84.383 56.3651L83.1423 58.1342C85.4487 59.7517 88.4647 62.5572 90.4286 67.6545L92.4449 66.8777L94.4612 66.1009C92.1215 60.0281 88.4621 56.5866 85.6236 54.596L84.383 56.3651ZM92.4449 66.8777L90.4286 67.6545C91.2182 69.704 90.047 72.1884 87.5768 73.1045L88.3281 75.1305L89.0795 77.1564C93.3856 75.5594 96.2699 70.7956 94.4612 66.1009L92.4449 66.8777ZM88.3281 75.1305L87.5769 73.1045C81.7734 75.2565 78.2168 75.7774 73.2887 75.339L73.0972 77.4913L72.9058 79.6436C78.5859 80.1489 82.7899 79.4887 89.0794 77.1565L88.3281 75.1305ZM73.0972 77.4913L73.2887 75.339C69.9578 75.0427 67.4876 72.7481 67.4261 70.1153L65.2659 70.1657L63.1057 70.2162C63.2344 75.7218 68.128 79.2185 72.9058 79.6436L73.0972 77.4913ZM65.2659 70.1657L67.4261 70.1153C67.3516 66.9247 68.3375 63.0431 72.3528 58.924L70.8055 57.4157L69.2582 55.9074C64.4282 60.8624 63.0042 65.8691 63.1057 70.2162L65.2659 70.1657ZM70.8055 57.4157L72.9027 57.936C72.9006 57.9445 72.899 57.9506 72.8981 57.9536C72.8973 57.9567 72.897 57.9575 72.8977 57.9552C72.8984 57.9528 72.8997 57.9486 72.902 57.941C72.9031 57.9373 72.9044 57.9331 72.9059 57.928C72.9072 57.9239 72.9094 57.9166 72.9111 57.9111L70.8441 57.2813L68.7771 56.6516C68.7695 56.6767 68.7363 56.7826 68.7083 56.8954L70.8055 57.4157ZM70.8441 57.2813L72.6396 56.0791C72.6096 56.0344 72.5949 56.0095 72.5886 55.9981L70.6992 57.0464L68.8097 58.0948C68.8905 58.2404 68.9733 58.371 69.0486 58.4835L70.8441 57.2813ZM70.6992 57.0464L72.5887 55.9982C72.7849 56.3518 72.7637 56.6644 72.7463 56.7743C72.7311 56.8709 72.7105 56.8832 72.7527 56.8016C72.7888 56.7319 72.842 56.6488 72.902 56.567C72.9594 56.4888 73.0047 56.4366 73.0109 56.4295L71.3872 55.0039L69.7634 53.5782C69.6484 53.7092 69.2389 54.1884 68.9141 54.8164C68.6736 55.2815 68.0256 56.6814 68.8097 58.0947L70.6992 57.0464ZM71.3872 55.0039L73.1661 53.7774C73.079 53.651 72.9746 53.5206 72.8507 53.3938L71.3059 54.9047L69.7612 56.4156C69.6974 56.3504 69.6474 56.2871 69.6082 56.2303L71.3872 55.0039ZM71.3059 54.9047L72.8508 53.394C72.3395 52.8711 70.9866 51.0378 68.4195 50.1528L67.7153 52.1956L67.011 54.2384C68.3488 54.6996 68.8201 55.4533 69.7611 56.4155L71.3059 54.9047ZM67.7153 52.1956L68.4194 50.1528C68.4119 50.1502 68.5727 50.2038 68.7494 50.4047C68.9434 50.6252 69.0409 50.8923 69.0621 51.1235C69.0937 51.4688 68.9498 51.5307 69.1506 51.2205C69.3084 50.9768 69.5748 50.6718 69.91 50.3777C70.2471 50.082 70.5659 49.8744 70.7787 49.7724L69.8449 47.8238L68.9111 45.8752C67.6921 46.4594 66.3234 47.6358 65.5232 48.8715C65.1425 49.4595 64.6575 50.4134 64.7585 51.5175C64.8144 52.1282 65.0494 52.7415 65.5046 53.259C65.9425 53.7568 66.4884 54.0583 67.0112 54.2384L67.7153 52.1956ZM69.8449 47.8238L70.7785 49.7725C71.3963 49.4766 71.8602 49.3778 72.3116 49.2896C72.504 49.2521 72.8849 49.1842 73.2251 49.0728C73.6169 48.9445 74.153 48.702 74.6087 48.1864L72.9896 46.7554L71.3706 45.3245C71.6029 45.0617 71.85 44.9757 71.8802 44.9658C71.8896 44.9628 71.8705 44.9695 71.7945 44.9861C71.7146 45.0035 71.6282 45.0199 71.4835 45.0482C70.9061 45.1609 70.0212 45.3434 68.9113 45.8752L69.8449 47.8238Z" fill="url(#paint1_linear_118_2333)" mask="url(#path-3-outside-1_118_2333)"/>
</g>
<path d="M79.227 59.5139L77.7423 57.225C77.7423 57.225 79.0144 54.2856 81.6807 52.3222C83.5748 50.9275 85.6526 50.4081 86.6973 50.2242C87.1184 50.15 87.523 50.3545 87.7614 50.7219V50.7219C88.2673 51.5018 87.8126 52.6186 86.9377 52.8762C85.7745 53.2187 84.3019 53.7743 83.1655 54.6111C80.9536 56.2399 79.227 59.5139 79.227 59.5139Z" fill="#723D31"/>
<mask id="mask0_118_2333" style="mask-type:alpha" maskUnits="userSpaceOnUse" x="77" y="50" width="11" height="10">
<path d="M79.227 59.5139L77.7423 57.225C77.7423 57.225 79.0144 54.2856 81.6807 52.3222C83.5748 50.9275 85.6526 50.4081 86.6973 50.2242C87.1184 50.15 87.523 50.3545 87.7614 50.7219V50.7219C88.2673 51.5018 87.8126 52.6186 86.9377 52.8762C85.7745 53.2187 84.3019 53.7743 83.1655 54.6111C80.9536 56.2399 79.227 59.5139 79.227 59.5139Z" fill="#522920"/>
</mask>
<g mask="url(#mask0_118_2333)">
<path d="M84.2867 51.1499C84.4346 50.0411 85.9043 49.4551 85.9043 49.4551L88.2798 48.0424C88.7959 49.1006 89.6447 51.4125 88.401 51.8332C86.8462 52.359 84.1892 51.8802 84.2867 51.1499Z" fill="#A15443"/>
</g>
<path d="M77.7088 56.4968L78.4672 53.8761C78.4672 53.8761 81.522 52.9136 84.7517 53.6439C87.046 54.1628 88.7988 55.3934 89.6217 56.0628C89.9534 56.3327 90.0637 56.7724 89.942 57.193V57.193C89.6836 58.086 88.5418 58.4734 87.7743 57.9806C86.7539 57.3254 85.3699 56.576 83.9933 56.2647C81.3142 55.6588 77.7088 56.4968 77.7088 56.4968Z" fill="#A15443"/>
<mask id="mask1_118_2333" style="mask-type:alpha" maskUnits="userSpaceOnUse" x="77" y="53" width="13" height="6">
<path d="M77.7088 56.4968L78.4672 53.8761C78.4672 53.8761 81.522 52.9136 84.7517 53.6439C87.046 54.1628 88.7988 55.3934 89.6217 56.0628C89.9534 56.3327 90.0637 56.7724 89.942 57.193V57.193C89.6836 58.086 88.5418 58.4734 87.7743 57.9806C86.7539 57.3254 85.3699 56.576 83.9933 56.2647C81.3142 55.6588 77.7088 56.4968 77.7088 56.4968Z" fill="#A15443"/>
</mask>
<g mask="url(#mask1_118_2333)">
<path d="M84.9331 54.814C84.8718 55.3326 85.5894 56.77 86.1579 57.1841L84.65 57.1041L75.4271 55.3834L83.5883 50.8576C85.3796 52.3093 88.6891 55.1024 87.5976 54.6601C86.2332 54.1073 85.0097 54.1657 84.9331 54.814Z" fill="#723D31"/>
</g>
<path d="M70.8057 57.4151C66.3826 61.9524 65.1776 66.397 65.2656 70.166C65.3607 74.2352 69.0425 77.131 73.0968 77.4917C78.4011 77.9636 82.281 77.3723 88.3276 75.1301C91.7159 73.8737 93.7444 70.2502 92.4452 66.878C88.6414 57.0045 81.1309 54.8238 80.6946 54.026C80.1816 53.0881 78.2111 53.4593 78.8787 51.9791C79.5463 50.4989 79.2179 50.9347 76.4719 50.1713C74.3937 49.5935 73.8944 49.7511 73.8529 52.8334C72.6866 52.2115 70.0325 49.8002 70.8676 53.3407C74.6649 54.8821 71.3721 55.132 70.8057 57.4151Z" fill="#FF902F"/>
<mask id="mask2_118_2333" style="mask-type:alpha" maskUnits="userSpaceOnUse" x="65" y="49" width="28" height="29">
<path d="M70.8057 57.4151C66.3826 61.9524 65.1776 66.397 65.2656 70.166C65.3607 74.2352 69.0425 77.131 73.0968 77.4917C78.4011 77.9636 82.281 77.3723 88.3276 75.1301C91.7159 73.8737 93.7444 70.2502 92.4452 66.878C88.6414 57.0045 81.1309 54.8238 80.6946 54.026C80.1816 53.0881 78.2111 53.4593 78.8787 51.9791C79.5463 50.4989 79.2179 50.9347 76.4719 50.1713C74.3937 49.5935 73.8944 49.7511 73.8529 52.8334C72.6866 52.2115 70.0325 49.8002 70.8676 53.3407C74.6649 54.8821 71.3721 55.132 70.8057 57.4151Z" fill="#FF902F"/>
</mask>
<g mask="url(#mask2_118_2333)">
<path d="M78.0709 74.2385C82.6766 74.0773 87.3445 71.9659 89.6047 68.1156C91.8648 64.2653 86.6568 58.0358 85.7438 56.3921C88.3459 55.9498 93.0199 62.5043 94.3802 66.4068C96.0805 71.2849 89.747 75.7295 83.2329 77.9466C76.7187 80.1638 62.8552 77.3529 62.5479 71.817C62.357 68.3783 66.4893 59.5115 68.7627 55.489L72.6907 56.6969C72.4753 57.0082 84.6923 54.6474 84.4234 55.1024C84.736 58.1995 78.3019 59.5964 74.5399 59.733C73.6339 59.7659 71.12 60.9805 70.8383 61.8423C70.2352 63.688 69.9184 65.6836 69.9566 67.2737C70.0351 70.5445 73.4652 74.3997 78.0709 74.2385Z" fill="url(#paint2_linear_118_2333)"/>
</g>
<path d="M71.7526 56.628C72.3962 58.0405 74.2506 57.8707 76.939 57.41C78.9093 57.0724 82.0215 55.1905 82.0215 55.1905C82.0215 55.1905 82.4494 54.8321 81.9447 54.1365C81.1897 53.0958 83.3349 47.7104 83.2827 46.9935C83.2399 46.4047 82.2952 45.9487 81.4157 45.9076C81.2892 45.9017 81.2075 45.7507 81.2706 45.6407C81.5547 45.1459 81.4966 44.8186 81.3817 44.7912C77.2003 43.7968 73.9606 45.6558 72.9891 46.755C72.5422 47.2607 71.5727 46.9958 69.8451 47.8235C68.1175 48.6512 65.5938 51.4644 67.7149 52.1955C69.6679 52.8687 70.58 54.1625 71.3063 54.905C71.4222 55.0236 71.4965 55.1742 71.5009 55.3402C71.509 55.6516 71.5337 56.1476 71.7526 56.628Z" fill="#FF902F"/>
<mask id="mask3_118_2333" style="mask-type:alpha" maskUnits="userSpaceOnUse" x="66" y="44" width="18" height="14">
<path d="M71.7526 56.628C72.3962 58.0405 74.2506 57.8707 76.939 57.41C78.9094 57.0724 82.0215 55.1905 82.0215 55.1905C82.0215 55.1905 82.4494 54.8321 81.9447 54.1365C81.1897 53.0958 83.3349 47.7104 83.2827 46.9935C83.2399 46.4047 82.2952 45.9487 81.4157 45.9076C81.2892 45.9017 81.2075 45.7507 81.2706 45.6407C81.5547 45.1459 81.4966 44.8186 81.3817 44.7912C77.2003 43.7968 73.9606 45.6558 72.9891 46.755C72.5422 47.2607 71.5727 46.9958 69.8451 47.8235C68.1175 48.6512 65.5938 51.4644 67.7149 52.1955C69.6679 52.8687 70.58 54.1625 71.3063 54.905C71.4222 55.0236 71.4965 55.1742 71.5009 55.3402C71.509 55.6516 71.5337 56.1476 71.7526 56.628Z" fill="#FF902F"/>
</mask>
<g mask="url(#mask3_118_2333)">
<path d="M73.7155 52.7635C72.604 53.2154 69.9008 52.9476 69.1305 52.7578L70.7089 55.7264C73.506 56.6237 79.1503 57.9955 79.3505 56.3035C79.5508 54.6116 78.3965 51.8426 77.0186 51.0569C76.4493 51.4087 74.827 52.3116 73.7155 52.7635Z" fill="url(#paint3_linear_118_2333)"/>
<path d="M78.0051 55.7391C78.0596 54.117 76.776 52.0042 76.1273 51.1505C76.81 51.3655 78.2225 52.0797 78.4109 53.2167C78.6531 52.3425 81.2287 50.8774 82.4863 50.2542L83.0167 53.2922C81.3234 54.7837 77.9505 57.3612 78.0051 55.7391Z" fill="url(#paint4_linear_118_2333)"/>
<path d="M78.1187 50.554C78.1187 50.554 78.1835 49.7769 78.0394 49.4097C78.2224 49.7739 78.4194 49.9051 78.1187 50.554C77.4514 49.9452 77.0322 49.6576 76.62 49.6509C76.2079 49.6443 75.9143 49.6688 75.3187 50.0331C74.7855 50.3593 74.002 50.8386 72.8265 51.4502C70.5786 52.3587 68.6618 52.4379 67.8041 52.3038L66.8836 52.6019L66.0582 49.8654L72.0909 45.1097L74.9328 44.7334L77.9149 43.3995L81.7775 43.281L83.7163 45.9692L83.1904 47.6369C82.6341 48.1012 82.0085 48.2315 81.0602 48.4808C79.9302 48.901 78.1187 50.554 78.1187 50.554Z" fill="#FFBD57"/>
<path d="M76.5258 48.5074C75.7086 48.3131 73.4175 50.7307 68.7393 51.2033C68.56 51.2214 68.4024 51.0794 68.4334 50.9016C68.7249 49.2305 71.2861 48.3898 71.3589 48.3775C71.8313 48.2972 73.3049 48.2322 74.4556 47.029C75.693 45.7351 79.5145 44.9094 79.8469 45.5523C79.8009 45.7461 79.6836 45.935 79.5401 46.1055C79.4288 46.2378 79.6155 46.6441 79.7869 46.6249C80.463 46.5493 81.3524 46.5378 82.1723 46.8045C82.3741 46.8702 82.3509 47.1365 82.147 47.1976C80.1246 47.8036 78.5851 48.5381 78.0422 49.4476C77.8592 49.0836 77.3621 48.7063 76.5258 48.5074Z" fill="url(#paint5_linear_118_2333)"/>
</g>
<path d="M76.1626 56.0891C74.1295 56.4229 72.4816 55.8514 71.4078 55.1275C71.4078 55.1275 70.0152 56.079 70.5039 57.4158C70.9926 58.7525 71.9217 59.2997 76.2071 58.9842C80.4924 58.6687 82.1592 57.4246 82.9813 56.0798C83.5944 55.0769 82.5279 53.4496 81.6923 53.4708C80.2489 55.2823 79.1429 55.5999 76.1626 56.0891Z" fill="#522920"/>
<path d="M76.1586 55.8322C74.1251 56.1367 72.4782 55.6288 71.4056 54.9827C71.4056 54.9827 70.2532 56.2414 70.6996 57.0459C71.1459 57.8504 71.9129 58.7211 76.1986 58.4271C80.4842 58.133 81.7331 57.1372 82.5572 55.9297C83.1719 55.0291 82.5279 53.4496 81.6923 53.4707C80.2461 55.0983 79.1396 55.3859 76.1586 55.8322Z" fill="#723D31"/>
<mask id="mask4_118_2333" style="mask-type:alpha" maskUnits="userSpaceOnUse" x="70" y="53" width="13" height="6">
<path d="M76.1587 55.8322C74.1252 56.1367 72.4783 55.6288 71.4057 54.9827C71.4057 54.9827 70.2533 56.2414 70.6997 57.0459C71.146 57.8504 71.913 58.7211 76.1987 58.4271C80.4843 58.133 81.7332 57.1372 82.5573 55.9297C83.172 55.0291 82.528 53.4496 81.6924 53.4707C80.2462 55.0983 79.1397 55.3859 76.1587 55.8322Z" fill="#723D31"/>
</mask>
<g mask="url(#mask4_118_2333)">
<path d="M72.2116 57.3497C72.0326 56.2965 72.5775 55.6185 73.12 55.4391L72.8129 54.0714L67.91 54.9047L68.2429 58.6221L73.6446 58.5261C73.1296 58.4268 72.3557 58.1975 72.2116 57.3497Z" fill="#522920"/>
<path d="M81.4503 54.5104C81.0101 54.9798 78.377 56.0315 76.8662 56.1561C75.3555 56.2807 76.2155 57.162 77.0747 57.3827C77.934 57.6033 80.261 57.1616 81.6851 55.8909C82.7503 54.9403 81.8905 54.041 81.4503 54.5104Z" fill="#A15443"/>
</g>
<path d="M80.0678 59.0995C80.7971 58.9369 81.4317 58.7125 82.0917 58.3113C82.9389 57.7961 84.036 57.6997 84.7854 58.349C94.3945 66.6741 85.4368 73.5704 85.4263 70.6854C85.3963 62.3926 82.1061 61.5046 79.8986 59.709C79.6668 59.5206 79.7762 59.1645 80.0678 59.0995Z" fill="url(#paint6_linear_118_2333)" style="mix-blend-mode:overlay"/>
<g filter="url(#filter2_i_118_2333)">
<path d="M77.6979 70.7946C83.1628 71.6148 85.75 69.7186 86.0056 66.758C86.2612 63.7974 83.58 62.9661 82.088 62.7938C80.5959 62.6215 80.7478 63.2436 79.361 62.8204C78.3153 62.5013 77.9243 61.7389 77.1678 61.4039C74.2832 60.1266 72.2205 61.4273 71.4042 63.3825C70.483 65.589 72.233 69.9744 77.6979 70.7946Z" fill="#A15443"/>
</g>
<path d="M73.6593 61.517C72.84 61.8604 72.2102 62.5271 71.8226 63.3568L71.7478 63.5243C70.9649 65.3999 72.3725 69.3813 77.2652 70.3494L77.75 70.4341C80.4395 70.8377 82.359 70.5619 83.6219 69.8742C84.7887 69.2389 85.4332 68.2314 85.6068 66.9769L85.6354 66.7234C85.7515 65.3783 85.21 64.5512 84.4834 64.0231C83.733 63.4778 82.7626 63.2387 82.0482 63.1562C81.3737 63.0784 81.0937 63.1761 80.7813 63.2548C80.6076 63.2986 80.4121 63.3406 80.159 63.3358C79.9721 63.3322 79.7642 63.3032 79.5164 63.2416L79.2548 63.1691C78.6581 62.9871 78.2515 62.6769 77.9156 62.3937C77.6107 62.1366 77.3936 61.9332 77.1332 61.7929L77.0182 61.736C75.6541 61.132 74.5265 61.1537 73.6593 61.517Z" stroke="#723D31" stroke-width="0.736755"/>
<path d="M77.3799 63.795C78.0604 64.5014 79.6605 64.9021 80.4595 64.7663" stroke="#CC6C57" stroke-width="2.13659" stroke-linecap="round"/>
<path d="M116.499 65.8875C115.994 65.8875 115.509 65.8417 115.041 65.75C114.583 65.6675 114.157 65.5437 113.762 65.3787C113.377 65.2137 113.034 65.0167 112.731 64.7875L113.267 63.3987C113.57 63.6096 113.886 63.7929 114.216 63.9487C114.555 64.0954 114.913 64.21 115.289 64.2925C115.674 64.3658 116.077 64.4025 116.499 64.4025C117.223 64.4025 117.75 64.2833 118.08 64.045C118.41 63.7975 118.575 63.4812 118.575 63.0962C118.575 62.8854 118.524 62.7067 118.424 62.56C118.323 62.4042 118.158 62.2712 117.929 62.1612C117.699 62.0512 117.397 61.9596 117.021 61.8862L115.509 61.57C114.638 61.3867 113.987 61.0796 113.556 60.6487C113.134 60.2087 112.924 59.6312 112.924 58.9162C112.924 58.3112 113.084 57.7842 113.405 57.335C113.726 56.8858 114.17 56.5375 114.739 56.29C115.307 56.0425 115.962 55.9187 116.705 55.9187C117.145 55.9187 117.567 55.9646 117.97 56.0562C118.382 56.1387 118.758 56.2671 119.097 56.4412C119.446 56.6062 119.748 56.8079 120.005 57.0462L119.469 58.3662C119.084 58.0454 118.662 57.8071 118.204 57.6512C117.745 57.4862 117.241 57.4037 116.691 57.4037C116.269 57.4037 115.907 57.4633 115.605 57.5825C115.302 57.7017 115.069 57.8712 114.904 58.0912C114.748 58.3021 114.67 58.5542 114.67 58.8475C114.67 59.1775 114.78 59.4433 115 59.645C115.22 59.8375 115.596 59.9887 116.127 60.0987L117.626 60.415C118.534 60.6075 119.207 60.91 119.647 61.3225C120.097 61.735 120.321 62.285 120.321 62.9725C120.321 63.55 120.165 64.0587 119.854 64.4987C119.542 64.9387 119.097 65.2825 118.52 65.53C117.952 65.7683 117.278 65.8875 116.499 65.8875ZM125.437 65.8875C124.741 65.8875 124.136 65.7454 123.622 65.4612C123.109 65.1771 122.71 64.7737 122.426 64.2512C122.142 63.7196 122 63.0962 122 62.3812C122 61.6662 122.142 61.0475 122.426 60.525C122.71 60.0025 123.109 59.5992 123.622 59.315C124.136 59.0308 124.741 58.8887 125.437 58.8887C126.134 58.8887 126.739 59.0308 127.252 59.315C127.766 59.5992 128.165 60.0025 128.449 60.525C128.733 61.0475 128.875 61.6662 128.875 62.3812C128.875 63.0962 128.733 63.7196 128.449 64.2512C128.165 64.7737 127.766 65.1771 127.252 65.4612C126.739 65.7454 126.134 65.8875 125.437 65.8875ZM125.437 64.5812C125.951 64.5812 126.363 64.3979 126.675 64.0312C126.987 63.6554 127.142 63.1054 127.142 62.3812C127.142 61.6479 126.987 61.1025 126.675 60.745C126.363 60.3783 125.951 60.195 125.437 60.195C124.924 60.195 124.512 60.3783 124.2 60.745C123.888 61.1025 123.732 61.6479 123.732 62.3812C123.732 63.1054 123.888 63.6554 124.2 64.0312C124.512 64.3979 124.924 64.5812 125.437 64.5812ZM133.336 65.8875C132.538 65.8875 131.947 65.6721 131.562 65.2412C131.186 64.8012 130.998 64.1596 130.998 63.3162V56.0562H132.717V63.2337C132.717 63.4996 132.753 63.7287 132.827 63.9212C132.909 64.1046 133.028 64.2421 133.184 64.3337C133.34 64.4254 133.533 64.4712 133.762 64.4712C133.863 64.4712 133.963 64.4667 134.064 64.4575C134.165 64.4483 134.261 64.43 134.353 64.4025L134.326 65.7638C134.161 65.8004 133.996 65.8279 133.831 65.8463C133.675 65.8738 133.51 65.8875 133.336 65.8875ZM139.093 65.8875C138.396 65.8875 137.791 65.7454 137.278 65.4612C136.764 65.1771 136.365 64.7737 136.081 64.2512C135.797 63.7196 135.655 63.0962 135.655 62.3812C135.655 61.6662 135.797 61.0475 136.081 60.525C136.365 60.0025 136.764 59.5992 137.278 59.315C137.791 59.0308 138.396 58.8887 139.093 58.8887C139.789 58.8887 140.394 59.0308 140.908 59.315C141.421 59.5992 141.82 60.0025 142.104 60.525C142.388 61.0475 142.53 61.6662 142.53 62.3812C142.53 63.0962 142.388 63.7196 142.104 64.2512C141.82 64.7737 141.421 65.1771 140.908 65.4612C140.394 65.7454 139.789 65.8875 139.093 65.8875ZM139.093 64.5812C139.606 64.5812 140.018 64.3979 140.33 64.0312C140.642 63.6554 140.798 63.1054 140.798 62.3812C140.798 61.6479 140.642 61.1025 140.33 60.745C140.018 60.3783 139.606 60.195 139.093 60.195C138.579 60.195 138.167 60.3783 137.855 60.745C137.543 61.1025 137.388 61.6479 137.388 62.3812C137.388 63.1054 137.543 63.6554 137.855 64.0312C138.167 64.3979 138.579 64.5812 139.093 64.5812ZM152.377 65.8875C151.617 65.8875 150.961 65.7454 150.411 65.4612C149.861 65.1771 149.435 64.7737 149.132 64.2512C148.839 63.7287 148.692 63.11 148.692 62.395C148.692 61.6983 148.834 61.0887 149.119 60.5662C149.412 60.0437 149.811 59.6358 150.315 59.3425C150.828 59.04 151.41 58.8887 152.061 58.8887C152.703 58.8887 153.253 59.0262 153.711 59.3012C154.169 59.5762 154.522 59.9658 154.77 60.47C155.027 60.9742 155.155 61.5746 155.155 62.2712V62.78H150.081V61.79H153.945L153.725 61.9962C153.725 61.3729 153.587 60.8962 153.312 60.5662C153.037 60.2271 152.643 60.0575 152.13 60.0575C151.745 60.0575 151.415 60.1492 151.14 60.3325C150.874 60.5067 150.668 60.7587 150.521 61.0887C150.384 61.4096 150.315 61.7946 150.315 62.2437V62.34C150.315 62.8442 150.393 63.2612 150.549 63.5912C150.704 63.9212 150.938 64.1687 151.25 64.3337C151.562 64.4987 151.947 64.5812 152.405 64.5812C152.781 64.5812 153.157 64.5262 153.532 64.4162C153.908 64.2971 154.252 64.1137 154.564 63.8662L155.045 65.0212C154.724 65.2871 154.321 65.4979 153.835 65.6537C153.349 65.8096 152.863 65.8875 152.377 65.8875ZM159.093 65.75L156.178 59.0262H158.007L160.083 64.2375H159.671L161.816 59.0262H163.534L160.578 65.75H159.093ZM168.248 65.8875C167.487 65.8875 166.832 65.7454 166.282 65.4612C165.732 65.1771 165.305 64.7737 165.003 64.2512C164.71 63.7287 164.563 63.11 164.563 62.395C164.563 61.6983 164.705 61.0887 164.989 60.5662C165.283 60.0437 165.681 59.6358 166.185 59.3425C166.699 59.04 167.281 58.8887 167.932 58.8887C168.573 58.8887 169.123 59.0262 169.582 59.3012C170.04 59.5762 170.393 59.9658 170.64 60.47C170.897 60.9742 171.025 61.5746 171.025 62.2712V62.78H165.952V61.79H169.815L169.595 61.9962C169.595 61.3729 169.458 60.8962 169.183 60.5662C168.908 60.2271 168.514 60.0575 168 60.0575C167.615 60.0575 167.285 60.1492 167.01 60.3325C166.745 60.5067 166.538 60.7587 166.392 61.0887C166.254 61.4096 166.185 61.7946 166.185 62.2437V62.34C166.185 62.8442 166.263 63.2612 166.419 63.5912C166.575 63.9212 166.809 64.1687 167.12 64.3337C167.432 64.4987 167.817 64.5812 168.275 64.5812C168.651 64.5812 169.027 64.5262 169.403 64.4162C169.779 64.2971 170.123 64.1137 170.434 63.8662L170.915 65.0212C170.595 65.2871 170.191 65.4979 169.705 65.6537C169.22 65.8096 168.734 65.8875 168.248 65.8875ZM173.091 65.75V59.0262H174.769V60.3737H174.617C174.819 59.8879 175.131 59.5212 175.552 59.2737C175.983 59.0171 176.469 58.8887 177.01 58.8887C177.551 58.8887 177.995 58.9896 178.344 59.1912C178.692 59.3929 178.953 59.7 179.127 60.1125C179.302 60.5158 179.389 61.0292 179.389 61.6525V65.75H177.67V61.735C177.67 61.3867 177.624 61.1025 177.532 60.8825C177.45 60.6625 177.317 60.5021 177.134 60.4012C176.959 60.2912 176.735 60.2362 176.46 60.2362C176.13 60.2362 175.841 60.3096 175.594 60.4562C175.346 60.5937 175.154 60.7954 175.016 61.0612C174.879 61.3179 174.81 61.6204 174.81 61.9687V65.75H173.091ZM184.919 65.8875C184.02 65.8875 183.351 65.6629 182.911 65.2137C182.471 64.7646 182.251 64.1092 182.251 63.2475V60.3187H180.959V59.0262H182.251V57.0187H183.97V59.0262H186.005V60.3187H183.97V63.1512C183.97 63.5912 184.066 63.9212 184.259 64.1412C184.451 64.3612 184.763 64.4712 185.194 64.4712C185.322 64.4712 185.455 64.4575 185.593 64.43C185.73 64.3933 185.872 64.3567 186.019 64.32L186.28 65.585C186.115 65.6767 185.904 65.75 185.648 65.805C185.4 65.86 185.157 65.8875 184.919 65.8875ZM190.282 65.8875C189.906 65.8875 189.539 65.8554 189.182 65.7913C188.833 65.7271 188.512 65.64 188.219 65.53C187.926 65.4108 187.669 65.2642 187.449 65.09L187.889 63.9625C188.118 64.1092 188.366 64.2375 188.632 64.3475C188.897 64.4575 189.172 64.54 189.457 64.595C189.741 64.65 190.02 64.6775 190.295 64.6775C190.735 64.6775 191.061 64.6042 191.272 64.4575C191.492 64.3017 191.602 64.1 191.602 63.8525C191.602 63.6417 191.528 63.4812 191.382 63.3712C191.244 63.2521 191.033 63.165 190.749 63.11L189.374 62.8487C188.806 62.7387 188.37 62.5325 188.068 62.23C187.775 61.9183 187.628 61.5196 187.628 61.0337C187.628 60.5937 187.747 60.2133 187.985 59.8925C188.233 59.5717 188.572 59.3242 189.003 59.15C189.434 58.9758 189.929 58.8887 190.488 58.8887C190.809 58.8887 191.12 58.9208 191.423 58.985C191.725 59.04 192.01 59.1271 192.275 59.2462C192.55 59.3562 192.789 59.5029 192.99 59.6862L192.523 60.8137C192.349 60.6671 192.147 60.5433 191.918 60.4425C191.689 60.3325 191.45 60.25 191.203 60.195C190.965 60.1308 190.731 60.0987 190.502 60.0987C190.052 60.0987 189.718 60.1767 189.498 60.3325C189.287 60.4883 189.182 60.6946 189.182 60.9512C189.182 61.1437 189.246 61.3042 189.374 61.4325C189.502 61.5608 189.7 61.6479 189.965 61.6937L191.34 61.955C191.936 62.065 192.385 62.2667 192.688 62.56C193 62.8533 193.155 63.2475 193.155 63.7425C193.155 64.1917 193.036 64.5767 192.798 64.8975C192.56 65.2183 192.225 65.4658 191.794 65.64C191.363 65.805 190.859 65.8875 190.282 65.8875Z" fill="#202224"/>
<mask id="mask5_118_2333" style="mask-type:alpha" maskUnits="userSpaceOnUse" x="33" y="34" width="37" height="55">
<path d="M34.171 43.1125C34.171 38.6321 37.8031 35 42.2835 35H53.557C62.1804 35 69.171 41.9906 69.171 50.614V71.886C69.171 80.5094 62.1804 87.5 53.557 87.5H42.2835C37.8031 87.5 34.171 83.8679 34.171 79.3875V43.1125Z" fill="white" stroke="url(#paint7_linear_118_2333)" stroke-opacity="0.3" stroke-width="1.62697"/>
</mask>
<g mask="url(#mask5_118_2333)">
<rect x="32.921" y="33.9904" width="17.5" height="54.5192" fill="#587ED7"/>
</g>
<defs>
<filter id="filter0_d_118_2333" x="0.792663" y="0.37165" width="277.71" height="130.21" filterUnits="userSpaceOnUse" color-interpolation-filters="sRGB">
<feFlood flood-opacity="0" result="BackgroundImageFix"/>
<feColorMatrix in="SourceAlpha" type="matrix" values="0 0 0 0 0 0 0 0 0 0 0 0 0 0 0 0 0 0 127 0" result="hardAlpha"/>
<feOffset dx="4.22686" dy="4.22686"/>
<feGaussianBlur stdDeviation="19.0209"/>
<feColorMatrix type="matrix" values="0 0 0 0 0 0 0 0 0 0 0 0 0 0 0 0 0 0 0.05 0"/>
<feBlend mode="normal" in2="BackgroundImageFix" result="effect1_dropShadow_118_2333"/>
<feBlend mode="normal" in="SourceGraphic" in2="effect1_dropShadow_118_2333" result="shape"/>
</filter>
<filter id="filter1_d_118_2333" x="63.1007" y="42.347" width="32.9899" height="39.5847" filterUnits="userSpaceOnUse" color-interpolation-filters="sRGB">
<feFlood flood-opacity="0" result="BackgroundImageFix"/>
<feColorMatrix in="SourceAlpha" type="matrix" values="0 0 0 0 0 0 0 0 0 0 0 0 0 0 0 0 0 0 127 0" result="hardAlpha"/>
<feOffset dx="1.08039" dy="2.12868"/>
<feComposite in2="hardAlpha" operator="out"/>
<feColorMatrix type="matrix" values="0 0 0 0 0.313726 0 0 0 0 0.0431373 0 0 0 0 0.0431373 0 0 0 1 0"/>
<feBlend mode="normal" in2="BackgroundImageFix" result="effect1_dropShadow_118_2333"/>
<feBlend mode="normal" in="SourceGraphic" in2="effect1_dropShadow_118_2333" result="shape"/>
</filter>
<filter id="filter2_i_118_2333" x="71.171" y="59.7383" width="15.9568" height="11.2481" filterUnits="userSpaceOnUse" color-interpolation-filters="sRGB">
<feFlood flood-opacity="0" result="BackgroundImageFix"/>
<feBlend mode="normal" in="SourceGraphic" in2="BackgroundImageFix" result="shape"/>
<feColorMatrix in="SourceAlpha" type="matrix" values="0 0 0 0 0 0 0 0 0 0 0 0 0 0 0 0 0 0 127 0" result="hardAlpha"/>
<feOffset dx="1.10513" dy="-1.54719"/>
<feGaussianBlur stdDeviation="0.578353"/>
<feComposite in2="hardAlpha" operator="arithmetic" k2="-1" k3="1"/>
<feColorMatrix type="matrix" values="0 0 0 0 0.0891668 0 0 0 0 0 0 0 0 0 0 0 0 0 0.25 0"/>
<feBlend mode="normal" in2="shape" result="effect1_innerShadow_118_2333"/>
</filter>
<linearGradient id="paint0_linear_118_2333" x1="81.0253" y1="16.0373" x2="172.825" y2="127.365" gradientUnits="userSpaceOnUse">
<stop stop-color="#F1F1F1"/>
<stop offset="1" stop-color="#E1E1E1"/>
</linearGradient>
<linearGradient id="paint1_linear_118_2333" x1="74.8931" y1="45.066" x2="80.3786" y2="77.3413" gradientUnits="userSpaceOnUse">
<stop stop-color="#A80908"/>
<stop offset="1" stop-color="#730606"/>
</linearGradient>
<linearGradient id="paint2_linear_118_2333" x1="67.0742" y1="73.074" x2="87.0342" y2="61.9673" gradientUnits="userSpaceOnUse">
<stop stop-color="#D03E1D"/>
<stop offset="1" stop-color="#D03E1D" stop-opacity="0"/>
</linearGradient>
<linearGradient id="paint3_linear_118_2333" x1="77.1089" y1="57.0798" x2="75.5037" y2="50.0258" gradientUnits="userSpaceOnUse">
<stop offset="0.286458" stop-color="#D03E1D"/>
<stop offset="1" stop-color="#FF7F63" stop-opacity="0"/>
</linearGradient>
<linearGradient id="paint4_linear_118_2333" x1="82.4979" y1="55.0796" x2="78.7205" y2="49.7644" gradientUnits="userSpaceOnUse">
<stop offset="0.286458" stop-color="#D03E1D"/>
<stop offset="1" stop-color="#FF7F63" stop-opacity="0"/>
</linearGradient>
<linearGradient id="paint5_linear_118_2333" x1="72.2594" y1="44.55" x2="74.3644" y2="50.1567" gradientUnits="userSpaceOnUse">
<stop offset="0.531412" stop-color="#FF902F"/>
<stop offset="1" stop-color="#D2411E"/>
</linearGradient>
<linearGradient id="paint6_linear_118_2333" x1="85.0981" y1="59.7407" x2="85.8658" y2="70.8502" gradientUnits="userSpaceOnUse">
<stop stop-color="#FFBD57"/>
<stop offset="1" stop-color="#FFBD57" stop-opacity="0"/>
</linearGradient>
<linearGradient id="paint7_linear_118_2333" x1="42.1518" y1="16.0373" x2="80.1327" y2="24.0979" gradientUnits="userSpaceOnUse">
<stop stop-color="#F1F1F1"/>
<stop offset="1" stop-color="#E1E1E1"/>
</linearGradient>
</defs>
</svg>
