<svg width="279" height="131" viewBox="0 0 279 131" fill="none" xmlns="http://www.w3.org/2000/svg">
<g filter="url(#filter0_d_118_1863)">
<rect x="35" y="35.25" width="200" height="52.5" rx="8.1125" fill="white"/>
<rect x="35" y="35.25" width="200" height="52.5" rx="8.1125" stroke="url(#paint0_linear_118_1863)" stroke-opacity="0.3" stroke-width="1.62697"/>
</g>
<g filter="url(#filter1_d_118_1863)">
<mask id="path-3-outside-1_118_1863" maskUnits="userSpaceOnUse" x="62.0487" y="41.4306" width="33.1838" height="39.2754" fill="black">
<rect fill="white" x="62.0487" y="41.4306" width="33.1838" height="39.2754"/>
<path d="M85.5183 45.8311C86.5661 46.0892 87.5231 46.6112 88.2789 47.3361C89.0345 48.061 89.5588 48.96 89.7914 49.9301C90.024 50.9003 89.9552 51.9024 89.5937 52.8212C89.2321 53.7399 88.5925 54.5389 87.7474 55.1254C87.6972 55.1601 87.6458 55.1936 87.5942 55.2266C87.4884 55.3217 86.2854 56.2188 86.0964 57.3849C86.0418 57.7581 86.0474 58.1386 86.1139 58.5137C86.1943 59.0153 86.6995 60.0672 86.7832 60.2049C87.9654 62.1482 88.9677 64.6513 89.3313 67.0452C89.9702 71.251 89.0195 73.2719 88.7731 73.8769C88.7725 73.8781 88.7722 73.8797 88.7716 73.8806C88.2967 75.455 84.7434 76.1552 80.5274 75.5325L80.1181 75.4684C80.1099 75.467 80.1012 75.4657 80.093 75.4643C80.0838 75.4628 80.0742 75.4614 80.065 75.4598L79.8665 75.4256L79.8588 75.4246C79.8519 75.4234 79.8446 75.4214 79.8377 75.42C79.8307 75.4189 79.8235 75.4177 79.8165 75.4164L79.8097 75.4156C79.7433 75.4036 79.6766 75.391 79.6106 75.3783C79.6017 75.3766 79.5927 75.3747 79.5837 75.373L79.5588 75.368C78.8365 75.2278 78.145 75.0534 77.4923 74.8586C76.8084 75.1736 76.0227 75.4569 75.1672 75.6811L74.5659 75.8264C74.5598 75.8278 74.5537 75.8297 74.5476 75.831C74.5409 75.8325 74.5341 75.834 74.5274 75.8354L74.3788 75.8673C74.3773 75.8676 74.3753 75.8683 74.3737 75.8687C74.3685 75.8698 74.3629 75.8706 74.3576 75.8716C74.3526 75.8727 74.3475 75.8736 74.3425 75.8747C74.3409 75.875 74.3389 75.8757 74.3374 75.876L74.3364 75.8759C74.2869 75.8861 74.2374 75.8962 74.1881 75.9058C74.1814 75.9071 74.1746 75.9079 74.168 75.9092L74.1498 75.9129C70.8732 76.5492 68.0457 76.0861 67.6603 74.8538L67.6586 74.8516C67.4672 74.3941 66.7324 72.8677 67.1605 69.6452C67.4042 67.8109 68.1252 65.8824 68.9862 64.3777C69.0472 64.2711 69.4114 63.4584 69.4656 63.074C69.5109 62.7865 69.5108 62.496 69.4655 62.212C69.3104 61.3249 68.4 60.6615 68.3201 60.5911C68.281 60.5668 68.2423 60.5414 68.2044 60.5158C67.5662 60.0833 67.0786 59.4851 66.7974 58.7908C66.5163 58.0967 66.4524 57.3339 66.6139 56.5898C66.7755 55.8454 67.1562 55.1491 67.7114 54.5819C68.2666 54.0149 68.975 53.5991 69.7542 53.3823C69.7756 53.377 70.2305 53.2824 70.241 53.2809C71.041 53.1673 71.8492 53.2661 72.5732 53.5662C73.2973 53.8663 73.908 54.3556 74.3347 54.9777C74.7614 55.5998 74.9875 56.33 74.9864 57.0839C74.9853 57.8377 74.7567 58.5851 74.3282 59.2403C74.3027 59.279 74.2769 59.3177 74.25 59.3556C74.2027 59.4523 73.6093 60.4291 73.7958 61.3099C73.8595 61.59 73.9673 61.8588 74.1159 62.106C74.2372 62.3152 74.5361 62.6288 74.7638 62.8529C75.8731 61.2747 77.2742 59.8313 78.6591 58.7407C78.787 58.6396 79.6263 57.8318 79.8773 57.3902C80.0708 57.0621 80.2097 56.7075 80.2892 56.3389C80.5207 55.1795 79.7062 53.9177 79.6414 53.7934C79.6045 53.7444 79.5685 53.6952 79.5337 53.6453C78.9478 52.8015 78.628 51.8306 78.6104 50.8444C78.5929 49.8582 78.8783 48.8955 79.4346 48.0679C79.9909 47.2404 80.7957 46.5809 81.756 46.1646C82.7162 45.7483 83.7935 45.5923 84.8646 45.7141C84.8823 45.7162 85.4956 45.8261 85.5183 45.8311Z"/>
</mask>
<path d="M85.5183 45.8311C86.5661 46.0892 87.5231 46.6112 88.2789 47.3361C89.0345 48.061 89.5588 48.96 89.7914 49.9301C90.024 50.9003 89.9552 51.9024 89.5937 52.8212C89.2321 53.7399 88.5925 54.5389 87.7474 55.1254C87.6972 55.1601 87.6458 55.1936 87.5942 55.2266C87.4884 55.3217 86.2854 56.2188 86.0964 57.3849C86.0418 57.7581 86.0474 58.1386 86.1139 58.5137C86.1943 59.0153 86.6995 60.0672 86.7832 60.2049C87.9654 62.1482 88.9677 64.6513 89.3313 67.0452C89.9702 71.251 89.0195 73.2719 88.7731 73.8769C88.7725 73.8781 88.7722 73.8797 88.7716 73.8806C88.2967 75.455 84.7434 76.1552 80.5274 75.5325L80.1181 75.4684C80.1099 75.467 80.1012 75.4657 80.093 75.4643C80.0838 75.4628 80.0742 75.4614 80.065 75.4598L79.8665 75.4256L79.8588 75.4246C79.8519 75.4234 79.8446 75.4214 79.8377 75.42C79.8307 75.4189 79.8235 75.4177 79.8165 75.4164L79.8097 75.4156C79.7433 75.4036 79.6766 75.391 79.6106 75.3783C79.6017 75.3766 79.5927 75.3747 79.5837 75.373L79.5588 75.368C78.8365 75.2278 78.145 75.0534 77.4923 74.8586C76.8084 75.1736 76.0227 75.4569 75.1672 75.6811L74.5659 75.8264C74.5598 75.8278 74.5537 75.8297 74.5476 75.831C74.5409 75.8325 74.5341 75.834 74.5274 75.8354L74.3788 75.8673C74.3773 75.8676 74.3753 75.8683 74.3737 75.8687C74.3685 75.8698 74.3629 75.8706 74.3576 75.8716C74.3526 75.8727 74.3475 75.8736 74.3425 75.8747C74.3409 75.875 74.3389 75.8757 74.3374 75.876L74.3364 75.8759C74.2869 75.8861 74.2374 75.8962 74.1881 75.9058C74.1814 75.9071 74.1746 75.9079 74.168 75.9092L74.1498 75.9129C70.8732 76.5492 68.0457 76.0861 67.6603 74.8538L67.6586 74.8516C67.4672 74.3941 66.7324 72.8677 67.1605 69.6452C67.4042 67.8109 68.1252 65.8824 68.9862 64.3777C69.0472 64.2711 69.4114 63.4584 69.4656 63.074C69.5109 62.7865 69.5108 62.496 69.4655 62.212C69.3104 61.3249 68.4 60.6615 68.3201 60.5911C68.281 60.5668 68.2423 60.5414 68.2044 60.5158C67.5662 60.0833 67.0786 59.4851 66.7974 58.7908C66.5163 58.0967 66.4524 57.3339 66.6139 56.5898C66.7755 55.8454 67.1562 55.1491 67.7114 54.5819C68.2666 54.0149 68.975 53.5991 69.7542 53.3823C69.7756 53.377 70.2305 53.2824 70.241 53.2809C71.041 53.1673 71.8492 53.2661 72.5732 53.5662C73.2973 53.8663 73.908 54.3556 74.3347 54.9777C74.7614 55.5998 74.9875 56.33 74.9864 57.0839C74.9853 57.8377 74.7567 58.5851 74.3282 59.2403C74.3027 59.279 74.2769 59.3177 74.25 59.3556C74.2027 59.4523 73.6093 60.4291 73.7958 61.3099C73.8595 61.59 73.9673 61.8588 74.1159 62.106C74.2372 62.3152 74.5361 62.6288 74.7638 62.8529C75.8731 61.2747 77.2742 59.8313 78.6591 58.7407C78.787 58.6396 79.6263 57.8318 79.8773 57.3902C80.0708 57.0621 80.2097 56.7075 80.2892 56.3389C80.5207 55.1795 79.7062 53.9177 79.6414 53.7934C79.6045 53.7444 79.5685 53.6952 79.5337 53.6453C78.9478 52.8015 78.628 51.8306 78.6104 50.8444C78.5929 49.8582 78.8783 48.8955 79.4346 48.0679C79.9909 47.2404 80.7957 46.5809 81.756 46.1646C82.7162 45.7483 83.7935 45.5923 84.8646 45.7141C84.8823 45.7162 85.4956 45.8261 85.5183 45.8311Z" fill="#D9D9D9"/>
<path d="M85.5183 45.8311L85.9923 43.907L85.9672 43.9008L85.9419 43.8953L85.5183 45.8311ZM88.2789 47.3361L89.6507 45.9061L89.6506 45.9061L88.2789 47.3361ZM89.7914 49.9301L91.7184 49.4681L91.7184 49.468L89.7914 49.9301ZM89.5937 52.8212L91.4376 53.5469L91.4377 53.5468L89.5937 52.8212ZM87.7474 55.1254L88.8728 56.7565L88.8773 56.7534L87.7474 55.1254ZM87.5942 55.2266L86.527 53.557L86.3907 53.6441L86.2704 53.7521L87.5942 55.2266ZM86.0964 57.3849L84.1404 57.068L84.138 57.0828L84.1358 57.0976L86.0964 57.3849ZM86.1139 58.5137L88.0705 58.2L88.0679 58.1839L88.065 58.1678L86.1139 58.5137ZM86.7832 60.2049L85.0902 61.2347L85.0903 61.2347L86.7832 60.2049ZM89.3313 67.0452L87.3721 67.3428L87.3721 67.3429L89.3313 67.0452ZM88.7731 73.8769L90.5739 74.7037L90.592 74.6645L90.6083 74.6244L88.7731 73.8769ZM88.7716 73.8806L87.0562 72.8886L86.941 73.0879L86.8745 73.3083L88.7716 73.8806ZM80.5274 75.5325L80.2203 77.4902L80.2291 77.4916L80.2378 77.4929L80.5274 75.5325ZM80.1181 75.4684L79.7898 77.4226L79.8004 77.4243L79.811 77.426L80.1181 75.4684ZM80.093 75.4643L80.4212 73.5101L80.4193 73.5097L80.093 75.4643ZM80.065 75.4598L79.7277 77.4125L79.7343 77.4136L80.065 75.4598ZM79.8665 75.4256L80.2039 73.4729L80.1565 73.4647L80.1088 73.4588L79.8665 75.4256ZM79.8588 75.4246L79.5064 77.3746L79.5612 77.3845L79.6165 77.3913L79.8588 75.4246ZM79.8377 75.42L80.2113 73.474L80.1891 73.4697L80.1669 73.466L79.8377 75.42ZM79.8165 75.4164L80.1679 73.4663L80.1136 73.4565L80.0588 73.4497L79.8165 75.4164ZM79.8097 75.4156L79.4566 77.3655L79.5118 77.3755L79.5675 77.3823L79.8097 75.4156ZM79.6106 75.3783L79.9861 73.4326L79.9838 73.4322L79.6106 75.3783ZM79.5837 75.373L79.1913 77.3154L79.1998 77.3171L79.2083 77.3187L79.5837 75.373ZM79.5588 75.368L79.9512 73.4256L79.9437 73.4241L79.9362 73.4227L79.5588 75.368ZM77.4923 74.8586L78.0592 72.9598L77.3425 72.7458L76.6632 73.0587L77.4923 74.8586ZM75.1672 75.6811L75.6327 77.6072L75.6512 77.6028L75.6695 77.598L75.1672 75.6811ZM74.5659 75.8264L74.9933 77.7613L75.0124 77.7571L75.0314 77.7525L74.5659 75.8264ZM74.5476 75.831L74.1201 73.8961L74.1181 73.8966L74.5476 75.831ZM74.5274 75.8354L74.9431 77.7729L74.9524 77.7709L74.5274 75.8354ZM74.3788 75.8673L74.7829 77.8073L74.7945 77.8048L74.3788 75.8673ZM74.3737 75.8687L74.7775 77.8087L74.7778 77.8086L74.3737 75.8687ZM74.3576 75.8716L73.976 73.9271L73.9535 73.9315L73.9311 73.9365L74.3576 75.8716ZM74.3425 75.8747L74.7466 77.8146L74.748 77.8143L74.3425 75.8747ZM74.3374 75.876L74.0951 77.8427L74.4205 77.8828L74.7415 77.8159L74.3374 75.876ZM74.3364 75.8759L74.5787 73.9092L74.2542 73.8692L73.934 73.9356L74.3364 75.8759ZM74.1881 75.9058L73.8083 73.961L73.806 73.9614L74.1881 75.9058ZM74.168 75.9092L73.7882 73.9644L73.7759 73.9668L74.168 75.9092ZM74.1498 75.9129L74.5276 77.8582L74.5347 77.8568L74.5419 77.8553L74.1498 75.9129ZM67.6603 74.8538L69.5516 74.2623L69.444 73.9184L69.2223 73.6344L67.6603 74.8538ZM67.6586 74.8516L65.8305 75.6163L65.9331 75.8615L66.0966 76.071L67.6586 74.8516ZM67.1605 69.6452L69.1249 69.9062L69.1249 69.9061L67.1605 69.6452ZM68.9862 64.3777L67.2663 63.3935L67.2663 63.3936L68.9862 64.3777ZM69.4656 63.074L67.5081 62.7658L67.5056 62.7815L67.5034 62.7974L69.4656 63.074ZM69.4655 62.212L71.4224 61.8999L71.42 61.8854L71.4175 61.8708L69.4655 62.212ZM68.3201 60.5911L69.6305 59.1046L69.5062 58.995L69.3654 58.9076L68.3201 60.5911ZM68.2044 60.5158L67.0927 62.1562L67.095 62.1577L68.2044 60.5158ZM66.7974 58.7908L64.9606 59.5346L64.9607 59.5348L66.7974 58.7908ZM66.6139 56.5898L64.6774 56.1693L64.6774 56.1696L66.6139 56.5898ZM67.7114 54.5819L66.2955 53.1956L66.2954 53.1957L67.7114 54.5819ZM69.7542 53.3823L69.2749 51.4595L69.2489 51.466L69.2231 51.4732L69.7542 53.3823ZM70.241 53.2809L69.9624 51.319L69.9607 51.3192L70.241 53.2809ZM72.5732 53.5662L73.332 51.7356L73.3318 51.7356L72.5732 53.5662ZM74.3347 54.9777L75.9689 53.8569L75.9689 53.8568L74.3347 54.9777ZM74.9864 57.0839L76.968 57.087L76.968 57.0868L74.9864 57.0839ZM74.3282 59.2403L75.9836 60.3295L75.9866 60.3249L74.3282 59.2403ZM74.25 59.3556L72.6334 58.2097L72.5409 58.3403L72.4704 58.484L74.25 59.3556ZM73.7958 61.3099L71.8572 61.7205L71.8603 61.735L71.8636 61.7495L73.7958 61.3099ZM74.1159 62.106L75.8301 61.1119L75.8222 61.0983L75.8141 61.0848L74.1159 62.106ZM74.7638 62.8529L73.374 64.2653L75.0405 65.9052L76.385 63.9924L74.7638 62.8529ZM78.6591 58.7407L79.8851 60.2975L79.8873 60.2957L78.6591 58.7407ZM79.8773 57.3902L78.1705 56.3833L78.1624 56.3971L78.1546 56.4109L79.8773 57.3902ZM80.2892 56.3389L82.2263 56.7564L82.2294 56.7417L82.2324 56.727L80.2892 56.3389ZM79.6414 53.7934L81.3987 52.8776L81.3226 52.7315L81.2234 52.6L79.6414 53.7934ZM79.5337 53.6453L77.906 54.7755L77.9076 54.7777L79.5337 53.6453ZM78.6104 50.8444L76.6292 50.8796L76.6292 50.8797L78.6104 50.8444ZM79.4346 48.0679L77.7901 46.9623L77.79 46.9624L79.4346 48.0679ZM81.756 46.1646L80.9678 44.3465L80.9678 44.3465L81.756 46.1646ZM84.8646 45.7141L85.0904 43.7454L85.0886 43.7452L84.8646 45.7141ZM85.5183 45.8311L85.0444 47.7551C85.7651 47.9327 86.4097 48.289 86.9071 48.7661L88.2789 47.3361L89.6506 45.9061C88.6366 44.9333 87.3672 44.2456 85.9923 43.907L85.5183 45.8311ZM88.2789 47.3361L86.907 48.766C87.4032 49.242 87.7249 49.8102 87.8645 50.3922L89.7914 49.9301L91.7184 49.468C91.3927 48.1098 90.6658 46.88 89.6507 45.9061L88.2789 47.3361ZM89.7914 49.9301L87.8645 50.3922C88.0033 50.9711 87.9611 51.5585 87.7497 52.0956L89.5937 52.8212L91.4377 53.5468C91.9494 52.2463 92.0448 50.8294 91.7184 49.4681L89.7914 49.9301ZM89.5937 52.8212L87.7498 52.0955C87.5377 52.6344 87.1541 53.1251 86.6175 53.4975L87.7474 55.1254L88.8773 56.7534C90.0308 55.9527 90.9266 54.8454 91.4376 53.5469L89.5937 52.8212ZM87.7474 55.1254L86.622 53.4944C86.5985 53.5106 86.5686 53.5304 86.527 53.557L87.5942 55.2266L88.6615 56.8963C88.723 56.8569 88.7959 56.8095 88.8728 56.7565L87.7474 55.1254ZM87.5942 55.2266L86.2704 53.7521C86.3582 53.6733 85.8297 54.0963 85.3918 54.5917C84.9535 55.0875 84.3224 55.9442 84.1404 57.068L86.0964 57.3849L88.0525 57.7018C88.0594 57.6595 88.1242 57.4846 88.3612 57.2165C88.5985 56.948 88.7244 56.875 88.9181 56.7011L87.5942 55.2266ZM86.0964 57.3849L84.1358 57.0976C84.0502 57.6817 84.0592 58.2759 84.1627 58.8595L86.1139 58.5137L88.065 58.1678C88.0355 58.0012 88.0333 57.8344 88.0571 57.6722L86.0964 57.3849ZM86.1139 58.5137L84.1572 58.8273C84.2412 59.3509 84.4854 59.9481 84.6257 60.2757C84.7745 60.6233 84.9687 61.0349 85.0902 61.2347L86.7832 60.2049L88.4762 59.175C88.5066 59.2251 88.518 59.2501 88.4973 59.2098C88.4848 59.1853 88.4656 59.1467 88.441 59.0955C88.3919 58.9933 88.3303 58.8591 88.2689 58.7158C88.2066 58.5703 88.1514 58.4313 88.1109 58.3154C88.0632 58.1792 88.0625 58.1505 88.0705 58.2L86.1139 58.5137ZM86.7832 60.2049L85.0903 61.2347C86.1572 62.9886 87.0536 65.2454 87.3721 67.3428L89.3313 67.0452L91.2904 66.7477C90.8818 64.0571 89.7736 61.3078 88.4762 59.175L86.7832 60.2049ZM89.3313 67.0452L87.3721 67.3429C87.6619 69.2502 87.5816 70.5936 87.4308 71.4784C87.2823 72.3494 87.0611 72.827 86.9379 73.1293L88.7731 73.8769L90.6083 74.6244C90.7316 74.3217 91.1088 73.4865 91.3376 72.1443C91.564 70.816 91.6395 69.046 91.2904 66.7476L89.3313 67.0452ZM88.7731 73.8769L86.9723 73.05C86.9384 73.1237 86.9165 73.1836 86.9073 73.2094C86.902 73.2241 86.898 73.2358 86.8962 73.2412C86.8955 73.243 86.8923 73.2528 86.8947 73.2455C86.8947 73.2454 86.9071 73.208 86.9248 73.1625C86.9345 73.1376 86.9491 73.1014 86.9686 73.0586C86.9878 73.0166 87.0165 72.9573 87.0562 72.8886L88.7716 73.8806L90.4871 74.8726C90.5269 74.8038 90.5558 74.7442 90.575 74.7019C90.5947 74.6588 90.6094 74.6224 90.6192 74.5971C90.6371 74.551 90.6497 74.513 90.65 74.5123C90.6526 74.5046 90.6494 74.514 90.6489 74.5155C90.6472 74.5206 90.6433 74.5319 90.6381 74.5463C90.6291 74.5714 90.6075 74.6306 90.5739 74.7037L88.7731 73.8769ZM88.7716 73.8806L86.8745 73.3083C86.9485 73.0631 87.0784 73.0591 86.8623 73.1878C86.6534 73.3122 86.2675 73.467 85.665 73.5871C84.4679 73.8258 82.7626 73.8596 80.8169 73.5722L80.5274 75.5325L80.2378 77.4929C82.5082 77.8282 84.6875 77.8232 86.4399 77.4738C87.312 77.2999 88.167 77.0234 88.8897 76.5931C89.6051 76.1672 90.3573 75.4853 90.6688 74.453L88.7716 73.8806ZM80.5274 75.5325L80.8344 73.5749L80.4251 73.5107L80.1181 75.4684L79.811 77.426L80.2203 77.4902L80.5274 75.5325ZM80.1181 75.4684L80.4463 73.5141C80.4391 73.5129 80.4328 73.5119 80.4282 73.5112C80.4239 73.5105 80.4198 73.5098 80.4181 73.5095C80.4156 73.5091 80.4154 73.5091 80.4156 73.5091C80.4159 73.5092 80.4181 73.5095 80.4212 73.5101L80.093 75.4643L79.7648 77.4185C79.772 77.4197 79.7783 77.4207 79.7829 77.4215C79.7872 77.4222 79.7912 77.4228 79.793 77.4231C79.7954 77.4235 79.7956 77.4235 79.7955 77.4235C79.7951 77.4234 79.793 77.4231 79.7898 77.4226L80.1181 75.4684ZM80.093 75.4643L80.4193 73.5097C80.4082 73.5079 80.3988 73.5064 80.3926 73.5054C80.3867 73.5045 80.3811 73.5036 80.3798 73.5034C80.3773 73.5031 80.3786 73.5033 80.3807 73.5036C80.383 73.504 80.3885 73.5048 80.3958 73.5061L80.065 75.4598L79.7343 77.4136C79.7461 77.4157 79.7562 77.4173 79.7632 77.4184C79.77 77.4194 79.776 77.4204 79.7782 77.4207C79.7816 77.4212 79.7807 77.4211 79.7795 77.4209C79.7779 77.4207 79.7732 77.4199 79.7667 77.4188L80.093 75.4643ZM80.065 75.4598L80.4024 73.5072L80.2039 73.4729L79.8665 75.4256L79.5292 77.3782L79.7277 77.4125L80.065 75.4598ZM79.8665 75.4256L80.1088 73.4588L80.1011 73.4579L79.8588 75.4246L79.6165 77.3913L79.6243 77.3923L79.8665 75.4256ZM79.8588 75.4246L80.2112 73.4746C80.2256 73.4772 80.2382 73.4797 80.2486 73.4818C80.259 73.4839 80.2679 73.4858 80.2746 73.4872C80.2813 73.4887 80.2867 73.4899 80.2899 73.4906C80.2929 73.4913 80.2951 73.4918 80.2948 73.4917C80.2948 73.4917 80.2947 73.4917 80.2945 73.4917C80.2943 73.4916 80.2939 73.4915 80.2935 73.4914C80.2927 73.4912 80.2913 73.4909 80.2896 73.4905C80.2864 73.4898 80.2809 73.4885 80.2743 73.4871C80.2675 73.4856 80.2587 73.4836 80.2484 73.4814C80.238 73.4793 80.2255 73.4767 80.2113 73.474L79.8377 75.42L79.4641 77.3661C79.4399 77.3614 79.421 77.3573 79.4116 77.3552C79.4067 77.3541 79.403 77.3533 79.4016 77.3529C79.4008 77.3528 79.3991 77.3524 79.4017 77.353C79.4037 77.3534 79.4167 77.3565 79.4325 77.3599C79.4489 77.3635 79.4748 77.3689 79.5064 77.3746L79.8588 75.4246ZM79.8377 75.42L80.1669 73.466C80.1627 73.4653 80.1591 73.4647 80.1571 73.4644C80.1559 73.4641 80.1555 73.4641 80.1548 73.464C80.1545 73.4639 80.1543 73.4639 80.1542 73.4639C80.154 73.4638 80.154 73.4638 80.154 73.4638C80.154 73.4638 80.1543 73.4639 80.1549 73.464C80.1555 73.4641 80.1563 73.4642 80.1575 73.4644C80.1597 73.4648 80.1633 73.4654 80.1679 73.4663L79.8165 75.4164L79.4651 77.3666C79.4807 77.3694 79.4937 77.3716 79.5002 77.3727C79.5034 77.3732 79.5067 77.3738 79.5077 77.374C79.5093 77.3742 79.5092 77.3742 79.5085 77.3741L79.8377 75.42ZM79.8165 75.4164L80.0588 73.4497L80.052 73.4489L79.8097 75.4156L79.5675 77.3823L79.5742 77.3832L79.8165 75.4164ZM79.8097 75.4156L80.1628 73.4657C80.1054 73.4553 80.0463 73.4442 79.9861 73.4326L79.6106 75.3783L79.2352 77.324C79.3069 77.3378 79.3813 77.3518 79.4566 77.3655L79.8097 75.4156ZM79.6106 75.3783L79.9838 73.4322C79.9863 73.4326 79.9876 73.4329 79.9827 73.4319C79.9809 73.4316 79.9774 73.4309 79.9737 73.4302C79.9699 73.4294 79.9649 73.4284 79.9592 73.4273L79.5837 75.373L79.2083 77.3187C79.2067 77.3184 79.2058 77.3182 79.2117 77.3194C79.2157 77.3202 79.226 77.3222 79.2375 77.3244L79.6106 75.3783ZM79.5837 75.373L79.9761 73.4307L79.9512 73.4256L79.5588 75.368L79.1664 77.3103L79.1913 77.3154L79.5837 75.373ZM79.5588 75.368L79.9362 73.4227C79.2833 73.296 78.655 73.1377 78.0592 72.9598L77.4923 74.8586L76.9254 76.7573C77.6349 76.9692 78.3898 77.1597 79.1813 77.3133L79.5588 75.368ZM77.4923 74.8586L76.6632 73.0587C76.0903 73.3226 75.4146 73.5678 74.665 73.7642L75.1672 75.6811L75.6695 77.598C76.6309 77.346 77.5265 77.0245 78.3213 76.6584L77.4923 74.8586ZM75.1672 75.6811L74.7017 73.7549L74.1004 73.9003L74.5659 75.8264L75.0314 77.7525L75.6327 77.6072L75.1672 75.6811ZM74.5659 75.8264L74.1384 73.8915C74.1075 73.8983 74.0824 73.9046 74.067 73.9086C74.059 73.9106 74.0525 73.9123 74.0483 73.9135C74.0443 73.9145 74.0408 73.9155 74.0405 73.9156C74.0393 73.9159 74.0412 73.9154 74.0436 73.9147C74.0463 73.914 74.0514 73.9127 74.0577 73.911C74.0701 73.9078 74.0922 73.9023 74.1201 73.8961L74.5476 75.831L74.9751 77.766C75.006 77.7591 75.0311 77.7528 75.0465 77.7489C75.0545 77.7468 75.061 77.7451 75.0652 77.744C75.0691 77.7429 75.0726 77.742 75.0729 77.7419C75.0741 77.7416 75.0722 77.7421 75.0697 77.7428C75.067 77.7435 75.062 77.7448 75.0556 77.7465C75.0432 77.7496 75.0212 77.7552 74.9933 77.7613L74.5659 75.8264ZM74.5476 75.831L74.1181 73.8966C74.1211 73.8959 74.1228 73.8955 74.1195 73.8962C74.1186 73.8964 74.1157 73.8971 74.1133 73.8976C74.1105 73.8982 74.1067 73.899 74.1023 73.9L74.5274 75.8354L74.9524 77.7709C74.9514 77.7711 74.951 77.7712 74.9516 77.7711C74.9524 77.7709 74.953 77.7708 74.9554 77.7703C74.9589 77.7695 74.9674 77.7677 74.9771 77.7655L74.5476 75.831ZM74.5274 75.8354L74.1116 73.898L73.963 73.9298L74.3788 75.8673L74.7945 77.8048L74.9431 77.7729L74.5274 75.8354ZM74.3788 75.8673L73.9747 73.9274C73.9465 73.9332 73.9227 73.9388 73.9048 73.9433C73.8866 73.9477 73.8715 73.9517 73.8607 73.9546C73.8499 73.9575 73.8412 73.96 73.8362 73.9614C73.8336 73.9621 73.8315 73.9628 73.8302 73.9631C73.8295 73.9633 73.829 73.9635 73.8286 73.9636C73.8283 73.9637 73.828 73.9638 73.828 73.9638C73.8272 73.964 73.8308 73.9629 73.8352 73.9617C73.8398 73.9604 73.8481 73.9581 73.8585 73.9552C73.8689 73.9524 73.8836 73.9486 73.9013 73.9442C73.9188 73.9399 73.9421 73.9345 73.9696 73.9287L74.3737 75.8687L74.7778 77.8086C74.8057 77.8028 74.8294 77.7972 74.8473 77.7928C74.8654 77.7884 74.8805 77.7844 74.8913 77.7815C74.9022 77.7786 74.9109 77.7761 74.916 77.7747C74.9187 77.7739 74.9208 77.7733 74.9222 77.7729C74.9229 77.7727 74.9234 77.7725 74.9238 77.7724C74.9241 77.7723 74.9244 77.7722 74.9245 77.7722C74.9254 77.772 74.9218 77.773 74.9176 77.7742C74.913 77.7755 74.9048 77.7778 74.8944 77.7806C74.884 77.7834 74.8693 77.7873 74.8516 77.7917C74.8341 77.796 74.8107 77.8015 74.7829 77.8073L74.3788 75.8673ZM74.3737 75.8687L73.9699 73.9287C73.989 73.9247 74.0043 73.9218 74.0135 73.9201C74.0182 73.9193 74.022 73.9186 74.0245 73.9182C74.0268 73.9178 74.0285 73.9175 74.0285 73.9175C74.0286 73.9174 74.0286 73.9174 74.0285 73.9175C74.0283 73.9175 74.0284 73.9175 74.028 73.9175C74.0276 73.9176 74.0268 73.9178 74.0258 73.9179C74.0239 73.9183 74.0205 73.9189 74.0163 73.9196C74.0081 73.921 73.9937 73.9236 73.976 73.9271L74.3576 75.8716L74.7392 77.8161C74.7241 77.8191 74.7124 77.8212 74.707 77.8221C74.7041 77.8226 74.702 77.823 74.7014 77.8231C74.7012 77.8231 74.701 77.8232 74.7013 77.8231C74.7014 77.8231 74.7021 77.823 74.7028 77.8229C74.7051 77.8225 74.7145 77.8208 74.726 77.8187C74.7378 77.8166 74.7558 77.8132 74.7775 77.8087L74.3737 75.8687ZM74.3576 75.8716L73.9311 73.9365C73.9433 73.9338 73.9532 73.9317 73.9595 73.9304C73.9655 73.9292 73.9699 73.9284 73.97 73.9284C73.97 73.9283 73.97 73.9283 73.9698 73.9284C73.9696 73.9284 73.969 73.9285 73.9684 73.9287C73.9673 73.9289 73.9651 73.9293 73.9624 73.9298C73.9572 73.9309 73.9481 73.9327 73.9369 73.935L74.3425 75.8747L74.748 77.8143C74.7394 77.8161 74.7328 77.8174 74.7301 77.818C74.7287 77.8182 74.7277 77.8184 74.7278 77.8184C74.7279 77.8184 74.728 77.8184 74.7284 77.8183C74.7288 77.8182 74.7294 77.8181 74.7301 77.8179C74.7327 77.8174 74.7396 77.8161 74.7482 77.8143C74.757 77.8126 74.7694 77.81 74.7841 77.8067L74.3576 75.8716ZM74.3425 75.8747L73.9384 73.9347C73.9102 73.9406 73.8864 73.9462 73.8685 73.9506C73.8505 73.955 73.8354 73.959 73.8247 73.9619C73.8139 73.9648 73.8052 73.9672 73.8002 73.9686C73.7976 73.9694 73.7955 73.97 73.7942 73.9704C73.7935 73.9706 73.7929 73.9707 73.7926 73.9708C73.7923 73.9709 73.792 73.971 73.792 73.971C73.7911 73.9713 73.7947 73.9702 73.7989 73.969C73.8035 73.9677 73.8117 73.9654 73.822 73.9626C73.8324 73.9598 73.847 73.956 73.8646 73.9516C73.8821 73.9473 73.9055 73.9418 73.9333 73.9361L74.3374 75.876L74.7415 77.8159C74.7696 77.8101 74.7934 77.8045 74.8113 77.8001C74.8294 77.7956 74.8444 77.7917 74.8552 77.7888C74.8659 77.7859 74.8746 77.7834 74.8796 77.782C74.8822 77.7813 74.8844 77.7807 74.8857 77.7803C74.8863 77.7801 74.8869 77.7799 74.8873 77.7798C74.8876 77.7797 74.8879 77.7797 74.8879 77.7796C74.8888 77.7794 74.8852 77.7804 74.8809 77.7816C74.8764 77.7829 74.8681 77.7852 74.8578 77.788C74.8475 77.7908 74.8328 77.7947 74.8152 77.799C74.7977 77.8033 74.7743 77.8088 74.7466 77.8146L74.3425 75.8747ZM74.3374 75.876L74.5796 73.9093L74.5787 73.9092L74.3364 75.8759L74.0941 77.8426L74.0951 77.8427L74.3374 75.876ZM74.3364 75.8759L73.934 73.9356C73.8899 73.9447 73.8483 73.9532 73.8083 73.961L74.1881 75.9058L74.5678 77.8507C74.6266 77.8392 74.6839 77.8276 74.7388 77.8162L74.3364 75.8759ZM74.1881 75.9058L73.806 73.9614C73.8279 73.9571 73.8454 73.9541 73.8554 73.9524C73.8605 73.9516 73.8645 73.9509 73.8666 73.9506C73.8686 73.9503 73.87 73.95 73.8689 73.9502C73.8686 73.9503 73.8655 73.9507 73.8622 73.9513C73.8586 73.9519 73.8531 73.9527 73.8465 73.9538C73.8335 73.956 73.8131 73.9595 73.7882 73.9644L74.168 75.9092L74.5478 77.8541C74.5262 77.8583 74.5091 77.8612 74.4995 77.8629C74.4946 77.8637 74.4908 77.8643 74.4888 77.8646C74.4872 77.8649 74.4858 77.8651 74.4871 77.8649C74.4877 77.8648 74.4909 77.8643 74.4944 77.8637C74.4983 77.8631 74.5039 77.8622 74.5107 77.861C74.5241 77.8588 74.5449 77.8552 74.5701 77.8502L74.1881 75.9058ZM74.168 75.9092L73.7759 73.9668L73.7577 73.9705L74.1498 75.9129L74.5419 77.8553L74.5601 77.8517L74.168 75.9092ZM74.1498 75.9129L73.7721 73.9677C72.3031 74.2529 71.0198 74.2721 70.1404 74.1284C69.696 74.0558 69.4457 73.9563 69.3418 73.8983C69.2313 73.8366 69.4438 73.9177 69.5516 74.2623L67.6603 74.8538L65.769 75.4452C66.0695 76.406 66.78 77.0071 67.4103 77.3589C68.0474 77.7145 68.781 77.922 69.5013 78.0397C70.9511 78.2766 72.7199 78.2092 74.5276 77.8582L74.1498 75.9129ZM67.6603 74.8538L69.2223 73.6344L69.2206 73.6322L67.6586 74.8516L66.0966 76.071L66.0983 76.0731L67.6603 74.8538ZM67.6586 74.8516L69.4867 74.0869C69.3913 73.8589 69.2381 73.5382 69.1264 72.9283C69.0121 72.304 68.9362 71.3259 69.1249 69.9062L67.1605 69.6452L65.1962 69.3842C64.9567 71.187 65.0342 72.5833 65.2281 73.6422C65.4246 74.7155 65.7345 75.3868 65.8305 75.6163L67.6586 74.8516ZM67.1605 69.6452L69.1249 69.9061C69.3298 68.3632 69.953 66.6781 70.7061 65.3618L68.9862 64.3777L67.2663 63.3936C66.2975 65.0867 65.4785 67.2587 65.1962 69.3843L67.1605 69.6452ZM68.9862 64.3777L70.7061 65.3619C70.8123 65.1764 70.9624 64.8316 71.0692 64.5638C71.1688 64.3138 71.3632 63.809 71.4278 63.3506L69.4656 63.074L67.5034 62.7974C67.5103 62.7487 67.5168 62.7268 67.5131 62.7414C67.5103 62.7523 67.5036 62.7763 67.4912 62.8144C67.4661 62.8919 67.4302 62.9898 67.3877 63.0963C67.346 63.2009 67.3041 63.2988 67.271 63.3725C67.2545 63.4094 67.2422 63.4356 67.2352 63.4503C67.2316 63.4577 67.2312 63.4585 67.2335 63.454C67.2347 63.4516 67.2377 63.4457 67.2422 63.4373C67.2462 63.4297 67.2545 63.4141 67.2663 63.3935L68.9862 64.3777ZM69.4656 63.074L71.4231 63.3822C71.5004 62.8914 71.5008 62.3915 71.4224 61.8999L69.4655 62.212L67.5087 62.5242C67.5208 62.6004 67.5214 62.6815 67.5081 62.7658L69.4656 63.074ZM69.4655 62.212L71.4175 61.8708C71.2468 60.8942 70.6991 60.1714 70.3375 59.7697C69.9793 59.3716 69.5248 59.0115 69.6305 59.1046L68.3201 60.5911L67.0098 62.0776C67.0541 62.1167 67.0992 62.1526 67.1008 62.1539C67.1191 62.1686 67.1238 62.1724 67.1384 62.1842C67.1604 62.202 67.1847 62.2221 67.2119 62.2457C67.268 62.2943 67.3318 62.3543 67.3917 62.4209C67.4533 62.4894 67.4935 62.5458 67.5156 62.5841C67.538 62.6229 67.5237 62.6117 67.5135 62.5533L69.4655 62.212ZM68.3201 60.5911L69.3654 58.9076C69.3536 58.9003 69.337 58.8896 69.3139 58.874L68.2044 60.5158L67.095 62.1577C67.1476 62.1933 67.2084 62.2333 67.2749 62.2746L68.3201 60.5911ZM68.2044 60.5158L69.3162 58.8755C68.9935 58.6568 68.7635 58.3666 68.634 58.0469L66.7974 58.7908L64.9607 59.5348C65.3937 60.6037 66.1389 61.5098 67.0927 62.1562L68.2044 60.5158ZM66.7974 58.7908L68.6341 58.0471C68.5048 57.7279 68.4721 57.3711 68.5504 57.01L66.6139 56.5898L64.6774 56.1696C64.4328 57.2966 64.5277 58.4654 64.9606 59.5346L66.7974 58.7908ZM66.6139 56.5898L68.5504 57.0103C68.6294 56.6461 68.8216 56.2805 69.1274 55.9682L67.7114 54.5819L66.2954 53.1957C65.4907 54.0176 64.9216 55.0447 64.6774 56.1693L66.6139 56.5898ZM67.7114 54.5819L69.1273 55.9683C69.4335 55.6555 69.8347 55.4167 70.2854 55.2914L69.7542 53.3823L69.2231 51.4732C68.1152 51.7814 67.0996 52.3743 66.2955 53.1956L67.7114 54.5819ZM69.7542 53.3823L70.2335 55.305C70.2194 55.3085 70.2085 55.3111 70.2044 55.312C70.1992 55.3133 70.1952 55.3142 70.193 55.3146C70.1907 55.3152 70.189 55.3156 70.1881 55.3158C70.1871 55.316 70.1865 55.3161 70.1864 55.3161C70.1861 55.3162 70.1867 55.3161 70.1884 55.3157C70.19 55.3154 70.1921 55.3149 70.1949 55.3143C70.2064 55.3118 70.2236 55.3082 70.2458 55.3035C70.2897 55.2943 70.3474 55.2822 70.4055 55.2702C70.4635 55.2581 70.5207 55.2462 70.5634 55.2374C70.5851 55.233 70.6017 55.2295 70.6125 55.2273C70.6183 55.2262 70.6202 55.2258 70.6196 55.2259C70.6193 55.226 70.6184 55.2261 70.6171 55.2264C70.6158 55.2266 70.6134 55.2271 70.6101 55.2277C70.6075 55.2283 70.6009 55.2295 70.5922 55.2311C70.5879 55.2319 70.5805 55.2332 70.5713 55.2347C70.5642 55.2359 70.5454 55.2391 70.5213 55.2425L70.241 53.2809L69.9607 51.3192C69.8728 51.3318 69.6438 51.3806 69.5979 51.3901C69.5198 51.4064 69.3354 51.4445 69.2749 51.4595L69.7542 53.3823ZM70.241 53.2809L70.5195 55.2428C70.9797 55.1774 71.4288 55.237 71.8146 55.3968L72.5732 53.5662L73.3318 51.7356C72.2696 51.2953 71.1022 51.1571 69.9624 51.319L70.241 53.2809ZM72.5732 53.5662L71.8144 55.3967C72.1991 55.5562 72.4998 55.8057 72.7006 56.0985L74.3347 54.9777L75.9689 53.8568C75.3163 52.9054 74.3955 52.1765 73.332 51.7356L72.5732 53.5662ZM74.3347 54.9777L72.7006 56.0985C72.9008 56.3904 73.0053 56.7289 73.0048 57.081L74.9864 57.0839L76.968 57.0868C76.9697 55.9311 76.6221 54.8092 75.9689 53.8569L74.3347 54.9777ZM74.9864 57.0839L73.0048 57.0808C73.0043 57.434 72.8972 57.808 72.6698 58.1557L74.3282 59.2403L75.9866 60.3249C76.6162 59.3622 76.9662 58.2414 76.968 57.087L74.9864 57.0839ZM74.3282 59.2403L72.6728 58.1511C72.6506 58.1849 72.64 58.2005 72.6334 58.2097L74.25 59.3556L75.8666 60.5016C75.9139 60.4349 75.9549 60.3732 75.9836 60.3295L74.3282 59.2403ZM74.25 59.3556L72.4704 58.484C72.5303 58.3618 72.2497 58.867 72.0693 59.3717C71.8883 59.8779 71.6527 60.7549 71.8572 61.7205L73.7958 61.3099L75.7344 60.8993C75.7466 60.9568 75.7372 60.9695 75.7441 60.9193C75.751 60.8702 75.7684 60.7974 75.8012 60.7057C75.8331 60.6165 75.8711 60.5325 75.9058 60.463C75.9226 60.4293 75.9381 60.4002 75.952 60.3744C75.9611 60.3575 75.9643 60.3519 75.9755 60.3312C75.9767 60.329 76.0041 60.2793 76.0296 60.2273L74.25 59.3556ZM73.7958 61.3099L71.8636 61.7495C71.9737 62.2333 72.16 62.6986 72.4177 63.1272L74.1159 62.106L75.8141 61.0848C75.7745 61.019 75.7454 60.9467 75.728 60.8702L73.7958 61.3099ZM74.1159 62.106L72.4017 63.1C72.6807 63.5812 73.1853 64.0797 73.374 64.2653L74.7638 62.8529L76.1537 61.4405C76.0568 61.3452 75.9578 61.2434 75.8782 61.1542C75.8387 61.11 75.8128 61.0786 75.7985 61.0603C75.7797 61.0363 75.7979 61.0563 75.8301 61.1119L74.1159 62.106ZM74.7638 62.8529L76.385 63.9924C77.3785 62.5789 78.6445 61.2745 79.8851 60.2974L78.6591 58.7407L77.4331 57.1839C75.904 58.3881 74.3678 59.9704 73.1426 61.7134L74.7638 62.8529ZM78.6591 58.7407L79.8873 60.2957C80.0703 60.1512 80.395 59.8346 80.6563 59.5604C80.9023 59.3024 81.3386 58.8293 81.6 58.3695L79.8773 57.3902L78.1546 56.4109C78.1789 56.3681 78.1678 56.3952 78.0757 56.506C77.9971 56.6005 77.8968 56.7114 77.7877 56.8259C77.6802 56.9387 77.5755 57.0428 77.4937 57.1216C77.4528 57.161 77.4212 57.1905 77.4008 57.2092C77.3676 57.2395 77.386 57.221 77.4308 57.1856L78.6591 58.7407ZM79.8773 57.3902L81.584 58.3971C81.8844 57.8879 82.1017 57.3346 82.2263 56.7564L80.2892 56.3389L78.352 55.9215C78.3178 56.0805 78.2573 56.2363 78.1705 56.3833L79.8773 57.3902ZM80.2892 56.3389L82.2324 56.727C82.4556 55.6096 82.1636 54.5854 81.9263 53.9676C81.6902 53.3527 81.3403 52.7655 81.3987 52.8776L79.6414 53.7934L77.8842 54.7092C78.0073 54.9455 78.0971 55.0514 78.2266 55.3885C78.3548 55.7224 78.3543 55.9089 78.346 55.9508L80.2892 56.3389ZM79.6414 53.7934L81.2234 52.6C81.1976 52.5658 81.1769 52.5374 81.1599 52.5129L79.5337 53.6453L77.9076 54.7777C77.96 54.853 78.0114 54.9231 78.0595 54.9867L79.6414 53.7934ZM79.5337 53.6453L81.1614 52.5151C80.7895 51.9795 80.602 51.387 80.5917 50.8092L78.6104 50.8444L76.6292 50.8797C76.654 52.2741 77.1061 53.6234 77.906 54.7755L79.5337 53.6453ZM78.6104 50.8444L80.5917 50.8092C80.5815 50.2326 80.747 49.6674 81.0791 49.1734L79.4346 48.0679L77.79 46.9624C77.0095 48.1235 76.6044 49.4838 76.6292 50.8796L78.6104 50.8444ZM79.4346 48.0679L81.0791 49.1735C81.4129 48.677 81.9129 48.2563 82.5442 47.9827L81.756 46.1646L80.9678 44.3465C79.6785 44.9055 78.5689 45.8039 77.7901 46.9623L79.4346 48.0679ZM81.756 46.1646L82.5442 47.9827C83.176 47.7088 83.9033 47.5992 84.6407 47.683L84.8646 45.7141L85.0886 43.7452C83.6837 43.5855 82.2564 43.7879 80.9678 44.3465L81.756 46.1646ZM84.8646 45.7141L84.6389 47.6828C84.6047 47.6789 84.5781 47.6749 84.5748 47.6744C84.5659 47.6731 84.5591 47.672 84.5562 47.6715C84.5528 47.671 84.5502 47.6706 84.549 47.6704C84.5477 47.6701 84.5469 47.67 84.5467 47.67C84.5464 47.6699 84.5473 47.6701 84.5495 47.6705C84.5517 47.6708 84.5546 47.6713 84.5583 47.672C84.5736 47.6746 84.5965 47.6787 84.626 47.6839C84.6844 47.6942 84.7619 47.708 84.8403 47.7221C84.9187 47.7361 84.9967 47.7501 85.0561 47.7609C85.086 47.7663 85.1099 47.7706 85.1265 47.7737C85.135 47.7752 85.1398 47.7761 85.1417 47.7765C85.1428 47.7767 85.1411 47.7764 85.1377 47.7757C85.1361 47.7754 85.1323 47.7747 85.1272 47.7736C85.124 47.773 85.1113 47.7705 85.0948 47.7668L85.5183 45.8311L85.9419 43.8953C85.8814 43.882 85.6572 43.8421 85.5388 43.8209C85.4513 43.8052 85.1818 43.7559 85.0904 43.7454L84.8646 45.7141Z" fill="url(#paint1_linear_118_1863)" mask="url(#path-3-outside-1_118_1863)"/>
</g>
<path d="M89.3702 67.097C89.0066 64.7031 88.0039 62.2004 86.8217 60.2571C86.738 60.1194 86.2333 59.0674 86.1529 58.5657C86.0864 58.1906 86.0804 57.8103 86.1351 57.4372C86.3241 56.2701 87.529 55.3725 87.6333 55.2786C87.6849 55.2456 87.7359 55.2118 87.7861 55.1771C88.6313 54.5905 89.2714 53.792 89.6329 52.8731C89.9945 51.9543 90.0628 50.9523 89.8302 49.9821C89.5975 49.0119 89.0733 48.1128 88.3176 47.3879C87.5618 46.6629 86.6052 46.1415 85.5574 45.8834C85.5436 45.88 84.9216 45.7684 84.9038 45.7663C83.8325 45.6444 82.755 45.8005 81.7946 46.2169C80.8343 46.6333 80.0299 47.293 79.4736 48.1206C78.9172 48.9481 78.6315 49.9101 78.649 50.8963C78.6665 51.8826 78.9866 52.8532 79.5726 53.6971C79.6073 53.7471 79.6432 53.7966 79.6802 53.8455C79.745 53.9699 80.5596 55.2314 80.328 56.3908C80.2486 56.7595 80.1099 57.1137 79.9162 57.4419C79.6653 57.8838 78.8241 58.6934 78.6974 58.7931C76.9094 60.2012 75.0937 62.196 73.9148 64.3121C71.8434 68.0297 72.0266 70.2549 72.0457 70.9077C72.0458 70.9091 72.0456 70.9104 72.0458 70.9115C71.9355 72.6052 75.2253 74.5718 79.5979 75.4201L79.5979 75.4202C79.6061 75.4218 79.6143 75.4233 79.6224 75.4249C79.6316 75.4267 79.6407 75.4284 79.6499 75.4302C79.7158 75.4429 79.7817 75.4556 79.8481 75.4676L79.8483 75.4677L79.8493 75.4678C79.8513 75.4682 79.8534 75.4686 79.8554 75.469C79.8625 75.4703 79.8696 75.4715 79.8767 75.4727C79.8838 75.474 79.8909 75.4754 79.898 75.4767C79.9001 75.477 79.9021 75.4774 79.9042 75.4777L79.9051 75.4779L79.9053 75.4779C79.9717 75.4898 80.0379 75.501 80.1042 75.5121C80.1133 75.5136 80.1225 75.5152 80.1317 75.5167C80.1399 75.5181 80.1481 75.5194 80.1563 75.5208L80.1564 75.5207C84.5502 76.252 88.3209 75.5578 88.8107 73.9324C88.8112 73.9315 88.8114 73.9302 88.812 73.9289C89.0585 73.3239 90.0093 71.303 89.3702 67.097Z" fill="url(#paint2_linear_118_1863)"/>
<path d="M88.414 66.684C88.1287 64.363 87.2774 61.9465 86.258 60.0763C86.1858 59.9439 85.7541 58.9293 85.6906 58.443C85.6374 58.0776 85.6381 57.7087 85.6925 57.3465C85.8786 56.2094 86.9626 55.3182 87.0567 55.2254C87.1031 55.1925 87.1488 55.1588 87.194 55.1243C88.1668 54.3779 88.8763 53.2795 89.1119 51.9759C89.576 49.4084 88.0601 47.0811 85.6365 46.3343C85.4599 46.281 85.2806 46.2363 85.0993 46.2003C84.9305 46.1706 84.6575 46.1449 84.5614 46.1391C82.0245 45.9865 79.5848 47.6037 79.1199 50.1754C78.8843 51.4789 79.2732 52.7753 79.9233 53.8142C79.9534 53.8622 79.9845 53.9098 80.0165 53.9568C80.0721 54.0766 80.7758 55.2899 80.552 56.4203C80.4762 56.7786 80.3476 57.1244 80.1698 57.4482C79.94 57.8816 79.1804 58.6815 79.0663 58.7804C77.4565 60.1768 75.8128 62.1438 74.7328 64.2187C72.8351 67.864 72.963 70.0237 72.9697 70.6578C72.9698 70.6592 72.9695 70.6605 72.9697 70.6615C72.8452 72.3093 75.7358 74.1691 79.6056 74.9253L79.6056 74.9254C79.6128 74.9268 79.6201 74.9282 79.6273 74.9296C79.6354 74.9312 79.6435 74.9327 79.6516 74.9343C79.7099 74.9456 79.7683 74.9569 79.827 74.9676L79.8272 74.9676L79.828 74.9678C79.8299 74.9681 79.8317 74.9684 79.8335 74.9688C79.8398 74.9699 79.8461 74.971 79.8524 74.972C79.8586 74.9732 79.8649 74.9744 79.8712 74.9756C79.873 74.9759 79.8748 74.9762 79.8766 74.9765L79.8775 74.9767L79.8777 74.9767C79.9365 74.9872 79.9951 74.997 80.0537 75.0067C80.0618 75.0081 80.07 75.0095 80.0781 75.0108C80.0854 75.012 80.0926 75.0132 80.0999 75.0145L80.0999 75.0143C83.9903 75.6565 87.3497 74.9229 87.8101 73.3356C87.8106 73.3347 87.8108 73.3335 87.8114 73.3322C88.0397 72.7404 88.9156 70.7616 88.414 66.684Z" fill="url(#paint3_linear_118_1863)"/>
<g style="mix-blend-mode:overlay">
<path d="M88.477 66.6737C88.1916 64.3528 87.3403 61.9362 86.321 60.0661C86.2488 59.9336 85.8171 58.919 85.7536 58.4328C85.7004 58.0673 85.701 57.6985 85.7554 57.3363C85.9415 56.1991 87.0256 55.308 87.1196 55.2151C87.166 55.1822 87.2118 55.1485 87.2569 55.1141C88.2297 54.3676 88.9392 53.2692 89.1749 51.9656C89.6574 49.2965 87.9769 46.7402 85.3865 46.1076L85.3876 46.1013C85.3267 46.088 85.2656 46.0756 85.2036 46.0645C85.1827 46.0607 85.1619 46.0575 85.141 46.054C85.1202 46.05 85.0995 46.0457 85.0786 46.0419C85.0166 46.0308 84.955 46.021 84.8933 46.0122L84.8922 46.0185C82.2437 45.7071 79.7742 47.5156 79.2917 50.1847C79.056 51.4883 79.3362 52.765 79.9863 53.8039C80.0164 53.852 80.0475 53.8995 80.0795 53.9465C80.1351 54.0663 80.8388 55.2796 80.615 56.41C80.5391 56.7683 80.4106 57.1141 80.2328 57.438C80.003 57.8714 79.2433 58.6712 79.1293 58.7702C77.5195 60.1665 75.8758 62.1335 74.7958 64.2084C72.8981 67.8537 73.0259 70.0134 73.0326 70.6476C73.0327 70.6489 73.0325 70.6502 73.0326 70.6512C72.9082 72.299 75.7988 74.1588 79.6686 74.915L79.6685 74.9151C79.6758 74.9165 79.683 74.9179 79.6903 74.9193C79.6983 74.9209 79.7064 74.9224 79.7145 74.924C79.7729 74.9353 79.8312 74.9466 79.89 74.9573L79.8902 74.9574L79.891 74.9575C79.8928 74.9578 79.8946 74.9582 79.8965 74.9585C79.9027 74.9596 79.909 74.9607 79.9153 74.9617C79.9216 74.9629 79.9279 74.9642 79.9342 74.9653C79.936 74.9656 79.9378 74.9659 79.9396 74.9662L79.9405 74.9664L79.9406 74.9664C79.9994 74.9769 80.058 74.9867 80.1167 74.9965C80.1248 74.9978 80.1329 74.9992 80.1411 75.0005C80.1483 75.0018 80.1556 75.003 80.1629 75.0042L80.1629 75.0041C84.0533 75.6462 87.4127 74.9126 87.8731 73.3254C87.8735 73.3245 87.8738 73.3232 87.8743 73.3219C88.1027 72.7302 88.9786 70.7513 88.477 66.6737Z" fill="url(#paint4_radial_118_1863)"/>
</g>
<path d="M88.4773 66.6713C88.192 64.3504 87.3407 61.9338 86.3213 60.0637C86.2491 59.9312 85.8174 58.9167 85.7539 58.4304C85.7007 58.0649 85.7013 57.6961 85.7557 57.3339C85.9419 56.1967 87.0259 55.3056 87.12 55.2127C87.1663 55.1798 87.2121 55.1462 87.2573 55.1117C88.2301 54.3652 88.9396 53.2668 89.1752 51.9632C89.6535 49.3172 88.0062 46.782 85.4538 46.122C85.4315 46.1163 84.8638 46.0128 84.8495 46.0113C82.2173 45.7243 79.7719 47.5277 79.292 50.1823C79.0564 51.4859 79.3365 52.7626 79.9866 53.8016C80.0167 53.8496 80.0478 53.8971 80.0798 53.9441C80.1354 54.064 80.8391 55.2772 80.6153 56.4076C80.5395 56.7659 80.4109 57.1117 80.2331 57.4356C80.0033 57.869 79.2437 58.6689 79.1296 58.7678C77.5198 60.1642 75.8761 62.1311 74.7961 64.206C72.8984 67.8513 73.0262 70.011 73.033 70.6452C73.033 70.6465 73.0328 70.6478 73.033 70.6488C72.9085 72.2966 75.7991 74.1564 79.6689 74.9126L79.6689 74.9127C79.6761 74.9141 79.6834 74.9155 79.6906 74.9169C79.6987 74.9185 79.7068 74.9201 79.7149 74.9216C79.7732 74.933 79.8315 74.9443 79.8903 74.9549L79.8905 74.955L79.8913 74.9551C79.8932 74.9554 79.895 74.9558 79.8968 74.9561C79.9031 74.9573 79.9094 74.9583 79.9157 74.9594C79.9219 74.9606 79.9282 74.9618 79.9345 74.9629C79.9363 74.9632 79.9381 74.9635 79.9399 74.9639L79.9408 74.964L79.941 74.964C79.9997 74.9746 80.0584 74.9843 80.117 74.9941C80.1251 74.9955 80.1333 74.9968 80.1414 74.9982C80.1487 74.9994 80.1559 75.0006 80.1632 75.0018L80.1632 75.0017C84.0536 75.6438 87.413 74.9102 87.8734 73.323C87.8739 73.3221 87.8741 73.3208 87.8747 73.3196C88.103 72.7278 88.9789 70.7489 88.4773 66.6713Z" fill="url(#paint5_radial_118_1863)"/>
<path d="M87.1826 72.7278C87.1824 72.7289 87.1821 72.73 87.1816 72.731C86.7649 74.1548 83.6824 74.801 80.1068 74.2094L80.1068 74.2097L80.0868 74.2061C80.0794 74.205 80.072 74.2037 80.0644 74.2023C80.0105 74.1935 79.9568 74.1845 79.9027 74.1747L79.8561 74.1663C79.8021 74.1566 79.7485 74.1463 79.695 74.1358C79.6873 74.1344 79.68 74.1331 79.6727 74.1314L79.6527 74.1278L79.6528 74.1275C76.0957 73.4339 73.4339 71.7526 73.5419 70.2732C73.5422 70.2721 73.5422 70.271 73.5422 70.2699C73.5399 70.1074 73.5278 69.8332 73.5521 69.4478C75.335 71.2544 77.447 72.2717 79.5964 72.1406C83.0564 71.9295 86.2093 68.7385 87.1791 64.3147C87.4227 65.1183 87.6005 65.9355 87.711 66.7597C88.1871 70.4234 87.39 72.1975 87.1826 72.7278Z" fill="url(#paint6_linear_118_1863)"/>
<g style="mix-blend-mode:overlay">
<path d="M79.8925 50.4376C79.9947 49.8726 80.2179 49.3351 80.5495 48.8558C80.881 48.3766 81.3145 47.9649 81.825 47.6444C82.3355 47.3239 82.9131 47.1007 83.5249 46.9877C84.1366 46.8747 84.7705 46.874 85.3904 46.9857" stroke="#FFF8B1" stroke-width="0.950735" stroke-linecap="round" stroke-linejoin="round"/>
</g>
<path d="M73.9239 69.4138C74.7433 64.8809 77.1032 61.2071 79.5302 59.4882" stroke="#FAEE88" stroke-width="0.727033" stroke-linecap="round" stroke-linejoin="round"/>
<path d="M86.9577 55.4622C87.0041 55.4293 87.0499 55.3957 87.095 55.3612C88.0678 54.6147 88.7773 53.5163 89.013 52.2127C89.4771 49.6452 87.9611 47.318 85.5376 46.5712C85.361 46.5179 85.1816 46.4731 85.0004 46.4371C84.8316 46.4074 84.5586 46.3817 84.4625 46.3759C81.9255 46.2233 79.4859 47.8406 79.021 50.4122C78.7853 51.7158 79.1743 53.0122 79.8244 54.0511C79.8545 54.0991 79.8856 54.1466 79.9176 54.1937C79.9691 54.3047 80.5768 55.3549 80.4874 56.4079C80.582 56.4278 80.677 56.4469 80.7729 56.4642C82.6675 56.8056 84.9455 56.3836 86.8909 55.5233C86.9237 55.4936 86.9472 55.4726 86.9577 55.4622Z" fill="url(#paint7_linear_118_1863)"/>
<path d="M82.3613 50.971C82.7566 51.0422 83.1674 50.6004 83.2788 49.9841C83.3902 49.3679 83.16 48.8106 82.7647 48.7393C82.3694 48.6681 81.9586 49.1099 81.8472 49.7262C81.7358 50.3424 81.966 50.8997 82.3613 50.971Z" fill="#F7EA69"/>
<path d="M82.3846 50.8418C82.7799 50.913 83.1907 50.4712 83.3021 49.855C83.4135 49.2387 83.1833 48.6814 82.788 48.6102C82.3927 48.5389 81.982 48.9808 81.8706 49.597C81.7592 50.2133 81.9893 50.7706 82.3846 50.8418Z" fill="#F28422"/>
<path d="M82.788 48.6102C82.3927 48.5389 81.982 48.9808 81.8706 49.597C81.864 49.6334 81.8587 49.6696 81.8545 49.7056C81.9915 49.1462 82.3771 48.759 82.749 48.826C83.1209 48.8931 83.3466 49.3904 83.2791 49.9623C83.2878 49.9272 83.2955 49.8914 83.3021 49.855C83.4135 49.2387 83.1833 48.6814 82.788 48.6102Z" fill="#C45C00"/>
<path d="M86.2882 51.6785C86.6835 51.7497 87.0943 51.3079 87.2057 50.6916C87.3171 50.0754 87.0869 49.5181 86.6916 49.4468C86.2963 49.3756 85.8856 49.8174 85.7742 50.4337C85.6628 51.0499 85.8929 51.6072 86.2882 51.6785Z" fill="#F7EA69"/>
<path d="M86.3116 51.5494C86.7069 51.6207 87.1176 51.1789 87.229 50.5626C87.3404 49.9464 87.1103 49.389 86.715 49.3178C86.3197 49.2466 85.9089 49.6884 85.7975 50.3047C85.6861 50.9209 85.9163 51.4782 86.3116 51.5494Z" fill="#F28422"/>
<path d="M86.715 49.3178C86.3197 49.2466 85.9089 49.6884 85.7975 50.3047C85.7909 50.3411 85.7856 50.3773 85.7814 50.4132C85.9185 49.8539 86.304 49.4667 86.6759 49.5337C87.0479 49.6007 87.2735 50.0981 87.2061 50.6699C87.2147 50.6348 87.2224 50.599 87.229 50.5626C87.3404 49.9464 87.1103 49.389 86.715 49.3178Z" fill="#C45C00"/>
<path d="M85.641 53.1057C85.1668 53.4035 84.5769 53.5125 84.0011 53.4087C83.4253 53.305 82.9108 52.997 82.5707 52.5525" stroke="#F7EA6B" stroke-width="1.23036" stroke-linecap="round" stroke-linejoin="round"/>
<path d="M85.661 53.0266C85.1868 53.3244 84.5969 53.4334 84.0211 53.3296C83.4453 53.2259 82.9308 52.9179 82.5907 52.4734" stroke="#F28422" stroke-width="1.23036" stroke-linecap="round" stroke-linejoin="round"/>
<path d="M82.4232 52.3651C82.4797 52.3297 82.55 52.3167 82.6186 52.329C82.6872 52.3414 82.7485 52.3781 82.7891 52.431C82.9374 52.6249 83.125 52.7913 83.3412 52.9207C83.5573 53.0501 83.7979 53.14 84.049 53.1853C84.3001 53.2305 84.557 53.2302 84.8048 53.1844C85.0527 53.1386 85.2867 53.0482 85.4935 52.9184C85.5215 52.9008 85.5532 52.8886 85.5867 52.8824C85.6202 52.8762 85.655 52.8761 85.6889 52.8823C85.7229 52.8884 85.7554 52.9005 85.7847 52.9181C85.8139 52.9356 85.8393 52.9581 85.8593 52.9843C85.8901 53.0245 85.9081 53.1151 85.9081 53.1151L85.9081 53.1152C85.9285 53.0676 85.9315 53.0147 85.9164 52.9644C85.9013 52.914 85.869 52.869 85.8244 52.836C85.7798 52.803 85.7252 52.7837 85.6687 52.7811C85.6122 52.7785 85.5569 52.7927 85.511 52.8215C85.3042 52.9514 85.0702 53.0418 84.8223 53.0876C84.5745 53.1334 84.3176 53.1337 84.0665 53.0884C83.8154 53.0432 83.5748 52.9533 83.3587 52.8239C83.1425 52.6944 82.9549 52.5281 82.8066 52.3342C82.7737 52.2912 82.7268 52.2586 82.673 52.2413C82.6192 52.2241 82.5613 52.223 82.5079 52.2384C82.4545 52.2537 82.4085 52.2847 82.3768 52.3265C82.345 52.3684 82.3292 52.419 82.3317 52.4708C82.35 52.4278 82.3818 52.3911 82.4232 52.3651V52.3651Z" fill="#C45C00"/>
<path opacity="0.4" d="M89.3519 66.245C86.9524 68.2723 83.9259 69.2561 80.8718 68.7058C78.0611 68.1993 75.7272 66.4835 74.174 64.0799C74.1316 64.1529 74.09 64.226 74.049 64.2993C71.9777 68.0169 72.1608 70.2422 72.1799 70.895C72.18 70.8963 72.1798 70.8977 72.18 70.8987C72.0698 72.5925 75.3595 74.559 79.7322 75.4073L79.7321 75.4074C79.7403 75.409 79.7485 75.4106 79.7567 75.4122C79.7658 75.4139 79.7749 75.4157 79.7841 75.4174C79.85 75.4302 79.9159 75.4428 79.9823 75.4549L79.9825 75.4549L79.9835 75.4551C79.9855 75.4554 79.9876 75.4559 79.9896 75.4562C79.9967 75.4575 80.0038 75.4587 80.011 75.4599C80.018 75.4613 80.0251 75.4626 80.0322 75.4639C80.0343 75.4643 80.0363 75.4646 80.0384 75.465L80.0393 75.4652L80.0395 75.4652C80.106 75.4771 80.1721 75.4882 80.2384 75.4993C80.2476 75.5009 80.2568 75.5024 80.2659 75.5039C80.2741 75.5053 80.2823 75.5067 80.2906 75.5081L80.2906 75.508C84.6844 76.2393 88.4551 75.545 88.9449 73.9197C88.9454 73.9187 88.9457 73.9174 88.9463 73.9162C89.1927 73.3112 90.1435 71.2903 89.5044 67.0843C89.4621 66.8056 89.4113 66.5259 89.3519 66.245Z" fill="url(#paint8_linear_118_1863)"/>
<path d="M78.6806 67.5722C77.7925 65.8916 76.4092 64.3035 75.0404 63.1798C74.9435 63.1002 74.3013 62.4552 74.1121 62.1041C73.966 61.8434 73.8627 61.5624 73.8056 61.2703C73.6401 60.3517 74.2866 59.358 74.3383 59.2599C74.3674 59.2214 74.3958 59.1824 74.4235 59.1431C74.8882 58.4779 75.148 57.7109 75.1731 56.9301C75.1981 56.1492 74.9875 55.386 74.5652 54.728C74.143 54.0701 73.5263 53.544 72.7858 53.2102C72.0453 52.8763 71.2111 52.7481 70.3787 52.8404C70.3677 52.8416 69.8844 52.9273 69.8709 52.9306C69.0568 53.1304 68.3105 53.5386 67.7174 54.1084C67.1243 54.6782 66.7084 55.3866 66.5174 56.1524C66.3263 56.9183 66.3678 57.7107 66.6371 58.4389C66.9064 59.1671 67.3926 59.8016 68.04 60.2699C68.0785 60.2976 68.1175 60.3247 68.1573 60.3511C68.2369 60.4259 69.16 61.1426 69.2924 62.067C69.3303 62.3625 69.3211 62.6634 69.265 62.9598C69.1967 63.3563 68.7929 64.186 68.7263 64.2944C67.7867 65.8256 66.9794 67.8004 66.6689 69.6926C66.123 73.017 66.8355 74.6211 67.0192 75.1011C67.0197 75.1021 67.0199 75.1031 67.0203 75.1038C67.3803 76.3925 70.2943 76.9621 73.7084 76.407L73.7084 76.4071C73.7148 76.4061 73.7212 76.405 73.7276 76.404C73.7347 76.4028 73.7418 76.4016 73.749 76.4005C73.8004 76.392 73.8519 76.3836 73.9035 76.3745L73.9036 76.3745L73.9044 76.3744C73.906 76.3741 73.9076 76.3738 73.9092 76.3736C73.9147 76.3726 73.9202 76.3716 73.9257 76.3705C73.9312 76.3696 73.9368 76.3687 73.9423 76.3677C73.9439 76.3674 73.9455 76.3671 73.9471 76.3668L73.9478 76.3667L73.948 76.3667C73.9996 76.3575 74.0508 76.3478 74.102 76.3381C74.1092 76.3368 74.1163 76.3355 74.1234 76.3341C74.1297 76.3329 74.1361 76.3317 74.1424 76.3305L74.1424 76.3304C77.5415 75.6827 80.1148 74.1444 80.0498 72.8037C80.0499 72.8029 80.0497 72.8019 80.0499 72.8008C80.0725 72.2843 80.2413 70.5247 78.6806 67.5722Z" fill="url(#paint9_linear_118_1863)"/>
<path d="M77.8749 67.5238C77.0628 65.8763 75.8126 64.3112 74.5817 63.1977C74.4945 63.1188 73.9154 62.4819 73.7425 62.1377C73.6086 61.8805 73.5132 61.6062 73.4587 61.3223C73.2989 60.4267 73.8588 59.4706 73.9033 59.3761C73.9287 59.339 73.9533 59.3016 73.9773 59.2637C74.4937 58.4452 74.7261 57.4366 74.5592 56.4039C74.2304 54.37 72.5179 53.0514 70.5538 53.1535C70.4109 53.1617 70.2683 53.1771 70.1266 53.1995C69.9955 53.2232 69.7895 53.2781 69.7178 53.2998C67.8253 53.8742 66.4642 55.7375 66.7935 57.7748C66.9605 58.8074 67.5817 59.6654 68.3267 60.2613C68.3611 60.2888 68.3962 60.3157 68.4318 60.3419C68.5036 60.4159 69.3331 61.1268 69.4636 62.0276C69.5014 62.3144 69.4975 62.6062 69.4519 62.8951C69.3968 63.2795 69.05 64.0799 68.9924 64.1844C68.1799 65.6586 67.4911 67.566 67.242 69.4008C66.8041 72.6244 67.4592 74.1948 67.629 74.6643C67.6295 74.6652 67.6296 74.6662 67.63 74.667C67.9677 75.9253 70.5625 76.5238 73.5853 76.0366L73.5853 76.0367C73.591 76.0358 73.5966 76.0348 73.6023 76.0339C73.6086 76.0329 73.6149 76.0319 73.6212 76.0308C73.6668 76.0235 73.7123 76.016 73.758 76.008L73.7582 76.008L73.7588 76.0079C73.7602 76.0076 73.7617 76.0074 73.7631 76.0072C73.768 76.0063 73.7728 76.0054 73.7777 76.0044C73.7826 76.0036 73.7875 76.0028 73.7924 76.002C73.7938 76.0017 73.7952 76.0015 73.7966 76.0012L73.7973 76.0011L73.7974 76.0011C73.8431 75.993 73.8884 75.9843 73.9338 75.9757C73.9401 75.9745 73.9464 75.9733 73.9527 75.9721C73.9583 75.971 73.9639 75.9699 73.9695 75.9689L73.9695 75.9688C76.9778 75.3913 79.2404 73.9353 79.1638 72.6309C79.1639 72.6301 79.1638 72.6291 79.1639 72.628C79.1767 72.1263 79.3017 70.4182 77.8749 67.5238Z" fill="url(#paint10_linear_118_1863)"/>
<g style="mix-blend-mode:overlay">
<path d="M77.918 67.4998C77.106 65.8523 75.8558 64.2872 74.6249 63.1737C74.5377 63.0948 73.9586 62.4579 73.7857 62.1137C73.6518 61.8565 73.5563 61.5823 73.5019 61.2983C73.342 60.4028 73.902 59.4466 73.9465 59.3521C73.9718 59.3151 73.9965 59.2776 74.0205 59.2398C74.5368 58.4213 74.7693 57.4126 74.6024 56.3799C74.2605 54.2655 72.3684 52.8213 70.312 53.0535L70.3112 53.0485C70.2633 53.0551 70.2154 53.0625 70.1673 53.071C70.151 53.0739 70.1349 53.0771 70.1188 53.0802C70.1025 53.0829 70.0863 53.0853 70.0701 53.0882C70.0219 53.0967 69.9744 53.1061 69.927 53.1163L69.9278 53.1213C67.9126 53.6079 66.5794 55.6215 66.9212 57.7359C67.0882 58.7685 67.6249 59.6414 68.3698 60.2373C68.4043 60.2648 68.4394 60.2917 68.475 60.318C68.5468 60.392 69.3762 61.1028 69.5068 62.0036C69.5446 62.2905 69.5406 62.5823 69.495 62.8712C69.4399 63.2556 69.0932 64.056 69.0356 64.1604C68.2231 65.6346 67.5342 67.542 67.2851 69.3768C66.8473 72.6004 67.5024 74.1708 67.6722 74.6403C67.6726 74.6413 67.6728 74.6423 67.6732 74.643C68.0109 75.9013 70.6056 76.4998 73.6285 76.0126L73.6285 76.0127C73.6342 76.0118 73.6398 76.0109 73.6454 76.01C73.6518 76.0089 73.6581 76.0079 73.6644 76.0069C73.71 75.9995 73.7555 75.9921 73.8012 75.984L73.8013 75.984L73.802 75.9839C73.8034 75.9837 73.8048 75.9834 73.8062 75.9832C73.8111 75.9823 73.816 75.9814 73.8209 75.9805C73.8258 75.9797 73.8307 75.9789 73.8355 75.978C73.837 75.9778 73.8384 75.9775 73.8398 75.9772L73.8404 75.9771L73.8406 75.9771C73.8862 75.969 73.9316 75.9604 73.9769 75.9517C73.9832 75.9505 73.9895 75.9493 73.9958 75.9481C74.0014 75.947 74.0071 75.946 74.0127 75.9449L74.0127 75.9448C77.0209 75.3673 79.2836 73.9114 79.207 72.6069C79.2071 72.6061 79.2069 72.6051 79.207 72.604C79.2198 72.1023 79.3449 70.3942 77.918 67.4998Z" fill="url(#paint11_radial_118_1863)"/>
</g>
<path d="M77.9178 67.4974C77.1058 65.8499 75.8555 64.2848 74.6247 63.1713C74.5375 63.0925 73.9584 62.4555 73.7855 62.1113C73.6516 61.8541 73.5561 61.5799 73.5016 61.2959C73.3418 60.4004 73.9018 59.4442 73.9463 59.3497C73.9716 59.3127 73.9963 59.2752 74.0203 59.2374C74.5366 58.4189 74.7691 57.4102 74.6021 56.3775C74.2633 54.2814 72.4008 52.8439 70.3651 53.0454C70.3473 53.0472 69.9058 53.1242 69.8949 53.1269C67.898 53.6273 66.5811 55.6305 66.921 57.7335C67.088 58.7662 67.6246 59.639 68.3696 60.2349C68.4041 60.2624 68.4391 60.2893 68.4748 60.3156C68.5465 60.3896 69.376 61.1005 69.5065 62.0012C69.5444 62.2881 69.5404 62.5799 69.4948 62.8688C69.4397 63.2532 69.0929 64.0536 69.0354 64.158C68.2228 65.6322 67.534 67.5397 67.2849 69.3745C66.8471 72.598 67.5021 74.1684 67.672 74.6379C67.6724 74.6389 67.6726 74.6399 67.6729 74.6406C68.0106 75.8989 70.6054 76.4974 73.6283 76.0102L73.6283 76.0103C73.6339 76.0094 73.6396 76.0085 73.6452 76.0076C73.6515 76.0065 73.6579 76.0055 73.6642 76.0045C73.7097 75.9971 73.7553 75.9897 73.801 75.9816L73.8011 75.9817L73.8018 75.9815C73.8032 75.9813 73.8046 75.981 73.806 75.9808C73.8109 75.9799 73.8158 75.979 73.8206 75.9781C73.8255 75.9773 73.8304 75.9765 73.8353 75.9756C73.8367 75.9754 73.8381 75.9751 73.8395 75.9748L73.8402 75.9748L73.8403 75.9747C73.886 75.9666 73.9313 75.958 73.9767 75.9493C73.983 75.9481 73.9893 75.9469 73.9956 75.9457C74.0012 75.9447 74.0068 75.9436 74.0125 75.9425L74.0124 75.9424C77.0207 75.3649 79.2833 73.909 79.2067 72.6045C79.2069 72.6037 79.2067 72.6027 79.2068 72.6016C79.2196 72.0999 79.3447 70.3918 77.9178 67.4974Z" fill="url(#paint12_radial_118_1863)"/>
<g style="mix-blend-mode:overlay">
<path d="M67.4259 57.7606C67.3535 57.313 67.3768 56.8531 67.4943 56.407C67.6118 55.9609 67.8212 55.5375 68.1107 55.1609C68.4002 54.7843 68.764 54.4618 69.1814 54.212C69.5988 53.9621 70.0616 53.7898 70.5433 53.7047" stroke="#FFF8B1" stroke-width="1.04119" stroke-linecap="round" stroke-linejoin="round"/>
</g>
<path d="M68.0023 73.4819C67.4218 69.891 68.1898 66.521 69.5153 64.5855" stroke="#FAEE88" stroke-width="0.796206" stroke-linecap="round" stroke-linejoin="round"/>
<path d="M73.8926 59.5798C73.9179 59.5427 73.9426 59.5053 73.9666 59.4674C74.4829 58.6489 74.7154 57.6403 74.5485 56.6076C74.2196 54.5737 72.5072 53.2551 70.543 53.3572C70.4001 53.3654 70.2575 53.3808 70.1158 53.4032C69.9848 53.4269 69.7787 53.4818 69.707 53.5036C67.8146 54.0779 66.4534 55.9412 66.7828 57.9785C66.9497 59.0112 67.571 59.8691 68.3159 60.465C68.3504 60.4925 68.3855 60.5194 68.4211 60.5456C68.4876 60.6142 69.2045 61.23 69.4131 62.0368C69.4874 62.0259 69.5617 62.0143 69.6363 62.0011C71.1087 61.7412 72.6627 60.8101 73.8597 59.6432C73.8759 59.6123 73.8876 59.5904 73.8926 59.5798Z" fill="url(#paint13_linear_118_1863)"/>
<path d="M69.3675 57.4881C69.6747 57.4339 69.8598 56.9942 69.7809 56.506C69.702 56.0178 69.389 55.666 69.0817 55.7203C68.7745 55.7745 68.5894 56.2142 68.6683 56.7024C68.7473 57.1906 69.0603 57.5424 69.3675 57.4881Z" fill="#F7EA69"/>
<path d="M69.351 57.3857C69.6582 57.3315 69.8433 56.8918 69.7644 56.4036C69.6854 55.9154 69.3724 55.5636 69.0652 55.6179C68.758 55.6721 68.5729 56.1118 68.6518 56.6C68.7307 57.0882 69.0438 57.44 69.351 57.3857Z" fill="#F28422"/>
<path d="M69.0652 55.6179C68.758 55.6721 68.5729 56.1118 68.6518 56.6C68.6565 56.6289 68.662 56.6572 68.6683 56.685C68.6229 56.2322 68.8038 55.8399 69.0928 55.7889C69.3819 55.7378 69.676 56.0463 69.7755 56.4896C69.7727 56.4611 69.769 56.4325 69.7644 56.4036C69.6854 55.9154 69.3724 55.5636 69.0652 55.6179Z" fill="#C45C00"/>
<path d="M72.4196 56.9487C72.7268 56.8945 72.9119 56.4548 72.833 55.9666C72.754 55.4784 72.441 55.1266 72.1338 55.1809C71.8266 55.2351 71.6415 55.6748 71.7204 56.163C71.7993 56.6512 72.1124 57.0029 72.4196 56.9487Z" fill="#F7EA69"/>
<path d="M72.4031 56.847C72.7103 56.7928 72.8954 56.3531 72.8165 55.8649C72.7376 55.3767 72.4245 55.0249 72.1173 55.0792C71.8101 55.1334 71.625 55.5731 71.7039 56.0613C71.7829 56.5495 72.0959 56.9013 72.4031 56.847Z" fill="#F28422"/>
<path d="M72.1173 55.0792C71.8101 55.1334 71.625 55.5731 71.7039 56.0613C71.7086 56.0902 71.7141 56.1185 71.7204 56.1463C71.675 55.6935 71.8559 55.3012 72.145 55.2502C72.434 55.1992 72.7282 55.5076 72.8277 55.9509C72.8248 55.9224 72.8211 55.8938 72.8165 55.8649C72.7376 55.3767 72.4245 55.0249 72.1173 55.0792Z" fill="#C45C00"/>
<path d="M72.3332 58.1509C72.0729 58.5879 71.6709 58.8785 71.2158 58.9588C70.7607 59.0392 70.2898 58.9027 69.9065 58.5793" stroke="#F7EA6B" stroke-width="1.1294" stroke-linecap="round" stroke-linejoin="round"/>
<path d="M72.3245 58.0687C72.0642 58.5056 71.6622 58.7962 71.2071 58.8765C70.752 58.9569 70.281 58.8204 69.8978 58.4971" stroke="#F28422" stroke-width="1.1294" stroke-linecap="round" stroke-linejoin="round"/>
<path d="M69.7419 58.4446C69.773 58.3925 69.8209 58.3579 69.8751 58.3483C69.9293 58.3387 69.9854 58.355 70.0311 58.3935C70.1982 58.5345 70.3861 58.6366 70.584 58.694C70.7819 58.7513 70.9859 58.7628 71.1844 58.7278C71.3829 58.6927 71.572 58.6119 71.7409 58.4898C71.9098 58.3677 72.0551 58.2067 72.1687 58.0162C72.1841 57.9904 72.2037 57.9686 72.2266 57.9521C72.2494 57.9356 72.275 57.9246 72.3018 57.9199C72.3287 57.9152 72.3563 57.9167 72.3831 57.9245C72.4098 57.9322 72.4352 57.946 72.4578 57.9651C72.4925 57.9944 72.5328 58.0763 72.5328 58.0764L72.5329 58.0765C72.5337 58.024 72.52 57.9719 72.4939 57.9279C72.4678 57.884 72.4306 57.8506 72.3878 57.8326C72.3451 57.8147 72.2991 57.8132 72.2567 57.8284C72.2144 57.8436 72.1779 57.8747 72.1527 57.917C72.0391 58.1075 71.8937 58.2685 71.7249 58.3906C71.556 58.5127 71.3669 58.5935 71.1684 58.6286C70.9699 58.6636 70.7659 58.6521 70.568 58.5948C70.3701 58.5374 70.1822 58.4353 70.0151 58.2943C69.978 58.263 69.9337 58.2462 69.8889 58.2464C69.8441 58.2466 69.8012 58.2638 69.7664 58.2954C69.7317 58.327 69.7071 58.3713 69.6962 58.4218C69.6853 58.4723 69.6888 58.5262 69.7061 58.5755C69.7068 58.5282 69.7192 58.4827 69.7419 58.4446V58.4446Z" fill="#C45C00"/>
<path d="M113.138 66.1375C112.634 66.1375 112.148 66.0917 111.68 66C111.222 65.9175 110.796 65.7937 110.402 65.6287C110.017 65.4637 109.673 65.2667 109.37 65.0375L109.907 63.6487C110.209 63.8596 110.525 64.0429 110.855 64.1987C111.194 64.3454 111.552 64.46 111.928 64.5425C112.313 64.6158 112.716 64.6525 113.138 64.6525C113.862 64.6525 114.389 64.5333 114.719 64.295C115.049 64.0475 115.214 63.7312 115.214 63.3462C115.214 63.1354 115.164 62.9567 115.063 62.81C114.962 62.6542 114.797 62.5212 114.568 62.4112C114.339 62.3012 114.036 62.2096 113.66 62.1362L112.148 61.82C111.277 61.6367 110.626 61.3296 110.195 60.8987C109.774 60.4587 109.563 59.8812 109.563 59.1662C109.563 58.5612 109.723 58.0342 110.044 57.585C110.365 57.1358 110.809 56.7875 111.378 56.54C111.946 56.2925 112.602 56.1687 113.344 56.1687C113.784 56.1687 114.206 56.2146 114.609 56.3062C115.022 56.3887 115.397 56.5171 115.737 56.6912C116.085 56.8562 116.387 57.0579 116.644 57.2962L116.108 58.6162C115.723 58.2954 115.301 58.0571 114.843 57.9012C114.384 57.7362 113.88 57.6537 113.33 57.6537C112.909 57.6537 112.547 57.7133 112.244 57.8325C111.942 57.9517 111.708 58.1212 111.543 58.3412C111.387 58.5521 111.309 58.8042 111.309 59.0975C111.309 59.4275 111.419 59.6933 111.639 59.895C111.859 60.0875 112.235 60.2387 112.767 60.3487L114.265 60.665C115.173 60.8575 115.847 61.16 116.287 61.5725C116.736 61.985 116.96 62.535 116.96 63.2225C116.96 63.8 116.804 64.3087 116.493 64.7487C116.181 65.1887 115.737 65.5325 115.159 65.78C114.591 66.0183 113.917 66.1375 113.138 66.1375ZM121.444 66.1375C120.885 66.1375 120.422 66.0367 120.055 65.835C119.689 65.6242 119.414 65.3125 119.23 64.9C119.056 64.4875 118.969 63.9742 118.969 63.36V59.2762H120.688V63.3875C120.688 63.6992 120.729 63.9604 120.812 64.1712C120.903 64.3821 121.036 64.5379 121.21 64.6387C121.394 64.7396 121.623 64.79 121.898 64.79C122.21 64.79 122.48 64.7212 122.709 64.5837C122.947 64.4371 123.131 64.2354 123.259 63.9788C123.397 63.7129 123.465 63.4058 123.465 63.0575V59.2762H125.184V66H123.507V64.5975H123.699C123.507 65.0925 123.213 65.4729 122.819 65.7387C122.434 66.0046 121.976 66.1375 121.444 66.1375ZM127.677 66V59.2762H129.355V60.8987H129.217C129.346 60.3487 129.598 59.9317 129.974 59.6475C130.35 59.3542 130.849 59.1846 131.472 59.1387L131.995 59.0975L132.105 60.555L131.115 60.6512C130.556 60.7062 130.134 60.8804 129.85 61.1737C129.566 61.4579 129.424 61.8612 129.424 62.3837V66H127.677ZM136.163 66L133.248 59.2762H135.076L137.153 64.4875H136.74L138.885 59.2762H140.604L137.648 66H136.163ZM142.028 57.8325V56.155H143.953V57.8325H142.028ZM142.138 66V59.2762H143.857V66H142.138ZM148.327 66L145.412 59.2762H147.241L149.317 64.4875H148.905L151.05 59.2762H152.769L149.812 66H148.327ZM157.235 66.1375C156.538 66.1375 155.933 65.9954 155.42 65.7112C154.906 65.4271 154.508 65.0237 154.223 64.5012C153.939 63.9696 153.797 63.3462 153.797 62.6312C153.797 61.9162 153.939 61.2975 154.223 60.775C154.508 60.2525 154.906 59.8492 155.42 59.565C155.933 59.2808 156.538 59.1387 157.235 59.1387C157.931 59.1387 158.536 59.2808 159.05 59.565C159.563 59.8492 159.962 60.2525 160.246 60.775C160.53 61.2975 160.672 61.9162 160.672 62.6312C160.672 63.3462 160.53 63.9696 160.246 64.5012C159.962 65.0237 159.563 65.4271 159.05 65.7112C158.536 65.9954 157.931 66.1375 157.235 66.1375ZM157.235 64.8312C157.748 64.8312 158.161 64.6479 158.472 64.2812C158.784 63.9054 158.94 63.3554 158.94 62.6312C158.94 61.8979 158.784 61.3525 158.472 60.995C158.161 60.6283 157.748 60.445 157.235 60.445C156.721 60.445 156.309 60.6283 155.997 60.995C155.686 61.3525 155.53 61.8979 155.53 62.6312C155.53 63.3554 155.686 63.9054 155.997 64.2812C156.309 64.6479 156.721 64.8312 157.235 64.8312ZM162.795 66V59.2762H164.473V60.8987H164.335C164.464 60.3487 164.716 59.9317 165.092 59.6475C165.467 59.3542 165.967 59.1846 166.59 59.1387L167.113 59.0975L167.223 60.555L166.233 60.6512C165.674 60.7062 165.252 60.8804 164.968 61.1737C164.684 61.4579 164.542 61.8612 164.542 62.3837V66H162.795Z" fill="#202224"/>
<mask id="mask0_118_1863" style="mask-type:alpha" maskUnits="userSpaceOnUse" x="34" y="34" width="37" height="55">
<path d="M35 43.3625C35 38.8821 38.6321 35.25 43.1125 35.25H54.386C63.0094 35.25 70 42.2406 70 50.864V72.136C70 80.7594 63.0094 87.75 54.386 87.75H43.1125C38.6321 87.75 35 84.1179 35 79.6375V43.3625Z" fill="white" stroke="url(#paint14_linear_118_1863)" stroke-opacity="0.3" stroke-width="1.62697"/>
</mask>
<g mask="url(#mask0_118_1863)">
<rect x="33.75" y="34.2404" width="17.5" height="54.5192" fill="#587ED7"/>
</g>
<defs>
<filter id="filter0_d_118_1863" x="0.37165" y="0.62165" width="277.71" height="130.21" filterUnits="userSpaceOnUse" color-interpolation-filters="sRGB">
<feFlood flood-opacity="0" result="BackgroundImageFix"/>
<feColorMatrix in="SourceAlpha" type="matrix" values="0 0 0 0 0 0 0 0 0 0 0 0 0 0 0 0 0 0 127 0" result="hardAlpha"/>
<feOffset dx="4.22686" dy="4.22686"/>
<feGaussianBlur stdDeviation="19.0209"/>
<feColorMatrix type="matrix" values="0 0 0 0 0 0 0 0 0 0 0 0 0 0 0 0 0 0 0.05 0"/>
<feBlend mode="normal" in2="BackgroundImageFix" result="effect1_dropShadow_118_1863"/>
<feBlend mode="normal" in="SourceGraphic" in2="effect1_dropShadow_118_1863" result="shape"/>
</filter>
<filter id="filter1_d_118_1863" x="64.5452" y="43.6923" width="27.363" height="36.2885" filterUnits="userSpaceOnUse" color-interpolation-filters="sRGB">
<feFlood flood-opacity="0" result="BackgroundImageFix"/>
<feColorMatrix in="SourceAlpha" type="matrix" values="0 0 0 0 0 0 0 0 0 0 0 0 0 0 0 0 0 0 127 0" result="hardAlpha"/>
<feOffset dy="1.80144"/>
<feComposite in2="hardAlpha" operator="out"/>
<feColorMatrix type="matrix" values="0 0 0 0 0.0823333 0 0 0 0 0 0 0 0 0 0.316667 0 0 0 1 0"/>
<feBlend mode="normal" in2="BackgroundImageFix" result="effect1_dropShadow_118_1863"/>
<feBlend mode="normal" in="SourceGraphic" in2="effect1_dropShadow_118_1863" result="shape"/>
</filter>
<linearGradient id="paint0_linear_118_1863" x1="80.6043" y1="16.2873" x2="172.404" y2="127.615" gradientUnits="userSpaceOnUse">
<stop stop-color="#F1F1F1"/>
<stop offset="1" stop-color="#E1E1E1"/>
</linearGradient>
<linearGradient id="paint1_linear_118_1863" x1="78.9087" y1="48.7225" x2="80.9333" y2="72.6242" gradientUnits="userSpaceOnUse">
<stop stop-color="#995BFC"/>
<stop offset="0.510417" stop-color="#5E18D7"/>
<stop offset="1" stop-color="#5D0F72"/>
<stop offset="1" stop-color="#5E1072"/>
</linearGradient>
<linearGradient id="paint2_linear_118_1863" x1="83.09" y1="77.954" x2="80.6446" y2="44.9597" gradientUnits="userSpaceOnUse">
<stop stop-color="#DF3E00"/>
<stop offset="1" stop-color="#FFA100"/>
</linearGradient>
<linearGradient id="paint3_linear_118_1863" x1="83.0987" y1="77.2601" x2="80.7371" y2="45.3963" gradientUnits="userSpaceOnUse">
<stop stop-color="#FF8A00"/>
<stop offset="1" stop-color="#FFE600"/>
</linearGradient>
<radialGradient id="paint4_radial_118_1863" cx="0" cy="0" r="1" gradientUnits="userSpaceOnUse" gradientTransform="translate(83.5443 50.2134) rotate(10.2147) scale(8.09146 7.37617)">
<stop stop-color="white"/>
<stop offset="0.09619" stop-color="#FFED3B" stop-opacity="0.8"/>
<stop offset="0.71251" stop-color="#F6D146" stop-opacity="0"/>
<stop offset="1" stop-color="#F6D146" stop-opacity="0"/>
</radialGradient>
<radialGradient id="paint5_radial_118_1863" cx="0" cy="0" r="1" gradientUnits="userSpaceOnUse" gradientTransform="translate(80.5516 63.48) rotate(10.2147) scale(13.3488 12.2545)">
<stop stop-color="#FFE800"/>
<stop offset="0.71251" stop-color="#FFC900" stop-opacity="0"/>
</radialGradient>
<linearGradient id="paint6_linear_118_1863" x1="82.9943" y1="74.4009" x2="75.5402" y2="48.9669" gradientUnits="userSpaceOnUse">
<stop offset="0.00149" stop-color="#FF8A00"/>
<stop offset="0.71251" stop-color="#FFC900" stop-opacity="0"/>
</linearGradient>
<linearGradient id="paint7_linear_118_1863" x1="89.6316" y1="58.1375" x2="77.1287" y2="41.8491" gradientUnits="userSpaceOnUse">
<stop offset="0.00149" stop-color="#FF8A00"/>
<stop offset="0.71251" stop-color="#F6D146" stop-opacity="0"/>
</linearGradient>
<linearGradient id="paint8_linear_118_1863" x1="81.7972" y1="76.8362" x2="80.7844" y2="63.1711" gradientUnits="userSpaceOnUse">
<stop offset="0.00269" stop-color="#6F0100"/>
<stop offset="0.96044" stop-color="#FF9E00" stop-opacity="0.09"/>
</linearGradient>
<linearGradient id="paint9_linear_118_1863" x1="76.9178" y1="77.3434" x2="66.0735" y2="53.7047" gradientUnits="userSpaceOnUse">
<stop stop-color="#DF3E00"/>
<stop offset="1" stop-color="#FFA100"/>
</linearGradient>
<linearGradient id="paint10_linear_118_1863" x1="76.7437" y1="76.8248" x2="66.2709" y2="53.996" gradientUnits="userSpaceOnUse">
<stop stop-color="#FF8A00"/>
<stop offset="1" stop-color="#FFE600"/>
</linearGradient>
<radialGradient id="paint11_radial_118_1863" cx="0" cy="0" r="1" gradientUnits="userSpaceOnUse" gradientTransform="translate(70.0345 56.6042) rotate(-10.0113) scale(6.28461 5.82414)">
<stop stop-color="white"/>
<stop offset="0.09619" stop-color="#FFED3B" stop-opacity="0.8"/>
<stop offset="0.71251" stop-color="#F6D146" stop-opacity="0"/>
<stop offset="1" stop-color="#F6D146" stop-opacity="0"/>
</radialGradient>
<radialGradient id="paint12_radial_118_1863" cx="0" cy="0" r="1" gradientUnits="userSpaceOnUse" gradientTransform="translate(71.2995 67.2745) rotate(-10.0113) scale(10.368 9.67603)">
<stop stop-color="#FFE800"/>
<stop offset="0.71251" stop-color="#FFC900" stop-opacity="0"/>
</radialGradient>
<linearGradient id="paint13_linear_118_1863" x1="76.5412" y1="60.8431" x2="63.0446" y2="52.3322" gradientUnits="userSpaceOnUse">
<stop offset="0.00149" stop-color="#FF8A00"/>
<stop offset="0.71251" stop-color="#F6D146" stop-opacity="0"/>
</linearGradient>
<linearGradient id="paint14_linear_118_1863" x1="42.9808" y1="16.2873" x2="80.9617" y2="24.3479" gradientUnits="userSpaceOnUse">
<stop stop-color="#F1F1F1"/>
<stop offset="1" stop-color="#E1E1E1"/>
</linearGradient>
</defs>
</svg>
