<svg width="279" height="131" viewBox="0 0 279 131" fill="none" xmlns="http://www.w3.org/2000/svg">
<g filter="url(#filter0_d_118_1872)">
<rect x="35" y="35" width="200" height="52.5" rx="8.1125" fill="white"/>
<rect x="35" y="35" width="200" height="52.5" rx="8.1125" stroke="url(#paint0_linear_118_1872)" stroke-opacity="0.3" stroke-width="1.62697"/>
</g>
<g filter="url(#filter1_d_118_1872)">
<mask id="path-3-outside-1_118_1872" maskUnits="userSpaceOnUse" x="59.3029" y="45.2577" width="37" height="32" fill="black">
<rect fill="white" x="59.3029" y="45.2577" width="37" height="32"/>
<path d="M61.3137 50.5075C61.1768 48.5876 67.8056 46.2109 69.4728 47.7536V50.53L71.0871 48.0759C73.5626 48.8939 79.3529 50.5299 82.7111 50.53C84.7413 50.53 87.4385 49.899 89.7336 48.9694C91.7389 48.1571 94.5874 49.2504 94.3039 51.3952C93.1872 59.8322 89.85 73.9333 89.2336 74.36C88.3939 74.9413 84.455 76.3625 77.9973 74.0378C77.4806 73.2111 77.0064 72.7031 76.8342 72.5524L76.2971 72.3766L75.7365 71.7126L74.6389 73.3268C73.2175 72.8107 70.1571 72.0185 67.6047 72.2555L67.5344 73.321C67.4491 74.6074 66.4859 75.5621 65.2805 75.1051C64.568 74.8349 63.8308 74.4752 63.2297 74.1579C62.3982 73.7188 61.8956 72.861 61.8557 71.9216C61.684 67.8797 61.242 56.6679 61.343 50.8923C61.3189 50.8067 61.3054 50.721 61.3029 50.6354C61.3038 50.5943 61.3137 50.5075 61.3137 50.5075Z"/>
</mask>
<path d="M61.3137 50.5075C61.1768 48.5876 67.8056 46.2109 69.4728 47.7536V50.53L71.0871 48.0759C73.5626 48.8939 79.3529 50.5299 82.7111 50.53C84.7413 50.53 87.4385 49.899 89.7336 48.9694C91.7389 48.1571 94.5874 49.2504 94.3039 51.3952C93.1872 59.8322 89.85 73.9333 89.2336 74.36C88.3939 74.9413 84.455 76.3625 77.9973 74.0378C77.4806 73.2111 77.0064 72.7031 76.8342 72.5524L76.2971 72.3766L75.7365 71.7126L74.6389 73.3268C73.2175 72.8107 70.1571 72.0185 67.6047 72.2555L67.5344 73.321C67.4491 74.6074 66.4859 75.5621 65.2805 75.1051C64.568 74.8349 63.8308 74.4752 63.2297 74.1579C62.3982 73.7188 61.8956 72.861 61.8557 71.9216C61.684 67.8797 61.242 56.6679 61.343 50.8923C61.3189 50.8067 61.3054 50.721 61.3029 50.6354C61.3038 50.5943 61.3137 50.5075 61.3137 50.5075Z" fill="url(#paint1_linear_118_1872)"/>
<path d="M61.3137 50.5075L63.132 50.7148L63.1512 50.5464L63.1392 50.3774L61.3137 50.5075ZM69.4728 47.7536H71.303V46.9536L70.7158 46.4103L69.4728 47.7536ZM69.4728 50.53H67.6427V56.6425L71.0019 51.5357L69.4728 50.53ZM71.0871 48.0759L71.6613 46.3381L70.3291 45.8979L69.5581 47.0701L71.0871 48.0759ZM82.7111 50.53L82.7111 52.3601H82.7111V50.53ZM89.7336 48.9694L90.4207 50.6657L90.4207 50.6657L89.7336 48.9694ZM94.3039 51.3952L96.1182 51.6353L96.1183 51.635L94.3039 51.3952ZM89.2336 74.36L90.2752 75.8648L90.2753 75.8648L89.2336 74.36ZM77.9973 74.0378L76.4453 75.0077L76.7811 75.5451L77.3774 75.7597L77.9973 74.0378ZM76.8342 72.5524L78.0393 71.1751L77.7583 70.9292L77.4034 70.813L76.8342 72.5524ZM76.2971 72.3766L74.8985 73.5571L75.2338 73.9543L75.7278 74.116L76.2971 72.3766ZM75.7365 71.7126L77.135 70.5321L75.5793 68.689L74.2231 70.6835L75.7365 71.7126ZM74.6389 73.3268L74.0142 75.0471L75.352 75.5329L76.1523 74.3559L74.6389 73.3268ZM67.6047 72.2555L67.4354 70.4332L65.8813 70.5776L65.7785 72.135L67.6047 72.2555ZM67.5344 73.321L69.3605 73.4421L69.3605 73.4415L67.5344 73.321ZM65.2805 75.1051L64.6314 76.8163L64.6317 76.8165L65.2805 75.1051ZM63.2297 74.1579L62.375 75.7762L62.3753 75.7764L63.2297 74.1579ZM61.8557 71.9216L60.0271 71.9992L60.0272 71.9994L61.8557 71.9216ZM61.343 50.8923L63.1728 50.9243L63.1775 50.6556L63.1048 50.3969L61.343 50.8923ZM61.3029 50.6354L59.4732 50.5979L59.4722 50.6434L59.4735 50.689L61.3029 50.6354ZM61.3137 50.5075L63.1392 50.3774C63.1615 50.6912 63.0343 50.8551 63.0576 50.8218C63.0797 50.7901 63.1716 50.6807 63.3907 50.5172C63.8263 50.1923 64.5118 49.8404 65.3166 49.5611C66.1169 49.2835 66.9184 49.1183 67.5522 49.0916C68.2965 49.0604 68.3758 49.232 68.2299 49.0969L69.4728 47.7536L70.7158 46.4103C69.7362 45.5039 68.3618 45.3941 67.3985 45.4345C66.3247 45.4797 65.165 45.7394 64.1168 46.103C63.0732 46.4651 62.0229 46.971 61.202 47.5834C60.7929 47.8886 60.3763 48.2678 60.0556 48.7275C59.736 49.1857 59.4316 49.8439 59.4881 50.6376L61.3137 50.5075ZM69.4728 47.7536H67.6427V50.53H69.4728H71.303V47.7536H69.4728ZM69.4728 50.53L71.0019 51.5357L72.6161 49.0816L71.0871 48.0759L69.5581 47.0701L67.9438 49.5242L69.4728 50.53ZM71.0871 48.0759L70.5129 49.8136C71.7965 50.2377 73.9151 50.8665 76.1496 51.3913C78.3481 51.9076 80.8082 52.3601 82.7111 52.3601L82.7111 50.53L82.7112 48.6998C81.2559 48.6998 79.1417 48.3341 76.9866 47.828C74.8676 47.3303 72.8532 46.732 71.6613 46.3381L71.0871 48.0759ZM82.7111 50.53V52.3601C85.0442 52.3601 87.98 51.6543 90.4207 50.6657L89.7336 48.9694L89.0465 47.2731C86.8971 48.1438 84.4384 48.6998 82.7111 48.6998V50.53ZM89.7336 48.9694L90.4207 50.6657C90.9218 50.4627 91.6015 50.494 92.0927 50.727C92.3216 50.8355 92.4268 50.9491 92.4642 51.0057C92.4852 51.0375 92.5013 51.0661 92.4895 51.1554L94.3039 51.3952L96.1183 51.635C96.3959 49.5343 95.0602 48.0834 93.6614 47.4199C92.2979 46.7731 90.5507 46.6638 89.0465 47.2731L89.7336 48.9694ZM94.3039 51.3952L92.4896 51.155C91.9417 55.2946 90.8416 60.8682 89.7963 65.4766C89.2745 67.7773 88.7714 69.8145 88.3644 71.2922C88.1597 72.0351 87.9862 72.6115 87.8521 73.0012C87.7835 73.2004 87.7374 73.3152 87.7139 73.3668C87.7013 73.3945 87.7107 73.3695 87.7431 73.3172C87.7433 73.3169 87.8846 73.068 88.1918 72.8553L89.2336 74.36L90.2753 75.8648C90.6211 75.6254 90.8062 75.3232 90.8553 75.2439C90.9365 75.1127 90.9998 74.9833 91.0458 74.8822C91.1395 74.6762 91.2293 74.4361 91.3132 74.1924C91.4839 73.6962 91.6809 73.0351 91.8933 72.2642C92.3202 70.7143 92.8369 68.6188 93.3659 66.2863C94.4225 61.6282 95.5494 55.9327 96.1182 51.6353L94.3039 51.3952ZM89.2336 74.36L88.1919 72.8552C88.2053 72.846 88.1576 72.8794 88.026 72.9383C87.9021 72.9939 87.7272 73.0616 87.5 73.1306C87.0461 73.2685 86.4075 73.4041 85.59 73.4633C83.9616 73.5812 81.6182 73.3962 78.6171 72.3158L77.9973 74.0378L77.3774 75.7597C84.2343 78.2281 88.8265 76.8677 90.2752 75.8648L89.2336 74.36ZM77.9973 74.0378L79.5492 73.0678C78.962 72.1282 78.3773 71.4708 78.0393 71.1751L76.8342 72.5524L75.629 73.9297C75.6132 73.9159 75.7043 73.9987 75.8723 74.2032C76.0291 74.3942 76.2305 74.664 76.4453 75.0077L77.9973 74.0378ZM76.8342 72.5524L77.4034 70.813L76.8663 70.6373L76.2971 72.3766L75.7278 74.116L76.2649 74.2918L76.8342 72.5524ZM76.2971 72.3766L77.6956 71.1961L77.135 70.5321L75.7365 71.7126L74.338 72.8931L74.8985 73.5571L76.2971 72.3766ZM75.7365 71.7126L74.2231 70.6835L73.1254 72.2977L74.6389 73.3268L76.1523 74.3559L77.2499 72.7417L75.7365 71.7126ZM74.6389 73.3268L75.2635 71.6066C73.7325 71.0507 70.3763 70.1601 67.4354 70.4332L67.6047 72.2555L67.7739 74.0778C69.9379 73.8769 72.7025 74.5708 74.0142 75.0471L74.6389 73.3268ZM67.6047 72.2555L65.7785 72.135L65.7082 73.2005L67.5344 73.321L69.3605 73.4415L69.4309 72.3761L67.6047 72.2555ZM67.5344 73.321L65.7082 73.1999C65.7008 73.3117 65.6756 73.3928 65.6531 73.4418C65.6301 73.4917 65.6171 73.4937 65.6411 73.4733C65.6693 73.4493 65.7299 73.4119 65.8161 73.3969C65.9047 73.3815 65.9503 73.4019 65.9292 73.3938L65.2805 75.1051L64.6317 76.8165C65.8596 77.2819 67.1047 77.0344 68.0139 76.2603C68.8593 75.5406 69.2915 74.4831 69.3605 73.4421L67.5344 73.321ZM65.2805 75.1051L65.9295 73.394C65.3161 73.1613 64.653 72.8398 64.0841 72.5394L63.2297 74.1579L62.3753 75.7764C63.0085 76.1107 63.8199 76.5085 64.6314 76.8163L65.2805 75.1051ZM63.2297 74.1579L64.0844 72.5396C63.8736 72.4283 63.6987 72.186 63.6841 71.8437L61.8557 71.9216L60.0272 71.9994C60.0926 73.536 60.9229 75.0093 62.375 75.7762L63.2297 74.1579ZM61.8557 71.9216L63.6842 71.8439C63.5118 67.7849 63.073 56.6335 63.1728 50.9243L61.343 50.8923L59.5131 50.8603C59.4109 56.7023 59.8562 67.9746 60.0271 71.9992L61.8557 71.9216ZM61.343 50.8923L63.1048 50.3969C63.119 50.4474 63.1302 50.51 63.1323 50.5819L61.3029 50.6354L59.4735 50.689C59.4807 50.932 59.5188 51.166 59.5811 51.3876L61.343 50.8923ZM61.3029 50.6354L63.1327 50.673C63.1315 50.7303 63.1274 50.7624 63.1304 50.7311C63.1309 50.726 63.1314 50.7208 63.1318 50.7167C63.132 50.7149 63.1322 50.7136 63.1322 50.7131C63.1322 50.7129 63.1322 50.7129 63.1322 50.7132C63.1322 50.7133 63.1322 50.7135 63.1321 50.7138C63.1321 50.7139 63.1321 50.7141 63.1321 50.7143C63.1321 50.7143 63.1321 50.7144 63.1321 50.7145C63.1321 50.7146 63.1321 50.7146 63.132 50.7147C63.132 50.7147 63.132 50.7147 63.132 50.7147C63.132 50.7148 63.132 50.7148 61.3137 50.5075C59.4953 50.3002 59.4953 50.3002 59.4953 50.3002C59.4953 50.3003 59.4953 50.3003 59.4953 50.3003C59.4953 50.3004 59.4953 50.3004 59.4953 50.3005C59.4952 50.3006 59.4952 50.3007 59.4952 50.3009C59.4952 50.3011 59.4952 50.3014 59.4951 50.3017C59.495 50.3023 59.495 50.303 59.4949 50.3038C59.4947 50.3053 59.4945 50.3072 59.4942 50.3095C59.4937 50.3139 59.4931 50.3198 59.4924 50.3267C59.4909 50.3402 59.4889 50.3592 59.4868 50.3809C59.4847 50.4033 59.4752 50.4994 59.4732 50.5979L61.3029 50.6354Z" fill="url(#paint2_linear_118_1872)" mask="url(#path-3-outside-1_118_1872)"/>
</g>
<g filter="url(#filter2_ii_118_1872)">
<path fill-rule="evenodd" clip-rule="evenodd" d="M61.3029 50.6356C61.3038 50.5945 61.3051 50.5304 61.3051 50.5304C61.3026 50.5655 61.3019 50.6005 61.3029 50.6356Z" fill="url(#paint3_linear_118_1872)"/>
<path d="M61.4644 51.1763C62.5494 53.0362 65.0511 54.19 66.2997 54.0178L66.0864 72.5523C68.8023 71.674 72.9197 72.703 74.6388 73.3273L75.7367 71.7128L76.3179 73.6502L76.8346 72.5523C77.0068 72.703 77.4804 73.211 77.997 74.0377C84.455 76.3626 88.3944 74.9418 89.234 74.3606C89.8507 73.9336 93.1857 59.7759 94.2981 51.3181C94.5802 49.1728 91.7454 48.0964 89.7467 48.9252C87.4501 49.8776 84.7467 50.5304 82.7114 50.5304C79.3532 50.5304 73.5625 48.8944 71.0869 48.0764L69.4724 50.5304V47.7535C67.8307 46.405 61.4518 48.4099 61.3051 50.5304L61.3029 50.6356C61.3082 50.816 61.3598 50.9969 61.4644 51.1763Z" fill="url(#paint4_linear_118_1872)"/>
</g>
<path d="M77.8096 66.4081C78.2419 66.5994 78.4374 67.105 78.2461 67.5372L77.68 68.818C77.4887 69.25 76.9832 69.4446 76.5511 69.2535L75.3056 68.702C74.9519 68.5454 74.5382 68.7052 74.3817 69.0589L73.714 70.5678C73.5227 71 73.0171 71.1956 72.5849 71.0043L71.3042 70.4372C70.8722 70.2458 70.6775 69.7404 70.8687 69.3082L71.5362 67.8003C71.6928 67.4466 71.5329 67.0329 71.1792 66.8764L69.5778 66.1681C69.1456 65.9768 68.9501 65.4712 69.1413 65.039L69.7084 63.7583C69.8998 63.3263 70.4054 63.1306 70.8375 63.3218L72.4389 64.0302C72.7926 64.1867 73.2062 64.0267 73.3626 63.673L73.9757 62.2864C74.167 61.8542 74.6725 61.6587 75.1048 61.8499L76.3855 62.416C76.8177 62.6073 77.013 63.113 76.822 63.5451L76.2079 64.933C76.0515 65.2866 76.2112 65.7 76.5647 65.8566L77.8096 66.4081Z" fill="url(#paint5_linear_118_1872)" style="mix-blend-mode:multiply"/>
<path d="M70.8678 50.3706C71.0336 51.6574 77.395 55.1707 78.9472 55.1707C81.5175 55.1707 88.3204 51.6074 89.8838 58.3704C90.889 62.7185 83.8956 69.9809 78.9472 63.6332" stroke="#DAC5AE" stroke-width="1.71176" stroke-linecap="round" stroke-dasharray="3.89 3.89" style="mix-blend-mode:multiply"/>
<g filter="url(#filter3_i_118_1872)">
<path d="M61.5741 50.7321C62.6224 52.0297 64.539 52.8259 66.3735 52.8421C67.3633 52.8509 68.3856 53.5964 68.3453 54.5854L67.6568 71.4763L67.5303 73.3881C67.4478 74.6346 66.5145 75.5646 65.3438 75.1285C64.6117 74.8558 63.8491 74.4846 63.2301 74.1578C62.3983 73.7188 61.8958 72.8608 61.8559 71.9211C61.6772 67.7129 61.2039 55.7327 61.3571 50.2074C61.3642 50.3825 61.4335 50.558 61.5741 50.7321Z" fill="url(#paint6_linear_118_1872)"/>
</g>
<path opacity="0.8" d="M80.7752 52.0309L79.445 72.8104C79.4337 72.9876 79.5245 73.1576 79.6888 73.2252C81.2083 73.8503 84.216 73.6794 85.2291 73.0288C85.3242 72.9678 85.3763 72.8629 85.3897 72.7508L87.9181 51.6685C87.9653 51.275 87.4962 50.9707 87.1245 51.1081C85.546 51.6917 83.1047 51.8281 81.3159 51.5963C81.0443 51.5611 80.7927 51.7576 80.7752 52.0309Z" fill="url(#paint7_linear_118_1872)"/>
<path d="M62.1103 53.1519L62.5737 71.8588C62.5863 72.3677 62.8626 72.8334 63.3031 73.0885L64.7984 73.9541C64.9789 74.0586 65.2053 73.9314 65.21 73.723L65.6514 54.1274C65.6544 53.9913 65.5566 53.8737 65.4226 53.8498C63.9367 53.5856 63.1886 53.3235 62.6455 52.9143C62.4395 52.7591 62.1039 52.894 62.1103 53.1519Z" fill="url(#paint8_linear_118_1872)"/>
<path d="M112.134 65.75V57.5275H108.807V56.0562H117.222V57.5275H113.894V65.75H112.134ZM117.802 65.75V59.0262H119.479V60.6487H119.342C119.47 60.0987 119.722 59.6817 120.098 59.3975C120.474 59.1042 120.974 58.9346 121.597 58.8887L122.119 58.8475L122.229 60.305L121.239 60.4012C120.68 60.4562 120.259 60.6304 119.974 60.9237C119.69 61.2079 119.548 61.6112 119.548 62.1337V65.75H117.802ZM127.097 65.8875C126.336 65.8875 125.681 65.7454 125.131 65.4612C124.581 65.1771 124.155 64.7737 123.852 64.2512C123.559 63.7287 123.412 63.11 123.412 62.395C123.412 61.6983 123.554 61.0887 123.838 60.5662C124.132 60.0437 124.53 59.6358 125.035 59.3425C125.548 59.04 126.13 58.8887 126.781 58.8887C127.423 58.8887 127.973 59.0262 128.431 59.3012C128.889 59.5762 129.242 59.9658 129.49 60.47C129.746 60.9742 129.875 61.5746 129.875 62.2712V62.78H124.801V61.79H128.665L128.445 61.9962C128.445 61.3729 128.307 60.8962 128.032 60.5662C127.757 60.2271 127.363 60.0575 126.85 60.0575C126.465 60.0575 126.135 60.1492 125.86 60.3325C125.594 60.5067 125.388 60.7587 125.241 61.0887C125.103 61.4096 125.035 61.7946 125.035 62.2437V62.34C125.035 62.8442 125.113 63.2612 125.268 63.5912C125.424 63.9212 125.658 64.1687 125.97 64.3337C126.281 64.4987 126.666 64.5812 127.125 64.5812C127.5 64.5812 127.876 64.5262 128.252 64.4162C128.628 64.2971 128.972 64.1137 129.283 63.8662L129.765 65.0212C129.444 65.2871 129.04 65.4979 128.555 65.6537C128.069 65.8096 127.583 65.8875 127.097 65.8875ZM134.154 65.8875C133.668 65.8875 133.233 65.7958 132.848 65.6125C132.472 65.42 132.174 65.1633 131.954 64.8425C131.743 64.5217 131.638 64.1596 131.638 63.7562C131.638 63.2612 131.766 62.8717 132.023 62.5875C132.279 62.2942 132.697 62.0833 133.274 61.955C133.852 61.8267 134.626 61.7625 135.598 61.7625H136.285V62.7525H135.612C135.181 62.7525 134.819 62.7708 134.525 62.8075C134.232 62.835 133.994 62.8854 133.81 62.9587C133.636 63.0229 133.508 63.1146 133.425 63.2337C133.352 63.3529 133.315 63.4996 133.315 63.6737C133.315 63.9762 133.421 64.2237 133.632 64.4162C133.842 64.6087 134.136 64.705 134.512 64.705C134.814 64.705 135.08 64.6362 135.309 64.4987C135.547 64.3521 135.735 64.155 135.873 63.9075C136.01 63.66 136.079 63.3758 136.079 63.055V61.4737C136.079 61.0154 135.978 60.6854 135.777 60.4837C135.575 60.2821 135.236 60.1812 134.759 60.1812C134.383 60.1812 133.998 60.2408 133.604 60.36C133.21 60.47 132.811 60.6442 132.408 60.8825L131.913 59.7137C132.151 59.5487 132.431 59.4067 132.752 59.2875C133.082 59.1592 133.425 59.0629 133.783 58.9987C134.149 58.9254 134.493 58.8887 134.814 58.8887C135.474 58.8887 136.015 58.9896 136.437 59.1912C136.867 59.3929 137.188 59.7 137.399 60.1125C137.61 60.5158 137.715 61.0383 137.715 61.68V65.75H136.107V64.32H136.217C136.152 64.6408 136.024 64.9204 135.832 65.1587C135.648 65.3879 135.414 65.5667 135.13 65.695C134.846 65.8233 134.521 65.8875 134.154 65.8875ZM142.626 65.8875C142.25 65.8875 141.883 65.8554 141.526 65.7913C141.177 65.7271 140.856 65.64 140.563 65.53C140.27 65.4108 140.013 65.2642 139.793 65.09L140.233 63.9625C140.462 64.1092 140.71 64.2375 140.976 64.3475C141.241 64.4575 141.516 64.54 141.801 64.595C142.085 64.65 142.364 64.6775 142.639 64.6775C143.079 64.6775 143.405 64.6042 143.616 64.4575C143.836 64.3017 143.946 64.1 143.946 63.8525C143.946 63.6417 143.872 63.4812 143.726 63.3712C143.588 63.2521 143.377 63.165 143.093 63.11L141.718 62.8487C141.15 62.7387 140.714 62.5325 140.412 62.23C140.118 61.9183 139.972 61.5196 139.972 61.0337C139.972 60.5937 140.091 60.2133 140.329 59.8925C140.577 59.5717 140.916 59.3242 141.347 59.15C141.778 58.9758 142.273 58.8887 142.832 58.8887C143.153 58.8887 143.464 58.9208 143.767 58.985C144.069 59.04 144.353 59.1271 144.619 59.2462C144.894 59.3562 145.133 59.5029 145.334 59.6862L144.867 60.8137C144.693 60.6671 144.491 60.5433 144.262 60.4425C144.033 60.3325 143.794 60.25 143.547 60.195C143.308 60.1308 143.075 60.0987 142.846 60.0987C142.396 60.0987 142.062 60.1767 141.842 60.3325C141.631 60.4883 141.526 60.6946 141.526 60.9512C141.526 61.1437 141.59 61.3042 141.718 61.4325C141.846 61.5608 142.043 61.6479 142.309 61.6937L143.684 61.955C144.28 62.065 144.729 62.2667 145.032 62.56C145.343 62.8533 145.499 63.2475 145.499 63.7425C145.499 64.1917 145.38 64.5767 145.142 64.8975C144.903 65.2183 144.569 65.4658 144.138 65.64C143.707 65.805 143.203 65.8875 142.626 65.8875ZM150.016 65.8875C149.457 65.8875 148.994 65.7867 148.628 65.585C148.261 65.3742 147.986 65.0625 147.803 64.65C147.628 64.2375 147.541 63.7242 147.541 63.11V59.0262H149.26V63.1375C149.26 63.4492 149.301 63.7104 149.384 63.9212C149.476 64.1321 149.608 64.2879 149.783 64.3887C149.966 64.4896 150.195 64.54 150.47 64.54C150.782 64.54 151.052 64.4712 151.281 64.3337C151.52 64.1871 151.703 63.9854 151.831 63.7288C151.969 63.4629 152.038 63.1558 152.038 62.8075V59.0262H153.756V65.75H152.079V64.3475H152.271C152.079 64.8425 151.786 65.2229 151.391 65.4887C151.006 65.7546 150.548 65.8875 150.016 65.8875ZM156.25 65.75V59.0262H157.927V60.6487H157.79C157.918 60.0987 158.17 59.6817 158.546 59.3975C158.922 59.1042 159.421 58.9346 160.045 58.8887L160.567 58.8475L160.677 60.305L159.687 60.4012C159.128 60.4562 158.706 60.6304 158.422 60.9237C158.138 61.2079 157.996 61.6112 157.996 62.1337V65.75H156.25ZM165.545 65.8875C164.784 65.8875 164.129 65.7454 163.579 65.4612C163.029 65.1771 162.603 64.7737 162.3 64.2512C162.007 63.7287 161.86 63.11 161.86 62.395C161.86 61.6983 162.002 61.0887 162.286 60.5662C162.58 60.0437 162.978 59.6358 163.483 59.3425C163.996 59.04 164.578 58.8887 165.229 58.8887C165.871 58.8887 166.421 59.0262 166.879 59.3012C167.337 59.5762 167.69 59.9658 167.938 60.47C168.194 60.9742 168.323 61.5746 168.323 62.2712V62.78H163.249V61.79H167.113L166.893 61.9962C166.893 61.3729 166.755 60.8962 166.48 60.5662C166.205 60.2271 165.811 60.0575 165.298 60.0575C164.913 60.0575 164.583 60.1492 164.308 60.3325C164.042 60.5067 163.836 60.7587 163.689 61.0887C163.551 61.4096 163.483 61.7946 163.483 62.2437V62.34C163.483 62.8442 163.561 63.2612 163.716 63.5912C163.872 63.9212 164.106 64.1687 164.418 64.3337C164.729 64.4987 165.114 64.5812 165.573 64.5812C165.948 64.5812 166.324 64.5262 166.7 64.4162C167.076 64.2971 167.42 64.1137 167.731 63.8662L168.213 65.0212C167.892 65.2871 167.488 65.4979 167.003 65.6537C166.517 65.8096 166.031 65.8875 165.545 65.8875ZM174.964 65.75V56.0562H176.724V60.0987H181.715V56.0562H183.475V65.75H181.715V61.57H176.724V65.75H174.964ZM188.572 65.8875C188.013 65.8875 187.55 65.7867 187.183 65.585C186.816 65.3742 186.541 65.0625 186.358 64.65C186.184 64.2375 186.097 63.7242 186.097 63.11V59.0262H187.815V63.1375C187.815 63.4492 187.857 63.7104 187.939 63.9212C188.031 64.1321 188.164 64.2879 188.338 64.3887C188.521 64.4896 188.75 64.54 189.025 64.54C189.337 64.54 189.608 64.4712 189.837 64.3337C190.075 64.1871 190.258 63.9854 190.387 63.7288C190.524 63.4629 190.593 63.1558 190.593 62.8075V59.0262H192.312V65.75H190.634V64.3475H190.827C190.634 64.8425 190.341 65.2229 189.947 65.4887C189.562 65.7546 189.103 65.8875 188.572 65.8875ZM194.805 65.75V59.0262H196.483V60.3737H196.331C196.533 59.8879 196.845 59.5212 197.266 59.2737C197.697 59.0171 198.183 58.8887 198.724 58.8887C199.265 58.8887 199.709 58.9896 200.058 59.1912C200.406 59.3929 200.667 59.7 200.841 60.1125C201.016 60.5158 201.103 61.0292 201.103 61.6525V65.75H199.384V61.735C199.384 61.3867 199.338 61.1025 199.246 60.8825C199.164 60.6625 199.031 60.5021 198.848 60.4012C198.673 60.2912 198.449 60.2362 198.174 60.2362C197.844 60.2362 197.555 60.3096 197.308 60.4562C197.06 60.5937 196.868 60.7954 196.73 61.0612C196.593 61.3179 196.524 61.6204 196.524 61.9687V65.75H194.805ZM206.633 65.8875C205.734 65.8875 205.065 65.6629 204.625 65.2137C204.185 64.7646 203.965 64.1092 203.965 63.2475V60.3187H202.673V59.0262H203.965V57.0187H205.684V59.0262H207.719V60.3187H205.684V63.1512C205.684 63.5912 205.78 63.9212 205.973 64.1412C206.165 64.3612 206.477 64.4712 206.908 64.4712C207.036 64.4712 207.169 64.4575 207.307 64.43C207.444 64.3933 207.586 64.3567 207.733 64.32L207.994 65.585C207.829 65.6767 207.618 65.75 207.362 65.805C207.114 65.86 206.871 65.8875 206.633 65.8875Z" fill="#202224"/>
<mask id="mask0_118_1872" style="mask-type:alpha" maskUnits="userSpaceOnUse" x="34" y="34" width="37" height="55">
<path d="M35 43.1125C35 38.6321 38.6321 35 43.1125 35H54.386C63.0094 35 70 41.9906 70 50.614V71.886C70 80.5094 63.0094 87.5 54.386 87.5H43.1125C38.6321 87.5 35 83.8679 35 79.3875V43.1125Z" fill="white" stroke="url(#paint9_linear_118_1872)" stroke-opacity="0.3" stroke-width="1.62697"/>
</mask>
<g mask="url(#mask0_118_1872)">
<rect x="33.75" y="33.9904" width="17.5" height="54.5192" fill="#587ED7"/>
</g>
<defs>
<filter id="filter0_d_118_1872" x="0.37165" y="0.37165" width="277.71" height="130.21" filterUnits="userSpaceOnUse" color-interpolation-filters="sRGB">
<feFlood flood-opacity="0" result="BackgroundImageFix"/>
<feColorMatrix in="SourceAlpha" type="matrix" values="0 0 0 0 0 0 0 0 0 0 0 0 0 0 0 0 0 0 127 0" result="hardAlpha"/>
<feOffset dx="4.22686" dy="4.22686"/>
<feGaussianBlur stdDeviation="19.0209"/>
<feColorMatrix type="matrix" values="0 0 0 0 0 0 0 0 0 0 0 0 0 0 0 0 0 0 0.05 0"/>
<feBlend mode="normal" in2="BackgroundImageFix" result="effect1_dropShadow_118_1872"/>
<feBlend mode="normal" in="SourceGraphic" in2="effect1_dropShadow_118_1872" result="shape"/>
</filter>
<filter id="filter1_d_118_1872" x="59.4722" y="45.4275" width="36.6829" height="33.7079" filterUnits="userSpaceOnUse" color-interpolation-filters="sRGB">
<feFlood flood-opacity="0" result="BackgroundImageFix"/>
<feColorMatrix in="SourceAlpha" type="matrix" values="0 0 0 0 0 0 0 0 0 0 0 0 0 0 0 0 0 0 127 0" result="hardAlpha"/>
<feOffset dy="1.98143"/>
<feComposite in2="hardAlpha" operator="out"/>
<feColorMatrix type="matrix" values="0 0 0 0 0.233333 0 0 0 0 0.0835391 0 0 0 0 0 0 0 0 1 0"/>
<feBlend mode="normal" in2="BackgroundImageFix" result="effect1_dropShadow_118_1872"/>
<feBlend mode="normal" in="SourceGraphic" in2="effect1_dropShadow_118_1872" result="shape"/>
</filter>
<filter id="filter2_ii_118_1872" x="61.3025" y="47.3157" width="33.0151" height="28.0089" filterUnits="userSpaceOnUse" color-interpolation-filters="sRGB">
<feFlood flood-opacity="0" result="BackgroundImageFix"/>
<feBlend mode="normal" in="SourceGraphic" in2="BackgroundImageFix" result="shape"/>
<feColorMatrix in="SourceAlpha" type="matrix" values="0 0 0 0 0 0 0 0 0 0 0 0 0 0 0 0 0 0 127 0" result="hardAlpha"/>
<feOffset dy="0.774963"/>
<feComposite in2="hardAlpha" operator="arithmetic" k2="-1" k3="1"/>
<feColorMatrix type="matrix" values="0 0 0 0 0.952941 0 0 0 0 0.933333 0 0 0 0 0.85098 0 0 0 1 0"/>
<feBlend mode="normal" in2="shape" result="effect1_innerShadow_118_1872"/>
<feColorMatrix in="SourceAlpha" type="matrix" values="0 0 0 0 0 0 0 0 0 0 0 0 0 0 0 0 0 0 127 0" result="hardAlpha"/>
<feOffset dx="0.129161" dy="-0.645803"/>
<feComposite in2="hardAlpha" operator="arithmetic" k2="-1" k3="1"/>
<feColorMatrix type="matrix" values="0 0 0 0 0.780392 0 0 0 0 0.587059 0 0 0 0 0.447059 0 0 0 1 0"/>
<feBlend mode="normal" in2="effect1_innerShadow_118_1872" result="effect2_innerShadow_118_1872"/>
</filter>
<filter id="filter3_i_118_1872" x="60.4711" y="50.2074" width="7.87535" height="25.7305" filterUnits="userSpaceOnUse" color-interpolation-filters="sRGB">
<feFlood flood-opacity="0" result="BackgroundImageFix"/>
<feBlend mode="normal" in="SourceGraphic" in2="BackgroundImageFix" result="shape"/>
<feColorMatrix in="SourceAlpha" type="matrix" values="0 0 0 0 0 0 0 0 0 0 0 0 0 0 0 0 0 0 127 0" result="hardAlpha"/>
<feOffset dx="-0.855878" dy="0.700263"/>
<feGaussianBlur stdDeviation="1.43943"/>
<feComposite in2="hardAlpha" operator="arithmetic" k2="-1" k3="1"/>
<feColorMatrix type="matrix" values="0 0 0 0 0 0 0 0 0 0 0 0 0 0 0 0 0 0 0.25 0"/>
<feBlend mode="normal" in2="shape" result="effect1_innerShadow_118_1872"/>
</filter>
<linearGradient id="paint0_linear_118_1872" x1="80.6043" y1="16.0373" x2="172.404" y2="127.365" gradientUnits="userSpaceOnUse">
<stop stop-color="#F1F1F1"/>
<stop offset="1" stop-color="#E1E1E1"/>
</linearGradient>
<linearGradient id="paint1_linear_118_1872" x1="64.8433" y1="51.8155" x2="64.8433" y2="75.3244" gradientUnits="userSpaceOnUse">
<stop stop-color="#B07B5D"/>
<stop offset="1" stop-color="#C79672"/>
</linearGradient>
<linearGradient id="paint2_linear_118_1872" x1="82.4837" y1="51.5571" x2="75.0769" y2="72.8259" gradientUnits="userSpaceOnUse">
<stop offset="0.000323348" stop-color="#AB633B"/>
<stop offset="0.116401" stop-color="#9F582F"/>
<stop offset="0.784832" stop-color="#692905"/>
<stop offset="0.953012" stop-color="#632503"/>
</linearGradient>
<linearGradient id="paint3_linear_118_1872" x1="77.97" y1="45.2994" x2="77.97" y2="76.7221" gradientUnits="userSpaceOnUse">
<stop stop-color="#F0DCA1"/>
<stop offset="1" stop-color="#D9AF64"/>
</linearGradient>
<linearGradient id="paint4_linear_118_1872" x1="77.97" y1="45.2994" x2="77.97" y2="76.7221" gradientUnits="userSpaceOnUse">
<stop stop-color="#F0DCA1"/>
<stop offset="1" stop-color="#D9AF64"/>
</linearGradient>
<linearGradient id="paint5_linear_118_1872" x1="78.3526" y1="66.9657" x2="69.0064" y2="65.849" gradientUnits="userSpaceOnUse">
<stop stop-color="#AD6981"/>
<stop offset="0.484375" stop-color="#D92F58"/>
<stop offset="1" stop-color="#C93939"/>
</linearGradient>
<linearGradient id="paint6_linear_118_1872" x1="64.8789" y1="50.2074" x2="64.8789" y2="75.5229" gradientUnits="userSpaceOnUse">
<stop stop-color="#B07B5D"/>
<stop offset="1" stop-color="#C79672"/>
</linearGradient>
<linearGradient id="paint7_linear_118_1872" x1="60.6285" y1="45.4337" x2="87.886" y2="62.8917" gradientUnits="userSpaceOnUse">
<stop stop-color="white"/>
<stop offset="1" stop-color="white" stop-opacity="0"/>
</linearGradient>
<linearGradient id="paint8_linear_118_1872" x1="40.0125" y1="47.5365" x2="68.7194" y2="66.644" gradientUnits="userSpaceOnUse">
<stop stop-color="#5F3E21"/>
<stop offset="1" stop-color="#5F3E21" stop-opacity="0"/>
</linearGradient>
<linearGradient id="paint9_linear_118_1872" x1="42.9808" y1="16.0373" x2="80.9617" y2="24.0979" gradientUnits="userSpaceOnUse">
<stop stop-color="#F1F1F1"/>
<stop offset="1" stop-color="#E1E1E1"/>
</linearGradient>
</defs>
</svg>
