<svg width="279" height="132" viewBox="0 0 279 132" fill="none" xmlns="http://www.w3.org/2000/svg">
<g filter="url(#filter0_d_118_1854)">
<rect x="35" y="35.5" width="200" height="52.5" rx="8.1125" fill="white"/>
<rect x="35" y="35.5" width="200" height="52.5" rx="8.1125" stroke="url(#paint0_linear_118_1854)" stroke-opacity="0.3" stroke-width="1.62697"/>
</g>
<g filter="url(#filter1_d_118_1854)">
<path d="M69.4646 66.9418L67.6538 65.9689C66.8643 65.5425 66.2005 64.9177 65.7282 64.1556L65.6394 64.007L65.5536 63.8494C65.5023 63.7527 65.4543 63.6547 65.4095 63.5556C65.1373 62.9486 64.9851 62.2926 64.9634 61.6227L64.7234 53.8193C64.6972 52.9231 64.7621 52.0272 65.1863 51.2364C65.221 51.1713 65.2802 51.0211 65.3175 50.9592L65.4803 50.747V50.747C65.8087 50.2352 66.1842 49.7711 66.2198 49.1641L66.2701 48.3046C66.2842 48.0646 66.3191 47.8262 66.3745 47.5923L66.3892 47.5302L66.4327 47.4022V47.4022C66.4739 47.1886 66.6258 47.0074 66.774 46.8482C66.872 46.7428 66.9965 46.6346 67.1335 46.5333C67.2032 46.4937 67.2733 46.4616 67.3431 46.4357C68.0138 46.1861 68.75 46.5269 69.3726 46.8797L70.2519 47.3779C70.4252 47.4761 70.6283 47.5101 70.821 47.4599C72.6039 46.9958 74.7936 45.648 76.535 45.5945C77.0521 45.5786 77.5663 45.6412 78.0608 45.7784C80.6744 46.5015 83.0842 47.764 85.6193 48.733C86.4088 49.1584 87.146 50.0217 87.6183 50.7838C88.0903 51.547 88.1896 52.463 88.2186 53.3592L88.2186 57.122C88.2186 57.8533 88.3329 58.3095 88.8464 58.8302V58.8302C89.1475 59.1355 89.4824 59.836 89.4824 60.2648L89.4824 65.5207C89.4956 65.9491 88.1189 66.8331 87.6777 66.9937C87.6365 67.0088 87.5993 67.0125 87.5563 67.0037V67.0037C87.4425 66.9806 87.3132 66.9791 87.2135 66.9197L85.7485 66.0461C85.5855 65.9489 85.3818 65.9506 85.2204 66.0505V66.0505C84.9016 66.248 84.8989 66.7109 85.2154 66.912L86.0981 67.4729C86.3131 67.5867 86.494 67.7557 86.6219 67.9628C86.7498 68.1698 86.8198 68.4074 86.8248 68.6514L86.8252 68.6636C86.8288 68.7717 86.829 69.0755 86.8213 69.4193C86.8151 69.7112 86.8035 70.0319 86.7835 70.29C86.7748 70.4018 86.7628 70.4495 86.7509 70.5306C86.7463 70.6172 86.7193 70.6713 86.706 70.7014C86.7002 70.7215 86.6791 70.744 86.6728 70.7564C86.5505 70.9535 86.579 70.8824 86.3714 71.0092L79.9502 75.126C79.8456 75.1911 79.739 75.2519 79.6308 75.3104C79.5083 75.3761 79.3834 75.4373 79.2564 75.4932C78.912 75.6463 78.5538 75.7645 78.1866 75.8476L77.9942 75.8877L77.85 75.9132C77.6057 75.9527 77.3584 75.9769 77.1095 75.9845C76.1037 76.0155 75.2851 75.886 74.3988 75.4083L67.807 71.856C67.5935 71.741 67.414 71.5709 67.2864 71.3649C67.2274 71.2695 67.171 70.8636 67.1268 70.4319C67.0758 69.9308 67.0408 69.3949 67.0368 69.2647C67.0293 69.0219 67.0857 68.7815 67.2004 68.5669C67.315 68.3524 67.4838 68.1727 67.6897 68.0437L69.4646 66.9418Z" fill="url(#paint1_linear_118_1854)"/>
<path d="M69.4646 66.9418L67.6538 65.9689C66.8643 65.5425 66.2005 64.9177 65.7282 64.1556L65.6394 64.007L65.5536 63.8494C65.5023 63.7527 65.4543 63.6547 65.4095 63.5556C65.1373 62.9486 64.9851 62.2926 64.9634 61.6227L64.7234 53.8193C64.6972 52.9231 64.7621 52.0272 65.1863 51.2364C65.221 51.1713 65.2802 51.0211 65.3175 50.9592L65.4803 50.747V50.747C65.8087 50.2352 66.1842 49.7711 66.2198 49.1641L66.2701 48.3046C66.2842 48.0646 66.3191 47.8262 66.3745 47.5923L66.3892 47.5302L66.4327 47.4022V47.4022C66.4739 47.1886 66.6258 47.0074 66.774 46.8482C66.872 46.7428 66.9965 46.6346 67.1335 46.5333C67.2032 46.4937 67.2733 46.4616 67.3431 46.4357C68.0138 46.1861 68.75 46.5269 69.3726 46.8797L70.2519 47.3779C70.4252 47.4761 70.6283 47.5101 70.821 47.4599C72.6039 46.9958 74.7936 45.648 76.535 45.5945C77.0521 45.5786 77.5663 45.6412 78.0608 45.7784C80.6744 46.5015 83.0842 47.764 85.6193 48.733C86.4088 49.1584 87.146 50.0217 87.6183 50.7838C88.0903 51.547 88.1896 52.463 88.2186 53.3592L88.2186 57.122C88.2186 57.8533 88.3329 58.3095 88.8464 58.8302V58.8302C89.1475 59.1355 89.4824 59.836 89.4824 60.2648L89.4824 65.5207C89.4956 65.9491 88.1189 66.8331 87.6777 66.9937C87.6365 67.0088 87.5993 67.0125 87.5563 67.0037V67.0037C87.4425 66.9806 87.3132 66.9791 87.2135 66.9197L85.7485 66.0461C85.5855 65.9489 85.3818 65.9506 85.2204 66.0505V66.0505C84.9016 66.248 84.8989 66.7109 85.2154 66.912L86.0981 67.4729C86.3131 67.5867 86.494 67.7557 86.6219 67.9628C86.7498 68.1698 86.8198 68.4074 86.8248 68.6514L86.8252 68.6636C86.8288 68.7717 86.829 69.0755 86.8213 69.4193C86.8151 69.7112 86.8035 70.0319 86.7835 70.29C86.7748 70.4018 86.7628 70.4495 86.7509 70.5306C86.7463 70.6172 86.7193 70.6713 86.706 70.7014C86.7002 70.7215 86.6791 70.744 86.6728 70.7564C86.5505 70.9535 86.579 70.8824 86.3714 71.0092L79.9502 75.126C79.8456 75.1911 79.739 75.2519 79.6308 75.3104C79.5083 75.3761 79.3834 75.4373 79.2564 75.4932C78.912 75.6463 78.5538 75.7645 78.1866 75.8476L77.9942 75.8877L77.85 75.9132C77.6057 75.9527 77.3584 75.9769 77.1095 75.9845C76.1037 76.0155 75.2851 75.886 74.3988 75.4083L67.807 71.856C67.5935 71.741 67.414 71.5709 67.2864 71.3649C67.2274 71.2695 67.171 70.8636 67.1268 70.4319C67.0758 69.9308 67.0408 69.3949 67.0368 69.2647C67.0293 69.0219 67.0857 68.7815 67.2004 68.5669C67.315 68.3524 67.4838 68.1727 67.6897 68.0437L69.4646 66.9418Z" fill="#C42222" fill-opacity="0.43"/>
<path d="M87.373 71.2324C87.3458 71.2755 87.313 71.3296 87.2749 71.379C87.214 71.4579 87.1341 71.5411 87.0242 71.6144C86.9785 71.6448 86.9376 71.6665 86.9148 71.6783C86.8985 71.6867 86.8693 71.7019 86.8686 71.7022C86.8571 71.708 86.8437 71.714 86.8234 71.7261L80.4078 75.8393L80.3982 75.8455C80.2752 75.922 80.1527 75.9919 80.0344 76.056L80.0315 76.058C79.8923 76.1326 79.7478 76.2017 79.6002 76.2667L79.6012 76.2676C79.2054 76.4436 78.7942 76.5796 78.3739 76.6747L78.3603 76.6771L78.1671 76.7172L78.1545 76.7205L78.1409 76.7229L77.9971 76.7478L77.9854 76.7502C77.706 76.7954 77.4223 76.8232 77.136 76.832C76.0935 76.864 75.1701 76.7385 74.193 76.2562L73.9965 76.1547L67.4046 72.6018C67.1022 72.4388 66.8434 72.2087 66.6464 71.9324L66.5655 71.8108C66.4731 71.6615 66.4334 71.4989 66.4193 71.4411C66.3974 71.3519 66.3799 71.2539 66.3647 71.1595C66.3493 71.0641 66.3345 70.9596 66.321 70.8511L66.2834 70.5181C66.2313 70.0062 66.1948 69.4487 66.19 69.2909C66.1779 68.8996 66.2681 68.512 66.4524 68.1671C66.6375 67.8208 66.9096 67.5317 67.2394 67.3251L67.2423 67.3231L67.7715 66.9941L67.2529 66.716L67.2509 66.7151C66.3316 66.2185 65.5576 65.4907 65.0072 64.6024L65 64.5909L65.0009 64.5899L64.9114 64.4422L64.9031 64.4268L64.8948 64.4124L64.8089 64.2548L64.8047 64.2462C64.7451 64.1338 64.689 64.02 64.6369 63.9045L64.6359 63.9025C64.3582 63.2834 64.1882 62.6204 64.133 61.9415L64.1162 61.6499L63.8761 53.844L63.871 53.4866C63.8711 52.6397 63.9737 51.7039 64.4392 50.836C64.4406 50.833 64.4421 50.8286 64.4446 50.8231C64.4538 50.8031 64.4628 50.7828 64.4766 50.7518C64.4888 50.7245 64.5042 50.689 64.5205 50.6547C64.5348 50.6248 64.5603 50.5737 64.5917 50.5216L64.6158 50.4808L64.645 50.4438L64.7915 50.2517C64.9768 49.965 65.0998 49.7984 65.2155 49.586C65.3201 49.394 65.366 49.2496 65.374 49.1141L65.4237 48.2547L65.4415 48.0382C65.4636 47.8224 65.4997 47.6082 65.5498 47.3969L65.5645 47.3349L65.574 47.2955L65.5865 47.258L65.6286 47.1336C65.7443 46.7113 66.0243 46.4088 66.1531 46.2704L66.264 46.1586C66.3781 46.0487 66.5028 45.9455 66.6288 45.8523L66.6708 45.8217L66.7159 45.7959C66.8265 45.7332 66.9373 45.682 67.0473 45.6411C67.6064 45.433 68.1549 45.488 68.6078 45.6165C69.0542 45.7433 69.4656 45.9578 69.7905 46.1419L70.6467 46.6276C71.4561 46.4112 72.3492 46.0051 73.3748 45.5881C74.354 45.19 75.4671 44.7793 76.5086 44.7472C77.1114 44.7287 77.7112 44.8012 78.2875 44.9612L78.2866 44.9622C79.6477 45.3388 80.9444 45.8517 82.1993 46.3826C83.1525 46.7859 84.0674 47.1923 84.9921 47.5717L85.9218 47.9408L85.9732 47.9607L86.0209 47.9866C86.875 48.4468 87.6202 49.2736 88.1333 50.0222L88.3384 50.3374L88.3394 50.3383L88.4457 50.5207C88.9495 51.4432 89.038 52.4759 89.0656 53.332L89.0665 53.3594L89.0659 57.1219C89.0659 57.4508 89.0936 57.6393 89.1419 57.78C89.1853 57.9068 89.2633 58.0454 89.4499 58.2347L89.5399 58.3325C89.746 58.5699 89.9217 58.8711 90.0487 59.1503C90.1722 59.4219 90.2949 59.7714 90.3236 60.1169L90.3301 60.2652L90.3298 65.4942L90.328 65.5949C90.3134 65.8223 90.2284 66.0055 90.1634 66.1198C90.0833 66.2605 89.9832 66.3828 89.8912 66.4828C89.7062 66.6837 89.4746 66.8758 89.2547 67.0388C88.8835 67.3137 88.4308 67.5898 88.1008 67.7357L87.9676 67.7906C87.8279 67.8414 87.6742 67.8638 87.5102 67.8496C87.6098 68.0956 87.6653 68.358 87.6718 68.6253L87.6721 68.635L87.6752 68.9564C87.6747 69.097 87.6724 69.2645 87.6685 69.4383C87.6622 69.7357 87.65 70.0741 87.6283 70.355L87.6284 70.356C87.6168 70.5043 87.5933 70.6285 87.5896 70.6532L87.5876 70.6523C87.5773 70.7439 87.5617 70.8253 87.5394 70.8951C87.5221 70.9493 87.4992 70.9985 87.4877 71.0247C87.4688 71.0714 87.4517 71.1088 87.4383 71.1327C87.4158 71.1727 87.3945 71.2037 87.3842 71.2184C87.3788 71.2261 87.374 71.2326 87.3721 71.2353C87.369 71.2396 87.3697 71.2373 87.3711 71.2354C87.3715 71.2348 87.372 71.2337 87.373 71.2324Z" stroke="#820604" stroke-width="1.69534"/>
</g>
<path d="M86.9332 68.482C86.9432 68.7255 86.9313 70.3801 86.8165 70.5948C86.7016 70.8095 86.5314 70.9894 86.3237 71.1155L79.9628 75.0668C79.1074 75.5981 78.1276 75.8941 77.122 75.925C76.1164 75.956 75.1203 75.7208 74.2338 75.2431L67.6421 71.6901C67.4286 71.575 67.2491 71.4055 67.1215 71.1987C66.994 70.9919 66.8794 69.3423 66.8719 69.0992C66.8644 68.8561 66.9209 68.6153 67.0355 68.4011C67.1501 68.1868 67.3189 68.0066 67.5249 67.8786L73.8857 63.9273C74.7411 63.3958 75.7209 63.0997 76.7266 63.0688C77.7322 63.0379 78.7283 63.2732 79.6148 63.7511L86.2064 67.304C86.4215 67.4171 86.6025 67.5861 86.7303 67.7933C86.8581 68.0005 86.9282 68.2384 86.9332 68.482Z" fill="#E57904"/>
<path d="M86.9332 68.482C86.9432 68.7255 86.9313 70.3801 86.8165 70.5948C86.7016 70.8095 86.5314 70.9894 86.3237 71.1155L79.9628 75.0668C79.1074 75.5981 78.1276 75.8941 77.122 75.925C76.1164 75.956 75.1203 75.7208 74.2338 75.2431L67.6421 71.6901C67.4286 71.575 67.2491 71.4055 67.1215 71.1987C66.994 70.9919 66.8794 69.3423 66.8719 69.0992C66.8644 68.8561 66.9209 68.6153 67.0355 68.4011C67.1501 68.1868 67.3189 68.0066 67.5249 67.8786L73.8857 63.9273C74.7411 63.3958 75.7209 63.0997 76.7266 63.0688C77.7322 63.0379 78.7283 63.2732 79.6148 63.7511L86.2064 67.304C86.4215 67.4171 86.6025 67.5861 86.7303 67.7933C86.8581 68.0005 86.9282 68.2384 86.9332 68.482Z" fill="url(#paint2_linear_118_1854)"/>
<path fill-rule="evenodd" clip-rule="evenodd" d="M68.714 46.2346C66.7637 45.9457 66.4172 47.4443 66.4311 47.8968L67.1877 51.7828C67.2022 52.2541 67.4514 52.6884 67.8521 52.9379L88.0129 65.522C88.2128 65.6462 88.4432 65.6292 88.6158 65.52C88.774 65.419 88.8839 65.2411 88.8773 65.0248L88.6853 58.7843C88.6708 58.313 88.4216 57.8788 88.0209 57.6293L68.714 46.2346ZM69.6737 48.8097C69.2904 48.5696 68.7945 48.8544 68.8084 49.3058L68.8748 51.4636C68.8893 51.9349 69.1376 52.3669 69.5372 52.6176L85.3028 62.4921C85.5154 62.6248 85.7626 62.5973 85.9381 62.4693C86.0791 62.3655 86.1742 62.1968 86.168 61.996L86.1017 59.8382C86.0872 59.3669 85.8388 58.9348 85.4392 58.6842L69.6737 48.8097Z" fill="#FFC40E"/>
<path d="M66.3231 48.2564C66.3484 47.6361 67.0221 47.2629 67.5613 47.5706L86.8733 58.5954C87.3005 58.8392 87.5697 59.2884 87.5848 59.7801L87.7757 65.9842C87.7895 66.4357 87.2948 66.7199 86.9116 66.4807L66.8073 53.9317C66.3762 53.6626 66.1227 53.1829 66.1434 52.6752L66.3231 48.2564ZM68.7046 49.4816C68.3215 49.2419 67.8257 49.5263 67.8396 49.9782L67.9059 52.1354C67.9205 52.6065 68.1692 53.0392 68.5687 53.2894L84.3338 63.1639C84.717 63.4039 85.2127 63.1193 85.1988 62.6673L85.1325 60.5101C85.1179 60.0392 84.87 59.6063 84.4707 59.3561L68.7046 49.4816Z" fill="#FD9800"/>
<mask id="mask0_118_1854" style="mask-type:alpha" maskUnits="userSpaceOnUse" x="66" y="63" width="21" height="13">
<path d="M86.9332 68.482C86.9432 68.7255 86.9313 70.3801 86.8165 70.5948C86.7016 70.8095 86.5314 70.9894 86.3237 71.1155L79.9628 75.0668C79.1074 75.5981 78.1276 75.8941 77.122 75.925C76.1164 75.956 75.1203 75.7208 74.2338 75.2431L67.6421 71.6901C67.4286 71.575 67.2491 71.4055 67.1215 71.1987C66.994 70.9919 66.8794 69.3423 66.8719 69.0992C66.8644 68.8561 66.9209 68.6153 67.0355 68.4011C67.1501 68.1868 67.3189 68.0066 67.5249 67.8786L73.8857 63.9273C74.7411 63.3958 75.7209 63.0997 76.7266 63.0688C77.7322 63.0379 78.7283 63.2732 79.6148 63.7511L86.2064 67.304C86.4215 67.4171 86.6025 67.5861 86.7303 67.7933C86.8581 68.0005 86.9282 68.2384 86.9332 68.482Z" fill="#E57904"/>
<path d="M86.9332 68.482C86.9432 68.7255 86.9313 70.3801 86.8165 70.5948C86.7016 70.8095 86.5314 70.9894 86.3237 71.1155L79.9628 75.0668C79.1074 75.5981 78.1276 75.8941 77.122 75.925C76.1164 75.956 75.1203 75.7208 74.2338 75.2431L67.6421 71.6901C67.4286 71.575 67.2491 71.4055 67.1215 71.1987C66.994 70.9919 66.8794 69.3423 66.8719 69.0992C66.8644 68.8561 66.9209 68.6153 67.0355 68.4011C67.1501 68.1868 67.3189 68.0066 67.5249 67.8786L73.8857 63.9273C74.7411 63.3958 75.7209 63.0997 76.7266 63.0688C77.7322 63.0379 78.7283 63.2732 79.6148 63.7511L86.2064 67.304C86.4215 67.4171 86.6025 67.5861 86.7303 67.7933C86.8581 68.0005 86.9282 68.2384 86.9332 68.482Z" fill="url(#paint3_linear_118_1854)"/>
</mask>
<g mask="url(#mask0_118_1854)">
<path d="M76.5507 68.4835L92.106 64.7861L92.106 77.2093L77.5577 76.7494L77.5577 74.8612L76.5507 68.4835Z" fill="url(#paint4_linear_118_1854)"/>
</g>
<g filter="url(#filter2_i_118_1854)">
<path d="M86.9332 68.482C86.9432 68.7255 86.9313 70.3801 86.8165 70.5948C86.7016 70.8095 86.5314 70.9894 86.3237 71.1155L79.9628 75.0668C79.1074 75.5981 78.1276 75.8941 77.122 75.925C76.1164 75.956 75.1203 75.7208 74.2338 75.2431L67.6421 71.6901C67.4286 71.575 67.2491 71.4055 67.1215 71.1987C66.994 70.9919 66.8794 69.3423 66.8719 69.0992C66.8644 68.8561 66.9209 68.6153 67.0355 68.4011C67.1501 68.1868 67.3189 68.0066 67.5249 67.8786L73.8857 63.9273C74.7411 63.3958 75.7209 63.0997 76.7266 63.0688C77.7322 63.0379 78.7283 63.2732 79.6148 63.7511L86.2064 67.304C86.4215 67.4171 86.6025 67.5861 86.7303 67.7933C86.8581 68.0005 86.9282 68.2384 86.9332 68.482Z" fill="#D9D9D9" fill-opacity="0.01"/>
</g>
<g filter="url(#filter3_d_118_1854)">
<path d="M76.1365 45.6265C79.1932 45.5325 82.7695 47.6139 85.6009 48.5781C86.3903 49.0038 87.0546 49.6293 87.5267 50.3919C87.9987 51.1544 88.2624 52.0279 88.2914 52.9242L88.5314 60.7272C88.5575 61.6237 88.3481 62.5116 87.9238 63.3018C87.4994 64.0919 86.8748 64.7571 86.1131 65.2304L79.4755 69.3397C78.7127 69.8117 77.8387 70.0747 76.9421 70.1026C76.0455 70.1298 75.157 69.9211 74.3666 69.4969L67.489 65.8033C66.6997 65.3777 66.0353 64.752 65.5632 63.9895C65.0911 63.227 64.8275 62.3536 64.7985 61.4572L64.5585 53.6542C64.5324 52.7577 64.7418 51.8698 65.1662 51.0796C65.2224 50.9749 65.2821 50.8724 65.3453 50.7722C65.3762 50.6717 65.4257 50.5742 65.4927 50.4824C65.5589 50.3916 65.6406 50.3076 65.7361 50.2336C66.0872 49.8101 66.5058 49.4437 66.9769 49.151C69.7096 48.0119 73.108 45.7197 76.1365 45.6265Z" fill="url(#paint5_linear_118_1854)"/>
</g>
<path d="M66.9747 54.8117C65.4916 54.1066 64.3894 52.5354 65.1663 51.0887V51.0887C65.5907 50.2986 66.2149 49.6337 66.9767 49.1603C67.7667 48.8311 68.6123 48.4054 69.4885 47.9644C71.6433 46.8797 73.9833 45.7018 76.1364 45.6355C78.3039 45.5688 80.7327 46.5962 82.9719 47.5434C83.8905 47.9319 84.7772 48.307 85.6008 48.5875C86.3903 49.0131 87.0542 49.6384 87.5263 50.401V50.401C88.3955 51.805 87.4128 53.4594 85.9964 54.3082L81.198 57.1836C79.8976 57.8139 78.4115 58.1704 76.889 58.2172C75.3666 58.264 73.8614 57.9996 72.5247 57.4504L66.9747 54.8117Z" fill="url(#paint6_linear_118_1854)"/>
<path d="M88.3612 56.1296C88.3872 56.8564 88.1771 57.5764 87.7527 58.217C87.3282 58.8576 86.7042 59.3972 85.9425 59.7811L79.3037 63.1129C78.5407 63.4957 77.6668 63.7095 76.7701 63.7323C75.8735 63.7545 74.9857 63.585 74.1954 63.2413L69.4652 61.2502C68.6758 60.9053 68.0121 60.3983 67.5401 59.7802C67.438 59.6464 67.3467 59.5078 67.2644 59.3663C67.2823 59.3744 67.3001 59.3838 67.3181 59.3917L74.1947 62.3848C74.9851 62.7287 75.8736 62.8981 76.7703 62.8758C77.667 62.8531 78.541 62.6393 79.304 62.2565L85.9418 58.9237C86.7035 58.5399 87.3285 58.0011 87.7529 57.3606C88.0915 56.8496 88.2906 56.2877 88.3453 55.7126L88.3612 56.1296Z" fill="#D35F00"/>
<path d="M74.8724 52.9147L78.489 52.8034L78.8563 64.7427C78.8762 65.3925 78.3657 65.9354 77.7159 65.9554L76.4523 65.9943C75.8025 66.0143 75.2596 65.5037 75.2396 64.854L74.8724 52.9147Z" fill="url(#paint7_linear_118_1854)"/>
<path opacity="0.4" d="M84.1315 49.0752C84.1372 49.1948 84.0919 49.3141 84.0005 49.4207C83.9091 49.5272 83.7748 49.6171 83.6117 49.681L78.6185 51.6794C77.9469 51.9481 77.1806 52.1022 76.3964 52.1263C75.6123 52.1504 74.8379 52.0437 74.1512 51.8168L69.0445 50.129C68.8791 50.0743 68.7407 49.9926 68.6431 49.8921C68.5455 49.7916 68.4922 49.6758 68.4885 49.5564C68.4848 49.437 68.5309 49.3182 68.6222 49.2119C68.7134 49.1056 68.8466 49.0155 69.0083 48.9508L74.0015 46.9524C74.673 46.6836 75.4394 46.5294 76.2236 46.5053C77.0077 46.4812 77.7821 46.588 78.4688 46.815L83.5755 48.5027C83.7421 48.5564 83.8817 48.6378 83.9795 48.7385C84.0773 48.8393 84.1298 48.9555 84.1315 49.0752Z" fill="url(#paint8_linear_118_1854)"/>
<path opacity="0.45" d="M76.2789 48.2918C77.063 48.2677 77.8373 48.375 78.5239 48.602L82.7876 50.0106L78.6187 51.6797C77.9473 51.9483 77.181 52.1018 76.3969 52.1259C75.6128 52.15 74.8378 52.0436 74.151 51.8167L69.8873 50.4071L74.0562 48.739C74.7276 48.4702 75.4947 48.3159 76.2789 48.2918Z" fill="#D00000"/>
<path d="M64.6856 57.9257L66.5042 58.8587L66.1305 59.5722L64.7105 58.7854L64.6856 57.9257Z" fill="#D35F00"/>
<g filter="url(#filter4_d_118_1854)">
<path d="M68.7949 56.3536C69.4273 55.7832 70.422 55.9253 70.8693 56.6501L74.1725 62.0024C74.5533 62.6194 74.3848 63.4265 73.789 63.8397L71.4206 65.4821C70.7891 65.9201 69.9205 65.75 69.5007 65.1062L66.2829 60.171C65.9162 59.6085 66.0133 58.8629 66.5118 58.4131L68.7949 56.3536Z" fill="#D35F00"/>
<path d="M68.834 56.3972C69.4393 55.8511 70.3912 55.9872 70.8194 56.681L74.1233 62.0331C74.4876 62.6238 74.326 63.3965 73.7557 63.792L71.3872 65.4345C70.7826 65.8535 69.951 65.6908 69.5492 65.0745L66.3314 60.139C65.9805 59.6006 66.0743 58.8867 66.5514 58.4563L68.834 56.3972Z" stroke="black" stroke-opacity="0.24" stroke-width="0.116498"/>
</g>
<g filter="url(#filter5_d_118_1854)">
<ellipse cx="69.8757" cy="57.9852" rx="0.731359" ry="1.02302" transform="rotate(144.144 69.8757 57.9852)" fill="#FDB90E"/>
</g>
<g filter="url(#filter6_d_118_1854)">
<ellipse cx="70.0848" cy="60.8676" rx="0.731359" ry="1.02302" transform="rotate(144.144 70.0848 60.8676)" fill="#FDB90E"/>
</g>
<g filter="url(#filter7_d_118_1854)">
<ellipse cx="67.6247" cy="59.7378" rx="0.731359" ry="1.02302" transform="rotate(144.144 67.6247 59.7378)" fill="#FDB90E"/>
</g>
<g filter="url(#filter8_d_118_1854)">
<ellipse cx="70.1174" cy="63.7593" rx="0.731359" ry="1.02302" transform="rotate(144.144 70.1174 63.7593)" fill="#FDB90E"/>
</g>
<g filter="url(#filter9_d_118_1854)">
<ellipse cx="72.6365" cy="61.9926" rx="0.731359" ry="1.02302" transform="rotate(144.144 72.6365 61.9926)" fill="#FDB90E"/>
</g>
<rect x="82.8373" y="57.8619" width="1.91195" height="6.53846" fill="black" fill-opacity="0.22"/>
<path d="M83.2477 63.1364C82.7322 63.4693 82.7486 64.2288 83.2781 64.539L87.4528 66.9854C87.836 67.2246 89.4993 66.0225 89.4854 65.571L89.4854 59.9295C89.4709 59.4575 89.1733 58.244 87.951 57.6809L85.4543 56.4783C85.0473 56.2822 84.5773 56.2638 84.1562 56.4272L83.4901 56.6859C82.1491 57.2065 82.5516 59.2015 83.9895 59.1615L85.7352 59.1128C86.1347 59.3631 86.3832 59.7961 86.3977 60.2673L86.464 62.4243C86.4779 62.8762 85.4514 62.785 85.0682 62.5449V62.5449C84.7702 62.3781 84.4044 62.3896 84.1175 62.5748L83.2477 63.1364Z" fill="url(#paint9_linear_118_1854)"/>
<g filter="url(#filter10_d_118_1854)">
<path d="M82.756 63.9061C82.7642 64.1735 82.9101 64.4176 83.1417 64.5514L87.207 66.9016C87.5902 67.1406 88.0852 66.8558 88.0713 66.4043L87.8794 60.1639C87.8649 59.6915 87.6157 59.2584 87.2149 59.0077L84.0501 57.1706C83.3839 56.7839 82.5522 57.28 82.5759 58.0499V58.0499C82.5867 58.4018 82.785 58.7209 83.0957 58.8863L84.7658 59.7758C85.1654 60.0264 85.4138 60.4596 85.4283 60.9309L85.4946 63.0875C85.5085 63.539 85.0127 63.8238 84.6294 63.5837L83.8848 63.1967C83.3611 62.9245 82.7379 63.3162 82.756 63.9061V63.9061Z" fill="#E0660D"/>
<path d="M82.756 63.9061C82.7642 64.1735 82.9101 64.4176 83.1417 64.5514L87.207 66.9016C87.5902 67.1406 88.0852 66.8558 88.0713 66.4043L87.8794 60.1639C87.8649 59.6915 87.6157 59.2584 87.2149 59.0077L84.0501 57.1706C83.3839 56.7839 82.5522 57.28 82.5759 58.0499V58.0499C82.5867 58.4018 82.785 58.7209 83.0957 58.8863L84.7658 59.7758C85.1654 60.0264 85.4138 60.4596 85.4283 60.9309L85.4946 63.0875C85.5085 63.539 85.0127 63.8238 84.6294 63.5837L83.8848 63.1967C83.3611 62.9245 82.7379 63.3162 82.756 63.9061V63.9061Z" fill="url(#paint10_linear_118_1854)"/>
</g>
<path d="M112.134 66.25V58.0275H108.807V56.5562H117.222V58.0275H113.894V66.25H112.134ZM120.868 66.3875C120.171 66.3875 119.566 66.2454 119.053 65.9612C118.54 65.6771 118.141 65.2737 117.857 64.7512C117.573 64.2196 117.431 63.5962 117.431 62.8812C117.431 62.1662 117.573 61.5475 117.857 61.025C118.141 60.5025 118.54 60.0992 119.053 59.815C119.566 59.5308 120.171 59.3887 120.868 59.3887C121.565 59.3887 122.17 59.5308 122.683 59.815C123.196 60.0992 123.595 60.5025 123.879 61.025C124.164 61.5475 124.306 62.1662 124.306 62.8812C124.306 63.5962 124.164 64.2196 123.879 64.7512C123.595 65.2737 123.196 65.6771 122.683 65.9612C122.17 66.2454 121.565 66.3875 120.868 66.3875ZM120.868 65.0812C121.381 65.0812 121.794 64.8979 122.106 64.5312C122.417 64.1554 122.573 63.6054 122.573 62.8812C122.573 62.1479 122.417 61.6025 122.106 61.245C121.794 60.8783 121.381 60.695 120.868 60.695C120.355 60.695 119.942 60.8783 119.631 61.245C119.319 61.6025 119.163 62.1479 119.163 62.8812C119.163 63.6054 119.319 64.1554 119.631 64.5312C119.942 64.8979 120.355 65.0812 120.868 65.0812ZM128.862 66.3875C128.303 66.3875 127.84 66.2867 127.474 66.085C127.107 65.8742 126.832 65.5625 126.649 65.15C126.475 64.7375 126.387 64.2242 126.387 63.61V59.5262H128.106V63.6375C128.106 63.9492 128.147 64.2104 128.23 64.4212C128.322 64.6321 128.455 64.7879 128.629 64.8887C128.812 64.9896 129.041 65.04 129.316 65.04C129.628 65.04 129.898 64.9712 130.127 64.8337C130.366 64.6871 130.549 64.4854 130.677 64.2288C130.815 63.9629 130.884 63.6558 130.884 63.3075V59.5262H132.602V66.25H130.925V64.8475H131.117C130.925 65.3425 130.632 65.7229 130.237 65.9887C129.852 66.2546 129.394 66.3875 128.862 66.3875ZM135.096 66.25V59.5262H136.773V61.1487H136.636C136.764 60.5987 137.016 60.1817 137.392 59.8975C137.768 59.6042 138.267 59.4346 138.891 59.3887L139.413 59.3475L139.523 60.805L138.533 60.9012C137.974 60.9562 137.552 61.1304 137.268 61.4237C136.984 61.7079 136.842 62.1112 136.842 62.6337V66.25H135.096ZM141.185 66.25V59.5262H142.862V60.8737H142.711C142.913 60.3879 143.224 60.0212 143.646 59.7737C144.077 59.5171 144.563 59.3887 145.104 59.3887C145.644 59.3887 146.089 59.4896 146.437 59.6912C146.786 59.8929 147.047 60.2 147.221 60.6125C147.395 61.0158 147.482 61.5292 147.482 62.1525V66.25H145.764V62.235C145.764 61.8867 145.718 61.6025 145.626 61.3825C145.544 61.1625 145.411 61.0021 145.227 60.9012C145.053 60.7912 144.829 60.7362 144.554 60.7362C144.224 60.7362 143.935 60.8096 143.687 60.9562C143.44 61.0937 143.247 61.2954 143.11 61.5612C142.972 61.8179 142.904 62.1204 142.904 62.4687V66.25H141.185ZM152.146 66.3875C151.66 66.3875 151.225 66.2958 150.84 66.1125C150.464 65.92 150.166 65.6633 149.946 65.3425C149.735 65.0217 149.63 64.6596 149.63 64.2562C149.63 63.7612 149.758 63.3717 150.015 63.0875C150.272 62.7942 150.689 62.5833 151.266 62.455C151.844 62.3267 152.618 62.2625 153.59 62.2625H154.277V63.2525H153.604C153.173 63.2525 152.811 63.2708 152.517 63.3075C152.224 63.335 151.986 63.3854 151.802 63.4587C151.628 63.5229 151.5 63.6146 151.417 63.7337C151.344 63.8529 151.307 63.9996 151.307 64.1737C151.307 64.4762 151.413 64.7237 151.624 64.9162C151.835 65.1087 152.128 65.205 152.504 65.205C152.806 65.205 153.072 65.1362 153.301 64.9987C153.54 64.8521 153.727 64.655 153.865 64.4075C154.002 64.16 154.071 63.8758 154.071 63.555V61.9737C154.071 61.5154 153.97 61.1854 153.769 60.9837C153.567 60.7821 153.228 60.6812 152.751 60.6812C152.375 60.6812 151.99 60.7408 151.596 60.86C151.202 60.97 150.803 61.1442 150.4 61.3825L149.905 60.2137C150.143 60.0487 150.423 59.9067 150.744 59.7875C151.074 59.6592 151.417 59.5629 151.775 59.4987C152.142 59.4254 152.485 59.3887 152.806 59.3887C153.466 59.3887 154.007 59.4896 154.429 59.6912C154.86 59.8929 155.18 60.2 155.391 60.6125C155.602 61.0158 155.707 61.5383 155.707 62.18V66.25H154.099V64.82H154.209C154.145 65.1408 154.016 65.4204 153.824 65.6587C153.64 65.8879 153.407 66.0667 153.122 66.195C152.838 66.3233 152.513 66.3875 152.146 66.3875ZM158.184 66.25V59.5262H159.861V60.8737H159.71C159.829 60.5621 159.994 60.2962 160.205 60.0762C160.416 59.8562 160.668 59.6867 160.961 59.5675C161.255 59.4483 161.58 59.3887 161.938 59.3887C162.479 59.3887 162.923 59.5171 163.271 59.7737C163.62 60.0304 163.863 60.4246 164 60.9562H163.808C163.991 60.4704 164.294 60.09 164.715 59.815C165.137 59.5308 165.623 59.3887 166.173 59.3887C166.686 59.3887 167.108 59.4896 167.438 59.6912C167.777 59.8929 168.029 60.2 168.194 60.6125C168.359 61.0158 168.441 61.5292 168.441 62.1525V66.25H166.723V62.2212C166.723 61.7079 166.636 61.3321 166.461 61.0937C166.296 60.8554 166.012 60.7362 165.609 60.7362C165.316 60.7362 165.059 60.8096 164.839 60.9562C164.619 61.0937 164.449 61.2954 164.33 61.5612C164.22 61.8271 164.165 62.1479 164.165 62.5237V66.25H162.446V62.2212C162.446 61.7079 162.359 61.3321 162.185 61.0937C162.02 60.8554 161.741 60.7362 161.346 60.7362C161.044 60.7362 160.783 60.8096 160.563 60.9562C160.352 61.0937 160.187 61.2954 160.068 61.5612C159.958 61.8271 159.903 62.1479 159.903 62.5237V66.25H158.184ZM174.233 66.3875C173.472 66.3875 172.817 66.2454 172.267 65.9612C171.717 65.6771 171.29 65.2737 170.988 64.7512C170.694 64.2287 170.548 63.61 170.548 62.895C170.548 62.1983 170.69 61.5887 170.974 61.0662C171.267 60.5437 171.666 60.1358 172.17 59.8425C172.684 59.54 173.266 59.3887 173.917 59.3887C174.558 59.3887 175.108 59.5262 175.567 59.8012C176.025 60.0762 176.378 60.4658 176.625 60.97C176.882 61.4742 177.01 62.0746 177.01 62.7712V63.28H171.937V62.29H175.8L175.58 62.4962C175.58 61.8729 175.443 61.3962 175.168 61.0662C174.893 60.7271 174.499 60.5575 173.985 60.5575C173.6 60.5575 173.27 60.6492 172.995 60.8325C172.729 61.0067 172.523 61.2587 172.377 61.5887C172.239 61.9096 172.17 62.2946 172.17 62.7437V62.84C172.17 63.3442 172.248 63.7612 172.404 64.0912C172.56 64.4212 172.794 64.6687 173.105 64.8337C173.417 64.9987 173.802 65.0812 174.26 65.0812C174.636 65.0812 175.012 65.0262 175.388 64.9162C175.764 64.7971 176.107 64.6137 176.419 64.3662L176.9 65.5212C176.579 65.7871 176.176 65.9979 175.69 66.1537C175.204 66.3096 174.719 66.3875 174.233 66.3875ZM179.076 66.25V59.5262H180.753V60.8737H180.602C180.804 60.3879 181.116 60.0212 181.537 59.7737C181.968 59.5171 182.454 59.3887 182.995 59.3887C183.536 59.3887 183.98 59.4896 184.328 59.6912C184.677 59.8929 184.938 60.2 185.112 60.6125C185.286 61.0158 185.373 61.5292 185.373 62.1525V66.25H183.655V62.235C183.655 61.8867 183.609 61.6025 183.517 61.3825C183.435 61.1625 183.302 61.0021 183.118 60.9012C182.944 60.7912 182.72 60.7362 182.445 60.7362C182.115 60.7362 181.826 60.8096 181.578 60.9562C181.331 61.0937 181.138 61.2954 181.001 61.5612C180.863 61.8179 180.795 62.1204 180.795 62.4687V66.25H179.076ZM190.904 66.3875C190.005 66.3875 189.336 66.1629 188.896 65.7137C188.456 65.2646 188.236 64.6092 188.236 63.7475V60.8187H186.944V59.5262H188.236V57.5187H189.955V59.5262H191.99V60.8187H189.955V63.6512C189.955 64.0912 190.051 64.4212 190.244 64.6412C190.436 64.8612 190.748 64.9712 191.179 64.9712C191.307 64.9712 191.44 64.9575 191.577 64.93C191.715 64.8933 191.857 64.8567 192.004 64.82L192.265 66.085C192.1 66.1767 191.889 66.25 191.632 66.305C191.385 66.36 191.142 66.3875 190.904 66.3875ZM196.266 66.3875C195.891 66.3875 195.524 66.3554 195.166 66.2913C194.818 66.2271 194.497 66.14 194.204 66.03C193.911 65.9108 193.654 65.7642 193.434 65.59L193.874 64.4625C194.103 64.6092 194.351 64.7375 194.616 64.8475C194.882 64.9575 195.157 65.04 195.441 65.095C195.726 65.15 196.005 65.1775 196.28 65.1775C196.72 65.1775 197.046 65.1042 197.256 64.9575C197.476 64.8017 197.586 64.6 197.586 64.3525C197.586 64.1417 197.513 63.9812 197.366 63.8712C197.229 63.7521 197.018 63.665 196.734 63.61L195.359 63.3487C194.791 63.2387 194.355 63.0325 194.053 62.73C193.759 62.4183 193.613 62.0196 193.613 61.5337C193.613 61.0937 193.732 60.7133 193.97 60.3925C194.218 60.0717 194.557 59.8242 194.988 59.65C195.419 59.4758 195.914 59.3887 196.473 59.3887C196.794 59.3887 197.105 59.4208 197.408 59.485C197.71 59.54 197.994 59.6271 198.26 59.7462C198.535 59.8562 198.774 60.0029 198.975 60.1862L198.508 61.3137C198.334 61.1671 198.132 61.0433 197.903 60.9425C197.674 60.8325 197.435 60.75 197.188 60.695C196.949 60.6308 196.716 60.5987 196.486 60.5987C196.037 60.5987 195.703 60.6767 195.483 60.8325C195.272 60.9883 195.166 61.1946 195.166 61.4512C195.166 61.6437 195.231 61.8042 195.359 61.9325C195.487 62.0608 195.684 62.1479 195.95 62.1937L197.325 62.455C197.921 62.565 198.37 62.7667 198.673 63.06C198.984 63.3533 199.14 63.7475 199.14 64.2425C199.14 64.6917 199.021 65.0767 198.783 65.3975C198.544 65.7183 198.21 65.9658 197.779 66.14C197.348 66.305 196.844 66.3875 196.266 66.3875Z" fill="#202224"/>
<mask id="mask1_118_1854" style="mask-type:alpha" maskUnits="userSpaceOnUse" x="34" y="34" width="37" height="55">
<path d="M35 43.6125C35 39.1321 38.6321 35.5 43.1125 35.5H54.386C63.0094 35.5 70 42.4906 70 51.114V72.386C70 81.0094 63.0094 88 54.386 88H43.1125C38.6321 88 35 84.3679 35 79.8875V43.6125Z" fill="white" stroke="url(#paint11_linear_118_1854)" stroke-opacity="0.3" stroke-width="1.62697"/>
</mask>
<g mask="url(#mask1_118_1854)">
<rect x="33.75" y="34.4904" width="17.5" height="54.5192" fill="#587ED7"/>
</g>
<defs>
<filter id="filter0_d_118_1854" x="0.37165" y="0.87165" width="277.71" height="130.21" filterUnits="userSpaceOnUse" color-interpolation-filters="sRGB">
<feFlood flood-opacity="0" result="BackgroundImageFix"/>
<feColorMatrix in="SourceAlpha" type="matrix" values="0 0 0 0 0 0 0 0 0 0 0 0 0 0 0 0 0 0 127 0" result="hardAlpha"/>
<feOffset dx="4.22686" dy="4.22686"/>
<feGaussianBlur stdDeviation="19.0209"/>
<feColorMatrix type="matrix" values="0 0 0 0 0 0 0 0 0 0 0 0 0 0 0 0 0 0 0.05 0"/>
<feBlend mode="normal" in2="BackgroundImageFix" result="effect1_dropShadow_118_1854"/>
<feBlend mode="normal" in="SourceGraphic" in2="effect1_dropShadow_118_1854" result="shape"/>
</filter>
<filter id="filter1_d_118_1854" x="63.0228" y="43.8967" width="28.155" height="35.4248" filterUnits="userSpaceOnUse" color-interpolation-filters="sRGB">
<feFlood flood-opacity="0" result="BackgroundImageFix"/>
<feColorMatrix in="SourceAlpha" type="matrix" values="0 0 0 0 0 0 0 0 0 0 0 0 0 0 0 0 0 0 127 0" result="hardAlpha"/>
<feOffset dy="1.63734"/>
<feComposite in2="hardAlpha" operator="out"/>
<feColorMatrix type="matrix" values="0 0 0 0 0.263166 0 0 0 0 0.00521065 0 0 0 0 0.00105008 0 0 0 1 0"/>
<feBlend mode="normal" in2="BackgroundImageFix" result="effect1_dropShadow_118_1854"/>
<feBlend mode="normal" in="SourceGraphic" in2="effect1_dropShadow_118_1854" result="shape"/>
</filter>
<filter id="filter2_i_118_1854" x="66.8713" y="63.066" width="20.0647" height="12.8617" filterUnits="userSpaceOnUse" color-interpolation-filters="sRGB">
<feFlood flood-opacity="0" result="BackgroundImageFix"/>
<feBlend mode="normal" in="SourceGraphic" in2="BackgroundImageFix" result="shape"/>
<feColorMatrix in="SourceAlpha" type="matrix" values="0 0 0 0 0 0 0 0 0 0 0 0 0 0 0 0 0 0 127 0" result="hardAlpha"/>
<feOffset dy="-1.04848"/>
<feComposite in2="hardAlpha" operator="arithmetic" k2="-1" k3="1"/>
<feColorMatrix type="matrix" values="0 0 0 0 1 0 0 0 0 0.849187 0 0 0 0 0.0574204 0 0 0 0.33 0"/>
<feBlend mode="normal" in2="shape" result="effect1_innerShadow_118_1854"/>
</filter>
<filter id="filter3_d_118_1854" x="64.5563" y="45.6234" width="23.9772" height="26.3561" filterUnits="userSpaceOnUse" color-interpolation-filters="sRGB">
<feFlood flood-opacity="0" result="BackgroundImageFix"/>
<feColorMatrix in="SourceAlpha" type="matrix" values="0 0 0 0 0 0 0 0 0 0 0 0 0 0 0 0 0 0 127 0" result="hardAlpha"/>
<feOffset dy="1.87457"/>
<feComposite in2="hardAlpha" operator="out"/>
<feColorMatrix type="matrix" values="0 0 0 0 0.244828 0 0 0 0 0.127311 0 0 0 0 0 0 0 0 0.51 0"/>
<feBlend mode="normal" in2="BackgroundImageFix" result="effect1_dropShadow_118_1854"/>
<feBlend mode="normal" in="SourceGraphic" in2="effect1_dropShadow_118_1854" result="shape"/>
</filter>
<filter id="filter4_d_118_1854" x="66.0614" y="56.0023" width="8.31451" height="9.83964" filterUnits="userSpaceOnUse" color-interpolation-filters="sRGB">
<feFlood flood-opacity="0" result="BackgroundImageFix"/>
<feColorMatrix in="SourceAlpha" type="matrix" values="0 0 0 0 0 0 0 0 0 0 0 0 0 0 0 0 0 0 127 0" result="hardAlpha"/>
<feOffset dy="0.116498"/>
<feComposite in2="hardAlpha" operator="out"/>
<feColorMatrix type="matrix" values="0 0 0 0 1 0 0 0 0 1 0 0 0 0 1 0 0 0 0.25 0"/>
<feBlend mode="normal" in2="BackgroundImageFix" result="effect1_dropShadow_118_1854"/>
<feBlend mode="normal" in="SourceGraphic" in2="effect1_dropShadow_118_1854" result="shape"/>
</filter>
<filter id="filter5_d_118_1854" x="69.0328" y="57.0518" width="1.68579" height="1.98344" filterUnits="userSpaceOnUse" color-interpolation-filters="sRGB">
<feFlood flood-opacity="0" result="BackgroundImageFix"/>
<feColorMatrix in="SourceAlpha" type="matrix" values="0 0 0 0 0 0 0 0 0 0 0 0 0 0 0 0 0 0 127 0" result="hardAlpha"/>
<feOffset dy="0.116498"/>
<feComposite in2="hardAlpha" operator="out"/>
<feColorMatrix type="matrix" values="0 0 0 0 0 0 0 0 0 0 0 0 0 0 0 0 0 0 0.25 0"/>
<feBlend mode="normal" in2="BackgroundImageFix" result="effect1_dropShadow_118_1854"/>
<feBlend mode="normal" in="SourceGraphic" in2="effect1_dropShadow_118_1854" result="shape"/>
</filter>
<filter id="filter6_d_118_1854" x="69.2419" y="59.9341" width="1.68579" height="1.98344" filterUnits="userSpaceOnUse" color-interpolation-filters="sRGB">
<feFlood flood-opacity="0" result="BackgroundImageFix"/>
<feColorMatrix in="SourceAlpha" type="matrix" values="0 0 0 0 0 0 0 0 0 0 0 0 0 0 0 0 0 0 127 0" result="hardAlpha"/>
<feOffset dy="0.116498"/>
<feComposite in2="hardAlpha" operator="out"/>
<feColorMatrix type="matrix" values="0 0 0 0 0 0 0 0 0 0 0 0 0 0 0 0 0 0 0.25 0"/>
<feBlend mode="normal" in2="BackgroundImageFix" result="effect1_dropShadow_118_1854"/>
<feBlend mode="normal" in="SourceGraphic" in2="effect1_dropShadow_118_1854" result="shape"/>
</filter>
<filter id="filter7_d_118_1854" x="66.7818" y="58.8043" width="1.68579" height="1.98344" filterUnits="userSpaceOnUse" color-interpolation-filters="sRGB">
<feFlood flood-opacity="0" result="BackgroundImageFix"/>
<feColorMatrix in="SourceAlpha" type="matrix" values="0 0 0 0 0 0 0 0 0 0 0 0 0 0 0 0 0 0 127 0" result="hardAlpha"/>
<feOffset dy="0.116498"/>
<feComposite in2="hardAlpha" operator="out"/>
<feColorMatrix type="matrix" values="0 0 0 0 0 0 0 0 0 0 0 0 0 0 0 0 0 0 0.25 0"/>
<feBlend mode="normal" in2="BackgroundImageFix" result="effect1_dropShadow_118_1854"/>
<feBlend mode="normal" in="SourceGraphic" in2="effect1_dropShadow_118_1854" result="shape"/>
</filter>
<filter id="filter8_d_118_1854" x="69.2745" y="62.8258" width="1.68579" height="1.98344" filterUnits="userSpaceOnUse" color-interpolation-filters="sRGB">
<feFlood flood-opacity="0" result="BackgroundImageFix"/>
<feColorMatrix in="SourceAlpha" type="matrix" values="0 0 0 0 0 0 0 0 0 0 0 0 0 0 0 0 0 0 127 0" result="hardAlpha"/>
<feOffset dy="0.116498"/>
<feComposite in2="hardAlpha" operator="out"/>
<feColorMatrix type="matrix" values="0 0 0 0 0 0 0 0 0 0 0 0 0 0 0 0 0 0 0.25 0"/>
<feBlend mode="normal" in2="BackgroundImageFix" result="effect1_dropShadow_118_1854"/>
<feBlend mode="normal" in="SourceGraphic" in2="effect1_dropShadow_118_1854" result="shape"/>
</filter>
<filter id="filter9_d_118_1854" x="71.7936" y="61.0591" width="1.68579" height="1.98344" filterUnits="userSpaceOnUse" color-interpolation-filters="sRGB">
<feFlood flood-opacity="0" result="BackgroundImageFix"/>
<feColorMatrix in="SourceAlpha" type="matrix" values="0 0 0 0 0 0 0 0 0 0 0 0 0 0 0 0 0 0 127 0" result="hardAlpha"/>
<feOffset dy="0.116498"/>
<feComposite in2="hardAlpha" operator="out"/>
<feColorMatrix type="matrix" values="0 0 0 0 0 0 0 0 0 0 0 0 0 0 0 0 0 0 0.25 0"/>
<feBlend mode="normal" in2="BackgroundImageFix" result="effect1_dropShadow_118_1854"/>
<feBlend mode="normal" in="SourceGraphic" in2="effect1_dropShadow_118_1854" result="shape"/>
</filter>
<filter id="filter10_d_118_1854" x="82.5754" y="57.0364" width="5.49628" height="10.4178" filterUnits="userSpaceOnUse" color-interpolation-filters="sRGB">
<feFlood flood-opacity="0" result="BackgroundImageFix"/>
<feColorMatrix in="SourceAlpha" type="matrix" values="0 0 0 0 0 0 0 0 0 0 0 0 0 0 0 0 0 0 127 0" result="hardAlpha"/>
<feOffset dy="0.465992"/>
<feComposite in2="hardAlpha" operator="out"/>
<feColorMatrix type="matrix" values="0 0 0 0 0 0 0 0 0 0 0 0 0 0 0 0 0 0 0.25 0"/>
<feBlend mode="normal" in2="BackgroundImageFix" result="effect1_dropShadow_118_1854"/>
<feBlend mode="normal" in="SourceGraphic" in2="effect1_dropShadow_118_1854" result="shape"/>
</filter>
<linearGradient id="paint0_linear_118_1854" x1="80.6043" y1="16.5373" x2="172.404" y2="127.865" gradientUnits="userSpaceOnUse">
<stop stop-color="#F1F1F1"/>
<stop offset="1" stop-color="#E1E1E1"/>
</linearGradient>
<linearGradient id="paint1_linear_118_1854" x1="73.5982" y1="45.7829" x2="86.0941" y2="72.6894" gradientUnits="userSpaceOnUse">
<stop stop-color="#FDFD57"/>
<stop offset="1" stop-color="#FFA600"/>
</linearGradient>
<linearGradient id="paint2_linear_118_1854" x1="76.3948" y1="52.7807" x2="90.8587" y2="63.0274" gradientUnits="userSpaceOnUse">
<stop stop-color="#FFAE10"/>
<stop offset="1" stop-color="#F86800"/>
</linearGradient>
<linearGradient id="paint3_linear_118_1854" x1="76.3948" y1="52.7807" x2="90.8587" y2="63.0274" gradientUnits="userSpaceOnUse">
<stop stop-color="#FFAE10"/>
<stop offset="1" stop-color="#F86800"/>
</linearGradient>
<linearGradient id="paint4_linear_118_1854" x1="77.4068" y1="73.5231" x2="87.134" y2="68.3997" gradientUnits="userSpaceOnUse">
<stop stop-color="#FFB800"/>
<stop offset="1" stop-color="#E76304"/>
</linearGradient>
<linearGradient id="paint5_linear_118_1854" x1="75.6142" y1="42.5812" x2="75.6779" y2="78.2231" gradientUnits="userSpaceOnUse">
<stop stop-color="#FFF6A5"/>
<stop offset="0.869792" stop-color="#FF7507"/>
<stop offset="1" stop-color="#F8862B"/>
</linearGradient>
<linearGradient id="paint6_linear_118_1854" x1="76.1891" y1="45.6339" x2="76.5623" y2="58.2273" gradientUnits="userSpaceOnUse">
<stop stop-color="#FFFCD2"/>
<stop offset="0.315" stop-color="#FDED04"/>
<stop offset="1" stop-color="#FDED04" stop-opacity="0"/>
</linearGradient>
<linearGradient id="paint7_linear_118_1854" x1="76.6807" y1="52.8591" x2="77.0841" y2="65.9748" gradientUnits="userSpaceOnUse">
<stop stop-color="#FBD211"/>
<stop offset="1" stop-color="#FBD211" stop-opacity="0"/>
</linearGradient>
<linearGradient id="paint8_linear_118_1854" x1="76.2236" y1="46.5053" x2="76.3965" y2="52.1263" gradientUnits="userSpaceOnUse">
<stop stop-color="#FF8933"/>
<stop offset="1" stop-color="#E98019"/>
</linearGradient>
<linearGradient id="paint9_linear_118_1854" x1="82.9287" y1="56.229" x2="89.061" y2="67.3816" gradientUnits="userSpaceOnUse">
<stop stop-color="#CCB22A"/>
<stop offset="0.16637" stop-color="#FFD600"/>
<stop offset="0.389385" stop-color="#F3FFAA"/>
<stop offset="1" stop-color="#F54710"/>
</linearGradient>
<linearGradient id="paint10_linear_118_1854" x1="85.3051" y1="66.6327" x2="88.1243" y2="60.1951" gradientUnits="userSpaceOnUse">
<stop stop-color="#FF9F10"/>
<stop offset="1" stop-color="#FFC226"/>
</linearGradient>
<linearGradient id="paint11_linear_118_1854" x1="42.9808" y1="16.5373" x2="80.9617" y2="24.5979" gradientUnits="userSpaceOnUse">
<stop stop-color="#F1F1F1"/>
<stop offset="1" stop-color="#E1E1E1"/>
</linearGradient>
</defs>
</svg>
