<svg width="277" height="131" viewBox="0 0 277 131" fill="none" xmlns="http://www.w3.org/2000/svg">
<g filter="url(#filter0_d_118_1906)">
<rect x="35" y="35" width="198.75" height="52.5" rx="8.1125" fill="white"/>
<rect x="35" y="35" width="198.75" height="52.5" rx="8.1125" stroke="url(#paint0_linear_118_1906)" stroke-opacity="0.3" stroke-width="1.62697"/>
</g>
<g filter="url(#filter1_d_118_1906)">
<mask id="path-3-outside-1_118_1906" maskUnits="userSpaceOnUse" x="60.0804" y="42.5945" width="33" height="36" fill="black">
<rect fill="white" x="60.0804" y="42.5945" width="33" height="36"/>
<path fill-rule="evenodd" clip-rule="evenodd" d="M82.5498 47.7219C82.1166 47.378 81.5685 47.1727 80.9725 47.1726C80.8366 47.1726 80.7032 47.1834 80.5732 47.204C80.3738 47.2354 80.1822 47.2901 80.0012 47.365C79.8091 46.2658 79.0812 45.3507 78.0967 44.8988C77.6716 44.7034 77.1986 44.5945 76.7 44.5945C75.645 44.5946 74.704 45.0824 74.0899 45.8447C73.69 46.341 73.4287 46.9536 73.3648 47.6238C73.3262 47.6326 73.2878 47.6416 73.2493 47.6508C72.9347 47.4241 72.566 47.2676 72.1663 47.2043C72.0358 47.1834 71.9019 47.1726 71.7654 47.1726C71.1876 47.1727 70.6549 47.3656 70.2282 47.6906C69.7335 48.0672 69.3811 48.621 69.2658 49.2574C64.966 51.7886 62.0804 56.4651 62.0804 61.8156C62.0804 69.858 68.6001 76.3777 76.6426 76.3777C84.6851 76.3777 91.2048 69.858 91.2048 61.8156C91.2048 56.2043 88.0311 51.3343 83.3808 48.9027C83.2226 48.4325 82.9305 48.0238 82.5498 47.7219Z"/>
</mask>
<path fill-rule="evenodd" clip-rule="evenodd" d="M82.5498 47.7219C82.1166 47.378 81.5685 47.1727 80.9725 47.1726C80.8366 47.1726 80.7032 47.1834 80.5732 47.204C80.3738 47.2354 80.1822 47.2901 80.0012 47.365C79.8091 46.2658 79.0812 45.3507 78.0967 44.8988C77.6716 44.7034 77.1986 44.5945 76.7 44.5945C75.645 44.5946 74.704 45.0824 74.0899 45.8447C73.69 46.341 73.4287 46.9536 73.3648 47.6238C73.3262 47.6326 73.2878 47.6416 73.2493 47.6508C72.9347 47.4241 72.566 47.2676 72.1663 47.2043C72.0358 47.1834 71.9019 47.1726 71.7654 47.1726C71.1876 47.1727 70.6549 47.3656 70.2282 47.6906C69.7335 48.0672 69.3811 48.621 69.2658 49.2574C64.966 51.7886 62.0804 56.4651 62.0804 61.8156C62.0804 69.858 68.6001 76.3777 76.6426 76.3777C84.6851 76.3777 91.2048 69.858 91.2048 61.8156C91.2048 56.2043 88.0311 51.3343 83.3808 48.9027C83.2226 48.4325 82.9305 48.0238 82.5498 47.7219Z" fill="black"/>
<path d="M80.9725 47.1726L80.9726 45.5523H80.9725V47.1726ZM82.5498 47.7219L81.5426 48.9911L81.5429 48.9914L82.5498 47.7219ZM80.5732 47.204L80.8256 48.8046L80.827 48.8043L80.5732 47.204ZM80.0012 47.365L78.405 47.6439L78.753 49.6353L80.6209 48.8622L80.0012 47.365ZM78.0967 44.8988L77.42 46.3711L77.4208 46.3714L78.0967 44.8988ZM76.7 44.5945L76.7 42.9741L76.6998 42.9741L76.7 44.5945ZM74.0899 45.8447L75.3515 46.8615L75.3517 46.8613L74.0899 45.8447ZM73.3648 47.6238L73.728 49.2029L74.8669 48.9409L74.9778 47.7776L73.3648 47.6238ZM73.2493 47.6508L72.3021 48.9655L72.904 49.3991L73.6255 49.2269L73.2493 47.6508ZM72.1663 47.2043L71.9112 48.8044L71.9128 48.8047L72.1663 47.2043ZM71.7654 47.1726L71.7654 45.5523L71.7653 45.5523L71.7654 47.1726ZM70.2282 47.6906L71.2096 48.98L71.21 48.9797L70.2282 47.6906ZM69.2658 49.2574L70.0878 50.6538L70.7277 50.2771L70.8601 49.5464L69.2658 49.2574ZM83.3808 48.9027L81.8451 49.4195L82.0528 50.0368L82.63 50.3386L83.3808 48.9027ZM80.9725 47.1726L80.9723 48.793C81.1897 48.793 81.3855 48.8664 81.5426 48.9911L82.5498 47.7219L83.5571 46.4526C82.8477 45.8897 81.9474 45.5524 80.9726 45.5523L80.9725 47.1726ZM80.5732 47.204L80.827 48.8043C80.8737 48.7969 80.9222 48.793 80.9725 48.793V47.1726V45.5523C80.751 45.5523 80.5327 45.5698 80.3193 45.6037L80.5732 47.204ZM80.0012 47.365L80.6209 48.8622C80.6855 48.8354 80.754 48.8159 80.8256 48.8046L80.5732 47.204L80.3207 45.6034C79.9937 45.655 79.6789 45.7447 79.3815 45.8678L80.0012 47.365ZM78.0967 44.8988L77.4208 46.3714C77.9315 46.6059 78.3066 47.0811 78.405 47.6439L80.0012 47.365L81.5973 47.086C81.3115 45.4504 80.231 44.0956 78.7726 43.4262L78.0967 44.8988ZM76.7 44.5945V46.2148C76.9603 46.2148 77.2029 46.2713 77.42 46.3711L78.0967 44.8988L78.7734 43.4265C78.1403 43.1356 77.4368 42.9741 76.7 42.9741V44.5945ZM74.0899 45.8447L75.3517 46.8613C75.6716 46.4642 76.1563 46.2149 76.7002 46.2148L76.7 44.5945L76.6998 42.9741C75.1337 42.9743 73.7364 43.7007 72.8281 44.8282L74.0899 45.8447ZM73.3648 47.6238L74.9778 47.7776C75.0106 47.4333 75.1443 47.1186 75.3515 46.8615L74.0899 45.8447L72.8282 44.828C72.2357 45.5633 71.8467 46.4739 71.7517 47.4699L73.3648 47.6238ZM73.2493 47.6508L73.6255 49.2269C73.6596 49.2188 73.6938 49.2108 73.728 49.2029L73.3648 47.6238L73.0015 46.0447C72.9587 46.0545 72.9159 46.0645 72.8732 46.0747L73.2493 47.6508ZM72.1663 47.2043L71.9128 48.8047C72.0555 48.8273 72.1877 48.883 72.3021 48.9655L73.2493 47.6508L74.1966 46.3362C73.6816 45.9651 73.0765 45.7079 72.4199 45.6039L72.1663 47.2043ZM71.7654 47.1726V48.793C71.816 48.793 71.8646 48.797 71.9112 48.8044L72.1663 47.2043L72.4215 45.6041C72.2069 45.5699 71.9877 45.5523 71.7654 45.5523V47.1726ZM70.2282 47.6906L71.21 48.9797C71.3644 48.8621 71.5546 48.793 71.7656 48.793L71.7654 47.1726L71.7653 45.5523C70.8207 45.5523 69.9455 45.8692 69.2465 46.4015L70.2282 47.6906ZM69.2658 49.2574L70.8601 49.5464C70.9011 49.3203 71.0273 49.1188 71.2096 48.98L70.2282 47.6906L69.2468 46.4013C68.4398 47.0155 67.8611 47.9218 67.6714 48.9684L69.2658 49.2574ZM62.0804 61.8156H63.7008C63.7008 57.0625 66.2622 52.9058 70.0878 50.6538L69.2658 49.2574L68.4437 47.8611C63.6697 50.6714 60.4601 55.8678 60.4601 61.8156H62.0804ZM76.6426 76.3777V74.7574C69.495 74.7574 63.7008 68.9631 63.7008 61.8156H62.0804H60.4601C60.4601 70.7529 67.7052 77.9981 76.6426 77.9981V76.3777ZM91.2048 61.8156H89.5844C89.5844 68.9631 83.7902 74.7574 76.6426 74.7574V76.3777V77.9981C85.58 77.9981 92.8251 70.7529 92.8251 61.8156H91.2048ZM83.3808 48.9027L82.63 50.3386C86.7669 52.5018 89.5844 56.831 89.5844 61.8156H91.2048H92.8251C92.8251 55.5777 89.2953 50.1669 84.1316 47.4668L83.3808 48.9027ZM82.5498 47.7219L81.5429 48.9914C81.683 49.1025 81.7886 49.2517 81.8451 49.4195L83.3808 48.9027L84.9165 48.386C84.6565 47.6133 84.178 46.9451 83.5567 46.4524L82.5498 47.7219Z" fill="url(#paint1_linear_118_1906)" mask="url(#path-3-outside-1_118_1906)"/>
</g>
<g opacity="0.4" filter="url(#filter2_f_118_1906)">
<path d="M73.3646 47.6239C73.5267 45.9244 74.9582 44.5951 76.7002 44.5951C78.3528 44.5951 79.7259 45.7913 80.001 47.3651C80.3002 47.2413 80.6281 47.1729 80.9721 47.1729C82.0918 47.1729 83.0423 47.8972 83.3807 48.9029C88.031 51.3345 91.2047 56.2044 91.2047 61.8157C91.2047 69.8581 84.685 76.3779 76.6425 76.3779C68.6 76.3779 62.0803 69.8581 62.0803 61.8157C62.0803 56.4652 64.9658 51.7888 69.2656 49.2575C69.4805 48.072 70.518 47.1729 71.7655 47.1729C72.3193 47.1729 72.8318 47.3501 73.2492 47.6509C73.2876 47.6418 73.3261 47.6328 73.3646 47.6239Z" fill="black"/>
<path d="M76.7004 44.3744C78.3717 44.3745 79.7724 45.5224 80.1623 47.0726C80.4185 46.9942 80.6905 46.9516 80.9719 46.9515C82.1576 46.9515 83.1662 47.6999 83.5578 48.7484C88.2369 51.2297 91.426 56.1496 91.426 61.8158C91.4259 69.9801 84.8071 76.5988 76.6428 76.599C68.4783 76.599 61.8597 69.9802 61.8596 61.8158C61.8596 56.4184 64.752 51.697 69.0705 49.1166C69.3437 47.8786 70.4456 46.9515 71.7658 46.9515C72.2822 46.9516 72.7653 47.0952 73.1789 47.3422C73.4659 45.6569 74.9335 44.3744 76.7004 44.3744Z" stroke="black" stroke-width="0.441915"/>
</g>
<path d="M76.6425 76.3779C84.6849 76.3779 91.2047 69.8582 91.2047 61.8157C91.2047 53.7733 84.6849 47.2535 76.6425 47.2535C68.6 47.2535 62.0803 53.7733 62.0803 61.8157C62.0803 69.8582 68.6 76.3779 76.6425 76.3779Z" fill="url(#paint2_linear_118_1906)"/>
<g filter="url(#filter3_i_118_1906)">
<path d="M76.6636 75.3081C84.1076 75.3081 90.142 69.2736 90.142 61.8297C90.142 54.3858 84.1076 48.3513 76.6636 48.3513C69.2197 48.3513 63.1852 54.3858 63.1852 61.8297C63.1852 69.2736 69.2197 75.3081 76.6636 75.3081Z" fill="url(#paint3_linear_118_1906)"/>
</g>
<path d="M76.6636 73.3195C83.0093 73.3195 88.1534 68.1754 88.1534 61.8298C88.1534 55.4841 83.0093 50.34 76.6636 50.34C70.318 50.34 65.1738 55.4841 65.1738 61.8298C65.1738 68.1754 70.318 73.3195 76.6636 73.3195Z" fill="url(#paint4_linear_118_1906)"/>
<path d="M76.6636 73.3195C83.0093 73.3195 88.1534 68.1754 88.1534 61.8298C88.1534 55.4841 83.0093 50.34 76.6636 50.34C70.318 50.34 65.1738 55.4841 65.1738 61.8298C65.1738 68.1754 70.318 73.3195 76.6636 73.3195Z" fill="#FF0000" fill-opacity="0.31"/>
<path d="M76.6425 51.4448C82.3703 51.4449 87.0136 56.0881 87.0136 61.8159C87.0136 67.5437 82.3703 72.187 76.6425 72.187C70.9148 72.187 66.2715 67.5437 66.2715 61.8159C66.2715 56.0881 70.9147 51.4448 76.6425 51.4448Z" fill="url(#paint5_linear_118_1906)" stroke="url(#paint6_linear_118_1906)" stroke-width="0.736525"/>
<path d="M76.6998 44.5946C78.3526 44.5946 79.7248 45.7919 79.9996 47.3661C80.2992 47.2419 80.6277 47.1727 80.9723 47.1727C82.3754 47.1729 83.5123 48.3106 83.5123 49.7137C83.5122 51.1168 82.3753 52.2546 80.9723 52.2548C79.914 52.2548 79.0067 51.6074 78.6246 50.6874C78.0798 51.0705 77.4164 51.2968 76.6998 51.2968C75.7336 51.2966 74.863 50.8876 74.2516 50.2333C74.0116 51.3871 72.9903 52.2548 71.7652 52.2548C70.3622 52.2546 69.2243 51.1168 69.2242 49.7137C69.2242 48.3106 70.3621 47.1728 71.7652 47.1727C72.3677 47.1727 72.9205 47.3838 73.356 47.7343C73.4653 45.9824 74.9204 44.5948 76.6998 44.5946Z" fill="url(#paint7_linear_118_1906)"/>
<g filter="url(#filter4_d_118_1906)">
<path d="M71.7654 52.2543C73.1687 52.2543 74.3062 51.1168 74.3062 49.7136C74.3062 48.3104 73.1687 47.1729 71.7654 47.1729C70.3622 47.1729 69.2247 48.3104 69.2247 49.7136C69.2247 51.1168 70.3622 52.2543 71.7654 52.2543Z" fill="url(#paint8_linear_118_1906)"/>
<path d="M71.7654 52.2543C73.1687 52.2543 74.3062 51.1168 74.3062 49.7136C74.3062 48.3104 73.1687 47.1729 71.7654 47.1729C70.3622 47.1729 69.2247 48.3104 69.2247 49.7136C69.2247 51.1168 70.3622 52.2543 71.7654 52.2543Z" fill="url(#paint9_linear_118_1906)"/>
</g>
<g filter="url(#filter5_i_118_1906)">
<path d="M71.7655 51.3945C72.768 51.3945 73.5807 50.5818 73.5807 49.5793C73.5807 48.5768 72.768 47.7642 71.7655 47.7642C70.7631 47.7642 69.9504 48.5768 69.9504 49.5793C69.9504 50.5818 70.7631 51.3945 71.7655 51.3945Z" fill="url(#paint10_linear_118_1906)"/>
</g>
<g filter="url(#filter6_d_118_1906)">
<path d="M80.972 52.2543C82.3752 52.2543 83.5128 51.1168 83.5128 49.7136C83.5128 48.3104 82.3752 47.1729 80.972 47.1729C79.5688 47.1729 78.4313 48.3104 78.4313 49.7136C78.4313 51.1168 79.5688 52.2543 80.972 52.2543Z" fill="url(#paint11_linear_118_1906)"/>
</g>
<g filter="url(#filter7_i_118_1906)">
<path d="M80.9721 51.3945C81.9745 51.3945 82.7872 50.5818 82.7872 49.5793C82.7872 48.5768 81.9745 47.7642 80.9721 47.7642C79.9696 47.7642 79.1569 48.5768 79.1569 49.5793C79.1569 50.5818 79.9696 51.3945 80.9721 51.3945Z" fill="url(#paint12_linear_118_1906)"/>
</g>
<g filter="url(#filter8_d_118_1906)">
<path d="M76.7002 51.2969C78.5509 51.2969 80.0511 49.7967 80.0511 47.946C80.0511 46.0954 78.5509 44.5951 76.7002 44.5951C74.8495 44.5951 73.3493 46.0954 73.3493 47.946C73.3493 49.7967 74.8495 51.2969 76.7002 51.2969Z" fill="url(#paint13_linear_118_1906)"/>
</g>
<g filter="url(#filter9_i_118_1906)">
<path d="M76.7002 50.3393C78.1847 50.3393 79.3882 49.1358 79.3882 47.6513C79.3882 46.1667 78.1847 44.9633 76.7002 44.9633C75.2156 44.9633 74.0121 46.1667 74.0121 47.6513C74.0121 49.1358 75.2156 50.3393 76.7002 50.3393Z" fill="url(#paint14_linear_118_1906)"/>
</g>
<path d="M73.8124 55.331C74.4514 54.4843 73.7617 53.4059 72.8071 53.8685V53.8685C72.6472 53.946 72.5143 54.0615 72.4073 54.2034L68.3856 59.5329C68.1346 59.8655 67.9539 60.249 67.9 60.6621C67.8508 61.0396 67.8253 61.4246 67.8253 61.8155V61.8155C67.8253 62.3085 68.4242 62.4714 68.7212 62.0779L73.8124 55.331Z" fill="url(#paint15_linear_118_1906)"/>
<path d="M69.9738 65.0684C69.5318 65.6542 68.6422 65.6009 68.3845 64.9138V64.9138C68.2684 64.6041 68.3313 64.2553 68.5306 63.9913L76.5142 53.4115C76.7133 53.1477 77.0356 52.9917 77.3651 53.0181V53.0181C78.097 53.0767 78.3889 53.9168 77.9466 54.503L69.9738 65.0684Z" fill="url(#paint16_linear_118_1906)"/>
<path d="M71.5353 67.65C71.1867 68.1119 70.5159 68.1863 70.1261 67.7585V67.7585C69.8231 67.4261 69.8255 66.9261 70.0964 66.567L79.4231 54.2074C79.6942 53.8482 80.1771 53.7096 80.58 53.9102V53.9102C81.098 54.1681 81.2077 54.8322 80.8591 55.2941L71.5353 67.65Z" fill="url(#paint17_linear_118_1906)"/>
<path d="M73.7541 69.3601C73.4795 69.724 72.9883 69.8607 72.5839 69.6503V69.6503C72.0763 69.3863 71.9734 68.7303 72.318 68.2736L81.672 55.8778C82.0166 55.4211 82.6779 55.3425 83.0707 55.7586V55.7586C83.3834 56.0899 83.385 56.5973 83.1106 56.961L73.7541 69.3601Z" fill="url(#paint18_linear_118_1906)"/>
<path d="M76.6254 70.2056C76.4227 70.4743 76.0927 70.6304 75.7577 70.5967V70.5967C75.0362 70.5242 74.756 69.6933 75.1928 69.1145L83.2708 58.4096C83.7072 57.8313 84.5845 57.8758 84.8528 58.5488V58.5488C84.9776 58.8618 84.9166 59.2182 84.7137 59.4872L76.6254 70.2056Z" fill="url(#paint19_linear_118_1906)"/>
<path d="M80.6272 69.5533C80.5138 69.7036 80.3708 69.8238 80.1984 69.8996V69.8996C79.2569 70.3133 78.5986 69.2519 79.218 68.431L84.4355 61.5169C84.7816 61.0582 85.4771 61.2408 85.4771 61.8155V61.8155C85.4771 62.0831 85.4652 62.3478 85.4419 62.6093C85.4019 63.0575 85.2132 63.4761 84.9421 63.8352L80.6272 69.5533Z" fill="url(#paint20_linear_118_1906)"/>
<g style="mix-blend-mode:overlay" opacity="0.6">
<path d="M76.6999 44.5946C78.3525 44.5946 79.7256 45.7913 80.0007 47.3651C80.2999 47.2413 80.6284 47.1727 80.9724 47.1727C82.092 47.1729 83.0422 47.8977 83.3806 48.9032C88.0307 51.3348 91.2047 56.2042 91.2048 61.8153C91.2048 62.3981 91.1688 62.9731 91.1023 63.538C87.1978 65.1831 82.1617 66.1756 76.6638 66.1757C71.1449 66.1757 66.0911 65.1757 62.1804 63.5194C62.1152 62.9605 62.0808 62.3917 62.0808 61.8153C62.0809 56.4651 64.9658 51.7889 69.2654 49.2577C69.4802 48.0722 70.5179 47.1728 71.7654 47.1727C72.3191 47.1727 72.8313 47.3505 73.2487 47.6512C73.2871 47.6421 73.3264 47.6328 73.365 47.6239C73.527 45.9245 74.9581 44.5948 76.6999 44.5946Z" fill="white"/>
</g>
<path d="M78.7297 57.3641L76.7272 55.0841C75.9689 54.2208 74.5612 54.4963 74.1844 55.5818L73.1892 58.4485C73.1592 58.535 73.0942 58.6048 73.0102 58.641L70.2229 59.841C69.7983 60.0238 69.5165 60.3636 69.391 60.7496C69.3781 60.7893 69.3638 60.8286 69.3494 60.8678C69.269 61.0864 69.2655 61.3305 69.3444 61.553C69.3585 61.5929 69.3726 61.6328 69.3853 61.6732C69.4735 61.9533 69.6469 62.2135 69.9105 62.4132L72.3294 64.2455C72.4023 64.3008 72.4487 64.3841 72.4571 64.4753L72.7371 67.4969C72.7643 67.7911 72.8706 68.0496 73.0294 68.2601C73.0816 68.3293 73.129 68.4022 73.1761 68.4749C73.4096 68.8351 73.8624 69.0136 74.2838 68.8937C74.3671 68.87 74.4508 68.8464 74.5355 68.8286C74.725 68.789 74.912 68.7106 75.0868 68.5889L77.5769 66.8546C77.652 66.8023 77.7456 66.784 77.8349 66.8041L80.7951 67.4716C81.0029 67.5184 81.2057 67.5205 81.3962 67.4858C81.4813 67.4703 81.5677 67.4606 81.6538 67.4512C82.0893 67.4034 82.4414 67.0674 82.5219 66.6458C82.5381 66.5607 82.5545 66.4752 82.5768 66.3915C82.6445 66.1366 82.6455 65.8571 82.5598 65.5743L81.6799 62.6701C81.6534 62.5825 81.6649 62.4878 81.7116 62.4092L83.2612 59.8001C83.4301 59.5157 83.4926 59.2093 83.4686 58.9166C83.4652 58.8744 83.4632 58.8321 83.4612 58.7899C83.4504 58.5541 83.3551 58.3294 83.1983 58.1573C83.1702 58.1264 83.1421 58.0954 83.1152 58.0635C82.8534 57.7532 82.4643 57.5447 82.0021 57.5355L78.9681 57.4749C78.8766 57.4731 78.7901 57.4329 78.7297 57.3641Z" fill="#FF7400"/>
<path d="M73.7432 55.2765C74.3173 53.9258 76.129 53.6129 77.119 54.7402L79.064 56.9547L82.0122 57.0145L82.2404 57.0315C82.762 57.0995 83.2051 57.3613 83.5141 57.7276L83.5842 57.8064L83.6687 57.9073C83.8287 58.1167 83.9338 58.367 83.9698 58.6325L83.9821 58.7664L83.9882 58.8737C84.0167 59.2216 83.9544 59.5827 83.7873 59.922L83.7092 60.0667L82.2032 62.6014L83.059 65.4231L83.0965 65.5641C83.1611 65.8471 83.1624 66.1284 83.1107 66.3942L83.0807 66.5254C83.0639 66.5885 83.0505 66.6562 83.0338 66.7436C82.9114 67.3847 82.3791 67.8965 81.7105 67.9698L81.4894 67.9992C81.2951 68.0345 81.0925 68.0417 80.8868 68.0166L80.6807 67.9803L77.8042 67.3313L75.3847 69.0169C75.2104 69.1382 75.0252 69.2285 74.8349 69.2887L74.6427 69.3392L74.4269 69.3954C73.8205 69.568 73.1795 69.3388 72.8092 68.8583L72.7389 68.7586L72.6133 68.5742C72.3972 68.2878 72.2542 67.9376 72.2178 67.545L71.9457 64.6091L69.5961 62.829C69.2879 62.5955 69.0687 62.2966 68.9385 61.9706L68.8881 61.8302C68.8787 61.8 68.8675 61.768 68.8531 61.7275C68.7327 61.3881 68.7385 61.0186 68.8597 60.6884L68.8948 60.588L68.9687 60.3964C69.1631 59.9561 69.5185 59.577 70.0172 59.3623L72.7243 58.1955L73.6919 55.411L73.7432 55.2765Z" stroke="url(#paint21_linear_118_1906)" stroke-opacity="0.8" stroke-width="1.04298"/>
<path d="M74.078 55.8394C74.4667 54.7196 75.919 54.4353 76.7013 55.326L78.3006 57.147C78.5872 57.4732 78.9977 57.664 79.4318 57.6727L81.855 57.7211C83.0402 57.7448 83.7593 59.0381 83.154 60.0573L81.9163 62.1411C81.6946 62.5145 81.64 62.9639 81.7659 63.3794L82.4687 65.699C82.8124 66.8334 81.8046 67.917 80.6482 67.6563L78.2839 67.1231C77.8603 67.0276 77.4161 67.1146 77.0597 67.3627L75.0709 68.7479C74.0982 69.4254 72.7562 68.8017 72.6468 67.6213L72.4233 65.208C72.3832 64.7756 72.1632 64.38 71.8171 64.1178L69.8852 62.6544C68.9403 61.9386 69.1187 60.4696 70.2075 60.0008L72.4336 59.0424C72.8324 58.8707 73.1407 58.5393 73.2832 58.129L74.078 55.8394Z" fill="url(#paint22_linear_118_1906)"/>
<path d="M74.1569 55.5838C74.5086 54.5706 75.8231 54.3133 76.5309 55.1189L78.3473 57.1873C78.6066 57.4825 78.978 57.655 79.3707 57.6629L82.1227 57.7185C83.1949 57.7399 83.846 58.9097 83.2985 59.8318L82.3678 61.3982C80.0361 61.8899 77.3838 62.1697 74.57 62.1697C72.685 62.1697 70.8726 62.0425 69.1803 61.8123C68.9743 61.1644 69.2547 60.4021 69.9577 60.0994L72.486 59.0105C72.8468 58.8552 73.1257 58.5554 73.2545 58.1843L74.1569 55.5838Z" fill="url(#paint23_linear_118_1906)"/>
<path d="M111.904 65.75L107.587 56.0562H109.47L112.977 64.1825H112.385L115.878 56.0562H117.693L113.375 65.75H111.904ZM119.028 57.5825V55.905H120.953V57.5825H119.028ZM119.138 65.75V59.0262H120.857V65.75H119.138ZM126.455 65.8875C125.749 65.8875 125.135 65.7454 124.612 65.4612C124.09 65.1679 123.687 64.7554 123.402 64.2237C123.118 63.6921 122.976 63.0687 122.976 62.3537C122.976 61.6387 123.118 61.0246 123.402 60.5112C123.687 59.9887 124.09 59.59 124.612 59.315C125.135 59.0308 125.749 58.8887 126.455 58.8887C126.886 58.8887 127.312 58.9575 127.734 59.095C128.155 59.2325 128.504 59.425 128.779 59.6725L128.27 60.8687C128.032 60.6579 127.761 60.4975 127.459 60.3875C127.165 60.2775 126.881 60.2225 126.606 60.2225C126.01 60.2225 125.547 60.4104 125.217 60.7862C124.897 61.1529 124.736 61.68 124.736 62.3675C124.736 63.0458 124.897 63.5821 125.217 63.9762C125.547 64.3612 126.01 64.5537 126.606 64.5537C126.872 64.5537 127.156 64.4987 127.459 64.3887C127.761 64.2787 128.032 64.1137 128.27 63.8937L128.779 65.1037C128.504 65.3421 128.151 65.5346 127.72 65.6812C127.298 65.8188 126.877 65.8875 126.455 65.8875ZM133.644 65.8875C132.746 65.8875 132.077 65.6629 131.637 65.2137C131.197 64.7646 130.977 64.1092 130.977 63.2475V60.3187H129.684V59.0262H130.977V57.0187H132.696V59.0262H134.731V60.3187H132.696V63.1512C132.696 63.5912 132.792 63.9212 132.984 64.1412C133.177 64.3612 133.489 64.4712 133.919 64.4712C134.048 64.4712 134.181 64.4575 134.318 64.43C134.456 64.3933 134.598 64.3567 134.744 64.32L135.006 65.585C134.841 65.6767 134.63 65.75 134.373 65.805C134.126 65.86 133.883 65.8875 133.644 65.8875ZM139.545 65.8875C138.848 65.8875 138.243 65.7454 137.73 65.4612C137.217 65.1771 136.818 64.7737 136.534 64.2512C136.25 63.7196 136.108 63.0962 136.108 62.3812C136.108 61.6662 136.25 61.0475 136.534 60.525C136.818 60.0025 137.217 59.5992 137.73 59.315C138.243 59.0308 138.848 58.8887 139.545 58.8887C140.242 58.8887 140.847 59.0308 141.36 59.315C141.873 59.5992 142.272 60.0025 142.556 60.525C142.84 61.0475 142.983 61.6662 142.983 62.3812C142.983 63.0962 142.84 63.7196 142.556 64.2512C142.272 64.7737 141.873 65.1771 141.36 65.4612C140.847 65.7454 140.242 65.8875 139.545 65.8875ZM139.545 64.5812C140.058 64.5812 140.471 64.3979 140.783 64.0312C141.094 63.6554 141.25 63.1054 141.25 62.3812C141.25 61.6479 141.094 61.1025 140.783 60.745C140.471 60.3783 140.058 60.195 139.545 60.195C139.032 60.195 138.619 60.3783 138.308 60.745C137.996 61.1025 137.84 61.6479 137.84 62.3812C137.84 63.1054 137.996 63.6554 138.308 64.0312C138.619 64.3979 139.032 64.5812 139.545 64.5812ZM145.106 65.75V59.0262H146.783V60.6487H146.646C146.774 60.0987 147.026 59.6817 147.402 59.3975C147.778 59.1042 148.277 58.9346 148.901 58.8887L149.423 58.8475L149.533 60.305L148.543 60.4012C147.984 60.4562 147.562 60.6304 147.278 60.9237C146.994 61.2079 146.852 61.6112 146.852 62.1337V65.75H145.106ZM152.216 68.225L153.618 65.1312V65.8463L150.662 59.0262H152.491L154.581 64.2375H154.168L156.3 59.0262H158.032L153.99 68.225H152.216ZM164.128 65.75V56.0562H168.336C169.399 56.0562 170.22 56.3129 170.797 56.8262C171.375 57.3304 171.663 58.0408 171.663 58.9575C171.663 59.5533 171.531 60.0667 171.265 60.4975C171.008 60.9283 170.632 61.2583 170.137 61.4875C169.642 61.7167 169.042 61.8312 168.336 61.8312L168.46 61.625H168.913C169.289 61.625 169.615 61.7167 169.89 61.9C170.174 62.0833 170.421 62.3721 170.632 62.7662L172.255 65.75H170.316L168.638 62.6562C168.528 62.4546 168.405 62.2987 168.267 62.1887C168.13 62.0696 167.974 61.9871 167.8 61.9412C167.626 61.8954 167.424 61.8725 167.195 61.8725H165.888V65.75H164.128ZM165.888 60.5662H168.033C168.666 60.5662 169.143 60.4379 169.463 60.1812C169.793 59.9154 169.958 59.5212 169.958 58.9987C169.958 58.4854 169.793 58.1004 169.463 57.8437C169.143 57.5779 168.666 57.445 168.033 57.445H165.888V60.5662ZM176.528 65.8875C175.969 65.8875 175.506 65.7867 175.139 65.585C174.773 65.3742 174.498 65.0625 174.314 64.65C174.14 64.2375 174.053 63.7242 174.053 63.11V59.0262H175.772V63.1375C175.772 63.4492 175.813 63.7104 175.895 63.9212C175.987 64.1321 176.12 64.2879 176.294 64.3887C176.478 64.4896 176.707 64.54 176.982 64.54C177.293 64.54 177.564 64.4712 177.793 64.3337C178.031 64.1871 178.215 63.9854 178.343 63.7288C178.48 63.4629 178.549 63.1558 178.549 62.8075V59.0262H180.268V65.75H178.59V64.3475H178.783C178.59 64.8425 178.297 65.2229 177.903 65.4887C177.518 65.7546 177.06 65.8875 176.528 65.8875ZM185.223 65.8875C184.847 65.8875 184.48 65.8554 184.123 65.7913C183.774 65.7271 183.453 65.64 183.16 65.53C182.867 65.4108 182.61 65.2642 182.39 65.09L182.83 63.9625C183.059 64.1092 183.307 64.2375 183.573 64.3475C183.838 64.4575 184.113 64.54 184.398 64.595C184.682 64.65 184.961 64.6775 185.236 64.6775C185.676 64.6775 186.002 64.6042 186.213 64.4575C186.433 64.3017 186.543 64.1 186.543 63.8525C186.543 63.6417 186.469 63.4812 186.323 63.3712C186.185 63.2521 185.974 63.165 185.69 63.11L184.315 62.8487C183.747 62.7387 183.311 62.5325 183.009 62.23C182.715 61.9183 182.569 61.5196 182.569 61.0337C182.569 60.5937 182.688 60.2133 182.926 59.8925C183.174 59.5717 183.513 59.3242 183.944 59.15C184.375 58.9758 184.87 58.8887 185.429 58.8887C185.75 58.8887 186.061 58.9208 186.364 58.985C186.666 59.04 186.95 59.1271 187.216 59.2462C187.491 59.3562 187.73 59.5029 187.931 59.6862L187.464 60.8137C187.29 60.6671 187.088 60.5433 186.859 60.4425C186.63 60.3325 186.391 60.25 186.144 60.195C185.905 60.1308 185.672 60.0987 185.443 60.0987C184.993 60.0987 184.659 60.1767 184.439 60.3325C184.228 60.4883 184.123 60.6946 184.123 60.9512C184.123 61.1437 184.187 61.3042 184.315 61.4325C184.443 61.5608 184.64 61.6479 184.906 61.6937L186.281 61.955C186.877 62.065 187.326 62.2667 187.629 62.56C187.94 62.8533 188.096 63.2475 188.096 63.7425C188.096 64.1917 187.977 64.5767 187.739 64.8975C187.5 65.2183 187.166 65.4658 186.735 65.64C186.304 65.805 185.8 65.8875 185.223 65.8875ZM190.18 65.75V56.0562H191.898V60.3737H191.706C191.908 59.8879 192.219 59.5212 192.641 59.2737C193.072 59.0171 193.558 58.8887 194.098 58.8887C194.639 58.8887 195.084 58.9896 195.432 59.1912C195.78 59.3929 196.042 59.7 196.216 60.1125C196.39 60.5158 196.477 61.0292 196.477 61.6525V65.75H194.758V61.735C194.758 61.3867 194.713 61.1025 194.621 60.8825C194.538 60.6625 194.405 60.5021 194.222 60.4012C194.048 60.2912 193.823 60.2362 193.548 60.2362C193.218 60.2362 192.93 60.3096 192.682 60.4562C192.435 60.5937 192.242 60.7954 192.105 61.0612C191.967 61.3179 191.898 61.6204 191.898 61.9687V65.75H190.18Z" fill="#202224"/>
<mask id="mask0_118_1906" style="mask-type:alpha" maskUnits="userSpaceOnUse" x="34" y="34" width="37" height="55">
<path d="M35 43.1125C35 38.6321 38.6321 35 43.1125 35H54.386C63.0094 35 70 41.9906 70 50.614V71.886C70 80.5094 63.0094 87.5 54.386 87.5H43.1125C38.6321 87.5 35 83.8679 35 79.3875V43.1125Z" fill="white" stroke="url(#paint24_linear_118_1906)" stroke-opacity="0.3" stroke-width="1.62697"/>
</mask>
<g mask="url(#mask0_118_1906)">
<rect x="33.75" y="33.9904" width="17.5" height="54.5192" fill="#587ED7"/>
</g>
<defs>
<filter id="filter0_d_118_1906" x="0.37165" y="0.37165" width="276.46" height="130.21" filterUnits="userSpaceOnUse" color-interpolation-filters="sRGB">
<feFlood flood-opacity="0" result="BackgroundImageFix"/>
<feColorMatrix in="SourceAlpha" type="matrix" values="0 0 0 0 0 0 0 0 0 0 0 0 0 0 0 0 0 0 127 0" result="hardAlpha"/>
<feOffset dx="4.22686" dy="4.22686"/>
<feGaussianBlur stdDeviation="19.0209"/>
<feColorMatrix type="matrix" values="0 0 0 0 0 0 0 0 0 0 0 0 0 0 0 0 0 0 0.05 0"/>
<feBlend mode="normal" in2="BackgroundImageFix" result="effect1_dropShadow_118_1906"/>
<feBlend mode="normal" in="SourceGraphic" in2="effect1_dropShadow_118_1906" result="shape"/>
</filter>
<filter id="filter1_d_118_1906" x="60.4601" y="42.9741" width="32.3651" height="35.9814" filterUnits="userSpaceOnUse" color-interpolation-filters="sRGB">
<feFlood flood-opacity="0" result="BackgroundImageFix"/>
<feColorMatrix in="SourceAlpha" type="matrix" values="0 0 0 0 0 0 0 0 0 0 0 0 0 0 0 0 0 0 127 0" result="hardAlpha"/>
<feOffset dy="0.957482"/>
<feComposite in2="hardAlpha" operator="out"/>
<feColorMatrix type="matrix" values="0 0 0 0 0.266667 0 0 0 0 0.0196078 0 0 0 0 0.0196078 0 0 0 1 0"/>
<feBlend mode="normal" in2="BackgroundImageFix" result="effect1_dropShadow_118_1906"/>
<feBlend mode="normal" in="SourceGraphic" in2="effect1_dropShadow_118_1906" result="shape"/>
</filter>
<filter id="filter2_f_118_1906" x="60.7545" y="43.2694" width="31.7759" height="34.4343" filterUnits="userSpaceOnUse" color-interpolation-filters="sRGB">
<feFlood flood-opacity="0" result="BackgroundImageFix"/>
<feBlend mode="normal" in="SourceGraphic" in2="BackgroundImageFix" result="shape"/>
<feGaussianBlur stdDeviation="0.441915" result="effect1_foregroundBlur_118_1906"/>
</filter>
<filter id="filter3_i_118_1906" x="63.1852" y="48.3513" width="26.9568" height="26.9568" filterUnits="userSpaceOnUse" color-interpolation-filters="sRGB">
<feFlood flood-opacity="0" result="BackgroundImageFix"/>
<feBlend mode="normal" in="SourceGraphic" in2="BackgroundImageFix" result="shape"/>
<feColorMatrix in="SourceAlpha" type="matrix" values="0 0 0 0 0 0 0 0 0 0 0 0 0 0 0 0 0 0 127 0" result="hardAlpha"/>
<feOffset dy="4.12454"/>
<feComposite in2="hardAlpha" operator="arithmetic" k2="-1" k3="1"/>
<feColorMatrix type="matrix" values="0 0 0 0 0.993306 0 0 0 0 1 0 0 0 0 0.575 0 0 0 0.29 0"/>
<feBlend mode="normal" in2="shape" result="effect1_innerShadow_118_1906"/>
</filter>
<filter id="filter4_d_118_1906" x="69.2247" y="47.1729" width="5.08148" height="5.58415" filterUnits="userSpaceOnUse" color-interpolation-filters="sRGB">
<feFlood flood-opacity="0" result="BackgroundImageFix"/>
<feColorMatrix in="SourceAlpha" type="matrix" values="0 0 0 0 0 0 0 0 0 0 0 0 0 0 0 0 0 0 127 0" result="hardAlpha"/>
<feOffset dy="0.502605"/>
<feComposite in2="hardAlpha" operator="out"/>
<feColorMatrix type="matrix" values="0 0 0 0 0.886275 0 0 0 0 0.380392 0 0 0 0 0.0196078 0 0 0 1 0"/>
<feBlend mode="normal" in2="BackgroundImageFix" result="effect1_dropShadow_118_1906"/>
<feBlend mode="normal" in="SourceGraphic" in2="effect1_dropShadow_118_1906" result="shape"/>
</filter>
<filter id="filter5_i_118_1906" x="69.9504" y="47.7642" width="3.63031" height="3.63037" filterUnits="userSpaceOnUse" color-interpolation-filters="sRGB">
<feFlood flood-opacity="0" result="BackgroundImageFix"/>
<feBlend mode="normal" in="SourceGraphic" in2="BackgroundImageFix" result="shape"/>
<feColorMatrix in="SourceAlpha" type="matrix" values="0 0 0 0 0 0 0 0 0 0 0 0 0 0 0 0 0 0 127 0" result="hardAlpha"/>
<feOffset dy="1.69401"/>
<feComposite in2="hardAlpha" operator="arithmetic" k2="-1" k3="1"/>
<feColorMatrix type="matrix" values="0 0 0 0 1 0 0 0 0 0.976471 0 0 0 0 0.168627 0 0 0 1 0"/>
<feBlend mode="normal" in2="shape" result="effect1_innerShadow_118_1906"/>
</filter>
<filter id="filter6_d_118_1906" x="78.4313" y="47.1729" width="5.08148" height="5.58415" filterUnits="userSpaceOnUse" color-interpolation-filters="sRGB">
<feFlood flood-opacity="0" result="BackgroundImageFix"/>
<feColorMatrix in="SourceAlpha" type="matrix" values="0 0 0 0 0 0 0 0 0 0 0 0 0 0 0 0 0 0 127 0" result="hardAlpha"/>
<feOffset dy="0.502605"/>
<feComposite in2="hardAlpha" operator="out"/>
<feColorMatrix type="matrix" values="0 0 0 0 0.886275 0 0 0 0 0.380392 0 0 0 0 0.0196078 0 0 0 1 0"/>
<feBlend mode="normal" in2="BackgroundImageFix" result="effect1_dropShadow_118_1906"/>
<feBlend mode="normal" in="SourceGraphic" in2="effect1_dropShadow_118_1906" result="shape"/>
</filter>
<filter id="filter7_i_118_1906" x="79.1569" y="47.7642" width="3.63031" height="3.63037" filterUnits="userSpaceOnUse" color-interpolation-filters="sRGB">
<feFlood flood-opacity="0" result="BackgroundImageFix"/>
<feBlend mode="normal" in="SourceGraphic" in2="BackgroundImageFix" result="shape"/>
<feColorMatrix in="SourceAlpha" type="matrix" values="0 0 0 0 0 0 0 0 0 0 0 0 0 0 0 0 0 0 127 0" result="hardAlpha"/>
<feOffset dy="1.69401"/>
<feComposite in2="hardAlpha" operator="arithmetic" k2="-1" k3="1"/>
<feColorMatrix type="matrix" values="0 0 0 0 1 0 0 0 0 0.976471 0 0 0 0 0.168627 0 0 0 1 0"/>
<feBlend mode="normal" in2="shape" result="effect1_innerShadow_118_1906"/>
</filter>
<filter id="filter8_d_118_1906" x="73.3493" y="44.5951" width="6.70184" height="7.36478" filterUnits="userSpaceOnUse" color-interpolation-filters="sRGB">
<feFlood flood-opacity="0" result="BackgroundImageFix"/>
<feColorMatrix in="SourceAlpha" type="matrix" values="0 0 0 0 0 0 0 0 0 0 0 0 0 0 0 0 0 0 127 0" result="hardAlpha"/>
<feOffset dy="0.662872"/>
<feComposite in2="hardAlpha" operator="out"/>
<feColorMatrix type="matrix" values="0 0 0 0 0.886275 0 0 0 0 0.380392 0 0 0 0 0.0196078 0 0 0 1 0"/>
<feBlend mode="normal" in2="BackgroundImageFix" result="effect1_dropShadow_118_1906"/>
<feBlend mode="normal" in="SourceGraphic" in2="effect1_dropShadow_118_1906" result="shape"/>
</filter>
<filter id="filter9_i_118_1906" x="74.0121" y="44.9633" width="5.37601" height="5.37598" filterUnits="userSpaceOnUse" color-interpolation-filters="sRGB">
<feFlood flood-opacity="0" result="BackgroundImageFix"/>
<feBlend mode="normal" in="SourceGraphic" in2="BackgroundImageFix" result="shape"/>
<feColorMatrix in="SourceAlpha" type="matrix" values="0 0 0 0 0 0 0 0 0 0 0 0 0 0 0 0 0 0 127 0" result="hardAlpha"/>
<feOffset dy="1.69401"/>
<feComposite in2="hardAlpha" operator="arithmetic" k2="-1" k3="1"/>
<feColorMatrix type="matrix" values="0 0 0 0 1 0 0 0 0 0.976471 0 0 0 0 0.168627 0 0 0 1 0"/>
<feBlend mode="normal" in2="shape" result="effect1_innerShadow_118_1906"/>
</filter>
<linearGradient id="paint0_linear_118_1906" x1="80.3193" y1="16.0373" x2="172.227" y2="126.799" gradientUnits="userSpaceOnUse">
<stop stop-color="#F1F1F1"/>
<stop offset="1" stop-color="#E1E1E1"/>
</linearGradient>
<linearGradient id="paint1_linear_118_1906" x1="76.6426" y1="44.5945" x2="76.6426" y2="76.3777" gradientUnits="userSpaceOnUse">
<stop stop-color="#EF7E65"/>
<stop offset="1" stop-color="#771614"/>
</linearGradient>
<linearGradient id="paint2_linear_118_1906" x1="79.0205" y1="50.34" x2="80.0517" y2="72.7304" gradientUnits="userSpaceOnUse">
<stop stop-color="#FBFF01"/>
<stop offset="1" stop-color="#ED5528"/>
</linearGradient>
<linearGradient id="paint3_linear_118_1906" x1="72.7969" y1="54.354" x2="73.1283" y2="83.7045" gradientUnits="userSpaceOnUse">
<stop stop-color="#FFF854"/>
<stop offset="0.256068" stop-color="#FFF500"/>
<stop offset="1" stop-color="#FF1700"/>
</linearGradient>
<linearGradient id="paint4_linear_118_1906" x1="76.6636" y1="53.3201" x2="74.9336" y2="78.6075" gradientUnits="userSpaceOnUse">
<stop stop-color="#F7DF0A"/>
<stop offset="1" stop-color="#ED4520"/>
</linearGradient>
<linearGradient id="paint5_linear_118_1906" x1="76.6425" y1="51.813" x2="75.6325" y2="80.7584" gradientUnits="userSpaceOnUse">
<stop stop-color="#FF7A00"/>
<stop offset="1" stop-color="#B10000"/>
</linearGradient>
<linearGradient id="paint6_linear_118_1906" x1="76.6425" y1="51.813" x2="76.6425" y2="71.8187" gradientUnits="userSpaceOnUse">
<stop stop-color="#CC2901" stop-opacity="0.49"/>
<stop offset="1" stop-color="#CC2901"/>
</linearGradient>
<linearGradient id="paint7_linear_118_1906" x1="76.6997" y1="44.5946" x2="76.6997" y2="51.2972" gradientUnits="userSpaceOnUse">
<stop stop-color="#F7CA0A"/>
<stop offset="1" stop-color="#FA9508"/>
</linearGradient>
<linearGradient id="paint8_linear_118_1906" x1="71.7654" y1="47.1729" x2="71.7654" y2="52.2543" gradientUnits="userSpaceOnUse">
<stop stop-color="#F7CA0A"/>
<stop offset="1" stop-color="#FA9508"/>
</linearGradient>
<linearGradient id="paint9_linear_118_1906" x1="71.7654" y1="47.1729" x2="71.7654" y2="52.2543" gradientUnits="userSpaceOnUse">
<stop stop-color="#F7CA0A"/>
<stop offset="1" stop-color="#FD6E08"/>
</linearGradient>
<linearGradient id="paint10_linear_118_1906" x1="71.7655" y1="47.7642" x2="71.7655" y2="51.3945" gradientUnits="userSpaceOnUse">
<stop stop-color="#FAFF00"/>
<stop offset="1" stop-color="#FAB608"/>
</linearGradient>
<linearGradient id="paint11_linear_118_1906" x1="80.972" y1="47.1729" x2="80.972" y2="52.2543" gradientUnits="userSpaceOnUse">
<stop stop-color="#F7CA0A"/>
<stop offset="1" stop-color="#FD6E08"/>
</linearGradient>
<linearGradient id="paint12_linear_118_1906" x1="80.9721" y1="47.7642" x2="80.9721" y2="51.3945" gradientUnits="userSpaceOnUse">
<stop stop-color="#FAFF00"/>
<stop offset="1" stop-color="#FAB608"/>
</linearGradient>
<linearGradient id="paint13_linear_118_1906" x1="76.7002" y1="44.5951" x2="76.7002" y2="51.2969" gradientUnits="userSpaceOnUse">
<stop stop-color="#F7CA0A"/>
<stop offset="1" stop-color="#FD6E08"/>
</linearGradient>
<linearGradient id="paint14_linear_118_1906" x1="76.7002" y1="44.9633" x2="76.7002" y2="50.3393" gradientUnits="userSpaceOnUse">
<stop stop-color="#FAFF00"/>
<stop offset="1" stop-color="#FAB608"/>
</linearGradient>
<linearGradient id="paint15_linear_118_1906" x1="76.6512" y1="52.9915" x2="76.6512" y2="70.6346" gradientUnits="userSpaceOnUse">
<stop stop-color="#FFA800"/>
<stop offset="0.96875" stop-color="#FF4300" stop-opacity="0"/>
</linearGradient>
<linearGradient id="paint16_linear_118_1906" x1="76.6512" y1="52.9915" x2="76.6512" y2="70.6346" gradientUnits="userSpaceOnUse">
<stop stop-color="#FFA800"/>
<stop offset="0.96875" stop-color="#FF4300" stop-opacity="0"/>
</linearGradient>
<linearGradient id="paint17_linear_118_1906" x1="76.6512" y1="52.9915" x2="76.6512" y2="70.6346" gradientUnits="userSpaceOnUse">
<stop stop-color="#FFA800"/>
<stop offset="0.96875" stop-color="#FF4300" stop-opacity="0"/>
</linearGradient>
<linearGradient id="paint18_linear_118_1906" x1="76.6512" y1="52.9915" x2="76.6512" y2="70.6346" gradientUnits="userSpaceOnUse">
<stop stop-color="#FFA800"/>
<stop offset="0.96875" stop-color="#FF4300" stop-opacity="0"/>
</linearGradient>
<linearGradient id="paint19_linear_118_1906" x1="76.6512" y1="52.9915" x2="76.6512" y2="70.6346" gradientUnits="userSpaceOnUse">
<stop stop-color="#FFA800"/>
<stop offset="0.96875" stop-color="#FF4300" stop-opacity="0"/>
</linearGradient>
<linearGradient id="paint20_linear_118_1906" x1="76.6512" y1="52.9915" x2="76.6512" y2="70.6346" gradientUnits="userSpaceOnUse">
<stop stop-color="#FFA800"/>
<stop offset="0.96875" stop-color="#FF4300" stop-opacity="0"/>
</linearGradient>
<linearGradient id="paint21_linear_118_1906" x1="75.3127" y1="54.6021" x2="77.9695" y2="68.1758" gradientUnits="userSpaceOnUse">
<stop stop-color="#F68B02"/>
<stop offset="1" stop-color="#CB2901"/>
</linearGradient>
<linearGradient id="paint22_linear_118_1906" x1="74.9489" y1="53.3308" x2="78.3942" y2="70.9339" gradientUnits="userSpaceOnUse">
<stop stop-color="#FFEB00"/>
<stop offset="1" stop-color="#FF8E00"/>
</linearGradient>
<linearGradient id="paint23_linear_118_1906" x1="76.3054" y1="54.6427" x2="76.8395" y2="66.9502" gradientUnits="userSpaceOnUse">
<stop stop-color="white"/>
<stop offset="1" stop-color="#FFE600" stop-opacity="0"/>
</linearGradient>
<linearGradient id="paint24_linear_118_1906" x1="42.9808" y1="16.0373" x2="80.9617" y2="24.0979" gradientUnits="userSpaceOnUse">
<stop stop-color="#F1F1F1"/>
<stop offset="1" stop-color="#E1E1E1"/>
</linearGradient>
</defs>
</svg>
