<svg width="216" height="105" viewBox="0 0 216 105" fill="none" xmlns="http://www.w3.org/2000/svg">
<g filter="url(#filter0_d_118_2413)">
<rect x="28" y="28" width="153" height="42" rx="6.49" fill="white"/>
<rect x="28" y="28" width="153" height="42" rx="6.49" stroke="url(#paint0_linear_118_2413)" stroke-opacity="0.3" stroke-width="1.30158"/>
</g>
<g filter="url(#filter1_d_118_2413)">
<path d="M60.2046 44.2236C60.868 42.182 61.1996 41.1613 62.0726 40.5271C62.9455 39.8929 64.0188 39.8929 66.1653 39.8929H74.1743C79.3977 39.8929 82.0093 39.8929 83.1306 41.4361C84.2518 42.9794 83.4448 45.4632 81.8307 50.4309L79.5871 57.336C78.9459 59.3094 78.6253 60.2962 77.7814 60.9092C76.9376 61.5223 75.9001 61.5223 73.8251 61.5223H70.825C63.1689 61.5223 59.3408 61.5223 57.6974 59.2603C56.0539 56.9982 57.2368 53.3575 59.6027 46.0761L60.2046 44.2236Z" fill="#5F0010"/>
<path d="M62.3598 43.5405C63.0232 41.499 63.3548 40.4783 64.2278 39.844C65.1007 39.2098 66.174 39.2098 68.3205 39.2098H75.6634C79.5988 39.2098 81.5665 39.2098 82.4113 40.3726C83.2561 41.5353 82.648 43.4067 81.4319 47.1494L78.1782 57.1635C77.8244 58.2523 77.6475 58.7967 77.1819 59.135C76.7164 59.4732 76.144 59.4732 74.9991 59.4732H65.2276C61.4354 59.4732 59.5392 59.4732 58.7252 58.3528C57.9111 57.2323 58.4971 55.429 59.6689 51.8223L62.3598 43.5405Z" fill="#E0B05D"/>
<path d="M60.6047 57.1562C61.0518 57.8465 61.0123 58.6665 60.5163 58.9877C60.0204 59.309 59.2559 59.0098 58.8088 58.3195C58.3616 57.6292 58.4011 56.8092 58.8971 56.4879C59.393 56.1667 60.1575 56.4659 60.6047 57.1562Z" fill="#DAAA57"/>
<path d="M69.9902 57.7977L58.5207 56.546L58.9962 58.6186L69.9902 57.7977Z" fill="url(#paint1_linear_118_2413)"/>
<path d="M58.5207 56.546C58.4718 56.5514 58.4247 56.6258 58.4025 56.675C58.3721 56.7423 58.3569 56.7804 58.3381 56.8951C58.3318 57.0122 58.3382 57.1482 58.3569 57.2941C58.3757 57.44 58.4063 57.5923 58.4468 57.7408C58.4874 57.8893 58.5368 58.0306 58.5918 58.1551C58.6469 58.2796 58.7062 58.3845 58.7659 58.4626C58.8255 58.5408 58.8841 58.5905 58.9377 58.6083C58.9913 58.6261 59.0387 58.6117 59.0766 58.566L58.7538 57.56L58.5207 56.546Z" fill="#BF7B3D"/>
<path d="M61.8286 39.5182C62.4919 37.4767 62.8236 36.4559 63.6965 35.8217C64.5694 35.1875 65.6427 35.1875 67.7893 35.1875H73.4567C78.2507 35.1875 80.6477 35.1875 81.6768 36.6039C82.7059 38.0203 81.9651 40.3 80.4837 44.8594L79.0496 49.2733C78.0104 52.4716 77.4907 54.0708 76.1232 55.0644C74.7556 56.058 73.0741 56.058 69.7111 56.058H62.8295C59.8243 56.058 58.3217 56.058 57.6766 55.1701C57.0315 54.2822 57.4958 52.8532 58.4245 49.9951L61.8286 39.5182Z" fill="url(#paint2_linear_118_2413)"/>
<path d="M60.7301 56.019C58.2491 55.8926 58.314 57.4087 58.1509 57.8205C58.1509 57.8205 58.3544 56.1501 58.4015 55.6903C58.4486 55.2305 58.7424 53.6487 58.7424 53.6487C59.9326 54.4657 61.9965 56.0835 60.7301 56.019Z" fill="#5E000F"/>
<path d="M61.7775 39.5182C62.4408 37.4767 62.7725 36.4559 63.6454 35.8217C64.5183 35.1875 65.5916 35.1875 67.7382 35.1875H75.4034C78.7663 35.1875 80.4478 35.1875 81.1697 36.1811C81.8916 37.1747 81.372 38.7739 80.3328 41.9723L78.4044 47.9072C77.3652 51.1056 76.8456 52.7048 75.478 53.6984C74.1104 54.692 72.429 54.692 69.066 54.692H60.6419C58.8531 54.692 57.9587 54.692 57.5747 54.1634C57.1907 53.6349 57.4671 52.7843 58.0198 51.083L61.7775 39.5182Z" fill="url(#paint3_linear_118_2413)"/>
<path d="M60.921 54.692C56.9366 54.692 57.1643 56.058 56.9366 56.4375C56.9366 56.4375 57.1263 54.9196 57.1643 54.5022C57.2022 54.0848 57.5438 52.6429 57.5438 52.6429C59.517 53.3259 62.9549 54.692 60.921 54.692Z" fill="url(#paint4_linear_118_2413)"/>
<path d="M65.8161 37.3504L59.1375 55.4509L61.0728 55.1853L65.8161 37.3504Z" fill="url(#paint5_linear_118_2413)"/>
<path d="M59.6027 46.0761L58.6283 45.7595L58.6283 45.7595L59.6027 46.0761ZM79.5871 57.336L78.6127 57.0194L78.6127 57.0194L79.5871 57.336ZM81.8307 50.4309L82.8051 50.7475L81.8307 50.4309ZM60.2046 44.2236L61.1791 44.5402L61.1791 44.5402L60.2046 44.2236ZM59.6689 51.8223L58.6945 51.5057L59.6689 51.8223ZM78.1782 57.1635L77.2037 56.8469L77.2037 56.8469L78.1782 57.1635ZM81.4319 47.1494L82.4063 47.466L82.4063 47.466L81.4319 47.1494ZM62.3598 43.5405L63.3343 43.8571L62.3598 43.5405ZM58.5207 56.546L58.6319 55.5275L58.5198 55.5152L58.4076 55.5277L58.5207 56.546ZM69.9902 57.7977L70.0665 58.8194L70.1013 56.7792L69.9902 57.7977ZM58.9962 58.6186L57.9975 58.8477L58.1944 59.7059L59.0725 59.6403L58.9962 58.6186ZM58.4025 56.675L59.3363 57.0965L59.3366 57.096L58.4025 56.675ZM58.3381 56.8951L57.327 56.7297L57.3181 56.7842L57.3151 56.8393L58.3381 56.8951ZM59.0766 58.566L59.8652 59.2201L60.2238 58.7878L60.0522 58.2529L59.0766 58.566ZM58.7538 57.56L57.7553 57.7895L57.765 57.8318L57.7782 57.8731L58.7538 57.56ZM58.4245 49.9951L59.3989 50.3117L59.3989 50.3117L58.4245 49.9951ZM79.0496 49.2733L80.024 49.5899L80.024 49.5899L79.0496 49.2733ZM80.4837 44.8594L79.5093 44.5428L79.5093 44.5428L80.4837 44.8594ZM61.8286 39.5182L60.8542 39.2016L60.8542 39.2016L61.8286 39.5182ZM58.1509 57.8205L57.1339 57.6966L59.1035 58.1978L58.1509 57.8205ZM60.7301 56.019L60.7822 54.9957L60.7301 56.019ZM58.7424 53.6487L59.3222 52.804L58.0228 51.9121L57.735 53.4616L58.7424 53.6487ZM58.4015 55.6903L57.3823 55.5859L58.4015 55.6903ZM58.0198 51.083L58.9943 51.3996L58.0198 51.083ZM78.4044 47.9072L77.43 47.5906L77.43 47.5906L78.4044 47.9072ZM80.3328 41.9723L81.3072 42.2889L80.3328 41.9723ZM61.7775 39.5182L60.8031 39.2016L61.7775 39.5182ZM56.9366 56.4375L55.92 56.3104L57.8152 56.9646L56.9366 56.4375ZM57.5438 52.6429L57.8789 51.6747L56.808 51.304L56.5468 52.4067L57.5438 52.6429ZM59.1375 55.4509L58.1763 55.0962L57.5853 56.6981L59.2768 56.4659L59.1375 55.4509ZM65.8161 37.3504L66.8062 37.6138L64.8549 36.9958L65.8161 37.3504ZM61.0728 55.1853L61.2121 56.2003L61.8877 56.1076L62.0629 55.4486L61.0728 55.1853ZM66.1653 39.8929V40.9174H74.1743V39.8929V38.8683H66.1653V39.8929ZM81.8307 50.4309L80.8563 50.1143L78.6127 57.0194L79.5871 57.336L80.5615 57.6526L82.8051 50.7475L81.8307 50.4309ZM73.8251 61.5223V60.4978H70.825V61.5223V62.5469H73.8251V61.5223ZM59.6027 46.0761L60.5771 46.3927L61.1791 44.5402L60.2046 44.2236L59.2302 43.907L58.6283 45.7595L59.6027 46.0761ZM70.825 61.5223V60.4978C66.9663 60.4978 64.1775 60.4956 62.1419 60.224C60.1066 59.9525 59.0957 59.4418 58.5262 58.6581L57.6974 59.2603L56.8685 59.8625C57.9425 61.3408 59.6674 61.9611 61.871 62.2551C64.0744 62.5491 67.0276 62.5469 70.825 62.5469V61.5223ZM59.6027 46.0761L58.6283 45.7595C57.4548 49.3711 56.5401 52.1791 56.1388 54.3655C55.7375 56.552 55.7944 58.3842 56.8685 59.8625L57.6974 59.2603L58.5262 58.6581C57.9568 57.8743 57.7835 56.7551 58.1543 54.7354C58.525 52.7156 59.3847 50.0626 60.5771 46.3927L59.6027 46.0761ZM79.5871 57.336L78.6127 57.0194C78.2844 58.0297 78.0648 58.6997 77.8317 59.1998C77.6129 59.669 77.4174 59.9074 77.1792 60.0804L77.7814 60.9092L78.3837 61.7381C78.9894 61.2981 79.376 60.7365 79.6888 60.0657C79.9872 59.4258 80.2486 58.6157 80.5615 57.6526L79.5871 57.336ZM73.8251 61.5223V62.5469C74.8378 62.5469 75.689 62.5486 76.3898 62.4626C77.1244 62.3724 77.778 62.1782 78.3837 61.7381L77.7814 60.9092L77.1792 60.0804C76.9411 60.2534 76.654 60.3657 76.1401 60.4288C75.5925 60.496 74.8874 60.4978 73.8251 60.4978V61.5223ZM74.1743 39.8929V40.9174C76.8167 40.9174 78.6932 40.9196 80.0553 41.1013C81.4172 41.283 81.9934 41.614 82.3017 42.0383L83.1306 41.4361L83.9595 40.8339C83.1465 39.715 81.8563 39.2743 80.3262 39.0702C78.7963 38.8661 76.7554 38.8683 74.1743 38.8683V39.8929ZM81.8307 50.4309L82.8051 50.7475C83.6027 48.2928 84.2355 46.3524 84.5141 44.8343C84.7928 43.3161 84.7724 41.9528 83.9595 40.8339L83.1306 41.4361L82.3017 42.0383C82.61 42.4627 82.7467 43.113 82.4987 44.4644C82.2506 45.8159 81.6728 47.6013 80.8563 50.1143L81.8307 50.4309ZM66.1653 39.8929V38.8683C65.1169 38.8683 64.2389 38.8665 63.5165 38.9552C62.7604 39.048 62.0906 39.2476 61.4703 39.6982L62.0726 40.5271L62.6748 41.356C62.9275 41.1724 63.2308 41.0548 63.7662 40.9891C64.3353 40.9192 65.0673 40.9174 66.1653 40.9174V39.8929ZM60.2046 44.2236L61.1791 44.5402C61.5184 43.4958 61.7462 42.8003 61.9886 42.2806C62.2165 41.7917 62.4221 41.5395 62.6748 41.356L62.0726 40.5271L61.4703 39.6982C60.8501 40.1488 60.4534 40.7242 60.1314 41.4146C59.8239 42.0742 59.5542 42.9098 59.2302 43.907L60.2046 44.2236ZM68.3205 39.2098V40.2344H75.6634V39.2098V38.1853H68.3205V39.2098ZM81.4319 47.1494L80.4575 46.8328L77.2037 56.8469L78.1782 57.1635L79.1526 57.4801L82.4063 47.466L81.4319 47.1494ZM74.9991 59.4732V58.4487H65.2276V59.4732V60.4978H74.9991V59.4732ZM59.6689 51.8223L60.6433 52.1389L63.3343 43.8571L62.3598 43.5405L61.3854 43.2239L58.6945 51.5057L59.6689 51.8223ZM65.2276 59.4732V58.4487C63.3009 58.4487 61.9609 58.4465 60.9951 58.3176C60.0293 58.1888 59.7087 57.9635 59.554 57.7505L58.7252 58.3528L57.8963 58.955C58.5556 59.8625 59.5902 60.1974 60.7241 60.3487C61.8578 60.5 63.3621 60.4978 65.2276 60.4978V59.4732ZM59.6689 51.8223L58.6945 51.5057C58.1181 53.2799 57.6511 54.7099 57.4446 55.8349C57.2381 56.9601 57.2369 58.0475 57.8963 58.955L58.7252 58.3528L59.554 57.7505C59.3993 57.5376 59.2841 57.1631 59.46 56.2048C59.636 55.2464 60.0479 53.9714 60.6433 52.1389L59.6689 51.8223ZM78.1782 57.1635L77.2037 56.8469C77.0192 57.4149 76.9074 57.7532 76.7934 57.9977C76.6937 58.2114 76.6287 58.2705 76.5797 58.3061L77.1819 59.135L77.7842 59.9638C78.2007 59.6612 78.4569 59.2789 78.6505 58.8637C78.8298 58.4792 78.9833 58.0009 79.1526 57.4801L78.1782 57.1635ZM74.9991 59.4732V60.4978C75.5467 60.4978 76.0491 60.4995 76.4701 60.4479C76.9249 60.392 77.3676 60.2665 77.7842 59.9638L77.1819 59.135L76.5797 58.3061C76.5307 58.3417 76.4545 58.3853 76.2204 58.414C75.9526 58.4469 75.5963 58.4487 74.9991 58.4487V59.4732ZM75.6634 39.2098V40.2344C77.6618 40.2344 79.0554 40.2366 80.0609 40.3707C81.0662 40.5048 81.4124 40.7407 81.5824 40.9748L82.4113 40.3726L83.2402 39.7703C82.5655 38.8417 81.5054 38.4962 80.3318 38.3396C79.1585 38.1831 77.6005 38.1853 75.6634 38.1853V39.2098ZM81.4319 47.1494L82.4063 47.466C83.0049 45.6238 83.4884 44.1428 83.7022 42.9785C83.9159 41.814 83.9149 40.699 83.2402 39.7703L82.4113 40.3726L81.5824 40.9748C81.7525 41.2088 81.8698 41.6109 81.6867 42.6085C81.5036 43.6063 81.075 44.9323 80.4575 46.8328L81.4319 47.1494ZM68.3205 39.2098V38.1853C67.2721 38.1853 66.3941 38.1835 65.6717 38.2722C64.9156 38.365 64.2458 38.5645 63.6255 39.0152L64.2278 39.844L64.83 40.6729C65.0827 40.4893 65.386 40.3717 65.9214 40.306C66.4905 40.2361 67.2225 40.2344 68.3205 40.2344V39.2098ZM62.3598 43.5405L63.3343 43.8571C63.6736 42.8128 63.9014 42.1172 64.1438 41.5975C64.3717 41.1086 64.5773 40.8565 64.83 40.6729L64.2278 39.844L63.6255 39.0152C63.0053 39.4658 62.6086 40.0411 62.2866 40.7316C61.9791 41.3912 61.7094 42.2268 61.3854 43.2239L62.3598 43.5405ZM60.6047 57.1562L59.7448 57.7132C59.8649 57.8987 59.8953 58.0668 59.8908 58.161C59.8862 58.2572 59.8597 58.1923 59.9593 58.1278L60.5163 58.9877L61.0734 59.8476C61.6689 59.4619 61.9102 58.8264 61.9375 58.2597C61.9649 57.6909 61.7916 57.1039 61.4646 56.5991L60.6047 57.1562ZM60.5163 58.9877L59.9593 58.1278C60.0589 58.0633 60.1073 58.1139 60.0176 58.0788C59.9298 58.0445 59.7888 57.948 59.6687 57.7625L58.8088 58.3195L57.9488 58.8765C58.2758 59.3813 58.7407 59.7795 59.2709 59.987C59.7993 60.1938 60.4778 60.2334 61.0734 59.8476L60.5163 58.9877ZM58.8088 58.3195L59.6687 57.7625C59.5485 57.577 59.5181 57.4088 59.5226 57.3147C59.5273 57.2185 59.5537 57.2833 59.4541 57.3479L58.8971 56.4879L58.34 55.628C57.7445 56.0138 57.5032 56.6493 57.4759 57.216C57.4485 57.7847 57.6219 58.3717 57.9488 58.8765L58.8088 58.3195ZM58.8971 56.4879L59.4541 57.3479C59.3545 57.4124 59.3061 57.3617 59.3958 57.3968C59.4836 57.4312 59.6246 57.5277 59.7448 57.7132L60.6047 57.1562L61.4646 56.5991C61.1376 56.0943 60.6728 55.6961 60.1425 55.4886C59.6142 55.2819 58.9356 55.2423 58.34 55.628L58.8971 56.4879ZM58.5207 56.546L58.4096 57.5645L69.879 58.8162L69.9902 57.7977L70.1013 56.7792L58.6319 55.5275L58.5207 56.546ZM69.9902 57.7977L69.9139 56.776L58.9199 57.5969L58.9962 58.6186L59.0725 59.6403L70.0665 58.8194L69.9902 57.7977ZM58.9962 58.6186L59.9948 58.3895L59.5194 56.3169L58.5207 56.546L57.5221 56.775L57.9975 58.8477L58.9962 58.6186ZM58.5207 56.546L58.4076 55.5277C57.9544 55.578 57.7052 55.888 57.6566 55.9478C57.5662 56.059 57.5056 56.1715 57.4684 56.2541L58.4025 56.675L59.3366 57.096C59.3215 57.1294 59.2957 57.18 59.2466 57.2404C59.2213 57.2715 59.1702 57.3296 59.0891 57.3888C59.0113 57.4457 58.8563 57.5396 58.6338 57.5643L58.5207 56.546ZM58.4025 56.675L57.4687 56.2535C57.4049 56.3948 57.3615 56.5187 57.327 56.7297L58.3381 56.8951L59.3493 57.0605C59.3548 57.0265 59.3543 57.039 59.3451 57.0691C59.3402 57.0847 59.3354 57.0976 59.3322 57.1056C59.3309 57.1088 59.3302 57.1102 59.3309 57.1086C59.3317 57.1068 59.3332 57.1034 59.3363 57.0965L58.4025 56.675ZM58.3381 56.8951L57.3151 56.8393C57.3046 57.0319 57.3159 57.2319 57.3407 57.4247L58.3569 57.2941L59.3731 57.1635C59.3604 57.0646 59.3589 56.9924 59.3612 56.9509L58.3381 56.8951ZM58.3569 57.2941L57.3407 57.4247C57.3658 57.6197 57.406 57.8185 57.4584 58.0105L58.4468 57.7408L59.4353 57.4711C59.4066 57.3661 59.3855 57.2603 59.3731 57.1635L58.3569 57.2941ZM58.4468 57.7408L57.4584 58.0105C57.5107 58.2021 57.5765 58.3923 57.6547 58.5693L58.5918 58.1551L59.5289 57.7409C59.4971 57.6688 59.464 57.5765 59.4353 57.4711L58.4468 57.7408ZM58.5918 58.1551L57.6547 58.5693C57.7309 58.7415 57.8282 58.9228 57.9514 59.0842L58.7659 58.4626L59.5803 57.841C59.5841 57.846 59.5796 57.8408 59.5688 57.8216C59.5584 57.8032 59.5447 57.7764 59.5289 57.7409L58.5918 58.1551ZM58.7659 58.4626L57.9514 59.0842C58.0542 59.2189 58.2682 59.4654 58.6144 59.5805L58.9377 58.6083L59.2611 57.6361C59.3935 57.6802 59.4782 57.7441 59.5165 57.7765C59.5575 57.8113 59.5776 57.8375 59.5803 57.841L58.7659 58.4626ZM58.9377 58.6083L58.6144 59.5805C58.8113 59.646 59.0558 59.669 59.3117 59.591C59.5637 59.5143 59.7455 59.3644 59.8652 59.2201L59.0766 58.566L58.2881 57.9119C58.3699 57.8133 58.509 57.6935 58.7144 57.6309C58.9238 57.5671 59.1178 57.5885 59.2611 57.6361L58.9377 58.6083ZM59.0766 58.566L60.0522 58.2529L59.7294 57.2469L58.7538 57.56L57.7782 57.8731L58.1011 58.8791L59.0766 58.566ZM58.7538 57.56L59.7523 57.3305L59.5193 56.3165L58.5207 56.546L57.5222 56.7755L57.7553 57.7895L58.7538 57.56ZM67.7893 35.1875V36.2121H73.4567V35.1875V34.1629H67.7893V35.1875ZM80.4837 44.8594L79.5093 44.5428L78.0752 48.9567L79.0496 49.2733L80.024 49.5899L81.4581 45.176L80.4837 44.8594ZM69.7111 56.058V55.0335H62.8295V56.058V57.0826H69.7111V56.058ZM58.4245 49.9951L59.3989 50.3117L62.803 39.8348L61.8286 39.5182L60.8542 39.2016L57.4501 49.6784L58.4245 49.9951ZM62.8295 56.058V55.0335C61.2962 55.0335 60.2515 55.0313 59.5035 54.9315C58.7556 54.8317 58.5757 54.6646 58.5055 54.5679L57.6766 55.1701L56.8477 55.7724C57.4226 56.5636 58.3165 56.8404 59.2325 56.9626C60.1484 57.0848 61.3575 57.0826 62.8295 57.0826V56.058ZM58.4245 49.9951L57.4501 49.6784C56.9952 51.0784 56.6195 52.2276 56.4526 53.1365C56.2858 54.0454 56.2728 54.9811 56.8477 55.7724L57.6766 55.1701L58.5055 54.5679C58.4352 54.4713 58.3319 54.2485 58.4681 53.5064C58.6043 52.7642 58.9251 51.7699 59.3989 50.3117L58.4245 49.9951ZM79.0496 49.2733L78.0752 48.9567C77.5479 50.5794 77.1791 51.7088 76.7809 52.5627C76.3972 53.3857 76.0209 53.8723 75.5209 54.2355L76.1232 55.0644L76.7254 55.8933C77.593 55.263 78.1603 54.4532 78.6381 53.4286C79.1014 52.4349 79.512 51.1655 80.024 49.5899L79.0496 49.2733ZM69.7111 56.058V57.0826C71.3678 57.0826 72.702 57.0844 73.7903 56.9508C74.9123 56.813 75.8578 56.5236 76.7254 55.8933L76.1232 55.0644L75.5209 54.2355C75.0209 54.5988 74.4419 54.8063 73.5406 54.9169C72.6055 55.0317 71.4174 55.0335 69.7111 55.0335V56.058ZM73.4567 35.1875V36.2121C75.8843 36.2121 77.5999 36.2143 78.8431 36.3801C80.0861 36.5459 80.5857 36.8452 80.8479 37.2061L81.6768 36.6039L82.5057 36.0017C81.7388 34.9462 80.5253 34.5373 79.1141 34.349C77.703 34.1607 75.823 34.1629 73.4567 34.1629V35.1875ZM80.4837 44.8594L81.4581 45.176C82.1894 42.9255 82.7724 41.1382 83.0294 39.738C83.2864 38.3377 83.2725 37.0572 82.5057 36.0017L81.6768 36.6039L80.8479 37.2061C81.1101 37.567 81.2404 38.1346 81.014 39.3681C80.7875 40.6017 80.2595 42.234 79.5093 44.5428L80.4837 44.8594ZM67.7893 35.1875V34.1629C66.7408 34.1629 65.8628 34.1612 65.1404 34.2499C64.3843 34.3427 63.7145 34.5422 63.0943 34.9928L63.6965 35.8217L64.2987 36.6506C64.5514 36.467 64.8547 36.3494 65.3901 36.2837C65.9593 36.2138 66.6912 36.2121 67.7893 36.2121V35.1875ZM61.8286 39.5182L62.803 39.8348C63.1423 38.7905 63.3702 38.0949 63.6125 37.5752C63.8405 37.0863 64.0461 36.8342 64.2987 36.6506L63.6965 35.8217L63.0943 34.9928C62.474 35.4435 62.0773 36.0188 61.7554 36.7092C61.4478 37.3689 61.1782 38.2044 60.8542 39.2016L61.8286 39.5182ZM58.1509 57.8205L59.1035 58.1978C59.1572 58.0622 59.1899 57.9159 59.2049 57.8509C59.2262 57.759 59.2404 57.695 59.2602 57.6245C59.2979 57.4904 59.3384 57.4019 59.3878 57.3367C59.4334 57.2766 59.6546 56.9901 60.678 57.0422L60.7301 56.019L60.7822 54.9957C59.3245 54.9215 58.3377 55.3298 57.7547 56.0991C57.4899 56.4486 57.361 56.8085 57.2874 57.0706C57.2516 57.1981 57.2248 57.3191 57.2087 57.3884C57.1864 57.4847 57.1854 57.4759 57.1983 57.4433L58.1509 57.8205ZM60.7301 56.019L60.678 57.0422C60.8797 57.0525 61.2615 57.0531 61.6064 56.834C61.8108 56.7042 61.9931 56.5016 62.0874 56.2285C62.1761 55.9716 62.158 55.7362 62.122 55.5717C62.0566 55.2725 61.8936 55.0338 61.7893 54.8955C61.6678 54.7346 61.5222 54.5779 61.3762 54.4342C60.8039 53.8709 59.9302 53.2213 59.3222 52.804L58.7424 53.6487L58.1626 54.4934C58.7448 54.893 59.4982 55.4609 59.9388 55.8946C60.046 56.0001 60.1152 56.0789 60.1538 56.13C60.2095 56.2038 60.1518 56.1536 60.1203 56.0097C60.1013 55.9229 60.0824 55.7569 60.1504 55.5599C60.224 55.3467 60.3658 55.1945 60.5078 55.1043C60.7278 54.9646 60.897 55.0016 60.7822 54.9957L60.7301 56.019ZM58.7424 53.6487C57.735 53.4616 57.735 53.4617 57.735 53.4617C57.735 53.4617 57.735 53.4617 57.735 53.4618C57.735 53.4618 57.735 53.4619 57.735 53.462C57.7349 53.4622 57.7349 53.4626 57.7348 53.463C57.7346 53.4638 57.7344 53.465 57.7341 53.4666C57.7335 53.4697 57.7327 53.4743 57.7316 53.4803C57.7294 53.4923 57.7261 53.5098 57.722 53.5322C57.7138 53.5769 57.702 53.6412 57.6877 53.7197C57.6592 53.8767 57.6206 54.091 57.5804 54.3203C57.5034 54.7599 57.4104 55.3114 57.3823 55.5859L58.4015 55.6903L59.4207 55.7947C59.4397 55.6094 59.5171 55.1401 59.5988 54.6738C59.638 54.4502 59.6757 54.2404 59.7038 54.0864C59.7177 54.0094 59.7293 53.9465 59.7373 53.903C59.7413 53.8812 59.7444 53.8643 59.7465 53.8529C59.7476 53.8472 59.7484 53.8428 59.7489 53.84C59.7492 53.8385 59.7494 53.8374 59.7495 53.8367C59.7496 53.8364 59.7496 53.8361 59.7497 53.836C59.7497 53.8359 59.7497 53.8358 59.7497 53.8358C59.7497 53.8358 59.7497 53.8358 59.7497 53.8358C59.7497 53.8358 59.7497 53.8358 58.7424 53.6487ZM58.4015 55.6903L57.3823 55.5859C57.3598 55.8052 57.2984 56.3278 57.2412 56.8063C57.2129 57.0432 57.1861 57.2658 57.1663 57.4293C57.1564 57.511 57.1483 57.5779 57.1427 57.6243C57.1398 57.6476 57.1376 57.6657 57.1362 57.6779C57.1354 57.6841 57.1348 57.6888 57.1345 57.6919C57.1343 57.6935 57.1341 57.6947 57.134 57.6955C57.134 57.6959 57.1339 57.6962 57.1339 57.6964C57.1339 57.6965 57.1339 57.6965 57.1339 57.6966C57.1339 57.6966 57.1339 57.6966 57.1339 57.6966C57.1339 57.6966 57.1339 57.6966 58.1509 57.8205C59.1679 57.9444 59.1679 57.9444 59.1679 57.9444C59.1679 57.9444 59.168 57.9444 59.168 57.9444C59.168 57.9443 59.168 57.9442 59.168 57.9441C59.168 57.9439 59.168 57.9436 59.1681 57.9432C59.1682 57.9424 59.1683 57.9412 59.1685 57.9396C59.1689 57.9363 59.1695 57.9316 59.1703 57.9254C59.1718 57.913 59.174 57.8948 59.1768 57.8714C59.1825 57.8247 59.1907 57.7575 59.2006 57.6754C59.2204 57.5113 59.2474 57.2876 59.2759 57.0494C59.3322 56.5777 59.3961 56.0352 59.4207 55.7947L58.4015 55.6903ZM67.7382 35.1875V36.2121H75.4034V35.1875V34.1629H67.7382V35.1875ZM80.3328 41.9723L79.3584 41.6557L77.43 47.5906L78.4044 47.9072L79.3788 48.2238L81.3072 42.2889L80.3328 41.9723ZM69.066 54.692V53.6674H60.6419V54.692V55.7165H69.066V54.692ZM58.0198 51.083L58.9943 51.3996L62.7519 39.8348L61.7775 39.5182L60.8031 39.2016L57.0454 50.7664L58.0198 51.083ZM60.6419 54.692V53.6674C59.7168 53.6674 59.1282 53.6652 58.717 53.6103C58.3058 53.5555 58.3432 53.4782 58.4036 53.5612L57.5747 54.1634L56.7458 54.7657C57.1901 55.3772 57.8667 55.5642 58.446 55.6415C59.0251 55.7187 59.7781 55.7165 60.6419 55.7165V54.692ZM58.0198 51.083L57.0454 50.7664C56.7785 51.5879 56.5437 52.3034 56.4383 52.8781C56.3327 53.4529 56.3015 54.1541 56.7458 54.7657L57.5747 54.1634L58.4036 53.5612C58.4639 53.6443 58.3788 53.6559 58.4537 53.248C58.5286 52.8399 58.7084 52.2794 58.9943 51.3996L58.0198 51.083ZM78.4044 47.9072L77.43 47.5906C76.9027 49.2134 76.5339 50.3427 76.1358 51.1966C75.752 52.0196 75.3758 52.5062 74.8758 52.8695L75.478 53.6984L76.0802 54.5272C76.9478 53.8969 77.5152 53.0871 77.9929 52.0625C78.4563 51.0688 78.8669 49.7994 79.3788 48.2238L78.4044 47.9072ZM69.066 54.692V55.7165C70.7227 55.7165 72.0568 55.7183 73.1451 55.5847C74.2672 55.4469 75.2127 55.1576 76.0802 54.5272L75.478 53.6984L74.8758 52.8695C74.3758 53.2328 73.7968 53.4402 72.8954 53.5508C71.9603 53.6656 70.7723 53.6674 69.066 53.6674V54.692ZM75.4034 35.1875V36.2121C77.1155 36.2121 78.2944 36.2143 79.1415 36.3273C79.9884 36.4402 80.2322 36.6338 80.3408 36.7833L81.1697 36.1811L81.9986 35.5789C81.3853 34.7348 80.4275 34.4316 79.4124 34.2961C78.3975 34.1607 77.0542 34.1629 75.4034 34.1629V35.1875ZM80.3328 41.9723L81.3072 42.2889C81.8173 40.7188 82.2345 39.442 82.4194 38.4349C82.6043 37.4276 82.6119 36.423 81.9986 35.5789L81.1697 36.1811L80.3408 36.7833C80.4495 36.9328 80.5582 37.2246 80.404 38.0649C80.2497 38.9054 79.8875 40.0273 79.3584 41.6557L80.3328 41.9723ZM67.7382 35.1875V34.1629C66.6897 34.1629 65.8117 34.1612 65.0893 34.2499C64.3332 34.3427 63.6634 34.5422 63.0432 34.9928L63.6454 35.8217L64.2476 36.6506C64.5003 36.467 64.8036 36.3494 65.339 36.2837C65.9082 36.2138 66.6401 36.2121 67.7382 36.2121V35.1875ZM61.7775 39.5182L62.7519 39.8348C63.0912 38.7905 63.3191 38.0949 63.5614 37.5752C63.7894 37.0863 63.9949 36.8342 64.2476 36.6506L63.6454 35.8217L63.0432 34.9928C62.4229 35.4435 62.0262 36.0188 61.7043 36.7092C61.3967 37.3689 61.1271 38.2044 60.8031 39.2016L61.7775 39.5182ZM56.9366 56.4375L57.8152 56.9646C57.9156 56.7973 57.969 56.6181 57.9865 56.5631C58.0154 56.4717 58.0271 56.4327 58.0456 56.3868C58.0704 56.325 58.0989 56.2734 58.1736 56.2115C58.3603 56.0568 58.9954 55.7165 60.921 55.7165V54.692V53.6674C58.8622 53.6674 57.619 54.0101 56.8665 54.6334C56.4716 54.9605 56.2653 55.3215 56.1443 55.6226C56.0898 55.7581 56.0508 55.8881 56.0331 55.944C56.0038 56.0364 56.0146 55.9829 56.0581 55.9104L56.9366 56.4375ZM60.921 54.692V55.7165C61.1858 55.7165 61.5274 55.7007 61.821 55.5833C61.9692 55.5241 62.2676 55.3755 62.4453 55.029C62.6502 54.6296 62.5598 54.2462 62.4511 54.0217C62.3536 53.82 62.2161 53.6796 62.1311 53.6012C62.0355 53.513 61.9326 53.437 61.8384 53.3736C61.6499 53.2468 61.4247 53.1231 61.1941 53.0076C60.2788 52.5489 58.8728 52.0187 57.8789 51.6747L57.5438 52.6429L57.2086 53.611C58.1879 53.95 59.4875 54.4444 60.276 54.8395C60.4714 54.9374 60.6095 55.0165 60.6946 55.0738C60.7372 55.1025 60.7487 55.1138 60.7417 55.1073C60.7374 55.1033 60.7212 55.0881 60.6995 55.0615C60.6788 55.0362 60.6418 54.9869 60.6065 54.914C60.5315 54.7588 60.4454 54.4381 60.6221 54.0937C60.7716 53.8023 61.0092 53.7011 61.0605 53.6806C61.1606 53.6406 61.1647 53.6674 60.921 53.6674V54.692ZM57.5438 52.6429C56.5468 52.4067 56.5468 52.4068 56.5468 52.4068C56.5468 52.4068 56.5468 52.4068 56.5468 52.4069C56.5467 52.4069 56.5467 52.407 56.5467 52.4072C56.5466 52.4074 56.5466 52.4077 56.5465 52.4081C56.5463 52.4089 56.546 52.41 56.5457 52.4115C56.545 52.4145 56.5439 52.4188 56.5426 52.4243C56.54 52.4355 56.5362 52.4517 56.5314 52.4723C56.5217 52.5136 56.508 52.5727 56.4913 52.6449C56.4582 52.7891 56.4134 52.9863 56.3673 53.1974C56.2824 53.5864 56.17 54.1228 56.144 54.4095L57.1643 54.5022L58.1846 54.595C58.1965 54.4643 58.2739 54.071 58.3692 53.6346C58.4132 53.4331 58.4562 53.2437 58.4883 53.1045C58.5043 53.0349 58.5175 52.9782 58.5266 52.939C58.5312 52.9194 58.5348 52.9042 58.5372 52.894C58.5384 52.8889 58.5393 52.885 58.5399 52.8825C58.5402 52.8812 58.5404 52.8803 58.5406 52.8797C58.5406 52.8794 58.5407 52.8792 58.5407 52.8791C58.5407 52.879 58.5407 52.879 58.5407 52.879C58.5407 52.879 58.5407 52.879 58.5407 52.879C58.5407 52.879 58.5407 52.879 57.5438 52.6429ZM57.1643 54.5022L56.144 54.4095C56.1267 54.5995 56.072 55.0658 56.0191 55.5034C55.9931 55.7181 55.9683 55.92 55.95 56.0682C55.9409 56.1423 55.9334 56.203 55.9281 56.245C55.9255 56.2661 55.9235 56.2825 55.9221 56.2936C55.9214 56.2991 55.9209 56.3034 55.9205 56.3062C55.9203 56.3076 55.9202 56.3087 55.9201 56.3094C55.9201 56.3097 55.92 56.31 55.92 56.3102C55.92 56.3103 55.92 56.3103 55.92 56.3104C55.92 56.3104 55.92 56.3104 55.92 56.3104C55.92 56.3104 55.92 56.3104 56.9366 56.4375C57.9533 56.5646 57.9533 56.5646 57.9533 56.5646C57.9533 56.5645 57.9533 56.5645 57.9533 56.5645C57.9533 56.5644 57.9533 56.5644 57.9533 56.5643C57.9533 56.5641 57.9534 56.5638 57.9534 56.5634C57.9535 56.5626 57.9536 56.5615 57.9538 56.5601C57.9542 56.5571 57.9547 56.5528 57.9554 56.5471C57.9569 56.5358 57.9589 56.5192 57.9616 56.4979C57.9669 56.4553 57.9745 56.3941 57.9837 56.3194C58.0021 56.17 58.0272 55.9663 58.0534 55.7493C58.1048 55.3237 58.164 54.8223 58.1846 54.595L57.1643 54.5022ZM59.1375 55.4509L60.0987 55.8056L66.7773 37.7051L65.8161 37.3504L64.8549 36.9958L58.1763 55.0962L59.1375 55.4509ZM65.8161 37.3504L64.8259 37.0871L60.0826 54.9219L61.0728 55.1853L62.0629 55.4486L66.8062 37.6138L65.8161 37.3504ZM61.0728 55.1853L60.9335 54.1702L58.9982 54.4359L59.1375 55.4509L59.2768 56.4659L61.2121 56.2003L61.0728 55.1853Z" fill="url(#paint6_linear_118_2413)"/>
</g>
<path d="M60.2046 44.2235C60.868 42.182 61.1996 41.1613 62.0725 40.527C62.9455 39.8928 64.0188 39.8928 66.1653 39.8928H74.1743C79.3977 39.8928 82.0093 39.8928 83.1306 41.4361C84.2518 42.9793 83.4448 45.4632 81.8307 50.4309L79.5871 57.3359C78.9459 59.3094 78.6253 60.2961 77.7814 60.9092C76.9376 61.5223 75.9001 61.5223 73.8251 61.5223H70.825C63.1689 61.5223 59.3408 61.5223 57.6973 59.2602C56.0539 56.9982 57.2368 53.3575 59.6027 46.0761L60.2046 44.2235Z" fill="#870000"/>
<mask id="mask0_118_2413" style="mask-type:alpha" maskUnits="userSpaceOnUse" x="56" y="39" width="28" height="23">
<path d="M60.2046 44.2235C60.868 42.182 61.1996 41.1613 62.0725 40.527C62.9455 39.8928 64.0188 39.8928 66.1653 39.8928H74.1743C79.3977 39.8928 82.0093 39.8928 83.1306 41.4361C84.2518 42.9793 83.4448 45.4632 81.8307 50.4309L79.5871 57.3359C78.9459 59.3094 78.6253 60.2961 77.7814 60.9092C76.9376 61.5223 75.9001 61.5223 73.8251 61.5223H70.825C63.1689 61.5223 59.3408 61.5223 57.6973 59.2602C56.0539 56.9982 57.2368 53.3575 59.6027 46.0761L60.2046 44.2235Z" fill="#B81219"/>
</mask>
<g mask="url(#mask0_118_2413)">
<rect width="19.808" height="33.6964" transform="matrix(1 0 0.309017 0.951057 68.9277 33.9733)" fill="#B81219"/>
</g>
<path d="M62.3598 43.5405C63.0232 41.499 63.3548 40.4783 64.2278 39.8441C65.1007 39.2098 66.174 39.2098 68.3205 39.2098H75.6634C79.5988 39.2098 81.5665 39.2098 82.4113 40.3726C83.2561 41.5353 82.648 43.4067 81.4319 47.1495L78.1782 57.1635C77.8244 58.2523 77.6475 58.7967 77.1819 59.135C76.7164 59.4732 76.1439 59.4732 74.9991 59.4732H65.2276C61.4354 59.4732 59.5392 59.4732 58.7252 58.3528C57.9111 57.2323 58.497 55.429 59.6689 51.8223L62.3598 43.5405Z" fill="url(#paint7_linear_118_2413)"/>
<mask id="mask1_118_2413" style="mask-type:alpha" maskUnits="userSpaceOnUse" x="58" y="39" width="25" height="21">
<path d="M62.3598 43.5405C63.0232 41.499 63.3548 40.4783 64.2278 39.8441C65.1007 39.2098 66.174 39.2098 68.3205 39.2098H75.6634C79.5988 39.2098 81.5665 39.2098 82.4113 40.3726C83.2561 41.5353 82.648 43.4067 81.4319 47.1495L78.1782 57.1635C77.8244 58.2523 77.6475 58.7967 77.1819 59.135C76.7164 59.4732 76.1439 59.4732 74.9991 59.4732H65.2276C61.4354 59.4732 59.5392 59.4732 58.7252 58.3528C57.9111 57.2323 58.497 55.429 59.6689 51.8223L62.3598 43.5405Z" fill="#E0B05D"/>
</mask>
<g mask="url(#mask1_118_2413)">
<ellipse cx="82.1298" cy="47.1072" rx="6.83963" ry="13.1674" transform="rotate(23.5588 82.1298 47.1072)" fill="url(#paint8_linear_118_2413)"/>
</g>
<ellipse cx="59.7067" cy="57.7378" rx="1.06989" ry="1.4892" transform="rotate(-32.934 59.7067 57.7378)" fill="#C68643"/>
<mask id="mask2_118_2413" style="mask-type:alpha" maskUnits="userSpaceOnUse" x="58" y="39" width="25" height="21">
<path d="M62.3598 43.5405C63.0232 41.499 63.3548 40.4783 64.2278 39.8441C65.1007 39.2098 66.174 39.2098 68.3205 39.2098H75.6634C79.5988 39.2098 81.5665 39.2098 82.4113 40.3726C83.2561 41.5353 82.648 43.4067 81.4319 47.1495L78.1782 57.1635C77.8244 58.2523 77.6475 58.7967 77.1819 59.135C76.7164 59.4732 76.1439 59.4732 74.9991 59.4732H65.2276C61.4354 59.4732 59.5392 59.4732 58.7252 58.3528C57.9111 57.2323 58.497 55.429 59.6689 51.8223L62.3598 43.5405Z" fill="#E0B05D"/>
</mask>
<g mask="url(#mask2_118_2413)">
<path d="M58.7437 39.8977C59.4071 37.8562 59.7387 36.8355 60.6117 36.2012C61.4846 35.567 62.5579 35.567 64.7045 35.567H73.8528C78.6469 35.567 81.0439 35.567 82.073 36.9834C83.102 38.3999 82.3613 40.6795 80.8799 45.2389L79.4457 49.6528C78.4065 52.8512 77.8869 54.4503 76.5193 55.4439C75.1518 56.4376 73.4703 56.4376 70.1073 56.4376H59.7446C56.7394 56.4376 55.2368 56.4376 54.5917 55.5496C53.9466 54.6617 54.411 53.2327 55.3396 50.3746L58.7437 39.8977Z" fill="url(#paint9_linear_118_2413)"/>
</g>
<path d="M69.9902 57.7977L58.5207 56.5459L58.9961 58.6186L69.9902 57.7977Z" fill="#BF7B3D"/>
<path d="M58.5207 56.5459C58.4718 56.5514 58.4247 56.6258 58.4025 56.675C58.3721 56.7423 58.3569 56.7803 58.3381 56.8951C58.3317 57.0122 58.3381 57.1482 58.3569 57.2941C58.3756 57.44 58.4063 57.5923 58.4468 57.7408C58.4874 57.8893 58.5368 58.0305 58.5918 58.1551C58.6468 58.2796 58.7062 58.3844 58.7659 58.4626C58.8255 58.5408 58.8841 58.5905 58.9377 58.6083C58.9913 58.6261 59.0387 58.6117 59.0766 58.566L58.7538 57.56L58.5207 56.5459Z" fill="#BF7B3D"/>
<path d="M61.8286 39.5182C62.4919 37.4767 62.8236 36.4559 63.6965 35.8217C64.5694 35.1875 65.6427 35.1875 67.7893 35.1875H73.4567C78.2507 35.1875 80.6477 35.1875 81.6768 36.6039C82.7059 38.0203 81.9651 40.3 80.4837 44.8594L79.0496 49.2733C78.0103 52.4716 77.4907 54.0708 76.1232 55.0644C74.7556 56.058 73.0741 56.058 69.7111 56.058H62.8295C59.8243 56.058 58.3217 56.058 57.6766 55.1701C57.0315 54.2822 57.4958 52.8532 58.4245 49.9951L61.8286 39.5182Z" fill="url(#paint10_linear_118_2413)"/>
<mask id="mask3_118_2413" style="mask-type:alpha" maskUnits="userSpaceOnUse" x="57" y="35" width="26" height="22">
<path d="M61.8286 39.5182C62.4919 37.4767 62.8236 36.4559 63.6965 35.8217C64.5694 35.1875 65.6427 35.1875 67.7893 35.1875H73.4567C78.2507 35.1875 80.6477 35.1875 81.6768 36.6039C82.7059 38.0203 81.9651 40.3 80.4837 44.8594L79.0496 49.2733C78.0103 52.4716 77.4907 54.0708 76.1232 55.0644C74.7556 56.058 73.0741 56.058 69.7111 56.058H62.8295C59.8243 56.058 58.3217 56.058 57.6766 55.1701C57.0315 54.2822 57.4958 52.8532 58.4245 49.9951L61.8286 39.5182Z" fill="url(#paint11_linear_118_2413)"/>
</mask>
<g mask="url(#mask3_118_2413)">
<path d="M67.7513 57.4241L67.4098 54.7678L77.8451 49.4174L78.7937 50.7834C78.5787 52.6428 78.1487 56.4223 78.1487 56.6651C78.1487 56.908 71.2171 57.2723 67.7513 57.4241Z" fill="url(#paint12_linear_118_2413)"/>
<path d="M80.8049 44.2187L80.3875 41.6763C80.008 40.8668 79.2491 39.2022 79.2491 39.0201C79.2491 38.7924 76.5929 34.6942 76.517 34.3147C76.4562 34.0111 78.3131 33.657 79.2491 33.5178C80.4634 34.3526 82.9299 36.0526 83.0817 36.1741C83.2335 36.2955 81.6271 41.5878 80.8049 44.2187Z" fill="url(#paint13_linear_118_2413)"/>
</g>
<path d="M60.7301 56.019C58.2491 55.8927 58.314 57.4087 58.1509 57.8206C58.1509 57.8206 58.3544 56.1502 58.4015 55.6904C58.4486 55.2305 58.7424 53.6488 58.7424 53.6488C59.9326 54.4657 61.9965 56.0835 60.7301 56.019Z" fill="#870000"/>
<g filter="url(#filter2_i_118_2413)">
<path d="M61.7775 39.5182C62.4408 37.4767 62.7725 36.4559 63.6454 35.8217C64.5183 35.1875 65.5916 35.1875 67.7382 35.1875H75.4034C78.7663 35.1875 80.4478 35.1875 81.1697 36.1811C81.8916 37.1747 81.372 38.7739 80.3328 41.9723L78.4044 47.9072C77.3652 51.1056 76.8456 52.7048 75.478 53.6984C74.1104 54.692 72.429 54.692 69.066 54.692H60.6419C58.8531 54.692 57.9587 54.692 57.5747 54.1634C57.1907 53.6349 57.4671 52.7843 58.0198 51.083L61.7775 39.5182Z" fill="url(#paint14_linear_118_2413)"/>
<path d="M60.921 54.692C56.9366 54.692 57.1643 56.058 56.9366 56.4375C56.9366 56.4375 57.1263 54.9196 57.1643 54.5022C57.2022 54.0848 57.5438 52.6429 57.5438 52.6429C59.517 53.3259 62.9549 54.692 60.921 54.692Z" fill="url(#paint15_linear_118_2413)"/>
</g>
<mask id="mask4_118_2413" style="mask-type:alpha" maskUnits="userSpaceOnUse" x="56" y="35" width="26" height="22">
<path d="M61.7775 39.5182C62.4408 37.4767 62.7725 36.4559 63.6454 35.8217C64.5183 35.1875 65.5916 35.1875 67.7382 35.1875H75.4033C78.7663 35.1875 80.4478 35.1875 81.1697 36.1811C81.8916 37.1747 81.372 38.7739 80.3328 41.9723L78.4044 47.9072C77.3652 51.1056 76.8456 52.7048 75.478 53.6984C74.1104 54.692 72.4289 54.692 69.066 54.692H60.6418C58.853 54.692 57.9586 54.692 57.5746 54.1634C57.1907 53.6349 57.467 52.7843 58.0198 51.083L61.7775 39.5182Z" fill="url(#paint16_linear_118_2413)"/>
<path d="M60.921 54.692C56.9366 54.692 57.1643 56.058 56.9366 56.4375C56.9366 56.4375 57.1263 54.9196 57.1643 54.5022C57.2022 54.0848 57.5437 52.6429 57.5437 52.6429C59.5169 53.3259 62.9549 54.692 60.921 54.692Z" fill="url(#paint17_linear_118_2413)"/>
</mask>
<g mask="url(#mask4_118_2413)">
<path d="M67.1821 33.2901C64.8168 40.3988 60.0861 54.7071 60.0861 55.0714L57.6575 57.1964L53.104 59.5111L58.3406 30.5959L67.1821 33.2901Z" fill="url(#paint18_linear_118_2413)"/>
</g>
<mask id="mask5_118_2413" style="mask-type:alpha" maskUnits="userSpaceOnUse" x="56" y="35" width="26" height="22">
<path d="M61.7775 39.5182C62.4408 37.4767 62.7725 36.4559 63.6454 35.8217C64.5183 35.1875 65.5916 35.1875 67.7382 35.1875H75.4034C78.7663 35.1875 80.4478 35.1875 81.1697 36.1811C81.8916 37.1747 81.372 38.7739 80.3328 41.9723L78.4044 47.9072C77.3652 51.1056 76.8456 52.7048 75.478 53.6984C74.1104 54.692 72.429 54.692 69.066 54.692H60.6419C58.8531 54.692 57.9587 54.692 57.5747 54.1634C57.1907 53.6349 57.4671 52.7843 58.0198 51.083L61.7775 39.5182Z" fill="url(#paint19_linear_118_2413)"/>
<path d="M60.921 54.692C56.9366 54.692 57.1643 56.058 56.9366 56.4375C56.9366 56.4375 57.1263 54.9196 57.1643 54.5022C57.2022 54.0848 57.5438 52.6429 57.5438 52.6429C59.517 53.3259 62.9549 54.692 60.921 54.692Z" fill="url(#paint20_linear_118_2413)"/>
</mask>
<g mask="url(#mask5_118_2413)">
<ellipse cx="71.8116" cy="38.7165" rx="13.433" ry="5.72991" fill="url(#paint21_linear_118_2413)" fill-opacity="0.6"/>
</g>
<g filter="url(#filter3_i_118_2413)">
<mask id="mask6_118_2413" style="mask-type:alpha" maskUnits="userSpaceOnUse" x="56" y="35" width="26" height="22">
<path d="M61.7775 39.5182C62.4408 37.4767 62.7725 36.4559 63.6454 35.8217C64.5183 35.1875 65.5916 35.1875 67.7382 35.1875H75.4034C78.7663 35.1875 80.4478 35.1875 81.1697 36.1811C81.8916 37.1747 81.372 38.7739 80.3328 41.9723L78.4044 47.9072C77.3652 51.1056 76.8456 52.7048 75.478 53.6984C74.1104 54.692 72.429 54.692 69.066 54.692H60.6419C58.8531 54.692 57.9587 54.692 57.5747 54.1634C57.1907 53.6349 57.4671 52.7843 58.0198 51.083L61.7775 39.5182Z" fill="url(#paint22_linear_118_2413)"/>
<path d="M60.921 54.692C56.9366 54.692 57.1643 56.058 56.9366 56.4375C56.9366 56.4375 57.1263 54.9196 57.1643 54.5022C57.2022 54.0848 57.5438 52.6429 57.5438 52.6429C59.517 53.3259 62.9549 54.692 60.921 54.692Z" fill="url(#paint23_linear_118_2413)"/>
</mask>
<g mask="url(#mask6_118_2413)">
<path d="M81.8674 43.1712L73.7468 34.7396L84.1062 34.0491L81.8674 43.1712Z" fill="url(#paint24_linear_118_2413)"/>
<path d="M67.4857 54.6919L78.604 49.0588L78.0348 54.6919H67.4857Z" fill="url(#paint25_linear_118_2413)"/>
</g>
</g>
<path d="M65.8161 37.3505L59.1375 55.4509L61.0728 55.1853L65.8161 37.3505Z" fill="url(#paint26_linear_118_2413)"/>
<path d="M96.5898 52.5L100.088 44.745H101.276L104.785 52.5H103.333L102.398 50.322L103.003 50.74H98.3608L98.9658 50.322L98.0418 52.5H96.5898ZM100.66 46.285L99.1308 49.937L98.8448 49.596H102.519L102.244 49.937L100.693 46.285H100.66ZM108.02 52.61C107.382 52.61 106.909 52.4377 106.601 52.093C106.293 51.7483 106.139 51.246 106.139 50.586V44.745H107.547V50.509C107.547 50.7143 107.577 50.8903 107.635 51.037C107.694 51.1837 107.782 51.2937 107.899 51.367C108.024 51.433 108.174 51.466 108.35 51.466C108.438 51.466 108.523 51.4623 108.603 51.455C108.691 51.4477 108.776 51.433 108.856 51.411V52.5C108.717 52.5367 108.581 52.5623 108.449 52.577C108.317 52.599 108.174 52.61 108.02 52.61ZM113.437 52.61C112.982 52.61 112.586 52.5 112.249 52.28C111.911 52.0527 111.68 51.7483 111.556 51.367H111.633V52.5H110.291V44.745H111.699V48.155H111.6C111.724 47.803 111.952 47.5207 112.282 47.308C112.612 47.0953 113 46.989 113.448 46.989C113.932 46.989 114.35 47.1063 114.702 47.341C115.061 47.5683 115.34 47.891 115.538 48.309C115.743 48.7197 115.846 49.2147 115.846 49.794C115.846 50.3587 115.743 50.8537 115.538 51.279C115.34 51.7043 115.061 52.0343 114.702 52.269C114.342 52.4963 113.921 52.61 113.437 52.61ZM113.052 51.543C113.477 51.543 113.814 51.3927 114.064 51.092C114.313 50.7913 114.438 50.3587 114.438 49.794C114.438 49.2147 114.309 48.782 114.053 48.496C113.803 48.2027 113.47 48.056 113.052 48.056C112.634 48.056 112.3 48.2027 112.051 48.496C111.801 48.782 111.677 49.2147 111.677 49.794C111.677 50.3587 111.801 50.7913 112.051 51.092C112.3 51.3927 112.634 51.543 113.052 51.543ZM119.591 52.61C119.144 52.61 118.77 52.5293 118.469 52.368C118.176 52.1993 117.956 51.95 117.809 51.62C117.663 51.2827 117.589 50.8647 117.589 50.366V47.099H118.986V50.366C118.986 50.6153 119.019 50.8243 119.085 50.993C119.159 51.1617 119.269 51.29 119.415 51.378C119.562 51.4587 119.749 51.499 119.976 51.499C120.226 51.499 120.446 51.4403 120.636 51.323C120.827 51.2057 120.974 51.0443 121.076 50.839C121.186 50.6337 121.241 50.3917 121.241 50.113V47.099H122.649V52.5H121.296V51.378H121.417C121.256 51.774 121.018 52.0783 120.702 52.291C120.394 52.5037 120.024 52.61 119.591 52.61ZM124.728 52.5V47.099H126.07V48.188H125.982C126.077 47.9387 126.209 47.726 126.378 47.55C126.554 47.3667 126.759 47.2273 126.994 47.132C127.236 47.0367 127.5 46.989 127.786 46.989C128.226 46.989 128.585 47.0917 128.864 47.297C129.15 47.5023 129.348 47.814 129.458 48.232H129.337C129.484 47.8507 129.722 47.55 130.052 47.33C130.389 47.1027 130.782 46.989 131.229 46.989C131.647 46.989 131.992 47.0697 132.263 47.231C132.534 47.3923 132.736 47.638 132.868 47.968C133.007 48.298 133.077 48.7197 133.077 49.233V52.5H131.68V49.288C131.68 48.8773 131.61 48.5767 131.471 48.386C131.339 48.1953 131.108 48.1 130.778 48.1C130.536 48.1 130.323 48.1587 130.14 48.276C129.964 48.386 129.828 48.5473 129.733 48.76C129.645 48.9727 129.601 49.2257 129.601 49.519V52.5H128.204V49.288C128.204 48.8773 128.134 48.5767 127.995 48.386C127.856 48.1953 127.628 48.1 127.313 48.1C127.064 48.1 126.851 48.1587 126.675 48.276C126.499 48.3933 126.363 48.5583 126.268 48.771C126.173 48.9763 126.125 49.222 126.125 49.508V52.5H124.728Z" fill="#202224"/>
<mask id="mask7_118_2413" style="mask-type:alpha" maskUnits="userSpaceOnUse" x="27" y="27" width="30" height="44">
<path d="M28 34.49C28 30.9057 30.9057 28 34.49 28H43.5088C50.4075 28 56 33.5925 56 40.4912V57.5088C56 64.4075 50.4075 70 43.5088 70H34.49C30.9057 70 28 67.0943 28 63.51V34.49Z" fill="white" stroke="url(#paint27_linear_118_2413)" stroke-opacity="0.3" stroke-width="1.30158"/>
</mask>
<g mask="url(#mask7_118_2413)">
<rect x="27" y="27.1923" width="14" height="43.6154" fill="#587ED7"/>
</g>
<defs>
<filter id="filter0_d_118_2413" x="0.297312" y="0.297343" width="215.168" height="104.168" filterUnits="userSpaceOnUse" color-interpolation-filters="sRGB">
<feFlood flood-opacity="0" result="BackgroundImageFix"/>
<feColorMatrix in="SourceAlpha" type="matrix" values="0 0 0 0 0 0 0 0 0 0 0 0 0 0 0 0 0 0 127 0" result="hardAlpha"/>
<feOffset dx="3.38149" dy="3.38149"/>
<feGaussianBlur stdDeviation="15.2167"/>
<feColorMatrix type="matrix" values="0 0 0 0 0 0 0 0 0 0 0 0 0 0 0 0 0 0 0.05 0"/>
<feBlend mode="normal" in2="BackgroundImageFix" result="effect1_dropShadow_118_2413"/>
<feBlend mode="normal" in="SourceGraphic" in2="effect1_dropShadow_118_2413" result="shape"/>
</filter>
<filter id="filter1_d_118_2413" x="55.9096" y="34.163" width="29.2974" height="29.4464" filterUnits="userSpaceOnUse" color-interpolation-filters="sRGB">
<feFlood flood-opacity="0" result="BackgroundImageFix"/>
<feColorMatrix in="SourceAlpha" type="matrix" values="0 0 0 0 0 0 0 0 0 0 0 0 0 0 0 0 0 0 127 0" result="hardAlpha"/>
<feOffset dx="0.53125" dy="1.0625"/>
<feComposite in2="hardAlpha" operator="out"/>
<feColorMatrix type="matrix" values="0 0 0 0 0.2125 0 0 0 0 0 0 0 0 0 0 0 0 0 1 0"/>
<feBlend mode="normal" in2="BackgroundImageFix" result="effect1_dropShadow_118_2413"/>
<feBlend mode="normal" in="SourceGraphic" in2="effect1_dropShadow_118_2413" result="shape"/>
</filter>
<filter id="filter2_i_118_2413" x="56.9366" y="35.1875" width="24.5684" height="21.25" filterUnits="userSpaceOnUse" color-interpolation-filters="sRGB">
<feFlood flood-opacity="0" result="BackgroundImageFix"/>
<feBlend mode="normal" in="SourceGraphic" in2="BackgroundImageFix" result="shape"/>
<feColorMatrix in="SourceAlpha" type="matrix" values="0 0 0 0 0 0 0 0 0 0 0 0 0 0 0 0 0 0 127 0" result="hardAlpha"/>
<feOffset dx="-0.53125" dy="-0.607143"/>
<feComposite in2="hardAlpha" operator="arithmetic" k2="-1" k3="1"/>
<feColorMatrix type="matrix" values="0 0 0 0 1 0 0 0 0 0.281167 0 0 0 0 0.0541667 0 0 0 1 0"/>
<feBlend mode="normal" in2="shape" result="effect1_innerShadow_118_2413"/>
</filter>
<filter id="filter3_i_118_2413" x="67.4857" y="35.1875" width="14.0193" height="19.5044" filterUnits="userSpaceOnUse" color-interpolation-filters="sRGB">
<feFlood flood-opacity="0" result="BackgroundImageFix"/>
<feBlend mode="normal" in="SourceGraphic" in2="BackgroundImageFix" result="shape"/>
<feColorMatrix in="SourceAlpha" type="matrix" values="0 0 0 0 0 0 0 0 0 0 0 0 0 0 0 0 0 0 127 0" result="hardAlpha"/>
<feOffset dx="-0.53125" dy="-0.607143"/>
<feComposite in2="hardAlpha" operator="arithmetic" k2="-1" k3="1"/>
<feColorMatrix type="matrix" values="0 0 0 0 1 0 0 0 0 0.92 0 0 0 0 0.2 0 0 0 1 0"/>
<feBlend mode="normal" in2="shape" result="effect1_innerShadow_118_2413"/>
</filter>
<linearGradient id="paint0_linear_118_2413" x1="62.8873" y1="12.8299" x2="136.884" y2="98.6413" gradientUnits="userSpaceOnUse">
<stop stop-color="#F1F1F1"/>
<stop offset="1" stop-color="#E1E1E1"/>
</linearGradient>
<linearGradient id="paint1_linear_118_2413" x1="67.5616" y1="39.8929" x2="61.8696" y2="56.4375" gradientUnits="userSpaceOnUse">
<stop stop-color="#B70A0A"/>
<stop offset="1" stop-color="#5D0010"/>
</linearGradient>
<linearGradient id="paint2_linear_118_2413" x1="86.5272" y1="39.7841" x2="79.3119" y2="61.7423" gradientUnits="userSpaceOnUse">
<stop stop-color="#C00D12"/>
<stop offset="1" stop-color="#5E0010"/>
</linearGradient>
<linearGradient id="paint3_linear_118_2413" x1="82.9313" y1="35.8459" x2="65.6314" y2="50.416" gradientUnits="userSpaceOnUse">
<stop offset="0.0620359" stop-color="#FC2424"/>
<stop offset="1" stop-color="#BD1818"/>
</linearGradient>
<linearGradient id="paint4_linear_118_2413" x1="82.9313" y1="35.8459" x2="65.6314" y2="50.416" gradientUnits="userSpaceOnUse">
<stop offset="0.0620359" stop-color="#FC2424"/>
<stop offset="1" stop-color="#BD1818"/>
</linearGradient>
<linearGradient id="paint5_linear_118_2413" x1="67.5616" y1="39.8929" x2="61.8696" y2="56.4375" gradientUnits="userSpaceOnUse">
<stop stop-color="#B70A0A"/>
<stop offset="1" stop-color="#5D0010"/>
</linearGradient>
<linearGradient id="paint6_linear_118_2413" x1="70.2927" y1="35.1875" x2="70.2927" y2="61.5223" gradientUnits="userSpaceOnUse">
<stop stop-color="#880000"/>
<stop offset="1" stop-color="#4D0000"/>
</linearGradient>
<linearGradient id="paint7_linear_118_2413" x1="71.508" y1="56.9688" x2="60.1171" y2="61.6186" gradientUnits="userSpaceOnUse">
<stop stop-color="#E0B05D"/>
<stop offset="1" stop-color="#C68643"/>
</linearGradient>
<linearGradient id="paint8_linear_118_2413" x1="82.1298" y1="33.9398" x2="82.1298" y2="60.2746" gradientUnits="userSpaceOnUse">
<stop stop-color="#FFE3B3"/>
<stop offset="1" stop-color="#FFD48B"/>
</linearGradient>
<linearGradient id="paint9_linear_118_2413" x1="59.7581" y1="57.1206" x2="79.293" y2="27.5501" gradientUnits="userSpaceOnUse">
<stop stop-color="#9B2929" stop-opacity="0.58"/>
<stop offset="1" stop-color="#9B292C" stop-opacity="0"/>
</linearGradient>
<linearGradient id="paint10_linear_118_2413" x1="84.6375" y1="38.8304" x2="77.3839" y2="57.7318" gradientUnits="userSpaceOnUse">
<stop stop-color="#E11D22"/>
<stop offset="1" stop-color="#870000"/>
<stop offset="1" stop-color="#5E0010"/>
</linearGradient>
<linearGradient id="paint11_linear_118_2413" x1="84.6375" y1="38.8304" x2="77.3839" y2="57.7318" gradientUnits="userSpaceOnUse">
<stop stop-color="#C00D12"/>
<stop offset="1" stop-color="#5E0010"/>
</linearGradient>
<linearGradient id="paint12_linear_118_2413" x1="83.575" y1="37.3125" x2="68.017" y2="57.4241" gradientUnits="userSpaceOnUse">
<stop offset="0.0544723" stop-color="#D67114"/>
<stop offset="1" stop-color="#9B3B25"/>
</linearGradient>
<linearGradient id="paint13_linear_118_2413" x1="83.575" y1="37.3125" x2="68.017" y2="57.4241" gradientUnits="userSpaceOnUse">
<stop offset="0.0544723" stop-color="#D67114"/>
<stop offset="1" stop-color="#9B3B25"/>
</linearGradient>
<linearGradient id="paint14_linear_118_2413" x1="80.8429" y1="35.7187" x2="66.6888" y2="49.3036" gradientUnits="userSpaceOnUse">
<stop stop-color="#FC3E24"/>
<stop offset="1" stop-color="#C10000"/>
</linearGradient>
<linearGradient id="paint15_linear_118_2413" x1="80.8429" y1="35.7187" x2="66.6888" y2="49.3036" gradientUnits="userSpaceOnUse">
<stop stop-color="#FC3E24"/>
<stop offset="1" stop-color="#C10000"/>
</linearGradient>
<linearGradient id="paint16_linear_118_2413" x1="80.8428" y1="35.7187" x2="66.6888" y2="49.3036" gradientUnits="userSpaceOnUse">
<stop stop-color="#FC3E24"/>
<stop offset="1" stop-color="#C10000"/>
</linearGradient>
<linearGradient id="paint17_linear_118_2413" x1="80.8428" y1="35.7187" x2="66.6888" y2="49.3036" gradientUnits="userSpaceOnUse">
<stop stop-color="#FC3E24"/>
<stop offset="1" stop-color="#C10000"/>
</linearGradient>
<linearGradient id="paint18_linear_118_2413" x1="63.0459" y1="35.2634" x2="68.5482" y2="37.1227" gradientUnits="userSpaceOnUse">
<stop offset="0.167371" stop-color="#870000" stop-opacity="0.38"/>
<stop offset="1" stop-color="#FF0000" stop-opacity="0"/>
</linearGradient>
<linearGradient id="paint19_linear_118_2413" x1="80.8429" y1="35.7187" x2="66.6888" y2="49.3036" gradientUnits="userSpaceOnUse">
<stop offset="0.0620359" stop-color="#FC2424"/>
<stop offset="1" stop-color="#BD1818"/>
</linearGradient>
<linearGradient id="paint20_linear_118_2413" x1="80.8429" y1="35.7187" x2="66.6888" y2="49.3036" gradientUnits="userSpaceOnUse">
<stop offset="0.0620359" stop-color="#FC2424"/>
<stop offset="1" stop-color="#BD1818"/>
</linearGradient>
<linearGradient id="paint21_linear_118_2413" x1="73.1012" y1="45.4576" x2="65.5394" y2="35.6959" gradientUnits="userSpaceOnUse">
<stop stop-color="#FF7E46"/>
<stop offset="1" stop-color="#FF7E46" stop-opacity="0"/>
</linearGradient>
<linearGradient id="paint22_linear_118_2413" x1="80.8429" y1="35.7187" x2="66.6888" y2="49.3036" gradientUnits="userSpaceOnUse">
<stop offset="0.0620359" stop-color="#FC2424"/>
<stop offset="1" stop-color="#BD1818"/>
</linearGradient>
<linearGradient id="paint23_linear_118_2413" x1="80.8429" y1="35.7187" x2="66.6888" y2="49.3036" gradientUnits="userSpaceOnUse">
<stop offset="0.0620359" stop-color="#FC2424"/>
<stop offset="1" stop-color="#BD1818"/>
</linearGradient>
<linearGradient id="paint24_linear_118_2413" x1="84.1062" y1="41.3727" x2="63.3875" y2="50.8214" gradientUnits="userSpaceOnUse">
<stop offset="0.0645942" stop-color="#FFD74B"/>
<stop offset="1" stop-color="#FF8A00"/>
</linearGradient>
<linearGradient id="paint25_linear_118_2413" x1="84.1062" y1="41.3727" x2="63.3875" y2="50.8214" gradientUnits="userSpaceOnUse">
<stop offset="0.0645942" stop-color="#FFD74B"/>
<stop offset="1" stop-color="#FF8A00"/>
</linearGradient>
<linearGradient id="paint26_linear_118_2413" x1="67.5616" y1="39.8929" x2="61.8697" y2="56.4375" gradientUnits="userSpaceOnUse">
<stop stop-color="#B70A0A"/>
<stop offset="1" stop-color="#870000"/>
</linearGradient>
<linearGradient id="paint27_linear_118_2413" x1="34.3846" y1="12.8299" x2="64.7694" y2="19.2783" gradientUnits="userSpaceOnUse">
<stop stop-color="#F1F1F1"/>
<stop offset="1" stop-color="#E1E1E1"/>
</linearGradient>
</defs>
</svg>
