<svg width="216" height="105" viewBox="0 0 216 105" fill="none" xmlns="http://www.w3.org/2000/svg">
<g filter="url(#filter0_d_118_1890)">
<rect x="28.2632" y="28" width="153" height="42" rx="6.49" fill="white"/>
<rect x="28.2632" y="28" width="153" height="42" rx="6.49" stroke="url(#paint0_linear_118_1890)" stroke-opacity="0.3" stroke-width="1.30158"/>
</g>
<g filter="url(#filter1_d_118_1890)">
<mask id="path-3-outside-1_118_1890" maskUnits="userSpaceOnUse" x="50.3707" y="32.8816" width="34.4645" height="32.2865" fill="black">
<rect fill="white" x="50.3707" y="32.8816" width="34.4645" height="32.2865"/>
<path d="M60.0536 41.3013C62.1568 39.176 65.1454 37.8467 68.4631 37.8466C74.8298 37.8466 79.9915 42.736 79.9916 48.7675C79.9916 54.7991 74.8298 59.6895 68.4631 59.6895C67.4733 59.6895 66.5127 59.5703 65.596 59.348C65.4564 59.7316 65.3059 60.0563 65.1643 60.3064C64.3385 60.9358 63.3326 61.2063 62.7299 61.2931C62.1578 61.5017 61.1428 61.7394 60.1173 61.5754C58.7988 60.7429 56.2057 58.1153 56.3813 54.2657C56.4323 53.1497 56.686 52.2662 56.9143 51.4714C56.9893 51.2102 57.0593 50.9577 57.1208 50.7106C57.0012 50.0799 56.9353 49.4307 56.9353 48.7674C56.9353 48.4914 56.9494 48.2179 56.9707 47.9469C56.9533 47.9077 56.9373 47.8669 56.9184 47.8272C56.7282 47.4271 56.5054 47.0407 56.2854 46.6592C55.5846 45.444 54.9127 44.2788 55.4182 42.8856C55.9303 41.4746 57.0723 41.0717 57.5766 40.9372L57.5764 40.9363L57.6426 40.9196L57.6429 40.9206C58.089 40.8152 59.065 40.6603 60.0536 41.3013Z"/>
</mask>
<path d="M60.0536 41.3013C62.1568 39.176 65.1454 37.8467 68.4631 37.8466C74.8298 37.8466 79.9915 42.736 79.9916 48.7675C79.9916 54.7991 74.8298 59.6895 68.4631 59.6895C67.4733 59.6895 66.5127 59.5703 65.596 59.348C65.4564 59.7316 65.3059 60.0563 65.1643 60.3064C64.3385 60.9358 63.3326 61.2063 62.7299 61.2931C62.1578 61.5017 61.1428 61.7394 60.1173 61.5754C58.7988 60.7429 56.2057 58.1153 56.3813 54.2657C56.4323 53.1497 56.686 52.2662 56.9143 51.4714C56.9893 51.2102 57.0593 50.9577 57.1208 50.7106C57.0012 50.0799 56.9353 49.4307 56.9353 48.7674C56.9353 48.4914 56.9494 48.2179 56.9707 47.9469C56.9533 47.9077 56.9373 47.8669 56.9184 47.8272C56.7282 47.4271 56.5054 47.0407 56.2854 46.6592C55.5846 45.444 54.9127 44.2788 55.4182 42.8856C55.9303 41.4746 57.0723 41.0717 57.5766 40.9372L57.5764 40.9363L57.6426 40.9196L57.6429 40.9206C58.089 40.8152 59.065 40.6603 60.0536 41.3013Z" fill="#FDEDDD"/>
<path d="M60.0536 41.3013L59.3348 42.4099L60.2366 42.9946L60.9927 42.2306L60.0536 41.3013ZM68.4631 37.8466L68.4631 36.5254L68.4631 36.5254L68.4631 37.8466ZM79.9916 48.7675L81.3129 48.7675L81.3129 48.7675L79.9916 48.7675ZM68.4631 59.6895L68.463 61.0108L68.4631 61.0108L68.4631 59.6895ZM65.596 59.348L65.9074 58.064L64.7587 57.7854L64.3544 58.8961L65.596 59.348ZM65.1643 60.3064L65.9651 61.3574L66.1807 61.1931L66.3142 60.9572L65.1643 60.3064ZM62.7299 61.2931L62.5416 59.9854L62.406 60.0049L62.2772 60.0518L62.7299 61.2931ZM60.1173 61.5754L59.4119 62.6926L59.6411 62.8373L59.9087 62.8801L60.1173 61.5754ZM56.3813 54.2657L55.0615 54.2055L55.0615 54.2055L56.3813 54.2657ZM56.9143 51.4714L55.6444 51.1067L55.6444 51.1067L56.9143 51.4714ZM57.1208 50.7106L58.403 51.0292L58.4727 50.7485L58.4189 50.4644L57.1208 50.7106ZM56.9353 48.7674L55.614 48.7674V48.7674H56.9353ZM56.9707 47.9469L58.2879 48.0503L58.314 47.7179L58.1792 47.413L56.9707 47.9469ZM56.9184 47.8272L58.1117 47.26L58.1117 47.2599L56.9184 47.8272ZM56.2854 46.6592L55.1408 47.3192L55.1408 47.3192L56.2854 46.6592ZM55.4182 42.8856L54.1762 42.4349L54.1761 42.435L55.4182 42.8856ZM57.5766 40.9372L57.9171 42.2138L59.1755 41.8781L58.858 40.615L57.5766 40.9372ZM57.5764 40.9363L57.2542 39.6549L55.9728 39.9771L56.295 41.2585L57.5764 40.9363ZM57.6426 40.9196L58.924 40.5974L58.6018 39.3161L57.3205 39.6382L57.6426 40.9196ZM57.6429 40.9206L56.3615 41.2427L56.6791 42.5057L57.9465 42.2064L57.6429 40.9206ZM60.0536 41.3013L60.9927 42.2306C62.8506 40.3533 65.5022 39.1679 68.4631 39.1679L68.4631 37.8466L68.4631 36.5254C64.7887 36.5254 61.4631 37.9987 59.1145 40.3719L60.0536 41.3013ZM68.4631 37.8466V39.1679C74.1684 39.1679 78.6702 43.5322 78.6703 48.7675L79.9916 48.7675L81.3129 48.7675C81.3127 41.9397 75.4911 36.5254 68.4631 36.5254L68.4631 37.8466ZM79.9916 48.7675H78.6703C78.6703 54.0031 74.1683 58.3683 68.4631 58.3683L68.4631 59.6895L68.4631 61.0108C75.4913 61.0108 81.3129 55.5952 81.3129 48.7675H79.9916ZM68.4631 59.6895L68.4631 58.3683C67.5796 58.3682 66.7235 58.2619 65.9074 58.064L65.596 59.348L65.2846 60.6321C66.3019 60.8788 67.3669 61.0107 68.463 61.0108L68.4631 59.6895ZM65.596 59.348L64.3544 58.8961C64.236 59.2215 64.1149 59.4782 64.0145 59.6557L65.1643 60.3064L66.3142 60.9572C66.4969 60.6343 66.6768 60.2417 66.8376 59.8L65.596 59.348ZM65.1643 60.3064L64.3635 59.2555C63.7781 59.7016 63.0132 59.9174 62.5416 59.9854L62.7299 61.2931L62.9182 62.6009C63.6519 62.4952 64.8988 62.1699 65.9651 61.3574L65.1643 60.3064ZM62.7299 61.2931L62.2772 60.0518C61.8293 60.2151 61.0527 60.3869 60.3259 60.2707L60.1173 61.5754L59.9087 62.8801C61.2329 63.0918 62.4862 62.7883 63.1825 62.5344L62.7299 61.2931ZM60.1173 61.5754L60.8227 60.4582C59.7466 59.7787 57.5546 57.5391 57.7012 54.326L56.3813 54.2657L55.0615 54.2055C54.8568 58.6916 57.851 61.7071 59.4119 62.6926L60.1173 61.5754ZM56.3813 54.2657L57.7012 54.326C57.7444 53.3808 57.9561 52.6304 58.1842 51.8361L56.9143 51.4714L55.6444 51.1067C55.416 51.9019 55.1202 52.9186 55.0615 54.2055L56.3813 54.2657ZM56.9143 51.4714L58.1842 51.8361C58.261 51.5688 58.336 51.2989 58.403 51.0292L57.1208 50.7106L55.8385 50.392C55.7827 50.6165 55.7176 50.8516 55.6444 51.1067L56.9143 51.4714ZM57.1208 50.7106L58.4189 50.4644C58.3137 49.9096 58.2566 49.343 58.2566 48.7674H56.9353H55.614C55.614 49.5185 55.6887 50.2501 55.8226 50.9567L57.1208 50.7106ZM56.9353 48.7674L58.2566 48.7675C58.2566 48.5357 58.2684 48.2983 58.2879 48.0503L56.9707 47.9469L55.6535 47.8436C55.6304 48.1375 55.614 48.447 55.614 48.7674L56.9353 48.7674ZM56.9707 47.9469L58.1792 47.413C58.1755 47.4045 58.1744 47.4018 58.1609 47.3701C58.1507 47.346 58.1333 47.3054 58.1117 47.26L56.9184 47.8272L55.7251 48.3944C55.7224 48.3887 55.7224 48.3883 55.7293 48.4045C55.7309 48.4082 55.7326 48.4122 55.7347 48.4173C55.7368 48.4221 55.7393 48.4281 55.742 48.4343C55.7472 48.4467 55.7542 48.463 55.7621 48.4809L56.9707 47.9469ZM56.9184 47.8272L58.1117 47.2599C57.8952 46.8046 57.6456 46.373 57.43 45.9991L56.2854 46.6592L55.1408 47.3192C55.3652 47.7083 55.5612 48.0497 55.7251 48.3944L56.9184 47.8272ZM56.2854 46.6592L57.43 45.9991C56.6694 44.6803 56.3962 44.064 56.6602 43.3362L55.4182 42.8856L54.1761 42.435C53.4293 44.4935 54.4998 46.2077 55.1408 47.3192L56.2854 46.6592ZM55.4182 42.8856L56.6602 43.3364C56.9517 42.5331 57.5677 42.3071 57.9171 42.2138L57.5766 40.9372L57.236 39.6606C56.5769 39.8364 54.9089 40.416 54.1762 42.4349L55.4182 42.8856ZM57.5766 40.9372L58.858 40.615L58.8577 40.6141L57.5764 40.9363L56.295 41.2585L56.2952 41.2594L57.5766 40.9372ZM57.5764 40.9363L57.8985 42.2177L57.9648 42.201L57.6426 40.9196L57.3205 39.6382L57.2542 39.6549L57.5764 40.9363ZM57.6426 40.9196L56.3613 41.2418L56.3615 41.2427L57.6429 40.9206L58.9243 40.5984L58.924 40.5974L57.6426 40.9196ZM57.6429 40.9206L57.9465 42.2064C58.2616 42.132 58.7965 42.0608 59.3348 42.4099L60.0536 41.3013L60.7724 40.1926C59.3336 39.2597 57.9163 39.4984 57.3392 39.6347L57.6429 40.9206Z" fill="url(#paint1_linear_118_1890)" mask="url(#path-3-outside-1_118_1890)"/>
</g>
<g filter="url(#filter2_i_118_1890)">
<ellipse cx="68.4635" cy="48.7677" rx="11.528" ry="10.9212" fill="url(#paint2_radial_118_1890)"/>
</g>
<ellipse opacity="0.5" cx="68.5298" cy="40.4557" rx="1.6846" ry="1.61854" fill="url(#paint3_linear_118_1890)"/>
<ellipse opacity="0.5" cx="73.2198" cy="42.1077" rx="1.6846" ry="1.61854" fill="url(#paint4_linear_118_1890)"/>
<g filter="url(#filter3_d_118_1890)">
<path d="M57.6307 40.9593C58.1392 40.8393 59.3359 40.6537 60.4549 41.655C61.9074 42.9548 61.3807 44.8699 61.4714 46.7232C61.5927 49.2 63.5199 49.6792 64.9929 52.1464C66.9695 55.4575 65.9262 59.0009 65.1576 60.359C64.3307 60.9892 63.3229 61.2577 62.7199 61.3445C62.1473 61.5532 61.1329 61.793 60.1068 61.6289C58.7873 60.7958 56.1931 58.167 56.3687 54.3147C56.4997 51.4442 57.9701 50.1108 56.9055 47.8712C56.109 46.1954 54.7391 44.7571 55.4041 42.9249C55.9164 41.5135 57.0586 41.111 57.5635 40.9762L57.5642 40.9751L57.6305 40.9584L57.6307 40.9593Z" fill="#FDEDDD"/>
<mask id="mask0_118_1890" style="mask-type:alpha" maskUnits="userSpaceOnUse" x="55" y="40" width="12" height="22">
<path d="M57.6307 40.9593C58.1392 40.8393 59.3359 40.6537 60.4549 41.655C61.9074 42.9548 61.3807 44.8699 61.4714 46.7232C61.5927 49.2 63.5199 49.6792 64.9929 52.1464C66.9695 55.4575 65.9262 59.0009 65.1576 60.359C64.3307 60.9892 63.3229 61.2577 62.7199 61.3445C62.1473 61.5532 61.1329 61.793 60.1068 61.6289C58.7873 60.7958 56.1931 58.167 56.3687 54.3147C56.4997 51.4442 57.9701 50.1108 56.9055 47.8712C56.109 46.1954 54.7391 44.7571 55.4041 42.9249C55.9164 41.5135 57.0586 41.111 57.5635 40.9762L57.5642 40.9751L57.6305 40.9584L57.6307 40.9593Z" fill="#FDEDDD"/>
<path d="M57.6307 40.9593L57.6087 40.9649L57.6141 40.9866L57.6359 40.9815L57.6307 40.9593ZM60.4549 41.655L60.4701 41.638L60.4701 41.638L60.4549 41.655ZM61.4714 46.7232L61.4487 46.7243L61.4487 46.7243L61.4714 46.7232ZM64.9929 52.1464L65.0124 52.1347L65.0124 52.1347L64.9929 52.1464ZM65.1576 60.359L65.1726 60.3786L65.1774 60.3702L65.1576 60.359ZM62.7199 61.3445L62.7165 61.3215L62.7121 61.3231L62.7199 61.3445ZM60.1068 61.6289L60.0936 61.6498L60.1032 61.6513L60.1068 61.6289ZM56.3687 54.3147L56.346 54.3137L56.346 54.3137L56.3687 54.3147ZM56.9055 47.8712L56.9261 47.8614L56.9261 47.8614L56.9055 47.8712ZM55.4041 42.9249L55.3827 42.9171L55.3827 42.9171L55.4041 42.9249ZM57.5635 40.9762L57.5693 40.9982L57.5783 40.9958L57.583 40.9879L57.5635 40.9762ZM57.5642 40.9751L57.5586 40.953L57.5495 40.9553L57.5447 40.9634L57.5642 40.9751ZM57.6305 40.9584L57.6525 40.9528L57.647 40.9308L57.6249 40.9363L57.6305 40.9584ZM57.6307 40.9593L57.6359 40.9815C58.1418 40.862 59.3291 40.6781 60.4398 41.6719L60.4549 41.655L60.4701 41.638C59.3428 40.6294 58.1367 40.8165 57.6255 40.9372L57.6307 40.9593ZM60.4549 41.655L60.4398 41.6719C61.1599 42.3164 61.3901 43.1134 61.4511 43.9831C61.4817 44.4183 61.4698 44.8709 61.4558 45.3315C61.4419 45.7917 61.426 46.2599 61.4487 46.7243L61.4714 46.7232L61.4941 46.7221C61.4715 46.2598 61.4874 45.7936 61.5013 45.3329C61.5152 44.8726 61.5272 44.4177 61.4965 43.9799C61.4351 43.1038 61.2024 42.2934 60.4701 41.638L60.4549 41.655ZM61.4714 46.7232L61.4487 46.7243C61.5097 47.9702 62.0257 48.714 62.7086 49.4538C63.3914 50.1935 64.2385 50.9271 64.9733 52.158L64.9929 52.1464L65.0124 52.1347C64.2743 50.8984 63.4213 50.1588 62.742 49.4229C62.0627 48.6871 61.5544 47.9529 61.4941 46.7221L61.4714 46.7232ZM64.9929 52.1464L64.9733 52.158C66.9443 55.4597 65.9039 58.994 65.1378 60.3478L65.1576 60.359L65.1774 60.3702C65.9484 59.0079 66.9946 55.4553 65.0124 52.1347L64.9929 52.1464ZM65.1576 60.359L65.1438 60.3409C64.321 60.9679 63.3175 61.2356 62.7166 61.3219L62.7199 61.3445L62.7231 61.367C63.3284 61.2799 64.3403 61.0105 65.1714 60.377L65.1576 60.359ZM62.7199 61.3445L62.7121 61.3231C62.1416 61.5311 61.1313 61.7697 60.1104 61.6064L60.1068 61.6289L60.1032 61.6513C61.1345 61.8162 62.153 61.5753 62.7276 61.3658L62.7199 61.3445ZM60.1068 61.6289L60.119 61.6096C58.8037 60.7792 56.2163 58.1571 56.3914 54.3157L56.3687 54.3147L56.346 54.3137C56.1699 58.1769 58.771 60.8124 60.0947 61.6481L60.1068 61.6289ZM56.3687 54.3147L56.3914 54.3157C56.4568 52.8836 56.8559 51.8367 57.1075 50.8621C57.359 49.8874 57.4616 48.988 56.9261 47.8614L56.9055 47.8712L56.885 47.8809C57.414 48.994 57.3137 49.8811 57.0634 50.8507C56.8132 51.8203 56.4116 52.8753 56.346 54.3137L56.3687 54.3147ZM56.9055 47.8712L56.9261 47.8614C56.7265 47.4415 56.491 47.0365 56.2611 46.6376C56.031 46.2384 55.8064 45.8452 55.6275 45.4474C55.2699 44.6522 55.0958 43.8411 55.4255 42.9326L55.4041 42.9249L55.3827 42.9171C55.0475 43.8409 55.2258 44.665 55.586 45.466C55.766 45.8662 55.9917 46.2613 56.2217 46.6603C56.4518 47.0597 56.6863 47.4629 56.885 47.8809L56.9055 47.8712ZM55.4041 42.9249L55.4255 42.9326C55.934 41.5318 57.0671 41.1323 57.5693 40.9982L57.5635 40.9762L57.5576 40.9543C57.05 41.0897 55.8989 41.4953 55.3827 42.9171L55.4041 42.9249ZM57.5635 40.9762L57.583 40.9879L57.5837 40.9867L57.5642 40.9751L57.5447 40.9634L57.544 40.9646L57.5635 40.9762ZM57.5642 40.9751L57.5697 40.9971L57.636 40.9804L57.6305 40.9584L57.6249 40.9363L57.5586 40.953L57.5642 40.9751ZM57.6305 40.9584L57.6084 40.9639L57.6087 40.9649L57.6307 40.9593L57.6528 40.9538L57.6525 40.9528L57.6305 40.9584Z" fill="black"/>
</mask>
<g mask="url(#mask0_118_1890)">
<g filter="url(#filter4_ii_118_1890)">
<path d="M57.6307 40.9593C58.1392 40.8393 59.3359 40.6537 60.4549 41.655C61.9074 42.9548 61.3807 44.8699 61.4714 46.7232C61.5927 49.2 63.5199 49.6792 64.9929 52.1464C66.9695 55.4575 65.9262 59.0009 65.1576 60.359C64.3307 60.9892 63.3229 61.2577 62.7199 61.3445C62.1473 61.5532 61.1329 61.793 60.1068 61.6289C58.7873 60.7958 56.1931 58.167 56.3687 54.3147C56.4997 51.4442 57.9701 50.1108 56.9055 47.8712C56.109 46.1954 54.7391 44.7571 55.4041 42.9249C55.9164 41.5135 57.0586 41.111 57.5635 40.9762L57.5642 40.9751L57.6305 40.9584L57.6307 40.9593Z" fill="#FDEDDD"/>
</g>
<path d="M56.0781 50.6353C56.0781 50.6353 57.3467 50.5508 60.2141 49.8299C63.0814 49.1089 64.2391 48.5834 64.2391 48.5834L64.7936 50.789C64.7936 50.789 63.8124 51.2702 60.7686 52.0355C57.7248 52.8008 56.6327 52.8409 56.6327 52.8409L56.0781 50.6353Z" fill="#F55353" style="mix-blend-mode:multiply"/>
<path d="M55.4127 47.9885C55.4127 47.9885 56.6812 47.9041 59.5486 47.1831C62.4159 46.4622 63.5736 45.9366 63.5736 45.9366L64.0062 47.6571C64.0062 47.6571 63.025 48.1383 59.9811 48.9036C56.9373 49.6689 55.8452 49.7089 55.8452 49.7089L55.4127 47.9885Z" fill="#F55353" style="mix-blend-mode:multiply"/>
<ellipse cx="59.1569" cy="43.0136" rx="1.02344" ry="1.27361" transform="rotate(-14.1132 59.1569 43.0136)" fill="url(#paint5_linear_118_1890)" style="mix-blend-mode:screen"/>
</g>
</g>
<path d="M93.1758 52.5V44.745H96.5858C97.4072 44.745 98.0452 44.921 98.4998 45.273C98.9545 45.625 99.1818 46.12 99.1818 46.758C99.1818 47.2273 99.0498 47.6197 98.7858 47.935C98.5218 48.2503 98.1698 48.463 97.7298 48.573V48.441C98.0672 48.4923 98.3568 48.6023 98.5988 48.771C98.8482 48.9323 99.0388 49.145 99.1708 49.409C99.3102 49.6657 99.3798 49.9737 99.3798 50.333C99.3798 50.7877 99.2735 51.18 99.0608 51.51C98.8482 51.8327 98.5402 52.0783 98.1368 52.247C97.7408 52.4157 97.2642 52.5 96.7068 52.5H93.1758ZM94.5618 51.4H96.5528C96.7435 51.4 96.9158 51.3853 97.0698 51.356C97.2312 51.3267 97.3668 51.2827 97.4768 51.224C97.5942 51.158 97.6895 51.081 97.7628 50.993C97.8362 50.8977 97.8912 50.7913 97.9278 50.674C97.9645 50.5493 97.9828 50.41 97.9828 50.256C97.9828 50.102 97.9645 49.9627 97.9278 49.838C97.8912 49.7133 97.8325 49.607 97.7518 49.519C97.6785 49.431 97.5832 49.3577 97.4658 49.299C97.3558 49.2403 97.2238 49.1963 97.0698 49.167C96.9158 49.1377 96.7435 49.123 96.5528 49.123H94.5618V51.4ZM94.5618 48.023H96.3658C96.8425 48.023 97.1982 47.9313 97.4328 47.748C97.6675 47.5647 97.7848 47.2933 97.7848 46.934C97.7848 46.5747 97.6675 46.3033 97.4328 46.12C97.1982 45.9367 96.8425 45.845 96.3658 45.845H94.5618V48.023ZM103.785 52.61C103.22 52.61 102.729 52.4963 102.311 52.269C101.9 52.0343 101.577 51.708 101.343 51.29C101.115 50.8647 101.002 50.366 101.002 49.794C101.002 49.222 101.115 48.727 101.343 48.309C101.577 47.8837 101.9 47.5573 102.311 47.33C102.729 47.1027 103.22 46.989 103.785 46.989C104.349 46.989 104.841 47.1027 105.259 47.33C105.677 47.5573 105.999 47.8837 106.227 48.309C106.454 48.727 106.568 49.222 106.568 49.794C106.568 50.366 106.454 50.8647 106.227 51.29C105.999 51.708 105.677 52.0343 105.259 52.269C104.841 52.4963 104.349 52.61 103.785 52.61ZM103.785 51.521C104.203 51.521 104.536 51.3743 104.786 51.081C105.042 50.7877 105.171 50.355 105.171 49.783C105.171 49.2183 105.042 48.793 104.786 48.507C104.536 48.2137 104.203 48.067 103.785 48.067C103.367 48.067 103.033 48.2137 102.784 48.507C102.534 48.793 102.41 49.2183 102.41 49.783C102.41 50.355 102.534 50.7877 102.784 51.081C103.033 51.3743 103.367 51.521 103.785 51.521ZM109.652 52.5L107.573 47.099H108.992L110.422 51.169H110.224L111.72 47.099H112.721L114.195 51.169H114.008L115.449 47.099H116.802L114.734 52.5H113.513L111.918 48.265H112.435L110.862 52.5H109.652ZM120.098 52.61C119.46 52.61 118.987 52.4377 118.679 52.093C118.371 51.7483 118.217 51.246 118.217 50.586V44.745H119.625V50.509C119.625 50.7143 119.654 50.8903 119.713 51.037C119.771 51.1837 119.859 51.2937 119.977 51.367C120.101 51.433 120.252 51.466 120.428 51.466C120.516 51.466 120.6 51.4623 120.681 51.455C120.769 51.4477 120.853 51.433 120.934 51.411V52.5C120.794 52.5367 120.659 52.5623 120.527 52.577C120.395 52.599 120.252 52.61 120.098 52.61ZM122.28 45.955V44.58H123.853V45.955H122.28ZM122.368 52.5V47.099H123.776V52.5H122.368ZM125.832 52.5V47.099H127.185V48.177H127.097C127.259 47.7883 127.512 47.495 127.856 47.297C128.201 47.0917 128.59 46.989 129.022 46.989C129.455 46.989 129.814 47.0697 130.1 47.231C130.386 47.3923 130.599 47.6417 130.738 47.979C130.885 48.309 130.958 48.727 130.958 49.233V52.5H129.561V49.299C129.561 49.0203 129.525 48.793 129.451 48.617C129.385 48.441 129.279 48.3127 129.132 48.232C128.986 48.144 128.799 48.1 128.571 48.1C128.307 48.1 128.073 48.1587 127.867 48.276C127.669 48.386 127.515 48.5473 127.405 48.76C127.295 48.9653 127.24 49.2073 127.24 49.486V52.5H125.832ZM135.489 54.59C135.005 54.59 134.543 54.5313 134.103 54.414C133.67 54.304 133.289 54.1353 132.959 53.908L133.355 52.907C133.56 53.039 133.776 53.149 134.004 53.237C134.231 53.325 134.462 53.391 134.697 53.435C134.931 53.4863 135.162 53.512 135.39 53.512C135.896 53.512 136.277 53.391 136.534 53.149C136.79 52.907 136.919 52.5513 136.919 52.082V51.136H136.985C136.867 51.5027 136.636 51.796 136.292 52.016C135.947 52.236 135.558 52.346 135.126 52.346C134.634 52.346 134.205 52.236 133.839 52.016C133.472 51.7887 133.186 51.4733 132.981 51.07C132.783 50.6667 132.684 50.1973 132.684 49.662C132.684 49.1267 132.783 48.661 132.981 48.265C133.186 47.8617 133.472 47.55 133.839 47.33C134.205 47.1027 134.634 46.989 135.126 46.989C135.573 46.989 135.965 47.099 136.303 47.319C136.64 47.539 136.867 47.8323 136.985 48.199H136.919V47.099H138.272V51.928C138.272 52.5073 138.165 52.995 137.953 53.391C137.74 53.787 137.425 54.084 137.007 54.282C136.589 54.4873 136.083 54.59 135.489 54.59ZM135.489 51.279C135.921 51.279 136.262 51.136 136.512 50.85C136.768 50.5567 136.897 50.1607 136.897 49.662C136.897 49.1633 136.768 48.771 136.512 48.485C136.262 48.199 135.921 48.056 135.489 48.056C135.063 48.056 134.722 48.199 134.466 48.485C134.216 48.771 134.092 49.1633 134.092 49.662C134.092 50.1607 134.216 50.5567 134.466 50.85C134.722 51.136 135.063 51.279 135.489 51.279Z" fill="#202224"/>
<mask id="mask1_118_1890" style="mask-type:alpha" maskUnits="userSpaceOnUse" x="27" y="27" width="30" height="44">
<path d="M28.2632 34.49C28.2632 30.9057 31.1689 28 34.7532 28H43.772C50.6707 28 56.2632 33.5925 56.2632 40.4912V57.5088C56.2632 64.4075 50.6707 70 43.772 70H34.7532C31.1689 70 28.2632 67.0943 28.2632 63.51V34.49Z" fill="white" stroke="url(#paint6_linear_118_1890)" stroke-opacity="0.3" stroke-width="1.30158"/>
</mask>
<g mask="url(#mask1_118_1890)">
<rect x="27.2632" y="27.1923" width="14" height="43.6154" fill="#587ED7"/>
</g>
<defs>
<filter id="filter0_d_118_1890" x="0.560465" y="0.297343" width="215.168" height="104.168" filterUnits="userSpaceOnUse" color-interpolation-filters="sRGB">
<feFlood flood-opacity="0" result="BackgroundImageFix"/>
<feColorMatrix in="SourceAlpha" type="matrix" values="0 0 0 0 0 0 0 0 0 0 0 0 0 0 0 0 0 0 127 0" result="hardAlpha"/>
<feOffset dx="3.38149" dy="3.38149"/>
<feGaussianBlur stdDeviation="15.2167"/>
<feColorMatrix type="matrix" values="0 0 0 0 0 0 0 0 0 0 0 0 0 0 0 0 0 0 0.05 0"/>
<feBlend mode="normal" in2="BackgroundImageFix" result="effect1_dropShadow_118_1890"/>
<feBlend mode="normal" in="SourceGraphic" in2="effect1_dropShadow_118_1890" result="shape"/>
</filter>
<filter id="filter1_d_118_1890" x="53.9214" y="36.5254" width="27.3915" height="27.7472" filterUnits="userSpaceOnUse" color-interpolation-filters="sRGB">
<feFlood flood-opacity="0" result="BackgroundImageFix"/>
<feColorMatrix in="SourceAlpha" type="matrix" values="0 0 0 0 0 0 0 0 0 0 0 0 0 0 0 0 0 0 127 0" result="hardAlpha"/>
<feOffset dy="1.32126"/>
<feComposite in2="hardAlpha" operator="out"/>
<feColorMatrix type="matrix" values="0 0 0 0 0.00784314 0 0 0 0 0.133333 0 0 0 0 0.12549 0 0 0 1 0"/>
<feBlend mode="normal" in2="BackgroundImageFix" result="effect1_dropShadow_118_1890"/>
<feBlend mode="normal" in="SourceGraphic" in2="effect1_dropShadow_118_1890" result="shape"/>
</filter>
<filter id="filter2_i_118_1890" x="56.9355" y="37.8464" width="23.056" height="21.8425" filterUnits="userSpaceOnUse" color-interpolation-filters="sRGB">
<feFlood flood-opacity="0" result="BackgroundImageFix"/>
<feBlend mode="normal" in="SourceGraphic" in2="BackgroundImageFix" result="shape"/>
<feColorMatrix in="SourceAlpha" type="matrix" values="0 0 0 0 0 0 0 0 0 0 0 0 0 0 0 0 0 0 127 0" result="hardAlpha"/>
<feOffset dx="-3.07182" dy="-3.87635"/>
<feComposite in2="hardAlpha" operator="arithmetic" k2="-1" k3="1"/>
<feColorMatrix type="matrix" values="0 0 0 0 0.0364583 0 0 0 0 0.416667 0 0 0 0 0.325416 0 0 0 0.34 0"/>
<feBlend mode="normal" in2="shape" result="effect1_innerShadow_118_1890"/>
</filter>
<filter id="filter3_d_118_1890" x="52.9557" y="39.7268" width="16.388" height="22.8131" filterUnits="userSpaceOnUse" color-interpolation-filters="sRGB">
<feFlood flood-opacity="0" result="BackgroundImageFix"/>
<feColorMatrix in="SourceAlpha" type="matrix" values="0 0 0 0 0 0 0 0 0 0 0 0 0 0 0 0 0 0 127 0" result="hardAlpha"/>
<feOffset dx="1.97474" dy="-0.0731386"/>
<feComposite in2="hardAlpha" operator="out"/>
<feColorMatrix type="matrix" values="0 0 0 0 0 0 0 0 0 0 0 0 0 0 0 0 0 0 0.11 0"/>
<feBlend mode="normal" in2="BackgroundImageFix" result="effect1_dropShadow_118_1890"/>
<feBlend mode="normal" in="SourceGraphic" in2="effect1_dropShadow_118_1890" result="shape"/>
</filter>
<filter id="filter4_ii_118_1890" x="55.2274" y="40.4077" width="10.9021" height="21.2757" filterUnits="userSpaceOnUse" color-interpolation-filters="sRGB">
<feFlood flood-opacity="0" result="BackgroundImageFix"/>
<feBlend mode="normal" in="SourceGraphic" in2="BackgroundImageFix" result="shape"/>
<feColorMatrix in="SourceAlpha" type="matrix" values="0 0 0 0 0 0 0 0 0 0 0 0 0 0 0 0 0 0 127 0" result="hardAlpha"/>
<feOffset dy="-0.454861"/>
<feGaussianBlur stdDeviation="1.22813"/>
<feComposite in2="hardAlpha" operator="arithmetic" k2="-1" k3="1"/>
<feColorMatrix type="matrix" values="0 0 0 0 0.866667 0 0 0 0 0.596078 0 0 0 0 0.537255 0 0 0 1 0"/>
<feBlend mode="normal" in2="shape" result="effect1_innerShadow_118_1890"/>
<feColorMatrix in="SourceAlpha" type="matrix" values="0 0 0 0 0 0 0 0 0 0 0 0 0 0 0 0 0 0 127 0" result="hardAlpha"/>
<feOffset dy="0.813969"/>
<feComposite in2="hardAlpha" operator="arithmetic" k2="-1" k3="1"/>
<feColorMatrix type="matrix" values="0 0 0 0 1 0 0 0 0 1 0 0 0 0 1 0 0 0 0.5 0"/>
<feBlend mode="normal" in2="effect1_innerShadow_118_1890" result="effect2_innerShadow_118_1890"/>
</filter>
<linearGradient id="paint0_linear_118_1890" x1="63.1505" y1="12.8299" x2="137.147" y2="98.6413" gradientUnits="userSpaceOnUse">
<stop stop-color="#F1F1F1"/>
<stop offset="1" stop-color="#E1E1E1"/>
</linearGradient>
<linearGradient id="paint1_linear_118_1890" x1="57.6096" y1="40.929" x2="62.7365" y2="61.32" gradientUnits="userSpaceOnUse">
<stop stop-color="#489072"/>
<stop offset="1" stop-color="#0A4742"/>
</linearGradient>
<radialGradient id="paint2_radial_118_1890" cx="0" cy="0" r="1" gradientUnits="userSpaceOnUse" gradientTransform="translate(68.4305 41.8432) rotate(89.8939) scale(17.8457 18.8371)">
<stop stop-color="#91EAB0"/>
<stop offset="1" stop-color="#508588"/>
</radialGradient>
<linearGradient id="paint3_linear_118_1890" x1="68.5298" y1="38.8372" x2="68.5298" y2="42.0742" gradientUnits="userSpaceOnUse">
<stop stop-color="#074642"/>
<stop offset="1" stop-color="#1A8E7B"/>
</linearGradient>
<linearGradient id="paint4_linear_118_1890" x1="73.2198" y1="40.4891" x2="73.2198" y2="43.7262" gradientUnits="userSpaceOnUse">
<stop stop-color="#074642"/>
<stop offset="1" stop-color="#1A8E7B"/>
</linearGradient>
<linearGradient id="paint5_linear_118_1890" x1="59.1796" y1="42.0129" x2="59.1796" y2="44.7193" gradientUnits="userSpaceOnUse">
<stop stop-color="#FAECE4"/>
<stop offset="1" stop-color="#FAECE4" stop-opacity="0"/>
</linearGradient>
<linearGradient id="paint6_linear_118_1890" x1="34.6478" y1="12.8299" x2="65.0326" y2="19.2783" gradientUnits="userSpaceOnUse">
<stop stop-color="#F1F1F1"/>
<stop offset="1" stop-color="#E1E1E1"/>
</linearGradient>
</defs>
</svg>
