<svg width="216" height="105" viewBox="0 0 216 105" fill="none" xmlns="http://www.w3.org/2000/svg">
<g filter="url(#filter0_d_118_2373)">
<rect x="28" y="28" width="153" height="42" rx="6.49" fill="white"/>
<rect x="28" y="28" width="153" height="42" rx="6.49" stroke="url(#paint0_linear_118_2373)" stroke-opacity="0.3" stroke-width="1.30158"/>
</g>
<g filter="url(#filter1_d_118_2373)">
<path d="M76.4477 36.8429C76.2323 36.741 75.3826 36.3381 75.1643 36.2323C74.5076 35.9188 73.7577 35.8765 73.0777 36.1148C73.0301 36.1319 72.9828 36.1505 72.9363 36.1702C72.9216 36.1759 72.9072 36.1832 72.8923 36.1899L72.7983 36.2337L72.7496 36.2585L72.6641 36.3047L72.6164 36.3332L72.5316 36.3859L72.4917 36.4156L72.3996 36.4841L72.3719 36.5047C72.3314 36.5349 72.2904 36.5654 72.2537 36.6006L72.2448 36.6072C72.2103 36.6373 72.1767 36.6684 72.1423 36.701L72.1098 36.7348C72.0855 36.759 72.0606 36.7845 72.0394 36.8082L72.0206 36.8222L71.9863 36.8617L71.9578 36.8952C71.9357 36.9212 71.9151 36.9479 71.894 36.975L71.8783 36.9945C71.8533 37.028 71.8287 37.0621 71.8049 37.0973L71.7843 37.1275L71.7341 37.2059L71.7114 37.2437L71.6669 37.3206L71.6462 37.3587C71.6309 37.3867 71.6171 37.4145 71.6031 37.4432L71.586 37.4769C71.5675 37.5169 71.5495 37.5575 71.5318 37.5986C71.434 37.8437 71.2863 38.0651 71.098 38.2487C70.9097 38.4324 70.685 38.5742 70.4381 38.6654C70.1898 38.7534 69.9246 38.7859 69.6611 38.7605L65.9704 38.4189C65.5845 38.3823 65.1965 38.4307 64.8335 38.5608V38.5608C64.7829 38.5784 64.7333 38.5987 64.6842 38.6195L64.6403 38.6392C64.6063 38.6549 64.5717 38.671 64.5386 38.6878L64.4899 38.7127C64.4583 38.7292 64.4286 38.7461 64.3961 38.765L64.348 38.7929L64.259 38.8505L64.2263 38.8748L64.1126 38.9594L64.0572 39.0007L64.009 39.0366C63.9907 39.0502 63.9724 39.0638 63.9569 39.0824C63.9231 39.1076 63.8948 39.1391 63.8649 39.1683L61.2499 41.7635C61.0638 41.9501 60.8387 42.093 60.5903 42.182C60.3416 42.2678 60.0771 42.3006 59.8136 42.2784C59.55 42.2562 59.2933 42.1793 59.0594 42.0528C58.7303 41.8778 58.3695 41.7729 57.9998 41.7448C57.6302 41.7167 57.2598 41.766 56.9122 41.8895V41.8895C56.2353 42.1367 55.6862 42.643 55.3841 43.2989C55.2284 43.6399 55.1419 44.0095 55.1297 44.3862C55.1175 44.763 55.1797 45.1394 55.3129 45.4938L57.0588 50.2615C57.1165 50.4178 57.1751 50.5717 57.2325 50.7264C57.2486 50.7677 57.2657 50.8092 57.2818 50.8505C57.3314 50.975 57.3821 51.0986 57.4339 51.2215C57.4462 51.2507 57.458 51.2804 57.4707 51.3103C57.5342 51.4588 57.5987 51.6056 57.6643 51.7508C57.6776 51.7803 57.6914 51.8093 57.7051 51.8393C57.7591 51.9581 57.8145 52.0757 57.8712 52.1919L57.9236 52.3006C57.9925 52.4406 58.0626 52.5799 58.1335 52.7167C58.1406 52.7263 58.1449 52.7379 58.1509 52.7483C58.2011 52.8447 58.2519 52.9406 58.3038 53.0347C58.3196 53.064 58.3361 53.092 58.3519 53.1213C58.3677 53.1506 58.3909 53.191 58.4104 53.2254C58.483 53.3537 58.5564 53.4809 58.6306 53.6068C58.6369 53.6152 58.6436 53.6242 58.6499 53.6327C58.7206 53.7507 58.7925 53.867 58.8656 53.9815C58.8882 54.0119 58.9059 54.0459 58.9268 54.0775C59.0027 54.1958 59.0798 54.3132 59.1591 54.4289C59.1763 54.452 59.1934 54.4751 59.2106 54.4981C59.2776 54.595 59.3451 54.6916 59.4127 54.7846C59.4357 54.8155 59.4583 54.8459 59.4809 54.8763C59.5617 54.9848 59.6416 55.0922 59.7212 55.199C59.7421 55.2271 59.763 55.2552 59.784 55.2833C59.8545 55.3724 59.9257 55.461 59.9981 55.5478C60.0169 55.5731 60.0357 55.5984 60.0584 55.6208C60.1445 55.7237 60.2328 55.8249 60.3213 55.9241C60.3406 55.95 60.3648 55.9721 60.3859 55.9958C60.472 56.0907 60.5583 56.1846 60.6468 56.2769L60.6698 56.3009C60.7674 56.403 60.863 56.4979 60.961 56.5936C60.982 56.6137 61.0025 56.6343 61.0231 56.6539C61.1226 56.7494 61.2223 56.8439 61.3239 56.9352C61.7989 57.3636 62.3062 57.7544 62.8411 58.104C64.4491 59.2061 66.3827 60.2223 67.131 60.408C70.3639 61.2111 73.6401 60.3224 73.7529 60.29L73.8384 60.2648L73.9203 60.2301C74.0281 60.1839 76.5767 59.0783 78.5409 56.4179C79.7005 54.8545 80.4461 53.0181 80.709 51.0776C81.042 48.6834 80.6911 46.0512 79.6666 43.2536L77.9203 38.4853C77.7939 38.1289 77.5986 37.8002 77.3459 37.5182C77.0931 37.2363 76.7878 37.0068 76.4477 36.8429V36.8429Z" fill="#1F1F1F"/>
<path d="M54.7236 42.8046C55.1016 42.0801 55.7189 41.5106 56.4713 41.193L56.6342 41.1289L56.6409 41.1264L56.8124 41.0706C57.2166 40.9504 57.6402 40.9054 58.0623 40.9375C58.4843 40.9696 58.897 41.0778 59.2801 41.2569L59.4419 41.3385L59.4466 41.3399L59.5509 41.3901C59.6574 41.4341 59.7695 41.4608 59.8832 41.4702C60.032 41.4824 60.1805 41.4642 60.3196 41.4168L60.3204 41.4163C60.4563 41.3675 60.5793 41.2895 60.6811 41.1879L60.6835 41.1861L63.2976 38.5911L63.4352 38.4619C63.7643 38.1689 64.147 37.941 64.5634 37.7925L64.5626 37.7931C65.0379 37.6228 65.5451 37.5599 66.0484 37.6073L69.7384 37.949L69.7419 37.9488L69.8515 37.9537C69.9586 37.9522 70.0643 37.9335 70.1646 37.8984C70.3027 37.8467 70.4279 37.7668 70.5332 37.6641C70.6397 37.5602 70.7248 37.4347 70.7806 37.2949L70.7828 37.2896L70.8552 37.1237C71.0346 36.7418 71.282 36.3957 71.5868 36.103C71.8918 35.8103 72.248 35.577 72.6369 35.4138L72.8057 35.3478L72.8116 35.3458L72.9786 35.2921C73.8164 35.0448 74.7192 35.117 75.5136 35.4953L76.7995 36.1073L76.8034 36.1093L76.965 36.1923C77.3365 36.3948 77.6714 36.6602 77.9542 36.9765C78.2749 37.3352 78.5221 37.7532 78.6835 38.2062L78.6848 38.2064L80.4309 42.9756C81.4903 45.8684 81.8688 48.6353 81.5142 51.1881L81.5156 51.1883C81.2344 53.2633 80.4362 55.2279 79.1948 56.9019L79.1962 56.9021C77.1084 59.7299 74.4081 60.9075 74.242 60.9786L74.2391 60.9796L74.1565 61.0143L74.1141 61.0325L74.0695 61.0462L73.9835 61.0713L73.9784 61.0726C73.833 61.1144 70.594 61.9965 67.2589 61.2733L66.9363 61.1981C66.5969 61.1139 66.1445 60.925 65.6711 60.6973C65.182 60.4622 64.6195 60.1611 64.0424 59.8244C63.0407 59.24 61.9571 58.5251 61.1229 57.8341L60.7813 57.5405C58.8565 55.8072 57.3534 53.4348 56.2957 50.5436L54.5493 45.7758C54.3805 45.3241 54.3017 44.8434 54.3175 44.3621C54.3333 43.8786 54.4443 43.4033 54.6451 42.964L54.6461 42.9621L54.7236 42.8046Z" fill="#837886" stroke="#460860" stroke-width="1.62613"/>
<path d="M69.5418 40.2886L65.8511 39.947C65.6857 39.9312 65.5194 39.9518 65.3637 40.0073C65.208 40.0628 65.0667 40.152 64.9497 40.2685L62.3346 42.8637C61.296 43.8991 59.7244 44.1157 58.3744 43.4157C57.373 42.8958 56.3468 43.8844 56.7489 44.9824L58.4947 49.7501L67.7237 46.452L76.9527 43.154L75.2068 38.3863C74.8043 37.2877 73.3757 37.1767 72.942 38.21C72.3583 39.6006 71.0112 40.4243 69.5418 40.2886Z" fill="#A72518"/>
<path d="M67.7219 46.4498L58.4929 49.7478C62.5966 60.9548 72.024 58.2011 72.024 58.2011C72.024 58.2011 81.0536 54.3576 76.95 43.1506L67.7219 46.4498Z" fill="#214BA2"/>
<path d="M67.4953 39.6441L65.4875 40.8627C65.3483 40.8447 65.2072 40.8599 65.0758 40.9069C64.9443 40.9539 64.8261 41.0314 64.7308 41.1333L62.5734 43.4114C61.7142 44.3175 60.39 44.481 59.2316 43.8219C58.372 43.3328 57.5242 44.1999 57.8893 45.1961L59.473 49.5226L67.2168 46.7552L74.9606 43.9877L73.3769 39.6612C73.0118 38.665 71.7996 38.5345 71.4554 39.454C70.9913 40.6953 68.7408 39.7996 67.4953 39.6441Z" fill="#FF3E29"/>
<path d="M67.2151 46.7555L59.4713 49.523C62.9149 58.9265 70.826 56.6165 70.826 56.6165C70.826 56.6165 78.4019 53.392 74.9589 43.9881L67.2151 46.7555Z" fill="#0066F6"/>
<path d="M75.769 36.622C75.2973 36.5311 74.8118 36.5669 74.3617 36.7258C74.0992 36.819 73.8538 36.954 73.6347 37.1255C73.274 37.4098 72.9926 37.7826 72.8169 38.2088L72.8136 38.2113C72.7155 38.4556 72.5679 38.6761 72.3799 38.8591C72.1919 39.0421 71.9677 39.1834 71.7214 39.2743C71.4732 39.3627 71.208 39.3952 70.9444 39.3695L67.2533 39.0273C66.868 38.9922 66.4809 39.0418 66.1189 39.1726C65.7555 39.302 65.4256 39.5099 65.1525 39.7819L62.5375 42.3771C62.3514 42.5638 62.1263 42.7066 61.878 42.7956C61.6292 42.8816 61.3646 42.9146 61.101 42.8924C60.8373 42.8702 60.5804 42.7934 60.3465 42.6668C60.0175 42.4915 59.6567 42.3864 59.287 42.3583C58.9173 42.3302 58.5468 42.3797 58.1992 42.5036C57.5222 42.75 56.9731 43.2561 56.6713 43.9119C56.5155 44.2529 56.4289 44.6225 56.4167 44.9993C56.4045 45.376 56.4668 45.7525 56.6001 46.1069L58.346 50.8746C59.37 53.6725 60.8066 55.916 62.6118 57.5468C63.2986 58.1667 64.0531 58.706 64.8605 59.1542C65.3782 59.3626 65.9094 59.5346 66.45 59.6689C69.6824 60.4715 72.358 59.71 72.4699 59.6774L72.5558 59.6528L72.6377 59.6181C72.7455 59.5719 75.2941 58.4663 77.2587 55.8065C78.4182 54.2427 79.1635 52.4059 79.426 50.4651C79.7594 48.0714 79.4091 45.4388 78.3846 42.6412L76.6393 37.8731C76.4637 37.3875 76.1634 36.9557 75.769 36.622V36.622ZM78.2337 43.7673C80.2855 49.3708 79.0548 53.1333 77.3123 55.4931C75.5699 57.8529 73.311 58.8153 73.311 58.8153C73.311 58.8153 69.3883 59.9607 65.5025 57.7666C63.3652 56.5612 61.2353 54.3402 59.7785 50.3613L58.0327 45.5936C57.7605 44.8506 58.1423 44.1574 58.7279 43.9487C58.8791 43.8957 59.0401 43.8754 59.2005 43.8889C59.3609 43.9024 59.5171 43.9494 59.6591 44.0271C60.0897 44.2519 60.5602 44.3869 61.0419 44.4238C61.5058 44.4585 61.9705 44.3961 62.4066 44.2407C62.8622 44.0774 63.2757 43.8161 63.6184 43.4749L66.2335 40.8797C66.3505 40.763 66.4919 40.6736 66.6476 40.6177C66.8032 40.5624 66.9693 40.5419 67.1345 40.5576L70.8257 40.8989C71.3098 40.9452 71.7966 40.8849 72.2521 40.7222C72.7116 40.5576 73.1282 40.2936 73.473 39.9488C73.7942 39.6258 74.0498 39.243 74.2258 38.8212C74.29 38.6658 74.3853 38.5255 74.5059 38.4091C74.6163 38.3044 74.7473 38.2239 74.8906 38.1725C74.9521 38.1506 75.0154 38.1341 75.0799 38.1234C75.1467 38.1121 75.2144 38.1067 75.2824 38.1072C75.7721 38.1088 76.2775 38.415 76.4902 38.9969L78.2337 43.7673Z" fill="#A49CA6"/>
<path d="M75.7689 36.6221C75.5849 36.4664 75.3816 36.3354 75.1643 36.2324C74.5075 35.9189 73.7574 35.8768 73.0772 36.1152C72.7299 36.24 72.4132 36.4362 72.1473 36.6915C71.8814 36.9468 71.672 37.2556 71.5324 37.5982C71.4346 37.8433 71.2869 38.0647 71.0986 38.2484C70.9104 38.432 70.6856 38.5739 70.4387 38.665C70.1903 38.7533 69.9249 38.786 69.6611 38.7606L65.97 38.4184C65.5843 38.3818 65.1964 38.4304 64.8336 38.5609C64.4703 38.6901 64.1407 38.8979 63.8678 39.1698L61.2527 41.765C61.0666 41.9516 60.8415 42.0945 60.5932 42.1835C60.3443 42.2693 60.0798 42.3022 59.8162 42.2801C59.5526 42.2579 59.2957 42.1811 59.0617 42.0547C58.7326 41.8796 58.3717 41.7747 58.002 41.7465C57.6323 41.7183 57.2618 41.7674 56.914 41.8909C56.2371 42.138 55.6881 42.6444 55.386 43.3002C55.2303 43.6413 55.1438 44.0108 55.1316 44.3876C55.1194 44.7643 55.1816 45.1407 55.3148 45.4951L57.0607 50.2629C58.0852 53.0604 59.5212 55.3043 61.327 56.9347C62.3668 57.8779 63.5633 58.6296 64.8604 59.1543C65.3782 59.3627 65.9093 59.5347 66.4499 59.669C69.6823 60.4716 72.3579 59.7101 72.4698 59.6775L72.5557 59.6529L72.6376 59.6182C72.7454 59.572 75.294 58.4664 77.2587 55.8066C78.4181 54.2428 79.1634 52.406 79.4259 50.4652C79.7593 48.0715 79.409 45.4389 78.3845 42.6413L76.6392 37.8732C76.4636 37.3876 76.1633 36.9558 75.7689 36.6221V36.6221ZM58.4946 49.7503L56.7487 44.9826C56.4765 44.2396 56.8578 43.5468 57.444 43.3377C57.595 43.2847 57.756 43.2643 57.9163 43.2779C58.0766 43.2914 58.2328 43.3387 58.3746 43.4165C58.8055 43.6419 59.2765 43.7771 59.7588 43.814C60.2227 43.8488 60.6875 43.7864 61.1235 43.6308C61.5792 43.4676 61.9926 43.2061 62.3349 42.8644L64.9503 40.2698C65.0672 40.1532 65.2084 40.064 65.3639 40.0082C65.5197 39.9528 65.686 39.9321 65.8514 39.9477L69.5421 40.2894C70.0263 40.3353 70.5132 40.2749 70.969 40.1123C71.4127 39.9509 71.8171 39.6987 72.1569 39.3715C72.4966 39.0442 72.7643 38.6491 72.9433 38.2109C73.0072 38.0556 73.1023 37.9155 73.2228 37.7992C73.333 37.6946 73.4637 37.6142 73.607 37.563C73.8774 37.4722 74.172 37.4787 74.4408 37.5813C74.7096 37.6839 74.9359 37.8762 75.0814 38.1257C75.1328 38.2088 75.1753 38.2969 75.2083 38.3887L76.9542 43.1565C79.006 48.7599 77.7747 52.5229 76.0328 54.8823C74.2909 57.2417 72.031 58.2049 72.031 58.2049C72.031 58.2049 68.9278 59.1107 65.5069 57.7668C62.9611 56.7686 60.2436 54.528 58.4946 49.7503V49.7503Z" fill="white"/>
<path d="M75.7689 36.622C75.5848 36.4664 75.3815 36.3353 75.1643 36.2323C74.5074 35.9188 73.7573 35.8767 73.0771 36.1152C72.6715 36.2593 72.3089 36.502 72.0212 36.8218C71.8162 37.0511 71.6511 37.3134 71.5324 37.5981C71.4346 37.8433 71.2868 38.0647 71.0986 38.2483C70.9103 38.432 70.6856 38.5738 70.4386 38.6649C70.1902 38.7533 69.9249 38.7859 69.6611 38.7605L65.97 38.4183C65.5842 38.3817 65.1963 38.4304 64.8335 38.5608C64.6176 38.6376 64.413 38.7424 64.2246 38.8726C64.0974 38.9612 63.978 39.0606 63.8677 39.1697L61.2527 41.7649C61.0666 41.9516 60.8414 42.0944 60.5931 42.1834C60.3443 42.2693 60.0797 42.3022 59.8161 42.28C59.5525 42.2578 59.2956 42.1811 59.0617 42.0546C58.7325 41.8796 58.3716 41.7746 58.0019 41.7464C57.6322 41.7182 57.2617 41.7674 56.914 41.8908C56.2371 42.1379 55.6881 42.6443 55.3859 43.3002C55.2302 43.6412 55.1437 44.0108 55.1315 44.3875C55.1193 44.7642 55.1816 45.1407 55.3147 45.4951L57.0606 50.2628C57.4063 51.2161 57.8232 52.1426 58.3079 53.0343C59.1522 54.5783 60.1624 55.8843 61.3269 56.9346C62.3667 57.8779 63.5633 58.6295 64.8604 59.1543C65.1515 59.2714 65.4476 59.3772 65.7489 59.4716C65.9799 59.5443 66.2138 59.6099 66.4504 59.6686C69.6828 60.4711 72.3584 59.7097 72.4703 59.6771L72.5562 59.6524L72.6381 59.6177C72.7459 59.5715 75.2945 58.466 77.2591 55.8062C78.4186 54.2423 79.1639 52.4055 79.4264 50.4647C79.7598 48.0711 79.4095 45.4384 78.385 42.6409L76.6397 37.8727C76.4639 37.3872 76.1634 36.9555 75.7689 36.622V36.622ZM76.9524 43.1542C79.0043 48.7576 77.773 52.5205 76.0311 54.88C74.2892 57.2394 72.0292 58.2026 72.0292 58.2026C72.0292 58.2026 70.2753 58.7148 67.9518 58.397C67.1157 58.2844 66.2946 58.0718 65.5063 57.7637C63.5148 56.9811 61.4145 55.4354 59.7573 52.5032C59.2625 51.6203 58.8414 50.6985 58.4984 49.7473L56.7525 44.9796C56.4804 44.2367 56.8616 43.5439 57.4478 43.3347C57.5989 43.2817 57.7598 43.2613 57.9201 43.2749C58.0805 43.2885 58.2366 43.3357 58.3785 43.4135C58.8079 43.6394 59.2776 43.7756 59.7588 43.8139C60.2227 43.8487 60.6874 43.7864 61.1235 43.6308C61.5791 43.4676 61.9925 43.206 62.3348 42.8644L64.9503 40.2698C65.0018 40.2182 65.0583 40.1721 65.1191 40.1319C65.1951 40.0805 65.2773 40.039 65.3639 40.0082C65.5196 39.9527 65.6859 39.9321 65.8513 39.9477L69.542 40.2893C70.0262 40.3352 70.5132 40.2748 70.969 40.1123C71.791 39.814 72.4634 39.2087 72.8473 38.4212C72.8823 38.3524 72.9164 38.2824 72.9432 38.2108C73.0071 38.0555 73.1022 37.9154 73.2227 37.7992C73.3329 37.6946 73.4637 37.6141 73.6069 37.563C73.8773 37.4722 74.1719 37.4786 74.4407 37.5812C74.7095 37.6838 74.9359 37.8762 75.0814 38.1257C75.1328 38.2087 75.1753 38.2969 75.2082 38.3887L76.9524 43.1542Z" fill="#E3DFD4"/>
<path d="M77.7943 44.4193L59.1131 51.0951L58.6314 49.7802L77.3618 43.087L77.7943 44.4193Z" fill="#A49CA6"/>
<path d="M58.0112 49.1848L58.4926 50.4998L77.1929 43.8183L76.7115 42.5033L58.0112 49.1848Z" fill="#E3DFD4"/>
<g style="mix-blend-mode:overlay" opacity="0.25">
<path d="M67.015 47.893C65.7711 52.742 58.7658 52.8797 58.3079 53.0344C57.8233 52.1427 57.4063 51.2162 57.0607 50.2629L55.3148 45.4952C55.1816 45.1408 55.1194 44.7643 55.1316 44.3876C55.1438 44.0109 55.2303 43.6413 55.386 43.3003C55.6881 42.6444 56.2371 42.138 56.914 41.8909C57.2618 41.7675 57.6323 41.7183 58.002 41.7465C58.3717 41.7747 58.7326 41.8797 59.0618 42.0547C59.2961 42.1812 59.5535 42.2579 59.8175 42.2798C60.0815 42.3017 60.3464 42.2683 60.5954 42.1819C60.8437 42.0929 61.0689 41.95 61.255 41.7634L63.87 39.1682C63.9803 39.0591 64.0997 38.9597 64.2269 38.871C64.5396 39.2622 68.4555 42.2825 67.015 47.893Z" fill="#E5E5E5"/>
</g>
<path d="M75.2824 38.1072C75.2144 38.1067 75.1467 38.1121 75.0799 38.1234C75.0154 38.1342 74.9521 38.1506 74.8907 38.1725C74.7473 38.2239 74.6163 38.3044 74.5059 38.4091C74.3853 38.5256 74.29 38.6658 74.2259 38.8212C74.0498 39.243 73.7942 39.6258 73.473 39.9489L72.8467 38.42L72.8149 38.213L72.8182 38.2105C72.9939 37.7843 73.2753 37.4115 73.636 37.1272L74.9232 37.2648L75.1151 37.7887L75.2824 38.1072Z" fill="#958D96"/>
<path d="M74.6788 43.2295L75.1602 44.5444L77.2885 43.784L76.8071 42.469L74.6788 43.2295Z" fill="#D1C0C1"/>
<path d="M75.1602 44.5372L75.3763 45.2835L77.78 44.4404L77.4486 43.7198L75.1602 44.5372Z" fill="#958D96"/>
<path d="M76.6407 37.8738L78.386 42.6419C79.4105 45.4394 79.7586 48.0738 79.4274 50.4658C79.1649 52.4066 78.4197 54.2434 77.2602 55.8072C75.2956 58.467 72.7469 59.5726 72.6391 59.6187L72.5573 59.6535L72.4713 59.6781C72.3595 59.7107 69.6839 60.4721 66.4514 59.6696C66.2156 59.6121 65.9818 59.5464 65.7499 59.4726C66.5173 59.1145 67.2506 58.7592 67.9481 58.3998C70.2728 58.7168 72.0255 58.2054 72.0255 58.2054L72.0311 58.2013L72.0507 58.1928C72.3051 58.0786 74.3913 57.0961 76.0274 54.8828C77.6153 52.7332 78.7786 49.4194 77.4276 44.6103C77.2945 44.1384 77.1368 43.6526 76.9543 43.1528L75.2084 38.3851C75.1755 38.2933 75.1329 38.2051 75.0816 38.1221C74.9361 37.8726 74.7097 37.6802 74.4409 37.5777C74.1721 37.4751 73.8775 37.4686 73.6071 37.5594C73.4639 37.6106 73.3331 37.691 73.2229 37.7956C73.1024 37.9118 73.0073 38.0519 72.9434 38.2073C72.9118 38.2806 72.8814 38.3496 72.8475 38.4176C72.5999 37.8713 72.3244 37.3378 72.0222 36.8193C72.3099 36.4995 72.6726 36.2568 73.0782 36.1127C73.7584 35.8743 74.5084 35.9164 75.1653 36.2299C75.3826 36.3329 75.5858 36.4639 75.7699 36.6196C76.1649 36.954 76.4655 37.3869 76.6407 37.8738V37.8738Z" fill="#D1C0C1"/>
<path style="mix-blend-mode:overlay" d="M72.0526 58.1932C72.307 58.0789 74.3933 57.0965 76.0293 54.8831C77.6173 52.7336 78.7805 49.4198 77.4295 44.6107C77.4259 44.6117 82.6538 53.7014 72.0526 58.1932Z" fill="url(#paint1_linear_118_2373)"/>
<path style="mix-blend-mode:overlay" d="M58.2428 49.0822L76.713 42.4979C76.713 42.4979 74.6115 44.1139 67.2166 46.7562C59.8217 49.3985 58.2428 49.0822 58.2428 49.0822Z" fill="url(#paint2_linear_118_2373)"/>
</g>
<path d="M95.1626 52.5V44.745H100.289V45.9H96.5926V48.056H100.058V49.2H96.5926V52.5H95.1626ZM103.5 52.61C103.111 52.61 102.763 52.5367 102.455 52.39C102.147 52.236 101.905 52.0307 101.729 51.774C101.553 51.51 101.465 51.2167 101.465 50.894C101.465 50.498 101.571 50.1827 101.784 49.948C101.996 49.7133 102.337 49.5447 102.807 49.442C103.276 49.332 103.899 49.277 104.677 49.277H105.271V50.091H104.699C104.354 50.091 104.064 50.1057 103.83 50.135C103.595 50.157 103.404 50.1973 103.258 50.256C103.111 50.3073 103.005 50.3807 102.939 50.476C102.873 50.5713 102.84 50.6887 102.84 50.828C102.84 51.07 102.924 51.2643 103.093 51.411C103.269 51.5577 103.507 51.631 103.808 51.631C104.05 51.631 104.266 51.576 104.457 51.466C104.655 51.3487 104.812 51.191 104.93 50.993C105.047 50.7877 105.106 50.5603 105.106 50.311V49.057C105.106 48.6903 105.018 48.43 104.842 48.276C104.666 48.122 104.38 48.045 103.984 48.045C103.683 48.045 103.375 48.089 103.06 48.177C102.744 48.265 102.422 48.4043 102.092 48.595L101.685 47.638C101.89 47.506 102.125 47.3923 102.389 47.297C102.653 47.1943 102.931 47.1173 103.225 47.066C103.518 47.0147 103.8 46.989 104.072 46.989C104.6 46.989 105.036 47.0697 105.381 47.231C105.733 47.385 105.997 47.627 106.173 47.957C106.349 48.287 106.437 48.7123 106.437 49.233V52.5H105.161V51.356H105.227C105.161 51.6127 105.047 51.8363 104.886 52.027C104.732 52.2103 104.537 52.3533 104.303 52.456C104.075 52.5587 103.808 52.61 103.5 52.61ZM108.501 52.5V47.099H109.843V48.188H109.755C109.85 47.9387 109.982 47.726 110.151 47.55C110.327 47.3667 110.532 47.2273 110.767 47.132C111.009 47.0367 111.273 46.989 111.559 46.989C111.999 46.989 112.358 47.0917 112.637 47.297C112.923 47.5023 113.121 47.814 113.231 48.232H113.11C113.256 47.8507 113.495 47.55 113.825 47.33C114.162 47.1027 114.554 46.989 115.002 46.989C115.42 46.989 115.764 47.0697 116.036 47.231C116.307 47.3923 116.509 47.638 116.641 47.968C116.78 48.298 116.85 48.7197 116.85 49.233V52.5H115.453V49.288C115.453 48.8773 115.383 48.5767 115.244 48.386C115.112 48.1953 114.881 48.1 114.551 48.1C114.309 48.1 114.096 48.1587 113.913 48.276C113.737 48.386 113.601 48.5473 113.506 48.76C113.418 48.9727 113.374 49.2257 113.374 49.519V52.5H111.977V49.288C111.977 48.8773 111.907 48.5767 111.768 48.386C111.628 48.1953 111.401 48.1 111.086 48.1C110.836 48.1 110.624 48.1587 110.448 48.276C110.272 48.3933 110.136 48.5583 110.041 48.771C109.945 48.9763 109.898 49.222 109.898 49.508V52.5H108.501ZM118.826 45.955V44.58H120.399V45.955H118.826ZM118.914 52.5V47.099H120.322V52.5H118.914ZM124.259 52.61C123.621 52.61 123.148 52.4377 122.84 52.093C122.532 51.7483 122.378 51.246 122.378 50.586V44.745H123.786V50.509C123.786 50.7143 123.816 50.8903 123.874 51.037C123.933 51.1837 124.021 51.2937 124.138 51.367C124.263 51.433 124.413 51.466 124.589 51.466C124.677 51.466 124.762 51.4623 124.842 51.455C124.93 51.4477 125.015 51.433 125.095 51.411V52.5C124.956 52.5367 124.82 52.5623 124.688 52.577C124.556 52.599 124.413 52.61 124.259 52.61ZM126.896 54.48L128.029 51.994V52.687L125.62 47.099H127.105L128.744 51.235H128.48L130.13 47.099H131.549L128.348 54.48H126.896ZM136.566 52.5V44.745H139.954C140.812 44.745 141.472 44.9467 141.934 45.35C142.403 45.7533 142.638 46.3253 142.638 47.066C142.638 47.528 142.539 47.9277 142.341 48.265C142.143 48.595 141.857 48.8517 141.483 49.035C141.109 49.2183 140.661 49.3137 140.141 49.321L140.229 49.2L140.537 49.211C140.808 49.2183 141.046 49.2917 141.252 49.431C141.457 49.5703 141.64 49.7903 141.802 50.091L143.111 52.5H141.538L140.218 50.047C140.13 49.8857 140.031 49.761 139.921 49.673C139.811 49.5777 139.686 49.5117 139.547 49.475C139.407 49.4383 139.242 49.42 139.052 49.42H137.996V52.5H136.566ZM137.996 48.342H139.734C140.24 48.342 140.617 48.2393 140.867 48.034C141.123 47.8287 141.252 47.5207 141.252 47.11C141.252 46.6993 141.123 46.3913 140.867 46.186C140.61 45.9807 140.232 45.878 139.734 45.878H137.996V48.342ZM147.013 52.61C146.449 52.61 145.957 52.4963 145.539 52.269C145.129 52.0343 144.806 51.708 144.571 51.29C144.344 50.8647 144.23 50.366 144.23 49.794C144.23 49.222 144.344 48.727 144.571 48.309C144.806 47.8837 145.129 47.5573 145.539 47.33C145.957 47.1027 146.449 46.989 147.013 46.989C147.578 46.989 148.069 47.1027 148.487 47.33C148.905 47.5573 149.228 47.8837 149.455 48.309C149.683 48.727 149.796 49.222 149.796 49.794C149.796 50.366 149.683 50.8647 149.455 51.29C149.228 51.708 148.905 52.0343 148.487 52.269C148.069 52.4963 147.578 52.61 147.013 52.61ZM147.013 51.521C147.431 51.521 147.765 51.3743 148.014 51.081C148.271 50.7877 148.399 50.355 148.399 49.783C148.399 49.2183 148.271 48.793 148.014 48.507C147.765 48.2137 147.431 48.067 147.013 48.067C146.595 48.067 146.262 48.2137 146.012 48.507C145.763 48.793 145.638 49.2183 145.638 49.783C145.638 50.355 145.763 50.7877 146.012 51.081C146.262 51.3743 146.595 51.521 147.013 51.521ZM153.362 52.61C152.973 52.61 152.625 52.5367 152.317 52.39C152.009 52.236 151.767 52.0307 151.591 51.774C151.415 51.51 151.327 51.2167 151.327 50.894C151.327 50.498 151.433 50.1827 151.646 49.948C151.858 49.7133 152.199 49.5447 152.669 49.442C153.138 49.332 153.761 49.277 154.539 49.277H155.133V50.091H154.561C154.216 50.091 153.926 50.1057 153.692 50.135C153.457 50.157 153.266 50.1973 153.12 50.256C152.973 50.3073 152.867 50.3807 152.801 50.476C152.735 50.5713 152.702 50.6887 152.702 50.828C152.702 51.07 152.786 51.2643 152.955 51.411C153.131 51.5577 153.369 51.631 153.67 51.631C153.912 51.631 154.128 51.576 154.319 51.466C154.517 51.3487 154.674 51.191 154.792 50.993C154.909 50.7877 154.968 50.5603 154.968 50.311V49.057C154.968 48.6903 154.88 48.43 154.704 48.276C154.528 48.122 154.242 48.045 153.846 48.045C153.545 48.045 153.237 48.089 152.922 48.177C152.606 48.265 152.284 48.4043 151.954 48.595L151.547 47.638C151.752 47.506 151.987 47.3923 152.251 47.297C152.515 47.1943 152.793 47.1173 153.087 47.066C153.38 47.0147 153.662 46.989 153.934 46.989C154.462 46.989 154.898 47.0697 155.243 47.231C155.595 47.385 155.859 47.627 156.035 47.957C156.211 48.287 156.299 48.7123 156.299 49.233V52.5H155.023V51.356H155.089C155.023 51.6127 154.909 51.8363 154.748 52.027C154.594 52.2103 154.399 52.3533 154.165 52.456C153.937 52.5587 153.67 52.61 153.362 52.61ZM160.442 52.61C159.965 52.61 159.547 52.4963 159.188 52.269C158.829 52.0343 158.546 51.7043 158.341 51.279C158.143 50.8537 158.044 50.3587 158.044 49.794C158.044 49.2147 158.143 48.7197 158.341 48.309C158.539 47.891 158.818 47.5683 159.177 47.341C159.544 47.1063 159.965 46.989 160.442 46.989C160.889 46.989 161.274 47.0953 161.597 47.308C161.927 47.5207 162.154 47.803 162.279 48.155H162.191V44.745H163.599V52.5H162.257V51.367H162.323C162.198 51.7483 161.967 52.0527 161.63 52.28C161.293 52.5 160.897 52.61 160.442 52.61ZM160.838 51.543C161.256 51.543 161.59 51.3927 161.839 51.092C162.088 50.7913 162.213 50.3587 162.213 49.794C162.213 49.2147 162.088 48.782 161.839 48.496C161.59 48.2027 161.256 48.056 160.838 48.056C160.42 48.056 160.083 48.2027 159.826 48.496C159.577 48.782 159.452 49.2147 159.452 49.794C159.452 50.3587 159.577 50.7913 159.826 51.092C160.083 51.3927 160.42 51.543 160.838 51.543ZM171.773 52.61C171.04 52.61 170.493 52.4303 170.134 52.071C169.782 51.7043 169.606 51.1727 169.606 50.476V48.166H168.561V47.099H169.617V45.504H171.003V47.099H172.697V48.166H171.003V50.399C171.003 50.751 171.08 51.015 171.234 51.191C171.395 51.367 171.648 51.455 171.993 51.455C172.103 51.455 172.217 51.4403 172.334 51.411C172.451 51.3817 172.572 51.3523 172.697 51.323L172.906 52.357C172.759 52.4377 172.583 52.5 172.378 52.544C172.173 52.588 171.971 52.61 171.773 52.61ZM174.284 52.5V50.949H175.868V52.5H174.284Z" fill="#202224"/>
<mask id="mask0_118_2373" style="mask-type:alpha" maskUnits="userSpaceOnUse" x="27" y="27" width="30" height="44">
<path d="M28 34.49C28 30.9057 30.9057 28 34.49 28H43.5088C50.4075 28 56 33.5925 56 40.4912V57.5088C56 64.4075 50.4075 70 43.5088 70H34.49C30.9057 70 28 67.0943 28 63.51V34.49Z" fill="white" stroke="url(#paint3_linear_118_2373)" stroke-opacity="0.3" stroke-width="1.30158"/>
</mask>
<g mask="url(#mask0_118_2373)">
<rect x="27" y="27.1923" width="14" height="43.6154" fill="#587ED7"/>
</g>
<defs>
<filter id="filter0_d_118_2373" x="0.297312" y="0.297343" width="215.168" height="104.168" filterUnits="userSpaceOnUse" color-interpolation-filters="sRGB">
<feFlood flood-opacity="0" result="BackgroundImageFix"/>
<feColorMatrix in="SourceAlpha" type="matrix" values="0 0 0 0 0 0 0 0 0 0 0 0 0 0 0 0 0 0 127 0" result="hardAlpha"/>
<feOffset dx="3.38149" dy="3.38149"/>
<feGaussianBlur stdDeviation="15.2167"/>
<feColorMatrix type="matrix" values="0 0 0 0 0 0 0 0 0 0 0 0 0 0 0 0 0 0 0.05 0"/>
<feBlend mode="normal" in2="BackgroundImageFix" result="effect1_dropShadow_118_2373"/>
<feBlend mode="normal" in="SourceGraphic" in2="effect1_dropShadow_118_2373" result="shape"/>
</filter>
<filter id="filter1_d_118_2373" x="52.2716" y="33" width="32" height="33.1694" filterUnits="userSpaceOnUse" color-interpolation-filters="sRGB">
<feFlood flood-opacity="0" result="BackgroundImageFix"/>
<feColorMatrix in="SourceAlpha" type="matrix" values="0 0 0 0 0 0 0 0 0 0 0 0 0 0 0 0 0 0 127 0" result="hardAlpha"/>
<feOffset dy="1.16938"/>
<feComposite in2="hardAlpha" operator="out"/>
<feColorMatrix type="matrix" values="0 0 0 0 0.176466 0 0 0 0 0.0360937 0 0 0 0 0.2625 0 0 0 1 0"/>
<feBlend mode="normal" in2="BackgroundImageFix" result="effect1_dropShadow_118_2373"/>
<feBlend mode="normal" in="SourceGraphic" in2="effect1_dropShadow_118_2373" result="shape"/>
</filter>
<linearGradient id="paint0_linear_118_2373" x1="62.8873" y1="12.8299" x2="136.884" y2="98.6413" gradientUnits="userSpaceOnUse">
<stop stop-color="#F1F1F1"/>
<stop offset="1" stop-color="#E1E1E1"/>
</linearGradient>
<linearGradient id="paint1_linear_118_2373" x1="75.0605" y1="55.5576" x2="78.3627" y2="46.2807" gradientUnits="userSpaceOnUse">
<stop stop-color="white" stop-opacity="0"/>
<stop offset="0.55" stop-color="white"/>
<stop offset="0.99" stop-color="white" stop-opacity="0"/>
</linearGradient>
<linearGradient id="paint2_linear_118_2373" x1="59.0569" y1="49.1879" x2="76.5856" y2="42.8332" gradientUnits="userSpaceOnUse">
<stop stop-color="white" stop-opacity="0"/>
<stop offset="0.55" stop-color="white"/>
<stop offset="0.99" stop-color="white" stop-opacity="0"/>
</linearGradient>
<linearGradient id="paint3_linear_118_2373" x1="34.3846" y1="12.8299" x2="64.7694" y2="19.2783" gradientUnits="userSpaceOnUse">
<stop stop-color="#F1F1F1"/>
<stop offset="1" stop-color="#E1E1E1"/>
</linearGradient>
</defs>
</svg>
