<svg width="216" height="105" viewBox="0 0 216 105" fill="none" xmlns="http://www.w3.org/2000/svg">
<g filter="url(#filter0_d_118_1881)">
<rect x="28.2632" y="28" width="153" height="42" rx="6.49" fill="white"/>
<rect x="28.2632" y="28" width="153" height="42" rx="6.49" stroke="url(#paint0_linear_118_1881)" stroke-opacity="0.3" stroke-width="1.30158"/>
</g>
<g filter="url(#filter1_di_118_1881)">
<mask id="path-3-outside-1_118_1881" maskUnits="userSpaceOnUse" x="54.089" y="31.0557" width="36" height="36" fill="black">
<rect fill="white" x="54.089" y="31.0557" width="36" height="36"/>
<path d="M68.2768 34.9434C68.4965 33.7007 69.6825 32.8714 70.9252 33.0909L86.56 35.8555C87.8029 36.0753 88.6323 37.2611 88.4125 38.504L84.601 60.0606C84.3812 61.3035 83.1955 62.1329 81.9526 61.9132L75.9731 60.8555C74.7336 62.3511 73.0536 63.5075 71.0463 64.1016C65.5964 65.7147 59.8105 62.5833 58.1235 57.1075C57.2781 54.3635 57.623 51.5515 58.8627 49.2257L56.2397 42.5977C55.8046 41.4976 56.3437 40.2528 57.4438 39.8175L68.1645 35.5743L68.2768 34.9434Z"/>
</mask>
<path d="M68.2768 34.9434C68.4965 33.7007 69.6825 32.8714 70.9252 33.0909L86.56 35.8555C87.8029 36.0753 88.6323 37.2611 88.4125 38.504L84.601 60.0606C84.3812 61.3035 83.1955 62.1329 81.9526 61.9132L75.9731 60.8555C74.7336 62.3511 73.0536 63.5075 71.0463 64.1016C65.5964 65.7147 59.8105 62.5833 58.1235 57.1075C57.2781 54.3635 57.623 51.5515 58.8627 49.2257L56.2397 42.5977C55.8046 41.4976 56.3437 40.2528 57.4438 39.8175L68.1645 35.5743L68.2768 34.9434Z" fill="url(#paint1_linear_118_1881)"/>
<path d="M68.2768 34.9434L69.8609 35.2254L69.8613 35.2236L68.2768 34.9434ZM70.9252 33.0909L71.2054 31.5064L71.2051 31.5064L70.9252 33.0909ZM86.56 35.8555L86.2798 37.44L86.2798 37.44L86.56 35.8555ZM88.4125 38.504L86.8281 38.2238L86.8281 38.2238L88.4125 38.504ZM84.601 60.0606L86.1855 60.3408L86.1855 60.3408L84.601 60.0606ZM81.9526 61.9132L81.6723 63.4976L81.6724 63.4976L81.9526 61.9132ZM75.9731 60.8555L76.2533 59.2711L75.3315 59.108L74.7342 59.8288L75.9731 60.8555ZM71.0463 64.1016L71.503 65.6445L71.503 65.6445L71.0463 64.1016ZM58.1235 57.1075L56.5857 57.5812L56.5857 57.5812L58.1235 57.1075ZM58.8627 49.2257L60.2827 49.9825L60.6328 49.3257L60.3589 48.6335L58.8627 49.2257ZM56.2397 42.5977L54.7434 43.1895L54.7435 43.1898L56.2397 42.5977ZM57.4438 39.8175L58.0359 41.3136L58.0359 41.3136L57.4438 39.8175ZM68.1645 35.5743L68.7566 37.0704L69.5913 36.7401L69.7486 35.8563L68.1645 35.5743ZM68.2768 34.9434L69.8613 35.2236C69.9262 34.8562 70.2772 34.6104 70.6453 34.6754L70.9252 33.0909L71.2051 31.5064C69.0878 31.1323 67.0669 32.5452 66.6923 34.6632L68.2768 34.9434ZM70.9252 33.0909L70.645 34.6754L86.2798 37.44L86.56 35.8555L86.8402 34.2711L71.2054 31.5064L70.9252 33.0909ZM86.56 35.8555L86.2798 37.44C86.6476 37.505 86.8931 37.856 86.8281 38.2238L88.4125 38.504L89.997 38.7841C90.3715 36.6662 88.9581 34.6456 86.8402 34.2711L86.56 35.8555ZM88.4125 38.504L86.8281 38.2238L83.0165 59.7805L84.601 60.0606L86.1855 60.3408L89.997 38.7841L88.4125 38.504ZM84.601 60.0606L83.0165 59.7804C82.9515 60.1482 82.6006 60.3937 82.2327 60.3287L81.9526 61.9132L81.6724 63.4976C83.7903 63.8721 85.811 62.4588 86.1855 60.3408L84.601 60.0606ZM81.9526 61.9132L82.2328 60.3287L76.2533 59.2711L75.9731 60.8555L75.6928 62.44L81.6723 63.4976L81.9526 61.9132ZM75.9731 60.8555L74.7342 59.8288C73.692 61.0863 72.281 62.0581 70.5896 62.5588L71.0463 64.1016L71.503 65.6445C73.8261 64.9569 75.7753 63.6158 77.212 61.8823L75.9731 60.8555ZM71.0463 64.1016L70.5897 62.5587C65.9967 63.9181 61.0922 61.2785 59.6612 56.6337L58.1235 57.1075L56.5857 57.5812C58.5288 63.8881 65.1961 67.5112 71.503 65.6445L71.0463 64.1016ZM58.1235 57.1075L59.6612 56.6337C58.9458 54.3116 59.2383 51.9418 60.2827 49.9825L58.8627 49.2257L57.4428 48.4688C56.0077 51.1612 55.6104 54.4153 56.5857 57.5812L58.1235 57.1075ZM58.8627 49.2257L60.3589 48.6335L57.7358 42.0056L56.2397 42.5977L54.7435 43.1898L57.3666 49.8178L58.8627 49.2257ZM56.2397 42.5977L57.736 42.006C57.6277 41.7322 57.7619 41.422 58.0359 41.3136L57.4438 39.8175L56.8517 38.3213C54.9255 39.0836 53.9816 41.2631 54.7434 43.1895L56.2397 42.5977ZM57.4438 39.8175L58.0359 41.3136L68.7566 37.0704L68.1645 35.5743L67.5723 34.0782L56.8516 38.3213L57.4438 39.8175ZM68.1645 35.5743L69.7486 35.8563L69.8609 35.2254L68.2768 34.9434L66.6926 34.6614L66.5803 35.2923L68.1645 35.5743Z" fill="#460860" mask="url(#path-3-outside-1_118_1881)"/>
</g>
<g filter="url(#filter2_i_118_1881)">
<rect x="55.4353" y="40.6034" width="18.8381" height="24.3788" rx="2.14244" transform="rotate(-21.5906 55.4353 40.6034)" fill="url(#paint2_linear_118_1881)"/>
</g>
<rect x="56.8735" y="41.226" width="16.6219" height="22.1625" rx="0.958458" transform="rotate(-21.5906 56.8735 41.226)" fill="#E74342"/>
<mask id="mask0_118_1881" style="mask-type:alpha" maskUnits="userSpaceOnUse" x="57" y="35" width="24" height="27">
<rect x="56.8735" y="41.226" width="16.6219" height="22.1625" rx="0.958458" transform="rotate(-21.5906 56.8735 41.226)" fill="url(#paint3_linear_118_1881)"/>
</mask>
<g mask="url(#mask0_118_1881)">
<path d="M65.1299 54.4896C65.501 53.6324 66.4974 53.2382 67.3546 53.6092L70.3663 54.9138C71.2236 55.2849 71.6175 56.2803 71.2464 57.1376L69.943 60.1498C69.5719 61.0071 68.5756 61.4013 67.7183 61.0302L64.7057 59.726C63.8489 59.3547 63.4547 58.3592 63.8257 57.5022L65.1299 54.4896ZM73.1225 51.3266C73.4936 50.4695 74.4892 50.0757 75.3463 50.4466L78.3589 51.7508C79.2161 52.1219 79.61 53.1174 79.239 53.9746L77.9347 56.9872C77.5636 57.8444 76.5681 58.2384 75.7109 57.8672L72.6983 56.563C71.8414 56.1917 71.4473 55.1963 71.8183 54.3392L73.1225 51.3266ZM74.5081 54.5413C73.982 54.7495 73.7238 55.3449 73.9317 55.8712C74.14 56.3975 74.736 56.6556 75.2624 56.4473C75.7882 56.2387 76.0458 55.643 75.8376 55.1169C75.6292 54.5912 75.0341 54.3337 74.5081 54.5413ZM67.0327 56.129C66.5066 56.3372 66.2485 56.9327 66.4562 57.4589C66.6645 57.9853 67.2606 58.2433 67.787 58.035C68.3128 57.8264 68.5704 57.2307 68.3622 56.7046C68.1537 56.179 67.5586 55.9214 67.0327 56.129ZM75.7113 51.8597C75.185 52.0679 74.9271 52.6641 75.1351 53.1904C75.3434 53.7168 75.9395 53.9749 76.4659 53.7666C76.9918 53.558 77.2493 52.9623 77.0411 52.4362C76.8327 51.9103 76.2373 51.6519 75.7113 51.8597ZM62.069 46.7548C62.4401 45.8978 63.4357 45.5041 64.2928 45.8748L67.3054 47.1791C68.1626 47.5502 68.5566 48.5456 68.1854 49.4029L66.8812 52.4154C66.51 53.2726 65.5146 53.6666 64.6574 53.2955L61.6448 51.9912C60.788 51.6199 60.3938 50.6245 60.7648 49.7674L62.069 46.7548ZM70.0616 43.5919C70.4327 42.7348 71.4283 42.341 72.2854 42.7118L75.298 44.0161C76.1552 44.3872 76.5491 45.3827 76.178 46.2399L74.8738 49.2525C74.5027 50.1097 73.5072 50.5036 72.65 50.1325L69.6374 48.8283C68.7804 48.457 68.3863 47.4616 68.7574 46.6045L70.0616 43.5919ZM64.8917 50.7189C64.3655 50.9272 64.1076 51.5234 64.3156 52.0497C64.524 52.576 65.12 52.8341 65.6464 52.6258C66.1722 52.4172 66.4297 51.8215 66.2216 51.2954C66.0132 50.7696 65.4178 50.5112 64.8917 50.7189ZM72.1228 45.6528C71.5966 45.8611 71.3387 46.4573 71.5467 46.9836C71.755 47.5099 72.3511 47.768 72.8774 47.5597C73.4032 47.3511 73.6608 46.7554 73.4527 46.2293C73.2443 45.7035 72.6488 45.4452 72.1228 45.6528ZM61.892 49.4631C61.3658 49.6714 61.1079 50.2676 61.3159 50.7939C61.5243 51.3201 62.12 51.5774 62.6463 51.3691C63.172 51.1605 63.4299 50.5657 63.2219 50.0396C63.0135 49.5138 62.4181 49.2555 61.892 49.4631ZM66.3224 47.7099C65.7961 47.9181 65.5383 48.5144 65.7462 49.0406C65.9546 49.5669 66.5503 49.8241 67.0766 49.6158C67.6026 49.4074 67.8603 48.8125 67.6522 48.2864C67.4438 47.7605 66.8485 47.502 66.3224 47.7099ZM63.2607 46.5973C62.7344 46.8055 62.4766 47.4018 62.6845 47.9281C62.8928 48.4544 63.4889 48.7125 64.0153 48.5042C64.5411 48.2956 64.7987 47.6999 64.5905 47.1738C64.3821 46.648 63.7867 46.3896 63.2607 46.5973ZM67.0007 35.8572C67.3719 35.0003 68.3675 34.6064 69.2245 34.9771L72.2371 36.2814C73.0943 36.6525 73.4886 37.6488 73.1175 38.5061L71.8132 41.5187C71.442 42.3755 70.4464 42.7694 69.5894 42.3987L66.5768 41.0945C65.7197 40.7233 65.3253 39.7269 65.6964 38.8697L67.0007 35.8572ZM59.0081 39.0201C59.3792 38.1631 60.3748 37.7693 61.2319 38.1401L64.2445 39.4443C65.1017 39.8155 65.4956 40.8109 65.1245 41.6681L63.8203 44.6807C63.4491 45.5379 62.4537 45.9319 61.5965 45.5608L58.5839 44.2565C57.727 43.8852 57.3328 42.8898 57.7038 42.0327L59.0081 39.0201ZM69.8386 39.8835C69.3128 40.0918 69.0553 40.6869 69.263 41.213C69.4713 41.7392 70.0666 41.9975 70.5929 41.7895C71.119 41.581 71.3773 40.9849 71.169 40.4587C70.9605 39.933 70.3646 39.6756 69.8386 39.8835ZM61.7717 42.8374C61.2458 43.0457 60.9885 43.6409 61.1961 44.1669C61.4044 44.6932 61.9997 44.9515 62.526 44.7434C63.0521 44.535 63.3104 43.9389 63.1021 43.4127C62.8935 42.887 62.2977 42.6295 61.7717 42.8374ZM66.6132 38.6571C66.0871 38.8653 65.829 39.4608 66.0367 39.987C66.245 40.5134 66.8411 40.7714 67.3675 40.5631C67.8933 40.3545 68.1509 39.7589 67.9427 39.2327C67.7342 38.7072 67.1391 38.4495 66.6132 38.6571ZM68.9832 37.7192C68.4571 37.9274 68.199 38.5229 68.4067 39.0491C68.615 39.5755 69.2111 39.8335 69.7375 39.6252C70.2633 39.4166 70.5209 38.8209 70.3127 38.2948C70.1042 37.7693 69.5091 37.5116 68.9832 37.7192ZM71.3532 36.7813C70.8271 36.9895 70.569 37.585 70.7767 38.1112C70.985 38.6376 71.5811 38.8956 72.1075 38.6873C72.6334 38.4788 72.8909 37.8831 72.6827 37.3569C72.4742 36.8313 71.8791 36.5736 71.3532 36.7813ZM60.2833 39.0763C59.7573 39.2847 59.5001 39.8806 59.7081 40.4067C59.9164 40.9328 60.5114 41.1903 61.0376 40.9823C61.5636 40.7739 61.8221 40.1786 61.614 39.6525C61.4056 39.1265 60.8094 38.8684 60.2833 39.0763ZM68.1269 35.5554C67.6006 35.7636 67.3427 36.3599 67.5507 36.8861C67.7592 37.4123 68.3549 37.6696 68.8811 37.4614C69.4068 37.2528 69.6647 36.6579 69.4567 36.1319C69.2484 35.6061 68.6529 35.3477 68.1269 35.5554Z" fill="#FFA09F" style="mix-blend-mode:overlay"/>
</g>
<mask id="mask1_118_1881" style="mask-type:alpha" maskUnits="userSpaceOnUse" x="56" y="34" width="26" height="29">
<rect x="55.4358" y="40.6033" width="18.8381" height="24.3788" rx="2.14244" transform="rotate(-21.5906 55.4358 40.6033)" fill="url(#paint4_linear_118_1881)"/>
</mask>
<g mask="url(#mask1_118_1881)">
<path d="M65.6593 53.1417L64.4533 33.9626L68.5324 32.1811L79.2737 46.6449L78.7052 57.5474L69.493 60.0415L65.6593 53.1417Z" fill="#A56363" style="mix-blend-mode:multiply"/>
</g>
<g filter="url(#filter3_i_118_1881)">
<rect x="68.6588" y="32.6896" width="20.4479" height="26.462" rx="2.28536" transform="rotate(10.0275 68.6588 32.6896)" fill="url(#paint5_linear_118_1881)"/>
</g>
<rect x="69.6339" y="34.0835" width="18.0423" height="24.0564" rx="1.0224" transform="rotate(10.0275 69.6339 34.0835)" fill="#E74342"/>
<mask id="mask2_118_1881" style="mask-type:alpha" maskUnits="userSpaceOnUse" x="65" y="34" width="23" height="27">
<rect x="69.6339" y="34.0835" width="18.0423" height="24.0564" rx="1.0224" transform="rotate(10.0275 69.6339 34.0835)" fill="url(#paint6_linear_118_1881)"/>
</mask>
<g mask="url(#mask2_118_1881)">
<path d="M69.7443 51.024C70.5608 50.453 71.686 50.6519 72.2571 51.4683L74.3359 54.4401C74.9069 55.2565 74.7079 56.3817 73.8915 56.9529L70.9197 59.0316C70.1032 59.6027 68.9781 59.4038 68.407 58.5873L66.3282 55.6155C65.7572 54.799 65.9561 53.6739 66.7725 53.1027L69.7443 51.024ZM78.9319 52.6485C79.7484 52.0775 80.8735 52.2764 81.4447 53.0928L83.5234 56.0647C84.0943 56.8811 83.8954 58.0063 83.0791 58.5774L80.1073 60.6562C79.2909 61.2272 78.1657 61.0281 77.5945 60.2119L75.5158 57.2401C74.9447 56.4236 75.1436 55.2984 75.9601 54.7273L78.9319 52.6485ZM78.3571 56.4265C77.7521 56.3195 77.1743 56.723 77.0671 57.3279C76.9602 57.933 77.3645 58.5111 77.9696 58.6181C78.5744 58.7246 79.1517 58.3203 79.2587 57.7155C79.3655 57.1107 78.9617 56.5338 78.3571 56.4265ZM70.5431 53.6405C69.938 53.5335 69.3611 53.9371 69.2541 54.5422C69.1472 55.1472 69.5507 55.7242 70.1558 55.8312C70.7607 55.938 71.3378 55.5345 71.4448 54.9295C71.5517 54.3245 71.148 53.7476 70.5431 53.6405ZM80.9948 54.6328C80.3898 54.5258 79.8117 54.9301 79.7047 55.5352C79.5979 56.1402 80.0023 56.7174 80.6073 56.8244C81.2121 56.931 81.7892 56.5274 81.8963 55.9227C82.0033 55.3178 81.5996 54.74 80.9948 54.6328ZM71.3165 42.1326C72.133 41.5616 73.2582 41.7605 73.8293 42.5769L75.908 45.5487C76.4791 46.3652 76.2801 47.4903 75.4637 48.0615L72.4919 50.1403C71.6754 50.7113 70.5503 50.5123 69.9791 49.6959L67.9004 46.7241C67.3293 45.9077 67.5283 44.7825 68.3447 44.2114L71.3165 42.1326ZM80.5041 43.7572C81.3204 43.1864 82.4447 43.3852 83.0159 44.2013L85.0946 47.1731C85.6658 47.9896 85.4668 49.1147 84.6503 49.6859L81.6785 51.7646C80.8621 52.3354 79.7378 52.1366 79.1667 51.3205L77.0879 48.3487C76.5169 47.5322 76.7158 46.4071 77.5323 45.8359L80.5041 43.7572ZM71.6428 47.4216C71.0378 47.3146 70.461 47.7184 70.3538 48.3232C70.2468 48.9283 70.6502 49.5062 71.2552 49.6132C71.8602 49.72 72.4374 49.3155 72.5444 48.7106C72.6511 48.1057 72.2476 47.5287 71.6428 47.4216ZM81.2101 46.8532C80.6051 46.7462 80.027 47.1505 79.92 47.7556C79.8132 48.3606 80.2176 48.9378 80.8226 49.0448C81.4273 49.1513 82.0045 48.7478 82.1116 48.1431C82.2186 47.5383 81.8148 46.9605 81.2101 46.8532ZM69.5853 44.5537C68.9802 44.4467 68.4022 44.851 68.2952 45.4561C68.1885 46.0611 68.5928 46.6383 69.1978 46.7453C69.8025 46.8518 70.3796 46.4483 70.4868 45.8436C70.5937 45.2388 70.19 44.661 69.5853 44.5537ZM74.6782 45.4542C74.0731 45.3472 73.495 45.7516 73.388 46.3567C73.2813 46.9616 73.6857 47.5389 74.2906 47.6458C74.8953 47.7524 75.4725 47.3488 75.5796 46.7442C75.6866 46.1393 75.2829 45.5615 74.6782 45.4542ZM72.4805 42.6835C71.8755 42.5766 71.2984 42.9811 71.1914 43.5861C71.0845 44.1911 71.488 44.7682 72.093 44.8751C72.6979 44.9819 73.2749 44.5783 73.382 43.9735C73.489 43.3685 73.0855 42.7907 72.4805 42.6835ZM72.8887 33.2412C73.7051 32.6703 74.8303 32.8692 75.4015 33.6856L77.4802 36.6574C78.0513 37.4738 77.8523 38.5989 77.0359 39.1701L74.0641 41.2489C73.2476 41.82 72.1225 41.6211 71.5513 40.8046L69.4726 37.8328C68.9016 37.0163 69.1005 35.8911 69.9169 35.32L72.8887 33.2412ZM82.0762 34.8658C82.8926 34.2951 84.0169 34.494 84.5881 35.3099L86.6668 38.2817C87.238 39.0983 87.039 40.2234 86.2225 40.7945L83.2507 42.8733C82.4343 43.4441 81.31 43.2454 80.7389 42.4291L78.6601 39.4573C78.0891 38.6408 78.288 37.5157 79.1044 36.9446L82.0762 34.8658ZM82.3819 40.2205C81.7771 40.1138 81.2001 40.5175 81.093 41.1222C80.986 41.7271 81.3896 42.3049 81.9944 42.4121C82.5994 42.519 83.1775 42.1147 83.2845 41.5097C83.3913 40.9048 82.9868 40.3276 82.3819 40.2205ZM73.2449 38.361C72.6398 38.254 72.0629 38.6576 71.9559 39.2626C71.8489 39.8677 72.2525 40.4446 72.8575 40.5516C73.4625 40.6584 74.0395 40.2549 74.1465 39.6499C74.2534 39.045 73.8498 38.468 73.2449 38.361ZM80.0985 37.2512C79.4934 37.1442 78.9153 37.5486 78.8083 38.1537C78.7016 38.7586 79.106 39.3358 79.7109 39.4428C80.3157 39.5494 80.8928 39.1458 80.9999 38.5412C81.1069 37.9363 80.7032 37.3585 80.0985 37.2512ZM82.8217 37.7337C82.2167 37.627 81.6397 38.0304 81.5327 38.6354C81.4258 39.2403 81.8295 39.8172 82.4343 39.9244C83.0393 40.0312 83.6172 39.6278 83.7243 39.0229C83.8312 38.4179 83.4266 37.8408 82.8217 37.7337ZM85.546 38.2155C84.9411 38.1087 84.364 38.5121 84.257 39.1171C84.1502 39.722 84.5539 40.2989 85.1587 40.4061C85.7636 40.5129 86.3416 40.1095 86.4486 39.5046C86.5556 38.8996 86.151 38.3226 85.546 38.2155ZM74.0094 34.0374C73.4044 33.9304 72.8275 34.3341 72.7204 34.939C72.6134 35.5441 73.0168 36.122 73.6219 36.229C74.2268 36.3358 74.804 35.9314 74.911 35.3264C75.0178 34.7215 74.6143 34.1445 74.0094 34.0374ZM83.2625 35.2461C82.6576 35.1392 82.0797 35.5427 81.9726 36.1476C81.8656 36.7527 82.2699 37.3307 82.875 37.4377C83.4798 37.5443 84.0572 37.1399 84.1642 36.5351C84.2709 35.9304 83.8671 35.3534 83.2625 35.2461Z" fill="#FFA09F" style="mix-blend-mode:overlay"/>
</g>
<mask id="mask3_118_1881" style="mask-type:alpha" maskUnits="userSpaceOnUse" x="57" y="43" width="22" height="22">
<ellipse cx="10.2912" cy="10.3748" rx="10.2912" ry="10.3748" transform="matrix(0.958878 -0.283819 0.294432 0.955673 55.0529 47.1891)" fill="url(#paint7_radial_118_1881)"/>
</mask>
<g mask="url(#mask3_118_1881)">
<g filter="url(#filter4_i_118_1881)">
<ellipse cx="10.2912" cy="10.3748" rx="10.2912" ry="10.3748" transform="matrix(0.958878 -0.283819 0.294432 0.955673 55.0529 47.1891)" fill="url(#paint8_radial_118_1881)"/>
</g>
<ellipse cx="6.13279" cy="6.21464" rx="6.13279" ry="6.21464" transform="matrix(0.624618 -0.780931 0.778705 0.62739 58.8061 53.4521)" fill="url(#paint9_linear_118_1881)"/>
<path d="M62.4839 48.5397C64.6688 45.8081 68.6744 45.3996 71.4296 47.6194C74.1847 49.8392 74.6535 53.8527 72.4687 56.5843C70.2839 59.3158 66.2783 59.7243 63.523 57.5046C60.7678 55.2847 60.2991 51.2713 62.4839 48.5397Z" stroke="black" stroke-opacity="0.36" stroke-width="0.392594"/>
<path d="M68.015 57.1171C67.6091 57.1856 67.3561 56.9564 67.2788 56.559L67.1461 55.9453C67.0523 55.5131 67.2552 55.2853 67.6874 55.1915C68.042 55.1047 68.4757 54.9422 68.8184 54.6142C69.2315 54.219 69.4533 53.5184 68.9572 53C68.4862 52.5079 67.7781 52.63 67.207 53.1766C67.0048 53.37 66.8627 53.5733 66.7642 53.7518C66.5942 54.0492 66.4349 54.2521 66.1223 54.3829L65.992 54.4402C65.6275 54.5871 65.3278 54.5203 65.0851 54.2138L62.9739 51.6382C62.7059 51.3054 62.7215 50.9875 63.0291 50.6932L65.595 48.2376C65.9114 47.9349 66.2381 47.9421 66.5409 48.2584L66.8772 48.6099C67.18 48.9263 67.1728 49.253 66.8564 49.5558L65.1605 51.1788L65.6803 51.7924C65.7981 51.9154 65.8806 52.0721 65.8806 52.0721L65.8982 52.0553C65.8982 52.0553 66.059 51.7835 66.2963 51.5564C67.7902 50.1269 69.4373 50.3351 70.5221 51.4687C71.7667 52.7693 71.7087 54.6262 70.3378 55.938C69.4942 56.7453 68.6019 57.0268 68.015 57.1171Z" fill="url(#paint10_linear_118_1881)"/>
</g>
<g style="mix-blend-mode:overlay">
<path d="M61.8242 47.5669C65.1064 44.4261 69.8887 44.0968 72.5055 46.8313C75.122 49.5659 74.5823 54.3284 71.3004 57.4692C68.0184 60.6101 63.2361 60.9404 60.6191 58.2062C58.0023 55.4716 58.542 50.7079 61.8242 47.5669Z" fill="url(#paint11_linear_118_1881)"/>
</g>
<path d="M96.136 52.5V44.745H101.262V45.9H97.566V48.056H101.031V49.2H97.566V52.5H96.136ZM104.473 52.61C104.084 52.61 103.736 52.5367 103.428 52.39C103.12 52.236 102.878 52.0307 102.702 51.774C102.526 51.51 102.438 51.2167 102.438 50.894C102.438 50.498 102.544 50.1827 102.757 49.948C102.97 49.7133 103.311 49.5447 103.78 49.442C104.249 49.332 104.873 49.277 105.65 49.277H106.244V50.091H105.672C105.327 50.091 105.038 50.1057 104.803 50.135C104.568 50.157 104.378 50.1973 104.231 50.256C104.084 50.3073 103.978 50.3807 103.912 50.476C103.846 50.5713 103.813 50.6887 103.813 50.828C103.813 51.07 103.897 51.2643 104.066 51.411C104.242 51.5577 104.48 51.631 104.781 51.631C105.023 51.631 105.239 51.576 105.43 51.466C105.628 51.3487 105.786 51.191 105.903 50.993C106.02 50.7877 106.079 50.5603 106.079 50.311V49.057C106.079 48.6903 105.991 48.43 105.815 48.276C105.639 48.122 105.353 48.045 104.957 48.045C104.656 48.045 104.348 48.089 104.033 48.177C103.718 48.265 103.395 48.4043 103.065 48.595L102.658 47.638C102.863 47.506 103.098 47.3923 103.362 47.297C103.626 47.1943 103.905 47.1173 104.198 47.066C104.491 47.0147 104.774 46.989 105.045 46.989C105.573 46.989 106.009 47.0697 106.354 47.231C106.706 47.385 106.97 47.627 107.146 47.957C107.322 48.287 107.41 48.7123 107.41 49.233V52.5H106.134V51.356H106.2C106.134 51.6127 106.02 51.8363 105.859 52.027C105.705 52.2103 105.511 52.3533 105.276 52.456C105.049 52.5587 104.781 52.61 104.473 52.61ZM109.474 52.5V47.099H110.816V48.188H110.728C110.823 47.9387 110.955 47.726 111.124 47.55C111.3 47.3667 111.505 47.2273 111.74 47.132C111.982 47.0367 112.246 46.989 112.532 46.989C112.972 46.989 113.331 47.0917 113.61 47.297C113.896 47.5023 114.094 47.814 114.204 48.232H114.083C114.23 47.8507 114.468 47.55 114.798 47.33C115.135 47.1027 115.528 46.989 115.975 46.989C116.393 46.989 116.738 47.0697 117.009 47.231C117.28 47.3923 117.482 47.638 117.614 47.968C117.753 48.298 117.823 48.7197 117.823 49.233V52.5H116.426V49.288C116.426 48.8773 116.356 48.5767 116.217 48.386C116.085 48.1953 115.854 48.1 115.524 48.1C115.282 48.1 115.069 48.1587 114.886 48.276C114.71 48.386 114.574 48.5473 114.479 48.76C114.391 48.9727 114.347 49.2257 114.347 49.519V52.5H112.95V49.288C112.95 48.8773 112.88 48.5767 112.741 48.386C112.602 48.1953 112.374 48.1 112.059 48.1C111.81 48.1 111.597 48.1587 111.421 48.276C111.245 48.3933 111.109 48.5583 111.014 48.771C110.919 48.9763 110.871 49.222 110.871 49.508V52.5H109.474ZM119.8 45.955V44.58H121.373V45.955H119.8ZM119.888 52.5V47.099H121.296V52.5H119.888ZM125.233 52.61C124.595 52.61 124.122 52.4377 123.814 52.093C123.506 51.7483 123.352 51.246 123.352 50.586V44.745H124.76V50.509C124.76 50.7143 124.789 50.8903 124.848 51.037C124.906 51.1837 124.994 51.2937 125.112 51.367C125.236 51.433 125.387 51.466 125.563 51.466C125.651 51.466 125.735 51.4623 125.816 51.455C125.904 51.4477 125.988 51.433 126.069 51.411V52.5C125.929 52.5367 125.794 52.5623 125.662 52.577C125.53 52.599 125.387 52.61 125.233 52.61ZM127.87 54.48L129.003 51.994V52.687L126.594 47.099H128.079L129.718 51.235H129.454L131.104 47.099H132.523L129.322 54.48H127.87ZM141.257 52.61C140.406 52.61 139.684 52.4487 139.09 52.126C138.503 51.8033 138.052 51.345 137.737 50.751C137.429 50.157 137.275 49.453 137.275 48.639C137.275 47.8103 137.433 47.099 137.748 46.505C138.063 45.9037 138.518 45.4417 139.112 45.119C139.706 44.7963 140.417 44.635 141.246 44.635C141.613 44.635 141.965 44.6717 142.302 44.745C142.639 44.811 142.951 44.91 143.237 45.042C143.53 45.174 143.78 45.3353 143.985 45.526L143.512 46.637C143.167 46.3657 142.812 46.175 142.445 46.065C142.078 45.9477 141.679 45.889 141.246 45.889C140.439 45.889 139.823 46.1237 139.398 46.593C138.98 47.0623 138.771 47.7443 138.771 48.639C138.771 49.541 138.987 50.2267 139.42 50.696C139.853 51.158 140.491 51.389 141.334 51.389C141.642 51.389 141.946 51.3597 142.247 51.301C142.555 51.2423 142.848 51.1617 143.127 51.059L142.83 51.697V49.354H141.07V48.265H144.04V52.038C143.805 52.1553 143.534 52.258 143.226 52.346C142.918 52.4267 142.595 52.489 142.258 52.533C141.921 52.5843 141.587 52.61 141.257 52.61ZM147.981 52.61C147.593 52.61 147.244 52.5367 146.936 52.39C146.628 52.236 146.386 52.0307 146.21 51.774C146.034 51.51 145.946 51.2167 145.946 50.894C145.946 50.498 146.053 50.1827 146.265 49.948C146.478 49.7133 146.819 49.5447 147.288 49.442C147.758 49.332 148.381 49.277 149.158 49.277H149.752V50.091H149.18C148.836 50.091 148.546 50.1057 148.311 50.135C148.077 50.157 147.886 50.1973 147.739 50.256C147.593 50.3073 147.486 50.3807 147.42 50.476C147.354 50.5713 147.321 50.6887 147.321 50.828C147.321 51.07 147.406 51.2643 147.574 51.411C147.75 51.5577 147.989 51.631 148.289 51.631C148.531 51.631 148.748 51.576 148.938 51.466C149.136 51.3487 149.294 51.191 149.411 50.993C149.529 50.7877 149.587 50.5603 149.587 50.311V49.057C149.587 48.6903 149.499 48.43 149.323 48.276C149.147 48.122 148.861 48.045 148.465 48.045C148.165 48.045 147.857 48.089 147.541 48.177C147.226 48.265 146.903 48.4043 146.573 48.595L146.166 47.638C146.372 47.506 146.606 47.3923 146.87 47.297C147.134 47.1943 147.413 47.1173 147.706 47.066C148 47.0147 148.282 46.989 148.553 46.989C149.081 46.989 149.518 47.0697 149.862 47.231C150.214 47.385 150.478 47.627 150.654 47.957C150.83 48.287 150.918 48.7123 150.918 49.233V52.5H149.642V51.356H149.708C149.642 51.6127 149.529 51.8363 149.367 52.027C149.213 52.2103 149.019 52.3533 148.784 52.456C148.557 52.5587 148.289 52.61 147.981 52.61ZM152.983 52.5V47.099H154.325V48.188H154.237C154.332 47.9387 154.464 47.726 154.633 47.55C154.809 47.3667 155.014 47.2273 155.249 47.132C155.491 47.0367 155.755 46.989 156.041 46.989C156.481 46.989 156.84 47.0917 157.119 47.297C157.405 47.5023 157.603 47.814 157.713 48.232H157.592C157.738 47.8507 157.977 47.55 158.307 47.33C158.644 47.1027 159.036 46.989 159.484 46.989C159.902 46.989 160.246 47.0697 160.518 47.231C160.789 47.3923 160.991 47.638 161.123 47.968C161.262 48.298 161.332 48.7197 161.332 49.233V52.5H159.935V49.288C159.935 48.8773 159.865 48.5767 159.726 48.386C159.594 48.1953 159.363 48.1 159.033 48.1C158.791 48.1 158.578 48.1587 158.395 48.276C158.219 48.386 158.083 48.5473 157.988 48.76C157.9 48.9727 157.856 49.2257 157.856 49.519V52.5H156.459V49.288C156.459 48.8773 156.389 48.5767 156.25 48.386C156.11 48.1953 155.883 48.1 155.568 48.1C155.318 48.1 155.106 48.1587 154.93 48.276C154.754 48.3933 154.618 48.5583 154.523 48.771C154.427 48.9763 154.38 49.222 154.38 49.508V52.5H152.983ZM166.102 52.61C165.479 52.61 164.944 52.4963 164.496 52.269C164.049 52.0417 163.704 51.719 163.462 51.301C163.22 50.8757 163.099 50.377 163.099 49.805C163.099 49.2477 163.213 48.76 163.44 48.342C163.675 47.9167 163.998 47.5867 164.408 47.352C164.826 47.11 165.303 46.989 165.838 46.989C166.359 46.989 166.806 47.099 167.18 47.319C167.554 47.539 167.844 47.8543 168.049 48.265C168.255 48.6683 168.357 49.156 168.357 49.728V50.135H164.221V49.321H167.367L167.191 49.486C167.191 48.9873 167.078 48.606 166.85 48.342C166.623 48.078 166.3 47.946 165.882 47.946C165.582 47.946 165.321 48.0157 165.101 48.155C164.881 48.2943 164.713 48.4923 164.595 48.749C164.478 49.0057 164.419 49.31 164.419 49.662V49.761C164.419 50.1643 164.482 50.498 164.606 50.762C164.738 51.0187 164.933 51.213 165.189 51.345C165.446 51.477 165.761 51.543 166.135 51.543C166.436 51.543 166.737 51.499 167.037 51.411C167.338 51.323 167.613 51.18 167.862 50.982L168.258 51.928C167.987 52.148 167.657 52.3167 167.268 52.434C166.88 52.5513 166.491 52.61 166.102 52.61ZM172.085 52.61C171.785 52.61 171.488 52.5843 171.194 52.533C170.908 52.4817 170.644 52.412 170.402 52.324C170.168 52.2287 169.959 52.1113 169.775 51.972L170.138 51.048C170.322 51.1653 170.52 51.268 170.732 51.356C170.952 51.4367 171.176 51.499 171.403 51.543C171.638 51.587 171.865 51.609 172.085 51.609C172.452 51.609 172.723 51.554 172.899 51.444C173.083 51.3267 173.174 51.169 173.174 50.971C173.174 50.8023 173.116 50.674 172.998 50.586C172.888 50.498 172.716 50.432 172.481 50.388L171.348 50.19C170.879 50.102 170.523 49.9297 170.281 49.673C170.039 49.4163 169.918 49.0937 169.918 48.705C169.918 48.353 170.014 48.0487 170.204 47.792C170.395 47.5353 170.666 47.3373 171.018 47.198C171.37 47.0587 171.781 46.989 172.25 46.989C172.514 46.989 172.771 47.011 173.02 47.055C173.27 47.099 173.504 47.1687 173.724 47.264C173.944 47.352 174.135 47.4693 174.296 47.616L173.911 48.54C173.772 48.4227 173.607 48.3237 173.416 48.243C173.233 48.1623 173.042 48.1 172.844 48.056C172.646 48.012 172.452 47.99 172.261 47.99C171.895 47.99 171.62 48.0487 171.436 48.166C171.26 48.2833 171.172 48.4447 171.172 48.65C171.172 48.804 171.224 48.9287 171.326 49.024C171.436 49.1193 171.601 49.1853 171.821 49.222L172.932 49.431C173.431 49.519 173.805 49.684 174.054 49.926C174.311 50.168 174.439 50.4907 174.439 50.894C174.439 51.2533 174.34 51.5613 174.142 51.818C173.952 52.0747 173.68 52.2727 173.328 52.412C172.976 52.544 172.562 52.61 172.085 52.61Z" fill="#202224"/>
<mask id="mask4_118_1881" style="mask-type:alpha" maskUnits="userSpaceOnUse" x="27" y="27" width="30" height="44">
<path d="M28.2632 34.49C28.2632 30.9057 31.1689 28 34.7532 28H43.772C50.6707 28 56.2632 33.5925 56.2632 40.4912V57.5088C56.2632 64.4075 50.6707 70 43.772 70H34.7532C31.1689 70 28.2632 67.0943 28.2632 63.51V34.49Z" fill="white" stroke="url(#paint12_linear_118_1881)" stroke-opacity="0.3" stroke-width="1.30158"/>
</mask>
<g mask="url(#mask4_118_1881)">
<rect x="27.2632" y="27.1923" width="14" height="43.6154" fill="#587ED7"/>
</g>
<defs>
<filter id="filter0_d_118_1881" x="0.560465" y="0.297343" width="215.168" height="104.168" filterUnits="userSpaceOnUse" color-interpolation-filters="sRGB">
<feFlood flood-opacity="0" result="BackgroundImageFix"/>
<feColorMatrix in="SourceAlpha" type="matrix" values="0 0 0 0 0 0 0 0 0 0 0 0 0 0 0 0 0 0 127 0" result="hardAlpha"/>
<feOffset dx="3.38149" dy="3.38149"/>
<feGaussianBlur stdDeviation="15.2167"/>
<feColorMatrix type="matrix" values="0 0 0 0 0 0 0 0 0 0 0 0 0 0 0 0 0 0 0.05 0"/>
<feBlend mode="normal" in2="BackgroundImageFix" result="effect1_dropShadow_118_1881"/>
<feBlend mode="normal" in="SourceGraphic" in2="effect1_dropShadow_118_1881" result="shape"/>
</filter>
<filter id="filter1_di_118_1881" x="54.4795" y="31.4463" width="35.5776" height="36.225" filterUnits="userSpaceOnUse" color-interpolation-filters="sRGB">
<feFlood flood-opacity="0" result="BackgroundImageFix"/>
<feColorMatrix in="SourceAlpha" type="matrix" values="0 0 0 0 0 0 0 0 0 0 0 0 0 0 0 0 0 0 127 0" result="hardAlpha"/>
<feOffset dy="1.53591"/>
<feComposite in2="hardAlpha" operator="out"/>
<feColorMatrix type="matrix" values="0 0 0 0 0.176471 0 0 0 0 0.0352941 0 0 0 0 0.262745 0 0 0 1 0"/>
<feBlend mode="normal" in2="BackgroundImageFix" result="effect1_dropShadow_118_1881"/>
<feBlend mode="normal" in="SourceGraphic" in2="effect1_dropShadow_118_1881" result="shape"/>
<feColorMatrix in="SourceAlpha" type="matrix" values="0 0 0 0 0 0 0 0 0 0 0 0 0 0 0 0 0 0 127 0" result="hardAlpha"/>
<feOffset dx="0.240564" dy="-0.420987"/>
<feComposite in2="hardAlpha" operator="arithmetic" k2="-1" k3="1"/>
<feColorMatrix type="matrix" values="0 0 0 0 0 0 0 0 0 0 0 0 0 0 0 0 0 0 0.25 0"/>
<feBlend mode="normal" in2="shape" result="effect2_innerShadow_118_1881"/>
</filter>
<filter id="filter2_i_118_1881" x="56.0728" y="34.309" width="25.2122" height="28.3252" filterUnits="userSpaceOnUse" color-interpolation-filters="sRGB">
<feFlood flood-opacity="0" result="BackgroundImageFix"/>
<feBlend mode="normal" in="SourceGraphic" in2="BackgroundImageFix" result="shape"/>
<feColorMatrix in="SourceAlpha" type="matrix" values="0 0 0 0 0 0 0 0 0 0 0 0 0 0 0 0 0 0 127 0" result="hardAlpha"/>
<feOffset dx="0.22552" dy="-0.394659"/>
<feComposite in2="hardAlpha" operator="arithmetic" k2="-1" k3="1"/>
<feColorMatrix type="matrix" values="0 0 0 0 0 0 0 0 0 0 0 0 0 0 0 0 0 0 0.25 0"/>
<feBlend mode="normal" in2="shape" result="effect1_innerShadow_118_1881"/>
</filter>
<filter id="filter3_i_118_1881" x="64.4138" y="33.0522" width="24.0179" height="28.8929" filterUnits="userSpaceOnUse" color-interpolation-filters="sRGB">
<feFlood flood-opacity="0" result="BackgroundImageFix"/>
<feBlend mode="normal" in="SourceGraphic" in2="BackgroundImageFix" result="shape"/>
<feColorMatrix in="SourceAlpha" type="matrix" values="0 0 0 0 0 0 0 0 0 0 0 0 0 0 0 0 0 0 127 0" result="hardAlpha"/>
<feOffset dx="0.240564" dy="-0.420987"/>
<feComposite in2="hardAlpha" operator="arithmetic" k2="-1" k3="1"/>
<feColorMatrix type="matrix" values="0 0 0 0 0 0 0 0 0 0 0 0 0 0 0 0 0 0 0.25 0"/>
<feBlend mode="normal" in2="shape" result="effect1_innerShadow_118_1881"/>
</filter>
<filter id="filter4_i_118_1881" x="57.6428" y="42.7973" width="20.6654" height="21.7248" filterUnits="userSpaceOnUse" color-interpolation-filters="sRGB">
<feFlood flood-opacity="0" result="BackgroundImageFix"/>
<feBlend mode="normal" in="SourceGraphic" in2="BackgroundImageFix" result="shape"/>
<feColorMatrix in="SourceAlpha" type="matrix" values="0 0 0 0 0 0 0 0 0 0 0 0 0 0 0 0 0 0 127 0" result="hardAlpha"/>
<feOffset dy="-1.04692"/>
<feGaussianBlur stdDeviation="1.76667"/>
<feComposite in2="hardAlpha" operator="arithmetic" k2="-1" k3="1"/>
<feColorMatrix type="matrix" values="0 0 0 0 0 0 0 0 0 0 0 0 0 0 0 0 0 0 0.35 0"/>
<feBlend mode="normal" in2="shape" result="effect1_innerShadow_118_1881"/>
</filter>
<linearGradient id="paint0_linear_118_1881" x1="63.1505" y1="12.8299" x2="137.147" y2="98.6413" gradientUnits="userSpaceOnUse">
<stop stop-color="#F1F1F1"/>
<stop offset="1" stop-color="#E1E1E1"/>
</linearGradient>
<linearGradient id="paint1_linear_118_1881" x1="78.7429" y1="34.4733" x2="74.1353" y2="60.5311" gradientUnits="userSpaceOnUse">
<stop stop-color="#FFF9E2"/>
<stop offset="1" stop-color="#FCE5C3"/>
</linearGradient>
<linearGradient id="paint2_linear_118_1881" x1="64.8544" y1="40.6034" x2="64.8544" y2="64.9821" gradientUnits="userSpaceOnUse">
<stop stop-color="#FFF9E2"/>
<stop offset="1" stop-color="#FCE5C3"/>
</linearGradient>
<linearGradient id="paint3_linear_118_1881" x1="65.1845" y1="41.226" x2="65.1845" y2="63.3885" gradientUnits="userSpaceOnUse">
<stop stop-color="#E74443"/>
<stop offset="1" stop-color="#CC0A09"/>
</linearGradient>
<linearGradient id="paint4_linear_118_1881" x1="64.8549" y1="40.6033" x2="64.8549" y2="64.982" gradientUnits="userSpaceOnUse">
<stop stop-color="#FFF9E2"/>
<stop offset="1" stop-color="#FCE5C3"/>
</linearGradient>
<linearGradient id="paint5_linear_118_1881" x1="78.8827" y1="32.6896" x2="78.8827" y2="59.1516" gradientUnits="userSpaceOnUse">
<stop stop-color="#FFF9E2"/>
<stop offset="1" stop-color="#FCE5C3"/>
</linearGradient>
<linearGradient id="paint6_linear_118_1881" x1="78.655" y1="34.0835" x2="78.655" y2="58.1399" gradientUnits="userSpaceOnUse">
<stop stop-color="#E74443"/>
<stop offset="1" stop-color="#CC0A09"/>
</linearGradient>
<radialGradient id="paint7_radial_118_1881" cx="0" cy="0" r="1" gradientUnits="userSpaceOnUse" gradientTransform="translate(10.2264 6.19878) rotate(75.3868) scale(16.8363 16.7893)">
<stop offset="0.135417" stop-color="#00E0FF"/>
<stop offset="1" stop-color="#0055A3"/>
</radialGradient>
<radialGradient id="paint8_radial_118_1881" cx="0" cy="0" r="1" gradientUnits="userSpaceOnUse" gradientTransform="translate(10.2264 6.19878) rotate(75.3868) scale(16.8363 16.7893)">
<stop offset="0.135417" stop-color="#00E0FF"/>
<stop offset="1" stop-color="#0055A3"/>
</radialGradient>
<linearGradient id="paint9_linear_118_1881" x1="6.13279" y1="0" x2="6.13279" y2="12.4293" gradientUnits="userSpaceOnUse">
<stop stop-color="white"/>
<stop offset="1" stop-color="#C6C6C6" stop-opacity="0.47"/>
</linearGradient>
<linearGradient id="paint10_linear_118_1881" x1="62.105" y1="47.0051" x2="77.0046" y2="62.7097" gradientUnits="userSpaceOnUse">
<stop stop-color="#1A3699"/>
<stop offset="1" stop-color="#1A4C99" stop-opacity="0"/>
</linearGradient>
<linearGradient id="paint11_linear_118_1881" x1="61.8239" y1="47.5672" x2="71.3001" y2="57.4696" gradientUnits="userSpaceOnUse">
<stop stop-color="white"/>
<stop offset="1" stop-color="#D9D9D9" stop-opacity="0"/>
</linearGradient>
<linearGradient id="paint12_linear_118_1881" x1="34.6478" y1="12.8299" x2="65.0326" y2="19.2783" gradientUnits="userSpaceOnUse">
<stop stop-color="#F1F1F1"/>
<stop offset="1" stop-color="#E1E1E1"/>
</linearGradient>
</defs>
</svg>
