<svg width="216" height="105" viewBox="0 0 216 105" fill="none" xmlns="http://www.w3.org/2000/svg">
<g filter="url(#filter0_d_118_2353)">
<rect x="28" y="28" width="153" height="42" rx="6.49" fill="white"/>
<rect x="28" y="28" width="153" height="42" rx="6.49" stroke="url(#paint0_linear_118_2353)" stroke-opacity="0.3" stroke-width="1.30158"/>
</g>
<g filter="url(#filter1_d_118_2353)">
<g filter="url(#filter2_d_118_2353)">
<path d="M80.146 44.3557L80.1356 44.338L80.1277 44.3338C80.1247 44.3301 80.1222 44.3264 80.1186 44.3228C79.4417 43.3671 78.6841 42.4716 77.8542 41.6459C76.5508 40.3414 75.0833 39.2128 73.4888 38.2884C72.5803 37.7598 71.6353 37.2967 70.6611 36.9027C69.9028 36.5954 69.1282 36.3305 68.3407 36.1091L68.3358 36.1091L68.3358 36.0993C67.1862 35.7743 66.0087 35.558 64.8187 35.4535C64.7825 35.4424 64.7451 35.4357 64.7073 35.4333C64.6358 35.4286 64.5642 35.4393 64.4972 35.4645C64.43 35.4898 64.369 35.5291 64.3181 35.5798C64.3129 35.5871 64.3084 35.5949 64.3047 35.603L59.3814 41.1533L58.955 41.6343C58.8803 41.7168 58.8251 41.815 58.7937 41.9219C58.7614 42.0288 58.7535 42.1417 58.7705 42.2521L58.9167 43.2331L59.1207 44.6012L59.2638 45.5626C58.3535 46.2795 57.5886 47.1646 57.0104 48.1699C55.8052 50.2621 55.4784 52.7485 56.102 55.0822C56.7256 57.4159 58.2485 59.4058 60.3357 60.614C62.4232 61.8217 64.9039 62.1488 67.232 61.5233C69.5601 60.8977 71.545 59.3709 72.75 57.2785C73.2906 56.3425 73.6602 55.3174 73.8414 54.2512L74.9736 53.7952L76.2135 53.2965L77.1807 52.907C77.2829 52.8662 77.3751 52.8037 77.4511 52.7239C77.5266 52.6427 77.5835 52.5461 77.618 52.4406L77.8816 51.6531L80.1959 44.73C80.2062 44.6985 80.2124 44.6659 80.2142 44.6329C80.2242 44.5354 80.2001 44.4374 80.146 44.3557ZM72.3572 47.5387C71.593 46.4303 70.5921 45.5066 69.4272 44.8344C68.3151 44.1887 67.0786 43.7879 65.7999 43.6586L65.7499 43.3119L65.6513 42.0354L65.6653 42.0397L65.7103 42.0537C65.8711 42.105 66.0288 42.1569 66.189 42.2124C66.267 42.2387 66.3443 42.2662 66.4217 42.2936L66.5843 42.3547L66.6549 42.3803L66.9022 42.4731L66.9375 42.4865C67.2051 42.5895 67.469 42.6971 67.7292 42.8095L67.9119 42.8888L67.9728 42.9151C69.5729 43.6267 71.0866 44.5193 72.4845 45.5754C72.6209 45.6792 72.764 45.7891 72.9053 45.902L72.9248 45.913C73.1014 46.0534 73.2762 46.1959 73.4492 46.3403L73.6069 46.4759L73.7707 46.6181C73.8213 46.6639 73.8792 46.7133 73.9303 46.7616C73.9496 46.7769 73.9679 46.7934 73.9851 46.811L72.7671 47.3732L72.3572 47.5387Z" fill="#021956"/>
<path d="M64.7505 34.7701L64.7495 34.7711C64.8085 34.7748 64.8667 34.7838 64.9243 34.7965C66.1394 34.9063 67.3419 35.1276 68.5161 35.4596L69.0005 35.5963L69.0005 35.611C69.6467 35.8081 70.2843 36.0329 70.9107 36.2867L71.6568 36.6041C72.3972 36.9348 73.1194 37.3054 73.8208 37.7135L73.8218 37.7135C75.4656 38.6664 76.9789 39.8298 78.3228 41.1744L78.6411 41.4977C79.3405 42.224 79.9859 43.0007 80.5747 43.8199L80.6148 43.8424L80.7095 44.0026L80.7193 44.0201C80.8388 44.2145 80.8931 44.4411 80.8765 44.6686L80.8775 44.6696C80.8774 44.6708 80.8766 44.6722 80.8765 44.6735C80.8758 44.6825 80.8765 44.6917 80.8755 44.7008L80.8736 44.6998C80.8667 44.7804 80.8528 44.8603 80.8277 44.9371L80.8257 44.941L78.5122 51.8639L78.2486 52.652L78.2476 52.651C78.1831 52.8464 78.0773 53.0257 77.937 53.1764L77.9322 53.1823C77.7904 53.3311 77.6182 53.4477 77.4273 53.524L76.4615 53.9127L75.2212 54.4108L75.2222 54.4117L74.4253 54.7321C74.2131 55.7432 73.843 56.7153 73.3257 57.611L73.3247 57.61C72.0319 59.8546 69.9032 61.4933 67.4048 62.1647C65.0624 62.794 62.5758 62.5254 60.4283 61.4215L60.0025 61.1891C57.7627 59.8924 56.1294 57.757 55.4605 55.2535C54.7916 52.7502 55.1412 50.083 56.4341 47.8385L56.6763 47.4401C57.1921 46.6348 57.8245 45.9109 58.5513 45.2897L58.4634 44.6989L58.2593 43.3307L58.1128 42.3502L58.1128 42.3492C58.0817 42.1436 58.0963 41.9334 58.1558 41.734L58.2095 41.5856C58.2708 41.4402 58.3559 41.3056 58.4624 41.1881L58.8843 40.7125L63.772 35.2008C63.7733 35.199 63.7746 35.1968 63.7759 35.1949L63.8091 35.149L63.8492 35.109C63.9665 34.9921 64.1072 34.901 64.2622 34.8424L64.2632 34.8424L64.3814 34.8053C64.5015 34.7742 64.6261 34.762 64.7505 34.7701ZM72.0034 46.0475C72.2064 46.2649 72.4018 46.4895 72.5845 46.7252L72.7661 46.6412C72.6935 46.5821 72.6216 46.522 72.5484 46.4635L72.5327 46.4547L72.4908 46.4215C72.3562 46.3139 72.2183 46.2076 72.0835 46.1051L72.0835 46.1061C72.0571 46.0861 72.0299 46.0673 72.0034 46.0475ZM80.6411 43.9127C80.6421 43.9139 80.6433 43.9147 80.6441 43.9156L80.6392 43.9088C80.64 43.91 80.6403 43.9115 80.6411 43.9127ZM66.397 43.066C66.521 43.0855 66.6441 43.1092 66.7671 43.1334C66.7444 43.1246 66.7216 43.1158 66.6988 43.1071L66.6988 43.1061L66.6656 43.0944L66.6656 43.0934L66.4214 43.0026L66.4214 43.0016L66.3911 42.9908L66.397 43.066Z" stroke="#460860" stroke-width="1.32904"/>
</g>
<path d="M80.1654 44.3904C80.0777 44.3642 80.0107 44.3007 79.9139 44.3441L79.3372 44.6108L75.9315 46.1815L74.1824 46.9891L73.9887 46.8127C73.971 46.794 73.9518 46.7767 73.9315 46.7608C73.8706 46.6998 73.7944 46.6388 73.7384 46.5869C73.4826 46.3626 73.2187 46.1412 72.9467 45.9227L72.9046 45.8989C72.7634 45.7859 72.6202 45.6761 72.4838 45.5723C70.9861 44.4411 69.3558 43.498 67.6293 42.7642C67.5367 42.7233 67.4466 42.6867 67.3522 42.65C67.2578 42.6134 67.1695 42.5743 67.0751 42.5389L66.7968 42.4321C66.5946 42.3564 66.3911 42.2819 66.1877 42.2136C66.0276 42.158 65.8698 42.1061 65.709 42.0548L65.664 42.0408L65.4112 41.9627L65.2663 40.0635L64.977 36.3465L64.9301 35.711C64.9196 35.6219 64.8849 35.5374 64.8296 35.4668C65.0026 35.4827 65.1761 35.5004 65.3503 35.5199L65.3735 35.523C65.544 35.5425 65.7157 35.5632 65.8863 35.5895L65.8942 35.5944C66.0434 35.6145 66.1908 35.6377 66.3406 35.6646C66.3887 35.6719 66.4356 35.6799 66.4813 35.6896C66.5824 35.7073 66.6859 35.725 66.7858 35.7464C66.8857 35.7678 66.9387 35.7751 67.0154 35.7928C67.1616 35.8215 67.3102 35.8538 67.4575 35.8892C67.7548 35.9564 68.0516 36.0323 68.3479 36.1169C70.1448 36.621 71.8707 37.3512 73.4844 38.2902C75.0789 39.2145 76.5464 40.3432 77.8499 41.6477C78.6827 42.4761 79.4429 43.3747 80.1222 44.3337L80.1313 44.3392L80.1654 44.3904Z" fill="#3354A9"/>
<path d="M80.1654 44.3904C80.0777 44.3642 80.0107 44.3007 79.9139 44.344L79.3371 44.6108C79.2866 44.5443 79.236 44.4777 79.1836 44.4142C78.5574 43.6076 77.8692 42.8514 77.1251 42.1525C74.5931 39.7851 71.5521 38.0326 68.2371 37.0302C67.249 36.7322 66.2389 36.5132 65.2163 36.3752C65.1329 36.3617 65.0494 36.3532 64.9666 36.3422L64.9197 35.7067C64.9092 35.6176 64.8745 35.5331 64.8192 35.4625C64.9914 35.4784 65.1649 35.4961 65.3399 35.5156L65.3631 35.5187C65.533 35.5388 65.7047 35.5596 65.8759 35.5858L65.8832 35.5901C66.033 35.6102 66.1804 35.6335 66.3302 35.6603C66.3783 35.6676 66.4252 35.6762 66.4703 35.6853C66.572 35.703 66.6749 35.7213 66.7748 35.7427C66.8747 35.7641 66.9277 35.7708 67.0044 35.7885C67.1506 35.8172 67.2992 35.8495 67.4459 35.885C67.7431 35.9521 68.0401 36.028 68.3369 36.1127C70.1339 36.6167 71.8598 37.3472 73.4734 38.2865C75.0679 39.2095 76.5354 40.3369 77.8389 41.6403C78.6715 42.4688 79.4315 43.3674 80.1106 44.3263L80.1203 44.3318L80.1654 44.3904Z" fill="#6DA8FF"/>
<path d="M75.9327 46.1804L74.1817 46.9862C71.6705 44.6694 68.6703 42.9502 65.4045 41.9566L65.2596 40.0575C65.6225 40.1446 65.9806 40.24 66.3339 40.3438C69.5994 41.3376 72.5996 43.0561 75.1117 45.3715C75.3963 45.636 75.67 45.9056 75.9327 46.1804Z" fill="url(#paint1_linear_118_2353)"/>
<path d="M67.6233 42.7581C66.8977 42.4502 66.1561 42.182 65.4015 41.9547L64.9143 35.6994C64.9025 35.6104 64.8674 35.5262 64.8126 35.4552C66.004 35.5597 67.183 35.7762 68.334 36.1017L67.6233 42.7581Z" fill="url(#paint2_linear_118_2353)"/>
<path d="M80.1655 44.3904C79.895 44.5589 80.0016 44.3165 79.9139 44.344L79.3372 44.6101L75.9315 46.1814L74.1824 46.9885L73.9887 46.812C73.9708 46.7937 73.9517 46.7765 73.9315 46.7608C73.8706 46.6997 73.8048 46.6442 73.7384 46.5868C73.4818 46.3625 73.2179 46.1411 72.9467 45.9226L72.9047 45.8988C72.7634 45.7859 72.6203 45.676 72.4839 45.5722L74.0265 44.4386L77.1283 42.1616L77.8433 41.6378C78.676 42.4661 79.436 43.3648 80.1149 44.3238L80.124 44.3293L80.1655 44.3904Z" fill="url(#paint3_linear_118_2353)"/>
<path d="M66.5025 48.5642L60.6736 55.021L59.1206 44.6005L58.9166 43.2325L58.7704 42.2515C58.7533 42.1411 58.7612 42.0282 58.7935 41.9213C58.825 41.8144 58.8802 41.7161 58.9549 41.6337L59.3812 41.1527L64.3046 35.6024C64.3083 35.5943 64.3128 35.5865 64.318 35.5792C64.3689 35.5285 64.4299 35.4892 64.497 35.4639C64.5641 35.4386 64.6357 35.428 64.7072 35.4327C64.779 35.4378 64.8489 35.4586 64.9118 35.4938C64.9751 35.5272 65.0305 35.5738 65.0744 35.6305C65.1279 35.6994 65.1622 35.7814 65.1737 35.868L65.5683 40.9494L65.642 41.9017L65.751 43.3143L66.5025 48.5642Z" fill="url(#paint4_linear_118_2353)"/>
<path d="M66.5027 48.5641L60.6737 55.0209L59.1207 44.6004L58.9167 43.2323C60.8093 41.7477 63.1443 40.9426 65.5477 40.9462L65.5672 40.9462L65.6409 41.8985L65.7499 43.3111L66.5027 48.5641Z" fill="url(#paint5_linear_118_2353)"/>
<path d="M80.2177 44.6297C80.2159 44.6627 80.2097 44.6954 80.1994 44.7268L77.8852 51.65L77.6214 52.4374C77.587 52.5429 77.5301 52.6396 77.4546 52.7207C77.3786 52.8005 77.2864 52.863 77.1842 52.9038L76.2171 53.2933L74.9771 53.7921L65.1255 57.76L67.8607 49.3492L72.7688 47.3725L74.1135 46.7517L74.9052 46.3854L79.6404 44.2018C79.7284 44.1657 79.8259 44.1601 79.9175 44.1859C80.0107 44.214 80.0914 44.2736 80.1459 44.3544C80.2009 44.4351 80.2263 44.5324 80.2177 44.6297Z" fill="url(#paint6_linear_118_2353)"/>
<path d="M76.3255 51.7496C76.3258 52.267 76.2892 52.7837 76.2159 53.2959L74.9759 53.7946L65.1244 57.7626L67.8595 49.3517L72.7676 47.375L74.1123 46.7542L74.9041 46.3879C75.8377 48.0197 76.3279 49.8685 76.3255 51.7496Z" fill="url(#paint7_linear_118_2353)"/>
<path d="M60.3381 60.6134C62.4256 61.8211 64.9063 62.1481 67.2344 61.5226C69.5625 60.8971 71.5474 59.3702 72.7524 57.2778C73.3493 56.2419 73.7367 55.0982 73.8927 53.9122C74.0486 52.7262 73.9699 51.521 73.6611 50.3654C73.3523 49.2099 72.8195 48.1266 72.093 47.1774C71.3666 46.2283 70.4607 45.4319 69.4271 44.8337C67.3396 43.626 64.8589 43.2989 62.5308 43.9244C60.2027 44.55 58.2178 46.0768 57.0128 48.1692C55.8075 50.2614 55.4808 52.7479 56.1044 55.0816C56.728 57.4153 58.2509 59.4051 60.3381 60.6134Z" fill="url(#paint8_linear_118_2353)"/>
<path d="M73.5692 51.2648C73.4933 50.4958 73.3108 49.7412 73.0272 49.0226C64.8194 47.4995 59.7286 50.2045 56.899 52.7543C56.9386 53.2563 57.0234 53.7536 57.1524 54.2402C57.8151 56.141 59.1324 57.7427 60.8674 58.7576C62.6042 59.7722 64.6451 60.1328 66.6233 59.7746C68.6019 59.4161 70.388 58.362 71.6605 56.8017C72.9336 55.2424 73.6103 53.2793 73.5692 51.2648ZM72.6009 48.0905C72.7111 48.2931 72.8116 48.4982 72.9054 48.7089C72.8043 48.4958 72.6959 48.2846 72.6009 48.0923L72.6009 48.0905ZM57.0154 50.6007C57.0519 50.3943 57.0976 50.1892 57.1506 49.9859C57.0913 50.1865 57.0435 50.3903 57.0074 50.5964L57.0154 50.6007ZM57.1506 49.9859C57.2029 49.7881 57.262 49.5885 57.3296 49.392C57.2553 49.5844 57.1931 49.7814 57.1433 49.9816L57.1506 49.9859Z" fill="#FFFFF4"/>
<path d="M73.027 49.0226C64.8192 47.4995 59.7283 50.2044 56.8988 52.7543C56.7432 50.7509 57.31 48.758 58.4963 47.1381C59.6822 45.5186 61.4084 44.3793 63.3612 43.9271C65.3138 43.4753 67.3633 43.7409 69.1371 44.6755C70.9114 45.6107 72.2918 47.1533 73.027 49.0226Z" fill="#FFFFF4"/>
<path d="M72.4894 56.2939C71.6615 57.734 70.4255 58.8951 68.9382 59.63C67.4508 60.3648 65.7791 60.6399 64.1354 60.4205C62.4919 60.2014 60.9504 59.4977 59.7066 58.3987C58.4626 57.2995 57.5724 55.8547 57.1487 54.2476C57.0196 53.7611 56.935 53.2637 56.896 52.7618C56.8887 52.6598 56.8862 52.5493 56.8765 52.4565C56.8667 52.3637 56.8734 52.2471 56.8692 52.1513C56.8649 52.0555 56.8692 51.945 56.874 51.8418C56.8789 51.7386 56.885 51.6403 56.8886 51.5518C56.8923 51.4633 56.9033 51.3284 56.9173 51.2185C56.9313 51.1086 56.9368 51.0354 56.9495 50.9475C56.9495 50.9218 56.9569 50.8956 56.9605 50.8706C56.9739 50.7833 56.9879 50.6941 57.0044 50.6087C57.0409 50.4017 57.086 50.1985 57.1396 49.9933C57.1932 49.7882 57.251 49.5959 57.3186 49.3994C57.3235 49.3902 57.3284 49.3817 57.3338 49.3731C57.3673 49.2785 57.4014 49.1845 57.4392 49.0905C57.477 48.9965 57.494 48.9482 57.5239 48.8787C57.5259 48.8736 57.5285 48.8689 57.5318 48.8646C57.5488 48.8207 57.5677 48.7773 57.5878 48.7352C57.6189 48.6809 57.6371 48.621 57.6615 48.571C57.6825 48.5366 57.6994 48.5 57.712 48.4617C57.7571 48.3842 57.7924 48.3012 57.8338 48.2175C57.8358 48.2125 57.8384 48.2077 57.8418 48.2035L58.0001 47.9288C59.1106 46.0027 60.9386 44.5974 63.0824 44.0219C65.2262 43.4461 67.5104 43.7473 69.4327 44.8594L69.6197 44.9681L69.8024 45.0731C69.9327 45.1482 70.0527 45.2403 70.1739 45.327L70.328 45.4436C70.3846 45.4804 70.4386 45.5212 70.4893 45.5657C70.5813 45.6396 70.6721 45.7171 70.7683 45.7989L70.898 45.9137C70.9443 45.9558 70.9887 45.9979 71.0314 46.0406L71.1532 46.1597C71.2366 46.2409 71.3182 46.3251 71.3968 46.4118L71.5064 46.5339C71.5484 46.5791 71.5886 46.6273 71.6282 46.6761C71.7007 46.7616 71.7707 46.8483 71.8402 46.9356L71.8584 46.9582C71.9242 47.0442 71.9894 47.1315 72.0527 47.22C72.116 47.3086 72.1745 47.391 72.2318 47.4789L72.2561 47.5155C72.317 47.6101 72.3743 47.7041 72.4309 47.7994C72.4875 47.8946 72.5472 47.999 72.599 48.1046C72.7086 48.3048 72.8097 48.5124 72.9035 48.7224C72.9486 48.8274 72.9906 48.9299 73.0357 49.0386C73.4975 50.2132 73.689 51.4771 73.596 52.7361C73.5034 53.9948 73.1287 55.2164 72.4997 56.3097L72.4894 56.2939Z" fill="url(#paint9_linear_118_2353)"/>
<path opacity="0.75" d="M73.027 49.0226C64.8192 47.4995 59.7283 50.2044 56.8988 52.7543C56.7432 50.7509 57.31 48.758 58.4963 47.1381C59.6822 45.5186 61.4084 44.3793 63.3612 43.9271C65.3138 43.4753 67.3633 43.7409 69.1371 44.6755C70.9114 45.6107 72.2918 47.1533 73.027 49.0226Z" fill="#FFF076"/>
<path d="M62.1407 57.4871C62.8552 57.9006 63.644 58.169 64.4619 58.2769C65.2799 58.3849 66.111 58.3302 66.9079 58.1162C67.7048 57.9021 68.4518 57.5328 69.1064 57.0294C69.7609 56.526 70.31 55.8982 70.7225 55.182C71.5557 53.7357 71.7816 52.0168 71.3504 50.4035C70.9192 48.7902 69.8664 47.4147 68.4234 46.5795C66.9807 45.7456 65.2668 45.5201 63.6582 45.9524C62.0497 46.3848 60.6782 47.4397 59.8453 48.8852C59.0119 50.331 58.7855 52.0495 59.2159 53.6626C59.6464 55.2757 60.6985 56.6514 62.1407 57.4871Z" fill="url(#paint10_linear_118_2353)"/>
<path d="M70.634 55.2054C69.9318 56.9703 66.4446 59.3614 62.8386 57.9189C59.4841 56.5759 58.4189 52.2148 59.0663 50.5879C60.171 47.8177 63.7454 47.3525 66.5956 48.4929C69.4459 49.6332 71.7394 52.434 70.634 55.2054Z" fill="url(#paint11_linear_118_2353)"/>
<path d="M66.8259 58.8344C63.1754 59.7025 60.1212 56.4658 59.5846 54.6668C59.6066 54.7749 59.5524 54.5569 59.5846 54.6668C60.8636 57.1697 63.2041 58.9864 66.7059 58.1544C70.4727 57.2564 71.6658 53.7157 71.5465 52.0547C71.5848 52.1536 71.446 51.6591 71.477 51.7641C72.0599 53.7267 70.7584 57.9077 66.8259 58.8344Z" fill="url(#paint12_linear_118_2353)"/>
<path d="M67.7353 49.5348L67.9539 51.1989C67.9778 51.383 68.0544 51.5562 68.1744 51.6976L69.2621 52.9747C69.3572 53.0865 69.4253 53.2187 69.4613 53.3611C69.4973 53.5036 69.5002 53.6525 69.4698 53.7964C69.4399 53.9401 69.3774 54.075 69.2871 54.1907C69.1962 54.306 69.0802 54.399 68.9479 54.4624L67.4369 55.1857C67.2698 55.2661 67.1295 55.3934 67.0331 55.552L66.1561 56.9842C66.0797 57.1099 65.9756 57.2165 65.8516 57.2955C65.7275 57.374 65.5871 57.4231 65.4411 57.439C65.295 57.4543 65.1473 57.4359 65.0093 57.3852C64.8706 57.3345 64.7455 57.2522 64.6439 57.1447L63.4868 55.9269C63.3614 55.7937 63.1998 55.7004 63.0221 55.6582L61.3911 55.2633C61.2484 55.2287 61.1156 55.1619 61.0026 55.0679C60.8897 54.9736 60.7998 54.8546 60.7401 54.72C60.6806 54.5857 60.6527 54.4395 60.6585 54.2927C60.6645 54.1454 60.7043 54.0014 60.7748 53.872L61.5756 52.396C61.6629 52.2326 61.7019 52.0478 61.6883 51.863L61.5562 50.1886C61.545 50.042 61.5674 49.8947 61.6219 49.7582C61.6764 49.6216 61.7614 49.4995 61.8704 49.4011C61.9798 49.303 62.1099 49.2312 62.2511 49.1911C62.3924 49.1514 62.541 49.1447 62.6853 49.1715L64.3296 49.4768C64.5114 49.5087 64.6986 49.4876 64.8686 49.4157L66.4223 48.7766C66.5573 48.7215 66.7031 48.6981 66.8486 48.7082C66.9941 48.718 67.1354 48.7613 67.2615 48.8346C67.388 48.9076 67.4961 49.0087 67.5776 49.13C67.6603 49.2511 67.7142 49.3896 67.7353 49.5348Z" fill="url(#paint13_linear_118_2353)"/>
<path d="M68.2085 48.7138L68.4266 50.3779C68.4509 50.5618 68.5277 50.7347 68.6476 50.876L69.7354 52.1537C69.8305 52.2654 69.8986 52.3977 69.9345 52.5401C69.9706 52.6826 69.9733 52.8316 69.9424 52.9753C69.9124 53.1189 69.8499 53.2536 69.7597 53.3691C69.6692 53.4848 69.553 53.5778 69.4205 53.6408L67.9095 54.3647C67.742 54.4447 67.6014 54.5721 67.5051 54.731L66.6293 56.1613C66.5531 56.2872 66.4489 56.3938 66.3248 56.4727C66.2008 56.5514 66.0603 56.6005 65.9143 56.6161C65.7682 56.6315 65.6204 56.6129 65.4826 56.5618C65.3439 56.5111 65.2189 56.429 65.1171 56.3219L63.96 55.101C63.8336 54.9693 63.6728 54.876 63.4959 54.8318L61.8643 54.4386C61.7214 54.404 61.5882 54.337 61.4752 54.2427C61.3623 54.1485 61.2725 54.0297 61.2127 53.8953C61.1535 53.7609 61.1256 53.6148 61.1311 53.468C61.1371 53.3207 61.1769 53.1768 61.2474 53.0474L62.047 51.5731C62.1349 51.41 62.1742 51.2251 62.1603 51.0402L62.0282 49.3657C62.0167 49.2191 62.0392 49.0718 62.0939 48.9354C62.1482 48.7987 62.2333 48.6765 62.3424 48.5782C62.4515 48.4798 62.5818 48.408 62.7231 48.3682C62.8644 48.3286 63.013 48.3219 63.1573 48.3487L64.8017 48.6539C64.9836 48.6859 65.171 48.6647 65.3413 48.5929L66.89 47.9513C67.0249 47.8954 67.1707 47.8712 67.3163 47.8805C67.4628 47.8901 67.6051 47.9333 67.7323 48.0069C67.8595 48.0804 67.9681 48.1823 68.0496 48.3047C68.1331 48.4271 68.1875 48.567 68.2085 48.7138Z" fill="url(#paint14_linear_118_2353)"/>
<path opacity="0.75" d="M68.6262 50.8455C68.5185 50.7106 68.4495 50.549 68.4264 50.3779L68.2084 48.7138C68.189 48.568 68.1367 48.4285 68.0555 48.306C67.974 48.1836 67.8654 48.0816 67.7382 48.0081C67.6111 47.9345 67.4688 47.8913 67.3223 47.8817C67.1766 47.8724 67.0308 47.8966 66.8959 47.9525L65.3472 48.5941C65.1769 48.666 64.9896 48.6871 64.8076 48.6551L63.1632 48.3499C63.0189 48.3231 62.8704 48.3298 62.729 48.3695C62.5877 48.4092 62.4575 48.4811 62.3484 48.5795C62.2392 48.6777 62.1542 48.7999 62.0999 48.9366C62.0451 49.073 62.0226 49.2203 62.0341 49.367L62.1663 51.0414C62.1802 51.2263 62.1408 51.4112 62.053 51.5744L61.2534 53.0486C61.1991 53.1495 61.1632 53.2593 61.1474 53.3728C62.7899 51.9657 65.3649 50.4774 68.6262 50.8455Z" fill="#FFF076"/>
<path d="M73.604 51.8959C73.5257 51.1341 73.3412 50.3872 73.0558 49.6769C73.0132 49.5712 72.9712 49.4656 72.9225 49.3631C72.8315 49.1545 72.7298 48.9507 72.618 48.7526C72.5638 48.6531 72.5065 48.5518 72.4499 48.4474C72.3932 48.343 72.3366 48.2575 72.2757 48.1666L72.2513 48.1294C72.1941 48.0427 72.1411 47.9621 72.0686 47.8724L71.8737 47.6123L71.8555 47.5897C71.7866 47.5018 71.7166 47.4157 71.6441 47.3327C71.6033 47.2857 71.5625 47.2375 71.5223 47.1917L71.4121 47.0696C71.3335 46.9847 71.2519 46.9005 71.1685 46.8187L71.0467 46.6997L70.9121 46.5745L70.7818 46.4598C70.6928 46.3816 70.599 46.3035 70.5028 46.2278C70.4468 46.1899 70.3927 46.1491 70.3408 46.1057L70.1886 45.9903C70.0668 45.9036 69.945 45.8176 69.8171 45.7364L69.6344 45.6314L69.4486 45.5239C65.4516 43.2109 60.3681 44.5411 58.0915 48.4938L57.9356 48.7642C57.9323 48.7682 57.9296 48.7728 57.9277 48.7777C57.881 48.8546 57.8403 48.935 57.8059 49.0182C57.7848 49.0516 57.7682 49.0878 57.7566 49.1256C57.7462 49.1653 57.7048 49.2367 57.6823 49.2898C57.6597 49.3429 57.6445 49.3741 57.6275 49.418C57.6239 49.4219 57.6212 49.4265 57.6195 49.4315C57.5903 49.4998 57.5623 49.57 57.5361 49.6402C57.5099 49.7104 57.4667 49.8234 57.4332 49.9198L57.4186 49.9449C57.3528 50.1384 57.2937 50.3337 57.2444 50.5309C57.1951 50.7281 57.1482 50.935 57.1134 51.1413C57.097 51.2274 57.0836 51.3147 57.0714 51.4008C57.0678 51.4252 57.0629 51.4514 57.0611 51.4759C57.0483 51.5656 57.0367 51.6541 57.0306 51.7439C57.0245 51.8336 57.0081 51.9624 57.002 52.0729C56.9959 52.1834 56.9874 52.2713 56.9898 52.3598C56.9923 52.4483 56.9856 52.5643 56.9898 52.665C56.9941 52.7658 56.9898 52.8726 56.999 52.9703C57.0081 53.0679 57.0057 53.1809 57.0203 53.2755C57.0617 53.7723 57.1487 54.2641 57.2803 54.7449C56.8722 53.6132 56.7157 52.4059 56.8217 51.2073C56.9274 50.0085 57.2933 48.8474 57.8936 47.8052C60.1915 43.8153 65.3237 42.4729 69.356 44.8066C70.6117 45.5255 71.6623 46.5555 72.4072 47.7979C73.149 49.0389 73.561 50.4498 73.604 51.8959Z" fill="url(#paint15_linear_118_2353)"/>
</g>
<path d="M94.3562 52.5V44.745H99.4822V45.9H95.7862V48.056H99.2512V49.2H95.7862V52.5H94.3562ZM102.693 52.61C102.304 52.61 101.956 52.5367 101.648 52.39C101.34 52.236 101.098 52.0307 100.922 51.774C100.746 51.51 100.658 51.2167 100.658 50.894C100.658 50.498 100.764 50.1827 100.977 49.948C101.19 49.7133 101.531 49.5447 102 49.442C102.469 49.332 103.093 49.277 103.87 49.277H104.464V50.091H103.892C103.547 50.091 103.258 50.1057 103.023 50.135C102.788 50.157 102.598 50.1973 102.451 50.256C102.304 50.3073 102.198 50.3807 102.132 50.476C102.066 50.5713 102.033 50.6887 102.033 50.828C102.033 51.07 102.117 51.2643 102.286 51.411C102.462 51.5577 102.7 51.631 103.001 51.631C103.243 51.631 103.459 51.576 103.65 51.466C103.848 51.3487 104.006 51.191 104.123 50.993C104.24 50.7877 104.299 50.5603 104.299 50.311V49.057C104.299 48.6903 104.211 48.43 104.035 48.276C103.859 48.122 103.573 48.045 103.177 48.045C102.876 48.045 102.568 48.089 102.253 48.177C101.938 48.265 101.615 48.4043 101.285 48.595L100.878 47.638C101.083 47.506 101.318 47.3923 101.582 47.297C101.846 47.1943 102.125 47.1173 102.418 47.066C102.711 47.0147 102.994 46.989 103.265 46.989C103.793 46.989 104.229 47.0697 104.574 47.231C104.926 47.385 105.19 47.627 105.366 47.957C105.542 48.287 105.63 48.7123 105.63 49.233V52.5H104.354V51.356H104.42C104.354 51.6127 104.24 51.8363 104.079 52.027C103.925 52.2103 103.731 52.3533 103.496 52.456C103.269 52.5587 103.001 52.61 102.693 52.61ZM107.694 52.5V47.099H109.036V48.188H108.948C109.044 47.9387 109.176 47.726 109.344 47.55C109.52 47.3667 109.726 47.2273 109.96 47.132C110.202 47.0367 110.466 46.989 110.752 46.989C111.192 46.989 111.552 47.0917 111.83 47.297C112.116 47.5023 112.314 47.814 112.424 48.232H112.303C112.45 47.8507 112.688 47.55 113.018 47.33C113.356 47.1027 113.748 46.989 114.195 46.989C114.613 46.989 114.958 47.0697 115.229 47.231C115.501 47.3923 115.702 47.638 115.834 47.968C115.974 48.298 116.043 48.7197 116.043 49.233V52.5H114.646V49.288C114.646 48.8773 114.577 48.5767 114.437 48.386C114.305 48.1953 114.074 48.1 113.744 48.1C113.502 48.1 113.29 48.1587 113.106 48.276C112.93 48.386 112.795 48.5473 112.699 48.76C112.611 48.9727 112.567 49.2257 112.567 49.519V52.5H111.17V49.288C111.17 48.8773 111.101 48.5767 110.961 48.386C110.822 48.1953 110.595 48.1 110.279 48.1C110.03 48.1 109.817 48.1587 109.641 48.276C109.465 48.3933 109.33 48.5583 109.234 48.771C109.139 48.9763 109.091 49.222 109.091 49.508V52.5H107.694ZM118.02 45.955V44.58H119.593V45.955H118.02ZM118.108 52.5V47.099H119.516V52.5H118.108ZM123.453 52.61C122.815 52.61 122.342 52.4377 122.034 52.093C121.726 51.7483 121.572 51.246 121.572 50.586V44.745H122.98V50.509C122.98 50.7143 123.009 50.8903 123.068 51.037C123.127 51.1837 123.215 51.2937 123.332 51.367C123.457 51.433 123.607 51.466 123.783 51.466C123.871 51.466 123.955 51.4623 124.036 51.455C124.124 51.4477 124.208 51.433 124.289 51.411V52.5C124.15 52.5367 124.014 52.5623 123.882 52.577C123.75 52.599 123.607 52.61 123.453 52.61ZM126.09 54.48L127.223 51.994V52.687L124.814 47.099H126.299L127.938 51.235H127.674L129.324 47.099H130.743L127.542 54.48H126.09ZM139.356 52.61C138.557 52.61 137.868 52.4487 137.288 52.126C136.716 51.8033 136.273 51.345 135.957 50.751C135.649 50.1497 135.495 49.4383 135.495 48.617C135.495 47.7957 135.649 47.088 135.957 46.494C136.273 45.9 136.716 45.4417 137.288 45.119C137.868 44.7963 138.557 44.635 139.356 44.635C139.877 44.635 140.368 44.7157 140.83 44.877C141.3 45.031 141.685 45.2583 141.985 45.559L141.512 46.692C141.182 46.4133 140.845 46.2117 140.5 46.087C140.163 45.9623 139.796 45.9 139.4 45.9C138.63 45.9 138.036 46.1347 137.618 46.604C137.208 47.0733 137.002 47.7443 137.002 48.617C137.002 49.4897 137.208 50.1643 137.618 50.641C138.036 51.1103 138.63 51.345 139.4 51.345C139.796 51.345 140.163 51.2827 140.5 51.158C140.845 51.0333 141.182 50.8317 141.512 50.553L141.985 51.686C141.685 51.9793 141.3 52.2067 140.83 52.368C140.368 52.5293 139.877 52.61 139.356 52.61ZM143.732 52.5V44.745H145.118V48.166H145.008C145.169 47.7847 145.418 47.495 145.756 47.297C146.1 47.0917 146.489 46.989 146.922 46.989C147.354 46.989 147.714 47.0697 148 47.231C148.286 47.3923 148.498 47.638 148.638 47.968C148.784 48.298 148.858 48.7197 148.858 49.233V52.5H147.461V49.299C147.461 49.0203 147.424 48.793 147.351 48.617C147.277 48.441 147.167 48.3127 147.021 48.232C146.881 48.144 146.698 48.1 146.471 48.1C146.207 48.1 145.972 48.1587 145.767 48.276C145.569 48.386 145.415 48.5473 145.305 48.76C145.195 48.9653 145.14 49.2073 145.14 49.486V52.5H143.732ZM152.684 52.61C152.295 52.61 151.947 52.5367 151.639 52.39C151.331 52.236 151.089 52.0307 150.913 51.774C150.737 51.51 150.649 51.2167 150.649 50.894C150.649 50.498 150.755 50.1827 150.968 49.948C151.181 49.7133 151.522 49.5447 151.991 49.442C152.46 49.332 153.084 49.277 153.861 49.277H154.455V50.091H153.883C153.538 50.091 153.249 50.1057 153.014 50.135C152.779 50.157 152.589 50.1973 152.442 50.256C152.295 50.3073 152.189 50.3807 152.123 50.476C152.057 50.5713 152.024 50.6887 152.024 50.828C152.024 51.07 152.108 51.2643 152.277 51.411C152.453 51.5577 152.691 51.631 152.992 51.631C153.234 51.631 153.45 51.576 153.641 51.466C153.839 51.3487 153.997 51.191 154.114 50.993C154.231 50.7877 154.29 50.5603 154.29 50.311V49.057C154.29 48.6903 154.202 48.43 154.026 48.276C153.85 48.122 153.564 48.045 153.168 48.045C152.867 48.045 152.559 48.089 152.244 48.177C151.929 48.265 151.606 48.4043 151.276 48.595L150.869 47.638C151.074 47.506 151.309 47.3923 151.573 47.297C151.837 47.1943 152.116 47.1173 152.409 47.066C152.702 47.0147 152.985 46.989 153.256 46.989C153.784 46.989 154.22 47.0697 154.565 47.231C154.917 47.385 155.181 47.627 155.357 47.957C155.533 48.287 155.621 48.7123 155.621 49.233V52.5H154.345V51.356H154.411C154.345 51.6127 154.231 51.8363 154.07 52.027C153.916 52.2103 153.722 52.3533 153.487 52.456C153.26 52.5587 152.992 52.61 152.684 52.61ZM157.685 52.5V47.099H159.027V48.188H158.939C159.035 47.9387 159.167 47.726 159.335 47.55C159.511 47.3667 159.717 47.2273 159.951 47.132C160.193 47.0367 160.457 46.989 160.743 46.989C161.183 46.989 161.543 47.0917 161.821 47.297C162.107 47.5023 162.305 47.814 162.415 48.232H162.294C162.441 47.8507 162.679 47.55 163.009 47.33C163.347 47.1027 163.739 46.989 164.186 46.989C164.604 46.989 164.949 47.0697 165.22 47.231C165.492 47.3923 165.693 47.638 165.825 47.968C165.965 48.298 166.034 48.7197 166.034 49.233V52.5H164.637V49.288C164.637 48.8773 164.568 48.5767 164.428 48.386C164.296 48.1953 164.065 48.1 163.735 48.1C163.493 48.1 163.281 48.1587 163.097 48.276C162.921 48.386 162.786 48.5473 162.69 48.76C162.602 48.9727 162.558 49.2257 162.558 49.519V52.5H161.161V49.288C161.161 48.8773 161.092 48.5767 160.952 48.386C160.813 48.1953 160.586 48.1 160.27 48.1C160.021 48.1 159.808 48.1587 159.632 48.276C159.456 48.3933 159.321 48.5583 159.225 48.771C159.13 48.9763 159.082 49.222 159.082 49.508V52.5H157.685ZM168.099 54.48V47.088H169.441V48.221H169.364C169.489 47.8397 169.72 47.539 170.057 47.319C170.402 47.099 170.801 46.989 171.256 46.989C171.733 46.989 172.151 47.1027 172.51 47.33C172.869 47.5573 173.148 47.88 173.346 48.298C173.551 48.716 173.654 49.2147 173.654 49.794C173.654 50.3587 173.555 50.8537 173.357 51.279C173.159 51.7043 172.88 52.0343 172.521 52.269C172.162 52.4963 171.74 52.61 171.256 52.61C170.809 52.61 170.42 52.5 170.09 52.28C169.76 52.06 169.533 51.774 169.408 51.422H169.507V54.48H168.099ZM170.86 51.543C171.278 51.543 171.612 51.3927 171.861 51.092C172.118 50.7913 172.246 50.3587 172.246 49.794C172.246 49.2147 172.121 48.782 171.872 48.496C171.623 48.2027 171.285 48.056 170.86 48.056C170.442 48.056 170.108 48.2027 169.859 48.496C169.61 48.782 169.485 49.2147 169.485 49.794C169.485 50.3587 169.61 50.7913 169.859 51.092C170.108 51.3927 170.442 51.543 170.86 51.543ZM175.083 52.5V50.949H176.667V52.5H175.083Z" fill="#202224"/>
<mask id="mask0_118_2353" style="mask-type:alpha" maskUnits="userSpaceOnUse" x="27" y="27" width="30" height="44">
<path d="M28 34.49C28 30.9057 30.9057 28 34.49 28H43.5088C50.4075 28 56 33.5925 56 40.4912V57.5088C56 64.4075 50.4075 70 43.5088 70H34.49C30.9057 70 28 67.0943 28 63.51V34.49Z" fill="white" stroke="url(#paint16_linear_118_2353)" stroke-opacity="0.3" stroke-width="1.30158"/>
</mask>
<g mask="url(#mask0_118_2353)">
<rect x="27" y="27.1923" width="14" height="43.6154" fill="#587ED7"/>
</g>
<defs>
<filter id="filter0_d_118_2353" x="0.297312" y="0.297343" width="215.168" height="104.168" filterUnits="userSpaceOnUse" color-interpolation-filters="sRGB">
<feFlood flood-opacity="0" result="BackgroundImageFix"/>
<feColorMatrix in="SourceAlpha" type="matrix" values="0 0 0 0 0 0 0 0 0 0 0 0 0 0 0 0 0 0 127 0" result="hardAlpha"/>
<feOffset dx="3.38149" dy="3.38149"/>
<feGaussianBlur stdDeviation="15.2167"/>
<feColorMatrix type="matrix" values="0 0 0 0 0 0 0 0 0 0 0 0 0 0 0 0 0 0 0.05 0"/>
<feBlend mode="normal" in2="BackgroundImageFix" result="effect1_dropShadow_118_2353"/>
<feBlend mode="normal" in="SourceGraphic" in2="effect1_dropShadow_118_2353" result="shape"/>
</filter>
<filter id="filter1_d_118_2353" x="52.5348" y="33.5348" width="30.9304" height="32.1989" filterUnits="userSpaceOnUse" color-interpolation-filters="sRGB">
<feFlood flood-opacity="0" result="BackgroundImageFix"/>
<feColorMatrix in="SourceAlpha" type="matrix" values="0 0 0 0 0 0 0 0 0 0 0 0 0 0 0 0 0 0 127 0" result="hardAlpha"/>
<feOffset dy="1.26863"/>
<feComposite in2="hardAlpha" operator="out"/>
<feColorMatrix type="matrix" values="0 0 0 0 0.176471 0 0 0 0 0.0352941 0 0 0 0 0.262745 0 0 0 1 0"/>
<feBlend mode="normal" in2="BackgroundImageFix" result="effect1_dropShadow_118_2353"/>
<feBlend mode="normal" in="SourceGraphic" in2="effect1_dropShadow_118_2353" result="shape"/>
</filter>
<filter id="filter2_d_118_2353" x="54.4635" y="34.1033" width="27.082" height="29.9054" filterUnits="userSpaceOnUse" color-interpolation-filters="sRGB">
<feFlood flood-opacity="0" result="BackgroundImageFix"/>
<feColorMatrix in="SourceAlpha" type="matrix" values="0 0 0 0 0 0 0 0 0 0 0 0 0 0 0 0 0 0 127 0" result="hardAlpha"/>
<feOffset dy="0.845752"/>
<feComposite in2="hardAlpha" operator="out"/>
<feColorMatrix type="matrix" values="0 0 0 0 0.176471 0 0 0 0 0.0352941 0 0 0 0 0.262745 0 0 0 1 0"/>
<feBlend mode="normal" in2="BackgroundImageFix" result="effect1_dropShadow_118_2353"/>
<feBlend mode="normal" in="SourceGraphic" in2="effect1_dropShadow_118_2353" result="shape"/>
</filter>
<linearGradient id="paint0_linear_118_2353" x1="62.8873" y1="12.8299" x2="136.884" y2="98.6413" gradientUnits="userSpaceOnUse">
<stop stop-color="#F1F1F1"/>
<stop offset="1" stop-color="#E1E1E1"/>
</linearGradient>
<linearGradient id="paint1_linear_118_2353" x1="70.9898" y1="42.4352" x2="70.122" y2="43.9346" gradientUnits="userSpaceOnUse">
<stop stop-color="#232C7B" stop-opacity="0"/>
<stop offset="1" stop-color="#232C7B"/>
</linearGradient>
<linearGradient id="paint2_linear_118_2353" x1="67.3169" y1="39.0093" x2="65.6189" y2="39.1563" gradientUnits="userSpaceOnUse">
<stop stop-color="#232C7B" stop-opacity="0"/>
<stop offset="1" stop-color="#232C7B"/>
</linearGradient>
<linearGradient id="paint3_linear_118_2353" x1="75.8779" y1="44.032" x2="76.5511" y2="45.4519" gradientUnits="userSpaceOnUse">
<stop stop-color="#232C7B" stop-opacity="0"/>
<stop offset="1" stop-color="#232C7B"/>
</linearGradient>
<linearGradient id="paint4_linear_118_2353" x1="67.9063" y1="40.3402" x2="57.2549" y2="50.0575" gradientUnits="userSpaceOnUse">
<stop offset="0.86" stop-color="#3986E6"/>
<stop offset="1" stop-color="#6DA8FF"/>
</linearGradient>
<linearGradient id="paint5_linear_118_2353" x1="67.0855" y1="46.0539" x2="60.0939" y2="48.7484" gradientUnits="userSpaceOnUse">
<stop stop-color="#232C7B" stop-opacity="0"/>
<stop offset="1" stop-color="#232C7B"/>
</linearGradient>
<linearGradient id="paint6_linear_118_2353" x1="63.8837" y1="53.894" x2="81.4834" y2="47.8892" gradientUnits="userSpaceOnUse">
<stop offset="0.83" stop-color="#3986E6"/>
<stop offset="1" stop-color="#6DA8FF"/>
</linearGradient>
<linearGradient id="paint7_linear_118_2353" x1="69.2444" y1="48.6833" x2="70.8232" y2="54.339" gradientUnits="userSpaceOnUse">
<stop stop-color="#232C7B" stop-opacity="0"/>
<stop offset="1" stop-color="#232C7B"/>
</linearGradient>
<linearGradient id="paint8_linear_118_2353" x1="68.2645" y1="46.6901" x2="60.6172" y2="60.2696" gradientUnits="userSpaceOnUse">
<stop offset="0.04" stop-color="#FF6400"/>
<stop offset="0.44" stop-color="#F52600"/>
<stop offset="0.49" stop-color="#EF2B00"/>
<stop offset="0.76" stop-color="#D64001"/>
<stop offset="0.92" stop-color="#CC4801"/>
</linearGradient>
<linearGradient id="paint9_linear_118_2353" x1="64.5435" y1="49.1601" x2="67.0418" y2="59.5791" gradientUnits="userSpaceOnUse">
<stop stop-color="#FED635"/>
<stop offset="1" stop-color="#FFA800"/>
</linearGradient>
<linearGradient id="paint10_linear_118_2353" x1="65.0738" y1="52.3947" x2="69.3263" y2="45.0461" gradientUnits="userSpaceOnUse">
<stop offset="0.45" stop-color="#FF6400"/>
<stop offset="1" stop-color="#F52600"/>
</linearGradient>
<linearGradient id="paint11_linear_118_2353" x1="63.8136" y1="55.0064" x2="68.0134" y2="46.4819" gradientUnits="userSpaceOnUse">
<stop stop-color="#F59C0C"/>
<stop offset="1" stop-color="#F38700"/>
</linearGradient>
<linearGradient id="paint12_linear_118_2353" x1="61.4793" y1="55.4506" x2="71.6677" y2="55.3267" gradientUnits="userSpaceOnUse">
<stop stop-color="#FFF4B4" stop-opacity="0"/>
<stop offset="0.26" stop-color="#FFF4B4"/>
<stop offset="0.82" stop-color="#FFF4B4" stop-opacity="0.54"/>
<stop offset="1" stop-color="#FFF4B4" stop-opacity="0"/>
</linearGradient>
<linearGradient id="paint13_linear_118_2353" x1="63.3376" y1="55.7474" x2="67.168" y2="48.9534" gradientUnits="userSpaceOnUse">
<stop offset="0.04" stop-color="#FF6400"/>
<stop offset="0.44" stop-color="#F52600"/>
<stop offset="0.49" stop-color="#EF2B00"/>
<stop offset="0.76" stop-color="#D64001"/>
<stop offset="0.92" stop-color="#CC4801"/>
</linearGradient>
<linearGradient id="paint14_linear_118_2353" x1="65.122" y1="52.1341" x2="66.3779" y2="55.0872" gradientUnits="userSpaceOnUse">
<stop stop-color="#FED635"/>
<stop offset="1" stop-color="#FFA800"/>
</linearGradient>
<linearGradient id="paint15_linear_118_2353" x1="62.1781" y1="44.1736" x2="66.2618" y2="54.7348" gradientUnits="userSpaceOnUse">
<stop stop-color="#FFF4B4" stop-opacity="0"/>
<stop offset="0.26" stop-color="#FFF4B4"/>
<stop offset="0.82" stop-color="#FFF4B4" stop-opacity="0.54"/>
<stop offset="1" stop-color="#FFF4B4" stop-opacity="0"/>
</linearGradient>
<linearGradient id="paint16_linear_118_2353" x1="34.3846" y1="12.8299" x2="64.7694" y2="19.2783" gradientUnits="userSpaceOnUse">
<stop stop-color="#F1F1F1"/>
<stop offset="1" stop-color="#E1E1E1"/>
</linearGradient>
</defs>
</svg>
