<svg width="216" height="105" viewBox="0 0 216 105" fill="none" xmlns="http://www.w3.org/2000/svg">
<g filter="url(#filter0_d_118_1942)">
<rect x="28.2632" y="28" width="153" height="42" rx="6.49" fill="white"/>
<rect x="28.2632" y="28" width="153" height="42" rx="6.49" stroke="url(#paint0_linear_118_1942)" stroke-opacity="0.3" stroke-width="1.30158"/>
</g>
<g filter="url(#filter1_dii_118_1942)">
<mask id="path-3-outside-1_118_1942" maskUnits="userSpaceOnUse" x="50.5487" y="27.8754" width="42.6809" height="39.4143" fill="black">
<rect fill="white" x="50.5487" y="27.8754" width="42.6809" height="39.4143"/>
<path d="M69.7866 32.7294C73.8621 32.097 77.7187 34.2655 79.4242 37.8074C83.5292 37.2126 87.3479 40.0495 87.9747 44.178C88.5575 48.0168 86.1758 51.6252 82.5487 52.6578L83.3677 58.0471C83.5596 59.3104 82.6913 60.4936 81.4286 60.6896L67.0549 62.9215C65.7922 63.1175 64.6127 62.2519 64.4208 60.9886L63.6089 55.6457C63.5994 55.6472 63.5896 55.6496 63.5801 55.6511C59.4462 56.2926 55.5839 53.4454 54.9532 49.2914C54.3225 45.1373 57.1624 41.2493 61.2964 40.6076C61.5634 40.5662 61.8293 40.5399 62.0932 40.527C62.658 36.6172 65.7005 33.3637 69.7866 32.7294Z"/>
</mask>
<path d="M69.7866 32.7294C73.8621 32.097 77.7187 34.2655 79.4242 37.8074C83.5292 37.2126 87.3479 40.0495 87.9747 44.178C88.5575 48.0168 86.1758 51.6252 82.5487 52.6578L83.3677 58.0471C83.5596 59.3104 82.6913 60.4936 81.4286 60.6896L67.0549 62.9215C65.7922 63.1175 64.6127 62.2519 64.4208 60.9886L63.6089 55.6457C63.5994 55.6472 63.5896 55.6496 63.5801 55.6511C59.4462 56.2926 55.5839 53.4454 54.9532 49.2914C54.3225 45.1373 57.1624 41.2493 61.2964 40.6076C61.5634 40.5662 61.8293 40.5399 62.0932 40.527C62.658 36.6172 65.7005 33.3637 69.7866 32.7294Z" fill="url(#paint1_linear_118_1942)"/>
<path d="M69.7866 32.7294L69.543 31.1389L69.5429 31.1389L69.7866 32.7294ZM79.4242 37.8074L77.9748 38.5082L78.4857 39.5693L79.6519 39.4003L79.4242 37.8074ZM87.9747 44.178L89.565 43.9333L89.565 43.9333L87.9747 44.178ZM82.5487 52.6578L82.1112 51.1097L80.745 51.4987L80.9584 52.9026L82.5487 52.6578ZM83.3677 58.0471L84.9581 57.8024L84.958 57.8022L83.3677 58.0471ZM81.4286 60.6896L81.1849 59.0991L81.1848 59.0991L81.4286 60.6896ZM67.0549 62.9215L67.2986 64.512L67.2987 64.512L67.0549 62.9215ZM64.4208 60.9886L66.0112 60.7439L66.0112 60.7438L64.4208 60.9886ZM63.6089 55.6457L65.1992 55.4008L64.9562 53.8021L63.3592 54.0561L63.6089 55.6457ZM63.5801 55.6511L63.8237 57.2416L63.8238 57.2416L63.5801 55.6511ZM54.9532 49.2914L53.3628 49.536L53.3628 49.5361L54.9532 49.2914ZM61.2964 40.6076L61.0527 39.0171L61.0527 39.0171L61.2964 40.6076ZM62.0932 40.527L62.1688 42.1346L63.4952 42.0696L63.6852 40.7544L62.0932 40.527ZM69.7866 32.7294L70.0303 34.3199C73.3831 33.7996 76.5657 35.5817 77.9748 38.5082L79.4242 37.8074L80.8736 37.1067C78.8718 32.9492 74.341 30.3943 69.543 31.1389L69.7866 32.7294ZM79.4242 37.8074L79.6519 39.4003C82.8775 38.9329 85.8893 41.162 86.3843 44.4226L87.9747 44.178L89.565 43.9333C88.8064 38.9371 84.1809 35.4922 79.1965 36.2146L79.4242 37.8074ZM87.9747 44.178L86.3843 44.4226C86.8446 47.4537 84.9633 50.2978 82.1112 51.1097L82.5487 52.6578L82.9862 54.2058C87.3882 52.9527 90.2705 48.5798 89.565 43.9333L87.9747 44.178ZM82.5487 52.6578L80.9584 52.9026L81.7774 58.2919L83.3677 58.0471L84.958 57.8022L84.139 52.4129L82.5487 52.6578ZM83.3677 58.0471L81.7774 58.2917C81.8359 58.6773 81.5703 59.0393 81.1849 59.0991L81.4286 60.6896L81.6723 62.2801C83.8123 61.9479 85.2832 59.9436 84.9581 57.8024L83.3677 58.0471ZM81.4286 60.6896L81.1848 59.0991L66.8111 61.3311L67.0549 62.9215L67.2987 64.512L81.6724 62.2801L81.4286 60.6896ZM67.0549 62.9215L66.8112 61.3311C66.4276 61.3906 66.0695 61.128 66.0112 60.7439L64.4208 60.9886L62.8305 61.2334C63.156 63.3759 65.1568 64.8445 67.2986 64.512L67.0549 62.9215ZM64.4208 60.9886L66.0112 60.7438L65.1992 55.4008L63.6089 55.6457L62.0186 55.8905L62.8305 61.2335L64.4208 60.9886ZM63.6089 55.6457L63.3592 54.0561C63.3332 54.0603 63.312 54.0642 63.2988 54.0668C63.292 54.0681 63.2863 54.0692 63.2825 54.07C63.2791 54.0707 63.2757 54.0714 63.2752 54.0715C63.274 54.0718 63.2751 54.0715 63.2768 54.0712C63.2787 54.0708 63.2824 54.0701 63.2873 54.0691C63.2967 54.0673 63.3141 54.0641 63.3364 54.0606L63.5801 55.6511L63.8238 57.2416C63.8508 57.2374 63.873 57.2333 63.8872 57.2306C63.8945 57.2292 63.9007 57.228 63.9049 57.2271C63.909 57.2263 63.9126 57.2255 63.9137 57.2253C63.9156 57.2249 63.9147 57.2251 63.9136 57.2253C63.9123 57.2256 63.909 57.2263 63.9046 57.2271C63.8962 57.2287 63.8798 57.2318 63.8586 57.2352L63.6089 55.6457ZM63.5801 55.6511L63.3364 54.0606C60.088 54.5647 57.0417 52.3279 56.5435 49.0467L54.9532 49.2914L53.3628 49.5361C54.1261 54.5629 58.8044 58.0205 63.8237 57.2416L63.5801 55.6511ZM54.9532 49.2914L56.5435 49.0468C56.0451 45.7638 58.2899 42.7026 61.5401 42.1981L61.2964 40.6076L61.0527 39.0171C56.0349 39.796 52.5998 44.5107 53.3628 49.536L54.9532 49.2914ZM61.2964 40.6076L61.5401 42.1981C61.7488 42.1657 61.9585 42.1449 62.1688 42.1346L62.0932 40.527L62.0175 38.9194C61.7 38.9349 61.3779 38.9666 61.0527 39.0171L61.2964 40.6076ZM62.0932 40.527L63.6852 40.7544C64.1522 37.5218 66.6675 34.8419 70.0303 34.3199L69.7866 32.7294L69.5429 31.1389C64.7335 31.8855 61.1638 35.7127 60.5012 40.2996L62.0932 40.527Z" fill="#460860" mask="url(#path-3-outside-1_118_1942)"/>
</g>
<path fill-rule="evenodd" clip-rule="evenodd" d="M74.8359 50.7292C73.951 50.9469 73.5176 51.2445 73.396 51.4172C73.0937 51.8466 72.5006 51.9496 72.0712 51.6473C71.6418 51.345 71.5388 50.7519 71.8411 50.3225C72.3778 49.5602 73.398 49.1246 74.3816 48.8827C75.423 48.6265 76.6644 48.5287 77.9087 48.6143C79.1521 48.6998 80.4463 48.9717 81.5781 49.4921C82.7093 50.0122 83.802 50.6919 84.3939 51.8524C83.7593 52.2256 83.2982 52.4245 82.5654 52.6569C82.2248 51.9889 81.6582 51.6218 80.7838 51.2198C79.91 50.8181 78.8523 50.5853 77.7782 50.5114C76.7049 50.4376 75.6629 50.5258 74.8359 50.7292Z" fill="url(#paint2_linear_118_1942)"/>
<path d="M73.3227 46.0567C75.7834 41.5545 73.1907 36.2836 71.7409 34.2625C74.5696 34.2626 76.7658 35.325 78.4354 37.2856C79.1144 38.0831 79.3799 39.1513 79.2225 40.186C78.6155 44.177 76.5987 46.7083 73.7891 46.9209C73.3437 46.9546 73.1086 46.4486 73.3227 46.0567Z" fill="#FEF1F1"/>
<path d="M63.2242 42.2124C63.7804 38.6773 66.2758 36.7133 67.325 36.0806C65.4399 37.749 64.205 40.9833 67.3134 47.1075C67.6165 47.7047 67.0129 48.2931 66.4889 47.8761C64.7165 46.4655 62.9452 44.3782 63.2242 42.2124Z" fill="#E9C7C7" style="mix-blend-mode:multiply"/>
<path d="M57.7844 53.5723C55.2901 51.9519 55.3389 48.6417 55.6752 47.1891C56.6374 52.0997 60.9129 52.576 64.6244 51.7127C66.5282 51.2699 68.6617 52.301 69.0288 54.2225L70.3728 61.2576L67.0244 61.9445C66.1945 62.1148 65.3886 61.5602 65.2502 60.7237L64.4184 55.6952C64.3346 55.1884 63.8334 54.8574 63.3219 54.9013C61.9309 55.0208 59.7437 54.845 57.7844 53.5723Z" fill="#E9C7C7" style="mix-blend-mode:multiply"/>
<rect x="65.8898" y="54.233" width="2.19416" height="6.87503" rx="1.09708" transform="rotate(-10.6594 65.8898 54.233)" fill="url(#paint3_linear_118_1942)"/>
<rect x="71.8872" y="53.2822" width="2.19416" height="6.87503" rx="1.09708" transform="rotate(-10.6594 71.8872 53.2822)" fill="url(#paint4_linear_118_1942)"/>
<rect x="77.8114" y="52.4777" width="2.19416" height="6.87503" rx="1.09708" transform="rotate(-10.6594 77.8114 52.4777)" fill="url(#paint5_linear_118_1942)"/>
<ellipse cx="59.344" cy="44.4224" rx="3.55366" ry="1.69958" transform="rotate(-38.4497 59.344 44.4224)" fill="url(#paint6_linear_118_1942)"/>
<ellipse cx="81.9795" cy="39.1857" rx="2.03527" ry="0.973389" transform="rotate(12.0185 81.9795 39.1857)" fill="url(#paint7_linear_118_1942)"/>
<path d="M101.136 52.5V44.745H106.262V45.9H102.566V48.056H106.031V49.2H102.566V52.5H101.136ZM109.473 52.61C109.084 52.61 108.736 52.5367 108.428 52.39C108.12 52.236 107.878 52.0307 107.702 51.774C107.526 51.51 107.438 51.2167 107.438 50.894C107.438 50.498 107.544 50.1827 107.757 49.948C107.97 49.7133 108.311 49.5447 108.78 49.442C109.249 49.332 109.873 49.277 110.65 49.277H111.244V50.091H110.672C110.327 50.091 110.038 50.1057 109.803 50.135C109.568 50.157 109.378 50.1973 109.231 50.256C109.084 50.3073 108.978 50.3807 108.912 50.476C108.846 50.5713 108.813 50.6887 108.813 50.828C108.813 51.07 108.897 51.2643 109.066 51.411C109.242 51.5577 109.48 51.631 109.781 51.631C110.023 51.631 110.239 51.576 110.43 51.466C110.628 51.3487 110.786 51.191 110.903 50.993C111.02 50.7877 111.079 50.5603 111.079 50.311V49.057C111.079 48.6903 110.991 48.43 110.815 48.276C110.639 48.122 110.353 48.045 109.957 48.045C109.656 48.045 109.348 48.089 109.033 48.177C108.718 48.265 108.395 48.4043 108.065 48.595L107.658 47.638C107.863 47.506 108.098 47.3923 108.362 47.297C108.626 47.1943 108.905 47.1173 109.198 47.066C109.491 47.0147 109.774 46.989 110.045 46.989C110.573 46.989 111.009 47.0697 111.354 47.231C111.706 47.385 111.97 47.627 112.146 47.957C112.322 48.287 112.41 48.7123 112.41 49.233V52.5H111.134V51.356H111.2C111.134 51.6127 111.02 51.8363 110.859 52.027C110.705 52.2103 110.511 52.3533 110.276 52.456C110.049 52.5587 109.781 52.61 109.473 52.61ZM114.474 52.5V47.099H115.816V48.188H115.728C115.823 47.9387 115.955 47.726 116.124 47.55C116.3 47.3667 116.505 47.2273 116.74 47.132C116.982 47.0367 117.246 46.989 117.532 46.989C117.972 46.989 118.331 47.0917 118.61 47.297C118.896 47.5023 119.094 47.814 119.204 48.232H119.083C119.23 47.8507 119.468 47.55 119.798 47.33C120.135 47.1027 120.528 46.989 120.975 46.989C121.393 46.989 121.738 47.0697 122.009 47.231C122.28 47.3923 122.482 47.638 122.614 47.968C122.753 48.298 122.823 48.7197 122.823 49.233V52.5H121.426V49.288C121.426 48.8773 121.356 48.5767 121.217 48.386C121.085 48.1953 120.854 48.1 120.524 48.1C120.282 48.1 120.069 48.1587 119.886 48.276C119.71 48.386 119.574 48.5473 119.479 48.76C119.391 48.9727 119.347 49.2257 119.347 49.519V52.5H117.95V49.288C117.95 48.8773 117.88 48.5767 117.741 48.386C117.602 48.1953 117.374 48.1 117.059 48.1C116.81 48.1 116.597 48.1587 116.421 48.276C116.245 48.3933 116.109 48.5583 116.014 48.771C115.919 48.9763 115.871 49.222 115.871 49.508V52.5H114.474ZM124.8 45.955V44.58H126.373V45.955H124.8ZM124.888 52.5V47.099H126.296V52.5H124.888ZM130.233 52.61C129.595 52.61 129.122 52.4377 128.814 52.093C128.506 51.7483 128.352 51.246 128.352 50.586V44.745H129.76V50.509C129.76 50.7143 129.789 50.8903 129.848 51.037C129.906 51.1837 129.994 51.2937 130.112 51.367C130.236 51.433 130.387 51.466 130.563 51.466C130.651 51.466 130.735 51.4623 130.816 51.455C130.904 51.4477 130.988 51.433 131.069 51.411V52.5C130.929 52.5367 130.794 52.5623 130.662 52.577C130.53 52.599 130.387 52.61 130.233 52.61ZM132.87 54.48L134.003 51.994V52.687L131.594 47.099H133.079L134.718 51.235H134.454L136.104 47.099H137.523L134.322 54.48H132.87ZM142.539 52.5V44.745H147.665V45.9H143.969V48.056H147.434V49.2H143.969V52.5H142.539ZM151.799 52.61C151.176 52.61 150.641 52.4963 150.193 52.269C149.746 52.0417 149.401 51.719 149.159 51.301C148.917 50.8757 148.796 50.377 148.796 49.805C148.796 49.2477 148.91 48.76 149.137 48.342C149.372 47.9167 149.695 47.5867 150.105 47.352C150.523 47.11 151 46.989 151.535 46.989C152.056 46.989 152.503 47.099 152.877 47.319C153.251 47.539 153.541 47.8543 153.746 48.265C153.952 48.6683 154.054 49.156 154.054 49.728V50.135H149.918V49.321H153.064L152.888 49.486C152.888 48.9873 152.775 48.606 152.547 48.342C152.32 48.078 151.997 47.946 151.579 47.946C151.279 47.946 151.018 48.0157 150.798 48.155C150.578 48.2943 150.41 48.4923 150.292 48.749C150.175 49.0057 150.116 49.31 150.116 49.662V49.761C150.116 50.1643 150.179 50.498 150.303 50.762C150.435 51.0187 150.63 51.213 150.886 51.345C151.143 51.477 151.458 51.543 151.832 51.543C152.133 51.543 152.434 51.499 152.734 51.411C153.035 51.323 153.31 51.18 153.559 50.982L153.955 51.928C153.684 52.148 153.354 52.3167 152.965 52.434C152.577 52.5513 152.188 52.61 151.799 52.61ZM157.573 52.61C157.185 52.61 156.836 52.5367 156.528 52.39C156.22 52.236 155.978 52.0307 155.802 51.774C155.626 51.51 155.538 51.2167 155.538 50.894C155.538 50.498 155.645 50.1827 155.857 49.948C156.07 49.7133 156.411 49.5447 156.88 49.442C157.35 49.332 157.973 49.277 158.75 49.277H159.344V50.091H158.772C158.428 50.091 158.138 50.1057 157.903 50.135C157.669 50.157 157.478 50.1973 157.331 50.256C157.185 50.3073 157.078 50.3807 157.012 50.476C156.946 50.5713 156.913 50.6887 156.913 50.828C156.913 51.07 156.998 51.2643 157.166 51.411C157.342 51.5577 157.581 51.631 157.881 51.631C158.123 51.631 158.34 51.576 158.53 51.466C158.728 51.3487 158.886 51.191 159.003 50.993C159.121 50.7877 159.179 50.5603 159.179 50.311V49.057C159.179 48.6903 159.091 48.43 158.915 48.276C158.739 48.122 158.453 48.045 158.057 48.045C157.757 48.045 157.449 48.089 157.133 48.177C156.818 48.265 156.495 48.4043 156.165 48.595L155.758 47.638C155.964 47.506 156.198 47.3923 156.462 47.297C156.726 47.1943 157.005 47.1173 157.298 47.066C157.592 47.0147 157.874 46.989 158.145 46.989C158.673 46.989 159.11 47.0697 159.454 47.231C159.806 47.385 160.07 47.627 160.246 47.957C160.422 48.287 160.51 48.7123 160.51 49.233V52.5H159.234V51.356H159.3C159.234 51.6127 159.121 51.8363 158.959 52.027C158.805 52.2103 158.611 52.3533 158.376 52.456C158.149 52.5587 157.881 52.61 157.573 52.61ZM164.566 52.61C164.265 52.61 163.968 52.5843 163.675 52.533C163.389 52.4817 163.125 52.412 162.883 52.324C162.648 52.2287 162.439 52.1113 162.256 51.972L162.619 51.048C162.802 51.1653 163 51.268 163.213 51.356C163.433 51.4367 163.656 51.499 163.884 51.543C164.118 51.587 164.346 51.609 164.566 51.609C164.932 51.609 165.204 51.554 165.38 51.444C165.563 51.3267 165.655 51.169 165.655 50.971C165.655 50.8023 165.596 50.674 165.479 50.586C165.369 50.498 165.196 50.432 164.962 50.388L163.829 50.19C163.359 50.102 163.004 49.9297 162.762 49.673C162.52 49.4163 162.399 49.0937 162.399 48.705C162.399 48.353 162.494 48.0487 162.685 47.792C162.875 47.5353 163.147 47.3373 163.499 47.198C163.851 47.0587 164.261 46.989 164.731 46.989C164.995 46.989 165.251 47.011 165.501 47.055C165.75 47.099 165.985 47.1687 166.205 47.264C166.425 47.352 166.615 47.4693 166.777 47.616L166.392 48.54C166.252 48.4227 166.087 48.3237 165.897 48.243C165.713 48.1623 165.523 48.1 165.325 48.056C165.127 48.012 164.932 47.99 164.742 47.99C164.375 47.99 164.1 48.0487 163.917 48.166C163.741 48.2833 163.653 48.4447 163.653 48.65C163.653 48.804 163.704 48.9287 163.807 49.024C163.917 49.1193 164.082 49.1853 164.302 49.222L165.413 49.431C165.911 49.519 166.285 49.684 166.535 49.926C166.791 50.168 166.92 50.4907 166.92 50.894C166.92 51.2533 166.821 51.5613 166.623 51.818C166.432 52.0747 166.161 52.2727 165.809 52.412C165.457 52.544 165.042 52.61 164.566 52.61ZM171.092 52.61C170.359 52.61 169.812 52.4303 169.453 52.071C169.101 51.7043 168.925 51.1727 168.925 50.476V48.166H167.88V47.099H168.936V45.504H170.322V47.099H172.016V48.166H170.322V50.399C170.322 50.751 170.399 51.015 170.553 51.191C170.714 51.367 170.967 51.455 171.312 51.455C171.422 51.455 171.536 51.4403 171.653 51.411C171.77 51.3817 171.891 51.3523 172.016 51.323L172.225 52.357C172.078 52.4377 171.902 52.5 171.697 52.544C171.492 52.588 171.29 52.61 171.092 52.61Z" fill="#202224"/>
<mask id="mask0_118_1942" style="mask-type:alpha" maskUnits="userSpaceOnUse" x="27" y="27" width="30" height="44">
<path d="M28.2632 34.49C28.2632 30.9057 31.1689 28 34.7532 28H43.772C50.6707 28 56.2632 33.5925 56.2632 40.4912V57.5088C56.2632 64.4075 50.6707 70 43.772 70H34.7532C31.1689 70 28.2632 67.0943 28.2632 63.51V34.49Z" fill="white" stroke="url(#paint8_linear_118_1942)" stroke-opacity="0.3" stroke-width="1.30158"/>
</mask>
<g mask="url(#mask0_118_1942)">
<rect x="27.2632" y="27.1923" width="14" height="43.6154" fill="#587ED7"/>
</g>
<defs>
<filter id="filter0_d_118_1942" x="0.560465" y="0.297343" width="215.168" height="104.168" filterUnits="userSpaceOnUse" color-interpolation-filters="sRGB">
<feFlood flood-opacity="0" result="BackgroundImageFix"/>
<feColorMatrix in="SourceAlpha" type="matrix" values="0 0 0 0 0 0 0 0 0 0 0 0 0 0 0 0 0 0 127 0" result="hardAlpha"/>
<feOffset dx="3.38149" dy="3.38149"/>
<feGaussianBlur stdDeviation="15.2167"/>
<feColorMatrix type="matrix" values="0 0 0 0 0 0 0 0 0 0 0 0 0 0 0 0 0 0 0.05 0"/>
<feBlend mode="normal" in2="BackgroundImageFix" result="effect1_dropShadow_118_1942"/>
<feBlend mode="normal" in="SourceGraphic" in2="effect1_dropShadow_118_1942" result="shape"/>
</filter>
<filter id="filter1_dii_118_1942" x="53.2568" y="31.0104" width="36.4143" height="35.0845" filterUnits="userSpaceOnUse" color-interpolation-filters="sRGB">
<feFlood flood-opacity="0" result="BackgroundImageFix"/>
<feColorMatrix in="SourceAlpha" type="matrix" values="0 0 0 0 0 0 0 0 0 0 0 0 0 0 0 0 0 0 127 0" result="hardAlpha"/>
<feOffset dy="1.53591"/>
<feComposite in2="hardAlpha" operator="out"/>
<feColorMatrix type="matrix" values="0 0 0 0 0.176471 0 0 0 0 0.0352941 0 0 0 0 0.262745 0 0 0 1 0"/>
<feBlend mode="normal" in2="BackgroundImageFix" result="effect1_dropShadow_118_1942"/>
<feBlend mode="normal" in="SourceGraphic" in2="effect1_dropShadow_118_1942" result="shape"/>
<feColorMatrix in="SourceAlpha" type="matrix" values="0 0 0 0 0 0 0 0 0 0 0 0 0 0 0 0 0 0 127 0" result="hardAlpha"/>
<feOffset dx="1.24336" dy="2.77927"/>
<feComposite in2="hardAlpha" operator="arithmetic" k2="-1" k3="1"/>
<feColorMatrix type="matrix" values="0 0 0 0 1 0 0 0 0 1 0 0 0 0 1 0 0 0 0.4 0"/>
<feBlend mode="normal" in2="shape" result="effect2_innerShadow_118_1942"/>
<feColorMatrix in="SourceAlpha" type="matrix" values="0 0 0 0 0 0 0 0 0 0 0 0 0 0 0 0 0 0 127 0" result="hardAlpha"/>
<feOffset dx="-2.85241" dy="-1.9016"/>
<feComposite in2="hardAlpha" operator="arithmetic" k2="-1" k3="1"/>
<feColorMatrix type="matrix" values="0 0 0 0 0.425 0 0 0 0 0.141667 0 0 0 0 0.141667 0 0 0 0.25 0"/>
<feBlend mode="normal" in2="effect2_innerShadow_118_1942" result="effect3_innerShadow_118_1942"/>
</filter>
<linearGradient id="paint0_linear_118_1942" x1="63.1505" y1="12.8299" x2="137.147" y2="98.6413" gradientUnits="userSpaceOnUse">
<stop stop-color="#F1F1F1"/>
<stop offset="1" stop-color="#E1E1E1"/>
</linearGradient>
<linearGradient id="paint1_linear_118_1942" x1="69.3383" y1="32.7987" x2="73.8312" y2="61.8745" gradientUnits="userSpaceOnUse">
<stop stop-color="#FFEBEB"/>
<stop offset="1" stop-color="#E1B1AE"/>
</linearGradient>
<linearGradient id="paint2_linear_118_1942" x1="83.2602" y1="52.1815" x2="75.3613" y2="49.5851" gradientUnits="userSpaceOnUse">
<stop stop-color="#C89492" stop-opacity="0.995"/>
<stop offset="0.427178" stop-color="#C4B9B8" stop-opacity="0.569958"/>
<stop offset="1" stop-color="#C89492" stop-opacity="0"/>
</linearGradient>
<linearGradient id="paint3_linear_118_1942" x1="66.9869" y1="54.233" x2="66.9869" y2="61.1081" gradientUnits="userSpaceOnUse">
<stop stop-color="#E4B5B2" stop-opacity="0"/>
<stop offset="1" stop-color="#E4B5B2"/>
</linearGradient>
<linearGradient id="paint4_linear_118_1942" x1="72.9843" y1="53.2822" x2="72.9843" y2="60.1573" gradientUnits="userSpaceOnUse">
<stop stop-color="#CC9997"/>
<stop offset="1" stop-color="#EDC7C5" stop-opacity="0"/>
</linearGradient>
<linearGradient id="paint5_linear_118_1942" x1="78.9085" y1="52.4777" x2="78.9085" y2="59.3527" gradientUnits="userSpaceOnUse">
<stop stop-color="#CB9B9A"/>
<stop offset="1" stop-color="#CB9C9A" stop-opacity="0"/>
</linearGradient>
<linearGradient id="paint6_linear_118_1942" x1="62.0079" y1="42.223" x2="60.092" y2="47.5265" gradientUnits="userSpaceOnUse">
<stop stop-color="white"/>
<stop offset="1" stop-color="white" stop-opacity="0"/>
</linearGradient>
<linearGradient id="paint7_linear_118_1942" x1="83.5052" y1="37.926" x2="82.4079" y2="40.9634" gradientUnits="userSpaceOnUse">
<stop stop-color="white"/>
<stop offset="1" stop-color="white" stop-opacity="0"/>
</linearGradient>
<linearGradient id="paint8_linear_118_1942" x1="34.6478" y1="12.8299" x2="65.0326" y2="19.2783" gradientUnits="userSpaceOnUse">
<stop stop-color="#F1F1F1"/>
<stop offset="1" stop-color="#E1E1E1"/>
</linearGradient>
</defs>
</svg>
