<svg width="216" height="105" viewBox="0 0 216 105" fill="none" xmlns="http://www.w3.org/2000/svg">
<g filter="url(#filter0_d_118_2293)">
<rect x="28" y="28" width="153" height="42" rx="6.49" fill="white"/>
<rect x="28" y="28" width="153" height="42" rx="6.49" stroke="url(#paint0_linear_118_2293)" stroke-opacity="0.3" stroke-width="1.30158"/>
</g>
<g filter="url(#filter1_d_118_2293)">
<mask id="path-3-outside-1_118_2293" maskUnits="userSpaceOnUse" x="52.4382" y="33.0093" width="38" height="31" fill="black">
<rect fill="white" x="52.4382" y="33.0093" width="38" height="31"/>
<path fill-rule="evenodd" clip-rule="evenodd" d="M81.9438 37.8503L82.1078 37.476L82.191 37.5125L82.2509 37.5807C82.8834 38.3011 83.3202 39.5392 83.6049 40.9726C83.8645 42.2799 84.0079 43.8055 84.0359 45.374C84.8146 44.7718 85.4886 44.132 85.8996 43.5029C86.016 43.3247 86.2503 43.2487 86.4282 43.3658C89.8695 45.6292 88.1596 51.7675 86.683 52.4647C86.493 52.5545 86.7118 52.9399 86.8852 53.1949C86.986 53.3433 87.0229 53.5288 86.9569 53.6956C86.1704 55.6811 83.4685 59.3609 81.5677 58.8353L81.6966 59.2648C81.7314 59.3807 81.6998 59.507 81.6115 59.5897C80.1518 60.9584 78.2977 61.4936 77.1439 60.2836C74.7359 61.7721 72.2566 62.7304 71.3266 62.7304C70.4343 62.7304 67.9198 61.9201 65.5249 60.5623C64.3679 61.3933 62.708 60.8383 61.3763 59.5897C61.288 59.5069 61.2564 59.3807 61.2912 59.2648L61.4201 58.8353C59.5193 59.3609 56.8174 55.6811 56.031 53.6955C55.9649 53.5288 56.0018 53.3433 56.1027 53.1949C56.276 52.9399 56.4948 52.5544 56.3048 52.4647C54.8283 51.7675 53.1183 45.6292 56.5597 43.3657C56.7376 43.2487 56.9718 43.3246 57.0882 43.5029C57.4866 44.1127 58.1322 44.7326 58.8806 45.3185C58.8719 43.7466 58.9618 42.2225 59.1704 40.9222C59.396 39.5155 59.7715 38.2948 60.3741 37.5857L60.4355 37.5134L60.5226 37.4755L60.6854 37.8503C60.5226 37.4755 60.5227 37.4755 60.5228 37.4754L60.5277 37.4733L60.5408 37.4677L60.5908 37.4465C60.6344 37.4281 60.6985 37.4013 60.7815 37.3675C60.9475 37.2997 61.1893 37.2034 61.4949 37.088C62.1058 36.8572 62.9728 36.5499 63.9994 36.2426C66.0469 35.6298 68.7538 35.0093 71.3385 35.0093C73.9234 35.0093 76.6185 35.6298 78.6544 36.2428C79.6751 36.5502 80.5362 36.8575 81.1428 37.0883C81.4462 37.2037 81.6862 37.3001 81.8509 37.3679C81.9333 37.4018 81.9968 37.4285 82.0402 37.447L82.0897 37.4682L82.0941 37.4701L82.1028 37.4738L82.1063 37.4754L82.1076 37.4759C82.1077 37.476 82.1078 37.476 81.9438 37.8503ZM81.9438 37.8503C81.9438 37.8503 81.9438 37.8503 81.9438 37.8503C81.9438 37.8503 76.3929 35.4179 71.3385 35.4179C66.2842 35.4179 60.6854 37.8503 60.6854 37.8503C59.6514 39.0673 59.2453 42.2457 59.2923 45.6301C59.2923 45.6301 59.2923 45.6301 59.2923 45.6301C59.2454 42.2457 59.6514 39.0673 60.6855 37.8503C60.6855 37.8503 66.2842 35.4179 71.3386 35.4179C76.3855 35.4179 81.9276 37.8432 81.9438 37.8503Z"/>
</mask>
<path fill-rule="evenodd" clip-rule="evenodd" d="M81.9438 37.8503L82.1078 37.476L82.191 37.5125L82.2509 37.5807C82.8834 38.3011 83.3202 39.5392 83.6049 40.9726C83.8645 42.2799 84.0079 43.8055 84.0359 45.374C84.8146 44.7718 85.4886 44.132 85.8996 43.5029C86.016 43.3247 86.2503 43.2487 86.4282 43.3658C89.8695 45.6292 88.1596 51.7675 86.683 52.4647C86.493 52.5545 86.7118 52.9399 86.8852 53.1949C86.986 53.3433 87.0229 53.5288 86.9569 53.6956C86.1704 55.6811 83.4685 59.3609 81.5677 58.8353L81.6966 59.2648C81.7314 59.3807 81.6998 59.507 81.6115 59.5897C80.1518 60.9584 78.2977 61.4936 77.1439 60.2836C74.7359 61.7721 72.2566 62.7304 71.3266 62.7304C70.4343 62.7304 67.9198 61.9201 65.5249 60.5623C64.3679 61.3933 62.708 60.8383 61.3763 59.5897C61.288 59.5069 61.2564 59.3807 61.2912 59.2648L61.4201 58.8353C59.5193 59.3609 56.8174 55.6811 56.031 53.6955C55.9649 53.5288 56.0018 53.3433 56.1027 53.1949C56.276 52.9399 56.4948 52.5544 56.3048 52.4647C54.8283 51.7675 53.1183 45.6292 56.5597 43.3657C56.7376 43.2487 56.9718 43.3246 57.0882 43.5029C57.4866 44.1127 58.1322 44.7326 58.8806 45.3185C58.8719 43.7466 58.9618 42.2225 59.1704 40.9222C59.396 39.5155 59.7715 38.2948 60.3741 37.5857L60.4355 37.5134L60.5226 37.4755L60.6854 37.8503C60.5226 37.4755 60.5227 37.4755 60.5228 37.4754L60.5277 37.4733L60.5408 37.4677L60.5908 37.4465C60.6344 37.4281 60.6985 37.4013 60.7815 37.3675C60.9475 37.2997 61.1893 37.2034 61.4949 37.088C62.1058 36.8572 62.9728 36.5499 63.9994 36.2426C66.0469 35.6298 68.7538 35.0093 71.3385 35.0093C73.9234 35.0093 76.6185 35.6298 78.6544 36.2428C79.6751 36.5502 80.5362 36.8575 81.1428 37.0883C81.4462 37.2037 81.6862 37.3001 81.8509 37.3679C81.9333 37.4018 81.9968 37.4285 82.0402 37.447L82.0897 37.4682L82.0941 37.4701L82.1028 37.4738L82.1063 37.4754L82.1076 37.4759C82.1077 37.476 82.1078 37.476 81.9438 37.8503ZM81.9438 37.8503C81.9438 37.8503 81.9438 37.8503 81.9438 37.8503C81.9438 37.8503 76.3929 35.4179 71.3385 35.4179C66.2842 35.4179 60.6854 37.8503 60.6854 37.8503C59.6514 39.0673 59.2453 42.2457 59.2923 45.6301C59.2923 45.6301 59.2923 45.6301 59.2923 45.6301C59.2454 42.2457 59.6514 39.0673 60.6855 37.8503C60.6855 37.8503 66.2842 35.4179 71.3386 35.4179C76.3855 35.4179 81.9276 37.8432 81.9438 37.8503Z" fill="#D9D9D9"/>
<path d="M82.1078 37.476L81.0202 36.9994L81.4968 35.9118L82.5844 36.3884L82.1078 37.476ZM82.191 37.5125L82.6676 36.4248L82.9093 36.5307L83.0834 36.729L82.191 37.5125ZM82.2509 37.5807L83.1433 36.7972L83.1433 36.7972L82.2509 37.5807ZM83.6049 40.9726L82.4402 41.2039L82.4402 41.2039L83.6049 40.9726ZM84.0359 45.374L84.7623 46.3134L82.8909 47.7604L82.8486 45.3952L84.0359 45.374ZM85.8996 43.5029L84.9054 42.8535L84.9054 42.8535L85.8996 43.5029ZM86.4282 43.3658L87.0807 42.3736L87.0807 42.3736L86.4282 43.3658ZM86.683 52.4647L86.176 51.3909L86.176 51.3909L86.683 52.4647ZM86.8852 53.1949L87.8672 52.5273L87.8672 52.5273L86.8852 53.1949ZM86.9569 53.6956L85.8528 53.2582L85.8528 53.2582L86.9569 53.6956ZM81.5677 58.8353L80.4303 59.1768L79.8122 57.1179L81.8842 57.6908L81.5677 58.8353ZM81.6966 59.2648L82.834 58.9233L82.834 58.9233L81.6966 59.2648ZM81.6115 59.5897L82.4238 60.456L82.4238 60.456L81.6115 59.5897ZM77.1439 60.2836L76.5195 59.2735L77.3387 58.7671L78.0033 59.4641L77.1439 60.2836ZM65.5249 60.5623L64.8321 59.5978L65.4494 59.1545L66.1105 59.5293L65.5249 60.5623ZM61.3763 59.5897L60.5641 60.456L60.564 60.456L61.3763 59.5897ZM61.2912 59.2648L60.1538 58.9233L60.1538 58.9233L61.2912 59.2648ZM61.4201 58.8353L61.1036 57.6908L63.1756 57.1179L62.5575 59.1768L61.4201 58.8353ZM56.031 53.6955L57.135 53.2582L57.135 53.2582L56.031 53.6955ZM56.1027 53.1949L57.0847 53.8625L57.0847 53.8625L56.1027 53.1949ZM56.3048 52.4647L55.7977 53.5385L55.7977 53.5385L56.3048 52.4647ZM56.5597 43.3657L57.2122 44.3579L57.2122 44.3579L56.5597 43.3657ZM57.0882 43.5029L58.0824 42.8535L58.0824 42.8535L57.0882 43.5029ZM58.8806 45.3185L60.0681 45.3119L60.0818 47.7667L58.1487 46.2536L58.8806 45.3185ZM59.1704 40.9222L57.9979 40.7341L57.9979 40.7341L59.1704 40.9222ZM60.3741 37.5857L59.4691 36.8168L59.4691 36.8168L60.3741 37.5857ZM60.4355 37.5134L59.5306 36.7444L59.7093 36.5342L59.9623 36.4242L60.4355 37.5134ZM60.5226 37.4755L60.0494 36.3864L61.1386 35.9132L61.6118 37.0023L60.5226 37.4755ZM60.5228 37.4754L60.0511 36.3857L60.0514 36.3855L60.5228 37.4754ZM60.5277 37.4733L60.0562 36.3834L60.0589 36.3823L60.5277 37.4733ZM60.5408 37.4677L60.072 36.3766L60.0766 36.3747L60.5408 37.4677ZM60.5908 37.4465L60.1266 36.3535L60.1293 36.3523L60.5908 37.4465ZM60.7815 37.3675L60.3327 36.268L60.3328 36.268L60.7815 37.3675ZM61.4949 37.088L61.0753 35.977L61.0753 35.977L61.4949 37.088ZM63.9994 36.2426L64.34 37.3803L64.34 37.3803L63.9994 36.2426ZM78.6544 36.2428L78.9967 35.1058L78.9967 35.1058L78.6544 36.2428ZM81.1428 37.0883L81.5651 35.9784L81.5651 35.9784L81.1428 37.0883ZM81.8509 37.3679L81.3991 38.4661L81.3991 38.4661L81.8509 37.3679ZM82.0402 37.447L82.5049 36.3542L82.5076 36.3553L82.0402 37.447ZM82.0897 37.4682L82.5572 36.3766L82.5609 36.3782L82.0897 37.4682ZM82.0941 37.4701L82.5652 36.38L82.5666 36.3806L82.0941 37.4701ZM82.1028 37.4738L82.5754 36.3844L82.5772 36.3852L82.1028 37.4738ZM82.1063 37.4754L82.5807 36.3867L82.5819 36.3873L82.1063 37.4754ZM82.1076 37.4759L82.5832 36.3879L82.5839 36.3881L82.1076 37.4759ZM81.9438 37.8503L82.812 37.04L81.4675 38.9381L81.9438 37.8503ZM59.2923 45.6301L58.5798 46.5801L58.113 46.23L58.1049 45.6465L59.2923 45.6301ZM59.2923 45.6301L60.4797 45.6136L60.5133 48.0302L58.5798 46.5801L59.2923 45.6301ZM60.6855 37.8503L59.7805 37.0814L59.9592 36.8711L60.2123 36.7612L60.6855 37.8503ZM82.1078 37.476L83.1955 37.9526L83.0315 38.3269L81.9438 37.8503L80.8562 37.3737L81.0202 36.9994L82.1078 37.476ZM82.191 37.5125L81.7144 38.6001L81.6312 38.5637L82.1078 37.476L82.5844 36.3884L82.6676 36.4248L82.191 37.5125ZM82.2509 37.5807L81.3585 38.3642L81.2986 38.2959L82.191 37.5125L83.0834 36.729L83.1433 36.7972L82.2509 37.5807ZM83.6049 40.9726L82.4402 41.2039C82.163 39.8083 81.7729 38.8362 81.3585 38.3642L82.2509 37.5807L83.1433 36.7972C83.9938 37.7661 84.4775 39.2702 84.7697 40.7413L83.6049 40.9726ZM84.0359 45.374L82.8486 45.3952C82.8215 43.8799 82.683 42.4268 82.4402 41.2039L83.6049 40.9726L84.7697 40.7413C85.0461 42.133 85.1942 43.7311 85.2232 45.3527L84.0359 45.374ZM84.0359 45.374L83.3095 44.4345C84.0483 43.8633 84.6012 43.3192 84.9054 42.8535L85.8996 43.5029L86.8937 44.1523C86.3761 44.9448 85.5809 45.6804 84.7623 46.3134L84.0359 45.374ZM85.8996 43.5029L84.9054 42.8535C85.2962 42.2552 86.2321 41.8154 87.0807 42.3736L86.4282 43.3658L85.7756 44.3579C86.0036 44.5079 86.2613 44.5229 86.4603 44.4673C86.6484 44.4148 86.7979 44.2991 86.8937 44.1523L85.8996 43.5029ZM86.4282 43.3658L87.0807 42.3736C89.3429 43.8615 89.7812 46.5286 89.5819 48.6155C89.4794 49.6888 89.2041 50.7172 88.8357 51.5483C88.6515 51.9639 88.4334 52.3545 88.1832 52.6842C87.9443 52.999 87.6173 53.3368 87.1901 53.5385L86.683 52.4647L86.176 51.3909C86.1179 51.4184 86.1673 51.4118 86.2912 51.2486C86.4036 51.1004 86.5344 50.8793 86.6644 50.586C86.9244 49.9994 87.1383 49.221 87.2177 48.3897C87.3821 46.6673 86.9548 45.1335 85.7756 44.3579L86.4282 43.3658ZM86.683 52.4647L87.1901 53.5385C87.3661 53.4554 87.5309 53.3166 87.6463 53.1258C87.7553 52.9455 87.7874 52.7736 87.795 52.6595C87.8024 52.5479 87.7885 52.4647 87.7801 52.4245C87.771 52.3815 87.7613 52.355 87.7589 52.3487C87.7551 52.3386 87.7603 52.3539 87.7849 52.397C87.8073 52.4362 87.8358 52.4811 87.8672 52.5273L86.8852 53.1949L85.9031 53.8625C85.8057 53.7192 85.6411 53.4637 85.5368 53.187C85.4891 53.0606 85.405 52.8069 85.4252 52.5021C85.4504 52.1231 85.6528 51.638 86.176 51.3909L86.683 52.4647ZM86.8852 53.1949L87.8672 52.5273C88.1397 52.9282 88.3015 53.5254 88.0609 54.1329L86.9569 53.6956L85.8528 53.2582C85.7443 53.5322 85.8323 53.7584 85.9031 53.8625L86.8852 53.1949ZM86.9569 53.6956L88.0609 54.1329C87.6092 55.2733 86.6547 56.8114 85.5552 58.0099C85.0034 58.6114 84.3672 59.1805 83.6867 59.5662C83.0187 59.945 82.1553 60.2299 81.2512 59.9799L81.5677 58.8353L81.8842 57.6908C81.9305 57.7036 82.1177 57.7256 82.5154 57.5002C82.9007 57.2817 83.3456 56.9053 83.8051 56.4044C84.7283 55.398 85.5181 54.1033 85.8528 53.2582L86.9569 53.6956ZM81.5677 58.8353L82.705 58.4939L82.834 58.9233L81.6966 59.2648L80.5593 59.6062L80.4303 59.1768L81.5677 58.8353ZM81.6966 59.2648L82.834 58.9233C82.993 59.4531 82.8542 60.0525 82.4238 60.456L81.6115 59.5897L80.7993 58.7235C80.5455 58.9614 80.4698 59.3083 80.5593 59.6062L81.6966 59.2648ZM81.6115 59.5897L82.4238 60.456C81.5828 61.2445 80.5601 61.8612 79.4896 62.0693C78.3764 62.2858 77.1892 62.0519 76.2845 61.1031L77.1439 60.2836L78.0033 59.4641C78.2523 59.7253 78.5692 59.8288 79.0364 59.738C79.5463 59.6388 80.1805 59.3036 80.7993 58.7235L81.6115 59.5897ZM77.1439 60.2836L77.7683 61.2937C76.51 62.0715 75.2302 62.713 74.1319 63.1638C73.5829 63.3891 73.0667 63.5719 72.6117 63.7003C72.178 63.8227 71.7238 63.9179 71.3266 63.9179V62.7304V61.5429C71.3944 61.5429 71.5988 61.5184 71.9668 61.4145C72.3135 61.3167 72.742 61.1669 73.2301 60.9666C74.206 60.5661 75.3698 59.9842 76.5195 59.2735L77.1439 60.2836ZM71.3266 62.7304V63.9179C70.657 63.9179 69.6356 63.6484 68.5888 63.2735C67.4894 62.8797 66.1996 62.3099 64.9392 61.5954L65.5249 60.5623L66.1105 59.5293C67.2451 60.1725 68.41 60.6867 69.3896 61.0376C70.4219 61.4073 71.1039 61.5429 71.3266 61.5429V62.7304ZM65.5249 60.5623L66.2176 61.5268C65.2842 62.1972 64.1935 62.2619 63.2141 62.0043C62.2508 61.751 61.3343 61.1782 60.5641 60.456L61.3763 59.5897L62.1885 58.7234C62.7499 59.2498 63.3292 59.5788 63.8181 59.7074C64.2908 59.8317 64.6085 59.7584 64.8321 59.5978L65.5249 60.5623ZM61.3763 59.5897L60.564 60.456C60.1337 60.0525 59.9948 59.4531 60.1538 58.9233L61.2912 59.2648L62.4285 59.6062C62.518 59.3082 62.4423 58.9614 62.1885 58.7235L61.3763 59.5897ZM61.2912 59.2648L60.1538 58.9233L60.2828 58.4939L61.4201 58.8353L62.5575 59.1768L62.4285 59.6062L61.2912 59.2648ZM61.4201 58.8353L61.7366 59.9799C60.8325 60.2299 59.9692 59.9449 59.3011 59.5662C58.6206 59.1805 57.9844 58.6114 57.4326 58.0099C56.3331 56.8113 55.3787 55.2733 54.9269 54.1329L56.031 53.6955L57.135 53.2582C57.4697 54.1033 58.2595 55.398 59.1827 56.4043C59.6422 56.9053 60.0871 57.2817 60.4724 57.5001C60.8701 57.7256 61.0573 57.7036 61.1036 57.6908L61.4201 58.8353ZM56.031 53.6955L54.9269 54.1329C54.6863 53.5254 54.8481 52.9282 55.1206 52.5273L56.1027 53.1949L57.0847 53.8625C57.1555 53.7584 57.2435 53.5321 57.135 53.2582L56.031 53.6955ZM56.1027 53.1949L55.1206 52.5273C55.152 52.4811 55.1805 52.4362 55.2029 52.3969C55.2275 52.3539 55.2327 52.3386 55.2289 52.3487C55.2265 52.355 55.2168 52.3815 55.2078 52.4245C55.1993 52.4647 55.1854 52.5479 55.1928 52.6595C55.2004 52.7736 55.2325 52.9455 55.3415 53.1258C55.4569 53.3166 55.6217 53.4554 55.7977 53.5385L56.3048 52.4647L56.8118 51.3909C57.335 51.638 57.5374 52.1231 57.5626 52.5021C57.5829 52.8068 57.4987 53.0606 57.451 53.187C57.3467 53.4637 57.1822 53.7192 57.0847 53.8625L56.1027 53.1949ZM56.3048 52.4647L55.7977 53.5385C55.3705 53.3368 55.0435 52.999 54.8047 52.6842C54.5544 52.3545 54.3363 51.9639 54.1521 51.5483C53.7837 50.7172 53.5084 49.6888 53.4059 48.6155C53.2066 46.5285 53.6449 43.8615 55.9071 42.3736L56.5597 43.3657L57.2122 44.3579C56.0331 45.1334 55.6057 46.6673 55.7701 48.3897C55.8495 49.221 56.0634 49.9994 56.3234 50.586C56.4534 50.8793 56.5842 51.1004 56.6966 51.2486C56.8205 51.4118 56.8699 51.4183 56.8118 51.3909L56.3048 52.4647ZM56.5597 43.3657L55.9071 42.3736C56.7557 41.8154 57.6916 42.2552 58.0824 42.8535L57.0882 43.5029L56.0941 44.1523C56.1899 44.299 56.3395 44.4148 56.5275 44.4673C56.7265 44.5229 56.9842 44.5078 57.2122 44.3579L56.5597 43.3657ZM57.0882 43.5029L58.0824 42.8535C58.3766 43.3038 58.9048 43.8294 59.6126 44.3834L58.8806 45.3185L58.1487 46.2536C57.3595 45.6359 56.5966 44.9216 56.0941 44.1523L57.0882 43.5029ZM59.1704 40.9222L60.3429 41.1103C60.1475 42.3278 60.0596 43.7835 60.0681 45.3119L58.8806 45.3185L57.6931 45.3251C57.6842 43.7098 57.776 42.1172 57.9979 40.7341L59.1704 40.9222ZM60.3741 37.5857L61.279 38.3546C60.9031 38.7971 60.5641 39.7311 60.3429 41.1103L59.1704 40.9222L57.9979 40.7341C58.2279 39.2999 58.64 37.7926 59.4691 36.8168L60.3741 37.5857ZM60.4355 37.5134L61.3405 38.2823L61.279 38.3546L60.3741 37.5857L59.4691 36.8168L59.5306 36.7444L60.4355 37.5134ZM60.5226 37.4755L60.9958 38.5647L60.9087 38.6025L60.4355 37.5134L59.9623 36.4242L60.0494 36.3864L60.5226 37.4755ZM60.6854 37.8503L59.5963 38.3235L59.4335 37.9487L60.5226 37.4755L61.6118 37.0023L61.7746 37.3771L60.6854 37.8503ZM60.6854 37.8503L59.5963 38.3235C59.5149 38.1362 59.4741 38.0421 59.4535 37.9947C59.4435 37.9716 59.4377 37.9582 59.4343 37.9504C59.4335 37.9484 59.4299 37.9401 59.4262 37.9313C59.4251 37.9285 59.4228 37.923 59.4201 37.9161C59.4182 37.9115 59.4116 37.8948 59.4039 37.8732C59.4001 37.8625 59.3925 37.8406 59.3842 37.8126C59.3783 37.7927 59.3589 37.7267 59.3467 37.6397C59.3408 37.5972 59.2937 37.3051 59.4445 36.9781C59.6503 36.5318 60.052 36.3852 60.0511 36.3857L60.5228 37.4754L60.9945 38.5652C60.9758 38.5733 61.0974 38.5257 61.2203 38.4365C61.3726 38.326 61.5098 38.1707 61.6011 37.9728C61.7519 37.6458 61.7048 37.3537 61.6989 37.3112C61.6867 37.2242 61.6673 37.1583 61.6615 37.1384C61.6532 37.1104 61.6455 37.0885 61.6418 37.0779C61.6341 37.0564 61.6275 37.0398 61.6258 37.0354C61.6231 37.0287 61.6209 37.0235 61.6199 37.0211C61.6169 37.0137 61.6145 37.0084 61.6162 37.0123C61.6179 37.0162 61.6222 37.0263 61.6325 37.0499C61.6526 37.0963 61.6932 37.1896 61.7746 37.3771L60.6854 37.8503ZM60.5228 37.4754L60.0514 36.3855L60.0562 36.3834L60.5277 37.4733L60.9991 38.5632L60.9942 38.5653L60.5228 37.4754ZM60.5277 37.4733L60.0589 36.3823L60.072 36.3766L60.5408 37.4677L61.0096 38.5588L60.9964 38.5644L60.5277 37.4733ZM60.5408 37.4677L60.0766 36.3747L60.1266 36.3535L60.5908 37.4465L61.0549 38.5395L61.005 38.5607L60.5408 37.4677ZM60.5908 37.4465L60.1293 36.3523C60.177 36.3322 60.2453 36.3037 60.3327 36.268L60.7815 37.3675L61.2302 38.4669C61.1516 38.499 61.0918 38.5239 61.0522 38.5406L60.5908 37.4465ZM60.7815 37.3675L60.3328 36.268C60.5076 36.1967 60.7591 36.0964 61.0753 35.977L61.4949 37.088L61.9144 38.1989C61.6194 38.3103 61.3874 38.4028 61.2302 38.4669L60.7815 37.3675ZM61.4949 37.088L61.0753 35.977C61.7069 35.7385 62.6007 35.4218 63.6589 35.105L63.9994 36.2426L64.34 37.3803C63.3449 37.6781 62.5047 37.976 61.9144 38.1989L61.4949 37.088ZM63.9994 36.2426L63.6589 35.105C65.7529 34.4782 68.5867 33.8218 71.3385 33.8218V35.0093V36.1968C68.9209 36.1968 66.3409 36.7813 64.34 37.3803L63.9994 36.2426ZM71.3385 35.0093V33.8218C74.091 33.8218 76.9134 34.4785 78.9967 35.1058L78.6544 36.2428L78.312 37.3799C76.3236 36.7812 73.7557 36.1968 71.3385 36.1968V35.0093ZM78.6544 36.2428L78.9967 35.1058C80.0494 35.4227 80.9376 35.7397 81.5651 35.9784L81.1428 37.0883L80.7205 38.1982C80.1349 37.9754 79.3008 37.6776 78.312 37.3799L78.6544 36.2428ZM81.1428 37.0883L81.5651 35.9784C81.8792 36.0979 82.1291 36.1983 82.3027 36.2697L81.8509 37.3679L81.3991 38.4661C81.2433 38.402 81.0132 38.3095 80.7205 38.1982L81.1428 37.0883ZM81.8509 37.3679L82.3027 36.2697C82.3896 36.3054 82.4575 36.334 82.5049 36.3542L82.0402 37.447L81.5754 38.5397C81.5362 38.5231 81.477 38.4981 81.3991 38.4661L81.8509 37.3679ZM82.0402 37.447L82.5076 36.3553L82.5572 36.3766L82.0897 37.4682L81.6223 38.5598L81.5727 38.5386L82.0402 37.447ZM82.0897 37.4682L82.5609 36.3782L82.5652 36.38L82.0941 37.4701L81.6229 38.5601L81.6186 38.5582L82.0897 37.4682ZM82.0941 37.4701L82.5666 36.3806L82.5754 36.3844L82.1028 37.4738L81.6302 38.5633L81.6215 38.5595L82.0941 37.4701ZM82.1028 37.4738L82.5772 36.3852L82.5807 36.3867L82.1063 37.4754L81.6319 38.564L81.6284 38.5625L82.1028 37.4738ZM82.1063 37.4754L82.5819 36.3873L82.5832 36.3879L82.1076 37.4759L81.632 38.564L81.6307 38.5635L82.1063 37.4754ZM82.1076 37.4759L82.5839 36.3881C82.5824 36.3875 82.9818 36.5349 83.1864 36.9795C83.337 37.3068 83.2896 37.5989 83.2834 37.6424C83.271 37.7298 83.2514 37.796 83.2454 37.816C83.237 37.8442 83.2293 37.8661 83.2254 37.8769C83.2176 37.8986 83.2109 37.9153 83.209 37.9199C83.2062 37.9269 83.2039 37.9324 83.2028 37.9352C83.1991 37.944 83.1954 37.9523 83.1946 37.9543C83.1912 37.9621 83.1854 37.9755 83.1753 37.9986C83.1546 38.0459 83.1134 38.1398 83.0315 38.3269L81.9438 37.8503L80.8562 37.3737C80.9382 37.1865 80.979 37.0933 80.9993 37.047C81.0096 37.0233 81.014 37.0133 81.0157 37.0094C81.0174 37.0055 81.015 37.0109 81.0119 37.0182C81.0109 37.0206 81.0087 37.0259 81.006 37.0326C81.0042 37.037 80.9975 37.0536 80.9898 37.0752C80.986 37.0859 80.9782 37.1078 80.9698 37.136C80.9639 37.156 80.9442 37.2222 80.9318 37.3096C80.9257 37.353 80.8783 37.6451 81.0289 37.9724C81.2335 38.417 81.6328 38.5644 81.6314 38.5638L82.1076 37.4759ZM81.9438 37.8503L82.8119 37.04C82.8258 37.0549 82.8367 37.0673 82.8434 37.0751C82.8467 37.079 82.8495 37.0822 82.8511 37.0841C82.8519 37.0851 82.8526 37.0859 82.853 37.0864C82.8532 37.0867 82.8534 37.0869 82.8535 37.087C82.8536 37.0871 82.8536 37.0871 82.8536 37.0871C82.8536 37.0872 82.8537 37.0872 82.8537 37.0872C82.8537 37.0872 82.8537 37.0872 82.8537 37.0872C82.8537 37.0872 82.8537 37.0872 82.8537 37.0872C82.8537 37.0872 82.8537 37.0872 82.8537 37.0872C82.8539 37.0874 82.8526 37.0859 82.8511 37.0841C82.8495 37.0822 82.8468 37.079 82.8434 37.0751C82.8367 37.0673 82.8258 37.0549 82.812 37.04L81.9438 37.8503L81.0757 38.6606C81.0618 38.6457 81.0509 38.6333 81.0443 38.6255C81.0409 38.6216 81.0382 38.6184 81.0365 38.6164C81.0357 38.6155 81.035 38.6146 81.0346 38.6142C81.0344 38.6139 81.0342 38.6137 81.0341 38.6136C81.0341 38.6135 81.034 38.6135 81.034 38.6134C81.034 38.6134 81.034 38.6134 81.034 38.6134C81.034 38.6134 81.034 38.6134 81.034 38.6134C81.034 38.6134 81.034 38.6134 81.034 38.6134C81.034 38.6134 81.034 38.6134 81.034 38.6134C81.0338 38.6131 81.035 38.6147 81.0365 38.6164C81.0382 38.6184 81.0409 38.6216 81.0443 38.6255C81.0509 38.6332 81.0618 38.6457 81.0757 38.6605L81.9438 37.8503ZM81.9438 37.8503C81.4672 38.9379 81.4674 38.938 81.4675 38.9381C81.4675 38.9381 81.4676 38.9381 81.4677 38.9381C81.4677 38.9382 81.4677 38.9382 81.4676 38.9381C81.4674 38.938 81.4669 38.9378 81.466 38.9374C81.4643 38.9367 81.4613 38.9354 81.4569 38.9335C81.4483 38.9297 81.4344 38.9238 81.4155 38.9158C81.3777 38.8997 81.3199 38.8754 81.2436 38.844C81.0909 38.7811 80.8642 38.69 80.5752 38.5801C79.9968 38.36 79.172 38.0656 78.1942 37.7712C76.222 37.1773 73.698 36.6054 71.3385 36.6054V35.4179V34.2304C74.0333 34.2304 76.812 34.8746 78.8789 35.497C79.9206 35.8107 80.7995 36.1243 81.4198 36.3603C81.7302 36.4784 81.9767 36.5774 82.1473 36.6476C82.2326 36.6827 82.299 36.7106 82.345 36.7302C82.368 36.74 82.3859 36.7477 82.3985 36.7531C82.4049 36.7559 82.4098 36.758 82.4135 36.7596C82.4153 36.7604 82.4168 36.7611 82.418 36.7616C82.4186 36.7618 82.419 36.762 82.4195 36.7622C82.4197 36.7623 82.4199 36.7624 82.42 36.7624C82.4202 36.7625 82.4204 36.7626 81.9438 37.8503ZM71.3385 35.4179V36.6054C68.9785 36.6054 66.4421 37.1775 64.4571 37.7717C63.473 38.0663 62.6419 38.3609 62.0587 38.5812C61.7674 38.6912 61.5388 38.7823 61.3846 38.8452C61.3076 38.8767 61.2492 38.901 61.211 38.9171C61.1919 38.9252 61.1779 38.9312 61.1691 38.9349C61.1647 38.9368 61.1616 38.9381 61.1599 38.9389C61.159 38.9393 61.1584 38.9395 61.1582 38.9396C61.1581 38.9397 61.1581 38.9397 61.1582 38.9396C61.1582 38.9396 61.1583 38.9396 61.1583 38.9396C61.1585 38.9395 61.1586 38.9394 60.6854 37.8503C60.2123 36.7611 60.2125 36.7611 60.2127 36.761C60.2128 36.7609 60.213 36.7608 60.2132 36.7607C60.2136 36.7605 60.2141 36.7603 60.2147 36.7601C60.2158 36.7596 60.2173 36.7589 60.2192 36.7581C60.2228 36.7566 60.2279 36.7544 60.2342 36.7517C60.2469 36.7462 60.2649 36.7386 60.2881 36.7288C60.3344 36.7093 60.4012 36.6814 60.4872 36.6463C60.6589 36.5762 60.9071 36.4773 61.2197 36.3593C61.8442 36.1235 62.7287 35.81 63.7761 35.4965C65.854 34.8744 68.6442 34.2304 71.3385 34.2304V35.4179ZM59.2923 45.6301L58.1049 45.6465C58.0808 43.9092 58.172 42.1946 58.4117 40.735C58.6413 39.3364 59.0389 37.9541 59.7805 37.0814L60.6854 37.8503L61.5904 38.6192C61.2979 38.9635 60.9755 39.7789 60.7553 41.1198C60.5451 42.3997 60.4568 43.9665 60.4797 45.6136L59.2923 45.6301ZM59.2923 45.6301L60.0048 44.6801C60.0017 44.6778 59.9993 44.676 59.9979 44.675C59.9967 44.674 59.9956 44.6732 59.9958 44.6734C59.9958 44.6734 59.9958 44.6734 59.9958 44.6734C59.9958 44.6734 59.9958 44.6734 59.9958 44.6734C59.9958 44.6734 59.9958 44.6734 59.9958 44.6734C59.9958 44.6734 59.9958 44.6734 59.9958 44.6734C59.9958 44.6734 59.9959 44.6734 59.9959 44.6735C59.996 44.6735 59.9961 44.6736 59.9963 44.6738C59.9967 44.674 59.9972 44.6744 59.998 44.675C59.9993 44.676 60.0018 44.6778 60.0048 44.6801L59.2923 45.6301L58.5798 46.5801C58.5829 46.5824 58.5853 46.5842 58.5867 46.5852C58.588 46.5861 58.589 46.5869 58.5888 46.5868C58.5888 46.5868 58.5888 46.5868 58.5888 46.5868C58.5888 46.5868 58.5888 46.5868 58.5888 46.5868C58.5888 46.5868 58.5888 46.5868 58.5888 46.5868C58.5888 46.5868 58.5888 46.5868 58.5888 46.5868C58.5888 46.5867 58.5888 46.5867 58.5887 46.5867C58.5886 46.5866 58.5885 46.5865 58.5883 46.5864C58.588 46.5861 58.5874 46.5857 58.5867 46.5852C58.5853 46.5842 58.5828 46.5823 58.5798 46.5801L59.2923 45.6301ZM59.2923 45.6301L58.1049 45.6466C58.0808 43.9092 58.1721 42.1946 58.4117 40.735C58.6414 39.3364 59.039 37.9541 59.7805 37.0814L60.6855 37.8503L61.5904 38.6192C61.2979 38.9635 60.9755 39.7789 60.7553 41.1198C60.5452 42.3997 60.4569 43.9665 60.4797 45.6136L59.2923 45.6301ZM60.6855 37.8503C60.2123 36.7612 60.2125 36.7611 60.2127 36.761C60.2128 36.7609 60.2131 36.7608 60.2133 36.7607C60.2137 36.7606 60.2142 36.7604 60.2147 36.7601C60.2159 36.7596 60.2174 36.759 60.2192 36.7582C60.2229 36.7566 60.2279 36.7544 60.2342 36.7517C60.2469 36.7463 60.265 36.7386 60.2881 36.7288C60.3344 36.7093 60.4013 36.6814 60.4872 36.6463C60.659 36.5762 60.9072 36.4774 61.2197 36.3593C61.8442 36.1235 62.7288 35.81 63.7761 35.4965C65.8541 34.8745 68.6442 34.2304 71.3386 34.2304V35.4179V36.6054C68.9785 36.6054 66.4422 37.1776 64.4572 37.7717C63.473 38.0663 62.642 38.3609 62.0588 38.5812C61.7675 38.6912 61.5388 38.7823 61.3847 38.8453C61.3076 38.8767 61.2493 38.9011 61.2111 38.9172C61.192 38.9252 61.178 38.9312 61.1692 38.935C61.1648 38.9368 61.1617 38.9382 61.1599 38.9389C61.159 38.9393 61.1585 38.9395 61.1583 38.9396C61.1582 38.9397 61.1582 38.9397 61.1582 38.9397C61.1583 38.9396 61.1584 38.9396 61.1584 38.9396C61.1585 38.9395 61.1587 38.9395 60.6855 37.8503ZM71.3386 35.4179V34.2304C76.6597 34.2304 82.4069 36.7567 82.4202 36.7625L81.9438 37.8503L81.4675 38.9381C81.486 38.9462 80.1434 38.3576 78.1856 37.7686C76.2147 37.1757 73.6946 36.6054 71.3386 36.6054V35.4179Z" fill="#1F1F1F" mask="url(#path-3-outside-1_118_2293)"/>
</g>
<mask id="mask0_118_2293" style="mask-type:alpha" maskUnits="userSpaceOnUse" x="54" y="35" width="35" height="28">
<path fill-rule="evenodd" clip-rule="evenodd" d="M81.9439 37.8503L82.1079 37.476L82.1911 37.5125L82.251 37.5807C82.8835 38.3011 83.3204 39.5392 83.605 40.9726C83.8647 42.2799 84.008 43.8055 84.036 45.3739C84.8147 44.7718 85.4887 44.132 85.8997 43.5029C86.0161 43.3247 86.2504 43.2487 86.4283 43.3658C89.8696 45.6292 88.1596 51.7675 86.6831 52.4647C86.4931 52.5545 86.7119 52.9399 86.8852 53.1949C86.9861 53.3433 87.023 53.5288 86.957 53.6956C86.1705 55.6811 83.4686 59.3609 81.5678 58.8353L81.6967 59.2648C81.7315 59.3807 81.6999 59.507 81.6116 59.5897C80.1519 60.9584 78.2977 61.4936 77.144 60.2836C74.736 61.7721 72.2566 62.7304 71.3266 62.7304C70.4343 62.7304 67.9199 61.9201 65.5249 60.5623C64.368 61.3932 62.708 60.8383 61.3764 59.5897C61.2881 59.5069 61.2565 59.3807 61.2913 59.2648L61.4202 58.8353C59.5194 59.3609 56.8175 55.6811 56.031 53.6955C55.965 53.5288 56.0019 53.3433 56.1028 53.1949C56.2761 52.9399 56.4949 52.5544 56.3049 52.4647C54.8284 51.7675 53.1184 45.6292 56.5597 43.3657C56.7376 43.2487 56.9719 43.3246 57.0883 43.5029C57.4867 44.1127 58.1323 44.7326 58.8807 45.3185C58.872 43.7466 58.9619 42.2225 59.1705 40.9222C59.3962 39.5155 59.7716 38.2948 60.3742 37.5857L60.4356 37.5134L60.5227 37.4755L60.6856 37.8503C60.5227 37.4755 60.5228 37.4755 60.5229 37.4754L60.5278 37.4733L60.5409 37.4677L60.5909 37.4465C60.6345 37.4281 60.6986 37.4013 60.7816 37.3675C60.9476 37.2997 61.1894 37.2034 61.495 37.088C62.1059 36.8572 62.9729 36.5499 63.9995 36.2426C66.047 35.6298 68.7539 35.0093 71.3386 35.0093C73.9235 35.0093 76.6186 35.6298 78.6545 36.2428C79.6752 36.5502 80.5363 36.8575 81.1429 37.0883C81.4463 37.2037 81.6863 37.3001 81.851 37.3679C81.9334 37.4018 81.997 37.4285 82.0403 37.447L82.0898 37.4682L82.0942 37.4701L82.1029 37.4738L82.1064 37.4754L82.1077 37.4759C82.1078 37.476 82.1079 37.476 81.9439 37.8503ZM83.6314 45.6769C83.6026 42.2959 83.035 39.0931 81.9439 37.8503C81.9439 37.8503 76.393 35.4179 71.3386 35.4179C66.2843 35.4179 60.6856 37.8503 60.6856 37.8503C60.6855 37.8503 60.6855 37.8503 60.6855 37.8503C60.6855 37.8503 66.2842 35.4179 71.3386 35.4179C76.3929 35.4179 81.9439 37.8503 81.9439 37.8503C83.035 39.0931 83.6026 42.2959 83.6313 45.677C83.6314 45.677 83.6314 45.6769 83.6314 45.6769Z" fill="#D9D9D9"/>
</mask>
<g mask="url(#mask0_118_2293)">
<path d="M85.8996 43.5031C85.0307 44.8332 82.9857 46.2114 81.262 47.1793C79.1314 50.2331 75.5013 56.6632 76.491 59.2099C77.455 61.6903 79.8277 61.2624 81.6115 59.5899C81.6998 59.5071 81.7314 59.3809 81.6966 59.2649L81.5677 58.8355C83.4685 59.3611 86.1704 55.6813 86.9569 53.6957C87.0229 53.529 86.986 53.3435 86.8852 53.1951C86.7118 52.9401 86.493 52.5546 86.6831 52.4649C88.1596 51.7677 89.8695 45.6294 86.4282 43.3659C86.2503 43.2489 86.016 43.3248 85.8996 43.5031Z" fill="url(#paint1_linear_118_2293)"/>
<path d="M57.0882 43.5031C57.9571 44.8332 60.0022 46.2114 61.7259 47.1793C63.8564 50.2331 67.4866 56.6632 66.4968 59.2099C65.5328 61.6903 63.1601 61.2624 61.3763 59.5899C61.288 59.5071 61.2564 59.3809 61.2912 59.2649L61.4201 58.8355C59.5193 59.3611 56.8174 55.6813 56.0309 53.6957C55.9649 53.529 56.0018 53.3435 56.1027 53.1951C56.276 52.9401 56.4948 52.5546 56.3048 52.4649C54.8283 51.7677 53.1183 45.6294 56.5596 43.3659C56.7375 43.2489 56.9718 43.3248 57.0882 43.5031Z" fill="url(#paint2_linear_118_2293)"/>
<mask id="mask1_118_2293" style="mask-type:alpha" maskUnits="userSpaceOnUse" x="54" y="43" width="35" height="18">
<path d="M86.4284 43.3655C86.2505 43.2485 86.0156 43.3249 85.8991 43.5032C85.0303 44.8331 82.9859 46.2112 81.2624 47.179C79.1318 50.2327 75.5012 56.6636 76.4909 59.2102C77.455 61.6904 79.8283 61.2626 81.612 59.5901C81.7002 59.5073 81.7317 59.3807 81.697 59.2649L81.5681 58.8352C83.4689 59.3604 86.1703 55.681 86.9567 53.6956C87.0227 53.529 86.9861 53.3438 86.8855 53.1956C86.7121 52.9406 86.4933 52.5548 86.6833 52.4651C88.1598 51.7676 89.8697 45.6289 86.4284 43.3655ZM57.0886 43.5032C56.9721 43.3249 56.7372 43.2485 56.5593 43.3655C53.1183 45.6289 54.828 51.7673 56.3044 52.4651C56.4944 52.5548 56.2756 52.9406 56.1023 53.1956C56.0017 53.3438 55.9651 53.529 56.031 53.6956C56.8175 55.6811 59.5198 59.3608 61.4206 58.8352L61.2917 59.2649C61.2569 59.3808 61.2884 59.5073 61.3767 59.5901C63.1604 61.2623 65.5328 61.6902 66.4968 59.2102C67.4865 56.6636 63.8568 50.2327 61.7263 47.179C60.0027 46.2111 57.9575 44.8333 57.0886 43.5032Z" fill="url(#paint3_linear_118_2293)"/>
</mask>
<g mask="url(#mask1_118_2293)">
<path d="M85.3404 53.3144C86.8387 53.2054 87.6672 51.748 87.8943 51.0329L89.2903 47.8322C88.8136 48.2067 87.4101 49.9656 85.9534 50.5562C84.6935 51.067 83.0023 50.7605 82.7526 50.5562L81.9694 52.9738C82.4688 53.1328 83.8422 53.4233 85.3404 53.3144Z" fill="url(#paint4_linear_118_2293)"/>
<path d="M80.9815 58.7885C82.1135 59.3812 83.3656 58.6988 83.8502 58.2836L86.2939 56.5952C85.7814 56.6524 83.9785 57.295 82.6606 57.0692C81.5209 56.8738 80.4355 55.8943 80.3466 55.6347L78.6969 57.0316C78.9868 57.3703 79.8494 58.1958 80.9815 58.7885Z" fill="url(#paint5_linear_118_2293)"/>
<path d="M76.7744 61.1712C77.7064 62.0453 79.0955 61.7232 79.6736 61.4529L82.4802 60.4805C81.9711 60.3983 80.0619 60.5348 78.8527 59.9643C77.8068 59.4709 77.0234 58.2366 77.0072 57.9626L75.0437 58.8668C75.2323 59.2707 75.8425 60.2971 76.7744 61.1712Z" fill="url(#paint6_linear_118_2293)"/>
<path d="M87.7475 44.1585L86.4682 43.1228L83.5809 43.5399C83.0694 44.5833 82.274 46.736 83.1846 46.9991C84.0953 47.2623 86.606 45.2151 87.7475 44.1585Z" fill="#15B2D7"/>
<path d="M82.7526 52.9397C83.2153 53.1921 86.0465 52.9469 86.702 52.4971C87.1346 52.6684 87.2628 53.4796 86.7019 53.791C86.1538 54.0954 83.6111 53.8675 82.4802 53.791C82.3388 53.4654 82.4133 52.7547 82.7526 52.9397Z" fill="#15B2D7"/>
<path d="M79.9877 57.1762C80.0082 57.5467 81.0746 58.7206 81.7745 58.9262C81.8342 59.2451 81.7262 59.5317 81.2543 59.5457C80.8605 59.5574 79.722 58.0474 79.6155 57.4097C79.7651 57.1904 79.9727 56.9044 79.9877 57.1762Z" fill="#15B2D7"/>
<path d="M57.6541 53.3144C56.1559 53.2054 55.3273 51.748 55.1003 51.0329L53.7042 47.8322C54.1809 48.2067 55.5844 49.9656 57.0412 50.5562C58.3011 51.067 59.9923 50.7605 60.242 50.5562L61.0251 52.9738C60.5257 53.1328 59.1523 53.4233 57.6541 53.3144Z" fill="url(#paint7_linear_118_2293)"/>
<path d="M62.0132 58.7885C60.8812 59.3812 59.629 58.6988 59.1445 58.2836L56.7007 56.5952C57.2132 56.6524 59.0161 57.295 60.334 57.0692C61.4738 56.8738 62.5591 55.8943 62.6481 55.6347L64.2977 57.0316C64.0079 57.3703 63.1452 58.1958 62.0132 58.7885Z" fill="url(#paint8_linear_118_2293)"/>
<path d="M66.2202 61.1712C65.2882 62.0453 63.8991 61.7232 63.321 61.4529L60.5144 60.4805C61.0235 60.3983 62.9327 60.5348 64.142 59.9643C65.1878 59.4709 65.9712 58.2366 65.9875 57.9626L67.9509 58.8668C67.7623 59.2707 67.1522 60.2971 66.2202 61.1712Z" fill="url(#paint9_linear_118_2293)"/>
<path d="M55.247 44.1585L56.5264 43.1228L59.4137 43.5399C59.9252 44.5833 60.7205 46.736 59.8099 46.9991C58.8993 47.2623 56.3886 45.2151 55.247 44.1585Z" fill="#15B2D7"/>
<path d="M60.242 52.9397C59.7793 53.1921 56.948 52.9469 56.2926 52.4971C55.8599 52.6684 55.7318 53.4796 56.2926 53.791C56.8407 54.0954 59.3834 53.8675 60.5144 53.791C60.6557 53.4654 60.5812 52.7547 60.242 52.9397Z" fill="#15B2D7"/>
<path d="M63.0068 57.1762C62.9863 57.5467 61.9199 58.7206 61.22 58.9262C61.1603 59.2451 61.2683 59.5317 61.7402 59.5457C62.134 59.5574 63.2725 58.0474 63.379 57.4097C63.2294 57.1904 63.0218 56.9044 63.0068 57.1762Z" fill="#15B2D7"/>
<path d="M82.8174 56.039C80.3637 60.1206 73.1605 63.5296 71.3568 63.5296C69.5531 63.5296 61.6093 60.3985 59.8704 56.039C58.1316 51.6795 57.6294 43.1771 59.8704 37.3419C61.1117 37.0415 65.1789 36.9765 66.0294 37.4001C67.2465 36.1595 70.2242 34.5863 71.3697 34.5863C72.5153 34.5863 75.674 36.1507 76.6585 37.4001C77.509 36.9765 81.9886 37.0814 82.8175 37.3419C85.0923 43.2112 85.2712 51.9574 82.8174 56.039Z" fill="#8BAEC0" style="mix-blend-mode:multiply"/>
</g>
<path d="M81.9439 55.9324C79.6707 59.6366 72.9976 62.7305 71.3266 62.7305C69.6557 62.7305 62.2964 59.8888 60.6855 55.9324C59.0746 51.9759 58.5875 41.4328 60.6855 38.9636C60.6855 38.9636 66.2842 36.5312 71.3386 36.5312C76.3929 36.5312 81.9439 38.9636 81.9439 38.9636C84.1736 41.5033 84.217 52.2281 81.9439 55.9324Z" fill="#CA4B00"/>
<path d="M71.3385 35.2139C68.7827 35.2139 66.0977 35.828 64.0583 36.4385C63.0371 36.7442 62.1745 37.0499 61.567 37.2793C61.2635 37.3939 61.0235 37.4895 60.859 37.5566C60.777 37.5901 60.7135 37.6167 60.6706 37.6348C60.6494 37.6437 60.6328 37.6505 60.6217 37.6553C60.6164 37.6576 60.6119 37.6599 60.609 37.6611C60.6076 37.6618 60.6059 37.6618 60.6051 37.6621L60.6042 37.6631L60.5602 37.6816L60.5299 37.7178C59.9664 38.381 59.5967 39.553 59.3717 40.9551C59.1451 42.3678 59.0599 44.0533 59.0905 45.7803C59.1477 49.0126 59.613 52.4271 60.3463 54.5L60.4967 54.8965C60.9159 55.9258 61.7031 56.8698 62.6588 57.7041C63.6161 58.5397 64.753 59.2744 65.8874 59.8818C67.0221 60.4895 68.1587 60.973 69.1188 61.3047C70.0704 61.6334 70.8721 61.8213 71.3268 61.8213C71.7862 61.8212 72.5482 61.6148 73.445 61.2666C74.3513 60.9147 75.4218 60.407 76.5104 59.7842C78.5451 58.6201 80.6707 57.0357 81.8874 55.2793L82.1178 54.9258C82.7057 53.9678 83.1351 52.5737 83.4176 50.998C83.7008 49.4182 83.8393 47.6385 83.8366 45.8975C83.8338 44.1569 83.6902 42.449 83.4049 41.0127C83.1216 39.5859 82.6922 38.3935 82.0973 37.7158L82.067 37.6816L82.026 37.6631H82.0251C82.0243 37.6628 82.0226 37.6618 82.0211 37.6611C82.0183 37.6599 82.0138 37.6586 82.0085 37.6562C81.9975 37.6515 81.9817 37.6437 81.9606 37.6348C81.918 37.6166 81.8547 37.5902 81.7731 37.5566C81.6099 37.4895 81.3714 37.394 81.07 37.2793C80.467 37.0499 79.6105 36.7441 78.5954 36.4385C76.5677 35.8279 73.8945 35.2139 71.3385 35.2139Z" fill="url(#paint10_linear_118_2293)" stroke="url(#paint11_linear_118_2293)" stroke-width="0.408612"/>
<mask id="mask2_118_2293" style="mask-type:alpha" maskUnits="userSpaceOnUse" x="59" y="35" width="25" height="27">
<path d="M81.9439 54.8191C79.6707 58.5233 72.9976 61.6172 71.3266 61.6172C69.6557 61.6172 62.2964 58.7756 60.6855 54.8191C59.0746 50.8626 58.5875 40.3195 60.6855 37.8504C60.6855 37.8504 66.2842 35.418 71.3386 35.418C76.3929 35.418 81.9439 37.8504 81.9439 37.8504C84.1736 40.3901 84.217 51.1148 81.9439 54.8191Z" fill="url(#paint12_linear_118_2293)"/>
</mask>
<g mask="url(#mask2_118_2293)">
<path d="M71.2433 33.6329V41.9414H74.4101L77.3384 34.8588L71.2433 33.6329Z" fill="#FFFFCB"/>
<g filter="url(#filter2_i_118_2293)">
<path d="M79.2055 52.8799C77.5422 55.6187 72.6594 57.9062 71.4368 57.9062C70.2141 57.9062 64.8293 55.8052 63.6506 52.8799C62.4719 49.9546 62.1155 42.1592 63.6506 40.3336C63.6506 40.3336 67.7472 38.5352 71.4455 38.5352C75.1438 38.5352 79.2055 40.3336 79.2055 40.3336C80.837 42.2114 80.8688 50.141 79.2055 52.8799Z" fill="url(#paint13_linear_118_2293)"/>
</g>
<path d="M71.446 38.1641C69.544 38.1641 67.5544 38.6251 66.0534 39.0791C65.3004 39.3069 64.6647 39.535 64.2165 39.7061C63.9922 39.7916 63.8141 39.8628 63.692 39.9131C63.6314 39.9381 63.5845 39.958 63.5524 39.9717C63.5363 39.9785 63.5238 39.9846 63.5153 39.9883C63.5111 39.9901 63.5078 39.9912 63.5055 39.9922C63.5044 39.9927 63.5032 39.9929 63.5026 39.9932H63.5016V39.9941L63.4225 40.0283L63.3669 40.0947C62.913 40.6344 62.6357 41.5534 62.4704 42.5947C62.3019 43.6557 62.2398 44.9159 62.2624 46.2012C62.3044 48.5996 62.6451 51.1522 63.194 52.7188L63.3063 53.0186C63.6304 53.8229 64.233 54.548 64.9469 55.1777C65.6633 55.8096 66.5101 56.3618 67.3503 56.8164C68.1912 57.2715 69.0342 57.6337 69.7477 57.8828C70.4457 58.1265 71.0636 58.2773 71.4372 58.2773C71.8193 58.2772 72.4112 58.1093 73.068 57.8516C73.7424 57.587 74.536 57.2068 75.3415 56.7412C76.8396 55.8751 78.4297 54.6833 79.3483 53.3428L79.5231 53.0723C79.9739 52.3298 80.2931 51.2678 80.5016 50.0928C80.7114 48.9101 80.8142 47.5813 80.8122 46.2832C80.8101 44.9859 80.7038 43.7087 80.4919 42.6299C80.2832 41.5683 79.9613 40.6369 79.486 40.0898L79.4313 40.0273L79.3561 39.9941L79.2057 40.334L79.3551 39.9941H79.3542C79.3536 39.9939 79.3532 39.9926 79.3522 39.9922C79.35 39.9912 79.3465 39.9901 79.3424 39.9883C79.334 39.9846 79.3213 39.9795 79.3053 39.9727C79.2735 39.959 79.2269 39.9391 79.1667 39.9141C79.0456 39.8637 78.8688 39.7917 78.6461 39.7061C78.201 39.5349 77.5688 39.3069 76.82 39.0791C75.3275 38.625 73.3477 38.1641 71.446 38.1641Z" stroke="url(#paint14_linear_118_2293)" stroke-width="0.742188"/>
<path d="M71.446 38.7207C69.6232 38.7207 67.6936 39.1649 66.2145 39.6123C65.4766 39.8355 64.8532 40.0583 64.4147 40.2256C64.1957 40.3092 64.0228 40.3791 63.9049 40.4277L63.7702 40.4844C63.4337 40.9063 63.1797 41.6767 63.0202 42.6816C62.8583 43.701 62.7959 44.9271 62.818 46.1914C62.8597 48.5677 63.199 51.0483 63.7165 52.5283L63.8229 52.8105C64.1028 53.5052 64.6377 54.1622 65.3151 54.7598C65.9914 55.3563 66.8012 55.8863 67.6159 56.3271C68.4301 56.7677 69.2454 57.118 69.9313 57.3574C70.625 57.5996 71.1655 57.7207 71.4372 57.7207C71.7047 57.7206 72.2102 57.5899 72.8649 57.333C73.5112 57.0794 74.2799 56.7126 75.0631 56.2598C76.538 55.4071 78.0394 54.2657 78.8864 53.0312L79.0465 52.7832C79.4447 52.1275 79.7499 51.1451 79.9538 49.9961C80.157 48.8506 80.2575 47.5547 80.2555 46.2842C80.2536 45.0133 80.1496 43.7723 79.946 42.7363C79.7452 41.7148 79.4513 40.9225 79.0885 40.4854C79.0876 40.485 79.0866 40.4848 79.0856 40.4844C79.0556 40.4715 79.0111 40.452 78.9528 40.4277C78.836 40.3792 78.6644 40.3092 78.4469 40.2256C78.0118 40.0583 77.3924 39.8355 76.6588 39.6123C75.1887 39.165 73.2685 38.7208 71.446 38.7207Z" stroke="url(#paint15_linear_118_2293)" stroke-width="0.371094"/>
<g filter="url(#filter3_d_118_2293)">
<path d="M71.4777 52.1172C69.081 52.1172 66.1851 51.751 65.253 50.6859C64.321 49.6207 63.9881 44.7728 64.6206 44.1403C65.253 43.9311 67.8494 45.4544 67.8494 46.5633C67.9663 44.7629 69.7855 42.9828 71.0087 42.1097C71.2905 41.9085 71.6649 41.9085 71.9467 42.1097C73.1699 42.9828 74.9891 44.7629 75.106 46.5633C75.106 45.6357 77.5355 43.9674 78.3348 44.1403C78.9673 44.7728 78.6344 49.6207 77.7023 50.6859C76.7703 51.751 73.8744 52.1172 71.4777 52.1172Z" fill="url(#paint16_linear_118_2293)"/>
<path d="M71.9342 41.8486C71.5988 41.6811 71.1953 41.7094 70.8825 41.9326L70.6413 42.1104C70.0656 42.5494 69.4018 43.1547 68.8444 43.8525C68.382 44.4315 67.9836 45.0873 67.777 45.7734C67.7227 45.6952 67.6624 45.6195 67.5993 45.5459C67.3298 45.2315 66.969 44.9315 66.5944 44.6777C66.2193 44.4236 65.8209 44.2097 65.4713 44.0723C65.297 44.0037 65.1298 43.9519 64.9801 43.9248C64.872 43.9052 64.7587 43.8955 64.654 43.9102L64.5524 43.9336L64.5036 43.9502L64.4665 43.9863C64.3438 44.1091 64.2689 44.3034 64.2174 44.5059C64.1636 44.7175 64.1263 44.9767 64.1042 45.2637C64.0599 45.8384 64.0724 46.5494 64.1335 47.2695C64.1945 47.9899 64.3048 48.7276 64.4606 49.3555C64.5945 49.8949 64.7686 50.3819 64.9909 50.7021L65.0895 50.8291C65.3531 51.1303 65.7425 51.369 66.1979 51.5596C66.6557 51.7511 67.1951 51.9005 67.7741 52.0146C68.7873 52.2143 69.9384 52.3093 71.0192 52.3301L71.4782 52.335C72.6856 52.3349 74.0234 52.2428 75.1813 52.0146C75.7603 51.9005 76.2997 51.7511 76.7575 51.5596C77.1559 51.3929 77.504 51.1895 77.7614 50.9395L77.8659 50.8291C78.1361 50.5203 78.3418 49.9721 78.4948 49.3555C78.6506 48.7276 78.7609 47.9899 78.8219 47.2695C78.8829 46.5494 78.8955 45.8384 78.8512 45.2637C78.8291 44.9767 78.7917 44.7175 78.7379 44.5059C78.6865 44.3034 78.6116 44.1091 78.4889 43.9863L78.443 43.9414L78.3805 43.9277C78.238 43.897 78.0783 43.9103 77.9206 43.9443C77.76 43.979 77.5856 44.0382 77.4069 44.1152C77.0495 44.2693 76.6574 44.4997 76.2936 44.7627C75.9301 45.0256 75.5864 45.3277 75.3317 45.6289C75.2818 45.6879 75.2357 45.7498 75.1911 45.8115C74.988 45.1114 74.582 44.4423 74.111 43.8525C73.4739 43.0549 72.6975 42.3784 72.0729 41.9326L71.9342 41.8486Z" stroke="#FF421F" stroke-width="0.435211"/>
</g>
<path fill-rule="evenodd" clip-rule="evenodd" d="M65.253 50.033C66.1851 51.0981 69.081 51.4643 71.4777 51.4643C73.8744 51.4643 76.7703 51.0981 77.7023 50.033C78.2682 49.3863 78.6132 47.3454 78.6554 45.7C78.7041 47.4094 78.3461 49.95 77.7023 50.6858C76.7703 51.751 73.8744 52.1172 71.4777 52.1172C69.081 52.1172 66.1851 51.751 65.253 50.6858C64.6092 49.95 64.2513 47.4094 64.3 45.7C64.3422 47.3454 64.6872 49.3863 65.253 50.033Z" fill="#FFDCC6" style="mix-blend-mode:multiply"/>
<mask id="mask3_118_2293" style="mask-type:alpha" maskUnits="userSpaceOnUse" x="64" y="41" width="15" height="12">
<path d="M71.4777 52.1172C69.081 52.1172 66.1851 51.751 65.253 50.6859C64.321 49.6207 63.9881 44.7728 64.6206 44.1403C65.253 43.9311 67.8494 45.4544 67.8494 46.5633C67.9663 44.7629 69.7855 42.9828 71.0087 42.1097C71.2905 41.9085 71.6649 41.9085 71.9467 42.1097C73.1699 42.9828 74.9891 44.7629 75.106 46.5633C75.106 45.6357 77.5355 43.9674 78.3348 44.1403C78.9673 44.7728 78.6344 49.6207 77.7023 50.6859C76.7703 51.751 73.8744 52.1172 71.4777 52.1172Z" fill="url(#paint17_linear_118_2293)"/>
</mask>
<g mask="url(#mask3_118_2293)">
<path fill-rule="evenodd" clip-rule="evenodd" d="M78.6458 46.625C78.6109 45.9738 78.5098 45.4759 78.3348 45.3009C77.6712 45.1573 76.0087 46.0829 75.3597 47.0981C75.3129 47.1714 75.015 47.1384 74.9929 47.0543C74.5561 45.3953 73.0112 43.557 71.9356 42.6958C71.6652 42.4793 71.2902 42.4793 71.0198 42.6958C69.9394 43.5608 68.3857 45.4115 67.9569 47.0761C67.9352 47.16 67.6368 47.1979 67.5881 47.1262C66.9074 46.1261 65.1466 45.1269 64.6206 45.3009C64.4456 45.4759 64.3445 45.9738 64.3095 46.625C64.2569 45.444 64.3512 44.4097 64.6206 44.1403C65.253 43.9312 67.8494 45.4544 67.8494 46.5633C67.9667 44.7574 69.7966 42.5146 71.0198 41.5353C71.2902 41.3188 71.6652 41.3188 71.9356 41.5353C73.1588 42.5146 74.9887 44.7574 75.106 46.5633C75.106 45.6357 77.5355 43.9674 78.3348 44.1403C78.6042 44.4097 78.6984 45.444 78.6458 46.625Z" fill="#FFFF85"/>
<path d="M69.7117 52.9943C68.2313 49.7743 68.0897 43.6136 69.8105 41.7786L63.0288 41.7188L63.3289 52.938L69.7117 52.9943Z" fill="#FFDCC6" style="mix-blend-mode:multiply"/>
<path d="M67.7071 53.465C65.902 50.4152 65.1248 44.302 66.6468 42.2991L59.8952 42.9402L61.3526 54.0684L67.7071 53.465Z" fill="#FFDCC6" style="mix-blend-mode:multiply"/>
<path d="M74.0541 52.9943C75.5345 49.7743 75.6761 43.6136 73.9553 41.7786L80.737 41.7188L80.4369 52.938L74.0541 52.9943Z" fill="#FFDCC6" style="mix-blend-mode:multiply"/>
<path d="M75.5883 53.2864C77.2395 50.1505 77.7115 44.0063 76.0917 42.0815L82.8669 42.3859L81.965 53.5729L75.5883 53.2864Z" fill="#FFDCC6" style="mix-blend-mode:multiply"/>
<path d="M72.086 43.6809C71.7468 43.3917 71.2514 43.4025 70.9211 43.6996L70.8527 43.7679C70.5847 44.065 70.25 44.4511 69.9288 44.8603C69.6343 45.2355 69.3963 45.5813 69.2196 45.8568L69.0629 46.1075C68.896 46.3829 68.9001 46.7293 69.0995 46.9934C69.27 47.2194 69.5389 47.5419 69.9405 47.9436C70.242 48.245 70.5204 48.494 70.7526 48.688L70.9687 48.8641C71.2806 49.1112 71.7116 49.106 72.0211 48.8599C72.2963 48.6411 72.6704 48.3252 73.0514 47.9443C73.46 47.5357 73.7459 47.1833 73.9221 46.9465C74.0949 46.7142 74.1278 46.4087 73.9926 46.1468C73.8443 45.8597 73.5789 45.4142 73.1308 44.8583C72.7738 44.4155 72.4286 44.0337 72.1564 43.7472L72.086 43.6809Z" fill="url(#paint18_linear_118_2293)" stroke="#740015" stroke-width="0.286344"/>
<mask id="mask4_118_2293" style="mask-type:alpha" maskUnits="userSpaceOnUse" x="69" y="43" width="5" height="6">
<path d="M73.8074 46.8607C73.9491 46.6702 73.9746 46.4236 73.8656 46.2127C73.7217 45.934 73.461 45.4968 73.0188 44.9483C72.6647 44.5091 72.3223 44.1302 72.0522 43.8459C71.7502 43.5279 71.2529 43.5385 70.9591 43.8641C70.6925 44.1596 70.3599 44.5425 70.0413 44.9483C69.6527 45.4433 69.3644 45.887 69.1858 46.1817C69.0469 46.411 69.0516 46.6932 69.2131 46.9072C69.3795 47.1276 69.644 47.4451 70.0413 47.8424C70.439 48.2401 70.7966 48.5446 71.0577 48.7516C71.3164 48.9568 71.6737 48.9534 71.9322 48.7479C72.2045 48.5314 72.5739 48.2187 72.9502 47.8424C73.3535 47.4392 73.6348 47.0926 73.8074 46.8607Z" fill="#D9D9D9"/>
</mask>
<g mask="url(#mask4_118_2293)">
<g filter="url(#filter4_d_118_2293)">
<path d="M73.9381 46.8144C74.0833 46.6192 74.1094 46.3666 73.9978 46.1505C73.8504 45.865 73.5833 45.4172 73.1303 44.8553C72.7676 44.4053 72.4168 44.0173 72.1401 43.7259C71.8307 43.4003 71.3213 43.4111 71.0203 43.7446C70.7472 44.0474 70.4065 44.4396 70.0802 44.8553C69.6821 45.3624 69.3867 45.8169 69.2038 46.1188C69.0615 46.3536 69.0663 46.6428 69.2317 46.8619C69.4022 47.0878 69.6731 47.413 70.0801 47.82C70.4875 48.2274 70.8538 48.5393 71.1213 48.7514C71.3864 48.9616 71.7524 48.9581 72.0172 48.7476C72.2961 48.5258 72.6746 48.2055 73.06 47.82C73.4731 47.4069 73.7613 47.0519 73.9381 46.8144Z" fill="#D9D9D9"/>
<path d="M72.2213 43.6482C71.8882 43.2978 71.3529 43.2877 71.0039 43.602L70.9369 43.669C70.6627 43.9729 70.32 44.3672 69.9916 44.7855C69.5902 45.2968 69.2924 45.7554 69.1077 46.0603C68.9639 46.2976 68.948 46.5876 69.0773 46.8295L69.1415 46.9297C69.3152 47.1598 69.5901 47.4887 70.0005 47.8992C70.3086 48.2072 70.5933 48.4619 70.8306 48.6601L71.0515 48.8397C71.3583 49.0829 71.7824 49.0779 72.0873 48.8355C72.3686 48.6119 72.7505 48.2883 73.1397 47.8992C73.5568 47.4821 73.8488 47.1234 74.0284 46.882L74.0857 46.7929C74.2036 46.5796 74.2132 46.323 74.0975 46.0989C73.9466 45.8069 73.676 45.3525 73.2184 44.7849L72.9477 44.4575C72.6813 44.1428 72.4301 43.8681 72.2213 43.6482Z" stroke="#1F1F1F" stroke-width="0.224976"/>
</g>
<path d="M72.1757 43.6924C71.8462 43.3456 71.3036 43.3573 70.9838 43.7118C70.7103 44.015 70.3691 44.4081 70.042 44.8249C69.7422 45.2068 69.5 45.5591 69.3204 45.8393L69.1615 46.0934C69.0287 46.3128 69.015 46.5785 69.1332 46.7998L69.1919 46.8917C69.3638 47.1194 69.637 47.4458 70.0454 47.8543C70.352 48.1608 70.6354 48.414 70.8713 48.6111L71.0902 48.79C71.3735 49.0146 71.7656 49.0109 72.048 48.7865C72.3279 48.5639 72.7077 48.2414 73.0948 47.8543C73.5096 47.4394 73.7993 47.0826 73.9773 46.8433C74.1331 46.6339 74.1614 46.3615 74.0408 46.1279C73.8919 45.8396 73.6235 45.3891 73.1687 44.8249C72.805 44.3738 72.4531 43.9845 72.1757 43.6924Z" fill="url(#paint19_linear_118_2293)" stroke="#AE060C" stroke-width="0.0984268"/>
<mask id="mask5_118_2293" style="mask-type:alpha" maskUnits="userSpaceOnUse" x="69" y="43" width="6" height="6">
<path d="M73.9381 46.8144C74.0833 46.6192 74.1094 46.3666 73.9978 46.1505C73.8504 45.865 73.5833 45.4172 73.1303 44.8553C72.7676 44.4053 72.4168 44.0173 72.1401 43.7259C71.8307 43.4003 71.3213 43.4111 71.0203 43.7446C70.7472 44.0474 70.4065 44.4396 70.0802 44.8553C69.6821 45.3624 69.3867 45.8169 69.2038 46.1188C69.0615 46.3536 69.0663 46.6428 69.2317 46.8619C69.4022 47.0878 69.6731 47.413 70.0801 47.82C70.4875 48.2274 70.8538 48.5393 71.1213 48.7514C71.3864 48.9616 71.7524 48.9581 72.0172 48.7476C72.2961 48.5258 72.6746 48.2055 73.06 47.82C73.4731 47.4069 73.7613 47.0519 73.9381 46.8144Z" fill="#D9D9D9"/>
</mask>
<g mask="url(#mask5_118_2293)">
<rect x="68.8179" y="43.2922" width="2.65752" height="3.06529" fill="#FF6C88"/>
<rect x="71.4755" y="46.3575" width="2.65752" height="3.06529" fill="#CA134A"/>
<rect x="71.811" y="43.2922" width="2.65752" height="3.06529" fill="#D51342"/>
<path d="M71.9656 43.0109H71.1782L71.4594 44.6279H71.6844L71.9656 43.0109Z" fill="url(#paint20_linear_118_2293)"/>
<path d="M71.9656 49.479H71.1782L71.4594 47.862H71.6844L71.9656 49.479Z" fill="url(#paint21_linear_118_2293)"/>
<path d="M74.6653 45.9778L74.6653 46.7652L73.0483 46.484L73.0483 46.259L74.6653 45.9778Z" fill="url(#paint22_linear_118_2293)"/>
<path d="M68.5629 45.9778L68.5629 46.7652L70.1799 46.484L70.1799 46.259L68.5629 45.9778Z" fill="url(#paint23_linear_118_2293)"/>
<path d="M73.1397 46.2379C73.1397 46.2379 73.0675 45.9881 72.5474 45.3429C72.1509 44.8511 71.8821 44.5051 71.7266 44.3538C71.6781 44.3066 71.4524 44.3256 71.4102 44.3538C71.368 44.3819 71.0448 44.761 70.5879 45.3429C70.1311 45.9249 69.983 46.266 69.983 46.266L69.9516 46.5051C70.0427 46.6392 70.2363 46.8958 70.5879 47.2475C70.9576 47.6171 71.2745 47.8644 71.4344 47.9815C71.5054 48.0334 71.6985 48.0026 71.6985 48.0026C71.6985 48.0026 72.0152 47.7346 72.5022 47.2475C72.8133 46.9364 73.0211 46.6592 73.1257 46.5121C73.1848 46.4288 73.1397 46.2379 73.1397 46.2379Z" fill="url(#paint24_linear_118_2293)"/>
<path d="M73.1043 46.158C73.1015 46.1951 73.0951 46.231 73.077 46.2566C72.9725 46.4037 72.764 46.6809 72.453 46.9919C72.1992 47.2457 71.992 47.4402 71.8514 47.5681C71.721 47.6868 71.5279 47.8301 71.3856 47.7263C71.2257 47.6092 70.9085 47.3616 70.5389 46.9919C70.3121 46.7651 70.1511 46.5776 70.0409 46.4373C70.0024 46.3882 69.9742 46.3334 69.952 46.2761V46.5046C70.0431 46.6388 70.2361 46.8961 70.5877 47.2478C70.9573 47.6173 71.2745 47.8641 71.4344 47.9812C71.5037 48.0319 71.6893 48.0041 71.6981 48.0027C71.6981 48.0027 72.0149 47.7347 72.5018 47.2478C72.8127 46.9369 73.0213 46.6596 73.1258 46.5125C73.1841 46.4304 73.1408 46.2435 73.1395 46.238C73.1395 46.238 73.1311 46.2132 73.1043 46.158Z" fill="#EBA9B1" style="mix-blend-mode:overlay"/>
<path d="M71.4028 44.3466C71.4521 44.2986 71.6799 44.3157 71.7222 44.3437C71.7381 44.3544 71.792 44.4139 71.8774 44.5136C71.767 44.4412 71.6267 44.3938 71.5542 44.4726C71.3963 44.6263 71.151 44.9465 70.7476 45.4452C70.2193 46.0984 69.9668 46.4255 69.9653 46.4902C69.9652 46.5035 69.9705 46.5205 69.9771 46.54C69.9758 46.5382 69.9743 46.5368 69.9732 46.5351C69.9157 46.4537 69.9593 46.2677 69.9614 46.2587C69.9614 46.2587 70.0369 46.0055 70.5669 45.3505C70.9707 44.8515 71.2447 44.5006 71.4028 44.3466Z" fill="url(#paint25_linear_118_2293)"/>
<ellipse cx="3.58104" cy="2.80661" rx="3.58104" ry="2.80661" transform="matrix(-1 0 0 1 75.1204 40.3394)" fill="#B9ABA0" style="mix-blend-mode:overlay"/>
<g filter="url(#filter5_i_118_2293)">
<path d="M69.2061 46.8144C69.0609 46.6192 69.0348 46.3666 69.1464 46.1505C69.2938 45.865 69.5609 45.4172 70.0139 44.8553C70.3766 44.4053 70.7274 44.0173 71.0041 43.7259C71.3135 43.4003 71.8229 43.4111 72.1238 43.7446C72.397 44.0474 72.7377 44.4396 73.064 44.8553C73.4621 45.3624 73.7575 45.8169 73.9404 46.1188C74.0827 46.3536 74.0779 46.6428 73.9125 46.8619C73.742 47.0878 73.471 47.413 73.064 47.82C72.6566 48.2274 72.2904 48.5393 72.0228 48.7514C71.7578 48.9616 71.3918 48.9581 71.127 48.7476C70.848 48.5258 70.4696 48.2055 70.0842 47.82C69.6711 47.4069 69.3829 47.0519 69.2061 46.8144Z" fill="#D9D9D9" fill-opacity="0.01"/>
</g>
</g>
</g>
<path d="M76.0059 43.3834C75.8849 46.841 74.351 50.0257 73.6369 50.0597C72.2318 49.9962 71.359 44.7501 71.3488 42.7411C71.3289 38.8207 76.127 39.9259 76.0059 43.3834Z" fill="url(#paint26_linear_118_2293)" style="mix-blend-mode:lighten"/>
</g>
</g>
<ellipse cx="18.2962" cy="11.3551" rx="18.2962" ry="11.3551" transform="matrix(-1 0 0 1 89.8351 27.2994)" fill="#AFAFAF" style="mix-blend-mode:overlay"/>
</g>
<path d="M101.426 52.5V44.745H104.825C105.397 44.745 105.881 44.8403 106.277 45.031C106.68 45.2217 106.984 45.5003 107.19 45.867C107.395 46.2263 107.498 46.659 107.498 47.165C107.498 47.671 107.391 48.1073 107.179 48.474C106.973 48.8407 106.673 49.123 106.277 49.321C105.881 49.5117 105.397 49.607 104.825 49.607H102.856V52.5H101.426ZM102.856 48.474H104.605C105.096 48.474 105.47 48.364 105.727 48.144C105.983 47.924 106.112 47.6013 106.112 47.176C106.112 46.7433 105.983 46.4207 105.727 46.208C105.47 45.988 105.096 45.878 104.605 45.878H102.856V48.474ZM109.054 52.5V47.099H110.396V48.408H110.308C110.418 47.968 110.624 47.6307 110.924 47.396C111.232 47.1613 111.632 47.0257 112.123 46.989L112.585 46.956L112.684 48.166L111.837 48.243C111.39 48.287 111.049 48.43 110.814 48.672C110.587 48.9067 110.473 49.2293 110.473 49.64V52.5H109.054ZM113.999 45.955V44.58H115.572V45.955H113.999ZM114.087 52.5V47.099H115.495V52.5H114.087ZM117.364 52.5V51.587L120.444 47.814L120.455 48.166H117.375V47.099H121.72V48.001L118.607 51.807L118.596 51.433H121.841V52.5H117.364ZM126.084 52.61C125.461 52.61 124.925 52.4963 124.478 52.269C124.031 52.0417 123.686 51.719 123.444 51.301C123.202 50.8757 123.081 50.377 123.081 49.805C123.081 49.2477 123.195 48.76 123.422 48.342C123.657 47.9167 123.979 47.5867 124.39 47.352C124.808 47.11 125.285 46.989 125.82 46.989C126.341 46.989 126.788 47.099 127.162 47.319C127.536 47.539 127.826 47.8543 128.031 48.265C128.236 48.6683 128.339 49.156 128.339 49.728V50.135H124.203V49.321H127.349L127.173 49.486C127.173 48.9873 127.059 48.606 126.832 48.342C126.605 48.078 126.282 47.946 125.864 47.946C125.563 47.946 125.303 48.0157 125.083 48.155C124.863 48.2943 124.694 48.4923 124.577 48.749C124.46 49.0057 124.401 49.31 124.401 49.662V49.761C124.401 50.1643 124.463 50.498 124.588 50.762C124.72 51.0187 124.914 51.213 125.171 51.345C125.428 51.477 125.743 51.543 126.117 51.543C126.418 51.543 126.718 51.499 127.019 51.411C127.32 51.323 127.595 51.18 127.844 50.982L128.24 51.928C127.969 52.148 127.639 52.3167 127.25 52.434C126.861 52.5513 126.473 52.61 126.084 52.61ZM133.8 52.5V44.745H137.199C137.771 44.745 138.255 44.8403 138.651 45.031C139.055 45.2217 139.359 45.5003 139.564 45.867C139.77 46.2263 139.872 46.659 139.872 47.165C139.872 47.671 139.766 48.1073 139.553 48.474C139.348 48.8407 139.047 49.123 138.651 49.321C138.255 49.5117 137.771 49.607 137.199 49.607H135.23V52.5H133.8ZM135.23 48.474H136.979C137.471 48.474 137.845 48.364 138.101 48.144C138.358 47.924 138.486 47.6013 138.486 47.176C138.486 46.7433 138.358 46.4207 138.101 46.208C137.845 45.988 137.471 45.878 136.979 45.878H135.23V48.474ZM143.083 52.61C142.694 52.61 142.346 52.5367 142.038 52.39C141.73 52.236 141.488 52.0307 141.312 51.774C141.136 51.51 141.048 51.2167 141.048 50.894C141.048 50.498 141.154 50.1827 141.367 49.948C141.579 49.7133 141.92 49.5447 142.39 49.442C142.859 49.332 143.482 49.277 144.26 49.277H144.854V50.091H144.282C143.937 50.091 143.647 50.1057 143.413 50.135C143.178 50.157 142.987 50.1973 142.841 50.256C142.694 50.3073 142.588 50.3807 142.522 50.476C142.456 50.5713 142.423 50.6887 142.423 50.828C142.423 51.07 142.507 51.2643 142.676 51.411C142.852 51.5577 143.09 51.631 143.391 51.631C143.633 51.631 143.849 51.576 144.04 51.466C144.238 51.3487 144.395 51.191 144.513 50.993C144.63 50.7877 144.689 50.5603 144.689 50.311V49.057C144.689 48.6903 144.601 48.43 144.425 48.276C144.249 48.122 143.963 48.045 143.567 48.045C143.266 48.045 142.958 48.089 142.643 48.177C142.327 48.265 142.005 48.4043 141.675 48.595L141.268 47.638C141.473 47.506 141.708 47.3923 141.972 47.297C142.236 47.1943 142.514 47.1173 142.808 47.066C143.101 47.0147 143.383 46.989 143.655 46.989C144.183 46.989 144.619 47.0697 144.964 47.231C145.316 47.385 145.58 47.627 145.756 47.957C145.932 48.287 146.02 48.7123 146.02 49.233V52.5H144.744V51.356H144.81C144.744 51.6127 144.63 51.8363 144.469 52.027C144.315 52.2103 144.12 52.3533 143.886 52.456C143.658 52.5587 143.391 52.61 143.083 52.61ZM150.075 52.61C149.774 52.61 149.477 52.5843 149.184 52.533C148.898 52.4817 148.634 52.412 148.392 52.324C148.157 52.2287 147.948 52.1113 147.765 51.972L148.128 51.048C148.311 51.1653 148.509 51.268 148.722 51.356C148.942 51.4367 149.166 51.499 149.393 51.543C149.628 51.587 149.855 51.609 150.075 51.609C150.442 51.609 150.713 51.554 150.889 51.444C151.072 51.3267 151.164 51.169 151.164 50.971C151.164 50.8023 151.105 50.674 150.988 50.586C150.878 50.498 150.706 50.432 150.471 50.388L149.338 50.19C148.869 50.102 148.513 49.9297 148.271 49.673C148.029 49.4163 147.908 49.0937 147.908 48.705C147.908 48.353 148.003 48.0487 148.194 47.792C148.385 47.5353 148.656 47.3373 149.008 47.198C149.36 47.0587 149.771 46.989 150.24 46.989C150.504 46.989 150.761 47.011 151.01 47.055C151.259 47.099 151.494 47.1687 151.714 47.264C151.934 47.352 152.125 47.4693 152.286 47.616L151.901 48.54C151.762 48.4227 151.597 48.3237 151.406 48.243C151.223 48.1623 151.032 48.1 150.834 48.056C150.636 48.012 150.442 47.99 150.251 47.99C149.884 47.99 149.609 48.0487 149.426 48.166C149.25 48.2833 149.162 48.4447 149.162 48.65C149.162 48.804 149.213 48.9287 149.316 49.024C149.426 49.1193 149.591 49.1853 149.811 49.222L150.922 49.431C151.421 49.519 151.795 49.684 152.044 49.926C152.301 50.168 152.429 50.4907 152.429 50.894C152.429 51.2533 152.33 51.5613 152.132 51.818C151.941 52.0747 151.67 52.2727 151.318 52.412C150.966 52.544 150.552 52.61 150.075 52.61ZM156.16 52.61C155.859 52.61 155.562 52.5843 155.269 52.533C154.983 52.4817 154.719 52.412 154.477 52.324C154.242 52.2287 154.033 52.1113 153.85 51.972L154.213 51.048C154.396 51.1653 154.594 51.268 154.807 51.356C155.027 51.4367 155.251 51.499 155.478 51.543C155.713 51.587 155.94 51.609 156.16 51.609C156.527 51.609 156.798 51.554 156.974 51.444C157.157 51.3267 157.249 51.169 157.249 50.971C157.249 50.8023 157.19 50.674 157.073 50.586C156.963 50.498 156.791 50.432 156.556 50.388L155.423 50.19C154.954 50.102 154.598 49.9297 154.356 49.673C154.114 49.4163 153.993 49.0937 153.993 48.705C153.993 48.353 154.088 48.0487 154.279 47.792C154.47 47.5353 154.741 47.3373 155.093 47.198C155.445 47.0587 155.856 46.989 156.325 46.989C156.589 46.989 156.846 47.011 157.095 47.055C157.344 47.099 157.579 47.1687 157.799 47.264C158.019 47.352 158.21 47.4693 158.371 47.616L157.986 48.54C157.847 48.4227 157.682 48.3237 157.491 48.243C157.308 48.1623 157.117 48.1 156.919 48.056C156.721 48.012 156.527 47.99 156.336 47.99C155.969 47.99 155.694 48.0487 155.511 48.166C155.335 48.2833 155.247 48.4447 155.247 48.65C155.247 48.804 155.298 48.9287 155.401 49.024C155.511 49.1193 155.676 49.1853 155.896 49.222L157.007 49.431C157.506 49.519 157.88 49.684 158.129 49.926C158.386 50.168 158.514 50.4907 158.514 50.894C158.514 51.2533 158.415 51.5613 158.217 51.818C158.026 52.0747 157.755 52.2727 157.403 52.412C157.051 52.544 156.637 52.61 156.16 52.61Z" fill="#202224"/>
<mask id="mask6_118_2293" style="mask-type:alpha" maskUnits="userSpaceOnUse" x="27" y="27" width="30" height="44">
<path d="M28 34.49C28 30.9057 30.9057 28 34.49 28H43.5088C50.4075 28 56 33.5925 56 40.4912V57.5088C56 64.4075 50.4075 70 43.5088 70H34.49C30.9057 70 28 67.0943 28 63.51V34.49Z" fill="white" stroke="url(#paint27_linear_118_2293)" stroke-opacity="0.3" stroke-width="1.30158"/>
</mask>
<g mask="url(#mask6_118_2293)">
<rect x="27" y="27.1923" width="14" height="43.6154" fill="#587ED7"/>
</g>
<defs>
<filter id="filter0_d_118_2293" x="0.297312" y="0.297343" width="215.168" height="104.168" filterUnits="userSpaceOnUse" color-interpolation-filters="sRGB">
<feFlood flood-opacity="0" result="BackgroundImageFix"/>
<feColorMatrix in="SourceAlpha" type="matrix" values="0 0 0 0 0 0 0 0 0 0 0 0 0 0 0 0 0 0 127 0" result="hardAlpha"/>
<feOffset dx="3.38149" dy="3.38149"/>
<feGaussianBlur stdDeviation="15.2167"/>
<feColorMatrix type="matrix" values="0 0 0 0 0 0 0 0 0 0 0 0 0 0 0 0 0 0 0.05 0"/>
<feBlend mode="normal" in2="BackgroundImageFix" result="effect1_dropShadow_118_2293"/>
<feBlend mode="normal" in="SourceGraphic" in2="effect1_dropShadow_118_2293" result="shape"/>
</filter>
<filter id="filter1_d_118_2293" x="53.3629" y="33.8218" width="36.8557" height="30.9868" filterUnits="userSpaceOnUse" color-interpolation-filters="sRGB">
<feFlood flood-opacity="0" result="BackgroundImageFix"/>
<feColorMatrix in="SourceAlpha" type="matrix" values="0 0 0 0 0 0 0 0 0 0 0 0 0 0 0 0 0 0 127 0" result="hardAlpha"/>
<feOffset dx="0.59375" dy="0.890625"/>
<feColorMatrix type="matrix" values="0 0 0 0 0 0 0 0 0 0 0 0 0 0 0 0 0 0 0.25 0"/>
<feBlend mode="normal" in2="BackgroundImageFix" result="effect1_dropShadow_118_2293"/>
<feBlend mode="normal" in="SourceGraphic" in2="effect1_dropShadow_118_2293" result="shape"/>
</filter>
<filter id="filter2_i_118_2293" x="61.8864" y="37.793" width="19.2969" height="20.8555" filterUnits="userSpaceOnUse" color-interpolation-filters="sRGB">
<feFlood flood-opacity="0" result="BackgroundImageFix"/>
<feBlend mode="normal" in="SourceGraphic" in2="BackgroundImageFix" result="shape"/>
<feColorMatrix in="SourceAlpha" type="matrix" values="0 0 0 0 0 0 0 0 0 0 0 0 0 0 0 0 0 0 127 0" result="hardAlpha"/>
<feOffset dy="1.85519"/>
<feComposite in2="hardAlpha" operator="arithmetic" k2="-1" k3="1"/>
<feColorMatrix type="matrix" values="0 0 0 0 0.0460938 0 0 0 0 0.462769 0 0 0 0 0.7375 0 0 0 1 0"/>
<feBlend mode="normal" in2="shape" result="effect1_innerShadow_118_2293"/>
</filter>
<filter id="filter3_d_118_2293" x="63.8604" y="41.5237" width="15.2347" height="11.754" filterUnits="userSpaceOnUse" color-interpolation-filters="sRGB">
<feFlood flood-opacity="0" result="BackgroundImageFix"/>
<feColorMatrix in="SourceAlpha" type="matrix" values="0 0 0 0 0 0 0 0 0 0 0 0 0 0 0 0 0 0 127 0" result="hardAlpha"/>
<feOffset dy="0.725351"/>
<feComposite in2="hardAlpha" operator="out"/>
<feColorMatrix type="matrix" values="0 0 0 0 0 0 0 0 0 0.247059 0 0 0 0 0.384314 0 0 0 1 0"/>
<feBlend mode="normal" in2="BackgroundImageFix" result="effect1_dropShadow_118_2293"/>
<feBlend mode="normal" in="SourceGraphic" in2="effect1_dropShadow_118_2293" result="shape"/>
</filter>
<filter id="filter4_d_118_2293" x="68.877" y="43.2629" width="5.52734" height="6.03799" filterUnits="userSpaceOnUse" color-interpolation-filters="sRGB">
<feFlood flood-opacity="0" result="BackgroundImageFix"/>
<feColorMatrix in="SourceAlpha" type="matrix" values="0 0 0 0 0 0 0 0 0 0 0 0 0 0 0 0 0 0 127 0" result="hardAlpha"/>
<feOffset dx="0.112488" dy="0.168732"/>
<feColorMatrix type="matrix" values="0 0 0 0 0 0 0 0 0 0 0 0 0 0 0 0 0 0 0.25 0"/>
<feBlend mode="normal" in2="BackgroundImageFix" result="effect1_dropShadow_118_2293"/>
<feBlend mode="normal" in="SourceGraphic" in2="effect1_dropShadow_118_2293" result="shape"/>
</filter>
<filter id="filter5_i_118_2293" x="69.0773" y="43.4879" width="4.96487" height="5.47556" filterUnits="userSpaceOnUse" color-interpolation-filters="sRGB">
<feFlood flood-opacity="0" result="BackgroundImageFix"/>
<feBlend mode="normal" in="SourceGraphic" in2="BackgroundImageFix" result="shape"/>
<feColorMatrix in="SourceAlpha" type="matrix" values="0 0 0 0 0 0 0 0 0 0 0 0 0 0 0 0 0 0 127 0" result="hardAlpha"/>
<feOffset dy="0.0562439"/>
<feGaussianBlur stdDeviation="0.210915"/>
<feComposite in2="hardAlpha" operator="arithmetic" k2="-1" k3="1"/>
<feColorMatrix type="matrix" values="0 0 0 0 1 0 0 0 0 0.4125 0 0 0 0 0.4125 0 0 0 1 0"/>
<feBlend mode="lighten" in2="shape" result="effect1_innerShadow_118_2293"/>
</filter>
<linearGradient id="paint0_linear_118_2293" x1="62.8873" y1="12.8299" x2="136.884" y2="98.6413" gradientUnits="userSpaceOnUse">
<stop stop-color="#F1F1F1"/>
<stop offset="1" stop-color="#E1E1E1"/>
</linearGradient>
<linearGradient id="paint1_linear_118_2293" x1="82.6031" y1="43.0886" x2="82.1781" y2="61.9731" gradientUnits="userSpaceOnUse">
<stop stop-color="#098ECA"/>
<stop offset="1" stop-color="#006096"/>
</linearGradient>
<linearGradient id="paint2_linear_118_2293" x1="60.3847" y1="43.0886" x2="60.8097" y2="61.9731" gradientUnits="userSpaceOnUse">
<stop stop-color="#098ECA"/>
<stop offset="1" stop-color="#006096"/>
</linearGradient>
<linearGradient id="paint3_linear_118_2293" x1="60.3846" y1="43.0883" x2="60.8096" y2="61.9733" gradientUnits="userSpaceOnUse">
<stop stop-color="#098ECA"/>
<stop offset="1" stop-color="#006096"/>
</linearGradient>
<linearGradient id="paint4_linear_118_2293" x1="84.5573" y1="53.3144" x2="85.4766" y2="49.1942" gradientUnits="userSpaceOnUse">
<stop stop-color="#014879"/>
<stop offset="1" stop-color="#014879" stop-opacity="0"/>
</linearGradient>
<linearGradient id="paint5_linear_118_2293" x1="80.4152" y1="58.4375" x2="82.9264" y2="55.8708" gradientUnits="userSpaceOnUse">
<stop stop-color="#014879"/>
<stop offset="1" stop-color="#014879" stop-opacity="0"/>
</linearGradient>
<linearGradient id="paint6_linear_118_2293" x1="76.3229" y1="60.6815" x2="79.4296" y2="58.8808" gradientUnits="userSpaceOnUse">
<stop stop-color="#014879"/>
<stop offset="1" stop-color="#014879" stop-opacity="0"/>
</linearGradient>
<linearGradient id="paint7_linear_118_2293" x1="58.4373" y1="53.3144" x2="57.5179" y2="49.1942" gradientUnits="userSpaceOnUse">
<stop stop-color="#014879"/>
<stop offset="1" stop-color="#014879" stop-opacity="0"/>
</linearGradient>
<linearGradient id="paint8_linear_118_2293" x1="62.5794" y1="58.4375" x2="60.0683" y2="55.8708" gradientUnits="userSpaceOnUse">
<stop stop-color="#014879"/>
<stop offset="1" stop-color="#014879" stop-opacity="0"/>
</linearGradient>
<linearGradient id="paint9_linear_118_2293" x1="66.6717" y1="60.6815" x2="63.5651" y2="58.8808" gradientUnits="userSpaceOnUse">
<stop stop-color="#014879"/>
<stop offset="1" stop-color="#014879" stop-opacity="0"/>
</linearGradient>
<linearGradient id="paint10_linear_118_2293" x1="71.3327" y1="35.484" x2="71.3327" y2="61.6172" gradientUnits="userSpaceOnUse">
<stop stop-color="#FFFF5A"/>
<stop offset="0.375" stop-color="#FFEE53"/>
<stop offset="1" stop-color="#FF9736"/>
</linearGradient>
<linearGradient id="paint11_linear_118_2293" x1="71.3327" y1="35.484" x2="71.3327" y2="61.6172" gradientUnits="userSpaceOnUse">
<stop stop-color="#FF8F12"/>
<stop offset="1" stop-color="#FF341C"/>
</linearGradient>
<linearGradient id="paint12_linear_118_2293" x1="71.3327" y1="35.484" x2="71.3327" y2="61.6172" gradientUnits="userSpaceOnUse">
<stop stop-color="#FFFF5A"/>
<stop offset="0.375" stop-color="#FFEE53"/>
<stop offset="1" stop-color="#FF9736"/>
</linearGradient>
<linearGradient id="paint13_linear_118_2293" x1="71.5348" y1="38.5356" x2="69.7001" y2="59.2197" gradientUnits="userSpaceOnUse">
<stop stop-color="#29D0ED"/>
<stop offset="1" stop-color="#055F9C"/>
</linearGradient>
<linearGradient id="paint14_linear_118_2293" x1="71.5348" y1="38.5352" x2="71.5348" y2="57.9062" gradientUnits="userSpaceOnUse">
<stop stop-color="#FF5A46"/>
<stop offset="1" stop-color="#FFF258"/>
</linearGradient>
<linearGradient id="paint15_linear_118_2293" x1="71.5348" y1="38.5352" x2="71.5348" y2="57.9062" gradientUnits="userSpaceOnUse">
<stop stop-color="#0C76BC"/>
<stop offset="1" stop-color="#003D60"/>
</linearGradient>
<linearGradient id="paint16_linear_118_2293" x1="64.2956" y1="48.1937" x2="78.2245" y2="48.3841" gradientUnits="userSpaceOnUse">
<stop stop-color="#FFC242"/>
<stop offset="0.432949" stop-color="#FFFD62"/>
<stop offset="0.706146" stop-color="#FFFA61"/>
<stop offset="1" stop-color="#FFC241"/>
</linearGradient>
<linearGradient id="paint17_linear_118_2293" x1="64.2956" y1="48.1937" x2="78.2245" y2="48.3841" gradientUnits="userSpaceOnUse">
<stop stop-color="#FFC242"/>
<stop offset="0.432949" stop-color="#FFFD62"/>
<stop offset="0.706146" stop-color="#FFFA61"/>
<stop offset="1" stop-color="#FFC241"/>
</linearGradient>
<linearGradient id="paint18_linear_118_2293" x1="73.0016" y1="44.7871" x2="69.9938" y2="47.7949" gradientUnits="userSpaceOnUse">
<stop stop-color="#E41245"/>
<stop offset="1" stop-color="#D41342"/>
</linearGradient>
<linearGradient id="paint19_linear_118_2293" x1="73.1127" y1="44.6902" x2="70.0315" y2="47.7714" gradientUnits="userSpaceOnUse">
<stop stop-color="#E41245"/>
<stop offset="1" stop-color="#D41342"/>
</linearGradient>
<linearGradient id="paint20_linear_118_2293" x1="71.5719" y1="43.8264" x2="71.5719" y2="44.6279" gradientUnits="userSpaceOnUse">
<stop stop-color="#FF829A"/>
<stop offset="0.338542" stop-color="#FEA6B2"/>
<stop offset="0.65625" stop-color="#FFCED8"/>
</linearGradient>
<linearGradient id="paint21_linear_118_2293" x1="71.7618" y1="47.9534" x2="71.7688" y2="49.3243" gradientUnits="userSpaceOnUse">
<stop offset="0.00520833" stop-color="#FF8383"/>
<stop offset="0.229167" stop-color="#F23C5C"/>
<stop offset="1" stop-color="#F23C5C" stop-opacity="0"/>
</linearGradient>
<linearGradient id="paint22_linear_118_2293" x1="74.6653" y1="46.3715" x2="73.0483" y2="46.3715" gradientUnits="userSpaceOnUse">
<stop stop-color="#F23C5C" stop-opacity="0"/>
<stop offset="0.890625" stop-color="#F74961"/>
</linearGradient>
<linearGradient id="paint23_linear_118_2293" x1="68.5629" y1="46.3715" x2="70.1799" y2="46.3715" gradientUnits="userSpaceOnUse">
<stop offset="0.5" stop-color="#FF92A7"/>
<stop offset="0.911458" stop-color="#FFCED8"/>
</linearGradient>
<linearGradient id="paint24_linear_118_2293" x1="71.122" y1="44.8599" x2="72.2961" y2="47.4612" gradientUnits="userSpaceOnUse">
<stop stop-color="#F23C5C"/>
<stop offset="0.802083" stop-color="#FF616A"/>
<stop offset="1" stop-color="#FF8383"/>
</linearGradient>
<linearGradient id="paint25_linear_118_2293" x1="70.8404" y1="44.3392" x2="70.2279" y2="47.0065" gradientUnits="userSpaceOnUse">
<stop stop-color="#FFCED8"/>
<stop offset="1" stop-color="#FF92A7"/>
</linearGradient>
<linearGradient id="paint26_linear_118_2293" x1="74.0828" y1="43.7291" x2="72.3417" y2="46.5308" gradientUnits="userSpaceOnUse">
<stop stop-color="#FFECEC"/>
<stop offset="1" stop-color="#FFF3F3" stop-opacity="0"/>
</linearGradient>
<linearGradient id="paint27_linear_118_2293" x1="34.3846" y1="12.8299" x2="64.7694" y2="19.2783" gradientUnits="userSpaceOnUse">
<stop stop-color="#F1F1F1"/>
<stop offset="1" stop-color="#E1E1E1"/>
</linearGradient>
</defs>
</svg>
