<svg width="216" height="105" viewBox="0 0 216 105" fill="none" xmlns="http://www.w3.org/2000/svg">
<g filter="url(#filter0_d_118_1924)">
<rect x="28.2632" y="28" width="153" height="42" rx="6.49" fill="white"/>
<rect x="28.2632" y="28" width="153" height="42" rx="6.49" stroke="url(#paint0_linear_118_1924)" stroke-opacity="0.3" stroke-width="1.30158"/>
</g>
<g filter="url(#filter1_di_118_1924)">
<path d="M66.5603 33.7121C68.309 32.7221 70.4531 32.7402 72.1848 33.7597L81.1293 39.0252C82.8611 40.0447 83.9174 41.9106 83.9004 43.9201L83.8125 54.299C83.7955 56.3085 82.7077 58.1562 80.959 59.1462L71.9266 64.2596C70.1779 65.2496 68.0338 65.2315 66.3021 64.212L57.3575 58.9464C55.6258 57.927 54.5695 56.0611 54.5865 54.0516L54.6744 43.6727C54.6914 41.6632 55.7791 39.8155 57.5279 38.8255L66.5603 33.7121Z" fill="url(#paint1_linear_118_1924)"/>
<path d="M66.0923 32.8851C68.1366 31.7279 70.6428 31.749 72.6672 32.9408L81.6113 38.2061C83.6357 39.3979 84.8709 41.579 84.851 43.9281L84.7632 54.3066C84.7433 56.6558 83.4714 58.8166 81.427 59.9739L72.3951 65.0871C70.3509 66.2444 67.8446 66.223 65.8202 65.0314L56.8752 59.7661C54.8507 58.5743 53.6155 56.3923 53.6354 54.0431L53.7232 43.6646C53.7431 41.3155 55.0151 39.1557 57.0594 37.9983L66.0923 32.8851Z" stroke="url(#paint2_linear_118_1924)" stroke-width="1.9016"/>
</g>
<path d="M66.5595 33.7121C68.3083 32.7221 70.4523 32.7402 72.1841 33.7597L81.1286 39.0252C82.8603 40.0447 83.9166 41.9106 83.8996 43.9201L83.8118 54.299C83.7948 56.3085 82.707 58.1562 80.9583 59.1462L71.9259 64.2596C70.1771 65.2496 68.0331 65.2315 66.3013 64.212L57.3568 58.9464C55.6251 57.927 54.5688 56.0611 54.5858 54.0516L54.6736 43.6727C54.6906 41.6632 55.7784 39.8155 57.5271 38.8255L66.5595 33.7121Z" fill="url(#paint3_linear_118_1924)"/>
<path d="M66.3219 34.8421C68.1927 33.7841 70.4833 33.7933 72.3454 34.8664L80.4821 39.5552C81.5237 40.1554 81.5359 41.6542 80.5043 42.2714L72.1205 47.2867C70.3335 48.3557 68.0966 48.3265 66.3382 47.2112L58.2401 42.0749C57.2356 41.4377 57.2729 39.9596 58.3084 39.374L66.3219 34.8421Z" fill="url(#paint4_linear_118_1924)"/>
<path d="M68.6498 53.1718C68.6666 51.0629 67.5885 49.096 65.8015 47.976L58.2116 43.2186C57.186 42.5758 55.8488 43.2819 55.8014 44.4914L55.4344 53.8505C55.3531 55.923 56.4421 57.8657 58.2524 58.8779L66.2357 63.3413C67.2807 63.9256 68.5696 63.1764 68.5792 61.9793L68.6498 53.1718Z" fill="url(#paint5_linear_118_1924)"/>
<g filter="url(#filter2_i_118_1924)">
<ellipse cx="76.9129" cy="53.2694" rx="2.86862" ry="3.4311" transform="rotate(10.2543 76.9129 53.2694)" fill="#C4B295" style="mix-blend-mode:multiply"/>
</g>
<g filter="url(#filter3_i_118_1924)">
<path d="M66.0195 57.4823C67.2275 57.8578 67.9027 59.1419 67.5276 60.3499C67.1523 61.5581 65.8682 62.2332 64.66 61.858C63.4517 61.4826 62.7765 60.1987 63.1519 58.9905C63.5275 57.7824 64.8113 57.107 66.0195 57.4823ZM62.8696 51.4929C64.0776 51.8685 64.7521 53.1521 64.3767 54.3602C64.0014 55.5683 62.7182 56.2437 61.5101 55.8686C60.3018 55.4932 59.6266 54.2093 60.002 53.001C60.3774 51.7927 61.6613 51.1175 62.8696 51.4929ZM59.8223 45.8544C61.0305 46.2298 61.7056 47.5138 61.3304 48.722C60.955 49.9303 59.6711 50.6055 58.4628 50.2301C57.2546 49.8547 56.5793 48.5708 56.9547 47.3625C57.3301 46.1544 58.6141 45.4792 59.8223 45.8544Z" fill="#C4B295" style="mix-blend-mode:multiply"/>
</g>
<g filter="url(#filter4_i_118_1924)">
<path d="M75.122 39.9778C76.8728 39.9927 78.2836 40.9742 78.2735 42.1705C78.2634 43.3669 76.8361 44.3244 75.0853 44.3096C73.3345 44.2948 71.9228 43.3133 71.9329 42.1169C71.943 40.9205 73.3712 39.9629 75.122 39.9778ZM63.6253 37.2387C65.3761 37.2536 66.788 38.2116 66.7781 39.3788C66.7681 40.5459 65.3402 41.48 63.5895 41.4652C61.8389 41.4502 60.4278 40.4922 60.4376 39.3251C60.4474 38.158 61.8745 37.224 63.6253 37.2387Z" fill="#C4B295" style="mix-blend-mode:multiply"/>
</g>
<path d="M81.4612 42.9156L71.7043 48.6299V50.5315L81.4294 44.7944C81.6244 44.6794 81.8706 44.82 81.8706 45.0464V57.5528L83.4431 56.2729V44.0516C83.4431 43.0345 82.3389 42.4016 81.4612 42.9156Z" fill="url(#paint6_radial_118_1924)"/>
<path d="M96.6274 52.5V44.745H100.026C100.598 44.745 101.082 44.8403 101.478 45.031C101.882 45.2217 102.186 45.5003 102.391 45.867C102.597 46.2263 102.699 46.659 102.699 47.165C102.699 47.671 102.593 48.1073 102.38 48.474C102.175 48.8407 101.874 49.123 101.478 49.321C101.082 49.5117 100.598 49.607 100.026 49.607H98.0574V52.5H96.6274ZM98.0574 48.474H99.8064C100.298 48.474 100.672 48.364 100.928 48.144C101.185 47.924 101.313 47.6013 101.313 47.176C101.313 46.7433 101.185 46.4207 100.928 46.208C100.672 45.988 100.298 45.878 99.8064 45.878H98.0574V48.474ZM106.948 52.5L103.505 44.745H105.034L107.762 51.125H107.388L110.105 44.745H111.59L108.147 52.5H106.948ZM112.933 52.5V44.745H116.332C116.904 44.745 117.388 44.8403 117.784 45.031C118.188 45.2217 118.492 45.5003 118.697 45.867C118.903 46.2263 119.005 46.659 119.005 47.165C119.005 47.671 118.899 48.1073 118.686 48.474C118.481 48.8407 118.18 49.123 117.784 49.321C117.388 49.5117 116.904 49.607 116.332 49.607H114.363V52.5H112.933ZM114.363 48.474H116.112C116.604 48.474 116.978 48.364 117.234 48.144C117.491 47.924 117.619 47.6013 117.619 47.176C117.619 46.7433 117.491 46.4207 117.234 46.208C116.978 45.988 116.604 45.878 116.112 45.878H114.363V48.474ZM126.847 52.61C126.29 52.61 125.809 52.5257 125.406 52.357C125.003 52.181 124.691 51.939 124.471 51.631C124.258 51.3157 124.152 50.949 124.152 50.531C124.152 50.201 124.214 49.9003 124.339 49.629C124.464 49.3503 124.643 49.101 124.878 48.881C125.113 48.6537 125.388 48.4447 125.703 48.254L126.099 48.023L125.912 48.309C125.582 47.979 125.344 47.671 125.197 47.385C125.05 47.099 124.977 46.7983 124.977 46.483C124.977 46.1163 125.065 45.7937 125.241 45.515C125.424 45.2363 125.681 45.02 126.011 44.866C126.341 44.712 126.722 44.635 127.155 44.635C127.566 44.635 127.918 44.7047 128.211 44.844C128.512 44.9833 128.743 45.1813 128.904 45.438C129.065 45.6873 129.146 45.9807 129.146 46.318C129.146 46.604 129.087 46.8717 128.97 47.121C128.853 47.363 128.669 47.5977 128.42 47.825C128.178 48.0523 127.859 48.2723 127.463 48.485L127.452 48.177L129.322 50.157L129.058 50.168C129.227 49.8747 129.362 49.53 129.465 49.134C129.575 48.7307 129.641 48.309 129.663 47.869H130.829C130.807 48.4703 130.712 49.035 130.543 49.563C130.374 50.091 130.143 50.5567 129.85 50.96L129.817 50.63L131.687 52.5H130.015L129.069 51.51H129.377C129.054 51.8547 128.673 52.126 128.233 52.324C127.8 52.5147 127.338 52.61 126.847 52.61ZM126.924 51.521C127.276 51.521 127.591 51.455 127.87 51.323C128.156 51.191 128.409 50.9893 128.629 50.718L128.607 51.07L126.319 48.727L126.891 48.771L126.561 48.969C126.319 49.1083 126.121 49.2513 125.967 49.398C125.82 49.5373 125.71 49.6913 125.637 49.86C125.564 50.0213 125.527 50.2047 125.527 50.41C125.527 50.762 125.648 51.037 125.89 51.235C126.139 51.4257 126.484 51.521 126.924 51.521ZM127.155 45.625C126.884 45.625 126.664 45.702 126.495 45.856C126.334 46.0027 126.253 46.2043 126.253 46.461C126.253 46.6003 126.275 46.7323 126.319 46.857C126.37 46.9817 126.451 47.1173 126.561 47.264C126.678 47.4033 126.832 47.5757 127.023 47.781L126.726 47.748C127.027 47.572 127.269 47.4143 127.452 47.275C127.635 47.1357 127.767 46.9963 127.848 46.857C127.936 46.7177 127.98 46.5637 127.98 46.395C127.98 46.1457 127.903 45.955 127.749 45.823C127.602 45.691 127.404 45.625 127.155 45.625ZM136.618 52.5V44.745H138.048V47.968H142.019V44.745H143.438V52.5H142.019V49.167H138.048V52.5H136.618ZM145.786 52.5V44.745H149.174C150.032 44.745 150.692 44.9467 151.154 45.35C151.624 45.7533 151.858 46.3253 151.858 47.066C151.858 47.528 151.759 47.9277 151.561 48.265C151.363 48.595 151.077 48.8517 150.703 49.035C150.329 49.2183 149.882 49.3137 149.361 49.321L149.449 49.2L149.757 49.211C150.029 49.2183 150.267 49.2917 150.472 49.431C150.678 49.5703 150.861 49.7903 151.022 50.091L152.331 52.5H150.758L149.438 50.047C149.35 49.8857 149.251 49.761 149.141 49.673C149.031 49.5777 148.907 49.5117 148.767 49.475C148.628 49.4383 148.463 49.42 148.272 49.42H147.216V52.5H145.786ZM147.216 48.342H148.954C149.46 48.342 149.838 48.2393 150.087 48.034C150.344 47.8287 150.472 47.5207 150.472 47.11C150.472 46.6993 150.344 46.3913 150.087 46.186C149.831 45.9807 149.453 45.878 148.954 45.878H147.216V48.342Z" fill="#202224"/>
<mask id="mask0_118_1924" style="mask-type:alpha" maskUnits="userSpaceOnUse" x="27" y="27" width="30" height="44">
<path d="M28.2632 34.49C28.2632 30.9057 31.1689 28 34.7532 28H43.772C50.6707 28 56.2632 33.5925 56.2632 40.4912V57.5088C56.2632 64.4075 50.6707 70 43.772 70H34.7532C31.1689 70 28.2632 67.0943 28.2632 63.51V34.49Z" fill="white" stroke="url(#paint7_linear_118_1924)" stroke-opacity="0.3" stroke-width="1.30158"/>
</mask>
<g mask="url(#mask0_118_1924)">
<rect x="27.2632" y="27.1923" width="14" height="43.6154" fill="#587ED7"/>
</g>
<defs>
<filter id="filter0_d_118_1924" x="0.560496" y="0.297343" width="215.168" height="104.168" filterUnits="userSpaceOnUse" color-interpolation-filters="sRGB">
<feFlood flood-opacity="0" result="BackgroundImageFix"/>
<feColorMatrix in="SourceAlpha" type="matrix" values="0 0 0 0 0 0 0 0 0 0 0 0 0 0 0 0 0 0 127 0" result="hardAlpha"/>
<feOffset dx="3.38149" dy="3.38149"/>
<feGaussianBlur stdDeviation="15.2167"/>
<feColorMatrix type="matrix" values="0 0 0 0 0 0 0 0 0 0 0 0 0 0 0 0 0 0 0.05 0"/>
<feBlend mode="normal" in2="BackgroundImageFix" result="effect1_dropShadow_118_1924"/>
<feBlend mode="normal" in="SourceGraphic" in2="effect1_dropShadow_118_1924" result="shape"/>
</filter>
<filter id="filter1_di_118_1924" x="52.6847" y="31.0806" width="33.1175" height="36.9808" filterUnits="userSpaceOnUse" color-interpolation-filters="sRGB">
<feFlood flood-opacity="0" result="BackgroundImageFix"/>
<feColorMatrix in="SourceAlpha" type="matrix" values="0 0 0 0 0 0 0 0 0 0 0 0 0 0 0 0 0 0 127 0" result="hardAlpha"/>
<feOffset dy="1.17022"/>
<feComposite in2="hardAlpha" operator="out"/>
<feColorMatrix type="matrix" values="0 0 0 0 0 0 0 0 0 0.137255 0 0 0 0 0.203922 0 0 0 1 0"/>
<feBlend mode="normal" in2="BackgroundImageFix" result="effect1_dropShadow_118_1924"/>
<feBlend mode="normal" in="SourceGraphic" in2="effect1_dropShadow_118_1924" result="shape"/>
<feColorMatrix in="SourceAlpha" type="matrix" values="0 0 0 0 0 0 0 0 0 0 0 0 0 0 0 0 0 0 127 0" result="hardAlpha"/>
<feOffset dy="2.06199"/>
<feComposite in2="hardAlpha" operator="arithmetic" k2="-1" k3="1"/>
<feColorMatrix type="matrix" values="0 0 0 0 1 0 0 0 0 1 0 0 0 0 1 0 0 0 0.55 0"/>
<feBlend mode="normal" in2="shape" result="effect2_innerShadow_118_1924"/>
</filter>
<filter id="filter2_i_118_1924" x="74.0242" y="49.8542" width="5.77747" height="6.83032" filterUnits="userSpaceOnUse" color-interpolation-filters="sRGB">
<feFlood flood-opacity="0" result="BackgroundImageFix"/>
<feBlend mode="normal" in="SourceGraphic" in2="BackgroundImageFix" result="shape"/>
<feColorMatrix in="SourceAlpha" type="matrix" values="0 0 0 0 0 0 0 0 0 0 0 0 0 0 0 0 0 0 127 0" result="hardAlpha"/>
<feOffset dy="0.44998"/>
<feComposite in2="hardAlpha" operator="arithmetic" k2="-1" k3="1"/>
<feColorMatrix type="matrix" values="0 0 0 0 0 0 0 0 0 0 0 0 0 0 0 0 0 0 0.15 0"/>
<feBlend mode="normal" in2="shape" result="effect1_innerShadow_118_1924"/>
</filter>
<filter id="filter3_i_118_1924" x="56.8509" y="45.7507" width="10.7803" height="16.2109" filterUnits="userSpaceOnUse" color-interpolation-filters="sRGB">
<feFlood flood-opacity="0" result="BackgroundImageFix"/>
<feBlend mode="normal" in="SourceGraphic" in2="BackgroundImageFix" result="shape"/>
<feColorMatrix in="SourceAlpha" type="matrix" values="0 0 0 0 0 0 0 0 0 0 0 0 0 0 0 0 0 0 127 0" result="hardAlpha"/>
<feOffset dy="0.44998"/>
<feComposite in2="hardAlpha" operator="arithmetic" k2="-1" k3="1"/>
<feColorMatrix type="matrix" values="0 0 0 0 0 0 0 0 0 0 0 0 0 0 0 0 0 0 0.15 0"/>
<feBlend mode="normal" in2="shape" result="effect1_innerShadow_118_1924"/>
</filter>
<filter id="filter4_i_118_1924" x="60.4375" y="37.2385" width="17.836" height="7.07129" filterUnits="userSpaceOnUse" color-interpolation-filters="sRGB">
<feFlood flood-opacity="0" result="BackgroundImageFix"/>
<feBlend mode="normal" in="SourceGraphic" in2="BackgroundImageFix" result="shape"/>
<feColorMatrix in="SourceAlpha" type="matrix" values="0 0 0 0 0 0 0 0 0 0 0 0 0 0 0 0 0 0 127 0" result="hardAlpha"/>
<feOffset dy="0.44998"/>
<feComposite in2="hardAlpha" operator="arithmetic" k2="-1" k3="1"/>
<feColorMatrix type="matrix" values="0 0 0 0 0 0 0 0 0 0 0 0 0 0 0 0 0 0 0.15 0"/>
<feBlend mode="normal" in2="shape" result="effect1_innerShadow_118_1924"/>
</filter>
<linearGradient id="paint0_linear_118_1924" x1="63.1505" y1="12.8299" x2="137.147" y2="98.6413" gradientUnits="userSpaceOnUse">
<stop stop-color="#F1F1F1"/>
<stop offset="1" stop-color="#E1E1E1"/>
</linearGradient>
<linearGradient id="paint1_linear_118_1924" x1="69.3863" y1="32.1122" x2="70.7284" y2="75.3341" gradientUnits="userSpaceOnUse">
<stop offset="0.149706" stop-color="#FFB1F3"/>
<stop offset="1" stop-color="#A101ED"/>
</linearGradient>
<linearGradient id="paint2_linear_118_1924" x1="69.3863" y1="32.1122" x2="69.1006" y2="65.8595" gradientUnits="userSpaceOnUse">
<stop offset="0.270331" stop-color="#017772"/>
<stop offset="0.851711" stop-color="#014E5F"/>
</linearGradient>
<linearGradient id="paint3_linear_118_1924" x1="72.3952" y1="37.7878" x2="54.7385" y2="61.9539" gradientUnits="userSpaceOnUse">
<stop stop-color="#F1FBE0"/>
<stop offset="0.177083" stop-color="#C6E314"/>
<stop offset="0.375971" stop-color="#DFE314"/>
<stop offset="1" stop-color="#A6861F"/>
</linearGradient>
<linearGradient id="paint4_linear_118_1924" x1="69.8606" y1="49.7508" x2="67.4577" y2="34.7141" gradientUnits="userSpaceOnUse">
<stop stop-color="#96E415"/>
<stop offset="1" stop-color="#F1FBE0"/>
</linearGradient>
<linearGradient id="paint5_linear_118_1924" x1="70.9809" y1="49.6197" x2="65.3438" y2="63.4165" gradientUnits="userSpaceOnUse">
<stop stop-color="#CABA39"/>
<stop offset="0.978825" stop-color="#DCD00F"/>
</linearGradient>
<radialGradient id="paint6_radial_118_1924" cx="0" cy="0" r="1" gradientUnits="userSpaceOnUse" gradientTransform="translate(82.8214 42.7057) rotate(120.329) scale(12.4561 9.59459)">
<stop stop-color="#F1FBE0"/>
<stop offset="1" stop-color="#F1FBE0" stop-opacity="0"/>
</radialGradient>
<linearGradient id="paint7_linear_118_1924" x1="34.6478" y1="12.8299" x2="65.0326" y2="19.2783" gradientUnits="userSpaceOnUse">
<stop stop-color="#F1F1F1"/>
<stop offset="1" stop-color="#E1E1E1"/>
</linearGradient>
</defs>
</svg>
