<svg width="216" height="105" viewBox="0 0 216 105" fill="none" xmlns="http://www.w3.org/2000/svg">
<g filter="url(#filter0_d_118_2333)">
<rect x="28" y="28" width="153" height="42" rx="6.49" fill="white"/>
<rect x="28" y="28" width="153" height="42" rx="6.49" stroke="url(#paint0_linear_118_2333)" stroke-opacity="0.3" stroke-width="1.30158"/>
</g>
<g filter="url(#filter1_d_118_2333)">
<mask id="path-3-outside-1_118_2333" maskUnits="userSpaceOnUse" x="54.4121" y="31.9052" width="30.6591" height="33.9324" fill="black">
<rect fill="white" x="54.4121" y="31.9052" width="30.6591" height="33.9324"/>
<path d="M66.0544 37.4041C66.8316 36.5247 69.4237 35.0375 72.7689 35.833C72.8607 35.8552 72.9074 36.1172 72.6804 36.5127C72.6299 36.6007 72.6946 36.7211 72.7958 36.7259C73.4993 36.7587 74.255 37.1235 74.2896 37.5943C74.3182 37.9872 73.5219 40.1329 73.2116 41.7131C74.6699 40.7059 76.2226 40.3196 77.0211 40.179C77.3579 40.1198 77.6817 40.2833 77.8723 40.5772C78.2769 41.2011 77.9132 42.0948 77.2133 42.3008C76.6951 42.4534 76.1006 42.66 75.518 42.9277C77.3271 43.3496 78.7083 44.3199 79.3603 44.8502C79.6257 45.0661 79.7144 45.418 79.617 45.7545C79.4101 46.4687 78.4965 46.7783 77.8825 46.3841C77.144 45.9099 76.1668 45.3757 75.1719 45.0935C77.2296 46.537 79.8985 49.0357 81.6193 53.5022C82.6586 56.2 81.0361 59.0993 78.3254 60.1045C73.4882 61.8982 70.384 62.3707 66.1405 61.9932C62.8972 61.7045 59.9519 59.3881 59.8757 56.1329C59.8052 53.1177 60.7697 49.5614 64.3082 45.9315C64.3171 45.8955 64.3271 45.8602 64.3377 45.8255C64.2956 45.7627 64.2582 45.6996 64.2234 45.6369C63.8936 45.0423 64.6548 44.1376 64.7729 44.0031C64.7537 43.9753 64.732 43.9487 64.7079 43.924C64.127 43.33 63.3975 42.2951 61.8354 41.7566C60.1386 41.1717 62.1569 38.9209 63.539 38.2586C64.9208 37.5965 65.6967 37.8084 66.0544 37.4041Z"/>
</mask>
<path d="M66.0544 37.4041C66.8316 36.5247 69.4237 35.0375 72.7689 35.833C72.8607 35.8552 72.9074 36.1172 72.6804 36.5127C72.6299 36.6007 72.6946 36.7211 72.7958 36.7259C73.4993 36.7587 74.255 37.1235 74.2896 37.5943C74.3182 37.9872 73.5219 40.1329 73.2116 41.7131C74.6699 40.7059 76.2226 40.3196 77.0211 40.179C77.3579 40.1198 77.6817 40.2833 77.8723 40.5772C78.2769 41.2011 77.9132 42.0948 77.2133 42.3008C76.6951 42.4534 76.1006 42.66 75.518 42.9277C77.3271 43.3496 78.7083 44.3199 79.3603 44.8502C79.6257 45.0661 79.7144 45.418 79.617 45.7545C79.4101 46.4687 78.4965 46.7783 77.8825 46.3841C77.144 45.9099 76.1668 45.3757 75.1719 45.0935C77.2296 46.537 79.8985 49.0357 81.6193 53.5022C82.6586 56.2 81.0361 59.0993 78.3254 60.1045C73.4882 61.8982 70.384 62.3707 66.1405 61.9932C62.8972 61.7045 59.9519 59.3881 59.8757 56.1329C59.8052 53.1177 60.7697 49.5614 64.3082 45.9315C64.3171 45.8955 64.3271 45.8602 64.3377 45.8255C64.2956 45.7627 64.2582 45.6996 64.2234 45.6369C63.8936 45.0423 64.6548 44.1376 64.7729 44.0031C64.7537 43.9753 64.732 43.9487 64.7079 43.924C64.127 43.33 63.3975 42.2951 61.8354 41.7566C60.1386 41.1717 62.1569 38.9209 63.539 38.2586C64.9208 37.5965 65.6967 37.8084 66.0544 37.4041Z" fill="#67F4FF" fill-opacity="0.5" shape-rendering="crispEdges"/>
<path d="M66.0544 37.4041L67.3491 38.5495L67.3496 38.5489L66.0544 37.4041ZM72.7689 35.833L73.1757 34.1529L73.1688 34.1513L72.7689 35.833ZM72.6804 36.5127L74.1796 37.3733L74.1796 37.3733L72.6804 36.5127ZM72.7958 36.7259L72.7146 38.4526L72.7152 38.4526L72.7958 36.7259ZM74.2896 37.5943L76.0137 37.4688L76.0136 37.4675L74.2896 37.5943ZM73.2116 41.7131L71.5153 41.3799L70.6961 45.5511L74.1939 43.1354L73.2116 41.7131ZM77.0211 40.179L76.7219 38.4765L76.7214 38.4766L77.0211 40.179ZM77.8723 40.5772L79.3226 39.6366L79.3225 39.6365L77.8723 40.5772ZM77.2133 42.3008L77.7015 43.9591L77.7016 43.9591L77.2133 42.3008ZM75.518 42.9277L74.7961 41.3571L70.2101 43.4649L75.1254 44.6112L75.518 42.9277ZM79.3603 44.8502L80.4511 43.5092L80.4511 43.5092L79.3603 44.8502ZM79.617 45.7545L81.2774 46.2355L81.2775 46.235L79.617 45.7545ZM77.8825 46.3841L78.8165 44.9295L78.8165 44.9295L77.8825 46.3841ZM75.1719 45.0935L75.6436 43.4305L74.1792 46.5086L75.1719 45.0935ZM81.6193 53.5022L83.2323 52.8808L83.2323 52.8807L81.6193 53.5022ZM78.3254 60.1045L78.9265 61.7253L78.9265 61.7253L78.3254 60.1045ZM66.1405 61.9932L65.9873 63.715L65.9874 63.715L66.1405 61.9932ZM59.8757 56.1329L58.1476 56.1733L58.1476 56.1733L59.8757 56.1329ZM64.3082 45.9315L65.546 47.1382L65.8729 46.8028L65.9858 46.3482L64.3082 45.9315ZM64.3377 45.8255L65.9914 46.3287L66.23 45.5447L65.7741 44.8638L64.3377 45.8255ZM64.2234 45.6369L62.7118 46.4755L62.7119 46.4756L64.2234 45.6369ZM64.7729 44.0031L66.072 45.1435L66.9605 44.1312L66.1962 43.0222L64.7729 44.0031ZM64.7079 43.924L63.4721 45.1327L63.4721 45.1328L64.7079 43.924ZM61.8354 41.7566L62.3987 40.1223L62.3987 40.1223L61.8354 41.7566ZM63.539 38.2586L62.7921 36.6996L62.7919 36.6997L63.539 38.2586ZM66.0544 37.4041L67.3496 38.5489C67.7235 38.1258 69.6725 36.8735 72.369 37.5147L72.7689 35.833L73.1688 34.1513C69.175 33.2015 65.9397 34.9236 64.7592 36.2593L66.0544 37.4041ZM72.7689 35.833L72.3621 37.5131C71.6243 37.3344 71.3167 36.7716 71.2239 36.5428C71.1168 36.279 71.1126 36.0611 71.1173 35.9562C71.1273 35.7298 71.196 35.6263 71.1812 35.6522L72.6804 36.5127L74.1796 37.3733C74.3918 37.0036 74.5506 36.5714 74.5711 36.1095C74.581 35.8869 74.562 35.5747 74.4275 35.2431C74.3072 34.9466 73.9594 34.3427 73.1757 34.1529L72.7689 35.833ZM72.6804 36.5127L71.1812 35.6522C70.812 36.2953 70.9 36.9904 71.1604 37.4723C71.4214 37.9552 71.9612 38.4171 72.7146 38.4526L72.7958 36.7259L72.8771 34.9992C73.5293 35.0299 73.9861 35.4292 74.202 35.8287C74.4173 36.2272 74.4982 36.8182 74.1796 37.3733L72.6804 36.5127ZM72.7958 36.7259L72.7152 38.4526C72.76 38.4547 72.8145 38.4629 72.8688 38.4776C72.9245 38.4927 72.9564 38.5082 72.9626 38.5116C72.9755 38.5187 72.9133 38.4888 72.8294 38.3911C72.7415 38.2888 72.5907 38.0623 72.5656 37.7211L74.2896 37.5943L76.0136 37.4675C75.9301 36.3327 75.0617 35.7197 74.6245 35.48C74.0936 35.189 73.4686 35.0268 72.8765 34.9991L72.7958 36.7259ZM74.2896 37.5943L72.5655 37.7198C72.5507 37.5156 72.5869 37.3906 72.5684 37.484C72.5597 37.528 72.5411 37.6075 72.5074 37.7331C72.4399 37.9846 72.342 38.3104 72.2216 38.713C71.9926 39.4784 71.6896 40.4926 71.5153 41.3799L73.2116 41.7131L74.9078 42.0462C75.0439 41.3533 75.2942 40.5047 75.5338 39.704C75.6476 39.3234 75.7629 38.9404 75.8464 38.6297C75.8881 38.4742 75.9294 38.3093 75.96 38.1545C75.9809 38.0492 76.0357 37.7712 76.0137 37.4688L74.2896 37.5943ZM73.2116 41.7131L74.1939 43.1354C75.3685 42.3242 76.6508 41.9994 77.3208 41.8815L77.0211 40.179L76.7214 38.4766C75.7944 38.6398 73.9713 39.0875 72.2292 40.2907L73.2116 41.7131ZM77.0211 40.179L77.3203 41.8816C76.8807 41.9588 76.5546 41.7222 76.422 41.5179L77.8723 40.5772L79.3225 39.6365C78.8088 38.8445 77.8352 38.2809 76.7219 38.4765L77.0211 40.179ZM77.8723 40.5772L76.4219 41.5177C76.2756 41.2921 76.3049 41.0741 76.3469 40.9666C76.3866 40.8651 76.4945 40.7105 76.725 40.6426L77.2133 42.3008L77.7016 43.9591C79.4437 43.4461 80.3937 41.2882 79.3226 39.6366L77.8723 40.5772ZM77.2133 42.3008L76.7251 40.6426C76.1494 40.8121 75.473 41.046 74.7961 41.3571L75.518 42.9277L76.2399 44.4984C76.7282 44.274 77.2408 44.0947 77.7015 43.9591L77.2133 42.3008ZM75.518 42.9277L75.1254 44.6112C76.5765 44.9496 77.7201 45.7444 78.2695 46.1912L79.3603 44.8502L80.4511 43.5092C79.6965 42.8954 78.0776 41.7496 75.9106 41.2443L75.518 42.9277ZM79.3603 44.8502L78.2695 46.1912C77.924 45.9102 77.8884 45.5092 77.9565 45.274L79.617 45.7545L81.2775 46.235C81.5403 45.3268 81.3273 44.222 80.4511 43.5092L79.3603 44.8502ZM79.617 45.7545L77.9566 45.2735C78.0315 45.015 78.2157 44.8944 78.3246 44.8558C78.4273 44.8194 78.6146 44.7999 78.8165 44.9295L77.8825 46.3841L76.9486 47.8387C78.4759 48.8194 80.7294 48.127 81.2774 46.2355L79.617 45.7545ZM77.8825 46.3841L78.8165 44.9295C78.0139 44.4142 76.8728 43.7791 75.6436 43.4305L75.1719 45.0935L74.7002 46.7565C75.4609 46.9723 76.2741 47.4057 76.9486 47.8387L77.8825 46.3841ZM75.1719 45.0935L74.1792 46.5086C76.024 47.8028 78.4357 50.0471 80.0062 54.1237L81.6193 53.5022L83.2323 52.8807C81.3612 48.0242 78.4352 45.2712 76.1647 43.6784L75.1719 45.0935ZM81.6193 53.5022L80.0062 54.1236C80.6379 55.7632 79.7008 57.7508 77.7244 58.4837L78.3254 60.1045L78.9265 61.7253C82.3715 60.4478 84.6793 56.6367 83.2323 52.8808L81.6193 53.5022ZM78.3254 60.1045L77.7244 58.4837C73.0816 60.2053 70.2363 60.6221 66.2937 60.2713L66.1405 61.9932L65.9874 63.715C70.5316 64.1193 73.8948 63.591 78.9265 61.7253L78.3254 60.1045ZM66.1405 61.9932L66.2938 60.2713C63.6292 60.0342 61.6531 58.1986 61.6039 56.0925L59.8757 56.1329L58.1476 56.1733C58.2506 60.5776 62.1653 63.3748 65.9873 63.715L66.1405 61.9932ZM59.8757 56.1329L61.6039 56.0925C61.5442 53.54 62.3333 50.4337 65.546 47.1382L64.3082 45.9315L63.0704 44.7249C59.206 48.689 58.0663 52.6954 58.1476 56.1733L59.8757 56.1329ZM64.3082 45.9315L65.9858 46.3482C65.9858 46.3483 65.9862 46.3468 65.9871 46.3436C65.988 46.3403 65.9894 46.3354 65.9914 46.3287L64.3377 45.8255L62.6839 45.3223C62.667 45.378 62.6484 45.443 62.6305 45.5149L64.3082 45.9315ZM64.3377 45.8255L65.7741 44.8638C65.7658 44.8513 65.7534 44.8315 65.7349 44.7981L64.2234 45.6369L62.7119 46.4756C62.763 46.5677 62.8255 46.674 62.9013 46.7872L64.3377 45.8255ZM64.2234 45.6369L65.735 44.7983C65.8917 45.0807 65.875 45.3304 65.8611 45.4183C65.849 45.4957 65.8325 45.5057 65.8661 45.4406C65.8948 45.385 65.9373 45.3186 65.9852 45.2533C66.0311 45.1907 66.0672 45.149 66.072 45.1435L64.7729 44.0031L63.4737 42.8628C63.381 42.9685 63.0537 43.3519 62.7942 43.8544C62.6019 44.2269 62.0851 45.3459 62.7118 46.4755L64.2234 45.6369ZM64.7729 44.0031L66.1962 43.0222C66.1244 42.918 66.0406 42.8144 65.9437 42.7153L64.7079 43.924L63.4721 45.1328C63.4234 45.0829 63.383 45.0326 63.3496 44.9841L64.7729 44.0031ZM64.7079 43.924L65.9437 42.7154C65.535 42.2974 64.4526 40.8303 62.3987 40.1223L61.8354 41.7566L61.272 43.3908C62.3424 43.7598 62.719 44.3627 63.4721 45.1327L64.7079 43.924ZM61.8354 41.7566L62.3987 40.1223C62.3927 40.1202 62.5214 40.1632 62.6627 40.3239C62.8179 40.5003 62.8959 40.7139 62.9128 40.8988C62.9381 41.1748 62.823 41.2242 62.9837 40.9761C63.11 40.781 63.3231 40.5369 63.5912 40.3017C63.8609 40.065 64.1159 39.899 64.286 39.8174L63.539 38.2586L62.7919 36.6997C61.8165 37.1671 60.7217 38.1085 60.0815 39.0972C59.777 39.5676 59.3891 40.3308 59.47 41.214C59.5147 41.7025 59.7026 42.1931 60.0667 42.6071C60.4171 43.0055 60.8538 43.2467 61.2721 43.3908L61.8354 41.7566ZM63.539 38.2586L64.2858 39.8175C64.78 39.5808 65.151 39.5017 65.512 39.4313C65.6659 39.4012 65.9705 39.347 66.2425 39.258C66.5558 39.1554 66.9845 38.9617 67.3491 38.5495L66.0544 37.4041L64.7597 36.2587C64.9455 36.0487 65.1431 35.9801 65.1671 35.9722C65.1746 35.9698 65.1592 35.9752 65.0984 35.9884C65.0344 36.0023 64.9653 36.0155 64.8495 36.0381C64.3876 36.1283 63.6798 36.2743 62.7921 36.6996L63.539 38.2586Z" fill="url(#paint1_linear_118_2333)" mask="url(#path-3-outside-1_118_2333)"/>
</g>
<path d="M71.0448 47.6111L69.857 45.78C69.857 45.78 70.8747 43.4284 73.0078 41.8577C74.523 40.742 76.1853 40.3264 77.021 40.1793C77.3579 40.12 77.6816 40.2835 77.8723 40.5775V40.5775C78.277 41.2014 77.9133 42.0948 77.2134 42.3009C76.2828 42.5749 75.1047 43.0194 74.1956 43.6889C72.4261 44.9918 71.0448 47.6111 71.0448 47.6111Z" fill="#723D31"/>
<mask id="mask0_118_2333" style="mask-type:alpha" maskUnits="userSpaceOnUse" x="69" y="40" width="10" height="8">
<path d="M71.0448 47.6111L69.857 45.78C69.857 45.78 70.8747 43.4284 73.0078 41.8577C74.523 40.742 76.1853 40.3264 77.021 40.1793C77.3579 40.12 77.6816 40.2835 77.8723 40.5775V40.5775C78.277 41.2014 77.9133 42.0948 77.2134 42.3009C76.2828 42.5749 75.1047 43.0194 74.1956 43.6889C72.4261 44.9918 71.0448 47.6111 71.0448 47.6111Z" fill="#522920"/>
</mask>
<g mask="url(#mask0_118_2333)">
<path d="M75.0925 40.9199C75.2109 40.0329 76.3866 39.564 76.3866 39.564L78.287 38.4339C78.6999 39.2805 79.379 41.13 78.384 41.4665C77.1402 41.8872 75.0146 41.5041 75.0925 40.9199Z" fill="#A15443"/>
</g>
<path d="M69.8303 45.1975L70.437 43.1009C70.437 43.1009 72.8808 42.3309 75.4646 42.9152C77.3 43.3303 78.7022 44.3148 79.3605 44.8503C79.6259 45.0662 79.7142 45.4179 79.6168 45.7545V45.7545C79.4101 46.4689 78.4966 46.7788 77.8826 46.3845C77.0663 45.8604 75.9591 45.2608 74.8579 45.0118C72.7145 44.5271 69.8303 45.1975 69.8303 45.1975Z" fill="#A15443"/>
<mask id="mask1_118_2333" style="mask-type:alpha" maskUnits="userSpaceOnUse" x="69" y="42" width="11" height="5">
<path d="M69.8303 45.1975L70.437 43.1009C70.437 43.1009 72.8808 42.3309 75.4646 42.9152C77.3 43.3303 78.7022 44.3148 79.3605 44.8503C79.6259 45.0662 79.7142 45.4179 79.6168 45.7545V45.7545C79.4101 46.4689 78.4966 46.7788 77.8826 46.3845C77.0663 45.8604 75.9591 45.2608 74.8579 45.0118C72.7145 44.5271 69.8303 45.1975 69.8303 45.1975Z" fill="#A15443"/>
</mask>
<g mask="url(#mask1_118_2333)">
<path d="M75.6097 43.8512C75.5606 44.2661 76.1347 45.416 76.5896 45.7473L75.3832 45.6833L68.0049 44.3067L74.5339 40.686C75.9669 41.8475 78.6145 44.0819 77.7413 43.7281C76.6498 43.2859 75.671 43.3326 75.6097 43.8512Z" fill="#723D31"/>
</g>
<path d="M64.3078 45.9321C60.7693 49.5619 59.8052 53.1176 59.8757 56.1328C59.9518 59.3882 62.8972 61.7048 66.1406 61.9933C70.3841 62.3709 73.488 61.8978 78.3253 60.1041C81.0359 59.0989 82.6587 56.2001 81.6194 53.5024C78.5763 45.6036 72.5679 43.859 72.2188 43.2208C71.8085 42.4705 70.2321 42.7674 70.7662 41.5833C71.3003 40.3992 71.0375 40.7477 68.8407 40.137C67.1782 39.6748 66.7788 39.8009 66.7455 42.2667C65.8124 41.7692 63.6892 39.8402 64.3573 42.6726C67.3952 43.9057 64.7609 44.1056 64.3078 45.9321Z" fill="#FF902F"/>
<mask id="mask2_118_2333" style="mask-type:alpha" maskUnits="userSpaceOnUse" x="59" y="39" width="23" height="24">
<path d="M64.3078 45.9321C60.7693 49.5619 59.8052 53.1176 59.8757 56.1328C59.9518 59.3882 62.8972 61.7048 66.1406 61.9933C70.3841 62.3709 73.488 61.8978 78.3253 60.1041C81.0359 59.0989 82.6587 56.2001 81.6194 53.5024C78.5763 45.6036 72.5679 43.859 72.2188 43.2208C71.8085 42.4705 70.2321 42.7674 70.7662 41.5833C71.3003 40.3992 71.0375 40.7477 68.8407 40.137C67.1782 39.6748 66.7788 39.8009 66.7455 42.2667C65.8124 41.7692 63.6892 39.8402 64.3573 42.6726C67.3952 43.9057 64.7609 44.1056 64.3078 45.9321Z" fill="#FF902F"/>
</mask>
<g mask="url(#mask2_118_2333)">
<path d="M70.12 59.3909C73.8045 59.2619 77.5388 57.5728 79.3469 54.4925C81.1551 51.4123 76.9887 46.4287 76.2583 45.1137C78.3399 44.7599 82.0791 50.0035 83.1673 53.1255C84.5276 57.028 79.4608 60.5837 74.2495 62.3574C69.0382 64.1311 57.9474 61.8824 57.7015 57.4536C57.5488 54.7027 60.8547 47.6092 62.6734 44.3912L65.8158 45.3575C65.6434 45.6066 75.417 43.718 75.2019 44.082C75.452 46.5596 70.3047 47.6771 67.2951 47.7864C66.5703 47.8127 64.5592 48.7845 64.3339 49.4739C63.8514 50.9504 63.598 52.5469 63.6285 53.819C63.6913 56.4356 66.4354 59.5198 70.12 59.3909Z" fill="url(#paint2_linear_118_2333)"/>
</g>
<path d="M65.0653 45.3024C65.5802 46.4324 67.0637 46.2965 69.2144 45.928C70.7907 45.6579 73.2804 44.1524 73.2804 44.1524C73.2804 44.1524 73.6227 43.8657 73.219 43.3091C72.615 42.4766 74.3311 38.1683 74.2894 37.5947C74.2551 37.1237 73.4994 36.7589 72.7958 36.7261C72.6945 36.7213 72.6292 36.6005 72.6797 36.5125C72.9069 36.1167 72.8605 35.8548 72.7686 35.833C69.4234 35.0375 66.8317 36.5246 66.0545 37.404C65.6969 37.8086 64.9214 37.5966 63.5393 38.2588C62.1572 38.9209 60.1383 41.1715 61.8351 41.7564C63.3975 42.2949 64.1272 43.33 64.7082 43.924C64.801 44.0188 64.8604 44.1394 64.8639 44.2722C64.8704 44.5212 64.8901 44.9181 65.0653 45.3024Z" fill="#FF902F"/>
<mask id="mask3_118_2333" style="mask-type:alpha" maskUnits="userSpaceOnUse" x="61" y="35" width="14" height="12">
<path d="M65.0653 45.3024C65.5802 46.4324 67.0637 46.2965 69.2144 45.928C70.7907 45.6579 73.2804 44.1524 73.2804 44.1524C73.2804 44.1524 73.6227 43.8657 73.219 43.3091C72.615 42.4766 74.3311 38.1683 74.2894 37.5947C74.2551 37.1237 73.4994 36.7589 72.7958 36.7261C72.6945 36.7213 72.6292 36.6005 72.6797 36.5125C72.9069 36.1167 72.8605 35.8548 72.7686 35.833C69.4234 35.0375 66.8317 36.5246 66.0545 37.404C65.6969 37.8086 64.9214 37.5966 63.5393 38.2588C62.1572 38.9209 60.1383 41.1715 61.8351 41.7564C63.3975 42.2949 64.1272 43.33 64.7082 43.924C64.801 44.0188 64.8604 44.1394 64.8639 44.2722C64.8704 44.5212 64.8901 44.9181 65.0653 45.3024Z" fill="#FF902F"/>
</mask>
<g mask="url(#mask3_118_2333)">
<path d="M66.6356 42.2109C65.7464 42.5724 63.5839 42.3582 62.9676 42.2064L64.2303 44.5812C66.468 45.2991 70.9834 46.3965 71.1436 45.0429C71.3038 43.6894 70.3804 41.4742 69.2781 40.8456C68.8226 41.1271 67.5248 41.8493 66.6356 42.2109Z" fill="url(#paint3_linear_118_2333)"/>
<path d="M70.0672 44.5913C70.1109 43.2936 69.084 41.6033 68.565 40.9204C69.1112 41.0924 70.2412 41.6638 70.3919 42.5734C70.5857 41.874 72.6462 40.702 73.6522 40.2034L74.0765 42.6338C72.7219 43.827 70.0236 45.889 70.0672 44.5913Z" fill="url(#paint4_linear_118_2333)"/>
<path d="M70.1582 40.4433C70.1582 40.4433 70.21 39.8216 70.0947 39.5278C70.2411 39.8192 70.3987 39.9241 70.1582 40.4433C69.6243 39.9562 69.289 39.7261 68.9592 39.7208C68.6295 39.7155 68.3946 39.7351 67.9181 40.0266C67.4916 40.2875 66.8648 40.6709 65.9244 41.1602C64.1261 41.887 62.5927 41.9503 61.9065 41.8431L61.17 42.0816L60.5097 39.8924L65.3359 36.0878L67.6095 35.7868L69.9951 34.7196L73.0852 34.6249L74.6362 36.7754L74.2156 38.1096C73.7705 38.481 73.27 38.5853 72.5114 38.7847C71.6074 39.1208 70.1582 40.4433 70.1582 40.4433Z" fill="#FFBD57"/>
<path d="M68.8838 38.8059C68.2301 38.6504 66.3972 40.5845 62.6547 40.9626C62.5112 40.9771 62.3851 40.8634 62.4099 40.7212C62.6431 39.3844 64.6921 38.7118 64.7503 38.7019C65.1282 38.6377 66.3072 38.5857 67.2276 37.6231C68.2176 36.588 71.2748 35.9275 71.5407 36.4418C71.5039 36.5968 71.4101 36.7479 71.2953 36.8843C71.2062 36.9902 71.3556 37.3152 71.4927 37.2999C72.0336 37.2394 72.7451 37.2302 73.401 37.4436C73.5625 37.4961 73.5439 37.7092 73.3808 37.7581C71.7629 38.2428 70.5312 38.8304 70.097 39.558C69.9505 39.2668 69.5529 38.965 68.8838 38.8059Z" fill="url(#paint5_linear_118_2333)"/>
</g>
<path d="M68.5932 44.8713C66.9668 45.1383 65.6485 44.6812 64.7894 44.102C64.7894 44.102 63.6753 44.8632 64.0663 45.9326C64.4573 47.002 65.2006 47.4398 68.6289 47.1874C72.0571 46.935 73.3906 45.9397 74.0482 44.8639C74.5387 44.0615 73.6855 42.7597 73.017 42.7766C71.8623 44.2258 70.9775 44.48 68.5932 44.8713Z" fill="#522920"/>
<path d="M68.5901 44.6657C66.9633 44.9093 65.6458 44.503 64.7877 43.9861C64.7877 43.9861 63.8658 44.9931 64.2228 45.6367C64.5799 46.2803 65.1935 46.9769 68.622 46.7416C72.0506 46.5064 73.0496 45.7098 73.709 44.7437C74.2007 44.0232 73.6855 42.7596 73.017 42.7766C71.86 44.0786 70.9749 44.3087 68.5901 44.6657Z" fill="#723D31"/>
<mask id="mask4_118_2333" style="mask-type:alpha" maskUnits="userSpaceOnUse" x="64" y="42" width="10" height="5">
<path d="M68.5902 44.6657C66.9634 44.9093 65.6459 44.503 64.7877 43.9861C64.7877 43.9861 63.8659 44.9931 64.2229 45.6367C64.58 46.2803 65.1936 46.9769 68.6221 46.7416C72.0507 46.5064 73.0497 45.7098 73.709 44.7437C74.2008 44.0232 73.6856 42.7596 73.0171 42.7766C71.8601 44.0786 70.975 44.3087 68.5902 44.6657Z" fill="#723D31"/>
</mask>
<g mask="url(#mask4_118_2333)">
<path d="M65.4325 45.8798C65.2893 45.0372 65.7252 44.4948 66.1592 44.3513L65.9136 43.2571L61.9912 43.9238L62.2575 46.8977L66.5789 46.8208C66.1669 46.7414 65.5478 46.558 65.4325 45.8798Z" fill="#522920"/>
<path d="M72.8234 43.6083C72.4713 43.9838 70.3648 44.8252 69.1562 44.9249C67.9476 45.0245 68.6356 45.7296 69.323 45.9061C70.0104 46.0826 71.872 45.7293 73.0113 44.7126C73.8634 43.9522 73.1756 43.2328 72.8234 43.6083Z" fill="#A15443"/>
</g>
<path d="M71.7174 47.2797C72.3009 47.1495 72.8086 46.97 73.3365 46.649C74.0143 46.2369 74.892 46.1598 75.4915 46.6792C83.1788 53.3393 76.0126 58.8564 76.0043 56.5484C75.9802 49.9141 73.3481 49.2037 71.582 47.7673C71.3967 47.6165 71.4842 47.3317 71.7174 47.2797Z" fill="url(#paint6_linear_118_2333)" style="mix-blend-mode:overlay"/>
<g filter="url(#filter2_i_118_2333)">
<path d="M69.8215 56.6356C74.1935 57.2918 76.2632 55.7748 76.4677 53.4063C76.6722 51.0379 74.5272 50.3729 73.3336 50.235C72.1399 50.0972 72.2615 50.5948 71.152 50.2563C70.3154 50.001 70.0027 49.3911 69.3975 49.1231C67.0897 48.1012 65.4396 49.1418 64.7865 50.7059C64.0496 52.4711 65.4496 55.9795 69.8215 56.6356Z" fill="#A15443"/>
</g>
<path d="M66.5905 49.2141C65.979 49.4704 65.4993 49.9516 65.186 50.5541L65.0618 50.8189C64.4354 52.3194 65.5611 55.505 69.4752 56.2796L69.8631 56.3475C72.0147 56.6704 73.5506 56.4498 74.5609 55.8997C75.4942 55.3915 76.0095 54.5854 76.1485 53.582L76.1714 53.3781C76.2642 52.3021 75.8311 51.6403 75.2498 51.2179C74.7246 50.8362 74.0648 50.6427 73.5252 50.556L73.3017 50.5252C72.762 50.4629 72.5382 50.5413 72.2883 50.6042C72.1494 50.6392 71.9932 50.672 71.7908 50.6682C71.6414 50.6653 71.4751 50.6427 71.277 50.5936L71.0671 50.5354C70.59 50.3898 70.2647 50.142 69.996 49.9154C69.7517 49.7095 69.5779 49.5461 69.3693 49.4338L69.2778 49.3887C68.1865 48.9056 67.2843 48.9234 66.5905 49.2141Z" stroke="#723D31" stroke-width="0.589404"/>
<path d="M69.5671 51.0361C70.1115 51.6012 71.3916 51.9217 72.0308 51.8131" stroke="#CC6C57" stroke-width="1.70927" stroke-linecap="round"/>
<path d="M100.928 52.61C100.525 52.61 100.132 52.577 99.7511 52.511C99.3771 52.445 99.0324 52.3497 98.7171 52.225C98.4018 52.093 98.1231 51.9353 97.8811 51.752L98.3211 50.619C98.5631 50.7877 98.8198 50.9307 99.0911 51.048C99.3624 51.1653 99.6521 51.2533 99.9601 51.312C100.268 51.3707 100.591 51.4 100.928 51.4C101.5 51.4 101.918 51.3047 102.182 51.114C102.453 50.9233 102.589 50.6703 102.589 50.355C102.589 50.1863 102.545 50.0433 102.457 49.926C102.376 49.8013 102.244 49.6987 102.061 49.618C101.878 49.53 101.636 49.4603 101.335 49.409L100.114 49.156C99.4101 49.0093 98.8858 48.76 98.5411 48.408C98.2038 48.056 98.0351 47.594 98.0351 47.022C98.0351 46.538 98.1634 46.12 98.4201 45.768C98.6841 45.4087 99.0471 45.13 99.5091 44.932C99.9711 44.734 100.503 44.635 101.104 44.635C101.456 44.635 101.797 44.6717 102.127 44.745C102.457 44.811 102.758 44.91 103.029 45.042C103.308 45.174 103.55 45.3317 103.755 45.515L103.315 46.604C103.007 46.3473 102.67 46.1567 102.303 46.032C101.936 45.9073 101.533 45.845 101.093 45.845C100.756 45.845 100.462 45.8927 100.213 45.988C99.9711 46.076 99.7841 46.2043 99.6521 46.373C99.5201 46.5417 99.4541 46.7433 99.4541 46.978C99.4541 47.2347 99.5421 47.44 99.7181 47.594C99.8941 47.748 100.195 47.869 100.62 47.957L101.841 48.199C102.567 48.353 103.11 48.5987 103.469 48.936C103.828 49.266 104.008 49.706 104.008 50.256C104.008 50.7253 103.88 51.136 103.623 51.488C103.374 51.84 103.018 52.115 102.556 52.313C102.101 52.511 101.559 52.61 100.928 52.61ZM108.197 52.61C107.633 52.61 107.141 52.4963 106.723 52.269C106.313 52.0343 105.99 51.708 105.755 51.29C105.528 50.8647 105.414 50.366 105.414 49.794C105.414 49.222 105.528 48.727 105.755 48.309C105.99 47.8837 106.313 47.5573 106.723 47.33C107.141 47.1027 107.633 46.989 108.197 46.989C108.762 46.989 109.253 47.1027 109.671 47.33C110.089 47.5573 110.412 47.8837 110.639 48.309C110.867 48.727 110.98 49.222 110.98 49.794C110.98 50.366 110.867 50.8647 110.639 51.29C110.412 51.708 110.089 52.0343 109.671 52.269C109.253 52.4963 108.762 52.61 108.197 52.61ZM108.197 51.521C108.615 51.521 108.949 51.3743 109.198 51.081C109.455 50.7877 109.583 50.355 109.583 49.783C109.583 49.2183 109.455 48.793 109.198 48.507C108.949 48.2137 108.615 48.067 108.197 48.067C107.779 48.067 107.446 48.2137 107.196 48.507C106.947 48.793 106.822 49.2183 106.822 49.783C106.822 50.355 106.947 50.7877 107.196 51.081C107.446 51.3743 107.779 51.521 108.197 51.521ZM114.623 52.61C113.985 52.61 113.512 52.4377 113.204 52.093C112.896 51.7483 112.742 51.246 112.742 50.586V44.745H114.15V50.509C114.15 50.7143 114.179 50.8903 114.238 51.037C114.296 51.1837 114.384 51.2937 114.502 51.367C114.626 51.433 114.777 51.466 114.953 51.466C115.041 51.466 115.125 51.4623 115.206 51.455C115.294 51.4477 115.378 51.433 115.459 51.411V52.5C115.319 52.5367 115.184 52.5623 115.052 52.577C114.92 52.599 114.777 52.61 114.623 52.61ZM119.325 52.61C118.761 52.61 118.269 52.4963 117.851 52.269C117.441 52.0343 117.118 51.708 116.883 51.29C116.656 50.8647 116.542 50.366 116.542 49.794C116.542 49.222 116.656 48.727 116.883 48.309C117.118 47.8837 117.441 47.5573 117.851 47.33C118.269 47.1027 118.761 46.989 119.325 46.989C119.89 46.989 120.381 47.1027 120.799 47.33C121.217 47.5573 121.54 47.8837 121.767 48.309C121.995 48.727 122.108 49.222 122.108 49.794C122.108 50.366 121.995 50.8647 121.767 51.29C121.54 51.708 121.217 52.0343 120.799 52.269C120.381 52.4963 119.89 52.61 119.325 52.61ZM119.325 51.521C119.743 51.521 120.077 51.3743 120.326 51.081C120.583 50.7877 120.711 50.355 120.711 49.783C120.711 49.2183 120.583 48.793 120.326 48.507C120.077 48.2137 119.743 48.067 119.325 48.067C118.907 48.067 118.574 48.2137 118.324 48.507C118.075 48.793 117.95 49.2183 117.95 49.783C117.95 50.355 118.075 50.7877 118.324 51.081C118.574 51.3743 118.907 51.521 119.325 51.521ZM130.179 52.61C129.556 52.61 129.021 52.4963 128.573 52.269C128.126 52.0417 127.781 51.719 127.539 51.301C127.297 50.8757 127.176 50.377 127.176 49.805C127.176 49.2477 127.29 48.76 127.517 48.342C127.752 47.9167 128.075 47.5867 128.485 47.352C128.903 47.11 129.38 46.989 129.915 46.989C130.436 46.989 130.883 47.099 131.257 47.319C131.631 47.539 131.921 47.8543 132.126 48.265C132.332 48.6683 132.434 49.156 132.434 49.728V50.135H128.298V49.321H131.444L131.268 49.486C131.268 48.9873 131.155 48.606 130.927 48.342C130.7 48.078 130.377 47.946 129.959 47.946C129.659 47.946 129.398 48.0157 129.178 48.155C128.958 48.2943 128.79 48.4923 128.672 48.749C128.555 49.0057 128.496 49.31 128.496 49.662V49.761C128.496 50.1643 128.559 50.498 128.683 50.762C128.815 51.0187 129.01 51.213 129.266 51.345C129.523 51.477 129.838 51.543 130.212 51.543C130.513 51.543 130.814 51.499 131.114 51.411C131.415 51.323 131.69 51.18 131.939 50.982L132.335 51.928C132.064 52.148 131.734 52.3167 131.345 52.434C130.957 52.5513 130.568 52.61 130.179 52.61ZM135.625 52.5L133.304 47.099H134.789L136.406 51.224H136.153L137.814 47.099H139.222L136.868 52.5H135.625ZM143.102 52.61C142.478 52.61 141.943 52.4963 141.496 52.269C141.048 52.0417 140.704 51.719 140.462 51.301C140.22 50.8757 140.099 50.377 140.099 49.805C140.099 49.2477 140.212 48.76 140.44 48.342C140.674 47.9167 140.997 47.5867 141.408 47.352C141.826 47.11 142.302 46.989 142.838 46.989C143.358 46.989 143.806 47.099 144.18 47.319C144.554 47.539 144.843 47.8543 145.049 48.265C145.254 48.6683 145.357 49.156 145.357 49.728V50.135H141.221V49.321H144.367L144.191 49.486C144.191 48.9873 144.077 48.606 143.85 48.342C143.622 48.078 143.3 47.946 142.882 47.946C142.581 47.946 142.321 48.0157 142.101 48.155C141.881 48.2943 141.712 48.4923 141.595 48.749C141.477 49.0057 141.419 49.31 141.419 49.662V49.761C141.419 50.1643 141.481 50.498 141.606 50.762C141.738 51.0187 141.932 51.213 142.189 51.345C142.445 51.477 142.761 51.543 143.135 51.543C143.435 51.543 143.736 51.499 144.037 51.411C144.337 51.323 144.612 51.18 144.862 50.982L145.258 51.928C144.986 52.148 144.656 52.3167 144.268 52.434C143.879 52.5513 143.49 52.61 143.102 52.61ZM147.071 52.5V47.099H148.424V48.177H148.336C148.498 47.7883 148.751 47.495 149.095 47.297C149.44 47.0917 149.829 46.989 150.261 46.989C150.694 46.989 151.053 47.0697 151.339 47.231C151.625 47.3923 151.838 47.6417 151.977 47.979C152.124 48.309 152.197 48.727 152.197 49.233V52.5H150.8V49.299C150.8 49.0203 150.764 48.793 150.69 48.617C150.624 48.441 150.518 48.3127 150.371 48.232C150.225 48.144 150.038 48.1 149.81 48.1C149.546 48.1 149.312 48.1587 149.106 48.276C148.908 48.386 148.754 48.5473 148.644 48.76C148.534 48.9653 148.479 49.2073 148.479 49.486V52.5H147.071ZM156.728 52.61C155.995 52.61 155.448 52.4303 155.089 52.071C154.737 51.7043 154.561 51.1727 154.561 50.476V48.166H153.516V47.099H154.572V45.504H155.958V47.099H157.652V48.166H155.958V50.399C155.958 50.751 156.035 51.015 156.189 51.191C156.35 51.367 156.603 51.455 156.948 51.455C157.058 51.455 157.172 51.4403 157.289 51.411C157.406 51.3817 157.527 51.3523 157.652 51.323L157.861 52.357C157.714 52.4377 157.538 52.5 157.333 52.544C157.128 52.588 156.926 52.61 156.728 52.61ZM161.19 52.61C160.889 52.61 160.592 52.5843 160.299 52.533C160.013 52.4817 159.749 52.412 159.507 52.324C159.272 52.2287 159.063 52.1113 158.88 51.972L159.243 51.048C159.426 51.1653 159.624 51.268 159.837 51.356C160.057 51.4367 160.281 51.499 160.508 51.543C160.743 51.587 160.97 51.609 161.19 51.609C161.557 51.609 161.828 51.554 162.004 51.444C162.187 51.3267 162.279 51.169 162.279 50.971C162.279 50.8023 162.22 50.674 162.103 50.586C161.993 50.498 161.821 50.432 161.586 50.388L160.453 50.19C159.984 50.102 159.628 49.9297 159.386 49.673C159.144 49.4163 159.023 49.0937 159.023 48.705C159.023 48.353 159.118 48.0487 159.309 47.792C159.5 47.5353 159.771 47.3373 160.123 47.198C160.475 47.0587 160.886 46.989 161.355 46.989C161.619 46.989 161.876 47.011 162.125 47.055C162.374 47.099 162.609 47.1687 162.829 47.264C163.049 47.352 163.24 47.4693 163.401 47.616L163.016 48.54C162.877 48.4227 162.712 48.3237 162.521 48.243C162.338 48.1623 162.147 48.1 161.949 48.056C161.751 48.012 161.557 47.99 161.366 47.99C160.999 47.99 160.724 48.0487 160.541 48.166C160.365 48.2833 160.277 48.4447 160.277 48.65C160.277 48.804 160.328 48.9287 160.431 49.024C160.541 49.1193 160.706 49.1853 160.926 49.222L162.037 49.431C162.536 49.519 162.91 49.684 163.159 49.926C163.416 50.168 163.544 50.4907 163.544 50.894C163.544 51.2533 163.445 51.5613 163.247 51.818C163.056 52.0747 162.785 52.2727 162.433 52.412C162.081 52.544 161.667 52.61 161.19 52.61Z" fill="#202224"/>
<mask id="mask5_118_2333" style="mask-type:alpha" maskUnits="userSpaceOnUse" x="27" y="27" width="30" height="44">
<path d="M28 34.49C28 30.9057 30.9057 28 34.49 28H43.5088C50.4075 28 56 33.5925 56 40.4912V57.5088C56 64.4075 50.4075 70 43.5088 70H34.49C30.9057 70 28 67.0943 28 63.51V34.49Z" fill="white" stroke="url(#paint7_linear_118_2333)" stroke-opacity="0.3" stroke-width="1.30158"/>
</mask>
<g mask="url(#mask5_118_2333)">
<rect x="27" y="27.1923" width="14" height="43.6154" fill="#587ED7"/>
</g>
<defs>
<filter id="filter0_d_118_2333" x="0.297312" y="0.297343" width="215.168" height="104.168" filterUnits="userSpaceOnUse" color-interpolation-filters="sRGB">
<feFlood flood-opacity="0" result="BackgroundImageFix"/>
<feColorMatrix in="SourceAlpha" type="matrix" values="0 0 0 0 0 0 0 0 0 0 0 0 0 0 0 0 0 0 127 0" result="hardAlpha"/>
<feOffset dx="3.38149" dy="3.38149"/>
<feGaussianBlur stdDeviation="15.2167"/>
<feColorMatrix type="matrix" values="0 0 0 0 0 0 0 0 0 0 0 0 0 0 0 0 0 0 0.05 0"/>
<feBlend mode="normal" in2="BackgroundImageFix" result="effect1_dropShadow_118_2333"/>
<feBlend mode="normal" in="SourceGraphic" in2="effect1_dropShadow_118_2333" result="shape"/>
</filter>
<filter id="filter1_d_118_2333" x="58.1436" y="33.8776" width="26.3922" height="31.668" filterUnits="userSpaceOnUse" color-interpolation-filters="sRGB">
<feFlood flood-opacity="0" result="BackgroundImageFix"/>
<feColorMatrix in="SourceAlpha" type="matrix" values="0 0 0 0 0 0 0 0 0 0 0 0 0 0 0 0 0 0 127 0" result="hardAlpha"/>
<feOffset dx="0.864313" dy="1.70294"/>
<feComposite in2="hardAlpha" operator="out"/>
<feColorMatrix type="matrix" values="0 0 0 0 0.313726 0 0 0 0 0.0431373 0 0 0 0 0.0431373 0 0 0 1 0"/>
<feBlend mode="normal" in2="BackgroundImageFix" result="effect1_dropShadow_118_2333"/>
<feBlend mode="normal" in="SourceGraphic" in2="effect1_dropShadow_118_2333" result="shape"/>
</filter>
<filter id="filter2_i_118_2333" x="64.6" y="47.7906" width="12.7654" height="8.99848" filterUnits="userSpaceOnUse" color-interpolation-filters="sRGB">
<feFlood flood-opacity="0" result="BackgroundImageFix"/>
<feBlend mode="normal" in="SourceGraphic" in2="BackgroundImageFix" result="shape"/>
<feColorMatrix in="SourceAlpha" type="matrix" values="0 0 0 0 0 0 0 0 0 0 0 0 0 0 0 0 0 0 127 0" result="hardAlpha"/>
<feOffset dx="0.884106" dy="-1.23775"/>
<feGaussianBlur stdDeviation="0.462682"/>
<feComposite in2="hardAlpha" operator="arithmetic" k2="-1" k3="1"/>
<feColorMatrix type="matrix" values="0 0 0 0 0.0891668 0 0 0 0 0 0 0 0 0 0 0 0 0 0.25 0"/>
<feBlend mode="normal" in2="shape" result="effect1_innerShadow_118_2333"/>
</filter>
<linearGradient id="paint0_linear_118_2333" x1="62.8873" y1="12.8299" x2="136.884" y2="98.6413" gradientUnits="userSpaceOnUse">
<stop stop-color="#F1F1F1"/>
<stop offset="1" stop-color="#E1E1E1"/>
</linearGradient>
<linearGradient id="paint1_linear_118_2333" x1="67.5777" y1="36.0528" x2="71.9661" y2="61.8731" gradientUnits="userSpaceOnUse">
<stop stop-color="#A80908"/>
<stop offset="1" stop-color="#730606"/>
</linearGradient>
<linearGradient id="paint2_linear_118_2333" x1="61.3226" y1="58.4593" x2="77.2906" y2="49.5738" gradientUnits="userSpaceOnUse">
<stop stop-color="#D03E1D"/>
<stop offset="1" stop-color="#D03E1D" stop-opacity="0"/>
</linearGradient>
<linearGradient id="paint3_linear_118_2333" x1="69.3503" y1="45.664" x2="68.0661" y2="40.0207" gradientUnits="userSpaceOnUse">
<stop offset="0.286458" stop-color="#D03E1D"/>
<stop offset="1" stop-color="#FF7F63" stop-opacity="0"/>
</linearGradient>
<linearGradient id="paint4_linear_118_2333" x1="73.6615" y1="44.0637" x2="70.6396" y2="39.8115" gradientUnits="userSpaceOnUse">
<stop offset="0.286458" stop-color="#D03E1D"/>
<stop offset="1" stop-color="#FF7F63" stop-opacity="0"/>
</linearGradient>
<linearGradient id="paint5_linear_118_2333" x1="65.4707" y1="35.6399" x2="67.1547" y2="40.1253" gradientUnits="userSpaceOnUse">
<stop offset="0.531412" stop-color="#FF902F"/>
<stop offset="1" stop-color="#D2411E"/>
</linearGradient>
<linearGradient id="paint6_linear_118_2333" x1="75.7417" y1="47.7926" x2="76.3558" y2="56.6802" gradientUnits="userSpaceOnUse">
<stop stop-color="#FFBD57"/>
<stop offset="1" stop-color="#FFBD57" stop-opacity="0"/>
</linearGradient>
<linearGradient id="paint7_linear_118_2333" x1="34.3846" y1="12.8299" x2="64.7694" y2="19.2783" gradientUnits="userSpaceOnUse">
<stop stop-color="#F1F1F1"/>
<stop offset="1" stop-color="#E1E1E1"/>
</linearGradient>
</defs>
</svg>
