<svg width="216" height="105" viewBox="0 0 216 105" fill="none" xmlns="http://www.w3.org/2000/svg">
<g filter="url(#filter0_d_118_1863)">
<rect x="28.2632" y="28" width="153" height="42" rx="6.49" fill="white"/>
<rect x="28.2632" y="28" width="153" height="42" rx="6.49" stroke="url(#paint0_linear_118_1863)" stroke-opacity="0.3" stroke-width="1.30158"/>
</g>
<g filter="url(#filter1_d_118_1863)">
<mask id="path-3-outside-1_118_1863" maskUnits="userSpaceOnUse" x="54.2076" y="32.4986" width="27.4877" height="32.7092" fill="black">
<rect fill="white" x="54.2076" y="32.4986" width="27.4877" height="32.7092"/>
<path d="M73.4783 36.4653C74.3165 36.6718 75.082 37.0891 75.6865 37.6691C76.291 38.249 76.7099 38.9686 76.896 39.7446C77.082 40.5207 77.0282 41.3222 76.739 42.0573C76.4498 42.7922 75.9374 43.4309 75.2614 43.9002C75.2213 43.9279 75.1804 43.9552 75.1392 43.9816C75.0558 44.0567 74.0918 44.7747 73.9406 45.7083C73.8968 46.0069 73.9011 46.3112 73.9543 46.6113C74.0186 47.0123 74.4217 47.8529 74.4892 47.9642C75.4349 49.5188 76.238 51.5211 76.5289 53.4363C77.0401 56.801 76.279 58.4181 76.0819 58.9021C76.0815 58.903 76.0809 58.9042 76.0805 58.9049C75.7128 60.1237 73.0388 60.6879 69.8098 60.2715L69.1575 60.1754C69.1509 60.1743 69.1438 60.1731 69.1372 60.172C69.1302 60.1708 69.1231 60.1696 69.116 60.1684L68.9561 60.1408C68.9544 60.1405 68.9519 60.1404 68.9503 60.1401C68.9448 60.1391 68.9394 60.1381 68.9339 60.1371C68.9282 60.1361 68.9223 60.135 68.9166 60.134L68.9108 60.1332C68.8576 60.1236 68.8049 60.1131 68.7522 60.1029C68.7448 60.1015 68.7374 60.0996 68.7301 60.0982L68.7108 60.0948C68.1325 59.9826 67.5784 59.8434 67.0559 59.6873C66.509 59.9391 65.8809 60.1656 65.1969 60.3448L64.7161 60.4617C64.7112 60.4628 64.7058 60.4637 64.7009 60.4648C64.6956 60.466 64.6901 60.4675 64.6847 60.4687L64.5664 60.4945L64.5655 60.4943C64.5645 60.4946 64.5634 60.4947 64.5624 60.495C64.5582 60.4958 64.5536 60.4965 64.5494 60.4973C64.5452 60.4982 64.5413 60.4998 64.5371 60.5007L64.5331 60.5012L64.5322 60.5011C64.4927 60.5092 64.4535 60.5172 64.4141 60.5249C64.4088 60.5259 64.4033 60.5268 64.398 60.5278L64.3829 60.5309C61.7616 61.0399 59.4989 60.6695 59.1907 59.6837L59.1899 59.6816C59.0368 59.3156 58.4494 58.0946 58.7918 55.5168C58.9867 54.0494 59.5629 52.506 60.2516 51.3023C60.3004 51.217 60.5926 50.567 60.6359 50.2594C60.6721 50.0295 60.6725 49.7968 60.6363 49.5697C60.5121 48.8601 59.7835 48.3294 59.7196 48.2731C59.6884 48.2538 59.6576 48.2339 59.6275 48.2136C59.1168 47.8675 58.7267 47.3887 58.5017 46.8331C58.2767 46.2776 58.2253 45.6669 58.3546 45.0715C58.484 44.4762 58.7883 43.9201 59.2323 43.4665C59.6764 43.0128 60.2433 42.6803 60.8667 42.5068C60.8825 42.5028 61.2403 42.4275 61.2556 42.4248C61.8957 42.334 62.5434 42.4127 63.1226 42.6529C63.7018 42.893 64.1899 43.2851 64.5312 43.7828C64.8725 44.2804 65.0527 44.8644 65.0518 45.4674C65.0509 46.0705 64.8691 46.6684 64.5264 47.1925C64.506 47.2236 64.4844 47.2546 64.4628 47.2851C64.4239 47.3641 63.9508 48.1453 64.1 48.8491C64.151 49.073 64.2374 49.2872 64.3562 49.4848C64.4531 49.6521 64.6916 49.9035 64.8739 50.0829C65.7614 48.8202 66.882 47.6652 67.9899 46.7927C68.0915 46.7126 68.7644 46.0659 68.9653 45.7124C69.1202 45.4498 69.2316 45.1664 69.2952 44.8714C69.4804 43.9439 68.8284 42.9342 68.7766 42.8347C68.7471 42.7956 68.7176 42.7567 68.6898 42.7168C68.221 42.0417 67.9654 41.2648 67.9514 40.4759C67.9374 39.6869 68.1656 38.9168 68.6107 38.2547C69.0557 37.5927 69.6998 37.0651 70.468 36.7321C71.2363 36.399 72.0985 36.2738 72.9556 36.3714C72.9736 36.3737 73.4672 36.4626 73.4783 36.4653Z"/>
</mask>
<path d="M73.4783 36.4653C74.3165 36.6718 75.082 37.0891 75.6865 37.6691C76.291 38.249 76.7099 38.9686 76.896 39.7446C77.082 40.5207 77.0282 41.3222 76.739 42.0573C76.4498 42.7922 75.9374 43.4309 75.2614 43.9002C75.2213 43.9279 75.1804 43.9552 75.1392 43.9816C75.0558 44.0567 74.0918 44.7747 73.9406 45.7083C73.8968 46.0069 73.9011 46.3112 73.9543 46.6113C74.0186 47.0123 74.4217 47.8529 74.4892 47.9642C75.4349 49.5188 76.238 51.5211 76.5289 53.4363C77.0401 56.801 76.279 58.4181 76.0819 58.9021C76.0815 58.903 76.0809 58.9042 76.0805 58.9049C75.7128 60.1237 73.0388 60.6879 69.8098 60.2715L69.1575 60.1754C69.1509 60.1743 69.1438 60.1731 69.1372 60.172C69.1302 60.1708 69.1231 60.1696 69.116 60.1684L68.9561 60.1408C68.9544 60.1405 68.9519 60.1404 68.9503 60.1401C68.9448 60.1391 68.9394 60.1381 68.9339 60.1371C68.9282 60.1361 68.9223 60.135 68.9166 60.134L68.9108 60.1332C68.8576 60.1236 68.8049 60.1131 68.7522 60.1029C68.7448 60.1015 68.7374 60.0996 68.7301 60.0982L68.7108 60.0948C68.1325 59.9826 67.5784 59.8434 67.0559 59.6873C66.509 59.9391 65.8809 60.1656 65.1969 60.3448L64.7161 60.4617C64.7112 60.4628 64.7058 60.4637 64.7009 60.4648C64.6956 60.466 64.6901 60.4675 64.6847 60.4687L64.5664 60.4945L64.5655 60.4943C64.5645 60.4946 64.5634 60.4947 64.5624 60.495C64.5582 60.4958 64.5536 60.4965 64.5494 60.4973C64.5452 60.4982 64.5413 60.4998 64.5371 60.5007L64.5331 60.5012L64.5322 60.5011C64.4927 60.5092 64.4535 60.5172 64.4141 60.5249C64.4088 60.5259 64.4033 60.5268 64.398 60.5278L64.3829 60.5309C61.7616 61.0399 59.4989 60.6695 59.1907 59.6837L59.1899 59.6816C59.0368 59.3156 58.4494 58.0946 58.7918 55.5168C58.9867 54.0494 59.5629 52.506 60.2516 51.3023C60.3004 51.217 60.5926 50.567 60.6359 50.2594C60.6721 50.0295 60.6725 49.7968 60.6363 49.5697C60.5121 48.8601 59.7835 48.3294 59.7196 48.2731C59.6884 48.2538 59.6576 48.2339 59.6275 48.2136C59.1168 47.8675 58.7267 47.3887 58.5017 46.8331C58.2767 46.2776 58.2253 45.6669 58.3546 45.0715C58.484 44.4762 58.7883 43.9201 59.2323 43.4665C59.6764 43.0128 60.2433 42.6803 60.8667 42.5068C60.8825 42.5028 61.2403 42.4275 61.2556 42.4248C61.8957 42.334 62.5434 42.4127 63.1226 42.6529C63.7018 42.893 64.1899 43.2851 64.5312 43.7828C64.8725 44.2804 65.0527 44.8644 65.0518 45.4674C65.0509 46.0705 64.8691 46.6684 64.5264 47.1925C64.506 47.2236 64.4844 47.2546 64.4628 47.2851C64.4239 47.3641 63.9508 48.1453 64.1 48.8491C64.151 49.073 64.2374 49.2872 64.3562 49.4848C64.4531 49.6521 64.6916 49.9035 64.8739 50.0829C65.7614 48.8202 66.882 47.6652 67.9899 46.7927C68.0915 46.7126 68.7644 46.0659 68.9653 45.7124C69.1202 45.4498 69.2316 45.1664 69.2952 44.8714C69.4804 43.9439 68.8284 42.9342 68.7766 42.8347C68.7471 42.7956 68.7176 42.7567 68.6898 42.7168C68.221 42.0417 67.9654 41.2648 67.9514 40.4759C67.9374 39.6869 68.1656 38.9168 68.6107 38.2547C69.0557 37.5927 69.6998 37.0651 70.468 36.7321C71.2363 36.399 72.0985 36.2738 72.9556 36.3714C72.9736 36.3737 73.4672 36.4626 73.4783 36.4653Z" fill="#D9D9D9"/>
<path d="M73.4783 36.4653L73.8575 34.926L73.8561 34.9257L73.4783 36.4653ZM75.6865 37.6691L76.784 36.5251L76.784 36.5251L75.6865 37.6691ZM76.896 39.7446L78.4375 39.375L78.4375 39.375L76.896 39.7446ZM76.739 42.0573L78.2142 42.6377L78.2142 42.6377L76.739 42.0573ZM75.2614 43.9002L76.1618 45.205L76.1654 45.2024L75.2614 43.9002ZM75.1392 43.9816L74.2853 42.6459L74.1753 42.7162L74.0784 42.8036L75.1392 43.9816ZM73.9406 45.7083L72.3757 45.4548L72.3738 45.4666L72.3721 45.4785L73.9406 45.7083ZM73.9543 46.6113L75.5196 46.3604L75.5175 46.3475L75.5153 46.3346L73.9543 46.6113ZM74.4892 47.9642L73.1338 48.7864L73.1349 48.7881L74.4892 47.9642ZM76.5289 53.4363L74.9616 53.6743L74.9616 53.6744L76.5289 53.4363ZM76.0819 58.9021L77.5351 59.5355L77.5428 59.5179L77.55 59.5002L76.0819 58.9021ZM76.0805 58.9049L74.7082 58.1113L74.616 58.2707L74.5628 58.447L76.0805 58.9049ZM69.8098 60.2715L69.5787 61.8399L69.5929 61.842L69.6071 61.8438L69.8098 60.2715ZM69.1575 60.1754L68.8948 61.7388L68.9106 61.7415L68.9264 61.7438L69.1575 60.1754ZM69.1372 60.172L69.3998 58.6086L69.3983 58.6083L69.1372 60.172ZM69.116 60.1684L68.8467 61.7306L68.8515 61.7314L69.116 60.1684ZM68.9561 60.1408L68.6749 61.701L68.6868 61.703L68.9561 60.1408ZM68.9503 60.1401L68.6683 61.7001L68.6691 61.7002L68.9503 60.1401ZM68.9339 60.1371L69.2328 58.5802L69.215 58.5768L69.1972 58.5738L68.9339 60.1371ZM68.9166 60.134L69.1977 58.5738L69.1542 58.566L69.1104 58.5606L68.9166 60.134ZM68.9108 60.1332L68.6283 61.6931L68.6724 61.7011L68.7169 61.7066L68.9108 60.1332ZM68.7522 60.1029L69.0525 58.5463L69.0507 58.546L68.7522 60.1029ZM68.7301 60.0982L69.0304 58.5416L69.0164 58.5389L69.0022 58.5365L68.7301 60.0982ZM68.7108 60.0948L68.4089 61.6511L68.4238 61.654L68.4387 61.6566L68.7108 60.0948ZM67.0559 59.6873L67.5095 58.1683L66.9362 57.9971L66.3928 58.2474L67.0559 59.6873ZM65.1969 60.3448L65.5714 61.8852L65.5851 61.8819L65.5987 61.8783L65.1969 60.3448ZM64.7161 60.4617L65.0581 62.0097L65.0744 62.0061L65.0906 62.0021L64.7161 60.4617ZM64.7009 60.4648L64.359 58.9169L64.3574 58.9172L64.7009 60.4648ZM64.6847 60.4687L65.0221 62.0176L65.0247 62.0171L64.6847 60.4687ZM64.5664 60.4945L64.3726 62.0678L64.6403 62.1008L64.9039 62.0434L64.5664 60.4945ZM64.5655 60.4943L64.7593 58.921L64.4959 58.8885L64.2363 58.9436L64.5655 60.4943ZM64.5624 60.495L64.8857 62.0469L64.888 62.0464L64.5624 60.495ZM64.5494 60.4973L64.2441 58.9417L64.226 58.9452L64.2081 58.9492L64.5494 60.4973ZM64.5371 60.5007L64.7307 62.0741L64.7962 62.066L64.8609 62.0526L64.5371 60.5007ZM64.5331 60.5012L64.3393 62.0746L64.533 62.0984L64.7267 62.0746L64.5331 60.5012ZM64.5322 60.5011L64.726 58.9277L64.4664 58.8957L64.2103 58.9488L64.5322 60.5011ZM64.4141 60.5249L64.1103 58.969L64.1084 58.9694L64.4141 60.5249ZM64.398 60.5278L64.0941 58.9719L64.0843 58.9739L64.398 60.5278ZM64.3829 60.5309L64.6851 62.0871L64.6965 62.0848L64.3829 60.5309ZM59.1907 59.6837L60.7037 59.2106L60.6947 59.1818L60.6846 59.1534L59.1907 59.6837ZM59.1899 59.6816L60.6839 59.1513L60.6693 59.1102L60.6524 59.0699L59.1899 59.6816ZM58.7918 55.5168L60.3633 55.7255L60.3633 55.7255L58.7918 55.5168ZM60.2516 51.3023L58.8757 50.515L58.8757 50.515L60.2516 51.3023ZM60.6359 50.2594L59.0699 50.013L59.068 50.0255L59.0662 50.0381L60.6359 50.2594ZM60.6363 49.5697L62.2017 49.32L62.1999 49.3082L62.1978 49.2965L60.6363 49.5697ZM59.7196 48.2731L60.7678 47.0839L60.6683 46.9962L60.5557 46.9263L59.7196 48.2731ZM59.6275 48.2136L58.7382 49.5259L58.7402 49.5272L59.6275 48.2136ZM58.5017 46.8331L57.0324 47.4283L57.0324 47.4283L58.5017 46.8331ZM58.3546 45.0715L56.8055 44.7349L56.8055 44.7351L58.3546 45.0715ZM59.2323 43.4665L58.0995 42.3575L58.0994 42.3576L59.2323 43.4665ZM60.8667 42.5068L60.4789 40.9697L60.4603 40.9744L60.4418 40.9796L60.8667 42.5068ZM61.2556 42.4248L61.0328 40.8553L61.0085 40.8588L60.9843 40.863L61.2556 42.4248ZM63.1226 42.6529L63.7298 41.1885L63.7297 41.1884L63.1226 42.6529ZM64.5312 43.7828L65.8386 42.8862L65.8385 42.8861L64.5312 43.7828ZM65.0518 45.4674L66.6371 45.4699L66.6371 45.4697L65.0518 45.4674ZM64.5264 47.1925L65.8508 48.0638L65.8532 48.0602L64.5264 47.1925ZM64.4628 47.2851L63.1696 46.3683L63.0966 46.4712L63.0408 46.5844L64.4628 47.2851ZM64.1 48.8491L62.5492 49.1779L62.5516 49.1896L62.5543 49.2012L64.1 48.8491ZM64.3562 49.4848L65.7278 48.69L65.7214 48.6789L65.7147 48.6678L64.3562 49.4848ZM64.8739 50.0829L63.7619 51.2128L65.0952 52.5248L66.1708 50.9944L64.8739 50.0829ZM67.9899 46.7927L68.9707 48.0381L68.9712 48.0377L67.9899 46.7927ZM68.9653 45.7124L67.5999 44.9069L67.5933 44.9181L67.5869 44.9293L68.9653 45.7124ZM69.2952 44.8714L70.8449 45.2052L70.8474 45.1936L70.8497 45.1819L69.2952 44.8714ZM68.7766 42.8347L70.1824 42.1021L70.1215 41.9853L70.0422 41.8801L68.7766 42.8347ZM68.6898 42.7168L67.3876 43.621L67.3888 43.6227L68.6898 42.7168ZM67.9514 40.4759L66.3664 40.504L66.3664 40.5041L67.9514 40.4759ZM68.6107 38.2547L67.2951 37.3702L67.2951 37.3703L68.6107 38.2547ZM70.468 36.7321L69.8375 35.2776L69.8374 35.2776L70.468 36.7321ZM72.9556 36.3714L73.1582 34.7991L73.1465 34.7976L73.1348 34.7963L72.9556 36.3714ZM73.4783 36.4653L73.0991 38.0045C73.6758 38.1466 74.1913 38.4315 74.5891 38.8131L75.6865 37.6691L76.784 36.5251C75.9726 35.7468 74.9572 35.1969 73.8575 34.926L73.4783 36.4653ZM75.6865 37.6691L74.5891 38.813C74.9853 39.1931 75.2425 39.6478 75.3544 40.1143L76.896 39.7446L78.4375 39.375C78.1772 38.2893 77.5968 37.3049 76.784 36.5251L75.6865 37.6691ZM76.896 39.7446L75.3544 40.1142C75.4658 40.579 75.4323 41.0487 75.2638 41.4768L76.739 42.0573L78.2142 42.6377C78.6241 41.5958 78.6982 40.4624 78.4375 39.375L76.896 39.7446ZM76.739 42.0573L75.2638 41.4768C75.0946 41.9068 74.7877 42.2992 74.3574 42.5979L75.2614 43.9002L76.1654 45.2024C77.0872 44.5626 77.805 43.6776 78.2142 42.6377L76.739 42.0573ZM75.2614 43.9002L74.361 42.5954C74.3333 42.6146 74.3081 42.6313 74.2853 42.6459L75.1392 43.9816L75.9931 45.3172C76.0528 45.279 76.1093 45.2411 76.1618 45.205L75.2614 43.9002ZM75.1392 43.9816L74.0784 42.8036C74.1538 42.7357 73.7269 43.0782 73.3779 43.4727C73.0272 43.8693 72.5215 44.555 72.3757 45.4548L73.9406 45.7083L75.5054 45.9619C75.5109 45.928 75.5629 45.788 75.7527 45.5733C75.9444 45.3566 76.0413 45.3026 76.2 45.1596L75.1392 43.9816ZM73.9406 45.7083L72.3721 45.4785C72.3037 45.9451 72.3105 46.4205 72.3934 46.888L73.9543 46.6113L75.5153 46.3346C75.4917 46.202 75.49 46.0686 75.5091 45.9382L73.9406 45.7083ZM73.9543 46.6113L72.389 46.8622C72.4561 47.2804 72.6509 47.7576 72.763 48.0197C72.882 48.2981 73.0369 48.6267 73.1338 48.7864L74.4892 47.9642L75.8446 47.142C75.8684 47.1813 75.8772 47.2006 75.8608 47.1685C75.8507 47.1488 75.8353 47.1179 75.8157 47.0769C75.7764 46.9951 75.7272 46.8877 75.6781 46.7731C75.6284 46.6568 75.5843 46.5456 75.5519 46.4529C75.5139 46.3441 75.5133 46.321 75.5196 46.3604L73.9543 46.6113ZM74.4892 47.9642L73.1349 48.7881C73.9887 50.1918 74.7068 51.997 74.9616 53.6743L76.5289 53.4363L78.0962 53.1982C77.7692 51.0452 76.8811 48.8459 75.8436 47.1403L74.4892 47.9642ZM76.5289 53.4363L74.9616 53.6744C75.1934 55.2003 75.1291 56.275 75.0083 56.983C74.8894 57.6798 74.7123 58.062 74.6137 58.304L76.0819 58.9021L77.55 59.5002C77.6486 59.2582 77.9506 58.5899 78.1337 57.516C78.315 56.4532 78.3755 55.037 78.0961 53.1981L76.5289 53.4363ZM76.0819 58.9021L74.6287 58.2687C74.6309 58.2634 74.6371 58.2494 74.6455 58.2315C74.6498 58.2223 74.6565 58.2082 74.6651 58.1911C74.6728 58.1759 74.6876 58.1469 74.7082 58.1113L76.0805 58.9049L77.4529 59.6985C77.4887 59.6366 77.5124 59.5854 77.5169 59.5757C77.5258 59.5568 77.5324 59.5417 77.5351 59.5355L76.0819 58.9021ZM76.0805 58.9049L74.5628 58.447C74.6201 58.2571 74.7202 58.2476 74.5671 58.3422C74.4173 58.4346 74.1343 58.5545 73.6836 58.6518C72.7876 58.8452 71.501 58.8912 70.0125 58.6993L69.8098 60.2715L69.6071 61.8438C71.3476 62.0682 73.0124 62.0403 74.3526 61.751C75.02 61.6069 75.6763 61.3833 76.2323 61.0402C76.7849 60.6991 77.3571 60.1621 77.5982 59.3628L76.0805 58.9049ZM69.8098 60.2715L70.0408 58.7032L69.3885 58.6071L69.1575 60.1754L68.9264 61.7438L69.5787 61.8399L69.8098 60.2715ZM69.1575 60.1754L69.4201 58.6121C69.4213 58.6123 69.422 58.6124 69.4216 58.6123C69.4211 58.6122 69.4205 58.6121 69.4186 58.6118C69.417 58.6115 69.4143 58.6111 69.4114 58.6106C69.4083 58.61 69.4043 58.6094 69.3998 58.6086L69.1372 60.172L68.8746 61.7353C68.8734 61.7351 68.8727 61.735 68.8731 61.7351C68.8736 61.7352 68.8742 61.7353 68.8761 61.7356C68.8776 61.7359 68.8804 61.7363 68.8833 61.7368C68.8863 61.7374 68.8903 61.738 68.8948 61.7388L69.1575 60.1754ZM69.1372 60.172L69.3983 58.6083C69.3925 58.6074 69.3954 58.6078 69.3805 58.6053L69.116 60.1684L68.8515 61.7314C68.8539 61.7318 68.8558 61.7321 68.8604 61.7329C68.8644 61.7336 68.87 61.7346 68.8761 61.7356L69.1372 60.172ZM69.116 60.1684L69.3853 58.6061L69.2254 58.5786L68.9561 60.1408L68.6868 61.703L68.8467 61.7306L69.116 60.1684ZM68.9561 60.1408L69.2372 58.5806C69.2123 58.5762 69.1914 58.573 69.1762 58.5709C69.1608 58.5687 69.148 58.5671 69.1391 58.5661C69.1301 58.565 69.1229 58.5643 69.1187 58.5638C69.1166 58.5636 69.1148 58.5634 69.1137 58.5633C69.1131 58.5633 69.1127 58.5632 69.1124 58.5632C69.1121 58.5632 69.1119 58.5631 69.1118 58.5631C69.1111 58.563 69.114 58.5633 69.1174 58.5637C69.1211 58.5641 69.1278 58.5648 69.1364 58.5658C69.1448 58.5668 69.1572 58.5683 69.1721 58.5704C69.1867 58.5725 69.2071 58.5756 69.2314 58.5799L68.9503 60.1401L68.6691 61.7002C68.6938 61.7047 68.7146 61.7078 68.7298 61.7099C68.7451 61.7121 68.7579 61.7137 68.7669 61.7147C68.7759 61.7158 68.7832 61.7166 68.7874 61.717C68.7896 61.7172 68.7914 61.7174 68.7925 61.7175C68.7936 61.7177 68.7945 61.7177 68.7945 61.7177C68.7954 61.7178 68.7925 61.7175 68.7892 61.7172C68.7855 61.7168 68.7788 61.7161 68.7703 61.7151C68.7619 61.7141 68.7495 61.7126 68.7346 61.7105C68.7199 61.7084 68.6994 61.7053 68.6749 61.7009L68.9561 60.1408ZM68.9503 60.1401L69.2322 58.5801L69.2328 58.5802L68.9339 60.1371L68.635 61.6939C68.6449 61.6958 68.6532 61.6973 68.6585 61.6983C68.6612 61.6988 68.6636 61.6992 68.6651 61.6995C68.667 61.6998 68.6675 61.6999 68.6683 61.7001L68.9503 60.1401ZM68.9339 60.1371L69.1972 58.5738C69.2016 58.5746 69.205 58.5752 69.2071 58.5755C69.2091 58.5759 69.2103 58.5761 69.2102 58.5761C69.2095 58.576 69.2098 58.576 69.2071 58.5755C69.2052 58.5752 69.2017 58.5745 69.1977 58.5738L68.9166 60.134L68.6354 61.6941C68.6343 61.6939 68.6337 61.6938 68.6347 61.694C68.6349 61.694 68.638 61.6946 68.6403 61.695C68.6453 61.6959 68.6567 61.698 68.6706 61.7003L68.9339 60.1371ZM68.9166 60.134L69.1104 58.5606L69.1046 58.5599L68.9108 60.1332L68.7169 61.7066L68.7228 61.7073L68.9166 60.134ZM68.9108 60.1332L69.1932 58.5733C69.152 58.5659 69.12 58.5593 69.0525 58.5463L68.7522 60.1029L68.4518 61.6594C68.4898 61.6668 68.5633 61.6814 68.6283 61.6931L68.9108 60.1332ZM68.7522 60.1029L69.0507 58.546C69.0638 58.5485 69.0739 58.5506 69.0793 58.5518C69.082 58.5524 69.0841 58.5528 69.085 58.553C69.0858 58.5532 69.0863 58.5533 69.0852 58.5531C69.0846 58.5529 69.0824 58.5524 69.0799 58.5519C69.0774 58.5513 69.0736 58.5505 69.0691 58.5495C69.0604 58.5477 69.0469 58.5448 69.0304 58.5416L68.7301 60.0982L68.4297 61.6548C68.417 61.6523 68.4071 61.6502 68.4021 61.6491C68.3994 61.6485 68.3975 61.6481 68.3968 61.648C68.3962 61.6478 68.3958 61.6477 68.397 61.648C68.3981 61.6483 68.4056 61.6499 68.414 61.6517C68.423 61.6537 68.4369 61.6566 68.4536 61.6598L68.7522 60.1029ZM68.7301 60.0982L69.0022 58.5365L68.983 58.5331L68.7108 60.0948L68.4387 61.6566L68.458 61.6599L68.7301 60.0982ZM68.7108 60.0948L69.0128 58.5386C68.4891 58.437 67.9857 58.3105 67.5095 58.1683L67.0559 59.6873L66.6022 61.2063C67.1711 61.3762 67.7759 61.5283 68.4089 61.6511L68.7108 60.0948ZM67.0559 59.6873L66.3928 58.2474C65.9346 58.4583 65.3943 58.6543 64.7951 58.8113L65.1969 60.3448L65.5987 61.8783C66.3674 61.6769 67.0833 61.4199 67.7189 61.1272L67.0559 59.6873ZM65.1969 60.3448L64.8223 58.8044L64.3415 58.9213L64.7161 60.4617L65.0906 62.0021L65.5714 61.8852L65.1969 60.3448ZM64.7161 60.4617L64.3741 58.9138C64.387 58.911 64.397 58.9089 64.4021 58.9079C64.4048 58.9074 64.4068 58.907 64.4078 58.9068C64.4086 58.9066 64.4092 58.9065 64.4084 58.9067C64.408 58.9067 64.4061 58.9071 64.404 58.9075C64.4017 58.908 64.3984 58.9086 64.3944 58.9094C64.3868 58.9109 64.3743 58.9135 64.359 58.9169L64.7009 60.4648L65.0429 62.0127C65.0301 62.0156 65.02 62.0176 65.0149 62.0186C65.0122 62.0192 65.0102 62.0196 65.0092 62.0198C65.0084 62.0199 65.0078 62.02 65.0086 62.0199C65.0091 62.0198 65.011 62.0194 65.0131 62.019C65.0153 62.0186 65.0186 62.0179 65.0226 62.0171C65.0302 62.0156 65.0428 62.0131 65.0581 62.0097L64.7161 60.4617ZM64.7009 60.4648L64.3574 58.9172C64.342 58.9206 64.3293 58.9237 64.3214 58.9256C64.3174 58.9266 64.314 58.9274 64.3118 58.9279C64.3098 58.9285 64.3078 58.9289 64.3075 58.929C64.3068 58.9292 64.3076 58.929 64.3086 58.9287C64.3098 58.9285 64.3121 58.9279 64.3151 58.9272C64.3208 58.9258 64.3314 58.9233 64.3447 58.9203L64.6847 60.4687L65.0247 62.0171C65.0408 62.0136 65.054 62.0104 65.0625 62.0084C65.0668 62.0073 65.0705 62.0064 65.073 62.0058C65.0754 62.0052 65.0775 62.0046 65.0781 62.0045C65.0792 62.0042 65.0786 62.0044 65.0779 62.0045C65.0771 62.0048 65.075 62.0053 65.0724 62.0059C65.0672 62.0072 65.0573 62.0096 65.0445 62.0124L64.7009 60.4648ZM64.6847 60.4687L64.3473 58.9198L64.229 58.9455L64.5664 60.4945L64.9039 62.0434L65.0221 62.0176L64.6847 60.4687ZM64.5664 60.4945L64.7602 58.9211L64.7593 58.921L64.5655 60.4943L64.3716 62.0677L64.3726 62.0678L64.5664 60.4945ZM64.5655 60.4943L64.2363 58.9436C64.2431 58.9422 64.2485 58.9411 64.2519 58.9404C64.2536 58.9401 64.2549 58.9398 64.2558 58.9396C64.2562 58.9395 64.2566 58.9395 64.2568 58.9394C64.2569 58.9394 64.257 58.9394 64.257 58.9394C64.2571 58.9394 64.2571 58.9394 64.2571 58.9394C64.2577 58.9393 64.255 58.9398 64.2521 58.9404C64.2488 58.941 64.2435 58.9421 64.2369 58.9435L64.5624 60.495L64.888 62.0464C64.8819 62.0477 64.877 62.0487 64.8743 62.0492C64.8719 62.0497 64.8697 62.0502 64.8708 62.05C64.8709 62.0499 64.8739 62.0493 64.8775 62.0486C64.8814 62.0478 64.8873 62.0466 64.8946 62.0451L64.5655 60.4943ZM64.5624 60.495L64.2391 58.943C64.258 58.9391 64.273 58.9363 64.2819 58.9348C64.2864 58.9339 64.2901 58.9333 64.2924 58.9329C64.2936 58.9327 64.2945 58.9326 64.2952 58.9325C64.2958 58.9324 64.2962 58.9323 64.2962 58.9323C64.2963 58.9323 64.2963 58.9323 64.2962 58.9323C64.2961 58.9323 64.2959 58.9323 64.2957 58.9324C64.2953 58.9324 64.2944 58.9326 64.2935 58.9327C64.2915 58.9331 64.2881 58.9336 64.284 58.9343C64.276 58.9357 64.2617 58.9382 64.2441 58.9417L64.5494 60.4973L64.8547 62.0529C64.8391 62.0559 64.827 62.058 64.8212 62.059C64.8181 62.0596 64.8158 62.06 64.815 62.0601C64.8149 62.0601 64.8135 62.0603 64.8156 62.06C64.8172 62.0597 64.8259 62.0583 64.8366 62.0564C64.8476 62.0544 64.8648 62.0513 64.8857 62.0469L64.5624 60.495ZM64.5494 60.4973L64.2081 58.9492C64.1849 58.9543 64.1643 58.9594 64.1471 58.9639C64.13 58.9683 64.1154 58.9724 64.1042 58.9757C64.0931 58.9789 64.0842 58.9816 64.0789 58.9833C64.0762 58.9841 64.074 58.9848 64.0727 58.9852C64.0717 58.9855 64.0704 58.9859 64.0709 58.9858C64.0709 58.9857 64.0712 58.9857 64.0716 58.9855C64.072 58.9854 64.0726 58.9852 64.0733 58.985C64.0748 58.9845 64.0772 58.9838 64.0801 58.9829C64.0858 58.9812 64.0951 58.9784 64.1066 58.9751C64.1183 58.9718 64.1333 58.9677 64.1509 58.9632C64.1686 58.9588 64.1896 58.9538 64.2134 58.9488L64.5371 60.5007L64.8609 62.0526C64.9098 62.0424 64.9491 62.0318 64.9738 62.0248C64.9863 62.0212 64.9966 62.0181 65.0034 62.016C65.0098 62.0141 65.015 62.0125 65.0156 62.0123C65.0178 62.0116 65.0142 62.0127 65.0107 62.0138C65.0064 62.0151 64.9985 62.0175 64.9884 62.0205C64.9687 62.0262 64.9343 62.0358 64.8906 62.0454L64.5494 60.4973ZM64.5371 60.5007L64.3436 58.9273L64.3396 58.9278L64.5331 60.5012L64.7267 62.0746L64.7307 62.0741L64.5371 60.5007ZM64.5331 60.5012L64.7269 58.9278L64.726 58.9277L64.5322 60.5011L64.3383 62.0744L64.3393 62.0746L64.5331 60.5012ZM64.5322 60.5011L64.2103 58.9488C64.1751 58.9561 64.1421 58.9628 64.1103 58.969L64.4141 60.5249L64.7179 62.0808C64.7648 62.0716 64.8104 62.0624 64.854 62.0533L64.5322 60.5011ZM64.4141 60.5249L64.1084 58.9694C64.1173 58.9676 64.1243 58.9664 64.1279 58.9657C64.1311 58.9651 64.1336 58.9647 64.1318 58.965C64.1313 58.9651 64.1262 58.966 64.1207 58.967C64.1147 58.9681 64.1054 58.9698 64.0941 58.972L64.398 60.5278L64.7019 62.0837C64.6933 62.0854 64.6866 62.0866 64.6833 62.0872C64.6805 62.0877 64.6781 62.0881 64.6803 62.0877C64.6812 62.0876 64.6864 62.0867 64.6923 62.0856C64.6986 62.0845 64.7082 62.0827 64.7198 62.0804L64.4141 60.5249ZM64.398 60.5278L64.0843 58.9739L64.0692 58.977L64.3829 60.5309L64.6965 62.0848L64.7117 62.0818L64.398 60.5278ZM64.3829 60.5309L64.0807 58.9747C62.9055 59.2029 61.8787 59.2183 61.1749 59.1033C60.8193 59.0453 60.619 58.9656 60.5358 58.9192C60.4473 58.8698 60.6174 58.9347 60.7037 59.2106L59.1907 59.6837L57.6776 60.1568C57.918 60.9256 58.4866 61.4065 58.9909 61.6879C59.5006 61.9723 60.0876 62.1383 60.6638 62.2324C61.8238 62.4219 63.2389 62.3679 64.6851 62.0871L64.3829 60.5309ZM59.1907 59.6837L60.6846 59.1534L60.6839 59.1513L59.1899 59.6816L57.696 60.2119L57.6967 60.214L59.1907 59.6837ZM59.1899 59.6816L60.6524 59.0699C60.5762 58.8878 60.4537 58.6312 60.3644 58.1433C60.273 57.6438 60.2124 56.8613 60.3633 55.7255L58.7918 55.5168L57.2204 55.308C57.0288 56.7501 57.0907 57.867 57.2457 58.714C57.4028 59.5726 57.6505 60.1095 57.7275 60.2934L59.1899 59.6816ZM58.7918 55.5168L60.3633 55.7255C60.5273 54.4906 61.0254 53.1421 61.6276 52.0896L60.2516 51.3023L58.8757 50.515C58.1004 51.87 57.4461 53.6081 57.2204 55.308L58.7918 55.5168ZM60.2516 51.3023L61.6276 52.0896C61.712 51.9421 61.832 51.6673 61.9179 51.4524C61.9977 51.2527 62.1539 50.8483 62.2057 50.4807L60.6359 50.2594L59.0662 50.0381C59.0717 49.9988 59.077 49.9811 59.074 49.9927C59.0718 50.0013 59.0665 50.0203 59.0566 50.0507C59.0365 50.1126 59.0078 50.1908 58.9737 50.276C58.9403 50.3596 58.9066 50.4379 58.8801 50.4969C58.8669 50.5265 58.857 50.5475 58.8513 50.5594C58.8484 50.5654 58.848 50.5661 58.8498 50.5626C58.8508 50.5607 58.8531 50.5561 58.8566 50.5495C58.8598 50.5435 58.8664 50.5312 58.8757 50.515L60.2516 51.3023ZM60.6359 50.2594L62.2019 50.5059C62.2634 50.1153 62.2648 49.7152 62.2017 49.32L60.6363 49.5697L59.0708 49.8194C59.0802 49.8784 59.0809 49.9436 59.0699 50.013L60.6359 50.2594ZM60.6363 49.5697L62.1978 49.2965C62.0611 48.5151 61.6227 47.9369 61.3334 47.6156C61.0468 47.2974 60.6829 47.009 60.7678 47.0839L59.7196 48.2731L58.6713 49.4623C58.7068 49.4937 58.743 49.5224 58.7443 49.5235C58.759 49.5353 58.7627 49.5383 58.7744 49.5478C58.7921 49.5621 58.8115 49.5781 58.8333 49.597C58.8782 49.6359 58.9293 49.684 58.9772 49.7372C59.0266 49.792 59.0588 49.8371 59.0765 49.8678C59.0944 49.8988 59.0829 49.8898 59.0747 49.843L60.6363 49.5697ZM59.7196 48.2731L60.5557 46.9263C60.5404 46.9167 60.5267 46.9079 60.5148 46.8999L59.6275 48.2136L58.7402 49.5272C58.7886 49.5599 58.8365 49.5908 58.8834 49.6199L59.7196 48.2731ZM59.6275 48.2136L60.5168 46.9012C60.259 46.7265 60.0748 46.4942 59.971 46.238L58.5017 46.8331L57.0324 47.4283C57.3787 48.2832 57.9747 49.0085 58.7382 49.5259L59.6275 48.2136ZM58.5017 46.8331L59.971 46.238C59.8674 45.9821 59.8412 45.6963 59.9038 45.4079L58.3546 45.0715L56.8055 44.7351C56.6095 45.6375 56.686 46.5731 57.0324 47.4283L58.5017 46.8331ZM58.3546 45.0715L59.9038 45.4081C59.9669 45.1174 60.1203 44.8256 60.3651 44.5754L59.2323 43.4665L58.0994 42.3576C57.4563 43.0146 57.001 43.8351 56.8055 44.7349L58.3546 45.0715ZM59.2323 43.4665L60.365 44.5755C60.6098 44.3255 60.9308 44.1345 61.2916 44.0341L60.8667 42.5068L60.4418 40.9796C59.5557 41.2261 58.743 41.7002 58.0995 42.3575L59.2323 43.4665ZM60.8667 42.5068L61.2545 44.0439C61.2426 44.0469 61.2333 44.0491 61.2301 44.0499C61.2258 44.0509 61.2225 44.0516 61.2208 44.052C61.2189 44.0524 61.2175 44.0528 61.2168 44.0529C61.216 44.0531 61.2155 44.0532 61.2154 44.0532C61.2154 44.0532 61.2174 44.0528 61.2221 44.0518C61.2311 44.0498 61.2446 44.0469 61.2621 44.0432C61.2966 44.0359 61.3421 44.0263 61.3881 44.0166C61.4342 44.0069 61.4798 43.9973 61.5144 43.9901C61.5318 43.9864 61.5456 43.9836 61.5548 43.9817C61.5571 43.9812 61.5588 43.9809 61.5602 43.9806C61.5609 43.9804 61.5614 43.9803 61.5618 43.9803C61.5621 43.9802 61.5623 43.9801 61.5623 43.9802C61.5623 43.9802 61.5619 43.9802 61.5613 43.9803C61.5608 43.9805 61.5596 43.9807 61.558 43.981C61.5565 43.9813 61.5536 43.9819 61.5497 43.9826C61.5469 43.9831 61.5383 43.9848 61.527 43.9867L61.2556 42.4248L60.9843 40.863C60.9341 40.8717 60.5371 40.955 60.4789 40.9697L60.8667 42.5068ZM61.2556 42.4248L61.4785 43.9944C61.8475 43.942 62.2077 43.9897 62.5156 44.1173L63.1226 42.6529L63.7297 41.1884C62.879 40.8358 61.944 40.726 61.0328 40.8553L61.2556 42.4248ZM63.1226 42.6529L62.5155 44.1173C62.8216 44.2442 63.0623 44.4439 63.2239 44.6794L64.5312 43.7828L65.8385 42.8861C65.3174 42.1263 64.582 41.5418 63.7298 41.1885L63.1226 42.6529ZM64.5312 43.7828L63.2238 44.6793C63.3833 44.912 63.4669 45.1824 63.4665 45.4652L65.0518 45.4674L66.6371 45.4697C66.6384 44.5464 66.3616 43.6489 65.8386 42.8862L64.5312 43.7828ZM65.0518 45.4674L63.4665 45.465C63.4661 45.7494 63.3804 46.0484 63.1996 46.3249L64.5264 47.1925L65.8532 48.0602C66.3579 47.2884 66.6357 46.3915 66.6371 45.4699L65.0518 45.4674ZM64.5264 47.1925L63.202 46.3213C63.1956 46.3311 63.1856 46.3457 63.1696 46.3683L64.4628 47.2851L65.7561 48.2018C65.7833 48.1636 65.8164 48.116 65.8508 48.0637L64.5264 47.1925ZM64.4628 47.2851L63.0408 46.5844C63.0836 46.4975 62.863 46.8926 62.7176 47.3005C62.5732 47.7055 62.3856 48.4064 62.5492 49.1779L64.1 48.8491L65.6508 48.5203C65.6605 48.5662 65.653 48.5763 65.6586 48.5361C65.664 48.4968 65.6779 48.4385 65.7041 48.3651C65.7295 48.2937 65.7599 48.2264 65.7877 48.1707C65.8012 48.1436 65.8135 48.1203 65.8246 48.0997C65.8315 48.0869 65.8348 48.0811 65.8433 48.0655C65.8445 48.0633 65.8654 48.0253 65.8849 47.9858L64.4628 47.2851ZM64.1 48.8491L62.5543 49.2012C62.6429 49.5901 62.7928 49.9611 62.9977 50.3018L64.3562 49.4848L65.7147 48.6678C65.682 48.6134 65.6591 48.5559 65.6456 48.497L64.1 48.8491ZM64.3562 49.4848L62.9846 50.2796C63.2071 50.6636 63.608 51.0613 63.7619 51.2128L64.8739 50.0829L65.9858 48.9529C65.9094 48.8778 65.8306 48.7965 65.7671 48.7253C65.7357 48.6899 65.7149 48.6647 65.7033 48.6499C65.6883 48.6305 65.7024 48.6461 65.7278 48.69L64.3562 49.4848ZM64.8739 50.0829L66.1708 50.9944C66.9658 49.8633 67.9784 48.8196 68.9707 48.0381L67.9899 46.7927L67.0091 45.5472C65.7856 46.5108 64.5569 47.777 63.5769 49.1713L64.8739 50.0829ZM67.9899 46.7927L68.9712 48.0377C69.1177 47.9223 69.378 47.6687 69.5872 47.4496C69.7841 47.2433 70.1342 46.8642 70.3436 46.4954L68.9653 45.7124L67.5869 44.9293C67.6066 44.8946 67.598 44.916 67.5242 45.0047C67.4613 45.0802 67.381 45.169 67.2936 45.2605C67.2074 45.3508 67.1236 45.4341 67.0582 45.4971C67.0254 45.5286 67.0002 45.5522 66.9838 45.5671C66.9572 45.5914 66.9723 45.5762 67.0087 45.5476L67.9899 46.7927ZM68.9653 45.7124L70.3306 46.5179C70.5703 46.1117 70.7449 45.6693 70.8449 45.2052L69.2952 44.8714L67.7454 44.5376C67.7183 44.6634 67.6701 44.7879 67.5999 44.9069L68.9653 45.7124ZM69.2952 44.8714L70.8497 45.1819C71.0283 44.2877 70.7945 43.4683 70.6046 42.974C70.4157 42.4823 70.1355 42.012 70.1824 42.1021L68.7766 42.8347L67.3708 43.5674C67.4696 43.7569 67.5413 43.8413 67.645 44.1111C67.7477 44.3784 67.7473 44.5276 67.7406 44.5609L69.2952 44.8714ZM68.7766 42.8347L70.0422 41.8801C70.0069 41.8333 69.9977 41.8209 69.9907 41.8109L68.6898 42.7168L67.3888 43.6227C67.4375 43.6925 67.4872 43.7579 67.511 43.7894L68.7766 42.8347ZM68.6898 42.7168L69.9919 41.8126C69.6946 41.3844 69.5446 40.9103 69.5364 40.4477L67.9514 40.4759L66.3664 40.5041C66.3862 41.6193 66.7474 42.699 67.3877 43.621L68.6898 42.7168ZM67.9514 40.4759L69.5364 40.4478C69.5282 39.9865 69.6607 39.5343 69.9263 39.1391L68.6107 38.2547L67.2951 37.3703C66.6706 38.2992 66.3465 39.3874 66.3664 40.504L67.9514 40.4759ZM68.6107 38.2547L69.9263 39.1391C70.1932 38.7421 70.5933 38.4056 71.0986 38.1865L70.468 36.7321L69.8374 35.2776C68.8062 35.7247 67.9183 36.4433 67.2951 37.3702L68.6107 38.2547ZM70.468 36.7321L71.0986 38.1865C71.6045 37.9672 72.1867 37.8794 72.7763 37.9465L72.9556 36.3714L73.1348 34.7963C72.0104 34.6683 70.8681 34.8308 69.8375 35.2776L70.468 36.7321ZM72.9556 36.3714L72.753 37.9436C72.7348 37.9413 72.7209 37.9392 72.7175 37.9387C72.712 37.9378 72.7077 37.9371 72.7058 37.9368C72.7036 37.9365 72.7019 37.9362 72.7012 37.9361C72.7008 37.936 72.7005 37.9359 72.7003 37.9359C72.7001 37.9359 72.7 37.9359 72.7 37.9359C72.7 37.9359 72.7001 37.9359 72.7002 37.9359C72.7003 37.9359 72.7005 37.936 72.7008 37.936C72.7013 37.9361 72.7021 37.9362 72.703 37.9364C72.7049 37.9367 72.7074 37.9371 72.7105 37.9377C72.7233 37.9399 72.7421 37.9432 72.7661 37.9475C72.8135 37.9559 72.876 37.9671 72.9389 37.9784C73.0018 37.9897 73.0641 38.001 73.1108 38.0095C73.1344 38.0138 73.153 38.0172 73.1655 38.0195C73.1686 38.02 73.171 38.0205 73.1729 38.0208C73.1738 38.021 73.1745 38.0211 73.175 38.0212C73.1756 38.0213 73.1758 38.0214 73.1758 38.0214C73.1758 38.0214 73.1757 38.0214 73.1755 38.0213C73.1753 38.0213 73.175 38.0212 73.1745 38.0211C73.1738 38.021 73.1721 38.0207 73.1697 38.0202C73.1677 38.0198 73.1626 38.0188 73.156 38.0174C73.1558 38.0174 73.1311 38.0124 73.1005 38.0049L73.4783 36.4653L73.8561 34.9257C73.7863 34.9086 73.5699 34.8705 73.5001 34.8579C73.4161 34.8428 73.2192 34.807 73.1582 34.7991L72.9556 36.3714Z" fill="url(#paint1_linear_118_1863)" mask="url(#path-3-outside-1_118_1863)"/>
</g>
<path d="M76.5593 53.4781C76.2684 51.5629 75.4662 49.5608 74.5205 48.0061C74.4535 47.896 74.0497 47.0544 73.9854 46.6531C73.9322 46.353 73.9274 46.0488 73.9712 45.7502C74.1224 44.8166 75.0863 44.0985 75.1697 44.0234C75.211 43.997 75.2518 43.9699 75.2919 43.9422C75.9681 43.4729 76.4802 42.8341 76.7694 42.099C77.0587 41.3639 77.1134 40.5623 76.9272 39.7862C76.7411 39.01 76.3217 38.2907 75.7171 37.7108C75.1126 37.1308 74.3473 36.7137 73.509 36.5072C73.4979 36.5045 73.0004 36.4152 72.9861 36.4135C72.1291 36.316 71.2671 36.4409 70.4988 36.774C69.7305 37.1071 69.087 37.6349 68.6419 38.2969C68.1969 38.959 67.9683 39.7286 67.9823 40.5176C67.9963 41.3065 68.2523 42.0831 68.7211 42.7582C68.749 42.7981 68.7777 42.8377 68.8072 42.8769C68.8591 42.9764 69.5108 43.9856 69.3255 44.9131C69.262 45.2081 69.151 45.4914 68.9961 45.754C68.7953 46.1076 68.1223 46.7552 68.021 46.835C66.5906 47.9615 65.138 49.5573 64.1949 51.2501C62.5378 54.2242 62.6844 56.0044 62.6996 56.5267C62.6997 56.5278 62.6996 56.5288 62.6997 56.5297C62.6115 57.8847 65.2433 59.4579 68.7414 60.1366L68.7414 60.1366C68.748 60.1379 68.7545 60.1392 68.761 60.1404C68.7683 60.1418 68.7757 60.1432 68.783 60.1446C68.8357 60.1548 68.8885 60.165 68.9416 60.1746L68.9417 60.1746L68.9425 60.1748C68.9441 60.1751 68.9458 60.1754 68.9474 60.1757C68.9531 60.1767 68.9588 60.1777 68.9645 60.1786C68.9701 60.1797 68.9758 60.1808 68.9815 60.1818C68.9831 60.1821 68.9848 60.1824 68.9864 60.1827L68.9872 60.1828L68.9873 60.1828C69.0405 60.1924 69.0934 60.2013 69.1464 60.2101C69.1538 60.2114 69.1611 60.2126 69.1685 60.2138C69.175 60.2149 69.1816 60.216 69.1882 60.2171L69.1882 60.2171C72.7032 60.8021 75.7198 60.2467 76.1116 58.9464C76.112 58.9457 76.1122 58.9446 76.1127 58.9436C76.3099 58.4596 77.0705 56.8429 76.5593 53.4781Z" fill="url(#paint2_linear_118_1863)"/>
<path d="M75.7943 53.1475C75.566 51.2907 74.885 49.3575 74.0695 47.8614C74.0117 47.7554 73.6664 46.9438 73.6156 46.5547C73.573 46.2624 73.5735 45.9673 73.6171 45.6775C73.7659 44.7678 74.6332 44.0549 74.7084 43.9806C74.7455 43.9543 74.7822 43.9274 74.8183 43.8998C75.5965 43.3026 76.1641 42.4239 76.3526 41.381C76.7239 39.327 75.5112 37.4652 73.5723 36.8678C73.431 36.8251 73.2876 36.7893 73.1426 36.7605C73.0075 36.7368 72.7891 36.7162 72.7122 36.7116C70.6827 36.5895 68.7309 37.8833 68.359 39.9406C68.1705 40.9835 68.4817 42.0206 69.0017 42.8517C69.0258 42.8901 69.0507 42.9281 69.0763 42.9658C69.1208 43.0616 69.6837 44.0322 69.5047 44.9365C69.444 45.2232 69.3412 45.4998 69.199 45.7589C69.0151 46.1056 68.4074 46.7455 68.3162 46.8247C67.0283 47.9418 65.7133 49.5154 64.8493 51.1753C63.3312 54.0915 63.4335 55.8193 63.4388 56.3266C63.4389 56.3277 63.4387 56.3287 63.4388 56.3295C63.3393 57.6477 65.6518 59.1356 68.7476 59.7405L68.7476 59.7406C68.7534 59.7417 68.7591 59.7429 68.7649 59.744C68.7714 59.7452 68.7779 59.7465 68.7844 59.7477C68.831 59.7568 68.8777 59.7658 68.9247 59.7744L68.9248 59.7744L68.9255 59.7745C68.927 59.7748 68.9284 59.7751 68.9299 59.7753C68.9349 59.7762 68.94 59.7771 68.945 59.7779C68.95 59.7789 68.955 59.7799 68.96 59.7808C68.9615 59.781 68.963 59.7813 68.9644 59.7815L68.9651 59.7817L68.9652 59.7817C69.0123 59.7901 69.0591 59.7979 69.1061 59.8057C69.1126 59.8068 69.1191 59.8079 69.1256 59.809C69.1314 59.8099 69.1372 59.8109 69.143 59.8119L69.143 59.8118C72.2553 60.3255 74.9429 59.7386 75.3112 58.4688C75.3116 58.4681 75.3117 58.4671 75.3122 58.4661C75.4948 57.9927 76.1956 56.4096 75.7943 53.1475Z" fill="url(#paint3_linear_118_1863)"/>
<g style="mix-blend-mode:overlay">
<path d="M75.8447 53.1394C75.6164 51.2827 74.9353 49.3494 74.1199 47.8533C74.0621 47.7473 73.7168 46.9357 73.6659 46.5467C73.6234 46.2543 73.6239 45.9592 73.6674 45.6695C73.8163 44.7597 74.6835 44.0468 74.7588 43.9726C74.7959 43.9462 74.8325 43.9193 74.8686 43.8917C75.6469 43.2945 76.2145 42.4158 76.403 41.3729C76.789 39.2377 75.4446 37.1926 73.3723 36.6865L73.3732 36.6815C73.3244 36.6708 73.2756 36.661 73.226 36.652C73.2093 36.649 73.1926 36.6465 73.1758 36.6437C73.1592 36.6404 73.1427 36.637 73.1259 36.634C73.0764 36.6251 73.0271 36.6173 72.9777 36.6102L72.9768 36.6153C70.858 36.3661 68.8824 37.813 68.4964 39.9482C68.3079 40.9911 68.532 42.0125 69.0521 42.8436C69.0762 42.882 69.101 42.92 69.1267 42.9577C69.1712 43.0535 69.7341 44.0242 69.555 44.9285C69.4944 45.2151 69.3915 45.4917 69.2493 45.7508C69.0655 46.0976 68.4577 46.7375 68.3665 46.8166C67.0786 47.9337 65.7637 49.5073 64.8997 51.1672C63.3815 54.0834 63.4838 55.8112 63.4892 56.3185C63.4893 56.3196 63.4891 56.3206 63.4892 56.3214C63.3896 57.6397 65.7021 59.1275 68.7979 59.7325L68.7979 59.7325C68.8037 59.7337 68.8095 59.7348 68.8153 59.7359C68.8218 59.7372 68.8282 59.7384 68.8347 59.7397C68.8814 59.7487 68.928 59.7578 68.9751 59.7663L68.9752 59.7664L68.9759 59.7664C68.9773 59.7667 68.9788 59.767 68.9802 59.7673C68.9853 59.7682 68.9903 59.769 68.9953 59.7699C69.0004 59.7708 69.0054 59.7718 69.0104 59.7727C69.0119 59.773 69.0133 59.7732 69.0148 59.7735L69.0154 59.7736L69.0156 59.7736C69.0626 59.782 69.1095 59.7898 69.1564 59.7976C69.1629 59.7987 69.1694 59.7998 69.1759 59.8009C69.1817 59.8019 69.1876 59.8028 69.1934 59.8038L69.1934 59.8037C72.3057 60.3174 74.9932 59.7306 75.3615 58.4608C75.3619 58.46 75.3621 58.459 75.3625 58.458C75.5452 57.9846 76.246 56.4015 75.8447 53.1394Z" fill="url(#paint4_radial_118_1863)"/>
</g>
<path d="M75.845 53.1374C75.6167 51.2807 74.9357 49.3474 74.1202 47.8513C74.0624 47.7453 73.7171 46.9337 73.6662 46.5447C73.6237 46.2523 73.6242 45.9572 73.6677 45.6675C73.8166 44.7577 74.6839 44.0448 74.7591 43.9705C74.7962 43.9442 74.8328 43.9173 74.8689 43.8897C75.6472 43.2925 76.2148 42.4138 76.4033 41.3709C76.7859 39.2541 75.468 37.226 73.4262 36.698C73.4083 36.6934 72.9542 36.6106 72.9427 36.6094C70.837 36.3798 68.8806 37.8225 68.4967 39.9462C68.3082 40.9891 68.5323 42.0105 69.0524 42.8416C69.0765 42.88 69.1013 42.918 69.127 42.9557C69.1715 43.0515 69.7344 44.0222 69.5554 44.9265C69.4947 45.2131 69.3919 45.4897 69.2496 45.7488C69.0658 46.0956 68.4581 46.7355 68.3668 46.8146C67.0789 47.9317 65.764 49.5053 64.9 51.1652C63.3818 54.0814 63.4841 55.8092 63.4895 56.3165C63.4896 56.3176 63.4894 56.3186 63.4895 56.3194C63.39 57.6377 65.7024 59.1255 68.7982 59.7305L68.7982 59.7305C68.804 59.7317 68.8098 59.7328 68.8156 59.7339C68.8221 59.7352 68.8285 59.7364 68.835 59.7377C68.8817 59.7467 68.9284 59.7558 68.9754 59.7643L68.9755 59.7644L68.9762 59.7644C68.9776 59.7647 68.9791 59.765 68.9805 59.7653C68.9856 59.7662 68.9906 59.767 68.9956 59.7679C69.0007 59.7688 69.0057 59.7698 69.0107 59.7707C69.0122 59.771 69.0136 59.7712 69.0151 59.7715L69.0157 59.7716L69.0159 59.7716C69.0629 59.78 69.1098 59.7878 69.1567 59.7956C69.1632 59.7967 69.1697 59.7978 69.1762 59.7989C69.1821 59.7999 69.1879 59.8008 69.1937 59.8018L69.1937 59.8017C72.306 60.3154 74.9935 59.7286 75.3618 58.4588C75.3622 58.458 75.3624 58.457 75.3628 58.456C75.5455 57.9826 76.2463 56.3995 75.845 53.1374Z" fill="url(#paint5_radial_118_1863)"/>
<path d="M74.8091 57.9827C74.809 57.9836 74.8088 57.9845 74.8084 57.9853C74.475 59.1243 72.009 59.6412 69.1485 59.168L69.1485 59.1682L69.1325 59.1653C69.1266 59.1645 69.1207 59.1634 69.1146 59.1623C69.0715 59.1553 69.0285 59.148 68.9853 59.1402L68.9479 59.1335C68.9047 59.1257 68.8619 59.1175 68.8191 59.1091C68.8129 59.108 68.8071 59.1069 68.8013 59.1056L68.7852 59.1027L68.7853 59.1025C65.9396 58.5476 63.8102 57.2025 63.8966 56.019C63.8968 56.0182 63.8969 56.0173 63.8968 56.0164C63.895 55.8864 63.8853 55.667 63.9047 55.3587C65.3311 56.804 67.0207 57.6178 68.7402 57.5129C71.5082 57.344 74.0305 54.7913 74.8063 51.2523C75.0012 51.8951 75.1435 52.5489 75.2319 53.2082C75.6128 56.1392 74.9751 57.5584 74.8091 57.9827Z" fill="url(#paint6_linear_118_1863)"/>
<g style="mix-blend-mode:overlay">
<path d="M68.9771 40.1504C69.0588 39.6984 69.2374 39.2685 69.5026 38.8851C69.7679 38.5017 70.1146 38.1723 70.5231 37.9159C70.9315 37.6595 71.3936 37.481 71.883 37.3905C72.3724 37.3001 72.8795 37.2996 73.3754 37.3889" stroke="#FFF8B1" stroke-width="0.760588" stroke-linecap="round" stroke-linejoin="round"/>
</g>
<path d="M64.2022 55.3314C64.8578 51.7051 66.7457 48.7661 68.6873 47.391" stroke="#FAEE88" stroke-width="0.581626" stroke-linecap="round" stroke-linejoin="round"/>
<path d="M74.6293 44.1703C74.6664 44.1439 74.703 44.117 74.7391 44.0894C75.5173 43.4922 76.0849 42.6135 76.2735 41.5707C76.6448 39.5166 75.432 37.6549 73.4932 37.0574C73.3518 37.0148 73.2084 36.979 73.0634 36.9502C72.9283 36.9264 72.7099 36.9059 72.6331 36.9012C70.6035 36.7791 68.6518 38.0729 68.2799 40.1303C68.0913 41.1731 68.4025 42.2102 68.9226 43.0413C68.9467 43.0797 68.9715 43.1177 68.9972 43.1554C69.0384 43.2442 69.5245 44.0844 69.453 44.9268C69.5286 44.9427 69.6047 44.958 69.6814 44.9718C71.1971 45.2449 73.0195 44.9074 74.5758 44.2191C74.602 44.1953 74.6208 44.1786 74.6293 44.1703Z" fill="url(#paint7_linear_118_1863)"/>
<path d="M70.9521 40.5772C71.2684 40.6342 71.597 40.2807 71.6861 39.7877C71.7752 39.2947 71.5911 38.8489 71.2749 38.7919C70.9586 38.7349 70.63 39.0884 70.5409 39.5814C70.4518 40.0744 70.6359 40.5202 70.9521 40.5772Z" fill="#F7EA69"/>
<path d="M70.9708 40.4739C71.287 40.5309 71.6156 40.1775 71.7047 39.6845C71.7938 39.1915 71.6097 38.7456 71.2935 38.6886C70.9772 38.6316 70.6486 38.9851 70.5595 39.4781C70.4704 39.9711 70.6545 40.4169 70.9708 40.4739Z" fill="#F28422"/>
<path d="M71.2935 38.6886C70.9772 38.6316 70.6486 38.9851 70.5595 39.4781C70.5543 39.5072 70.55 39.5362 70.5466 39.5649C70.6563 39.1175 70.9647 38.8077 71.2623 38.8613C71.5598 38.9149 71.7403 39.3128 71.6864 39.7703C71.6933 39.7422 71.6995 39.7136 71.7047 39.6845C71.7938 39.1915 71.6097 38.7456 71.2935 38.6886Z" fill="#C45C00"/>
<path d="M74.0937 41.1432C74.4099 41.2002 74.7385 40.8468 74.8277 40.3538C74.9168 39.8608 74.7327 39.4149 74.4164 39.3579C74.1002 39.301 73.7716 39.6544 73.6824 40.1474C73.5933 40.6404 73.7774 41.0863 74.0937 41.1432Z" fill="#F7EA69"/>
<path d="M74.1123 41.04C74.4285 41.097 74.7572 40.7435 74.8463 40.2505C74.9354 39.7575 74.7513 39.3117 74.435 39.2547C74.1188 39.1977 73.7902 39.5511 73.7011 40.0441C73.6119 40.5371 73.7961 40.983 74.1123 41.04Z" fill="#F28422"/>
<path d="M74.435 39.2547C74.1188 39.1977 73.7902 39.5511 73.7011 40.0441C73.6958 40.0733 73.6916 40.1022 73.6882 40.131C73.7978 39.6835 74.1063 39.3737 74.4038 39.4274C74.7014 39.481 74.8819 39.8789 74.8279 40.3364C74.8348 40.3083 74.841 40.2796 74.8463 40.2505C74.9354 39.7575 74.7513 39.3117 74.435 39.2547Z" fill="#C45C00"/>
<path d="M73.576 42.2854C73.1967 42.5236 72.7247 42.6108 72.2641 42.5278C71.8035 42.4448 71.3919 42.1984 71.1198 41.8428" stroke="#F7EA6B" stroke-width="0.98429" stroke-linecap="round" stroke-linejoin="round"/>
<path d="M73.592 42.222C73.2126 42.4602 72.7407 42.5474 72.2801 42.4644C71.8195 42.3814 71.4079 42.135 71.1358 41.7794" stroke="#F28422" stroke-width="0.98429" stroke-linecap="round" stroke-linejoin="round"/>
<path d="M71.0018 41.6929C71.047 41.6645 71.1032 41.6541 71.1581 41.664C71.213 41.6739 71.262 41.7032 71.2945 41.7456C71.4131 41.9007 71.5632 42.0338 71.7361 42.1373C71.9091 42.2408 72.1015 42.3128 72.3024 42.349C72.5033 42.3852 72.7088 42.3849 72.9071 42.3483C73.1054 42.3117 73.2926 42.2393 73.458 42.1355C73.4804 42.1214 73.5057 42.1116 73.5326 42.1067C73.5594 42.1017 73.5872 42.1017 73.6144 42.1066C73.6415 42.1115 73.6676 42.1212 73.691 42.1352C73.7143 42.1492 73.7346 42.1672 73.7507 42.1882C73.7753 42.2204 73.7897 42.2928 73.7897 42.2929L73.7897 42.2929C73.8061 42.2548 73.8084 42.2125 73.7963 42.1722C73.7843 42.132 73.7585 42.096 73.7227 42.0696C73.687 42.0431 73.6433 42.0278 73.5982 42.0257C73.553 42.0236 73.5088 42.0349 73.472 42.058C73.3066 42.1619 73.1194 42.2342 72.9211 42.2708C72.7228 42.3075 72.5173 42.3077 72.3164 42.2715C72.1155 42.2353 71.9231 42.1634 71.7501 42.0598C71.5772 41.9563 71.4271 41.8232 71.3085 41.6681C71.2822 41.6337 71.2447 41.6076 71.2016 41.5938C71.1586 41.58 71.1122 41.5792 71.0695 41.5915C71.0268 41.6038 70.99 41.6285 70.9646 41.662C70.9392 41.6955 70.9266 41.736 70.9286 41.7774C70.9432 41.743 70.9687 41.7136 71.0018 41.6929V41.6929Z" fill="#C45C00"/>
<path opacity="0.4" d="M76.5446 52.7964C74.625 54.4183 72.2038 55.2053 69.7606 54.7651C67.5119 54.3599 65.6448 52.9873 64.4023 51.0644C64.3684 51.1228 64.3351 51.1813 64.3023 51.2399C62.6452 54.214 62.7918 55.9942 62.807 56.5164C62.8071 56.5175 62.8069 56.5186 62.8071 56.5194C62.7189 57.8744 65.3507 59.4476 68.8488 60.1263L68.8488 60.1264C68.8553 60.1276 68.8619 60.1289 68.8684 60.1302C68.8757 60.1316 68.883 60.133 68.8904 60.1344C68.9431 60.1446 68.9958 60.1547 69.0489 60.1643L69.0491 60.1644L69.0499 60.1645C69.0515 60.1648 69.0532 60.1651 69.0548 60.1654C69.0605 60.1664 69.0662 60.1674 69.0718 60.1684C69.0775 60.1694 69.0832 60.1705 69.0889 60.1716C69.0905 60.1719 69.0922 60.1721 69.0938 60.1724L69.0946 60.1726L69.0947 60.1726C69.1479 60.1821 69.2008 60.191 69.2538 60.1999C69.2611 60.2011 69.2685 60.2024 69.2758 60.2036C69.2824 60.2047 69.289 60.2058 69.2955 60.2069L69.2956 60.2068C72.8106 60.7919 75.8272 60.2365 76.219 58.9362C76.2194 58.9354 76.2196 58.9344 76.2201 58.9334C76.4172 58.4494 77.1779 56.8327 76.6666 53.4679C76.6328 53.2449 76.5921 53.0211 76.5446 52.7964Z" fill="url(#paint8_linear_118_1863)"/>
<path d="M68.0074 53.8576C67.2969 52.5131 66.1902 51.2427 65.0952 50.3437C65.0177 50.28 64.5039 49.764 64.3526 49.4832C64.2357 49.2746 64.153 49.0498 64.1073 48.8161C63.9749 48.0812 64.4921 47.2862 64.5335 47.2078C64.5568 47.177 64.5795 47.1458 64.6017 47.1143C64.9734 46.5822 65.1813 45.9686 65.2013 45.3439C65.2214 44.7192 65.0528 44.1087 64.715 43.5823C64.3773 43.056 63.8839 42.6351 63.2915 42.368C62.6991 42.1009 62.0317 41.9984 61.3658 42.0722C61.357 42.0732 60.9704 42.1417 60.9596 42.1443C60.3083 42.3042 59.7112 42.6308 59.2368 43.0866C58.7623 43.5424 58.4296 44.1091 58.2768 44.7218C58.1239 45.3345 58.1571 45.9684 58.3726 46.551C58.588 47.1335 58.977 47.6412 59.4949 48.0158C59.5256 48.038 59.5569 48.0596 59.5887 48.0807C59.6524 48.1406 60.3908 48.7139 60.4968 49.4535C60.5271 49.6899 60.5197 49.9306 60.4749 50.1677C60.4202 50.4849 60.0972 51.1486 60.0439 51.2354C59.2923 52.4604 58.6464 54.0402 58.398 55.554C57.9613 58.2135 58.5313 59.4967 58.6783 59.8807C58.6786 59.8815 58.6788 59.8824 58.6791 59.8829C58.9671 60.9139 61.2983 61.3695 64.0296 60.9255L64.0296 60.9256C64.0347 60.9247 64.0398 60.9239 64.0449 60.9231C64.0506 60.9221 64.0564 60.9212 64.0621 60.9202C64.1032 60.9135 64.1444 60.9068 64.1857 60.8995L64.1858 60.8995L64.1864 60.8994C64.1877 60.8992 64.1889 60.899 64.1902 60.8987C64.1946 60.898 64.199 60.8971 64.2034 60.8963C64.2079 60.8956 64.2123 60.8948 64.2167 60.8941C64.218 60.8938 64.2193 60.8936 64.2205 60.8934L64.2211 60.8933L64.2212 60.8932C64.2625 60.8859 64.3035 60.8782 64.3445 60.8704C64.3502 60.8693 64.3559 60.8682 64.3616 60.8672C64.3667 60.8662 64.3717 60.8652 64.3768 60.8643L64.3768 60.8642C67.0961 60.346 69.1547 59.1154 69.1027 58.0429C69.1028 58.0422 69.1027 58.0414 69.1028 58.0405C69.1209 57.6274 69.2559 56.2196 68.0074 53.8576Z" fill="url(#paint9_linear_118_1863)"/>
<path d="M67.3626 53.8187C66.713 52.5007 65.7128 51.2486 64.7281 50.3578C64.6584 50.2947 64.1951 49.7852 64.0567 49.5098C63.9496 49.3041 63.8733 49.0847 63.8297 48.8575C63.7018 48.1411 64.1498 47.3761 64.1854 47.3005C64.2057 47.2709 64.2254 47.241 64.2446 47.2107C64.6576 46.5559 64.8436 45.7489 64.7101 44.9228C64.447 43.2956 63.0771 42.2408 61.5057 42.3224C61.3914 42.3291 61.2773 42.3414 61.164 42.3593C61.0592 42.3782 60.8943 42.4222 60.8369 42.4396C59.323 42.899 58.2341 44.3897 58.4975 46.0195C58.6311 46.8456 59.1281 47.532 59.724 48.0087C59.7516 48.0307 59.7797 48.0522 59.8082 48.0732C59.8656 48.1324 60.5292 48.7011 60.6336 49.4217C60.6639 49.6512 60.6607 49.8847 60.6242 50.1158C60.5801 50.4233 60.3027 51.0636 60.2567 51.1472C59.6066 52.3265 59.0556 53.8525 58.8563 55.3203C58.506 57.8992 59.0301 59.1555 59.166 59.5311C59.1663 59.5319 59.1664 59.5327 59.1667 59.5333C59.4369 60.5399 61.5127 61.0187 63.931 60.629L63.931 60.629C63.9355 60.6283 63.94 60.6276 63.9445 60.6268C63.9496 60.626 63.9547 60.6252 63.9597 60.6244C63.9962 60.6184 64.0326 60.6125 64.0691 60.6061L64.0693 60.6061L64.0698 60.606C64.0709 60.6058 64.072 60.6056 64.0732 60.6054C64.0771 60.6047 64.081 60.604 64.0849 60.6032C64.0888 60.6026 64.0927 60.602 64.0966 60.6013C64.0978 60.6011 64.0989 60.6009 64.1 60.6007L64.1005 60.6006L64.1006 60.6005C64.1372 60.594 64.1734 60.5871 64.2097 60.5802C64.2148 60.5793 64.2198 60.5783 64.2248 60.5774C64.2293 60.5765 64.2338 60.5756 64.2383 60.5748L64.2383 60.5747C66.6449 60.1127 68.455 58.9479 68.3938 57.9044C68.3939 57.9038 68.3937 57.9029 68.3938 57.9021C68.4041 57.5007 68.5041 56.1342 67.3626 53.8187Z" fill="url(#paint10_linear_118_1863)"/>
<g style="mix-blend-mode:overlay">
<path d="M67.3972 53.7996C66.7475 52.4816 65.7474 51.2295 64.7627 50.3387C64.6929 50.2756 64.2296 49.7661 64.0913 49.4907C63.9842 49.285 63.9078 49.0656 63.8642 48.8384C63.7364 48.122 64.1843 47.357 64.22 47.2814C64.2402 47.2518 64.2599 47.2219 64.2791 47.1916C64.6922 46.5368 64.8782 45.7298 64.7446 44.9037C64.4712 43.2122 62.9575 42.0568 61.3124 42.2425L61.3117 42.2385C61.2733 42.2438 61.2351 42.2498 61.1966 42.2566C61.1836 42.2589 61.1707 42.2615 61.1578 42.2639C61.1448 42.2661 61.1318 42.268 61.1188 42.2703C61.0803 42.2771 61.0423 42.2846 61.0044 42.2928L61.005 42.2968C59.3928 42.6861 58.3263 44.2969 58.5997 45.9885C58.7333 46.8146 59.1626 47.5129 59.7586 47.9896C59.7862 48.0116 59.8142 48.0331 59.8427 48.0541C59.9002 48.1133 60.5637 48.682 60.6682 49.4026C60.6984 49.6321 60.6953 49.8656 60.6588 50.0967C60.6147 50.4042 60.3373 51.0445 60.2912 51.1281C59.6412 52.3074 59.0901 53.8334 58.8908 55.3012C58.5406 57.8801 59.0646 59.1364 59.2005 59.512C59.2008 59.5128 59.201 59.5136 59.2013 59.5142C59.4714 60.5208 61.5472 60.9996 63.9655 60.6099L63.9655 60.6099C63.9701 60.6092 63.9746 60.6085 63.9791 60.6077C63.9842 60.6069 63.9892 60.6061 63.9943 60.6053C64.0307 60.5993 64.0671 60.5934 64.1037 60.587L64.1038 60.587L64.1043 60.5869C64.1055 60.5867 64.1066 60.5865 64.1077 60.5863C64.1116 60.5856 64.1155 60.5849 64.1194 60.5841C64.1234 60.5835 64.1273 60.5829 64.1312 60.5822C64.1323 60.582 64.1334 60.5817 64.1346 60.5815L64.1351 60.5815L64.1352 60.5814C64.1717 60.5749 64.208 60.568 64.2443 60.5611C64.2493 60.5602 64.2544 60.5592 64.2594 60.5582C64.2639 60.5574 64.2684 60.5565 64.2729 60.5557L64.2729 60.5556C66.6795 60.0936 68.4896 58.9288 68.4283 57.8853C68.4284 57.8847 68.4283 57.8838 68.4284 57.883C68.4386 57.4816 68.5387 56.1151 67.3972 53.7996Z" fill="url(#paint11_radial_118_1863)"/>
</g>
<path d="M67.397 53.7977C66.7473 52.4797 65.7471 51.2276 64.7624 50.3368C64.6927 50.2737 64.2294 49.7641 64.0911 49.4888C63.984 49.2831 63.9076 49.0636 63.864 48.8365C63.7362 48.1201 64.1841 47.3551 64.2197 47.2795C64.24 47.2499 64.2597 47.2199 64.2789 47.1897C64.692 46.5349 64.878 45.7279 64.7444 44.9018C64.4733 43.2249 62.9833 42.0749 61.3548 42.2361C61.3406 42.2375 60.9874 42.2991 60.9787 42.3013C59.3811 42.7016 58.3275 44.3042 58.5995 45.9865C58.7331 46.8127 59.1624 47.511 59.7584 47.9877C59.786 48.0097 59.814 48.0312 59.8425 48.0522C59.8999 48.1114 60.5635 48.6801 60.6679 49.4007C60.6982 49.6302 60.695 49.8637 60.6585 50.0948C60.6145 50.4023 60.3371 51.0426 60.291 51.1262C59.641 52.3055 59.0899 53.8315 58.8906 55.2993C58.5404 57.8782 59.0644 59.1345 59.2003 59.5101C59.2006 59.5108 59.2008 59.5117 59.2011 59.5122C59.4712 60.5189 61.547 60.9977 63.9653 60.608L63.9653 60.608C63.9698 60.6073 63.9744 60.6065 63.9789 60.6058C63.9839 60.605 63.989 60.6042 63.994 60.6033C64.0305 60.5974 64.0669 60.5915 64.1035 60.5851L64.1036 60.5851L64.1041 60.585C64.1052 60.5848 64.1064 60.5846 64.1075 60.5844C64.1114 60.5837 64.1153 60.583 64.1192 60.5822C64.1231 60.5816 64.127 60.5809 64.1309 60.5803C64.1321 60.5801 64.1332 60.5798 64.1343 60.5796L64.1349 60.5796L64.135 60.5795C64.1715 60.573 64.2078 60.5661 64.2441 60.5592C64.2491 60.5583 64.2541 60.5573 64.2592 60.5563C64.2637 60.5555 64.2682 60.5546 64.2727 60.5538L64.2727 60.5537C66.6793 60.0917 68.4894 58.9269 68.4281 57.8834C68.4282 57.8827 68.4281 57.8819 68.4281 57.8811C68.4384 57.4797 68.5385 56.1132 67.397 53.7977Z" fill="url(#paint12_radial_118_1863)"/>
<g style="mix-blend-mode:overlay">
<path d="M59.0034 46.0083C58.9455 45.6502 58.9641 45.2822 59.0581 44.9254C59.1521 44.5685 59.3197 44.2298 59.5513 43.9285C59.7829 43.6272 60.0739 43.3692 60.4078 43.1694C60.7417 42.9695 61.112 42.8316 61.4974 42.7635" stroke="#FFF8B1" stroke-width="0.832954" stroke-linecap="round" stroke-linejoin="round"/>
</g>
<path d="M59.4646 58.5853C59.0002 55.7126 59.6146 53.0166 60.6749 51.4682" stroke="#FAEE88" stroke-width="0.636965" stroke-linecap="round" stroke-linejoin="round"/>
<path d="M64.1768 47.4635C64.1971 47.4339 64.2168 47.4039 64.236 47.3736C64.649 46.7188 64.835 45.9119 64.7015 45.0858C64.4384 43.4586 63.0685 42.4038 61.4971 42.4854C61.3828 42.492 61.2687 42.5043 61.1554 42.5222C61.0506 42.5412 60.8857 42.5851 60.8283 42.6025C59.3144 43.062 58.2255 44.5527 58.4889 46.1825C58.6225 47.0086 59.1195 47.695 59.7154 48.1717C59.743 48.1937 59.7711 48.2152 59.7996 48.2362C59.8528 48.291 60.4263 48.7837 60.5932 49.4291C60.6526 49.4204 60.7121 49.4111 60.7717 49.4006C61.9497 49.1927 63.1929 48.4477 64.1505 47.5143C64.1634 47.4895 64.1728 47.472 64.1768 47.4635Z" fill="url(#paint13_linear_118_1863)"/>
<path d="M60.5568 45.7902C60.8026 45.7468 60.9506 45.395 60.8875 45.0045C60.8243 44.6139 60.5739 44.3325 60.3281 44.3759C60.0824 44.4193 59.9343 44.7711 59.9974 45.1616C60.0606 45.5522 60.311 45.8336 60.5568 45.7902Z" fill="#F7EA69"/>
<path d="M60.5435 45.7083C60.7893 45.6649 60.9374 45.3131 60.8742 44.9226C60.8111 44.532 60.5607 44.2506 60.3149 44.294C60.0691 44.3374 59.9211 44.6892 59.9842 45.0797C60.0473 45.4702 60.2978 45.7517 60.5435 45.7083Z" fill="#F28422"/>
<path d="M60.3149 44.294C60.0691 44.3374 59.9211 44.6892 59.9842 45.0797C59.9879 45.1028 59.9924 45.1255 59.9974 45.1477C59.9611 44.7855 60.1058 44.4716 60.337 44.4308C60.5683 44.39 60.8036 44.6367 60.8832 44.9914C60.8809 44.9686 60.878 44.9457 60.8742 44.9226C60.8111 44.532 60.5607 44.2506 60.3149 44.294Z" fill="#C45C00"/>
<path d="M62.9984 45.3587C63.2442 45.3153 63.3923 44.9635 63.3291 44.573C63.266 44.1824 63.0156 43.901 62.7698 43.9444C62.524 43.9878 62.376 44.3395 62.4391 44.7301C62.5022 45.1206 62.7526 45.4021 62.9984 45.3587Z" fill="#F7EA69"/>
<path d="M62.9852 45.2774C63.231 45.234 63.379 44.8822 63.3159 44.4917C63.2527 44.1011 63.0023 43.8197 62.7565 43.8631C62.5108 43.9065 62.3627 44.2582 62.4258 44.6488C62.489 45.0393 62.7394 45.3208 62.9852 45.2774Z" fill="#F28422"/>
<path d="M62.7565 43.8631C62.5108 43.9065 62.3627 44.2582 62.4258 44.6488C62.4296 44.6719 62.434 44.6945 62.439 44.7168C62.4027 44.3546 62.5474 44.0407 62.7787 43.9999C63.0099 43.9591 63.2452 44.2058 63.3248 44.5605C63.3225 44.5377 63.3196 44.5148 63.3159 44.4917C63.2527 44.1011 63.0023 43.8197 62.7565 43.8631Z" fill="#C45C00"/>
<path d="M62.9295 46.3207C62.7212 46.6703 62.3997 46.9028 62.0356 46.967C61.6715 47.0313 61.2947 46.9221 60.9881 46.6635" stroke="#F7EA6B" stroke-width="0.903517" stroke-linecap="round" stroke-linejoin="round"/>
<path d="M62.9225 46.2549C62.7143 46.6045 62.3927 46.837 62.0286 46.9012C61.6645 46.9655 61.2877 46.8563 60.9811 46.5977" stroke="#F28422" stroke-width="0.903517" stroke-linecap="round" stroke-linejoin="round"/>
<path d="M60.8565 46.5556C60.8813 46.514 60.9196 46.4863 60.963 46.4786C61.0064 46.471 61.0513 46.484 61.0878 46.5148C61.2216 46.6276 61.3719 46.7093 61.5302 46.7552C61.6885 46.801 61.8517 46.8102 62.0105 46.7822C62.1693 46.7542 62.3206 46.6895 62.4557 46.5918C62.5908 46.4941 62.7071 46.3654 62.7979 46.2129C62.8102 46.1923 62.8259 46.1749 62.8442 46.1617C62.8625 46.1484 62.8829 46.1397 62.9044 46.1359C62.9259 46.1321 62.948 46.1334 62.9694 46.1396C62.9908 46.1458 63.0111 46.1568 63.0292 46.1721C63.057 46.1955 63.0892 46.2611 63.0892 46.2611L63.0892 46.2612C63.0899 46.2192 63.079 46.1775 63.0581 46.1423C63.0372 46.1072 63.0074 46.0804 62.9732 46.0661C62.939 46.0517 62.9022 46.0505 62.8683 46.0627C62.8344 46.0749 62.8052 46.0997 62.7851 46.1336C62.6942 46.286 62.5779 46.4148 62.4428 46.5124C62.3077 46.6101 62.1565 46.6748 61.9977 46.7028C61.8389 46.7309 61.6757 46.7217 61.5173 46.6758C61.359 46.6299 61.2087 46.5482 61.075 46.4354C61.0453 46.4104 61.0099 46.3969 60.9741 46.3971C60.9383 46.3972 60.9039 46.411 60.8761 46.4363C60.8483 46.4616 60.8286 46.497 60.8199 46.5374C60.8112 46.5778 60.814 46.6209 60.8278 46.6604C60.8284 46.6225 60.8383 46.5861 60.8565 46.5556V46.5556Z" fill="#C45C00"/>
<path d="M95.6395 52.61C95.2361 52.61 94.8438 52.577 94.4625 52.511C94.0885 52.445 93.7438 52.3497 93.4285 52.225C93.1131 52.093 92.8345 51.9353 92.5925 51.752L93.0325 50.619C93.2745 50.7877 93.5311 50.9307 93.8025 51.048C94.0738 51.1653 94.3635 51.2533 94.6715 51.312C94.9795 51.3707 95.3021 51.4 95.6395 51.4C96.2115 51.4 96.6295 51.3047 96.8935 51.114C97.1648 50.9233 97.3005 50.6703 97.3005 50.355C97.3005 50.1863 97.2565 50.0433 97.1685 49.926C97.0878 49.8013 96.9558 49.6987 96.7725 49.618C96.5891 49.53 96.3471 49.4603 96.0465 49.409L94.8255 49.156C94.1215 49.0093 93.5971 48.76 93.2525 48.408C92.9151 48.056 92.7465 47.594 92.7465 47.022C92.7465 46.538 92.8748 46.12 93.1315 45.768C93.3955 45.4087 93.7585 45.13 94.2205 44.932C94.6825 44.734 95.2141 44.635 95.8155 44.635C96.1675 44.635 96.5085 44.6717 96.8385 44.745C97.1685 44.811 97.4691 44.91 97.7405 45.042C98.0191 45.174 98.2611 45.3317 98.4665 45.515L98.0265 46.604C97.7185 46.3473 97.3811 46.1567 97.0145 46.032C96.6478 45.9073 96.2445 45.845 95.8045 45.845C95.4671 45.845 95.1738 45.8927 94.9245 45.988C94.6825 46.076 94.4955 46.2043 94.3635 46.373C94.2315 46.5417 94.1655 46.7433 94.1655 46.978C94.1655 47.2347 94.2535 47.44 94.4295 47.594C94.6055 47.748 94.9061 47.869 95.3315 47.957L96.5525 48.199C97.2785 48.353 97.8211 48.5987 98.1805 48.936C98.5398 49.266 98.7195 49.706 98.7195 50.256C98.7195 50.7253 98.5911 51.136 98.3345 51.488C98.0851 51.84 97.7295 52.115 97.2675 52.313C96.8128 52.511 96.2701 52.61 95.6395 52.61ZM102.403 52.61C101.955 52.61 101.581 52.5293 101.281 52.368C100.987 52.1993 100.767 51.95 100.621 51.62C100.474 51.2827 100.401 50.8647 100.401 50.366V47.099H101.798V50.366C101.798 50.6153 101.831 50.8243 101.897 50.993C101.97 51.1617 102.08 51.29 102.227 51.378C102.373 51.4587 102.56 51.499 102.788 51.499C103.037 51.499 103.257 51.4403 103.448 51.323C103.638 51.2057 103.785 51.0443 103.888 50.839C103.998 50.6337 104.053 50.3917 104.053 50.113V47.099H105.461V52.5H104.108V51.378H104.229C104.067 51.774 103.829 52.0783 103.514 52.291C103.206 52.5037 102.835 52.61 102.403 52.61ZM107.517 52.5V47.099H108.859V48.408H108.771C108.881 47.968 109.087 47.6307 109.387 47.396C109.695 47.1613 110.095 47.0257 110.586 46.989L111.048 46.956L111.147 48.166L110.3 48.243C109.853 48.287 109.512 48.43 109.277 48.672C109.05 48.9067 108.936 49.2293 108.936 49.64V52.5H107.517ZM114.445 52.5L112.124 47.099H113.609L115.226 51.224H114.973L116.634 47.099H118.042L115.688 52.5H114.445ZM119.234 45.955V44.58H120.807V45.955H119.234ZM119.322 52.5V47.099H120.73V52.5H119.322ZM124.348 52.5L122.027 47.099H123.512L125.129 51.224H124.876L126.537 47.099H127.945L125.591 52.5H124.348ZM131.605 52.61C131.04 52.61 130.549 52.4963 130.131 52.269C129.72 52.0343 129.397 51.708 129.163 51.29C128.935 50.8647 128.822 50.366 128.822 49.794C128.822 49.222 128.935 48.727 129.163 48.309C129.397 47.8837 129.72 47.5573 130.131 47.33C130.549 47.1027 131.04 46.989 131.605 46.989C132.169 46.989 132.661 47.1027 133.079 47.33C133.497 47.5573 133.819 47.8837 134.047 48.309C134.274 48.727 134.388 49.222 134.388 49.794C134.388 50.366 134.274 50.8647 134.047 51.29C133.819 51.708 133.497 52.0343 133.079 52.269C132.661 52.4963 132.169 52.61 131.605 52.61ZM131.605 51.521C132.023 51.521 132.356 51.3743 132.606 51.081C132.862 50.7877 132.991 50.355 132.991 49.783C132.991 49.2183 132.862 48.793 132.606 48.507C132.356 48.2137 132.023 48.067 131.605 48.067C131.187 48.067 130.853 48.2137 130.604 48.507C130.354 48.793 130.23 49.2183 130.23 49.783C130.23 50.355 130.354 50.7877 130.604 51.081C130.853 51.3743 131.187 51.521 131.605 51.521ZM136.149 52.5V47.099H137.491V48.408H137.403C137.513 47.968 137.718 47.6307 138.019 47.396C138.327 47.1613 138.727 47.0257 139.218 46.989L139.68 46.956L139.779 48.166L138.932 48.243C138.485 48.287 138.144 48.43 137.909 48.672C137.682 48.9067 137.568 49.2293 137.568 49.64V52.5H136.149Z" fill="#202224"/>
<mask id="mask0_118_1863" style="mask-type:alpha" maskUnits="userSpaceOnUse" x="27" y="27" width="30" height="44">
<path d="M28.2632 34.49C28.2632 30.9057 31.1689 28 34.7532 28H43.772C50.6707 28 56.2632 33.5925 56.2632 40.4912V57.5088C56.2632 64.4075 50.6707 70 43.772 70H34.7532C31.1689 70 28.2632 67.0943 28.2632 63.51V34.49Z" fill="white" stroke="url(#paint14_linear_118_1863)" stroke-opacity="0.3" stroke-width="1.30158"/>
</mask>
<g mask="url(#mask0_118_1863)">
<rect x="27.2632" y="27.1923" width="14" height="43.6154" fill="#587ED7"/>
</g>
<defs>
<filter id="filter0_d_118_1863" x="0.560465" y="0.297343" width="215.168" height="104.168" filterUnits="userSpaceOnUse" color-interpolation-filters="sRGB">
<feFlood flood-opacity="0" result="BackgroundImageFix"/>
<feColorMatrix in="SourceAlpha" type="matrix" values="0 0 0 0 0 0 0 0 0 0 0 0 0 0 0 0 0 0 127 0" result="hardAlpha"/>
<feOffset dx="3.38149" dy="3.38149"/>
<feGaussianBlur stdDeviation="15.2167"/>
<feColorMatrix type="matrix" values="0 0 0 0 0 0 0 0 0 0 0 0 0 0 0 0 0 0 0.05 0"/>
<feBlend mode="normal" in2="BackgroundImageFix" result="effect1_dropShadow_118_1863"/>
<feBlend mode="normal" in="SourceGraphic" in2="effect1_dropShadow_118_1863" result="shape"/>
</filter>
<filter id="filter1_d_118_1863" x="56.6996" y="34.7539" width="21.8901" height="29.0312" filterUnits="userSpaceOnUse" color-interpolation-filters="sRGB">
<feFlood flood-opacity="0" result="BackgroundImageFix"/>
<feColorMatrix in="SourceAlpha" type="matrix" values="0 0 0 0 0 0 0 0 0 0 0 0 0 0 0 0 0 0 127 0" result="hardAlpha"/>
<feOffset dy="1.44116"/>
<feComposite in2="hardAlpha" operator="out"/>
<feColorMatrix type="matrix" values="0 0 0 0 0.0823333 0 0 0 0 0 0 0 0 0 0.316667 0 0 0 1 0"/>
<feBlend mode="normal" in2="BackgroundImageFix" result="effect1_dropShadow_118_1863"/>
<feBlend mode="normal" in="SourceGraphic" in2="effect1_dropShadow_118_1863" result="shape"/>
</filter>
<linearGradient id="paint0_linear_118_1863" x1="63.1505" y1="12.8299" x2="137.147" y2="98.6413" gradientUnits="userSpaceOnUse">
<stop stop-color="#F1F1F1"/>
<stop offset="1" stop-color="#E1E1E1"/>
</linearGradient>
<linearGradient id="paint1_linear_118_1863" x1="68.1906" y1="38.7781" x2="69.8103" y2="57.9" gradientUnits="userSpaceOnUse">
<stop stop-color="#995BFC"/>
<stop offset="0.510417" stop-color="#5E18D7"/>
<stop offset="1" stop-color="#5D0F72"/>
<stop offset="1" stop-color="#5E1072"/>
</linearGradient>
<linearGradient id="paint2_linear_118_1863" x1="71.5351" y1="62.1637" x2="69.5788" y2="35.7682" gradientUnits="userSpaceOnUse">
<stop stop-color="#DF3E00"/>
<stop offset="1" stop-color="#FFA100"/>
</linearGradient>
<linearGradient id="paint3_linear_118_1863" x1="71.5421" y1="61.6084" x2="69.6528" y2="36.1173" gradientUnits="userSpaceOnUse">
<stop stop-color="#FF8A00"/>
<stop offset="1" stop-color="#FFE600"/>
</linearGradient>
<radialGradient id="paint4_radial_118_1863" cx="0" cy="0" r="1" gradientUnits="userSpaceOnUse" gradientTransform="translate(71.8985 39.9712) rotate(10.2147) scale(6.47317 5.90094)">
<stop stop-color="white"/>
<stop offset="0.09619" stop-color="#FFED3B" stop-opacity="0.8"/>
<stop offset="0.71251" stop-color="#F6D146" stop-opacity="0"/>
<stop offset="1" stop-color="#F6D146" stop-opacity="0"/>
</radialGradient>
<radialGradient id="paint5_radial_118_1863" cx="0" cy="0" r="1" gradientUnits="userSpaceOnUse" gradientTransform="translate(69.5044 50.5843) rotate(10.2147) scale(10.679 9.80362)">
<stop stop-color="#FFE800"/>
<stop offset="0.71251" stop-color="#FFC900" stop-opacity="0"/>
</radialGradient>
<linearGradient id="paint6_linear_118_1863" x1="71.4585" y1="59.3212" x2="65.4952" y2="38.9739" gradientUnits="userSpaceOnUse">
<stop offset="0.00149" stop-color="#FF8A00"/>
<stop offset="0.71251" stop-color="#FFC900" stop-opacity="0"/>
</linearGradient>
<linearGradient id="paint7_linear_118_1863" x1="76.7683" y1="46.3105" x2="66.7661" y2="33.2797" gradientUnits="userSpaceOnUse">
<stop offset="0.00149" stop-color="#FF8A00"/>
<stop offset="0.71251" stop-color="#F6D146" stop-opacity="0"/>
</linearGradient>
<linearGradient id="paint8_linear_118_1863" x1="70.5008" y1="61.2694" x2="69.6906" y2="50.3374" gradientUnits="userSpaceOnUse">
<stop offset="0.00269" stop-color="#6F0100"/>
<stop offset="0.96044" stop-color="#FF9E00" stop-opacity="0.09"/>
</linearGradient>
<linearGradient id="paint9_linear_118_1863" x1="66.5971" y1="61.6746" x2="57.9217" y2="42.7636" gradientUnits="userSpaceOnUse">
<stop stop-color="#DF3E00"/>
<stop offset="1" stop-color="#FFA100"/>
</linearGradient>
<linearGradient id="paint10_linear_118_1863" x1="66.4577" y1="61.2595" x2="58.0795" y2="42.9965" gradientUnits="userSpaceOnUse">
<stop stop-color="#FF8A00"/>
<stop offset="1" stop-color="#FFE600"/>
</linearGradient>
<radialGradient id="paint11_radial_118_1863" cx="0" cy="0" r="1" gradientUnits="userSpaceOnUse" gradientTransform="translate(61.0904 45.0831) rotate(-10.0113) scale(5.02769 4.65931)">
<stop stop-color="white"/>
<stop offset="0.09619" stop-color="#FFED3B" stop-opacity="0.8"/>
<stop offset="0.71251" stop-color="#F6D146" stop-opacity="0"/>
<stop offset="1" stop-color="#F6D146" stop-opacity="0"/>
</radialGradient>
<radialGradient id="paint12_radial_118_1863" cx="0" cy="0" r="1" gradientUnits="userSpaceOnUse" gradientTransform="translate(62.1023 53.6193) rotate(-10.0113) scale(8.29436 7.74082)">
<stop stop-color="#FFE800"/>
<stop offset="0.71251" stop-color="#FFC900" stop-opacity="0"/>
</radialGradient>
<linearGradient id="paint13_linear_118_1863" x1="66.2957" y1="48.4741" x2="55.4984" y2="41.6655" gradientUnits="userSpaceOnUse">
<stop offset="0.00149" stop-color="#FF8A00"/>
<stop offset="0.71251" stop-color="#F6D146" stop-opacity="0"/>
</linearGradient>
<linearGradient id="paint14_linear_118_1863" x1="34.6478" y1="12.8299" x2="65.0326" y2="19.2783" gradientUnits="userSpaceOnUse">
<stop stop-color="#F1F1F1"/>
<stop offset="1" stop-color="#E1E1E1"/>
</linearGradient>
</defs>
</svg>
