<svg width="216" height="105" viewBox="0 0 216 105" fill="none" xmlns="http://www.w3.org/2000/svg">
<g filter="url(#filter0_d_118_1872)">
<rect x="28.2632" y="28" width="153" height="42" rx="6.49" fill="white"/>
<rect x="28.2632" y="28" width="153" height="42" rx="6.49" stroke="url(#paint0_linear_118_1872)" stroke-opacity="0.3" stroke-width="1.30158"/>
</g>
<g filter="url(#filter1_d_118_1872)">
<mask id="path-3-outside-1_118_1872" maskUnits="userSpaceOnUse" x="52.1055" y="35.8071" width="30" height="26" fill="black">
<rect fill="white" x="52.1055" y="35.8071" width="30" height="26"/>
<path d="M54.1143 40.407C54.0046 38.8711 59.3068 36.9697 60.6407 38.2039V40.4246L61.9327 38.4617C63.9131 39.1161 68.5459 40.4246 71.2325 40.4246C72.8565 40.4245 75.0138 39.9201 76.8497 39.1765C78.454 38.5267 80.7328 39.4011 80.5059 41.1169C79.6126 47.8664 76.9435 59.1472 76.4503 59.489C75.7786 59.954 72.6272 61.0909 67.461 59.2312C67.0477 58.5699 66.6681 58.1633 66.5303 58.0427L66.1006 57.9021L65.6524 57.3709L64.7745 58.6628C63.6374 58.2499 61.1886 57.6157 59.1465 57.8054L59.0909 58.657C59.0228 59.6864 58.2518 60.4506 57.2872 60.0847C56.7173 59.8685 56.1284 59.5808 55.6475 59.3269C54.9821 58.9757 54.5799 58.2896 54.5479 57.5378C54.4106 54.3044 54.057 45.3351 54.1378 40.7146C54.1185 40.6462 54.1076 40.5779 54.1055 40.5095C54.1062 40.4776 54.1139 40.4108 54.1143 40.407Z"/>
</mask>
<path d="M54.1143 40.407C54.0046 38.8711 59.3068 36.9697 60.6407 38.2039V40.4246L61.9327 38.4617C63.9131 39.1161 68.5459 40.4246 71.2325 40.4246C72.8565 40.4245 75.0138 39.9201 76.8497 39.1765C78.454 38.5267 80.7328 39.4011 80.5059 41.1169C79.6126 47.8664 76.9435 59.1472 76.4503 59.489C75.7786 59.954 72.6272 61.0909 67.461 59.2312C67.0477 58.5699 66.6681 58.1633 66.5303 58.0427L66.1006 57.9021L65.6524 57.3709L64.7745 58.6628C63.6374 58.2499 61.1886 57.6157 59.1465 57.8054L59.0909 58.657C59.0228 59.6864 58.2518 60.4506 57.2872 60.0847C56.7173 59.8685 56.1284 59.5808 55.6475 59.3269C54.9821 58.9757 54.5799 58.2896 54.5479 57.5378C54.4106 54.3044 54.057 45.3351 54.1378 40.7146C54.1185 40.6462 54.1076 40.5779 54.1055 40.5095C54.1062 40.4776 54.1139 40.4108 54.1143 40.407Z" fill="url(#paint1_linear_118_1872)"/>
<path d="M54.1143 40.407L55.5685 40.5777L55.5846 40.4405L55.5747 40.3027L54.1143 40.407ZM60.6407 38.2039H62.1048V37.5639L61.635 37.1292L60.6407 38.2039ZM60.6407 40.4246H59.1766V45.312L61.8637 41.2295L60.6407 40.4246ZM61.9327 38.4617L62.392 37.0715L61.3266 36.7194L60.7097 37.6567L61.9327 38.4617ZM71.2325 40.4246L71.2325 41.8887L71.2325 41.8887L71.2325 40.4246ZM76.8497 39.1765L77.3993 40.5335L77.3994 40.5335L76.8497 39.1765ZM80.5059 41.1169L81.9574 41.3091L81.9574 41.3089L80.5059 41.1169ZM76.4503 59.489L77.2836 60.6928L77.2843 60.6924L76.4503 59.489ZM67.461 59.2312L66.2194 60.0072L66.4881 60.4371L66.9651 60.6088L67.461 59.2312ZM66.5303 58.0427L67.4945 56.9409L67.2696 56.7441L66.9857 56.6512L66.5303 58.0427ZM66.1006 57.9021L64.9816 58.8463L65.2499 59.1642L65.6452 59.2936L66.1006 57.9021ZM65.6524 57.3709L66.7714 56.4267L65.5265 54.9512L64.4414 56.548L65.6524 57.3709ZM64.7745 58.6628L64.2747 60.039L65.3453 60.4278L65.9855 59.4857L64.7745 58.6628ZM59.1465 57.8054L59.0111 56.3476L57.767 56.4632L57.6855 57.7099L59.1465 57.8054ZM59.0909 58.657L60.5518 58.7536L60.5519 58.7525L59.0909 58.657ZM57.2872 60.0847L56.7679 61.4537L56.7679 61.4537L57.2872 60.0847ZM55.6475 59.3269L54.964 60.6217L54.964 60.6217L55.6475 59.3269ZM54.5479 57.5378L53.0851 57.6L53.0851 57.6L54.5479 57.5378ZM54.1378 40.7146L55.6017 40.7402L55.6054 40.5251L55.5472 40.3181L54.1378 40.7146ZM54.1055 40.5095L52.6417 40.48L52.641 40.5165L52.6421 40.553L54.1055 40.5095ZM54.1143 40.407L55.5747 40.3027C55.5926 40.5536 55.4909 40.6848 55.5095 40.6582C55.5271 40.6329 55.6006 40.5454 55.7758 40.4147C56.1242 40.1547 56.6724 39.8732 57.3161 39.6499C57.9563 39.4277 58.5974 39.2956 59.1043 39.2743C59.6996 39.2493 59.7631 39.3865 59.6463 39.2785L60.6407 38.2039L61.635 37.1292C60.8514 36.4041 59.7519 36.3162 58.9813 36.3486C58.1224 36.3847 57.1947 36.5925 56.3562 36.8834C55.5214 37.1731 54.6813 37.5778 54.0246 38.0678C53.6973 38.312 53.3641 38.6154 53.1076 38.9832C52.852 39.3498 52.6086 39.8764 52.6539 40.5113L54.1143 40.407ZM60.6407 38.2039H59.1766V40.4246H60.6407H62.1048V38.2039H60.6407ZM60.6407 40.4246L61.8637 41.2295L63.1557 39.2666L61.9327 38.4617L60.7097 37.6567L59.4177 39.6196L60.6407 40.4246ZM61.9327 38.4617L61.4733 39.8519C62.5003 40.1912 64.1953 40.6941 65.9831 41.1139C67.742 41.5269 69.7102 41.8887 71.2325 41.8887V40.4246V38.9604C70.0682 38.9604 68.3767 38.668 66.6525 38.2632C64.9571 37.8651 63.3455 37.3865 62.392 37.0715L61.9327 38.4617ZM71.2325 40.4246L71.2325 41.8887C73.0988 41.8886 75.4469 41.3244 77.3993 40.5335L76.8497 39.1765L76.3 37.8195C74.5808 38.5158 72.6142 38.9604 71.2324 38.9604L71.2325 40.4246ZM76.8497 39.1765L77.3994 40.5335C77.8003 40.3711 78.3442 40.3961 78.7371 40.5825C78.9202 40.6693 79.0043 40.7601 79.0342 40.8054C79.051 40.8308 79.0639 40.8536 79.0544 40.925L80.5059 41.1169L81.9574 41.3089C82.1796 39.6282 81.111 38.4675 79.9919 37.9367C78.901 37.4193 77.5033 37.3321 76.3 37.8195L76.8497 39.1765ZM80.5059 41.1169L79.0545 40.9248C78.6161 44.2365 77.7363 48.6953 76.9002 52.382C76.4828 54.2226 76.0804 55.8523 75.7548 57.0346C75.5911 57.6289 75.4523 58.0901 75.345 58.4019C75.2902 58.5613 75.2533 58.6531 75.2345 58.6944C75.2244 58.7166 75.2319 58.6967 75.2578 58.6549C75.2579 58.6546 75.3708 58.4558 75.6162 58.2857L76.4503 59.489L77.2843 60.6924C77.5606 60.5009 77.7085 60.2593 77.7477 60.1959C77.8127 60.0909 77.8633 59.9874 77.9001 59.9066C77.975 59.7418 78.0468 59.5497 78.1139 59.3546C78.2505 58.9577 78.4081 58.4288 78.578 57.8121C78.9195 56.5721 79.3327 54.8957 79.7559 53.0296C80.601 49.3032 81.5024 44.7469 81.9574 41.3091L80.5059 41.1169ZM76.4503 59.489L75.6169 58.2852C75.6276 58.2778 75.5895 58.3045 75.4842 58.3517C75.3851 58.3961 75.2452 58.4503 75.0634 58.5055C74.7003 58.6157 74.1894 58.7242 73.5354 58.7716C72.2326 58.8659 70.3578 58.7179 67.9569 57.8536L67.461 59.2312L66.9651 60.6088C72.4506 62.5834 76.1247 61.4951 77.2836 60.6928L76.4503 59.489ZM67.461 59.2312L68.7026 58.4552C68.2328 57.7035 67.7648 57.1774 67.4945 56.9409L66.5303 58.0427L65.5662 59.1446C65.5536 59.1336 65.6265 59.1998 65.761 59.3635C65.8865 59.5163 66.0476 59.7322 66.2194 60.0072L67.461 59.2312ZM66.5303 58.0427L66.9857 56.6512L66.556 56.5106L66.1006 57.9021L65.6452 59.2936L66.0749 59.4342L66.5303 58.0427ZM66.1006 57.9021L67.2197 56.9579L66.7714 56.4267L65.6524 57.3709L64.5334 58.315L64.9816 58.8463L66.1006 57.9021ZM65.6524 57.3709L64.4414 56.548L63.5635 57.84L64.7745 58.6628L65.9855 59.4857L66.8634 58.1937L65.6524 57.3709ZM64.7745 58.6628L65.2742 57.2866C64.0496 56.842 61.3641 56.1289 59.0111 56.3476L59.1465 57.8054L59.282 59.2633C61.0132 59.1024 63.2252 59.6579 64.2747 60.039L64.7745 58.6628ZM59.1465 57.8054L57.6855 57.7099L57.6299 58.5615L59.0909 58.657L60.5519 58.7525L60.6075 57.9009L59.1465 57.8054ZM59.0909 58.657L57.63 58.5603C57.624 58.6497 57.6039 58.7147 57.5859 58.7538C57.5675 58.7938 57.557 58.7955 57.5761 58.7792C57.5986 58.7601 57.647 58.7302 57.716 58.7182C57.7868 58.7059 57.8233 58.7222 57.8064 58.7158L57.2872 60.0847L56.7679 61.4537C57.7505 61.8264 58.7468 61.6282 59.4743 61.0089C60.1508 60.433 60.4967 59.5868 60.5518 58.7536L59.0909 58.657ZM57.2872 60.0847L57.8064 58.7158C57.3162 58.5298 56.7869 58.2728 56.331 58.0321L55.6475 59.3269L54.964 60.6217C55.4699 60.8887 56.1183 61.2073 56.7679 61.4537L57.2872 60.0847ZM55.6475 59.3269L56.331 58.0321C56.1621 57.943 56.0223 57.7492 56.0107 57.4757L54.5479 57.5378L53.0851 57.6C53.1374 58.8299 53.8021 60.0083 54.964 60.6217L55.6475 59.3269ZM54.5479 57.5378L56.0107 57.4757C55.8728 54.2286 55.5218 45.3076 55.6017 40.7402L54.1378 40.7146L52.6739 40.689C52.5922 45.3627 52.9484 54.3803 53.0851 57.6L54.5479 57.5378ZM54.1378 40.7146L55.5472 40.3181C55.5577 40.3557 55.5672 40.406 55.569 40.466L54.1055 40.5095L52.6421 40.553C52.6479 40.7499 52.6793 40.9367 52.7284 41.1111L54.1378 40.7146ZM54.1055 40.5095L55.5694 40.539C55.569 40.5577 55.5683 40.5715 55.5679 40.5777C55.5675 40.5848 55.5672 40.5895 55.567 40.5912C55.5668 40.5942 55.5668 40.5939 55.5672 40.5896C55.5676 40.5859 55.568 40.5819 55.5684 40.5786C55.5688 40.575 55.5689 40.5742 55.5685 40.5777L54.1143 40.407L52.6602 40.2363C52.6592 40.2447 52.656 40.2724 52.6528 40.3059C52.651 40.3239 52.6433 40.4006 52.6417 40.48L54.1055 40.5095Z" fill="url(#paint2_linear_118_1872)" mask="url(#path-3-outside-1_118_1872)"/>
</g>
<g filter="url(#filter2_ii_118_1872)">
<path fill-rule="evenodd" clip-rule="evenodd" d="M54.1055 40.5086C54.1062 40.4757 54.1072 40.4244 54.1072 40.4244C54.1053 40.4525 54.1047 40.4805 54.1055 40.5086Z" fill="url(#paint3_linear_118_1872)"/>
<path d="M54.2347 40.9411C55.1027 42.429 57.1041 43.3521 58.1029 43.2143L57.9323 58.0419C60.105 57.3393 63.3989 58.1625 64.7742 58.6619L65.6525 57.3703L66.1175 58.9202L66.5308 58.0419C66.6686 58.1625 67.0475 58.5689 67.4608 59.2302C72.6272 61.0901 75.7787 59.9535 76.4503 59.4885C76.9437 59.147 79.6117 47.8208 80.5016 41.0546C80.7274 39.3384 78.4595 38.4772 76.8605 39.1403C75.0232 39.9021 72.8605 40.4244 71.2323 40.4244C68.5457 40.4244 63.9132 39.1156 61.9327 38.4612L60.6411 40.4244V38.2029C59.3278 37.1241 54.2246 38.728 54.1072 40.4244L54.1055 40.5086C54.1098 40.6529 54.151 40.7976 54.2347 40.9411Z" fill="url(#paint4_linear_118_1872)"/>
</g>
<path d="M67.6605 54.0291L67.2076 55.0539C67.0546 55.3995 66.65 55.556 66.3043 55.4033L65.308 54.9621C65.0251 54.8368 64.6942 54.9645 64.5689 55.2475L64.0347 56.4539C63.8817 56.7997 63.4772 56.9563 63.1314 56.8033L62.1066 56.3504C61.761 56.1974 61.6053 55.7929 61.7582 55.4472L62.2925 54.2401C62.4177 53.9571 62.2897 53.6261 62.0066 53.501L60.7257 52.9349C60.38 52.7819 60.2234 52.3774 60.3763 52.0316L60.8302 51.0069C60.9832 50.6611 61.3877 50.5045 61.7335 50.6575L63.0148 51.2238C63.2978 51.3488 63.6285 51.2208 63.7536 50.9379L64.2441 49.8284C64.3973 49.4829 64.8016 49.3271 65.1473 49.48L66.1721 49.9329C66.5177 50.086 66.6735 50.4904 66.5205 50.8361L66.0299 51.9459C65.9048 52.2287 66.0326 52.5593 66.3153 52.6846L67.3111 53.1258C67.6568 53.2788 67.8133 53.6833 67.6605 54.0291Z" fill="url(#paint5_linear_118_1872)" style="mix-blend-mode:multiply"/>
<path d="M61.7574 40.2966C61.89 41.326 66.9792 44.1367 68.221 44.1367C70.2772 44.1367 75.7195 41.286 76.9703 46.6964C77.7744 50.1749 72.1797 55.9849 68.221 50.9067" stroke="#DAC5AE" stroke-width="1.3694" stroke-linecap="round" stroke-dasharray="3.11 3.11" style="mix-blend-mode:multiply"/>
<g filter="url(#filter3_i_118_1872)">
<path d="M54.3226 40.5859C55.1612 41.6239 56.6945 42.2609 58.1621 42.2739C58.9539 42.2809 59.7718 42.8773 59.7395 43.6685L59.1887 57.1813L59.0875 58.7107C59.0215 59.7079 58.2748 60.4519 57.3383 60.103C56.7526 59.8848 56.1426 59.5879 55.6473 59.3265C54.9819 58.9752 54.5799 58.2888 54.548 57.5371C54.405 54.1706 54.0264 44.5863 54.1489 40.1661C54.1546 40.3062 54.2101 40.4466 54.3226 40.5859Z" fill="url(#paint6_linear_118_1872)"/>
</g>
<path opacity="0.8" d="M69.6834 41.6249L68.6192 58.2484C68.6101 58.3902 68.6828 58.5262 68.8142 58.5803C70.0299 59.0804 72.436 58.9437 73.2465 58.4232C73.3225 58.3744 73.3642 58.2905 73.375 58.2008L75.3977 41.3349C75.4355 41.0202 75.0601 40.7767 74.7628 40.8866C73.4999 41.3535 71.5469 41.4626 70.1159 41.2772C69.8987 41.249 69.6973 41.4062 69.6834 41.6249Z" fill="url(#paint7_linear_118_1872)"/>
<path d="M54.7514 42.5217L55.1222 57.4872C55.1323 57.8943 55.3533 58.2669 55.7057 58.471L56.9019 59.1635C57.0463 59.2471 57.2275 59.1454 57.2312 58.9786L57.5843 43.3021C57.5867 43.1933 57.5085 43.0991 57.4013 43.0801C56.2126 42.8687 55.614 42.659 55.1796 42.3317C55.0148 42.2075 54.7463 42.3154 54.7514 42.5217Z" fill="url(#paint8_linear_118_1872)"/>
<path d="M94.8145 52.5V45.944H92.1525V44.745H98.9065V45.944H96.2445V52.5H94.8145ZM99.4451 52.5V47.099H100.787V48.408H100.699C100.809 47.968 101.014 47.6307 101.315 47.396C101.623 47.1613 102.023 47.0257 102.514 46.989L102.976 46.956L103.075 48.166L102.228 48.243C101.781 48.287 101.44 48.43 101.205 48.672C100.978 48.9067 100.864 49.2293 100.864 49.64V52.5H99.4451ZM107.098 52.61C106.474 52.61 105.939 52.4963 105.492 52.269C105.044 52.0417 104.7 51.719 104.458 51.301C104.216 50.8757 104.095 50.377 104.095 49.805C104.095 49.2477 104.208 48.76 104.436 48.342C104.67 47.9167 104.993 47.5867 105.404 47.352C105.822 47.11 106.298 46.989 106.834 46.989C107.354 46.989 107.802 47.099 108.176 47.319C108.55 47.539 108.839 47.8543 109.045 48.265C109.25 48.6683 109.353 49.156 109.353 49.728V50.135H105.217V49.321H108.363L108.187 49.486C108.187 48.9873 108.073 48.606 107.846 48.342C107.618 48.078 107.296 47.946 106.878 47.946C106.577 47.946 106.317 48.0157 106.097 48.155C105.877 48.2943 105.708 48.4923 105.591 48.749C105.473 49.0057 105.415 49.31 105.415 49.662V49.761C105.415 50.1643 105.477 50.498 105.602 50.762C105.734 51.0187 105.928 51.213 106.185 51.345C106.441 51.477 106.757 51.543 107.131 51.543C107.431 51.543 107.732 51.499 108.033 51.411C108.333 51.323 108.608 51.18 108.858 50.982L109.254 51.928C108.982 52.148 108.652 52.3167 108.264 52.434C107.875 52.5513 107.486 52.61 107.098 52.61ZM112.871 52.61C112.483 52.61 112.134 52.5367 111.826 52.39C111.518 52.236 111.276 52.0307 111.1 51.774C110.924 51.51 110.836 51.2167 110.836 50.894C110.836 50.498 110.943 50.1827 111.155 49.948C111.368 49.7133 111.709 49.5447 112.178 49.442C112.648 49.332 113.271 49.277 114.048 49.277H114.642V50.091H114.07C113.726 50.091 113.436 50.1057 113.201 50.135C112.967 50.157 112.776 50.1973 112.629 50.256C112.483 50.3073 112.376 50.3807 112.31 50.476C112.244 50.5713 112.211 50.6887 112.211 50.828C112.211 51.07 112.296 51.2643 112.464 51.411C112.64 51.5577 112.879 51.631 113.179 51.631C113.421 51.631 113.638 51.576 113.828 51.466C114.026 51.3487 114.184 51.191 114.301 50.993C114.419 50.7877 114.477 50.5603 114.477 50.311V49.057C114.477 48.6903 114.389 48.43 114.213 48.276C114.037 48.122 113.751 48.045 113.355 48.045C113.055 48.045 112.747 48.089 112.431 48.177C112.116 48.265 111.793 48.4043 111.463 48.595L111.056 47.638C111.262 47.506 111.496 47.3923 111.76 47.297C112.024 47.1943 112.303 47.1173 112.596 47.066C112.89 47.0147 113.172 46.989 113.443 46.989C113.971 46.989 114.408 47.0697 114.752 47.231C115.104 47.385 115.368 47.627 115.544 47.957C115.72 48.287 115.808 48.7123 115.808 49.233V52.5H114.532V51.356H114.598C114.532 51.6127 114.419 51.8363 114.257 52.027C114.103 52.2103 113.909 52.3533 113.674 52.456C113.447 52.5587 113.179 52.61 112.871 52.61ZM119.864 52.61C119.563 52.61 119.266 52.5843 118.973 52.533C118.687 52.4817 118.423 52.412 118.181 52.324C117.946 52.2287 117.737 52.1113 117.554 51.972L117.917 51.048C118.1 51.1653 118.298 51.268 118.511 51.356C118.731 51.4367 118.954 51.499 119.182 51.543C119.416 51.587 119.644 51.609 119.864 51.609C120.23 51.609 120.502 51.554 120.678 51.444C120.861 51.3267 120.953 51.169 120.953 50.971C120.953 50.8023 120.894 50.674 120.777 50.586C120.667 50.498 120.494 50.432 120.26 50.388L119.127 50.19C118.657 50.102 118.302 49.9297 118.06 49.673C117.818 49.4163 117.697 49.0937 117.697 48.705C117.697 48.353 117.792 48.0487 117.983 47.792C118.173 47.5353 118.445 47.3373 118.797 47.198C119.149 47.0587 119.559 46.989 120.029 46.989C120.293 46.989 120.549 47.011 120.799 47.055C121.048 47.099 121.283 47.1687 121.503 47.264C121.723 47.352 121.913 47.4693 122.075 47.616L121.69 48.54C121.55 48.4227 121.385 48.3237 121.195 48.243C121.011 48.1623 120.821 48.1 120.623 48.056C120.425 48.012 120.23 47.99 120.04 47.99C119.673 47.99 119.398 48.0487 119.215 48.166C119.039 48.2833 118.951 48.4447 118.951 48.65C118.951 48.804 119.002 48.9287 119.105 49.024C119.215 49.1193 119.38 49.1853 119.6 49.222L120.711 49.431C121.209 49.519 121.583 49.684 121.833 49.926C122.089 50.168 122.218 50.4907 122.218 50.894C122.218 51.2533 122.119 51.5613 121.921 51.818C121.73 52.0747 121.459 52.2727 121.107 52.412C120.755 52.544 120.34 52.61 119.864 52.61ZM125.916 52.61C125.468 52.61 125.094 52.5293 124.794 52.368C124.5 52.1993 124.28 51.95 124.134 51.62C123.987 51.2827 123.914 50.8647 123.914 50.366V47.099H125.311V50.366C125.311 50.6153 125.344 50.8243 125.41 50.993C125.483 51.1617 125.593 51.29 125.74 51.378C125.886 51.4587 126.073 51.499 126.301 51.499C126.55 51.499 126.77 51.4403 126.961 51.323C127.151 51.2057 127.298 51.0443 127.401 50.839C127.511 50.6337 127.566 50.3917 127.566 50.113V47.099H128.974V52.5H127.621V51.378H127.742C127.58 51.774 127.342 52.0783 127.027 52.291C126.719 52.5037 126.348 52.61 125.916 52.61ZM131.031 52.5V47.099H132.373V48.408H132.285C132.395 47.968 132.6 47.6307 132.901 47.396C133.209 47.1613 133.608 47.0257 134.1 46.989L134.562 46.956L134.661 48.166L133.814 48.243C133.366 48.287 133.025 48.43 132.791 48.672C132.563 48.9067 132.45 49.2293 132.45 49.64V52.5H131.031ZM138.683 52.61C138.06 52.61 137.524 52.4963 137.077 52.269C136.63 52.0417 136.285 51.719 136.043 51.301C135.801 50.8757 135.68 50.377 135.68 49.805C135.68 49.2477 135.794 48.76 136.021 48.342C136.256 47.9167 136.578 47.5867 136.989 47.352C137.407 47.11 137.884 46.989 138.419 46.989C138.94 46.989 139.387 47.099 139.761 47.319C140.135 47.539 140.425 47.8543 140.63 48.265C140.835 48.6683 140.938 49.156 140.938 49.728V50.135H136.802V49.321H139.948L139.772 49.486C139.772 48.9873 139.658 48.606 139.431 48.342C139.204 48.078 138.881 47.946 138.463 47.946C138.162 47.946 137.902 48.0157 137.682 48.155C137.462 48.2943 137.293 48.4923 137.176 48.749C137.059 49.0057 137 49.31 137 49.662V49.761C137 50.1643 137.062 50.498 137.187 50.762C137.319 51.0187 137.513 51.213 137.77 51.345C138.027 51.477 138.342 51.543 138.716 51.543C139.017 51.543 139.317 51.499 139.618 51.411C139.919 51.323 140.194 51.18 140.443 50.982L140.839 51.928C140.568 52.148 140.238 52.3167 139.849 52.434C139.46 52.5513 139.072 52.61 138.683 52.61ZM146.4 52.5V44.745H147.83V47.968H151.801V44.745H153.22V52.5H151.801V49.167H147.83V52.5H146.4ZM157.405 52.61C156.957 52.61 156.583 52.5293 156.283 52.368C155.989 52.1993 155.769 51.95 155.623 51.62C155.476 51.2827 155.403 50.8647 155.403 50.366V47.099H156.8V50.366C156.8 50.6153 156.833 50.8243 156.899 50.993C156.972 51.1617 157.082 51.29 157.229 51.378C157.375 51.4587 157.562 51.499 157.79 51.499C158.039 51.499 158.259 51.4403 158.45 51.323C158.64 51.2057 158.787 51.0443 158.89 50.839C159 50.6337 159.055 50.3917 159.055 50.113V47.099H160.463V52.5H159.11V51.378H159.231C159.069 51.774 158.831 52.0783 158.516 52.291C158.208 52.5037 157.837 52.61 157.405 52.61ZM162.519 52.5V47.099H163.872V48.177H163.784C163.946 47.7883 164.199 47.495 164.543 47.297C164.888 47.0917 165.277 46.989 165.709 46.989C166.142 46.989 166.501 47.0697 166.787 47.231C167.073 47.3923 167.286 47.6417 167.425 47.979C167.572 48.309 167.645 48.727 167.645 49.233V52.5H166.248V49.299C166.248 49.0203 166.212 48.793 166.138 48.617C166.072 48.441 165.966 48.3127 165.819 48.232C165.673 48.144 165.486 48.1 165.258 48.1C164.994 48.1 164.76 48.1587 164.554 48.276C164.356 48.386 164.202 48.5473 164.092 48.76C163.982 48.9653 163.927 49.2073 163.927 49.486V52.5H162.519ZM172.176 52.61C171.443 52.61 170.896 52.4303 170.537 52.071C170.185 51.7043 170.009 51.1727 170.009 50.476V48.166H168.964V47.099H170.02V45.504H171.406V47.099H173.1V48.166H171.406V50.399C171.406 50.751 171.483 51.015 171.637 51.191C171.798 51.367 172.051 51.455 172.396 51.455C172.506 51.455 172.62 51.4403 172.737 51.411C172.854 51.3817 172.975 51.3523 173.1 51.323L173.309 52.357C173.162 52.4377 172.986 52.5 172.781 52.544C172.576 52.588 172.374 52.61 172.176 52.61Z" fill="#202224"/>
<mask id="mask0_118_1872" style="mask-type:alpha" maskUnits="userSpaceOnUse" x="27" y="27" width="30" height="44">
<path d="M28.2632 34.49C28.2632 30.9057 31.1689 28 34.7532 28H43.772C50.6707 28 56.2632 33.5925 56.2632 40.4912V57.5088C56.2632 64.4075 50.6707 70 43.772 70H34.7532C31.1689 70 28.2632 67.0943 28.2632 63.51V34.49Z" fill="white" stroke="url(#paint9_linear_118_1872)" stroke-opacity="0.3" stroke-width="1.30158"/>
</mask>
<g mask="url(#mask0_118_1872)">
<rect x="27.2632" y="27.1923" width="14" height="43.6154" fill="#587ED7"/>
</g>
<defs>
<filter id="filter0_d_118_1872" x="0.560465" y="0.297343" width="215.168" height="104.168" filterUnits="userSpaceOnUse" color-interpolation-filters="sRGB">
<feFlood flood-opacity="0" result="BackgroundImageFix"/>
<feColorMatrix in="SourceAlpha" type="matrix" values="0 0 0 0 0 0 0 0 0 0 0 0 0 0 0 0 0 0 127 0" result="hardAlpha"/>
<feOffset dx="3.38149" dy="3.38149"/>
<feGaussianBlur stdDeviation="15.2167"/>
<feColorMatrix type="matrix" values="0 0 0 0 0 0 0 0 0 0 0 0 0 0 0 0 0 0 0.05 0"/>
<feBlend mode="normal" in2="BackgroundImageFix" result="effect1_dropShadow_118_1872"/>
<feBlend mode="normal" in="SourceGraphic" in2="effect1_dropShadow_118_1872" result="shape"/>
</filter>
<filter id="filter1_d_118_1872" x="52.641" y="36.343" width="29.3459" height="26.9662" filterUnits="userSpaceOnUse" color-interpolation-filters="sRGB">
<feFlood flood-opacity="0" result="BackgroundImageFix"/>
<feColorMatrix in="SourceAlpha" type="matrix" values="0 0 0 0 0 0 0 0 0 0 0 0 0 0 0 0 0 0 127 0" result="hardAlpha"/>
<feOffset dy="1.58514"/>
<feComposite in2="hardAlpha" operator="out"/>
<feColorMatrix type="matrix" values="0 0 0 0 0.233333 0 0 0 0 0.0835391 0 0 0 0 0 0 0 0 1 0"/>
<feBlend mode="normal" in2="BackgroundImageFix" result="effect1_dropShadow_118_1872"/>
<feBlend mode="normal" in="SourceGraphic" in2="effect1_dropShadow_118_1872" result="shape"/>
</filter>
<filter id="filter2_ii_118_1872" x="54.1052" y="37.8527" width="26.4121" height="22.4071" filterUnits="userSpaceOnUse" color-interpolation-filters="sRGB">
<feFlood flood-opacity="0" result="BackgroundImageFix"/>
<feBlend mode="normal" in="SourceGraphic" in2="BackgroundImageFix" result="shape"/>
<feColorMatrix in="SourceAlpha" type="matrix" values="0 0 0 0 0 0 0 0 0 0 0 0 0 0 0 0 0 0 127 0" result="hardAlpha"/>
<feOffset dy="0.619971"/>
<feComposite in2="hardAlpha" operator="arithmetic" k2="-1" k3="1"/>
<feColorMatrix type="matrix" values="0 0 0 0 0.952941 0 0 0 0 0.933333 0 0 0 0 0.85098 0 0 0 1 0"/>
<feBlend mode="normal" in2="shape" result="effect1_innerShadow_118_1872"/>
<feColorMatrix in="SourceAlpha" type="matrix" values="0 0 0 0 0 0 0 0 0 0 0 0 0 0 0 0 0 0 127 0" result="hardAlpha"/>
<feOffset dx="0.103328" dy="-0.516642"/>
<feComposite in2="hardAlpha" operator="arithmetic" k2="-1" k3="1"/>
<feColorMatrix type="matrix" values="0 0 0 0 0.780392 0 0 0 0 0.587059 0 0 0 0 0.447059 0 0 0 1 0"/>
<feBlend mode="normal" in2="effect1_innerShadow_118_1872" result="effect2_innerShadow_118_1872"/>
</filter>
<filter id="filter3_i_118_1872" x="53.4402" y="40.1661" width="6.30024" height="20.5844" filterUnits="userSpaceOnUse" color-interpolation-filters="sRGB">
<feFlood flood-opacity="0" result="BackgroundImageFix"/>
<feBlend mode="normal" in="SourceGraphic" in2="BackgroundImageFix" result="shape"/>
<feColorMatrix in="SourceAlpha" type="matrix" values="0 0 0 0 0 0 0 0 0 0 0 0 0 0 0 0 0 0 127 0" result="hardAlpha"/>
<feOffset dx="-0.684702" dy="0.560211"/>
<feGaussianBlur stdDeviation="1.15154"/>
<feComposite in2="hardAlpha" operator="arithmetic" k2="-1" k3="1"/>
<feColorMatrix type="matrix" values="0 0 0 0 0 0 0 0 0 0 0 0 0 0 0 0 0 0 0.25 0"/>
<feBlend mode="normal" in2="shape" result="effect1_innerShadow_118_1872"/>
</filter>
<linearGradient id="paint0_linear_118_1872" x1="63.1505" y1="12.8299" x2="137.147" y2="98.6413" gradientUnits="userSpaceOnUse">
<stop stop-color="#F1F1F1"/>
<stop offset="1" stop-color="#E1E1E1"/>
</linearGradient>
<linearGradient id="paint1_linear_118_1872" x1="56.9378" y1="41.4534" x2="56.9378" y2="60.2605" gradientUnits="userSpaceOnUse">
<stop stop-color="#B07B5D"/>
<stop offset="1" stop-color="#C79672"/>
</linearGradient>
<linearGradient id="paint2_linear_118_1872" x1="71.0499" y1="41.2466" x2="65.1244" y2="58.2616" gradientUnits="userSpaceOnUse">
<stop offset="0.000323348" stop-color="#AB633B"/>
<stop offset="0.116401" stop-color="#9F582F"/>
<stop offset="0.784832" stop-color="#692905"/>
<stop offset="0.953012" stop-color="#632503"/>
</linearGradient>
<linearGradient id="paint3_linear_118_1872" x1="67.4392" y1="36.2396" x2="67.4392" y2="61.3777" gradientUnits="userSpaceOnUse">
<stop stop-color="#F0DCA1"/>
<stop offset="1" stop-color="#D9AF64"/>
</linearGradient>
<linearGradient id="paint4_linear_118_1872" x1="67.4392" y1="36.2396" x2="67.4392" y2="61.3777" gradientUnits="userSpaceOnUse">
<stop stop-color="#F0DCA1"/>
<stop offset="1" stop-color="#D9AF64"/>
</linearGradient>
<linearGradient id="paint5_linear_118_1872" x1="67.7454" y1="53.5725" x2="60.2685" y2="52.6791" gradientUnits="userSpaceOnUse">
<stop stop-color="#AD6981"/>
<stop offset="0.484375" stop-color="#D92F58"/>
<stop offset="1" stop-color="#C93939"/>
</linearGradient>
<linearGradient id="paint6_linear_118_1872" x1="56.9664" y1="40.1661" x2="56.9664" y2="60.4185" gradientUnits="userSpaceOnUse">
<stop stop-color="#B07B5D"/>
<stop offset="1" stop-color="#C79672"/>
</linearGradient>
<linearGradient id="paint7_linear_118_1872" x1="53.566" y1="36.3471" x2="75.372" y2="50.3135" gradientUnits="userSpaceOnUse">
<stop stop-color="white"/>
<stop offset="1" stop-color="white" stop-opacity="0"/>
</linearGradient>
<linearGradient id="paint8_linear_118_1872" x1="37.0732" y1="38.0294" x2="60.0387" y2="53.3154" gradientUnits="userSpaceOnUse">
<stop stop-color="#5F3E21"/>
<stop offset="1" stop-color="#5F3E21" stop-opacity="0"/>
</linearGradient>
<linearGradient id="paint9_linear_118_1872" x1="34.6478" y1="12.8299" x2="65.0326" y2="19.2783" gradientUnits="userSpaceOnUse">
<stop stop-color="#F1F1F1"/>
<stop offset="1" stop-color="#E1E1E1"/>
</linearGradient>
</defs>
</svg>
