<svg width="216" height="105" viewBox="0 0 216 105" fill="none" xmlns="http://www.w3.org/2000/svg">
<g filter="url(#filter0_d_118_1854)">
<rect x="28.2632" y="28" width="153" height="42" rx="6.49" fill="white"/>
<rect x="28.2632" y="28" width="153" height="42" rx="6.49" stroke="url(#paint0_linear_118_1854)" stroke-opacity="0.3" stroke-width="1.30158"/>
</g>
<g filter="url(#filter1_d_118_1854)">
<path d="M60.6352 53.1535L59.1866 52.3752C58.555 52.034 58.0239 51.5342 57.6461 50.9245L57.575 50.8056L57.5064 50.6796C57.4654 50.6022 57.427 50.5238 57.3912 50.4445C57.1734 49.9589 57.0516 49.4341 57.0343 48.8982L56.8422 42.6555C56.8213 41.9385 56.8732 41.2218 57.2126 40.5891C57.2404 40.537 57.2877 40.4169 57.3176 40.3674L57.4478 40.1976V40.1976C57.7105 39.7882 58.0109 39.4169 58.0394 38.9313L58.0796 38.2437C58.0909 38.0517 58.1188 37.861 58.1632 37.6739L58.1749 37.6242L58.2097 37.5218V37.5218C58.2427 37.3509 58.3642 37.206 58.4827 37.0786C58.5612 36.9942 58.6608 36.9077 58.7703 36.8266C58.8261 36.795 58.8822 36.7693 58.938 36.7486C59.4746 36.5489 60.0635 36.8216 60.5617 37.1038L61.2651 37.5024C61.4037 37.5809 61.5662 37.6081 61.7204 37.568C63.1467 37.1966 64.8984 36.1185 66.2915 36.0756C66.7052 36.0629 67.1166 36.113 67.5122 36.2228C69.6031 36.8012 71.5309 37.8112 73.559 38.5865C74.1906 38.9267 74.7804 39.6174 75.1582 40.2271C75.5358 40.8377 75.6152 41.5704 75.6384 42.2874L75.6384 45.2976C75.6384 45.8826 75.7299 46.2477 76.1407 46.6642V46.6642C76.3816 46.9084 76.6495 47.4688 76.6495 47.8119L76.6495 52.0166C76.66 52.3593 75.5587 53.0665 75.2057 53.195C75.1727 53.207 75.143 53.21 75.1086 53.203V53.203C75.0176 53.1845 74.9141 53.1833 74.8343 53.1358L73.6624 52.4369C73.5319 52.3591 73.369 52.3605 73.2399 52.4405V52.4405C72.9848 52.5984 72.9826 52.9687 73.2359 53.1296L73.942 53.5783C74.114 53.6694 74.2587 53.8046 74.361 53.9702C74.4634 54.1359 74.5194 54.326 74.5234 54.5212L74.5237 54.5309C74.5266 54.6174 74.5267 54.8604 74.5206 55.1355C74.5156 55.369 74.5063 55.6256 74.4903 55.832C74.4834 55.9215 74.4738 55.9597 74.4643 56.0245C74.4606 56.0938 74.439 56.1371 74.4283 56.1611C74.4237 56.1772 74.4068 56.1953 74.4018 56.2051C74.3039 56.3628 74.3268 56.3059 74.1606 56.4074L69.0237 59.7009C68.94 59.7529 68.8547 59.8015 68.7682 59.8484C68.6702 59.9009 68.5703 59.9499 68.4687 59.9946C68.1931 60.117 67.9066 60.2116 67.6128 60.2781L67.4589 60.3102L67.3435 60.3306C67.1481 60.3622 66.9502 60.3815 66.7511 60.3877C65.9465 60.4124 65.2916 60.3088 64.5825 59.9267L59.3091 57.0848C59.1384 56.9928 58.9948 56.8567 58.8927 56.6919C58.8455 56.6156 58.8004 56.2909 58.765 55.9455C58.7242 55.5446 58.6962 55.116 58.693 55.0118C58.687 54.8175 58.7321 54.6252 58.8238 54.4536C58.9156 54.282 59.0506 54.1382 59.2153 54.035L60.6352 53.1535Z" fill="url(#paint1_linear_118_1854)"/>
<path d="M60.6352 53.1535L59.1866 52.3752C58.555 52.034 58.0239 51.5342 57.6461 50.9245L57.575 50.8056L57.5064 50.6796C57.4654 50.6022 57.427 50.5238 57.3912 50.4445C57.1734 49.9589 57.0516 49.4341 57.0343 48.8982L56.8422 42.6555C56.8213 41.9385 56.8732 41.2218 57.2126 40.5891C57.2404 40.537 57.2877 40.4169 57.3176 40.3674L57.4478 40.1976V40.1976C57.7105 39.7882 58.0109 39.4169 58.0394 38.9313L58.0796 38.2437C58.0909 38.0517 58.1188 37.861 58.1632 37.6739L58.1749 37.6242L58.2097 37.5218V37.5218C58.2427 37.3509 58.3642 37.206 58.4827 37.0786C58.5612 36.9942 58.6608 36.9077 58.7703 36.8266C58.8261 36.795 58.8822 36.7693 58.938 36.7486C59.4746 36.5489 60.0635 36.8216 60.5617 37.1038L61.2651 37.5024C61.4037 37.5809 61.5662 37.6081 61.7204 37.568C63.1467 37.1966 64.8984 36.1185 66.2915 36.0756C66.7052 36.0629 67.1166 36.113 67.5122 36.2228C69.6031 36.8012 71.5309 37.8112 73.559 38.5865C74.1906 38.9267 74.7804 39.6174 75.1582 40.2271C75.5358 40.8377 75.6152 41.5704 75.6384 42.2874L75.6384 45.2976C75.6384 45.8826 75.7299 46.2477 76.1407 46.6642V46.6642C76.3816 46.9084 76.6495 47.4688 76.6495 47.8119L76.6495 52.0166C76.66 52.3593 75.5587 53.0665 75.2057 53.195C75.1727 53.207 75.143 53.21 75.1086 53.203V53.203C75.0176 53.1845 74.9141 53.1833 74.8343 53.1358L73.6624 52.4369C73.5319 52.3591 73.369 52.3605 73.2399 52.4405V52.4405C72.9848 52.5984 72.9826 52.9687 73.2359 53.1296L73.942 53.5783C74.114 53.6694 74.2587 53.8046 74.361 53.9702C74.4634 54.1359 74.5194 54.326 74.5234 54.5212L74.5237 54.5309C74.5266 54.6174 74.5267 54.8604 74.5206 55.1355C74.5156 55.369 74.5063 55.6256 74.4903 55.832C74.4834 55.9215 74.4738 55.9597 74.4643 56.0245C74.4606 56.0938 74.439 56.1371 74.4283 56.1611C74.4237 56.1772 74.4068 56.1953 74.4018 56.2051C74.3039 56.3628 74.3268 56.3059 74.1606 56.4074L69.0237 59.7009C68.94 59.7529 68.8547 59.8015 68.7682 59.8484C68.6702 59.9009 68.5703 59.9499 68.4687 59.9946C68.1931 60.117 67.9066 60.2116 67.6128 60.2781L67.4589 60.3102L67.3435 60.3306C67.1481 60.3622 66.9502 60.3815 66.7511 60.3877C65.9465 60.4124 65.2916 60.3088 64.5825 59.9267L59.3091 57.0848C59.1384 56.9928 58.9948 56.8567 58.8927 56.6919C58.8455 56.6156 58.8004 56.2909 58.765 55.9455C58.7242 55.5446 58.6962 55.116 58.693 55.0118C58.687 54.8175 58.7321 54.6252 58.8238 54.4536C58.9156 54.282 59.0506 54.1382 59.2153 54.035L60.6352 53.1535Z" fill="#C42222" fill-opacity="0.43"/>
<path d="M66.2711 35.3982C66.7531 35.3834 67.233 35.4414 67.694 35.5694L67.693 35.5704C68.7818 35.8716 69.8193 36.2814 70.8232 36.7061C71.5859 37.0288 72.3177 37.3538 73.0576 37.6574L73.8014 37.953L73.8419 37.9684L73.8807 37.9897C74.6616 38.4105 75.328 39.2143 75.7343 39.8701L75.7353 39.8701L75.8199 40.017C76.2229 40.7549 76.2939 41.5806 76.316 42.2655L76.3167 42.2869L76.3165 45.2972C76.3165 45.56 76.3381 45.7113 76.3766 45.8239C76.4114 45.9252 76.4741 46.0363 76.6233 46.1876C76.8194 46.3864 76.987 46.6649 77.1031 46.9202C77.2019 47.1377 77.2994 47.4175 77.3223 47.6941L77.3279 47.8122L77.3272 52.0163L77.3262 52.0154C77.3278 52.2252 77.2521 52.3938 77.1944 52.4952C77.1304 52.6079 77.0504 52.7062 76.9767 52.7863C76.8288 52.9469 76.6436 53.1005 76.4677 53.2308C76.2133 53.4193 75.9108 53.6086 75.6634 53.7324L75.4378 53.8321C75.326 53.8728 75.2031 53.8908 75.0719 53.8795C75.1515 54.0762 75.1961 54.2861 75.2014 54.4998L75.2017 54.5086L75.1989 55.1506C75.1964 55.2696 75.1921 55.3967 75.1869 55.5223L75.1668 55.8844C75.1575 56.0035 75.1379 56.1036 75.135 56.1228L75.134 56.1218C75.1258 56.1953 75.113 56.2605 75.0951 56.3165C75.0746 56.3804 75.048 56.4362 75.048 56.4361C75.0352 56.4657 75.0231 56.4893 75.0139 56.5056C74.996 56.5374 74.9794 56.5625 74.9711 56.5743L74.9608 56.5883C74.9622 56.5863 74.9675 56.5793 74.9739 56.5693L74.9776 56.5624C74.9544 56.5998 74.9212 56.6538 74.8832 56.7031C74.8345 56.7662 74.7709 56.8333 74.6829 56.8919C74.6464 56.9162 74.6139 56.933 74.5955 56.9425C74.5825 56.9492 74.5586 56.9609 74.558 56.9612C74.5473 56.9666 74.535 56.9731 74.5138 56.986L69.3898 60.2721L69.3821 60.2762C69.2837 60.3374 69.1858 60.3932 69.0912 60.4444L69.0884 60.4465C68.9763 60.5065 68.8607 60.5631 68.7418 60.6154L68.7408 60.6144C68.425 60.7546 68.0973 60.8637 67.7621 60.9396L67.7514 60.9419L67.597 60.974L67.5873 60.9763L67.5767 60.9785L67.461 60.9987L67.4523 60.9999C67.2287 61.0361 67.0014 61.0587 66.7723 61.0658C65.9939 61.0897 65.2986 61.0034 64.5738 60.6781L64.2613 60.5236L58.9878 57.6815C58.7112 57.5324 58.4795 57.3137 58.3157 57.0495L58.3157 57.0485C58.2419 56.929 58.2105 56.7993 58.1992 56.7531C58.1816 56.6817 58.1673 56.6033 58.1551 56.5278C58.1305 56.3751 58.1087 56.1927 58.0905 56.0149L58.0904 56.0139C58.0487 55.6043 58.0192 55.1583 58.0153 55.0324C58.0057 54.7194 58.0786 54.4097 58.2261 54.1339C58.3741 53.8569 58.5912 53.6252 58.8551 53.4599L58.858 53.4588L59.2807 53.1957L58.8655 52.973L58.8645 52.9721C58.129 52.5748 57.5098 51.992 57.0695 51.2814L57.0643 51.2727L56.9932 51.1538L56.986 51.1422L56.9798 51.1297L56.9105 51.0039L56.9073 50.9971C56.8596 50.9072 56.8146 50.8162 56.7729 50.7238L56.7728 50.7218C56.5507 50.2266 56.4141 49.6965 56.3699 49.1534L56.3569 48.9203L56.1648 42.6752L56.1599 42.3891C56.1601 41.7115 56.243 40.963 56.6154 40.2686C56.6165 40.2663 56.6172 40.2628 56.619 40.2587C56.6264 40.2426 56.6335 40.2262 56.6446 40.2013C56.6544 40.1794 56.6673 40.1514 56.6804 40.124C56.6917 40.1001 56.7117 40.0592 56.7367 40.0177L56.7562 39.9849L56.7797 39.9548L56.9018 39.7938C57.0473 39.5691 57.1448 39.4367 57.2364 39.2686C57.3199 39.1151 57.3562 38.9999 57.3625 38.8915L57.4029 38.2044L57.4162 38.031C57.4339 37.8582 57.4629 37.6865 57.503 37.5174L57.5151 37.4682L57.522 37.4367L57.5328 37.4061L57.5649 37.3093C57.6571 36.9701 57.8829 36.7274 57.9862 36.6164C58.0994 36.4947 58.2323 36.3808 58.3667 36.2813L58.4002 36.2568L58.4357 36.2361C58.5242 36.186 58.6135 36.1455 58.7015 36.1127L58.8689 36.0597C59.2573 35.958 59.6326 36.0029 59.9496 36.0929C60.3068 36.1942 60.6356 36.3669 60.8956 36.5142L61.5807 36.9015C62.2282 36.7284 62.9427 36.4039 63.7632 36.0703C64.5466 35.7518 65.4377 35.4238 66.2711 35.3982Z" stroke="#820604" stroke-width="1.35627"/>
</g>
<path d="M74.61 54.3851C74.618 54.5799 74.6086 55.9036 74.5167 56.0754C74.4248 56.2472 74.2886 56.391 74.1224 56.492L69.0337 59.653C68.3494 60.078 67.5656 60.3148 66.7611 60.3396C65.9566 60.3643 65.1597 60.1761 64.4505 59.794L59.1772 56.9516C59.0064 56.8595 58.8628 56.7239 58.7607 56.5585C58.6586 56.3931 58.567 55.0733 58.561 54.8789C58.555 54.6844 58.6002 54.4918 58.6919 54.3204C58.7836 54.149 58.9186 54.0048 59.0834 53.9024L64.1721 50.7413C64.8564 50.3162 65.6402 50.0793 66.4447 50.0546C67.2493 50.0298 68.0462 50.2181 68.7553 50.6004L74.0286 53.4427C74.2007 53.5332 74.3455 53.6684 74.4477 53.8342C74.55 53.9999 74.606 54.1902 74.61 54.3851Z" fill="#E57904"/>
<path d="M74.61 54.3851C74.618 54.5799 74.6086 55.9036 74.5167 56.0754C74.4248 56.2472 74.2886 56.391 74.1224 56.492L69.0337 59.653C68.3494 60.078 67.5656 60.3148 66.7611 60.3396C65.9566 60.3643 65.1597 60.1761 64.4505 59.794L59.1772 56.9516C59.0064 56.8595 58.8628 56.7239 58.7607 56.5585C58.6586 56.3931 58.567 55.0733 58.561 54.8789C58.555 54.6844 58.6002 54.4918 58.6919 54.3204C58.7836 54.149 58.9186 54.0048 59.0834 53.9024L64.1721 50.7413C64.8564 50.3162 65.6402 50.0793 66.4447 50.0546C67.2493 50.0298 68.0462 50.2181 68.7553 50.6004L74.0286 53.4427C74.2007 53.5332 74.3455 53.6684 74.4477 53.8342C74.55 53.9999 74.606 54.1902 74.61 54.3851Z" fill="url(#paint2_linear_118_1854)"/>
<path fill-rule="evenodd" clip-rule="evenodd" d="M60.0347 36.5874C58.4745 36.3562 58.1973 37.5551 58.2085 37.9171L58.8137 41.0259C58.8253 41.403 59.0247 41.7504 59.3452 41.95L75.4739 52.0173C75.6338 52.1166 75.8181 52.103 75.9561 52.0157C76.0827 51.9349 76.1707 51.7925 76.1654 51.6195L76.0118 46.6271C76.0002 46.2501 75.8008 45.9027 75.4803 45.7031L60.0347 36.5874ZM60.8025 38.6474C60.4958 38.4553 60.0992 38.6832 60.1103 39.0443L60.1634 40.7705C60.175 41.1476 60.3736 41.4932 60.6933 41.6937L73.3058 49.5933C73.4758 49.6995 73.6736 49.6775 73.8141 49.5751C73.9268 49.4921 74.0029 49.3571 73.998 49.1964L73.9449 47.4702C73.9333 47.0932 73.7346 46.7475 73.4149 46.547L60.8025 38.6474Z" fill="#FFC40E"/>
<path d="M58.1223 38.2043C58.1425 37.7079 58.6813 37.4097 59.1127 37.656L74.5621 46.4762C74.9037 46.6713 75.1194 47.0298 75.1315 47.423L75.2842 52.3865C75.2953 52.7477 74.8995 52.9752 74.593 52.7839L58.5092 42.7453C58.1643 42.53 57.9614 42.1458 57.978 41.7397L58.1223 38.2043ZM60.0273 39.1842C59.7209 38.9925 59.3241 39.2203 59.3351 39.5817L59.3882 41.3074C59.3998 41.6844 59.5992 42.0308 59.9188 42.231L72.5309 50.1302C72.8374 50.3221 73.234 50.0951 73.2231 49.7337L73.1701 48.008C73.1585 47.631 72.9591 47.2846 72.6395 47.0844L60.0273 39.1842Z" fill="#FD9800"/>
<mask id="mask0_118_1854" style="mask-type:alpha" maskUnits="userSpaceOnUse" x="58" y="50" width="17" height="11">
<path d="M74.6102 54.3855C74.6182 54.5803 74.6088 55.904 74.5169 56.0757C74.425 56.2475 74.2888 56.3914 74.1226 56.4923L69.0339 59.6534C68.3496 60.0784 67.5658 60.3152 66.7613 60.3399C65.9568 60.3647 65.1599 60.1765 64.4507 59.7943L59.1774 56.952C59.0066 56.8599 58.8629 56.7243 58.7609 56.5589C58.6588 56.3934 58.5672 55.0737 58.5612 54.8792C58.5552 54.6848 58.6004 54.4922 58.692 54.3208C58.7837 54.1494 58.9188 54.0052 59.0836 53.9028L64.1723 50.7417C64.8566 50.3165 65.6404 50.0797 66.4449 50.0549C67.2494 50.0302 68.0463 50.2184 68.7555 50.6007L74.0288 53.4431C74.2009 53.5336 74.3456 53.6688 74.4479 53.8345C74.5502 54.0003 74.6062 54.1906 74.6102 54.3855Z" fill="#E57904"/>
<path d="M74.6102 54.3855C74.6182 54.5803 74.6088 55.904 74.5169 56.0757C74.425 56.2475 74.2888 56.3914 74.1226 56.4923L69.0339 59.6534C68.3496 60.0784 67.5658 60.3152 66.7613 60.3399C65.9568 60.3647 65.1599 60.1765 64.4507 59.7943L59.1774 56.952C59.0066 56.8599 58.8629 56.7243 58.7609 56.5589C58.6588 56.3934 58.5672 55.0737 58.5612 54.8792C58.5552 54.6848 58.6004 54.4922 58.692 54.3208C58.7837 54.1494 58.9188 54.0052 59.0836 53.9028L64.1723 50.7417C64.8566 50.3165 65.6404 50.0797 66.4449 50.0549C67.2494 50.0302 68.0463 50.2184 68.7555 50.6007L74.0288 53.4431C74.2009 53.5336 74.3456 53.6688 74.4479 53.8345C74.5502 54.0003 74.6062 54.1906 74.6102 54.3855Z" fill="url(#paint3_linear_118_1854)"/>
</mask>
<g mask="url(#mask0_118_1854)">
<path d="M66.3043 54.3868L78.7485 51.4288L78.7485 61.3673L67.1099 60.9994L67.1099 59.4889L66.3043 54.3868Z" fill="url(#paint4_linear_118_1854)"/>
</g>
<g filter="url(#filter2_i_118_1854)">
<path d="M74.61 54.3851C74.618 54.5799 74.6086 55.9036 74.5167 56.0754C74.4248 56.2472 74.2886 56.391 74.1224 56.492L69.0337 59.653C68.3494 60.078 67.5656 60.3148 66.7611 60.3396C65.9566 60.3643 65.1597 60.1761 64.4505 59.794L59.1772 56.9516C59.0064 56.8595 58.8628 56.7239 58.7607 56.5585C58.6586 56.3931 58.567 55.0733 58.561 54.8789C58.555 54.6844 58.6002 54.4918 58.6919 54.3204C58.7836 54.149 58.9186 54.0048 59.0834 53.9024L64.1721 50.7413C64.8564 50.3162 65.6402 50.0793 66.4447 50.0546C67.2493 50.0298 68.0462 50.2181 68.7553 50.6004L74.0286 53.4427C74.2007 53.5332 74.3455 53.6684 74.4477 53.8342C74.55 53.9999 74.606 54.1902 74.61 54.3851Z" fill="#D9D9D9" fill-opacity="0.01"/>
</g>
<g filter="url(#filter3_d_118_1854)">
<path d="M65.9725 36.101C68.4178 36.0258 71.2796 37.6917 73.5448 38.4631C74.176 38.8036 74.7066 39.3037 75.0842 39.9135C75.4618 40.5235 75.6733 41.2217 75.6966 41.9386L75.8886 48.1818C75.9095 48.8989 75.7413 49.6086 75.4019 50.2407C75.0624 50.8727 74.5638 51.4053 73.9545 51.784L68.6438 55.0708C68.0335 55.4485 67.3341 55.659 66.6167 55.6813C65.8995 55.7031 65.1891 55.5359 64.5569 55.1966L59.0543 52.2423C58.4229 51.9018 57.8924 51.4008 57.5148 50.7909C57.1372 50.1809 56.9257 49.4828 56.9025 48.7658L56.7104 42.5226C56.6896 41.8057 56.8569 41.0956 57.1962 40.4637C57.2409 40.3804 57.2889 40.2987 57.3391 40.219C57.3638 40.1382 57.4032 40.0596 57.457 39.9858C57.51 39.9131 57.5757 39.8456 57.6521 39.7863C57.9329 39.4477 58.2679 39.1555 58.6446 38.9214C60.8308 38.0103 63.5496 36.1757 65.9725 36.101Z" fill="url(#paint5_linear_118_1854)"/>
</g>
<path d="M58.6433 43.4492C57.4569 42.8851 56.5751 41.6281 57.1967 40.4708V40.4708C57.5361 39.8387 58.0355 39.3067 58.645 38.9281C59.277 38.6647 59.9534 38.3241 60.6544 37.9713C62.3783 37.1035 64.2502 36.1612 65.9727 36.1082C67.7067 36.0549 69.6498 36.8768 71.4412 37.6345C72.176 37.9454 72.8854 38.2454 73.5443 38.4698C74.1758 38.8103 74.707 39.3106 75.0847 39.9206V39.9206C75.78 41.0438 74.9939 42.3673 73.8607 43.0463L70.022 45.3467C68.9816 45.8509 67.7928 46.1361 66.5748 46.1736C65.3569 46.211 64.1527 45.9995 63.0834 45.5601L58.6433 43.4492Z" fill="url(#paint6_linear_118_1854)"/>
<path d="M75.7521 44.5037C75.7728 45.085 75.6047 45.6607 75.2653 46.173C74.9257 46.6854 74.4265 47.1173 73.8171 47.4243L68.5059 50.0899C67.8957 50.396 67.1971 50.5666 66.4799 50.5848C65.7626 50.6026 65.0514 50.4671 64.4191 50.1921L60.6355 48.5996C60.0041 48.3237 59.473 47.9185 59.0954 47.4241C59.0137 47.3171 58.9413 47.2054 58.8754 47.0923C58.8896 47.0987 58.9031 47.1065 58.9174 47.1128L64.4195 49.5075C65.0517 49.7825 65.7621 49.9171 66.4794 49.8993C67.1967 49.8811 67.8959 49.7106 68.5063 49.4044L73.8175 46.7387C74.4269 46.4317 74.9261 45.9999 75.2656 45.4875C75.5366 45.0785 75.6955 44.629 75.7391 44.1687L75.7521 44.5037Z" fill="#D35F00"/>
<path d="M64.9614 41.9314L67.8547 41.8424L68.1485 51.3938C68.1645 51.9136 67.7561 52.348 67.2363 52.364L66.2254 52.3951C65.7055 52.4111 65.2712 52.0026 65.2552 51.4828L64.9614 41.9314Z" fill="url(#paint7_linear_118_1854)"/>
<path opacity="0.4" d="M72.3687 38.8598C72.3733 38.9555 72.3371 39.051 72.2639 39.1362C72.1908 39.2214 72.0834 39.2934 71.9529 39.3444L67.9583 40.9431C67.4211 41.1581 66.808 41.2814 66.1807 41.3007C65.5534 41.32 64.9339 41.2346 64.3845 41.0531L60.2992 39.7029C60.1668 39.6591 60.0561 39.5938 59.978 39.5134C59.8999 39.433 59.8573 39.3403 59.8543 39.2448C59.8514 39.1493 59.8883 39.0542 59.9613 38.9692C60.0343 38.8841 60.1408 38.8121 60.2702 38.7603L64.2648 37.1616C64.8019 36.9465 65.415 36.8232 66.0424 36.8039C66.6697 36.7846 67.2892 36.87 67.8386 37.0516L71.9239 38.4018C72.0572 38.4448 72.1689 38.5099 72.2471 38.5905C72.3254 38.6711 72.3674 38.7641 72.3687 38.8598Z" fill="url(#paint8_linear_118_1854)"/>
<path opacity="0.45" d="M66.0863 38.2331C66.7134 38.2138 67.333 38.299 67.8822 38.4805L71.2928 39.608L67.9585 40.9432C67.4213 41.1581 66.8082 41.2817 66.1809 41.301C65.5536 41.3203 64.9343 41.2341 64.385 41.0526L60.9734 39.9251L64.3087 38.5909C64.8458 38.3759 65.459 38.2524 66.0863 38.2331Z" fill="#D00000"/>
<path d="M56.812 45.9407L58.2669 46.6871L57.9679 47.2579L56.832 46.6284L56.812 45.9407Z" fill="#D35F00"/>
<g filter="url(#filter4_d_118_1854)">
<path d="M60.0994 44.6831C60.6053 44.2267 61.4011 44.3404 61.7589 44.9202L64.4015 49.2021C64.7061 49.6957 64.5713 50.3414 64.0947 50.6719L62.2 51.9858C61.6947 52.3362 60.9999 52.2002 60.6641 51.6851L58.0898 47.7369C57.7964 47.287 57.8741 46.6905 58.273 46.3307L60.0994 44.6831Z" fill="#D35F00"/>
<path d="M60.1306 44.7173C60.6148 44.2807 61.3764 44.3897 61.719 44.9444L64.3621 49.2266C64.6536 49.6991 64.5244 50.3175 64.0682 50.6339L62.1735 51.9474C61.6898 52.2829 61.0245 52.1527 60.703 51.6596L58.1284 47.7112C57.8479 47.2807 57.9224 46.7098 58.3038 46.3655L60.1306 44.7173Z" stroke="black" stroke-opacity="0.24" stroke-width="0.0931985"/>
</g>
<g filter="url(#filter5_d_118_1854)">
<ellipse cx="60.9641" cy="45.9884" rx="0.585087" ry="0.81842" transform="rotate(144.144 60.9641 45.9884)" fill="#FDB90E"/>
</g>
<g filter="url(#filter6_d_118_1854)">
<ellipse cx="61.1313" cy="48.2943" rx="0.585087" ry="0.81842" transform="rotate(144.144 61.1313 48.2943)" fill="#FDB90E"/>
</g>
<g filter="url(#filter7_d_118_1854)">
<ellipse cx="59.1633" cy="47.3903" rx="0.585087" ry="0.81842" transform="rotate(144.144 59.1633 47.3903)" fill="#FDB90E"/>
</g>
<g filter="url(#filter8_d_118_1854)">
<ellipse cx="61.1574" cy="50.6076" rx="0.585087" ry="0.81842" transform="rotate(144.144 61.1574 50.6076)" fill="#FDB90E"/>
</g>
<g filter="url(#filter9_d_118_1854)">
<ellipse cx="63.1727" cy="49.1943" rx="0.585087" ry="0.81842" transform="rotate(144.144 63.1727 49.1943)" fill="#FDB90E"/>
</g>
<rect x="71.3334" y="45.8895" width="1.52956" height="5.23076" fill="black" fill-opacity="0.22"/>
<path d="M71.6616 50.1096C71.2492 50.3759 71.2624 50.9835 71.6859 51.2317L75.0257 53.1888C75.3323 53.3801 76.6629 52.4185 76.6518 52.0573L76.6518 47.5441C76.6402 47.1665 76.4021 46.1956 75.4242 45.7452L73.4269 44.7831C73.1013 44.6262 72.7253 44.6115 72.3884 44.7423L71.8555 44.9492C70.7827 45.3657 71.1047 46.9617 72.2551 46.9296L73.6516 46.8907C73.9713 47.0909 74.17 47.4373 74.1816 47.8143L74.2347 49.5399C74.2458 49.9015 73.4246 49.8284 73.118 49.6364V49.6364C72.8797 49.5029 72.587 49.5121 72.3575 49.6603L71.6616 50.1096Z" fill="url(#paint9_linear_118_1854)"/>
<g filter="url(#filter10_d_118_1854)">
<path d="M71.2683 50.7253C71.2748 50.9392 71.3915 51.1345 71.5768 51.2416L74.829 53.1217C75.1356 53.3129 75.5316 53.085 75.5205 52.7239L75.367 47.7315C75.3553 47.3536 75.156 47.0071 74.8354 46.8066L72.3036 45.3369C71.7706 45.0276 71.1052 45.4244 71.1242 46.0404V46.0404C71.1328 46.3218 71.2915 46.5771 71.54 46.7095L72.8761 47.421C73.1958 47.6215 73.3945 47.9681 73.4061 48.3451L73.4592 50.0704C73.4703 50.4316 73.0736 50.6594 72.767 50.4674L72.1713 50.1578C71.7523 49.94 71.2537 50.2533 71.2683 50.7253V50.7253Z" fill="#E0660D"/>
<path d="M71.2683 50.7253C71.2748 50.9392 71.3915 51.1345 71.5768 51.2416L74.829 53.1217C75.1356 53.3129 75.5316 53.085 75.5205 52.7239L75.367 47.7315C75.3553 47.3536 75.156 47.0071 74.8354 46.8066L72.3036 45.3369C71.7706 45.0276 71.1052 45.4244 71.1242 46.0404V46.0404C71.1328 46.3218 71.2915 46.5771 71.54 46.7095L72.8761 47.421C73.1958 47.6215 73.3945 47.9681 73.4061 48.3451L73.4592 50.0704C73.4703 50.4316 73.0736 50.6594 72.767 50.4674L72.1713 50.1578C71.7523 49.94 71.2537 50.2533 71.2683 50.7253V50.7253Z" fill="url(#paint10_linear_118_1854)"/>
</g>
<path d="M94.8145 52.5V45.944H92.1525V44.745H98.9065V45.944H96.2445V52.5H94.8145ZM101.931 52.61C101.366 52.61 100.875 52.4963 100.457 52.269C100.046 52.0343 99.7238 51.708 99.4891 51.29C99.2618 50.8647 99.1481 50.366 99.1481 49.794C99.1481 49.222 99.2618 48.727 99.4891 48.309C99.7238 47.8837 100.046 47.5573 100.457 47.33C100.875 47.1027 101.366 46.989 101.931 46.989C102.496 46.989 102.987 47.1027 103.405 47.33C103.823 47.5573 104.146 47.8837 104.373 48.309C104.6 48.727 104.714 49.222 104.714 49.794C104.714 50.366 104.6 50.8647 104.373 51.29C104.146 51.708 103.823 52.0343 103.405 52.269C102.987 52.4963 102.496 52.61 101.931 52.61ZM101.931 51.521C102.349 51.521 102.683 51.3743 102.932 51.081C103.189 50.7877 103.317 50.355 103.317 49.783C103.317 49.2183 103.189 48.793 102.932 48.507C102.683 48.2137 102.349 48.067 101.931 48.067C101.513 48.067 101.179 48.2137 100.93 48.507C100.681 48.793 100.556 49.2183 100.556 49.783C100.556 50.355 100.681 50.7877 100.93 51.081C101.179 51.3743 101.513 51.521 101.931 51.521ZM108.456 52.61C108.008 52.61 107.634 52.5293 107.334 52.368C107.04 52.1993 106.82 51.95 106.674 51.62C106.527 51.2827 106.454 50.8647 106.454 50.366V47.099H107.851V50.366C107.851 50.6153 107.884 50.8243 107.95 50.993C108.023 51.1617 108.133 51.29 108.28 51.378C108.426 51.4587 108.613 51.499 108.841 51.499C109.09 51.499 109.31 51.4403 109.501 51.323C109.691 51.2057 109.838 51.0443 109.941 50.839C110.051 50.6337 110.106 50.3917 110.106 50.113V47.099H111.514V52.5H110.161V51.378H110.282C110.12 51.774 109.882 52.0783 109.567 52.291C109.259 52.5037 108.888 52.61 108.456 52.61ZM113.57 52.5V47.099H114.912V48.408H114.824C114.934 47.968 115.14 47.6307 115.44 47.396C115.748 47.1613 116.148 47.0257 116.639 46.989L117.101 46.956L117.2 48.166L116.353 48.243C115.906 48.287 115.565 48.43 115.33 48.672C115.103 48.9067 114.989 49.2293 114.989 49.64V52.5H113.57ZM118.603 52.5V47.099H119.956V48.177H119.868C120.029 47.7883 120.282 47.495 120.627 47.297C120.971 47.0917 121.36 46.989 121.793 46.989C122.225 46.989 122.585 47.0697 122.871 47.231C123.157 47.3923 123.369 47.6417 123.509 47.979C123.655 48.309 123.729 48.727 123.729 49.233V52.5H122.332V49.299C122.332 49.0203 122.295 48.793 122.222 48.617C122.156 48.441 122.049 48.3127 121.903 48.232C121.756 48.144 121.569 48.1 121.342 48.1C121.078 48.1 120.843 48.1587 120.638 48.276C120.44 48.386 120.286 48.5473 120.176 48.76C120.066 48.9653 120.011 49.2073 120.011 49.486V52.5H118.603ZM127.555 52.61C127.167 52.61 126.818 52.5367 126.51 52.39C126.202 52.236 125.96 52.0307 125.784 51.774C125.608 51.51 125.52 51.2167 125.52 50.894C125.52 50.498 125.627 50.1827 125.839 49.948C126.052 49.7133 126.393 49.5447 126.862 49.442C127.332 49.332 127.955 49.277 128.732 49.277H129.326V50.091H128.754C128.41 50.091 128.12 50.1057 127.885 50.135C127.651 50.157 127.46 50.1973 127.313 50.256C127.167 50.3073 127.06 50.3807 126.994 50.476C126.928 50.5713 126.895 50.6887 126.895 50.828C126.895 51.07 126.98 51.2643 127.148 51.411C127.324 51.5577 127.563 51.631 127.863 51.631C128.105 51.631 128.322 51.576 128.512 51.466C128.71 51.3487 128.868 51.191 128.985 50.993C129.103 50.7877 129.161 50.5603 129.161 50.311V49.057C129.161 48.6903 129.073 48.43 128.897 48.276C128.721 48.122 128.435 48.045 128.039 48.045C127.739 48.045 127.431 48.089 127.115 48.177C126.8 48.265 126.477 48.4043 126.147 48.595L125.74 47.638C125.946 47.506 126.18 47.3923 126.444 47.297C126.708 47.1943 126.987 47.1173 127.28 47.066C127.574 47.0147 127.856 46.989 128.127 46.989C128.655 46.989 129.092 47.0697 129.436 47.231C129.788 47.385 130.052 47.627 130.228 47.957C130.404 48.287 130.492 48.7123 130.492 49.233V52.5H129.216V51.356H129.282C129.216 51.6127 129.103 51.8363 128.941 52.027C128.787 52.2103 128.593 52.3533 128.358 52.456C128.131 52.5587 127.863 52.61 127.555 52.61ZM132.557 52.5V47.099H133.899V48.188H133.811C133.906 47.9387 134.038 47.726 134.207 47.55C134.383 47.3667 134.588 47.2273 134.823 47.132C135.065 47.0367 135.329 46.989 135.615 46.989C136.055 46.989 136.414 47.0917 136.693 47.297C136.979 47.5023 137.177 47.814 137.287 48.232H137.166C137.312 47.8507 137.551 47.55 137.881 47.33C138.218 47.1027 138.61 46.989 139.058 46.989C139.476 46.989 139.82 47.0697 140.092 47.231C140.363 47.3923 140.565 47.638 140.697 47.968C140.836 48.298 140.906 48.7197 140.906 49.233V52.5H139.509V49.288C139.509 48.8773 139.439 48.5767 139.3 48.386C139.168 48.1953 138.937 48.1 138.607 48.1C138.365 48.1 138.152 48.1587 137.969 48.276C137.793 48.386 137.657 48.5473 137.562 48.76C137.474 48.9727 137.43 49.2257 137.43 49.519V52.5H136.033V49.288C136.033 48.8773 135.963 48.5767 135.824 48.386C135.684 48.1953 135.457 48.1 135.142 48.1C134.892 48.1 134.68 48.1587 134.504 48.276C134.328 48.3933 134.192 48.5583 134.097 48.771C134.001 48.9763 133.954 49.222 133.954 49.508V52.5H132.557ZM145.676 52.61C145.053 52.61 144.518 52.4963 144.07 52.269C143.623 52.0417 143.278 51.719 143.036 51.301C142.794 50.8757 142.673 50.377 142.673 49.805C142.673 49.2477 142.787 48.76 143.014 48.342C143.249 47.9167 143.572 47.5867 143.982 47.352C144.4 47.11 144.877 46.989 145.412 46.989C145.933 46.989 146.38 47.099 146.754 47.319C147.128 47.539 147.418 47.8543 147.623 48.265C147.829 48.6683 147.931 49.156 147.931 49.728V50.135H143.795V49.321H146.941L146.765 49.486C146.765 48.9873 146.652 48.606 146.424 48.342C146.197 48.078 145.874 47.946 145.456 47.946C145.156 47.946 144.895 48.0157 144.675 48.155C144.455 48.2943 144.287 48.4923 144.169 48.749C144.052 49.0057 143.993 49.31 143.993 49.662V49.761C143.993 50.1643 144.056 50.498 144.18 50.762C144.312 51.0187 144.507 51.213 144.763 51.345C145.02 51.477 145.335 51.543 145.709 51.543C146.01 51.543 146.311 51.499 146.611 51.411C146.912 51.323 147.187 51.18 147.436 50.982L147.832 51.928C147.561 52.148 147.231 52.3167 146.842 52.434C146.454 52.5513 146.065 52.61 145.676 52.61ZM149.646 52.5V47.099H150.999V48.177H150.911C151.072 47.7883 151.325 47.495 151.67 47.297C152.015 47.0917 152.403 46.989 152.836 46.989C153.269 46.989 153.628 47.0697 153.914 47.231C154.2 47.3923 154.413 47.6417 154.552 47.979C154.699 48.309 154.772 48.727 154.772 49.233V52.5H153.375V49.299C153.375 49.0203 153.338 48.793 153.265 48.617C153.199 48.441 153.093 48.3127 152.946 48.232C152.799 48.144 152.612 48.1 152.385 48.1C152.121 48.1 151.886 48.1587 151.681 48.276C151.483 48.386 151.329 48.5473 151.219 48.76C151.109 48.9653 151.054 49.2073 151.054 49.486V52.5H149.646ZM159.303 52.61C158.569 52.61 158.023 52.4303 157.664 52.071C157.312 51.7043 157.136 51.1727 157.136 50.476V48.166H156.091V47.099H157.147V45.504H158.533V47.099H160.227V48.166H158.533V50.399C158.533 50.751 158.61 51.015 158.764 51.191C158.925 51.367 159.178 51.455 159.523 51.455C159.633 51.455 159.746 51.4403 159.864 51.411C159.981 51.3817 160.102 51.3523 160.227 51.323L160.436 52.357C160.289 52.4377 160.113 52.5 159.908 52.544C159.702 52.588 159.501 52.61 159.303 52.61ZM163.765 52.61C163.464 52.61 163.167 52.5843 162.874 52.533C162.588 52.4817 162.324 52.412 162.082 52.324C161.847 52.2287 161.638 52.1113 161.455 51.972L161.818 51.048C162.001 51.1653 162.199 51.268 162.412 51.356C162.632 51.4367 162.855 51.499 163.083 51.543C163.317 51.587 163.545 51.609 163.765 51.609C164.131 51.609 164.403 51.554 164.579 51.444C164.762 51.3267 164.854 51.169 164.854 50.971C164.854 50.8023 164.795 50.674 164.678 50.586C164.568 50.498 164.395 50.432 164.161 50.388L163.028 50.19C162.558 50.102 162.203 49.9297 161.961 49.673C161.719 49.4163 161.598 49.0937 161.598 48.705C161.598 48.353 161.693 48.0487 161.884 47.792C162.074 47.5353 162.346 47.3373 162.698 47.198C163.05 47.0587 163.46 46.989 163.93 46.989C164.194 46.989 164.45 47.011 164.7 47.055C164.949 47.099 165.184 47.1687 165.404 47.264C165.624 47.352 165.814 47.4693 165.976 47.616L165.591 48.54C165.451 48.4227 165.286 48.3237 165.096 48.243C164.912 48.1623 164.722 48.1 164.524 48.056C164.326 48.012 164.131 47.99 163.941 47.99C163.574 47.99 163.299 48.0487 163.116 48.166C162.94 48.2833 162.852 48.4447 162.852 48.65C162.852 48.804 162.903 48.9287 163.006 49.024C163.116 49.1193 163.281 49.1853 163.501 49.222L164.612 49.431C165.11 49.519 165.484 49.684 165.734 49.926C165.99 50.168 166.119 50.4907 166.119 50.894C166.119 51.2533 166.02 51.5613 165.822 51.818C165.631 52.0747 165.36 52.2727 165.008 52.412C164.656 52.544 164.241 52.61 163.765 52.61Z" fill="#202224"/>
<mask id="mask1_118_1854" style="mask-type:alpha" maskUnits="userSpaceOnUse" x="27" y="27" width="30" height="44">
<path d="M28.2632 34.49C28.2632 30.9057 31.1689 28 34.7532 28H43.772C50.6707 28 56.2632 33.5925 56.2632 40.4912V57.5088C56.2632 64.4075 50.6707 70 43.772 70H34.7532C31.1689 70 28.2632 67.0943 28.2632 63.51V34.49Z" fill="white" stroke="url(#paint11_linear_118_1854)" stroke-opacity="0.3" stroke-width="1.30158"/>
</mask>
<g mask="url(#mask1_118_1854)">
<rect x="27.2632" y="27.1923" width="14" height="43.6154" fill="#587ED7"/>
</g>
<defs>
<filter id="filter0_d_118_1854" x="0.560465" y="0.297343" width="215.168" height="104.168" filterUnits="userSpaceOnUse" color-interpolation-filters="sRGB">
<feFlood flood-opacity="0" result="BackgroundImageFix"/>
<feColorMatrix in="SourceAlpha" type="matrix" values="0 0 0 0 0 0 0 0 0 0 0 0 0 0 0 0 0 0 127 0" result="hardAlpha"/>
<feOffset dx="3.38149" dy="3.38149"/>
<feGaussianBlur stdDeviation="15.2167"/>
<feColorMatrix type="matrix" values="0 0 0 0 0 0 0 0 0 0 0 0 0 0 0 0 0 0 0.05 0"/>
<feBlend mode="normal" in2="BackgroundImageFix" result="effect1_dropShadow_118_1854"/>
<feBlend mode="normal" in="SourceGraphic" in2="effect1_dropShadow_118_1854" result="shape"/>
</filter>
<filter id="filter1_d_118_1854" x="55.4818" y="34.7174" width="22.524" height="28.3398" filterUnits="userSpaceOnUse" color-interpolation-filters="sRGB">
<feFlood flood-opacity="0" result="BackgroundImageFix"/>
<feColorMatrix in="SourceAlpha" type="matrix" values="0 0 0 0 0 0 0 0 0 0 0 0 0 0 0 0 0 0 127 0" result="hardAlpha"/>
<feOffset dy="1.30988"/>
<feComposite in2="hardAlpha" operator="out"/>
<feColorMatrix type="matrix" values="0 0 0 0 0.263166 0 0 0 0 0.00521065 0 0 0 0 0.00105008 0 0 0 1 0"/>
<feBlend mode="normal" in2="BackgroundImageFix" result="effect1_dropShadow_118_1854"/>
<feBlend mode="normal" in="SourceGraphic" in2="effect1_dropShadow_118_1854" result="shape"/>
</filter>
<filter id="filter2_i_118_1854" x="58.5605" y="50.0524" width="16.0518" height="10.2893" filterUnits="userSpaceOnUse" color-interpolation-filters="sRGB">
<feFlood flood-opacity="0" result="BackgroundImageFix"/>
<feBlend mode="normal" in="SourceGraphic" in2="BackgroundImageFix" result="shape"/>
<feColorMatrix in="SourceAlpha" type="matrix" values="0 0 0 0 0 0 0 0 0 0 0 0 0 0 0 0 0 0 127 0" result="hardAlpha"/>
<feOffset dy="-0.838786"/>
<feComposite in2="hardAlpha" operator="arithmetic" k2="-1" k3="1"/>
<feColorMatrix type="matrix" values="0 0 0 0 1 0 0 0 0 0.849187 0 0 0 0 0.0574204 0 0 0 0.33 0"/>
<feBlend mode="normal" in2="shape" result="effect1_innerShadow_118_1854"/>
</filter>
<filter id="filter3_d_118_1854" x="56.7087" y="36.0986" width="19.1816" height="21.0843" filterUnits="userSpaceOnUse" color-interpolation-filters="sRGB">
<feFlood flood-opacity="0" result="BackgroundImageFix"/>
<feColorMatrix in="SourceAlpha" type="matrix" values="0 0 0 0 0 0 0 0 0 0 0 0 0 0 0 0 0 0 127 0" result="hardAlpha"/>
<feOffset dy="1.49966"/>
<feComposite in2="hardAlpha" operator="out"/>
<feColorMatrix type="matrix" values="0 0 0 0 0.244828 0 0 0 0 0.127311 0 0 0 0 0 0 0 0 0.51 0"/>
<feBlend mode="normal" in2="BackgroundImageFix" result="effect1_dropShadow_118_1854"/>
<feBlend mode="normal" in="SourceGraphic" in2="effect1_dropShadow_118_1854" result="shape"/>
</filter>
<filter id="filter4_d_118_1854" x="57.9126" y="44.402" width="6.65161" height="7.87164" filterUnits="userSpaceOnUse" color-interpolation-filters="sRGB">
<feFlood flood-opacity="0" result="BackgroundImageFix"/>
<feColorMatrix in="SourceAlpha" type="matrix" values="0 0 0 0 0 0 0 0 0 0 0 0 0 0 0 0 0 0 127 0" result="hardAlpha"/>
<feOffset dy="0.0931985"/>
<feComposite in2="hardAlpha" operator="out"/>
<feColorMatrix type="matrix" values="0 0 0 0 1 0 0 0 0 1 0 0 0 0 1 0 0 0 0.25 0"/>
<feBlend mode="normal" in2="BackgroundImageFix" result="effect1_dropShadow_118_1854"/>
<feBlend mode="normal" in="SourceGraphic" in2="effect1_dropShadow_118_1854" result="shape"/>
</filter>
<filter id="filter5_d_118_1854" x="60.2897" y="45.2416" width="1.34863" height="1.58673" filterUnits="userSpaceOnUse" color-interpolation-filters="sRGB">
<feFlood flood-opacity="0" result="BackgroundImageFix"/>
<feColorMatrix in="SourceAlpha" type="matrix" values="0 0 0 0 0 0 0 0 0 0 0 0 0 0 0 0 0 0 127 0" result="hardAlpha"/>
<feOffset dy="0.0931985"/>
<feComposite in2="hardAlpha" operator="out"/>
<feColorMatrix type="matrix" values="0 0 0 0 0 0 0 0 0 0 0 0 0 0 0 0 0 0 0.25 0"/>
<feBlend mode="normal" in2="BackgroundImageFix" result="effect1_dropShadow_118_1854"/>
<feBlend mode="normal" in="SourceGraphic" in2="effect1_dropShadow_118_1854" result="shape"/>
</filter>
<filter id="filter6_d_118_1854" x="60.457" y="47.5475" width="1.34863" height="1.58673" filterUnits="userSpaceOnUse" color-interpolation-filters="sRGB">
<feFlood flood-opacity="0" result="BackgroundImageFix"/>
<feColorMatrix in="SourceAlpha" type="matrix" values="0 0 0 0 0 0 0 0 0 0 0 0 0 0 0 0 0 0 127 0" result="hardAlpha"/>
<feOffset dy="0.0931985"/>
<feComposite in2="hardAlpha" operator="out"/>
<feColorMatrix type="matrix" values="0 0 0 0 0 0 0 0 0 0 0 0 0 0 0 0 0 0 0.25 0"/>
<feBlend mode="normal" in2="BackgroundImageFix" result="effect1_dropShadow_118_1854"/>
<feBlend mode="normal" in="SourceGraphic" in2="effect1_dropShadow_118_1854" result="shape"/>
</filter>
<filter id="filter7_d_118_1854" x="58.489" y="46.6436" width="1.34863" height="1.58673" filterUnits="userSpaceOnUse" color-interpolation-filters="sRGB">
<feFlood flood-opacity="0" result="BackgroundImageFix"/>
<feColorMatrix in="SourceAlpha" type="matrix" values="0 0 0 0 0 0 0 0 0 0 0 0 0 0 0 0 0 0 127 0" result="hardAlpha"/>
<feOffset dy="0.0931985"/>
<feComposite in2="hardAlpha" operator="out"/>
<feColorMatrix type="matrix" values="0 0 0 0 0 0 0 0 0 0 0 0 0 0 0 0 0 0 0.25 0"/>
<feBlend mode="normal" in2="BackgroundImageFix" result="effect1_dropShadow_118_1854"/>
<feBlend mode="normal" in="SourceGraphic" in2="effect1_dropShadow_118_1854" result="shape"/>
</filter>
<filter id="filter8_d_118_1854" x="60.4831" y="49.8608" width="1.34863" height="1.58673" filterUnits="userSpaceOnUse" color-interpolation-filters="sRGB">
<feFlood flood-opacity="0" result="BackgroundImageFix"/>
<feColorMatrix in="SourceAlpha" type="matrix" values="0 0 0 0 0 0 0 0 0 0 0 0 0 0 0 0 0 0 127 0" result="hardAlpha"/>
<feOffset dy="0.0931985"/>
<feComposite in2="hardAlpha" operator="out"/>
<feColorMatrix type="matrix" values="0 0 0 0 0 0 0 0 0 0 0 0 0 0 0 0 0 0 0.25 0"/>
<feBlend mode="normal" in2="BackgroundImageFix" result="effect1_dropShadow_118_1854"/>
<feBlend mode="normal" in="SourceGraphic" in2="effect1_dropShadow_118_1854" result="shape"/>
</filter>
<filter id="filter9_d_118_1854" x="62.4984" y="48.4475" width="1.34863" height="1.58673" filterUnits="userSpaceOnUse" color-interpolation-filters="sRGB">
<feFlood flood-opacity="0" result="BackgroundImageFix"/>
<feColorMatrix in="SourceAlpha" type="matrix" values="0 0 0 0 0 0 0 0 0 0 0 0 0 0 0 0 0 0 127 0" result="hardAlpha"/>
<feOffset dy="0.0931985"/>
<feComposite in2="hardAlpha" operator="out"/>
<feColorMatrix type="matrix" values="0 0 0 0 0 0 0 0 0 0 0 0 0 0 0 0 0 0 0.25 0"/>
<feBlend mode="normal" in2="BackgroundImageFix" result="effect1_dropShadow_118_1854"/>
<feBlend mode="normal" in="SourceGraphic" in2="effect1_dropShadow_118_1854" result="shape"/>
</filter>
<filter id="filter10_d_118_1854" x="71.1238" y="45.2295" width="4.39697" height="8.33422" filterUnits="userSpaceOnUse" color-interpolation-filters="sRGB">
<feFlood flood-opacity="0" result="BackgroundImageFix"/>
<feColorMatrix in="SourceAlpha" type="matrix" values="0 0 0 0 0 0 0 0 0 0 0 0 0 0 0 0 0 0 127 0" result="hardAlpha"/>
<feOffset dy="0.372794"/>
<feComposite in2="hardAlpha" operator="out"/>
<feColorMatrix type="matrix" values="0 0 0 0 0 0 0 0 0 0 0 0 0 0 0 0 0 0 0.25 0"/>
<feBlend mode="normal" in2="BackgroundImageFix" result="effect1_dropShadow_118_1854"/>
<feBlend mode="normal" in="SourceGraphic" in2="effect1_dropShadow_118_1854" result="shape"/>
</filter>
<linearGradient id="paint0_linear_118_1854" x1="63.1505" y1="12.8299" x2="137.147" y2="98.6413" gradientUnits="userSpaceOnUse">
<stop stop-color="#F1F1F1"/>
<stop offset="1" stop-color="#E1E1E1"/>
</linearGradient>
<linearGradient id="paint1_linear_118_1854" x1="63.9421" y1="36.2263" x2="73.9388" y2="57.7516" gradientUnits="userSpaceOnUse">
<stop stop-color="#FDFD57"/>
<stop offset="1" stop-color="#FFA600"/>
</linearGradient>
<linearGradient id="paint2_linear_118_1854" x1="66.1793" y1="41.8241" x2="77.7505" y2="50.0214" gradientUnits="userSpaceOnUse">
<stop stop-color="#FFAE10"/>
<stop offset="1" stop-color="#F86800"/>
</linearGradient>
<linearGradient id="paint3_linear_118_1854" x1="66.1795" y1="41.8244" x2="77.7507" y2="50.0218" gradientUnits="userSpaceOnUse">
<stop stop-color="#FFAE10"/>
<stop offset="1" stop-color="#F86800"/>
</linearGradient>
<linearGradient id="paint4_linear_118_1854" x1="66.9891" y1="58.4184" x2="74.7709" y2="54.3197" gradientUnits="userSpaceOnUse">
<stop stop-color="#FFB800"/>
<stop offset="1" stop-color="#E76304"/>
</linearGradient>
<linearGradient id="paint5_linear_118_1854" x1="65.5549" y1="33.6649" x2="65.6059" y2="62.1776" gradientUnits="userSpaceOnUse">
<stop stop-color="#FFF6A5"/>
<stop offset="0.869792" stop-color="#FF7507"/>
<stop offset="1" stop-color="#F8862B"/>
</linearGradient>
<linearGradient id="paint6_linear_118_1854" x1="66.0149" y1="36.1069" x2="66.3134" y2="46.1816" gradientUnits="userSpaceOnUse">
<stop stop-color="#FFFCD2"/>
<stop offset="0.315" stop-color="#FDED04"/>
<stop offset="1" stop-color="#FDED04" stop-opacity="0"/>
</linearGradient>
<linearGradient id="paint7_linear_118_1854" x1="66.4081" y1="41.8869" x2="66.7308" y2="52.3795" gradientUnits="userSpaceOnUse">
<stop stop-color="#FBD211"/>
<stop offset="1" stop-color="#FBD211" stop-opacity="0"/>
</linearGradient>
<linearGradient id="paint8_linear_118_1854" x1="66.0424" y1="36.8039" x2="66.1807" y2="41.3007" gradientUnits="userSpaceOnUse">
<stop stop-color="#FF8933"/>
<stop offset="1" stop-color="#E98019"/>
</linearGradient>
<linearGradient id="paint9_linear_118_1854" x1="71.4064" y1="44.5837" x2="76.3123" y2="53.5057" gradientUnits="userSpaceOnUse">
<stop stop-color="#CCB22A"/>
<stop offset="0.16637" stop-color="#FFD600"/>
<stop offset="0.389385" stop-color="#F3FFAA"/>
<stop offset="1" stop-color="#F54710"/>
</linearGradient>
<linearGradient id="paint10_linear_118_1854" x1="73.3076" y1="52.9066" x2="75.5629" y2="47.7565" gradientUnits="userSpaceOnUse">
<stop stop-color="#FF9F10"/>
<stop offset="1" stop-color="#FFC226"/>
</linearGradient>
<linearGradient id="paint11_linear_118_1854" x1="34.6478" y1="12.8299" x2="65.0326" y2="19.2783" gradientUnits="userSpaceOnUse">
<stop stop-color="#F1F1F1"/>
<stop offset="1" stop-color="#E1E1E1"/>
</linearGradient>
</defs>
</svg>
