<svg width="216" height="105" viewBox="0 0 216 105" fill="none" xmlns="http://www.w3.org/2000/svg">
<g filter="url(#filter0_d_118_1906)">
<rect x="28.2632" y="28" width="153" height="42" rx="6.49" fill="white"/>
<rect x="28.2632" y="28" width="153" height="42" rx="6.49" stroke="url(#paint0_linear_118_1906)" stroke-opacity="0.3" stroke-width="1.30158"/>
</g>
<g filter="url(#filter1_d_118_1906)">
<mask id="path-3-outside-1_118_1906" maskUnits="userSpaceOnUse" x="54.1277" y="34.2761" width="27" height="29" fill="black">
<rect fill="white" x="54.1277" y="34.2761" width="27" height="29"/>
<path fill-rule="evenodd" clip-rule="evenodd" d="M68.8618 36.485C68.5427 36.3505 68.1919 36.2761 67.8235 36.2761C67.414 36.2761 67.0262 36.368 66.6794 36.5323C65.8449 36.9267 65.2467 37.7392 65.155 38.6994C65.1243 38.7065 65.0936 38.7137 65.0629 38.721C64.7289 38.4803 64.3189 38.3385 63.8758 38.3385C62.9188 38.3385 62.1163 39 61.9004 39.8906C61.8911 39.9288 61.8829 39.9674 61.8758 40.0064C58.4361 42.0313 56.1277 45.7725 56.1277 50.0528C56.1277 56.4868 61.3435 61.7025 67.7774 61.7025C74.2114 61.7025 79.4272 56.4868 79.4272 50.0528C79.4272 45.5638 76.8883 41.6679 73.1681 39.7226C72.8974 38.918 72.1369 38.3385 71.2411 38.3385C70.9659 38.3385 70.7035 38.3932 70.4641 38.4923C70.3052 37.584 69.6892 36.8329 68.8618 36.485Z"/>
</mask>
<path fill-rule="evenodd" clip-rule="evenodd" d="M68.8618 36.485C68.5427 36.3505 68.1919 36.2761 67.8235 36.2761C67.414 36.2761 67.0262 36.368 66.6794 36.5323C65.8449 36.9267 65.2467 37.7392 65.155 38.6994C65.1243 38.7065 65.0936 38.7137 65.0629 38.721C64.7289 38.4803 64.3189 38.3385 63.8758 38.3385C62.9188 38.3385 62.1163 39 61.9004 39.8906C61.8911 39.9288 61.8829 39.9674 61.8758 40.0064C58.4361 42.0313 56.1277 45.7725 56.1277 50.0528C56.1277 56.4868 61.3435 61.7025 67.7774 61.7025C74.2114 61.7025 79.4272 56.4868 79.4272 50.0528C79.4272 45.5638 76.8883 41.6679 73.1681 39.7226C72.8974 38.918 72.1369 38.3385 71.2411 38.3385C70.9659 38.3385 70.7035 38.3932 70.4641 38.4923C70.3052 37.584 69.6892 36.8329 68.8618 36.485Z" fill="black"/>
<path d="M67.8235 36.2761L67.8235 34.9798L67.8235 34.9798L67.8235 36.2761ZM68.8618 36.485L68.3583 37.6795L68.3594 37.68L68.8618 36.485ZM66.6794 36.5323L67.2333 37.7043L67.2342 37.7038L66.6794 36.5323ZM65.155 38.6994L65.4456 39.9627L66.3566 39.7531L66.4454 38.8226L65.155 38.6994ZM65.0629 38.721L64.305 39.7726L64.7865 40.1196L65.3638 39.9819L65.0629 38.721ZM61.9004 39.8906L63.16 40.1965L63.1602 40.196L61.9004 39.8906ZM61.8758 40.0064L62.5335 41.1234L63.0451 40.8222L63.1513 40.238L61.8758 40.0064ZM73.1681 39.7226L71.9394 40.1359L72.1056 40.6298L72.5674 40.8713L73.1681 39.7226ZM70.4641 38.4923L69.1872 38.7156L69.4657 40.3087L70.96 39.69L70.4641 38.4923ZM67.8235 36.2761V37.5724C68.0159 37.5724 68.1957 37.611 68.3583 37.6795L68.8618 36.485L69.3654 35.2906C68.8896 35.09 68.3679 34.9798 67.8235 34.9798V36.2761ZM66.6794 36.5323L67.2342 37.7038C67.4112 37.62 67.6099 37.5724 67.8236 37.5724L67.8235 36.2761L67.8235 34.9798C67.2182 34.9799 66.6412 35.1161 66.1245 35.3607L66.6794 36.5323ZM65.155 38.6994L66.4454 38.8226C66.4924 38.3306 66.7998 37.9091 67.2333 37.7043L66.6794 36.5323L66.1254 35.3603C64.8899 35.9443 64.001 37.1477 63.8646 38.5762L65.155 38.6994ZM65.0629 38.721L65.3638 39.9819C65.391 39.9754 65.4183 39.969 65.4456 39.9627L65.155 38.6994L64.8644 37.4361C64.8302 37.444 64.7961 37.452 64.762 37.4601L65.0629 38.721ZM63.8758 38.3385V39.6348C64.038 39.6348 64.1844 39.6857 64.305 39.7726L65.0629 38.721L65.8208 37.6693C65.2735 37.2749 64.5999 37.0422 63.8758 37.0422V38.3385ZM61.9004 39.8906L63.1602 40.196C63.2384 39.8733 63.5309 39.6348 63.8758 39.6348V38.3385V37.0422C62.3068 37.0422 60.9941 38.1266 60.6406 39.5853L61.9004 39.8906ZM61.8758 40.0064L63.1513 40.238C63.1538 40.224 63.1567 40.2102 63.16 40.1965L61.9004 39.8906L60.6407 39.5847C60.6255 39.6474 60.612 39.7107 60.6004 39.7747L61.8758 40.0064ZM56.1277 50.0528H57.424C57.424 46.2504 59.4731 42.9251 62.5335 41.1234L61.8758 40.0064L61.2182 38.8893C57.3991 41.1376 54.8314 45.2946 54.8314 50.0528H56.1277ZM67.7774 61.7025V60.4063C62.0594 60.4063 57.424 55.7709 57.424 50.0528H56.1277H54.8314C54.8314 57.2027 60.6275 62.9988 67.7774 62.9988V61.7025ZM79.4272 50.0528H78.1309C78.1309 55.7709 73.4955 60.4063 67.7774 60.4063V61.7025V62.9988C74.9273 62.9988 80.7235 57.2027 80.7235 50.0528H79.4272ZM73.1681 39.7226L72.5674 40.8713C75.8769 42.6018 78.1309 46.0652 78.1309 50.0528H79.4272H80.7235C80.7235 45.0625 77.8996 40.7339 73.7687 38.5739L73.1681 39.7226ZM71.2411 38.3385V39.6348C71.5636 39.6348 71.8409 39.843 71.9394 40.1359L73.1681 39.7226L74.3967 39.3092C73.9539 37.9931 72.7102 37.0422 71.2411 37.0422V38.3385ZM70.4641 38.4923L70.96 39.69C71.0449 39.6549 71.139 39.6348 71.2411 39.6348V38.3385V37.0422C70.7928 37.0422 70.362 37.1316 69.9682 37.2947L70.4641 38.4923ZM68.8618 36.485L68.3594 37.68C68.788 37.8602 69.1058 38.2503 69.1872 38.7156L70.4641 38.4923L71.741 38.2691C71.5047 36.9177 70.5903 35.8056 69.3643 35.2901L68.8618 36.485Z" fill="url(#paint1_linear_118_1906)" mask="url(#path-3-outside-1_118_1906)"/>
</g>
<g opacity="0.4" filter="url(#filter2_f_118_1906)">
<path d="M65.155 38.6993C65.2846 37.3397 66.4299 36.2762 67.8235 36.2762C69.1455 36.2762 70.244 37.2332 70.4641 38.4923C70.7034 38.3932 70.9658 38.3385 71.241 38.3385C72.1367 38.3385 72.8971 38.918 73.1679 39.7225C76.8881 41.6678 79.427 45.5637 79.427 50.0527C79.427 56.4867 74.2113 61.7025 67.7773 61.7025C61.3433 61.7025 56.1275 56.4867 56.1275 50.0527C56.1275 45.7724 58.436 42.0312 61.8758 40.0062C62.0477 39.0578 62.8777 38.3385 63.8757 38.3385C64.3188 38.3385 64.7287 38.4803 65.0627 38.7209C65.0934 38.7136 65.1242 38.7064 65.155 38.6993Z" fill="black"/>
<path d="M67.8238 36.0995C69.1609 36.0996 70.2816 37.0184 70.5934 38.2587C70.7983 38.1959 71.0157 38.162 71.2408 38.162C72.1892 38.162 72.9958 38.7599 73.3092 39.5985C77.0527 41.5835 79.6041 45.5195 79.6041 50.0526C79.6041 56.5842 74.3086 61.8788 67.7769 61.8788C61.2455 61.8786 55.9508 56.5841 55.9508 50.0526C55.9508 45.7349 58.2647 41.9578 61.7193 39.8934C61.9378 38.903 62.8194 38.162 63.8756 38.162C64.2895 38.162 64.677 38.2762 65.0084 38.4745C65.2379 37.1262 66.4102 36.0995 67.8238 36.0995Z" stroke="black" stroke-width="0.353532"/>
</g>
<path d="M67.7773 61.7026C74.2113 61.7026 79.427 56.4868 79.427 50.0528C79.427 43.6188 74.2113 38.4031 67.7773 38.4031C61.3433 38.4031 56.1275 43.6188 56.1275 50.0528C56.1275 56.4868 61.3433 61.7026 67.7773 61.7026Z" fill="url(#paint2_linear_118_1906)"/>
<g filter="url(#filter3_i_118_1906)">
<path d="M67.7943 60.8468C73.7494 60.8468 78.577 56.0192 78.577 50.0641C78.577 44.109 73.7494 39.2814 67.7943 39.2814C61.8391 39.2814 57.0115 44.109 57.0115 50.0641C57.0115 56.0192 61.8391 60.8468 67.7943 60.8468Z" fill="url(#paint3_linear_118_1906)"/>
</g>
<path d="M67.7942 59.2559C72.8707 59.2559 76.986 55.1405 76.986 50.064C76.986 44.9875 72.8707 40.8722 67.7942 40.8722C62.7177 40.8722 58.6024 44.9875 58.6024 50.064C58.6024 55.1405 62.7177 59.2559 67.7942 59.2559Z" fill="url(#paint4_linear_118_1906)"/>
<path d="M67.7942 59.2559C72.8707 59.2559 76.986 55.1405 76.986 50.064C76.986 44.9875 72.8707 40.8722 67.7942 40.8722C62.7177 40.8722 58.6024 44.9875 58.6024 50.064C58.6024 55.1405 62.7177 59.2559 67.7942 59.2559Z" fill="#FF0000" fill-opacity="0.31"/>
<path d="M67.7769 41.7557C72.3591 41.7557 76.0736 45.4705 76.0738 50.0526C76.0738 54.6349 72.3592 58.3495 67.7769 58.3495C63.1949 58.3493 59.4801 54.6347 59.4801 50.0526C59.4802 45.4706 63.195 41.7559 67.7769 41.7557Z" fill="url(#paint5_linear_118_1906)" stroke="url(#paint6_linear_118_1906)" stroke-width="0.58922"/>
<path d="M67.8233 36.2761C69.1456 36.2761 70.2413 37.2345 70.461 38.4939C70.701 38.3941 70.9642 38.3387 71.2403 38.3386C72.3629 38.3386 73.2735 39.2493 73.2735 40.3718C73.2733 41.4942 72.3628 42.4041 71.2403 42.4041C70.3936 42.4039 69.6688 41.8855 69.3634 41.1492C68.9274 41.4561 68.397 41.6384 67.8233 41.6384C67.0496 41.6384 66.3546 41.3082 65.8653 40.7839C65.6746 41.7087 64.8563 42.4041 63.8751 42.4041C62.7528 42.4038 61.8431 41.4941 61.8429 40.3718C61.8429 39.2494 62.7527 38.3388 63.8751 38.3386C64.3582 38.3386 64.8017 38.5083 65.1505 38.7898C65.237 37.3874 66.3991 36.2761 67.8233 36.2761Z" fill="url(#paint7_linear_118_1906)"/>
<g filter="url(#filter4_d_118_1906)">
<path d="M63.8755 42.4037C64.9981 42.4037 65.9081 41.4937 65.9081 40.3711C65.9081 39.2485 64.9981 38.3385 63.8755 38.3385C62.7529 38.3385 61.8429 39.2485 61.8429 40.3711C61.8429 41.4937 62.7529 42.4037 63.8755 42.4037Z" fill="url(#paint8_linear_118_1906)"/>
<path d="M63.8755 42.4037C64.9981 42.4037 65.9081 41.4937 65.9081 40.3711C65.9081 39.2485 64.9981 38.3385 63.8755 38.3385C62.7529 38.3385 61.8429 39.2485 61.8429 40.3711C61.8429 41.4937 62.7529 42.4037 63.8755 42.4037Z" fill="url(#paint9_linear_118_1906)"/>
</g>
<g filter="url(#filter5_i_118_1906)">
<path d="M63.8756 41.7158C64.6776 41.7158 65.3277 41.0656 65.3277 40.2637C65.3277 39.4617 64.6776 38.8115 63.8756 38.8115C63.0736 38.8115 62.4234 39.4617 62.4234 40.2637C62.4234 41.0656 63.0736 41.7158 63.8756 41.7158Z" fill="url(#paint10_linear_118_1906)"/>
</g>
<g filter="url(#filter6_d_118_1906)">
<path d="M71.2408 42.4037C72.3633 42.4037 73.2734 41.4937 73.2734 40.3711C73.2734 39.2485 72.3633 38.3385 71.2408 38.3385C70.1182 38.3385 69.2082 39.2485 69.2082 40.3711C69.2082 41.4937 70.1182 42.4037 71.2408 42.4037Z" fill="url(#paint11_linear_118_1906)"/>
</g>
<g filter="url(#filter7_i_118_1906)">
<path d="M71.2408 41.7158C72.0428 41.7158 72.6929 41.0656 72.6929 40.2637C72.6929 39.4617 72.0428 38.8115 71.2408 38.8115C70.4388 38.8115 69.7887 39.4617 69.7887 40.2637C69.7887 41.0656 70.4388 41.7158 71.2408 41.7158Z" fill="url(#paint12_linear_118_1906)"/>
</g>
<g filter="url(#filter8_d_118_1906)">
<path d="M67.8237 41.638C69.3042 41.638 70.5044 40.4378 70.5044 38.9572C70.5044 37.4767 69.3042 36.2765 67.8237 36.2765C66.3431 36.2765 65.1429 37.4767 65.1429 38.9572C65.1429 40.4378 66.3431 41.638 67.8237 41.638Z" fill="url(#paint13_linear_118_1906)"/>
</g>
<g filter="url(#filter9_i_118_1906)">
<path d="M67.8236 40.872C69.0113 40.872 69.974 39.9092 69.974 38.7216C69.974 37.5339 69.0113 36.5712 67.8236 36.5712C66.636 36.5712 65.6732 37.5339 65.6732 38.7216C65.6732 39.9092 66.636 40.872 67.8236 40.872Z" fill="url(#paint14_linear_118_1906)"/>
</g>
<path d="M65.5132 44.8651C66.0244 44.1877 65.4727 43.325 64.709 43.6951V43.6951C64.5811 43.7571 64.4748 43.8495 64.3892 43.9629L61.1718 48.2266C60.971 48.4926 60.8265 48.7994 60.7833 49.1299C60.7439 49.4319 60.7236 49.7399 60.7236 50.0526V50.0526C60.7236 50.447 61.2027 50.5774 61.4402 50.2626L65.5132 44.8651Z" fill="url(#paint15_linear_118_1906)"/>
<path d="M62.4424 52.655C62.0888 53.1236 61.377 53.081 61.1709 52.5313V52.5313C61.078 52.2836 61.1284 52.0045 61.2878 51.7933L67.6746 43.3295C67.8339 43.1184 68.0918 42.9936 68.3554 43.0147V43.0147C68.941 43.0616 69.1745 43.7337 68.8206 44.2026L62.4424 52.655Z" fill="url(#paint16_linear_118_1906)"/>
<path d="M63.6916 54.7202C63.4127 55.0898 62.876 55.1493 62.5642 54.8071V54.8071C62.3218 54.5411 62.3237 54.1411 62.5405 53.8539L70.0018 43.9662C70.2187 43.6788 70.605 43.5679 70.9273 43.7284V43.7284C71.3417 43.9347 71.4295 44.466 71.1506 44.8356L63.6916 54.7202Z" fill="url(#paint17_linear_118_1906)"/>
<path d="M65.4666 56.0883C65.2469 56.3795 64.854 56.4888 64.5304 56.3205V56.3205C64.1244 56.1093 64.042 55.5845 64.3177 55.2191L71.8009 45.3025C72.0766 44.9371 72.6057 44.8742 72.9199 45.2071V45.2071C73.17 45.4721 73.1714 45.8781 72.9518 46.169L65.4666 56.0883Z" fill="url(#paint18_linear_118_1906)"/>
<path d="M67.7637 56.7647C67.6015 56.9797 67.3375 57.1045 67.0695 57.0776V57.0776C66.4923 57.0196 66.2681 56.3549 66.6175 55.8919L73.0799 47.328C73.4291 46.8653 74.1309 46.9009 74.3456 47.4393V47.4393C74.4454 47.6897 74.3966 47.9748 74.2343 48.19L67.7637 56.7647Z" fill="url(#paint19_linear_118_1906)"/>
<path d="M70.9651 56.2429C70.8744 56.3631 70.76 56.4593 70.622 56.5199V56.5199C69.8688 56.8509 69.3422 56.0017 69.8378 55.3451L74.0117 49.8138C74.2886 49.4468 74.845 49.5929 74.845 50.0526V50.0526C74.845 50.2667 74.8355 50.4785 74.8168 50.6877C74.7848 51.0463 74.6339 51.3811 74.417 51.6684L70.9651 56.2429Z" fill="url(#paint20_linear_118_1906)"/>
<g style="mix-blend-mode:overlay" opacity="0.6">
<path d="M67.8235 36.2759C69.1455 36.2759 70.2441 37.2337 70.4641 38.4927C70.7034 38.3937 70.9655 38.3384 71.2405 38.3384C72.1362 38.3384 72.8975 38.9178 73.1682 39.7222C76.8884 41.6675 79.427 45.5643 79.427 50.0532C79.427 50.5193 79.3953 50.9784 79.3421 51.4302C76.2188 52.7457 72.1915 53.5405 67.7942 53.5405C63.3797 53.5405 59.3376 52.7402 56.2093 51.4155C56.1572 50.9685 56.1272 50.5142 56.1272 50.0532C56.1272 45.7729 58.4364 42.0313 61.8763 40.0063C62.0481 39.0581 62.8775 38.3386 63.8753 38.3384C64.3183 38.3384 64.7288 38.4806 65.0628 38.7212C65.0933 38.7139 65.1239 38.7068 65.1546 38.6997C65.2842 37.3401 66.4299 36.2759 67.8235 36.2759Z" fill="white"/>
</g>
<path d="M69.447 46.4913L67.8449 44.6673C67.2383 43.9766 66.1121 44.197 65.8107 45.0654L65.0145 47.3588C64.9905 47.428 64.9385 47.4838 64.8713 47.5128L62.6415 48.4728C62.3018 48.619 62.0764 48.8908 61.976 49.1996C61.9657 49.2314 61.9542 49.2629 61.9427 49.2942C61.8784 49.4691 61.8756 49.6644 61.9387 49.8424C61.95 49.8743 61.9613 49.9062 61.9714 49.9385C62.0419 50.1626 62.1807 50.3708 62.3916 50.5305L64.3267 51.9964C64.385 52.0406 64.4221 52.1073 64.4289 52.1802L64.6528 54.5975C64.6746 54.8328 64.7596 55.0396 64.8867 55.2081C64.9284 55.2634 64.9664 55.3218 65.0041 55.3799C65.1908 55.6681 65.5531 55.8109 65.8902 55.7149C65.9568 55.696 66.0238 55.6771 66.0916 55.6629C66.2431 55.6312 66.3928 55.5684 66.5326 55.4711L68.5247 54.0836C68.5848 54.0418 68.6597 54.0271 68.7311 54.0432L71.0993 54.5773C71.2655 54.6147 71.4278 54.6164 71.5801 54.5886C71.6482 54.5762 71.7174 54.5685 71.7862 54.5609C72.1346 54.5227 72.4163 54.2539 72.4807 53.9166C72.4937 53.8485 72.5068 53.7802 72.5246 53.7132C72.5788 53.5092 72.5796 53.2856 72.511 53.0594L71.8071 50.7361C71.7859 50.666 71.7951 50.5903 71.8325 50.5273L73.0721 48.4401C73.2073 48.2125 73.2573 47.9674 73.2381 47.7332C73.2353 47.6995 73.2337 47.6657 73.2322 47.6319C73.2235 47.4433 73.1473 47.2635 73.0218 47.1258C72.9993 47.1011 72.9769 47.0763 72.9553 47.0508C72.7459 46.8026 72.4346 46.6358 72.0648 46.6284L69.6377 46.5799C69.5645 46.5784 69.4953 46.5463 69.447 46.4913Z" fill="#FF7400"/>
<path d="M65.4579 44.821C65.9173 43.7407 67.3662 43.4904 68.1582 44.392L69.7139 46.1632L72.0727 46.211L72.2555 46.225C72.6728 46.2794 73.0268 46.4889 73.274 46.7819C73.2899 46.8007 73.3076 46.82 73.3301 46.8446L73.3977 46.9259C73.5257 47.0933 73.6107 47.2931 73.6395 47.5055L73.6487 47.6131L73.6535 47.6988C73.6763 47.9772 73.6271 48.2666 73.4934 48.5381L73.4312 48.6528L72.2261 50.6808L72.9107 52.938L72.9399 53.0517C72.9829 53.2403 72.9916 53.4279 72.9692 53.6082L72.9281 53.8203L72.8906 53.9948C72.7988 54.4758 72.4184 54.8658 71.9304 54.9609L71.8317 54.9752L71.6552 54.9988C71.4998 55.0271 71.3377 55.0325 71.1733 55.0125L71.0075 54.9843L68.7058 54.4656L66.7715 55.8134C66.5855 55.9429 66.3833 56.0279 66.1771 56.071L66.0047 56.1157C65.5196 56.2538 65.0069 56.0708 64.7107 55.6863L64.6543 55.6068L64.5538 55.4593C64.3809 55.2302 64.2664 54.9497 64.2373 54.6356L64.0185 52.2873L62.1396 50.8628C61.8931 50.6761 61.7174 50.4375 61.6133 50.1768L61.5733 50.0642L61.5453 49.9821C61.4489 49.7104 61.4535 49.4144 61.5506 49.1501L61.5789 49.071L61.6384 48.917C61.7939 48.5648 62.0775 48.261 62.4764 48.0893L64.6423 47.1569L65.4162 44.9286L65.4579 44.821Z" stroke="url(#paint21_linear_118_1906)" stroke-opacity="0.8" stroke-width="0.834385"/>
<path d="M65.7256 45.2716C66.0366 44.3757 67.1984 44.1483 67.8242 44.8608L69.1037 46.3176C69.3329 46.5786 69.6613 46.7313 70.0087 46.7382L71.9472 46.7769C72.8953 46.7959 73.4706 47.8305 72.9864 48.6459L71.9962 50.3129C71.8189 50.6116 71.7752 50.9711 71.8759 51.3036L72.4381 53.1592C72.7131 54.0668 71.9068 54.9337 70.9817 54.7251L69.0903 54.2986C68.7514 54.2221 68.396 54.2917 68.111 54.4902L66.5199 55.5983C65.7417 56.1403 64.6681 55.6414 64.5807 54.6971L64.4018 52.7665C64.3698 52.4206 64.1938 52.1041 63.9169 51.8943L62.3713 50.7235C61.6154 50.1509 61.7582 48.9757 62.6292 48.6007L64.4101 47.834C64.7291 47.6966 64.9758 47.4315 65.0897 47.1033L65.7256 45.2716Z" fill="url(#paint22_linear_118_1906)"/>
<path d="M65.7893 45.0671C66.0709 44.2569 67.1216 44.0514 67.6877 44.696L69.1408 46.3503C69.3482 46.5864 69.6459 46.7249 69.9602 46.7311L72.1613 46.7751C73.019 46.7922 73.5396 47.7279 73.1018 48.4655L72.3566 49.7184C70.4914 50.1117 68.3701 50.3366 66.1193 50.3366C64.6112 50.3366 63.1608 50.2347 61.8068 50.0505C61.642 49.5322 61.8666 48.9216 62.4289 48.6794L64.4523 47.8093C64.7408 47.685 64.9635 47.4448 65.0666 47.1481L65.7893 45.0671Z" fill="url(#paint23_linear_118_1906)"/>
<path d="M95.3864 52.5L91.9434 44.745H93.4724L96.2004 51.125H95.8264L98.5434 44.745H100.028L96.5854 52.5H95.3864ZM101.14 45.955V44.58H102.713V45.955H101.14ZM101.228 52.5V47.099H102.636V52.5H101.228ZM107.211 52.61C106.639 52.61 106.141 52.4963 105.715 52.269C105.297 52.0343 104.971 51.7043 104.736 51.279C104.509 50.8463 104.395 50.344 104.395 49.772C104.395 49.2 104.509 48.705 104.736 48.287C104.971 47.869 105.297 47.55 105.715 47.33C106.141 47.1027 106.639 46.989 107.211 46.989C107.571 46.989 107.919 47.044 108.256 47.154C108.601 47.264 108.883 47.418 109.103 47.616L108.685 48.606C108.495 48.4373 108.278 48.309 108.036 48.221C107.802 48.133 107.571 48.089 107.343 48.089C106.859 48.089 106.485 48.2357 106.221 48.529C105.957 48.8223 105.825 49.2403 105.825 49.783C105.825 50.3257 105.957 50.7473 106.221 51.048C106.485 51.3487 106.859 51.499 107.343 51.499C107.563 51.499 107.794 51.455 108.036 51.367C108.278 51.279 108.495 51.1507 108.685 50.982L109.103 51.983C108.883 52.1737 108.601 52.3277 108.256 52.445C107.912 52.555 107.563 52.61 107.211 52.61ZM113.103 52.61C112.369 52.61 111.823 52.4303 111.464 52.071C111.112 51.7043 110.936 51.1727 110.936 50.476V48.166H109.891V47.099H110.947V45.504H112.333V47.099H114.027V48.166H112.333V50.399C112.333 50.751 112.41 51.015 112.564 51.191C112.725 51.367 112.978 51.455 113.323 51.455C113.433 51.455 113.546 51.4403 113.664 51.411C113.781 51.3817 113.902 51.3523 114.027 51.323L114.236 52.357C114.089 52.4377 113.913 52.5 113.708 52.544C113.502 52.588 113.301 52.61 113.103 52.61ZM117.984 52.61C117.419 52.61 116.928 52.4963 116.51 52.269C116.099 52.0343 115.777 51.708 115.542 51.29C115.315 50.8647 115.201 50.366 115.201 49.794C115.201 49.222 115.315 48.727 115.542 48.309C115.777 47.8837 116.099 47.5573 116.51 47.33C116.928 47.1027 117.419 46.989 117.984 46.989C118.549 46.989 119.04 47.1027 119.458 47.33C119.876 47.5573 120.199 47.8837 120.426 48.309C120.653 48.727 120.767 49.222 120.767 49.794C120.767 50.366 120.653 50.8647 120.426 51.29C120.199 51.708 119.876 52.0343 119.458 52.269C119.04 52.4963 118.549 52.61 117.984 52.61ZM117.984 51.521C118.402 51.521 118.736 51.3743 118.985 51.081C119.242 50.7877 119.37 50.355 119.37 49.783C119.37 49.2183 119.242 48.793 118.985 48.507C118.736 48.2137 118.402 48.067 117.984 48.067C117.566 48.067 117.232 48.2137 116.983 48.507C116.734 48.793 116.609 49.2183 116.609 49.783C116.609 50.355 116.734 50.7877 116.983 51.081C117.232 51.3743 117.566 51.521 117.984 51.521ZM122.529 52.5V47.099H123.871V48.408H123.783C123.893 47.968 124.098 47.6307 124.399 47.396C124.707 47.1613 125.106 47.0257 125.598 46.989L126.06 46.956L126.159 48.166L125.312 48.243C124.864 48.287 124.523 48.43 124.289 48.672C124.061 48.9067 123.948 49.2293 123.948 49.64V52.5H122.529ZM128.4 54.48L129.533 51.994V52.687L127.124 47.099H128.609L130.248 51.235H129.984L131.634 47.099H133.053L129.852 54.48H128.4ZM138.069 52.5V44.745H141.457C142.315 44.745 142.975 44.9467 143.437 45.35C143.907 45.7533 144.141 46.3253 144.141 47.066C144.141 47.528 144.042 47.9277 143.844 48.265C143.646 48.595 143.36 48.8517 142.986 49.035C142.612 49.2183 142.165 49.3137 141.644 49.321L141.732 49.2L142.04 49.211C142.312 49.2183 142.55 49.2917 142.755 49.431C142.961 49.5703 143.144 49.7903 143.305 50.091L144.614 52.5H143.041L141.721 50.047C141.633 49.8857 141.534 49.761 141.424 49.673C141.314 49.5777 141.19 49.5117 141.05 49.475C140.911 49.4383 140.746 49.42 140.555 49.42H139.499V52.5H138.069ZM139.499 48.342H141.237C141.743 48.342 142.121 48.2393 142.37 48.034C142.627 47.8287 142.755 47.5207 142.755 47.11C142.755 46.6993 142.627 46.3913 142.37 46.186C142.114 45.9807 141.736 45.878 141.237 45.878H139.499V48.342ZM148.151 52.61C147.703 52.61 147.329 52.5293 147.029 52.368C146.735 52.1993 146.515 51.95 146.369 51.62C146.222 51.2827 146.149 50.8647 146.149 50.366V47.099H147.546V50.366C147.546 50.6153 147.579 50.8243 147.645 50.993C147.718 51.1617 147.828 51.29 147.975 51.378C148.121 51.4587 148.308 51.499 148.536 51.499C148.785 51.499 149.005 51.4403 149.196 51.323C149.386 51.2057 149.533 51.0443 149.636 50.839C149.746 50.6337 149.801 50.3917 149.801 50.113V47.099H151.209V52.5H149.856V51.378H149.977C149.815 51.774 149.577 52.0783 149.262 52.291C148.954 52.5037 148.583 52.61 148.151 52.61ZM155.278 52.61C154.978 52.61 154.681 52.5843 154.387 52.533C154.101 52.4817 153.837 52.412 153.595 52.324C153.361 52.2287 153.152 52.1113 152.968 51.972L153.331 51.048C153.515 51.1653 153.713 51.268 153.925 51.356C154.145 51.4367 154.369 51.499 154.596 51.543C154.831 51.587 155.058 51.609 155.278 51.609C155.645 51.609 155.916 51.554 156.092 51.444C156.276 51.3267 156.367 51.169 156.367 50.971C156.367 50.8023 156.309 50.674 156.191 50.586C156.081 50.498 155.909 50.432 155.674 50.388L154.541 50.19C154.072 50.102 153.716 49.9297 153.474 49.673C153.232 49.4163 153.111 49.0937 153.111 48.705C153.111 48.353 153.207 48.0487 153.397 47.792C153.588 47.5353 153.859 47.3373 154.211 47.198C154.563 47.0587 154.974 46.989 155.443 46.989C155.707 46.989 155.964 47.011 156.213 47.055C156.463 47.099 156.697 47.1687 156.917 47.264C157.137 47.352 157.328 47.4693 157.489 47.616L157.104 48.54C156.965 48.4227 156.8 48.3237 156.609 48.243C156.426 48.1623 156.235 48.1 156.037 48.056C155.839 48.012 155.645 47.99 155.454 47.99C155.088 47.99 154.813 48.0487 154.629 48.166C154.453 48.2833 154.365 48.4447 154.365 48.65C154.365 48.804 154.417 48.9287 154.519 49.024C154.629 49.1193 154.794 49.1853 155.014 49.222L156.125 49.431C156.624 49.519 156.998 49.684 157.247 49.926C157.504 50.168 157.632 50.4907 157.632 50.894C157.632 51.2533 157.533 51.5613 157.335 51.818C157.145 52.0747 156.873 52.2727 156.521 52.412C156.169 52.544 155.755 52.61 155.278 52.61ZM159.35 52.5V44.745H160.736V48.166H160.626C160.788 47.7847 161.037 47.495 161.374 47.297C161.719 47.0917 162.108 46.989 162.54 46.989C162.973 46.989 163.332 47.0697 163.618 47.231C163.904 47.3923 164.117 47.638 164.256 47.968C164.403 48.298 164.476 48.7197 164.476 49.233V52.5H163.079V49.299C163.079 49.0203 163.043 48.793 162.969 48.617C162.896 48.441 162.786 48.3127 162.639 48.232C162.5 48.144 162.317 48.1 162.089 48.1C161.825 48.1 161.591 48.1587 161.385 48.276C161.187 48.386 161.033 48.5473 160.923 48.76C160.813 48.9653 160.758 49.2073 160.758 49.486V52.5H159.35Z" fill="#202224"/>
<mask id="mask0_118_1906" style="mask-type:alpha" maskUnits="userSpaceOnUse" x="27" y="27" width="30" height="44">
<path d="M28.2632 34.49C28.2632 30.9057 31.1689 28 34.7532 28H43.772C50.6707 28 56.2632 33.5925 56.2632 40.4912V57.5088C56.2632 64.4075 50.6707 70 43.772 70H34.7532C31.1689 70 28.2632 67.0943 28.2632 63.51V34.49Z" fill="white" stroke="url(#paint24_linear_118_1906)" stroke-opacity="0.3" stroke-width="1.30158"/>
</mask>
<g mask="url(#mask0_118_1906)">
<rect x="27.2632" y="27.1923" width="14" height="43.6154" fill="#587ED7"/>
</g>
<defs>
<filter id="filter0_d_118_1906" x="0.560465" y="0.297343" width="215.168" height="104.168" filterUnits="userSpaceOnUse" color-interpolation-filters="sRGB">
<feFlood flood-opacity="0" result="BackgroundImageFix"/>
<feColorMatrix in="SourceAlpha" type="matrix" values="0 0 0 0 0 0 0 0 0 0 0 0 0 0 0 0 0 0 127 0" result="hardAlpha"/>
<feOffset dx="3.38149" dy="3.38149"/>
<feGaussianBlur stdDeviation="15.2167"/>
<feColorMatrix type="matrix" values="0 0 0 0 0 0 0 0 0 0 0 0 0 0 0 0 0 0 0.05 0"/>
<feBlend mode="normal" in2="BackgroundImageFix" result="effect1_dropShadow_118_1906"/>
<feBlend mode="normal" in="SourceGraphic" in2="effect1_dropShadow_118_1906" result="shape"/>
</filter>
<filter id="filter1_d_118_1906" x="54.8314" y="34.9799" width="25.8921" height="28.7849" filterUnits="userSpaceOnUse" color-interpolation-filters="sRGB">
<feFlood flood-opacity="0" result="BackgroundImageFix"/>
<feColorMatrix in="SourceAlpha" type="matrix" values="0 0 0 0 0 0 0 0 0 0 0 0 0 0 0 0 0 0 127 0" result="hardAlpha"/>
<feOffset dy="0.765986"/>
<feComposite in2="hardAlpha" operator="out"/>
<feColorMatrix type="matrix" values="0 0 0 0 0.266667 0 0 0 0 0.0196078 0 0 0 0 0.0196078 0 0 0 1 0"/>
<feBlend mode="normal" in2="BackgroundImageFix" result="effect1_dropShadow_118_1906"/>
<feBlend mode="normal" in="SourceGraphic" in2="effect1_dropShadow_118_1906" result="shape"/>
</filter>
<filter id="filter2_f_118_1906" x="55.0669" y="35.2157" width="25.4207" height="27.5474" filterUnits="userSpaceOnUse" color-interpolation-filters="sRGB">
<feFlood flood-opacity="0" result="BackgroundImageFix"/>
<feBlend mode="normal" in="SourceGraphic" in2="BackgroundImageFix" result="shape"/>
<feGaussianBlur stdDeviation="0.353532" result="effect1_foregroundBlur_118_1906"/>
</filter>
<filter id="filter3_i_118_1906" x="57.0115" y="39.2814" width="21.5654" height="21.5654" filterUnits="userSpaceOnUse" color-interpolation-filters="sRGB">
<feFlood flood-opacity="0" result="BackgroundImageFix"/>
<feBlend mode="normal" in="SourceGraphic" in2="BackgroundImageFix" result="shape"/>
<feColorMatrix in="SourceAlpha" type="matrix" values="0 0 0 0 0 0 0 0 0 0 0 0 0 0 0 0 0 0 127 0" result="hardAlpha"/>
<feOffset dy="3.29963"/>
<feComposite in2="hardAlpha" operator="arithmetic" k2="-1" k3="1"/>
<feColorMatrix type="matrix" values="0 0 0 0 0.993306 0 0 0 0 1 0 0 0 0 0.575 0 0 0 0.29 0"/>
<feBlend mode="normal" in2="shape" result="effect1_innerShadow_118_1906"/>
</filter>
<filter id="filter4_d_118_1906" x="61.8429" y="38.3385" width="4.06519" height="4.46727" filterUnits="userSpaceOnUse" color-interpolation-filters="sRGB">
<feFlood flood-opacity="0" result="BackgroundImageFix"/>
<feColorMatrix in="SourceAlpha" type="matrix" values="0 0 0 0 0 0 0 0 0 0 0 0 0 0 0 0 0 0 127 0" result="hardAlpha"/>
<feOffset dy="0.402084"/>
<feComposite in2="hardAlpha" operator="out"/>
<feColorMatrix type="matrix" values="0 0 0 0 0.886275 0 0 0 0 0.380392 0 0 0 0 0.0196078 0 0 0 1 0"/>
<feBlend mode="normal" in2="BackgroundImageFix" result="effect1_dropShadow_118_1906"/>
<feBlend mode="normal" in="SourceGraphic" in2="effect1_dropShadow_118_1906" result="shape"/>
</filter>
<filter id="filter5_i_118_1906" x="62.4234" y="38.8115" width="2.90427" height="2.9043" filterUnits="userSpaceOnUse" color-interpolation-filters="sRGB">
<feFlood flood-opacity="0" result="BackgroundImageFix"/>
<feBlend mode="normal" in="SourceGraphic" in2="BackgroundImageFix" result="shape"/>
<feColorMatrix in="SourceAlpha" type="matrix" values="0 0 0 0 0 0 0 0 0 0 0 0 0 0 0 0 0 0 127 0" result="hardAlpha"/>
<feOffset dy="1.35521"/>
<feComposite in2="hardAlpha" operator="arithmetic" k2="-1" k3="1"/>
<feColorMatrix type="matrix" values="0 0 0 0 1 0 0 0 0 0.976471 0 0 0 0 0.168627 0 0 0 1 0"/>
<feBlend mode="normal" in2="shape" result="effect1_innerShadow_118_1906"/>
</filter>
<filter id="filter6_d_118_1906" x="69.2082" y="38.3385" width="4.06519" height="4.46727" filterUnits="userSpaceOnUse" color-interpolation-filters="sRGB">
<feFlood flood-opacity="0" result="BackgroundImageFix"/>
<feColorMatrix in="SourceAlpha" type="matrix" values="0 0 0 0 0 0 0 0 0 0 0 0 0 0 0 0 0 0 127 0" result="hardAlpha"/>
<feOffset dy="0.402084"/>
<feComposite in2="hardAlpha" operator="out"/>
<feColorMatrix type="matrix" values="0 0 0 0 0.886275 0 0 0 0 0.380392 0 0 0 0 0.0196078 0 0 0 1 0"/>
<feBlend mode="normal" in2="BackgroundImageFix" result="effect1_dropShadow_118_1906"/>
<feBlend mode="normal" in="SourceGraphic" in2="effect1_dropShadow_118_1906" result="shape"/>
</filter>
<filter id="filter7_i_118_1906" x="69.7887" y="38.8115" width="2.90427" height="2.9043" filterUnits="userSpaceOnUse" color-interpolation-filters="sRGB">
<feFlood flood-opacity="0" result="BackgroundImageFix"/>
<feBlend mode="normal" in="SourceGraphic" in2="BackgroundImageFix" result="shape"/>
<feColorMatrix in="SourceAlpha" type="matrix" values="0 0 0 0 0 0 0 0 0 0 0 0 0 0 0 0 0 0 127 0" result="hardAlpha"/>
<feOffset dy="1.35521"/>
<feComposite in2="hardAlpha" operator="arithmetic" k2="-1" k3="1"/>
<feColorMatrix type="matrix" values="0 0 0 0 1 0 0 0 0 0.976471 0 0 0 0 0.168627 0 0 0 1 0"/>
<feBlend mode="normal" in2="shape" result="effect1_innerShadow_118_1906"/>
</filter>
<filter id="filter8_d_118_1906" x="65.1429" y="36.2765" width="5.36148" height="5.89175" filterUnits="userSpaceOnUse" color-interpolation-filters="sRGB">
<feFlood flood-opacity="0" result="BackgroundImageFix"/>
<feColorMatrix in="SourceAlpha" type="matrix" values="0 0 0 0 0 0 0 0 0 0 0 0 0 0 0 0 0 0 127 0" result="hardAlpha"/>
<feOffset dy="0.530298"/>
<feComposite in2="hardAlpha" operator="out"/>
<feColorMatrix type="matrix" values="0 0 0 0 0.886275 0 0 0 0 0.380392 0 0 0 0 0.0196078 0 0 0 1 0"/>
<feBlend mode="normal" in2="BackgroundImageFix" result="effect1_dropShadow_118_1906"/>
<feBlend mode="normal" in="SourceGraphic" in2="effect1_dropShadow_118_1906" result="shape"/>
</filter>
<filter id="filter9_i_118_1906" x="65.6732" y="36.5712" width="4.30081" height="4.30078" filterUnits="userSpaceOnUse" color-interpolation-filters="sRGB">
<feFlood flood-opacity="0" result="BackgroundImageFix"/>
<feBlend mode="normal" in="SourceGraphic" in2="BackgroundImageFix" result="shape"/>
<feColorMatrix in="SourceAlpha" type="matrix" values="0 0 0 0 0 0 0 0 0 0 0 0 0 0 0 0 0 0 127 0" result="hardAlpha"/>
<feOffset dy="1.35521"/>
<feComposite in2="hardAlpha" operator="arithmetic" k2="-1" k3="1"/>
<feColorMatrix type="matrix" values="0 0 0 0 1 0 0 0 0 0.976471 0 0 0 0 0.168627 0 0 0 1 0"/>
<feBlend mode="normal" in2="shape" result="effect1_innerShadow_118_1906"/>
</filter>
<linearGradient id="paint0_linear_118_1906" x1="63.1505" y1="12.8299" x2="137.147" y2="98.6413" gradientUnits="userSpaceOnUse">
<stop stop-color="#F1F1F1"/>
<stop offset="1" stop-color="#E1E1E1"/>
</linearGradient>
<linearGradient id="paint1_linear_118_1906" x1="67.7774" y1="36.2761" x2="67.7774" y2="61.7025" gradientUnits="userSpaceOnUse">
<stop stop-color="#EF7E65"/>
<stop offset="1" stop-color="#771614"/>
</linearGradient>
<linearGradient id="paint2_linear_118_1906" x1="69.6797" y1="40.8723" x2="70.5046" y2="58.7846" gradientUnits="userSpaceOnUse">
<stop stop-color="#FBFF01"/>
<stop offset="1" stop-color="#ED5528"/>
</linearGradient>
<linearGradient id="paint3_linear_118_1906" x1="64.7009" y1="44.0835" x2="64.966" y2="67.5639" gradientUnits="userSpaceOnUse">
<stop stop-color="#FFF854"/>
<stop offset="0.256068" stop-color="#FFF500"/>
<stop offset="1" stop-color="#FF1700"/>
</linearGradient>
<linearGradient id="paint4_linear_118_1906" x1="67.7942" y1="43.2563" x2="66.4102" y2="63.4862" gradientUnits="userSpaceOnUse">
<stop stop-color="#F7DF0A"/>
<stop offset="1" stop-color="#ED4520"/>
</linearGradient>
<linearGradient id="paint5_linear_118_1906" x1="67.7773" y1="42.0507" x2="66.9693" y2="65.207" gradientUnits="userSpaceOnUse">
<stop stop-color="#FF7A00"/>
<stop offset="1" stop-color="#B10000"/>
</linearGradient>
<linearGradient id="paint6_linear_118_1906" x1="67.7773" y1="42.0507" x2="67.7773" y2="58.0552" gradientUnits="userSpaceOnUse">
<stop stop-color="#CC2901" stop-opacity="0.49"/>
<stop offset="1" stop-color="#CC2901"/>
</linearGradient>
<linearGradient id="paint7_linear_118_1906" x1="67.8234" y1="36.2761" x2="67.8234" y2="41.638" gradientUnits="userSpaceOnUse">
<stop stop-color="#F7CA0A"/>
<stop offset="1" stop-color="#FA9508"/>
</linearGradient>
<linearGradient id="paint8_linear_118_1906" x1="63.8755" y1="38.3385" x2="63.8755" y2="42.4037" gradientUnits="userSpaceOnUse">
<stop stop-color="#F7CA0A"/>
<stop offset="1" stop-color="#FA9508"/>
</linearGradient>
<linearGradient id="paint9_linear_118_1906" x1="63.8755" y1="38.3385" x2="63.8755" y2="42.4037" gradientUnits="userSpaceOnUse">
<stop stop-color="#F7CA0A"/>
<stop offset="1" stop-color="#FD6E08"/>
</linearGradient>
<linearGradient id="paint10_linear_118_1906" x1="63.8756" y1="38.8115" x2="63.8756" y2="41.7158" gradientUnits="userSpaceOnUse">
<stop stop-color="#FAFF00"/>
<stop offset="1" stop-color="#FAB608"/>
</linearGradient>
<linearGradient id="paint11_linear_118_1906" x1="71.2408" y1="38.3385" x2="71.2408" y2="42.4037" gradientUnits="userSpaceOnUse">
<stop stop-color="#F7CA0A"/>
<stop offset="1" stop-color="#FD6E08"/>
</linearGradient>
<linearGradient id="paint12_linear_118_1906" x1="71.2408" y1="38.8115" x2="71.2408" y2="41.7158" gradientUnits="userSpaceOnUse">
<stop stop-color="#FAFF00"/>
<stop offset="1" stop-color="#FAB608"/>
</linearGradient>
<linearGradient id="paint13_linear_118_1906" x1="67.8237" y1="36.2765" x2="67.8237" y2="41.638" gradientUnits="userSpaceOnUse">
<stop stop-color="#F7CA0A"/>
<stop offset="1" stop-color="#FD6E08"/>
</linearGradient>
<linearGradient id="paint14_linear_118_1906" x1="67.8236" y1="36.5712" x2="67.8236" y2="40.872" gradientUnits="userSpaceOnUse">
<stop stop-color="#FAFF00"/>
<stop offset="1" stop-color="#FAB608"/>
</linearGradient>
<linearGradient id="paint15_linear_118_1906" x1="67.7843" y1="42.9934" x2="67.7843" y2="57.1079" gradientUnits="userSpaceOnUse">
<stop stop-color="#FFA800"/>
<stop offset="0.96875" stop-color="#FF4300" stop-opacity="0"/>
</linearGradient>
<linearGradient id="paint16_linear_118_1906" x1="67.7843" y1="42.9934" x2="67.7843" y2="57.1079" gradientUnits="userSpaceOnUse">
<stop stop-color="#FFA800"/>
<stop offset="0.96875" stop-color="#FF4300" stop-opacity="0"/>
</linearGradient>
<linearGradient id="paint17_linear_118_1906" x1="67.7843" y1="42.9934" x2="67.7843" y2="57.1079" gradientUnits="userSpaceOnUse">
<stop stop-color="#FFA800"/>
<stop offset="0.96875" stop-color="#FF4300" stop-opacity="0"/>
</linearGradient>
<linearGradient id="paint18_linear_118_1906" x1="67.7843" y1="42.9934" x2="67.7843" y2="57.1079" gradientUnits="userSpaceOnUse">
<stop stop-color="#FFA800"/>
<stop offset="0.96875" stop-color="#FF4300" stop-opacity="0"/>
</linearGradient>
<linearGradient id="paint19_linear_118_1906" x1="67.7843" y1="42.9934" x2="67.7843" y2="57.1079" gradientUnits="userSpaceOnUse">
<stop stop-color="#FFA800"/>
<stop offset="0.96875" stop-color="#FF4300" stop-opacity="0"/>
</linearGradient>
<linearGradient id="paint20_linear_118_1906" x1="67.7843" y1="42.9934" x2="67.7843" y2="57.1079" gradientUnits="userSpaceOnUse">
<stop stop-color="#FFA800"/>
<stop offset="0.96875" stop-color="#FF4300" stop-opacity="0"/>
</linearGradient>
<linearGradient id="paint21_linear_118_1906" x1="66.7134" y1="44.2817" x2="68.8387" y2="55.1406" gradientUnits="userSpaceOnUse">
<stop stop-color="#F68B02"/>
<stop offset="1" stop-color="#CB2901"/>
</linearGradient>
<linearGradient id="paint22_linear_118_1906" x1="66.4223" y1="43.2647" x2="69.1786" y2="57.3472" gradientUnits="userSpaceOnUse">
<stop stop-color="#FFEB00"/>
<stop offset="1" stop-color="#FF8E00"/>
</linearGradient>
<linearGradient id="paint23_linear_118_1906" x1="67.5071" y1="44.3148" x2="67.9344" y2="54.1611" gradientUnits="userSpaceOnUse">
<stop stop-color="white"/>
<stop offset="1" stop-color="#FFE600" stop-opacity="0"/>
</linearGradient>
<linearGradient id="paint24_linear_118_1906" x1="34.6478" y1="12.8299" x2="65.0326" y2="19.2783" gradientUnits="userSpaceOnUse">
<stop stop-color="#F1F1F1"/>
<stop offset="1" stop-color="#E1E1E1"/>
</linearGradient>
</defs>
</svg>
