<svg width="210" height="107" viewBox="0 0 210 107" fill="none" xmlns="http://www.w3.org/2000/svg">
<g filter="url(#filter0_d_118_2492)">
<rect x="26" y="26" width="151.726" height="48.3003" rx="11.6362" fill="white"/>
<rect x="26" y="26" width="151.726" height="48.3003" rx="11.6362" stroke="url(#paint0_linear_118_2492)" stroke-opacity="0.3" stroke-width="1.21248"/>
</g>
<path d="M45.8626 54.2202V45.7073H49.0263C49.9762 45.7073 50.7812 45.8723 51.4413 46.2024C52.1095 46.5324 52.6166 47.0154 52.9628 47.6514C53.317 48.2793 53.4941 49.0481 53.4941 49.9577C53.4941 50.8674 53.317 51.6402 52.9628 52.2761C52.6166 52.9121 52.1095 53.3951 51.4413 53.7251C50.7812 54.0552 49.9762 54.2202 49.0263 54.2202H45.8626ZM47.4082 52.9403H48.9297C49.9199 52.9403 50.6564 52.6947 51.1394 52.2037C51.6305 51.7046 51.876 50.9559 51.876 49.9577C51.876 48.9595 51.6305 48.2149 51.1394 47.7238C50.6484 47.2328 49.9118 46.9873 48.9297 46.9873H47.4082V52.9403ZM54.4909 54.2202L58.3428 45.7073H59.6107L63.4626 54.2202H61.8929L60.8665 51.8294L61.5185 52.252H56.4229L57.0749 51.8294L56.0606 54.2202H54.4909ZM58.9586 47.3857L57.2681 51.4067L56.9542 51.0203H60.9872L60.6854 51.4067L58.9828 47.3857H58.9586ZM64.9191 54.2202V45.7073H66.4647V54.2202H64.9191ZM68.8402 54.2202V45.7073H70.3858V52.904H74.4672V54.2202H68.8402ZM76.7474 54.2202V49.837L77.0735 50.7667L73.4751 45.7073H75.2743L77.7134 49.1728H77.3753L79.8266 45.7073H81.5533L77.9791 50.7667L78.293 49.837V54.2202H76.7474ZM86.4878 54.2202V45.7073H90.1828C91.1166 45.7073 91.8371 45.9327 92.3442 46.3835C92.8514 46.8262 93.1049 47.4501 93.1049 48.2551C93.1049 48.7784 92.9882 49.2292 92.7548 49.6075C92.5294 49.9859 92.1993 50.2757 91.7646 50.4769C91.3299 50.6782 90.8026 50.7788 90.1828 50.7788L90.2915 50.5977H90.6899C91.02 50.5977 91.3058 50.6782 91.5473 50.8392C91.7968 51.0002 92.0142 51.2538 92.1993 51.5999L93.6242 54.2202H91.9216L90.4484 51.5033C90.3518 51.3262 90.2432 51.1894 90.1224 51.0928C90.0017 50.9881 89.8648 50.9157 89.7119 50.8754C89.5589 50.8352 89.3818 50.815 89.1805 50.815H88.0334V54.2202H86.4878ZM88.0334 49.6679H89.9171C90.4726 49.6679 90.8912 49.5552 91.1729 49.3298C91.4627 49.0964 91.6076 48.7502 91.6076 48.2914C91.6076 47.8406 91.4627 47.5025 91.1729 47.2771C90.8912 47.0436 90.4726 46.9269 89.9171 46.9269H88.0334V49.6679ZM95.2908 54.2202V45.7073H100.954V46.939H96.7761V49.2815H100.688V50.5132H96.7761V52.9886H100.954V54.2202H95.2908ZM103.021 54.2202V45.7073H106.716C107.344 45.7073 107.875 45.8119 108.31 46.0212C108.744 46.2305 109.074 46.5324 109.3 46.9269C109.525 47.3213 109.638 47.8003 109.638 48.3638C109.638 48.9193 109.525 49.3982 109.3 49.8007C109.074 50.1952 108.744 50.5011 108.31 50.7184C107.875 50.9277 107.344 51.0324 106.716 51.0324H104.566V54.2202H103.021ZM104.566 49.8128H106.474C107.022 49.8128 107.436 49.6921 107.718 49.4506C108 49.201 108.141 48.8388 108.141 48.3638C108.141 47.8889 108 47.5306 107.718 47.2891C107.436 47.0476 107.022 46.9269 106.474 46.9269H104.566V49.8128ZM115.18 54.341C114.56 54.341 113.996 54.2403 113.489 54.0391C112.99 53.8298 112.559 53.5319 112.197 53.1455C111.843 52.7591 111.569 52.2963 111.376 51.7569C111.183 51.2175 111.086 50.6178 111.086 49.9577C111.086 49.2896 111.183 48.6898 111.376 48.1585C111.569 47.6192 111.843 47.1603 112.197 46.782C112.559 46.3956 112.99 46.1017 113.489 45.9005C113.996 45.6912 114.56 45.5865 115.18 45.5865C115.799 45.5865 116.359 45.6912 116.858 45.9005C117.365 46.1017 117.796 46.3915 118.15 46.7699C118.512 47.1483 118.79 47.6071 118.983 48.1465C119.176 48.6778 119.273 49.2775 119.273 49.9456C119.273 50.6138 119.176 51.2175 118.983 51.7569C118.79 52.2963 118.512 52.7591 118.15 53.1455C117.796 53.5319 117.365 53.8298 116.858 54.0391C116.359 54.2403 115.799 54.341 115.18 54.341ZM115.18 53.0127C115.703 53.0127 116.146 52.892 116.508 52.6505C116.878 52.409 117.16 52.0588 117.353 51.5999C117.554 51.1411 117.655 50.5937 117.655 49.9577C117.655 49.3137 117.558 48.7663 117.365 48.3155C117.172 47.8567 116.89 47.5105 116.52 47.2771C116.15 47.0356 115.703 46.9148 115.18 46.9148C114.664 46.9148 114.222 47.0356 113.851 47.2771C113.481 47.5105 113.195 47.8567 112.994 48.3155C112.801 48.7663 112.704 49.3137 112.704 49.9577C112.704 50.5937 112.801 51.1411 112.994 51.5999C113.195 52.0588 113.481 52.409 113.851 52.6505C114.222 52.892 114.664 53.0127 115.18 53.0127ZM121.37 54.2202V45.7073H125.065C125.999 45.7073 126.719 45.9327 127.226 46.3835C127.733 46.8262 127.987 47.4501 127.987 48.2551C127.987 48.7784 127.87 49.2292 127.637 49.6075C127.411 49.9859 127.081 50.2757 126.647 50.4769C126.212 50.6782 125.685 50.7788 125.065 50.7788L125.173 50.5977H125.572C125.902 50.5977 126.188 50.6782 126.429 50.8392C126.679 51.0002 126.896 51.2538 127.081 51.5999L128.506 54.2202H126.804L125.33 51.5033C125.234 51.3262 125.125 51.1894 125.004 51.0928C124.884 50.9881 124.747 50.9157 124.594 50.8754C124.441 50.8352 124.264 50.815 124.062 50.815H122.915V54.2202H121.37ZM122.915 49.6679H124.799C125.355 49.6679 125.773 49.5552 126.055 49.3298C126.345 49.0964 126.49 48.7502 126.49 48.2914C126.49 47.8406 126.345 47.5025 126.055 47.2771C125.773 47.0436 125.355 46.9269 124.799 46.9269H122.915V49.6679ZM131.99 54.2202V46.9993H129.068V45.7073H136.457V46.9993H133.535V54.2202H131.99Z" fill="#202224"/>
<path opacity="0.3" d="M160.566 34.4702C167.235 34.4702 172.641 39.8765 172.641 46.5454V53.895C172.641 60.5639 167.235 65.9702 160.566 65.9702H153.216C146.547 65.9702 141.141 60.5639 141.141 53.895V46.5454C141.141 39.8765 146.547 34.4702 153.216 34.4702H160.566Z" fill="#1F2CB3"/>
<g clip-path="url(#clip0_118_2492)">
<path d="M151.046 56.4858H161.918M151.046 53.0266H161.918M159.135 39.7234C159.578 39.8617 161.001 40.4261 163.057 42.431C164.994 44.3202 165.62 45.6619 165.804 46.1719C165.845 47.2793 165.871 48.5691 165.871 50.0615C165.871 54.0471 165.686 56.5867 165.517 58.0741C165.393 59.1623 164.577 59.9757 163.489 60.1027C162.098 60.2653 159.826 60.4393 156.482 60.4393C153.138 60.4393 150.866 60.2653 149.475 60.1032C148.387 59.9757 147.571 59.1623 147.447 58.0741C147.278 56.5867 147.093 54.0466 147.093 50.0615C147.093 46.0765 147.278 43.5364 147.447 42.049C147.571 40.9608 148.387 40.1474 149.475 40.0199C150.866 39.8583 153.138 39.6838 156.482 39.6838C157.456 39.6838 158.338 39.6987 159.135 39.7234Z" stroke="white" stroke-width="1.48253" stroke-linecap="round" stroke-linejoin="round"/>
<path d="M151.046 49.5021C152.317 47.56 153.377 46.7071 153.96 46.3493C154.235 46.1798 154.568 46.2905 154.711 46.5806C155.039 47.2452 155.348 48.1585 155.569 48.8834C155.7 49.3084 156.32 49.3999 156.594 49.049C157.694 47.6376 159.2 46.3552 159.2 46.3552M161.21 47.2546C161.427 46.1062 161.436 45.0985 161.417 44.5648C161.414 44.4525 161.368 44.3457 161.289 44.2662C161.21 44.1867 161.103 44.1406 160.99 44.1374C160.089 44.1101 159.187 44.1796 158.3 44.3449C157.928 44.4156 157.804 44.8697 158.073 45.1381L160.417 47.4829C160.686 47.7513 161.139 47.6272 161.21 47.2546Z" stroke="white" stroke-width="1.48253" stroke-linecap="round" stroke-linejoin="round"/>
</g>
<defs>
<filter id="filter0_d_118_2492" x="0.193664" y="0.193664" width="209.639" height="106.213" filterUnits="userSpaceOnUse" color-interpolation-filters="sRGB">
<feFlood flood-opacity="0" result="BackgroundImageFix"/>
<feColorMatrix in="SourceAlpha" type="matrix" values="0 0 0 0 0 0 0 0 0 0 0 0 0 0 0 0 0 0 127 0" result="hardAlpha"/>
<feOffset dx="3.15002" dy="3.15002"/>
<feGaussianBlur stdDeviation="14.1751"/>
<feColorMatrix type="matrix" values="0 0 0 0 0 0 0 0 0 0 0 0 0 0 0 0 0 0 0.05 0"/>
<feBlend mode="normal" in2="BackgroundImageFix" result="effect1_dropShadow_118_2492"/>
<feBlend mode="normal" in="SourceGraphic" in2="effect1_dropShadow_118_2492" result="shape"/>
</filter>
<linearGradient id="paint0_linear_118_2492" x1="60.5967" y1="8.55425" x2="146.629" y2="94.5863" gradientUnits="userSpaceOnUse">
<stop stop-color="#F1F1F1"/>
<stop offset="1" stop-color="#E1E1E1"/>
</linearGradient>
<clipPath id="clip0_118_2492">
<rect width="23.7205" height="23.7205" fill="white" transform="translate(144.622 38.2012)"/>
</clipPath>
</defs>
</svg>
