<svg width="170" height="83" viewBox="0 0 170 83" fill="none" xmlns="http://www.w3.org/2000/svg">
<g filter="url(#filter0_d_113_3678)">
<rect x="22" y="22" width="120.098" height="32.968" rx="5.09434" fill="white"/>
<rect x="22" y="22" width="120.098" height="32.968" rx="5.09434" stroke="url(#paint0_linear_113_3678)" stroke-opacity="0.3" stroke-width="1.02168"/>
</g>
<g filter="url(#filter1_d_113_3678)">
<mask id="path-3-outside-1_113_3678" maskUnits="userSpaceOnUse" x="37.9378" y="25.0517" width="21.7917" height="26.1429" fill="black">
<rect fill="white" x="37.9378" y="25.0517" width="21.7917" height="26.1429"/>
<path d="M53.4935 28.6442C54.1515 28.8063 54.7523 29.1346 55.2269 29.5898C55.7014 30.045 56.0314 30.6091 56.1775 31.2183C56.3236 31.8275 56.2802 32.4571 56.0532 33.0341C55.8261 33.611 55.4237 34.1128 54.893 34.4812C54.8617 34.5028 54.8298 34.5237 54.7976 34.5442C54.7322 34.6032 53.9749 35.1674 53.8562 35.9002C53.8219 36.1345 53.8265 36.3737 53.8683 36.6092C53.919 36.9239 54.2342 37.5822 54.2876 37.6704C55.0299 38.8906 55.6604 40.4625 55.8887 41.9657C56.2899 44.6063 55.6923 45.8755 55.5374 46.2557L55.537 46.2586C55.2485 47.2153 53.1494 47.6586 50.6149 47.3319L50.1018 47.2559C50.0968 47.2551 50.0915 47.2539 50.0864 47.253C50.0808 47.2521 50.0748 47.2509 50.0691 47.2499L49.9448 47.2287L49.94 47.2281L49.9131 47.2228L49.9092 47.2223C49.8675 47.2148 49.8255 47.2071 49.7841 47.1991C49.7784 47.198 49.7725 47.1971 49.7668 47.196C49.7617 47.195 49.7565 47.194 49.7514 47.1931L49.7515 47.1921C49.2977 47.104 48.8629 46.9952 48.4527 46.8727C48.0232 47.0705 47.5301 47.2488 46.9928 47.3895L46.6156 47.4808C46.6119 47.4816 46.6081 47.4825 46.6044 47.4834C46.6002 47.4843 46.5956 47.4847 46.5914 47.4857L46.4984 47.5057L46.4982 47.5067L46.4952 47.5073L46.4751 47.5107L46.4721 47.5113C46.4411 47.5178 46.4101 47.5244 46.3792 47.5304C46.375 47.5312 46.3704 47.5319 46.3661 47.5327L46.354 47.5352C44.2966 47.9346 42.5208 47.6436 42.2788 46.8698L42.2791 46.8679C42.1588 46.5805 41.6966 45.6224 41.9654 43.599C42.1184 42.4471 42.5712 41.2354 43.1119 40.2905C43.1508 40.2222 43.3794 39.7136 43.4134 39.4726C43.4418 39.292 43.4416 39.1097 43.4132 38.9314C43.3159 38.3747 42.7454 37.9579 42.6944 37.913C42.6698 37.8978 42.6453 37.8817 42.6215 37.8657C42.2207 37.594 41.9141 37.2187 41.7375 36.7827C41.5611 36.3469 41.5211 35.8679 41.6224 35.4008C41.7239 34.9334 41.9634 34.4959 42.312 34.1397C42.6606 33.7838 43.1051 33.5227 43.5944 33.3866C43.6063 33.3835 43.8937 33.3238 43.9003 33.3229C44.4027 33.2516 44.9104 33.3139 45.365 33.5023C45.8196 33.6908 46.2031 33.9977 46.471 34.3883C46.7389 34.779 46.8804 35.2375 46.8798 35.7109C46.879 36.1843 46.736 36.6537 46.467 37.0652C46.451 37.0895 46.4346 37.114 46.4177 37.1378C46.387 37.1999 46.0156 37.8127 46.1327 38.3651C46.1727 38.5407 46.2398 38.709 46.3329 38.864C46.4089 38.9952 46.5965 39.1925 46.7396 39.3333C47.4361 38.3423 48.3163 37.4365 49.1858 36.7517C49.2653 36.689 49.7938 36.1809 49.9515 35.9034C50.0731 35.6972 50.1602 35.474 50.2101 35.2425C50.3551 34.5154 49.8455 33.7244 49.8037 33.6447C49.7805 33.614 49.7573 33.583 49.7355 33.5517C49.3676 33.0218 49.1672 32.4121 49.1561 31.7929C49.1451 31.1735 49.3246 30.5688 49.674 30.0491C50.0233 29.5297 50.528 29.1154 51.1308 28.854C51.7339 28.5926 52.4107 28.4946 53.0834 28.5711C53.0944 28.5724 53.4758 28.6405 53.4935 28.6442Z"/>
</mask>
<path d="M53.4935 28.6442C54.1515 28.8063 54.7523 29.1346 55.2269 29.5898C55.7014 30.045 56.0314 30.6091 56.1775 31.2183C56.3236 31.8275 56.2802 32.4571 56.0532 33.0341C55.8261 33.611 55.4237 34.1128 54.893 34.4812C54.8617 34.5028 54.8298 34.5237 54.7976 34.5442C54.7322 34.6032 53.9749 35.1674 53.8562 35.9002C53.8219 36.1345 53.8265 36.3737 53.8683 36.6092C53.919 36.9239 54.2342 37.5822 54.2876 37.6704C55.0299 38.8906 55.6604 40.4625 55.8887 41.9657C56.2899 44.6063 55.6923 45.8755 55.5374 46.2557L55.537 46.2586C55.2485 47.2153 53.1494 47.6586 50.6149 47.3319L50.1018 47.2559C50.0968 47.2551 50.0915 47.2539 50.0864 47.253C50.0808 47.2521 50.0748 47.2509 50.0691 47.2499L49.9448 47.2287L49.94 47.2281L49.9131 47.2228L49.9092 47.2223C49.8675 47.2148 49.8255 47.2071 49.7841 47.1991C49.7784 47.198 49.7725 47.1971 49.7668 47.196C49.7617 47.195 49.7565 47.194 49.7514 47.1931L49.7515 47.1921C49.2977 47.104 48.8629 46.9952 48.4527 46.8727C48.0232 47.0705 47.5301 47.2488 46.9928 47.3895L46.6156 47.4808C46.6119 47.4816 46.6081 47.4825 46.6044 47.4834C46.6002 47.4843 46.5956 47.4847 46.5914 47.4857L46.4984 47.5057L46.4982 47.5067L46.4952 47.5073L46.4751 47.5107L46.4721 47.5113C46.4411 47.5178 46.4101 47.5244 46.3792 47.5304C46.375 47.5312 46.3704 47.5319 46.3661 47.5327L46.354 47.5352C44.2966 47.9346 42.5208 47.6436 42.2788 46.8698L42.2791 46.8679C42.1588 46.5805 41.6966 45.6224 41.9654 43.599C42.1184 42.4471 42.5712 41.2354 43.1119 40.2905C43.1508 40.2222 43.3794 39.7136 43.4134 39.4726C43.4418 39.292 43.4416 39.1097 43.4132 38.9314C43.3159 38.3747 42.7454 37.9579 42.6944 37.913C42.6698 37.8978 42.6453 37.8817 42.6215 37.8657C42.2207 37.594 41.9141 37.2187 41.7375 36.7827C41.5611 36.3469 41.5211 35.8679 41.6224 35.4008C41.7239 34.9334 41.9634 34.4959 42.312 34.1397C42.6606 33.7838 43.1051 33.5227 43.5944 33.3866C43.6063 33.3835 43.8937 33.3238 43.9003 33.3229C44.4027 33.2516 44.9104 33.3139 45.365 33.5023C45.8196 33.6908 46.2031 33.9977 46.471 34.3883C46.7389 34.779 46.8804 35.2375 46.8798 35.7109C46.879 36.1843 46.736 36.6537 46.467 37.0652C46.451 37.0895 46.4346 37.114 46.4177 37.1378C46.387 37.1999 46.0156 37.8127 46.1327 38.3651C46.1727 38.5407 46.2398 38.709 46.3329 38.864C46.4089 38.9952 46.5965 39.1925 46.7396 39.3333C47.4361 38.3423 48.3163 37.4365 49.1858 36.7517C49.2653 36.689 49.7938 36.1809 49.9515 35.9034C50.0731 35.6972 50.1602 35.474 50.2101 35.2425C50.3551 34.5154 49.8455 33.7244 49.8037 33.6447C49.7805 33.614 49.7573 33.583 49.7355 33.5517C49.3676 33.0218 49.1672 32.4121 49.1561 31.7929C49.1451 31.1735 49.3246 30.5688 49.674 30.0491C50.0233 29.5297 50.528 29.1154 51.1308 28.854C51.7339 28.5926 52.4107 28.4946 53.0834 28.5711C53.0944 28.5724 53.4758 28.6405 53.4935 28.6442Z" fill="#D9D9D9"/>
<path d="M53.4935 28.6442L53.7912 27.436L53.7707 27.431L53.7502 27.4266L53.4935 28.6442ZM55.2269 29.5898L56.0883 28.6918L56.0883 28.6918L55.2269 29.5898ZM56.1775 31.2183L57.3876 30.9281L57.3875 30.928L56.1775 31.2183ZM56.0532 33.0341L57.2111 33.4897L57.2111 33.4897L56.0532 33.0341ZM54.893 34.4812L55.5995 35.5055L55.6025 35.5035L54.893 34.4812ZM54.7976 34.5442L54.1273 33.4958L54.041 33.551L53.9649 33.6196L54.7976 34.5442ZM53.8562 35.9002L52.6279 35.7013L52.6263 35.7107L52.625 35.72L53.8562 35.9002ZM53.8683 36.6092L55.0968 36.4113L55.0952 36.4016L55.0935 36.392L53.8683 36.6092ZM54.2876 37.6704L53.2229 38.3145L53.2245 38.3171L54.2876 37.6704ZM55.8887 41.9657L54.6584 42.1526L54.6585 42.1526L55.8887 41.9657ZM55.5374 46.2557L54.385 45.7862L54.3226 45.9394L54.3023 46.1036L55.5374 46.2557ZM55.537 46.2586L56.7284 46.6179L56.759 46.5162L56.772 46.4108L55.537 46.2586ZM50.6149 47.3319L50.4326 48.5628L50.4442 48.5646L50.4559 48.5661L50.6149 47.3319ZM50.1018 47.2559L49.8957 48.4831L49.9076 48.4851L49.9195 48.4869L50.1018 47.2559ZM50.0864 47.253L50.2926 46.0259L50.2914 46.0257L50.0864 47.253ZM50.0691 47.2499L49.8598 48.4765L49.8614 48.4768L50.0691 47.2499ZM49.9448 47.2287L50.1542 46.0021L50.1256 45.9972L50.0969 45.9937L49.9448 47.2287ZM49.94 47.2281L49.7002 48.4492L49.7438 48.4577L49.7878 48.4631L49.94 47.2281ZM49.9131 47.2228L50.1528 46.0018L50.1092 45.9932L50.0652 45.9878L49.9131 47.2228ZM49.9092 47.2223L49.6875 48.4468L49.7221 48.4531L49.757 48.4574L49.9092 47.2223ZM49.7841 47.1991L50.0199 45.9772L50.0185 45.977L49.7841 47.1991ZM49.7668 47.196L49.5304 48.4177L49.531 48.4178L49.7668 47.196ZM49.7514 47.1931L48.5164 47.0409L48.3741 48.1964L49.5175 48.4152L49.7514 47.1931ZM49.7515 47.1921L50.9866 47.3442L51.1285 46.1917L49.9885 45.9705L49.7515 47.1921ZM48.4527 46.8727L48.8088 45.6804L48.3588 45.546L47.9322 45.7424L48.4527 46.8727ZM46.9928 47.3895L47.2855 48.599L47.2968 48.5962L47.3081 48.5933L46.9928 47.3895ZM46.6156 47.4808L46.884 48.6959L46.8961 48.6932L46.9082 48.6903L46.6156 47.4808ZM46.6044 47.4834L46.336 46.2683L46.3347 46.2686L46.6044 47.4834ZM46.5914 47.4857L46.8534 48.7021L46.8582 48.7011L46.5914 47.4857ZM46.4984 47.5057L46.2363 46.2893L45.3715 46.4755L45.2633 47.3536L46.4984 47.5057ZM46.4982 47.5067L46.7445 48.7264L47.6236 48.549L47.7333 47.6588L46.4982 47.5067ZM46.4952 47.5073L46.7044 48.7339L46.723 48.7308L46.7414 48.7271L46.4952 47.5073ZM46.4751 47.5107L46.266 46.2841L46.2474 46.2872L46.2289 46.291L46.4751 47.5107ZM46.4721 47.5113L46.2259 46.2916L46.2194 46.2929L46.4721 47.5113ZM46.3792 47.5304L46.1407 46.3091L46.1393 46.3094L46.3792 47.5304ZM46.3661 47.5327L46.1276 46.3114L46.1199 46.313L46.3661 47.5327ZM46.354 47.5352L46.5912 48.7567L46.6003 48.7549L46.354 47.5352ZM42.2788 46.8698L41.0438 46.7177L41.0109 46.9846L41.0912 47.2412L42.2788 46.8698ZM42.2791 46.8679L43.5141 47.02L43.5545 46.6923L43.427 46.3877L42.2791 46.8679ZM41.9654 43.599L43.199 43.7629L43.199 43.7628L41.9654 43.599ZM43.1119 40.2905L44.192 40.9085L44.1934 40.906L43.1119 40.2905ZM43.4134 39.4726L42.1842 39.279L42.1826 39.2889L42.1812 39.2988L43.4134 39.4726ZM43.4132 38.9314L44.642 38.7354L44.6405 38.7263L44.639 38.7173L43.4132 38.9314ZM42.6944 37.913L43.5156 36.9781L43.4382 36.9102L43.3507 36.8558L42.6944 37.913ZM42.6215 37.8657L41.9234 38.8957L41.9248 38.8967L42.6215 37.8657ZM41.7375 36.7827L40.5841 37.2496L40.5842 37.2498L41.7375 36.7827ZM41.6224 35.4008L40.4064 35.1368L40.4063 35.137L41.6224 35.4008ZM42.312 34.1397L41.423 33.2691L41.4228 33.2692L42.312 34.1397ZM43.5944 33.3866L43.2875 32.1806L43.2741 32.184L43.2608 32.1877L43.5944 33.3866ZM43.9003 33.3229L43.7255 32.0909L43.7243 32.091L43.9003 33.3229ZM45.365 33.5023L45.8416 32.3529L45.8415 32.3528L45.365 33.5023ZM46.471 34.3883L47.4972 33.6846L47.4972 33.6845L46.471 34.3883ZM46.8798 35.7109L48.1241 35.7129L48.1241 35.7127L46.8798 35.7109ZM46.467 37.0652L47.5065 37.7491L47.5084 37.7463L46.467 37.0652ZM46.4177 37.1378L45.4025 36.4182L45.3453 36.4989L45.3016 36.5876L46.4177 37.1378ZM46.1327 38.3651L44.9154 38.6232L44.9173 38.6323L44.9194 38.6414L46.1327 38.3651ZM46.3329 38.864L47.4097 38.2403L47.4047 38.2316L47.3995 38.223L46.3329 38.864ZM46.7396 39.3333L45.8667 40.2201L46.9132 41.2502L47.7576 40.0488L46.7396 39.3333ZM49.1858 36.7517L48.416 35.774L48.4159 35.7741L49.1858 36.7517ZM49.9515 35.9034L48.8798 35.2711L48.8747 35.2797L48.8697 35.2884L49.9515 35.9034ZM50.2101 35.2425L51.4265 35.5045L51.4285 35.4952L51.4304 35.4859L50.2101 35.2425ZM49.8037 33.6447L50.9059 33.0671L50.8586 32.9767L50.7971 32.8953L49.8037 33.6447ZM49.7355 33.5517L48.7134 34.2614L48.7143 34.2628L49.7355 33.5517ZM49.1561 31.7929L47.912 31.8149L47.912 31.815L49.1561 31.7929ZM49.674 30.0491L48.6414 29.3547L48.6413 29.3549L49.674 30.0491ZM51.1308 28.854L50.6359 27.7123L50.6358 27.7124L51.1308 28.854ZM53.0834 28.5711L53.2252 27.3348L53.2241 27.3347L53.0834 28.5711ZM53.4935 28.6442L53.1959 29.8525C53.6479 29.9638 54.0527 30.1878 54.3655 30.4878L55.2269 29.5898L56.0883 28.6918C55.4519 28.0814 54.6551 27.6488 53.7912 27.436L53.4935 28.6442ZM55.2269 29.5898L54.3654 30.4878C54.6779 30.7875 54.8801 31.1441 54.9674 31.5085L56.1775 31.2183L57.3875 30.928C57.1827 30.074 56.7249 29.3025 56.0883 28.6918L55.2269 29.5898ZM56.1775 31.2183L54.9674 31.5084C55.0546 31.8718 55.0281 32.2409 54.8952 32.5784L56.0532 33.0341L57.2111 33.4897C57.5324 32.6732 57.5926 31.7832 57.3876 30.9281L56.1775 31.2183ZM56.0532 33.0341L54.8953 32.5784C54.7624 32.9161 54.5211 33.2246 54.1834 33.4589L54.893 34.4812L55.6025 35.5035C56.3263 35.0011 56.8899 34.3059 57.2111 33.4897L56.0532 33.0341ZM54.893 34.4812L54.1864 33.4569C54.171 33.4675 54.1521 33.48 54.1273 33.4958L54.7976 34.5442L55.4679 35.5926C55.5075 35.5673 55.5523 35.5381 55.5995 35.5055L54.893 34.4812ZM54.7976 34.5442L53.9649 33.6196C54.024 33.5663 53.6889 33.8352 53.4149 34.145C53.1395 34.4563 52.7423 34.9948 52.6279 35.7013L53.8562 35.9002L55.0846 36.0992C55.0889 36.0728 55.1296 35.9627 55.2789 35.794C55.4295 35.6237 55.5058 35.5811 55.6303 35.4689L54.7976 34.5442ZM53.8562 35.9002L52.625 35.72C52.5708 36.0903 52.5787 36.4638 52.643 36.8264L53.8683 36.6092L55.0935 36.392C55.0743 36.2836 55.0731 36.1786 55.0875 36.0805L53.8562 35.9002ZM53.8683 36.6092L52.6397 36.8071C52.6925 37.1344 52.8447 37.5078 52.9326 37.7136C53.026 37.9322 53.1472 38.1893 53.2229 38.3145L54.2876 37.6704L55.3522 37.0262C55.3705 37.0565 55.3771 37.0711 55.3644 37.0461C55.3564 37.0306 55.3444 37.0063 55.329 36.9741C55.2982 36.9099 55.2596 36.8257 55.2212 36.7359C55.1823 36.6447 55.1478 36.5575 55.1224 36.4848C55.0926 36.3996 55.0919 36.3811 55.0968 36.4113L53.8683 36.6092ZM54.2876 37.6704L53.2245 38.3171C53.8947 39.4188 54.4585 40.836 54.6584 42.1526L55.8887 41.9657L57.119 41.7788C56.8623 40.0889 56.1651 38.3624 55.3507 37.0236L54.2876 37.6704ZM55.8887 41.9657L54.6585 42.1526C54.8404 43.35 54.7898 44.1934 54.695 44.749C54.6016 45.2959 54.4625 45.5959 54.385 45.7862L55.5374 46.2557L56.6897 46.7253C56.7671 46.5353 57.0043 46.0106 57.1482 45.1677C57.2906 44.3335 57.3382 43.222 57.1189 41.7788L55.8887 41.9657ZM55.5374 46.2557L54.3023 46.1036L54.302 46.1065L55.537 46.2586L56.772 46.4108L56.7724 46.4079L55.5374 46.2557ZM55.537 46.2586L54.3456 45.8993C54.3906 45.7502 54.4692 45.7428 54.3489 45.817C54.2313 45.8896 54.0092 45.9838 53.6555 46.0602C52.9521 46.2121 51.9422 46.2483 50.774 46.0978L50.6149 47.3319L50.4559 48.5661C51.8221 48.7422 53.1289 48.7201 54.1809 48.4929C54.7048 48.3797 55.2199 48.2041 55.6563 47.9347C56.09 47.667 56.5391 47.2454 56.7284 46.6179L55.537 46.2586ZM50.6149 47.3319L50.7973 46.101L50.2842 46.025L50.1018 47.2559L49.9195 48.4869L50.4326 48.5628L50.6149 47.3319ZM50.1018 47.2559L50.308 46.0287C50.318 46.0304 50.3258 46.0319 50.3296 46.0326C50.3331 46.0333 50.3359 46.0338 50.3339 46.0334C50.3333 46.0333 50.328 46.0323 50.3219 46.0311C50.3155 46.0299 50.3051 46.028 50.2926 46.0259L50.0864 47.253L49.8803 48.4802C49.8703 48.4785 49.8625 48.4771 49.8586 48.4763C49.8551 48.4757 49.8523 48.4751 49.8543 48.4755C49.8549 48.4756 49.8603 48.4767 49.8664 48.4778C49.8728 48.4791 49.8831 48.481 49.8957 48.4831L50.1018 47.2559ZM50.0864 47.253L50.2914 46.0257C50.2972 46.0266 50.3016 46.0274 50.3036 46.0278C50.3054 46.0281 50.3066 46.0283 50.305 46.028C50.3042 46.0279 50.3003 46.0272 50.2962 46.0264C50.2918 46.0256 50.285 46.0244 50.2768 46.023L50.0691 47.2499L49.8614 48.4768C49.8561 48.4759 49.8521 48.4752 49.8506 48.4749C49.8494 48.4747 49.8484 48.4745 49.8506 48.4749C49.8519 48.4752 49.856 48.4759 49.8607 48.4768C49.8656 48.4777 49.8728 48.479 49.8815 48.4804L50.0864 47.253ZM50.0691 47.2499L50.2785 46.0233L50.1542 46.0021L49.9448 47.2287L49.7355 48.4553L49.8598 48.4765L50.0691 47.2499ZM49.9448 47.2287L50.0969 45.9937L50.0921 45.9931L49.94 47.2281L49.7878 48.4631L49.7927 48.4637L49.9448 47.2287ZM49.94 47.2281L50.1797 46.0071L50.1528 46.0018L49.9131 47.2228L49.6733 48.4439L49.7002 48.4492L49.94 47.2281ZM49.9131 47.2228L50.0652 45.9878L50.0613 45.9873L49.9092 47.2223L49.757 48.4574L49.7609 48.4579L49.9131 47.2228ZM49.9092 47.2223L50.1309 45.9979C50.0916 45.9908 50.0548 45.984 50.0199 45.9772L49.7841 47.1991L49.5484 48.4209C49.5963 48.4301 49.6434 48.4388 49.6875 48.4468L49.9092 47.2223ZM49.7841 47.1991L50.0185 45.977C50.01 45.9753 50.0028 45.9741 49.9981 45.9732C49.9936 45.9724 49.9895 45.9717 49.9886 45.9715C49.9869 45.9712 49.9882 45.9715 49.9901 45.9718C49.9922 45.9722 49.9967 45.973 50.0026 45.9741L49.7668 47.196L49.531 48.4178C49.5398 48.4195 49.5472 48.4208 49.5522 48.4217C49.5569 48.4226 49.5612 48.4233 49.5623 48.4235C49.5644 48.4238 49.5632 48.4236 49.5616 48.4234C49.5597 48.423 49.5554 48.4223 49.5498 48.4212L49.7841 47.1991ZM49.7668 47.196L50.0032 45.9743C49.9947 45.9726 49.9871 45.9712 49.9849 45.9708C49.984 45.9706 49.9837 45.9706 49.9832 45.9705C49.9828 45.9704 49.9827 45.9704 49.9827 45.9704C49.9828 45.9704 49.983 45.9705 49.9834 45.9705C49.9839 45.9706 49.9845 45.9707 49.9854 45.9709L49.7514 47.1931L49.5175 48.4152C49.5216 48.416 49.5252 48.4167 49.5278 48.4172C49.5302 48.4176 49.5325 48.4181 49.5334 48.4182C49.5363 48.4188 49.5339 48.4183 49.5304 48.4177L49.7668 47.196ZM49.7514 47.1931L50.9864 47.3452L50.9866 47.3442L49.7515 47.1921L48.5165 47.04L48.5164 47.0409L49.7514 47.1931ZM49.7515 47.1921L49.9885 45.9705C49.5768 45.8906 49.1818 45.7918 48.8088 45.6804L48.4527 46.8727L48.0966 48.065C48.544 48.1986 49.0185 48.3174 49.5145 48.4137L49.7515 47.1921ZM48.4527 46.8727L47.9322 45.7424C47.5718 45.9084 47.1475 46.0627 46.6775 46.1858L46.9928 47.3895L47.3081 48.5933C47.9126 48.4349 48.4747 48.2325 48.9732 48.003L48.4527 46.8727ZM46.9928 47.3895L46.7002 46.18L46.3229 46.2713L46.6156 47.4808L46.9082 48.6903L47.2855 48.599L46.9928 47.3895ZM46.6156 47.4808L46.3471 46.2657C46.341 46.2671 46.3358 46.2683 46.3324 46.2691C46.3291 46.2698 46.3262 46.2705 46.3256 46.2706C46.3243 46.2709 46.3254 46.2707 46.3268 46.2704C46.3284 46.27 46.3317 46.2692 46.336 46.2683L46.6044 47.4834L46.8729 48.6984C46.879 48.6971 46.8842 48.6959 46.8876 48.6951C46.8909 48.6943 46.8938 48.6936 46.8944 48.6935C46.8956 48.6932 46.8946 48.6935 46.8932 48.6938C46.8916 48.6942 46.8883 48.6949 46.884 48.6959L46.6156 47.4808ZM46.6044 47.4834L46.3347 46.2686C46.3587 46.2633 46.378 46.2598 46.389 46.2579C46.3946 46.2569 46.3992 46.2561 46.4017 46.2557C46.404 46.2554 46.4058 46.2551 46.405 46.2552C46.405 46.2552 46.4022 46.2556 46.3991 46.2561C46.3957 46.2567 46.3903 46.2576 46.3837 46.2587C46.371 46.2609 46.3501 46.2647 46.3245 46.2703L46.5914 47.4857L46.8582 48.7011C46.8348 48.7062 46.816 48.7096 46.8055 48.7114C46.8 48.7124 46.7957 48.7131 46.7934 48.7134C46.7914 48.7137 46.7897 48.714 46.7908 48.7138C46.7911 48.7138 46.794 48.7133 46.7974 48.7128C46.801 48.7122 46.8066 48.7113 46.8134 48.7101C46.8266 48.7078 46.848 48.7039 46.8741 48.6981L46.6044 47.4834ZM46.5914 47.4857L46.3293 46.2692L46.2363 46.2893L46.4984 47.5057L46.7604 48.7222L46.8534 48.7021L46.5914 47.4857ZM46.4984 47.5057L45.2633 47.3536L45.2632 47.3545L46.4982 47.5067L47.7333 47.6588L47.7334 47.6578L46.4984 47.5057ZM46.4982 47.5067L46.252 46.2869L46.249 46.2875L46.4952 47.5073L46.7414 48.7271L46.7445 48.7264L46.4982 47.5067ZM46.4952 47.5073L46.2861 46.2806L46.266 46.2841L46.4751 47.5107L46.6843 48.7374L46.7044 48.7339L46.4952 47.5073ZM46.4751 47.5107L46.2289 46.291L46.2259 46.2916L46.4721 47.5113L46.7183 48.7311L46.7213 48.7305L46.4751 47.5107ZM46.4721 47.5113L46.2194 46.2929C46.1795 46.3012 46.1622 46.3049 46.1407 46.3091L46.3792 47.5304L46.6177 48.7517C46.6581 48.7438 46.7027 48.7343 46.7248 48.7298L46.4721 47.5113ZM46.3792 47.5304L46.1393 46.3094C46.149 46.3075 46.1565 46.3061 46.1604 46.3054C46.164 46.3048 46.1669 46.3043 46.1652 46.3046C46.1649 46.3047 46.16 46.3055 46.1545 46.3064C46.1487 46.3075 46.1392 46.3092 46.1277 46.3114L46.3661 47.5327L46.6046 48.754C46.5952 48.7559 46.5879 48.7572 46.5842 48.7578C46.5809 48.7584 46.5782 48.7588 46.5801 48.7585C46.5807 48.7584 46.5858 48.7576 46.5915 48.7565C46.5976 48.7555 46.6074 48.7537 46.6192 48.7514L46.3792 47.5304ZM46.3661 47.5327L46.1199 46.313L46.1078 46.3154L46.354 47.5352L46.6003 48.7549L46.6124 48.7525L46.3661 47.5327ZM46.354 47.5352L46.1169 46.3136C45.1946 46.4927 44.3887 46.5047 43.8364 46.4144C43.5573 46.3688 43.4001 46.3063 43.3348 46.2698C43.2653 46.231 43.3988 46.282 43.4665 46.4984L42.2788 46.8698L41.0912 47.2412C41.2799 47.8446 41.7261 48.2221 42.1219 48.443C42.5219 48.6663 42.9826 48.7966 43.4349 48.8705C44.3453 49.0193 45.4561 48.9771 46.5912 48.7567L46.354 47.5352ZM42.2788 46.8698L43.5139 47.022L43.5141 47.02L42.2791 46.8679L41.044 46.7158L41.0438 46.7177L42.2788 46.8698ZM42.2791 46.8679L43.427 46.3877C43.3668 46.2437 43.2705 46.0426 43.2003 45.6598C43.1284 45.268 43.0805 44.6541 43.199 43.7629L41.9654 43.599L40.7319 43.4351C40.5815 44.5673 40.6304 45.4441 40.7524 46.1091C40.8761 46.783 41.0711 47.2047 41.1311 47.3481L42.2791 46.8679ZM41.9654 43.599L43.199 43.7628C43.3277 42.7938 43.7191 41.7349 44.192 40.9085L43.1119 40.2905L42.0319 39.6725C41.4234 40.7358 40.9092 42.1005 40.7319 43.4351L41.9654 43.599ZM43.1119 40.2905L44.1934 40.906C44.2586 40.7914 44.3521 40.5779 44.42 40.4081C44.4826 40.2514 44.6049 39.9346 44.6456 39.6464L43.4134 39.4726L42.1812 39.2988C42.1856 39.268 42.1897 39.2541 42.1874 39.2631C42.1857 39.2697 42.1815 39.2845 42.1738 39.3083C42.1581 39.3567 42.1356 39.4178 42.109 39.4845C42.0828 39.55 42.0564 39.6114 42.0356 39.6578C42.0252 39.681 42.0174 39.6977 42.0128 39.7072C42.0038 39.726 42.012 39.7074 42.0304 39.675L43.1119 40.2905ZM43.4134 39.4726L44.6426 39.6662C44.6913 39.357 44.6911 39.0432 44.642 38.7354L43.4132 38.9314L42.1843 39.1273C42.1921 39.1761 42.1924 39.227 42.1842 39.279L43.4134 39.4726ZM43.4132 38.9314L44.639 38.7173C44.532 38.1048 44.1889 37.6511 43.9622 37.3987C43.7356 37.1465 43.4549 36.9248 43.5156 36.9781L42.6944 37.913L41.8731 38.8479C41.8999 38.8714 41.9272 38.8932 41.9285 38.8942C41.9394 38.903 41.9431 38.906 41.9518 38.9131C41.9656 38.9242 41.9809 38.9368 41.9979 38.9517C42.0331 38.9823 42.0732 39.02 42.1107 39.0618C42.1494 39.1049 42.1746 39.1403 42.1885 39.1645C42.2026 39.1889 42.1937 39.182 42.1874 39.1455L43.4132 38.9314ZM42.6944 37.913L43.3507 36.8558C43.3423 36.8506 43.3314 36.8435 43.3182 36.8346L42.6215 37.8657L41.9248 38.8967C41.9591 38.9199 41.9973 38.9449 42.038 38.9702L42.6944 37.913ZM42.6215 37.8657L43.3196 36.8356C43.1163 36.6978 42.9718 36.5155 42.8908 36.3155L41.7375 36.7827L40.5842 37.2498C40.8564 37.9219 41.3252 38.4903 41.9234 38.8957L42.6215 37.8657ZM41.7375 36.7827L42.8909 36.3157C42.8098 36.1154 42.7893 35.8914 42.8385 35.6646L41.6224 35.4008L40.4063 35.137C40.2528 35.8445 40.3123 36.5783 40.5841 37.2496L41.7375 36.7827ZM41.6224 35.4008L42.8384 35.6649C42.888 35.4367 43.0088 35.2067 43.2012 35.0102L42.312 34.1397L41.4228 33.2692C40.9179 33.785 40.5598 34.4301 40.4064 35.1368L41.6224 35.4008ZM42.312 34.1397L43.2011 35.0104C43.3935 34.8138 43.6452 34.664 43.9279 34.5854L43.5944 33.3866L43.2608 32.1877C42.565 32.3813 41.9277 32.7537 41.423 33.2691L42.312 34.1397ZM43.5944 33.3866L43.9013 34.5925C43.8902 34.5953 43.8816 34.5973 43.8789 34.5979C43.875 34.5988 43.8721 34.5995 43.8706 34.5999C43.8689 34.6002 43.8676 34.6005 43.8669 34.6007C43.8662 34.6008 43.8657 34.6009 43.8656 34.601C43.8654 34.601 43.8667 34.6007 43.8705 34.5999C43.8775 34.5984 43.8883 34.5961 43.9022 34.5932C43.9297 34.5874 43.966 34.5799 44.0026 34.5723C44.0391 34.5647 44.0752 34.5572 44.1022 34.5516C44.1159 34.5488 44.1264 34.5467 44.1333 34.5453C44.1369 34.5445 44.1381 34.5443 44.1378 34.5444C44.1376 34.5444 44.1371 34.5445 44.1362 34.5447C44.1355 34.5448 44.134 34.5451 44.1319 34.5455C44.1303 34.5458 44.1262 34.5466 44.1208 34.5476C44.1181 34.5481 44.1135 34.5489 44.1077 34.5499C44.1033 34.5506 44.0915 34.5526 44.0764 34.5547L43.9003 33.3229L43.7243 32.091C43.6694 32.0989 43.5255 32.1295 43.4962 32.1356C43.451 32.145 43.3289 32.1701 43.2875 32.1806L43.5944 33.3866ZM43.9003 33.3229L44.0752 34.5549C44.3639 34.5139 44.6461 34.5514 44.8885 34.6519L45.365 33.5023L45.8415 32.3528C45.1746 32.0764 44.4415 31.9893 43.7255 32.0909L43.9003 33.3229ZM45.365 33.5023L44.8884 34.6518C45.1303 34.7521 45.319 34.9087 45.4448 35.0922L46.471 34.3883L47.4972 33.6845C47.0872 33.0867 46.5089 32.6295 45.8416 32.3529L45.365 33.5023ZM46.471 34.3883L45.4448 35.0921C45.5701 35.2748 45.6357 35.4873 45.6354 35.7091L46.8798 35.7109L48.1241 35.7127C48.1252 34.9878 47.9078 34.2832 47.4972 33.6846L46.471 34.3883ZM46.8798 35.7109L45.6354 35.709C45.6351 35.9317 45.5678 36.1666 45.4255 36.3841L46.467 37.0652L47.5084 37.7463C47.9043 37.1409 48.123 36.4368 48.1241 35.7129L46.8798 35.7109ZM46.467 37.0652L45.4274 36.3812C45.4145 36.4009 45.4072 36.4116 45.4025 36.4182L46.4177 37.1378L47.4328 37.8574C47.462 37.8163 47.4875 37.778 47.5065 37.7491L46.467 37.0652ZM46.4177 37.1378L45.3016 36.5876C45.3353 36.5191 45.1619 36.8295 45.0478 37.1495C44.9343 37.4674 44.787 38.0175 44.9154 38.6232L46.1327 38.3651L47.35 38.107C47.3576 38.1431 47.3518 38.1511 47.3561 38.1196C47.3604 38.0889 47.3713 38.0433 47.3918 37.9857C47.4117 37.9298 47.4356 37.877 47.4574 37.8333C47.468 37.8121 47.4777 37.7938 47.4864 37.7776C47.4919 37.7675 47.4944 37.763 47.501 37.7507C47.502 37.7489 47.5185 37.7191 47.5338 37.688L46.4177 37.1378ZM46.1327 38.3651L44.9194 38.6414C44.9881 38.9433 45.1041 39.235 45.2664 39.505L46.3329 38.864L47.3995 38.223C47.3754 38.183 47.3572 38.1381 47.346 38.0888L46.1327 38.3651ZM46.3329 38.864L45.2562 39.4877C45.4311 39.7897 45.7474 40.1027 45.8667 40.2201L46.7396 39.3333L47.6125 38.4464C47.552 38.3869 47.4899 38.323 47.4399 38.267C47.4152 38.2392 47.3989 38.2195 47.3899 38.2079C47.3781 38.1928 47.3895 38.2054 47.4097 38.2403L46.3329 38.864ZM46.7396 39.3333L47.7576 40.0488C48.3812 39.1616 49.1764 38.3431 49.9558 37.7292L49.1858 36.7517L48.4159 35.7741C47.4562 36.5299 46.4911 37.5229 45.7215 38.6177L46.7396 39.3333ZM49.1858 36.7517L49.9557 37.7293C50.0711 37.6384 50.2757 37.4389 50.4397 37.2671C50.5943 37.105 50.869 36.8075 51.0334 36.5183L49.9515 35.9034L48.8697 35.2884C48.8851 35.2614 48.8782 35.2783 48.8202 35.348C48.7708 35.4074 48.7077 35.4772 48.639 35.5491C48.5714 35.62 48.5056 35.6855 48.4542 35.7349C48.4285 35.7596 48.4087 35.7781 48.3959 35.7898C48.3749 35.809 48.3871 35.7968 48.416 35.774L49.1858 36.7517ZM49.9515 35.9034L51.0233 36.5356C51.2126 36.2147 51.3486 35.8665 51.4265 35.5045L50.2101 35.2425L48.9936 34.9805C48.9718 35.0816 48.9337 35.1798 48.8798 35.2711L49.9515 35.9034ZM50.2101 35.2425L51.4304 35.4859C51.5701 34.7853 51.3875 34.1432 51.2388 33.7553C51.0898 33.3667 50.873 33.0044 50.9059 33.0671L49.8037 33.6447L48.7015 34.2223C48.7762 34.3647 48.835 34.4377 48.915 34.6463C48.9953 34.8556 48.995 34.9726 48.9897 34.9992L50.2101 35.2425ZM49.8037 33.6447L50.7971 32.8953C50.7732 32.8637 50.7633 32.8501 50.7566 32.8406L49.7355 33.5517L48.7143 34.2628C48.7513 34.3159 48.7878 34.3643 48.8103 34.3941L49.8037 33.6447ZM49.7355 33.5517L50.7576 32.8419C50.5244 32.5062 50.4068 32.1341 50.4003 31.7707L49.1561 31.7929L47.912 31.815C47.9276 32.69 48.2107 33.5375 48.7134 34.2614L49.7355 33.5517ZM49.1561 31.7929L50.4003 31.7708C50.3939 31.409 50.498 31.0539 50.7067 30.7434L49.674 30.0491L48.6413 29.3549C48.1513 30.0838 47.8964 30.9381 47.912 31.8149L49.1561 31.7929ZM49.674 30.0491L50.7066 30.7435C50.9166 30.4312 51.2303 30.1672 51.6259 29.9957L51.1308 28.854L50.6358 27.7124C49.8257 28.0636 49.13 28.6282 48.6414 29.3547L49.674 30.0491ZM51.1308 28.854L51.6258 29.9957C52.0226 29.8237 52.4796 29.7548 52.9427 29.8075L53.0834 28.5711L53.2241 27.3347C52.3417 27.2343 51.4451 27.3615 50.6359 27.7123L51.1308 28.854ZM53.0834 28.5711L52.9416 29.8073C52.9204 29.8049 52.9039 29.8024 52.9018 29.8021C52.8963 29.8013 52.892 29.8006 52.8902 29.8003C52.8881 29.8 52.8865 29.7997 52.8857 29.7996C52.8849 29.7995 52.8844 29.7994 52.8843 29.7994C52.8841 29.7994 52.8846 29.7994 52.886 29.7997C52.8873 29.7999 52.8891 29.8002 52.8914 29.8006C52.9009 29.8023 52.9153 29.8048 52.9336 29.808C52.97 29.8144 53.0183 29.823 53.0673 29.8317C53.1162 29.8405 53.1651 29.8492 53.2025 29.856C53.2213 29.8594 53.2366 29.8622 53.2472 29.8641C53.2527 29.8651 53.2559 29.8657 53.2575 29.866C53.2654 29.8675 53.2526 29.8652 53.2369 29.8619L53.4935 28.6442L53.7502 27.4266C53.7163 27.4195 53.5843 27.396 53.5047 27.3817C53.4498 27.372 53.2821 27.3414 53.2252 27.3348L53.0834 28.5711Z" fill="url(#paint1_linear_113_3678)" mask="url(#path-3-outside-1_113_3678)"/>
</g>
<path d="M55.9126 41.9988C55.6843 40.4954 55.0546 38.9238 54.3122 37.7035C54.2596 37.6171 53.9427 36.9564 53.8922 36.6414C53.8505 36.4059 53.8467 36.1671 53.881 35.9327C53.9997 35.1999 54.7564 34.6362 54.8218 34.5773C54.8543 34.5565 54.8862 34.5353 54.9178 34.5135C55.4486 34.1451 55.8505 33.6437 56.0775 33.0667C56.3046 32.4897 56.3475 31.8605 56.2014 31.2512C56.0553 30.642 55.7261 30.0774 55.2515 29.6221C54.777 29.1669 54.1763 28.8395 53.5183 28.6774C53.5096 28.6752 53.119 28.6051 53.1078 28.6039C52.4351 28.5273 51.7584 28.6254 51.1554 28.8868C50.5523 29.1483 50.0472 29.5626 49.6978 30.0823C49.3485 30.6019 49.169 31.206 49.18 31.8253C49.191 32.4447 49.392 33.0542 49.76 33.5841C49.7819 33.6155 49.8044 33.6466 49.8276 33.6773C49.8683 33.7554 50.3798 34.5476 50.2344 35.2756C50.1846 35.5072 50.0974 35.7296 49.9758 35.9357C49.8182 36.2132 49.29 36.7216 49.2105 36.7842C48.0877 37.6685 46.9474 38.9211 46.2072 40.2499C44.9064 42.5844 45.0214 43.9818 45.0334 44.3917C45.0335 44.3926 45.0333 44.3934 45.0335 44.3941C44.9642 45.4577 47.0301 46.6926 49.7759 47.2253L49.7759 47.2254C49.7811 47.2264 49.7862 47.2274 49.7913 47.2284C49.7971 47.2295 49.8028 47.2306 49.8086 47.2317C49.85 47.2397 49.8913 47.2476 49.933 47.2552L49.9332 47.2552L49.9338 47.2553C49.9351 47.2555 49.9363 47.2558 49.9376 47.256C49.9421 47.2568 49.9465 47.2576 49.951 47.2583C49.9555 47.2592 49.9599 47.26 49.9644 47.2608C49.9657 47.2611 49.967 47.2613 49.9682 47.2615L49.9688 47.2616L49.969 47.2616C50.0107 47.2691 50.0522 47.2761 50.0938 47.2831C50.0996 47.284 50.1054 47.285 50.1111 47.286C50.1163 47.2868 50.1214 47.2877 50.1266 47.2886L50.1266 47.2885C52.8858 47.7478 55.2536 47.3118 55.5612 46.2911C55.5615 46.2905 55.5617 46.2897 55.5621 46.2889C55.7168 45.909 56.3139 44.64 55.9126 41.9988Z" fill="url(#paint2_linear_113_3678)"/>
<path d="M55.3121 41.7394C55.1329 40.2819 54.5984 38.7644 53.9582 37.5901C53.9129 37.5069 53.6418 36.8698 53.6019 36.5644C53.5685 36.3349 53.5689 36.1033 53.6031 35.8758C53.72 35.1617 54.4007 34.6022 54.4598 34.5438C54.4889 34.5232 54.5176 34.502 54.546 34.4804C55.1569 34.0116 55.6024 33.3219 55.7504 32.5033C56.0418 30.891 55.0899 29.4296 53.568 28.9606C53.4571 28.9271 53.3444 28.899 53.2306 28.8764C53.1246 28.8578 52.9532 28.8416 52.8928 28.838C51.2997 28.7421 49.7677 29.7577 49.4758 31.3726C49.3278 32.1912 49.5721 33.0053 49.9803 33.6577C49.9992 33.6878 50.0187 33.7177 50.0388 33.7472C50.0738 33.8225 50.5156 34.5843 50.3751 35.2942C50.3275 35.5192 50.2467 35.7363 50.1351 35.9397C49.9908 36.2119 49.5138 36.7142 49.4421 36.7763C48.4312 37.6532 47.399 38.8883 46.7208 40.1913C45.5292 42.4804 45.6094 43.8366 45.6137 44.2348C45.6137 44.2357 45.6136 44.2365 45.6137 44.2371C45.5355 45.2719 47.3507 46.4398 49.7808 46.9146L49.7808 46.9147C49.7853 46.9156 49.7899 46.9164 49.7944 46.9173C49.7995 46.9183 49.8046 46.9193 49.8096 46.9203C49.8463 46.9274 49.8829 46.9345 49.9198 46.9412L49.9199 46.9412L49.9205 46.9413C49.9216 46.9415 49.9227 46.9417 49.9239 46.9419C49.9278 46.9427 49.9318 46.9433 49.9357 46.944C49.9397 46.9447 49.9436 46.9455 49.9476 46.9462C49.9487 46.9464 49.9498 46.9466 49.951 46.9468L49.9515 46.9469L49.9516 46.9469C49.9885 46.9535 50.0253 46.9597 50.0622 46.9658C50.0673 46.9666 50.0724 46.9675 50.0775 46.9683C50.0821 46.9691 50.0866 46.9699 50.0912 46.9706L50.0912 46.9706C52.5342 47.3738 54.6438 46.9131 54.9329 45.9164C54.9332 45.9158 54.9333 45.915 54.9337 45.9143C55.0771 45.5426 55.6271 44.3 55.3121 41.7394Z" fill="url(#paint3_linear_113_3678)"/>
<g style="mix-blend-mode:overlay">
<path d="M55.3516 41.733C55.1724 40.2755 54.6379 38.758 53.9977 37.5836C53.9524 37.5004 53.6813 36.8633 53.6414 36.558C53.608 36.3285 53.6084 36.0969 53.6426 35.8694C53.7595 35.1553 54.4402 34.5957 54.4993 34.5374C54.5284 34.5168 54.5571 34.4956 54.5855 34.474C55.1964 34.0052 55.6419 33.3154 55.7899 32.4969C56.0929 30.8208 55.0376 29.2155 53.4109 28.8182L53.4116 28.8143C53.3734 28.8059 53.335 28.7982 53.2961 28.7912C53.283 28.7888 53.2699 28.7868 53.2567 28.7846C53.2437 28.7821 53.2307 28.7794 53.2176 28.777C53.1786 28.77 53.14 28.7639 53.1012 28.7583L53.1005 28.7623C51.4373 28.5667 49.8866 29.7024 49.5836 31.3785C49.4356 32.1971 49.6116 32.9989 50.0198 33.6513C50.0387 33.6814 50.0582 33.7113 50.0783 33.7408C50.1132 33.816 50.5551 34.5779 50.4146 35.2878C50.367 35.5128 50.2862 35.7299 50.1746 35.9333C50.0303 36.2054 49.5532 36.7077 49.4816 36.7699C48.4707 37.6467 47.4385 38.8819 46.7603 40.1849C45.5687 42.474 45.6489 43.8302 45.6532 44.2284C45.6532 44.2293 45.6531 44.2301 45.6532 44.2307C45.575 45.2655 47.3902 46.4334 49.8203 46.9082L49.8203 46.9083C49.8248 46.9091 49.8294 46.91 49.8339 46.9109C49.839 46.9119 49.8441 46.9129 49.8491 46.9139C49.8858 46.921 49.9224 46.9281 49.9593 46.9348L49.9594 46.9348L49.96 46.9349C49.9611 46.9351 49.9622 46.9353 49.9634 46.9355C49.9673 46.9362 49.9713 46.9369 49.9752 46.9376C49.9792 46.9383 49.9831 46.9391 49.9871 46.9398C49.9882 46.94 49.9893 46.9402 49.9905 46.9404L49.991 46.9405L49.9911 46.9405C50.028 46.9471 50.0648 46.9532 50.1017 46.9594C50.1068 46.9602 50.1119 46.9611 50.117 46.9619C50.1216 46.9627 50.1261 46.9634 50.1307 46.9642L50.1307 46.9641C52.5737 47.3674 54.6833 46.9067 54.9724 45.91C54.9727 45.9094 54.9728 45.9086 54.9732 45.9078C55.1166 45.5362 55.6666 44.2936 55.3516 41.733Z" fill="url(#paint4_radial_113_3678)"/>
</g>
<path d="M55.3519 41.7314C55.1727 40.2739 54.6381 38.7564 53.998 37.582C53.9526 37.4988 53.6816 36.8617 53.6417 36.5564C53.6083 36.3269 53.6087 36.0953 53.6428 35.8678C53.7597 35.1537 54.4404 34.5941 54.4995 34.5358C54.5286 34.5152 54.5574 34.494 54.5857 34.4724C55.1966 34.0036 55.6421 33.3138 55.7901 32.4953C56.0905 30.8337 55.056 29.2416 53.4532 28.8272C53.4392 28.8236 53.0827 28.7586 53.0737 28.7576C51.4208 28.5774 49.8852 29.7099 49.5838 31.3769C49.4359 32.1955 49.6118 32.9973 50.02 33.6497C50.0389 33.6798 50.0584 33.7097 50.0786 33.7392C50.1135 33.8144 50.5553 34.5763 50.4148 35.2862C50.3672 35.5112 50.2865 35.7283 50.1748 35.9317C50.0305 36.2038 49.5535 36.7061 49.4819 36.7683C48.4709 37.6451 47.4388 38.8803 46.7606 40.1833C45.5689 42.4724 45.6492 43.8286 45.6534 44.2268C45.6534 44.2277 45.6533 44.2285 45.6534 44.2291C45.5753 45.2639 47.3904 46.4318 49.8205 46.9066L49.8205 46.9067C49.825 46.9076 49.8296 46.9084 49.8341 46.9093C49.8392 46.9103 49.8443 46.9113 49.8494 46.9123C49.886 46.9194 49.9226 46.9265 49.9596 46.9332L49.9597 46.9332L49.9602 46.9333C49.9613 46.9335 49.9625 46.9337 49.9636 46.9339C49.9676 46.9346 49.9715 46.9353 49.9755 46.936C49.9794 46.9367 49.9833 46.9375 49.9873 46.9382C49.9884 46.9384 49.9896 46.9386 49.9907 46.9388L49.9912 46.9389L49.9914 46.9389C50.0283 46.9455 50.0651 46.9516 50.1019 46.9578C50.107 46.9586 50.1121 46.9595 50.1172 46.9603C50.1218 46.9611 50.1263 46.9618 50.1309 46.9626L50.1309 46.9625C52.5739 47.3658 54.6835 46.9051 54.9726 45.9084C54.9729 45.9078 54.9731 45.907 54.9734 45.9062C55.1168 45.5346 55.6669 44.292 55.3519 41.7314Z" fill="url(#paint5_radial_113_3678)"/>
<path d="M54.5388 45.5347C54.5387 45.5354 54.5385 45.5361 54.5382 45.5367C54.2765 46.4308 52.3408 46.8366 50.0955 46.4651L50.0955 46.4653L50.0829 46.463C50.0783 46.4623 50.0737 46.4615 50.0689 46.4606C50.035 46.4551 50.0013 46.4494 49.9673 46.4433L49.938 46.438C49.9041 46.4319 49.8705 46.4255 49.8369 46.4188C49.8321 46.418 49.8275 46.4172 49.8229 46.4161L49.8103 46.4139L49.8104 46.4137C47.5767 45.9781 45.9051 44.9223 45.973 43.9933C45.9731 43.9926 45.9732 43.9919 45.9731 43.9912C45.9717 43.8892 45.9641 43.717 45.9793 43.475C47.099 44.6095 48.4252 45.2483 49.775 45.166C51.9477 45.0334 53.9276 43.0296 54.5366 40.2516C54.6896 40.7562 54.8013 41.2694 54.8706 41.7869C55.1696 44.0876 54.669 45.2017 54.5388 45.5347Z" fill="url(#paint6_linear_113_3678)"/>
<g style="mix-blend-mode:overlay">
<path d="M49.9609 31.5372C50.0251 31.1824 50.1652 30.8449 50.3734 30.5439C50.5817 30.243 50.8538 29.9845 51.1744 29.7832C51.495 29.5819 51.8577 29.4418 52.2419 29.3708C52.6261 29.2998 53.0241 29.2994 53.4134 29.3696" stroke="#FFF8B1" stroke-width="0.597026" stroke-linecap="round" stroke-linejoin="round"/>
</g>
<path d="M46.2129 43.4536C46.7274 40.6071 48.2094 38.3001 49.7334 37.2207" stroke="#FAEE88" stroke-width="0.456549" stroke-linecap="round" stroke-linejoin="round"/>
<path d="M54.3976 34.6926C54.4267 34.6719 54.4555 34.6508 54.4838 34.6291C55.0947 34.1603 55.5403 33.4706 55.6882 32.652C55.9797 31.0397 55.0277 29.5783 53.5058 29.1093C53.3949 29.0758 53.2823 29.0477 53.1685 29.0251C53.0625 29.0065 52.891 28.9903 52.8307 28.9867C51.2376 28.8909 49.7056 29.9064 49.4136 31.5213C49.2657 32.3399 49.5099 33.154 49.9181 33.8064C49.937 33.8365 49.9566 33.8664 49.9767 33.8959C50.009 33.9657 50.3906 34.6252 50.3345 35.2864C50.3939 35.2989 50.4535 35.3109 50.5138 35.3217C51.7035 35.5361 53.134 35.2712 54.3557 34.7309C54.3762 34.7122 54.391 34.6991 54.3976 34.6926Z" fill="url(#paint7_linear_113_3678)"/>
<path d="M51.5112 31.8721C51.7595 31.9169 52.0174 31.6394 52.0874 31.2524C52.1573 30.8655 52.0128 30.5155 51.7646 30.4708C51.5163 30.426 51.2584 30.7035 51.1884 31.0905C51.1185 31.4774 51.263 31.8274 51.5112 31.8721Z" fill="#F7EA69"/>
<path d="M51.5259 31.7911C51.7741 31.8358 52.032 31.5584 52.102 31.1714C52.1719 30.7844 52.0274 30.4344 51.7792 30.3897C51.5309 30.345 51.273 30.6224 51.203 31.0094C51.1331 31.3964 51.2776 31.7464 51.5259 31.7911Z" fill="#F28422"/>
<path d="M51.7792 30.3897C51.5309 30.345 51.273 30.6224 51.203 31.0094C51.1989 31.0323 51.1956 31.055 51.1929 31.0776C51.279 30.7263 51.5211 30.4832 51.7547 30.5253C51.9882 30.5674 52.1299 30.8797 52.0876 31.2388C52.093 31.2167 52.0978 31.1943 52.102 31.1714C52.1719 30.7844 52.0274 30.4344 51.7792 30.3897Z" fill="#C45C00"/>
<path d="M53.9772 32.3165C54.2254 32.3612 54.4834 32.0838 54.5533 31.6968C54.6233 31.3098 54.4788 30.9598 54.2305 30.9151C53.9823 30.8704 53.7244 31.1478 53.6544 31.5348C53.5844 31.9218 53.729 32.2717 53.9772 32.3165Z" fill="#F7EA69"/>
<path d="M53.9918 32.2354C54.2401 32.2802 54.498 32.0027 54.568 31.6157C54.6379 31.2287 54.4934 30.8788 54.2452 30.834C53.9969 30.7893 53.739 31.0668 53.669 31.4537C53.5991 31.8407 53.7436 32.1907 53.9918 32.2354Z" fill="#F28422"/>
<path d="M54.2451 30.834C53.9969 30.7893 53.739 31.0668 53.669 31.4537C53.6649 31.4766 53.6616 31.4993 53.6589 31.5219C53.745 31.1707 53.9871 30.9275 54.2206 30.9696C54.4542 31.0117 54.5959 31.324 54.5536 31.6831C54.559 31.6611 54.5638 31.6386 54.568 31.6157C54.6379 31.2287 54.4934 30.8788 54.2451 30.834Z" fill="#C45C00"/>
<path d="M53.5708 33.2128C53.273 33.3998 52.9025 33.4682 52.5409 33.403C52.1794 33.3379 51.8563 33.1445 51.6427 32.8654" stroke="#F7EA6B" stroke-width="0.772622" stroke-linecap="round" stroke-linejoin="round"/>
<path d="M53.5833 33.1631C53.2855 33.3501 52.9151 33.4185 52.5535 33.3534C52.1919 33.2882 51.8688 33.0948 51.6553 32.8157" stroke="#F28422" stroke-width="0.772622" stroke-linecap="round" stroke-linejoin="round"/>
<path d="M51.5501 32.7477C51.5856 32.7254 51.6297 32.7172 51.6728 32.725C51.7159 32.7328 51.7544 32.7558 51.7798 32.789C51.873 32.9108 51.9908 33.0153 52.1265 33.0965C52.2623 33.1778 52.4133 33.2343 52.571 33.2627C52.7287 33.2911 52.89 33.2909 53.0456 33.2622C53.2013 33.2334 53.3482 33.1766 53.4781 33.0951C53.4957 33.084 53.5156 33.0764 53.5366 33.0725C53.5577 33.0686 53.5795 33.0686 53.6008 33.0724C53.6222 33.0762 53.6426 33.0839 53.661 33.0949C53.6793 33.1059 53.6953 33.12 53.7079 33.1365C53.7272 33.1617 53.7385 33.2186 53.7385 33.2186L53.7385 33.2187C53.7513 33.1888 53.7531 33.1555 53.7437 33.124C53.7342 33.0924 53.7139 33.0641 53.6859 33.0434C53.6579 33.0226 53.6236 33.0105 53.5881 33.0089C53.5527 33.0073 53.5179 33.0162 53.4891 33.0343C53.3592 33.1158 53.2123 33.1726 53.0566 33.2013C52.901 33.2301 52.7397 33.2303 52.582 33.2019C52.4243 33.1734 52.2733 33.117 52.1375 33.0357C52.0018 32.9545 51.884 32.85 51.7908 32.7282C51.7702 32.7012 51.7407 32.6808 51.7069 32.6699C51.6731 32.6591 51.6368 32.6584 51.6033 32.6681C51.5697 32.6777 51.5409 32.6971 51.5209 32.7234C51.501 32.7497 51.4911 32.7815 51.4926 32.814C51.5041 32.787 51.5241 32.7639 51.5501 32.7477V32.7477Z" fill="#C45C00"/>
<path opacity="0.4" d="M55.901 41.4636C54.3942 42.7367 52.4937 43.3545 50.5759 43.0089C48.8108 42.6909 47.3452 41.6134 46.3699 40.1041C46.3433 40.1499 46.3171 40.1958 46.2914 40.2418C44.9907 42.5763 45.1057 43.9737 45.1177 44.3836C45.1178 44.3845 45.1176 44.3854 45.1177 44.386C45.0485 45.4496 47.1143 46.6845 49.8602 47.2172L49.8602 47.2173C49.8653 47.2183 49.8705 47.2193 49.8756 47.2203C49.8813 47.2214 49.8871 47.2225 49.8928 47.2236C49.9342 47.2316 49.9756 47.2395 50.0173 47.2471L50.0174 47.2471L50.018 47.2472C50.0193 47.2475 50.0206 47.2477 50.0219 47.2479C50.0264 47.2488 50.0308 47.2495 50.0353 47.2503C50.0397 47.2511 50.0442 47.252 50.0486 47.2528C50.0499 47.253 50.0512 47.2532 50.0525 47.2534L50.0531 47.2536L50.0532 47.2536C50.0949 47.261 50.1365 47.268 50.1781 47.275C50.1839 47.276 50.1896 47.2769 50.1954 47.2779C50.2006 47.2788 50.2057 47.2796 50.2109 47.2805L50.2109 47.2804C52.97 47.7397 55.3379 47.3037 55.6455 46.283C55.6458 46.2825 55.6459 46.2816 55.6463 46.2808C55.8011 45.9009 56.3981 44.6319 55.9968 41.9907C55.9703 41.8157 55.9383 41.64 55.901 41.4636Z" fill="url(#paint8_linear_113_3678)"/>
<path d="M49.1999 42.2971C48.6422 41.2417 47.7735 40.2445 46.914 39.5388C46.8531 39.4889 46.4498 39.0838 46.331 38.8634C46.2393 38.6996 46.1744 38.5232 46.1385 38.3397C46.0346 37.7629 46.4406 37.1389 46.4731 37.0773C46.4914 37.0531 46.5092 37.0286 46.5266 37.0039C46.8184 36.5863 46.9815 36.1046 46.9973 35.6142C47.013 35.1239 46.8807 34.6446 46.6156 34.2315C46.3504 33.8183 45.9631 33.4879 45.4981 33.2783C45.0332 33.0686 44.5093 32.9882 43.9866 33.0461C43.9797 33.0469 43.6762 33.1006 43.6677 33.1027C43.1565 33.2282 42.6878 33.4845 42.3154 33.8423C41.9429 34.2002 41.6818 34.645 41.5618 35.1259C41.4418 35.6069 41.4679 36.1044 41.637 36.5617C41.8061 37.019 42.1114 37.4175 42.518 37.7116C42.5421 37.729 42.5666 37.7459 42.5916 37.7625C42.6416 37.8095 43.2213 38.2595 43.3044 38.84C43.3282 39.0256 43.3224 39.2146 43.2872 39.4007C43.2443 39.6497 42.9907 40.1707 42.949 40.2388C42.3589 41.2003 41.852 42.4404 41.6569 43.6286C41.3141 45.7162 41.7616 46.7235 41.877 47.025C41.8773 47.0256 41.8774 47.0262 41.8776 47.0267C42.1037 47.8359 43.9336 48.1936 46.0775 47.8451L46.0775 47.8451C46.0815 47.8444 46.0855 47.8438 46.0896 47.8431C46.094 47.8424 46.0985 47.8417 46.103 47.8409C46.1353 47.8356 46.1676 47.8303 46.2 47.8246L46.2001 47.8246L46.2006 47.8246C46.2016 47.8244 46.2026 47.8242 46.2036 47.824C46.2071 47.8234 46.2105 47.8228 46.214 47.8221C46.2174 47.8215 46.2209 47.821 46.2244 47.8204C46.2254 47.8202 46.2264 47.82 46.2274 47.8198L46.2279 47.8198L46.2279 47.8197C46.2603 47.814 46.2925 47.8079 46.3247 47.8018C46.3292 47.8009 46.3336 47.8001 46.3381 47.7993C46.3421 47.7985 46.3461 47.7978 46.3501 47.797L46.3501 47.7969C48.4846 47.3902 50.1005 46.4242 50.0596 45.5823C50.0597 45.5818 50.0596 45.5811 50.0597 45.5804C50.0739 45.2562 50.1799 44.1512 49.1999 42.2971Z" fill="url(#paint9_linear_113_3678)"/>
<path d="M48.6939 42.2667C48.184 41.2322 47.3989 40.2493 46.626 39.5501C46.5712 39.5006 46.2075 39.1006 46.099 38.8845C46.0149 38.723 45.955 38.5507 45.9208 38.3724C45.8204 37.8101 46.172 37.2096 46.2 37.1503C46.2159 37.127 46.2314 37.1035 46.2464 37.0797C46.5707 36.5657 46.7166 35.9323 46.6118 35.2839C46.4053 34.0066 45.33 33.1786 44.0966 33.2427C44.0068 33.2479 43.9173 33.2576 43.8283 33.2716C43.746 33.2865 43.6166 33.321 43.5716 33.3346C42.3832 33.6953 41.5284 34.8654 41.7353 36.1447C41.8401 36.7932 42.2302 37.332 42.698 37.7061C42.7197 37.7234 42.7417 37.7403 42.7641 37.7568C42.8091 37.8033 43.33 38.2497 43.412 38.8153C43.4357 38.9955 43.4332 39.1787 43.4046 39.3601C43.37 39.6015 43.1522 40.1041 43.1161 40.1697C42.6059 41.0955 42.1733 42.2933 42.0169 43.4454C41.7419 45.4697 42.1533 46.4559 42.2599 46.7507C42.2602 46.7513 42.2603 46.7519 42.2605 46.7524C42.4726 47.5426 44.102 47.9184 46.0003 47.6125L46.0003 47.6125C46.0038 47.6119 46.0074 47.6114 46.0109 47.6108C46.0149 47.6101 46.0188 47.6095 46.0228 47.6089C46.0514 47.6042 46.08 47.5995 46.1087 47.5945L46.1088 47.5945L46.1092 47.5944C46.1101 47.5943 46.111 47.5941 46.1119 47.594C46.1149 47.5934 46.118 47.5929 46.1211 47.5923C46.1241 47.5918 46.1272 47.5913 46.1303 47.5907C46.1312 47.5906 46.132 47.5904 46.1329 47.5902L46.1334 47.5902L46.1334 47.5901C46.1621 47.5851 46.1906 47.5796 46.2191 47.5742C46.223 47.5735 46.227 47.5727 46.2309 47.5719C46.2345 47.5713 46.238 47.5706 46.2415 47.5699L46.2415 47.5699C48.1306 47.2072 49.5514 46.2929 49.5033 45.4738C49.5034 45.4733 49.5033 45.4727 49.5034 45.472C49.5114 45.1569 49.59 44.0843 48.6939 42.2667Z" fill="url(#paint10_linear_113_3678)"/>
<g style="mix-blend-mode:overlay">
<path d="M48.721 42.2517C48.2111 41.2171 47.426 40.2343 46.653 39.5351C46.5983 39.4855 46.2346 39.0855 46.1261 38.8694C46.042 38.7079 45.982 38.5357 45.9478 38.3574C45.8475 37.795 46.1991 37.1946 46.227 37.1352C46.2429 37.112 46.2584 37.0885 46.2735 37.0647C46.5977 36.5507 46.7437 35.9173 46.6389 35.2688C46.4242 33.9411 45.2361 33.0341 43.9447 33.1799L43.9442 33.1768C43.9141 33.181 43.8841 33.1856 43.8538 33.1909C43.8436 33.1927 43.8335 33.1948 43.8234 33.1967C43.8132 33.1984 43.803 33.1999 43.7928 33.2017C43.7625 33.2071 43.7327 33.213 43.703 33.2194L43.7035 33.2225C42.438 33.5281 41.6008 34.7925 41.8154 36.1203C41.9203 36.7688 42.2573 37.3169 42.7251 37.6911C42.7467 37.7084 42.7688 37.7253 42.7911 37.7418C42.8362 37.7882 43.3571 38.2346 43.4391 38.8003C43.4628 38.9804 43.4603 39.1637 43.4317 39.3451C43.3971 39.5865 43.1793 40.0891 43.1432 40.1547C42.6329 41.0804 42.2004 42.2782 42.0439 43.4304C41.769 45.4547 42.1804 46.4408 42.287 46.7356C42.2873 46.7362 42.2874 46.7369 42.2876 46.7373C42.4997 47.5275 44.1291 47.9034 46.0273 47.5974L46.0273 47.5975C46.0309 47.5969 46.0344 47.5963 46.038 47.5957C46.042 47.5951 46.0459 47.5945 46.0499 47.5938C46.0785 47.5892 46.1071 47.5845 46.1358 47.5795L46.1359 47.5795L46.1363 47.5794C46.1372 47.5792 46.1381 47.5791 46.139 47.5789C46.142 47.5784 46.1451 47.5778 46.1481 47.5772C46.1512 47.5767 46.1543 47.5762 46.1574 47.5757C46.1582 47.5755 46.1591 47.5754 46.16 47.5752L46.1604 47.5751L46.1605 47.5751C46.1892 47.57 46.2177 47.5646 46.2462 47.5592C46.2501 47.5584 46.2541 47.5577 46.258 47.5569C46.2615 47.5562 46.2651 47.5556 46.2686 47.5549L46.2686 47.5548C48.1577 47.1922 49.5785 46.2779 49.5304 45.4588C49.5305 45.4583 49.5304 45.4576 49.5304 45.4569C49.5385 45.1419 49.617 44.0693 48.721 42.2517Z" fill="url(#paint11_radial_113_3678)"/>
</g>
<path d="M48.7209 42.2502C48.2109 41.2157 47.4258 40.2328 46.6529 39.5336C46.5982 39.4841 46.2345 39.0841 46.1259 38.868C46.0419 38.7065 45.9819 38.5342 45.9477 38.3559C45.8473 37.7935 46.199 37.1931 46.2269 37.1338C46.2428 37.1105 46.2583 37.087 46.2734 37.0632C46.5976 36.5492 46.7436 35.9158 46.6388 35.2674C46.426 33.9511 45.2564 33.0484 43.9781 33.1749C43.9669 33.176 43.6896 33.2244 43.6828 33.2261C42.4288 33.5403 41.6018 34.7983 41.8153 36.1188C41.9201 36.7673 42.2572 37.3155 42.725 37.6896C42.7466 37.7069 42.7686 37.7238 42.791 37.7403C42.8361 37.7868 43.3569 38.2332 43.4389 38.7988C43.4627 38.9789 43.4602 39.1622 43.4315 39.3436C43.397 39.585 43.1792 40.0876 43.1431 40.1532C42.6328 41.0789 42.2002 42.2767 42.0438 43.4289C41.7689 45.4532 42.1802 46.4394 42.2869 46.7342C42.2872 46.7348 42.2873 46.7354 42.2875 46.7359C42.4996 47.5261 44.129 47.9019 46.0272 47.596L46.0272 47.596C46.0308 47.5954 46.0343 47.5949 46.0379 47.5943C46.0418 47.5936 46.0458 47.593 46.0498 47.5923C46.0784 47.5877 46.107 47.583 46.1357 47.578L46.1357 47.578L46.1362 47.5779C46.137 47.5778 46.1379 47.5776 46.1388 47.5775C46.1419 47.5769 46.1449 47.5763 46.148 47.5758C46.1511 47.5753 46.1542 47.5748 46.1572 47.5742C46.1581 47.5741 46.159 47.5739 46.1599 47.5737L46.1603 47.5737L46.1604 47.5736C46.1891 47.5685 46.2175 47.5631 46.246 47.5577C46.25 47.5569 46.2539 47.5562 46.2579 47.5554C46.2614 47.5548 46.2649 47.5541 46.2685 47.5534L46.2685 47.5534C48.1575 47.1907 49.5784 46.2764 49.5303 45.4573C49.5304 45.4568 49.5303 45.4562 49.5303 45.4555C49.5384 45.1404 49.6169 44.0678 48.7209 42.2502Z" fill="url(#paint12_radial_113_3678)"/>
<g style="mix-blend-mode:overlay">
<path d="M42.1323 36.1359C42.0869 35.8548 42.1015 35.566 42.1753 35.2859C42.2491 35.0058 42.3806 34.7399 42.5624 34.5034C42.7442 34.2669 42.9727 34.0644 43.2348 33.9075C43.4969 33.7506 43.7875 33.6423 44.09 33.5889" stroke="#FFF8B1" stroke-width="0.653829" stroke-linecap="round" stroke-linejoin="round"/>
</g>
<path d="M42.4943 46.0081C42.1298 43.7532 42.6121 41.6369 43.4444 40.4216" stroke="#FAEE88" stroke-width="0.499987" stroke-linecap="round" stroke-linejoin="round"/>
<path d="M46.1932 37.2782C46.2091 37.255 46.2246 37.2315 46.2397 37.2077C46.5639 36.6937 46.7099 36.0603 46.6051 35.4118C46.3986 34.1346 45.3232 33.3066 44.0898 33.3707C44.0001 33.3759 43.9105 33.3855 43.8215 33.3996C43.7393 33.4144 43.6098 33.4489 43.5648 33.4626C42.3764 33.8233 41.5217 34.9934 41.7285 36.2727C41.8333 36.9212 42.2235 37.4599 42.6913 37.8341C42.7129 37.8514 42.7349 37.8683 42.7573 37.8848C42.7991 37.9278 43.2493 38.3145 43.3803 38.8211C43.4269 38.8143 43.4736 38.807 43.5204 38.7988C44.445 38.6355 45.4209 38.0508 46.1725 37.3181C46.1827 37.2987 46.1901 37.2849 46.1932 37.2782Z" fill="url(#paint13_linear_113_3678)"/>
<path d="M43.3516 35.9647C43.5446 35.9307 43.6608 35.6546 43.6112 35.348C43.5617 35.0414 43.3651 34.8205 43.1722 34.8546C42.9792 34.8887 42.863 35.1648 42.9126 35.4713C42.9621 35.7779 43.1587 35.9988 43.3516 35.9647Z" fill="#F7EA69"/>
<path d="M43.3413 35.9004C43.5342 35.8664 43.6504 35.5902 43.6008 35.2837C43.5513 34.9771 43.3547 34.7562 43.1618 34.7903C42.9689 34.8243 42.8526 35.1004 42.9022 35.407C42.9518 35.7136 43.1483 35.9345 43.3413 35.9004Z" fill="#F28422"/>
<path d="M43.1618 34.7903C42.9689 34.8243 42.8526 35.1004 42.9022 35.407C42.9051 35.4251 42.9086 35.4429 42.9125 35.4604C42.8841 35.176 42.9976 34.9297 43.1791 34.8977C43.3607 34.8656 43.5454 35.0593 43.6079 35.3377C43.6061 35.3198 43.6038 35.3018 43.6008 35.2837C43.5513 34.9771 43.3547 34.7562 43.1618 34.7903Z" fill="#C45C00"/>
<path d="M45.2682 35.626C45.4612 35.5919 45.5774 35.3158 45.5278 35.0093C45.4783 34.7027 45.2817 34.4818 45.0888 34.5158C44.8958 34.5499 44.7796 34.826 44.8292 35.1326C44.8787 35.4391 45.0753 35.6601 45.2682 35.626Z" fill="#F7EA69"/>
<path d="M45.2579 35.5622C45.4508 35.5281 45.567 35.252 45.5174 34.9454C45.4679 34.6389 45.2713 34.4179 45.0784 34.452C44.8855 34.4861 44.7692 34.7622 44.8188 35.0687C44.8684 35.3753 45.0649 35.5962 45.2579 35.5622Z" fill="#F28422"/>
<path d="M45.0784 34.452C44.8855 34.4861 44.7692 34.7622 44.8188 35.0687C44.8217 35.0869 44.8252 35.1047 44.8291 35.1221C44.8006 34.8378 44.9142 34.5914 45.0957 34.5594C45.2773 34.5274 45.462 34.721 45.5245 34.9994C45.5227 34.9815 45.5204 34.9635 45.5174 34.9454C45.4679 34.6389 45.2713 34.4179 45.0784 34.452Z" fill="#C45C00"/>
<path d="M45.214 36.381C45.0505 36.6554 44.7981 36.8379 44.5123 36.8883C44.2265 36.9388 43.9307 36.8531 43.6901 36.65" stroke="#F7EA6B" stroke-width="0.709218" stroke-linecap="round" stroke-linejoin="round"/>
<path d="M45.2085 36.3293C45.045 36.6036 44.7926 36.7861 44.5068 36.8366C44.221 36.887 43.9253 36.8013 43.6846 36.5983" stroke="#F28422" stroke-width="0.709218" stroke-linecap="round" stroke-linejoin="round"/>
<path d="M43.5868 36.5653C43.6062 36.5326 43.6363 36.5109 43.6704 36.5049C43.7044 36.4989 43.7397 36.5091 43.7683 36.5333C43.8733 36.6218 43.9913 36.6859 44.1156 36.7219C44.2398 36.758 44.3679 36.7652 44.4926 36.7432C44.6172 36.7212 44.736 36.6704 44.842 36.5937C44.9481 36.517 45.0394 36.416 45.1107 36.2963C45.1203 36.2801 45.1327 36.2664 45.147 36.2561C45.1614 36.2457 45.1774 36.2388 45.1943 36.2358C45.2111 36.2329 45.2285 36.2338 45.2453 36.2387C45.2621 36.2436 45.278 36.2523 45.2922 36.2642C45.314 36.2826 45.3393 36.3341 45.3393 36.3341L45.3394 36.3342C45.3399 36.3012 45.3313 36.2685 45.3149 36.2409C45.2985 36.2133 45.2751 36.1923 45.2483 36.181C45.2214 36.1698 45.1926 36.1688 45.1659 36.1784C45.1393 36.1879 45.1164 36.2074 45.1006 36.234C45.0293 36.3537 44.938 36.4547 44.832 36.5314C44.7259 36.6081 44.6072 36.6589 44.4825 36.6809C44.3579 36.7029 44.2298 36.6957 44.1055 36.6597C43.9812 36.6236 43.8632 36.5595 43.7583 36.471C43.735 36.4513 43.7072 36.4408 43.6791 36.4409C43.6509 36.441 43.624 36.4518 43.6021 36.4716C43.5803 36.4915 43.5649 36.5193 43.558 36.551C43.5512 36.5827 43.5534 36.6166 43.5643 36.6475C43.5647 36.6178 43.5725 36.5892 43.5868 36.5653V36.5653Z" fill="#C45C00"/>
<path d="M71.0191 41.5704C70.691 41.5704 70.3744 41.5445 70.0693 41.4926C69.7642 41.4466 69.4821 41.3775 69.2231 41.2854C68.9698 41.1876 68.7482 41.0696 68.5582 40.9314L68.9209 39.9989C69.1166 40.1313 69.3238 40.2406 69.5426 40.327C69.7671 40.4133 70.0031 40.4767 70.2506 40.5169C70.4981 40.5572 70.7543 40.5774 71.0191 40.5774C71.4508 40.5774 71.7731 40.5054 71.9861 40.3615C72.1991 40.2176 72.3056 40.019 72.3056 39.7657C72.3056 39.6218 72.2711 39.5067 72.202 39.4204C72.1387 39.3283 72.0322 39.2534 71.8825 39.1959C71.7386 39.1383 71.5486 39.0894 71.3126 39.0491L70.3197 38.8591C69.7498 38.7498 69.3325 38.5512 69.0677 38.2633C68.8086 37.9755 68.6791 37.6071 68.6791 37.1581C68.6791 36.784 68.7827 36.4587 68.99 36.1824C69.2029 35.9061 69.4965 35.6931 69.8707 35.5435C70.2448 35.3881 70.6737 35.3104 71.1572 35.3104C71.445 35.3104 71.7185 35.3363 71.9775 35.3881C72.2423 35.4399 72.484 35.5147 72.7028 35.6126C72.9215 35.7104 73.1144 35.8313 73.2813 35.9752L72.91 36.8818C72.6683 36.6804 72.4006 36.5336 72.107 36.4415C71.8134 36.3494 71.494 36.3033 71.1486 36.3033C70.8838 36.3033 70.6535 36.3379 70.4578 36.4069C70.2621 36.4703 70.1096 36.5624 70.0002 36.6832C69.8908 36.8041 69.8361 36.9567 69.8361 37.1409C69.8361 37.3423 69.9023 37.5006 70.0347 37.6158C70.1729 37.7251 70.4118 37.8115 70.7514 37.8748L71.7357 38.0648C72.3171 38.1684 72.7488 38.3583 73.0309 38.6346C73.3187 38.9052 73.4626 39.2592 73.4626 39.6967C73.4626 40.0651 73.3619 40.3903 73.1604 40.6724C72.9589 40.9544 72.674 41.176 72.3056 41.3372C71.943 41.4926 71.5141 41.5704 71.0191 41.5704ZM76.564 41.5704C76.2071 41.5704 75.9077 41.5042 75.666 41.3718C75.4242 41.2394 75.24 41.0408 75.1134 40.776C74.9925 40.5054 74.932 40.1687 74.932 39.7657V37.1927H76.0804V39.7398C76.0804 39.9298 76.1063 40.0939 76.1581 40.232C76.2157 40.3644 76.3049 40.4651 76.4258 40.5342C76.5467 40.6033 76.6992 40.6378 76.8834 40.6378C77.0791 40.6378 77.2547 40.5918 77.4101 40.4997C77.5713 40.4018 77.6951 40.2723 77.7814 40.1111C77.8735 39.9442 77.9196 39.7629 77.9196 39.5672V37.1927H79.068V41.484H78.0059V40.5947H78.0232C77.885 40.9055 77.6922 41.1473 77.4447 41.32C77.1972 41.4869 76.9036 41.5704 76.564 41.5704ZM80.8135 41.484V37.1927H81.841V38.2461C81.9331 37.9122 82.1001 37.6503 82.3418 37.4603C82.5836 37.2646 82.8916 37.1524 83.2657 37.1236L83.7147 37.0977L83.8097 38.1252L83.0585 38.1856C82.7016 38.2202 82.4282 38.3353 82.2382 38.531C82.054 38.7267 81.9619 38.98 81.9619 39.2909V41.484H80.8135ZM86.4859 41.484L84.6899 37.1927H85.8987L87.0989 40.3702H87.0212L88.2387 37.1927H89.4043L87.5824 41.484H86.4859ZM90.4149 36.3206V35.1808H91.7273V36.3206H90.4149ZM90.5099 41.484V37.1927H91.6583V41.484H90.5099ZM94.5717 41.484L92.7757 37.1927H93.9845L95.1847 40.3702H95.107L96.3245 37.1927H97.4901L95.6682 41.484H94.5717ZM100.523 41.5704C100.063 41.5704 99.6626 41.4783 99.323 41.2941C98.9891 41.1098 98.7301 40.8508 98.5459 40.5169C98.3674 40.1773 98.2782 39.783 98.2782 39.334C98.2782 38.885 98.3674 38.4936 98.5459 38.1597C98.7301 37.8259 98.9891 37.5668 99.323 37.3826C99.6626 37.1984 100.063 37.1063 100.523 37.1063C100.978 37.1063 101.372 37.1984 101.706 37.3826C102.046 37.5668 102.305 37.8259 102.483 38.1597C102.667 38.4936 102.76 38.885 102.76 39.334C102.76 39.783 102.667 40.1773 102.483 40.5169C102.305 40.8508 102.046 41.1098 101.706 41.2941C101.372 41.4783 100.978 41.5704 100.523 41.5704ZM100.515 40.6465C100.866 40.6465 101.139 40.5313 101.335 40.3011C101.536 40.0708 101.637 39.7456 101.637 39.3254C101.637 38.9109 101.536 38.5915 101.335 38.367C101.139 38.1425 100.869 38.0302 100.523 38.0302C100.172 38.0302 99.8957 38.1425 99.6943 38.367C99.4985 38.5915 99.4007 38.9109 99.4007 39.3254C99.4007 39.7456 99.5014 40.0708 99.7029 40.3011C99.9044 40.5313 100.175 40.6465 100.515 40.6465ZM104.283 41.484V37.1927H105.31V38.2461C105.402 37.9122 105.569 37.6503 105.811 37.4603C106.053 37.2646 106.361 37.1524 106.735 37.1236L107.184 37.0977L107.279 38.1252L106.528 38.1856C106.171 38.2202 105.897 38.3353 105.708 38.531C105.523 38.7267 105.431 38.98 105.431 39.2909V41.484H104.283Z" fill="#202224"/>
<mask id="mask0_113_3678" style="mask-type:alpha" maskUnits="userSpaceOnUse" x="21" y="21" width="24" height="35">
<path d="M22 27.0943C22 24.2808 24.2808 22 27.0943 22H34.1737C39.5888 22 43.9787 26.3899 43.9787 31.805V45.163C43.9787 50.5782 39.5888 54.968 34.1737 54.968H27.0943C24.2808 54.968 22 52.6872 22 49.8737V27.0943Z" fill="white" stroke="url(#paint14_linear_113_3678)" stroke-opacity="0.3" stroke-width="1.02168"/>
</mask>
<g mask="url(#mask0_113_3678)">
<rect x="21.215" y="21.366" width="10.9893" height="34.236" fill="#587ED7"/>
</g>
<defs>
<filter id="filter0_d_113_3678" x="0.254698" y="0.254667" width="168.897" height="81.7673" filterUnits="userSpaceOnUse" color-interpolation-filters="sRGB">
<feFlood flood-opacity="0" result="BackgroundImageFix"/>
<feColorMatrix in="SourceAlpha" type="matrix" values="0 0 0 0 0 0 0 0 0 0 0 0 0 0 0 0 0 0 127 0" result="hardAlpha"/>
<feOffset dx="2.65431" dy="2.65431"/>
<feGaussianBlur stdDeviation="11.9444"/>
<feColorMatrix type="matrix" values="0 0 0 0 0 0 0 0 0 0 0 0 0 0 0 0 0 0 0.05 0"/>
<feBlend mode="normal" in2="BackgroundImageFix" result="effect1_dropShadow_113_3678"/>
<feBlend mode="normal" in="SourceGraphic" in2="effect1_dropShadow_113_3678" result="shape"/>
</filter>
<filter id="filter1_d_113_3678" x="40.3233" y="27.3014" width="17.1834" height="22.7881" filterUnits="userSpaceOnUse" color-interpolation-filters="sRGB">
<feFlood flood-opacity="0" result="BackgroundImageFix"/>
<feColorMatrix in="SourceAlpha" type="matrix" values="0 0 0 0 0 0 0 0 0 0 0 0 0 0 0 0 0 0 127 0" result="hardAlpha"/>
<feOffset dy="1.13124"/>
<feComposite in2="hardAlpha" operator="out"/>
<feColorMatrix type="matrix" values="0 0 0 0 0.0823333 0 0 0 0 0 0 0 0 0 0.316667 0 0 0 1 0"/>
<feBlend mode="normal" in2="BackgroundImageFix" result="effect1_dropShadow_113_3678"/>
<feBlend mode="normal" in="SourceGraphic" in2="effect1_dropShadow_113_3678" result="shape"/>
</filter>
<linearGradient id="paint0_linear_113_3678" x1="49.3849" y1="10.0922" x2="107.469" y2="77.4501" gradientUnits="userSpaceOnUse">
<stop stop-color="#F1F1F1"/>
<stop offset="1" stop-color="#E1E1E1"/>
</linearGradient>
<linearGradient id="paint1_linear_113_3678" x1="49.3432" y1="30.4602" x2="50.6146" y2="45.4699" gradientUnits="userSpaceOnUse">
<stop stop-color="#995BFC"/>
<stop offset="0.510417" stop-color="#5E18D7"/>
<stop offset="1" stop-color="#5D0F72"/>
<stop offset="1" stop-color="#5E1072"/>
</linearGradient>
<linearGradient id="paint2_linear_113_3678" x1="51.9688" y1="48.8165" x2="50.4332" y2="28.0973" gradientUnits="userSpaceOnUse">
<stop stop-color="#DF3E00"/>
<stop offset="1" stop-color="#FFA100"/>
</linearGradient>
<linearGradient id="paint3_linear_113_3678" x1="51.9743" y1="48.3808" x2="50.4913" y2="28.3715" gradientUnits="userSpaceOnUse">
<stop stop-color="#FF8A00"/>
<stop offset="1" stop-color="#FFE600"/>
</linearGradient>
<radialGradient id="paint4_radial_113_3678" cx="0" cy="0" r="1" gradientUnits="userSpaceOnUse" gradientTransform="translate(52.2541 31.3965) rotate(10.2147) scale(5.08113 4.63196)">
<stop stop-color="white"/>
<stop offset="0.09619" stop-color="#FFED3B" stop-opacity="0.8"/>
<stop offset="0.71251" stop-color="#F6D146" stop-opacity="0"/>
<stop offset="1" stop-color="#F6D146" stop-opacity="0"/>
</radialGradient>
<radialGradient id="paint5_radial_113_3678" cx="0" cy="0" r="1" gradientUnits="userSpaceOnUse" gradientTransform="translate(50.3748 39.7273) rotate(10.2147) scale(8.38253 7.69538)">
<stop stop-color="#FFE800"/>
<stop offset="0.71251" stop-color="#FFC900" stop-opacity="0"/>
</radialGradient>
<linearGradient id="paint6_linear_113_3678" x1="51.9087" y1="46.5854" x2="47.2278" y2="30.6137" gradientUnits="userSpaceOnUse">
<stop offset="0.00149" stop-color="#FF8A00"/>
<stop offset="0.71251" stop-color="#FFC900" stop-opacity="0"/>
</linearGradient>
<linearGradient id="paint7_linear_113_3678" x1="56.0767" y1="36.3726" x2="48.2254" y2="26.144" gradientUnits="userSpaceOnUse">
<stop offset="0.00149" stop-color="#FF8A00"/>
<stop offset="0.71251" stop-color="#F6D146" stop-opacity="0"/>
</linearGradient>
<linearGradient id="paint8_linear_113_3678" x1="51.157" y1="48.1145" x2="50.521" y2="39.5334" gradientUnits="userSpaceOnUse">
<stop offset="0.00269" stop-color="#6F0100"/>
<stop offset="0.96044" stop-color="#FF9E00" stop-opacity="0.09"/>
</linearGradient>
<linearGradient id="paint9_linear_113_3678" x1="48.0929" y1="48.4331" x2="41.2831" y2="33.5888" gradientUnits="userSpaceOnUse">
<stop stop-color="#DF3E00"/>
<stop offset="1" stop-color="#FFA100"/>
</linearGradient>
<linearGradient id="paint10_linear_113_3678" x1="47.9836" y1="48.1074" x2="41.4071" y2="33.7718" gradientUnits="userSpaceOnUse">
<stop stop-color="#FF8A00"/>
<stop offset="1" stop-color="#FFE600"/>
</linearGradient>
<radialGradient id="paint11_radial_113_3678" cx="0" cy="0" r="1" gradientUnits="userSpaceOnUse" gradientTransform="translate(43.7705 35.4097) rotate(-10.0113) scale(3.9465 3.65734)">
<stop stop-color="white"/>
<stop offset="0.09619" stop-color="#FFED3B" stop-opacity="0.8"/>
<stop offset="0.71251" stop-color="#F6D146" stop-opacity="0"/>
<stop offset="1" stop-color="#F6D146" stop-opacity="0"/>
</radialGradient>
<radialGradient id="paint12_radial_113_3678" cx="0" cy="0" r="1" gradientUnits="userSpaceOnUse" gradientTransform="translate(44.5648 42.1102) rotate(-10.0113) scale(6.51068 6.07618)">
<stop stop-color="#FFE800"/>
<stop offset="0.71251" stop-color="#FFC900" stop-opacity="0"/>
</radialGradient>
<linearGradient id="paint13_linear_113_3678" x1="47.8564" y1="38.0715" x2="39.3811" y2="32.727" gradientUnits="userSpaceOnUse">
<stop offset="0.00149" stop-color="#FF8A00"/>
<stop offset="0.71251" stop-color="#F6D146" stop-opacity="0"/>
</linearGradient>
<linearGradient id="paint14_linear_113_3678" x1="27.0116" y1="10.0922" x2="50.8622" y2="15.1539" gradientUnits="userSpaceOnUse">
<stop stop-color="#F1F1F1"/>
<stop offset="1" stop-color="#E1E1E1"/>
</linearGradient>
</defs>
</svg>
