<svg width="170" height="83" viewBox="0 0 170 83" fill="none" xmlns="http://www.w3.org/2000/svg">
<g filter="url(#filter0_d_113_3674)">
<rect x="22.1304" y="22" width="120.098" height="32.968" rx="5.09434" fill="white"/>
<rect x="22.1304" y="22" width="120.098" height="32.968" rx="5.09434" stroke="url(#paint0_linear_113_3674)" stroke-opacity="0.3" stroke-width="1.02168"/>
</g>
<g filter="url(#filter1_d_113_3674)">
<mask id="path-3-outside-1_113_3674" maskUnits="userSpaceOnUse" x="32.9641" y="25.4619" width="27.4264" height="25.9744" fill="black">
<rect fill="white" x="32.9641" y="25.4619" width="27.4264" height="25.9744"/>
<path d="M41.0859 32.4404C42.7368 30.7721 45.0833 29.7294 47.6876 29.7293C52.6852 29.7293 56.7367 33.5675 56.7367 38.302C56.7364 43.0364 52.6851 46.8747 47.6877 46.8747C46.9106 46.8747 46.1566 46.7804 45.437 46.6058C45.3274 46.907 45.2097 47.1621 45.0986 47.3585C44.4502 47.8527 43.6599 48.0651 43.1868 48.1332C42.7377 48.297 41.9417 48.4833 41.1369 48.3546C40.1019 47.7012 38.0662 45.6391 38.2041 42.6173C38.2441 41.7412 38.4431 41.0476 38.6223 40.4237C38.6812 40.2185 38.736 40.0203 38.7842 39.8261C38.6904 39.3314 38.6386 38.8223 38.6386 38.302C38.6386 38.0849 38.6499 37.8695 38.6666 37.6565C38.6532 37.6261 38.6409 37.5948 38.6262 37.564C38.4769 37.2498 38.3014 36.9455 38.1286 36.6459C37.5785 35.6921 37.0515 34.7778 37.4484 33.6843C37.8504 32.5767 38.7464 32.2603 39.1422 32.1548L39.1943 32.1417L39.3676 32.1061C39.7623 32.0371 40.4204 32.0092 41.0859 32.4404Z"/>
</mask>
<path d="M41.0859 32.4404C42.7368 30.7721 45.0833 29.7294 47.6876 29.7293C52.6852 29.7293 56.7367 33.5675 56.7367 38.302C56.7364 43.0364 52.6851 46.8747 47.6877 46.8747C46.9106 46.8747 46.1566 46.7804 45.437 46.6058C45.3274 46.907 45.2097 47.1621 45.0986 47.3585C44.4502 47.8527 43.6599 48.0651 43.1868 48.1332C42.7377 48.297 41.9417 48.4833 41.1369 48.3546C40.1019 47.7012 38.0662 45.6391 38.2041 42.6173C38.2441 41.7412 38.4431 41.0476 38.6223 40.4237C38.6812 40.2185 38.736 40.0203 38.7842 39.8261C38.6904 39.3314 38.6386 38.8223 38.6386 38.302C38.6386 38.0849 38.6499 37.8695 38.6666 37.6565C38.6532 37.6261 38.6409 37.5948 38.6262 37.564C38.4769 37.2498 38.3014 36.9455 38.1286 36.6459C37.5785 35.6921 37.0515 34.7778 37.4484 33.6843C37.8504 32.5767 38.7464 32.2603 39.1422 32.1548L39.1943 32.1417L39.3676 32.1061C39.7623 32.0371 40.4204 32.0092 41.0859 32.4404Z" fill="#FDEDDD"/>
<path d="M41.0859 32.4404L40.5219 33.3108L41.2298 33.7695L41.8231 33.1699L41.0859 32.4404ZM47.6876 29.7293L47.6876 28.6922L47.6876 28.6922L47.6876 29.7293ZM56.7367 38.302L57.7738 38.3021V38.302H56.7367ZM47.6877 46.8747L47.6876 47.9119L47.6877 47.9119V46.8747ZM45.437 46.6058L45.6814 45.5979L44.7796 45.3792L44.4624 46.2512L45.437 46.6058ZM45.0986 47.3585L45.7272 48.1834L45.8965 48.0544L46.0012 47.8693L45.0986 47.3585ZM43.1868 48.1332L43.0391 47.1067L42.9326 47.122L42.8316 47.1589L43.1868 48.1332ZM41.1369 48.3546L40.5832 49.2316L40.7631 49.3451L40.9732 49.3787L41.1369 48.3546ZM38.2041 42.6173L37.168 42.57L37.168 42.57L38.2041 42.6173ZM38.6223 40.4237L37.6254 40.1374L37.6254 40.1374L38.6223 40.4237ZM38.7842 39.8261L39.7907 40.0762L39.8454 39.856L39.8032 39.633L38.7842 39.8261ZM38.6386 38.302L37.6015 38.302L37.6015 38.302L38.6386 38.302ZM38.6666 37.6565L39.7006 37.7377L39.7211 37.4767L39.6152 37.2372L38.6666 37.6565ZM38.6262 37.564L39.563 37.1189L39.5629 37.1187L38.6262 37.564ZM38.1286 36.6459L37.2301 37.164L37.2301 37.164L38.1286 36.6459ZM37.4484 33.6843L36.4735 33.3304L36.4735 33.3304L37.4484 33.6843ZM39.1422 32.1548L38.8893 31.1489L38.8821 31.1508L38.8749 31.1527L39.1422 32.1548ZM39.1943 32.1417L38.986 31.1257L38.9636 31.1303L38.9414 31.1358L39.1943 32.1417ZM39.3676 32.1061L39.189 31.0845L39.1742 31.0871L39.1594 31.0901L39.3676 32.1061ZM41.0859 32.4404L41.8231 33.1699C43.2812 31.6965 45.3631 30.7665 47.6876 30.7664L47.6876 29.7293L47.6876 28.6922C44.8036 28.6922 42.1925 29.8478 40.3487 31.7109L41.0859 32.4404ZM47.6876 29.7293V30.7664C52.1659 30.7664 55.6995 34.1924 55.6995 38.302H56.7367H57.7738C57.7738 32.9426 53.2044 28.6922 47.6876 28.6922V29.7293ZM56.7367 38.302L55.6995 38.302C55.6993 42.4115 52.1658 45.8376 47.6877 45.8376V46.8747V47.9119C53.2044 47.9119 57.7735 43.6613 57.7738 38.3021L56.7367 38.302ZM47.6877 46.8747L47.6877 45.8376C46.9948 45.8376 46.3228 45.7535 45.6814 45.5979L45.437 46.6058L45.1925 47.6137C45.9904 47.8073 46.8264 47.9118 47.6876 47.9119L47.6877 46.8747ZM45.437 46.6058L44.4624 46.2512C44.369 46.5079 44.2743 46.7093 44.1959 46.8478L45.0986 47.3585L46.0012 47.8693C46.1452 47.6148 46.2858 47.3061 46.4116 46.9605L45.437 46.6058ZM45.0986 47.3585L44.4699 46.5337C44.0104 46.8839 43.4094 47.0534 43.0391 47.1067L43.1868 48.1332L43.3346 49.1598C43.9104 49.0769 44.8899 48.8215 45.7272 48.1834L45.0986 47.3585ZM43.1868 48.1332L42.8316 47.1589C42.48 47.287 41.8711 47.4217 41.3006 47.3305L41.1369 48.3546L40.9732 49.3787C42.0124 49.5449 42.9954 49.3069 43.542 49.1076L43.1868 48.1332ZM41.1369 48.3546L41.6906 47.4776C40.8458 46.9443 39.1251 45.1866 39.2401 42.6645L38.2041 42.6173L37.168 42.57C37.0074 46.0915 39.3581 48.4581 40.5832 49.2316L41.1369 48.3546ZM38.2041 42.6173L39.2401 42.6646C39.274 41.9225 39.4401 41.3332 39.6191 40.71L38.6223 40.4237L37.6254 40.1374C37.4461 40.7619 37.2142 41.5599 37.168 42.57L38.2041 42.6173ZM38.6223 40.4237L39.6191 40.71C39.6797 40.4991 39.7382 40.2875 39.7907 40.0762L38.7842 39.8261L37.7776 39.5761C37.7337 39.7531 37.6827 39.9379 37.6254 40.1374L38.6223 40.4237ZM38.7842 39.8261L39.8032 39.633C39.7206 39.1976 39.6757 38.7533 39.6757 38.3019L38.6386 38.302L37.6015 38.302C37.6015 38.8914 37.6602 39.4651 37.7652 40.0193L38.7842 39.8261ZM38.6386 38.302H39.6757C39.6757 38.1202 39.6852 37.9334 39.7006 37.7377L38.6666 37.6565L37.6327 37.5753C37.6146 37.8057 37.6015 38.0496 37.6015 38.302H38.6386ZM38.6666 37.6565L39.6152 37.2372C39.6124 37.2309 39.6117 37.229 39.6013 37.2045C39.5934 37.1859 39.5798 37.1543 39.563 37.1189L38.6262 37.564L37.6895 38.0091C37.6873 38.0044 37.6872 38.0039 37.6925 38.0163C37.6937 38.0192 37.695 38.0223 37.6967 38.0262C37.6983 38.03 37.7003 38.0347 37.7023 38.0395C37.7064 38.0491 37.7119 38.0618 37.7181 38.0759L38.6666 37.6565ZM38.6262 37.564L39.5629 37.1187C39.3929 36.761 39.1962 36.4211 39.027 36.1278L38.1286 36.6459L37.2301 37.164C37.4065 37.4699 37.5609 37.7385 37.6895 38.0092L38.6262 37.564ZM38.1286 36.6459L39.027 36.1278C38.4302 35.0928 38.2159 34.6094 38.4233 34.0381L37.4484 33.6843L36.4735 33.3304C35.887 34.9462 36.7269 36.2913 37.2301 37.164L38.1286 36.6459ZM37.4484 33.6843L38.4233 34.0381C38.6522 33.4073 39.1356 33.2299 39.4095 33.1568L39.1422 32.1548L38.8749 31.1527C38.3571 31.2908 37.0485 31.746 36.4735 33.3304L37.4484 33.6843ZM39.1422 32.1548L39.3951 33.1606L39.4472 33.1475L39.1943 32.1417L38.9414 31.1358L38.8893 31.1489L39.1422 32.1548ZM39.1943 32.1417L39.4025 33.1577L39.5758 33.1221L39.3676 32.1061L39.1594 31.0901L38.986 31.1257L39.1943 32.1417ZM39.3676 32.1061L39.5462 33.1278C39.7995 33.0835 40.1583 33.0751 40.5219 33.3108L41.0859 32.4404L41.6499 31.57C40.6826 30.9432 39.7252 30.9908 39.189 31.0845L39.3676 32.1061Z" fill="url(#paint1_linear_113_3674)" mask="url(#path-3-outside-1_113_3674)"/>
</g>
<g filter="url(#filter2_i_113_3674)">
<ellipse cx="47.6879" cy="38.3017" rx="9.04892" ry="8.57266" fill="url(#paint2_radial_113_3674)"/>
</g>
<ellipse opacity="0.5" cx="47.74" cy="31.7771" rx="1.32234" ry="1.27048" fill="url(#paint3_linear_113_3674)"/>
<ellipse opacity="0.5" cx="51.4214" cy="33.0738" rx="1.32234" ry="1.27048" fill="url(#paint4_linear_113_3674)"/>
<g filter="url(#filter3_d_113_3674)">
<path d="M39.2034 32.168C39.6043 32.0733 40.5494 31.9264 41.4329 32.7171C42.5786 33.7428 42.1633 35.2533 42.2348 36.7155C42.3305 38.6698 43.8502 39.0479 45.0125 40.9945C46.5724 43.6073 45.7501 46.404 45.1436 47.4755C44.4914 47.9726 43.6962 48.1837 43.2203 48.2522C42.7686 48.4169 41.9681 48.607 41.1583 48.4776C40.1172 47.8203 38.069 45.7453 38.2077 42.7054C38.311 40.4405 39.4721 39.3885 38.6321 37.6213C38.0036 36.2991 36.9231 35.1648 37.4476 33.7191C37.8516 32.606 38.7516 32.2879 39.1504 32.1813L39.1511 32.1801L39.2032 32.1671L39.2034 32.168Z" fill="#FDEDDD"/>
<mask id="mask0_113_3674" style="mask-type:alpha" maskUnits="userSpaceOnUse" x="37" y="32" width="9" height="17">
<path d="M39.2034 32.168C39.6043 32.0733 40.5494 31.9264 41.4329 32.7171C42.5786 33.7428 42.1633 35.2533 42.2348 36.7155C42.3305 38.6698 43.8502 39.0479 45.0125 40.9945C46.5724 43.6073 45.7501 46.404 45.1436 47.4755C44.4914 47.9726 43.6962 48.1837 43.2203 48.2522C42.7686 48.4169 41.9681 48.607 41.1583 48.4776C40.1172 47.8203 38.069 45.7453 38.2077 42.7054C38.311 40.4405 39.4721 39.3885 38.6321 37.6213C38.0036 36.2991 36.9231 35.1648 37.4476 33.7191C37.8516 32.606 38.7516 32.2879 39.1504 32.1813L39.1511 32.1801L39.2032 32.1671L39.2034 32.168Z" fill="#FDEDDD"/>
<path d="M39.2034 32.168L39.186 32.1724L39.1903 32.1895L39.2076 32.1855L39.2034 32.168ZM41.4329 32.7171L41.4449 32.7037L41.4449 32.7037L41.4329 32.7171ZM42.2348 36.7155L42.2169 36.7164L42.2169 36.7164L42.2348 36.7155ZM45.0125 40.9945L45.0279 40.9853L45.0279 40.9853L45.0125 40.9945ZM45.1436 47.4755L45.1555 47.4911L45.1592 47.4844L45.1436 47.4755ZM43.2203 48.2522L43.2176 48.234L43.2141 48.2353L43.2203 48.2522ZM41.1583 48.4776L41.1479 48.4941L41.1555 48.4953L41.1583 48.4776ZM38.2077 42.7054L38.1897 42.7046L38.1897 42.7046L38.2077 42.7054ZM38.6321 37.6213L38.6483 37.6136L38.6483 37.6136L38.6321 37.6213ZM37.4476 33.7191L37.4307 33.713L37.4307 33.713L37.4476 33.7191ZM39.1504 32.1813L39.1569 32.2055L39.1658 32.1905L39.1504 32.1813ZM39.1511 32.1801L39.1449 32.1555L39.1357 32.1709L39.1511 32.1801ZM39.2032 32.1671L39.2206 32.1627L39.2162 32.1453L39.1988 32.1496L39.2032 32.1671ZM39.2034 32.168L39.2076 32.1855C39.6063 32.0912 40.544 31.9456 41.421 32.7305L41.4329 32.7171L41.4449 32.7037C40.5548 31.9072 39.6023 32.0553 39.1993 32.1505L39.2034 32.168ZM41.4329 32.7171L41.421 32.7305C41.989 33.239 42.1706 33.8678 42.2188 34.5539C42.2429 34.8971 42.2335 35.2542 42.2225 35.6176C42.2116 35.9807 42.199 36.35 42.2169 36.7164L42.2348 36.7155L42.2528 36.7146C42.2349 36.3499 42.2474 35.9821 42.2584 35.6187C42.2694 35.2555 42.2788 34.8967 42.2546 34.5513C42.2061 33.8602 42.0226 33.2208 41.4449 32.7037L41.4329 32.7171ZM42.2348 36.7155L42.2169 36.7164C42.2651 37.6994 42.6719 38.2864 43.2105 38.8701C43.749 39.4537 44.4172 40.0325 44.9971 41.0037L45.0125 40.9945L45.0279 40.9853C44.4455 40.0099 43.7727 39.4264 43.2369 38.8457C42.7011 38.2651 42.3003 37.6859 42.2528 36.7146L42.2348 36.7155ZM45.0125 40.9945L44.9971 41.0037C46.5526 43.6091 45.7325 46.3986 45.128 47.4667L45.1436 47.4755L45.1592 47.4844C45.7676 46.4095 46.5922 43.6056 45.0279 40.9853L45.0125 40.9945ZM45.1436 47.4755L45.1328 47.4613C44.4838 47.9558 43.6919 48.1661 43.2177 48.2344L43.2203 48.2522L43.2228 48.2699C43.7005 48.2012 44.499 47.9894 45.1545 47.4898L45.1436 47.4755ZM43.2203 48.2522L43.2141 48.2353C42.7641 48.3994 41.9669 48.5886 41.1611 48.4598L41.1583 48.4776L41.1555 48.4953C41.9694 48.6253 42.7731 48.4344 43.2264 48.269L43.2203 48.2522ZM41.1583 48.4776L41.1679 48.4624C40.1301 47.8072 38.0873 45.7375 38.2256 42.7063L38.2077 42.7054L38.1897 42.7046C38.0507 45.7532 40.1043 47.8334 41.1487 48.4927L41.1583 48.4776ZM38.2077 42.7054L38.2256 42.7063C38.2771 41.5763 38.5923 40.7502 38.791 39.9812C38.9897 39.2122 39.0709 38.5026 38.6483 37.6136L38.6321 37.6213L38.6159 37.629C39.0334 38.5073 38.9539 39.2073 38.7563 39.9722C38.5586 40.7373 38.2415 41.5697 38.1897 42.7046L38.2077 42.7054ZM38.6321 37.6213L38.6483 37.6136C38.4909 37.2823 38.3051 36.9628 38.1237 36.6481C37.9421 36.3332 37.765 36.023 37.6239 35.7091C37.3418 35.0819 37.2044 34.442 37.4645 33.7253L37.4476 33.7191L37.4307 33.713C37.1663 34.4419 37.3069 35.092 37.5911 35.7239C37.7331 36.0396 37.9112 36.3513 38.0926 36.666C38.2742 36.9811 38.4592 37.2992 38.6159 37.629L38.6321 37.6213ZM37.4476 33.7191L37.4645 33.7253C37.8655 32.6204 38.7584 32.3046 39.155 32.1987L39.1504 32.1813L39.1458 32.164C38.7449 32.2711 37.8377 32.5917 37.4307 33.713L37.4476 33.7191ZM39.1504 32.1813L39.1658 32.1905L39.1665 32.1894L39.1511 32.1801L39.1357 32.1709L39.135 32.1721L39.1504 32.1813ZM39.1511 32.1801L39.1555 32.1976L39.2076 32.1845L39.2032 32.1671L39.1988 32.1496L39.1467 32.1627L39.1511 32.1801ZM39.2032 32.1671L39.1858 32.1714L39.186 32.1724L39.2034 32.168L39.2208 32.1636L39.2206 32.1627L39.2032 32.1671Z" fill="black"/>
</mask>
<g mask="url(#mask0_113_3674)">
<g filter="url(#filter4_ii_113_3674)">
<path d="M39.2034 32.168C39.6043 32.0733 40.5494 31.9264 41.4329 32.7171C42.5786 33.7428 42.1633 35.2533 42.2348 36.7155C42.3305 38.6698 43.8502 39.0479 45.0125 40.9945C46.5724 43.6073 45.7501 46.404 45.1436 47.4755C44.4914 47.9726 43.6962 48.1837 43.2203 48.2522C42.7686 48.4169 41.9681 48.607 41.1583 48.4776C40.1172 47.8203 38.069 45.7453 38.2077 42.7054C38.311 40.4405 39.4721 39.3885 38.6321 37.6213C38.0036 36.2991 36.9231 35.1648 37.4476 33.7191C37.8516 32.606 38.7516 32.2879 39.1504 32.1813L39.1511 32.1801L39.2032 32.1671L39.2034 32.168Z" fill="#FDEDDD"/>
</g>
<path d="M37.9788 39.8025C37.9788 39.8025 38.9798 39.7359 41.2423 39.167C43.5048 38.5982 44.4182 38.1834 44.4182 38.1834L44.8558 39.9238C44.8558 39.9238 44.0816 40.3035 41.6799 40.9074C39.2781 41.5112 38.4164 41.5429 38.4164 41.5429L37.9788 39.8025Z" fill="#F55353" style="mix-blend-mode:multiply"/>
<path d="M37.4537 37.7141C37.4537 37.7141 38.4547 37.6474 40.7172 37.0786C42.9797 36.5097 43.8931 36.095 43.8931 36.095L44.2344 37.4525C44.2344 37.4525 43.4602 37.8322 41.0585 38.4361C38.6568 39.0399 37.795 39.0715 37.795 39.0715L37.4537 37.7141Z" fill="#F55353" style="mix-blend-mode:multiply"/>
<ellipse cx="40.4081" cy="33.7885" rx="0.807545" ry="1.00495" transform="rotate(-14.1132 40.4081 33.7885)" fill="url(#paint5_linear_113_3674)" style="mix-blend-mode:screen"/>
</g>
</g>
<path d="M67.1633 41.484V35.3967H69.8832C70.5451 35.3967 71.0574 35.5349 71.4201 35.8112C71.7885 36.0817 71.9727 36.4703 71.9727 36.9768C71.9727 37.3395 71.8777 37.6388 71.6878 37.8748C71.4978 38.1108 71.2532 38.272 70.9538 38.3583V38.3238C71.1783 38.3641 71.3798 38.4475 71.5582 38.5742C71.7367 38.6951 71.8748 38.8562 71.9727 39.0577C72.0763 39.2534 72.1281 39.4923 72.1281 39.7744C72.1281 40.1313 72.0418 40.4392 71.8691 40.6983C71.7021 40.9515 71.4575 41.1473 71.1352 41.2854C70.8128 41.4178 70.4271 41.484 69.9781 41.484H67.1633ZM68.303 40.5601H69.8918C70.0414 40.5601 70.1738 40.5486 70.289 40.5256C70.4041 40.5026 70.5048 40.468 70.5912 40.422C70.6833 40.3759 70.7581 40.3184 70.8157 40.2493C70.8732 40.1802 70.9164 40.1025 70.9452 40.0161C70.974 39.924 70.9884 39.8233 70.9884 39.7139C70.9884 39.5931 70.9711 39.4866 70.9366 39.3945C70.9078 39.3024 70.8646 39.2247 70.807 39.1613C70.7495 39.0923 70.6746 39.0376 70.5825 38.9973C70.4962 38.9512 70.3955 38.9196 70.2803 38.9023C70.1652 38.8793 70.0357 38.8678 69.8918 38.8678H68.303V40.5601ZM68.303 37.9439H69.745C70.1134 37.9439 70.3868 37.8748 70.5653 37.7366C70.7437 37.5985 70.8329 37.3941 70.8329 37.1236C70.8329 36.8588 70.7437 36.6602 70.5653 36.5278C70.3926 36.3897 70.1192 36.3206 69.745 36.3206H68.303V37.9439ZM75.787 41.5704C75.3265 41.5704 74.9264 41.4783 74.5868 41.2941C74.2529 41.1098 73.9939 40.8508 73.8097 40.5169C73.6312 40.1773 73.542 39.783 73.542 39.334C73.542 38.885 73.6312 38.4936 73.8097 38.1597C73.9939 37.8259 74.2529 37.5668 74.5868 37.3826C74.9264 37.1984 75.3265 37.1063 75.787 37.1063C76.2417 37.1063 76.636 37.1984 76.9699 37.3826C77.3095 37.5668 77.5686 37.8259 77.747 38.1597C77.9312 38.4936 78.0233 38.885 78.0233 39.334C78.0233 39.783 77.9312 40.1773 77.747 40.5169C77.5686 40.8508 77.3095 41.1098 76.9699 41.2941C76.636 41.4783 76.2417 41.5704 75.787 41.5704ZM75.7783 40.6465C76.1295 40.6465 76.4029 40.5313 76.5986 40.3011C76.8001 40.0708 76.9008 39.7456 76.9008 39.3254C76.9008 38.9109 76.8001 38.5915 76.5986 38.367C76.4029 38.1425 76.1324 38.0302 75.787 38.0302C75.4358 38.0302 75.1595 38.1425 74.9581 38.367C74.7624 38.5915 74.6645 38.9109 74.6645 39.3254C74.6645 39.7456 74.7652 40.0708 74.9667 40.3011C75.1682 40.5313 75.4387 40.6465 75.7783 40.6465ZM80.4725 41.484L78.9183 37.1927H80.0581L81.0683 40.3011H81.0079L82.139 37.1927H82.9852L84.099 40.3011H84.0472L85.0574 37.1927H86.1713L84.6257 41.484H83.6414L82.4498 38.2893H82.6312L81.4482 41.484H80.4725ZM88.8691 41.5704C88.3798 41.5704 88.0085 41.438 87.7553 41.1732C87.5077 40.9084 87.384 40.5256 87.384 40.0248V35.3967H88.5324V39.9471C88.5324 40.1025 88.5525 40.2349 88.5928 40.3443C88.6388 40.4479 88.705 40.5285 88.7914 40.586C88.8777 40.6378 88.9871 40.6637 89.1195 40.6637C89.1943 40.6637 89.2663 40.6609 89.3354 40.6551C89.4102 40.6436 89.4879 40.6292 89.5685 40.6119L89.6117 41.4581C89.4908 41.4984 89.3728 41.5272 89.2577 41.5445C89.1425 41.5617 89.013 41.5704 88.8691 41.5704ZM90.6995 36.3206V35.1808H92.0119V36.3206H90.6995ZM90.7945 41.484V37.1927H91.9428V41.484H90.7945ZM93.6906 41.484V37.1927H94.7526V38.0561H94.744C94.8821 37.751 95.0865 37.5179 95.357 37.3567C95.6333 37.1898 95.9413 37.1063 96.2809 37.1063C96.6263 37.1063 96.917 37.1725 97.153 37.3049C97.389 37.4373 97.5646 37.6388 97.6797 37.9093C97.8006 38.1799 97.861 38.5195 97.861 38.9282V41.484H96.7213V38.98C96.7213 38.7728 96.6925 38.6001 96.6349 38.4619C96.5831 38.3238 96.4968 38.2202 96.3759 38.1511C96.2608 38.0763 96.1082 38.0389 95.9183 38.0389C95.7111 38.0389 95.524 38.0878 95.357 38.1856C95.1901 38.2777 95.0606 38.4073 94.9685 38.5742C94.8821 38.7354 94.839 38.9224 94.839 39.1354V41.484H93.6906ZM101.548 43.1246C101.191 43.1246 100.84 43.0785 100.495 42.9864C100.155 42.9001 99.8618 42.7705 99.6143 42.5979L99.9251 41.743C100.081 41.8409 100.245 41.9244 100.417 41.9934C100.596 42.0625 100.777 42.1143 100.961 42.1489C101.145 42.1892 101.324 42.2093 101.497 42.2093C101.923 42.2093 102.245 42.1143 102.464 41.9244C102.688 41.7344 102.8 41.4495 102.8 41.0696V40.422C102.691 40.6925 102.504 40.9141 102.239 41.0868C101.98 41.2538 101.681 41.3372 101.341 41.3372C100.944 41.3372 100.596 41.2509 100.296 41.0782C100.003 40.8997 99.7726 40.6522 99.6056 40.3356C99.4444 40.0133 99.3639 39.642 99.3639 39.2218C99.3639 38.7958 99.4444 38.4245 99.6056 38.1079C99.7726 37.7913 100.003 37.5467 100.296 37.374C100.596 37.1955 100.944 37.1063 101.341 37.1063C101.687 37.1063 101.989 37.1927 102.248 37.3654C102.513 37.5323 102.697 37.7568 102.8 38.0389V37.1927H103.88V40.9746C103.88 41.4236 103.788 41.8092 103.603 42.1316C103.419 42.4539 103.154 42.6986 102.809 42.8655C102.464 43.0382 102.043 43.1246 101.548 43.1246ZM101.626 40.4565C101.977 40.4565 102.254 40.3443 102.455 40.1198C102.656 39.8953 102.757 39.5931 102.757 39.2131C102.757 38.839 102.656 38.5425 102.455 38.3238C102.254 38.0993 101.977 37.987 101.626 37.987C101.281 37.987 101.004 38.0993 100.797 38.3238C100.596 38.5425 100.495 38.839 100.495 39.2131C100.495 39.5931 100.596 39.8953 100.797 40.1198C101.004 40.3443 101.281 40.4565 101.626 40.4565Z" fill="#202224"/>
<mask id="mask1_113_3674" style="mask-type:alpha" maskUnits="userSpaceOnUse" x="21" y="21" width="24" height="35">
<path d="M22.1304 27.0943C22.1304 24.2808 24.4112 22 27.2247 22H34.304C39.7192 22 44.1091 26.3899 44.1091 31.805V45.163C44.1091 50.5782 39.7192 54.968 34.304 54.968H27.2247C24.4112 54.968 22.1304 52.6872 22.1304 49.8737V27.0943Z" fill="white" stroke="url(#paint6_linear_113_3674)" stroke-opacity="0.3" stroke-width="1.02168"/>
</mask>
<g mask="url(#mask1_113_3674)">
<rect x="21.3454" y="21.366" width="10.9893" height="34.236" fill="#FFA94E"/>
</g>
<defs>
<filter id="filter0_d_113_3674" x="0.385069" y="0.254667" width="168.897" height="81.7673" filterUnits="userSpaceOnUse" color-interpolation-filters="sRGB">
<feFlood flood-opacity="0" result="BackgroundImageFix"/>
<feColorMatrix in="SourceAlpha" type="matrix" values="0 0 0 0 0 0 0 0 0 0 0 0 0 0 0 0 0 0 127 0" result="hardAlpha"/>
<feOffset dx="2.65431" dy="2.65431"/>
<feGaussianBlur stdDeviation="11.9444"/>
<feColorMatrix type="matrix" values="0 0 0 0 0 0 0 0 0 0 0 0 0 0 0 0 0 0 0.05 0"/>
<feBlend mode="normal" in2="BackgroundImageFix" result="effect1_dropShadow_113_3674"/>
<feBlend mode="normal" in="SourceGraphic" in2="effect1_dropShadow_113_3674" result="shape"/>
</filter>
<filter id="filter1_d_113_3674" x="36.2733" y="28.6921" width="21.5005" height="21.7796" filterUnits="userSpaceOnUse" color-interpolation-filters="sRGB">
<feFlood flood-opacity="0" result="BackgroundImageFix"/>
<feColorMatrix in="SourceAlpha" type="matrix" values="0 0 0 0 0 0 0 0 0 0 0 0 0 0 0 0 0 0 127 0" result="hardAlpha"/>
<feOffset dy="1.03713"/>
<feComposite in2="hardAlpha" operator="out"/>
<feColorMatrix type="matrix" values="0 0 0 0 0.00784314 0 0 0 0 0.133333 0 0 0 0 0.12549 0 0 0 1 0"/>
<feBlend mode="normal" in2="BackgroundImageFix" result="effect1_dropShadow_113_3674"/>
<feBlend mode="normal" in="SourceGraphic" in2="effect1_dropShadow_113_3674" result="shape"/>
</filter>
<filter id="filter2_i_113_3674" x="38.639" y="29.729" width="18.0978" height="17.1453" filterUnits="userSpaceOnUse" color-interpolation-filters="sRGB">
<feFlood flood-opacity="0" result="BackgroundImageFix"/>
<feBlend mode="normal" in="SourceGraphic" in2="BackgroundImageFix" result="shape"/>
<feColorMatrix in="SourceAlpha" type="matrix" values="0 0 0 0 0 0 0 0 0 0 0 0 0 0 0 0 0 0 127 0" result="hardAlpha"/>
<feOffset dx="-2.41124" dy="-3.04275"/>
<feComposite in2="hardAlpha" operator="arithmetic" k2="-1" k3="1"/>
<feColorMatrix type="matrix" values="0 0 0 0 0.0364583 0 0 0 0 0.416667 0 0 0 0 0.325416 0 0 0 0.34 0"/>
<feBlend mode="normal" in2="shape" result="effect1_innerShadow_113_3674"/>
</filter>
<filter id="filter3_d_113_3674" x="35.515" y="31.1951" width="12.9309" height="18.0008" filterUnits="userSpaceOnUse" color-interpolation-filters="sRGB">
<feFlood flood-opacity="0" result="BackgroundImageFix"/>
<feColorMatrix in="SourceAlpha" type="matrix" values="0 0 0 0 0 0 0 0 0 0 0 0 0 0 0 0 0 0 127 0" result="hardAlpha"/>
<feOffset dx="1.55817" dy="-0.0577101"/>
<feComposite in2="hardAlpha" operator="out"/>
<feColorMatrix type="matrix" values="0 0 0 0 0 0 0 0 0 0 0 0 0 0 0 0 0 0 0.11 0"/>
<feBlend mode="normal" in2="BackgroundImageFix" result="effect1_dropShadow_113_3674"/>
<feBlend mode="normal" in="SourceGraphic" in2="effect1_dropShadow_113_3674" result="shape"/>
</filter>
<filter id="filter4_ii_113_3674" x="37.3083" y="31.7326" width="8.60168" height="16.7877" filterUnits="userSpaceOnUse" color-interpolation-filters="sRGB">
<feFlood flood-opacity="0" result="BackgroundImageFix"/>
<feBlend mode="normal" in="SourceGraphic" in2="BackgroundImageFix" result="shape"/>
<feColorMatrix in="SourceAlpha" type="matrix" values="0 0 0 0 0 0 0 0 0 0 0 0 0 0 0 0 0 0 127 0" result="hardAlpha"/>
<feOffset dy="-0.358909"/>
<feGaussianBlur stdDeviation="0.969054"/>
<feComposite in2="hardAlpha" operator="arithmetic" k2="-1" k3="1"/>
<feColorMatrix type="matrix" values="0 0 0 0 0.866667 0 0 0 0 0.596078 0 0 0 0 0.537255 0 0 0 1 0"/>
<feBlend mode="normal" in2="shape" result="effect1_innerShadow_113_3674"/>
<feColorMatrix in="SourceAlpha" type="matrix" values="0 0 0 0 0 0 0 0 0 0 0 0 0 0 0 0 0 0 127 0" result="hardAlpha"/>
<feOffset dy="0.642263"/>
<feComposite in2="hardAlpha" operator="arithmetic" k2="-1" k3="1"/>
<feColorMatrix type="matrix" values="0 0 0 0 1 0 0 0 0 1 0 0 0 0 1 0 0 0 0.5 0"/>
<feBlend mode="normal" in2="effect1_innerShadow_113_3674" result="effect2_innerShadow_113_3674"/>
</filter>
<linearGradient id="paint0_linear_113_3674" x1="49.5152" y1="10.0922" x2="107.599" y2="77.4501" gradientUnits="userSpaceOnUse">
<stop stop-color="#F1F1F1"/>
<stop offset="1" stop-color="#E1E1E1"/>
</linearGradient>
<linearGradient id="paint1_linear_113_3674" x1="39.1682" y1="32.1486" x2="43.1925" y2="48.1546" gradientUnits="userSpaceOnUse">
<stop stop-color="#489072"/>
<stop offset="1" stop-color="#0A4742"/>
</linearGradient>
<radialGradient id="paint2_radial_113_3674" cx="0" cy="0" r="1" gradientUnits="userSpaceOnUse" gradientTransform="translate(47.662 32.8663) rotate(89.8939) scale(14.008 14.7863)">
<stop stop-color="#91EAB0"/>
<stop offset="1" stop-color="#508588"/>
</radialGradient>
<linearGradient id="paint3_linear_113_3674" x1="47.74" y1="30.5067" x2="47.74" y2="33.0476" gradientUnits="userSpaceOnUse">
<stop stop-color="#074642"/>
<stop offset="1" stop-color="#1A8E7B"/>
</linearGradient>
<linearGradient id="paint4_linear_113_3674" x1="51.4214" y1="31.8033" x2="51.4214" y2="34.3443" gradientUnits="userSpaceOnUse">
<stop stop-color="#074642"/>
<stop offset="1" stop-color="#1A8E7B"/>
</linearGradient>
<linearGradient id="paint5_linear_113_3674" x1="40.426" y1="32.9989" x2="40.426" y2="35.1344" gradientUnits="userSpaceOnUse">
<stop stop-color="#FAECE4"/>
<stop offset="1" stop-color="#FAECE4" stop-opacity="0"/>
</linearGradient>
<linearGradient id="paint6_linear_113_3674" x1="27.142" y1="10.0922" x2="50.9926" y2="15.1539" gradientUnits="userSpaceOnUse">
<stop stop-color="#F1F1F1"/>
<stop offset="1" stop-color="#E1E1E1"/>
</linearGradient>
</defs>
</svg>
