<svg width="170" height="83" viewBox="0 0 170 83" fill="none" xmlns="http://www.w3.org/2000/svg">
<g filter="url(#filter0_d_113_3677)">
<rect x="22" y="22" width="120.098" height="32.968" rx="5.09434" fill="white"/>
<rect x="22" y="22" width="120.098" height="32.968" rx="5.09434" stroke="url(#paint0_linear_113_3677)" stroke-opacity="0.3" stroke-width="1.02168"/>
</g>
<g filter="url(#filter1_d_113_3677)">
<mask id="path-3-outside-1_113_3677" maskUnits="userSpaceOnUse" x="36.2874" y="27.6974" width="24" height="21" fill="black">
<rect fill="white" x="36.2874" y="27.6974" width="24" height="21"/>
<path d="M38.2942 31.7382C38.2081 30.5326 42.3701 29.0401 43.4172 30.0087V31.7529L44.4309 30.2118C45.9854 30.7255 49.6219 31.7527 51.7307 31.7529C53.0056 31.7529 54.6997 31.3562 56.1409 30.7724C57.4002 30.2623 59.1893 30.9488 59.011 32.2958C58.3099 37.5925 56.2153 46.4442 55.8274 46.7167C55.3002 47.0817 52.8262 47.9735 48.7708 46.5136C48.4464 45.9947 48.1484 45.6756 48.0403 45.581L47.7034 45.4706L47.3508 45.0546L46.6614 46.0683C45.7687 45.7442 43.8472 45.2474 42.2444 45.3964L42.2004 46.0634C42.147 46.8713 41.5423 47.4713 40.7854 47.1845C40.338 47.0148 39.8748 46.789 39.4973 46.5898C38.9752 46.3141 38.6602 45.7754 38.635 45.1855C38.5272 42.6475 38.2494 35.6075 38.3127 31.9804C38.2975 31.9264 38.2889 31.8723 38.2874 31.8183C38.2879 31.793 38.2939 31.7406 38.2942 31.7382Z"/>
</mask>
<path d="M38.2942 31.7382C38.2081 30.5326 42.3701 29.0401 43.4172 30.0087V31.7529L44.4309 30.2118C45.9854 30.7255 49.6219 31.7527 51.7307 31.7529C53.0056 31.7529 54.6997 31.3562 56.1409 30.7724C57.4002 30.2623 59.1893 30.9488 59.011 32.2958C58.3099 37.5925 56.2153 46.4442 55.8274 46.7167C55.3002 47.0817 52.8262 47.9735 48.7708 46.5136C48.4464 45.9947 48.1484 45.6756 48.0403 45.581L47.7034 45.4706L47.3508 45.0546L46.6614 46.0683C45.7687 45.7442 43.8472 45.2474 42.2444 45.3964L42.2004 46.0634C42.147 46.8713 41.5423 47.4713 40.7854 47.1845C40.338 47.0148 39.8748 46.789 39.4973 46.5898C38.9752 46.3141 38.6602 45.7754 38.635 45.1855C38.5272 42.6475 38.2494 35.6075 38.3127 31.9804C38.2975 31.9264 38.2889 31.8723 38.2874 31.8183C38.2879 31.793 38.2939 31.7406 38.2942 31.7382Z" fill="url(#paint1_linear_113_3677)"/>
<path d="M38.2942 31.7382L39.4356 31.8724L39.4483 31.7646L39.4405 31.6563L38.2942 31.7382ZM43.4172 30.0087H44.5665V29.5062L44.1976 29.165L43.4172 30.0087ZM43.4172 31.7529H42.268V35.5913L44.3774 32.3844L43.4172 31.7529ZM44.4309 30.2118L44.7915 29.1206L43.9549 28.8442L43.4707 29.5803L44.4309 30.2118ZM51.7307 31.7529L51.7307 32.9021H51.7307V31.7529ZM56.1409 30.7724L56.5723 31.8376L56.5723 31.8376L56.1409 30.7724ZM59.011 32.2958L60.1503 32.4466L60.1503 32.4466L59.011 32.2958ZM55.8274 46.7167L56.4816 47.6617L56.4881 47.6571L55.8274 46.7167ZM48.7708 46.5136L47.7962 47.1228L48.0071 47.4602L48.3815 47.5949L48.7708 46.5136ZM48.0403 45.581L48.7971 44.7161L48.6207 44.5617L48.398 44.4888L48.0403 45.581ZM47.7034 45.4706L46.8266 46.2136L47.0367 46.4616L47.3456 46.5628L47.7034 45.4706ZM47.3508 45.0546L48.2276 44.3116L47.2505 43.1586L46.4005 44.4083L47.3508 45.0546ZM46.6614 46.0683L46.2692 47.1486L47.1091 47.4535L47.6117 46.7146L46.6614 46.0683ZM42.2444 45.3964L42.138 44.2521L41.162 44.3428L41.0976 45.3209L42.2444 45.3964ZM42.2004 46.0634L43.3472 46.1393L43.3472 46.139L42.2004 46.0634ZM40.7854 47.1845L40.3778 48.2591L40.3783 48.2592L40.7854 47.1845ZM39.4973 46.5898L38.9606 47.606L38.9608 47.6061L39.4973 46.5898ZM38.635 45.1855L37.4868 45.2342L37.4868 45.2345L38.635 45.1855ZM38.3127 31.9804L39.4618 32.0005L39.4648 31.8311L39.4188 31.6681L38.3127 31.9804ZM38.2874 31.8183L37.1383 31.7939L37.1377 31.8229L37.1386 31.8519L38.2874 31.8183ZM38.2942 31.7382L39.4405 31.6563C39.4546 31.8533 39.3748 31.9563 39.3893 31.9355C39.4032 31.9156 39.4608 31.8469 39.5984 31.7443C39.8718 31.5402 40.3022 31.3192 40.8075 31.1439C41.31 30.9695 41.8132 30.8658 42.2112 30.849C42.6785 30.8294 42.7284 30.9371 42.6368 30.8524L43.4172 30.0087L44.1976 29.165C43.5825 28.596 42.7195 28.5271 42.1146 28.5525C41.4403 28.5809 40.7121 28.744 40.054 28.9724C39.3987 29.1998 38.7392 29.5174 38.2238 29.9021C37.9669 30.0937 37.7053 30.3319 37.504 30.6206C37.3033 30.9083 37.1122 31.3217 37.1478 31.8201L38.2942 31.7382ZM43.4172 30.0087H42.268V31.7529H43.4172H44.5665V30.0087H43.4172ZM43.4172 31.7529L44.3774 32.3844L45.3911 30.8434L44.4309 30.2118L43.4707 29.5803L42.4571 31.1213L43.4172 31.7529ZM44.4309 30.2118L44.0703 31.3031C44.8764 31.5694 46.2069 31.9642 47.6102 32.2938C48.9908 32.618 50.5357 32.9021 51.7307 32.9021L51.7307 31.7529L51.7308 30.6036C50.8169 30.6035 49.4891 30.3739 48.1357 30.0561C46.8049 29.7436 45.5399 29.3679 44.7915 29.1206L44.4309 30.2118ZM51.7307 31.7529V32.9021C53.196 32.9021 55.0399 32.4583 56.5723 31.8376L56.1409 30.7724L55.7094 29.7072C54.3594 30.254 52.8152 30.6036 51.7307 30.6036V31.7529ZM56.1409 30.7724L56.5723 31.8376C56.8871 31.7101 57.314 31.7297 57.6225 31.8761C57.7663 31.9443 57.8323 32.0155 57.8558 32.0511C57.869 32.071 57.8791 32.089 57.8717 32.145L59.011 32.2958L60.1503 32.4466C60.3249 31.1273 59.4861 30.216 58.6076 29.7993C57.7513 29.3931 56.654 29.3246 55.7094 29.7072L56.1409 30.7724ZM59.011 32.2958L57.8717 32.145C57.5277 34.7438 56.8372 38.2426 56.1809 41.1361C55.8533 42.5807 55.5375 43.8599 55.2819 44.7882C55.1533 45.2549 55.0443 45.6172 54.96 45.8623C54.9169 45.9876 54.8878 46.0601 54.8729 46.0929C54.8649 46.1105 54.8706 46.0954 54.8905 46.0631C54.8907 46.0627 54.9777 45.9092 55.1667 45.7764L55.8274 46.7167L56.4881 47.6571C56.7014 47.5072 56.8159 47.3199 56.8468 47.2698C56.8975 47.1876 56.937 47.1067 56.9658 47.0432C57.0245 46.9138 57.0809 46.7631 57.1336 46.6098C57.2408 46.298 57.3646 45.8827 57.4979 45.3985C57.766 44.4249 58.0904 43.1091 58.4226 41.6445C59.0859 38.7199 59.7932 35.1445 60.1503 32.4466L59.011 32.2958ZM55.8274 46.7167L55.1732 45.7718C55.1818 45.7659 55.1519 45.7868 55.0692 45.8239C54.9915 45.8587 54.8816 45.9012 54.7389 45.9445C54.4539 46.031 54.0528 46.1161 53.5393 46.1532C52.5166 46.2271 51.0448 46.1108 49.16 45.4323L48.7708 46.5136L48.3815 47.5949C52.6873 49.145 55.5717 48.2916 56.4816 47.6616L55.8274 46.7167ZM48.7708 46.5136L49.7453 45.9044C49.3765 45.3144 49.0091 44.9016 48.7971 44.7161L48.0403 45.581L47.2835 46.4459C47.2737 46.4373 47.3309 46.4894 47.4365 46.6178C47.535 46.7377 47.6614 46.9071 47.7962 47.1228L48.7708 46.5136ZM48.0403 45.581L48.398 44.4888L48.0611 44.3785L47.7034 45.4706L47.3456 46.5628L47.6826 46.6732L48.0403 45.581ZM47.7034 45.4706L48.5802 44.7276L48.2276 44.3116L47.3508 45.0546L46.474 45.7976L46.8266 46.2136L47.7034 45.4706ZM47.3508 45.0546L46.4005 44.4083L45.7111 45.4219L46.6614 46.0683L47.6117 46.7146L48.3011 45.701L47.3508 45.0546ZM46.6614 46.0683L47.0536 44.988C46.0917 44.6388 43.9845 44.0805 42.138 44.2521L42.2444 45.3964L42.3507 46.5407C43.7098 46.4144 45.4457 46.8496 46.2692 47.1486L46.6614 46.0683ZM42.2444 45.3964L41.0976 45.3209L41.0537 45.9878L42.2004 46.0634L43.3472 46.139L43.3912 45.472L42.2444 45.3964ZM42.2004 46.0634L41.0537 45.9875C41.049 46.0578 41.0332 46.1088 41.019 46.1396C41.0046 46.1711 40.9964 46.1724 41.0113 46.1597C41.029 46.1446 41.067 46.1211 41.1212 46.1117C41.1769 46.102 41.2057 46.1147 41.1926 46.1098L40.7854 47.1845L40.3783 48.2592C41.1496 48.5514 41.9315 48.3955 42.5021 47.9092C43.0328 47.457 43.304 46.7929 43.3472 46.1393L42.2004 46.0634ZM40.7854 47.1845L41.193 46.1099C40.8075 45.9637 40.3907 45.7618 40.0338 45.5734L39.4973 46.5898L38.9608 47.6061C39.3588 47.8162 39.8685 48.0659 40.3778 48.2591L40.7854 47.1845ZM39.4973 46.5898L40.034 45.5735C39.9024 45.504 39.7924 45.3523 39.7832 45.1365L38.635 45.1855L37.4868 45.2345C37.5279 46.1984 38.048 47.1241 38.9606 47.606L39.4973 46.5898ZM38.635 45.1855L39.7832 45.1367C39.675 42.5879 39.3992 35.5859 39.4618 32.0005L38.3127 31.9804L37.1637 31.9603C37.0996 35.6291 37.3794 42.7071 37.4868 45.2342L38.635 45.1855ZM38.3127 31.9804L39.4188 31.6681C39.4277 31.6996 39.4348 31.739 39.4361 31.7846L38.2874 31.8183L37.1386 31.8519C37.1431 32.0056 37.1674 32.1533 37.2067 32.2927L38.3127 31.9804ZM38.2874 31.8183L39.4364 31.8426C39.4361 31.8568 39.4355 31.8673 39.4353 31.8721C39.435 31.8774 39.4347 31.881 39.4346 31.8822C39.4344 31.8844 39.4344 31.884 39.4348 31.8807C39.435 31.8777 39.4354 31.8746 39.4356 31.8721C39.4358 31.8709 39.4359 31.8701 39.4359 31.8698C39.436 31.869 39.4359 31.87 39.4356 31.8724L38.2942 31.7382L37.1528 31.604C37.152 31.6111 37.1495 31.6327 37.147 31.6587C37.1456 31.6731 37.1396 31.7325 37.1383 31.7939L38.2874 31.8183Z" fill="url(#paint2_linear_113_3677)" mask="url(#path-3-outside-1_113_3677)"/>
</g>
<g filter="url(#filter2_ii_113_3677)">
<path fill-rule="evenodd" clip-rule="evenodd" d="M38.2874 31.8186C38.2879 31.7928 38.2887 31.7525 38.2887 31.7525C38.2872 31.7745 38.2867 31.7965 38.2874 31.8186Z" fill="url(#paint3_linear_113_3677)"/>
<path d="M38.3888 32.1581C39.0701 33.326 40.6411 34.0506 41.4251 33.9424L41.2912 45.5814C42.9967 45.0299 45.5822 45.6761 46.6618 46.0681L47.3512 45.0542L47.7162 46.2708L48.0406 45.5814C48.1488 45.6761 48.4462 45.9951 48.7706 46.5142C52.826 47.9741 55.2998 47.0819 55.827 46.7169C56.2143 46.4488 58.3085 37.5583 59.0071 32.2472C59.1842 30.9 57.4041 30.2241 56.149 30.7445C54.7068 31.3426 53.0092 31.7525 51.731 31.7525C49.6222 31.7525 45.9859 30.7252 44.4313 30.2115L43.4175 31.7525V30.0087C42.3866 29.1619 38.3808 30.4209 38.2887 31.7525L38.2874 31.8186C38.2907 31.9319 38.3231 32.0455 38.3888 32.1581Z" fill="url(#paint4_linear_113_3677)"/>
</g>
<path d="M48.9275 42.4321L48.5708 43.2362C48.4507 43.5075 48.1337 43.6305 47.8624 43.5106L47.0812 43.164C46.8591 43.0655 46.5992 43.1657 46.5008 43.3879L46.081 44.3353C45.961 44.6066 45.6439 44.7295 45.3726 44.6097L44.5683 44.2539C44.2969 44.1338 44.174 43.8159 44.2941 43.5445L44.7138 42.5971C44.8122 42.375 44.7118 42.1151 44.4895 42.0168L43.4833 41.5721C43.2122 41.4518 43.0899 41.135 43.21 40.8637L43.5657 40.0594C43.6858 39.7881 44.0028 39.6653 44.2742 39.7851L45.2798 40.2298C45.5019 40.3281 45.7615 40.2277 45.8598 40.0056L46.2452 39.1345C46.3653 38.8631 46.6831 38.7401 46.9546 38.8603L47.7588 39.217C48.0299 39.3371 48.153 39.6541 48.0331 39.9254L47.6477 40.7966C47.5495 41.0187 47.6498 41.2783 47.8718 41.3766L48.6533 41.7226C48.9248 41.8428 49.0476 42.1606 48.9275 42.4321Z" fill="url(#paint5_linear_113_3677)" style="mix-blend-mode:multiply"/>
<path d="M44.2937 31.6522C44.3978 32.4602 48.3926 34.6665 49.3673 34.6665C50.9814 34.6665 55.2533 32.4288 56.2351 36.6757C56.8663 39.4062 52.4747 43.9668 49.3673 39.9806" stroke="#DAC5AE" stroke-width="1.07492" stroke-linecap="round" stroke-dasharray="2.44 2.44" style="mix-blend-mode:multiply"/>
<g filter="url(#filter3_i_113_3677)">
<path d="M38.4577 31.8791C39.1159 32.694 40.3195 33.194 41.4715 33.2042C42.0931 33.2097 42.735 33.6778 42.7097 34.2989L42.2773 44.9058L42.1979 46.1063C42.1461 46.8891 41.56 47.4731 40.8249 47.1992C40.3652 47.0279 39.8863 46.7949 39.4976 46.5897C38.9752 46.3139 38.6597 45.7752 38.6346 45.1851C38.5224 42.5425 38.2252 35.0193 38.3214 31.5497C38.3258 31.6596 38.3694 31.7699 38.4577 31.8791Z" fill="url(#paint6_linear_113_3677)"/>
</g>
<path opacity="0.8" d="M50.5152 32.6948L49.6799 45.7435C49.6728 45.8548 49.7298 45.9616 49.833 46.004C50.7872 46.3966 52.6759 46.2892 53.3121 45.8807C53.3718 45.8424 53.4045 45.7765 53.413 45.7061L55.0007 32.4672C55.0303 32.2201 54.7357 32.029 54.5023 32.1153C53.5111 32.4818 51.9781 32.5674 50.8548 32.4219C50.6842 32.3998 50.5262 32.5232 50.5152 32.6948Z" fill="url(#paint7_linear_113_3677)"/>
<path d="M38.7944 33.3988L39.0854 45.146C39.0933 45.4656 39.2668 45.758 39.5434 45.9182L40.4824 46.4618C40.5957 46.5274 40.7379 46.4476 40.7409 46.3166L41.018 34.0114C41.02 33.9259 40.9586 33.852 40.8744 33.837C39.9413 33.6711 39.4715 33.5066 39.1305 33.2496C39.0011 33.1521 38.7903 33.2368 38.7944 33.3988Z" fill="url(#paint8_linear_113_3677)"/>
<path d="M70.3197 41.484V36.381H68.2474V35.3967H73.5662V36.381H71.4853V41.484H70.3197ZM74.1567 41.484V37.1927H75.1842V38.2461C75.2763 37.9122 75.4432 37.6503 75.685 37.4603C75.9268 37.2646 76.2347 37.1524 76.6089 37.1236L77.0579 37.0977L77.1529 38.1252L76.4017 38.1856C76.0448 38.2202 75.7713 38.3353 75.5814 38.531C75.3972 38.7267 75.3051 38.98 75.3051 39.2909V41.484H74.1567ZM80.5622 41.5704C80.0384 41.5704 79.5923 41.4811 79.2239 41.3027C78.8554 41.1185 78.5763 40.8594 78.3863 40.5256C78.1963 40.1917 78.1014 39.7974 78.1014 39.3427C78.1014 38.9109 78.1906 38.5281 78.369 38.1943C78.5532 37.8546 78.8123 37.5899 79.1461 37.3999C79.48 37.2042 79.8714 37.1063 80.3204 37.1063C80.7406 37.1063 81.1033 37.1955 81.4084 37.374C81.7192 37.5524 81.9581 37.8057 82.125 38.1338C82.292 38.4619 82.3754 38.8562 82.3754 39.3168V39.6535H79.008V38.9627H81.5552L81.417 39.1095C81.417 38.7123 81.322 38.4159 81.1321 38.2202C80.9479 38.0187 80.686 37.918 80.3463 37.918C80.1103 37.918 79.9031 37.9698 79.7247 38.0734C79.552 38.1712 79.4167 38.3152 79.3188 38.5051C79.221 38.6951 79.172 38.9311 79.172 39.2131V39.3168C79.172 39.6334 79.2267 39.8924 79.3361 40.0939C79.4455 40.2896 79.6038 40.4364 79.811 40.5342C80.024 40.6321 80.2859 40.681 80.5967 40.681C80.827 40.681 81.0601 40.6522 81.2961 40.5947C81.5379 40.5313 81.7566 40.4277 81.9523 40.2838L82.2718 41.0609C82.0473 41.2336 81.7797 41.3631 81.4688 41.4495C81.1637 41.5301 80.8615 41.5704 80.5622 41.5704ZM85.3464 41.5704C85.0355 41.5704 84.7535 41.5099 84.5002 41.389C84.2527 41.2681 84.057 41.107 83.9131 40.9055C83.7749 40.6983 83.7058 40.468 83.7058 40.2147C83.7058 39.8981 83.795 39.6449 83.9735 39.4549C84.1519 39.2592 84.4311 39.1153 84.811 39.0232C85.191 38.9311 85.686 38.885 86.2962 38.885H86.8574V39.5758H86.3393C86.0746 39.5758 85.8472 39.5844 85.6572 39.6017C85.4673 39.619 85.309 39.6506 85.1823 39.6967C85.0614 39.737 84.9722 39.7945 84.9147 39.8694C84.8571 39.9442 84.8283 40.0392 84.8283 40.1543C84.8283 40.35 84.9003 40.4997 85.0442 40.6033C85.1881 40.7011 85.378 40.7501 85.614 40.7501C85.8155 40.7501 85.9968 40.704 86.158 40.6119C86.325 40.5141 86.4573 40.3874 86.5552 40.232C86.6588 40.0708 86.7106 39.8953 86.7106 39.7053V38.7555C86.7106 38.4677 86.6272 38.2662 86.4602 38.1511C86.299 38.036 86.0515 37.9784 85.7177 37.9784C85.4817 37.9784 85.237 38.0129 84.9837 38.082C84.7362 38.1453 84.4743 38.2547 84.198 38.4101L83.8871 37.6158C84.0714 37.5064 84.2699 37.4143 84.4829 37.3395C84.7017 37.2646 84.929 37.2071 85.1651 37.1668C85.4011 37.1265 85.6342 37.1063 85.8644 37.1063C86.2789 37.1063 86.63 37.1696 86.9179 37.2963C87.2057 37.4229 87.4273 37.6158 87.5827 37.8748C87.7381 38.1338 87.8158 38.4735 87.8158 38.8937V41.484H86.8229V40.5947C86.748 40.7846 86.6444 40.9544 86.512 41.1041C86.3796 41.248 86.2156 41.3631 86.0199 41.4495C85.8299 41.5301 85.6054 41.5704 85.3464 41.5704ZM91.2151 41.5704C90.9618 41.5704 90.7143 41.5502 90.4725 41.5099C90.2365 41.4754 90.0206 41.4236 89.8249 41.3545C89.6292 41.2797 89.4594 41.1876 89.3155 41.0782L89.609 40.3011C89.7587 40.3932 89.9199 40.4738 90.0926 40.5429C90.271 40.6062 90.4524 40.6522 90.6366 40.681C90.8265 40.7098 91.0078 40.7242 91.1805 40.7242C91.4914 40.7242 91.7245 40.6868 91.8799 40.6119C92.0411 40.5313 92.1217 40.4133 92.1217 40.2579C92.1217 40.1255 92.0756 40.0277 91.9835 39.9643C91.8914 39.901 91.7446 39.8521 91.5432 39.8176L90.6106 39.6794C90.2077 39.6161 89.9055 39.4779 89.704 39.2649C89.5026 39.0462 89.4018 38.7814 89.4018 38.4706C89.4018 38.2 89.4767 37.964 89.6263 37.7625C89.776 37.5553 89.9947 37.3941 90.2825 37.279C90.5704 37.1639 90.9215 37.1063 91.3359 37.1063C91.5489 37.1063 91.759 37.1265 91.9663 37.1668C92.1792 37.2013 92.3778 37.256 92.562 37.3308C92.7462 37.3999 92.8988 37.4862 93.0197 37.5899L92.7002 38.367C92.5851 38.2749 92.4498 38.2 92.2944 38.1425C92.1447 38.0791 91.9864 38.0331 91.8195 38.0043C91.6525 37.9698 91.4914 37.9525 91.3359 37.9525C91.0309 37.9525 90.8006 37.9957 90.6452 38.082C90.4955 38.1626 90.4207 38.2806 90.4207 38.436C90.4207 38.5569 90.4639 38.6519 90.5502 38.721C90.6366 38.7843 90.7747 38.8303 90.9647 38.8591L91.8713 39.0145C92.303 39.0836 92.6225 39.2189 92.8297 39.4204C93.0369 39.6218 93.1406 39.8895 93.1406 40.2234C93.1406 40.4997 93.06 40.7386 92.8988 40.94C92.7434 41.1415 92.5217 41.2969 92.2339 41.4063C91.9461 41.5157 91.6065 41.5704 91.2151 41.5704ZM96.218 41.5704C95.8611 41.5704 95.5618 41.5042 95.32 41.3718C95.0783 41.2394 94.8941 41.0408 94.7674 40.776C94.6465 40.5054 94.5861 40.1687 94.5861 39.7657V37.1927H95.7345V39.7398C95.7345 39.9298 95.7604 40.0939 95.8122 40.232C95.8697 40.3644 95.959 40.4651 96.0799 40.5342C96.2007 40.6033 96.3533 40.6378 96.5375 40.6378C96.7332 40.6378 96.9088 40.5918 97.0642 40.4997C97.2254 40.4018 97.3491 40.2723 97.4355 40.1111C97.5276 39.9442 97.5736 39.7629 97.5736 39.5672V37.1927H98.722V41.484H97.66V40.5947H97.6772C97.5391 40.9055 97.3462 41.1473 97.0987 41.32C96.8512 41.4869 96.5576 41.5704 96.218 41.5704ZM100.468 41.484V37.1927H101.495V38.2461C101.587 37.9122 101.754 37.6503 101.996 37.4603C102.238 37.2646 102.546 37.1524 102.92 37.1236L103.369 37.0977L103.464 38.1252L102.713 38.1856C102.356 38.2202 102.082 38.3353 101.892 38.531C101.708 38.7267 101.616 38.98 101.616 39.2909V41.484H100.468ZM106.873 41.5704C106.349 41.5704 105.903 41.4811 105.535 41.3027C105.166 41.1185 104.887 40.8594 104.697 40.5256C104.507 40.1917 104.412 39.7974 104.412 39.3427C104.412 38.9109 104.501 38.5281 104.68 38.1943C104.864 37.8546 105.123 37.5899 105.457 37.3999C105.791 37.2042 106.182 37.1063 106.631 37.1063C107.052 37.1063 107.414 37.1955 107.719 37.374C108.03 37.5524 108.269 37.8057 108.436 38.1338C108.603 38.4619 108.686 38.8562 108.686 39.3168V39.6535H105.319V38.9627H107.866L107.728 39.1095C107.728 38.7123 107.633 38.4159 107.443 38.2202C107.259 38.0187 106.997 37.918 106.657 37.918C106.421 37.918 106.214 37.9698 106.036 38.0734C105.863 38.1712 105.728 38.3152 105.63 38.5051C105.532 38.6951 105.483 38.9311 105.483 39.2131V39.3168C105.483 39.6334 105.538 39.8924 105.647 40.0939C105.756 40.2896 105.915 40.4364 106.122 40.5342C106.335 40.6321 106.597 40.681 106.908 40.681C107.138 40.681 107.371 40.6522 107.607 40.5947C107.849 40.5313 108.068 40.4277 108.263 40.2838L108.583 41.0609C108.358 41.2336 108.091 41.3631 107.78 41.4495C107.475 41.5301 107.172 41.5704 106.873 41.5704ZM113.248 41.484V35.3967H114.414V37.9093H117.479V35.3967H118.636V41.484H117.479V38.8937H114.414V41.484H113.248ZM122.124 41.5704C121.767 41.5704 121.468 41.5042 121.226 41.3718C120.984 41.2394 120.8 41.0408 120.674 40.776C120.553 40.5054 120.492 40.1687 120.492 39.7657V37.1927H121.641V39.7398C121.641 39.9298 121.667 40.0939 121.718 40.232C121.776 40.3644 121.865 40.4651 121.986 40.5342C122.107 40.6033 122.259 40.6378 122.444 40.6378C122.639 40.6378 122.815 40.5918 122.97 40.4997C123.132 40.4018 123.255 40.2723 123.342 40.1111C123.434 39.9442 123.48 39.7629 123.48 39.5672V37.1927H124.628V41.484H123.566V40.5947H123.583C123.445 40.9055 123.252 41.1473 123.005 41.32C122.757 41.4869 122.464 41.5704 122.124 41.5704ZM126.374 41.484V37.1927H127.436V38.0561H127.427C127.565 37.751 127.77 37.5179 128.04 37.3567C128.317 37.1898 128.624 37.1063 128.964 37.1063C129.309 37.1063 129.6 37.1725 129.836 37.3049C130.072 37.4373 130.248 37.6388 130.363 37.9093C130.484 38.1799 130.544 38.5195 130.544 38.9282V41.484H129.404V38.98C129.404 38.7728 129.376 38.6001 129.318 38.4619C129.266 38.3238 129.18 38.2202 129.059 38.1511C128.944 38.0763 128.791 38.0389 128.601 38.0389C128.394 38.0389 128.207 38.0878 128.04 38.1856C127.873 38.2777 127.744 38.4073 127.652 38.5742C127.565 38.7354 127.522 38.9224 127.522 39.1354V41.484H126.374ZM134.309 41.5704C133.716 41.5704 133.273 41.4236 132.98 41.13C132.692 40.8307 132.548 40.4018 132.548 39.8435V38.0993H131.719V37.1927H132.6V35.9666H133.696V37.1927H135.138V38.0993H133.696V39.7917C133.696 40.068 133.762 40.2752 133.895 40.4133C134.027 40.5457 134.229 40.6119 134.499 40.6119C134.603 40.6119 134.706 40.6033 134.81 40.586C134.914 40.563 135.017 40.5342 135.121 40.4997L135.285 41.3631C135.153 41.4322 135 41.484 134.827 41.5185C134.655 41.5531 134.482 41.5704 134.309 41.5704Z" fill="#202224"/>
<mask id="mask0_113_3677" style="mask-type:alpha" maskUnits="userSpaceOnUse" x="21" y="21" width="24" height="35">
<path d="M22 27.0943C22 24.2808 24.2808 22 27.0943 22H34.1737C39.5888 22 43.9787 26.3899 43.9787 31.805V45.163C43.9787 50.5782 39.5888 54.968 34.1737 54.968H27.0943C24.2808 54.968 22 52.6872 22 49.8737V27.0943Z" fill="white" stroke="url(#paint9_linear_113_3677)" stroke-opacity="0.3" stroke-width="1.02168"/>
</mask>
<g mask="url(#mask0_113_3677)">
<rect x="21.215" y="21.366" width="10.9893" height="34.236" fill="#587ED7"/>
</g>
<defs>
<filter id="filter0_d_113_3677" x="0.254698" y="0.254667" width="168.897" height="81.7673" filterUnits="userSpaceOnUse" color-interpolation-filters="sRGB">
<feFlood flood-opacity="0" result="BackgroundImageFix"/>
<feColorMatrix in="SourceAlpha" type="matrix" values="0 0 0 0 0 0 0 0 0 0 0 0 0 0 0 0 0 0 127 0" result="hardAlpha"/>
<feOffset dx="2.65431" dy="2.65431"/>
<feGaussianBlur stdDeviation="11.9444"/>
<feColorMatrix type="matrix" values="0 0 0 0 0 0 0 0 0 0 0 0 0 0 0 0 0 0 0.05 0"/>
<feBlend mode="normal" in2="BackgroundImageFix" result="effect1_dropShadow_113_3677"/>
<feBlend mode="normal" in="SourceGraphic" in2="effect1_dropShadow_113_3677" result="shape"/>
</filter>
<filter id="filter1_d_113_3677" x="37.1377" y="28.5481" width="23.0358" height="21.1669" filterUnits="userSpaceOnUse" color-interpolation-filters="sRGB">
<feFlood flood-opacity="0" result="BackgroundImageFix"/>
<feColorMatrix in="SourceAlpha" type="matrix" values="0 0 0 0 0 0 0 0 0 0 0 0 0 0 0 0 0 0 127 0" result="hardAlpha"/>
<feOffset dy="1.24426"/>
<feComposite in2="hardAlpha" operator="out"/>
<feColorMatrix type="matrix" values="0 0 0 0 0.233333 0 0 0 0 0.0835391 0 0 0 0 0 0 0 0 1 0"/>
<feBlend mode="normal" in2="BackgroundImageFix" result="effect1_dropShadow_113_3677"/>
<feBlend mode="normal" in="SourceGraphic" in2="effect1_dropShadow_113_3677" result="shape"/>
</filter>
<filter id="filter2_ii_113_3677" x="38.2871" y="29.7338" width="20.7323" height="17.5885" filterUnits="userSpaceOnUse" color-interpolation-filters="sRGB">
<feFlood flood-opacity="0" result="BackgroundImageFix"/>
<feBlend mode="normal" in="SourceGraphic" in2="BackgroundImageFix" result="shape"/>
<feColorMatrix in="SourceAlpha" type="matrix" values="0 0 0 0 0 0 0 0 0 0 0 0 0 0 0 0 0 0 127 0" result="hardAlpha"/>
<feOffset dy="0.486648"/>
<feComposite in2="hardAlpha" operator="arithmetic" k2="-1" k3="1"/>
<feColorMatrix type="matrix" values="0 0 0 0 0.952941 0 0 0 0 0.933333 0 0 0 0 0.85098 0 0 0 1 0"/>
<feBlend mode="normal" in2="shape" result="effect1_innerShadow_113_3677"/>
<feColorMatrix in="SourceAlpha" type="matrix" values="0 0 0 0 0 0 0 0 0 0 0 0 0 0 0 0 0 0 127 0" result="hardAlpha"/>
<feOffset dx="0.081108" dy="-0.40554"/>
<feComposite in2="hardAlpha" operator="arithmetic" k2="-1" k3="1"/>
<feColorMatrix type="matrix" values="0 0 0 0 0.780392 0 0 0 0 0.587059 0 0 0 0 0.447059 0 0 0 1 0"/>
<feBlend mode="normal" in2="effect1_innerShadow_113_3677" result="effect2_innerShadow_113_3677"/>
</filter>
<filter id="filter3_i_113_3677" x="37.765" y="31.5497" width="4.94542" height="16.1578" filterUnits="userSpaceOnUse" color-interpolation-filters="sRGB">
<feFlood flood-opacity="0" result="BackgroundImageFix"/>
<feBlend mode="normal" in="SourceGraphic" in2="BackgroundImageFix" result="shape"/>
<feColorMatrix in="SourceAlpha" type="matrix" values="0 0 0 0 0 0 0 0 0 0 0 0 0 0 0 0 0 0 127 0" result="hardAlpha"/>
<feOffset dx="-0.537459" dy="0.439739"/>
<feGaussianBlur stdDeviation="0.903908"/>
<feComposite in2="hardAlpha" operator="arithmetic" k2="-1" k3="1"/>
<feColorMatrix type="matrix" values="0 0 0 0 0 0 0 0 0 0 0 0 0 0 0 0 0 0 0.25 0"/>
<feBlend mode="normal" in2="shape" result="effect1_innerShadow_113_3677"/>
</filter>
<linearGradient id="paint0_linear_113_3677" x1="49.3849" y1="10.0922" x2="107.469" y2="77.4501" gradientUnits="userSpaceOnUse">
<stop stop-color="#F1F1F1"/>
<stop offset="1" stop-color="#E1E1E1"/>
</linearGradient>
<linearGradient id="paint1_linear_113_3677" x1="40.5106" y1="32.5595" x2="40.5106" y2="47.3219" gradientUnits="userSpaceOnUse">
<stop stop-color="#B07B5D"/>
<stop offset="1" stop-color="#C79672"/>
</linearGradient>
<linearGradient id="paint2_linear_113_3677" x1="51.5883" y1="32.3972" x2="46.9373" y2="45.753" gradientUnits="userSpaceOnUse">
<stop offset="0.000323348" stop-color="#AB633B"/>
<stop offset="0.116401" stop-color="#9F582F"/>
<stop offset="0.784832" stop-color="#692905"/>
<stop offset="0.953012" stop-color="#632503"/>
</linearGradient>
<linearGradient id="paint3_linear_113_3677" x1="48.7537" y1="28.4677" x2="48.7537" y2="48.1999" gradientUnits="userSpaceOnUse">
<stop stop-color="#F0DCA1"/>
<stop offset="1" stop-color="#D9AF64"/>
</linearGradient>
<linearGradient id="paint4_linear_113_3677" x1="48.7537" y1="28.4677" x2="48.7537" y2="48.1999" gradientUnits="userSpaceOnUse">
<stop stop-color="#F0DCA1"/>
<stop offset="1" stop-color="#D9AF64"/>
</linearGradient>
<linearGradient id="paint5_linear_113_3677" x1="48.9944" y1="42.0731" x2="43.1253" y2="41.3719" gradientUnits="userSpaceOnUse">
<stop stop-color="#AD6981"/>
<stop offset="0.484375" stop-color="#D92F58"/>
<stop offset="1" stop-color="#C93939"/>
</linearGradient>
<linearGradient id="paint6_linear_113_3677" x1="40.533" y1="31.5497" x2="40.533" y2="47.4468" gradientUnits="userSpaceOnUse">
<stop stop-color="#B07B5D"/>
<stop offset="1" stop-color="#C79672"/>
</linearGradient>
<linearGradient id="paint7_linear_113_3677" x1="37.8638" y1="28.552" x2="54.9805" y2="39.5149" gradientUnits="userSpaceOnUse">
<stop stop-color="white"/>
<stop offset="1" stop-color="white" stop-opacity="0"/>
</linearGradient>
<linearGradient id="paint8_linear_113_3677" x1="24.9178" y1="29.8725" x2="42.9446" y2="41.8713" gradientUnits="userSpaceOnUse">
<stop stop-color="#5F3E21"/>
<stop offset="1" stop-color="#5F3E21" stop-opacity="0"/>
</linearGradient>
<linearGradient id="paint9_linear_113_3677" x1="27.0116" y1="10.0922" x2="50.8622" y2="15.1539" gradientUnits="userSpaceOnUse">
<stop stop-color="#F1F1F1"/>
<stop offset="1" stop-color="#E1E1E1"/>
</linearGradient>
</defs>
</svg>
