<svg width="170" height="83" viewBox="0 0 170 83" fill="none" xmlns="http://www.w3.org/2000/svg">
<g filter="url(#filter0_d_113_3681)">
<rect x="22" y="22" width="120.098" height="32.968" rx="5.09434" fill="white"/>
<rect x="22" y="22" width="120.098" height="32.968" rx="5.09434" stroke="url(#paint0_linear_113_3681)" stroke-opacity="0.3" stroke-width="1.02168"/>
</g>
<g filter="url(#filter1_di_113_3681)">
<path d="M48.0637 26.4837C49.4364 25.7066 51.1194 25.7208 52.4787 26.521L59.4997 30.6543C60.8591 31.4545 61.6882 32.9191 61.6749 34.4965L61.6059 42.6435C61.5925 44.2208 60.7387 45.6712 59.366 46.4483L52.276 50.4621C50.9034 51.2392 49.2204 51.2249 47.861 50.4247L40.84 46.2915C39.4807 45.4912 38.6515 44.0266 38.6649 42.4493L38.7338 34.3023C38.7472 32.7249 39.601 31.2745 40.9737 30.4974L48.0637 26.4837Z" fill="url(#paint1_linear_113_3681)"/>
<path d="M47.6963 25.8339C49.3009 24.9257 51.2683 24.9423 52.8573 25.8776L59.8782 30.0114L60.1686 30.1955C61.5846 31.1612 62.4359 32.774 62.4213 34.5028L62.3523 42.65C62.3376 44.3787 61.4592 45.977 60.0271 46.9185L59.7335 47.0977L52.6437 51.1111C51.1393 51.9627 49.3164 52.0013 47.785 51.2321L47.4827 51.0674L40.4618 46.9346C38.8727 45.9991 37.9031 44.287 37.9186 42.4431L37.9876 34.296C38.0032 32.452 39.0017 30.7567 40.6064 29.8483L47.6963 25.8339Z" stroke="url(#paint2_linear_113_3681)" stroke-width="1.49267"/>
</g>
<path d="M48.0631 26.4837C49.4358 25.7066 51.1188 25.7208 52.4781 26.521L59.4992 30.6543C60.8585 31.4545 61.6877 32.9191 61.6743 34.4965L61.6053 42.6435C61.592 44.2208 60.7382 45.6712 59.3655 46.4483L52.2755 50.4621C50.9028 51.2392 49.2198 51.2249 47.8605 50.4247L40.8394 46.2915C39.4801 45.4912 38.6509 44.0266 38.6643 42.4493L38.7333 34.3023C38.7466 32.7249 39.6005 31.2745 40.9731 30.4974L48.0631 26.4837Z" fill="url(#paint3_linear_113_3681)"/>
<path d="M47.8766 27.3707C49.3451 26.5403 51.1431 26.5475 52.6048 27.3898L58.9917 31.0704C59.8093 31.5415 59.8189 32.718 59.0091 33.2024L52.4282 37.1392C51.0255 37.9783 49.2697 37.9554 47.8894 37.0799L41.5328 33.0482C40.7443 32.548 40.7736 31.3878 41.5864 30.9281L47.8766 27.3707Z" fill="url(#paint4_linear_113_3681)"/>
<path d="M49.7039 41.7587C49.7171 40.1033 48.8708 38.5594 47.4681 37.6802L41.5104 33.9459C40.7054 33.4413 39.6557 33.9956 39.6185 34.9449L39.3304 42.2915C39.2666 43.9183 40.1214 45.4432 41.5424 46.2377L47.809 49.7413C48.6292 50.1999 49.6409 49.6118 49.6485 48.6721L49.7039 41.7587Z" fill="url(#paint5_linear_113_3681)"/>
<path d="M51.1457 42.0876C51.1325 40.4322 51.9788 38.8883 53.3815 38.0091L59.3392 34.2748C60.1442 33.7702 61.1939 34.3245 61.2311 35.2739L61.5192 42.6204C61.583 44.2472 60.7282 45.7721 59.3072 46.5666L53.0406 50.0702C52.2204 50.5288 51.2087 49.9407 51.2011 49.0011L51.1457 42.0876Z" fill="url(#paint6_linear_113_3681)"/>
<g filter="url(#filter2_i_113_3681)">
<ellipse cx="56.1901" cy="41.8353" rx="2.25173" ry="2.69325" transform="rotate(10.2543 56.1901 41.8353)" fill="#C4B295" style="mix-blend-mode:multiply"/>
</g>
<g filter="url(#filter3_i_113_3681)">
<path d="M47.6386 45.1424C48.587 45.4371 49.1175 46.4447 48.823 47.393C48.5284 48.3415 47.5199 48.8718 46.5715 48.5772C45.6231 48.2825 45.0936 47.2743 45.3883 46.3259C45.683 45.3776 46.6903 44.8478 47.6386 45.1424ZM45.1665 40.4404C46.1148 40.7352 46.6443 41.7433 46.3497 42.6917C46.0549 43.6398 45.0476 44.1696 44.0994 43.8751C43.1511 43.5805 42.6205 42.5729 42.915 41.6245C43.2096 40.6761 44.2181 40.1457 45.1665 40.4404ZM42.7742 36.0147C43.7225 36.3094 44.253 37.317 43.9586 38.2653C43.664 39.2138 42.6555 39.7441 41.7071 39.4495C40.7589 39.1546 40.2293 38.1465 40.5239 37.1982C40.8187 36.2502 41.826 35.7204 42.7742 36.0147Z" fill="#C4B295" style="mix-blend-mode:multiply"/>
</g>
<g filter="url(#filter4_i_113_3681)">
<path d="M54.784 31.4017C56.1584 31.4134 57.2658 32.1848 57.2578 33.1239C57.2496 34.0629 56.1294 34.8146 54.7552 34.803C53.3811 34.7913 52.2737 34.0207 52.2814 33.0818C52.2894 32.1427 53.4098 31.3902 54.784 31.4017ZM45.7599 29.252C47.1342 29.2637 48.2428 30.016 48.235 30.9322C48.2272 31.8484 47.1061 32.5819 45.7318 32.5703C44.3577 32.5585 43.25 31.8062 43.2577 30.8901C43.2654 29.9739 44.3857 29.2405 45.7599 29.252Z" fill="#C4B295" style="mix-blend-mode:multiply"/>
</g>
<path d="M59.5782 34.0817L52.0154 38.6241V40.1168L59.5605 35.5349C59.7135 35.4419 59.9093 35.5521 59.9093 35.7311V45.5421L61.1437 44.5374V34.9676C61.1437 34.1641 60.267 33.668 59.5782 34.0817Z" fill="url(#paint7_radial_113_3681)"/>
<path d="M74.5489 41.579C73.933 41.579 73.3976 41.4523 72.9429 41.1991C72.4939 40.9458 72.1456 40.586 71.8981 40.1198C71.6506 39.6477 71.5268 39.0865 71.5268 38.436C71.5268 37.7856 71.6506 37.2272 71.8981 36.7609C72.1456 36.2947 72.4939 35.9378 72.9429 35.6903C73.3919 35.437 73.9272 35.3104 74.5489 35.3104C74.9634 35.3104 75.349 35.3708 75.7059 35.4917C76.0686 35.6068 76.3708 35.7824 76.6126 36.0184L76.224 36.9164C75.965 36.7091 75.7031 36.5595 75.4383 36.4674C75.1792 36.3753 74.8943 36.3292 74.5835 36.3292C74.0021 36.3292 73.5473 36.5077 73.2192 36.8646C72.8968 37.2215 72.7357 37.7424 72.7357 38.4274C72.7357 39.1182 72.8968 39.6449 73.2192 40.0075C73.5473 40.3702 74.0021 40.5515 74.5835 40.5515C74.8943 40.5515 75.1792 40.5054 75.4383 40.4133C75.7031 40.3212 75.965 40.1716 76.224 39.9643L76.6126 40.8623C76.3708 41.0926 76.0686 41.271 75.7059 41.3977C75.349 41.5185 74.9634 41.579 74.5489 41.579ZM79.6373 41.5704C79.148 41.5704 78.7768 41.438 78.5235 41.1732C78.276 40.9084 78.1522 40.5256 78.1522 40.0248V35.3967H79.3006V39.9471C79.3006 40.1025 79.3207 40.2349 79.361 40.3443C79.4071 40.4479 79.4733 40.5285 79.5596 40.586C79.646 40.6378 79.7553 40.6637 79.8877 40.6637C79.9626 40.6637 80.0345 40.6609 80.1036 40.6551C80.1784 40.6436 80.2561 40.6292 80.3367 40.6119L80.3799 41.4581C80.259 41.4984 80.141 41.5272 80.0259 41.5445C79.9107 41.5617 79.7812 41.5704 79.6373 41.5704ZM83.0392 41.5704C82.7283 41.5704 82.4463 41.5099 82.193 41.389C81.9455 41.2681 81.7498 41.107 81.6059 40.9055C81.4677 40.6983 81.3986 40.468 81.3986 40.2147C81.3986 39.8981 81.4878 39.6449 81.6663 39.4549C81.8447 39.2592 82.1239 39.1153 82.5038 39.0232C82.8838 38.9311 83.3788 38.885 83.989 38.885H84.5502V39.5758H84.0321C83.7674 39.5758 83.54 39.5844 83.35 39.6017C83.1601 39.619 83.0018 39.6506 82.8751 39.6967C82.7542 39.737 82.665 39.7945 82.6075 39.8694C82.5499 39.9442 82.5211 40.0392 82.5211 40.1543C82.5211 40.35 82.5931 40.4997 82.737 40.6033C82.8809 40.7011 83.0708 40.7501 83.3068 40.7501C83.5083 40.7501 83.6896 40.704 83.8508 40.6119C84.0178 40.5141 84.1501 40.3874 84.248 40.232C84.3516 40.0708 84.4034 39.8953 84.4034 39.7053V38.7555C84.4034 38.4677 84.32 38.2662 84.153 38.1511C83.9918 38.036 83.7443 37.9784 83.4105 37.9784C83.1745 37.9784 82.9298 38.0129 82.6765 38.082C82.429 38.1453 82.1671 38.2547 81.8908 38.4101L81.5799 37.6158C81.7642 37.5064 81.9627 37.4143 82.1757 37.3395C82.3945 37.2646 82.6218 37.2071 82.8579 37.1668C83.0939 37.1265 83.327 37.1063 83.5572 37.1063C83.9717 37.1063 84.3228 37.1696 84.6107 37.2963C84.8985 37.4229 85.1201 37.6158 85.2755 37.8748C85.4309 38.1338 85.5086 38.4735 85.5086 38.8937V41.484H84.5157V40.5947C84.4408 40.7846 84.3372 40.9544 84.2048 41.1041C84.0724 41.248 83.9084 41.3631 83.7127 41.4495C83.5227 41.5301 83.2982 41.5704 83.0392 41.5704ZM88.9079 41.5704C88.6546 41.5704 88.4071 41.5502 88.1653 41.5099C87.9293 41.4754 87.7134 41.4236 87.5177 41.3545C87.322 41.2797 87.1522 41.1876 87.0083 41.0782L87.3018 40.3011C87.4515 40.3932 87.6127 40.4738 87.7854 40.5429C87.9638 40.6062 88.1451 40.6522 88.3294 40.681C88.5193 40.7098 88.7006 40.7242 88.8733 40.7242C89.1842 40.7242 89.4173 40.6868 89.5727 40.6119C89.7339 40.5313 89.8145 40.4133 89.8145 40.2579C89.8145 40.1255 89.7684 40.0277 89.6763 39.9643C89.5842 39.901 89.4374 39.8521 89.236 39.8176L88.3034 39.6794C87.9005 39.6161 87.5983 39.4779 87.3968 39.2649C87.1954 39.0462 87.0946 38.7814 87.0946 38.4706C87.0946 38.2 87.1695 37.964 87.3191 37.7625C87.4688 37.5553 87.6875 37.3941 87.9753 37.279C88.2632 37.1639 88.6143 37.1063 89.0287 37.1063C89.2417 37.1063 89.4518 37.1265 89.6591 37.1668C89.872 37.2013 90.0706 37.256 90.2548 37.3308C90.439 37.3999 90.5916 37.4862 90.7125 37.5899L90.393 38.367C90.2779 38.2749 90.1426 38.2 89.9872 38.1425C89.8375 38.0791 89.6792 38.0331 89.5123 38.0043C89.3453 37.9698 89.1842 37.9525 89.0287 37.9525C88.7237 37.9525 88.4934 37.9957 88.338 38.082C88.1883 38.1626 88.1135 38.2806 88.1135 38.436C88.1135 38.5569 88.1567 38.6519 88.243 38.721C88.3294 38.7843 88.4675 38.8303 88.6575 38.8591L89.5641 39.0145C89.9958 39.0836 90.3153 39.2189 90.5225 39.4204C90.7297 39.6218 90.8334 39.8895 90.8334 40.2234C90.8334 40.4997 90.7528 40.7386 90.5916 40.94C90.4362 41.1415 90.2145 41.2969 89.9267 41.4063C89.6389 41.5157 89.2993 41.5704 88.9079 41.5704ZM93.9626 41.5704C93.7093 41.5704 93.4618 41.5502 93.22 41.5099C92.984 41.4754 92.7682 41.4236 92.5725 41.3545C92.3767 41.2797 92.2069 41.1876 92.063 41.0782L92.3566 40.3011C92.5063 40.3932 92.6674 40.4738 92.8401 40.5429C93.0186 40.6062 93.1999 40.6522 93.3841 40.681C93.5741 40.7098 93.7554 40.7242 93.9281 40.7242C94.2389 40.7242 94.472 40.6868 94.6275 40.6119C94.7886 40.5313 94.8692 40.4133 94.8692 40.2579C94.8692 40.1255 94.8232 40.0277 94.7311 39.9643C94.639 39.901 94.4922 39.8521 94.2907 39.8176L93.3582 39.6794C92.9553 39.6161 92.653 39.4779 92.4516 39.2649C92.2501 39.0462 92.1494 38.7814 92.1494 38.4706C92.1494 38.2 92.2242 37.964 92.3739 37.7625C92.5235 37.5553 92.7423 37.3941 93.0301 37.279C93.3179 37.1639 93.669 37.1063 94.0835 37.1063C94.2965 37.1063 94.5066 37.1265 94.7138 37.1668C94.9268 37.2013 95.1254 37.256 95.3096 37.3308C95.4938 37.3999 95.6463 37.4862 95.7672 37.5899L95.4477 38.367C95.3326 38.2749 95.1973 38.2 95.0419 38.1425C94.8923 38.0791 94.734 38.0331 94.567 38.0043C94.4001 37.9698 94.2389 37.9525 94.0835 37.9525C93.7784 37.9525 93.5482 37.9957 93.3927 38.082C93.2431 38.1626 93.1682 38.2806 93.1682 38.436C93.1682 38.5569 93.2114 38.6519 93.2978 38.721C93.3841 38.7843 93.5223 38.8303 93.7122 38.8591L94.6188 39.0145C95.0506 39.0836 95.37 39.2189 95.5773 39.4204C95.7845 39.6218 95.8881 39.8895 95.8881 40.2234C95.8881 40.4997 95.8075 40.7386 95.6463 40.94C95.4909 41.1415 95.2693 41.2969 94.9815 41.4063C94.6937 41.5157 94.354 41.5704 93.9626 41.5704ZM97.2559 36.3206V35.1808H98.5684V36.3206H97.2559ZM97.3509 41.484V37.1927H98.4993V41.484H97.3509ZM102.268 41.5704C101.813 41.5704 101.416 41.4783 101.076 41.2941C100.736 41.1098 100.474 40.8508 100.29 40.5169C100.106 40.1773 100.014 39.783 100.014 39.334C100.014 38.8793 100.106 38.485 100.29 38.1511C100.474 37.8172 100.736 37.5611 101.076 37.3826C101.416 37.1984 101.816 37.1063 102.276 37.1063C102.581 37.1063 102.872 37.1524 103.148 37.2445C103.425 37.3366 103.652 37.4575 103.83 37.6071L103.485 38.4447C103.33 38.318 103.154 38.2202 102.958 38.1511C102.768 38.082 102.581 38.0475 102.397 38.0475C102.006 38.0475 101.703 38.1569 101.49 38.3756C101.277 38.5943 101.171 38.9138 101.171 39.334C101.171 39.7542 101.277 40.0766 101.49 40.3011C101.703 40.5198 102.003 40.6292 102.388 40.6292C102.578 40.6292 102.768 40.5947 102.958 40.5256C103.148 40.4565 103.318 40.3615 103.468 40.2406L103.822 41.0696C103.643 41.2192 103.416 41.3401 103.14 41.4322C102.863 41.5243 102.573 41.5704 102.268 41.5704ZM108.176 41.484V35.3967H109.376L111.405 39.3513H111.31L113.331 35.3967H114.514V41.484H113.426V37.1236H113.477L111.733 40.5083H110.965L109.212 37.115H109.272V41.484H108.176ZM117.883 41.5704C117.572 41.5704 117.29 41.5099 117.037 41.389C116.789 41.2681 116.593 41.107 116.449 40.9055C116.311 40.6983 116.242 40.468 116.242 40.2147C116.242 39.8981 116.331 39.6449 116.51 39.4549C116.688 39.2592 116.968 39.1153 117.347 39.0232C117.727 38.9311 118.222 38.885 118.833 38.885H119.394V39.5758H118.876C118.611 39.5758 118.384 39.5844 118.194 39.6017C118.004 39.619 117.845 39.6506 117.719 39.6967C117.598 39.737 117.509 39.7945 117.451 39.8694C117.393 39.9442 117.365 40.0392 117.365 40.1543C117.365 40.35 117.437 40.4997 117.581 40.6033C117.724 40.7011 117.914 40.7501 118.15 40.7501C118.352 40.7501 118.533 40.704 118.694 40.6119C118.861 40.5141 118.994 40.3874 119.092 40.232C119.195 40.0708 119.247 39.8953 119.247 39.7053V38.7555C119.247 38.4677 119.164 38.2662 118.997 38.1511C118.835 38.036 118.588 37.9784 118.254 37.9784C118.018 37.9784 117.773 38.0129 117.52 38.082C117.273 38.1453 117.011 38.2547 116.734 38.4101L116.424 37.6158C116.608 37.5064 116.806 37.4143 117.019 37.3395C117.238 37.2646 117.465 37.2071 117.701 37.1668C117.937 37.1265 118.171 37.1063 118.401 37.1063C118.815 37.1063 119.166 37.1696 119.454 37.2963C119.742 37.4229 119.964 37.6158 120.119 37.8748C120.275 38.1338 120.352 38.4735 120.352 38.8937V41.484H119.359V40.5947C119.284 40.7846 119.181 40.9544 119.048 41.1041C118.916 41.248 118.752 41.3631 118.556 41.4495C118.366 41.5301 118.142 41.5704 117.883 41.5704ZM124.114 41.5704C123.521 41.5704 123.078 41.4236 122.784 41.13C122.497 40.8307 122.353 40.4018 122.353 39.8435V38.0993H121.524V37.1927H122.404V35.9666H123.501V37.1927H124.943V38.0993H123.501V39.7917C123.501 40.068 123.567 40.2752 123.7 40.4133C123.832 40.5457 124.034 40.6119 124.304 40.6119C124.408 40.6119 124.511 40.6033 124.615 40.586C124.719 40.563 124.822 40.5342 124.926 40.4997L125.09 41.3631C124.957 41.4322 124.805 41.484 124.632 41.5185C124.459 41.5531 124.287 41.5704 124.114 41.5704ZM128.266 41.5704C127.812 41.5704 127.414 41.4783 127.075 41.2941C126.735 41.1098 126.473 40.8508 126.289 40.5169C126.105 40.1773 126.013 39.783 126.013 39.334C126.013 38.8793 126.105 38.485 126.289 38.1511C126.473 37.8172 126.735 37.5611 127.075 37.3826C127.414 37.1984 127.815 37.1063 128.275 37.1063C128.58 37.1063 128.871 37.1524 129.147 37.2445C129.423 37.3366 129.651 37.4575 129.829 37.6071L129.484 38.4447C129.328 38.318 129.153 38.2202 128.957 38.1511C128.767 38.082 128.58 38.0475 128.396 38.0475C128.005 38.0475 127.702 38.1569 127.489 38.3756C127.276 38.5943 127.17 38.9138 127.17 39.334C127.17 39.7542 127.276 40.0766 127.489 40.3011C127.702 40.5198 128.002 40.6292 128.387 40.6292C128.577 40.6292 128.767 40.5947 128.957 40.5256C129.147 40.4565 129.317 40.3615 129.467 40.2406L129.821 41.0696C129.642 41.2192 129.415 41.3401 129.138 41.4322C128.862 41.5243 128.572 41.5704 128.266 41.5704ZM131.09 41.484V35.3967H132.186V38.0216H132.169C132.302 37.7395 132.5 37.5179 132.765 37.3567C133.036 37.1898 133.341 37.1063 133.68 37.1063C134.026 37.1063 134.316 37.1725 134.552 37.3049C134.788 37.4373 134.964 37.6388 135.079 37.9093C135.2 38.1741 135.26 38.5137 135.26 38.9282V41.484H134.121V38.98C134.121 38.7728 134.092 38.6001 134.034 38.4619C133.977 38.3238 133.887 38.2202 133.767 38.1511C133.651 38.0763 133.502 38.0389 133.318 38.0389C133.11 38.0389 132.923 38.0878 132.756 38.1856C132.595 38.2777 132.469 38.4073 132.376 38.5742C132.284 38.7354 132.238 38.9224 132.238 39.1354V41.484H131.09Z" fill="#202224"/>
<mask id="mask0_113_3681" style="mask-type:alpha" maskUnits="userSpaceOnUse" x="21" y="21" width="24" height="35">
<path d="M22 27.0943C22 24.2808 24.2808 22 27.0943 22H34.1737C39.5888 22 43.9787 26.3899 43.9787 31.805V45.163C43.9787 50.5782 39.5888 54.968 34.1737 54.968H27.0943C24.2808 54.968 22 52.6872 22 49.8737V27.0943Z" fill="white" stroke="url(#paint8_linear_113_3681)" stroke-opacity="0.3" stroke-width="1.02168"/>
</mask>
<g mask="url(#mask0_113_3681)">
<rect x="21.2151" y="21.366" width="10.9893" height="34.236" fill="#96DE84"/>
</g>
<defs>
<filter id="filter0_d_113_3681" x="0.254692" y="0.254667" width="168.897" height="81.7673" filterUnits="userSpaceOnUse" color-interpolation-filters="sRGB">
<feFlood flood-opacity="0" result="BackgroundImageFix"/>
<feColorMatrix in="SourceAlpha" type="matrix" values="0 0 0 0 0 0 0 0 0 0 0 0 0 0 0 0 0 0 127 0" result="hardAlpha"/>
<feOffset dx="2.65431" dy="2.65431"/>
<feGaussianBlur stdDeviation="11.9444"/>
<feColorMatrix type="matrix" values="0 0 0 0 0 0 0 0 0 0 0 0 0 0 0 0 0 0 0.05 0"/>
<feBlend mode="normal" in2="BackgroundImageFix" result="effect1_dropShadow_113_3681"/>
<feBlend mode="normal" in="SourceGraphic" in2="effect1_dropShadow_113_3681" result="shape"/>
</filter>
<filter id="filter1_di_113_3681" x="37.172" y="24.418" width="25.9957" height="29.0282" filterUnits="userSpaceOnUse" color-interpolation-filters="sRGB">
<feFlood flood-opacity="0" result="BackgroundImageFix"/>
<feColorMatrix in="SourceAlpha" type="matrix" values="0 0 0 0 0 0 0 0 0 0 0 0 0 0 0 0 0 0 127 0" result="hardAlpha"/>
<feOffset dy="0.918566"/>
<feComposite in2="hardAlpha" operator="out"/>
<feColorMatrix type="matrix" values="0 0 0 0 0.529412 0 0 0 0 0.0784314 0 0 0 0 0.0196078 0 0 0 1 0"/>
<feBlend mode="normal" in2="BackgroundImageFix" result="effect1_dropShadow_113_3681"/>
<feBlend mode="normal" in="SourceGraphic" in2="effect1_dropShadow_113_3681" result="shape"/>
<feColorMatrix in="SourceAlpha" type="matrix" values="0 0 0 0 0 0 0 0 0 0 0 0 0 0 0 0 0 0 127 0" result="hardAlpha"/>
<feOffset dy="1.61857"/>
<feComposite in2="hardAlpha" operator="arithmetic" k2="-1" k3="1"/>
<feColorMatrix type="matrix" values="0 0 0 0 1 0 0 0 0 1 0 0 0 0 1 0 0 0 0.55 0"/>
<feBlend mode="normal" in2="shape" result="effect2_innerShadow_113_3681"/>
</filter>
<filter id="filter2_i_113_3681" x="53.9225" y="39.1545" width="4.53504" height="5.36145" filterUnits="userSpaceOnUse" color-interpolation-filters="sRGB">
<feFlood flood-opacity="0" result="BackgroundImageFix"/>
<feBlend mode="normal" in="SourceGraphic" in2="BackgroundImageFix" result="shape"/>
<feColorMatrix in="SourceAlpha" type="matrix" values="0 0 0 0 0 0 0 0 0 0 0 0 0 0 0 0 0 0 127 0" result="hardAlpha"/>
<feOffset dy="0.353213"/>
<feComposite in2="hardAlpha" operator="arithmetic" k2="-1" k3="1"/>
<feColorMatrix type="matrix" values="0 0 0 0 0 0 0 0 0 0 0 0 0 0 0 0 0 0 0.15 0"/>
<feBlend mode="normal" in2="shape" result="effect1_innerShadow_113_3681"/>
</filter>
<filter id="filter3_i_113_3681" x="40.4424" y="35.9334" width="8.46192" height="12.7252" filterUnits="userSpaceOnUse" color-interpolation-filters="sRGB">
<feFlood flood-opacity="0" result="BackgroundImageFix"/>
<feBlend mode="normal" in="SourceGraphic" in2="BackgroundImageFix" result="shape"/>
<feColorMatrix in="SourceAlpha" type="matrix" values="0 0 0 0 0 0 0 0 0 0 0 0 0 0 0 0 0 0 127 0" result="hardAlpha"/>
<feOffset dy="0.353213"/>
<feComposite in2="hardAlpha" operator="arithmetic" k2="-1" k3="1"/>
<feColorMatrix type="matrix" values="0 0 0 0 0 0 0 0 0 0 0 0 0 0 0 0 0 0 0.15 0"/>
<feBlend mode="normal" in2="shape" result="effect1_innerShadow_113_3681"/>
</filter>
<filter id="filter4_i_113_3681" x="43.2576" y="29.2519" width="14.0002" height="5.55121" filterUnits="userSpaceOnUse" color-interpolation-filters="sRGB">
<feFlood flood-opacity="0" result="BackgroundImageFix"/>
<feBlend mode="normal" in="SourceGraphic" in2="BackgroundImageFix" result="shape"/>
<feColorMatrix in="SourceAlpha" type="matrix" values="0 0 0 0 0 0 0 0 0 0 0 0 0 0 0 0 0 0 127 0" result="hardAlpha"/>
<feOffset dy="0.353213"/>
<feComposite in2="hardAlpha" operator="arithmetic" k2="-1" k3="1"/>
<feColorMatrix type="matrix" values="0 0 0 0 0 0 0 0 0 0 0 0 0 0 0 0 0 0 0.15 0"/>
<feBlend mode="normal" in2="shape" result="effect1_innerShadow_113_3681"/>
</filter>
<linearGradient id="paint0_linear_113_3681" x1="49.3849" y1="10.0922" x2="107.469" y2="77.4501" gradientUnits="userSpaceOnUse">
<stop stop-color="#F1F1F1"/>
<stop offset="1" stop-color="#E1E1E1"/>
</linearGradient>
<linearGradient id="paint1_linear_113_3681" x1="50.282" y1="25.2278" x2="51.3355" y2="59.155" gradientUnits="userSpaceOnUse">
<stop offset="0.149706" stop-color="#FFB1F3"/>
<stop offset="1" stop-color="#A101ED"/>
</linearGradient>
<linearGradient id="paint2_linear_113_3681" x1="50.1783" y1="23.8123" x2="50.1783" y2="53.3499" gradientUnits="userSpaceOnUse">
<stop offset="0.0361695" stop-color="#E75827"/>
<stop offset="0.921659" stop-color="#B72916"/>
</linearGradient>
<linearGradient id="paint3_linear_113_3681" x1="63.1243" y1="25.9077" x2="38.9546" y2="47.494" gradientUnits="userSpaceOnUse">
<stop stop-color="white"/>
<stop offset="0.799012" stop-color="#F7FCD9"/>
<stop offset="1" stop-color="#938042"/>
</linearGradient>
<linearGradient id="paint4_linear_113_3681" x1="50.6543" y1="39.0734" x2="48.7681" y2="27.2703" gradientUnits="userSpaceOnUse">
<stop stop-color="#EDEBBB"/>
<stop offset="1" stop-color="#F1FBE0"/>
</linearGradient>
<linearGradient id="paint5_linear_113_3681" x1="51.5337" y1="38.9705" x2="47.1089" y2="49.8003" gradientUnits="userSpaceOnUse">
<stop stop-color="#DCD38F"/>
<stop offset="0.978825" stop-color="#F2FBE0" stop-opacity="0"/>
</linearGradient>
<linearGradient id="paint6_linear_113_3681" x1="52.5321" y1="51.1109" x2="53.2784" y2="41.6955" gradientUnits="userSpaceOnUse">
<stop stop-color="#DCD38F" stop-opacity="0.31"/>
<stop offset="0.978825" stop-color="#F2FBE0" stop-opacity="0"/>
</linearGradient>
<radialGradient id="paint7_radial_113_3681" cx="0" cy="0" r="1" gradientUnits="userSpaceOnUse" gradientTransform="translate(60.6557 33.8878) rotate(120.329) scale(9.77748 7.5313)">
<stop stop-color="white"/>
<stop offset="1" stop-color="#F1FBE0" stop-opacity="0"/>
</radialGradient>
<linearGradient id="paint8_linear_113_3681" x1="27.0116" y1="10.0922" x2="50.8622" y2="15.1539" gradientUnits="userSpaceOnUse">
<stop stop-color="#F1F1F1"/>
<stop offset="1" stop-color="#E1E1E1"/>
</linearGradient>
</defs>
</svg>
