<svg width="169" height="83" viewBox="0 0 169 83" fill="none" xmlns="http://www.w3.org/2000/svg">
<g filter="url(#filter0_d_113_3680)">
<rect x="21.7874" y="22" width="120.098" height="32.968" rx="5.09434" fill="white"/>
<rect x="21.7874" y="22" width="120.098" height="32.968" rx="5.09434" stroke="url(#paint0_linear_113_3680)" stroke-opacity="0.3" stroke-width="1.02168"/>
</g>
<g filter="url(#filter1_di_113_3680)">
<path d="M47.8511 26.4837C49.2238 25.7066 50.9068 25.7208 52.2661 26.521L59.2871 30.6543C60.6465 31.4545 61.4756 32.9191 61.4623 34.4965L61.3933 42.6435C61.38 44.2208 60.5261 45.6712 59.1534 46.4483L52.0634 50.4621C50.6908 51.2392 49.0078 51.2249 47.6484 50.4247L40.6274 46.2915C39.2681 45.4912 38.4389 44.0266 38.4523 42.4493L38.5212 34.3023C38.5346 32.7249 39.3884 31.2745 40.7611 30.4974L47.8511 26.4837Z" fill="url(#paint1_linear_113_3680)"/>
<path d="M47.4837 25.8339C49.0883 24.9257 51.0557 24.9423 52.6447 25.8776L59.6656 30.0114L59.956 30.1955C61.372 31.1612 62.2234 32.774 62.2087 34.5028L62.1398 42.65C62.1251 44.3787 61.2466 45.977 59.8145 46.9185L59.521 47.0977L52.4311 51.1111C50.9267 51.9627 49.1038 52.0013 47.5724 51.2321L47.2701 51.0674L40.2492 46.9346C38.6601 45.9991 37.6905 44.287 37.7061 42.4431L37.775 34.296C37.7906 32.452 38.7891 30.7567 40.3938 29.8483L47.4837 25.8339Z" stroke="url(#paint2_linear_113_3680)" stroke-width="1.49267"/>
</g>
<path d="M47.8505 26.4837C49.2232 25.7066 50.9062 25.7208 52.2656 26.521L59.2866 30.6543C60.6459 31.4545 61.4751 32.9191 61.4617 34.4965L61.3928 42.6435C61.3794 44.2208 60.5256 45.6712 59.1529 46.4483L52.0629 50.4621C50.6902 51.2392 49.0072 51.2249 47.6479 50.4247L40.6269 46.2915C39.2675 45.4912 38.4384 44.0266 38.4517 42.4493L38.5207 34.3023C38.534 32.7249 39.3879 31.2745 40.7605 30.4974L47.8505 26.4837Z" fill="url(#paint3_linear_113_3680)"/>
<path d="M47.6641 27.3707C49.1325 26.5403 50.9305 26.5475 52.3922 27.3898L58.7791 31.0704C59.5967 31.5415 59.6063 32.718 58.7965 33.2024L52.2156 37.1392C50.8129 37.9783 49.0571 37.9554 47.6768 37.0799L41.3202 33.0482C40.5317 32.548 40.561 31.3878 41.3738 30.9281L47.6641 27.3707Z" fill="url(#paint4_linear_113_3680)"/>
<path d="M49.4913 41.7587C49.5045 40.1033 48.6582 38.5594 47.2555 37.6802L41.2978 33.9459C40.4928 33.4413 39.4432 33.9956 39.4059 34.9449L39.1179 42.2915C39.0541 43.9183 39.9088 45.4432 41.3299 46.2377L47.5964 49.7413C48.4166 50.1999 49.4284 49.6118 49.4359 48.6721L49.4913 41.7587Z" fill="url(#paint5_linear_113_3680)"/>
<g filter="url(#filter2_i_113_3680)">
<ellipse cx="55.9775" cy="41.8353" rx="2.25173" ry="2.69325" transform="rotate(10.2543 55.9775 41.8353)" fill="#C4B295" style="mix-blend-mode:multiply"/>
</g>
<g filter="url(#filter3_i_113_3680)">
<path d="M47.426 45.1424C48.3744 45.4371 48.905 46.4447 48.6104 47.393C48.3158 48.3415 47.3074 48.8718 46.3589 48.5772C45.4105 48.2825 44.8811 47.2743 45.1757 46.3259C45.4705 45.3776 46.4777 44.8479 47.426 45.1424ZM44.9539 40.4404C45.9022 40.7352 46.4318 41.7433 46.1371 42.6917C45.8423 43.6398 44.8351 44.1696 43.8868 43.8751C42.9385 43.5805 42.408 42.5729 42.7024 41.6245C42.9971 40.6761 44.0055 40.1457 44.9539 40.4404ZM42.5616 36.0147C43.5099 36.3094 44.0404 37.317 43.746 38.2653C43.4514 39.2138 42.443 39.7441 41.4945 39.4495C40.5463 39.1546 40.0167 38.1465 40.3113 37.1982C40.6061 36.2502 41.6134 35.7204 42.5616 36.0147Z" fill="#C4B295" style="mix-blend-mode:multiply"/>
</g>
<g filter="url(#filter4_i_113_3680)">
<path d="M54.5714 31.4017C55.9458 31.4134 57.0532 32.1848 57.0452 33.1239C57.0371 34.0629 55.9168 34.8146 54.5426 34.803C53.1685 34.7913 52.0611 34.0207 52.0688 33.0818C52.0768 32.1427 53.1972 31.3902 54.5714 31.4017ZM45.5473 29.252C46.9217 29.2637 48.0302 30.016 48.0224 30.9322C48.0146 31.8484 46.8935 32.5819 45.5192 32.5703C44.1451 32.5585 43.0375 31.8062 43.0451 30.8901C43.0528 29.9739 44.1731 29.2405 45.5473 29.252Z" fill="#C4B295" style="mix-blend-mode:multiply"/>
</g>
<path d="M59.5477 33.708L51.8889 38.1935V39.6862L59.5227 35.1828C59.6758 35.0925 59.869 35.2029 59.869 35.3806V45.1976L61.1033 44.1929V34.5997C61.1033 33.8014 60.2366 33.3046 59.5477 33.708Z" fill="url(#paint6_radial_113_3680)"/>
<path d="M71.5301 41.484V35.3967H72.6958V37.9093H75.761V35.3967H76.918V41.484H75.761V38.8937H72.6958V41.484H71.5301ZM78.6963 36.3206V35.1808H80.0087V36.3206H78.6963ZM78.7913 41.484V37.1927H79.9396V41.484H78.7913ZM83.6388 43.1246C83.2819 43.1246 82.9307 43.0785 82.5854 42.9864C82.2457 42.9001 81.9522 42.7705 81.7046 42.5979L82.0155 41.743C82.1709 41.8409 82.335 41.9244 82.5077 41.9934C82.6861 42.0625 82.8674 42.1143 83.0516 42.1489C83.2358 42.1892 83.4143 42.2093 83.587 42.2093C84.0129 42.2093 84.3353 42.1143 84.554 41.9244C84.7785 41.7344 84.8908 41.4495 84.8908 41.0696V40.422C84.7814 40.6925 84.5943 40.9141 84.3295 41.0868C84.0705 41.2538 83.7712 41.3372 83.4315 41.3372C83.0344 41.3372 82.6861 41.2509 82.3868 41.0782C82.0932 40.8997 81.8629 40.6522 81.696 40.3356C81.5348 40.0133 81.4542 39.642 81.4542 39.2218C81.4542 38.7958 81.5348 38.4245 81.696 38.1079C81.8629 37.7913 82.0932 37.5467 82.3868 37.374C82.6861 37.1955 83.0344 37.1063 83.4315 37.1063C83.7769 37.1063 84.0791 37.1927 84.3382 37.3654C84.603 37.5323 84.7872 37.7568 84.8908 38.0389V37.1927H85.9701V40.9746C85.9701 41.4236 85.878 41.8092 85.6938 42.1316C85.5096 42.4539 85.2448 42.6986 84.8994 42.8655C84.554 43.0382 84.1338 43.1246 83.6388 43.1246ZM83.7165 40.4565C84.0676 40.4565 84.3439 40.3443 84.5454 40.1198C84.7469 39.8953 84.8476 39.5931 84.8476 39.2131C84.8476 38.839 84.7469 38.5425 84.5454 38.3238C84.3439 38.0993 84.0676 37.987 83.7165 37.987C83.3711 37.987 83.0948 38.0993 82.8876 38.3238C82.6861 38.5425 82.5854 38.839 82.5854 39.2131C82.5854 39.5931 82.6861 39.8953 82.8876 40.1198C83.0948 40.3443 83.3711 40.4565 83.7165 40.4565ZM87.7287 41.484V35.3967H88.8253V38.0216H88.808C88.9404 37.7395 89.139 37.5179 89.4038 37.3567C89.6743 37.1898 89.9794 37.1063 90.319 37.1063C90.6644 37.1063 90.9551 37.1725 91.1911 37.3049C91.4271 37.4373 91.6027 37.6388 91.7178 37.9093C91.8387 38.1741 91.8991 38.5137 91.8991 38.9282V41.484H90.7594V38.98C90.7594 38.7728 90.7306 38.6001 90.673 38.4619C90.6155 38.3238 90.5263 38.2202 90.4054 38.1511C90.2902 38.0763 90.1406 38.0389 89.9564 38.0389C89.7492 38.0389 89.5621 38.0878 89.3951 38.1856C89.234 38.2777 89.1073 38.4073 89.0152 38.5742C88.9231 38.7354 88.8771 38.9224 88.8771 39.1354V41.484H87.7287ZM96.7027 41.484V35.3967H99.4139C100.105 35.3967 100.634 35.555 101.003 35.8716C101.371 36.1824 101.555 36.6286 101.555 37.2099C101.555 37.5496 101.486 37.8403 101.348 38.082C101.21 38.3238 101.017 38.5166 100.77 38.6605C100.522 38.7987 100.234 38.885 99.9061 38.9196L99.9406 38.8937L100.096 38.9109C100.251 38.934 100.392 38.9973 100.519 39.1009C100.646 39.1987 100.767 39.3513 100.882 39.5585L101.909 41.484H100.64L99.6384 39.6103C99.5693 39.4779 99.4916 39.3772 99.4053 39.3081C99.3247 39.2333 99.2297 39.1815 99.1203 39.1527C99.011 39.1239 98.8815 39.1095 98.7318 39.1095H97.8683V41.484H96.7027ZM97.8683 38.2115H99.2758C99.6614 38.2115 99.9464 38.1338 100.131 37.9784C100.321 37.8172 100.416 37.5783 100.416 37.2617C100.416 36.9509 100.321 36.7207 100.131 36.571C99.9406 36.4156 99.6499 36.3379 99.2585 36.3379H97.8683V38.2115ZM105.183 41.5704C104.723 41.5704 104.322 41.4783 103.983 41.2941C103.649 41.1098 103.39 40.8508 103.206 40.5169C103.027 40.1773 102.938 39.783 102.938 39.334C102.938 38.885 103.027 38.4936 103.206 38.1597C103.39 37.8259 103.649 37.5668 103.983 37.3826C104.322 37.1984 104.723 37.1063 105.183 37.1063C105.638 37.1063 106.032 37.1984 106.366 37.3826C106.706 37.5668 106.965 37.8259 107.143 38.1597C107.327 38.4936 107.419 38.885 107.419 39.334C107.419 39.783 107.327 40.1773 107.143 40.5169C106.965 40.8508 106.706 41.1098 106.366 41.2941C106.032 41.4783 105.638 41.5704 105.183 41.5704ZM105.174 40.6465C105.526 40.6465 105.799 40.5313 105.995 40.3011C106.196 40.0708 106.297 39.7456 106.297 39.3254C106.297 38.9109 106.196 38.5915 105.995 38.367C105.799 38.1425 105.528 38.0302 105.183 38.0302C104.832 38.0302 104.556 38.1425 104.354 38.367C104.158 38.5915 104.061 38.9109 104.061 39.3254C104.061 39.7456 104.161 40.0708 104.363 40.3011C104.564 40.5313 104.835 40.6465 105.174 40.6465ZM110.428 41.5704C109.939 41.5704 109.567 41.438 109.314 41.1732C109.066 40.9084 108.943 40.5256 108.943 40.0248V35.3967H110.091V39.9471C110.091 40.1025 110.111 40.2349 110.152 40.3443C110.198 40.4479 110.264 40.5285 110.35 40.586C110.436 40.6378 110.546 40.6637 110.678 40.6637C110.753 40.6637 110.825 40.6609 110.894 40.6551C110.969 40.6436 111.047 40.6292 111.127 40.6119L111.17 41.4581C111.049 41.4984 110.931 41.5272 110.816 41.5445C110.701 41.5617 110.572 41.5704 110.428 41.5704ZM113.838 41.5704C113.349 41.5704 112.978 41.438 112.724 41.1732C112.477 40.9084 112.353 40.5256 112.353 40.0248V35.3967H113.502V39.9471C113.502 40.1025 113.522 40.2349 113.562 40.3443C113.608 40.4479 113.674 40.5285 113.761 40.586C113.847 40.6378 113.956 40.6637 114.089 40.6637C114.164 40.6637 114.235 40.6609 114.305 40.6551C114.379 40.6436 114.457 40.6292 114.538 40.6119L114.581 41.4581C114.46 41.4984 114.342 41.5272 114.227 41.5445C114.112 41.5617 113.982 41.5704 113.838 41.5704ZM117.949 41.5704C117.425 41.5704 116.979 41.4811 116.611 41.3027C116.242 41.1185 115.963 40.8594 115.773 40.5256C115.583 40.1917 115.488 39.7974 115.488 39.3427C115.488 38.9109 115.578 38.5281 115.756 38.1943C115.94 37.8546 116.199 37.5899 116.533 37.3999C116.867 37.2042 117.258 37.1063 117.707 37.1063C118.128 37.1063 118.49 37.1955 118.795 37.374C119.106 37.5524 119.345 37.8057 119.512 38.1338C119.679 38.4619 119.762 38.8562 119.762 39.3168V39.6535H116.395V38.9627H118.942L118.804 39.1095C118.804 38.7123 118.709 38.4159 118.519 38.2202C118.335 38.0187 118.073 37.918 117.733 37.918C117.497 37.918 117.29 37.9698 117.112 38.0734C116.939 38.1712 116.804 38.3152 116.706 38.5051C116.608 38.6951 116.559 38.9311 116.559 39.2131V39.3168C116.559 39.6334 116.614 39.8924 116.723 40.0939C116.832 40.2896 116.991 40.4364 117.198 40.5342C117.411 40.6321 117.673 40.681 117.984 40.681C118.214 40.681 118.447 40.6522 118.683 40.5947C118.925 40.5313 119.144 40.4277 119.339 40.2838L119.659 41.0609C119.434 41.2336 119.167 41.3631 118.856 41.4495C118.551 41.5301 118.249 41.5704 117.949 41.5704ZM121.257 41.484V37.1927H122.284V38.2461C122.376 37.9122 122.543 37.6503 122.785 37.4603C123.027 37.2646 123.335 37.1524 123.709 37.1236L124.158 37.0977L124.253 38.1252L123.502 38.1856C123.145 38.2202 122.872 38.3353 122.682 38.531C122.497 38.7267 122.405 38.98 122.405 39.2909V41.484H121.257ZM127.126 41.5704C126.873 41.5704 126.626 41.5502 126.384 41.5099C126.148 41.4754 125.932 41.4236 125.736 41.3545C125.541 41.2797 125.371 41.1876 125.227 41.0782L125.52 40.3011C125.67 40.3932 125.831 40.4738 126.004 40.5429C126.182 40.6062 126.364 40.6522 126.548 40.681C126.738 40.7098 126.919 40.7242 127.092 40.7242C127.403 40.7242 127.636 40.6868 127.791 40.6119C127.952 40.5313 128.033 40.4133 128.033 40.2579C128.033 40.1255 127.987 40.0277 127.895 39.9643C127.803 39.901 127.656 39.8521 127.455 39.8176L126.522 39.6794C126.119 39.6161 125.817 39.4779 125.615 39.2649C125.414 39.0462 125.313 38.7814 125.313 38.4706C125.313 38.2 125.388 37.964 125.538 37.7625C125.687 37.5553 125.906 37.3941 126.194 37.279C126.482 37.1639 126.833 37.1063 127.247 37.1063C127.46 37.1063 127.67 37.1265 127.878 37.1668C128.091 37.2013 128.289 37.256 128.473 37.3308C128.658 37.3999 128.81 37.4862 128.931 37.5899L128.612 38.367C128.496 38.2749 128.361 38.2 128.206 38.1425C128.056 38.0791 127.898 38.0331 127.731 38.0043C127.564 37.9698 127.403 37.9525 127.247 37.9525C126.942 37.9525 126.712 37.9957 126.557 38.082C126.407 38.1626 126.332 38.2806 126.332 38.436C126.332 38.5569 126.375 38.6519 126.462 38.721C126.548 38.7843 126.686 38.8303 126.876 38.8591L127.783 39.0145C128.214 39.0836 128.534 39.2189 128.741 39.4204C128.948 39.6218 129.052 39.8895 129.052 40.2234C129.052 40.4997 128.971 40.7386 128.81 40.94C128.655 41.1415 128.433 41.2969 128.145 41.4063C127.857 41.5157 127.518 41.5704 127.126 41.5704Z" fill="#202224"/>
<mask id="mask0_113_3680" style="mask-type:alpha" maskUnits="userSpaceOnUse" x="21" y="21" width="24" height="35">
<path d="M21.7874 27.0943C21.7874 24.2808 24.0682 22 26.8818 22H33.9611C39.3762 22 43.7661 26.3899 43.7661 31.805V45.163C43.7661 50.5782 39.3762 54.968 33.9611 54.968H26.8818C24.0682 54.968 21.7874 52.6872 21.7874 49.8737V27.0943Z" fill="white" stroke="url(#paint7_linear_113_3680)" stroke-opacity="0.3" stroke-width="1.02168"/>
</mask>
<g mask="url(#mask0_113_3680)">
<rect x="21.0025" y="21.366" width="10.9893" height="34.236" fill="#96DE84"/>
</g>
<defs>
<filter id="filter0_d_113_3680" x="0.0421066" y="0.254667" width="168.897" height="81.7673" filterUnits="userSpaceOnUse" color-interpolation-filters="sRGB">
<feFlood flood-opacity="0" result="BackgroundImageFix"/>
<feColorMatrix in="SourceAlpha" type="matrix" values="0 0 0 0 0 0 0 0 0 0 0 0 0 0 0 0 0 0 127 0" result="hardAlpha"/>
<feOffset dx="2.65431" dy="2.65431"/>
<feGaussianBlur stdDeviation="11.9444"/>
<feColorMatrix type="matrix" values="0 0 0 0 0 0 0 0 0 0 0 0 0 0 0 0 0 0 0.05 0"/>
<feBlend mode="normal" in2="BackgroundImageFix" result="effect1_dropShadow_113_3680"/>
<feBlend mode="normal" in="SourceGraphic" in2="effect1_dropShadow_113_3680" result="shape"/>
</filter>
<filter id="filter1_di_113_3680" x="36.9594" y="24.418" width="25.9957" height="29.0282" filterUnits="userSpaceOnUse" color-interpolation-filters="sRGB">
<feFlood flood-opacity="0" result="BackgroundImageFix"/>
<feColorMatrix in="SourceAlpha" type="matrix" values="0 0 0 0 0 0 0 0 0 0 0 0 0 0 0 0 0 0 127 0" result="hardAlpha"/>
<feOffset dy="0.918566"/>
<feComposite in2="hardAlpha" operator="out"/>
<feColorMatrix type="matrix" values="0 0 0 0 0 0 0 0 0 0.137255 0 0 0 0 0.203922 0 0 0 1 0"/>
<feBlend mode="normal" in2="BackgroundImageFix" result="effect1_dropShadow_113_3680"/>
<feBlend mode="normal" in="SourceGraphic" in2="effect1_dropShadow_113_3680" result="shape"/>
<feColorMatrix in="SourceAlpha" type="matrix" values="0 0 0 0 0 0 0 0 0 0 0 0 0 0 0 0 0 0 127 0" result="hardAlpha"/>
<feOffset dy="1.61857"/>
<feComposite in2="hardAlpha" operator="arithmetic" k2="-1" k3="1"/>
<feColorMatrix type="matrix" values="0 0 0 0 1 0 0 0 0 1 0 0 0 0 1 0 0 0 0.55 0"/>
<feBlend mode="normal" in2="shape" result="effect2_innerShadow_113_3680"/>
</filter>
<filter id="filter2_i_113_3680" x="53.71" y="39.1545" width="4.53504" height="5.36145" filterUnits="userSpaceOnUse" color-interpolation-filters="sRGB">
<feFlood flood-opacity="0" result="BackgroundImageFix"/>
<feBlend mode="normal" in="SourceGraphic" in2="BackgroundImageFix" result="shape"/>
<feColorMatrix in="SourceAlpha" type="matrix" values="0 0 0 0 0 0 0 0 0 0 0 0 0 0 0 0 0 0 127 0" result="hardAlpha"/>
<feOffset dy="0.353213"/>
<feComposite in2="hardAlpha" operator="arithmetic" k2="-1" k3="1"/>
<feColorMatrix type="matrix" values="0 0 0 0 0 0 0 0 0 0 0 0 0 0 0 0 0 0 0.15 0"/>
<feBlend mode="normal" in2="shape" result="effect1_innerShadow_113_3680"/>
</filter>
<filter id="filter3_i_113_3680" x="40.2299" y="35.9334" width="8.46192" height="12.7252" filterUnits="userSpaceOnUse" color-interpolation-filters="sRGB">
<feFlood flood-opacity="0" result="BackgroundImageFix"/>
<feBlend mode="normal" in="SourceGraphic" in2="BackgroundImageFix" result="shape"/>
<feColorMatrix in="SourceAlpha" type="matrix" values="0 0 0 0 0 0 0 0 0 0 0 0 0 0 0 0 0 0 127 0" result="hardAlpha"/>
<feOffset dy="0.353213"/>
<feComposite in2="hardAlpha" operator="arithmetic" k2="-1" k3="1"/>
<feColorMatrix type="matrix" values="0 0 0 0 0 0 0 0 0 0 0 0 0 0 0 0 0 0 0.15 0"/>
<feBlend mode="normal" in2="shape" result="effect1_innerShadow_113_3680"/>
</filter>
<filter id="filter4_i_113_3680" x="43.045" y="29.2519" width="14.0002" height="5.55121" filterUnits="userSpaceOnUse" color-interpolation-filters="sRGB">
<feFlood flood-opacity="0" result="BackgroundImageFix"/>
<feBlend mode="normal" in="SourceGraphic" in2="BackgroundImageFix" result="shape"/>
<feColorMatrix in="SourceAlpha" type="matrix" values="0 0 0 0 0 0 0 0 0 0 0 0 0 0 0 0 0 0 127 0" result="hardAlpha"/>
<feOffset dy="0.353213"/>
<feComposite in2="hardAlpha" operator="arithmetic" k2="-1" k3="1"/>
<feColorMatrix type="matrix" values="0 0 0 0 0 0 0 0 0 0 0 0 0 0 0 0 0 0 0.15 0"/>
<feBlend mode="normal" in2="shape" result="effect1_innerShadow_113_3680"/>
</filter>
<linearGradient id="paint0_linear_113_3680" x1="49.1723" y1="10.0922" x2="107.256" y2="77.4501" gradientUnits="userSpaceOnUse">
<stop stop-color="#F1F1F1"/>
<stop offset="1" stop-color="#E1E1E1"/>
</linearGradient>
<linearGradient id="paint1_linear_113_3680" x1="50.0694" y1="25.2278" x2="51.1229" y2="59.155" gradientUnits="userSpaceOnUse">
<stop offset="0.149706" stop-color="#FFB1F3"/>
<stop offset="1" stop-color="#A101ED"/>
</linearGradient>
<linearGradient id="paint2_linear_113_3680" x1="50.0694" y1="25.2278" x2="49.8452" y2="51.7179" gradientUnits="userSpaceOnUse">
<stop offset="0.270331" stop-color="#017772"/>
<stop offset="0.851711" stop-color="#014E5F"/>
</linearGradient>
<linearGradient id="paint3_linear_113_3680" x1="52.4313" y1="29.683" x2="38.5716" y2="48.6522" gradientUnits="userSpaceOnUse">
<stop stop-color="#F1FBE0"/>
<stop offset="0.177083" stop-color="#C6E314"/>
<stop offset="0.375971" stop-color="#DFE314"/>
<stop offset="1" stop-color="#A6861F"/>
</linearGradient>
<linearGradient id="paint4_linear_113_3680" x1="50.4417" y1="39.0734" x2="48.5555" y2="27.2703" gradientUnits="userSpaceOnUse">
<stop stop-color="#96E415"/>
<stop offset="1" stop-color="#F1FBE0"/>
</linearGradient>
<linearGradient id="paint5_linear_113_3680" x1="51.3211" y1="38.9705" x2="46.8963" y2="49.8003" gradientUnits="userSpaceOnUse">
<stop stop-color="#CABA39"/>
<stop offset="0.978825" stop-color="#DCD00F"/>
</linearGradient>
<radialGradient id="paint6_radial_113_3680" cx="0" cy="0" r="1" gradientUnits="userSpaceOnUse" gradientTransform="translate(60.6153 33.5433) rotate(120.329) scale(9.77748 7.5313)">
<stop stop-color="#F1FBE0"/>
<stop offset="1" stop-color="#F1FBE0" stop-opacity="0"/>
</radialGradient>
<linearGradient id="paint7_linear_113_3680" x1="26.799" y1="10.0922" x2="50.6496" y2="15.1539" gradientUnits="userSpaceOnUse">
<stop stop-color="#F1F1F1"/>
<stop offset="1" stop-color="#E1E1E1"/>
</linearGradient>
</defs>
</svg>
