<svg width="170" height="83" viewBox="0 0 170 83" fill="none" xmlns="http://www.w3.org/2000/svg">
<g filter="url(#filter0_d_113_3675)">
<rect x="22.1304" y="22" width="120.098" height="32.968" rx="5.09434" fill="white"/>
<rect x="22.1304" y="22" width="120.098" height="32.968" rx="5.09434" stroke="url(#paint0_linear_113_3675)" stroke-opacity="0.3" stroke-width="1.02168"/>
</g>
<g filter="url(#filter1_d_113_3675)">
<mask id="path-3-outside-1_113_3675" maskUnits="userSpaceOnUse" x="38.8383" y="25.7217" width="15" height="20" fill="black">
<rect fill="white" x="38.8383" y="25.7217" width="15" height="20"/>
<path fill-rule="evenodd" clip-rule="evenodd" d="M48.484 29.4608C48.311 28.4729 47.449 27.7221 46.4115 27.722L46.7209 27.9816C46.6206 27.963 46.5171 27.9533 46.4114 27.9533C45.4792 27.9533 44.7234 28.709 44.7234 29.6412C44.7234 30.5735 45.4792 31.3292 46.4114 31.3292C47.3436 31.3292 48.0994 30.5735 48.0994 29.6412C48.0994 29.4326 48.0615 29.2327 47.9922 29.0482L48.484 29.4608ZM46.4111 27.7217L46.4114 27.722C46.0682 27.722 45.7441 27.8042 45.4578 27.95C45.7438 27.8041 46.0677 27.7217 46.4111 27.7217ZM41.1894 40.4814C41.3512 40.9129 41.9099 40.9463 42.1875 40.5785L47.1941 33.9438C47.4718 33.5757 47.2886 33.0481 46.8289 33.0114C46.622 32.9948 46.4196 33.0927 46.2946 33.2584L41.2812 39.9021C41.1561 40.0679 41.1165 40.287 41.1894 40.4814ZM43.9667 33.5454C44.5661 33.2549 44.9992 33.9321 44.5979 34.4638L41.4008 38.7006C41.2144 38.9477 40.8383 38.8454 40.8383 38.5358C40.8383 38.2903 40.8543 38.0486 40.8852 37.8115C40.9191 37.5521 41.0325 37.3113 41.1901 37.1024L43.7156 33.7557C43.7828 33.6666 43.8662 33.5941 43.9667 33.5454ZM43.168 42.1996C42.9491 42.4897 42.5279 42.5364 42.2831 42.2678C42.0928 42.059 42.0943 41.745 42.2645 41.5196L48.1213 33.7582C48.2915 33.5326 48.5948 33.4456 48.8478 33.5715C49.1731 33.7335 49.2419 34.1506 49.023 34.4406L43.168 42.1996ZM43.8265 43.4558C44.0805 43.5879 44.3889 43.502 44.5614 43.2735L50.4369 35.4873C50.6092 35.259 50.6082 34.9403 50.4118 34.7323C50.1652 34.471 49.7499 34.5203 49.5335 34.8072L43.6595 42.5912C43.4431 42.878 43.5078 43.29 43.8265 43.4558ZM46.3644 43.8045C46.2371 43.9732 46.0299 44.0712 45.8195 44.0501C45.3665 44.0045 45.1905 43.4828 45.4648 43.1193L50.5375 36.397C50.8115 36.0339 51.3624 36.0618 51.5309 36.4845C51.6093 36.681 51.571 36.9048 51.4436 37.0737L46.3644 43.8045ZM48.6081 43.6123C48.7164 43.5647 48.8062 43.4892 48.8774 43.3948L51.587 39.8041C51.7572 39.5786 51.8757 39.3157 51.9008 39.0343C51.9155 38.8701 51.9229 38.7038 51.9229 38.5358C51.9229 38.1749 51.4862 38.0603 51.2688 38.3483L47.9925 42.6901C47.6035 43.2056 48.0169 43.8721 48.6081 43.6123Z"/>
</mask>
<path fill-rule="evenodd" clip-rule="evenodd" d="M48.484 29.4608C48.311 28.4729 47.449 27.7221 46.4115 27.722L46.7209 27.9816C46.6206 27.963 46.5171 27.9533 46.4114 27.9533C45.4792 27.9533 44.7234 28.709 44.7234 29.6412C44.7234 30.5735 45.4792 31.3292 46.4114 31.3292C47.3436 31.3292 48.0994 30.5735 48.0994 29.6412C48.0994 29.4326 48.0615 29.2327 47.9922 29.0482L48.484 29.4608ZM46.4111 27.7217L46.4114 27.722C46.0682 27.722 45.7441 27.8042 45.4578 27.95C45.7438 27.8041 46.0677 27.7217 46.4111 27.7217ZM41.1894 40.4814C41.3512 40.9129 41.9099 40.9463 42.1875 40.5785L47.1941 33.9438C47.4718 33.5757 47.2886 33.0481 46.8289 33.0114C46.622 32.9948 46.4196 33.0927 46.2946 33.2584L41.2812 39.9021C41.1561 40.0679 41.1165 40.287 41.1894 40.4814ZM43.9667 33.5454C44.5661 33.2549 44.9992 33.9321 44.5979 34.4638L41.4008 38.7006C41.2144 38.9477 40.8383 38.8454 40.8383 38.5358C40.8383 38.2903 40.8543 38.0486 40.8852 37.8115C40.9191 37.5521 41.0325 37.3113 41.1901 37.1024L43.7156 33.7557C43.7828 33.6666 43.8662 33.5941 43.9667 33.5454ZM43.168 42.1996C42.9491 42.4897 42.5279 42.5364 42.2831 42.2678C42.0928 42.059 42.0943 41.745 42.2645 41.5196L48.1213 33.7582C48.2915 33.5326 48.5948 33.4456 48.8478 33.5715C49.1731 33.7335 49.2419 34.1506 49.023 34.4406L43.168 42.1996ZM43.8265 43.4558C44.0805 43.5879 44.3889 43.502 44.5614 43.2735L50.4369 35.4873C50.6092 35.259 50.6082 34.9403 50.4118 34.7323C50.1652 34.471 49.7499 34.5203 49.5335 34.8072L43.6595 42.5912C43.4431 42.878 43.5078 43.29 43.8265 43.4558ZM46.3644 43.8045C46.2371 43.9732 46.0299 44.0712 45.8195 44.0501C45.3665 44.0045 45.1905 43.4828 45.4648 43.1193L50.5375 36.397C50.8115 36.0339 51.3624 36.0618 51.5309 36.4845C51.6093 36.681 51.571 36.9048 51.4436 37.0737L46.3644 43.8045ZM48.6081 43.6123C48.7164 43.5647 48.8062 43.4892 48.8774 43.3948L51.587 39.8041C51.7572 39.5786 51.8757 39.3157 51.9008 39.0343C51.9155 38.8701 51.9229 38.7038 51.9229 38.5358C51.9229 38.1749 51.4862 38.0603 51.2688 38.3483L47.9925 42.6901C47.6035 43.2056 48.0169 43.8721 48.6081 43.6123Z" fill="black"/>
<path d="M46.4111 27.7217L46.084 28.1114L46.0844 28.1117L46.4115 27.722L46.7386 27.3323L46.7381 27.332L46.4111 27.7217ZM46.4115 27.722L46.4116 26.7045L43.6154 26.7044L45.7575 28.5016L46.4115 27.722ZM48.484 29.4608L47.8301 30.2403L49.9676 32.0337L49.4863 29.2853L48.484 29.4608ZM46.7209 27.9816L46.5355 28.9821L50.336 29.6863L47.3749 27.2021L46.7209 27.9816ZM47.9922 29.0482L48.6462 28.2687L45.6783 25.7787L47.0396 29.4057L47.9922 29.0482ZM46.4114 27.722V28.7396H48.7834L47.1487 27.0208L46.4114 27.722ZM46.4111 27.7217L47.1484 27.0204L46.8475 26.7041L46.4109 26.7042L46.4111 27.7217ZM45.4578 27.95L44.9953 27.0437L45.9196 28.8567L45.4578 27.95ZM42.1875 40.5785L41.3753 39.9656L41.3753 39.9656L42.1875 40.5785ZM41.1894 40.4814L42.1422 40.1242L42.1422 40.1242L41.1894 40.4814ZM47.1941 33.9438L48.0063 34.5567L48.0063 34.5567L47.1941 33.9438ZM46.8289 33.0114L46.9101 31.9971L46.9101 31.9971L46.8289 33.0114ZM46.2946 33.2584L47.1068 33.8713L47.1068 33.8713L46.2946 33.2584ZM41.2812 39.9021L42.0934 40.515L42.0934 40.515L41.2812 39.9021ZM44.5979 34.4638L43.7857 33.8509L43.7857 33.8509L44.5979 34.4638ZM43.9667 33.5454L44.4104 34.4611L44.4104 34.4611L43.9667 33.5454ZM41.4008 38.7006L40.5886 38.0877L40.5886 38.0877L41.4008 38.7006ZM40.8852 37.8115L39.8762 37.6798L39.8762 37.6798L40.8852 37.8115ZM41.1901 37.1024L40.3779 36.4895L40.3779 36.4895L41.1901 37.1024ZM43.7156 33.7557L44.5278 34.3686L44.5278 34.3686L43.7156 33.7557ZM42.2831 42.2678L43.0352 41.5824L43.0352 41.5824L42.2831 42.2678ZM43.168 42.1996L42.3558 41.5867L42.3558 41.5867L43.168 42.1996ZM42.2645 41.5196L41.4523 40.9067L41.4523 40.9067L42.2645 41.5196ZM48.1213 33.7582L48.9335 34.3711L48.9335 34.3711L48.1213 33.7582ZM48.8478 33.5715L49.3013 32.6607L49.3013 32.6607L48.8478 33.5715ZM49.023 34.4406L48.2108 33.8277L48.2108 33.8277L49.023 34.4406ZM44.5614 43.2735L45.3736 43.8864L45.3736 43.8864L44.5614 43.2735ZM43.8265 43.4558L43.3569 44.3585L43.3569 44.3585L43.8265 43.4558ZM50.4369 35.4873L51.2491 36.1002L51.2491 36.1002L50.4369 35.4873ZM50.4118 34.7323L51.1518 34.0338L51.1518 34.0338L50.4118 34.7323ZM49.5335 34.8072L48.7212 34.1943L48.7212 34.1943L49.5335 34.8072ZM43.6595 42.5912L42.8473 41.9783L42.8473 41.9783L43.6595 42.5912ZM45.8195 44.0501L45.7178 45.0625L45.7178 45.0625L45.8195 44.0501ZM46.3644 43.8045L47.1767 44.4174L47.1767 44.4174L46.3644 43.8045ZM45.4648 43.1193L44.6526 42.5064L44.6526 42.5064L45.4648 43.1193ZM50.5375 36.397L51.3497 37.0099L51.3497 37.0099L50.5375 36.397ZM51.5309 36.4845L50.5857 36.8613L50.5857 36.8613L51.5309 36.4845ZM51.4436 37.0737L52.2558 37.6866L52.2558 37.6866L51.4436 37.0737ZM48.8774 43.3948L48.0652 42.7819L48.0652 42.7819L48.8774 43.3948ZM48.6081 43.6123L48.1988 42.6807L48.1988 42.6807L48.6081 43.6123ZM51.587 39.8041L52.3992 40.417L52.3992 40.417L51.587 39.8041ZM51.9008 39.0343L50.8873 38.944L50.8873 38.944L51.9008 39.0343ZM51.2688 38.3483L50.4566 37.7354L50.4566 37.7354L51.2688 38.3483ZM47.9925 42.6901L48.8047 43.303L47.9925 42.6901ZM46.4115 27.722L46.4115 28.7396C46.9462 28.7396 47.3926 29.1268 47.4818 29.6363L48.484 29.4608L49.4863 29.2853C49.2295 27.819 47.9517 26.7046 46.4116 26.7045L46.4115 27.722ZM46.7209 27.9816L47.3749 27.2021L47.0655 26.9425L46.4115 27.722L45.7575 28.5016L46.0669 28.7611L46.7209 27.9816ZM46.4114 27.9533V28.9708C46.4546 28.9708 46.496 28.9748 46.5355 28.9821L46.7209 27.9816L46.9063 26.9811C46.7451 26.9512 46.5796 26.9358 46.4114 26.9358V27.9533ZM44.7234 29.6412H45.7409C45.7409 29.271 46.0411 28.9708 46.4114 28.9708V27.9533V26.9358C44.9172 26.9358 43.7059 28.147 43.7059 29.6412H44.7234ZM46.4114 31.3292V30.3117C46.0411 30.3117 45.7409 30.0115 45.7409 29.6412H44.7234H43.7059C43.7059 31.1354 44.9172 32.3467 46.4114 32.3467V31.3292ZM48.0994 29.6412H47.0818C47.0818 30.0115 46.7817 30.3117 46.4114 30.3117V31.3292V32.3467C47.9056 32.3467 49.1169 31.1354 49.1169 29.6412H48.0994ZM47.9922 29.0482L47.0396 29.4057C47.0666 29.4777 47.0818 29.5565 47.0818 29.6412H48.0994H49.1169C49.1169 29.3086 49.0564 28.9877 48.9449 28.6907L47.9922 29.0482ZM48.484 29.4608L49.138 28.6813L48.6462 28.2687L47.9922 29.0482L47.3383 29.8277L47.8301 30.2403L48.484 29.4608ZM46.4114 27.722L47.1487 27.0208L47.1484 27.0204L46.4111 27.7217L45.6738 28.4229L45.6741 28.4233L46.4114 27.722ZM45.4578 27.95L45.9196 28.8567C46.0661 28.7821 46.2323 28.7396 46.4114 28.7396V27.722V26.7045C45.904 26.7045 45.4221 26.8264 44.9961 27.0433L45.4578 27.95ZM46.4111 27.7217L46.4109 26.7042C45.9032 26.7042 45.4212 26.8263 44.9953 27.0437L45.4578 27.95L45.9203 28.8563C46.0664 28.7818 46.2322 28.7392 46.4112 28.7392L46.4111 27.7217ZM42.1875 40.5785L41.3753 39.9656C41.448 39.8692 41.5784 39.803 41.73 39.8157C41.9 39.83 42.0757 39.9468 42.1422 40.1242L41.1894 40.4814L40.2367 40.8387C40.465 41.4476 41.0009 41.7968 41.5601 41.8437C42.1008 41.889 42.6494 41.6557 42.9997 41.1914L42.1875 40.5785ZM47.1941 33.9438L46.3819 33.3309L41.3753 39.9656L42.1875 40.5785L42.9997 41.1914L48.0063 34.5567L47.1941 33.9438ZM46.8289 33.0114L46.7477 34.0256C46.6691 34.0193 46.5765 33.9881 46.4935 33.9234C46.4137 33.8612 46.3629 33.7841 46.3355 33.7112C46.2816 33.5677 46.3106 33.4253 46.3819 33.3309L47.1941 33.9438L48.0063 34.5567C48.3553 34.0942 48.4316 33.504 48.2406 32.9955C48.0427 32.4688 47.5589 32.049 46.9101 31.9971L46.8289 33.0114ZM46.2946 33.2584L47.1068 33.8713C47.0371 33.9637 46.9115 34.0388 46.7477 34.0256L46.8289 33.0114L46.9101 31.9971C46.3325 31.9509 45.8021 32.2217 45.4823 32.6455L46.2946 33.2584ZM41.2812 39.9021L42.0934 40.515L47.1068 33.8713L46.2946 33.2584L45.4823 32.6455L40.469 39.2892L41.2812 39.9021ZM41.1894 40.4814L42.1422 40.1242C42.2018 40.2831 42.1599 40.4268 42.0934 40.515L41.2812 39.9021L40.469 39.2892C40.1522 39.709 40.0313 40.2908 40.2367 40.8387L41.1894 40.4814ZM44.5979 34.4638L45.4102 35.0767C45.8519 34.4913 45.8946 33.7171 45.504 33.1316C45.3098 32.8404 45.0095 32.6056 44.6314 32.507C44.2488 32.4072 43.8613 32.4657 43.5229 32.6297L43.9667 33.5454L44.4104 34.4611C44.3717 34.4798 44.2632 34.5141 44.1178 34.4762C43.977 34.4394 43.8723 34.3527 43.8111 34.2609C43.6866 34.0743 43.7453 33.9045 43.7857 33.8509L44.5979 34.4638ZM41.4008 38.7006L42.2131 39.3135L45.4102 35.0767L44.5979 34.4638L43.7857 33.8509L40.5886 38.0877L41.4008 38.7006ZM40.8383 38.5358H39.8208C39.8208 39.1662 40.237 39.6536 40.7712 39.8056C41.2858 39.9521 41.8624 39.7782 42.2131 39.3135L41.4008 38.7006L40.5886 38.0877C40.7528 37.8701 41.0481 37.7686 41.3281 37.8483C41.6277 37.9335 41.8558 38.215 41.8558 38.5358H40.8383ZM40.8852 37.8115L39.8762 37.6798C39.8396 37.9604 39.8208 38.2462 39.8208 38.5358H40.8383H41.8558C41.8558 38.3344 41.8689 38.1367 41.8942 37.9432L40.8852 37.8115ZM41.1901 37.1024L40.3779 36.4895C40.1379 36.8075 39.9375 37.2103 39.8762 37.6798L40.8852 37.8115L41.8942 37.9432C41.9006 37.8938 41.9271 37.815 42.0023 37.7153L41.1901 37.1024ZM43.7156 33.7557L42.9034 33.1428L40.3779 36.4895L41.1901 37.1024L42.0023 37.7153L44.5278 34.3686L43.7156 33.7557ZM43.9667 33.5454L43.5229 32.6297C43.2602 32.757 43.0555 32.9412 42.9034 33.1428L43.7156 33.7557L44.5278 34.3686C44.5101 34.392 44.4722 34.4311 44.4104 34.4611L43.9667 33.5454ZM42.2831 42.2678L41.531 42.9532C42.2631 43.7565 43.4315 43.5398 43.9802 42.8125L43.168 42.1996L42.3558 41.5867C42.4207 41.5008 42.5239 41.4404 42.6461 41.4296C42.7764 41.4182 42.9288 41.4657 43.0352 41.5824L42.2831 42.2678ZM42.2645 41.5196L41.4523 40.9067C41.0198 41.4797 40.9757 42.3439 41.531 42.9532L42.2831 42.2678L43.0352 41.5824C43.2099 41.7742 43.1689 42.0103 43.0767 42.1325L42.2645 41.5196ZM48.1213 33.7582L47.3091 33.1453L41.4523 40.9067L42.2645 41.5196L43.0767 42.1325L48.9335 34.3711L48.1213 33.7582ZM48.8478 33.5715L49.3013 32.6607C48.5653 32.2942 47.7435 32.5695 47.3091 33.1453L48.1213 33.7582L48.9335 34.3711C48.8395 34.4957 48.6242 34.5969 48.3942 34.4824L48.8478 33.5715ZM49.023 34.4406L49.8352 35.0535C50.3809 34.3304 50.2779 33.147 49.3013 32.6607L48.8478 33.5715L48.3942 34.4824C48.2525 34.4118 48.1644 34.2774 48.1398 34.1478C48.1168 34.0267 48.1473 33.9119 48.2108 33.8277L49.023 34.4406ZM43.168 42.1996L43.9802 42.8125L49.8352 35.0535L49.023 34.4406L48.2108 33.8277L42.3558 41.5867L43.168 42.1996ZM44.5614 43.2735L43.7491 42.6606C43.8442 42.5347 44.0641 42.4324 44.2961 42.5531L43.8265 43.4558L43.3569 44.3585C44.0968 44.7433 44.9337 44.4694 45.3736 43.8864L44.5614 43.2735ZM50.4369 35.4873L49.6247 34.8744L43.7491 42.6606L44.5614 43.2735L45.3736 43.8864L51.2491 36.1002L50.4369 35.4873ZM50.4118 34.7323L49.6719 35.4307C49.4907 35.2388 49.5315 34.998 49.6247 34.8744L50.4369 35.4873L51.2491 36.1002C51.687 35.52 51.7256 34.6418 51.1518 34.0338L50.4118 34.7323ZM49.5335 34.8072L50.3457 35.4201C50.2814 35.5053 50.1795 35.5654 50.0586 35.577C49.93 35.5894 49.7791 35.5443 49.6719 35.4307L50.4118 34.7323L51.1518 34.0338C50.415 33.2533 49.2647 33.4741 48.7212 34.1943L49.5335 34.8072ZM43.6595 42.5912L44.4717 43.2042L50.3457 35.4201L49.5335 34.8072L48.7212 34.1943L42.8473 41.9783L43.6595 42.5912ZM43.8265 43.4558L44.2961 42.5531C44.435 42.6254 44.5202 42.759 44.5435 42.8872C44.5653 43.0073 44.5347 43.1207 44.4717 43.2041L43.6595 42.5912L42.8473 41.9783C42.3069 42.6944 42.4014 43.8614 43.3569 44.3585L43.8265 43.4558ZM45.8195 44.0501L45.7178 45.0625C46.3066 45.1217 46.8509 44.8491 47.1767 44.4174L46.3644 43.8045L45.5522 43.1916C45.6233 43.0974 45.7531 43.0207 45.9213 43.0376L45.8195 44.0501ZM45.4648 43.1193L44.6526 42.5064C44.3072 42.9641 44.229 43.5477 44.4137 44.0531C44.6048 44.5761 45.0771 44.9981 45.7178 45.0625L45.8195 44.0501L45.9213 43.0376C46.109 43.0565 46.2667 43.1948 46.3251 43.3547C46.3771 43.497 46.3481 43.638 46.277 43.7322L45.4648 43.1193ZM50.5375 36.397L49.7252 35.7841L44.6526 42.5064L45.4648 43.1193L46.277 43.7322L51.3497 37.0099L50.5375 36.397ZM51.5309 36.4845L52.4761 36.1077C52.2379 35.5103 51.7032 35.1727 51.1496 35.1314C50.6135 35.0913 50.072 35.3247 49.7252 35.7841L50.5375 36.397L51.3497 37.0099C51.277 37.1062 51.1479 37.172 50.998 37.1608C50.8304 37.1483 50.6554 37.036 50.5857 36.8613L51.5309 36.4845ZM51.4436 37.0737L52.2558 37.6866C52.5787 37.2587 52.6974 36.6627 52.4761 36.1077L51.5309 36.4845L50.5857 36.8613C50.5212 36.6993 50.5633 36.5509 50.6313 36.4608L51.4436 37.0737ZM46.3644 43.8045L47.1767 44.4174L52.2558 37.6866L51.4436 37.0737L50.6313 36.4608L45.5522 43.1916L46.3644 43.8045ZM48.8774 43.3948L48.0652 42.7819C48.0856 42.7549 48.1288 42.7115 48.1988 42.6807L48.6081 43.6123L49.0175 44.5439C49.3039 44.418 49.5267 44.2236 49.6896 44.0077L48.8774 43.3948ZM51.587 39.8041L50.7748 39.1912L48.0652 42.7819L48.8774 43.3948L49.6896 44.0077L52.3992 40.417L51.587 39.8041ZM51.9008 39.0343L50.8873 38.944C50.8826 38.9974 50.8561 39.0835 50.7748 39.1912L51.587 39.8041L52.3992 40.417C52.6584 40.0736 52.8689 39.6341 52.9143 39.1246L51.9008 39.0343ZM51.9229 38.5358H50.9054C50.9054 38.6736 50.8993 38.8097 50.8873 38.944L51.9008 39.0343L52.9143 39.1246C52.9316 38.9304 52.9405 38.734 52.9405 38.5358H51.9229ZM51.2688 38.3483L52.0811 38.9612C51.9364 39.1529 51.6691 39.2523 51.4057 39.1793C51.2768 39.1436 51.1466 39.065 51.0482 38.9385C50.9458 38.807 50.9054 38.659 50.9054 38.5358H51.9229H52.9405C52.9405 37.8797 52.5082 37.373 51.9491 37.2181C51.413 37.0696 50.8186 37.2557 50.4566 37.7354L51.2688 38.3483ZM47.9925 42.6901L48.8047 43.303L52.0811 38.9612L51.2688 38.3483L50.4566 37.7354L47.1803 42.0772L47.9925 42.6901ZM48.6081 43.6123L48.1988 42.6807C48.244 42.6609 48.354 42.6327 48.4945 42.674C48.6299 42.7137 48.729 42.7995 48.7868 42.8888C48.9042 43.0701 48.8523 43.2399 48.8047 43.303L47.9925 42.6901L47.1803 42.0772C46.7437 42.6557 46.704 43.4165 47.0787 43.9951C47.4839 44.6206 48.2738 44.8706 49.0175 44.5439L48.6081 43.6123Z" fill="url(#paint1_linear_113_3675)" mask="url(#path-3-outside-1_113_3675)"/>
</g>
<g opacity="0.4" filter="url(#filter2_f_113_3675)">
<path d="M44.3166 29.624C44.4184 28.5568 45.3174 27.722 46.4113 27.722C47.449 27.722 48.3113 28.4732 48.484 29.4615C48.6719 29.3837 48.8779 29.3408 49.0939 29.3408C49.797 29.3408 50.3939 29.7957 50.6064 30.4272C53.5266 31.9541 55.5195 35.0123 55.5195 38.5359C55.5195 43.5863 51.4254 47.6804 46.375 47.6804C41.3247 47.6804 37.2305 43.5863 37.2305 38.5359C37.2305 35.1761 39.0425 32.2394 41.7426 30.6499C41.8776 29.9054 42.5291 29.3408 43.3125 29.3408C43.6603 29.3408 43.9821 29.4521 44.2442 29.641C44.2683 29.6352 44.2925 29.6296 44.3166 29.624Z" fill="black"/>
<path d="M46.4112 27.5834C47.4603 27.5834 48.3398 28.3038 48.585 29.2767C48.7459 29.2275 48.9171 29.2025 49.0938 29.2025C49.8381 29.2025 50.4707 29.6715 50.7169 30.3295C53.6555 31.8874 55.6581 34.9772 55.6583 38.5355C55.6583 43.6625 51.5021 47.8187 46.3751 47.8187C41.2481 47.8187 37.0919 43.6625 37.0919 38.5355C37.092 35.1464 38.9085 32.1823 41.6202 30.5619C41.7915 29.7842 42.4833 29.2025 43.3126 29.2025C43.6377 29.2025 43.942 29.2918 44.2022 29.4476C44.3824 28.3893 45.3016 27.5834 46.4112 27.5834Z" stroke="black" stroke-width="0.277506"/>
</g>
<path d="M46.375 47.6804C51.4254 47.6804 55.5195 43.5862 55.5195 38.5359C55.5195 33.4855 51.4254 29.3914 46.375 29.3914C41.3247 29.3914 37.2305 33.4855 37.2305 38.5359C37.2305 43.5862 41.3247 47.6804 46.375 47.6804Z" fill="url(#paint2_linear_113_3675)"/>
<g filter="url(#filter3_i_113_3675)">
<path d="M46.3883 47.0087C51.0628 47.0087 54.8523 43.2192 54.8523 38.5447C54.8523 33.8702 51.0628 30.0808 46.3883 30.0808C41.7138 30.0808 37.9244 33.8702 37.9244 38.5447C37.9244 43.2192 41.7138 47.0087 46.3883 47.0087Z" fill="url(#paint3_linear_113_3675)"/>
</g>
<path d="M46.3883 45.7599C50.3731 45.7599 53.6035 42.5296 53.6035 38.5447C53.6035 34.5599 50.3731 31.3296 46.3883 31.3296C42.4035 31.3296 39.1732 34.5599 39.1732 38.5447C39.1732 42.5296 42.4035 45.7599 46.3883 45.7599Z" fill="url(#paint4_linear_113_3675)"/>
<path d="M46.3883 45.7599C50.3731 45.7599 53.6035 42.5296 53.6035 38.5447C53.6035 34.5599 50.3731 31.3296 46.3883 31.3296C42.4035 31.3296 39.1732 34.5599 39.1732 38.5447C39.1732 42.5296 42.4035 45.7599 46.3883 45.7599Z" fill="#FF0000" fill-opacity="0.31"/>
<path d="M46.3749 32.0232C49.9717 32.0232 52.8875 34.9391 52.8876 38.5359C52.8876 42.1327 49.9717 45.0486 46.3749 45.0486C42.7781 45.0485 39.8622 42.1327 39.8622 38.5359C39.8623 34.9392 42.7782 32.0233 46.3749 32.0232Z" fill="url(#paint5_linear_113_3675)" stroke="url(#paint6_linear_113_3675)" stroke-width="0.46251"/>
<path d="M46.4109 27.7217C47.4486 27.7217 48.3085 28.4737 48.4812 29.4619C48.6697 29.3835 48.8767 29.3409 49.0936 29.3408C49.9747 29.3408 50.6893 30.0554 50.6893 30.9365C50.6891 31.8176 49.9746 32.5322 49.0936 32.5322C48.4289 32.5321 47.8596 32.1249 47.6199 31.5469C47.2777 31.7877 46.8612 31.9307 46.4109 31.9307C45.804 31.9306 45.2588 31.6719 44.8748 31.2607C44.7249 31.9863 44.0823 32.5322 43.3123 32.5322C42.4313 32.5322 41.7167 31.8175 41.7166 30.9365C41.7166 30.0554 42.4312 29.3409 43.3123 29.3408C43.6914 29.3408 44.0395 29.4735 44.3133 29.6943C44.3814 28.5938 45.2933 27.7219 46.4109 27.7217Z" fill="url(#paint7_linear_113_3675)"/>
<g filter="url(#filter4_d_113_3675)">
<path d="M43.3124 32.5318C44.1936 32.5318 44.9079 31.8175 44.9079 30.9363C44.9079 30.0551 44.1936 29.3408 43.3124 29.3408C42.4313 29.3408 41.7169 30.0551 41.7169 30.9363C41.7169 31.8175 42.4313 32.5318 43.3124 32.5318Z" fill="url(#paint8_linear_113_3675)"/>
<path d="M43.3124 32.5318C44.1936 32.5318 44.9079 31.8175 44.9079 30.9363C44.9079 30.0551 44.1936 29.3408 43.3124 29.3408C42.4313 29.3408 41.7169 30.0551 41.7169 30.9363C41.7169 31.8175 42.4313 32.5318 43.3124 32.5318Z" fill="url(#paint9_linear_113_3675)"/>
</g>
<g filter="url(#filter5_i_113_3675)">
<path d="M43.3125 31.9917C43.942 31.9917 44.4524 31.4814 44.4524 30.8519C44.4524 30.2224 43.942 29.712 43.3125 29.712C42.683 29.712 42.1727 30.2224 42.1727 30.8519C42.1727 31.4814 42.683 31.9917 43.3125 31.9917Z" fill="url(#paint10_linear_113_3675)"/>
</g>
<g filter="url(#filter6_d_113_3675)">
<path d="M49.0938 32.5318C49.975 32.5318 50.6893 31.8175 50.6893 30.9363C50.6893 30.0551 49.975 29.3408 49.0938 29.3408C48.2127 29.3408 47.4983 30.0551 47.4983 30.9363C47.4983 31.8175 48.2127 32.5318 49.0938 32.5318Z" fill="url(#paint11_linear_113_3675)"/>
</g>
<g filter="url(#filter7_i_113_3675)">
<path d="M49.0938 31.9917C49.7234 31.9917 50.2337 31.4814 50.2337 30.8519C50.2337 30.2224 49.7234 29.712 49.0938 29.712C48.4643 29.712 47.954 30.2224 47.954 30.8519C47.954 31.4814 48.4643 31.9917 49.0938 31.9917Z" fill="url(#paint12_linear_113_3675)"/>
</g>
<g filter="url(#filter8_d_113_3675)">
<path d="M46.4113 31.9306C47.5734 31.9306 48.5155 30.9884 48.5155 29.8263C48.5155 28.6642 47.5734 27.722 46.4113 27.722C45.2491 27.722 44.307 28.6642 44.307 29.8263C44.307 30.9884 45.2491 31.9306 46.4113 31.9306Z" fill="url(#paint13_linear_113_3675)"/>
</g>
<g filter="url(#filter9_i_113_3675)">
<path d="M46.4113 31.3292C47.3435 31.3292 48.0992 30.5734 48.0992 29.6412C48.0992 28.709 47.3435 27.9532 46.4113 27.9532C45.479 27.9532 44.7233 28.709 44.7233 29.6412C44.7233 30.5734 45.479 31.3292 46.4113 31.3292Z" fill="url(#paint14_linear_113_3675)"/>
</g>
<path d="M44.5978 34.4638C44.9991 33.9321 44.566 33.2549 43.9666 33.5454V33.5454C43.8661 33.5941 43.7827 33.6666 43.7155 33.7557L41.19 37.1024C41.0324 37.3113 40.919 37.5521 40.8851 37.8115C40.8542 38.0486 40.8382 38.2903 40.8382 38.5358V38.5358C40.8382 38.8454 41.2143 38.9477 41.4007 38.7006L44.5978 34.4638Z" fill="url(#paint15_linear_113_3675)"/>
<path d="M42.1874 40.5785C41.9098 40.9463 41.3511 40.9129 41.1893 40.4814V40.4814C41.1164 40.287 41.156 40.0679 41.2811 39.9021L46.2945 33.2584C46.4195 33.0927 46.6219 32.9948 46.8288 33.0114V33.0114C47.2884 33.0481 47.4717 33.5757 47.194 33.9438L42.1874 40.5785Z" fill="url(#paint16_linear_113_3675)"/>
<path d="M43.1679 42.1996C42.949 42.4897 42.5278 42.5364 42.283 42.2678V42.2678C42.0927 42.059 42.0942 41.745 42.2644 41.5196L48.1212 33.7582C48.2914 33.5326 48.5947 33.4456 48.8477 33.5715V33.5715C49.1729 33.7335 49.2418 34.1506 49.0229 34.4406L43.1679 42.1996Z" fill="url(#paint17_linear_113_3675)"/>
<path d="M44.5613 43.2735C44.3888 43.502 44.0803 43.5879 43.8264 43.4558V43.4558C43.5077 43.29 43.443 42.878 43.6594 42.5912L49.5334 34.8072C49.7498 34.5203 50.1651 34.471 50.4117 34.7323V34.7323C50.6081 34.9403 50.6091 35.259 50.4368 35.4873L44.5613 43.2735Z" fill="url(#paint18_linear_113_3675)"/>
<path d="M46.3643 43.8045C46.237 43.9732 46.0298 44.0712 45.8194 44.0501V44.0501C45.3664 44.0045 45.1904 43.4828 45.4647 43.1193L50.5374 36.397C50.8114 36.0339 51.3623 36.0618 51.5308 36.4845V36.4845C51.6091 36.681 51.5709 36.9048 51.4435 37.0737L46.3643 43.8045Z" fill="url(#paint19_linear_113_3675)"/>
<path d="M48.8773 43.3948C48.8061 43.4892 48.7163 43.5647 48.608 43.6123V43.6123C48.0168 43.8721 47.6034 43.2056 47.9924 42.6901L51.2687 38.3483C51.4861 38.0603 51.9228 38.1749 51.9228 38.5358V38.5358C51.9228 38.7038 51.9153 38.8701 51.9007 39.0343C51.8756 39.3157 51.7571 39.5786 51.5869 39.8041L48.8773 43.3948Z" fill="url(#paint20_linear_113_3675)"/>
<g style="mix-blend-mode:overlay" opacity="0.6">
<path d="M46.4109 27.7217C47.4486 27.7217 48.3114 28.4736 48.4841 29.4619C48.6719 29.3842 48.8776 29.3409 49.0935 29.3408C49.7965 29.3408 50.3935 29.7955 50.6062 30.4268C53.5264 31.9537 55.5193 35.0125 55.5193 38.5361C55.5192 38.9017 55.4946 39.2619 55.4529 39.6162C53.0012 40.6489 49.8402 41.2734 46.3884 41.2734C42.9234 41.2734 39.7512 40.6442 37.2956 39.6045C37.2548 39.2539 37.2302 38.8977 37.2302 38.5361C37.2302 35.1763 39.0428 32.2389 41.7429 30.6494C41.878 29.9053 42.5291 29.3409 43.3122 29.3408C43.6598 29.3408 43.9818 29.4519 44.2439 29.6406C44.268 29.6349 44.2929 29.6296 44.3171 29.624C44.4189 28.5569 45.3172 27.7219 46.4109 27.7217Z" fill="white"/>
</g>
<path d="M47.6858 35.7406L46.4282 34.3088C45.9521 33.7667 45.0681 33.9397 44.8314 34.6214L44.2065 36.4216C44.1877 36.4758 44.1469 36.5197 44.0941 36.5424L42.3438 37.296C42.0772 37.4108 41.9002 37.6241 41.8214 37.8665C41.8133 37.8915 41.8043 37.9161 41.7953 37.9408C41.7448 38.078 41.7426 38.2313 41.7921 38.371C41.801 38.3961 41.8098 38.4212 41.8178 38.4465C41.8732 38.6224 41.9821 38.7858 42.1476 38.9112L43.6666 40.0618C43.7124 40.0965 43.7415 40.1489 43.7468 40.2061L43.9226 42.1036C43.9397 42.2883 44.0064 42.4506 44.1062 42.5829C44.1389 42.6263 44.1687 42.6721 44.1983 42.7178C44.3449 42.9439 44.6293 43.056 44.8939 42.9807C44.9462 42.9658 44.9987 42.951 45.0519 42.9399C45.1709 42.915 45.2884 42.8657 45.3981 42.7893L46.9618 41.7002C47.009 41.6674 47.0678 41.6559 47.1238 41.6685L48.9828 42.0877C49.1132 42.1171 49.2406 42.1184 49.3602 42.0966C49.4137 42.0869 49.4679 42.0808 49.522 42.0749C49.7954 42.0449 50.0166 41.8339 50.0671 41.5691C50.0773 41.5157 50.0876 41.462 50.1016 41.4094C50.1441 41.2494 50.1447 41.0738 50.0909 40.8963L49.5383 39.0725C49.5217 39.0176 49.5289 38.9581 49.5583 38.9087L50.5313 37.2703C50.6374 37.0917 50.6767 36.8993 50.6616 36.7155C50.6594 36.689 50.6582 36.6624 50.6569 36.6359C50.6502 36.4879 50.5903 36.3468 50.4919 36.2387C50.4742 36.2193 50.4566 36.1998 50.4397 36.1798C50.2753 35.9849 50.0309 35.854 49.7407 35.8482L47.8355 35.8101C47.778 35.809 47.7237 35.7838 47.6858 35.7406Z" fill="#FF7400"/>
<path d="M44.5915 34.35C44.9874 33.5698 46.0728 33.4074 46.6746 34.0926L47.8961 35.4834L49.7474 35.5211L49.8908 35.5319C50.2181 35.5747 50.4958 35.7387 50.6898 35.9686L50.7344 36.0185L50.8346 36.1492C50.8939 36.2423 50.9374 36.3458 50.962 36.4546L50.9836 36.6206L50.9879 36.6884C51.0058 36.9068 50.9669 37.1338 50.862 37.3469L50.813 37.4371L49.8669 39.0293L50.4046 40.8008L50.4445 40.9791C50.4628 41.0971 50.465 41.2139 50.4509 41.3271L50.4179 41.4938C50.4074 41.5333 50.3994 41.5761 50.389 41.6308C50.3217 41.983 50.057 42.2727 49.7108 42.3705L49.5575 42.4006L49.4187 42.4188C49.2969 42.441 49.1699 42.4457 49.0408 42.43L48.9109 42.4067L47.1048 42L45.5853 43.0576C45.4758 43.1339 45.3593 43.1909 45.2397 43.2288L45.1195 43.2602L44.9831 43.2959C44.6277 43.3969 44.2532 43.2783 44.016 43.0165L43.9238 42.8962L43.8444 42.7804C43.7087 42.6005 43.6192 42.3799 43.5963 42.1334L43.4256 40.2901L41.9499 39.1718C41.7289 39.0043 41.5809 38.7832 41.5057 38.5443L41.4834 38.481C41.4077 38.2677 41.4115 38.0348 41.4878 37.8274L41.5104 37.7652L41.5565 37.6447C41.6786 37.3683 41.9014 37.1303 42.2146 36.9955L43.9141 36.2628L44.5221 34.5139L44.5915 34.35Z" stroke="url(#paint21_linear_113_3675)" stroke-opacity="0.8" stroke-width="0.654953"/>
<path d="M44.7646 34.7831C45.0087 34.0799 45.9207 33.9014 46.4119 34.4607L47.4163 35.6042C47.5962 35.8091 47.854 35.9289 48.1267 35.9343L49.6483 35.9647C50.3925 35.9796 50.8441 36.7918 50.464 37.4318L49.6868 38.7403C49.5476 38.9748 49.5133 39.257 49.5924 39.5179L50.0337 40.9745C50.2495 41.6869 49.6166 42.3674 48.8905 42.2036L47.4058 41.8688C47.1398 41.8089 46.8608 41.8635 46.6371 42.0193L45.3881 42.8891C44.7773 43.3146 43.9346 42.9229 43.8659 42.1817L43.7255 40.6662C43.7004 40.3947 43.5622 40.1463 43.3449 39.9816L42.1317 39.0626C41.5383 38.6131 41.6504 37.6907 42.3341 37.3963L43.732 36.7945C43.9825 36.6866 44.1761 36.4785 44.2655 36.2209L44.7646 34.7831Z" fill="url(#paint22_linear_113_3675)"/>
<path d="M44.8144 34.6222C45.0355 33.9862 45.8603 33.8252 46.3047 34.3312L47.4453 35.63C47.608 35.8152 47.8414 35.9228 48.0879 35.9278L49.8164 35.963C50.4897 35.9764 50.8985 36.7111 50.5547 37.2901L49.9697 38.2735C48.5056 38.5822 46.84 38.7579 45.0732 38.7579C43.8898 38.7579 42.752 38.6778 41.6894 38.5333C41.5603 38.1267 41.7357 37.6482 42.1767 37.4581L43.7646 36.7745C43.9911 36.677 44.1661 36.4888 44.2471 36.256L44.8144 34.6222Z" fill="url(#paint23_linear_113_3675)"/>
<path d="M68.8127 41.484L66.136 35.3967H67.388L69.3912 40.1888H69.253L71.2562 35.3967H72.4823L69.797 41.484H68.8127ZM73.4147 36.3206V35.1808H74.7272V36.3206H73.4147ZM73.5097 41.484V37.1927H74.6581V41.484H73.5097ZM78.4263 41.5704C77.9716 41.5704 77.5744 41.4783 77.2347 41.2941C76.8951 41.1098 76.6332 40.8508 76.449 40.5169C76.2648 40.1773 76.1727 39.783 76.1727 39.334C76.1727 38.8793 76.2648 38.485 76.449 38.1511C76.6332 37.8172 76.8951 37.5611 77.2347 37.3826C77.5744 37.1984 77.9744 37.1063 78.4349 37.1063C78.74 37.1063 79.0307 37.1524 79.307 37.2445C79.5833 37.3366 79.8107 37.4575 79.9891 37.6071L79.6438 38.4447C79.4883 38.318 79.3128 38.2202 79.1171 38.1511C78.9271 38.082 78.74 38.0475 78.5558 38.0475C78.1644 38.0475 77.8622 38.1569 77.6492 38.3756C77.4362 38.5943 77.3297 38.9138 77.3297 39.334C77.3297 39.7542 77.4362 40.0766 77.6492 40.3011C77.8622 40.5198 78.1615 40.6292 78.5472 40.6292C78.7371 40.6292 78.9271 40.5947 79.1171 40.5256C79.307 40.4565 79.4768 40.3615 79.6265 40.2406L79.9805 41.0696C79.8021 41.2192 79.5747 41.3401 79.2984 41.4322C79.0221 41.5243 78.7314 41.5704 78.4263 41.5704ZM83.2957 41.5704C82.7028 41.5704 82.2596 41.4236 81.966 41.13C81.6782 40.8307 81.5343 40.4018 81.5343 39.8435V38.0993H80.7054V37.1927H81.5861V35.9666H82.6827V37.1927H84.1247V38.0993H82.6827V39.7917C82.6827 40.068 82.7489 40.2752 82.8813 40.4133C83.0137 40.5457 83.2152 40.6119 83.4857 40.6119C83.5893 40.6119 83.6929 40.6033 83.7965 40.586C83.9002 40.563 84.0038 40.5342 84.1074 40.4997L84.2714 41.3631C84.139 41.4322 83.9865 41.484 83.8138 41.5185C83.6411 41.5531 83.4684 41.5704 83.2957 41.5704ZM87.4394 41.5704C86.9789 41.5704 86.5789 41.4783 86.2392 41.2941C85.9054 41.1098 85.6463 40.8508 85.4621 40.5169C85.2837 40.1773 85.1945 39.783 85.1945 39.334C85.1945 38.885 85.2837 38.4936 85.4621 38.1597C85.6463 37.8259 85.9054 37.5668 86.2392 37.3826C86.5789 37.1984 86.9789 37.1063 87.4394 37.1063C87.8942 37.1063 88.2885 37.1984 88.6223 37.3826C88.962 37.5668 89.221 37.8259 89.3995 38.1597C89.5837 38.4936 89.6758 38.885 89.6758 39.334C89.6758 39.783 89.5837 40.1773 89.3995 40.5169C89.221 40.8508 88.962 41.1098 88.6223 41.2941C88.2885 41.4783 87.8942 41.5704 87.4394 41.5704ZM87.4308 40.6465C87.7819 40.6465 88.0553 40.5313 88.2511 40.3011C88.4525 40.0708 88.5533 39.7456 88.5533 39.3254C88.5533 38.9109 88.4525 38.5915 88.2511 38.367C88.0553 38.1425 87.7848 38.0302 87.4394 38.0302C87.0883 38.0302 86.812 38.1425 86.6105 38.367C86.4148 38.5915 86.3169 38.9109 86.3169 39.3254C86.3169 39.7456 86.4177 40.0708 86.6191 40.3011C86.8206 40.5313 87.0912 40.6465 87.4308 40.6465ZM91.1991 41.484V37.1927H92.2266V38.2461C92.3187 37.9122 92.4856 37.6503 92.7274 37.4603C92.9691 37.2646 93.2771 37.1524 93.6513 37.1236L94.1003 37.0977L94.1952 38.1252L93.444 38.1856C93.0871 38.2202 92.8137 38.3353 92.6238 38.531C92.4396 38.7267 92.3475 38.98 92.3475 39.2909V41.484H91.1991ZM96.1375 43.0382L97.0354 41.0609V41.8208L95.0668 37.1927H96.2842L97.4931 40.3788H97.4067L98.6156 37.1927H99.7898L97.3204 43.0382H96.1375ZM103.971 41.484V35.3967H106.683C107.373 35.3967 107.903 35.555 108.271 35.8716C108.64 36.1824 108.824 36.6286 108.824 37.2099C108.824 37.5496 108.755 37.8403 108.617 38.082C108.479 38.3238 108.286 38.5166 108.038 38.6605C107.791 38.7987 107.503 38.885 107.175 38.9196L107.209 38.8937L107.365 38.9109C107.52 38.934 107.661 38.9973 107.788 39.1009C107.915 39.1987 108.035 39.3513 108.151 39.5585L109.178 41.484H107.909L106.907 39.6103C106.838 39.4779 106.76 39.3772 106.674 39.3081C106.593 39.2333 106.498 39.1815 106.389 39.1527C106.28 39.1239 106.15 39.1095 106.001 39.1095H105.137V41.484H103.971ZM105.137 38.2115H106.545C106.93 38.2115 107.215 38.1338 107.399 37.9784C107.589 37.8172 107.684 37.5783 107.684 37.2617C107.684 36.9509 107.589 36.7207 107.399 36.571C107.209 36.4156 106.919 36.3379 106.527 36.3379H105.137V38.2115ZM112.164 41.5704C111.807 41.5704 111.508 41.5042 111.266 41.3718C111.024 41.2394 110.84 41.0408 110.714 40.776C110.593 40.5054 110.532 40.1687 110.532 39.7657V37.1927H111.681V39.7398C111.681 39.9298 111.707 40.0939 111.758 40.232C111.816 40.3644 111.905 40.4651 112.026 40.5342C112.147 40.6033 112.299 40.6378 112.484 40.6378C112.679 40.6378 112.855 40.5918 113.01 40.4997C113.172 40.4018 113.295 40.2723 113.382 40.1111C113.474 39.9442 113.52 39.7629 113.52 39.5672V37.1927H114.668V41.484H113.606V40.5947H113.623C113.485 40.9055 113.292 41.1473 113.045 41.32C112.797 41.4869 112.504 41.5704 112.164 41.5704ZM118.08 41.5704C117.827 41.5704 117.579 41.5502 117.338 41.5099C117.102 41.4754 116.886 41.4236 116.69 41.3545C116.494 41.2797 116.325 41.1876 116.181 41.0782L116.474 40.3011C116.624 40.3932 116.785 40.4738 116.958 40.5429C117.136 40.6062 117.318 40.6522 117.502 40.681C117.692 40.7098 117.873 40.7242 118.046 40.7242C118.357 40.7242 118.59 40.6868 118.745 40.6119C118.906 40.5313 118.987 40.4133 118.987 40.2579C118.987 40.1255 118.941 40.0277 118.849 39.9643C118.757 39.901 118.61 39.8521 118.408 39.8176L117.476 39.6794C117.073 39.6161 116.771 39.4779 116.569 39.2649C116.368 39.0462 116.267 38.7814 116.267 38.4706C116.267 38.2 116.342 37.964 116.492 37.7625C116.641 37.5553 116.86 37.3941 117.148 37.279C117.436 37.1639 117.787 37.1063 118.201 37.1063C118.414 37.1063 118.624 37.1265 118.831 37.1668C119.044 37.2013 119.243 37.256 119.427 37.3308C119.611 37.3999 119.764 37.4862 119.885 37.5899L119.565 38.367C119.45 38.2749 119.315 38.2 119.16 38.1425C119.01 38.0791 118.852 38.0331 118.685 38.0043C118.518 37.9698 118.357 37.9525 118.201 37.9525C117.896 37.9525 117.666 37.9957 117.51 38.082C117.361 38.1626 117.286 38.2806 117.286 38.436C117.286 38.5569 117.329 38.6519 117.415 38.721C117.502 38.7843 117.64 38.8303 117.83 38.8591L118.736 39.0145C119.168 39.0836 119.488 39.2189 119.695 39.4204C119.902 39.6218 120.006 39.8895 120.006 40.2234C120.006 40.4997 119.925 40.7386 119.764 40.94C119.609 41.1415 119.387 41.2969 119.099 41.4063C118.811 41.5157 118.472 41.5704 118.08 41.5704ZM121.469 41.484V35.3967H122.565V38.0216H122.548C122.68 37.7395 122.879 37.5179 123.144 37.3567C123.414 37.1898 123.719 37.1063 124.059 37.1063C124.404 37.1063 124.695 37.1725 124.931 37.3049C125.167 37.4373 125.343 37.6388 125.458 37.9093C125.579 38.1741 125.639 38.5137 125.639 38.9282V41.484H124.499V38.98C124.499 38.7728 124.47 38.6001 124.413 38.4619C124.355 38.3238 124.266 38.2202 124.145 38.1511C124.03 38.0763 123.88 38.0389 123.696 38.0389C123.489 38.0389 123.302 38.0878 123.135 38.1856C122.974 38.2777 122.847 38.4073 122.755 38.5742C122.663 38.7354 122.617 38.9224 122.617 39.1354V41.484H121.469Z" fill="#202224"/>
<mask id="mask0_113_3675" style="mask-type:alpha" maskUnits="userSpaceOnUse" x="21" y="21" width="24" height="35">
<path d="M22.1304 27.0943C22.1304 24.2808 24.4112 22 27.2247 22H34.304C39.7192 22 44.1091 26.3899 44.1091 31.805V45.163C44.1091 50.5782 39.7192 54.968 34.304 54.968H27.2247C24.4112 54.968 22.1304 52.6872 22.1304 49.8737V27.0943Z" fill="white" stroke="url(#paint24_linear_113_3675)" stroke-opacity="0.3" stroke-width="1.02168"/>
</mask>
<g mask="url(#mask0_113_3675)">
<rect x="21.3454" y="21.3661" width="10.9893" height="34.236" fill="#FFA94E"/>
</g>
<defs>
<filter id="filter0_d_113_3675" x="0.385069" y="0.254667" width="168.897" height="81.7673" filterUnits="userSpaceOnUse" color-interpolation-filters="sRGB">
<feFlood flood-opacity="0" result="BackgroundImageFix"/>
<feColorMatrix in="SourceAlpha" type="matrix" values="0 0 0 0 0 0 0 0 0 0 0 0 0 0 0 0 0 0 127 0" result="hardAlpha"/>
<feOffset dx="2.65431" dy="2.65431"/>
<feGaussianBlur stdDeviation="11.9444"/>
<feColorMatrix type="matrix" values="0 0 0 0 0 0 0 0 0 0 0 0 0 0 0 0 0 0 0.05 0"/>
<feBlend mode="normal" in2="BackgroundImageFix" result="effect1_dropShadow_113_3675"/>
<feBlend mode="normal" in="SourceGraphic" in2="effect1_dropShadow_113_3675" result="shape"/>
</filter>
<filter id="filter1_d_113_3675" x="39.8208" y="25.7787" width="13.1196" height="19.8931" filterUnits="userSpaceOnUse" color-interpolation-filters="sRGB">
<feFlood flood-opacity="0" result="BackgroundImageFix"/>
<feColorMatrix in="SourceAlpha" type="matrix" values="0 0 0 0 0 0 0 0 0 0 0 0 0 0 0 0 0 0 127 0" result="hardAlpha"/>
<feOffset dy="0.601263"/>
<feComposite in2="hardAlpha" operator="out"/>
<feColorMatrix type="matrix" values="0 0 0 0 0.266667 0 0 0 0 0.0196078 0 0 0 0 0.0196078 0 0 0 1 0"/>
<feBlend mode="normal" in2="BackgroundImageFix" result="effect1_dropShadow_113_3675"/>
<feBlend mode="normal" in="SourceGraphic" in2="effect1_dropShadow_113_3675" result="shape"/>
</filter>
<filter id="filter2_f_113_3675" x="36.398" y="26.8896" width="19.954" height="21.6233" filterUnits="userSpaceOnUse" color-interpolation-filters="sRGB">
<feFlood flood-opacity="0" result="BackgroundImageFix"/>
<feBlend mode="normal" in="SourceGraphic" in2="BackgroundImageFix" result="shape"/>
<feGaussianBlur stdDeviation="0.277506" result="effect1_foregroundBlur_113_3675"/>
</filter>
<filter id="filter3_i_113_3675" x="37.9244" y="30.0808" width="16.9279" height="16.9279" filterUnits="userSpaceOnUse" color-interpolation-filters="sRGB">
<feFlood flood-opacity="0" result="BackgroundImageFix"/>
<feBlend mode="normal" in="SourceGraphic" in2="BackgroundImageFix" result="shape"/>
<feColorMatrix in="SourceAlpha" type="matrix" values="0 0 0 0 0 0 0 0 0 0 0 0 0 0 0 0 0 0 127 0" result="hardAlpha"/>
<feOffset dy="2.59005"/>
<feComposite in2="hardAlpha" operator="arithmetic" k2="-1" k3="1"/>
<feColorMatrix type="matrix" values="0 0 0 0 0.993306 0 0 0 0 1 0 0 0 0 0.575 0 0 0 0.29 0"/>
<feBlend mode="normal" in2="shape" result="effect1_innerShadow_113_3675"/>
</filter>
<filter id="filter4_d_113_3675" x="41.7169" y="29.3408" width="3.19098" height="3.50666" filterUnits="userSpaceOnUse" color-interpolation-filters="sRGB">
<feFlood flood-opacity="0" result="BackgroundImageFix"/>
<feColorMatrix in="SourceAlpha" type="matrix" values="0 0 0 0 0 0 0 0 0 0 0 0 0 0 0 0 0 0 127 0" result="hardAlpha"/>
<feOffset dy="0.315617"/>
<feComposite in2="hardAlpha" operator="out"/>
<feColorMatrix type="matrix" values="0 0 0 0 0.886275 0 0 0 0 0.380392 0 0 0 0 0.0196078 0 0 0 1 0"/>
<feBlend mode="normal" in2="BackgroundImageFix" result="effect1_dropShadow_113_3675"/>
<feBlend mode="normal" in="SourceGraphic" in2="effect1_dropShadow_113_3675" result="shape"/>
</filter>
<filter id="filter5_i_113_3675" x="42.1727" y="29.712" width="2.27971" height="2.27966" filterUnits="userSpaceOnUse" color-interpolation-filters="sRGB">
<feFlood flood-opacity="0" result="BackgroundImageFix"/>
<feBlend mode="normal" in="SourceGraphic" in2="BackgroundImageFix" result="shape"/>
<feColorMatrix in="SourceAlpha" type="matrix" values="0 0 0 0 0 0 0 0 0 0 0 0 0 0 0 0 0 0 127 0" result="hardAlpha"/>
<feOffset dy="1.06377"/>
<feComposite in2="hardAlpha" operator="arithmetic" k2="-1" k3="1"/>
<feColorMatrix type="matrix" values="0 0 0 0 1 0 0 0 0 0.976471 0 0 0 0 0.168627 0 0 0 1 0"/>
<feBlend mode="normal" in2="shape" result="effect1_innerShadow_113_3675"/>
</filter>
<filter id="filter6_d_113_3675" x="47.4983" y="29.3408" width="3.19098" height="3.50666" filterUnits="userSpaceOnUse" color-interpolation-filters="sRGB">
<feFlood flood-opacity="0" result="BackgroundImageFix"/>
<feColorMatrix in="SourceAlpha" type="matrix" values="0 0 0 0 0 0 0 0 0 0 0 0 0 0 0 0 0 0 127 0" result="hardAlpha"/>
<feOffset dy="0.315617"/>
<feComposite in2="hardAlpha" operator="out"/>
<feColorMatrix type="matrix" values="0 0 0 0 0.886275 0 0 0 0 0.380392 0 0 0 0 0.0196078 0 0 0 1 0"/>
<feBlend mode="normal" in2="BackgroundImageFix" result="effect1_dropShadow_113_3675"/>
<feBlend mode="normal" in="SourceGraphic" in2="effect1_dropShadow_113_3675" result="shape"/>
</filter>
<filter id="filter7_i_113_3675" x="47.954" y="29.712" width="2.27971" height="2.27966" filterUnits="userSpaceOnUse" color-interpolation-filters="sRGB">
<feFlood flood-opacity="0" result="BackgroundImageFix"/>
<feBlend mode="normal" in="SourceGraphic" in2="BackgroundImageFix" result="shape"/>
<feColorMatrix in="SourceAlpha" type="matrix" values="0 0 0 0 0 0 0 0 0 0 0 0 0 0 0 0 0 0 127 0" result="hardAlpha"/>
<feOffset dy="1.06377"/>
<feComposite in2="hardAlpha" operator="arithmetic" k2="-1" k3="1"/>
<feColorMatrix type="matrix" values="0 0 0 0 1 0 0 0 0 0.976471 0 0 0 0 0.168627 0 0 0 1 0"/>
<feBlend mode="normal" in2="shape" result="effect1_innerShadow_113_3675"/>
</filter>
<filter id="filter8_d_113_3675" x="44.307" y="27.722" width="4.20851" height="4.62475" filterUnits="userSpaceOnUse" color-interpolation-filters="sRGB">
<feFlood flood-opacity="0" result="BackgroundImageFix"/>
<feColorMatrix in="SourceAlpha" type="matrix" values="0 0 0 0 0 0 0 0 0 0 0 0 0 0 0 0 0 0 127 0" result="hardAlpha"/>
<feOffset dy="0.416259"/>
<feComposite in2="hardAlpha" operator="out"/>
<feColorMatrix type="matrix" values="0 0 0 0 0.886275 0 0 0 0 0.380392 0 0 0 0 0.0196078 0 0 0 1 0"/>
<feBlend mode="normal" in2="BackgroundImageFix" result="effect1_dropShadow_113_3675"/>
<feBlend mode="normal" in="SourceGraphic" in2="effect1_dropShadow_113_3675" result="shape"/>
</filter>
<filter id="filter9_i_113_3675" x="44.7233" y="27.9532" width="3.37593" height="3.37598" filterUnits="userSpaceOnUse" color-interpolation-filters="sRGB">
<feFlood flood-opacity="0" result="BackgroundImageFix"/>
<feBlend mode="normal" in="SourceGraphic" in2="BackgroundImageFix" result="shape"/>
<feColorMatrix in="SourceAlpha" type="matrix" values="0 0 0 0 0 0 0 0 0 0 0 0 0 0 0 0 0 0 127 0" result="hardAlpha"/>
<feOffset dy="1.06377"/>
<feComposite in2="hardAlpha" operator="arithmetic" k2="-1" k3="1"/>
<feColorMatrix type="matrix" values="0 0 0 0 1 0 0 0 0 0.976471 0 0 0 0 0.168627 0 0 0 1 0"/>
<feBlend mode="normal" in2="shape" result="effect1_innerShadow_113_3675"/>
</filter>
<linearGradient id="paint0_linear_113_3675" x1="49.5152" y1="10.0922" x2="107.599" y2="77.4501" gradientUnits="userSpaceOnUse">
<stop stop-color="#F1F1F1"/>
<stop offset="1" stop-color="#E1E1E1"/>
</linearGradient>
<linearGradient id="paint1_linear_113_3675" x1="46.3806" y1="27.7217" x2="46.3806" y2="44.0529" gradientUnits="userSpaceOnUse">
<stop stop-color="#EF7E65"/>
<stop offset="1" stop-color="#771614"/>
</linearGradient>
<linearGradient id="paint2_linear_113_3675" x1="47.8684" y1="31.3296" x2="48.5159" y2="45.3899" gradientUnits="userSpaceOnUse">
<stop stop-color="#FBFF01"/>
<stop offset="1" stop-color="#ED5528"/>
</linearGradient>
<linearGradient id="paint3_linear_113_3675" x1="43.9602" y1="33.8503" x2="44.1683" y2="52.2813" gradientUnits="userSpaceOnUse">
<stop stop-color="#FFF854"/>
<stop offset="0.256068" stop-color="#FFF500"/>
<stop offset="1" stop-color="#FF1700"/>
</linearGradient>
<linearGradient id="paint4_linear_113_3675" x1="46.3883" y1="33.201" x2="45.3019" y2="49.0805" gradientUnits="userSpaceOnUse">
<stop stop-color="#F7DF0A"/>
<stop offset="1" stop-color="#ED4520"/>
</linearGradient>
<linearGradient id="paint5_linear_113_3675" x1="46.375" y1="32.2546" x2="45.7408" y2="50.4313" gradientUnits="userSpaceOnUse">
<stop stop-color="#FF7A00"/>
<stop offset="1" stop-color="#B10000"/>
</linearGradient>
<linearGradient id="paint6_linear_113_3675" x1="46.375" y1="32.2546" x2="46.375" y2="44.8175" gradientUnits="userSpaceOnUse">
<stop stop-color="#CC2901" stop-opacity="0.49"/>
<stop offset="1" stop-color="#CC2901"/>
</linearGradient>
<linearGradient id="paint7_linear_113_3675" x1="46.4111" y1="27.7217" x2="46.4111" y2="31.9309" gradientUnits="userSpaceOnUse">
<stop stop-color="#F7CA0A"/>
<stop offset="1" stop-color="#FA9508"/>
</linearGradient>
<linearGradient id="paint8_linear_113_3675" x1="43.3124" y1="29.3408" x2="43.3124" y2="32.5318" gradientUnits="userSpaceOnUse">
<stop stop-color="#F7CA0A"/>
<stop offset="1" stop-color="#FA9508"/>
</linearGradient>
<linearGradient id="paint9_linear_113_3675" x1="43.3124" y1="29.3408" x2="43.3124" y2="32.5318" gradientUnits="userSpaceOnUse">
<stop stop-color="#F7CA0A"/>
<stop offset="1" stop-color="#FD6E08"/>
</linearGradient>
<linearGradient id="paint10_linear_113_3675" x1="43.3125" y1="29.712" x2="43.3125" y2="31.9917" gradientUnits="userSpaceOnUse">
<stop stop-color="#FAFF00"/>
<stop offset="1" stop-color="#FAB608"/>
</linearGradient>
<linearGradient id="paint11_linear_113_3675" x1="49.0938" y1="29.3408" x2="49.0938" y2="32.5318" gradientUnits="userSpaceOnUse">
<stop stop-color="#F7CA0A"/>
<stop offset="1" stop-color="#FD6E08"/>
</linearGradient>
<linearGradient id="paint12_linear_113_3675" x1="49.0938" y1="29.712" x2="49.0938" y2="31.9917" gradientUnits="userSpaceOnUse">
<stop stop-color="#FAFF00"/>
<stop offset="1" stop-color="#FAB608"/>
</linearGradient>
<linearGradient id="paint13_linear_113_3675" x1="46.4113" y1="27.722" x2="46.4113" y2="31.9306" gradientUnits="userSpaceOnUse">
<stop stop-color="#F7CA0A"/>
<stop offset="1" stop-color="#FD6E08"/>
</linearGradient>
<linearGradient id="paint14_linear_113_3675" x1="46.4113" y1="27.9532" x2="46.4113" y2="31.3292" gradientUnits="userSpaceOnUse">
<stop stop-color="#FAFF00"/>
<stop offset="1" stop-color="#FAB608"/>
</linearGradient>
<linearGradient id="paint15_linear_113_3675" x1="46.3805" y1="32.9946" x2="46.3805" y2="44.0738" gradientUnits="userSpaceOnUse">
<stop stop-color="#FFA800"/>
<stop offset="0.96875" stop-color="#FF4300" stop-opacity="0"/>
</linearGradient>
<linearGradient id="paint16_linear_113_3675" x1="46.3805" y1="32.9946" x2="46.3805" y2="44.0738" gradientUnits="userSpaceOnUse">
<stop stop-color="#FFA800"/>
<stop offset="0.96875" stop-color="#FF4300" stop-opacity="0"/>
</linearGradient>
<linearGradient id="paint17_linear_113_3675" x1="46.3805" y1="32.9946" x2="46.3805" y2="44.0738" gradientUnits="userSpaceOnUse">
<stop stop-color="#FFA800"/>
<stop offset="0.96875" stop-color="#FF4300" stop-opacity="0"/>
</linearGradient>
<linearGradient id="paint18_linear_113_3675" x1="46.3805" y1="32.9946" x2="46.3805" y2="44.0738" gradientUnits="userSpaceOnUse">
<stop stop-color="#FFA800"/>
<stop offset="0.96875" stop-color="#FF4300" stop-opacity="0"/>
</linearGradient>
<linearGradient id="paint19_linear_113_3675" x1="46.3805" y1="32.9946" x2="46.3805" y2="44.0738" gradientUnits="userSpaceOnUse">
<stop stop-color="#FFA800"/>
<stop offset="0.96875" stop-color="#FF4300" stop-opacity="0"/>
</linearGradient>
<linearGradient id="paint20_linear_113_3675" x1="46.3805" y1="32.9946" x2="46.3805" y2="44.0738" gradientUnits="userSpaceOnUse">
<stop stop-color="#FFA800"/>
<stop offset="0.96875" stop-color="#FF4300" stop-opacity="0"/>
</linearGradient>
<linearGradient id="paint21_linear_113_3675" x1="45.54" y1="34.0062" x2="47.2083" y2="42.5299" gradientUnits="userSpaceOnUse">
<stop stop-color="#F68B02"/>
<stop offset="1" stop-color="#CB2901"/>
</linearGradient>
<linearGradient id="paint22_linear_113_3675" x1="45.3115" y1="33.2078" x2="47.4751" y2="44.2619" gradientUnits="userSpaceOnUse">
<stop stop-color="#FFEB00"/>
<stop offset="1" stop-color="#FF8E00"/>
</linearGradient>
<linearGradient id="paint23_linear_113_3675" x1="46.1635" y1="34.0319" x2="46.4989" y2="41.7595" gradientUnits="userSpaceOnUse">
<stop stop-color="white"/>
<stop offset="1" stop-color="#FFE600" stop-opacity="0"/>
</linearGradient>
<linearGradient id="paint24_linear_113_3675" x1="27.142" y1="10.0922" x2="50.9926" y2="15.1539" gradientUnits="userSpaceOnUse">
<stop stop-color="#F1F1F1"/>
<stop offset="1" stop-color="#E1E1E1"/>
</linearGradient>
</defs>
</svg>
