<svg width="170" height="83" viewBox="0 0 170 83" fill="none" xmlns="http://www.w3.org/2000/svg">
<g filter="url(#filter0_d_113_3679)">
<rect x="22" y="22" width="120.098" height="32.968" rx="5.09434" fill="white"/>
<rect x="22" y="22" width="120.098" height="32.968" rx="5.09434" stroke="url(#paint0_linear_113_3679)" stroke-opacity="0.3" stroke-width="1.02168"/>
</g>
<g filter="url(#filter1_d_113_3679)">
<path d="M43.4126 41.7443L42.2755 41.1334C41.7797 40.8656 41.3628 40.4732 41.0663 39.9946L41.0105 39.9013L40.9567 39.8024C40.9244 39.7416 40.8943 39.6801 40.8662 39.6178C40.6952 39.2367 40.5997 38.8248 40.586 38.4041L40.4353 33.5039C40.4189 32.941 40.4596 32.3785 40.726 31.8819C40.7478 31.841 40.785 31.7467 40.8084 31.7078L40.9106 31.5745V31.5745C41.1168 31.2532 41.3526 30.9618 41.375 30.5806L41.4066 30.0408C41.4154 29.8901 41.4374 29.7404 41.4722 29.5935L41.4814 29.5545L41.5087 29.4741V29.4741C41.5346 29.34 41.6299 29.2263 41.723 29.1263C41.7846 29.0601 41.8627 28.9922 41.9487 28.9285C41.9926 28.9037 42.0366 28.8835 42.0804 28.8672C42.5016 28.7105 42.9639 28.9245 43.3549 29.1461L43.907 29.4589C44.0158 29.5206 44.1434 29.5419 44.2644 29.5104C45.384 29.2189 46.759 28.3726 47.8525 28.339C48.1772 28.329 48.5002 28.3683 48.8107 28.4545C50.4519 28.9086 51.9652 29.7013 53.5572 30.3099C54.0529 30.577 54.5159 31.1191 54.8124 31.5977C55.1088 32.077 55.1712 32.6521 55.1894 33.2149L55.1894 35.5778C55.1894 36.037 55.2612 36.3236 55.5836 36.6505V36.6505C55.7727 36.8422 55.983 37.2821 55.983 37.5514L55.983 40.8519C55.9913 41.1209 55.1268 41.676 54.8498 41.7769C54.8239 41.7863 54.8005 41.7887 54.7735 41.7832V41.7832C54.7021 41.7686 54.6208 41.7677 54.5582 41.7304L53.6383 41.1818C53.5359 41.1208 53.408 41.1218 53.3067 41.1846V41.1846C53.1064 41.3086 53.1047 41.5993 53.3035 41.7256L53.8578 42.0778C53.9928 42.1492 54.1064 42.2554 54.1867 42.3854C54.267 42.5154 54.311 42.6646 54.3142 42.8179L54.3144 42.8255C54.3167 42.8934 54.3168 43.0842 54.312 43.3001C54.3081 43.4834 54.3008 43.6848 54.2882 43.8468C54.2828 43.917 54.2752 43.947 54.2677 43.9979C54.2649 44.0523 54.2479 44.0863 54.2395 44.1052C54.2359 44.1178 54.2227 44.1319 54.2187 44.1397C54.1419 44.2635 54.1598 44.2188 54.0294 44.2984L49.9972 46.8837C49.9315 46.9245 49.8645 46.9627 49.7966 46.9995C49.7197 47.0407 49.6412 47.0792 49.5615 47.1142C49.3452 47.2104 49.1203 47.2846 48.8897 47.3368L48.7689 47.362L48.6783 47.378C48.5249 47.4028 48.3696 47.418 48.2133 47.4228C47.5817 47.4422 47.0677 47.3609 46.5111 47.061L42.3717 44.8302C42.2376 44.758 42.1249 44.6512 42.0448 44.5218C42.0077 44.4619 41.9723 44.207 41.9446 43.9359C41.9125 43.6212 41.8905 43.2847 41.888 43.203C41.8833 43.0505 41.9188 42.8995 41.9908 42.7648C42.0628 42.6301 42.1687 42.5172 42.298 42.4362L43.4126 41.7443Z" fill="url(#paint1_linear_113_3679)"/>
<path d="M43.4126 41.7443L42.2755 41.1334C41.7797 40.8656 41.3628 40.4732 41.0663 39.9946L41.0105 39.9013L40.9567 39.8024C40.9244 39.7416 40.8943 39.6801 40.8662 39.6178C40.6952 39.2367 40.5997 38.8248 40.586 38.4041L40.4353 33.5039C40.4189 32.941 40.4596 32.3785 40.726 31.8819C40.7478 31.841 40.785 31.7467 40.8084 31.7078L40.9106 31.5745V31.5745C41.1168 31.2532 41.3526 30.9618 41.375 30.5806L41.4066 30.0408C41.4154 29.8901 41.4374 29.7404 41.4722 29.5935L41.4814 29.5545L41.5087 29.4741V29.4741C41.5346 29.34 41.6299 29.2263 41.723 29.1263C41.7846 29.0601 41.8627 28.9922 41.9487 28.9285C41.9926 28.9037 42.0366 28.8835 42.0804 28.8672C42.5016 28.7105 42.9639 28.9245 43.3549 29.1461L43.907 29.4589C44.0158 29.5206 44.1434 29.5419 44.2644 29.5104C45.384 29.2189 46.759 28.3726 47.8525 28.339C48.1772 28.329 48.5002 28.3683 48.8107 28.4545C50.4519 28.9086 51.9652 29.7013 53.5572 30.3099C54.0529 30.577 54.5159 31.1191 54.8124 31.5977C55.1088 32.077 55.1712 32.6521 55.1894 33.2149L55.1894 35.5778C55.1894 36.037 55.2612 36.3236 55.5836 36.6505V36.6505C55.7727 36.8422 55.983 37.2821 55.983 37.5514L55.983 40.8519C55.9913 41.1209 55.1268 41.676 54.8498 41.7769C54.8239 41.7863 54.8005 41.7887 54.7735 41.7832V41.7832C54.7021 41.7686 54.6208 41.7677 54.5582 41.7304L53.6383 41.1818C53.5359 41.1208 53.408 41.1218 53.3067 41.1846V41.1846C53.1064 41.3086 53.1047 41.5993 53.3035 41.7256L53.8578 42.0778C53.9928 42.1492 54.1064 42.2554 54.1867 42.3854C54.267 42.5154 54.311 42.6646 54.3142 42.8179L54.3144 42.8255C54.3167 42.8934 54.3168 43.0842 54.312 43.3001C54.3081 43.4834 54.3008 43.6848 54.2882 43.8468C54.2828 43.917 54.2752 43.947 54.2677 43.9979C54.2649 44.0523 54.2479 44.0863 54.2395 44.1052C54.2359 44.1178 54.2227 44.1319 54.2187 44.1397C54.1419 44.2635 54.1598 44.2188 54.0294 44.2984L49.9972 46.8837C49.9315 46.9245 49.8645 46.9627 49.7966 46.9995C49.7197 47.0407 49.6412 47.0792 49.5615 47.1142C49.3452 47.2104 49.1203 47.2846 48.8897 47.3368L48.7689 47.362L48.6783 47.378C48.5249 47.4028 48.3696 47.418 48.2133 47.4228C47.5817 47.4422 47.0677 47.3609 46.5111 47.061L42.3717 44.8302C42.2376 44.758 42.1249 44.6512 42.0448 44.5218C42.0077 44.4619 41.9723 44.207 41.9446 43.9359C41.9125 43.6212 41.8905 43.2847 41.888 43.203C41.8833 43.0505 41.9188 42.8995 41.9908 42.7648C42.0628 42.6301 42.1687 42.5172 42.298 42.4362L43.4126 41.7443Z" fill="#C42222" fill-opacity="0.43"/>
<path d="M47.8359 27.807C48.2144 27.7954 48.591 27.8412 48.9529 27.9417L49.2713 28.0345C50.0106 28.2592 50.7207 28.5426 51.4102 28.8343C52.0087 29.0875 52.5829 29.3423 53.1635 29.5806L53.7471 29.8127L53.7797 29.8244L53.8095 29.8411C54.4225 30.1714 54.9458 30.8028 55.2647 31.3176L55.392 31.5491C55.6558 32.0977 55.705 32.6962 55.7212 33.198L55.7217 33.2146L55.7221 35.578C55.7221 35.7842 55.7388 35.9025 55.769 35.9908C55.7963 36.0704 55.8452 36.1581 55.9625 36.277C56.1164 36.433 56.2476 36.6513 56.3387 36.8516C56.4274 37.0466 56.5156 37.3056 56.5156 37.5516L56.5155 40.852L56.5135 40.8511C56.5147 41.0157 56.456 41.1479 56.4108 41.2275C56.3605 41.3159 56.2978 41.3936 56.24 41.4565C56.1239 41.5825 55.9784 41.7026 55.8404 41.8048C55.6405 41.9529 55.403 42.1023 55.2086 42.1994L55.0322 42.2772C54.9438 42.3094 54.8461 42.3238 54.7422 42.3144C54.805 42.4692 54.842 42.6335 54.8461 42.8017L54.8463 42.8076L54.8442 43.3118C54.8422 43.405 54.8397 43.5048 54.8356 43.6032L54.819 43.888C54.8117 43.9815 54.7966 44.0603 54.7944 44.0754L54.7934 44.0744C54.7869 44.1319 54.7769 44.183 54.7629 44.2268C54.7468 44.2774 54.7255 44.3216 54.7258 44.3208C54.7156 44.3442 54.7064 44.3635 54.6992 44.3763C54.6943 44.3849 54.6886 44.3922 54.6842 44.3992L54.6833 44.4012L54.6712 44.4201C54.67 44.4218 54.6694 44.4237 54.6684 44.4251C54.6503 44.4542 54.6248 44.4941 54.5964 44.5309C54.5582 44.5805 54.5079 44.6324 54.4388 44.6784C54.4101 44.6975 54.385 44.7112 54.3707 44.7186C54.361 44.7236 54.344 44.7321 54.3418 44.7332C54.3334 44.7374 54.3237 44.7427 54.3072 44.7528L50.284 47.3318L50.2783 47.3359C50.2011 47.3839 50.1241 47.4277 50.0498 47.468L50.0479 47.469C49.9599 47.5161 49.8688 47.5604 49.7755 47.6015L49.7745 47.6005C49.5268 47.7104 49.2704 47.7961 49.0075 47.8557L48.9988 47.8579L48.8775 47.8831L48.8697 47.8843L48.861 47.8865L48.7706 47.902L48.7638 47.9032C48.5883 47.9316 48.4097 47.9493 48.2299 47.9548C47.6189 47.9736 47.0729 47.9066 46.504 47.6513L46.2589 47.5298L42.119 45.2986C41.9562 45.2109 41.8133 45.0925 41.698 44.9511L41.5918 44.8019C41.534 44.7085 41.5096 44.6068 41.5006 44.5702C41.4869 44.5141 41.4754 44.4519 41.4659 44.3925C41.4466 44.2728 41.4297 44.1299 41.4154 43.9906L41.4154 43.9896C41.3826 43.6683 41.3586 43.3188 41.3555 43.2196C41.348 42.9738 41.4057 42.7305 41.5214 42.5139C41.6376 42.2965 41.808 42.1146 42.0151 41.9848L42.0171 41.9838L42.3488 41.7772L42.0239 41.6026L42.0229 41.6016C41.4457 41.2898 40.9599 40.8328 40.6143 40.2752L40.6091 40.2675L40.5535 40.1744L40.5483 40.1648L40.5432 40.1562L40.4893 40.0572L40.4862 40.0514L40.3809 39.8368L40.3809 39.8358C40.2066 39.4471 40.0993 39.0309 40.0646 38.6047L40.0541 38.4214L39.9033 33.5194L39.8993 33.2948C39.8994 32.7631 39.9644 32.1756 40.2565 31.6307C40.2574 31.6288 40.2586 31.6262 40.2602 31.6228C40.266 31.6101 40.2716 31.5968 40.2803 31.5772C40.2879 31.5601 40.2976 31.5382 40.3077 31.5168C40.3166 31.4981 40.3325 31.4659 40.3521 31.4333L40.3679 31.4074L40.3857 31.3844L40.4806 31.2594C40.5954 31.082 40.6723 30.9781 40.7444 30.8458C40.81 30.7253 40.8387 30.6347 40.8437 30.5496L40.875 30.0094L40.9028 29.7388C40.916 29.6488 40.9331 29.5591 40.9541 29.4705L40.9637 29.4321L40.9688 29.4076L40.9769 29.3839L41.0047 29.3029C41.0778 29.0391 41.2523 28.8499 41.333 28.7632L41.4763 28.626C41.5266 28.582 41.5789 28.5401 41.6317 28.501L41.6584 28.4816L41.6863 28.4651L41.7911 28.4121C41.8257 28.396 41.8599 28.3807 41.8943 28.3679L42.0259 28.3267C42.3306 28.2469 42.625 28.2819 42.8738 28.3524C43.1543 28.432 43.4136 28.5675 43.6177 28.6832L44.1557 28.9881C44.6638 28.8522 45.224 28.5963 45.8678 28.3346C46.4827 28.0846 47.1819 27.8272 47.8359 27.807Z" stroke="#820604" stroke-width="1.06461"/>
</g>
<path d="M54.3822 42.7115C54.3885 42.8644 54.381 43.9034 54.3089 44.0382C54.2368 44.1731 54.1299 44.286 53.9994 44.3652L50.0051 46.8465C49.4679 47.1801 48.8526 47.366 48.2211 47.3854C47.5896 47.4048 46.9641 47.2571 46.4074 46.9572L42.2681 44.7261C42.1341 44.6538 42.0213 44.5473 41.9412 44.4175C41.8611 44.2876 41.7892 43.2517 41.7845 43.099C41.7798 42.9464 41.8152 42.7952 41.8872 42.6606C41.9591 42.5261 42.0651 42.413 42.1945 42.3325L46.1889 39.8513C46.726 39.5175 47.3413 39.3316 47.9728 39.3122C48.6043 39.2928 49.2299 39.4405 49.7865 39.7406L53.9258 41.9717C54.0609 42.0427 54.1745 42.1489 54.2548 42.279C54.3351 42.4091 54.3791 42.5585 54.3822 42.7115Z" fill="#E57904"/>
<path d="M54.3822 42.7115C54.3885 42.8644 54.381 43.9034 54.3089 44.0382C54.2368 44.1731 54.1299 44.286 53.9994 44.3652L50.0051 46.8465C49.4679 47.1801 48.8526 47.366 48.2211 47.3854C47.5896 47.4048 46.9641 47.2571 46.4074 46.9572L42.2681 44.7261C42.1341 44.6538 42.0213 44.5473 41.9412 44.4175C41.8611 44.2876 41.7892 43.2517 41.7845 43.099C41.7798 42.9464 41.8152 42.7952 41.8872 42.6606C41.9591 42.5261 42.0651 42.413 42.1945 42.3325L46.1889 39.8513C46.726 39.5175 47.3413 39.3316 47.9728 39.3122C48.6043 39.2928 49.2299 39.4405 49.7865 39.7406L53.9258 41.9717C54.0609 42.0427 54.1745 42.1489 54.2548 42.279C54.3351 42.4091 54.3791 42.5585 54.3822 42.7115Z" fill="url(#paint2_linear_113_3679)"/>
<path fill-rule="evenodd" clip-rule="evenodd" d="M42.9412 28.741C41.7165 28.5596 41.499 29.5006 41.5077 29.7848L41.9828 32.2251C41.9919 32.521 42.1484 32.7937 42.4 32.9504L55.0602 40.8528C55.1858 40.9308 55.3304 40.9201 55.4388 40.8515C55.5382 40.7881 55.6072 40.6764 55.603 40.5405L55.4825 36.6217C55.4734 36.3258 55.3169 36.0531 55.0653 35.8964L42.9412 28.741ZM43.5439 30.358C43.3032 30.2073 42.9918 30.3861 43.0006 30.6696L43.0422 32.0246C43.0513 32.3206 43.2073 32.5919 43.4582 32.7493L53.3584 38.9501C53.4919 39.0334 53.6471 39.0161 53.7574 38.9357C53.8459 38.8706 53.9056 38.7647 53.9017 38.6385L53.86 37.2835C53.8509 36.9876 53.695 36.7163 53.4441 36.5589L43.5439 30.358Z" fill="#FFC40E"/>
<path d="M41.4404 30.0101C41.4565 29.6206 41.879 29.3865 42.2176 29.5797L54.3444 36.5032C54.6126 36.6563 54.7817 36.9379 54.7913 37.2466L54.9111 41.1432C54.9196 41.4265 54.6092 41.605 54.3687 41.455L41.7435 33.5747C41.4728 33.4057 41.3135 33.1043 41.3265 32.7854L41.4404 30.0101ZM42.9355 30.7799C42.6949 30.6292 42.3834 30.8079 42.3921 31.0917L42.4338 32.4465C42.4429 32.7423 42.599 33.0143 42.8498 33.1714L52.7502 39.3719C52.9908 39.5225 53.3023 39.3439 53.2936 39.0601L53.2519 37.7053C53.2427 37.4095 53.0866 37.1375 52.8359 36.9804L42.9355 30.7799Z" fill="#FD9800"/>
<mask id="mask0_113_3679" style="mask-type:alpha" maskUnits="userSpaceOnUse" x="41" y="39" width="14" height="9">
<path d="M54.3822 42.7115C54.3885 42.8644 54.381 43.9034 54.3089 44.0382C54.2368 44.1731 54.1299 44.286 53.9994 44.3652L50.0051 46.8465C49.4679 47.1801 48.8526 47.366 48.2211 47.3854C47.5896 47.4048 46.9641 47.2571 46.4074 46.9572L42.2681 44.7261C42.1341 44.6538 42.0213 44.5473 41.9412 44.4175C41.8611 44.2876 41.7892 43.2517 41.7845 43.099C41.7798 42.9464 41.8152 42.7952 41.8872 42.6606C41.9591 42.5261 42.0651 42.413 42.1945 42.3325L46.1889 39.8513C46.726 39.5175 47.3413 39.3316 47.9728 39.3122C48.6043 39.2928 49.2299 39.4405 49.7865 39.7406L53.9258 41.9717C54.0609 42.0427 54.1745 42.1489 54.2548 42.279C54.3351 42.4091 54.3791 42.5585 54.3822 42.7115Z" fill="#E57904"/>
<path d="M54.3822 42.7115C54.3885 42.8644 54.381 43.9034 54.3089 44.0382C54.2368 44.1731 54.1299 44.286 53.9994 44.3652L50.0051 46.8465C49.4679 47.1801 48.8526 47.366 48.2211 47.3854C47.5896 47.4048 46.9641 47.2571 46.4074 46.9572L42.2681 44.7261C42.1341 44.6538 42.0213 44.5473 41.9412 44.4175C41.8611 44.2876 41.7892 43.2517 41.7845 43.099C41.7798 42.9464 41.8152 42.7952 41.8872 42.6606C41.9591 42.5261 42.0651 42.413 42.1945 42.3325L46.1889 39.8513C46.726 39.5175 47.3413 39.3316 47.9728 39.3122C48.6043 39.2928 49.2299 39.4405 49.7865 39.7406L53.9258 41.9717C54.0609 42.0427 54.1745 42.1489 54.2548 42.279C54.3351 42.4091 54.3791 42.5585 54.3822 42.7115Z" fill="url(#paint3_linear_113_3679)"/>
</mask>
<g mask="url(#mask0_113_3679)">
<path d="M47.8624 42.7125L57.6306 40.3906L57.6306 48.1919L48.4948 47.9031L48.4948 46.7174L47.8624 42.7125Z" fill="url(#paint4_linear_113_3679)"/>
</g>
<g filter="url(#filter2_i_113_3679)">
<path d="M54.3822 42.7115C54.3885 42.8644 54.381 43.9034 54.3089 44.0382C54.2368 44.1731 54.1299 44.286 53.9994 44.3652L50.0051 46.8465C49.4679 47.1801 48.8526 47.366 48.2211 47.3854C47.5896 47.4048 46.9641 47.2571 46.4074 46.9572L42.2681 44.7261C42.1341 44.6538 42.0213 44.5473 41.9412 44.4175C41.8611 44.2876 41.7892 43.2517 41.7845 43.099C41.7798 42.9464 41.8152 42.7952 41.8872 42.6606C41.9591 42.5261 42.0651 42.413 42.1945 42.3325L46.1889 39.8513C46.726 39.5175 47.3413 39.3316 47.9728 39.3122C48.6043 39.2928 49.2299 39.4405 49.7865 39.7406L53.9258 41.9717C54.0609 42.0427 54.1745 42.1489 54.2548 42.279C54.3351 42.4091 54.3791 42.5585 54.3822 42.7115Z" fill="#D9D9D9" fill-opacity="0.01"/>
</g>
<g filter="url(#filter3_d_113_3679)">
<path d="M47.6021 28.3591C49.5215 28.3 51.7676 29.6069 53.5456 30.2124C54.0414 30.4797 54.4586 30.8727 54.755 31.3515C55.0515 31.8304 55.2166 32.3792 55.2348 32.942L55.3856 37.8421C55.4019 38.4048 55.2707 38.9621 55.0044 39.4581C54.7379 39.9542 54.3456 40.3721 53.8673 40.6694L49.6985 43.2499C49.2195 43.5463 48.671 43.7112 48.108 43.7287C47.545 43.7459 46.9874 43.6149 46.4911 43.3486L42.1716 41.0291C41.676 40.7618 41.2596 40.3687 40.9632 39.8899C40.6668 39.4112 40.5007 38.8633 40.4824 38.3005L40.3317 33.4004C40.3153 32.8375 40.4474 32.2796 40.7138 31.7834C40.7494 31.7172 40.7861 31.6518 40.8261 31.5885C40.8456 31.526 40.8765 31.4649 40.9182 31.4078C40.9591 31.3518 41.0101 31.3006 41.0688 31.2547C41.2898 30.9876 41.5532 30.7566 41.85 30.5721C43.5661 29.8569 45.7002 28.4177 47.6021 28.3591Z" fill="url(#paint5_linear_113_3679)"/>
</g>
<path d="M41.849 34.1271C40.9177 33.6843 40.2256 32.6976 40.7134 31.7892V31.7892C40.9799 31.293 41.3719 30.8755 41.8503 30.5782C42.3464 30.3715 42.8774 30.1042 43.4276 29.8272C44.7808 29.146 46.2501 28.4064 47.6022 28.3648C48.9634 28.3229 50.4886 28.968 51.8947 29.5628C52.4715 29.8068 53.0283 30.0424 53.5456 30.2185C54.0413 30.4858 54.4582 30.8784 54.7547 31.3573V31.3573C55.3005 32.239 54.6834 33.2778 53.7939 33.8109L50.7807 35.6165C49.9641 36.0123 49.0309 36.2362 48.0749 36.2656C47.1188 36.295 46.1736 36.1289 45.3342 35.784L41.849 34.1271Z" fill="url(#paint6_linear_113_3679)"/>
<path d="M55.279 34.955C55.2952 35.4114 55.1638 35.8637 54.8973 36.2659C54.6307 36.6681 54.2378 37.0063 53.7594 37.2473L49.5913 39.3398C49.1122 39.5801 48.5629 39.7145 47.9998 39.7288C47.4369 39.7427 46.8795 39.6364 46.3834 39.4206L43.4126 38.1702C42.917 37.9536 42.5001 37.6355 42.2038 37.2474C42.1392 37.1629 42.0817 37.0752 42.0297 36.9858C42.0415 36.9911 42.053 36.9972 42.0649 37.0024L46.3829 38.8825C46.8792 39.0984 47.4372 39.2047 48.0003 39.1907C48.5634 39.1764 49.1118 39.042 49.5908 38.8017L53.76 36.7092C54.2382 36.4683 54.6303 36.1299 54.8968 35.7278C55.1099 35.4062 55.234 35.0523 55.268 34.6904L55.279 34.955Z" fill="#D35F00"/>
<path d="M46.8085 32.9358L49.0796 32.8659L49.3102 40.3634C49.3227 40.7714 49.0021 41.1123 48.5941 41.1249L47.8006 41.1493C47.3926 41.1618 47.0516 40.8412 47.0391 40.4332L46.8085 32.9358Z" fill="url(#paint7_linear_113_3679)"/>
<path opacity="0.4" d="M52.6228 30.5248C52.6264 30.5999 52.598 30.6748 52.5406 30.7417C52.4832 30.8086 52.3988 30.8651 52.2964 30.9052L49.1609 32.1601C48.7392 32.3288 48.2579 32.4256 47.7655 32.4407C47.2731 32.4559 46.7868 32.3889 46.3556 32.2464L43.1488 31.1865C43.0449 31.1522 42.958 31.1009 42.8967 31.0378C42.8354 30.9746 42.8019 30.9019 42.7996 30.827C42.7973 30.752 42.8263 30.6774 42.8836 30.6106C42.9409 30.5438 43.0245 30.4873 43.126 30.4466L46.2616 29.1917C46.6833 29.0229 47.1645 28.9261 47.6569 28.9109C48.1494 28.8958 48.6357 28.9629 49.0669 29.1054L52.2737 30.1653C52.3783 30.199 52.466 30.2501 52.5274 30.3133C52.5888 30.3766 52.6218 30.4496 52.6228 30.5248Z" fill="url(#paint8_linear_113_3679)"/>
<path opacity="0.45" d="M47.6914 30.0328C48.1838 30.0177 48.67 30.085 49.1011 30.2275L51.7788 31.1119L49.161 32.1602C48.7393 32.329 48.2578 32.4258 47.7654 32.4409C47.273 32.456 46.7869 32.3887 46.3557 32.2462L43.678 31.3609L46.2958 30.3135C46.7174 30.1447 47.199 30.048 47.6914 30.0328Z" fill="#D00000"/>
<path d="M40.4116 36.0825L41.5536 36.6684L41.3189 37.1165L40.4272 36.6224L40.4116 36.0825Z" fill="#D35F00"/>
<g filter="url(#filter4_d_113_3679)">
<path d="M42.992 35.0953C43.3891 34.7371 44.0138 34.8264 44.2947 35.2815L46.369 38.6426C46.6081 39.03 46.5023 39.5368 46.1282 39.7963L44.6409 40.8277C44.2443 41.1027 43.6989 40.9959 43.4353 40.5916L41.4146 37.4925C41.1843 37.1393 41.2453 36.671 41.5583 36.3886L42.992 35.0953Z" fill="#D35F00"/>
<path d="M43.0169 35.1222C43.3971 34.7797 43.9951 34.8651 44.2639 35.3007L46.3384 38.6618C46.5671 39.0327 46.465 39.518 46.1069 39.7664L44.62 40.798C44.2404 41.0611 43.7183 40.9587 43.4659 40.5718L41.4452 37.4721C41.225 37.134 41.2835 36.6862 41.5831 36.4159L43.0169 35.1222Z" stroke="black" stroke-opacity="0.24" stroke-width="0.0731564"/>
</g>
<g filter="url(#filter5_d_113_3679)">
<ellipse cx="43.6707" cy="36.1199" rx="0.459266" ry="0.642421" transform="rotate(144.144 43.6707 36.1199)" fill="#FDB90E"/>
</g>
<g filter="url(#filter6_d_113_3679)">
<ellipse cx="43.8021" cy="37.9299" rx="0.459266" ry="0.642421" transform="rotate(144.144 43.8021 37.9299)" fill="#FDB90E"/>
</g>
<g filter="url(#filter7_d_113_3679)">
<ellipse cx="42.2572" cy="37.2204" rx="0.459266" ry="0.642421" transform="rotate(144.144 42.2572 37.2204)" fill="#FDB90E"/>
</g>
<g filter="url(#filter8_d_113_3679)">
<ellipse cx="43.8225" cy="39.7458" rx="0.459266" ry="0.642421" transform="rotate(144.144 43.8225 39.7458)" fill="#FDB90E"/>
</g>
<g filter="url(#filter9_d_113_3679)">
<ellipse cx="45.4044" cy="38.6363" rx="0.459266" ry="0.642421" transform="rotate(144.144 45.4044 38.6363)" fill="#FDB90E"/>
</g>
<rect x="51.8102" y="36.0425" width="1.20063" height="4.1059" fill="black" fill-opacity="0.22"/>
<path d="M52.0679 39.3547C51.7441 39.5637 51.7545 40.0406 52.0869 40.2354L54.7085 41.7717C54.9492 41.9219 55.9936 41.1671 55.9849 40.8835L55.9849 37.3409C55.9758 37.0445 55.7889 36.2824 55.0213 35.9288L53.4535 35.1736C53.198 35.0505 52.9028 35.0389 52.6384 35.1416L52.22 35.304C51.378 35.6309 51.6307 36.8837 52.5337 36.8586L53.6299 36.828C53.8808 36.9852 54.0368 37.2571 54.0459 37.553L54.0876 38.9075C54.0963 39.1913 53.4517 39.134 53.2111 38.9833V38.9833C53.024 38.8785 52.7942 38.8857 52.6141 39.002L52.0679 39.3547Z" fill="url(#paint9_linear_113_3679)"/>
<g filter="url(#filter10_d_113_3679)">
<path d="M51.7591 39.8381C51.7643 40.0059 51.8559 40.1592 52.0013 40.2433L54.5541 41.7191C54.7948 41.8692 55.1057 41.6903 55.0969 41.4068L54.9764 37.4881C54.9673 37.1914 54.8108 36.9194 54.5592 36.762L52.5718 35.6084C52.1534 35.3656 51.6311 35.6771 51.646 36.1606V36.1606C51.6528 36.3815 51.7773 36.5819 51.9724 36.6858L53.0212 37.2443C53.2721 37.4017 53.4281 37.6737 53.4372 37.9697L53.4789 39.324C53.4876 39.6075 53.1762 39.7863 52.9355 39.6356L52.468 39.3925C52.1391 39.2216 51.7477 39.4676 51.7591 39.8381V39.8381Z" fill="#E0660D"/>
<path d="M51.7591 39.8381C51.7643 40.0059 51.8559 40.1592 52.0013 40.2433L54.5541 41.7191C54.7948 41.8692 55.1057 41.6903 55.0969 41.4068L54.9764 37.4881C54.9673 37.1914 54.8108 36.9194 54.5592 36.762L52.5718 35.6084C52.1534 35.3656 51.6311 35.6771 51.646 36.1606V36.1606C51.6528 36.3815 51.7773 36.5819 51.9724 36.6858L53.0212 37.2443C53.2721 37.4017 53.4281 37.6737 53.4372 37.9697L53.4789 39.324C53.4876 39.6075 53.1762 39.7863 52.9355 39.6356L52.468 39.3925C52.1391 39.2216 51.7477 39.4676 51.7591 39.8381V39.8381Z" fill="url(#paint10_linear_113_3679)"/>
</g>
<path d="M70.3197 41.484V36.381H68.2474V35.3967H73.5662V36.381H71.4853V41.484H70.3197ZM76.1685 41.5704C75.708 41.5704 75.308 41.4783 74.9683 41.2941C74.6345 41.1098 74.3754 40.8508 74.1912 40.5169C74.0128 40.1773 73.9236 39.783 73.9236 39.334C73.9236 38.885 74.0128 38.4936 74.1912 38.1597C74.3754 37.8259 74.6345 37.5668 74.9683 37.3826C75.308 37.1984 75.708 37.1063 76.1685 37.1063C76.6233 37.1063 77.0176 37.1984 77.3514 37.3826C77.6911 37.5668 77.9501 37.8259 78.1286 38.1597C78.3128 38.4936 78.4049 38.885 78.4049 39.334C78.4049 39.783 78.3128 40.1773 78.1286 40.5169C77.9501 40.8508 77.6911 41.1098 77.3514 41.2941C77.0176 41.4783 76.6233 41.5704 76.1685 41.5704ZM76.1599 40.6465C76.511 40.6465 76.7845 40.5313 76.9802 40.3011C77.1816 40.0708 77.2824 39.7456 77.2824 39.3254C77.2824 38.9109 77.1816 38.5915 76.9802 38.367C76.7845 38.1425 76.5139 38.0302 76.1685 38.0302C75.8174 38.0302 75.5411 38.1425 75.3396 38.367C75.1439 38.5915 75.046 38.9109 75.046 39.3254C75.046 39.7456 75.1468 40.0708 75.3482 40.3011C75.5497 40.5313 75.8203 40.6465 76.1599 40.6465ZM81.5428 41.5704C81.1859 41.5704 80.8866 41.5042 80.6448 41.3718C80.4031 41.2394 80.2189 41.0408 80.0922 40.776C79.9713 40.5054 79.9109 40.1687 79.9109 39.7657V37.1927H81.0593V39.7398C81.0593 39.9298 81.0852 40.0939 81.137 40.232C81.1946 40.3644 81.2838 40.4651 81.4047 40.5342C81.5255 40.6033 81.6781 40.6378 81.8623 40.6378C82.058 40.6378 82.2336 40.5918 82.389 40.4997C82.5502 40.4018 82.6739 40.2723 82.7603 40.1111C82.8524 39.9442 82.8984 39.7629 82.8984 39.5672V37.1927H84.0468V41.484H82.9848V40.5947H83.002C82.8639 40.9055 82.6711 41.1473 82.4235 41.32C82.176 41.4869 81.8824 41.5704 81.5428 41.5704ZM85.7924 41.484V37.1927H86.8199V38.2461C86.912 37.9122 87.0789 37.6503 87.3207 37.4603C87.5625 37.2646 87.8704 37.1524 88.2446 37.1236L88.6936 37.0977L88.7886 38.1252L88.0374 38.1856C87.6805 38.2202 87.407 38.3353 87.2171 38.531C87.0329 38.7267 86.9408 38.98 86.9408 39.2909V41.484H85.7924ZM90.0377 41.484V37.1927H91.0997V38.0561H91.0911C91.2292 37.751 91.4336 37.5179 91.7041 37.3567C91.9804 37.1898 92.2884 37.1063 92.628 37.1063C92.9734 37.1063 93.2641 37.1725 93.5001 37.3049C93.7361 37.4373 93.9117 37.6388 94.0268 37.9093C94.1477 38.1799 94.2081 38.5195 94.2081 38.9282V41.484H93.0684V38.98C93.0684 38.7728 93.0396 38.6001 92.982 38.4619C92.9302 38.3238 92.8439 38.2202 92.723 38.1511C92.6079 38.0763 92.4553 38.0389 92.2654 38.0389C92.0581 38.0389 91.8711 38.0878 91.7041 38.1856C91.5372 38.2777 91.4077 38.4073 91.3156 38.5742C91.2292 38.7354 91.1861 38.9224 91.1861 39.1354V41.484H90.0377ZM97.4206 41.5704C97.1097 41.5704 96.8277 41.5099 96.5744 41.389C96.3269 41.2681 96.1311 41.107 95.9872 40.9055C95.8491 40.6983 95.78 40.468 95.78 40.2147C95.78 39.8981 95.8692 39.6449 96.0477 39.4549C96.2261 39.2592 96.5053 39.1153 96.8852 39.0232C97.2651 38.9311 97.7602 38.885 98.3704 38.885H98.9316V39.5758H98.4135C98.1487 39.5758 97.9214 39.5844 97.7314 39.6017C97.5414 39.619 97.3831 39.6506 97.2565 39.6967C97.1356 39.737 97.0464 39.7945 96.9888 39.8694C96.9313 39.9442 96.9025 40.0392 96.9025 40.1543C96.9025 40.35 96.9744 40.4997 97.1184 40.6033C97.2623 40.7011 97.4522 40.7501 97.6882 40.7501C97.8897 40.7501 98.071 40.704 98.2322 40.6119C98.3991 40.5141 98.5315 40.3874 98.6294 40.232C98.733 40.0708 98.7848 39.8953 98.7848 39.7053V38.7555C98.7848 38.4677 98.7013 38.2662 98.5344 38.1511C98.3732 38.036 98.1257 37.9784 97.7918 37.9784C97.5558 37.9784 97.3112 38.0129 97.0579 38.082C96.8104 38.1453 96.5485 38.2547 96.2722 38.4101L95.9613 37.6158C96.1455 37.5064 96.3441 37.4143 96.5571 37.3395C96.7759 37.2646 97.0032 37.2071 97.2392 37.1668C97.4752 37.1265 97.7084 37.1063 97.9386 37.1063C98.3531 37.1063 98.7042 37.1696 98.992 37.2963C99.2799 37.4229 99.5015 37.6158 99.6569 37.8748C99.8123 38.1338 99.89 38.4735 99.89 38.8937V41.484H98.8971V40.5947C98.8222 40.7846 98.7186 40.9544 98.5862 41.1041C98.4538 41.248 98.2898 41.3631 98.094 41.4495C97.9041 41.5301 97.6796 41.5704 97.4206 41.5704ZM101.64 41.484V37.1927H102.685V38.0734H102.676C102.757 37.8834 102.866 37.7165 103.004 37.5726C103.148 37.4229 103.315 37.3078 103.505 37.2272C103.695 37.1466 103.905 37.1063 104.135 37.1063C104.487 37.1063 104.777 37.1927 105.008 37.3654C105.244 37.5323 105.402 37.7654 105.482 38.0648H105.456C105.572 37.7885 105.756 37.5611 106.009 37.3826C106.268 37.1984 106.582 37.1063 106.95 37.1063C107.278 37.1063 107.555 37.1725 107.779 37.3049C108.004 37.4373 108.173 37.6388 108.289 37.9093C108.404 38.1741 108.461 38.5137 108.461 38.9282V41.484H107.322V38.9714C107.322 38.6548 107.267 38.4216 107.157 38.272C107.054 38.1166 106.867 38.0389 106.596 38.0389C106.395 38.0389 106.219 38.0849 106.07 38.177C105.92 38.2691 105.805 38.3986 105.724 38.5656C105.644 38.7267 105.603 38.9167 105.603 39.1354V41.484H104.481V38.9714C104.481 38.6605 104.42 38.4274 104.299 38.272C104.184 38.1166 104.003 38.0389 103.756 38.0389C103.554 38.0389 103.378 38.0907 103.229 38.1943C103.085 38.2921 102.973 38.4216 102.892 38.5828C102.811 38.744 102.771 38.9253 102.771 39.1268V41.484H101.64ZM112.447 41.5704C111.923 41.5704 111.477 41.4811 111.108 41.3027C110.74 41.1185 110.461 40.8594 110.271 40.5256C110.081 40.1917 109.986 39.7974 109.986 39.3427C109.986 38.9109 110.075 38.5281 110.254 38.1943C110.438 37.8546 110.697 37.5899 111.031 37.3999C111.365 37.2042 111.756 37.1063 112.205 37.1063C112.625 37.1063 112.988 37.1955 113.293 37.374C113.604 37.5524 113.843 37.8057 114.01 38.1338C114.176 38.4619 114.26 38.8562 114.26 39.3168V39.6535H110.893V38.9627H113.44L113.302 39.1095C113.302 38.7123 113.207 38.4159 113.017 38.2202C112.832 38.0187 112.57 37.918 112.231 37.918C111.995 37.918 111.788 37.9698 111.609 38.0734C111.436 38.1712 111.301 38.3152 111.203 38.5051C111.105 38.6951 111.057 38.9311 111.057 39.2131V39.3168C111.057 39.6334 111.111 39.8924 111.221 40.0939C111.33 40.2896 111.488 40.4364 111.696 40.5342C111.909 40.6321 112.17 40.681 112.481 40.681C112.712 40.681 112.945 40.6522 113.181 40.5947C113.422 40.5313 113.641 40.4277 113.837 40.2838L114.156 41.0609C113.932 41.2336 113.664 41.3631 113.353 41.4495C113.048 41.5301 112.746 41.5704 112.447 41.5704ZM115.754 41.484V37.1927H116.816V38.0561H116.808C116.946 37.751 117.15 37.5179 117.421 37.3567C117.697 37.1898 118.005 37.1063 118.345 37.1063C118.69 37.1063 118.981 37.1725 119.217 37.3049C119.453 37.4373 119.628 37.6388 119.744 37.9093C119.864 38.1799 119.925 38.5195 119.925 38.9282V41.484H118.785V38.98C118.785 38.7728 118.756 38.6001 118.699 38.4619C118.647 38.3238 118.561 38.2202 118.44 38.1511C118.325 38.0763 118.172 38.0389 117.982 38.0389C117.775 38.0389 117.588 38.0878 117.421 38.1856C117.254 38.2777 117.124 38.4073 117.032 38.5742C116.946 38.7354 116.903 38.9224 116.903 39.1354V41.484H115.754ZM123.69 41.5704C123.097 41.5704 122.654 41.4236 122.36 41.13C122.072 40.8307 121.928 40.4018 121.928 39.8435V38.0993H121.1V37.1927H121.98V35.9666H123.077V37.1927H124.519V38.0993H123.077V39.7917C123.077 40.068 123.143 40.2752 123.275 40.4133C123.408 40.5457 123.609 40.6119 123.88 40.6119C123.983 40.6119 124.087 40.6033 124.191 40.586C124.294 40.563 124.398 40.5342 124.502 40.4997L124.666 41.3631C124.533 41.4322 124.381 41.484 124.208 41.5185C124.035 41.5531 123.863 41.5704 123.69 41.5704ZM127.53 41.5704C127.277 41.5704 127.03 41.5502 126.788 41.5099C126.552 41.4754 126.336 41.4236 126.14 41.3545C125.944 41.2797 125.775 41.1876 125.631 41.0782L125.924 40.3011C126.074 40.3932 126.235 40.4738 126.408 40.5429C126.586 40.6062 126.768 40.6522 126.952 40.681C127.142 40.7098 127.323 40.7242 127.496 40.7242C127.807 40.7242 128.04 40.6868 128.195 40.6119C128.356 40.5313 128.437 40.4133 128.437 40.2579C128.437 40.1255 128.391 40.0277 128.299 39.9643C128.207 39.901 128.06 39.8521 127.858 39.8176L126.926 39.6794C126.523 39.6161 126.221 39.4779 126.019 39.2649C125.818 39.0462 125.717 38.7814 125.717 38.4706C125.717 38.2 125.792 37.964 125.942 37.7625C126.091 37.5553 126.31 37.3941 126.598 37.279C126.886 37.1639 127.237 37.1063 127.651 37.1063C127.864 37.1063 128.074 37.1265 128.282 37.1668C128.495 37.2013 128.693 37.256 128.877 37.3308C129.062 37.3999 129.214 37.4862 129.335 37.5899L129.015 38.367C128.9 38.2749 128.765 38.2 128.61 38.1425C128.46 38.0791 128.302 38.0331 128.135 38.0043C127.968 37.9698 127.807 37.9525 127.651 37.9525C127.346 37.9525 127.116 37.9957 126.96 38.082C126.811 38.1626 126.736 38.2806 126.736 38.436C126.736 38.5569 126.779 38.6519 126.866 38.721C126.952 38.7843 127.09 38.8303 127.28 38.8591L128.187 39.0145C128.618 39.0836 128.938 39.2189 129.145 39.4204C129.352 39.6218 129.456 39.8895 129.456 40.2234C129.456 40.4997 129.375 40.7386 129.214 40.94C129.059 41.1415 128.837 41.2969 128.549 41.4063C128.261 41.5157 127.922 41.5704 127.53 41.5704Z" fill="#202224"/>
<mask id="mask1_113_3679" style="mask-type:alpha" maskUnits="userSpaceOnUse" x="21" y="21" width="24" height="35">
<path d="M22 27.0943C22 24.2808 24.2808 22 27.0943 22H34.1737C39.5888 22 43.9787 26.3899 43.9787 31.805V45.163C43.9787 50.5782 39.5888 54.968 34.1737 54.968H27.0943C24.2808 54.968 22 52.6872 22 49.8737V27.0943Z" fill="white" stroke="url(#paint11_linear_113_3679)" stroke-opacity="0.3" stroke-width="1.02168"/>
</mask>
<g mask="url(#mask1_113_3679)">
<rect x="21.215" y="21.366" width="10.9893" height="34.236" fill="#587ED7"/>
</g>
<defs>
<filter id="filter0_d_113_3679" x="0.254698" y="0.254667" width="168.897" height="81.7673" filterUnits="userSpaceOnUse" color-interpolation-filters="sRGB">
<feFlood flood-opacity="0" result="BackgroundImageFix"/>
<feColorMatrix in="SourceAlpha" type="matrix" values="0 0 0 0 0 0 0 0 0 0 0 0 0 0 0 0 0 0 127 0" result="hardAlpha"/>
<feOffset dx="2.65431" dy="2.65431"/>
<feGaussianBlur stdDeviation="11.9444"/>
<feColorMatrix type="matrix" values="0 0 0 0 0 0 0 0 0 0 0 0 0 0 0 0 0 0 0.05 0"/>
<feBlend mode="normal" in2="BackgroundImageFix" result="effect1_dropShadow_113_3679"/>
<feBlend mode="normal" in="SourceGraphic" in2="effect1_dropShadow_113_3679" result="shape"/>
</filter>
<filter id="filter1_d_113_3679" x="39.3674" y="27.2728" width="17.6803" height="22.2455" filterUnits="userSpaceOnUse" color-interpolation-filters="sRGB">
<feFlood flood-opacity="0" result="BackgroundImageFix"/>
<feColorMatrix in="SourceAlpha" type="matrix" values="0 0 0 0 0 0 0 0 0 0 0 0 0 0 0 0 0 0 127 0" result="hardAlpha"/>
<feOffset dy="1.02819"/>
<feComposite in2="hardAlpha" operator="out"/>
<feColorMatrix type="matrix" values="0 0 0 0 0.263166 0 0 0 0 0.00521065 0 0 0 0 0.00105008 0 0 0 1 0"/>
<feBlend mode="normal" in2="BackgroundImageFix" result="effect1_dropShadow_113_3679"/>
<feBlend mode="normal" in="SourceGraphic" in2="effect1_dropShadow_113_3679" result="shape"/>
</filter>
<filter id="filter2_i_113_3679" x="41.7841" y="39.3105" width="12.5999" height="8.0766" filterUnits="userSpaceOnUse" color-interpolation-filters="sRGB">
<feFlood flood-opacity="0" result="BackgroundImageFix"/>
<feBlend mode="normal" in="SourceGraphic" in2="BackgroundImageFix" result="shape"/>
<feColorMatrix in="SourceAlpha" type="matrix" values="0 0 0 0 0 0 0 0 0 0 0 0 0 0 0 0 0 0 127 0" result="hardAlpha"/>
<feOffset dy="-0.658408"/>
<feComposite in2="hardAlpha" operator="arithmetic" k2="-1" k3="1"/>
<feColorMatrix type="matrix" values="0 0 0 0 1 0 0 0 0 0.849187 0 0 0 0 0.0574204 0 0 0 0.33 0"/>
<feBlend mode="normal" in2="shape" result="effect1_innerShadow_113_3679"/>
</filter>
<filter id="filter3_d_113_3679" x="40.3304" y="28.3572" width="15.0565" height="16.5502" filterUnits="userSpaceOnUse" color-interpolation-filters="sRGB">
<feFlood flood-opacity="0" result="BackgroundImageFix"/>
<feColorMatrix in="SourceAlpha" type="matrix" values="0 0 0 0 0 0 0 0 0 0 0 0 0 0 0 0 0 0 127 0" result="hardAlpha"/>
<feOffset dy="1.17716"/>
<feComposite in2="hardAlpha" operator="out"/>
<feColorMatrix type="matrix" values="0 0 0 0 0.244828 0 0 0 0 0.127311 0 0 0 0 0 0 0 0 0.51 0"/>
<feBlend mode="normal" in2="BackgroundImageFix" result="effect1_dropShadow_113_3679"/>
<feBlend mode="normal" in="SourceGraphic" in2="effect1_dropShadow_113_3679" result="shape"/>
</filter>
<filter id="filter4_d_113_3679" x="41.2755" y="34.8747" width="5.22116" height="6.17887" filterUnits="userSpaceOnUse" color-interpolation-filters="sRGB">
<feFlood flood-opacity="0" result="BackgroundImageFix"/>
<feColorMatrix in="SourceAlpha" type="matrix" values="0 0 0 0 0 0 0 0 0 0 0 0 0 0 0 0 0 0 127 0" result="hardAlpha"/>
<feOffset dy="0.0731564"/>
<feComposite in2="hardAlpha" operator="out"/>
<feColorMatrix type="matrix" values="0 0 0 0 1 0 0 0 0 1 0 0 0 0 1 0 0 0 0.25 0"/>
<feBlend mode="normal" in2="BackgroundImageFix" result="effect1_dropShadow_113_3679"/>
<feBlend mode="normal" in="SourceGraphic" in2="effect1_dropShadow_113_3679" result="shape"/>
</filter>
<filter id="filter5_d_113_3679" x="43.1414" y="35.5338" width="1.05859" height="1.24552" filterUnits="userSpaceOnUse" color-interpolation-filters="sRGB">
<feFlood flood-opacity="0" result="BackgroundImageFix"/>
<feColorMatrix in="SourceAlpha" type="matrix" values="0 0 0 0 0 0 0 0 0 0 0 0 0 0 0 0 0 0 127 0" result="hardAlpha"/>
<feOffset dy="0.0731564"/>
<feComposite in2="hardAlpha" operator="out"/>
<feColorMatrix type="matrix" values="0 0 0 0 0 0 0 0 0 0 0 0 0 0 0 0 0 0 0.25 0"/>
<feBlend mode="normal" in2="BackgroundImageFix" result="effect1_dropShadow_113_3679"/>
<feBlend mode="normal" in="SourceGraphic" in2="effect1_dropShadow_113_3679" result="shape"/>
</filter>
<filter id="filter6_d_113_3679" x="43.2728" y="37.3438" width="1.05859" height="1.24552" filterUnits="userSpaceOnUse" color-interpolation-filters="sRGB">
<feFlood flood-opacity="0" result="BackgroundImageFix"/>
<feColorMatrix in="SourceAlpha" type="matrix" values="0 0 0 0 0 0 0 0 0 0 0 0 0 0 0 0 0 0 127 0" result="hardAlpha"/>
<feOffset dy="0.0731564"/>
<feComposite in2="hardAlpha" operator="out"/>
<feColorMatrix type="matrix" values="0 0 0 0 0 0 0 0 0 0 0 0 0 0 0 0 0 0 0.25 0"/>
<feBlend mode="normal" in2="BackgroundImageFix" result="effect1_dropShadow_113_3679"/>
<feBlend mode="normal" in="SourceGraphic" in2="effect1_dropShadow_113_3679" result="shape"/>
</filter>
<filter id="filter7_d_113_3679" x="41.7279" y="36.6343" width="1.05859" height="1.24552" filterUnits="userSpaceOnUse" color-interpolation-filters="sRGB">
<feFlood flood-opacity="0" result="BackgroundImageFix"/>
<feColorMatrix in="SourceAlpha" type="matrix" values="0 0 0 0 0 0 0 0 0 0 0 0 0 0 0 0 0 0 127 0" result="hardAlpha"/>
<feOffset dy="0.0731564"/>
<feComposite in2="hardAlpha" operator="out"/>
<feColorMatrix type="matrix" values="0 0 0 0 0 0 0 0 0 0 0 0 0 0 0 0 0 0 0.25 0"/>
<feBlend mode="normal" in2="BackgroundImageFix" result="effect1_dropShadow_113_3679"/>
<feBlend mode="normal" in="SourceGraphic" in2="effect1_dropShadow_113_3679" result="shape"/>
</filter>
<filter id="filter8_d_113_3679" x="43.2932" y="39.1596" width="1.05859" height="1.24552" filterUnits="userSpaceOnUse" color-interpolation-filters="sRGB">
<feFlood flood-opacity="0" result="BackgroundImageFix"/>
<feColorMatrix in="SourceAlpha" type="matrix" values="0 0 0 0 0 0 0 0 0 0 0 0 0 0 0 0 0 0 127 0" result="hardAlpha"/>
<feOffset dy="0.0731564"/>
<feComposite in2="hardAlpha" operator="out"/>
<feColorMatrix type="matrix" values="0 0 0 0 0 0 0 0 0 0 0 0 0 0 0 0 0 0 0.25 0"/>
<feBlend mode="normal" in2="BackgroundImageFix" result="effect1_dropShadow_113_3679"/>
<feBlend mode="normal" in="SourceGraphic" in2="effect1_dropShadow_113_3679" result="shape"/>
</filter>
<filter id="filter9_d_113_3679" x="44.8751" y="38.0502" width="1.05859" height="1.24552" filterUnits="userSpaceOnUse" color-interpolation-filters="sRGB">
<feFlood flood-opacity="0" result="BackgroundImageFix"/>
<feColorMatrix in="SourceAlpha" type="matrix" values="0 0 0 0 0 0 0 0 0 0 0 0 0 0 0 0 0 0 127 0" result="hardAlpha"/>
<feOffset dy="0.0731564"/>
<feComposite in2="hardAlpha" operator="out"/>
<feColorMatrix type="matrix" values="0 0 0 0 0 0 0 0 0 0 0 0 0 0 0 0 0 0 0.25 0"/>
<feBlend mode="normal" in2="BackgroundImageFix" result="effect1_dropShadow_113_3679"/>
<feBlend mode="normal" in="SourceGraphic" in2="effect1_dropShadow_113_3679" result="shape"/>
</filter>
<filter id="filter10_d_113_3679" x="51.6457" y="35.524" width="3.45142" height="6.54202" filterUnits="userSpaceOnUse" color-interpolation-filters="sRGB">
<feFlood flood-opacity="0" result="BackgroundImageFix"/>
<feColorMatrix in="SourceAlpha" type="matrix" values="0 0 0 0 0 0 0 0 0 0 0 0 0 0 0 0 0 0 127 0" result="hardAlpha"/>
<feOffset dy="0.292626"/>
<feComposite in2="hardAlpha" operator="out"/>
<feColorMatrix type="matrix" values="0 0 0 0 0 0 0 0 0 0 0 0 0 0 0 0 0 0 0.25 0"/>
<feBlend mode="normal" in2="BackgroundImageFix" result="effect1_dropShadow_113_3679"/>
<feBlend mode="normal" in="SourceGraphic" in2="effect1_dropShadow_113_3679" result="shape"/>
</filter>
<linearGradient id="paint0_linear_113_3679" x1="49.3849" y1="10.0922" x2="107.469" y2="77.4501" gradientUnits="userSpaceOnUse">
<stop stop-color="#F1F1F1"/>
<stop offset="1" stop-color="#E1E1E1"/>
</linearGradient>
<linearGradient id="paint1_linear_113_3679" x1="46.0084" y1="28.4573" x2="53.8553" y2="45.3536" gradientUnits="userSpaceOnUse">
<stop stop-color="#FDFD57"/>
<stop offset="1" stop-color="#FFA600"/>
</linearGradient>
<linearGradient id="paint2_linear_113_3679" x1="47.7645" y1="32.8516" x2="56.8473" y2="39.2862" gradientUnits="userSpaceOnUse">
<stop stop-color="#FFAE10"/>
<stop offset="1" stop-color="#F86800"/>
</linearGradient>
<linearGradient id="paint3_linear_113_3679" x1="47.7645" y1="32.8516" x2="56.8473" y2="39.2862" gradientUnits="userSpaceOnUse">
<stop stop-color="#FFAE10"/>
<stop offset="1" stop-color="#F86800"/>
</linearGradient>
<linearGradient id="paint4_linear_113_3679" x1="48.4" y1="45.8771" x2="54.5083" y2="42.6598" gradientUnits="userSpaceOnUse">
<stop stop-color="#FFB800"/>
<stop offset="1" stop-color="#E76304"/>
</linearGradient>
<linearGradient id="paint5_linear_113_3679" x1="47.2741" y1="26.4468" x2="47.3142" y2="48.828" gradientUnits="userSpaceOnUse">
<stop stop-color="#FFF6A5"/>
<stop offset="0.869792" stop-color="#FF7507"/>
<stop offset="1" stop-color="#F8862B"/>
</linearGradient>
<linearGradient id="paint6_linear_113_3679" x1="47.6353" y1="28.3638" x2="47.8697" y2="36.2719" gradientUnits="userSpaceOnUse">
<stop stop-color="#FFFCD2"/>
<stop offset="0.315" stop-color="#FDED04"/>
<stop offset="1" stop-color="#FDED04" stop-opacity="0"/>
</linearGradient>
<linearGradient id="paint7_linear_113_3679" x1="47.944" y1="32.9009" x2="48.1974" y2="41.1371" gradientUnits="userSpaceOnUse">
<stop stop-color="#FBD211"/>
<stop offset="1" stop-color="#FBD211" stop-opacity="0"/>
</linearGradient>
<linearGradient id="paint8_linear_113_3679" x1="47.657" y1="28.9109" x2="47.7655" y2="32.4407" gradientUnits="userSpaceOnUse">
<stop stop-color="#FF8933"/>
<stop offset="1" stop-color="#E98019"/>
</linearGradient>
<linearGradient id="paint9_linear_113_3679" x1="51.8676" y1="35.0171" x2="55.7184" y2="42.0205" gradientUnits="userSpaceOnUse">
<stop stop-color="#CCB22A"/>
<stop offset="0.16637" stop-color="#FFD600"/>
<stop offset="0.389385" stop-color="#F3FFAA"/>
<stop offset="1" stop-color="#F54710"/>
</linearGradient>
<linearGradient id="paint10_linear_113_3679" x1="53.3599" y1="41.5502" x2="55.1302" y2="37.5077" gradientUnits="userSpaceOnUse">
<stop stop-color="#FF9F10"/>
<stop offset="1" stop-color="#FFC226"/>
</linearGradient>
<linearGradient id="paint11_linear_113_3679" x1="27.0116" y1="10.0922" x2="50.8622" y2="15.1539" gradientUnits="userSpaceOnUse">
<stop stop-color="#F1F1F1"/>
<stop offset="1" stop-color="#E1E1E1"/>
</linearGradient>
</defs>
</svg>
