<svg width="170" height="83" viewBox="0 0 170 83" fill="none" xmlns="http://www.w3.org/2000/svg">
<g filter="url(#filter0_d_113_3673)">
<rect x="22.1304" y="22.4395" width="120.098" height="32.968" rx="5.09434" fill="white"/>
<rect x="22.1304" y="22.4395" width="120.098" height="32.968" rx="5.09434" stroke="url(#paint0_linear_113_3673)" stroke-opacity="0.3" stroke-width="1.02168"/>
</g>
<g filter="url(#filter1_di_113_3673)">
<mask id="path-3-outside-1_113_3673" maskUnits="userSpaceOnUse" x="36.4333" y="23.9841" width="29" height="28" fill="black">
<rect fill="white" x="36.4333" y="23.9841" width="29" height="28"/>
<path d="M48.0009 27.4659C48.1736 26.4906 49.1045 25.8393 50.08 26.0118L62.3524 28.1827C63.3277 28.3555 63.9788 29.2855 63.8065 30.2608L60.8144 47.1827C60.6417 48.1581 59.7107 48.8092 58.7353 48.6368L54.0409 47.8058C53.0681 48.9795 51.7501 49.8872 50.1747 50.3536C45.8969 51.6198 41.3556 49.1623 40.0312 44.8644C39.3676 42.7107 39.6375 40.5034 40.6103 38.6778L38.5517 33.4747C38.21 32.6111 38.6334 31.6338 39.497 31.2921L47.913 27.961L48.0009 27.4659Z"/>
</mask>
<path d="M48.0009 27.4659C48.1736 26.4906 49.1045 25.8393 50.08 26.0118L62.3524 28.1827C63.3277 28.3555 63.9788 29.2855 63.8065 30.2608L60.8144 47.1827C60.6417 48.1581 59.7107 48.8092 58.7353 48.6368L54.0409 47.8058C53.0681 48.9795 51.7501 49.8872 50.1747 50.3536C45.8969 51.6198 41.3556 49.1623 40.0312 44.8644C39.3676 42.7107 39.6375 40.5034 40.6103 38.6778L38.5517 33.4747C38.21 32.6111 38.6334 31.6338 39.497 31.2921L47.913 27.961L48.0009 27.4659Z" fill="url(#paint1_linear_113_3673)"/>
<path d="M48.0009 27.4659L49.2445 27.6867L49.2446 27.6861L48.0009 27.4659ZM50.08 26.0118L50.3 24.7681L50.2999 24.7681L50.08 26.0118ZM62.3524 28.1827L62.5727 26.9391L62.5724 26.939L62.3524 28.1827ZM63.8065 30.2608L65.0503 30.4808L65.0503 30.4806L63.8065 30.2608ZM60.8144 47.1827L62.058 47.4029L62.0581 47.4026L60.8144 47.1827ZM58.7353 48.6368L58.5151 49.8805L58.5154 49.8806L58.7353 48.6368ZM54.0409 47.8058L54.2611 46.5621L53.5374 46.434L53.0685 46.9998L54.0409 47.8058ZM50.1747 50.3536L50.5332 51.5647L50.5332 51.5647L50.1747 50.3536ZM40.0312 44.8644L38.8241 45.2362L38.8241 45.2363L40.0312 44.8644ZM40.6103 38.6778L41.7249 39.2718L41.9996 38.7563L41.7847 38.2132L40.6103 38.6778ZM38.5517 33.4747L37.3772 33.9393L37.3772 33.9394L38.5517 33.4747ZM39.497 31.2921L39.9617 32.4665L39.9618 32.4665L39.497 31.2921ZM47.913 27.961L48.3778 29.1354L49.0334 28.876L49.1566 28.1818L47.913 27.961ZM48.0009 27.4659L49.2446 27.6861C49.2957 27.3973 49.5716 27.2045 49.8601 27.2556L50.08 26.0118L50.2999 24.7681C48.6375 24.4741 47.0515 25.5838 46.7572 27.2457L48.0009 27.4659ZM50.08 26.0118L49.86 27.2555L62.1324 29.4264L62.3524 28.1827L62.5724 26.939L50.3 24.7681L50.08 26.0118ZM62.3524 28.1827L62.1322 29.4264C62.4214 29.4776 62.6136 29.7532 62.5628 30.0411L63.8065 30.2608L65.0503 30.4806C65.344 28.8178 64.2339 27.2333 62.5727 26.9391L62.3524 28.1827ZM63.8065 30.2608L62.5628 30.0409L59.5706 46.9628L60.8144 47.1827L62.0581 47.4026L65.0503 30.4808L63.8065 30.2608ZM60.8144 47.1827L59.5707 46.9625C59.5196 47.2512 59.2437 47.4441 58.9551 47.3931L58.7353 48.6368L58.5154 49.8806C60.1777 50.1744 61.7638 49.0649 62.058 47.4029L60.8144 47.1827ZM58.7353 48.6368L58.9554 47.3931L54.2611 46.5621L54.0409 47.8058L53.8207 49.0495L58.5151 49.8805L58.7353 48.6368ZM54.0409 47.8058L53.0685 46.9998C52.2503 47.9869 51.1434 48.7496 49.8162 49.1425L50.1747 50.3536L50.5332 51.5647C52.3567 51.0249 53.8859 49.9721 55.0134 48.6117L54.0409 47.8058ZM50.1747 50.3536L49.8162 49.1425C46.2111 50.2096 42.3616 48.138 41.2382 44.4924L40.0312 44.8644L38.8241 45.2363C40.3496 50.1867 45.5828 53.03 50.5332 51.5647L50.1747 50.3536ZM40.0312 44.8644L41.2382 44.4925C40.6766 42.6696 40.9056 40.8093 41.7249 39.2718L40.6103 38.6778L39.4956 38.0839C38.3693 40.1974 38.0587 42.7518 38.8241 45.2362L40.0312 44.8644ZM40.6103 38.6778L41.7847 38.2132L39.7261 33.01L38.5517 33.4747L37.3772 33.9394L39.4358 39.1425L40.6103 38.6778ZM38.5517 33.4747L39.7261 33.0101C39.6412 32.7954 39.7465 32.5517 39.9617 32.4665L39.497 31.2921L39.0322 30.1177C37.5204 30.716 36.7789 32.4269 37.3772 33.9393L38.5517 33.4747ZM39.497 31.2921L39.9618 32.4665L48.3778 29.1354L47.913 27.961L47.4482 26.7867L39.0322 30.1177L39.497 31.2921ZM47.913 27.961L49.1566 28.1818L49.2445 27.6867L48.0009 27.4659L46.7573 27.2452L46.6694 27.7403L47.913 27.961Z" fill="#460860" mask="url(#path-3-outside-1_113_3673)"/>
</g>
<g filter="url(#filter2_i_113_3673)">
<rect x="37.9202" y="31.9088" width="14.787" height="19.1362" rx="1.68171" transform="rotate(-21.5906 37.9202 31.9088)" fill="url(#paint2_linear_113_3673)"/>
</g>
<rect x="39.0491" y="32.3975" width="13.0474" height="17.3965" rx="0.752345" transform="rotate(-21.5906 39.0491 32.3975)" fill="#E74342"/>
<mask id="mask0_113_3673" style="mask-type:alpha" maskUnits="userSpaceOnUse" x="39" y="27" width="19" height="22">
<rect x="39.0491" y="32.3975" width="13.0474" height="17.3965" rx="0.752345" transform="rotate(-21.5906 39.0491 32.3975)" fill="url(#paint3_linear_113_3673)"/>
</mask>
<g mask="url(#mask0_113_3673)">
<path d="M45.5304 42.8093C45.8216 42.1364 46.6037 41.827 47.2765 42.1182L49.6402 43.1415C50.3131 43.4329 50.6226 44.2148 50.3312 44.8877L49.3083 47.2523C49.017 47.9252 48.235 48.2346 47.5621 47.9433L45.1972 46.9195C44.5245 46.628 44.2149 45.8461 44.5061 45.1733L45.5304 42.8093ZM51.804 40.3265C52.0953 39.6537 52.8773 39.3443 53.5502 39.6355L55.9139 40.6588C56.5868 40.9501 56.8962 41.7321 56.6049 42.405L55.5819 44.7696C55.2906 45.4424 54.5086 45.7518 53.8358 45.4606L51.4708 44.4367C50.7982 44.1453 50.4885 43.3633 50.7798 42.6906L51.804 40.3265ZM52.8908 42.8498C52.4777 43.0133 52.2752 43.481 52.4387 43.8941C52.6022 44.3071 53.0699 44.5096 53.483 44.3462C53.8961 44.1827 54.0986 43.715 53.9351 43.3019C53.7716 42.8887 53.304 42.6862 52.8908 42.8498ZM47.0228 44.0965C46.6099 44.2602 46.4081 44.7274 46.5716 45.1405C46.7351 45.5533 47.202 45.7561 47.615 45.5929C48.0281 45.4295 48.2304 44.9617 48.0671 44.5486C47.9036 44.1354 47.436 43.933 47.0228 44.0965ZM53.8359 40.7449C53.4228 40.9084 53.2204 41.3761 53.3838 41.7893C53.5473 42.2024 54.0149 42.4049 54.4281 42.2414C54.8411 42.0778 55.0437 41.6101 54.8802 41.1971C54.7167 40.784 54.249 40.5816 53.8359 40.7449ZM43.1274 36.7372C43.4188 36.0645 44.2008 35.755 44.8736 36.0461L47.2376 37.0704C47.9105 37.3617 48.22 38.1436 47.9286 38.8165L46.9057 41.1811C46.6144 41.8539 45.8323 42.1633 45.1595 41.8722L42.7946 40.8483C42.1218 40.5569 41.8123 39.7749 42.1035 39.1021L43.1274 36.7372ZM49.4011 34.2544C49.6924 33.5818 50.4745 33.2723 51.1472 33.5634L53.5113 34.5876C54.1842 34.879 54.4936 35.6609 54.2023 36.3338L53.1794 38.6984C52.888 39.3711 52.106 39.6805 51.4332 39.3894L49.0682 38.3656C48.3955 38.0742 48.086 37.2922 48.3772 36.6194L49.4011 34.2544ZM45.3421 39.8496C44.9294 40.0132 44.7277 40.4806 44.8909 40.8935C45.0544 41.3066 45.5213 41.5092 45.9343 41.346C46.3475 41.1825 46.55 40.7149 46.3865 40.3017C46.2228 39.8887 45.7552 39.6861 45.3421 39.8496ZM51.0185 35.8734C50.6055 36.0371 50.4029 36.5047 50.5664 36.9178C50.7299 37.3307 51.1977 37.5332 51.6107 37.3699C52.0238 37.2064 52.2262 36.7387 52.0628 36.3256C51.8993 35.9124 51.4317 35.7099 51.0185 35.8734ZM42.9879 38.8635C42.5749 39.0269 42.3725 39.4947 42.5358 39.9078C42.6993 40.321 43.167 40.5234 43.5801 40.3599C43.9932 40.1964 44.1958 39.7287 44.0322 39.3156C43.8686 38.9027 43.401 38.7001 42.9879 38.8635ZM46.4661 37.4881C46.0531 37.6515 45.8504 38.1184 46.0136 38.5315C46.1771 38.9447 46.6448 39.1471 47.0579 38.9836C47.4711 38.8201 47.6736 38.3524 47.5101 37.9393C47.3464 37.5264 46.8791 37.3247 46.4661 37.4881ZM44.0621 36.6151C43.6493 36.7788 43.4475 37.2461 43.6109 37.6591C43.7745 38.0718 44.2411 38.2738 44.654 38.1107C45.067 37.9472 45.2697 37.4803 45.1065 37.0672C44.943 36.6541 44.4753 36.4516 44.0621 36.6151ZM46.9985 28.1832C47.2899 27.5106 48.0719 27.2011 48.7447 27.4922L51.1087 28.5165C51.7816 28.8078 52.091 29.5897 51.7997 30.2626L50.7768 32.6272C50.4855 33.3 49.7034 33.6093 49.0306 33.3182L46.6656 32.2944C45.9929 32.003 45.6833 31.221 45.9746 30.5482L46.9985 28.1832ZM40.7248 30.666C41.0161 29.9932 41.7982 29.6838 42.471 29.975L44.835 30.9992C45.5079 31.2905 45.8174 32.0725 45.526 32.7454L44.5027 35.109C44.2114 35.7819 43.4294 36.0914 42.7566 35.8001L40.392 34.7771C39.7193 34.4857 39.4098 33.7037 39.7009 33.0309L40.7248 30.666ZM49.2261 31.3441C48.8131 31.5077 48.6105 31.9754 48.774 32.3884C48.9375 32.8014 49.4053 33.0039 49.8183 32.8406C50.2314 32.6771 50.4337 32.2094 50.2704 31.7962C50.1069 31.3831 49.6393 31.1806 49.2261 31.3441ZM42.8939 33.6631C42.4809 33.8267 42.2783 34.2943 42.4418 34.7074C42.6054 35.1202 43.0731 35.3228 43.4861 35.1595C43.8992 34.9961 44.1015 34.5283 43.9382 34.1152C43.7747 33.702 43.3071 33.4995 42.8939 33.6631ZM46.6941 30.3811C46.281 30.5446 46.0786 31.0123 46.242 31.4254C46.4055 31.8386 46.8731 32.041 47.2863 31.8776C47.6993 31.7139 47.9019 31.2463 47.7384 30.8332C47.5749 30.4203 47.1071 30.2179 46.6941 30.3811ZM48.5538 29.6452C48.1408 29.8088 47.9383 30.2765 48.1016 30.6895C48.2651 31.1026 48.7329 31.3049 49.146 31.1416C49.5591 30.9781 49.7616 30.5105 49.5981 30.0973C49.4345 29.6842 48.9669 29.4817 48.5538 29.6452ZM50.4143 28.9089C50.0013 29.0724 49.7988 29.5401 49.9622 29.9532C50.1257 30.3663 50.5934 30.5687 51.0065 30.4053C51.4197 30.2418 51.6222 29.7742 51.4587 29.361C51.2951 28.9479 50.8275 28.7454 50.4143 28.9089ZM41.7257 30.711C41.3127 30.8747 41.1101 31.3423 41.2735 31.7553C41.4371 32.1681 41.9046 32.3697 42.3175 32.2066C42.7306 32.0431 42.9332 31.5762 42.77 31.1631C42.6065 30.75 42.1388 30.5475 41.7257 30.711ZM47.8818 27.9471C47.4688 28.1107 47.2662 28.5784 47.4296 28.9915C47.5932 29.4045 48.0609 29.6069 48.474 29.4436C48.8871 29.2801 49.0895 28.8124 48.9261 28.3993C48.7626 27.9861 48.295 27.7836 47.8818 27.9471Z" fill="#FFA09F" style="mix-blend-mode:overlay"/>
</g>
<mask id="mask1_113_3673" style="mask-type:alpha" maskUnits="userSpaceOnUse" x="38" y="26" width="21" height="24">
<rect x="37.9207" y="31.9085" width="14.787" height="19.1362" rx="1.68171" transform="rotate(-21.5906 37.9207 31.9085)" fill="url(#paint4_linear_113_3673)"/>
</mask>
<g mask="url(#mask1_113_3673)">
<path d="M45.9457 41.7506L44.999 26.6959L48.201 25.2976L56.6323 36.651L56.1861 45.2089L48.955 47.1667L45.9457 41.7506Z" fill="#A56363" style="mix-blend-mode:multiply"/>
</g>
<g filter="url(#filter3_i_113_3673)">
<rect x="48.3" y="25.6974" width="16.0507" height="20.7714" rx="1.7939" transform="rotate(10.0275 48.3 25.6974)" fill="url(#paint5_linear_113_3673)"/>
</g>
<rect x="49.0654" y="26.7916" width="14.1623" height="18.8831" rx="0.802533" transform="rotate(10.0275 49.0654 26.7916)" fill="#E74342"/>
<mask id="mask2_113_3673" style="mask-type:alpha" maskUnits="userSpaceOnUse" x="45" y="26" width="18" height="22">
<rect x="49.0654" y="26.7916" width="14.1623" height="18.8831" rx="0.802533" transform="rotate(10.0275 49.0654 26.7916)" fill="url(#paint6_linear_113_3673)"/>
</mask>
<g mask="url(#mask2_113_3673)">
<path d="M49.1519 40.0889C49.7928 39.6406 50.6759 39.7967 51.1242 40.4376L52.7557 42.77C53.2038 43.4109 53.0478 44.2941 52.407 44.7423L50.0746 46.3738C49.4337 46.8221 48.5506 46.6658 48.1022 46.0251L46.4707 43.6927C46.0224 43.0518 46.1786 42.1687 46.8195 41.7204L49.1519 40.0889ZM56.3633 41.364C57.0042 40.9157 57.8873 41.0718 58.3356 41.7127L59.9671 44.0451C60.4152 44.686 60.2592 45.5692 59.6183 46.0175L57.2859 47.649C56.6451 48.0972 55.762 47.9409 55.3136 47.3002L53.6821 44.9678C53.2338 44.3269 53.39 43.4438 54.0309 42.9955L56.3633 41.364ZM55.9124 44.3288C55.4377 44.2449 54.985 44.5619 54.9007 45.0365C54.8167 45.5115 55.1332 45.9652 55.6082 46.0492C56.083 46.1329 56.5361 45.8153 56.6201 45.3405C56.7036 44.866 56.3868 44.413 55.9124 44.3288ZM49.7787 42.1415C49.304 42.0578 48.8509 42.3755 48.7668 42.8501C48.6831 43.3248 48.9999 43.7777 49.4745 43.8618C49.9491 43.9455 50.403 43.6289 50.4872 43.1543C50.5708 42.6797 50.2532 42.2256 49.7787 42.1415ZM57.9831 42.9208C57.5083 42.8368 57.0554 43.1547 56.9712 43.6295C56.8875 44.1043 57.2041 44.5572 57.6789 44.6412C58.1536 44.7248 58.6066 44.4081 58.6907 43.9335C58.7743 43.4589 58.4576 43.005 57.9831 42.9208ZM50.386 33.1092C51.0269 32.6611 51.9101 32.8172 52.3584 33.458L53.9897 35.7914C54.4376 36.4322 54.2817 37.3145 53.6411 37.7627L51.3085 39.3952C50.6678 39.8433 49.7846 39.6869 49.3362 39.0464L47.7049 36.7131C47.2567 36.0722 47.4127 35.19 48.0535 34.7417L50.386 33.1092ZM57.5974 34.3844C58.2383 33.9362 59.1214 34.0924 59.5697 34.7331L61.2012 37.0655C61.6493 37.7064 61.4933 38.5896 60.8525 39.0379L58.5199 40.6703C57.8791 41.1184 56.9959 40.9621 56.5476 40.3216L54.9163 37.9882C54.4681 37.3473 54.6241 36.4642 55.265 36.0159L57.5974 34.3844ZM50.6428 37.2603C50.1679 37.1764 49.7141 37.4941 49.6299 37.9688C49.5461 38.4437 49.8637 38.8967 50.3386 38.9807C50.8131 39.0641 51.2662 38.7475 51.3503 38.273C51.4339 37.7985 51.1171 37.3447 50.6428 37.2603ZM58.1514 36.8148C57.6767 36.7311 57.2239 37.0479 57.1397 37.5225C57.0558 37.9974 57.3726 38.4501 57.8474 38.5343C58.3222 38.618 58.7761 38.3015 58.8601 37.8267C58.9438 37.3521 58.626 36.899 58.1514 36.8148ZM49.0267 35.009C48.552 34.9252 48.0989 35.243 48.0148 35.7176C47.931 36.1924 48.2478 36.6453 48.7225 36.7294C49.1972 36.8131 49.6511 36.4965 49.7352 36.0218C49.8188 35.5472 49.5012 35.0932 49.0267 35.009ZM53.0242 35.7158C52.5495 35.6321 52.0965 35.9499 52.0123 36.4245C51.9285 36.8992 52.2454 37.3521 52.72 37.4362C53.1947 37.5199 53.6486 37.2034 53.7327 36.7287C53.8164 36.254 53.4988 35.8 53.0242 35.7158ZM51.2993 33.5415C50.8248 33.4578 50.372 33.7748 50.2876 34.2492C50.2037 34.724 50.5204 35.1777 50.9951 35.2619C51.4699 35.3456 51.924 35.0282 52.008 34.5534C52.0914 34.0789 51.7738 33.6256 51.2993 33.5415ZM51.62 26.1306C52.2609 25.6823 53.144 25.8384 53.5923 26.4793L55.2238 28.8117C55.6719 29.4526 55.5159 30.3358 54.8751 30.7841L52.5427 32.4156C51.9019 32.8638 51.0187 32.7075 50.5704 32.0668L48.9389 29.7344C48.4905 29.0935 48.6467 28.2104 49.2876 27.7621L51.62 26.1306ZM58.8314 27.4057C59.4723 26.9574 60.3554 27.1135 60.8037 27.7545L62.4352 30.0869C62.8833 30.7278 62.7273 31.6109 62.0865 32.0592L59.7541 33.6907C59.1132 34.139 58.2301 33.9826 57.7817 33.3419L56.1502 31.0095C55.7019 30.3686 55.8581 29.4855 56.499 29.0372L58.8314 27.4057ZM59.072 31.6085C58.5973 31.5247 58.1445 31.8415 58.0603 32.3162C57.9764 32.791 58.2932 33.2438 58.768 33.3279C59.2427 33.4116 59.6967 33.0951 59.7807 32.6204C59.8644 32.1457 59.5466 31.6927 59.072 31.6085ZM51.9004 30.148C51.4255 30.064 50.9717 30.3818 50.8875 30.8565C50.8038 31.3313 51.1213 31.7844 51.5962 31.8684C52.0707 31.9518 52.5238 31.6351 52.6079 31.1607C52.6916 30.6862 52.3747 30.2324 51.9004 30.148ZM57.2796 29.2774C56.8049 29.1935 56.3513 29.5104 56.2669 29.9849C56.183 30.4599 56.5005 30.9138 56.9754 30.9978C57.4501 31.0812 57.9034 30.7638 57.9873 30.2891C58.0708 29.8147 57.7538 29.3617 57.2796 29.2774ZM59.4174 29.6554C58.9426 29.5715 58.4896 29.8894 58.4055 30.364C58.3217 30.8388 58.6384 31.2917 59.1132 31.3758C59.5878 31.4595 60.0408 31.1427 60.1249 30.6681C60.2086 30.1934 59.8919 29.7396 59.4174 29.6554ZM61.5561 30.0336C61.0813 29.9496 60.6284 30.2675 60.5442 30.7422C60.4604 31.217 60.777 31.67 61.2519 31.7539C61.7265 31.8376 62.1794 31.5208 62.2636 31.0462C62.3473 30.5716 62.0306 30.1177 61.5561 30.0336ZM52.5004 26.7544C52.0256 26.6704 51.5718 26.9881 51.4876 27.4628C51.4039 27.9376 51.7214 28.3908 52.1962 28.4747C52.6707 28.5582 53.1238 28.2415 53.208 27.767C53.2916 27.2925 52.9748 26.8387 52.5004 26.7544ZM59.7626 27.7033C59.2879 27.6195 58.8351 27.9365 58.7508 28.4109C58.6669 28.8858 58.9836 29.3395 59.4584 29.4236C59.9332 29.5073 60.3873 29.19 60.4712 28.7151C60.5547 28.2406 60.237 27.7874 59.7626 27.7033Z" fill="#FFA09F" style="mix-blend-mode:overlay"/>
</g>
<mask id="mask3_113_3673" style="mask-type:alpha" maskUnits="userSpaceOnUse" x="39" y="34" width="17" height="17">
<ellipse cx="8.07808" cy="8.14373" rx="8.07808" ry="8.14373" transform="matrix(0.958878 -0.283819 0.294432 0.955673 37.62 37.0789)" fill="url(#paint7_radial_113_3673)"/>
</mask>
<g mask="url(#mask3_113_3673)">
<g filter="url(#filter4_i_113_3673)">
<ellipse cx="8.07808" cy="8.14373" rx="8.07808" ry="8.14373" transform="matrix(0.958878 -0.283819 0.294432 0.955673 37.62 37.0789)" fill="url(#paint8_radial_113_3673)"/>
</g>
<ellipse cx="4.81395" cy="4.8782" rx="4.81395" ry="4.8782" transform="matrix(0.624618 -0.780931 0.778705 0.62739 40.5661 41.9951)" fill="url(#paint9_linear_113_3673)"/>
<path d="M43.4525 38.1393C45.1675 35.9951 48.312 35.6739 50.4747 37.4162C52.6375 39.1586 53.0048 42.3094 51.2898 44.4536C49.5747 46.5975 46.4308 46.9183 44.2682 45.1759C42.1058 43.4335 41.7379 40.2834 43.4525 38.1393Z" stroke="black" stroke-opacity="0.36" stroke-width="0.308168"/>
<path d="M47.5046 44.5688C47.1861 44.6226 46.9875 44.4427 46.9268 44.1307L46.8226 43.649C46.749 43.3097 46.9083 43.1309 47.2475 43.0573C47.5259 42.9892 47.8663 42.8616 48.1353 42.6042C48.4595 42.2939 48.6337 41.744 48.2442 41.3371C47.8746 40.9508 47.3187 41.0466 46.8704 41.4757C46.7117 41.6275 46.6002 41.7871 46.5228 41.9272C46.3894 42.1606 46.2643 42.3199 46.019 42.4226L45.9167 42.4676C45.6306 42.5829 45.3954 42.5304 45.2048 42.2899L43.5476 40.2682C43.3373 40.0069 43.3495 39.7574 43.5909 39.5263L45.6051 37.5989C45.8534 37.3612 46.1099 37.3669 46.3475 37.6152L46.6116 37.8911C46.8492 38.1394 46.8436 38.3959 46.5952 38.6335L45.264 39.9075L45.672 40.3892C45.7645 40.4857 45.8293 40.6087 45.8293 40.6087L45.8431 40.5955C45.8431 40.5955 45.9693 40.3822 46.1556 40.204C47.3282 39.0818 48.6211 39.2453 49.4726 40.1351C50.4496 41.156 50.404 42.6136 49.328 43.6433C48.6658 44.277 47.9654 44.4979 47.5046 44.5688Z" fill="url(#paint10_linear_113_3673)"/>
</g>
<g style="mix-blend-mode:overlay">
<path d="M42.9348 37.3753C45.5112 34.9099 49.2654 34.6514 51.3195 36.7979C53.3733 38.9444 52.9496 42.6829 50.3734 45.1484C47.7971 47.6138 44.0435 47.8727 41.9894 45.7265C39.9352 43.58 40.3584 39.8409 42.9348 37.3753Z" fill="url(#paint11_linear_113_3673)"/>
</g>
<path d="M73.8707 41.5V35.4127H77.998V36.3711H75.0364V38.003H77.8253V38.9615H75.0364V41.5H73.8707ZM80.7364 41.5863C80.4256 41.5863 80.1435 41.5259 79.8903 41.405C79.6427 41.2841 79.447 41.123 79.3031 40.9215C79.165 40.7143 79.0959 40.484 79.0959 40.2307C79.0959 39.9141 79.1851 39.6609 79.3636 39.4709C79.542 39.2752 79.8212 39.1313 80.2011 39.0392C80.581 38.9471 81.0761 38.901 81.6862 38.901H82.2475V39.5918H81.7294C81.4646 39.5918 81.2372 39.6004 81.0473 39.6177C80.8573 39.635 80.699 39.6666 80.5724 39.7127C80.4515 39.753 80.3623 39.8105 80.3047 39.8854C80.2472 39.9602 80.2184 40.0552 80.2184 40.1703C80.2184 40.366 80.2903 40.5157 80.4342 40.6193C80.5781 40.7171 80.7681 40.7661 81.0041 40.7661C81.2056 40.7661 81.3869 40.72 81.5481 40.6279C81.715 40.5301 81.8474 40.4034 81.9453 40.248C82.0489 40.0868 82.1007 39.9113 82.1007 39.7213V38.7715C82.1007 38.4837 82.0172 38.2822 81.8503 38.1671C81.6891 38.052 81.4416 37.9944 81.1077 37.9944C80.8717 37.9944 80.6271 38.0289 80.3738 38.098C80.1263 38.1613 79.8644 38.2707 79.5881 38.4261L79.2772 37.6318C79.4614 37.5224 79.66 37.4303 79.873 37.3554C80.0917 37.2806 80.3191 37.2231 80.5551 37.1828C80.7911 37.1425 81.0243 37.1223 81.2545 37.1223C81.669 37.1223 82.0201 37.1856 82.3079 37.3123C82.5957 37.4389 82.8174 37.6318 82.9728 37.8908C83.1282 38.1498 83.2059 38.4894 83.2059 38.9097V41.5H82.2129V40.6106C82.1381 40.8006 82.0345 40.9704 81.9021 41.1201C81.7697 41.264 81.6056 41.3791 81.4099 41.4655C81.22 41.5461 80.9955 41.5863 80.7364 41.5863ZM84.9559 41.5V37.2087H86.0007V38.0894H85.9921C86.0727 37.8994 86.182 37.7325 86.3202 37.5886C86.4641 37.4389 86.631 37.3238 86.821 37.2432C87.011 37.1626 87.2211 37.1223 87.4513 37.1223C87.8024 37.1223 88.0931 37.2087 88.3234 37.3814C88.5594 37.5483 88.7177 37.7814 88.7983 38.0807H88.7724C88.8875 37.8044 89.0717 37.5771 89.325 37.3986C89.584 37.2144 89.8977 37.1223 90.2661 37.1223C90.5943 37.1223 90.8706 37.1885 91.0951 37.3209C91.3196 37.4533 91.4894 37.6548 91.6045 37.9253C91.7196 38.1901 91.7772 38.5297 91.7772 38.9442V41.5H90.6374V38.9874C90.6374 38.6708 90.5827 38.4376 90.4734 38.288C90.3698 38.1326 90.1827 38.0548 89.9121 38.0548C89.7107 38.0548 89.5351 38.1009 89.3854 38.193C89.2358 38.2851 89.1206 38.4146 89.0401 38.5815C88.9595 38.7427 88.9192 38.9327 88.9192 39.1514V41.5H87.7967V38.9874C87.7967 38.6765 87.7362 38.4434 87.6154 38.288C87.5002 38.1326 87.3189 38.0548 87.0714 38.0548C86.8699 38.0548 86.6944 38.1066 86.5447 38.2103C86.4008 38.3081 86.2885 38.4376 86.2079 38.5988C86.1274 38.76 86.0871 38.9413 86.0871 39.1428V41.5H84.9559ZM93.4399 36.3366V35.1968H94.7524V36.3366H93.4399ZM93.5349 41.5V37.2087H94.6833V41.5H93.5349ZM97.9162 41.5863C97.4269 41.5863 97.0556 41.4539 96.8023 41.1892C96.5548 40.9244 96.431 40.5416 96.431 40.0408V35.4127H97.5794V39.9631C97.5794 40.1185 97.5996 40.2509 97.6399 40.3602C97.6859 40.4639 97.7521 40.5445 97.8385 40.602C97.9248 40.6538 98.0342 40.6797 98.1666 40.6797C98.2414 40.6797 98.3134 40.6768 98.3824 40.6711C98.4573 40.6596 98.535 40.6452 98.6156 40.6279L98.6587 41.4741C98.5379 41.5144 98.4198 41.5432 98.3047 41.5604C98.1896 41.5777 98.0601 41.5863 97.9162 41.5863ZM100.164 43.0542L101.062 41.0769V41.8367L99.093 37.2087H100.31L101.519 40.3948H101.433L102.642 37.2087H103.816L101.347 43.0542H100.164ZM110.907 41.5863C110.251 41.5863 109.69 41.4626 109.224 41.2151C108.757 40.9618 108.401 40.602 108.153 40.1358C107.906 39.6695 107.782 39.1111 107.782 38.4607C107.782 37.8102 107.906 37.2518 108.153 36.7856C108.401 36.3136 108.757 35.9538 109.224 35.7063C109.69 35.453 110.243 35.3263 110.882 35.3263C111.181 35.3263 111.466 35.3522 111.736 35.4041C112.013 35.4559 112.266 35.5336 112.496 35.6372C112.726 35.7408 112.922 35.8674 113.083 36.0171L112.703 36.9065C112.433 36.6992 112.148 36.5524 111.849 36.4661C111.555 36.3798 111.238 36.3366 110.899 36.3366C110.289 36.3366 109.817 36.515 109.483 36.8719C109.149 37.2288 108.982 37.7584 108.982 38.4607C108.982 39.1687 109.149 39.704 109.483 40.0667C109.822 40.4236 110.32 40.602 110.977 40.602C111.253 40.602 111.512 40.5819 111.754 40.5416C112.001 40.4955 112.229 40.4322 112.436 40.3516L112.168 40.861V39.0305H110.804V38.1066H113.17V41.1374C112.985 41.2295 112.77 41.31 112.522 41.3791C112.275 41.4424 112.013 41.4914 111.736 41.5259C111.46 41.5662 111.184 41.5863 110.907 41.5863ZM116.465 41.5863C116.155 41.5863 115.873 41.5259 115.619 41.405C115.372 41.2841 115.176 41.123 115.032 40.9215C114.894 40.7143 114.825 40.484 114.825 40.2307C114.825 39.9141 114.914 39.6609 115.093 39.4709C115.271 39.2752 115.55 39.1313 115.93 39.0392C116.31 38.9471 116.805 38.901 117.415 38.901H117.976V39.5918H117.458C117.194 39.5918 116.966 39.6004 116.776 39.6177C116.586 39.635 116.428 39.6666 116.301 39.7127C116.18 39.753 116.091 39.8105 116.034 39.8854C115.976 39.9602 115.947 40.0552 115.947 40.1703C115.947 40.366 116.019 40.5157 116.163 40.6193C116.307 40.7171 116.497 40.7661 116.733 40.7661C116.935 40.7661 117.116 40.72 117.277 40.6279C117.444 40.5301 117.576 40.4034 117.674 40.248C117.778 40.0868 117.83 39.9113 117.83 39.7213V38.7715C117.83 38.4837 117.746 38.2822 117.579 38.1671C117.418 38.052 117.171 37.9944 116.837 37.9944C116.601 37.9944 116.356 38.0289 116.103 38.098C115.855 38.1613 115.593 38.2707 115.317 38.4261L115.006 37.6318C115.19 37.5224 115.389 37.4303 115.602 37.3554C115.821 37.2806 116.048 37.2231 116.284 37.1828C116.52 37.1425 116.753 37.1223 116.983 37.1223C117.398 37.1223 117.749 37.1856 118.037 37.3123C118.325 37.4389 118.546 37.6318 118.702 37.8908C118.857 38.1498 118.935 38.4894 118.935 38.9097V41.5H117.942V40.6106C117.867 40.8006 117.763 40.9704 117.631 41.1201C117.499 41.264 117.335 41.3791 117.139 41.4655C116.949 41.5461 116.724 41.5863 116.465 41.5863ZM120.685 41.5V37.2087H121.73V38.0894H121.721C121.802 37.8994 121.911 37.7325 122.049 37.5886C122.193 37.4389 122.36 37.3238 122.55 37.2432C122.74 37.1626 122.95 37.1223 123.18 37.1223C123.531 37.1223 123.822 37.2087 124.052 37.3814C124.288 37.5483 124.447 37.7814 124.527 38.0807H124.501C124.616 37.8044 124.801 37.5771 125.054 37.3986C125.313 37.2144 125.627 37.1223 125.995 37.1223C126.323 37.1223 126.6 37.1885 126.824 37.3209C127.049 37.4533 127.218 37.6548 127.333 37.9253C127.449 38.1901 127.506 38.5297 127.506 38.9442V41.5H126.366V38.9874C126.366 38.6708 126.312 38.4376 126.202 38.288C126.099 38.1326 125.912 38.0548 125.641 38.0548C125.44 38.0548 125.264 38.1009 125.114 38.193C124.965 38.2851 124.85 38.4146 124.769 38.5815C124.688 38.7427 124.648 38.9327 124.648 39.1514V41.5H123.526V38.9874C123.526 38.6765 123.465 38.4434 123.344 38.288C123.229 38.1326 123.048 38.0548 122.8 38.0548C122.599 38.0548 122.423 38.1066 122.274 38.2103C122.13 38.3081 122.017 38.4376 121.937 38.5988C121.856 38.76 121.816 38.9413 121.816 39.1428V41.5H120.685ZM131.492 41.5863C130.968 41.5863 130.522 41.4971 130.153 41.3187C129.785 41.1345 129.506 40.8754 129.316 40.5416C129.126 40.2077 129.031 39.8134 129.031 39.3586C129.031 38.9269 129.12 38.5441 129.298 38.2103C129.483 37.8706 129.742 37.6058 130.076 37.4159C130.409 37.2202 130.801 37.1223 131.25 37.1223C131.67 37.1223 132.033 37.2115 132.338 37.39C132.649 37.5684 132.887 37.8217 133.054 38.1498C133.221 38.4779 133.305 38.8722 133.305 39.3327V39.6695H129.937V38.9787H132.485L132.346 39.1255C132.346 38.7283 132.251 38.4319 132.061 38.2362C131.877 38.0347 131.615 37.934 131.276 37.934C131.04 37.934 130.832 37.9858 130.654 38.0894C130.481 38.1872 130.346 38.3311 130.248 38.5211C130.15 38.7111 130.101 38.9471 130.101 39.2291V39.3327C130.101 39.6493 130.156 39.9084 130.265 40.1098C130.375 40.3056 130.533 40.4523 130.74 40.5502C130.953 40.6481 131.215 40.697 131.526 40.697C131.756 40.697 131.989 40.6682 132.226 40.6106C132.467 40.5473 132.686 40.4437 132.882 40.2998L133.201 41.0769C132.977 41.2496 132.709 41.3791 132.398 41.4655C132.093 41.5461 131.791 41.5863 131.492 41.5863ZM136.466 41.5863C136.212 41.5863 135.965 41.5662 135.723 41.5259C135.487 41.4914 135.271 41.4396 135.076 41.3705C134.88 41.2957 134.71 41.2035 134.566 41.0942L134.86 40.3171C135.009 40.4092 135.171 40.4898 135.343 40.5588C135.522 40.6222 135.703 40.6682 135.887 40.697C136.077 40.7258 136.258 40.7402 136.431 40.7402C136.742 40.7402 136.975 40.7027 137.131 40.6279C137.292 40.5473 137.372 40.4293 137.372 40.2739C137.372 40.1415 137.326 40.0437 137.234 39.9803C137.142 39.917 136.995 39.8681 136.794 39.8335L135.861 39.6954C135.458 39.6321 135.156 39.4939 134.955 39.2809C134.753 39.0622 134.652 38.7974 134.652 38.4866C134.652 38.216 134.727 37.98 134.877 37.7785C135.027 37.5713 135.245 37.4101 135.533 37.295C135.821 37.1799 136.172 37.1223 136.587 37.1223C136.8 37.1223 137.01 37.1425 137.217 37.1828C137.43 37.2173 137.628 37.272 137.813 37.3468C137.997 37.4159 138.149 37.5022 138.27 37.6058L137.951 38.383C137.836 38.2909 137.7 38.216 137.545 38.1585C137.395 38.0951 137.237 38.0491 137.07 38.0203C136.903 37.9858 136.742 37.9685 136.587 37.9685C136.282 37.9685 136.051 38.0117 135.896 38.098C135.746 38.1786 135.671 38.2966 135.671 38.452C135.671 38.5729 135.715 38.6679 135.801 38.737C135.887 38.8003 136.025 38.8463 136.215 38.8751L137.122 39.0305C137.554 39.0996 137.873 39.2349 138.08 39.4364C138.288 39.6378 138.391 39.9055 138.391 40.2394C138.391 40.5157 138.311 40.7546 138.149 40.956C137.994 41.1575 137.772 41.3129 137.485 41.4223C137.197 41.5317 136.857 41.5863 136.466 41.5863Z" fill="#202224"/>
<mask id="mask4_113_3673" style="mask-type:alpha" maskUnits="userSpaceOnUse" x="21" y="21" width="24" height="35">
<path d="M22.1304 27.5339C22.1304 24.7203 24.4112 22.4395 27.2247 22.4395H34.304C39.7192 22.4395 44.1091 26.8294 44.1091 32.2445V45.6025C44.1091 51.0177 39.7192 55.4075 34.304 55.4075H27.2247C24.4112 55.4075 22.1304 53.1267 22.1304 50.3132V27.5339Z" fill="white" stroke="url(#paint12_linear_113_3673)" stroke-opacity="0.3" stroke-width="1.02168"/>
</mask>
<g mask="url(#mask4_113_3673)">
<rect x="21.3454" y="21.8055" width="10.9893" height="34.236" fill="#FFA94E"/>
</g>
<defs>
<filter id="filter0_d_113_3673" x="0.385069" y="0.694181" width="168.897" height="81.7673" filterUnits="userSpaceOnUse" color-interpolation-filters="sRGB">
<feFlood flood-opacity="0" result="BackgroundImageFix"/>
<feColorMatrix in="SourceAlpha" type="matrix" values="0 0 0 0 0 0 0 0 0 0 0 0 0 0 0 0 0 0 127 0" result="hardAlpha"/>
<feOffset dx="2.65431" dy="2.65431"/>
<feGaussianBlur stdDeviation="11.9444"/>
<feColorMatrix type="matrix" values="0 0 0 0 0 0 0 0 0 0 0 0 0 0 0 0 0 0 0.05 0"/>
<feBlend mode="normal" in2="BackgroundImageFix" result="effect1_dropShadow_113_3673"/>
<feBlend mode="normal" in="SourceGraphic" in2="effect1_dropShadow_113_3673" result="shape"/>
</filter>
<filter id="filter1_di_113_3673" x="37.17" y="24.7209" width="27.9274" height="28.4347" filterUnits="userSpaceOnUse" color-interpolation-filters="sRGB">
<feFlood flood-opacity="0" result="BackgroundImageFix"/>
<feColorMatrix in="SourceAlpha" type="matrix" values="0 0 0 0 0 0 0 0 0 0 0 0 0 0 0 0 0 0 127 0" result="hardAlpha"/>
<feOffset dy="1.20562"/>
<feComposite in2="hardAlpha" operator="out"/>
<feColorMatrix type="matrix" values="0 0 0 0 0.176471 0 0 0 0 0.0352941 0 0 0 0 0.262745 0 0 0 1 0"/>
<feBlend mode="normal" in2="BackgroundImageFix" result="effect1_dropShadow_113_3673"/>
<feBlend mode="normal" in="SourceGraphic" in2="effect1_dropShadow_113_3673" result="shape"/>
<feColorMatrix in="SourceAlpha" type="matrix" values="0 0 0 0 0 0 0 0 0 0 0 0 0 0 0 0 0 0 127 0" result="hardAlpha"/>
<feOffset dx="0.188831" dy="-0.330455"/>
<feComposite in2="hardAlpha" operator="arithmetic" k2="-1" k3="1"/>
<feColorMatrix type="matrix" values="0 0 0 0 0 0 0 0 0 0 0 0 0 0 0 0 0 0 0.25 0"/>
<feBlend mode="normal" in2="shape" result="effect2_innerShadow_113_3673"/>
</filter>
<filter id="filter2_i_113_3673" x="38.4205" y="26.9679" width="19.7903" height="22.234" filterUnits="userSpaceOnUse" color-interpolation-filters="sRGB">
<feFlood flood-opacity="0" result="BackgroundImageFix"/>
<feBlend mode="normal" in="SourceGraphic" in2="BackgroundImageFix" result="shape"/>
<feColorMatrix in="SourceAlpha" type="matrix" values="0 0 0 0 0 0 0 0 0 0 0 0 0 0 0 0 0 0 127 0" result="hardAlpha"/>
<feOffset dx="0.177022" dy="-0.309789"/>
<feComposite in2="hardAlpha" operator="arithmetic" k2="-1" k3="1"/>
<feColorMatrix type="matrix" values="0 0 0 0 0 0 0 0 0 0 0 0 0 0 0 0 0 0 0.25 0"/>
<feBlend mode="normal" in2="shape" result="effect1_innerShadow_113_3673"/>
</filter>
<filter id="filter3_i_113_3673" x="44.9679" y="25.9821" width="18.8529" height="22.6796" filterUnits="userSpaceOnUse" color-interpolation-filters="sRGB">
<feFlood flood-opacity="0" result="BackgroundImageFix"/>
<feBlend mode="normal" in="SourceGraphic" in2="BackgroundImageFix" result="shape"/>
<feColorMatrix in="SourceAlpha" type="matrix" values="0 0 0 0 0 0 0 0 0 0 0 0 0 0 0 0 0 0 127 0" result="hardAlpha"/>
<feOffset dx="0.188831" dy="-0.330455"/>
<feComposite in2="hardAlpha" operator="arithmetic" k2="-1" k3="1"/>
<feColorMatrix type="matrix" values="0 0 0 0 0 0 0 0 0 0 0 0 0 0 0 0 0 0 0.25 0"/>
<feBlend mode="normal" in2="shape" result="effect1_innerShadow_113_3673"/>
</filter>
<filter id="filter4_i_113_3673" x="39.653" y="33.6316" width="16.2214" height="17.0529" filterUnits="userSpaceOnUse" color-interpolation-filters="sRGB">
<feFlood flood-opacity="0" result="BackgroundImageFix"/>
<feBlend mode="normal" in="SourceGraphic" in2="BackgroundImageFix" result="shape"/>
<feColorMatrix in="SourceAlpha" type="matrix" values="0 0 0 0 0 0 0 0 0 0 0 0 0 0 0 0 0 0 127 0" result="hardAlpha"/>
<feOffset dy="-0.821782"/>
<feGaussianBlur stdDeviation="1.38676"/>
<feComposite in2="hardAlpha" operator="arithmetic" k2="-1" k3="1"/>
<feColorMatrix type="matrix" values="0 0 0 0 0 0 0 0 0 0 0 0 0 0 0 0 0 0 0.35 0"/>
<feBlend mode="normal" in2="shape" result="effect1_innerShadow_113_3673"/>
</filter>
<linearGradient id="paint0_linear_113_3673" x1="49.5152" y1="10.5317" x2="107.599" y2="77.8896" gradientUnits="userSpaceOnUse">
<stop stop-color="#F1F1F1"/>
<stop offset="1" stop-color="#E1E1E1"/>
</linearGradient>
<linearGradient id="paint1_linear_113_3673" x1="56.2159" y1="27.0969" x2="52.5993" y2="47.5511" gradientUnits="userSpaceOnUse">
<stop stop-color="#FFF9E2"/>
<stop offset="1" stop-color="#FCE5C3"/>
</linearGradient>
<linearGradient id="paint2_linear_113_3673" x1="45.3137" y1="31.9088" x2="45.3137" y2="51.0449" gradientUnits="userSpaceOnUse">
<stop stop-color="#FFF9E2"/>
<stop offset="1" stop-color="#FCE5C3"/>
</linearGradient>
<linearGradient id="paint3_linear_113_3673" x1="45.5728" y1="32.3975" x2="45.5728" y2="49.794" gradientUnits="userSpaceOnUse">
<stop stop-color="#E74443"/>
<stop offset="1" stop-color="#CC0A09"/>
</linearGradient>
<linearGradient id="paint4_linear_113_3673" x1="45.3143" y1="31.9085" x2="45.3143" y2="51.0447" gradientUnits="userSpaceOnUse">
<stop stop-color="#FFF9E2"/>
<stop offset="1" stop-color="#FCE5C3"/>
</linearGradient>
<linearGradient id="paint5_linear_113_3673" x1="56.3253" y1="25.6974" x2="56.3253" y2="46.4689" gradientUnits="userSpaceOnUse">
<stop stop-color="#FFF9E2"/>
<stop offset="1" stop-color="#FCE5C3"/>
</linearGradient>
<linearGradient id="paint6_linear_113_3673" x1="56.1466" y1="26.7916" x2="56.1466" y2="45.6747" gradientUnits="userSpaceOnUse">
<stop stop-color="#E74443"/>
<stop offset="1" stop-color="#CC0A09"/>
</linearGradient>
<radialGradient id="paint7_radial_113_3673" cx="0" cy="0" r="1" gradientUnits="userSpaceOnUse" gradientTransform="translate(8.02728 4.86575) rotate(75.3868) scale(13.2157 13.1788)">
<stop offset="0.135417" stop-color="#00E0FF"/>
<stop offset="1" stop-color="#0055A3"/>
</radialGradient>
<radialGradient id="paint8_radial_113_3673" cx="0" cy="0" r="1" gradientUnits="userSpaceOnUse" gradientTransform="translate(8.02728 4.86575) rotate(75.3868) scale(13.2157 13.1788)">
<stop offset="0.135417" stop-color="#00E0FF"/>
<stop offset="1" stop-color="#0055A3"/>
</radialGradient>
<linearGradient id="paint9_linear_113_3673" x1="4.81395" y1="0" x2="4.81395" y2="9.7564" gradientUnits="userSpaceOnUse">
<stop stop-color="white"/>
<stop offset="1" stop-color="#C6C6C6" stop-opacity="0.47"/>
</linearGradient>
<linearGradient id="paint10_linear_113_3673" x1="43.3382" y1="36.7597" x2="54.2717" y2="48.2696" gradientUnits="userSpaceOnUse">
<stop stop-color="#1A3699"/>
<stop offset="1" stop-color="#1A4C99" stop-opacity="0"/>
</linearGradient>
<linearGradient id="paint11_linear_113_3673" x1="42.9348" y1="37.3753" x2="50.3734" y2="45.1484" gradientUnits="userSpaceOnUse">
<stop stop-color="white"/>
<stop offset="1" stop-color="#D9D9D9" stop-opacity="0"/>
</linearGradient>
<linearGradient id="paint12_linear_113_3673" x1="27.142" y1="10.5317" x2="50.9926" y2="15.5934" gradientUnits="userSpaceOnUse">
<stop stop-color="#F1F1F1"/>
<stop offset="1" stop-color="#E1E1E1"/>
</linearGradient>
</defs>
</svg>
