<svg width="170" height="83" viewBox="0 0 170 83" fill="none" xmlns="http://www.w3.org/2000/svg">
<g filter="url(#filter0_d_113_3292)">
<rect x="22.1304" y="22" width="120.098" height="32.968" rx="5.09434" fill="white"/>
<rect x="22.1304" y="22" width="120.098" height="32.968" rx="5.09434" stroke="url(#paint0_linear_113_3292)" stroke-opacity="0.3" stroke-width="1.02168"/>
</g>
<g filter="url(#filter1_dii_113_3292)">
<mask id="path-3-outside-1_113_3292" maskUnits="userSpaceOnUse" x="33.1359" y="21.5164" width="33.7192" height="31.2726" fill="black">
<rect fill="white" x="33.1359" y="21.5164" width="33.7192" height="31.2726"/>
<path d="M48.7267 25.7124C51.9259 25.2159 54.9535 26.9179 56.2921 29.6985C59.5142 29.2318 62.5117 31.4585 63.0037 34.699C63.461 37.712 61.5915 40.5446 58.7448 41.3552L59.3871 45.586C59.5374 46.5775 58.8561 47.5063 57.8651 47.6601L46.5822 49.4115C45.591 49.5654 44.6649 48.8858 44.5144 47.8941L43.8766 43.7001C43.8696 43.7012 43.8626 43.7032 43.8556 43.7043C40.6105 44.2081 37.5781 41.9731 37.083 38.7123C36.588 35.4515 38.8175 32.4 42.0624 31.8963C42.272 31.8638 42.4807 31.8424 42.6879 31.8323C43.1314 28.7635 45.5195 26.2102 48.7267 25.7124Z"/>
</mask>
<path d="M48.7267 25.7124C51.9259 25.2159 54.9535 26.9179 56.2921 29.6985C59.5142 29.2318 62.5117 31.4585 63.0037 34.699C63.461 37.712 61.5915 40.5446 58.7448 41.3552L59.3871 45.586C59.5374 46.5775 58.8561 47.5063 57.8651 47.6601L46.5822 49.4115C45.591 49.5654 44.6649 48.8858 44.5144 47.8941L43.8766 43.7001C43.8696 43.7012 43.8626 43.7032 43.8556 43.7043C40.6105 44.2081 37.5781 41.9731 37.083 38.7123C36.588 35.4515 38.8175 32.4 42.0624 31.8963C42.272 31.8638 42.4807 31.8424 42.6879 31.8323C43.1314 28.7635 45.5195 26.2102 48.7267 25.7124Z" fill="url(#paint1_linear_113_3292)"/>
<path d="M48.7267 25.7124L48.5354 24.4639L48.5354 24.4639L48.7267 25.7124ZM56.2921 29.6985L55.1544 30.2485L55.5554 31.0815L56.4708 30.9489L56.2921 29.6985ZM63.0037 34.699L64.2521 34.5071L64.2521 34.507L63.0037 34.699ZM58.7448 41.3552L58.4013 40.1401L57.3292 40.4454L57.4964 41.5472L58.7448 41.3552ZM59.3871 45.586L60.6355 45.3943L60.6355 45.394L59.3871 45.586ZM57.8651 47.6601L58.0564 48.9086L58.0564 48.9086L57.8651 47.6601ZM46.5822 49.4115L46.7735 50.66L46.7735 50.66L46.5822 49.4115ZM44.5144 47.8941L45.7627 47.702L45.7627 47.7018L44.5144 47.8941ZM43.8766 43.7001L45.1249 43.5078L44.9342 42.2531L43.6808 42.4523L43.8766 43.7001ZM43.8556 43.7043L44.0469 44.9528L44.047 44.9528L43.8556 43.7043ZM37.083 38.7123L35.8347 38.9043L35.8347 38.9043L37.083 38.7123ZM42.0624 31.8963L41.8712 30.6479L41.8711 30.6479L42.0624 31.8963ZM42.6879 31.8323L42.7472 33.0942L43.7883 33.0432L43.9375 32.0109L42.6879 31.8323ZM48.7267 25.7124L48.9179 26.9608C51.55 26.5523 54.0485 27.9512 55.1544 30.2485L56.2921 29.6985L57.4299 29.1485C55.8586 25.8846 52.3018 23.8794 48.5354 24.4639L48.7267 25.7124ZM56.2921 29.6985L56.4708 30.9489C59.0027 30.5821 61.3668 32.3318 61.7554 34.891L63.0037 34.699L64.2521 34.507C63.6566 30.5852 60.0258 27.8814 56.1135 28.4481L56.2921 29.6985ZM63.0037 34.699L61.7554 34.891C62.1164 37.2701 60.6397 39.5027 58.4013 40.1401L58.7448 41.3552L59.0883 42.5703C62.5433 41.5865 64.8055 38.1539 64.2521 34.5071L63.0037 34.699ZM58.7448 41.3552L57.4964 41.5472L58.1388 45.778L59.3871 45.586L60.6355 45.394L59.9931 41.1632L58.7448 41.3552ZM59.3871 45.586L58.1387 45.7777C58.1847 46.0808 57.9759 46.3648 57.6738 46.4117L57.8651 47.6601L58.0564 48.9086C59.7363 48.6478 60.8902 47.0743 60.6355 45.3943L59.3871 45.586ZM57.8651 47.6601L57.6738 46.4117L46.3909 48.1631L46.5822 49.4115L46.7735 50.66L58.0564 48.9086L57.8651 47.6601ZM46.5822 49.4115L46.3909 48.1631C46.0897 48.2098 45.8085 48.0034 45.7627 47.702L44.5144 47.8941L43.266 48.0861C43.5214 49.7681 45.0924 50.9209 46.7735 50.66L46.5822 49.4115ZM44.5144 47.8941L45.7627 47.7018L45.1249 43.5078L43.8766 43.7001L42.6283 43.8924L43.2661 48.0864L44.5144 47.8941ZM43.8766 43.7001L43.6808 42.4523C43.6532 42.4567 43.6308 42.4612 43.6167 42.4641C43.6095 42.4656 43.6036 42.4669 43.5998 42.4677C43.5962 42.4685 43.593 42.4692 43.5927 42.4693C43.5917 42.4695 43.5934 42.4692 43.5956 42.4687C43.5981 42.4681 43.6026 42.4671 43.6084 42.4659C43.6197 42.4636 43.6393 42.4597 43.6642 42.4559L43.8556 43.7043L44.047 44.9528C44.0753 44.9484 44.0985 44.9438 44.1133 44.9408C44.1208 44.9392 44.1271 44.9379 44.1313 44.9369C44.1353 44.9361 44.1388 44.9353 44.1395 44.9351C44.141 44.9348 44.1395 44.9351 44.1377 44.9355C44.1356 44.936 44.1314 44.9369 44.126 44.938C44.1155 44.9402 44.0965 44.944 44.0725 44.9478L43.8766 43.7001ZM43.8556 43.7043L43.6643 42.4559C41.1142 42.8517 38.7224 41.0957 38.3314 38.5202L37.083 38.7123L35.8347 38.9043C36.4338 42.8504 40.1069 45.5644 44.0469 44.9528L43.8556 43.7043ZM37.083 38.7123L38.3314 38.5203C37.9402 35.9435 39.7024 33.5408 42.2537 33.1448L42.0624 31.8963L41.8711 30.6479C37.9326 31.2593 35.2359 34.9595 35.8347 38.9043L37.083 38.7123ZM42.0624 31.8963L42.2537 33.1448C42.4206 33.1189 42.5852 33.1021 42.7472 33.0942L42.6879 31.8323L42.6285 30.5704C42.3762 30.5828 42.1235 30.6087 41.8712 30.6479L42.0624 31.8963ZM42.6879 31.8323L43.9375 32.0109C44.3043 29.4736 46.2785 27.3705 48.918 26.9608L48.7267 25.7124L48.5354 24.4639C44.7605 25.0499 41.9586 28.0534 41.4382 31.6537L42.6879 31.8323Z" fill="#460860" mask="url(#path-3-outside-1_113_3292)"/>
</g>
<path fill-rule="evenodd" clip-rule="evenodd" d="M52.6901 39.8414C51.9955 40.0123 51.6553 40.2459 51.5599 40.3814C51.3226 40.7185 50.857 40.7993 50.5199 40.562C50.1829 40.3247 50.102 39.8592 50.3393 39.5221C50.7606 38.9238 51.5614 38.5819 52.3335 38.3919C53.151 38.1909 54.1254 38.1141 55.1021 38.1812C56.0781 38.2484 57.094 38.4618 57.9824 38.8703C58.8704 39.2785 59.7281 39.8121 60.1927 40.723C59.6945 41.016 59.3326 41.1721 58.7574 41.3545C58.49 40.8302 58.0452 40.542 57.3589 40.2265C56.673 39.9111 55.8428 39.7284 54.9996 39.6704C54.1572 39.6124 53.3393 39.6817 52.6901 39.8414Z" fill="url(#paint2_linear_113_3292)"/>
<path d="M51.5023 36.1737C53.4338 32.6396 51.3987 28.5022 50.2607 26.9158C52.4811 26.9158 54.205 27.7498 55.5155 29.2888C56.0485 29.9147 56.2569 30.7532 56.1334 31.5654C55.6569 34.6982 54.0738 36.6851 51.8684 36.852C51.5188 36.8784 51.3342 36.4813 51.5023 36.1737Z" fill="#FEF1F1"/>
<path d="M43.5754 33.1561C44.0121 30.3812 45.9708 28.8395 46.7944 28.3429C45.3147 29.6526 44.3453 32.1913 46.7853 36.9985C47.0232 37.4673 46.5494 37.9291 46.1381 37.6018C44.7468 36.4945 43.3565 34.8562 43.5754 33.1561Z" fill="#E9C7C7" style="mix-blend-mode:multiply"/>
<path d="M39.3055 42.073C37.3475 40.8011 37.3859 38.2027 37.6498 37.0625C38.4052 40.9171 41.7612 41.291 44.6746 40.6133C46.169 40.2657 47.8437 41.0751 48.1318 42.5834L49.1868 48.1056L46.5584 48.6448C45.907 48.7784 45.2744 48.3431 45.1658 47.6865L44.5129 43.7394C44.4471 43.3416 44.0537 43.0818 43.6522 43.1162C42.5603 43.21 40.8435 43.072 39.3055 42.073Z" fill="#E9C7C7" style="mix-blend-mode:multiply"/>
<rect x="45.6678" y="42.5917" width="1.72231" height="5.39658" rx="0.861156" transform="rotate(-10.6594 45.6678 42.5917)" fill="url(#paint3_linear_113_3292)"/>
<rect x="50.3755" y="41.8453" width="1.72231" height="5.39658" rx="0.861156" transform="rotate(-10.6594 50.3755 41.8453)" fill="url(#paint4_linear_113_3292)"/>
<rect x="55.0257" y="41.2138" width="1.72231" height="5.39658" rx="0.861156" transform="rotate(-10.6594 55.0257 41.2138)" fill="url(#paint5_linear_113_3292)"/>
<ellipse cx="40.5297" cy="34.8908" rx="2.78946" ry="1.33409" transform="rotate(-38.4497 40.5297 34.8908)" fill="url(#paint6_linear_113_3292)"/>
<ellipse cx="58.2975" cy="30.7802" rx="1.59759" ry="0.764065" transform="rotate(12.0185 58.2975 30.7802)" fill="url(#paint7_linear_113_3292)"/>
<path d="M73.4121 41.484V35.3967H77.5394V36.3551H74.5778V37.987H77.3667V38.9455H74.5778V41.484H73.4121ZM80.2778 41.5704C79.967 41.5704 79.6849 41.5099 79.4316 41.389C79.1841 41.2681 78.9884 41.107 78.8445 40.9055C78.7064 40.6983 78.6373 40.468 78.6373 40.2147C78.6373 39.8981 78.7265 39.6449 78.9049 39.4549C79.0834 39.2592 79.3626 39.1153 79.7425 39.0232C80.1224 38.9311 80.6174 38.885 81.2276 38.885H81.7889V39.5758H81.2708C81.006 39.5758 80.7786 39.5844 80.5887 39.6017C80.3987 39.619 80.2404 39.6506 80.1138 39.6967C79.9929 39.737 79.9037 39.7945 79.8461 39.8694C79.7885 39.9442 79.7598 40.0392 79.7598 40.1543C79.7598 40.35 79.8317 40.4997 79.9756 40.6033C80.1195 40.7011 80.3095 40.7501 80.5455 40.7501C80.747 40.7501 80.9283 40.704 81.0895 40.6119C81.2564 40.5141 81.3888 40.3874 81.4867 40.232C81.5903 40.0708 81.6421 39.8953 81.6421 39.7053V38.7555C81.6421 38.4677 81.5586 38.2662 81.3917 38.1511C81.2305 38.036 80.983 37.9784 80.6491 37.9784C80.4131 37.9784 80.1685 38.0129 79.9152 38.082C79.6677 38.1453 79.4057 38.2547 79.1294 38.4101L78.8186 37.6158C79.0028 37.5064 79.2014 37.4143 79.4144 37.3395C79.6331 37.2646 79.8605 37.2071 80.0965 37.1668C80.3325 37.1265 80.5656 37.1063 80.7959 37.1063C81.2104 37.1063 81.5615 37.1696 81.8493 37.2963C82.1371 37.4229 82.3587 37.6158 82.5142 37.8748C82.6696 38.1338 82.7473 38.4735 82.7473 38.8937V41.484H81.7543V40.5947C81.6795 40.7846 81.5759 40.9544 81.4435 41.1041C81.3111 41.248 81.147 41.3631 80.9513 41.4495C80.7614 41.5301 80.5369 41.5704 80.2778 41.5704ZM84.4973 41.484V37.1927H85.5421V38.0734H85.5335C85.6141 37.8834 85.7234 37.7165 85.8616 37.5726C86.0055 37.4229 86.1724 37.3078 86.3624 37.2272C86.5523 37.1466 86.7624 37.1063 86.9927 37.1063C87.3438 37.1063 87.6345 37.1927 87.8648 37.3654C88.1008 37.5323 88.2591 37.7654 88.3397 38.0648H88.3138C88.4289 37.7885 88.6131 37.5611 88.8664 37.3826C89.1254 37.1984 89.4391 37.1063 89.8075 37.1063C90.1356 37.1063 90.4119 37.1725 90.6364 37.3049C90.8609 37.4373 91.0308 37.6388 91.1459 37.9093C91.261 38.1741 91.3186 38.5137 91.3186 38.9282V41.484H90.1788V38.9714C90.1788 38.6548 90.1241 38.4216 90.0148 38.272C89.9111 38.1166 89.7241 38.0389 89.4535 38.0389C89.252 38.0389 89.0765 38.0849 88.9268 38.177C88.7772 38.2691 88.662 38.3986 88.5814 38.5656C88.5008 38.7267 88.4606 38.9167 88.4606 39.1354V41.484H87.3381V38.9714C87.3381 38.6605 87.2776 38.4274 87.1567 38.272C87.0416 38.1166 86.8603 38.0389 86.6128 38.0389C86.4113 38.0389 86.2357 38.0907 86.0861 38.1943C85.9422 38.2921 85.8299 38.4216 85.7493 38.5828C85.6687 38.744 85.6284 38.9253 85.6284 39.1268V41.484H84.4973ZM92.9813 36.3206V35.1808H94.2938V36.3206H92.9813ZM93.0763 41.484V37.1927H94.2247V41.484H93.0763ZM97.4576 41.5704C96.9683 41.5704 96.597 41.438 96.3437 41.1732C96.0962 40.9084 95.9724 40.5256 95.9724 40.0248V35.3967H97.1208V39.9471C97.1208 40.1025 97.141 40.2349 97.1812 40.3443C97.2273 40.4479 97.2935 40.5285 97.3798 40.586C97.4662 40.6378 97.5756 40.6637 97.708 40.6637C97.7828 40.6637 97.8547 40.6609 97.9238 40.6551C97.9986 40.6436 98.0764 40.6292 98.1569 40.6119L98.2001 41.4581C98.0792 41.4984 97.9612 41.5272 97.8461 41.5445C97.731 41.5617 97.6015 41.5704 97.4576 41.5704ZM99.705 43.0382L100.603 41.0609V41.8208L98.6343 37.1927H99.8518L101.061 40.3788H100.974L102.183 37.1927H103.357L100.888 43.0382H99.705ZM107.539 41.484V35.3967H111.666V36.3551H108.705V37.987H111.494V38.9455H108.705V41.484H107.539ZM115.173 41.5704C114.649 41.5704 114.203 41.4811 113.834 41.3027C113.466 41.1185 113.187 40.8594 112.997 40.5256C112.807 40.1917 112.712 39.7974 112.712 39.3427C112.712 38.9109 112.801 38.5281 112.98 38.1943C113.164 37.8546 113.423 37.5899 113.757 37.3999C114.091 37.2042 114.482 37.1063 114.931 37.1063C115.351 37.1063 115.714 37.1955 116.019 37.374C116.33 37.5524 116.569 37.8057 116.736 38.1338C116.903 38.4619 116.986 38.8562 116.986 39.3168V39.6535H113.619V38.9627H116.166L116.028 39.1095C116.028 38.7123 115.933 38.4159 115.743 38.2202C115.558 38.0187 115.297 37.918 114.957 37.918C114.721 37.918 114.514 37.9698 114.335 38.0734C114.163 38.1712 114.027 38.3152 113.929 38.5051C113.832 38.6951 113.783 38.9311 113.783 39.2131V39.3168C113.783 39.6334 113.837 39.8924 113.947 40.0939C114.056 40.2896 114.214 40.4364 114.422 40.5342C114.635 40.6321 114.896 40.681 115.207 40.681C115.438 40.681 115.671 40.6522 115.907 40.5947C116.148 40.5313 116.367 40.4277 116.563 40.2838L116.882 41.0609C116.658 41.2336 116.39 41.3631 116.079 41.4495C115.774 41.5301 115.472 41.5704 115.173 41.5704ZM119.957 41.5704C119.646 41.5704 119.364 41.5099 119.111 41.389C118.863 41.2681 118.668 41.107 118.524 40.9055C118.385 40.6983 118.316 40.468 118.316 40.2147C118.316 39.8981 118.406 39.6449 118.584 39.4549C118.762 39.2592 119.042 39.1153 119.422 39.0232C119.802 38.9311 120.297 38.885 120.907 38.885H121.468V39.5758H120.95C120.685 39.5758 120.458 39.5844 120.268 39.6017C120.078 39.619 119.92 39.6506 119.793 39.6967C119.672 39.737 119.583 39.7945 119.525 39.8694C119.468 39.9442 119.439 40.0392 119.439 40.1543C119.439 40.35 119.511 40.4997 119.655 40.6033C119.799 40.7011 119.989 40.7501 120.225 40.7501C120.426 40.7501 120.607 40.704 120.769 40.6119C120.936 40.5141 121.068 40.3874 121.166 40.232C121.269 40.0708 121.321 39.8953 121.321 39.7053V38.7555C121.321 38.4677 121.238 38.2662 121.071 38.1511C120.91 38.036 120.662 37.9784 120.328 37.9784C120.092 37.9784 119.848 38.0129 119.594 38.082C119.347 38.1453 119.085 38.2547 118.809 38.4101L118.498 37.6158C118.682 37.5064 118.881 37.4143 119.093 37.3395C119.312 37.2646 119.54 37.2071 119.776 37.1668C120.012 37.1265 120.245 37.1063 120.475 37.1063C120.889 37.1063 121.241 37.1696 121.528 37.2963C121.816 37.4229 122.038 37.6158 122.193 37.8748C122.349 38.1338 122.426 38.4735 122.426 38.8937V41.484H121.433V40.5947C121.359 40.7846 121.255 40.9544 121.123 41.1041C120.99 41.248 120.826 41.3631 120.63 41.4495C120.44 41.5301 120.216 41.5704 119.957 41.5704ZM125.826 41.5704C125.572 41.5704 125.325 41.5502 125.083 41.5099C124.847 41.4754 124.631 41.4236 124.435 41.3545C124.24 41.2797 124.07 41.1876 123.926 41.0782L124.22 40.3011C124.369 40.3932 124.53 40.4738 124.703 40.5429C124.882 40.6062 125.063 40.6522 125.247 40.681C125.437 40.7098 125.618 40.7242 125.791 40.7242C126.102 40.7242 126.335 40.6868 126.49 40.6119C126.652 40.5313 126.732 40.4133 126.732 40.2579C126.732 40.1255 126.686 40.0277 126.594 39.9643C126.502 39.901 126.355 39.8521 126.154 39.8176L125.221 39.6794C124.818 39.6161 124.516 39.4779 124.315 39.2649C124.113 39.0462 124.012 38.7814 124.012 38.4706C124.012 38.2 124.087 37.964 124.237 37.7625C124.387 37.5553 124.605 37.3941 124.893 37.279C125.181 37.1639 125.532 37.1063 125.947 37.1063C126.159 37.1063 126.37 37.1265 126.577 37.1668C126.79 37.2013 126.988 37.256 127.173 37.3308C127.357 37.3999 127.509 37.4862 127.63 37.5899L127.311 38.367C127.196 38.2749 127.06 38.2 126.905 38.1425C126.755 38.0791 126.597 38.0331 126.43 38.0043C126.263 37.9698 126.102 37.9525 125.947 37.9525C125.641 37.9525 125.411 37.9957 125.256 38.082C125.106 38.1626 125.031 38.2806 125.031 38.436C125.031 38.5569 125.074 38.6519 125.161 38.721C125.247 38.7843 125.385 38.8303 125.575 38.8591L126.482 39.0145C126.914 39.0836 127.233 39.2189 127.44 39.4204C127.647 39.6218 127.751 39.8895 127.751 40.2234C127.751 40.4997 127.671 40.7386 127.509 40.94C127.354 41.1415 127.132 41.2969 126.844 41.4063C126.557 41.5157 126.217 41.5704 125.826 41.5704ZM131.201 41.5704C130.608 41.5704 130.165 41.4236 129.871 41.13C129.583 40.8307 129.439 40.4018 129.439 39.8435V38.0993H128.611V37.1927H129.491V35.9666H130.588V37.1927H132.03V38.0993H130.588V39.7917C130.588 40.068 130.654 40.2752 130.786 40.4133C130.919 40.5457 131.12 40.6119 131.391 40.6119C131.494 40.6119 131.598 40.6033 131.702 40.586C131.805 40.563 131.909 40.5342 132.012 40.4997L132.177 41.3631C132.044 41.4322 131.892 41.484 131.719 41.5185C131.546 41.5531 131.374 41.5704 131.201 41.5704Z" fill="#202224"/>
<mask id="mask0_113_3292" style="mask-type:alpha" maskUnits="userSpaceOnUse" x="21" y="21" width="24" height="35">
<path d="M22.1304 27.0943C22.1304 24.2808 24.4112 22 27.2247 22H34.304C39.7192 22 44.1091 26.3899 44.1091 31.805V45.163C44.1091 50.5782 39.7192 54.968 34.304 54.968H27.2247C24.4112 54.968 22.1304 52.6872 22.1304 49.8737V27.0943Z" fill="white" stroke="url(#paint8_linear_113_3292)" stroke-opacity="0.3" stroke-width="1.02168"/>
</mask>
<g mask="url(#mask0_113_3292)">
<rect x="21.3454" y="21.366" width="10.9893" height="34.236" fill="#FFA94E"/>
</g>
<defs>
<filter id="filter0_d_113_3292" x="0.385069" y="0.254667" width="168.897" height="81.7673" filterUnits="userSpaceOnUse" color-interpolation-filters="sRGB">
<feFlood flood-opacity="0" result="BackgroundImageFix"/>
<feColorMatrix in="SourceAlpha" type="matrix" values="0 0 0 0 0 0 0 0 0 0 0 0 0 0 0 0 0 0 127 0" result="hardAlpha"/>
<feOffset dx="2.65431" dy="2.65431"/>
<feGaussianBlur stdDeviation="11.9444"/>
<feColorMatrix type="matrix" values="0 0 0 0 0 0 0 0 0 0 0 0 0 0 0 0 0 0 0.05 0"/>
<feBlend mode="normal" in2="BackgroundImageFix" result="effect1_dropShadow_113_3292"/>
<feBlend mode="normal" in="SourceGraphic" in2="effect1_dropShadow_113_3292" result="shape"/>
</filter>
<filter id="filter1_dii_113_3292" x="35.7515" y="24.363" width="28.5838" height="27.5395" filterUnits="userSpaceOnUse" color-interpolation-filters="sRGB">
<feFlood flood-opacity="0" result="BackgroundImageFix"/>
<feColorMatrix in="SourceAlpha" type="matrix" values="0 0 0 0 0 0 0 0 0 0 0 0 0 0 0 0 0 0 127 0" result="hardAlpha"/>
<feOffset dy="1.20562"/>
<feComposite in2="hardAlpha" operator="out"/>
<feColorMatrix type="matrix" values="0 0 0 0 0.176471 0 0 0 0 0.0352941 0 0 0 0 0.262745 0 0 0 1 0"/>
<feBlend mode="normal" in2="BackgroundImageFix" result="effect1_dropShadow_113_3292"/>
<feBlend mode="normal" in="SourceGraphic" in2="effect1_dropShadow_113_3292" result="shape"/>
<feColorMatrix in="SourceAlpha" type="matrix" values="0 0 0 0 0 0 0 0 0 0 0 0 0 0 0 0 0 0 127 0" result="hardAlpha"/>
<feOffset dx="0.975976" dy="2.18159"/>
<feComposite in2="hardAlpha" operator="arithmetic" k2="-1" k3="1"/>
<feColorMatrix type="matrix" values="0 0 0 0 1 0 0 0 0 1 0 0 0 0 1 0 0 0 0.4 0"/>
<feBlend mode="normal" in2="shape" result="effect2_innerShadow_113_3292"/>
<feColorMatrix in="SourceAlpha" type="matrix" values="0 0 0 0 0 0 0 0 0 0 0 0 0 0 0 0 0 0 127 0" result="hardAlpha"/>
<feOffset dx="-2.239" dy="-1.49267"/>
<feComposite in2="hardAlpha" operator="arithmetic" k2="-1" k3="1"/>
<feColorMatrix type="matrix" values="0 0 0 0 0.425 0 0 0 0 0.141667 0 0 0 0 0.141667 0 0 0 0.25 0"/>
<feBlend mode="normal" in2="effect2_innerShadow_113_3292" result="effect3_innerShadow_113_3292"/>
</filter>
<linearGradient id="paint0_linear_113_3292" x1="49.5152" y1="10.0922" x2="107.599" y2="77.4501" gradientUnits="userSpaceOnUse">
<stop stop-color="#F1F1F1"/>
<stop offset="1" stop-color="#E1E1E1"/>
</linearGradient>
<linearGradient id="paint1_linear_113_3292" x1="48.3749" y1="25.7667" x2="51.9016" y2="48.5896" gradientUnits="userSpaceOnUse">
<stop stop-color="#FFEBEB"/>
<stop offset="1" stop-color="#E1B1AE"/>
</linearGradient>
<linearGradient id="paint2_linear_113_3292" x1="59.3028" y1="40.9813" x2="53.1025" y2="38.9433" gradientUnits="userSpaceOnUse">
<stop stop-color="#C89492" stop-opacity="0.995"/>
<stop offset="0.427178" stop-color="#C4B9B8" stop-opacity="0.569958"/>
<stop offset="1" stop-color="#C89492" stop-opacity="0"/>
</linearGradient>
<linearGradient id="paint3_linear_113_3292" x1="46.529" y1="42.5917" x2="46.529" y2="47.9883" gradientUnits="userSpaceOnUse">
<stop stop-color="#E4B5B2" stop-opacity="0"/>
<stop offset="1" stop-color="#E4B5B2"/>
</linearGradient>
<linearGradient id="paint4_linear_113_3292" x1="51.2367" y1="41.8453" x2="51.2367" y2="47.2419" gradientUnits="userSpaceOnUse">
<stop stop-color="#CC9997"/>
<stop offset="1" stop-color="#EDC7C5" stop-opacity="0"/>
</linearGradient>
<linearGradient id="paint5_linear_113_3292" x1="55.8869" y1="41.2138" x2="55.8869" y2="46.6104" gradientUnits="userSpaceOnUse">
<stop stop-color="#CB9B9A"/>
<stop offset="1" stop-color="#CB9C9A" stop-opacity="0"/>
</linearGradient>
<linearGradient id="paint6_linear_113_3292" x1="42.6208" y1="33.1643" x2="41.1168" y2="37.3273" gradientUnits="userSpaceOnUse">
<stop stop-color="white"/>
<stop offset="1" stop-color="white" stop-opacity="0"/>
</linearGradient>
<linearGradient id="paint7_linear_113_3292" x1="59.4951" y1="29.7914" x2="58.6338" y2="32.1756" gradientUnits="userSpaceOnUse">
<stop stop-color="white"/>
<stop offset="1" stop-color="white" stop-opacity="0"/>
</linearGradient>
<linearGradient id="paint8_linear_113_3292" x1="27.142" y1="10.0922" x2="50.9926" y2="15.1539" gradientUnits="userSpaceOnUse">
<stop stop-color="#F1F1F1"/>
<stop offset="1" stop-color="#E1E1E1"/>
</linearGradient>
</defs>
</svg>
