<svg width="301" height="105" viewBox="0 0 301 105" fill="none" xmlns="http://www.w3.org/2000/svg">
<g filter="url(#filter0_d_113_3701)">
<rect x="28" y="28" width="238.267" height="41.8784" rx="6.49" fill="white"/>
<rect x="28" y="28" width="238.267" height="41.8784" rx="6.49" stroke="url(#paint0_linear_113_3701)" stroke-opacity="0.3" stroke-width="1.30158"/>
</g>
<path d="M52.5695 52.5L56.0675 44.745H57.2555L60.7645 52.5H59.3125L58.3775 50.322L58.9825 50.74H54.3405L54.9455 50.322L54.0215 52.5H52.5695ZM56.6395 46.285L55.1105 49.937L54.8245 49.596H58.4985L58.2235 49.937L56.6725 46.285H56.6395ZM62.54 53.281L61.495 52.973L64.333 44.14L65.389 44.448L62.54 53.281ZM66.6391 52.5V44.745H70.0491C70.8704 44.745 71.5084 44.921 71.9631 45.273C72.4177 45.625 72.6451 46.12 72.6451 46.758C72.6451 47.2273 72.5131 47.6197 72.2491 47.935C71.9851 48.2503 71.6331 48.463 71.1931 48.573V48.441C71.5304 48.4923 71.8201 48.6023 72.0621 48.771C72.3114 48.9323 72.5021 49.145 72.6341 49.409C72.7734 49.6657 72.8431 49.9737 72.8431 50.333C72.8431 50.7877 72.7367 51.18 72.5241 51.51C72.3114 51.8327 72.0034 52.0783 71.6001 52.247C71.2041 52.4157 70.7274 52.5 70.1701 52.5H66.6391ZM68.0251 51.4H70.0161C70.2067 51.4 70.3791 51.3853 70.5331 51.356C70.6944 51.3267 70.8301 51.2827 70.9401 51.224C71.0574 51.158 71.1527 51.081 71.2261 50.993C71.2994 50.8977 71.3544 50.7913 71.3911 50.674C71.4277 50.5493 71.4461 50.41 71.4461 50.256C71.4461 50.102 71.4277 49.9627 71.3911 49.838C71.3544 49.7133 71.2957 49.607 71.2151 49.519C71.1417 49.431 71.0464 49.3577 70.9291 49.299C70.8191 49.2403 70.6871 49.1963 70.5331 49.167C70.3791 49.1377 70.2067 49.123 70.0161 49.123H68.0251V51.4ZM68.0251 48.023H69.8291C70.3057 48.023 70.6614 47.9313 70.8961 47.748C71.1307 47.5647 71.2481 47.2933 71.2481 46.934C71.2481 46.5747 71.1307 46.3033 70.8961 46.12C70.6614 45.9367 70.3057 45.845 69.8291 45.845H68.0251V48.023ZM80.3784 52.5V45.944H77.7164V44.745H84.4704V45.944H81.8084V52.5H80.3784ZM87.7151 52.61C87.0917 52.61 86.5564 52.4963 86.1091 52.269C85.6617 52.0417 85.3171 51.719 85.0751 51.301C84.8331 50.8757 84.7121 50.377 84.7121 49.805C84.7121 49.2477 84.8257 48.76 85.0531 48.342C85.2877 47.9167 85.6104 47.5867 86.0211 47.352C86.4391 47.11 86.9157 46.989 87.4511 46.989C87.9717 46.989 88.4191 47.099 88.7931 47.319C89.1671 47.539 89.4567 47.8543 89.6621 48.265C89.8674 48.6683 89.9701 49.156 89.9701 49.728V50.135H85.8341V49.321H88.9801L88.8041 49.486C88.8041 48.9873 88.6904 48.606 88.4631 48.342C88.2357 48.078 87.9131 47.946 87.4951 47.946C87.1944 47.946 86.9341 48.0157 86.7141 48.155C86.4941 48.2943 86.3254 48.4923 86.2081 48.749C86.0907 49.0057 86.0321 49.31 86.0321 49.662V49.761C86.0321 50.1643 86.0944 50.498 86.2191 50.762C86.3511 51.0187 86.5454 51.213 86.8021 51.345C87.0587 51.477 87.3741 51.543 87.7481 51.543C88.0487 51.543 88.3494 51.499 88.6501 51.411C88.9507 51.323 89.2257 51.18 89.4751 50.982L89.8711 51.928C89.5997 52.148 89.2697 52.3167 88.8811 52.434C88.4924 52.5513 88.1037 52.61 87.7151 52.61ZM93.698 52.61C93.3973 52.61 93.1003 52.5843 92.807 52.533C92.521 52.4817 92.257 52.412 92.015 52.324C91.7803 52.2287 91.5713 52.1113 91.388 51.972L91.751 51.048C91.9343 51.1653 92.1323 51.268 92.345 51.356C92.565 51.4367 92.7886 51.499 93.016 51.543C93.2506 51.587 93.478 51.609 93.698 51.609C94.0646 51.609 94.336 51.554 94.512 51.444C94.6953 51.3267 94.787 51.169 94.787 50.971C94.787 50.8023 94.7283 50.674 94.611 50.586C94.501 50.498 94.3286 50.432 94.094 50.388L92.961 50.19C92.4916 50.102 92.136 49.9297 91.894 49.673C91.652 49.4163 91.531 49.0937 91.531 48.705C91.531 48.353 91.6263 48.0487 91.817 47.792C92.0076 47.5353 92.279 47.3373 92.631 47.198C92.983 47.0587 93.3936 46.989 93.863 46.989C94.127 46.989 94.3836 47.011 94.633 47.055C94.8823 47.099 95.117 47.1687 95.337 47.264C95.557 47.352 95.7476 47.4693 95.909 47.616L95.524 48.54C95.3846 48.4227 95.2196 48.3237 95.029 48.243C94.8456 48.1623 94.655 48.1 94.457 48.056C94.259 48.012 94.0646 47.99 93.874 47.99C93.5073 47.99 93.2323 48.0487 93.049 48.166C92.873 48.2833 92.785 48.4447 92.785 48.65C92.785 48.804 92.8363 48.9287 92.939 49.024C93.049 49.1193 93.214 49.1853 93.434 49.222L94.545 49.431C95.0436 49.519 95.4176 49.684 95.667 49.926C95.9236 50.168 96.052 50.4907 96.052 50.894C96.052 51.2533 95.953 51.5613 95.755 51.818C95.5643 52.0747 95.293 52.2727 94.941 52.412C94.589 52.544 94.1746 52.61 93.698 52.61ZM100.224 52.61C99.491 52.61 98.9447 52.4303 98.5853 52.071C98.2333 51.7043 98.0573 51.1727 98.0573 50.476V48.166H97.0123V47.099H98.0683V45.504H99.4543V47.099H101.148V48.166H99.4543V50.399C99.4543 50.751 99.5313 51.015 99.6853 51.191C99.8467 51.367 100.1 51.455 100.444 51.455C100.554 51.455 100.668 51.4403 100.785 51.411C100.903 51.3817 101.024 51.3523 101.148 51.323L101.357 52.357C101.211 52.4377 101.035 52.5 100.829 52.544C100.624 52.588 100.422 52.61 100.224 52.61ZM108.983 52.61C108.36 52.61 107.824 52.4963 107.377 52.269C106.93 52.0417 106.585 51.719 106.343 51.301C106.101 50.8757 105.98 50.377 105.98 49.805C105.98 49.2477 106.094 48.76 106.321 48.342C106.556 47.9167 106.878 47.5867 107.289 47.352C107.707 47.11 108.184 46.989 108.719 46.989C109.24 46.989 109.687 47.099 110.061 47.319C110.435 47.539 110.725 47.8543 110.93 48.265C111.135 48.6683 111.238 49.156 111.238 49.728V50.135H107.102V49.321H110.248L110.072 49.486C110.072 48.9873 109.958 48.606 109.731 48.342C109.504 48.078 109.181 47.946 108.763 47.946C108.462 47.946 108.202 48.0157 107.982 48.155C107.762 48.2943 107.593 48.4923 107.476 48.749C107.359 49.0057 107.3 49.31 107.3 49.662V49.761C107.3 50.1643 107.362 50.498 107.487 50.762C107.619 51.0187 107.813 51.213 108.07 51.345C108.327 51.477 108.642 51.543 109.016 51.543C109.317 51.543 109.617 51.499 109.918 51.411C110.219 51.323 110.494 51.18 110.743 50.982L111.139 51.928C110.868 52.148 110.538 52.3167 110.149 52.434C109.76 52.5513 109.372 52.61 108.983 52.61ZM112.184 52.5L114.626 49.376L114.637 50.069L112.316 47.099H113.922L115.407 49.046H115.011L116.496 47.099H118.102L115.781 50.058L115.792 49.398L118.234 52.5H116.617L115.011 50.41H115.385L113.79 52.5H112.184ZM121.315 52.61C120.926 52.61 120.578 52.5367 120.27 52.39C119.962 52.236 119.72 52.0307 119.544 51.774C119.368 51.51 119.28 51.2167 119.28 50.894C119.28 50.498 119.386 50.1827 119.599 49.948C119.811 49.7133 120.152 49.5447 120.622 49.442C121.091 49.332 121.714 49.277 122.492 49.277H123.086V50.091H122.514C122.169 50.091 121.879 50.1057 121.645 50.135C121.41 50.157 121.219 50.1973 121.073 50.256C120.926 50.3073 120.82 50.3807 120.754 50.476C120.688 50.5713 120.655 50.6887 120.655 50.828C120.655 51.07 120.739 51.2643 120.908 51.411C121.084 51.5577 121.322 51.631 121.623 51.631C121.865 51.631 122.081 51.576 122.272 51.466C122.47 51.3487 122.627 51.191 122.745 50.993C122.862 50.7877 122.921 50.5603 122.921 50.311V49.057C122.921 48.6903 122.833 48.43 122.657 48.276C122.481 48.122 122.195 48.045 121.799 48.045C121.498 48.045 121.19 48.089 120.875 48.177C120.559 48.265 120.237 48.4043 119.907 48.595L119.5 47.638C119.705 47.506 119.94 47.3923 120.204 47.297C120.468 47.1943 120.746 47.1173 121.04 47.066C121.333 47.0147 121.615 46.989 121.887 46.989C122.415 46.989 122.851 47.0697 123.196 47.231C123.548 47.385 123.812 47.627 123.988 47.957C124.164 48.287 124.252 48.7123 124.252 49.233V52.5H122.976V51.356H123.042C122.976 51.6127 122.862 51.8363 122.701 52.027C122.547 52.2103 122.352 52.3533 122.118 52.456C121.89 52.5587 121.623 52.61 121.315 52.61ZM126.316 52.5V47.099H127.658V48.188H127.57C127.665 47.9387 127.797 47.726 127.966 47.55C128.142 47.3667 128.347 47.2273 128.582 47.132C128.824 47.0367 129.088 46.989 129.374 46.989C129.814 46.989 130.173 47.0917 130.452 47.297C130.738 47.5023 130.936 47.814 131.046 48.232H130.925C131.072 47.8507 131.31 47.55 131.64 47.33C131.977 47.1027 132.37 46.989 132.817 46.989C133.235 46.989 133.58 47.0697 133.851 47.231C134.122 47.3923 134.324 47.638 134.456 47.968C134.595 48.298 134.665 48.7197 134.665 49.233V52.5H133.268V49.288C133.268 48.8773 133.198 48.5767 133.059 48.386C132.927 48.1953 132.696 48.1 132.366 48.1C132.124 48.1 131.911 48.1587 131.728 48.276C131.552 48.386 131.416 48.5473 131.321 48.76C131.233 48.9727 131.189 49.2257 131.189 49.519V52.5H129.792V49.288C129.792 48.8773 129.722 48.5767 129.583 48.386C129.444 48.1953 129.216 48.1 128.901 48.1C128.652 48.1 128.439 48.1587 128.263 48.276C128.087 48.3933 127.951 48.5583 127.856 48.771C127.761 48.9763 127.713 49.222 127.713 49.508V52.5H126.316ZM136.73 54.48V47.088H138.072V48.221H137.995C138.119 47.8397 138.35 47.539 138.688 47.319C139.032 47.099 139.432 46.989 139.887 46.989C140.363 46.989 140.781 47.1027 141.141 47.33C141.5 47.5573 141.779 47.88 141.977 48.298C142.182 48.716 142.285 49.2147 142.285 49.794C142.285 50.3587 142.186 50.8537 141.988 51.279C141.79 51.7043 141.511 52.0343 141.152 52.269C140.792 52.4963 140.371 52.61 139.887 52.61C139.439 52.61 139.051 52.5 138.721 52.28C138.391 52.06 138.163 51.774 138.039 51.422H138.138V54.48H136.73ZM139.491 51.543C139.909 51.543 140.242 51.3927 140.492 51.092C140.748 50.7913 140.877 50.3587 140.877 49.794C140.877 49.2147 140.752 48.782 140.503 48.496C140.253 48.2027 139.916 48.056 139.491 48.056C139.073 48.056 138.739 48.2027 138.49 48.496C138.24 48.782 138.116 49.2147 138.116 49.794C138.116 50.3587 138.24 50.7913 138.49 51.092C138.739 51.3927 139.073 51.543 139.491 51.543ZM145.931 52.61C145.293 52.61 144.82 52.4377 144.512 52.093C144.204 51.7483 144.05 51.246 144.05 50.586V44.745H145.458V50.509C145.458 50.7143 145.487 50.8903 145.546 51.037C145.605 51.1837 145.693 51.2937 145.81 51.367C145.935 51.433 146.085 51.466 146.261 51.466C146.349 51.466 146.433 51.4623 146.514 51.455C146.602 51.4477 146.686 51.433 146.767 51.411V52.5C146.628 52.5367 146.492 52.5623 146.36 52.577C146.228 52.599 146.085 52.61 145.931 52.61ZM150.854 52.61C150.23 52.61 149.695 52.4963 149.248 52.269C148.8 52.0417 148.456 51.719 148.214 51.301C147.972 50.8757 147.851 50.377 147.851 49.805C147.851 49.2477 147.964 48.76 148.192 48.342C148.426 47.9167 148.749 47.5867 149.16 47.352C149.578 47.11 150.054 46.989 150.59 46.989C151.11 46.989 151.558 47.099 151.932 47.319C152.306 47.539 152.595 47.8543 152.801 48.265C153.006 48.6683 153.109 49.156 153.109 49.728V50.135H148.973V49.321H152.119L151.943 49.486C151.943 48.9873 151.829 48.606 151.602 48.342C151.374 48.078 151.052 47.946 150.634 47.946C150.333 47.946 150.073 48.0157 149.853 48.155C149.633 48.2943 149.464 48.4923 149.347 48.749C149.229 49.0057 149.171 49.31 149.171 49.662V49.761C149.171 50.1643 149.233 50.498 149.358 50.762C149.49 51.0187 149.684 51.213 149.941 51.345C150.197 51.477 150.513 51.543 150.887 51.543C151.187 51.543 151.488 51.499 151.789 51.411C152.089 51.323 152.364 51.18 152.614 50.982L153.01 51.928C152.738 52.148 152.408 52.3167 152.02 52.434C151.631 52.5513 151.242 52.61 150.854 52.61ZM160.979 52.61C160.363 52.61 159.843 52.456 159.417 52.148C158.999 51.8327 158.68 51.3817 158.46 50.795C158.248 50.201 158.141 49.4713 158.141 48.606C158.141 47.7407 158.248 47.0147 158.46 46.428C158.68 45.8413 158.999 45.3977 159.417 45.097C159.843 44.789 160.363 44.635 160.979 44.635C161.603 44.635 162.123 44.7853 162.541 45.086C162.967 45.3867 163.286 45.8303 163.498 46.417C163.711 47.0037 163.817 47.7297 163.817 48.595C163.817 49.453 163.707 50.1827 163.487 50.784C163.275 51.378 162.956 51.8327 162.53 52.148C162.112 52.456 161.595 52.61 160.979 52.61ZM160.979 51.433C161.478 51.433 161.845 51.2057 162.079 50.751C162.314 50.2963 162.431 49.5777 162.431 48.595C162.431 47.6197 162.314 46.912 162.079 46.472C161.845 46.032 161.478 45.812 160.979 45.812C160.488 45.812 160.121 46.032 159.879 46.472C159.645 46.912 159.527 47.6233 159.527 48.606C159.527 49.5813 159.645 50.2963 159.879 50.751C160.121 51.2057 160.488 51.433 160.979 51.433ZM165.983 52.5V51.312H167.787V45.933L168.48 45.955L166.379 47.231L165.818 46.175L168.194 44.745H169.206V51.312H170.889V52.5H165.983Z" fill="#202224"/>
<path d="M191.928 53.7651V45.2488H192.528V53.7651H191.928ZM196.301 52V51.536L198.949 48.9429C199.191 48.7063 199.373 48.5001 199.495 48.3242C199.616 48.1422 199.698 47.9723 199.74 47.8146C199.783 47.6569 199.804 47.5083 199.804 47.3688C199.804 46.9988 199.677 46.7076 199.422 46.4953C199.173 46.283 198.803 46.1769 198.312 46.1769C197.936 46.1769 197.602 46.2345 197.311 46.3498C197.026 46.465 196.78 46.6439 196.574 46.8866L196.11 46.4862C196.359 46.1951 196.677 45.9706 197.065 45.8129C197.454 45.6552 197.887 45.5764 198.367 45.5764C198.797 45.5764 199.17 45.6461 199.486 45.7856C199.801 45.9191 200.044 46.1162 200.214 46.3771C200.389 46.6379 200.477 46.9442 200.477 47.296C200.477 47.5022 200.447 47.7055 200.386 47.9056C200.332 48.1058 200.229 48.3181 200.077 48.5425C199.931 48.7609 199.716 49.0096 199.431 49.2886L197.002 51.6724L196.82 51.4177H200.769V52H196.301ZM203.574 45.5764C204.138 45.5764 204.614 45.7038 205.003 45.9585C205.391 46.2072 205.685 46.5681 205.885 47.0413C206.085 47.5144 206.186 48.0876 206.186 48.7609C206.186 49.4766 206.061 50.0802 205.812 50.5715C205.57 51.0628 205.23 51.4329 204.793 51.6815C204.357 51.9302 203.85 52.0546 203.274 52.0546C202.989 52.0546 202.716 52.0273 202.455 51.9727C202.2 51.9181 201.97 51.8302 201.764 51.7088L202.027 51.1811C202.191 51.2903 202.379 51.3692 202.592 51.4177C202.81 51.4601 203.034 51.4814 203.265 51.4814C203.95 51.4814 204.496 51.263 204.903 50.8263C205.315 50.3895 205.521 49.7375 205.521 48.8701C205.521 48.7306 205.512 48.5638 205.494 48.3696C205.482 48.1755 205.449 47.9814 205.394 47.7873L205.621 47.9602C205.561 48.2756 205.43 48.5456 205.23 48.77C205.036 48.9884 204.793 49.1552 204.502 49.2704C204.217 49.3857 203.899 49.4433 203.547 49.4433C203.128 49.4433 202.755 49.3644 202.428 49.2067C202.106 49.049 201.855 48.8276 201.673 48.5425C201.491 48.2574 201.4 47.9208 201.4 47.5326C201.4 47.1322 201.494 46.7865 201.682 46.4953C201.87 46.2042 202.128 45.9797 202.455 45.822C202.789 45.6583 203.162 45.5764 203.574 45.5764ZM203.601 46.1314C203.298 46.1314 203.028 46.189 202.792 46.3043C202.561 46.4134 202.379 46.5712 202.246 46.7774C202.112 46.9836 202.046 47.2293 202.046 47.5144C202.046 47.9329 202.188 48.2665 202.473 48.5152C202.764 48.7639 203.156 48.8883 203.647 48.8883C203.975 48.8883 204.26 48.8276 204.502 48.7063C204.751 48.585 204.942 48.4182 205.075 48.2059C205.215 47.9936 205.285 47.757 205.285 47.4962C205.285 47.2596 205.221 47.0382 205.094 46.832C204.966 46.6257 204.778 46.4589 204.53 46.3316C204.281 46.1981 203.972 46.1314 203.601 46.1314ZM210.081 52V45.631H210.636L213.547 50.5988H213.256L216.14 45.631H216.695V52H216.049V46.6409H216.204L213.547 51.1902H213.229L210.554 46.6409H210.727V52H210.081ZM217.751 52L220.663 45.631H221.327L224.239 52H223.529L220.854 46.0222H221.127L218.452 52H217.751ZM218.898 50.2986L219.098 49.7526H222.801L223.001 50.2986H218.898ZM226.439 52V49.6344L226.593 50.0529L223.891 45.631H224.61L226.985 49.5161H226.602L228.977 45.631H229.65L226.948 50.0529L227.103 49.6344V52H226.439ZM229.919 49.8163V49.2522H232.303V49.8163H229.919ZM236.003 52.0546C235.439 52.0546 234.962 51.9302 234.574 51.6815C234.186 51.4268 233.892 51.0628 233.692 50.5897C233.492 50.1105 233.391 49.5373 233.391 48.8701C233.391 48.1482 233.513 47.5447 233.755 47.0594C234.004 46.5681 234.347 46.1981 234.784 45.9494C235.22 45.7007 235.727 45.5764 236.303 45.5764C236.588 45.5764 236.861 45.6037 237.122 45.6583C237.383 45.7129 237.613 45.8008 237.813 45.9221L237.55 46.4498C237.386 46.3407 237.198 46.2648 236.985 46.2224C236.773 46.1738 236.549 46.1496 236.312 46.1496C235.627 46.1496 235.078 46.368 234.665 46.8047C234.259 47.2414 234.056 47.8935 234.056 48.7609C234.056 48.8943 234.062 49.0611 234.074 49.2613C234.092 49.4554 234.128 49.6495 234.183 49.8436L233.956 49.6708C234.022 49.3553 234.153 49.0884 234.347 48.8701C234.541 48.6456 234.784 48.4758 235.075 48.3606C235.366 48.2453 235.684 48.1877 236.03 48.1877C236.455 48.1877 236.828 48.2665 237.149 48.4242C237.471 48.582 237.722 48.8034 237.904 49.0884C238.086 49.3735 238.177 49.7102 238.177 50.0984C238.177 50.4927 238.083 50.8384 237.895 51.1356C237.707 51.4268 237.446 51.6543 237.113 51.818C236.785 51.9757 236.415 52.0546 236.003 52.0546ZM235.975 51.4996C236.279 51.4996 236.546 51.445 236.776 51.3358C237.013 51.2206 237.198 51.0598 237.331 50.8536C237.465 50.6413 237.531 50.3956 237.531 50.1166C237.531 49.698 237.386 49.3644 237.095 49.1157C236.809 48.867 236.421 48.7427 235.93 48.7427C235.602 48.7427 235.317 48.8034 235.075 48.9247C234.832 49.046 234.641 49.2128 234.501 49.4251C234.362 49.6313 234.292 49.8679 234.292 50.1348C234.292 50.3653 234.356 50.5867 234.483 50.799C234.611 51.0052 234.799 51.1751 235.047 51.3085C235.302 51.4359 235.612 51.4996 235.975 51.4996ZM242.564 52.0546C242.206 52.0546 241.869 51.9757 241.554 51.818C241.244 51.6603 240.996 51.4359 240.808 51.1447L241.199 50.6898C241.375 50.9446 241.578 51.1387 241.809 51.2721C242.039 51.4056 242.294 51.4723 242.573 51.4723C243.361 51.4723 243.756 51.0052 243.756 50.0711V46.2133H241.426V45.631H244.42V50.0438C244.42 50.7171 244.262 51.2206 243.947 51.5542C243.637 51.8878 243.176 52.0546 242.564 52.0546ZM249.005 52.0546C248.193 52.0546 247.553 51.8211 247.086 51.354C246.618 50.8869 246.385 50.1954 246.385 49.2795V45.631H247.058V49.2522C247.058 50.0044 247.228 50.5594 247.568 50.9173C247.907 51.2751 248.387 51.4541 249.005 51.4541C249.63 51.4541 250.112 51.2751 250.452 50.9173C250.792 50.5594 250.962 50.0044 250.962 49.2522V45.631H251.617V49.2795C251.617 50.1954 251.383 50.8869 250.916 51.354C250.455 51.8211 249.818 52.0546 249.005 52.0546ZM253.646 52V45.631H254.201L258.595 51.1629H258.304V45.631H258.968V52H258.413L254.028 46.468H254.319V52H253.646Z" fill="#7A7A7A"/>
<mask id="mask0_113_3701" style="mask-type:alpha" maskUnits="userSpaceOnUse" x="27" y="27" width="30" height="44">
<path d="M28 34.49C28 30.9057 30.9057 28 34.49 28H43.5088C50.4075 28 56 33.5925 56 40.4912V57.5088C56 64.4075 50.4075 70 43.5088 70H34.49C30.9057 70 28 67.0943 28 63.51V34.49Z" fill="white" stroke="url(#paint1_linear_113_3701)" stroke-opacity="0.3" stroke-width="1.30158"/>
</mask>
<g mask="url(#mask0_113_3701)">
<rect x="27" y="27.1923" width="14" height="43.6154" fill="#587ED7"/>
</g>
<defs>
<filter id="filter0_d_113_3701" x="0.297282" y="0.297343" width="300.435" height="104.047" filterUnits="userSpaceOnUse" color-interpolation-filters="sRGB">
<feFlood flood-opacity="0" result="BackgroundImageFix"/>
<feColorMatrix in="SourceAlpha" type="matrix" values="0 0 0 0 0 0 0 0 0 0 0 0 0 0 0 0 0 0 127 0" result="hardAlpha"/>
<feOffset dx="3.38149" dy="3.38149"/>
<feGaussianBlur stdDeviation="15.2167"/>
<feColorMatrix type="matrix" values="0 0 0 0 0 0 0 0 0 0 0 0 0 0 0 0 0 0 0.05 0"/>
<feBlend mode="normal" in2="BackgroundImageFix" result="effect1_dropShadow_113_3701"/>
<feBlend mode="normal" in="SourceGraphic" in2="effect1_dropShadow_113_3701" result="shape"/>
</filter>
<linearGradient id="paint0_linear_113_3701" x1="82.3299" y1="12.8738" x2="145.456" y2="127.207" gradientUnits="userSpaceOnUse">
<stop stop-color="#F1F1F1"/>
<stop offset="1" stop-color="#E1E1E1"/>
</linearGradient>
<linearGradient id="paint1_linear_113_3701" x1="34.3846" y1="12.8299" x2="64.7694" y2="19.2783" gradientUnits="userSpaceOnUse">
<stop stop-color="#F1F1F1"/>
<stop offset="1" stop-color="#E1E1E1"/>
</linearGradient>
</defs>
</svg>
