<svg width="211" height="107" viewBox="0 0 211 107" fill="none" xmlns="http://www.w3.org/2000/svg">
<g filter="url(#filter0_d_118_2456)">
<rect x="26.6621" y="26" width="151.726" height="48.3003" rx="11.6362" fill="white"/>
<rect x="26.6621" y="26" width="151.726" height="48.3003" rx="11.6362" stroke="url(#paint0_linear_118_2456)" stroke-opacity="0.3" stroke-width="1.21248"/>
</g>
<path d="M40.8866 54.2202V45.7073H42.4322V52.904H46.5135V54.2202H40.8866ZM48.192 54.2202V45.7073H49.7376V54.2202H48.192ZM54.8421 54.2202L51.0505 45.7073H52.7048L55.7839 52.8437H55.2647L58.3318 45.7073H59.9257L56.1341 54.2202H54.8421ZM61.2463 54.2202V45.7073H66.9095V46.939H62.7316V49.2815H66.6439V50.5132H62.7316V52.9886H66.9095V54.2202H61.2463ZM71.8382 54.2202L75.6901 45.7073H76.958L80.8099 54.2202H79.2402L78.2138 51.8294L78.8659 52.252H73.7702L74.4222 51.8294L73.4079 54.2202H71.8382ZM76.3059 47.3857L74.6154 51.4067L74.3015 51.0203H78.3346L78.0327 51.4067L76.3301 47.3857H76.3059ZM82.2664 54.2202V45.7073H83.4256L88.316 52.0588H88.0021V45.7073H89.439V54.2202H88.2919L83.4015 47.8567H83.7034V54.2202H82.2664ZM90.9064 54.2202L94.7584 45.7073H96.0263L99.8782 54.2202H98.3085L97.2821 51.8294L97.9341 52.252H92.8384L93.4905 51.8294L92.4762 54.2202H90.9064ZM95.3742 47.3857L93.6837 51.4067L93.3698 51.0203H97.4028L97.1009 51.4067L95.3984 47.3857H95.3742ZM101.335 54.2202V45.7073H102.88V52.904H106.962V54.2202H101.335ZM109.242 54.2202V49.837L109.568 50.7667L105.97 45.7073H107.769L110.208 49.1728H109.87L112.321 45.7073H114.048L110.474 50.7667L110.788 49.837V54.2202H109.242ZM117.854 54.341C117.411 54.341 116.984 54.3007 116.574 54.2202C116.171 54.1478 115.797 54.0391 115.451 53.8942C115.113 53.7493 114.811 53.5762 114.545 53.375L115.016 52.1554C115.282 52.3405 115.56 52.5015 115.849 52.6384C116.147 52.7672 116.461 52.8678 116.791 52.9403C117.129 53.0047 117.484 53.0369 117.854 53.0369C118.49 53.0369 118.953 52.9322 119.243 52.7229C119.532 52.5056 119.677 52.2278 119.677 51.8897C119.677 51.7046 119.633 51.5476 119.544 51.4188C119.456 51.2819 119.311 51.1652 119.11 51.0686C118.908 50.972 118.643 50.8915 118.313 50.8271L116.984 50.5494C116.22 50.3884 115.648 50.1187 115.27 49.7404C114.9 49.354 114.714 48.8468 114.714 48.2189C114.714 47.6876 114.855 47.2247 115.137 46.8303C115.419 46.4358 115.809 46.1299 116.308 45.9126C116.807 45.6952 117.383 45.5865 118.035 45.5865C118.421 45.5865 118.792 45.6268 119.146 45.7073C119.508 45.7797 119.838 45.8924 120.136 46.0454C120.442 46.1903 120.708 46.3674 120.933 46.5767L120.462 47.7359C120.124 47.4542 119.754 47.2449 119.351 47.108C118.949 46.9631 118.506 46.8906 118.023 46.8906C117.653 46.8906 117.335 46.943 117.069 47.0476C116.803 47.1523 116.598 47.3012 116.453 47.4944C116.316 47.6796 116.248 47.9009 116.248 48.1585C116.248 48.4483 116.345 48.6818 116.538 48.8589C116.731 49.0279 117.061 49.1608 117.528 49.2574L118.844 49.5351C119.641 49.7041 120.233 49.9698 120.619 50.332C121.014 50.6943 121.211 51.1773 121.211 51.7811C121.211 52.2882 121.074 52.735 120.8 53.1214C120.527 53.5078 120.136 53.8097 119.629 54.027C119.13 54.2363 118.538 54.341 117.854 54.341ZM123.062 54.2202V45.7073H124.608V54.2202H123.062ZM129.918 54.341C129.475 54.341 129.048 54.3007 128.638 54.2202C128.235 54.1478 127.861 54.0391 127.515 53.8942C127.177 53.7493 126.875 53.5762 126.609 53.375L127.08 52.1554C127.346 52.3405 127.623 52.5015 127.913 52.6384C128.211 52.7672 128.525 52.8678 128.855 52.9403C129.193 53.0047 129.547 53.0369 129.918 53.0369C130.554 53.0369 131.017 52.9322 131.306 52.7229C131.596 52.5056 131.741 52.2278 131.741 51.8897C131.741 51.7046 131.697 51.5476 131.608 51.4188C131.52 51.2819 131.375 51.1652 131.173 51.0686C130.972 50.972 130.707 50.8915 130.377 50.8271L129.048 50.5494C128.284 50.3884 127.712 50.1187 127.334 49.7404C126.963 49.354 126.778 48.8468 126.778 48.2189C126.778 47.6876 126.919 47.2247 127.201 46.8303C127.483 46.4358 127.873 46.1299 128.372 45.9126C128.871 45.6952 129.447 45.5865 130.099 45.5865C130.485 45.5865 130.856 45.6268 131.21 45.7073C131.572 45.7797 131.902 45.8924 132.2 46.0454C132.506 46.1903 132.771 46.3674 132.997 46.5767L132.526 47.7359C132.188 47.4542 131.817 47.2449 131.415 47.108C131.012 46.9631 130.57 46.8906 130.087 46.8906C129.716 46.8906 129.398 46.943 129.133 47.0476C128.867 47.1523 128.662 47.3012 128.517 47.4944C128.38 47.6796 128.312 47.9009 128.312 48.1585C128.312 48.4483 128.408 48.6818 128.601 48.8589C128.795 49.0279 129.125 49.1608 129.592 49.2574L130.908 49.5351C131.705 49.7041 132.296 49.9698 132.683 50.332C133.077 50.6943 133.275 51.1773 133.275 51.7811C133.275 52.2882 133.138 52.735 132.864 53.1214C132.59 53.5078 132.2 53.8097 131.693 54.027C131.194 54.2363 130.602 54.341 129.918 54.341Z" fill="#202224"/>
<path opacity="0.3" d="M158.039 34.4705C164.708 34.4705 170.115 39.8768 170.115 46.5457V53.8953C170.115 60.5641 164.708 65.9705 158.039 65.9705H150.69C144.021 65.9705 138.615 60.5641 138.615 53.8953V46.5457C138.615 39.8768 144.021 34.4705 150.69 34.4705H158.039Z" fill="#1F2CB3"/>
<path d="M144.619 59.2469L144.429 58.5483L146.269 56.731V59.2469H144.619ZM149.57 59.2469V53.4296L150.67 52.3295V59.2469H149.57ZM153.97 59.2469V52.3295L155.07 53.4571V59.2469H153.97ZM158.37 59.2469V53.4571L159.47 52.357V59.2469H158.37ZM162.771 59.2469V49.0292L163.871 47.9292V59.2469H162.771ZM145.169 52.7717V51.2272L152.32 44.0766L156.72 48.477L163.871 41.3264V42.8698L156.72 50.0204L152.32 45.6201L145.169 52.7717Z" fill="white"/>
<defs>
<filter id="filter0_d_118_2456" x="0.855774" y="0.193664" width="209.639" height="106.213" filterUnits="userSpaceOnUse" color-interpolation-filters="sRGB">
<feFlood flood-opacity="0" result="BackgroundImageFix"/>
<feColorMatrix in="SourceAlpha" type="matrix" values="0 0 0 0 0 0 0 0 0 0 0 0 0 0 0 0 0 0 127 0" result="hardAlpha"/>
<feOffset dx="3.15002" dy="3.15002"/>
<feGaussianBlur stdDeviation="14.1751"/>
<feColorMatrix type="matrix" values="0 0 0 0 0 0 0 0 0 0 0 0 0 0 0 0 0 0 0.05 0"/>
<feBlend mode="normal" in2="BackgroundImageFix" result="effect1_dropShadow_118_2456"/>
<feBlend mode="normal" in="SourceGraphic" in2="effect1_dropShadow_118_2456" result="shape"/>
</filter>
<linearGradient id="paint0_linear_118_2456" x1="61.2589" y1="8.55425" x2="147.291" y2="94.5863" gradientUnits="userSpaceOnUse">
<stop stop-color="#F1F1F1"/>
<stop offset="1" stop-color="#E1E1E1"/>
</linearGradient>
</defs>
</svg>
