<svg width="284" height="138" viewBox="0 0 284 138" fill="none" xmlns="http://www.w3.org/2000/svg">
<g filter="url(#filter0_d_145_4694)">
<rect x="37" y="36.6714" width="201" height="55.1765" rx="8.52608" fill="white"/>
<rect x="37" y="36.6714" width="201" height="55.1765" rx="8.52608" stroke="url(#paint0_linear_145_4694)" stroke-opacity="0.3" stroke-width="1.70992"/>
</g>
<g clip-path="url(#clip0_145_4694)">
<g filter="url(#filter1_f_145_4694)">
<path d="M94.1987 80.3829L90.4995 82.9581C88.4592 84.3785 85.8137 84.5948 83.5698 83.5248L67.4031 75.8157C63.4488 73.9302 61.7948 69.179 63.7232 65.2454L70.3864 51.6541C71.1073 50.1837 72.2231 48.9428 73.609 48.0703L76.7513 46.0921C79.5048 44.3586 82.9762 44.2339 85.8469 45.7654L99.6236 53.115C103.809 55.3477 105.481 60.4894 103.409 64.7566L97.957 75.9865C97.1011 77.7495 95.807 79.2632 94.1987 80.3829Z" fill="url(#paint1_linear_145_4694)"/>
</g>
<path d="M94.1987 80.3829L90.4995 82.9581C88.4592 84.3785 85.8137 84.5948 83.5698 83.5248L67.4031 75.8157C63.4488 73.9302 61.7948 69.179 63.7232 65.2454L70.3864 51.6541C71.1073 50.1837 72.2231 48.9428 73.609 48.0703L76.7513 46.0921C79.5048 44.3586 82.9762 44.2339 85.8469 45.7654L99.6236 53.115C103.809 55.3477 105.481 60.4894 103.409 64.7566L97.957 75.9865C97.1011 77.7495 95.807 79.2632 94.1987 80.3829Z" fill="white" fill-opacity="0.19"/>
<g style="mix-blend-mode:color-dodge">
<path d="M77.4321 50.4904C78.992 46.8898 83.305 45.4033 86.752 47.2783L99.2017 54.05C103.023 56.1287 104.524 60.8525 102.603 64.7558L98.0439 74.0195C96.1226 77.9231 91.4635 79.6154 87.4849 77.8545L76.4603 72.9753C72.387 71.1726 70.53 66.4222 72.3007 62.335L77.4321 50.4904Z" fill="url(#paint2_linear_145_4694)" fill-opacity="0.48"/>
</g>
<g style="mix-blend-mode:multiply" opacity="0.5">
<path d="M71.4231 51.0673C72.0887 49.7776 73.1421 48.7094 74.4395 48.0084L76.9421 46.6561C77.6352 46.2816 78.4013 46.9617 78.0789 47.6654L70.6708 63.8366C69.7349 65.8797 68.1598 67.5945 66.1752 68.7308V68.7308C64.5327 69.6713 62.6869 67.9962 63.5413 66.3405L71.4231 51.0673Z" fill="url(#paint3_linear_145_4694)"/>
</g>
<ellipse cx="1.18193" cy="2.69622" rx="1.18193" ry="2.69622" transform="matrix(0.92203 0.387118 -0.420359 0.907358 72.4237 50.2423)" fill="#F2C17D"/>
<ellipse cx="1.18193" cy="2.69622" rx="1.18193" ry="2.69622" transform="matrix(0.92203 0.387118 -0.420359 0.907358 68.0323 59.7053)" fill="#FF9705"/>
<g style="mix-blend-mode:multiply" opacity="0.16">
<path d="M94.1987 80.3829L90.4995 82.9581C88.4592 84.3785 85.8137 84.5948 83.5698 83.5248L67.4031 75.8157C63.4488 73.9302 61.7948 69.179 63.7232 65.2454L70.3864 51.6541C71.1073 50.1837 72.2231 48.9428 73.609 48.0703L76.7513 46.0921C79.5048 44.3586 82.9762 44.2339 85.8469 45.7654L99.6236 53.115C103.809 55.3477 105.481 60.4894 103.409 64.7566L97.957 75.9865C97.1011 77.7495 95.807 79.2632 94.1987 80.3829Z" fill="#4B14CB"/>
</g>
<g style="mix-blend-mode:screen" opacity="0.16" filter="url(#filter2_i_145_4694)">
<path d="M94.1987 80.3829L90.4995 82.9581C88.4592 84.3785 85.8137 84.5948 83.5698 83.5248L67.4031 75.8157C63.4488 73.9302 61.7948 69.179 63.7232 65.2454L70.3864 51.6541C71.1073 50.1837 72.2231 48.9428 73.609 48.0703L76.7513 46.0921C79.5048 44.3586 82.9762 44.2339 85.8469 45.7654L99.6236 53.115C103.809 55.3477 105.481 60.4894 103.409 64.7566L97.957 75.9865C97.1011 77.7495 95.807 79.2632 94.1987 80.3829Z" fill="white"/>
</g>
<g style="mix-blend-mode:multiply" opacity="0.5">
<path d="M68.4364 74.7095C67.2108 74.1302 67.1478 72.4099 68.3275 71.7423V71.7423C69.5683 71.0402 71.0728 70.9843 72.3622 71.5926L88.688 79.2936C89.8227 79.8289 89.9313 81.401 88.8809 82.0872V82.0872V82.0872C87.3169 82.9983 85.3973 83.0534 83.7836 82.2333L76.225 78.3917L68.4364 74.7095Z" fill="url(#paint4_linear_145_4694)"/>
</g>
<ellipse cx="75.296" cy="74.2249" rx="2.37583" ry="0.593956" transform="rotate(23.0357 75.296 74.2249)" fill="#FE9603"/>
<ellipse cx="72.5599" cy="75.3278" rx="2.37583" ry="0.593956" transform="rotate(23.0357 72.5599 75.3278)" fill="#F96E19"/>
<ellipse cx="79.3135" cy="77.2329" rx="2.37583" ry="0.593956" transform="rotate(23.0357 79.3135 77.2329)" fill="#E98900"/>
<ellipse cx="82.361" cy="79.7431" rx="2.37583" ry="0.593956" transform="rotate(23.0357 82.361 79.7431)" fill="#F96E19"/>
<ellipse cx="84.874" cy="78.8747" rx="2.37583" ry="0.593956" transform="rotate(23.0357 84.874 78.8747)" fill="#FE9603"/>
<g style="mix-blend-mode:overlay" filter="url(#filter3_i_145_4694)">
<path d="M94.0237 80.4521L90.3245 83.0273C88.2842 84.4477 85.6387 84.664 83.3948 83.594L67.2281 75.885C63.2738 73.9994 61.6198 69.2482 63.5483 65.3147L70.2114 51.7234C70.9323 50.2529 72.0481 49.012 73.434 48.1395L76.5763 46.1613C79.3298 44.4278 82.8012 44.3031 85.672 45.8346L99.4486 53.1842C103.634 55.4169 105.306 60.5586 103.234 64.8258L97.782 76.0558C96.9261 77.8187 95.632 79.3324 94.0237 80.4521Z" fill="#696969"/>
</g>
<g style="mix-blend-mode:overlay" filter="url(#filter4_i_145_4694)">
<path d="M94.0237 80.4521L90.3245 83.0273C88.2842 84.4477 85.6387 84.664 83.3948 83.594L67.2281 75.885C63.2738 73.9994 61.6198 69.2482 63.5483 65.3147L70.2114 51.7234C70.9323 50.2529 72.0481 49.012 73.434 48.1395L76.5763 46.1613C79.3298 44.4278 82.8012 44.3031 85.672 45.8346L99.4486 53.1842C103.634 55.4169 105.306 60.5586 103.234 64.8258L97.782 76.0558C96.9261 77.8187 95.632 79.3324 94.0237 80.4521Z" fill="#696969"/>
</g>
<g style="mix-blend-mode:overlay" filter="url(#filter5_i_145_4694)">
<path d="M94.0237 80.4521L90.3245 83.0273C88.2842 84.4477 85.6387 84.664 83.3948 83.594L67.2281 75.885C63.2738 73.9994 61.6198 69.2482 63.5483 65.3147L70.2114 51.7234C70.9323 50.2529 72.0481 49.012 73.434 48.1395L76.5763 46.1613C79.3298 44.4278 82.8012 44.3031 85.672 45.8346L99.4486 53.1842C103.634 55.4169 105.306 60.5586 103.234 64.8258L97.782 76.0558C96.9261 77.8187 95.632 79.3324 94.0237 80.4521Z" fill="#696969"/>
</g>
<g filter="url(#filter6_di_145_4694)">
<path d="M88.5877 50.1684C88.9998 49.0136 90.3195 48.5097 91.3938 49.0969L96.1675 51.7063C97.236 52.2903 97.5779 53.6901 96.8963 54.6916L94.2217 58.62C95.8952 59.3482 97.6493 60.0587 99.5868 60.8368C100.701 61.2842 101.205 62.6138 100.667 63.6893L98.3442 68.3359C97.8402 69.3435 96.6189 69.7204 95.6228 69.1906C93.7328 68.1847 91.9575 67.2934 90.2308 66.4647L88.2408 72.3301C87.8521 73.4755 86.5693 74.0057 85.4906 73.4666L81.0072 71.2245C79.9412 70.6914 79.5396 69.3454 80.1406 68.3196L83.1189 63.2351C81.2154 62.4052 79.256 61.5647 77.1491 60.6468C76.0551 60.1701 75.5906 58.8388 76.1475 57.7833L79.0269 52.3265C79.6003 51.24 80.9926 50.9423 81.9941 51.6654C83.7435 52.9285 85.3516 53.9821 86.897 54.9046L88.5877 50.1684Z" fill="url(#paint5_linear_145_4694)"/>
</g>
<mask id="mask0_145_4694" style="mask-type:alpha" maskUnits="userSpaceOnUse" x="62" y="44" width="43" height="41">
<path d="M94.1987 80.3829L90.4995 82.9581C88.4592 84.3785 85.8137 84.5948 83.5698 83.5248L67.4031 75.8157C63.4488 73.9302 61.7948 69.179 63.7232 65.2454L70.3864 51.6541C71.1073 50.1837 72.2231 48.9428 73.609 48.0703L76.7513 46.0921C79.5048 44.3586 82.9762 44.2339 85.8469 45.7654L99.6236 53.115C103.809 55.3477 105.481 60.4894 103.409 64.7566L97.957 75.9865C97.1011 77.7495 95.807 79.2632 94.1987 80.3829Z" fill="url(#paint6_linear_145_4694)"/>
</mask>
<g mask="url(#mask0_145_4694)">
<g style="mix-blend-mode:plus-darker">
<ellipse cx="78.0439" cy="73.9064" rx="30.0011" ry="10.6186" transform="rotate(15.5871 78.0439 73.9064)" fill="url(#paint7_linear_145_4694)"/>
</g>
</g>
<mask id="mask1_145_4694" style="mask-type:alpha" maskUnits="userSpaceOnUse" x="75" y="48" width="26" height="26">
<path d="M88.5885 50.1688C89.0007 49.0141 90.3195 48.5102 91.3937 49.0972L96.1684 51.7067C97.2367 52.2907 97.5777 53.6895 96.8963 54.691L94.2216 58.6203C95.8952 59.3485 97.6502 60.0581 99.5878 60.8362C100.702 61.2837 101.206 62.6134 100.668 63.6887L98.3443 68.3352C97.8402 69.3431 96.6191 69.72 95.6228 69.1899C93.7331 68.1842 91.9582 67.2937 90.2316 66.4651L88.2416 72.3305C87.8529 73.476 86.5693 74.0063 85.4904 73.4668L81.0071 71.2248C79.9414 70.6916 79.5396 69.3456 80.1405 68.3198L83.1188 63.2354C81.2156 62.4056 79.2566 61.565 77.1499 60.6472C76.0559 60.1705 75.5905 58.8382 76.1476 57.7826L79.0279 52.326C79.6014 51.2397 80.9926 50.9426 81.994 51.6657C83.7434 52.9288 85.3515 53.9824 86.8969 54.9049L88.5885 50.1688Z" fill="#D9D9D9"/>
</mask>
<g mask="url(#mask1_145_4694)">
<g style="mix-blend-mode:multiply" opacity="0.2">
<path d="M87.0193 81.0734C81.4003 86.5784 89.6256 88.0428 80.8094 79.0441C71.9932 70.0453 69.4014 58.2877 75.0203 52.7828C80.6393 47.2778 72.414 45.8134 81.2302 54.8121C90.0464 63.8109 92.6383 75.5684 87.0193 81.0734Z" fill="url(#paint8_linear_145_4694)"/>
</g>
</g>
<mask id="mask2_145_4694" style="mask-type:alpha" maskUnits="userSpaceOnUse" x="62" y="44" width="43" height="41">
<path d="M94.1987 80.3829L90.4995 82.9581C88.4592 84.3785 85.8137 84.5948 83.5698 83.5248L67.4031 75.8158C63.4488 73.9302 61.7948 69.179 63.7232 65.2454L70.3864 51.6541C71.1073 50.1837 72.2231 48.9428 73.609 48.0703L76.7513 46.0921C79.5048 44.3586 82.9762 44.2339 85.8469 45.7654L99.6236 53.115C103.809 55.3477 105.481 60.4894 103.409 64.7566L97.957 75.9866C97.1011 77.7495 95.807 79.2632 94.1987 80.3829Z" fill="#D9D9D9"/>
</mask>
<g mask="url(#mask2_145_4694)">
<g style="mix-blend-mode:screen">
<path d="M87.7284 93.814C81.3618 98.0682 69.6723 91.747 61.6192 79.6952C53.566 67.6435 52.1988 54.4248 58.5653 50.1706C64.9319 45.9164 76.6214 52.2375 84.6746 64.2893C106.048 68.4321 94.095 89.5597 87.7284 93.814Z" fill="url(#paint9_linear_145_4694)"/>
</g>
</g>
</g>
<path d="M114.722 69.2595V59.0716H119.144C119.895 59.0716 120.531 59.1968 121.051 59.4473C121.571 59.6978 121.966 60.0591 122.236 60.5311C122.506 61.0032 122.641 61.5764 122.641 62.2508C122.641 62.9155 122.506 63.4888 122.236 63.9705C121.966 64.4425 121.571 64.8086 121.051 65.0687C120.531 65.3192 119.895 65.4445 119.144 65.4445H116.571V69.2595H114.722ZM116.571 63.9849H118.855C119.51 63.9849 120.006 63.8404 120.343 63.5514C120.68 63.2527 120.849 62.8192 120.849 62.2508C120.849 61.6824 120.68 61.2537 120.343 60.9647C120.006 60.6756 119.51 60.5311 118.855 60.5311H116.571V63.9849ZM124.574 69.2595V62.193H126.337V63.8982H126.193C126.328 63.3202 126.593 62.8818 126.988 62.5832C127.383 62.2749 127.908 62.0967 128.563 62.0485L129.112 62.0051L129.228 63.5369L128.187 63.6381C127.6 63.6959 127.156 63.8789 126.858 64.1872C126.559 64.4859 126.41 64.9098 126.41 65.4589V69.2595H124.574ZM130.858 60.6756V58.9126H132.881V60.6756H130.858ZM130.974 69.2595V62.193H132.78V69.2595H130.974ZM135.166 69.2595V68.089L139.155 63.1179V63.5514H135.166V62.193H140.773V63.3635L136.741 68.378V67.9011H140.932V69.2595H135.166ZM146.324 69.404C145.524 69.404 144.836 69.2547 144.257 68.9561C143.679 68.6574 143.231 68.2335 142.914 67.6844C142.605 67.1352 142.451 66.4849 142.451 65.7335C142.451 65.0013 142.6 64.3606 142.899 63.8115C143.207 63.2624 143.626 62.8337 144.156 62.5254C144.696 62.2074 145.308 62.0485 145.992 62.0485C146.666 62.0485 147.244 62.193 147.726 62.482C148.207 62.771 148.578 63.1805 148.838 63.7103C149.108 64.2402 149.243 64.8712 149.243 65.6034V66.1381H143.911V65.0976H147.971L147.74 65.3144C147.74 64.6593 147.596 64.1583 147.307 63.8115C147.018 63.455 146.603 63.2768 146.064 63.2768C145.659 63.2768 145.312 63.3732 145.023 63.5658C144.744 63.7489 144.527 64.0138 144.373 64.3606C144.229 64.6978 144.156 65.1025 144.156 65.5745V65.6757C144.156 66.2055 144.238 66.6439 144.402 66.9907C144.566 67.3375 144.811 67.5977 145.139 67.7711C145.467 67.9445 145.871 68.0312 146.353 68.0312C146.748 68.0312 147.143 67.9734 147.538 67.8578C147.933 67.7325 148.294 67.5399 148.622 67.2797L149.127 68.4936C148.79 68.773 148.366 68.9946 147.856 69.1584C147.345 69.3221 146.835 69.404 146.324 69.404ZM156.223 69.2595V59.0716H160.645C161.396 59.0716 162.032 59.1968 162.552 59.4473C163.073 59.6978 163.468 60.0591 163.737 60.5311C164.007 61.0032 164.142 61.5764 164.142 62.2508C164.142 62.9155 164.007 63.4888 163.737 63.9705C163.468 64.4425 163.073 64.8086 162.552 65.0687C162.032 65.3192 161.396 65.4445 160.645 65.4445H158.073V69.2595H156.223ZM158.073 63.9849H160.356C161.011 63.9849 161.507 63.8404 161.844 63.5514C162.181 63.2527 162.35 62.8192 162.35 62.2508C162.35 61.6824 162.181 61.2537 161.844 60.9647C161.507 60.6756 161.011 60.5311 160.356 60.5311H158.073V63.9849ZM168.205 69.404C167.694 69.404 167.236 69.3077 166.832 69.115C166.437 68.9127 166.124 68.6429 165.893 68.3058C165.671 67.9686 165.56 67.588 165.56 67.1641C165.56 66.6439 165.695 66.2344 165.965 65.9358C166.235 65.6275 166.673 65.4059 167.28 65.2711C167.887 65.1362 168.701 65.0687 169.722 65.0687H170.445V66.1092H169.736C169.284 66.1092 168.903 66.1285 168.595 66.167C168.287 66.1959 168.036 66.2489 167.843 66.326C167.66 66.3934 167.525 66.4897 167.439 66.615C167.362 66.7402 167.323 66.8944 167.323 67.0774C167.323 67.3953 167.434 67.6555 167.656 67.8578C167.877 68.0601 168.185 68.1612 168.58 68.1612C168.898 68.1612 169.178 68.089 169.419 67.9445C169.669 67.7903 169.867 67.5832 170.011 67.3231C170.156 67.063 170.228 66.7643 170.228 66.4271V64.7653C170.228 64.2836 170.122 63.9367 169.91 63.7248C169.698 63.5128 169.341 63.4069 168.841 63.4069C168.446 63.4069 168.041 63.4695 167.627 63.5947C167.212 63.7103 166.793 63.8934 166.369 64.1439L165.849 62.9155C166.1 62.7421 166.393 62.5928 166.731 62.4676C167.078 62.3327 167.439 62.2315 167.815 62.1641C168.2 62.087 168.561 62.0485 168.898 62.0485C169.592 62.0485 170.16 62.1545 170.604 62.3664C171.056 62.5784 171.394 62.9011 171.615 63.3346C171.837 63.7585 171.947 64.3077 171.947 64.982V69.2595H170.257V67.7566H170.372C170.305 68.0938 170.17 68.3876 169.968 68.6381C169.775 68.879 169.529 69.0668 169.231 69.2017C168.932 69.3366 168.59 69.404 168.205 69.404ZM177.108 69.404C176.713 69.404 176.328 69.3703 175.952 69.3029C175.586 69.2354 175.249 69.1439 174.94 69.0283C174.632 68.9031 174.362 68.7489 174.131 68.5659L174.594 67.3809C174.834 67.535 175.095 67.6699 175.374 67.7855C175.653 67.9011 175.942 67.9878 176.241 68.0456C176.54 68.1034 176.834 68.1323 177.123 68.1323C177.585 68.1323 177.927 68.0553 178.149 67.9011C178.38 67.7374 178.495 67.5254 178.495 67.2653C178.495 67.0437 178.418 66.8751 178.264 66.7595C178.12 66.6343 177.898 66.5427 177.599 66.4849L176.154 66.2104C175.557 66.0948 175.099 65.878 174.781 65.5601C174.473 65.2325 174.319 64.8134 174.319 64.3028C174.319 63.8404 174.444 63.4406 174.695 63.1034C174.955 62.7662 175.311 62.5061 175.764 62.3231C176.217 62.14 176.737 62.0485 177.325 62.0485C177.662 62.0485 177.99 62.0822 178.308 62.1496C178.625 62.2074 178.924 62.299 179.203 62.4242C179.492 62.5398 179.743 62.694 179.955 62.8866L179.464 64.0716C179.281 63.9175 179.069 63.7874 178.828 63.6814C178.587 63.5658 178.336 63.4791 178.076 63.4213C177.826 63.3539 177.58 63.3202 177.339 63.3202C176.867 63.3202 176.516 63.4021 176.284 63.5658C176.063 63.7296 175.952 63.9464 175.952 64.2161C175.952 64.4184 176.019 64.587 176.154 64.7219C176.289 64.8568 176.496 64.9483 176.776 64.9965L178.221 65.2711C178.847 65.3867 179.319 65.5986 179.637 65.9069C179.965 66.2152 180.128 66.6294 180.128 67.1497C180.128 67.6217 180.003 68.0264 179.753 68.3636C179.502 68.7008 179.15 68.9609 178.698 69.1439C178.245 69.3173 177.715 69.404 177.108 69.404ZM184.905 69.404C184.51 69.404 184.124 69.3703 183.749 69.3029C183.382 69.2354 183.045 69.1439 182.737 69.0283C182.429 68.9031 182.159 68.7489 181.928 68.5659L182.39 67.3809C182.631 67.535 182.891 67.6699 183.17 67.7855C183.45 67.9011 183.739 67.9878 184.038 68.0456C184.336 68.1034 184.63 68.1323 184.919 68.1323C185.381 68.1323 185.723 68.0553 185.945 67.9011C186.176 67.7374 186.292 67.5254 186.292 67.2653C186.292 67.0437 186.215 66.8751 186.061 66.7595C185.916 66.6343 185.695 66.5427 185.396 66.4849L183.951 66.2104C183.354 66.0948 182.896 65.878 182.578 65.5601C182.27 65.2325 182.116 64.8134 182.116 64.3028C182.116 63.8404 182.241 63.4406 182.491 63.1034C182.751 62.7662 183.108 62.5061 183.561 62.3231C184.013 62.14 184.534 62.0485 185.121 62.0485C185.459 62.0485 185.786 62.0822 186.104 62.1496C186.422 62.2074 186.721 62.299 187 62.4242C187.289 62.5398 187.54 62.694 187.751 62.8866L187.26 64.0716C187.077 63.9175 186.865 63.7874 186.624 63.6814C186.383 63.5658 186.133 63.4791 185.873 63.4213C185.622 63.3539 185.377 63.3202 185.136 63.3202C184.664 63.3202 184.312 63.4021 184.081 63.5658C183.859 63.7296 183.749 63.9464 183.749 64.2161C183.749 64.4184 183.816 64.587 183.951 64.7219C184.086 64.8568 184.293 64.9483 184.572 64.9965L186.017 65.2711C186.644 65.3867 187.116 65.5986 187.434 65.9069C187.761 66.2152 187.925 66.6294 187.925 67.1497C187.925 67.6217 187.8 68.0264 187.549 68.3636C187.299 68.7008 186.947 68.9609 186.494 69.1439C186.041 69.3173 185.512 69.404 184.905 69.404Z" fill="#202224"/>
<mask id="mask3_145_4694" style="mask-type:alpha" maskUnits="userSpaceOnUse" x="36" y="35" width="39" height="58">
<path d="M37 45.1975C37 40.4886 40.8173 36.6714 45.5261 36.6714H57.3743C66.4373 36.6714 73.7843 44.0184 73.7843 53.0814V75.4378C73.7843 84.5008 66.4373 91.8479 57.3743 91.8479H45.5261C40.8173 91.8479 37 88.0306 37 83.3218V45.1975Z" fill="white" stroke="url(#paint10_linear_145_4694)" stroke-opacity="0.3" stroke-width="1.70992"/>
</mask>
<g mask="url(#mask3_145_4694)">
<rect x="35.6862" y="35.6104" width="18.3922" height="57.2986" fill="#587ED7"/>
</g>
<defs>
<filter id="filter0_d_145_4694" x="0.606271" y="0.277635" width="282.672" height="136.849" filterUnits="userSpaceOnUse" color-interpolation-filters="sRGB">
<feFlood flood-opacity="0" result="BackgroundImageFix"/>
<feColorMatrix in="SourceAlpha" type="matrix" values="0 0 0 0 0 0 0 0 0 0 0 0 0 0 0 0 0 0 127 0" result="hardAlpha"/>
<feOffset dx="4.44235" dy="4.44235"/>
<feGaussianBlur stdDeviation="19.9906"/>
<feColorMatrix type="matrix" values="0 0 0 0 0 0 0 0 0 0 0 0 0 0 0 0 0 0 0.05 0"/>
<feBlend mode="normal" in2="BackgroundImageFix" result="effect1_dropShadow_145_4694"/>
<feBlend mode="normal" in="SourceGraphic" in2="effect1_dropShadow_145_4694" result="shape"/>
</filter>
<filter id="filter1_f_145_4694" x="62.0088" y="43.7896" width="43.1969" height="41.3176" filterUnits="userSpaceOnUse" color-interpolation-filters="sRGB">
<feFlood flood-opacity="0" result="BackgroundImageFix"/>
<feBlend mode="normal" in="SourceGraphic" in2="BackgroundImageFix" result="shape"/>
<feGaussianBlur stdDeviation="0.454421" result="effect1_foregroundBlur_145_4694"/>
</filter>
<filter id="filter2_i_145_4694" x="62.9177" y="44.6985" width="41.3792" height="39.4999" filterUnits="userSpaceOnUse" color-interpolation-filters="sRGB">
<feFlood flood-opacity="0" result="BackgroundImageFix"/>
<feBlend mode="normal" in="SourceGraphic" in2="BackgroundImageFix" result="shape"/>
<feColorMatrix in="SourceAlpha" type="matrix" values="0 0 0 0 0 0 0 0 0 0 0 0 0 0 0 0 0 0 127 0" result="hardAlpha"/>
<feOffset dx="-9.13123" dy="1.30446"/>
<feComposite in2="hardAlpha" operator="arithmetic" k2="-1" k3="1"/>
<feColorMatrix type="matrix" values="0 0 0 0 1 0 0 0 0 1 0 0 0 0 1 0 0 0 1 0"/>
<feBlend mode="lighten" in2="shape" result="effect1_innerShadow_145_4694"/>
</filter>
<filter id="filter3_i_145_4694" x="62.7427" y="44.7677" width="41.3792" height="39.4999" filterUnits="userSpaceOnUse" color-interpolation-filters="sRGB">
<feFlood flood-opacity="0" result="BackgroundImageFix"/>
<feBlend mode="normal" in="SourceGraphic" in2="BackgroundImageFix" result="shape"/>
<feColorMatrix in="SourceAlpha" type="matrix" values="0 0 0 0 0 0 0 0 0 0 0 0 0 0 0 0 0 0 127 0" result="hardAlpha"/>
<feOffset dx="1.56535" dy="-0.521784"/>
<feComposite in2="hardAlpha" operator="arithmetic" k2="-1" k3="1"/>
<feColorMatrix type="matrix" values="0 0 0 0 0.128125 0 0 0 0 0 0 0 0 0 0.170833 0 0 0 1 0"/>
<feBlend mode="multiply" in2="shape" result="effect1_innerShadow_145_4694"/>
</filter>
<filter id="filter4_i_145_4694" x="62.7427" y="44.7677" width="41.3792" height="39.4999" filterUnits="userSpaceOnUse" color-interpolation-filters="sRGB">
<feFlood flood-opacity="0" result="BackgroundImageFix"/>
<feBlend mode="normal" in="SourceGraphic" in2="BackgroundImageFix" result="shape"/>
<feColorMatrix in="SourceAlpha" type="matrix" values="0 0 0 0 0 0 0 0 0 0 0 0 0 0 0 0 0 0 127 0" result="hardAlpha"/>
<feOffset dx="1.56535" dy="-0.521784"/>
<feComposite in2="hardAlpha" operator="arithmetic" k2="-1" k3="1"/>
<feColorMatrix type="matrix" values="0 0 0 0 0.128125 0 0 0 0 0 0 0 0 0 0.170833 0 0 0 1 0"/>
<feBlend mode="multiply" in2="shape" result="effect1_innerShadow_145_4694"/>
</filter>
<filter id="filter5_i_145_4694" x="62.7427" y="44.7677" width="41.3792" height="39.4999" filterUnits="userSpaceOnUse" color-interpolation-filters="sRGB">
<feFlood flood-opacity="0" result="BackgroundImageFix"/>
<feBlend mode="normal" in="SourceGraphic" in2="BackgroundImageFix" result="shape"/>
<feColorMatrix in="SourceAlpha" type="matrix" values="0 0 0 0 0 0 0 0 0 0 0 0 0 0 0 0 0 0 127 0" result="hardAlpha"/>
<feOffset dx="-2.34803" dy="0.521784"/>
<feComposite in2="hardAlpha" operator="arithmetic" k2="-1" k3="1"/>
<feColorMatrix type="matrix" values="0 0 0 0 1 0 0 0 0 0.791944 0 0 0 0 0.108333 0 0 0 1 0"/>
<feBlend mode="screen" in2="shape" result="effect1_innerShadow_145_4694"/>
</filter>
<filter id="filter6_di_145_4694" x="74.0849" y="48.8506" width="26.7988" height="25.8713" filterUnits="userSpaceOnUse" color-interpolation-filters="sRGB">
<feFlood flood-opacity="0" result="BackgroundImageFix"/>
<feColorMatrix in="SourceAlpha" type="matrix" values="0 0 0 0 0 0 0 0 0 0 0 0 0 0 0 0 0 0 127 0" result="hardAlpha"/>
<feOffset dx="-1.82625" dy="1.04357"/>
<feComposite in2="hardAlpha" operator="out"/>
<feColorMatrix type="matrix" values="0 0 0 0 0.616667 0 0 0 0 0.261741 0 0 0 0 0.0411111 0 0 0 1 0"/>
<feBlend mode="normal" in2="BackgroundImageFix" result="effect1_dropShadow_145_4694"/>
<feBlend mode="normal" in="SourceGraphic" in2="effect1_dropShadow_145_4694" result="shape"/>
<feColorMatrix in="SourceAlpha" type="matrix" values="0 0 0 0 0 0 0 0 0 0 0 0 0 0 0 0 0 0 127 0" result="hardAlpha"/>
<feOffset dx="-1.04357" dy="0.782677"/>
<feComposite in2="hardAlpha" operator="arithmetic" k2="-1" k3="1"/>
<feColorMatrix type="matrix" values="0 0 0 0 1 0 0 0 0 1 0 0 0 0 1 0 0 0 0.6 0"/>
<feBlend mode="normal" in2="shape" result="effect2_innerShadow_145_4694"/>
</filter>
<linearGradient id="paint0_linear_145_4694" x1="82.8323" y1="16.742" x2="180.044" y2="129.475" gradientUnits="userSpaceOnUse">
<stop stop-color="#F1F1F1"/>
<stop offset="1" stop-color="#E1E1E1"/>
</linearGradient>
<linearGradient id="paint1_linear_145_4694" x1="84.9487" y1="64.2323" x2="64.9504" y2="72.1794" gradientUnits="userSpaceOnUse">
<stop stop-color="#BB99FF"/>
<stop offset="1" stop-color="#32008F"/>
</linearGradient>
<linearGradient id="paint2_linear_145_4694" x1="102.407" y1="57.4991" x2="78.5501" y2="74.3363" gradientUnits="userSpaceOnUse">
<stop stop-color="#F0AEFF"/>
<stop offset="0.44895" stop-color="#C583FF"/>
<stop offset="0.954259" stop-color="#4055FF"/>
</linearGradient>
<linearGradient id="paint3_linear_145_4694" x1="76.5974" y1="44.4652" x2="66.138" y2="70.0986" gradientUnits="userSpaceOnUse">
<stop stop-color="#AB95F1"/>
<stop offset="0.467352" stop-color="#805FFF"/>
<stop offset="0.962398" stop-color="#8936FD"/>
</linearGradient>
<linearGradient id="paint4_linear_145_4694" x1="66.0753" y1="71.9941" x2="87.7661" y2="80.7469" gradientUnits="userSpaceOnUse">
<stop stop-color="#AB95F1"/>
<stop offset="0.467352" stop-color="#805FFF"/>
<stop offset="0.962398" stop-color="#8936FD"/>
</linearGradient>
<linearGradient id="paint5_linear_145_4694" x1="99.7148" y1="55.93" x2="80.8561" y2="69.3472" gradientUnits="userSpaceOnUse">
<stop stop-color="#FFF9B7"/>
<stop offset="1" stop-color="#FFD52D"/>
</linearGradient>
<linearGradient id="paint6_linear_145_4694" x1="82.5547" y1="43.2187" x2="77.926" y2="77.4359" gradientUnits="userSpaceOnUse">
<stop stop-color="#FFFACD"/>
<stop offset="0.34" stop-color="#FAC3FF"/>
<stop offset="0.66" stop-color="#CAD5FF"/>
<stop offset="1" stop-color="#CDF2FF"/>
</linearGradient>
<linearGradient id="paint7_linear_145_4694" x1="78.0439" y1="63.2878" x2="78.8786" y2="83.7368" gradientUnits="userSpaceOnUse">
<stop offset="0.31" stop-color="#655AFF" stop-opacity="0"/>
<stop offset="0.815" stop-color="#3D3699" stop-opacity="0.41"/>
</linearGradient>
<linearGradient id="paint8_linear_145_4694" x1="101.157" y1="59.1088" x2="80.8094" y2="79.0441" gradientUnits="userSpaceOnUse">
<stop stop-color="#FFA138"/>
<stop offset="1" stop-color="#F0662A"/>
</linearGradient>
<linearGradient id="paint9_linear_145_4694" x1="82.7516" y1="65.8325" x2="69.7003" y2="79.5944" gradientUnits="userSpaceOnUse">
<stop stop-color="#5C0083" stop-opacity="0"/>
<stop offset="0.459325" stop-color="#610083" stop-opacity="0.563267"/>
<stop offset="0.815467" stop-color="#640083"/>
</linearGradient>
<linearGradient id="paint10_linear_145_4694" x1="45.3876" y1="16.742" x2="85.3049" y2="25.2135" gradientUnits="userSpaceOnUse">
<stop stop-color="#F1F1F1"/>
<stop offset="1" stop-color="#E1E1E1"/>
</linearGradient>
<clipPath id="clip0_145_4694">
<rect width="47.4824" height="47.4824" fill="white" transform="translate(67.1827 35.0121) rotate(15.5871)"/>
</clipPath>
</defs>
</svg>
