<svg width="431" height="209" viewBox="0 0 431 209" fill="none" xmlns="http://www.w3.org/2000/svg">
<g filter="url(#filter0_d_145_4694)">
<rect x="56" y="56" width="306" height="84" rx="12.98" fill="white"/>
<rect x="56" y="56" width="306" height="84" rx="12.98" stroke="url(#paint0_linear_145_4694)" stroke-opacity="0.3" stroke-width="2.60316"/>
</g>
<g clip-path="url(#clip0_145_4694)">
<g filter="url(#filter1_f_145_4694)">
<path d="M153.079 122.546L147.447 126.466C144.341 128.628 140.313 128.958 136.897 127.329L112.285 115.593C106.265 112.722 103.747 105.489 106.683 99.5006L116.827 78.8093C117.925 76.5707 119.623 74.6816 121.733 73.3533L126.517 70.3417C130.709 67.7027 135.994 67.5129 140.364 69.8444L161.337 81.0333C167.709 84.4324 170.254 92.2599 167.1 98.7563L158.8 115.853C157.497 118.537 155.527 120.841 153.079 122.546Z" fill="url(#paint1_linear_145_4694)"/>
</g>
<path d="M153.079 122.546L147.447 126.466C144.341 128.628 140.313 128.958 136.897 127.329L112.285 115.593C106.265 112.722 103.747 105.489 106.683 99.5006L116.827 78.8093C117.925 76.5707 119.623 74.6816 121.733 73.3533L126.517 70.3417C130.709 67.7027 135.994 67.5129 140.364 69.8444L161.337 81.0333C167.709 84.4324 170.254 92.2599 167.1 98.7563L158.8 115.853C157.497 118.537 155.527 120.841 153.079 122.546Z" fill="white" fill-opacity="0.19"/>
<g style="mix-blend-mode:color-dodge">
<path d="M127.553 77.0378C129.928 71.5563 136.494 69.2933 141.741 72.1477L160.695 82.4569C166.513 85.6215 168.797 92.8129 165.873 98.7552L158.932 112.858C156.007 118.801 148.914 121.377 142.857 118.697L126.073 111.269C119.872 108.524 117.045 101.292 119.741 95.0698L127.553 77.0378Z" fill="url(#paint2_linear_145_4694)" fill-opacity="0.48"/>
</g>
<g style="mix-blend-mode:multiply" opacity="0.5">
<path d="M118.405 77.9166C119.418 75.9531 121.022 74.3268 122.997 73.2596L126.807 71.201C127.862 70.6308 129.028 71.6662 128.538 72.7374L117.26 97.3563C115.835 100.467 113.437 103.077 110.416 104.807C107.915 106.239 105.105 103.689 106.406 101.168L118.405 77.9166Z" fill="url(#paint3_linear_145_4694)"/>
</g>
<ellipse cx="1.79935" cy="4.10469" rx="1.79935" ry="4.10469" transform="matrix(0.92203 0.387118 -0.420359 0.907358 119.928 76.6602)" fill="#F2C17D"/>
<ellipse cx="1.79935" cy="4.10469" rx="1.79935" ry="4.10469" transform="matrix(0.92203 0.387118 -0.420359 0.907358 113.243 91.0669)" fill="#FF9705"/>
<g style="mix-blend-mode:multiply" opacity="0.16">
<path d="M153.079 122.546L147.447 126.466C144.341 128.628 140.313 128.958 136.897 127.329L112.285 115.593C106.265 112.722 103.747 105.489 106.683 99.5006L116.827 78.8093C117.925 76.5707 119.623 74.6816 121.733 73.3533L126.517 70.3417C130.709 67.7027 135.994 67.5129 140.364 69.8444L161.337 81.0333C167.709 84.4324 170.254 92.2599 167.1 98.7563L158.8 115.853C157.497 118.537 155.527 120.841 153.079 122.546Z" fill="#4B14CB"/>
</g>
<g style="mix-blend-mode:screen" opacity="0.16" filter="url(#filter2_i_145_4694)">
<path d="M153.079 122.546L147.447 126.466C144.341 128.628 140.313 128.958 136.897 127.329L112.285 115.593C106.265 112.722 103.747 105.489 106.683 99.5006L116.827 78.8093C117.925 76.5707 119.623 74.6816 121.733 73.3533L126.517 70.3417C130.709 67.7027 135.994 67.5129 140.364 69.8444L161.337 81.0333C167.709 84.4324 170.254 92.2599 167.1 98.7563L158.8 115.853C157.497 118.537 155.527 120.841 153.079 122.546Z" fill="white"/>
</g>
<g style="mix-blend-mode:multiply" opacity="0.5">
<path d="M113.858 113.91C111.992 113.028 111.896 110.409 113.692 109.392C115.581 108.323 117.872 108.238 119.835 109.164L144.689 120.888C146.416 121.703 146.582 124.097 144.983 125.141C142.601 126.528 139.679 126.612 137.223 125.364L125.715 119.515L113.858 113.91Z" fill="url(#paint4_linear_145_4694)"/>
</g>
<ellipse cx="124.301" cy="113.172" rx="3.61693" ry="0.904232" transform="rotate(23.0357 124.301 113.172)" fill="#FE9603"/>
<ellipse cx="120.136" cy="114.851" rx="3.61693" ry="0.904232" transform="rotate(23.0357 120.136 114.851)" fill="#F96E19"/>
<ellipse cx="130.418" cy="117.751" rx="3.61693" ry="0.904232" transform="rotate(23.0357 130.418 117.751)" fill="#E98900"/>
<ellipse cx="135.057" cy="121.572" rx="3.61693" ry="0.904232" transform="rotate(23.0357 135.057 121.572)" fill="#F96E19"/>
<ellipse cx="138.882" cy="120.25" rx="3.61693" ry="0.904232" transform="rotate(23.0357 138.882 120.25)" fill="#FE9603"/>
<g style="mix-blend-mode:overlay" filter="url(#filter3_i_145_4694)">
<path d="M152.812 122.651L147.18 126.572C144.074 128.734 140.047 129.063 136.631 127.434L112.019 115.698C105.999 112.828 103.481 105.594 106.417 99.606L116.56 78.9148C117.658 76.6762 119.357 74.787 121.467 73.4588L126.25 70.4472C130.442 67.8081 135.727 67.6183 140.097 69.9499L161.071 81.1387C167.442 84.5378 169.988 92.3654 166.834 98.8618L158.534 115.958C157.231 118.642 155.261 120.946 152.812 122.651Z" fill="#696969"/>
</g>
<g style="mix-blend-mode:overlay" filter="url(#filter4_i_145_4694)">
<path d="M152.812 122.651L147.18 126.572C144.074 128.734 140.047 129.063 136.631 127.434L112.019 115.698C105.999 112.828 103.481 105.594 106.417 99.606L116.56 78.9148C117.658 76.6762 119.357 74.787 121.467 73.4588L126.25 70.4472C130.442 67.8081 135.727 67.6183 140.097 69.9499L161.071 81.1387C167.442 84.5378 169.988 92.3654 166.834 98.8618L158.534 115.958C157.231 118.642 155.261 120.946 152.812 122.651Z" fill="#696969"/>
</g>
<g style="mix-blend-mode:overlay" filter="url(#filter5_i_145_4694)">
<path d="M152.812 122.651L147.18 126.572C144.074 128.734 140.047 129.063 136.631 127.434L112.019 115.698C105.999 112.828 103.481 105.594 106.417 99.606L116.56 78.9148C117.658 76.6762 119.357 74.787 121.467 73.4588L126.25 70.4472C130.442 67.8081 135.727 67.6183 140.097 69.9499L161.071 81.1387C167.442 84.5378 169.988 92.3654 166.834 98.8618L158.534 115.958C157.231 118.642 155.261 120.946 152.812 122.651Z" fill="#696969"/>
</g>
<g filter="url(#filter6_di_145_4694)">
<path d="M144.536 76.5484C145.164 74.7903 147.173 74.0234 148.808 74.9173L156.076 78.8893C157.703 79.7785 158.223 81.9091 157.186 83.4339L153.114 89.416C155.661 90.5244 158.332 91.6049 161.282 92.7893C162.978 93.4707 163.745 95.4949 162.927 97.1321L159.39 104.205C158.622 105.74 156.762 106.314 155.246 105.507C152.368 103.976 149.666 102.619 147.038 101.358L144.008 110.287C143.417 112.031 141.463 112.839 139.82 112.017L132.996 108.605C131.373 107.793 130.762 105.743 131.676 104.182L136.21 96.4422C133.313 95.1787 130.33 93.8976 127.123 92.5001C125.457 91.7744 124.749 89.7474 125.597 88.1405L129.981 79.8335C130.854 78.1793 132.974 77.7259 134.498 78.8268C137.162 80.75 139.608 82.3579 141.961 83.7625L144.536 76.5484Z" fill="url(#paint5_linear_145_4694)"/>
</g>
<mask id="mask0_145_4694" style="mask-type:alpha" maskUnits="userSpaceOnUse" x="105" y="68" width="64" height="61">
<path d="M153.079 122.547L147.447 126.468C144.341 128.63 140.314 128.959 136.898 127.33L112.286 115.594C106.266 112.724 103.748 105.49 106.684 99.502L116.828 78.8108C117.925 76.5722 119.624 74.683 121.734 73.3548L126.517 70.3432C130.709 67.7041 135.994 67.5143 140.364 69.8459L161.338 81.0347C167.71 84.4338 170.255 92.2614 167.101 98.7578L158.801 115.854C157.498 118.538 155.528 120.842 153.079 122.547Z" fill="url(#paint6_linear_145_4694)"/>
</mask>
<g mask="url(#mask0_145_4694)">
<g style="mix-blend-mode:plus-darker">
<ellipse cx="128.485" cy="112.687" rx="45.6733" ry="16.1657" transform="rotate(15.5871 128.485 112.687)" fill="url(#paint7_linear_145_4694)"/>
</g>
</g>
<mask id="mask1_145_4694" style="mask-type:alpha" maskUnits="userSpaceOnUse" x="125" y="74" width="39" height="39">
<path d="M144.538 76.5463C145.165 74.7885 147.175 74.0213 148.81 74.9152L156.077 78.8882C157.704 79.7774 158.225 81.908 157.187 83.4327L153.115 89.4139C155.663 90.5223 158.334 91.6028 161.283 92.7872C162.979 93.4684 163.747 95.4928 162.928 97.13L159.391 104.204C158.624 105.739 156.764 106.313 155.247 105.506C152.37 103.974 149.668 102.618 147.039 101.357L144.01 110.286C143.418 112.03 141.464 112.837 139.822 112.016L132.997 108.602C131.375 107.791 130.763 105.742 131.678 104.181L136.212 96.4401C133.314 95.1767 130.332 93.8964 127.124 92.499C125.459 91.7733 124.751 89.7464 125.599 88.1395L129.983 79.8314C130.856 78.1774 132.975 77.7248 134.5 78.8257C137.163 80.7488 139.61 82.3558 141.963 83.7604L144.538 76.5463Z" fill="#D9D9D9"/>
</mask>
<g mask="url(#mask1_145_4694)">
<g style="mix-blend-mode:multiply" opacity="0.2">
<path d="M142.149 123.596C133.595 131.977 146.117 134.207 132.695 120.507C119.274 106.807 115.328 88.9078 123.882 80.5271C132.436 72.1464 119.914 69.917 133.336 83.6166C146.758 97.3162 150.703 115.216 142.149 123.596Z" fill="url(#paint8_linear_145_4694)"/>
</g>
</g>
<mask id="mask2_145_4694" style="mask-type:alpha" maskUnits="userSpaceOnUse" x="105" y="68" width="64" height="61">
<path d="M153.079 122.547L147.448 126.468C144.341 128.63 140.314 128.959 136.898 127.33L112.286 115.594C106.266 112.724 103.748 105.49 106.684 99.502L116.828 78.8108C117.925 76.5722 119.624 74.683 121.734 73.3548L126.517 70.3432C130.709 67.7041 135.994 67.5143 140.365 69.8459L161.338 81.0347C167.71 84.4338 170.255 92.2614 167.101 98.7578L158.801 115.854C157.498 118.538 155.528 120.842 153.079 122.547Z" fill="#D9D9D9"/>
</mask>
<g mask="url(#mask2_145_4694)">
<g style="mix-blend-mode:screen">
<path d="M143.228 142.994C133.536 149.471 115.74 139.848 103.48 121.5C91.22 103.153 89.1385 83.0288 98.8309 76.5522C108.523 70.0756 126.319 79.6989 138.579 98.0464C171.118 104.353 152.921 136.518 143.228 142.994Z" fill="url(#paint9_linear_145_4694)"/>
</g>
</g>
</g>
<path d="M192.667 105.22C191.861 105.22 191.083 105.147 190.335 105C189.602 104.868 188.92 104.67 188.289 104.406C187.673 104.142 187.123 103.827 186.639 103.46L187.497 101.238C187.981 101.575 188.487 101.869 189.015 102.118C189.558 102.353 190.13 102.536 190.731 102.668C191.347 102.785 191.993 102.844 192.667 102.844C193.826 102.844 194.669 102.653 195.197 102.272C195.725 101.876 195.989 101.37 195.989 100.754C195.989 100.417 195.909 100.131 195.747 99.896C195.586 99.6467 195.322 99.434 194.955 99.258C194.589 99.082 194.105 98.9353 193.503 98.818L191.083 98.312C189.69 98.0187 188.649 97.5273 187.959 96.838C187.285 96.134 186.947 95.21 186.947 94.066C186.947 93.098 187.204 92.2547 187.717 91.536C188.231 90.8173 188.942 90.26 189.851 89.864C190.761 89.468 191.809 89.27 192.997 89.27C193.701 89.27 194.376 89.3433 195.021 89.49C195.681 89.622 196.283 89.8273 196.825 90.106C197.383 90.37 197.867 90.6927 198.277 91.074L197.419 93.186C196.803 92.6727 196.129 92.2913 195.395 92.042C194.662 91.778 193.855 91.646 192.975 91.646C192.301 91.646 191.721 91.7413 191.237 91.932C190.753 92.1227 190.379 92.394 190.115 92.746C189.866 93.0833 189.741 93.4867 189.741 93.956C189.741 94.484 189.917 94.9093 190.269 95.232C190.621 95.54 191.223 95.782 192.073 95.958L194.471 96.464C195.923 96.772 197.001 97.256 197.705 97.916C198.424 98.576 198.783 99.456 198.783 100.556C198.783 101.48 198.534 102.294 198.035 102.998C197.537 103.702 196.825 104.252 195.901 104.648C194.992 105.029 193.914 105.22 192.667 105.22ZM205.958 105.22C205.063 105.22 204.322 105.059 203.736 104.736C203.149 104.399 202.709 103.9 202.416 103.24C202.137 102.58 201.998 101.759 201.998 100.776V94.242H204.748V100.82C204.748 101.319 204.814 101.737 204.946 102.074C205.092 102.411 205.305 102.661 205.584 102.822C205.877 102.983 206.244 103.064 206.684 103.064C207.182 103.064 207.615 102.954 207.982 102.734C208.363 102.499 208.656 102.177 208.862 101.766C209.082 101.341 209.192 100.849 209.192 100.292V94.242H211.942V105H209.258V102.756H209.566C209.258 103.548 208.788 104.157 208.158 104.582C207.542 105.007 206.808 105.22 205.958 105.22ZM222.135 105.22C221.226 105.22 220.426 104.993 219.737 104.538C219.062 104.083 218.615 103.475 218.395 102.712H218.615V105H215.931V89.49H218.681V96.42H218.417C218.652 95.7013 219.106 95.122 219.781 94.682C220.456 94.242 221.24 94.022 222.135 94.022C223.088 94.022 223.917 94.2493 224.621 94.704C225.325 95.1587 225.875 95.804 226.271 96.64C226.667 97.4613 226.865 98.4513 226.865 99.61C226.865 100.754 226.667 101.751 226.271 102.602C225.875 103.438 225.318 104.083 224.599 104.538C223.895 104.993 223.074 105.22 222.135 105.22ZM221.365 103.13C222.186 103.13 222.846 102.837 223.345 102.25C223.844 101.649 224.093 100.769 224.093 99.61C224.093 98.4367 223.844 97.564 223.345 96.992C222.846 96.4053 222.186 96.112 221.365 96.112C220.544 96.112 219.884 96.4053 219.385 96.992C218.886 97.564 218.637 98.4367 218.637 99.61C218.637 100.769 218.886 101.649 219.385 102.25C219.884 102.837 220.544 103.13 221.365 103.13ZM234.187 105.22C233.586 105.22 232.999 105.169 232.427 105.066C231.87 104.963 231.357 104.824 230.887 104.648C230.418 104.457 230.007 104.223 229.655 103.944L230.359 102.14C230.726 102.375 231.122 102.58 231.547 102.756C231.973 102.932 232.413 103.064 232.867 103.152C233.322 103.24 233.769 103.284 234.209 103.284C234.913 103.284 235.434 103.167 235.771 102.932C236.123 102.683 236.299 102.36 236.299 101.964C236.299 101.627 236.182 101.37 235.947 101.194C235.727 101.003 235.39 100.864 234.935 100.776L232.735 100.358C231.826 100.182 231.129 99.852 230.645 99.368C230.176 98.8693 229.941 98.2313 229.941 97.454C229.941 96.75 230.132 96.1413 230.513 95.628C230.909 95.1147 231.452 94.7187 232.141 94.44C232.831 94.1613 233.623 94.022 234.517 94.022C235.031 94.022 235.529 94.0733 236.013 94.176C236.497 94.264 236.952 94.4033 237.377 94.594C237.817 94.77 238.199 95.0047 238.521 95.298L237.773 97.102C237.495 96.8673 237.172 96.6693 236.805 96.508C236.439 96.332 236.057 96.2 235.661 96.112C235.28 96.0093 234.906 95.958 234.539 95.958C233.821 95.958 233.285 96.0827 232.933 96.332C232.596 96.5813 232.427 96.9113 232.427 97.322C232.427 97.63 232.53 97.8867 232.735 98.092C232.941 98.2973 233.256 98.4367 233.681 98.51L235.881 98.928C236.835 99.104 237.553 99.4267 238.037 99.896C238.536 100.365 238.785 100.996 238.785 101.788C238.785 102.507 238.595 103.123 238.213 103.636C237.832 104.149 237.297 104.545 236.607 104.824C235.918 105.088 235.111 105.22 234.187 105.22ZM247.091 105.22C245.961 105.22 244.979 104.993 244.143 104.538C243.307 104.069 242.661 103.409 242.207 102.558C241.752 101.707 241.525 100.71 241.525 99.566C241.525 98.422 241.752 97.4393 242.207 96.618C242.661 95.782 243.307 95.144 244.143 94.704C244.979 94.2493 245.961 94.022 247.091 94.022C247.78 94.022 248.462 94.132 249.137 94.352C249.811 94.572 250.369 94.88 250.809 95.276L249.995 97.19C249.613 96.8527 249.181 96.596 248.697 96.42C248.227 96.244 247.773 96.156 247.333 96.156C246.379 96.156 245.639 96.4567 245.111 97.058C244.597 97.6447 244.341 98.488 244.341 99.588C244.341 100.673 244.597 101.531 245.111 102.162C245.639 102.778 246.379 103.086 247.333 103.086C247.758 103.086 248.213 102.998 248.697 102.822C249.181 102.646 249.613 102.382 249.995 102.03L250.809 103.966C250.369 104.347 249.804 104.655 249.115 104.89C248.44 105.11 247.765 105.22 247.091 105.22ZM253.623 105V94.242H256.307V96.838H256.087C256.292 95.958 256.696 95.2907 257.297 94.836C257.898 94.3667 258.698 94.0953 259.695 94.022L260.531 93.956L260.707 96.288L259.123 96.442C258.228 96.53 257.554 96.8087 257.099 97.278C256.644 97.7327 256.417 98.378 256.417 99.214V105H253.623ZM263.189 91.932V89.248H266.269V91.932H263.189ZM263.365 105V94.242H266.115V105H263.365ZM270.1 108.96V94.242H272.784V96.508H272.564C272.784 95.76 273.231 95.1587 273.906 94.704C274.595 94.2493 275.395 94.022 276.304 94.022C277.243 94.022 278.064 94.2493 278.768 94.704C279.487 95.1587 280.044 95.804 280.44 96.64C280.836 97.4613 281.034 98.4513 281.034 99.61C281.034 100.754 280.836 101.751 280.44 102.602C280.044 103.438 279.494 104.083 278.79 104.538C278.086 104.993 277.257 105.22 276.304 105.22C275.409 105.22 274.625 105 273.95 104.56C273.275 104.105 272.821 103.519 272.586 102.8H272.85V108.96H270.1ZM275.534 103.13C276.355 103.13 277.015 102.837 277.514 102.25C278.013 101.649 278.262 100.769 278.262 99.61C278.262 98.4367 278.013 97.564 277.514 96.992C277.015 96.4053 276.355 96.112 275.534 96.112C274.713 96.112 274.053 96.4053 273.554 96.992C273.055 97.564 272.806 98.4367 272.806 99.61C272.806 100.769 273.055 101.649 273.554 102.25C274.053 102.837 274.713 103.13 275.534 103.13ZM289.239 105.22C287.802 105.22 286.731 104.861 286.027 104.142C285.323 103.423 284.971 102.375 284.971 100.996V96.31H282.903V94.242H284.971V91.03H287.721V94.242H290.977V96.31H287.721V100.842C287.721 101.546 287.875 102.074 288.183 102.426C288.491 102.778 288.99 102.954 289.679 102.954C289.884 102.954 290.097 102.932 290.317 102.888C290.537 102.829 290.764 102.771 290.999 102.712L291.417 104.736C291.153 104.883 290.816 105 290.405 105.088C290.009 105.176 289.62 105.22 289.239 105.22ZM293.706 91.932V89.248H296.786V91.932H293.706ZM293.882 105V94.242H296.632V105H293.882ZM305.522 105.22C304.408 105.22 303.44 104.993 302.618 104.538C301.797 104.083 301.159 103.438 300.704 102.602C300.25 101.751 300.022 100.754 300.022 99.61C300.022 98.466 300.25 97.476 300.704 96.64C301.159 95.804 301.797 95.1587 302.618 94.704C303.44 94.2493 304.408 94.022 305.522 94.022C306.637 94.022 307.605 94.2493 308.426 94.704C309.248 95.1587 309.886 95.804 310.34 96.64C310.795 97.476 311.022 98.466 311.022 99.61C311.022 100.754 310.795 101.751 310.34 102.602C309.886 103.438 309.248 104.083 308.426 104.538C307.605 104.993 306.637 105.22 305.522 105.22ZM305.522 103.13C306.344 103.13 307.004 102.837 307.502 102.25C308.001 101.649 308.25 100.769 308.25 99.61C308.25 98.4367 308.001 97.564 307.502 96.992C307.004 96.4053 306.344 96.112 305.522 96.112C304.701 96.112 304.041 96.4053 303.542 96.992C303.044 97.564 302.794 98.4367 302.794 99.61C302.794 100.769 303.044 101.649 303.542 102.25C304.041 102.837 304.701 103.13 305.522 103.13ZM314.419 105V94.242H317.103V96.398H316.861C317.184 95.6207 317.682 95.034 318.357 94.638C319.046 94.2273 319.824 94.022 320.689 94.022C321.554 94.022 322.266 94.1833 322.823 94.506C323.38 94.8287 323.798 95.32 324.077 95.98C324.356 96.6253 324.495 97.4467 324.495 98.444V105H321.745V98.576C321.745 98.0187 321.672 97.564 321.525 97.212C321.393 96.86 321.18 96.6033 320.887 96.442C320.608 96.266 320.249 96.178 319.809 96.178C319.281 96.178 318.819 96.2953 318.423 96.53C318.027 96.75 317.719 97.0727 317.499 97.498C317.279 97.9087 317.169 98.3927 317.169 98.95V105H314.419ZM332.353 105.22C331.752 105.22 331.165 105.169 330.593 105.066C330.036 104.963 329.523 104.824 329.053 104.648C328.584 104.457 328.173 104.223 327.821 103.944L328.525 102.14C328.892 102.375 329.288 102.58 329.713 102.756C330.139 102.932 330.579 103.064 331.033 103.152C331.488 103.24 331.935 103.284 332.375 103.284C333.079 103.284 333.6 103.167 333.937 102.932C334.289 102.683 334.465 102.36 334.465 101.964C334.465 101.627 334.348 101.37 334.113 101.194C333.893 101.003 333.556 100.864 333.101 100.776L330.901 100.358C329.992 100.182 329.295 99.852 328.811 99.368C328.342 98.8693 328.107 98.2313 328.107 97.454C328.107 96.75 328.298 96.1413 328.679 95.628C329.075 95.1147 329.618 94.7187 330.307 94.44C330.997 94.1613 331.789 94.022 332.683 94.022C333.197 94.022 333.695 94.0733 334.179 94.176C334.663 94.264 335.118 94.4033 335.543 94.594C335.983 94.77 336.365 95.0047 336.687 95.298L335.939 97.102C335.661 96.8673 335.338 96.6693 334.971 96.508C334.605 96.332 334.223 96.2 333.827 96.112C333.446 96.0093 333.072 95.958 332.705 95.958C331.987 95.958 331.451 96.0827 331.099 96.332C330.762 96.5813 330.593 96.9113 330.593 97.322C330.593 97.63 330.696 97.8867 330.901 98.092C331.107 98.2973 331.422 98.4367 331.847 98.51L334.047 98.928C335.001 99.104 335.719 99.4267 336.203 99.896C336.702 100.365 336.951 100.996 336.951 101.788C336.951 102.507 336.761 103.123 336.379 103.636C335.998 104.149 335.463 104.545 334.773 104.824C334.084 105.088 333.277 105.22 332.353 105.22Z" fill="#202224"/>
<mask id="mask3_145_4694" style="mask-type:alpha" maskUnits="userSpaceOnUse" x="54" y="54" width="60" height="88">
<path d="M56 68.98C56 61.8113 61.8113 56 68.98 56H87.0175C100.815 56 112 67.185 112 80.9825V115.018C112 128.815 100.815 140 87.0175 140H68.98C61.8113 140 56 134.189 56 127.02V68.98Z" fill="white" stroke="url(#paint10_linear_145_4694)" stroke-opacity="0.3" stroke-width="2.60316"/>
</mask>
<g mask="url(#mask3_145_4694)">
<rect x="53.9995" y="54.3848" width="28" height="87.2308" fill="#587ED7"/>
</g>
<defs>
<filter id="filter0_d_145_4694" x="0.594441" y="0.594441" width="430.337" height="208.337" filterUnits="userSpaceOnUse" color-interpolation-filters="sRGB">
<feFlood flood-opacity="0" result="BackgroundImageFix"/>
<feColorMatrix in="SourceAlpha" type="matrix" values="0 0 0 0 0 0 0 0 0 0 0 0 0 0 0 0 0 0 127 0" result="hardAlpha"/>
<feOffset dx="6.76297" dy="6.76297"/>
<feGaussianBlur stdDeviation="30.4334"/>
<feColorMatrix type="matrix" values="0 0 0 0 0 0 0 0 0 0 0 0 0 0 0 0 0 0 0.05 0"/>
<feBlend mode="normal" in2="BackgroundImageFix" result="effect1_dropShadow_145_4694"/>
<feBlend mode="normal" in="SourceGraphic" in2="effect1_dropShadow_145_4694" result="shape"/>
</filter>
<filter id="filter1_f_145_4694" x="104.073" y="66.8366" width="65.7628" height="62.9015" filterUnits="userSpaceOnUse" color-interpolation-filters="sRGB">
<feFlood flood-opacity="0" result="BackgroundImageFix"/>
<feBlend mode="normal" in="SourceGraphic" in2="BackgroundImageFix" result="shape"/>
<feGaussianBlur stdDeviation="0.691805" result="effect1_foregroundBlur_145_4694"/>
</filter>
<filter id="filter2_i_145_4694" x="105.457" y="68.2202" width="62.9956" height="60.1343" filterUnits="userSpaceOnUse" color-interpolation-filters="sRGB">
<feFlood flood-opacity="0" result="BackgroundImageFix"/>
<feBlend mode="normal" in="SourceGraphic" in2="BackgroundImageFix" result="shape"/>
<feColorMatrix in="SourceAlpha" type="matrix" values="0 0 0 0 0 0 0 0 0 0 0 0 0 0 0 0 0 0 127 0" result="hardAlpha"/>
<feOffset dx="-13.9013" dy="1.9859"/>
<feComposite in2="hardAlpha" operator="arithmetic" k2="-1" k3="1"/>
<feColorMatrix type="matrix" values="0 0 0 0 1 0 0 0 0 1 0 0 0 0 1 0 0 0 1 0"/>
<feBlend mode="lighten" in2="shape" result="effect1_innerShadow_145_4694"/>
</filter>
<filter id="filter3_i_145_4694" x="105.19" y="68.3257" width="62.9956" height="60.1343" filterUnits="userSpaceOnUse" color-interpolation-filters="sRGB">
<feFlood flood-opacity="0" result="BackgroundImageFix"/>
<feBlend mode="normal" in="SourceGraphic" in2="BackgroundImageFix" result="shape"/>
<feColorMatrix in="SourceAlpha" type="matrix" values="0 0 0 0 0 0 0 0 0 0 0 0 0 0 0 0 0 0 127 0" result="hardAlpha"/>
<feOffset dx="2.38307" dy="-0.794358"/>
<feComposite in2="hardAlpha" operator="arithmetic" k2="-1" k3="1"/>
<feColorMatrix type="matrix" values="0 0 0 0 0.128125 0 0 0 0 0 0 0 0 0 0.170833 0 0 0 1 0"/>
<feBlend mode="multiply" in2="shape" result="effect1_innerShadow_145_4694"/>
</filter>
<filter id="filter4_i_145_4694" x="105.19" y="68.3257" width="62.9956" height="60.1343" filterUnits="userSpaceOnUse" color-interpolation-filters="sRGB">
<feFlood flood-opacity="0" result="BackgroundImageFix"/>
<feBlend mode="normal" in="SourceGraphic" in2="BackgroundImageFix" result="shape"/>
<feColorMatrix in="SourceAlpha" type="matrix" values="0 0 0 0 0 0 0 0 0 0 0 0 0 0 0 0 0 0 127 0" result="hardAlpha"/>
<feOffset dx="2.38307" dy="-0.794358"/>
<feComposite in2="hardAlpha" operator="arithmetic" k2="-1" k3="1"/>
<feColorMatrix type="matrix" values="0 0 0 0 0.128125 0 0 0 0 0 0 0 0 0 0.170833 0 0 0 1 0"/>
<feBlend mode="multiply" in2="shape" result="effect1_innerShadow_145_4694"/>
</filter>
<filter id="filter5_i_145_4694" x="105.19" y="68.3257" width="62.9956" height="60.1343" filterUnits="userSpaceOnUse" color-interpolation-filters="sRGB">
<feFlood flood-opacity="0" result="BackgroundImageFix"/>
<feBlend mode="normal" in="SourceGraphic" in2="BackgroundImageFix" result="shape"/>
<feColorMatrix in="SourceAlpha" type="matrix" values="0 0 0 0 0 0 0 0 0 0 0 0 0 0 0 0 0 0 127 0" result="hardAlpha"/>
<feOffset dx="-3.57461" dy="0.794358"/>
<feComposite in2="hardAlpha" operator="arithmetic" k2="-1" k3="1"/>
<feColorMatrix type="matrix" values="0 0 0 0 1 0 0 0 0 0.791944 0 0 0 0 0.108333 0 0 0 1 0"/>
<feBlend mode="screen" in2="shape" result="effect1_innerShadow_145_4694"/>
</filter>
<filter id="filter6_di_145_4694" x="122.457" y="74.542" width="40.7988" height="39.3866" filterUnits="userSpaceOnUse" color-interpolation-filters="sRGB">
<feFlood flood-opacity="0" result="BackgroundImageFix"/>
<feColorMatrix in="SourceAlpha" type="matrix" values="0 0 0 0 0 0 0 0 0 0 0 0 0 0 0 0 0 0 127 0" result="hardAlpha"/>
<feOffset dx="-2.78025" dy="1.58872"/>
<feComposite in2="hardAlpha" operator="out"/>
<feColorMatrix type="matrix" values="0 0 0 0 0.616667 0 0 0 0 0.261741 0 0 0 0 0.0411111 0 0 0 1 0"/>
<feBlend mode="normal" in2="BackgroundImageFix" result="effect1_dropShadow_145_4694"/>
<feBlend mode="normal" in="SourceGraphic" in2="effect1_dropShadow_145_4694" result="shape"/>
<feColorMatrix in="SourceAlpha" type="matrix" values="0 0 0 0 0 0 0 0 0 0 0 0 0 0 0 0 0 0 127 0" result="hardAlpha"/>
<feOffset dx="-1.58872" dy="1.19154"/>
<feComposite in2="hardAlpha" operator="arithmetic" k2="-1" k3="1"/>
<feColorMatrix type="matrix" values="0 0 0 0 1 0 0 0 0 1 0 0 0 0 1 0 0 0 0.6 0"/>
<feBlend mode="normal" in2="shape" result="effect2_innerShadow_145_4694"/>
</filter>
<linearGradient id="paint0_linear_145_4694" x1="125.775" y1="25.6597" x2="273.768" y2="197.283" gradientUnits="userSpaceOnUse">
<stop stop-color="#F1F1F1"/>
<stop offset="1" stop-color="#E1E1E1"/>
</linearGradient>
<linearGradient id="paint1_linear_145_4694" x1="138.997" y1="97.9581" x2="108.551" y2="110.057" gradientUnits="userSpaceOnUse">
<stop stop-color="#BB99FF"/>
<stop offset="1" stop-color="#32008F"/>
</linearGradient>
<linearGradient id="paint2_linear_145_4694" x1="165.574" y1="87.7077" x2="129.255" y2="113.34" gradientUnits="userSpaceOnUse">
<stop stop-color="#F0AEFF"/>
<stop offset="0.44895" stop-color="#C583FF"/>
<stop offset="0.954259" stop-color="#4055FF"/>
</linearGradient>
<linearGradient id="paint3_linear_145_4694" x1="126.282" y1="67.8656" x2="110.359" y2="106.89" gradientUnits="userSpaceOnUse">
<stop stop-color="#AB95F1"/>
<stop offset="0.467352" stop-color="#805FFF"/>
<stop offset="0.962398" stop-color="#8936FD"/>
</linearGradient>
<linearGradient id="paint4_linear_145_4694" x1="110.264" y1="109.776" x2="143.285" y2="123.101" gradientUnits="userSpaceOnUse">
<stop stop-color="#AB95F1"/>
<stop offset="0.467352" stop-color="#805FFF"/>
<stop offset="0.962398" stop-color="#8936FD"/>
</linearGradient>
<linearGradient id="paint5_linear_145_4694" x1="161.476" y1="85.3201" x2="132.766" y2="105.747" gradientUnits="userSpaceOnUse">
<stop stop-color="#FFF9B7"/>
<stop offset="1" stop-color="#FFD52D"/>
</linearGradient>
<linearGradient id="paint6_linear_145_4694" x1="135.352" y1="65.9688" x2="128.306" y2="118.061" gradientUnits="userSpaceOnUse">
<stop stop-color="#FFFACD"/>
<stop offset="0.34" stop-color="#FAC3FF"/>
<stop offset="0.66" stop-color="#CAD5FF"/>
<stop offset="1" stop-color="#CDF2FF"/>
</linearGradient>
<linearGradient id="paint7_linear_145_4694" x1="128.485" y1="96.5213" x2="129.756" y2="127.653" gradientUnits="userSpaceOnUse">
<stop offset="0.31" stop-color="#655AFF" stop-opacity="0"/>
<stop offset="0.815" stop-color="#3D3699" stop-opacity="0.41"/>
</linearGradient>
<linearGradient id="paint8_linear_145_4694" x1="163.673" y1="90.1578" x2="132.695" y2="120.507" gradientUnits="userSpaceOnUse">
<stop stop-color="#FFA138"/>
<stop offset="1" stop-color="#F0662A"/>
</linearGradient>
<linearGradient id="paint9_linear_145_4694" x1="135.652" y1="100.396" x2="115.783" y2="121.347" gradientUnits="userSpaceOnUse">
<stop stop-color="#5C0083" stop-opacity="0"/>
<stop offset="0.459325" stop-color="#610083" stop-opacity="0.563267"/>
<stop offset="0.815467" stop-color="#640083"/>
</linearGradient>
<linearGradient id="paint10_linear_145_4694" x1="68.7692" y1="25.6597" x2="129.539" y2="38.5566" gradientUnits="userSpaceOnUse">
<stop stop-color="#F1F1F1"/>
<stop offset="1" stop-color="#E1E1E1"/>
</linearGradient>
<clipPath id="clip0_145_4694">
<rect width="72.2866" height="72.2866" fill="white" transform="translate(111.95 53.4741) rotate(15.5871)"/>
</clipPath>
</defs>
</svg>
