<svg width="210" height="107" viewBox="0 0 210 107" fill="none" xmlns="http://www.w3.org/2000/svg">
<g filter="url(#filter0_d_118_2479)">
<rect x="26" y="26" width="151.726" height="48.3003" rx="11.6362" fill="white"/>
<rect x="26" y="26" width="151.726" height="48.3003" rx="11.6362" stroke="url(#paint0_linear_118_2479)" stroke-opacity="0.3" stroke-width="1.21248"/>
</g>
<path d="M48.5917 46.2202L44.8002 37.7073H46.4544L49.5336 44.8437H49.0144L52.0814 37.7073H53.6753L49.8838 46.2202H48.5917ZM54.996 46.2202V37.7073H60.6592V38.939H56.4812V41.2815H60.3935V42.5132H56.4812V44.9886H60.6592V46.2202H54.996ZM62.7259 46.2202V37.7073H66.4209C67.3547 37.7073 68.0752 37.9327 68.5823 38.3835C69.0895 38.8262 69.3431 39.4501 69.3431 40.2551C69.3431 40.7784 69.2263 41.2292 68.9929 41.6075C68.7675 41.9859 68.4374 42.2757 68.0027 42.4769C67.568 42.6782 67.0407 42.7788 66.4209 42.7788L66.5296 42.5977H66.928C67.2581 42.5977 67.5439 42.6782 67.7854 42.8392C68.0349 43.0002 68.2523 43.2538 68.4374 43.5999L69.8623 46.2202H68.1597L66.6865 43.5033C66.5899 43.3262 66.4813 43.1894 66.3605 43.0928C66.2398 42.9881 66.1029 42.9157 65.95 42.8754C65.797 42.8352 65.6199 42.815 65.4187 42.815H64.2715V46.2202H62.7259ZM64.2715 41.6679H66.1552C66.7107 41.6679 67.1293 41.5552 67.411 41.3298C67.7008 41.0964 67.8457 40.7502 67.8457 40.2914C67.8457 39.8406 67.7008 39.5025 67.411 39.2771C67.1293 39.0436 66.7107 38.9269 66.1552 38.9269H64.2715V41.6679ZM74.4396 46.341C73.9968 46.341 73.5702 46.3007 73.1596 46.2202C72.7571 46.1478 72.3828 46.0391 72.0367 45.8942C71.6986 45.7493 71.3967 45.5762 71.131 45.375L71.602 44.1554C71.8676 44.3405 72.1453 44.5015 72.4351 44.6384C72.733 44.7672 73.0469 44.8678 73.377 44.9403C73.7151 45.0047 74.0693 45.0369 74.4396 45.0369C75.0756 45.0369 75.5384 44.9322 75.8282 44.7229C76.118 44.5056 76.2629 44.2278 76.2629 43.8897C76.2629 43.7046 76.2187 43.5476 76.1301 43.4188C76.0416 43.2819 75.8967 43.1652 75.6954 43.0686C75.4942 42.972 75.2285 42.8915 74.8985 42.8271L73.5702 42.5494C72.8054 42.3884 72.2339 42.1187 71.8555 41.7404C71.4852 41.354 71.3001 40.8468 71.3001 40.2189C71.3001 39.6876 71.441 39.2247 71.7227 38.8303C72.0045 38.4358 72.3949 38.1299 72.894 37.9126C73.3931 37.6952 73.9687 37.5865 74.6207 37.5865C75.0071 37.5865 75.3774 37.6268 75.7316 37.7073C76.0939 37.7797 76.4239 37.8924 76.7218 38.0454C77.0277 38.1903 77.2933 38.3674 77.5187 38.5767L77.0478 39.7359C76.7097 39.4542 76.3394 39.2449 75.9369 39.108C75.5344 38.9631 75.0917 38.8906 74.6086 38.8906C74.2383 38.8906 73.9204 38.943 73.6547 39.0476C73.3891 39.1523 73.1838 39.3012 73.0389 39.4944C72.902 39.6796 72.8336 39.9009 72.8336 40.1585C72.8336 40.4483 72.9302 40.6818 73.1234 40.8589C73.3166 41.0279 73.6467 41.1608 74.1136 41.2574L75.4298 41.5351C76.2267 41.7041 76.8184 41.9698 77.2048 42.332C77.5992 42.6943 77.7965 43.1773 77.7965 43.7811C77.7965 44.2882 77.6596 44.735 77.3859 45.1214C77.1122 45.5078 76.7218 45.8097 76.2146 46.027C75.7155 46.2363 75.1239 46.341 74.4396 46.341ZM79.648 46.2202V37.7073H81.1936V46.2202H79.648ZM87.3849 46.341C86.765 46.341 86.2015 46.2403 85.6944 46.0391C85.1953 45.8298 84.7646 45.5319 84.4023 45.1455C84.0481 44.7591 83.7744 44.2963 83.5812 43.7569C83.388 43.2175 83.2914 42.6178 83.2914 41.9577C83.2914 41.2896 83.388 40.6898 83.5812 40.1585C83.7744 39.6192 84.0481 39.1603 84.4023 38.782C84.7646 38.3956 85.1953 38.1017 85.6944 37.9005C86.2015 37.6912 86.765 37.5865 87.3849 37.5865C88.0047 37.5865 88.5642 37.6912 89.0633 37.9005C89.5704 38.1017 90.0011 38.3915 90.3553 38.7699C90.7176 39.1483 90.9953 39.6071 91.1885 40.1465C91.3817 40.6778 91.4783 41.2775 91.4783 41.9456C91.4783 42.6138 91.3817 43.2175 91.1885 43.7569C90.9953 44.2963 90.7176 44.7591 90.3553 45.1455C90.0011 45.5319 89.5704 45.8298 89.0633 46.0391C88.5642 46.2403 88.0047 46.341 87.3849 46.341ZM87.3849 45.0127C87.9081 45.0127 88.3509 44.892 88.7131 44.6505C89.0834 44.409 89.3652 44.0588 89.5584 43.5999C89.7596 43.1411 89.8603 42.5937 89.8603 41.9577C89.8603 41.3137 89.7637 40.7663 89.5704 40.3155C89.3772 39.8567 89.0955 39.5105 88.7252 39.2771C88.3549 39.0356 87.9081 38.9148 87.3849 38.9148C86.8697 38.9148 86.4269 39.0356 86.0566 39.2771C85.6863 39.5105 85.4005 39.8567 85.1993 40.3155C85.0061 40.7663 84.9095 41.3137 84.9095 41.9577C84.9095 42.5937 85.0061 43.1411 85.1993 43.5999C85.4005 44.0588 85.6863 44.409 86.0566 44.6505C86.4269 44.892 86.8697 45.0127 87.3849 45.0127ZM93.575 46.2202V37.7073H94.7342L99.6246 44.0588H99.3106V37.7073H100.748V46.2202H99.6004L94.71 39.8567H95.0119V46.2202H93.575ZM45.8628 62.2202V53.7073H49.5577C50.4915 53.7073 51.212 53.9327 51.7192 54.3835C52.2263 54.8262 52.4799 55.4501 52.4799 56.2551C52.4799 56.7784 52.3632 57.2292 52.1297 57.6075C51.9043 57.9859 51.5743 58.2757 51.1396 58.4769C50.7049 58.6782 50.1776 58.7788 49.5577 58.7788L49.6664 58.5977H50.0649C50.3949 58.5977 50.6807 58.6782 50.9222 58.8392C51.1718 59.0002 51.3891 59.2538 51.5743 59.5999L52.9991 62.2202H51.2965L49.8234 59.5033C49.7268 59.3262 49.6181 59.1894 49.4974 59.0928C49.3766 58.9881 49.2398 58.9157 49.0868 58.8754C48.9339 58.8352 48.7568 58.815 48.5555 58.815H47.4084V62.2202H45.8628ZM47.4084 57.6679H49.2921C49.8475 57.6679 50.2661 57.5552 50.5479 57.3298C50.8377 57.0964 50.9826 56.7502 50.9826 56.2914C50.9826 55.8406 50.8377 55.5025 50.5479 55.2771C50.2661 55.0436 49.8475 54.9269 49.2921 54.9269H47.4084V57.6679ZM54.6658 62.2202V53.7073H60.329V54.939H56.151V57.2815H60.0633V58.5132H56.151V60.9886H60.329V62.2202H54.6658ZM62.3957 62.2202V53.7073H63.9413V60.904H68.0227V62.2202H62.3957ZM69.7012 62.2202V53.7073H75.3644V54.939H71.1864V57.2815H75.0987V58.5132H71.1864V60.9886H75.3644V62.2202H69.7012ZM76.3601 62.2202L80.2121 53.7073H81.4799L85.3319 62.2202H83.7621L82.7358 59.8294L83.3878 60.252H78.2921L78.9442 59.8294L77.9299 62.2202H76.3601ZM80.8279 55.3857L79.1374 59.4067L78.8234 59.0203H82.8565L82.5546 59.4067L80.852 55.3857H80.8279ZM89.6283 62.341C89.1855 62.341 88.7589 62.3007 88.3483 62.2202C87.9458 62.1478 87.5715 62.0391 87.2253 61.8942C86.8872 61.7493 86.5854 61.5762 86.3197 61.375L86.7906 60.1554C87.0563 60.3405 87.334 60.5015 87.6238 60.6384C87.9217 60.7672 88.2356 60.8678 88.5657 60.9403C88.9038 61.0047 89.258 61.0369 89.6283 61.0369C90.2642 61.0369 90.7271 60.9322 91.0169 60.7229C91.3067 60.5056 91.4516 60.2278 91.4516 59.8897C91.4516 59.7046 91.4073 59.5476 91.3188 59.4188C91.2302 59.2819 91.0853 59.1652 90.8841 59.0686C90.6828 58.972 90.4172 58.8915 90.0871 58.8271L88.7589 58.5494C87.9941 58.3884 87.4226 58.1187 87.0442 57.7404C86.6739 57.354 86.4888 56.8468 86.4888 56.2189C86.4888 55.6876 86.6296 55.2247 86.9114 54.8303C87.1931 54.4358 87.5836 54.1299 88.0827 53.9126C88.5818 53.6952 89.1573 53.5865 89.8094 53.5865C90.1958 53.5865 90.5661 53.6268 90.9203 53.7073C91.2826 53.7797 91.6126 53.8924 91.9105 54.0454C92.2164 54.1903 92.482 54.3674 92.7074 54.5767L92.2365 55.7359C91.8984 55.4542 91.5281 55.2449 91.1256 55.108C90.7231 54.9631 90.2803 54.8906 89.7973 54.8906C89.427 54.8906 89.109 54.943 88.8434 55.0476C88.5777 55.1523 88.3725 55.3012 88.2276 55.4944C88.0907 55.6796 88.0223 55.9009 88.0223 56.1585C88.0223 56.4483 88.1189 56.6818 88.3121 56.8589C88.5053 57.0279 88.8353 57.1608 89.3022 57.2574L90.6184 57.5351C91.4154 57.7041 92.0071 57.9698 92.3935 58.332C92.7879 58.6943 92.9851 59.1773 92.9851 59.7811C92.9851 60.2882 92.8483 60.735 92.5746 61.1214C92.3009 61.5078 91.9105 61.8097 91.4033 62.027C90.9042 62.2363 90.3125 62.341 89.6283 62.341ZM94.8367 62.2202V53.7073H100.5V54.939H96.3219V57.2815H100.234V58.5132H96.3219V60.9886H100.5V62.2202H94.8367Z" fill="#202224"/>
<path opacity="0.3" d="M160.566 34.4705C167.235 34.4705 172.641 39.8768 172.641 46.5457V53.8953C172.641 60.5641 167.235 65.9705 160.566 65.9705H153.217C146.548 65.9705 141.141 60.5641 141.141 53.8953V46.5457C141.141 39.8768 146.548 34.4705 153.217 34.4705H160.566Z" fill="#1F2CB3"/>
<path d="M153.289 57.3482C153.019 56.5313 152.789 55.6997 152.598 54.8534C152.408 54.0072 152.27 53.1492 152.182 52.2795L150.565 53.3804C150.455 53.4617 150.372 53.5547 150.316 53.6594C150.26 53.7642 150.232 53.8806 150.233 54.0088V58.3285C150.233 58.4089 150.261 58.4655 150.316 58.4982C150.371 58.5308 150.431 58.5308 150.495 58.4982L153.289 57.3482ZM156.757 40.5383C155.516 41.9929 154.629 43.4939 154.096 45.0415C153.563 46.589 153.296 48.2782 153.296 50.109C153.296 51.4144 153.409 52.6691 153.635 53.8731C153.862 55.0771 154.16 56.1869 154.53 57.2024H159.468C159.839 56.1877 160.137 55.078 160.363 53.8731C160.59 52.6682 160.703 51.4135 160.703 50.109C160.703 48.2782 160.436 46.589 159.903 45.0415C159.37 43.4939 158.482 41.9925 157.241 40.5371C157.195 40.4902 157.156 40.4554 157.124 40.4328C157.091 40.4093 157.05 40.3976 156.999 40.3976C156.949 40.3976 156.908 40.4093 156.875 40.4328C156.842 40.4562 156.803 40.491 156.757 40.5371M156.999 50.2899C156.478 50.2899 156.04 50.1081 155.683 49.7445C155.326 49.3817 155.148 48.9351 155.148 48.4047C155.148 47.8743 155.326 47.4278 155.683 47.065C156.041 46.7022 156.479 46.5203 156.999 46.5195C157.52 46.5187 157.958 46.7005 158.315 47.065C158.673 47.4278 158.851 47.8743 158.851 48.4047C158.851 48.9351 158.673 49.3817 158.315 49.7445C157.958 50.1073 157.52 50.2891 156.999 50.2899ZM160.71 57.3721L163.504 58.522C163.567 58.5547 163.627 58.5505 163.683 58.5095C163.738 58.4693 163.766 58.4089 163.766 58.3285V54.0352C163.766 53.9062 163.738 53.7855 163.682 53.6733C163.626 53.5602 163.543 53.4634 163.432 53.3829L161.816 52.2807C161.729 53.1504 161.59 54.0126 161.399 54.8672C161.209 55.721 160.979 56.5551 160.71 57.3721ZM157.719 39.2979C159.162 40.7742 160.225 42.4185 160.91 44.2308C161.595 46.0432 161.937 48.0469 161.937 50.2422C161.937 50.3385 161.941 50.4391 161.95 50.5438C161.958 50.6485 161.954 50.7575 161.937 50.8706L164.079 52.3398C164.365 52.5216 164.591 52.7646 164.754 53.0687C164.918 53.3729 165 53.6946 165 54.034V58.9732C165 59.3335 164.852 59.615 164.556 59.8178C164.258 60.0206 163.944 60.0541 163.611 59.9184L160.093 58.4592H153.882L150.364 59.8945C150.032 60.0302 149.721 59.9967 149.432 59.7939C149.143 59.5912 148.999 59.3101 149 58.9506V54.0101C149 53.6716 149.078 53.3498 149.233 53.0449C149.389 52.7407 149.61 52.4977 149.896 52.3159L152.061 50.8454V50.2422C152.061 48.0469 152.404 46.0432 153.089 44.2308C153.772 42.4185 154.836 40.7742 156.28 39.2979C156.376 39.1931 156.487 39.1173 156.613 39.0704C156.739 39.0235 156.868 39 156.999 39C157.131 39 157.26 39.0235 157.386 39.0704C157.512 39.1173 157.623 39.194 157.719 39.2979Z" fill="white"/>
<defs>
<filter id="filter0_d_118_2479" x="0.193664" y="0.193664" width="209.639" height="106.213" filterUnits="userSpaceOnUse" color-interpolation-filters="sRGB">
<feFlood flood-opacity="0" result="BackgroundImageFix"/>
<feColorMatrix in="SourceAlpha" type="matrix" values="0 0 0 0 0 0 0 0 0 0 0 0 0 0 0 0 0 0 127 0" result="hardAlpha"/>
<feOffset dx="3.15002" dy="3.15002"/>
<feGaussianBlur stdDeviation="14.1751"/>
<feColorMatrix type="matrix" values="0 0 0 0 0 0 0 0 0 0 0 0 0 0 0 0 0 0 0.05 0"/>
<feBlend mode="normal" in2="BackgroundImageFix" result="effect1_dropShadow_118_2479"/>
<feBlend mode="normal" in="SourceGraphic" in2="effect1_dropShadow_118_2479" result="shape"/>
</filter>
<linearGradient id="paint0_linear_118_2479" x1="60.5967" y1="8.55425" x2="146.629" y2="94.5863" gradientUnits="userSpaceOnUse">
<stop stop-color="#F1F1F1"/>
<stop offset="1" stop-color="#E1E1E1"/>
</linearGradient>
</defs>
</svg>
