<svg width="431" height="209" viewBox="0 0 431 209" fill="none" xmlns="http://www.w3.org/2000/svg">
<g filter="url(#filter0_d_120_2015)">
<rect x="55.8684" y="56" width="306" height="84" rx="12.98" fill="white"/>
<rect x="55.8684" y="56" width="306" height="84" rx="12.98" stroke="url(#paint0_linear_120_2015)" stroke-opacity="0.3" stroke-width="2.60316"/>
</g>
<g filter="url(#filter1_d_120_2015)">
<path d="M120.278 88.4471C121.604 84.3641 122.268 82.3226 124.013 81.0541C125.759 79.7857 127.906 79.7857 132.199 79.7857H148.217C158.664 79.7857 163.887 79.7857 166.13 82.8722C168.372 85.9588 166.758 90.9264 163.53 100.862L159.043 114.672C157.76 118.619 157.119 120.592 155.431 121.818C153.744 123.045 151.669 123.045 147.519 123.045H141.518C126.206 123.045 118.55 123.045 115.263 118.521C111.976 113.996 114.342 106.715 119.074 92.1523L120.278 88.4471Z" fill="#5F0010"/>
<path d="M124.588 87.0811C125.915 82.998 126.578 80.9565 128.324 79.6881C130.07 78.4196 132.216 78.4196 136.509 78.4196H151.195C159.066 78.4196 163.001 78.4196 164.691 80.7451C166.38 83.0706 165.164 86.8133 162.732 94.2989L156.225 114.327C155.517 116.505 155.163 117.593 154.232 118.27C153.301 118.946 152.156 118.946 149.867 118.946H130.324C122.739 118.946 118.947 118.946 117.319 116.706C115.691 114.465 116.862 110.858 119.206 103.645L124.588 87.0811Z" fill="#E0B05D"/>
<path d="M121.078 114.312C121.972 115.693 121.893 117.333 120.901 117.975C119.909 118.618 118.38 118.02 117.486 116.639C116.592 115.258 116.671 113.618 117.662 112.976C118.654 112.333 120.183 112.932 121.078 114.312Z" fill="#DAAA57"/>
<path d="M139.849 115.595L116.91 113.092L117.861 117.237L139.849 115.595Z" fill="url(#paint1_linear_120_2015)"/>
<path d="M116.91 113.092C116.812 113.103 116.718 113.252 116.673 113.35C116.613 113.485 116.582 113.561 116.545 113.79C116.532 114.024 116.545 114.296 116.582 114.588C116.62 114.88 116.681 115.185 116.762 115.482C116.843 115.779 116.942 116.061 117.052 116.31C117.162 116.559 117.281 116.769 117.4 116.925C117.519 117.082 117.637 117.181 117.744 117.217C117.851 117.252 117.946 117.223 118.022 117.132L117.376 115.12L116.91 113.092Z" fill="#BF7B3D"/>
<path d="M123.526 79.0364C124.852 74.9534 125.516 72.9119 127.261 71.6434C129.007 70.375 131.154 70.375 135.447 70.375H146.782C156.37 70.375 161.164 70.375 163.222 73.2078C165.28 76.0407 163.799 80.6001 160.836 89.7188L157.967 98.5465C155.889 104.943 154.85 108.142 152.115 110.129C149.38 112.116 146.017 112.116 139.291 112.116H125.527C119.517 112.116 116.512 112.116 115.221 110.34C113.931 108.564 114.86 105.706 116.717 99.9901L123.526 79.0364Z" fill="url(#paint2_linear_120_2015)"/>
<path d="M121.328 112.038C116.367 111.785 116.496 114.817 116.17 115.641C116.17 115.641 116.577 112.3 116.671 111.381C116.766 110.461 117.353 107.297 117.353 107.297C119.734 108.931 123.861 112.167 121.328 112.038Z" fill="#5E000F"/>
<path d="M123.423 79.0364C124.75 74.9534 125.413 72.9119 127.159 71.6434C128.905 70.375 131.052 70.375 135.345 70.375H150.675C157.401 70.375 160.764 70.375 162.208 72.3622C163.652 74.3494 162.612 77.5478 160.534 83.9445L156.677 95.8144C154.599 102.211 153.56 105.41 150.824 107.397C148.089 109.384 144.726 109.384 138 109.384H121.152C117.574 109.384 115.786 109.384 115.018 108.327C114.25 107.27 114.802 105.569 115.908 102.166L123.423 79.0364Z" fill="url(#paint3_linear_120_2015)"/>
<path d="M121.71 109.384C113.742 109.384 114.197 112.116 113.742 112.875C113.742 112.875 114.121 109.839 114.197 109.004C114.273 108.17 114.956 105.286 114.956 105.286C118.902 106.652 125.778 109.384 121.71 109.384Z" fill="url(#paint4_linear_120_2015)"/>
<path d="M131.501 74.7009L118.143 110.902L122.014 110.371L131.501 74.7009Z" fill="url(#paint5_linear_120_2015)"/>
<path d="M119.074 92.1523L117.125 91.5191L117.125 91.5191L119.074 92.1523ZM159.043 114.672L157.094 114.039L157.094 114.039L159.043 114.672ZM163.53 100.862L165.479 101.495L163.53 100.862ZM120.278 88.4471L122.226 89.0803L122.226 89.0803L120.278 88.4471ZM119.206 103.645L117.257 103.011L119.206 103.645ZM156.225 114.327L154.276 113.694L154.276 113.694L156.225 114.327ZM162.732 94.2989L164.681 94.9321L164.681 94.9321L162.732 94.2989ZM124.588 87.0811L126.537 87.7143L124.588 87.0811ZM116.91 113.092L117.132 111.055L116.908 111.03L116.684 111.055L116.91 113.092ZM139.849 115.595L140.001 117.639L140.071 113.558L139.849 115.595ZM117.861 117.237L115.863 117.695L116.257 119.412L118.013 119.281L117.861 117.237ZM116.673 113.35L118.541 114.193L118.542 114.192L116.673 113.35ZM116.545 113.79L114.522 113.459L114.505 113.568L114.499 113.679L116.545 113.79ZM118.022 117.132L119.599 118.44L120.316 117.576L119.973 116.506L118.022 117.132ZM117.376 115.12L115.379 115.579L115.398 115.664L115.425 115.746L117.376 115.12ZM116.717 99.9901L118.666 100.623L118.666 100.623L116.717 99.9901ZM157.967 98.5465L159.916 99.1797L159.916 99.1797L157.967 98.5465ZM160.836 89.7188L158.887 89.0856L158.887 89.0856L160.836 89.7188ZM123.526 79.0364L121.577 78.4032L121.577 78.4032L123.526 79.0364ZM116.17 115.641L114.136 115.393L118.075 116.396L116.17 115.641ZM121.328 112.038L121.433 109.991L121.328 112.038ZM117.353 107.297L118.513 105.608L115.914 103.824L115.338 106.923L117.353 107.297ZM116.671 111.381L114.633 111.172L116.671 111.381ZM115.908 102.166L117.857 102.799L115.908 102.166ZM156.677 95.8144L154.728 95.1812L154.728 95.1812L156.677 95.8144ZM160.534 83.9445L162.483 84.5777L160.534 83.9445ZM123.423 79.0364L121.475 78.4032L123.423 79.0364ZM113.742 112.875L111.708 112.621L115.499 113.929L113.742 112.875ZM114.956 105.286L115.626 103.349L113.484 102.608L112.962 104.813L114.956 105.286ZM118.143 110.902L116.221 110.192L115.039 113.396L118.422 112.932L118.143 110.902ZM131.501 74.7009L133.481 75.2276L129.578 73.9916L131.501 74.7009ZM122.014 110.371L122.293 112.401L123.644 112.215L123.994 110.897L122.014 110.371ZM132.199 79.7857V81.8348H148.217V79.7857V77.7366H132.199V79.7857ZM163.53 100.862L161.581 100.229L157.094 114.039L159.043 114.672L160.991 115.305L165.479 101.495L163.53 100.862ZM147.519 123.045V120.996H141.518V123.045V125.094H147.519V123.045ZM119.074 92.1523L121.023 92.7855L122.226 89.0803L120.278 88.4471L118.329 87.8139L117.125 91.5191L119.074 92.1523ZM141.518 123.045V120.996C133.801 120.996 128.223 120.991 124.152 120.448C120.081 119.905 118.06 118.884 116.921 117.316L115.263 118.521L113.605 119.725C115.753 122.682 119.203 123.922 123.61 124.51C128.017 125.098 133.924 125.094 141.518 125.094V123.045ZM119.074 92.1523L117.125 91.5191C114.778 98.7422 112.949 104.358 112.146 108.731C111.343 113.104 111.457 116.768 113.605 119.725L115.263 118.521L116.921 117.316C115.782 115.749 115.435 113.51 116.177 109.471C116.918 105.431 118.638 100.125 121.023 92.7855L119.074 92.1523ZM159.043 114.672L157.094 114.039C156.437 116.059 155.998 117.399 155.532 118.4C155.094 119.338 154.703 119.815 154.227 120.161L155.431 121.818L156.636 123.476C157.847 122.596 158.62 121.473 159.246 120.131C159.843 118.852 160.365 117.231 160.991 115.305L159.043 114.672ZM147.519 123.045V125.094C149.544 125.094 151.246 125.097 152.648 124.925C154.117 124.745 155.424 124.356 156.636 123.476L155.431 121.818L154.227 120.161C153.751 120.507 153.176 120.731 152.149 120.858C151.053 120.992 149.643 120.996 147.519 120.996V123.045ZM148.217 79.7857V81.8348C153.502 81.8348 157.255 81.8392 159.979 82.2026C162.703 82.566 163.855 83.228 164.472 84.0767L166.13 82.8722L167.787 81.6678C166.161 79.4299 163.581 78.5487 160.521 78.1404C157.461 77.7322 153.379 77.7366 148.217 77.7366V79.7857ZM163.53 100.862L165.479 101.495C167.074 96.5856 168.339 92.7049 168.897 89.6686C169.454 86.6321 169.413 83.9057 167.787 81.6678L166.13 82.8722L164.472 84.0767C165.088 84.9253 165.362 86.226 164.866 88.9288C164.37 91.6318 163.214 95.2026 161.581 100.229L163.53 100.862ZM132.199 79.7857V77.7366C130.102 77.7366 128.346 77.7331 126.901 77.9104C125.389 78.0961 124.05 78.4951 122.809 79.3964L124.013 81.0541L125.218 82.7119C125.723 82.3447 126.33 82.1096 127.401 81.9781C128.539 81.8384 130.003 81.8348 132.199 81.8348V79.7857ZM120.278 88.4471L122.226 89.0803C122.905 86.9916 123.361 85.6005 123.845 84.5611C124.301 83.5834 124.713 83.0791 125.218 82.7119L124.013 81.0541L122.809 79.3964C121.569 80.2977 120.775 81.4483 120.131 82.8292C119.516 84.1484 118.977 85.8196 118.329 87.8139L120.278 88.4471ZM136.509 78.4196V80.4687H151.195V78.4196V76.3705H136.509V78.4196ZM162.732 94.2989L160.783 93.6657L154.276 113.694L156.225 114.327L158.173 114.96L164.681 94.9321L162.732 94.2989ZM149.867 118.946V116.897H130.324V118.946V120.996H149.867V118.946ZM119.206 103.645L121.155 104.278L126.537 87.7143L124.588 87.0811L122.639 86.4478L117.257 103.011L119.206 103.645ZM130.324 118.946V116.897C126.47 116.897 123.79 116.893 121.858 116.635C119.927 116.378 119.286 115.927 118.976 115.501L117.319 116.706L115.661 117.91C116.98 119.725 119.049 120.395 121.317 120.697C123.584 121 126.593 120.996 130.324 120.996V118.946ZM119.206 103.645L117.257 103.011C116.104 106.56 115.171 109.42 114.758 111.67C114.344 113.92 114.342 116.095 115.661 117.91L117.319 116.706L118.976 115.501C118.667 115.075 118.437 114.326 118.788 112.41C119.14 110.493 119.964 107.943 121.155 104.278L119.206 103.645ZM156.225 114.327L154.276 113.694C153.907 114.83 153.683 115.506 153.455 115.995C153.256 116.423 153.126 116.541 153.028 116.612L154.232 118.27L155.437 119.928C156.27 119.322 156.782 118.558 157.169 117.727C157.528 116.958 157.835 116.002 158.173 114.96L156.225 114.327ZM149.867 118.946V120.996C150.962 120.996 151.967 120.999 152.809 120.896C153.718 120.784 154.604 120.533 155.437 119.928L154.232 118.27L153.028 116.612C152.93 116.683 152.777 116.771 152.309 116.828C151.774 116.894 151.061 116.897 149.867 116.897V118.946ZM151.195 78.4196V80.4687C155.192 80.4687 157.979 80.4731 159.99 80.7414C162.001 81.0097 162.693 81.4814 163.033 81.9495L164.691 80.7451L166.349 79.5407C164.999 77.6833 162.879 76.9923 160.532 76.6792C158.185 76.3661 155.069 76.3705 151.195 76.3705V78.4196ZM162.732 94.2989L164.681 94.9321C165.878 91.2476 166.845 88.2855 167.273 85.9569C167.7 83.628 167.698 81.398 166.349 79.5407L164.691 80.7451L163.033 81.9495C163.373 82.4177 163.608 83.2218 163.242 85.217C162.876 87.2125 162.018 89.8646 160.783 93.6657L162.732 94.2989ZM136.509 78.4196V76.3705C134.412 76.3705 132.656 76.367 131.212 76.5444C129.699 76.73 128.36 77.129 127.119 78.0303L128.324 79.6881L129.528 81.3458C130.034 80.9787 130.64 80.7435 131.711 80.612C132.849 80.4723 134.313 80.4687 136.509 80.4687V78.4196ZM124.588 87.0811L126.537 87.7143C127.216 85.6256 127.671 84.2345 128.156 83.195C128.612 82.2173 129.023 81.713 129.528 81.3458L128.324 79.6881L127.119 78.0303C125.879 78.9316 125.085 80.0823 124.442 81.4631C123.826 82.7824 123.287 84.4535 122.639 86.4478L124.588 87.0811ZM121.078 114.312L119.358 115.426C119.598 115.797 119.659 116.134 119.65 116.322C119.641 116.514 119.588 116.385 119.787 116.256L120.901 117.975L122.015 119.695C123.206 118.924 123.689 117.653 123.743 116.519C123.798 115.382 123.451 114.208 122.797 113.198L121.078 114.312ZM120.901 117.975L119.787 116.256C119.986 116.127 120.083 116.228 119.904 116.158C119.728 116.089 119.446 115.896 119.206 115.525L117.486 116.639L115.766 117.753C116.42 118.763 117.35 119.559 118.41 119.974C119.467 120.388 120.824 120.467 122.015 119.695L120.901 117.975ZM117.486 116.639L119.206 115.525C118.965 115.154 118.905 114.818 118.914 114.629C118.923 114.437 118.976 114.567 118.777 114.696L117.662 112.976L116.548 111.256C115.357 112.028 114.875 113.299 114.82 114.432C114.765 115.569 115.112 116.743 115.766 117.753L117.486 116.639ZM117.662 112.976L118.777 114.696C118.577 114.825 118.481 114.723 118.66 114.794C118.836 114.862 119.118 115.055 119.358 115.426L121.078 114.312L122.797 113.198C122.143 112.189 121.214 111.392 120.153 110.977C119.097 110.564 117.739 110.485 116.548 111.256L117.662 112.976ZM116.91 113.092L116.688 115.129L139.626 117.632L139.849 115.595L140.071 113.558L117.132 111.055L116.91 113.092ZM139.849 115.595L139.696 113.552L117.708 115.194L117.861 117.237L118.013 119.281L140.001 117.639L139.849 115.595ZM117.861 117.237L119.858 116.779L118.907 112.634L116.91 113.092L114.913 113.55L115.863 117.695L117.861 117.237ZM116.91 113.092L116.684 111.055C115.777 111.156 115.279 111.776 115.182 111.896C115.001 112.118 114.88 112.343 114.805 112.508L116.673 113.35L118.542 114.192C118.511 114.259 118.46 114.36 118.362 114.481C118.311 114.543 118.209 114.659 118.047 114.778C117.891 114.891 117.581 115.079 117.136 115.129L116.91 113.092ZM116.673 113.35L114.806 112.507C114.678 112.79 114.591 113.037 114.522 113.459L116.545 113.79L118.567 114.121C118.578 114.053 118.577 114.078 118.558 114.138C118.549 114.169 118.539 114.195 118.533 114.211C118.53 114.218 118.529 114.22 118.53 114.217C118.532 114.214 118.535 114.207 118.541 114.193L116.673 113.35ZM116.545 113.79L114.499 113.679C114.478 114.064 114.5 114.464 114.55 114.849L116.582 114.588L118.615 114.327C118.589 114.129 118.586 113.985 118.591 113.902L116.545 113.79ZM116.582 114.588L114.55 114.849C114.6 115.239 114.68 115.637 114.785 116.021L116.762 115.482L118.739 114.942C118.682 114.732 118.639 114.521 118.615 114.327L116.582 114.588ZM116.762 115.482L114.785 116.021C114.89 116.404 115.021 116.785 115.178 117.139L117.052 116.31L118.926 115.482C118.863 115.338 118.796 115.153 118.739 114.942L116.762 115.482ZM117.052 116.31L115.178 117.139C115.33 117.483 115.525 117.846 115.771 118.168L117.4 116.925L119.029 115.682C119.037 115.692 119.028 115.682 119.006 115.643C118.985 115.606 118.958 115.553 118.926 115.482L117.052 116.31ZM117.4 116.925L115.771 118.168C115.977 118.438 116.405 118.931 117.097 119.161L117.744 117.217L118.391 115.272C118.655 115.36 118.825 115.488 118.901 115.553C118.983 115.623 119.024 115.675 119.029 115.682L117.4 116.925ZM117.744 117.217L117.097 119.161C117.491 119.292 117.98 119.338 118.492 119.182C118.996 119.029 119.359 118.729 119.599 118.44L118.022 117.132L116.444 115.824C116.608 115.627 116.886 115.387 117.297 115.262C117.716 115.134 118.104 115.177 118.391 115.272L117.744 117.217ZM118.022 117.132L119.973 116.506L119.327 114.494L117.376 115.12L115.425 115.746L116.071 117.758L118.022 117.132ZM117.376 115.12L119.373 114.661L118.907 112.633L116.91 113.092L114.913 113.551L115.379 115.579L117.376 115.12ZM135.447 70.375V72.4241H146.782V70.375V68.3259H135.447V70.375ZM160.836 89.7188L158.887 89.0856L156.019 97.9133L157.967 98.5465L159.916 99.1797L162.785 90.352L160.836 89.7188ZM139.291 112.116V110.067H125.527V112.116V114.165H139.291V112.116ZM116.717 99.9901L118.666 100.623L125.474 79.6696L123.526 79.0364L121.577 78.4032L114.768 99.3569L116.717 99.9901ZM125.527 112.116V110.067C122.461 110.067 120.371 110.063 118.875 109.863C117.38 109.663 117.02 109.329 116.879 109.136L115.221 110.34L113.564 111.545C114.713 113.127 116.501 113.681 118.333 113.925C120.165 114.17 122.583 114.165 125.527 114.165V112.116ZM116.717 99.9901L114.768 99.3569C113.859 102.157 113.107 104.455 112.774 106.273C112.44 108.091 112.414 109.962 113.564 111.545L115.221 110.34L116.879 109.136C116.739 108.943 116.532 108.497 116.804 107.013C117.077 105.528 117.718 103.54 118.666 100.623L116.717 99.9901ZM157.967 98.5465L156.019 97.9133C154.964 101.159 154.226 103.418 153.43 105.125C152.663 106.771 151.91 107.745 150.91 108.471L152.115 110.129L153.319 111.787C155.054 110.526 156.189 108.906 157.144 106.857C158.071 104.87 158.892 102.331 159.916 99.1797L157.967 98.5465ZM139.291 112.116V114.165C142.604 114.165 145.272 114.169 147.449 113.902C149.693 113.626 151.584 113.047 153.319 111.787L152.115 110.129L150.91 108.471C149.91 109.198 148.752 109.613 146.949 109.834C145.079 110.063 142.703 110.067 139.291 110.067V112.116ZM146.782 70.375V72.4241C151.637 72.4241 155.068 72.4285 157.555 72.7602C160.041 73.0919 161.04 73.6905 161.564 74.4123L163.222 73.2078L164.88 72.0034C163.346 69.8924 160.919 69.0745 158.096 68.698C155.274 68.3215 151.514 68.3259 146.782 68.3259V70.375ZM160.836 89.7188L162.785 90.352C164.247 85.8509 165.413 82.2764 165.927 79.476C166.441 76.6754 166.413 74.1144 164.88 72.0034L163.222 73.2078L161.564 74.4123C162.089 75.1341 162.349 76.2692 161.896 78.7362C161.443 81.2034 160.387 84.4679 158.887 89.0856L160.836 89.7188ZM135.447 70.375V68.3259C133.35 68.3259 131.594 68.3224 130.149 68.4997C128.637 68.6854 127.297 69.0844 126.057 69.9857L127.261 71.6434L128.466 73.3012C128.971 72.934 129.578 72.6988 130.649 72.5674C131.787 72.4276 133.251 72.4241 135.447 72.4241V70.375ZM123.526 79.0364L125.474 79.6696C126.153 77.5809 126.609 76.1898 127.093 75.1504C127.549 74.1726 127.96 73.6684 128.466 73.3012L127.261 71.6434L126.057 69.9857C124.816 70.8869 124.023 72.0376 123.379 73.4185C122.764 74.7377 122.225 76.4089 121.577 78.4032L123.526 79.0364ZM116.17 115.641L118.075 116.396C118.183 116.124 118.248 115.832 118.278 115.702C118.321 115.518 118.349 115.39 118.389 115.249C118.464 114.981 118.545 114.804 118.644 114.673C118.735 114.553 119.178 113.98 121.224 114.084L121.328 112.038L121.433 109.991C118.517 109.843 116.544 110.66 115.378 112.198C114.848 112.897 114.59 113.617 114.443 114.141C114.372 114.396 114.318 114.638 114.286 114.777C114.241 114.969 114.239 114.952 114.265 114.887L116.17 115.641ZM121.328 112.038L121.224 114.084C121.628 114.105 122.391 114.106 123.081 113.668C123.49 113.408 123.855 113.003 124.043 112.457C124.221 111.943 124.184 111.472 124.112 111.143C123.981 110.545 123.656 110.068 123.447 109.791C123.204 109.469 122.913 109.156 122.621 108.868C121.476 107.742 119.729 106.443 118.513 105.608L117.353 107.297L116.194 108.987C117.358 109.786 118.865 110.922 119.746 111.789C119.96 112 120.099 112.158 120.176 112.26C120.287 112.408 120.172 112.307 120.109 112.019C120.071 111.846 120.033 111.514 120.169 111.12C120.316 110.693 120.6 110.389 120.884 110.209C121.324 109.929 121.662 110.003 121.433 109.991L121.328 112.038ZM117.353 107.297C115.338 106.923 115.338 106.923 115.338 106.923C115.338 106.923 115.338 106.923 115.338 106.924C115.338 106.924 115.338 106.924 115.338 106.924C115.338 106.924 115.338 106.925 115.338 106.926C115.338 106.928 115.337 106.93 115.337 106.933C115.335 106.939 115.334 106.949 115.332 106.961C115.327 106.985 115.321 107.02 115.312 107.064C115.296 107.154 115.272 107.282 115.244 107.439C115.187 107.753 115.109 108.182 115.029 108.641C114.875 109.52 114.689 110.623 114.633 111.172L116.671 111.381L118.71 111.589C118.748 111.219 118.903 110.28 119.066 109.348C119.144 108.9 119.22 108.481 119.276 108.173C119.304 108.019 119.327 107.893 119.343 107.806C119.351 107.762 119.357 107.729 119.361 107.706C119.364 107.694 119.365 107.686 119.366 107.68C119.367 107.677 119.367 107.675 119.367 107.673C119.368 107.673 119.368 107.672 119.368 107.672C119.368 107.672 119.368 107.672 119.368 107.672C119.368 107.672 119.368 107.672 119.368 107.672C119.368 107.672 119.368 107.672 117.353 107.297ZM116.671 111.381L114.633 111.172C114.588 111.61 114.465 112.656 114.351 113.613C114.294 114.086 114.241 114.532 114.201 114.859C114.181 115.022 114.165 115.156 114.154 115.249C114.148 115.295 114.144 115.331 114.141 115.356C114.139 115.368 114.138 115.378 114.137 115.384C114.137 115.387 114.137 115.389 114.136 115.391C114.136 115.392 114.136 115.392 114.136 115.393C114.136 115.393 114.136 115.393 114.136 115.393C114.136 115.393 114.136 115.393 114.136 115.393C114.136 115.393 114.136 115.393 116.17 115.641C118.204 115.889 118.204 115.889 118.204 115.889C118.204 115.889 118.204 115.889 118.204 115.889C118.204 115.889 118.204 115.888 118.204 115.888C118.204 115.888 118.204 115.887 118.205 115.886C118.205 115.885 118.205 115.882 118.205 115.879C118.206 115.873 118.207 115.863 118.209 115.851C118.212 115.826 118.216 115.79 118.222 115.743C118.233 115.649 118.25 115.515 118.27 115.351C118.309 115.023 118.363 114.575 118.42 114.099C118.533 113.155 118.661 112.07 118.71 111.589L116.671 111.381ZM135.345 70.375V72.4241H150.675V70.375V68.3259H135.345V70.375ZM160.534 83.9445L158.585 83.3113L154.728 95.1812L156.677 95.8144L158.626 96.4476L162.483 84.5777L160.534 83.9445ZM138 109.384V107.335H121.152V109.384V111.433H138V109.384ZM115.908 102.166L117.857 102.799L125.372 79.6696L123.423 79.0364L121.475 78.4032L113.959 101.533L115.908 102.166ZM121.152 109.384V107.335C119.302 107.335 118.125 107.33 117.302 107.221C116.48 107.111 116.555 106.956 116.675 107.122L115.018 108.327L113.36 109.531C114.249 110.754 115.602 111.128 116.76 111.283C117.919 111.437 119.425 111.433 121.152 111.433V109.384ZM115.908 102.166L113.959 101.533C113.425 103.176 112.956 104.607 112.745 105.756C112.534 106.906 112.471 108.308 113.36 109.531L115.018 108.327L116.675 107.122C116.796 107.289 116.626 107.312 116.776 106.496C116.926 105.68 117.285 104.559 117.857 102.799L115.908 102.166ZM156.677 95.8144L154.728 95.1812C153.674 98.4267 152.936 100.685 152.14 102.393C151.372 104.039 150.62 105.012 149.62 105.739L150.824 107.397L152.029 109.054C153.764 107.794 154.899 106.174 155.854 104.125C156.781 102.138 157.602 99.5988 158.626 96.4476L156.677 95.8144ZM138 109.384V111.433C141.314 111.433 143.982 111.437 146.159 111.169C148.403 110.894 150.294 110.315 152.029 109.054L150.824 107.397L149.62 105.739C148.62 106.466 147.462 106.88 145.659 107.102C143.789 107.331 141.413 107.335 138 107.335V109.384ZM150.675 70.375V72.4241C154.099 72.4241 156.457 72.4285 158.151 72.6545C159.845 72.8805 160.333 73.2676 160.55 73.5666L162.208 72.3622L163.866 71.1578C162.639 69.4696 160.723 68.8631 158.693 68.5923C156.663 68.3215 153.977 68.3259 150.675 68.3259V70.375ZM160.534 83.9445L162.483 84.5777C163.503 81.4377 164.337 78.8839 164.707 76.8697C165.077 74.8553 165.092 72.846 163.866 71.1578L162.208 72.3622L160.55 73.5666C160.767 73.8657 160.985 74.4492 160.676 76.1299C160.368 77.8109 159.643 80.0547 158.585 83.3113L160.534 83.9445ZM135.345 70.375V68.3259C133.248 68.3259 131.492 68.3224 130.047 68.4997C128.535 68.6854 127.195 69.0844 125.955 69.9857L127.159 71.6434L128.364 73.3012C128.869 72.934 129.476 72.6988 130.546 72.5674C131.685 72.4276 133.149 72.4241 135.345 72.4241V70.375ZM123.423 79.0364L125.372 79.6696C126.051 77.5809 126.507 76.1898 126.991 75.1504C127.447 74.1726 127.858 73.6684 128.364 73.3012L127.159 71.6434L125.955 69.9857C124.714 70.8869 123.921 72.0376 123.277 73.4185C122.662 74.7377 122.123 76.4089 121.475 78.4032L123.423 79.0364ZM113.742 112.875L115.499 113.929C115.7 113.595 115.806 113.236 115.841 113.126C115.899 112.943 115.923 112.865 115.959 112.774C116.009 112.65 116.066 112.547 116.216 112.423C116.589 112.114 117.859 111.433 121.71 111.433V109.384V107.335C117.593 107.335 115.106 108.02 113.601 109.267C112.812 109.921 112.399 110.643 112.157 111.245C112.048 111.516 111.97 111.776 111.935 111.888C111.876 112.073 111.898 111.966 111.984 111.821L113.742 112.875ZM121.71 109.384V111.433C122.24 111.433 122.923 111.401 123.51 111.167C123.807 111.048 124.403 110.751 124.759 110.058C125.169 109.259 124.988 108.492 124.771 108.043C124.575 107.64 124.301 107.359 124.131 107.202C123.939 107.026 123.734 106.874 123.545 106.747C123.168 106.494 122.718 106.246 122.256 106.015C120.426 105.098 117.614 104.037 115.626 103.349L114.956 105.286L114.286 107.222C116.244 107.9 118.843 108.889 120.42 109.679C120.811 109.875 121.087 110.033 121.258 110.148C121.343 110.205 121.366 110.228 121.352 110.215C121.343 110.207 121.311 110.176 121.267 110.123C121.226 110.072 121.152 109.974 121.081 109.828C120.931 109.518 120.759 108.876 121.113 108.187C121.412 107.605 121.887 107.402 121.989 107.361C122.19 107.281 122.198 107.335 121.71 107.335V109.384ZM114.956 105.286C112.962 104.813 112.962 104.814 112.962 104.814C112.962 104.814 112.962 104.814 112.962 104.814C112.962 104.814 112.962 104.814 112.962 104.814C112.962 104.815 112.961 104.815 112.961 104.816C112.961 104.818 112.96 104.82 112.96 104.823C112.958 104.829 112.956 104.838 112.954 104.849C112.948 104.871 112.941 104.903 112.931 104.945C112.912 105.027 112.884 105.145 112.851 105.29C112.785 105.578 112.695 105.973 112.603 106.395C112.433 107.173 112.208 108.246 112.156 108.819L114.197 109.004L116.238 109.19C116.261 108.929 116.416 108.142 116.607 107.269C116.695 106.866 116.781 106.487 116.845 106.209C116.877 106.07 116.903 105.956 116.922 105.878C116.931 105.839 116.938 105.808 116.943 105.788C116.945 105.778 116.947 105.77 116.948 105.765C116.949 105.762 116.949 105.761 116.949 105.759C116.95 105.759 116.95 105.758 116.95 105.758C116.95 105.758 116.95 105.758 116.95 105.758C116.95 105.758 116.95 105.758 116.95 105.758C116.95 105.758 116.95 105.758 114.956 105.286ZM114.197 109.004L112.156 108.819C112.122 109.199 112.012 110.132 111.907 111.007C111.855 111.436 111.805 111.84 111.768 112.136C111.75 112.285 111.735 112.406 111.725 112.49C111.719 112.532 111.715 112.565 111.713 112.587C111.711 112.598 111.71 112.607 111.709 112.612C111.709 112.615 111.709 112.617 111.709 112.619C111.708 112.619 111.708 112.62 111.708 112.62C111.708 112.621 111.708 112.621 111.708 112.621C111.708 112.621 111.708 112.621 111.708 112.621C111.708 112.621 111.708 112.621 113.742 112.875C115.775 113.129 115.775 113.129 115.775 113.129C115.775 113.129 115.775 113.129 115.775 113.129C115.775 113.129 115.775 113.129 115.775 113.129C115.775 113.128 115.775 113.128 115.775 113.127C115.775 113.125 115.776 113.123 115.776 113.12C115.777 113.114 115.778 113.106 115.779 113.094C115.782 113.072 115.786 113.038 115.791 112.996C115.802 112.911 115.817 112.788 115.836 112.639C115.873 112.34 115.923 111.933 115.975 111.499C116.078 110.647 116.196 109.645 116.238 109.19L114.197 109.004ZM118.143 110.902L120.066 111.611L133.423 75.4102L131.501 74.7009L129.578 73.9916L116.221 110.192L118.143 110.902ZM131.501 74.7009L129.52 74.1742L120.034 109.844L122.014 110.371L123.994 110.897L133.481 75.2276L131.501 74.7009ZM122.014 110.371L121.735 108.34L117.865 108.872L118.143 110.902L118.422 112.932L122.293 112.401L122.014 110.371Z" fill="url(#paint6_linear_120_2015)"/>
</g>
<path d="M120.278 88.4471C121.604 84.364 122.268 82.3225 124.013 81.0541C125.759 79.7856 127.906 79.7856 132.199 79.7856H148.217C158.664 79.7856 163.887 79.7856 166.13 82.8722C168.372 85.9587 166.758 90.9264 163.53 100.862L159.043 114.672C157.76 118.619 157.119 120.592 155.431 121.818C153.744 123.045 151.669 123.045 147.519 123.045H141.518C126.206 123.045 118.55 123.045 115.263 118.52C111.976 113.996 114.342 106.715 119.074 92.1522L120.278 88.4471Z" fill="#870000"/>
<mask id="mask0_120_2015" style="mask-type:alpha" maskUnits="userSpaceOnUse" x="113" y="79" width="55" height="45">
<path d="M120.278 88.4471C121.604 84.364 122.268 82.3225 124.013 81.0541C125.759 79.7856 127.906 79.7856 132.199 79.7856H148.217C158.664 79.7856 163.887 79.7856 166.13 82.8722C168.372 85.9587 166.758 90.9264 163.53 100.862L159.043 114.672C157.76 118.619 157.119 120.592 155.431 121.818C153.744 123.045 151.669 123.045 147.519 123.045H141.518C126.206 123.045 118.55 123.045 115.263 118.52C111.976 113.996 114.342 106.715 119.074 92.1522L120.278 88.4471Z" fill="#B81219"/>
</mask>
<g mask="url(#mask0_120_2015)">
<rect width="39.6161" height="67.3929" transform="matrix(1 0 0.309017 0.951057 137.724 67.9465)" fill="#B81219"/>
</g>
<path d="M124.588 87.0811C125.915 82.9981 126.578 80.9565 128.324 79.6881C130.07 78.4197 132.216 78.4197 136.509 78.4197H151.195C159.066 78.4197 163.001 78.4197 164.691 80.7451C166.381 83.0706 165.164 86.8134 162.732 94.2989L156.225 114.327C155.517 116.505 155.163 117.593 154.232 118.27C153.301 118.946 152.156 118.946 149.867 118.946H130.324C122.739 118.946 118.947 118.946 117.319 116.706C115.691 114.465 116.862 110.858 119.206 103.645L124.588 87.0811Z" fill="url(#paint7_linear_120_2015)"/>
<mask id="mask1_120_2015" style="mask-type:alpha" maskUnits="userSpaceOnUse" x="116" y="78" width="50" height="41">
<path d="M124.588 87.0811C125.915 82.9981 126.578 80.9565 128.324 79.6881C130.07 78.4197 132.216 78.4197 136.509 78.4197H151.195C159.066 78.4197 163.001 78.4197 164.691 80.7451C166.381 83.0706 165.164 86.8134 162.732 94.2989L156.225 114.327C155.517 116.505 155.163 117.593 154.232 118.27C153.301 118.946 152.156 118.946 149.867 118.946H130.324C122.739 118.946 118.947 118.946 117.319 116.706C115.691 114.465 116.862 110.858 119.206 103.645L124.588 87.0811Z" fill="#E0B05D"/>
</mask>
<g mask="url(#mask1_120_2015)">
<ellipse cx="164.128" cy="94.2145" rx="13.6793" ry="26.3348" transform="rotate(23.5588 164.128 94.2145)" fill="url(#paint8_linear_120_2015)"/>
</g>
<ellipse cx="119.282" cy="115.476" rx="2.13977" ry="2.9784" transform="rotate(-32.934 119.282 115.476)" fill="#C68643"/>
<mask id="mask2_120_2015" style="mask-type:alpha" maskUnits="userSpaceOnUse" x="116" y="78" width="50" height="41">
<path d="M124.588 87.0811C125.915 82.9981 126.578 80.9565 128.324 79.6881C130.07 78.4197 132.216 78.4197 136.509 78.4197H151.195C159.066 78.4197 163.001 78.4197 164.691 80.7451C166.381 83.0706 165.164 86.8134 162.732 94.2989L156.225 114.327C155.517 116.505 155.163 117.593 154.232 118.27C153.301 118.946 152.156 118.946 149.867 118.946H130.324C122.739 118.946 118.947 118.946 117.319 116.706C115.691 114.465 116.862 110.858 119.206 103.645L124.588 87.0811Z" fill="#E0B05D"/>
</mask>
<g mask="url(#mask2_120_2015)">
<path d="M117.356 79.7954C118.683 75.7124 119.346 73.6709 121.092 72.4025C122.838 71.134 124.984 71.134 129.277 71.134H147.574C157.162 71.134 161.956 71.134 164.014 73.9669C166.072 76.7997 164.591 81.3591 161.628 90.4778L158.76 99.3056C156.681 105.702 155.642 108.901 152.907 110.888C150.172 112.875 146.809 112.875 140.083 112.875H119.358C113.347 112.875 110.342 112.875 109.052 111.099C107.762 109.323 108.69 106.465 110.548 100.749L117.356 79.7954Z" fill="url(#paint9_linear_120_2015)"/>
</g>
<path d="M139.849 115.595L116.91 113.092L117.861 117.237L139.849 115.595Z" fill="#BF7B3D"/>
<path d="M116.91 113.092C116.812 113.103 116.718 113.252 116.673 113.35C116.613 113.485 116.582 113.561 116.545 113.79C116.532 114.024 116.545 114.296 116.582 114.588C116.62 114.88 116.681 115.185 116.762 115.482C116.843 115.779 116.942 116.061 117.052 116.31C117.162 116.559 117.281 116.769 117.4 116.925C117.519 117.082 117.637 117.181 117.744 117.217C117.851 117.252 117.946 117.223 118.022 117.132L117.376 115.12L116.91 113.092Z" fill="#BF7B3D"/>
<path d="M123.526 79.0364C124.852 74.9534 125.516 72.9119 127.261 71.6434C129.007 70.375 131.154 70.375 135.447 70.375H146.782C156.37 70.375 161.164 70.375 163.222 73.2078C165.28 76.0407 163.799 80.6001 160.836 89.7188L157.968 98.5465C155.889 104.943 154.85 108.142 152.115 110.129C149.38 112.116 146.017 112.116 139.291 112.116H125.527C119.517 112.116 116.512 112.116 115.222 110.34C113.931 108.564 114.86 105.706 116.717 99.9901L123.526 79.0364Z" fill="url(#paint10_linear_120_2015)"/>
<mask id="mask3_120_2015" style="mask-type:alpha" maskUnits="userSpaceOnUse" x="114" y="70" width="51" height="43">
<path d="M123.525 79.0364C124.852 74.9534 125.515 72.9119 127.261 71.6434C129.007 70.375 131.154 70.375 135.447 70.375H146.782C156.37 70.375 161.164 70.375 163.222 73.2078C165.28 76.0407 163.799 80.6001 160.836 89.7188L157.967 98.5465C155.889 104.943 154.85 108.142 152.115 110.129C149.379 112.116 146.016 112.116 139.291 112.116H125.527C119.517 112.116 116.512 112.116 115.221 110.34C113.931 108.564 114.86 105.706 116.717 99.9901L123.525 79.0364Z" fill="url(#paint11_linear_120_2015)"/>
</mask>
<g mask="url(#mask3_120_2015)">
<path d="M135.371 114.848L134.688 109.536L155.559 98.8347L157.456 101.567C157.026 105.286 156.166 112.845 156.166 113.33C156.166 113.816 142.303 114.545 135.371 114.848Z" fill="url(#paint12_linear_120_2015)"/>
<path d="M161.478 88.4374L160.643 83.3526C159.884 81.7336 158.367 78.4044 158.367 78.0401C158.367 77.5848 153.054 69.3883 152.902 68.6294C152.781 68.0223 156.495 67.3139 158.367 67.0356C160.795 68.7053 165.728 72.1053 166.032 72.3481C166.335 72.591 163.123 83.1755 161.478 88.4374Z" fill="url(#paint13_linear_120_2015)"/>
</g>
<path d="M121.328 112.038C116.366 111.785 116.496 114.817 116.17 115.641C116.17 115.641 116.577 112.3 116.671 111.381C116.766 110.461 117.353 107.298 117.353 107.298C119.734 108.931 123.861 112.167 121.328 112.038Z" fill="#870000"/>
<g filter="url(#filter2_i_120_2015)">
<path d="M123.423 79.0364C124.75 74.9534 125.413 72.9119 127.159 71.6434C128.905 70.375 131.052 70.375 135.345 70.375H150.675C157.401 70.375 160.764 70.375 162.208 72.3622C163.652 74.3494 162.612 77.5478 160.534 83.9445L156.677 95.8144C154.599 102.211 153.56 105.41 150.824 107.397C148.089 109.384 144.726 109.384 138 109.384H121.152C117.574 109.384 115.786 109.384 115.018 108.327C114.25 107.27 114.802 105.569 115.908 102.166L123.423 79.0364Z" fill="url(#paint14_linear_120_2015)"/>
<path d="M121.71 109.384C113.742 109.384 114.197 112.116 113.742 112.875C113.742 112.875 114.121 109.839 114.197 109.004C114.273 108.17 114.956 105.286 114.956 105.286C118.902 106.652 125.778 109.384 121.71 109.384Z" fill="url(#paint15_linear_120_2015)"/>
</g>
<mask id="mask4_120_2015" style="mask-type:alpha" maskUnits="userSpaceOnUse" x="113" y="70" width="50" height="43">
<path d="M123.423 79.0364C124.75 74.9534 125.413 72.9119 127.159 71.6434C128.905 70.375 131.051 70.375 135.345 70.375H150.675C157.401 70.375 160.764 70.375 162.208 72.3622C163.651 74.3494 162.612 77.5478 160.534 83.9445L156.677 95.8144C154.599 102.211 153.559 105.41 150.824 107.397C148.089 109.384 144.726 109.384 138 109.384H121.152C117.574 109.384 115.786 109.384 115.018 108.327C114.25 107.27 114.802 105.569 115.908 102.166L123.423 79.0364Z" fill="url(#paint16_linear_120_2015)"/>
<path d="M121.71 109.384C113.741 109.384 114.197 112.116 113.741 112.875C113.741 112.875 114.121 109.839 114.197 109.004C114.273 108.17 114.956 105.286 114.956 105.286C118.902 106.652 125.778 109.384 121.71 109.384Z" fill="url(#paint17_linear_120_2015)"/>
</mask>
<g mask="url(#mask4_120_2015)">
<path d="M134.233 66.5803C129.502 80.7975 120.041 109.414 120.041 110.143L115.183 114.393L106.076 119.022L116.55 61.1919L134.233 66.5803Z" fill="url(#paint18_linear_120_2015)"/>
</g>
<mask id="mask5_120_2015" style="mask-type:alpha" maskUnits="userSpaceOnUse" x="113" y="70" width="50" height="43">
<path d="M123.423 79.0364C124.75 74.9534 125.413 72.9119 127.159 71.6434C128.905 70.375 131.052 70.375 135.345 70.375H150.675C157.401 70.375 160.764 70.375 162.208 72.3622C163.652 74.3494 162.612 77.5478 160.534 83.9445L156.677 95.8144C154.599 102.211 153.56 105.41 150.824 107.397C148.089 109.384 144.726 109.384 138 109.384H121.152C117.574 109.384 115.786 109.384 115.018 108.327C114.25 107.27 114.802 105.569 115.908 102.166L123.423 79.0364Z" fill="url(#paint19_linear_120_2015)"/>
<path d="M121.71 109.384C113.742 109.384 114.197 112.116 113.742 112.875C113.742 112.875 114.121 109.839 114.197 109.004C114.273 108.17 114.956 105.286 114.956 105.286C118.902 106.652 125.778 109.384 121.71 109.384Z" fill="url(#paint20_linear_120_2015)"/>
</mask>
<g mask="url(#mask5_120_2015)">
<ellipse cx="143.492" cy="77.433" rx="26.8661" ry="11.4598" fill="url(#paint21_linear_120_2015)" fill-opacity="0.6"/>
</g>
<g filter="url(#filter3_i_120_2015)">
<mask id="mask6_120_2015" style="mask-type:alpha" maskUnits="userSpaceOnUse" x="113" y="70" width="50" height="43">
<path d="M123.423 79.0364C124.75 74.9534 125.413 72.9119 127.159 71.6434C128.905 70.375 131.052 70.375 135.345 70.375H150.675C157.401 70.375 160.764 70.375 162.208 72.3622C163.652 74.3494 162.612 77.5478 160.534 83.9445L156.677 95.8144C154.599 102.211 153.56 105.41 150.824 107.397C148.089 109.384 144.726 109.384 138 109.384H121.152C117.574 109.384 115.786 109.384 115.018 108.327C114.25 107.27 114.802 105.569 115.908 102.166L123.423 79.0364Z" fill="url(#paint22_linear_120_2015)"/>
<path d="M121.71 109.384C113.742 109.384 114.197 112.116 113.742 112.875C113.742 112.875 114.121 109.839 114.197 109.004C114.273 108.17 114.956 105.286 114.956 105.286C118.902 106.652 125.778 109.384 121.71 109.384Z" fill="url(#paint23_linear_120_2015)"/>
</mask>
<g mask="url(#mask6_120_2015)">
<path d="M163.603 86.3424L147.362 69.4792L168.081 68.0981L163.603 86.3424Z" fill="url(#paint24_linear_120_2015)"/>
<path d="M134.84 109.384L157.076 98.1175L155.938 109.384H134.84Z" fill="url(#paint25_linear_120_2015)"/>
</g>
</g>
<path d="M131.5 74.7009L118.143 110.902L122.014 110.371L131.5 74.7009Z" fill="url(#paint26_linear_120_2015)"/>
<path d="M192.96 105L199.978 89.49H202.288L209.306 105H206.446L204.576 100.644L205.764 101.414H196.48L197.668 100.644L195.82 105H192.96ZM201.1 92.548L198.02 99.874L197.448 99.17H204.796L204.246 99.874L201.144 92.548H201.1ZM215.606 105.22C214.33 105.22 213.384 104.875 212.768 104.186C212.167 103.482 211.866 102.455 211.866 101.106V89.49H214.616V100.974C214.616 101.399 214.675 101.766 214.792 102.074C214.924 102.367 215.115 102.587 215.364 102.734C215.614 102.881 215.922 102.954 216.288 102.954C216.45 102.954 216.611 102.947 216.772 102.932C216.934 102.917 217.088 102.888 217.234 102.844L217.19 105.022C216.926 105.081 216.662 105.125 216.398 105.154C216.149 105.198 215.885 105.22 215.606 105.22ZM226.223 105.22C225.313 105.22 224.514 104.993 223.825 104.538C223.15 104.083 222.703 103.475 222.483 102.712H222.703V105H220.019V89.49H222.769V96.42H222.505C222.739 95.7013 223.194 95.122 223.869 94.682C224.543 94.242 225.328 94.022 226.223 94.022C227.176 94.022 228.005 94.2493 228.709 94.704C229.413 95.1587 229.963 95.804 230.359 96.64C230.755 97.4613 230.953 98.4513 230.953 99.61C230.953 100.754 230.755 101.751 230.359 102.602C229.963 103.438 229.405 104.083 228.687 104.538C227.983 104.993 227.161 105.22 226.223 105.22ZM225.453 103.13C226.274 103.13 226.934 102.837 227.433 102.25C227.931 101.649 228.181 100.769 228.181 99.61C228.181 98.4367 227.931 97.564 227.433 96.992C226.934 96.4053 226.274 96.112 225.453 96.112C224.631 96.112 223.971 96.4053 223.473 96.992C222.974 97.564 222.725 98.4367 222.725 99.61C222.725 100.769 222.974 101.649 223.473 102.25C223.971 102.837 224.631 103.13 225.453 103.13ZM238.231 105.22C237.337 105.22 236.596 105.059 236.009 104.736C235.423 104.399 234.983 103.9 234.689 103.24C234.411 102.58 234.271 101.759 234.271 100.776V94.242H237.021V100.82C237.021 101.319 237.087 101.737 237.219 102.074C237.366 102.411 237.579 102.661 237.857 102.822C238.151 102.983 238.517 103.064 238.957 103.064C239.456 103.064 239.889 102.954 240.255 102.734C240.637 102.499 240.93 102.177 241.135 101.766C241.355 101.341 241.465 100.849 241.465 100.292V94.242H244.215V105H241.531V102.756H241.839C241.531 103.548 241.062 104.157 240.431 104.582C239.815 105.007 239.082 105.22 238.231 105.22ZM248.249 105V94.242H250.933V96.398H250.691C250.881 95.8993 251.145 95.474 251.483 95.122C251.82 94.77 252.223 94.4987 252.693 94.308C253.162 94.1173 253.683 94.022 254.255 94.022C255.12 94.022 255.831 94.2273 256.389 94.638C256.946 95.0487 257.335 95.6793 257.555 96.53H257.247C257.54 95.7527 258.024 95.144 258.699 94.704C259.373 94.2493 260.151 94.022 261.031 94.022C261.852 94.022 262.527 94.1833 263.055 94.506C263.597 94.8287 264.001 95.32 264.265 95.98C264.529 96.6253 264.661 97.4467 264.661 98.444V105H261.911V98.554C261.911 97.7327 261.771 97.1313 261.493 96.75C261.229 96.3687 260.774 96.178 260.129 96.178C259.659 96.178 259.249 96.2953 258.897 96.53C258.545 96.75 258.273 97.0727 258.083 97.498C257.907 97.9233 257.819 98.4367 257.819 99.038V105H255.069V98.554C255.069 97.7327 254.929 97.1313 254.651 96.75C254.387 96.3687 253.939 96.178 253.309 96.178C252.825 96.178 252.407 96.2953 252.055 96.53C251.717 96.75 251.453 97.0727 251.263 97.498C251.087 97.9233 250.999 98.4367 250.999 99.038V105H248.249Z" fill="#202224"/>
<mask id="mask7_120_2015" style="mask-type:alpha" maskUnits="userSpaceOnUse" x="54" y="54" width="60" height="88">
<path d="M55.8684 68.98C55.8684 61.8113 61.6798 56 68.8484 56H86.8859C100.683 56 111.868 67.185 111.868 80.9825V115.018C111.868 128.815 100.683 140 86.8859 140H68.8484C61.6798 140 55.8684 134.189 55.8684 127.02V68.98Z" fill="white" stroke="url(#paint27_linear_120_2015)" stroke-opacity="0.3" stroke-width="2.60316"/>
</mask>
<g mask="url(#mask7_120_2015)">
<rect x="53.8684" y="54.3848" width="28" height="87.2308" fill="#587ED7"/>
</g>
<defs>
<filter id="filter0_d_120_2015" x="0.462972" y="0.594686" width="430.337" height="208.337" filterUnits="userSpaceOnUse" color-interpolation-filters="sRGB">
<feFlood flood-opacity="0" result="BackgroundImageFix"/>
<feColorMatrix in="SourceAlpha" type="matrix" values="0 0 0 0 0 0 0 0 0 0 0 0 0 0 0 0 0 0 127 0" result="hardAlpha"/>
<feOffset dx="6.76297" dy="6.76297"/>
<feGaussianBlur stdDeviation="30.4334"/>
<feColorMatrix type="matrix" values="0 0 0 0 0 0 0 0 0 0 0 0 0 0 0 0 0 0 0.05 0"/>
<feBlend mode="normal" in2="BackgroundImageFix" result="effect1_dropShadow_120_2015"/>
<feBlend mode="normal" in="SourceGraphic" in2="effect1_dropShadow_120_2015" result="shape"/>
</filter>
<filter id="filter1_d_120_2015" x="111.688" y="68.3259" width="58.5948" height="58.8928" filterUnits="userSpaceOnUse" color-interpolation-filters="sRGB">
<feFlood flood-opacity="0" result="BackgroundImageFix"/>
<feColorMatrix in="SourceAlpha" type="matrix" values="0 0 0 0 0 0 0 0 0 0 0 0 0 0 0 0 0 0 127 0" result="hardAlpha"/>
<feOffset dx="1.0625" dy="2.125"/>
<feComposite in2="hardAlpha" operator="out"/>
<feColorMatrix type="matrix" values="0 0 0 0 0.2125 0 0 0 0 0 0 0 0 0 0 0 0 0 1 0"/>
<feBlend mode="normal" in2="BackgroundImageFix" result="effect1_dropShadow_120_2015"/>
<feBlend mode="normal" in="SourceGraphic" in2="effect1_dropShadow_120_2015" result="shape"/>
</filter>
<filter id="filter2_i_120_2015" x="113.742" y="70.375" width="49.1367" height="42.5" filterUnits="userSpaceOnUse" color-interpolation-filters="sRGB">
<feFlood flood-opacity="0" result="BackgroundImageFix"/>
<feBlend mode="normal" in="SourceGraphic" in2="BackgroundImageFix" result="shape"/>
<feColorMatrix in="SourceAlpha" type="matrix" values="0 0 0 0 0 0 0 0 0 0 0 0 0 0 0 0 0 0 127 0" result="hardAlpha"/>
<feOffset dx="-1.0625" dy="-1.21429"/>
<feComposite in2="hardAlpha" operator="arithmetic" k2="-1" k3="1"/>
<feColorMatrix type="matrix" values="0 0 0 0 1 0 0 0 0 0.281167 0 0 0 0 0.0541667 0 0 0 1 0"/>
<feBlend mode="normal" in2="shape" result="effect1_innerShadow_120_2015"/>
</filter>
<filter id="filter3_i_120_2015" x="134.84" y="70.375" width="28.0386" height="39.0088" filterUnits="userSpaceOnUse" color-interpolation-filters="sRGB">
<feFlood flood-opacity="0" result="BackgroundImageFix"/>
<feBlend mode="normal" in="SourceGraphic" in2="BackgroundImageFix" result="shape"/>
<feColorMatrix in="SourceAlpha" type="matrix" values="0 0 0 0 0 0 0 0 0 0 0 0 0 0 0 0 0 0 127 0" result="hardAlpha"/>
<feOffset dx="-1.0625" dy="-1.21429"/>
<feComposite in2="hardAlpha" operator="arithmetic" k2="-1" k3="1"/>
<feColorMatrix type="matrix" values="0 0 0 0 1 0 0 0 0 0.92 0 0 0 0 0.2 0 0 0 1 0"/>
<feBlend mode="normal" in2="shape" result="effect1_innerShadow_120_2015"/>
</filter>
<linearGradient id="paint0_linear_120_2015" x1="125.643" y1="25.6597" x2="273.636" y2="197.283" gradientUnits="userSpaceOnUse">
<stop stop-color="#F1F1F1"/>
<stop offset="1" stop-color="#E1E1E1"/>
</linearGradient>
<linearGradient id="paint1_linear_120_2015" x1="134.992" y1="79.7857" x2="123.608" y2="112.875" gradientUnits="userSpaceOnUse">
<stop stop-color="#B70A0A"/>
<stop offset="1" stop-color="#5D0010"/>
</linearGradient>
<linearGradient id="paint2_linear_120_2015" x1="172.923" y1="79.5682" x2="158.492" y2="123.485" gradientUnits="userSpaceOnUse">
<stop stop-color="#C00D12"/>
<stop offset="1" stop-color="#5E0010"/>
</linearGradient>
<linearGradient id="paint3_linear_120_2015" x1="165.731" y1="71.6917" x2="131.131" y2="100.832" gradientUnits="userSpaceOnUse">
<stop offset="0.0620359" stop-color="#FC2424"/>
<stop offset="1" stop-color="#BD1818"/>
</linearGradient>
<linearGradient id="paint4_linear_120_2015" x1="165.731" y1="71.6917" x2="131.131" y2="100.832" gradientUnits="userSpaceOnUse">
<stop offset="0.0620359" stop-color="#FC2424"/>
<stop offset="1" stop-color="#BD1818"/>
</linearGradient>
<linearGradient id="paint5_linear_120_2015" x1="134.992" y1="79.7857" x2="123.608" y2="112.875" gradientUnits="userSpaceOnUse">
<stop stop-color="#B70A0A"/>
<stop offset="1" stop-color="#5D0010"/>
</linearGradient>
<linearGradient id="paint6_linear_120_2015" x1="140.454" y1="70.375" x2="140.454" y2="123.045" gradientUnits="userSpaceOnUse">
<stop stop-color="#880000"/>
<stop offset="1" stop-color="#4D0000"/>
</linearGradient>
<linearGradient id="paint7_linear_120_2015" x1="142.884" y1="113.938" x2="120.103" y2="123.237" gradientUnits="userSpaceOnUse">
<stop stop-color="#E0B05D"/>
<stop offset="1" stop-color="#C68643"/>
</linearGradient>
<linearGradient id="paint8_linear_120_2015" x1="164.128" y1="67.8796" x2="164.128" y2="120.549" gradientUnits="userSpaceOnUse">
<stop stop-color="#FFE3B3"/>
<stop offset="1" stop-color="#FFD48B"/>
</linearGradient>
<linearGradient id="paint9_linear_120_2015" x1="119.385" y1="114.241" x2="158.454" y2="55.1002" gradientUnits="userSpaceOnUse">
<stop stop-color="#9B2929" stop-opacity="0.58"/>
<stop offset="1" stop-color="#9B292C" stop-opacity="0"/>
</linearGradient>
<linearGradient id="paint10_linear_120_2015" x1="169.143" y1="77.6607" x2="154.636" y2="115.464" gradientUnits="userSpaceOnUse">
<stop stop-color="#E11D22"/>
<stop offset="1" stop-color="#870000"/>
<stop offset="1" stop-color="#5E0010"/>
</linearGradient>
<linearGradient id="paint11_linear_120_2015" x1="169.143" y1="77.6607" x2="154.636" y2="115.464" gradientUnits="userSpaceOnUse">
<stop stop-color="#C00D12"/>
<stop offset="1" stop-color="#5E0010"/>
</linearGradient>
<linearGradient id="paint12_linear_120_2015" x1="167.018" y1="74.6249" x2="135.902" y2="114.848" gradientUnits="userSpaceOnUse">
<stop offset="0.0544723" stop-color="#D67114"/>
<stop offset="1" stop-color="#9B3B25"/>
</linearGradient>
<linearGradient id="paint13_linear_120_2015" x1="167.018" y1="74.6249" x2="135.902" y2="114.848" gradientUnits="userSpaceOnUse">
<stop offset="0.0544723" stop-color="#D67114"/>
<stop offset="1" stop-color="#9B3B25"/>
</linearGradient>
<linearGradient id="paint14_linear_120_2015" x1="161.554" y1="71.4375" x2="133.246" y2="98.6071" gradientUnits="userSpaceOnUse">
<stop stop-color="#FC3E24"/>
<stop offset="1" stop-color="#C10000"/>
</linearGradient>
<linearGradient id="paint15_linear_120_2015" x1="161.554" y1="71.4375" x2="133.246" y2="98.6071" gradientUnits="userSpaceOnUse">
<stop stop-color="#FC3E24"/>
<stop offset="1" stop-color="#C10000"/>
</linearGradient>
<linearGradient id="paint16_linear_120_2015" x1="161.554" y1="71.4375" x2="133.246" y2="98.6071" gradientUnits="userSpaceOnUse">
<stop stop-color="#FC3E24"/>
<stop offset="1" stop-color="#C10000"/>
</linearGradient>
<linearGradient id="paint17_linear_120_2015" x1="161.554" y1="71.4375" x2="133.246" y2="98.6071" gradientUnits="userSpaceOnUse">
<stop stop-color="#FC3E24"/>
<stop offset="1" stop-color="#C10000"/>
</linearGradient>
<linearGradient id="paint18_linear_120_2015" x1="125.96" y1="70.5267" x2="136.965" y2="74.2455" gradientUnits="userSpaceOnUse">
<stop offset="0.167371" stop-color="#870000" stop-opacity="0.38"/>
<stop offset="1" stop-color="#FF0000" stop-opacity="0"/>
</linearGradient>
<linearGradient id="paint19_linear_120_2015" x1="161.554" y1="71.4375" x2="133.246" y2="98.6071" gradientUnits="userSpaceOnUse">
<stop offset="0.0620359" stop-color="#FC2424"/>
<stop offset="1" stop-color="#BD1818"/>
</linearGradient>
<linearGradient id="paint20_linear_120_2015" x1="161.554" y1="71.4375" x2="133.246" y2="98.6071" gradientUnits="userSpaceOnUse">
<stop offset="0.0620359" stop-color="#FC2424"/>
<stop offset="1" stop-color="#BD1818"/>
</linearGradient>
<linearGradient id="paint21_linear_120_2015" x1="146.071" y1="90.9151" x2="130.947" y2="71.3917" gradientUnits="userSpaceOnUse">
<stop stop-color="#FF7E46"/>
<stop offset="1" stop-color="#FF7E46" stop-opacity="0"/>
</linearGradient>
<linearGradient id="paint22_linear_120_2015" x1="161.554" y1="71.4375" x2="133.246" y2="98.6071" gradientUnits="userSpaceOnUse">
<stop offset="0.0620359" stop-color="#FC2424"/>
<stop offset="1" stop-color="#BD1818"/>
</linearGradient>
<linearGradient id="paint23_linear_120_2015" x1="161.554" y1="71.4375" x2="133.246" y2="98.6071" gradientUnits="userSpaceOnUse">
<stop offset="0.0620359" stop-color="#FC2424"/>
<stop offset="1" stop-color="#BD1818"/>
</linearGradient>
<linearGradient id="paint24_linear_120_2015" x1="168.081" y1="82.7455" x2="126.643" y2="101.643" gradientUnits="userSpaceOnUse">
<stop offset="0.0645942" stop-color="#FFD74B"/>
<stop offset="1" stop-color="#FF8A00"/>
</linearGradient>
<linearGradient id="paint25_linear_120_2015" x1="168.081" y1="82.7455" x2="126.643" y2="101.643" gradientUnits="userSpaceOnUse">
<stop offset="0.0645942" stop-color="#FFD74B"/>
<stop offset="1" stop-color="#FF8A00"/>
</linearGradient>
<linearGradient id="paint26_linear_120_2015" x1="134.992" y1="79.7857" x2="123.608" y2="112.875" gradientUnits="userSpaceOnUse">
<stop stop-color="#B70A0A"/>
<stop offset="1" stop-color="#870000"/>
</linearGradient>
<linearGradient id="paint27_linear_120_2015" x1="68.6376" y1="25.6597" x2="129.407" y2="38.5566" gradientUnits="userSpaceOnUse">
<stop stop-color="#F1F1F1"/>
<stop offset="1" stop-color="#E1E1E1"/>
</linearGradient>
</defs>
</svg>
