<svg width="432" height="209" viewBox="0 0 432 209" fill="none" xmlns="http://www.w3.org/2000/svg">
<g filter="url(#filter0_d_120_1926)">
<rect x="56.3948" y="56" width="306" height="84" rx="12.98" fill="white"/>
<rect x="56.3948" y="56" width="306" height="84" rx="12.98" stroke="url(#paint0_linear_120_1926)" stroke-opacity="0.3" stroke-width="2.60316"/>
</g>
<g filter="url(#filter1_d_120_1926)">
<mask id="path-3-outside-1_120_1926" maskUnits="userSpaceOnUse" x="101.823" y="66.9767" width="66.5016" height="62.1458" fill="black">
<rect fill="white" x="101.823" y="66.9767" width="66.5016" height="62.1458"/>
<path d="M119.973 82.6006C124.18 78.3502 130.159 75.6937 136.795 75.6937C149.528 75.6937 159.851 85.4733 159.851 97.5366C159.851 109.6 149.528 119.379 136.794 119.379C134.815 119.378 132.894 119.142 131.061 118.697C130.782 119.465 130.481 120.114 130.197 120.614C128.545 121.873 126.533 122.413 125.327 122.587C124.183 123.004 122.154 123.48 120.103 123.152C117.466 121.487 112.281 116.233 112.632 108.534C112.734 106.301 113.241 104.533 113.697 102.943C113.845 102.429 113.985 101.932 114.107 101.445C113.865 100.177 113.739 98.8707 113.739 97.5363C113.739 96.9769 113.761 96.4223 113.805 95.8735C113.773 95.8016 113.74 95.7286 113.706 95.6557C113.325 94.8553 112.879 94.0823 112.438 93.319C111.037 90.8885 109.694 88.5582 110.705 85.7717C111.729 82.9498 114.012 82.1442 115.021 81.8751L115.021 81.8742C115.041 81.8691 115.062 81.8645 115.084 81.8592C115.108 81.853 115.131 81.8464 115.153 81.8408L115.153 81.8418C116.045 81.6312 117.997 81.3206 119.973 82.6006Z"/>
</mask>
<path d="M119.973 82.6006C124.18 78.3502 130.159 75.6937 136.795 75.6937C149.528 75.6937 159.851 85.4733 159.851 97.5366C159.851 109.6 149.528 119.379 136.794 119.379C134.815 119.378 132.894 119.142 131.061 118.697C130.782 119.465 130.481 120.114 130.197 120.614C128.545 121.873 126.533 122.413 125.327 122.587C124.183 123.004 122.154 123.48 120.103 123.152C117.466 121.487 112.281 116.233 112.632 108.534C112.734 106.301 113.241 104.533 113.697 102.943C113.845 102.429 113.985 101.932 114.107 101.445C113.865 100.177 113.739 98.8707 113.739 97.5363C113.739 96.9769 113.761 96.4223 113.805 95.8735C113.773 95.8016 113.74 95.7286 113.706 95.6557C113.325 94.8553 112.879 94.0823 112.438 93.319C111.037 90.8885 109.694 88.5582 110.705 85.7717C111.729 82.9498 114.012 82.1442 115.021 81.8751L115.021 81.8742C115.041 81.8691 115.062 81.8645 115.084 81.8592C115.108 81.853 115.131 81.8464 115.153 81.8408L115.153 81.8418C116.045 81.6312 117.997 81.3206 119.973 82.6006Z" fill="#FDEDDD"/>
<path d="M119.973 82.6006L118.537 84.8186L120.34 85.9865L121.851 84.4594L119.973 82.6006ZM136.795 75.6937L136.795 73.0511L136.795 73.0511L136.795 75.6937ZM159.851 97.5366L162.494 97.5367L162.494 97.5366L159.851 97.5366ZM136.794 119.379L136.794 122.021H136.794V119.379ZM131.061 118.697L131.683 116.129L129.386 115.572L128.578 117.794L131.061 118.697ZM130.197 120.614L131.799 122.716L132.23 122.388L132.497 121.916L130.197 120.614ZM125.327 122.587L124.951 119.971L124.68 120.01L124.422 120.104L125.327 122.587ZM120.103 123.152L118.693 125.387L119.151 125.676L119.686 125.762L120.103 123.152ZM112.632 108.534L109.992 108.413L109.992 108.413L112.632 108.534ZM113.697 102.943L111.157 102.214L111.157 102.214L113.697 102.943ZM114.107 101.445L116.671 102.086L116.812 101.522L116.703 100.95L114.107 101.445ZM113.739 97.5363L111.097 97.5363V97.5363H113.739ZM113.805 95.8735L116.439 96.0828L116.492 95.4134L116.219 94.7998L113.805 95.8735ZM113.706 95.6557L116.092 94.5213L116.092 94.5213L113.706 95.6557ZM112.438 93.319L110.149 94.6391L110.149 94.6391L112.438 93.319ZM110.705 85.7717L108.221 84.8702L108.221 84.8702L110.705 85.7717ZM115.021 81.8751L115.702 84.4283L118.219 83.7569L117.584 81.2308L115.021 81.8751ZM115.021 81.8742L114.376 79.3114L111.813 79.9558L112.458 82.5185L115.021 81.8742ZM115.084 81.8592L115.712 84.426L115.729 84.4218L115.747 84.4173L115.084 81.8592ZM115.153 81.8408L117.716 81.1965L117.072 78.6337L114.509 79.2781L115.153 81.8408ZM115.153 81.8418L112.591 82.4861L113.226 85.0123L115.761 84.4135L115.153 81.8418ZM119.973 82.6006L121.851 84.4594C125.566 80.7055 130.872 78.3362 136.795 78.3362L136.795 75.6937L136.795 73.0511C129.447 73.0512 122.793 75.9949 118.095 80.7418L119.973 82.6006ZM136.795 75.6937V78.3362C148.205 78.3362 157.208 87.0655 157.208 97.5366H159.851L162.494 97.5366C162.494 83.8812 150.851 73.0511 136.795 73.0511V75.6937ZM159.851 97.5366L157.208 97.5366C157.208 108.007 148.205 116.736 136.794 116.736V119.379V122.021C150.851 122.021 162.493 111.192 162.494 97.5367L159.851 97.5366ZM136.794 119.379L136.794 116.736C135.026 116.736 133.314 116.525 131.683 116.129L131.061 118.697L130.438 121.266C132.474 121.759 134.604 122.021 136.794 122.021L136.794 119.379ZM131.061 118.697L128.578 117.794C128.341 118.444 128.099 118.958 127.898 119.313L130.197 120.614L132.497 121.916C132.863 121.27 133.222 120.485 133.544 119.601L131.061 118.697ZM130.197 120.614L128.596 118.513C127.425 119.404 125.895 119.835 124.951 119.971L125.327 122.587L125.704 125.202C127.17 124.991 129.665 124.342 131.799 122.716L130.197 120.614ZM125.327 122.587L124.422 120.104C123.525 120.431 121.973 120.775 120.521 120.543L120.103 123.152L119.686 125.762C122.335 126.185 124.841 125.577 126.233 125.07L125.327 122.587ZM120.103 123.152L121.514 120.918C119.362 119.559 114.978 115.081 115.271 108.654L112.632 108.534L109.992 108.413C109.583 117.386 115.571 123.416 118.693 125.387L120.103 123.152ZM112.632 108.534L115.271 108.654C115.358 106.763 115.781 105.261 116.237 103.673L113.697 102.943L111.157 102.214C110.7 103.806 110.109 105.839 109.992 108.413L112.632 108.534ZM113.697 102.943L116.237 103.673C116.385 103.158 116.537 102.622 116.671 102.086L114.107 101.445L111.543 100.805C111.434 101.243 111.305 101.7 111.157 102.214L113.697 102.943ZM114.107 101.445L116.703 100.95C116.492 99.845 116.382 98.7042 116.382 97.5363L113.739 97.5363H111.097C111.097 99.0371 111.238 100.509 111.511 101.941L114.107 101.445ZM113.739 97.5363L116.382 97.5363C116.382 97.0451 116.401 96.5604 116.439 96.0828L113.805 95.8735L111.17 95.6642C111.121 96.2843 111.097 96.9086 111.097 97.5363L113.739 97.5363ZM113.805 95.8735L116.219 94.7998C116.189 94.7329 116.144 94.6293 116.092 94.5213L113.706 95.6557L111.319 96.7902C111.337 96.8278 111.356 96.8702 111.39 96.9472L113.805 95.8735ZM113.706 95.6557L116.092 94.5213C115.659 93.6096 115.158 92.7451 114.727 91.9989L112.438 93.319L110.149 94.6391C110.599 95.4196 110.991 96.101 111.319 96.7902L113.706 95.6557ZM112.438 93.319L114.727 91.9989C113.207 89.3616 112.66 88.129 113.189 86.6732L110.705 85.7717L108.221 84.8702C106.727 88.9874 108.867 92.4153 110.149 94.6391L112.438 93.319ZM110.705 85.7717L113.189 86.6732C113.772 85.0665 115.003 84.6147 115.702 84.4283L115.021 81.8751L114.34 79.3219C113.021 79.6737 109.686 80.833 108.221 84.8702L110.705 85.7717ZM115.021 81.8751L117.584 81.2308L117.583 81.2298L115.021 81.8742L112.458 82.5185L112.458 82.5195L115.021 81.8751ZM115.021 81.8742L115.665 84.4369C115.653 84.4398 115.645 84.4418 115.642 84.4425C115.639 84.4432 115.638 84.4434 115.643 84.4423C115.646 84.4416 115.656 84.4392 115.667 84.4368C115.678 84.4342 115.694 84.4305 115.712 84.426L115.084 81.8592L114.456 79.2923C114.464 79.2905 114.469 79.2894 114.469 79.2893C114.469 79.2892 114.469 79.2893 114.468 79.2896C114.466 79.2901 114.464 79.2904 114.461 79.2912C114.455 79.2925 114.443 79.2952 114.43 79.2983C114.416 79.3015 114.398 79.306 114.376 79.3114L115.021 81.8742ZM115.084 81.8592L115.747 84.4173C115.763 84.413 115.778 84.4091 115.788 84.4063C115.798 84.4037 115.808 84.401 115.811 84.4001C115.816 84.3987 115.817 84.3987 115.815 84.3991C115.813 84.3996 115.807 84.4013 115.797 84.4036L115.153 81.8408L114.509 79.2781C114.488 79.2832 114.471 79.2878 114.458 79.2913C114.445 79.2947 114.434 79.2978 114.427 79.2995C114.419 79.3017 114.418 79.3021 114.415 79.3027C114.414 79.303 114.417 79.3023 114.422 79.301L115.084 81.8592ZM115.153 81.8408L112.59 82.4852L112.591 82.4861L115.153 81.8418L117.716 81.1974L117.716 81.1965L115.153 81.8408ZM115.153 81.8418L115.761 84.4135C116.391 84.2646 117.461 84.122 118.537 84.8186L119.973 82.6006L121.41 80.3826C118.532 78.5192 115.698 78.9979 114.546 79.27L115.153 81.8418Z" fill="url(#paint1_linear_120_1926)" mask="url(#path-3-outside-1_120_1926)"/>
</g>
<g filter="url(#filter2_i_120_1926)">
<ellipse cx="136.795" cy="97.5363" rx="23.056" ry="21.8425" fill="url(#paint2_radial_120_1926)"/>
</g>
<ellipse opacity="0.5" cx="136.928" cy="80.9124" rx="3.36921" ry="3.23708" fill="url(#paint3_linear_120_1926)"/>
<ellipse opacity="0.5" cx="146.308" cy="84.2166" rx="3.36921" ry="3.23708" fill="url(#paint4_linear_120_1926)"/>
<g filter="url(#filter3_d_120_1926)">
<path d="M115.129 81.9208C116.146 81.6807 118.54 81.3082 120.778 83.3118C123.683 85.9116 122.63 89.7408 122.811 93.4473C123.054 98.4008 126.907 99.3588 129.853 104.293C133.807 110.916 131.721 118.004 130.184 120.72C128.531 121.98 126.516 122.519 125.31 122.692C124.165 123.11 122.135 123.588 120.082 123.26C117.443 121.594 112.253 116.335 112.605 108.63C112.867 102.889 115.808 100.223 113.679 95.7433C112.086 92.3918 109.347 89.516 110.677 85.8517C111.701 83.0286 113.986 82.224 114.996 81.9544L114.996 81.9513C115.017 81.946 115.039 81.9412 115.062 81.9356C115.085 81.9297 115.107 81.9233 115.128 81.918L115.129 81.9208Z" fill="#FDEDDD"/>
<mask id="mask0_120_1926" style="mask-type:alpha" maskUnits="userSpaceOnUse" x="110" y="81" width="23" height="43">
<path d="M115.129 81.9208C116.146 81.6807 118.54 81.3082 120.778 83.3118C123.683 85.9116 122.63 89.7408 122.811 93.4473C123.054 98.4008 126.907 99.3588 129.853 104.293C133.807 110.916 131.721 118.004 130.184 120.72C128.531 121.98 126.516 122.519 125.31 122.692C124.165 123.11 122.135 123.588 120.082 123.26C117.443 121.594 112.253 116.335 112.605 108.63C112.867 102.889 115.808 100.223 113.679 95.7433C112.086 92.3918 109.347 89.516 110.677 85.8517C111.701 83.0286 113.986 82.224 114.996 81.9544L114.996 81.9513C115.017 81.946 115.039 81.9412 115.062 81.9356C115.085 81.9297 115.107 81.9233 115.128 81.918L115.129 81.9208Z" fill="#FDEDDD"/>
<path d="M115.129 81.9208L115.085 81.9319L115.096 81.9754L115.14 81.9651L115.129 81.9208ZM120.778 83.3118L120.809 83.2779L120.809 83.2779L120.778 83.3118ZM122.811 93.4473L122.766 93.4495L122.766 93.4495L122.811 93.4473ZM129.853 104.293L129.892 104.27L129.892 104.27L129.853 104.293ZM130.184 120.72L130.211 120.756L130.219 120.75L130.223 120.742L130.184 120.72ZM125.31 122.692L125.303 122.646L125.294 122.65L125.31 122.692ZM120.082 123.26L120.058 123.298L120.066 123.303L120.075 123.305L120.082 123.26ZM112.605 108.63L112.559 108.628L112.559 108.628L112.605 108.63ZM113.679 95.7433L113.72 95.7238L113.72 95.7238L113.679 95.7433ZM110.677 85.8517L110.634 85.8362L110.634 85.8362L110.677 85.8517ZM114.996 81.9544L115.007 81.9983L115.038 81.99L115.041 81.9578L114.996 81.9544ZM114.996 81.9513L114.985 81.9072L114.953 81.9152L114.95 81.9479L114.996 81.9513ZM115.062 81.9356L115.073 81.9798L115.074 81.9796L115.062 81.9356ZM115.128 81.918L115.172 81.9069L115.161 81.8628L115.117 81.8739L115.128 81.918ZM115.129 81.9208L115.14 81.9651C116.151 81.7262 118.526 81.357 120.748 83.3457L120.778 83.3118L120.809 83.2779C118.553 81.2595 116.141 81.6352 115.119 81.8766L115.129 81.9208ZM120.778 83.3118L120.748 83.3457C122.188 84.6347 122.649 86.2286 122.771 87.9677C122.832 88.8379 122.808 89.7431 122.78 90.6642C122.752 91.5845 122.72 92.5207 122.766 93.4495L122.811 93.4473L122.857 93.4451C122.811 92.5206 122.843 91.5882 122.871 90.6669C122.899 89.7464 122.923 88.8368 122.861 87.9614C122.739 86.2093 122.273 84.5887 120.809 83.2779L120.778 83.3118ZM122.811 93.4473L122.766 93.4495C122.888 95.9413 123.919 97.4289 125.285 98.9082C126.65 100.387 128.344 101.855 129.814 104.316L129.853 104.293L129.892 104.27C128.416 101.797 126.71 100.318 125.352 98.8465C123.993 97.375 122.977 95.9068 122.857 93.4451L122.811 93.4473ZM129.853 104.293L129.814 104.316C133.757 110.92 131.677 117.99 130.144 120.697L130.184 120.72L130.223 120.742C131.765 118.018 133.857 110.911 129.892 104.27L129.853 104.293ZM130.184 120.72L130.156 120.684C128.511 121.937 126.505 122.475 125.303 122.647L125.31 122.692L125.316 122.738C126.527 122.563 128.55 122.022 130.211 120.756L130.184 120.72ZM125.31 122.692L125.294 122.65C124.153 123.066 122.132 123.541 120.089 123.215L120.082 123.26L120.075 123.305C122.138 123.634 124.176 123.154 125.325 122.735L125.31 122.692ZM120.082 123.26L120.107 123.221C117.476 121.561 112.3 116.315 112.65 108.632L112.605 108.63L112.559 108.628C112.207 116.355 117.411 121.627 120.058 123.298L120.082 123.26ZM112.605 108.63L112.65 108.632C112.781 105.768 113.579 103.674 114.083 101.725C114.586 99.7756 114.791 97.977 113.72 95.7238L113.679 95.7433L113.638 95.7628C114.696 97.9889 114.495 99.7631 113.995 101.702C113.494 103.641 112.69 105.751 112.559 108.628L112.605 108.63ZM113.679 95.7433L113.72 95.7238C113.321 94.8839 112.85 94.0741 112.391 93.2764C111.93 92.478 111.481 91.6917 111.124 90.8961C110.408 89.3061 110.06 87.684 110.72 85.8672L110.677 85.8517L110.634 85.8362C109.964 87.6837 110.32 89.3317 111.041 90.9335C111.401 91.7338 111.852 92.5239 112.312 93.3218C112.772 94.1204 113.241 94.9269 113.638 95.7628L113.679 95.7433ZM110.677 85.8517L110.72 85.8672C111.737 83.0651 114.003 82.2665 115.007 81.9983L114.996 81.9544L114.984 81.9105C113.969 82.1814 111.666 82.9922 110.634 85.8362L110.677 85.8517ZM114.996 81.9544L115.041 81.9578L115.041 81.9547L114.996 81.9513L114.95 81.9479L114.95 81.951L114.996 81.9544ZM114.996 81.9513L115.007 81.9954C115.029 81.9898 115.047 81.9861 115.073 81.9798L115.062 81.9356L115.052 81.8914C115.032 81.8962 115.005 81.9022 114.985 81.9072L114.996 81.9513ZM115.062 81.9356L115.074 81.9796C115.1 81.9729 115.117 81.9678 115.139 81.9621L115.128 81.918L115.117 81.8739C115.097 81.8789 115.071 81.8865 115.051 81.8916L115.062 81.9356ZM115.128 81.918L115.084 81.9291L115.085 81.9319L115.129 81.9208L115.173 81.9097L115.172 81.9069L115.128 81.918Z" fill="black"/>
</mask>
<g mask="url(#mask0_120_1926)">
<g filter="url(#filter4_ii_120_1926)">
<path d="M115.129 81.9208C116.146 81.6807 118.54 81.3082 120.778 83.3118C123.683 85.9116 122.63 89.7408 122.811 93.4473C123.054 98.4008 126.907 99.3588 129.853 104.293C133.807 110.916 131.721 118.004 130.184 120.72C128.531 121.98 126.516 122.519 125.31 122.692C124.165 123.11 122.135 123.588 120.082 123.26C117.443 121.594 112.253 116.335 112.605 108.63C112.867 102.889 115.808 100.223 113.679 95.7433C112.086 92.3918 109.347 89.516 110.677 85.8517C111.701 83.0286 113.986 82.224 114.996 81.9544L114.996 81.9513C115.017 81.946 115.039 81.9412 115.062 81.9356C115.085 81.9297 115.107 81.9233 115.128 81.918L115.129 81.9208Z" fill="#FDEDDD"/>
</g>
<path d="M112.024 101.271C112.024 101.271 114.561 101.103 120.296 99.6607C126.031 98.2189 128.346 97.1677 128.346 97.1677L129.455 101.579C129.455 101.579 127.493 102.541 121.405 104.072C115.318 105.603 113.133 105.683 113.133 105.683L112.024 101.271Z" fill="#F55353" style="mix-blend-mode:multiply"/>
<path d="M110.693 95.978C110.693 95.978 113.231 95.8091 118.965 94.3673C124.7 92.9254 127.015 91.8743 127.015 91.8743L127.88 95.3151C127.88 95.3151 125.918 96.2775 119.83 97.8081C113.743 99.3387 111.559 99.4189 111.559 99.4189L110.693 95.978Z" fill="#F55353" style="mix-blend-mode:multiply"/>
<ellipse cx="118.182" cy="86.0281" rx="2.04688" ry="2.54722" transform="rotate(-14.1132 118.182 86.0281)" fill="url(#paint5_linear_120_1926)" style="mix-blend-mode:screen"/>
</g>
</g>
<path d="M186.131 105V89.49H192.907C194.535 89.49 195.796 89.8493 196.691 90.568C197.586 91.272 198.033 92.2547 198.033 93.516C198.033 94.4547 197.762 95.2467 197.219 95.892C196.676 96.5373 195.936 96.97 194.997 97.19V96.86C195.716 96.9627 196.332 97.1827 196.845 97.52C197.358 97.8573 197.747 98.29 198.011 98.818C198.29 99.346 198.429 99.962 198.429 100.666C198.429 101.575 198.216 102.36 197.791 103.02C197.38 103.665 196.779 104.157 195.987 104.494C195.195 104.831 194.249 105 193.149 105H186.131ZM188.837 102.866H192.797C193.193 102.866 193.545 102.837 193.853 102.778C194.176 102.719 194.447 102.631 194.667 102.514C194.902 102.382 195.092 102.221 195.239 102.03C195.4 101.839 195.518 101.619 195.591 101.37C195.664 101.121 195.701 100.842 195.701 100.534C195.701 100.211 195.664 99.9253 195.591 99.676C195.518 99.4267 195.4 99.214 195.239 99.038C195.092 98.8473 194.902 98.6933 194.667 98.576C194.447 98.444 194.176 98.3487 193.853 98.29C193.545 98.2313 193.193 98.202 192.797 98.202H188.837V102.866ZM188.837 96.068H192.423C193.391 96.068 194.11 95.8847 194.579 95.518C195.063 95.1367 195.305 94.5793 195.305 93.846C195.305 93.1127 195.063 92.5627 194.579 92.196C194.11 91.8147 193.391 91.624 192.423 91.624H188.837V96.068ZM207.047 105.22C205.932 105.22 204.964 104.993 204.143 104.538C203.321 104.083 202.683 103.438 202.229 102.602C201.774 101.751 201.547 100.754 201.547 99.61C201.547 98.466 201.774 97.476 202.229 96.64C202.683 95.804 203.321 95.1587 204.143 94.704C204.964 94.2493 205.932 94.022 207.047 94.022C208.161 94.022 209.129 94.2493 209.951 94.704C210.772 95.1587 211.41 95.804 211.865 96.64C212.319 97.476 212.547 98.466 212.547 99.61C212.547 100.754 212.319 101.751 211.865 102.602C211.41 103.438 210.772 104.083 209.951 104.538C209.129 104.993 208.161 105.22 207.047 105.22ZM207.047 103.13C207.868 103.13 208.528 102.837 209.027 102.25C209.525 101.649 209.775 100.769 209.775 99.61C209.775 98.4367 209.525 97.564 209.027 96.992C208.528 96.4053 207.868 96.112 207.047 96.112C206.225 96.112 205.565 96.4053 205.067 96.992C204.568 97.564 204.319 98.4367 204.319 99.61C204.319 100.769 204.568 101.649 205.067 102.25C205.565 102.837 206.225 103.13 207.047 103.13ZM218.699 105L214.453 94.242H217.269L220.261 102.492H219.755L222.791 94.242H224.727L227.719 102.492H227.257L230.249 94.242H232.911L228.687 105H226.289L223.033 96.398H224.287L221.097 105H218.699ZM239.352 105.22C238.076 105.22 237.13 104.875 236.514 104.186C235.913 103.482 235.612 102.455 235.612 101.106V89.49H238.362V100.974C238.362 101.399 238.421 101.766 238.538 102.074C238.67 102.367 238.861 102.587 239.11 102.734C239.359 102.881 239.667 102.954 240.034 102.954C240.195 102.954 240.357 102.947 240.518 102.932C240.679 102.917 240.833 102.888 240.98 102.844L240.936 105.022C240.672 105.081 240.408 105.125 240.144 105.154C239.895 105.198 239.631 105.22 239.352 105.22ZM243.588 91.932V89.248H246.668V91.932H243.588ZM243.764 105V94.242H246.514V105H243.764ZM250.499 105V94.242H253.183V96.398H252.941C253.264 95.6207 253.762 95.034 254.437 94.638C255.126 94.2273 255.904 94.022 256.769 94.022C257.634 94.022 258.346 94.1833 258.903 94.506C259.46 94.8287 259.878 95.32 260.157 95.98C260.436 96.6253 260.575 97.4467 260.575 98.444V105H257.825V98.576C257.825 98.0187 257.752 97.564 257.605 97.212C257.473 96.86 257.26 96.6033 256.967 96.442C256.688 96.266 256.329 96.178 255.889 96.178C255.361 96.178 254.899 96.2953 254.503 96.53C254.107 96.75 253.799 97.0727 253.579 97.498C253.359 97.9087 253.249 98.3927 253.249 98.95V105H250.499ZM269.511 109.18C268.514 109.18 267.575 109.063 266.695 108.828C265.83 108.608 265.067 108.263 264.407 107.794L265.199 105.88C265.61 106.144 266.043 106.364 266.497 106.54C266.952 106.731 267.414 106.87 267.883 106.958C268.353 107.046 268.822 107.09 269.291 107.09C270.274 107.09 271.007 106.848 271.491 106.364C271.99 105.895 272.239 105.191 272.239 104.252V102.272H272.437C272.217 103.02 271.755 103.621 271.051 104.076C270.362 104.516 269.577 104.736 268.697 104.736C267.729 104.736 266.886 104.516 266.167 104.076C265.449 103.621 264.891 102.991 264.495 102.184C264.099 101.377 263.901 100.439 263.901 99.368C263.901 98.2973 264.099 97.366 264.495 96.574C264.891 95.7673 265.449 95.144 266.167 94.704C266.886 94.2493 267.729 94.022 268.697 94.022C269.607 94.022 270.399 94.2493 271.073 94.704C271.763 95.144 272.21 95.7307 272.415 96.464H272.239V94.242H274.923V103.922C274.923 105.081 274.718 106.049 274.307 106.826C273.897 107.618 273.288 108.205 272.481 108.586C271.675 108.982 270.685 109.18 269.511 109.18ZM269.445 102.646C270.296 102.646 270.971 102.353 271.469 101.766C271.968 101.179 272.217 100.38 272.217 99.368C272.217 98.356 271.968 97.564 271.469 96.992C270.971 96.4053 270.296 96.112 269.445 96.112C268.595 96.112 267.92 96.4053 267.421 96.992C266.923 97.564 266.673 98.356 266.673 99.368C266.673 100.38 266.923 101.179 267.421 101.766C267.92 102.353 268.595 102.646 269.445 102.646Z" fill="#202224"/>
<mask id="mask1_120_1926" style="mask-type:alpha" maskUnits="userSpaceOnUse" x="55" y="54" width="59" height="88">
<path d="M56.3948 68.98C56.3948 61.8113 62.2061 56 69.3748 56H87.4123C101.21 56 112.395 67.185 112.395 80.9825V115.018C112.395 128.815 101.21 140 87.4123 140H69.3748C62.2061 140 56.3948 134.189 56.3948 127.02V68.98Z" fill="white" stroke="url(#paint6_linear_120_1926)" stroke-opacity="0.3" stroke-width="2.60316"/>
</mask>
<g mask="url(#mask1_120_1926)">
<rect x="54.3948" y="54.3848" width="28" height="87.2308" fill="#587ED7"/>
</g>
<defs>
<filter id="filter0_d_120_1926" x="0.9894" y="0.594686" width="430.337" height="208.337" filterUnits="userSpaceOnUse" color-interpolation-filters="sRGB">
<feFlood flood-opacity="0" result="BackgroundImageFix"/>
<feColorMatrix in="SourceAlpha" type="matrix" values="0 0 0 0 0 0 0 0 0 0 0 0 0 0 0 0 0 0 127 0" result="hardAlpha"/>
<feOffset dx="6.76297" dy="6.76297"/>
<feGaussianBlur stdDeviation="30.4334"/>
<feColorMatrix type="matrix" values="0 0 0 0 0 0 0 0 0 0 0 0 0 0 0 0 0 0 0.05 0"/>
<feBlend mode="normal" in2="BackgroundImageFix" result="effect1_dropShadow_120_1926"/>
<feBlend mode="normal" in="SourceGraphic" in2="effect1_dropShadow_120_1926" result="shape"/>
</filter>
<filter id="filter1_d_120_1926" x="107.711" y="73.051" width="54.7826" height="55.4955" filterUnits="userSpaceOnUse" color-interpolation-filters="sRGB">
<feFlood flood-opacity="0" result="BackgroundImageFix"/>
<feColorMatrix in="SourceAlpha" type="matrix" values="0 0 0 0 0 0 0 0 0 0 0 0 0 0 0 0 0 0 127 0" result="hardAlpha"/>
<feOffset dy="2.64252"/>
<feComposite in2="hardAlpha" operator="out"/>
<feColorMatrix type="matrix" values="0 0 0 0 0.00784314 0 0 0 0 0.133333 0 0 0 0 0.12549 0 0 0 1 0"/>
<feBlend mode="normal" in2="BackgroundImageFix" result="effect1_dropShadow_120_1926"/>
<feBlend mode="normal" in="SourceGraphic" in2="effect1_dropShadow_120_1926" result="shape"/>
</filter>
<filter id="filter2_i_120_1926" x="113.739" y="75.6938" width="46.1119" height="43.6851" filterUnits="userSpaceOnUse" color-interpolation-filters="sRGB">
<feFlood flood-opacity="0" result="BackgroundImageFix"/>
<feBlend mode="normal" in="SourceGraphic" in2="BackgroundImageFix" result="shape"/>
<feColorMatrix in="SourceAlpha" type="matrix" values="0 0 0 0 0 0 0 0 0 0 0 0 0 0 0 0 0 0 127 0" result="hardAlpha"/>
<feOffset dx="-6.14364" dy="-7.75269"/>
<feComposite in2="hardAlpha" operator="arithmetic" k2="-1" k3="1"/>
<feColorMatrix type="matrix" values="0 0 0 0 0.0364583 0 0 0 0 0.416667 0 0 0 0 0.325416 0 0 0 0.34 0"/>
<feBlend mode="normal" in2="shape" result="effect1_innerShadow_120_1926"/>
</filter>
<filter id="filter3_d_120_1926" x="105.779" y="79.4546" width="32.776" height="45.6263" filterUnits="userSpaceOnUse" color-interpolation-filters="sRGB">
<feFlood flood-opacity="0" result="BackgroundImageFix"/>
<feColorMatrix in="SourceAlpha" type="matrix" values="0 0 0 0 0 0 0 0 0 0 0 0 0 0 0 0 0 0 127 0" result="hardAlpha"/>
<feOffset dx="3.94949" dy="-0.146277"/>
<feComposite in2="hardAlpha" operator="out"/>
<feColorMatrix type="matrix" values="0 0 0 0 0 0 0 0 0 0 0 0 0 0 0 0 0 0 0.11 0"/>
<feBlend mode="normal" in2="BackgroundImageFix" result="effect1_dropShadow_120_1926"/>
<feBlend mode="normal" in="SourceGraphic" in2="effect1_dropShadow_120_1926" result="shape"/>
</filter>
<filter id="filter4_ii_120_1926" x="110.324" y="80.8173" width="21.8036" height="42.5513" filterUnits="userSpaceOnUse" color-interpolation-filters="sRGB">
<feFlood flood-opacity="0" result="BackgroundImageFix"/>
<feBlend mode="normal" in="SourceGraphic" in2="BackgroundImageFix" result="shape"/>
<feColorMatrix in="SourceAlpha" type="matrix" values="0 0 0 0 0 0 0 0 0 0 0 0 0 0 0 0 0 0 127 0" result="hardAlpha"/>
<feOffset dy="-0.909723"/>
<feGaussianBlur stdDeviation="2.45625"/>
<feComposite in2="hardAlpha" operator="arithmetic" k2="-1" k3="1"/>
<feColorMatrix type="matrix" values="0 0 0 0 0.866667 0 0 0 0 0.596078 0 0 0 0 0.537255 0 0 0 1 0"/>
<feBlend mode="normal" in2="shape" result="effect1_innerShadow_120_1926"/>
<feColorMatrix in="SourceAlpha" type="matrix" values="0 0 0 0 0 0 0 0 0 0 0 0 0 0 0 0 0 0 127 0" result="hardAlpha"/>
<feOffset dy="1.62794"/>
<feComposite in2="hardAlpha" operator="arithmetic" k2="-1" k3="1"/>
<feColorMatrix type="matrix" values="0 0 0 0 1 0 0 0 0 1 0 0 0 0 1 0 0 0 0.5 0"/>
<feBlend mode="normal" in2="effect1_innerShadow_120_1926" result="effect2_innerShadow_120_1926"/>
</filter>
<linearGradient id="paint0_linear_120_1926" x1="126.169" y1="25.6597" x2="274.163" y2="197.283" gradientUnits="userSpaceOnUse">
<stop stop-color="#F1F1F1"/>
<stop offset="1" stop-color="#E1E1E1"/>
</linearGradient>
<linearGradient id="paint1_linear_120_1926" x1="115.087" y1="81.8577" x2="125.341" y2="122.64" gradientUnits="userSpaceOnUse">
<stop stop-color="#489072"/>
<stop offset="1" stop-color="#0A4742"/>
</linearGradient>
<radialGradient id="paint2_radial_120_1926" cx="0" cy="0" r="1" gradientUnits="userSpaceOnUse" gradientTransform="translate(136.729 83.6875) rotate(89.8939) scale(35.6914 37.6743)">
<stop stop-color="#91EAB0"/>
<stop offset="1" stop-color="#508588"/>
</radialGradient>
<linearGradient id="paint3_linear_120_1926" x1="136.928" y1="77.6753" x2="136.928" y2="84.1495" gradientUnits="userSpaceOnUse">
<stop stop-color="#074642"/>
<stop offset="1" stop-color="#1A8E7B"/>
</linearGradient>
<linearGradient id="paint4_linear_120_1926" x1="146.308" y1="80.9795" x2="146.308" y2="87.4537" gradientUnits="userSpaceOnUse">
<stop stop-color="#074642"/>
<stop offset="1" stop-color="#1A8E7B"/>
</linearGradient>
<linearGradient id="paint5_linear_120_1926" x1="118.227" y1="84.0267" x2="118.227" y2="89.4396" gradientUnits="userSpaceOnUse">
<stop stop-color="#FAECE4"/>
<stop offset="1" stop-color="#FAECE4" stop-opacity="0"/>
</linearGradient>
<linearGradient id="paint6_linear_120_1926" x1="69.164" y1="25.6597" x2="129.934" y2="38.5566" gradientUnits="userSpaceOnUse">
<stop stop-color="#F1F1F1"/>
<stop offset="1" stop-color="#E1E1E1"/>
</linearGradient>
</defs>
</svg>
