<svg width="432" height="209" viewBox="0 0 432 209" fill="none" xmlns="http://www.w3.org/2000/svg">
<g filter="url(#filter0_d_120_2033)">
<rect x="56.3948" y="56" width="306" height="84" rx="12.98" fill="white"/>
<rect x="56.3948" y="56" width="306" height="84" rx="12.98" stroke="url(#paint0_linear_120_2033)" stroke-opacity="0.3" stroke-width="2.60316"/>
</g>
<g filter="url(#filter1_dii_120_2033)">
<mask id="path-3-outside-1_120_2033" maskUnits="userSpaceOnUse" x="100.966" y="55.9035" width="84.2227" height="77.6873" fill="black">
<rect fill="white" x="100.966" y="55.9035" width="84.2227" height="77.6873"/>
<path d="M139.441 65.459C147.592 64.1937 155.307 68.5296 158.718 75.6138C166.927 74.4245 174.564 80.0985 175.818 88.355C176.983 96.0322 172.222 103.254 164.968 105.319L166.605 116.094C166.988 118.621 165.252 120.987 162.727 121.379L133.978 125.841C131.452 126.233 129.094 124.503 128.71 121.976L127.087 111.291C127.068 111.294 127.049 111.298 127.029 111.301C118.761 112.585 111.036 106.89 109.775 98.5818C108.513 90.2736 114.193 82.4977 122.461 81.2143C122.995 81.1313 123.527 81.0787 124.056 81.0529C125.185 73.2337 131.269 66.7276 139.441 65.459Z"/>
</mask>
<path d="M139.441 65.459C147.592 64.1937 155.307 68.5296 158.718 75.6138C166.927 74.4245 174.564 80.0985 175.818 88.355C176.983 96.0322 172.222 103.254 164.968 105.319L166.605 116.094C166.988 118.621 165.252 120.987 162.727 121.379L133.978 125.841C131.452 126.233 129.094 124.503 128.71 121.976L127.087 111.291C127.068 111.294 127.049 111.298 127.029 111.301C118.761 112.585 111.036 106.89 109.775 98.5818C108.513 90.2736 114.193 82.4977 122.461 81.2143C122.995 81.1313 123.527 81.0787 124.056 81.0529C125.185 73.2337 131.269 66.7276 139.441 65.459Z" fill="url(#paint1_linear_120_2033)"/>
<path d="M139.441 65.459L138.953 62.278L138.953 62.278L139.441 65.459ZM158.718 75.6138L155.819 77.0153L156.841 79.1374L159.173 78.7996L158.718 75.6138ZM175.818 88.355L178.998 87.8657L178.998 87.8656L175.818 88.355ZM164.968 105.319L164.093 102.223L161.361 103.001L161.788 105.809L164.968 105.319ZM166.605 116.094L169.786 115.605L169.785 115.605L166.605 116.094ZM162.727 121.379L163.214 124.56L163.214 124.56L162.727 121.379ZM133.978 125.841L133.491 122.66L133.491 122.66L133.978 125.841ZM128.71 121.976L131.891 121.487L131.891 121.487L128.71 121.976ZM127.087 111.291L130.268 110.802L129.782 107.604L126.588 108.112L127.087 111.291ZM127.029 111.301L127.517 114.482L127.517 114.482L127.029 111.301ZM109.775 98.5818L106.594 99.0711L106.594 99.0711L109.775 98.5818ZM122.461 81.2143L121.974 78.0333L121.974 78.0333L122.461 81.2143ZM124.056 81.0529L124.207 84.2681L126.859 84.1383L127.24 81.5077L124.056 81.0529ZM139.441 65.459L139.928 68.64C146.634 67.5989 153.001 71.1626 155.819 77.0153L158.718 75.6138L161.616 74.2122C157.612 65.8966 148.549 60.7885 138.953 62.278L139.441 65.459ZM158.718 75.6138L159.173 78.7996C165.624 77.8651 171.647 82.3233 172.637 88.8443L175.818 88.355L178.998 87.8656C177.481 77.8737 168.231 70.9839 158.262 72.428L158.718 75.6138ZM175.818 88.355L172.637 88.8442C173.558 94.9077 169.795 100.599 164.093 102.223L164.968 105.319L165.844 108.415C174.648 105.908 180.409 97.1567 178.998 87.8657L175.818 88.355ZM164.968 105.319L161.788 105.809L163.424 116.583L166.605 116.094L169.785 115.605L168.149 104.83L164.968 105.319ZM166.605 116.094L163.424 116.583C163.541 117.355 163.01 118.078 162.239 118.198L162.727 121.379L163.214 124.56C167.494 123.896 170.436 119.887 169.786 115.605L166.605 116.094ZM162.727 121.379L162.239 118.198L133.491 122.66L133.978 125.841L134.465 129.022L163.214 124.56L162.727 121.379ZM133.978 125.841L133.491 122.66C132.722 122.779 132.007 122.254 131.891 121.487L128.71 121.976L125.529 122.466C126.18 126.752 130.183 129.687 134.465 129.022L133.978 125.841ZM128.71 121.976L131.891 121.487L130.268 110.802L127.087 111.291L123.906 111.781L125.529 122.466L128.71 121.976ZM127.087 111.291L126.588 108.112C126.562 108.116 126.54 108.12 126.526 108.122C126.513 108.125 126.5 108.127 126.498 108.127C126.493 108.128 126.497 108.128 126.503 108.126C126.51 108.125 126.524 108.123 126.542 108.12L127.029 111.301L127.517 114.482C127.545 114.478 127.568 114.474 127.585 114.471C127.6 114.468 127.614 114.466 127.619 114.465C127.626 114.464 127.623 114.464 127.619 114.465C127.615 114.466 127.603 114.468 127.587 114.47L127.087 111.291ZM127.029 111.301L126.542 108.12C120.045 109.129 113.952 104.655 112.955 98.0926L109.775 98.5818L106.594 99.0711C108.121 109.125 117.478 116.04 127.517 114.482L127.029 111.301ZM109.775 98.5818L112.955 98.0926C111.958 91.5267 116.448 85.4043 122.949 84.3952L122.461 81.2143L121.974 78.0333C111.938 79.5911 105.068 89.0206 106.594 99.0711L109.775 98.5818ZM122.461 81.2143L122.949 84.3952C123.367 84.3303 123.786 84.2886 124.207 84.2681L124.056 81.0529L123.904 77.8377C123.269 77.8688 122.624 77.9323 121.974 78.0333L122.461 81.2143ZM124.056 81.0529L127.24 81.5077C128.174 75.0426 133.203 69.684 139.928 68.6399L139.441 65.459L138.953 62.278C129.335 63.7713 122.197 71.4247 120.872 80.598L124.056 81.0529Z" fill="#460860" mask="url(#path-3-outside-1_120_2033)"/>
</g>
<path fill-rule="evenodd" clip-rule="evenodd" d="M149.54 101.458C147.77 101.894 146.904 102.489 146.661 102.834C146.056 103.693 144.87 103.899 144.011 103.295C143.152 102.69 142.946 101.504 143.551 100.645C144.624 99.1204 146.665 98.2493 148.632 97.7654C150.714 97.253 153.197 97.0574 155.686 97.2285C158.173 97.3995 160.761 97.9435 163.025 98.9842C165.287 100.024 167.473 101.384 168.656 103.705C167.387 104.451 166.465 104.849 164.999 105.314C164.318 103.978 163.185 103.244 161.436 102.44C159.688 101.636 157.573 101.171 155.425 101.023C153.278 100.875 151.194 101.052 149.54 101.458Z" fill="url(#paint2_linear_120_2033)"/>
<path d="M146.514 92.1134C151.435 83.1089 146.25 72.5671 143.35 68.5251C149.008 68.5251 153.4 70.65 156.739 74.5713C158.097 76.1662 158.628 78.3025 158.313 80.372C157.099 88.3541 153.066 93.4167 147.447 93.8418C146.556 93.9092 146.086 92.8972 146.514 92.1134Z" fill="#FEF1F1"/>
<path d="M126.317 84.4248C127.429 77.3546 132.42 73.4266 134.518 72.1611C130.748 75.4981 128.278 81.9667 134.495 94.2151C135.101 95.4094 133.894 96.5861 132.846 95.7521C129.301 92.9309 125.759 88.7565 126.317 84.4248Z" fill="#E9C7C7" style="mix-blend-mode:multiply"/>
<path d="M115.437 107.145C110.449 103.904 110.546 97.2834 111.219 94.3783C113.143 104.199 121.694 105.152 129.117 103.425C132.925 102.54 137.192 104.602 137.926 108.445L140.614 122.515L133.917 123.889C132.257 124.23 130.646 123.12 130.369 121.447L128.705 111.39C128.538 110.377 127.535 109.715 126.512 109.803C123.73 110.042 119.356 109.69 115.437 107.145Z" fill="#E9C7C7" style="mix-blend-mode:multiply"/>
<rect x="131.648" y="108.466" width="4.38832" height="13.7501" rx="2.19416" transform="rotate(-10.6594 131.648 108.466)" fill="url(#paint3_linear_120_2033)"/>
<rect x="143.643" y="106.564" width="4.38832" height="13.7501" rx="2.19416" transform="rotate(-10.6594 143.643 106.564)" fill="url(#paint4_linear_120_2033)"/>
<rect x="155.491" y="104.955" width="4.38832" height="13.7501" rx="2.19416" transform="rotate(-10.6594 155.491 104.955)" fill="url(#paint5_linear_120_2033)"/>
<ellipse cx="118.556" cy="88.8448" rx="7.10733" ry="3.39916" transform="rotate(-38.4497 118.556 88.8448)" fill="url(#paint6_linear_120_2033)"/>
<ellipse cx="163.827" cy="78.3713" rx="4.07054" ry="1.94678" transform="rotate(12.0185 163.827 78.3713)" fill="url(#paint7_linear_120_2033)"/>
<path d="M202.052 105V89.49H212.194V91.734H204.868V96.112H211.732V98.356H204.868V105H202.052ZM218.381 105.22C217.604 105.22 216.907 105.073 216.291 104.78C215.69 104.472 215.213 104.061 214.861 103.548C214.524 103.035 214.355 102.455 214.355 101.81C214.355 101.018 214.561 100.395 214.971 99.94C215.382 99.4707 216.049 99.1333 216.973 98.928C217.897 98.7227 219.137 98.62 220.691 98.62H221.791V100.204H220.713C220.024 100.204 219.445 100.233 218.975 100.292C218.506 100.336 218.125 100.417 217.831 100.534C217.553 100.637 217.347 100.783 217.215 100.974C217.098 101.165 217.039 101.399 217.039 101.678C217.039 102.162 217.208 102.558 217.545 102.866C217.883 103.174 218.352 103.328 218.953 103.328C219.437 103.328 219.863 103.218 220.229 102.998C220.611 102.763 220.911 102.448 221.131 102.052C221.351 101.656 221.461 101.201 221.461 100.688V98.158C221.461 97.4247 221.3 96.8967 220.977 96.574C220.655 96.2513 220.112 96.09 219.349 96.09C218.748 96.09 218.132 96.1853 217.501 96.376C216.871 96.552 216.233 96.8307 215.587 97.212L214.795 95.342C215.177 95.078 215.624 94.8507 216.137 94.66C216.665 94.4547 217.215 94.3007 217.787 94.198C218.374 94.0807 218.924 94.022 219.437 94.022C220.493 94.022 221.359 94.1833 222.033 94.506C222.723 94.8287 223.236 95.32 223.573 95.98C223.911 96.6253 224.079 97.4613 224.079 98.488V105H221.505V102.712H221.681C221.579 103.225 221.373 103.673 221.065 104.054C220.772 104.421 220.398 104.707 219.943 104.912C219.489 105.117 218.968 105.22 218.381 105.22ZM228.042 105V94.242H230.726V96.398H230.484C230.674 95.8993 230.938 95.474 231.276 95.122C231.613 94.77 232.016 94.4987 232.486 94.308C232.955 94.1173 233.476 94.022 234.048 94.022C234.913 94.022 235.624 94.2273 236.182 94.638C236.739 95.0487 237.128 95.6793 237.348 96.53H237.04C237.333 95.7527 237.817 95.144 238.492 94.704C239.166 94.2493 239.944 94.022 240.824 94.022C241.645 94.022 242.32 94.1833 242.848 94.506C243.39 94.8287 243.794 95.32 244.058 95.98C244.322 96.6253 244.454 97.4467 244.454 98.444V105H241.704V98.554C241.704 97.7327 241.564 97.1313 241.286 96.75C241.022 96.3687 240.567 96.178 239.922 96.178C239.452 96.178 239.042 96.2953 238.69 96.53C238.338 96.75 238.066 97.0727 237.876 97.498C237.7 97.9233 237.612 98.4367 237.612 99.038V105H234.862V98.554C234.862 97.7327 234.722 97.1313 234.444 96.75C234.18 96.3687 233.732 96.178 233.102 96.178C232.618 96.178 232.2 96.2953 231.848 96.53C231.51 96.75 231.246 97.0727 231.056 97.498C230.88 97.9233 230.792 98.4367 230.792 99.038V105H228.042ZM248.242 91.932V89.248H251.322V91.932H248.242ZM248.418 105V94.242H251.168V105H248.418ZM258.893 105.22C257.617 105.22 256.671 104.875 256.055 104.186C255.453 103.482 255.153 102.455 255.153 101.106V89.49H257.903V100.974C257.903 101.399 257.961 101.766 258.079 102.074C258.211 102.367 258.401 102.587 258.651 102.734C258.9 102.881 259.208 102.954 259.575 102.954C259.736 102.954 259.897 102.947 260.059 102.932C260.22 102.917 260.374 102.888 260.521 102.844L260.477 105.022C260.213 105.081 259.949 105.125 259.685 105.154C259.435 105.198 259.171 105.22 258.893 105.22ZM263.994 108.96L266.238 104.01V105.154L261.508 94.242H264.434L267.778 102.58H267.118L270.528 94.242H273.3L266.832 108.96H263.994ZM283.054 105V89.49H293.196V91.734H285.87V96.112H292.734V98.356H285.87V105H283.054ZM301.186 105.22C299.968 105.22 298.92 104.993 298.04 104.538C297.16 104.083 296.478 103.438 295.994 102.602C295.524 101.766 295.29 100.776 295.29 99.632C295.29 98.5173 295.517 97.542 295.972 96.706C296.441 95.87 297.079 95.2173 297.886 94.748C298.707 94.264 299.638 94.022 300.68 94.022C301.706 94.022 302.586 94.242 303.32 94.682C304.053 95.122 304.618 95.7453 305.014 96.552C305.424 97.3587 305.63 98.3193 305.63 99.434V100.248H297.512V98.664H303.694L303.342 98.994C303.342 97.9967 303.122 97.234 302.682 96.706C302.242 96.1633 301.611 95.892 300.79 95.892C300.174 95.892 299.646 96.0387 299.206 96.332C298.78 96.6107 298.45 97.014 298.216 97.542C297.996 98.0553 297.886 98.6713 297.886 99.39V99.544C297.886 100.351 298.01 101.018 298.26 101.546C298.509 102.074 298.883 102.47 299.382 102.734C299.88 102.998 300.496 103.13 301.23 103.13C301.831 103.13 302.432 103.042 303.034 102.866C303.635 102.675 304.185 102.382 304.684 101.986L305.454 103.834C304.94 104.259 304.295 104.597 303.518 104.846C302.74 105.095 301.963 105.22 301.186 105.22ZM312.477 105.22C311.699 105.22 311.003 105.073 310.387 104.78C309.785 104.472 309.309 104.061 308.957 103.548C308.619 103.035 308.451 102.455 308.451 101.81C308.451 101.018 308.656 100.395 309.067 99.94C309.477 99.4707 310.145 99.1333 311.069 98.928C311.993 98.7227 313.232 98.62 314.787 98.62H315.887V100.204H314.809C314.119 100.204 313.54 100.233 313.071 100.292C312.601 100.336 312.22 100.417 311.927 100.534C311.648 100.637 311.443 100.783 311.311 100.974C311.193 101.165 311.135 101.399 311.135 101.678C311.135 102.162 311.303 102.558 311.641 102.866C311.978 103.174 312.447 103.328 313.049 103.328C313.533 103.328 313.958 103.218 314.325 102.998C314.706 102.763 315.007 102.448 315.227 102.052C315.447 101.656 315.557 101.201 315.557 100.688V98.158C315.557 97.4247 315.395 96.8967 315.073 96.574C314.75 96.2513 314.207 96.09 313.445 96.09C312.843 96.09 312.227 96.1853 311.597 96.376C310.966 96.552 310.328 96.8307 309.683 97.212L308.891 95.342C309.272 95.078 309.719 94.8507 310.233 94.66C310.761 94.4547 311.311 94.3007 311.883 94.198C312.469 94.0807 313.019 94.022 313.533 94.022C314.589 94.022 315.454 94.1833 316.129 94.506C316.818 94.8287 317.331 95.32 317.669 95.98C318.006 96.6253 318.175 97.4613 318.175 98.488V105H315.601V102.712H315.777C315.674 103.225 315.469 103.673 315.161 104.054C314.867 104.421 314.493 104.707 314.039 104.912C313.584 105.117 313.063 105.22 312.477 105.22ZM326.031 105.22C325.43 105.22 324.843 105.169 324.271 105.066C323.714 104.963 323.201 104.824 322.731 104.648C322.262 104.457 321.851 104.223 321.499 103.944L322.203 102.14C322.57 102.375 322.966 102.58 323.391 102.756C323.817 102.932 324.257 103.064 324.711 103.152C325.166 103.24 325.613 103.284 326.053 103.284C326.757 103.284 327.278 103.167 327.615 102.932C327.967 102.683 328.143 102.36 328.143 101.964C328.143 101.627 328.026 101.37 327.791 101.194C327.571 101.003 327.234 100.864 326.779 100.776L324.579 100.358C323.67 100.182 322.973 99.852 322.489 99.368C322.02 98.8693 321.785 98.2313 321.785 97.454C321.785 96.75 321.976 96.1413 322.357 95.628C322.753 95.1147 323.296 94.7187 323.985 94.44C324.675 94.1613 325.467 94.022 326.361 94.022C326.875 94.022 327.373 94.0733 327.857 94.176C328.341 94.264 328.796 94.4033 329.221 94.594C329.661 94.77 330.043 95.0047 330.365 95.298L329.617 97.102C329.339 96.8673 329.016 96.6693 328.649 96.508C328.283 96.332 327.901 96.2 327.505 96.112C327.124 96.0093 326.75 95.958 326.383 95.958C325.665 95.958 325.129 96.0827 324.777 96.332C324.44 96.5813 324.271 96.9113 324.271 97.322C324.271 97.63 324.374 97.8867 324.579 98.092C324.785 98.2973 325.1 98.4367 325.525 98.51L327.725 98.928C328.679 99.104 329.397 99.4267 329.881 99.896C330.38 100.365 330.629 100.996 330.629 101.788C330.629 102.507 330.439 103.123 330.057 103.636C329.676 104.149 329.141 104.545 328.451 104.824C327.762 105.088 326.955 105.22 326.031 105.22ZM338.783 105.22C337.346 105.22 336.275 104.861 335.571 104.142C334.867 103.423 334.515 102.375 334.515 100.996V96.31H332.447V94.242H334.515V91.03H337.265V94.242H340.521V96.31H337.265V100.842C337.265 101.546 337.419 102.074 337.727 102.426C338.035 102.778 338.534 102.954 339.223 102.954C339.428 102.954 339.641 102.932 339.861 102.888C340.081 102.829 340.308 102.771 340.543 102.712L340.961 104.736C340.697 104.883 340.36 105 339.949 105.088C339.553 105.176 339.164 105.22 338.783 105.22Z" fill="#202224"/>
<mask id="mask0_120_2033" style="mask-type:alpha" maskUnits="userSpaceOnUse" x="55" y="54" width="59" height="88">
<path d="M56.3948 68.98C56.3948 61.8113 62.2061 56 69.3748 56H87.4123C101.21 56 112.395 67.185 112.395 80.9825V115.018C112.395 128.815 101.21 140 87.4123 140H69.3748C62.2061 140 56.3948 134.189 56.3948 127.02V68.98Z" fill="white" stroke="url(#paint8_linear_120_2033)" stroke-opacity="0.3" stroke-width="2.60316"/>
</mask>
<g mask="url(#mask0_120_2033)">
<rect x="54.3948" y="54.3848" width="28" height="87.2308" fill="#587ED7"/>
</g>
<defs>
<filter id="filter0_d_120_2033" x="0.9894" y="0.594686" width="430.337" height="208.337" filterUnits="userSpaceOnUse" color-interpolation-filters="sRGB">
<feFlood flood-opacity="0" result="BackgroundImageFix"/>
<feColorMatrix in="SourceAlpha" type="matrix" values="0 0 0 0 0 0 0 0 0 0 0 0 0 0 0 0 0 0 127 0" result="hardAlpha"/>
<feOffset dx="6.76297" dy="6.76297"/>
<feGaussianBlur stdDeviation="30.4334"/>
<feColorMatrix type="matrix" values="0 0 0 0 0 0 0 0 0 0 0 0 0 0 0 0 0 0 0.05 0"/>
<feBlend mode="normal" in2="BackgroundImageFix" result="effect1_dropShadow_120_2033"/>
<feBlend mode="normal" in="SourceGraphic" in2="effect1_dropShadow_120_2033" result="shape"/>
</filter>
<filter id="filter1_dii_120_2033" x="106.382" y="62.0208" width="72.8287" height="70.167" filterUnits="userSpaceOnUse" color-interpolation-filters="sRGB">
<feFlood flood-opacity="0" result="BackgroundImageFix"/>
<feColorMatrix in="SourceAlpha" type="matrix" values="0 0 0 0 0 0 0 0 0 0 0 0 0 0 0 0 0 0 127 0" result="hardAlpha"/>
<feOffset dy="3.07182"/>
<feComposite in2="hardAlpha" operator="out"/>
<feColorMatrix type="matrix" values="0 0 0 0 0.176471 0 0 0 0 0.0352941 0 0 0 0 0.262745 0 0 0 1 0"/>
<feBlend mode="normal" in2="BackgroundImageFix" result="effect1_dropShadow_120_2033"/>
<feBlend mode="normal" in="SourceGraphic" in2="effect1_dropShadow_120_2033" result="shape"/>
<feColorMatrix in="SourceAlpha" type="matrix" values="0 0 0 0 0 0 0 0 0 0 0 0 0 0 0 0 0 0 127 0" result="hardAlpha"/>
<feOffset dx="2.48671" dy="5.55854"/>
<feComposite in2="hardAlpha" operator="arithmetic" k2="-1" k3="1"/>
<feColorMatrix type="matrix" values="0 0 0 0 1 0 0 0 0 1 0 0 0 0 1 0 0 0 0.4 0"/>
<feBlend mode="normal" in2="shape" result="effect2_innerShadow_120_2033"/>
<feColorMatrix in="SourceAlpha" type="matrix" values="0 0 0 0 0 0 0 0 0 0 0 0 0 0 0 0 0 0 127 0" result="hardAlpha"/>
<feOffset dx="-5.70481" dy="-3.80321"/>
<feComposite in2="hardAlpha" operator="arithmetic" k2="-1" k3="1"/>
<feColorMatrix type="matrix" values="0 0 0 0 0.425 0 0 0 0 0.141667 0 0 0 0 0.141667 0 0 0 0.25 0"/>
<feBlend mode="normal" in2="effect2_innerShadow_120_2033" result="effect3_innerShadow_120_2033"/>
</filter>
<linearGradient id="paint0_linear_120_2033" x1="126.169" y1="25.6597" x2="274.163" y2="197.283" gradientUnits="userSpaceOnUse">
<stop stop-color="#F1F1F1"/>
<stop offset="1" stop-color="#E1E1E1"/>
</linearGradient>
<linearGradient id="paint1_linear_120_2033" x1="138.545" y1="65.5974" x2="147.531" y2="123.747" gradientUnits="userSpaceOnUse">
<stop stop-color="#FFEBEB"/>
<stop offset="1" stop-color="#E1B1AE"/>
</linearGradient>
<linearGradient id="paint2_linear_120_2033" x1="166.389" y1="104.363" x2="150.591" y2="99.1701" gradientUnits="userSpaceOnUse">
<stop stop-color="#C89492" stop-opacity="0.995"/>
<stop offset="0.427178" stop-color="#C4B9B8" stop-opacity="0.569958"/>
<stop offset="1" stop-color="#C89492" stop-opacity="0"/>
</linearGradient>
<linearGradient id="paint3_linear_120_2033" x1="133.842" y1="108.466" x2="133.842" y2="122.216" gradientUnits="userSpaceOnUse">
<stop stop-color="#E4B5B2" stop-opacity="0"/>
<stop offset="1" stop-color="#E4B5B2"/>
</linearGradient>
<linearGradient id="paint4_linear_120_2033" x1="145.837" y1="106.564" x2="145.837" y2="120.315" gradientUnits="userSpaceOnUse">
<stop stop-color="#CC9997"/>
<stop offset="1" stop-color="#EDC7C5" stop-opacity="0"/>
</linearGradient>
<linearGradient id="paint5_linear_120_2033" x1="157.685" y1="104.955" x2="157.685" y2="118.705" gradientUnits="userSpaceOnUse">
<stop stop-color="#CB9B9A"/>
<stop offset="1" stop-color="#CB9C9A" stop-opacity="0"/>
</linearGradient>
<linearGradient id="paint6_linear_120_2033" x1="123.884" y1="84.4459" x2="120.052" y2="95.053" gradientUnits="userSpaceOnUse">
<stop stop-color="white"/>
<stop offset="1" stop-color="white" stop-opacity="0"/>
</linearGradient>
<linearGradient id="paint7_linear_120_2033" x1="166.879" y1="75.852" x2="164.684" y2="81.9269" gradientUnits="userSpaceOnUse">
<stop stop-color="white"/>
<stop offset="1" stop-color="white" stop-opacity="0"/>
</linearGradient>
<linearGradient id="paint8_linear_120_2033" x1="69.164" y1="25.6597" x2="129.934" y2="38.5566" gradientUnits="userSpaceOnUse">
<stop stop-color="#F1F1F1"/>
<stop offset="1" stop-color="#E1E1E1"/>
</linearGradient>
</defs>
</svg>
