<svg width="431" height="209" viewBox="0 0 431 209" fill="none" xmlns="http://www.w3.org/2000/svg">
<g filter="url(#filter0_d_120_1988)">
<rect x="55.8684" y="56" width="306" height="84" rx="12.98" fill="white"/>
<rect x="55.8684" y="56" width="306" height="84" rx="12.98" stroke="url(#paint0_linear_120_1988)" stroke-opacity="0.3" stroke-width="2.60316"/>
</g>
<g filter="url(#filter1_d_120_1988)">
<g filter="url(#filter2_d_120_1988)">
<path d="M160.16 88.7115L160.14 88.6761L160.124 88.6675C160.118 88.6602 160.113 88.6529 160.106 88.6456C158.752 86.7343 157.237 84.9431 155.577 83.2919C152.97 80.6829 150.035 78.4255 146.846 76.5769C145.029 75.5195 143.139 74.5933 141.191 73.8054C139.674 73.1908 138.125 72.6609 136.55 72.2182L136.54 72.2182L136.54 72.1987C134.241 71.5486 131.886 71.1161 129.506 70.9069C129.433 70.8849 129.359 70.8714 129.283 70.8667C129.14 70.8573 128.997 70.8785 128.863 70.9289C128.728 70.9796 128.606 71.0583 128.505 71.1597C128.494 71.1743 128.485 71.1898 128.478 71.2061L118.631 82.3066L117.778 83.2687C117.629 83.4335 117.519 83.6301 117.456 83.8437C117.391 84.0576 117.375 84.2834 117.409 84.5042L117.702 86.4663L118.11 89.2023L118.396 91.1252C116.575 92.559 115.046 94.3291 113.889 96.3398C111.479 100.524 110.825 105.497 112.072 110.164C113.32 114.832 116.365 118.812 120.54 121.228C124.715 123.643 129.676 124.298 134.332 123.047C138.989 121.795 142.958 118.742 145.368 114.557C146.45 112.685 147.189 110.635 147.551 108.502L149.815 107.59L152.295 106.593L154.23 105.814C154.434 105.732 154.619 105.607 154.771 105.448C154.922 105.285 155.035 105.092 155.104 104.881L155.632 103.306L160.26 89.4599C160.281 89.3971 160.293 89.3318 160.297 89.2658C160.317 89.0708 160.269 88.8748 160.16 88.7115ZM144.583 95.0773C143.054 92.8607 141.052 91.0131 138.723 89.6687C136.499 88.3773 134.025 87.5757 131.468 87.3172L131.368 86.6237L131.171 84.0708L131.199 84.0794L131.289 84.1074C131.611 84.21 131.926 84.3138 132.246 84.4249C132.402 84.4774 132.557 84.5323 132.712 84.5873L133.037 84.7093L133.178 84.7606L133.673 84.9462L133.743 84.9731C134.278 85.179 134.806 85.3943 135.327 85.6189L135.692 85.7776L135.814 85.8301C139.014 87.2534 142.042 89.0386 144.837 91.1509C145.11 91.3584 145.396 91.5782 145.679 91.8041L145.718 91.826C146.071 92.1069 146.421 92.3917 146.767 92.6807L147.082 92.9517L147.41 93.2362C147.511 93.3278 147.627 93.4266 147.729 93.5231C147.768 93.5538 147.804 93.5868 147.839 93.622L145.402 94.7465L144.583 95.0773Z" fill="#021956"/>
<path d="M129.37 69.5403L129.369 69.5413C129.494 69.5492 129.617 69.567 129.739 69.595C132.162 69.8152 134.56 70.258 136.902 70.9202L137.869 71.1936L137.869 71.22C139.162 71.6142 140.437 72.0657 141.69 72.5735L141.689 72.5735C143.695 73.3848 145.641 74.3384 147.512 75.427L148.126 75.7893C151.178 77.6252 153.994 79.8285 156.514 82.3499L157.15 82.9954C158.549 84.4482 159.84 86.0013 161.018 87.6399L161.099 87.6838L161.286 88.0051L161.307 88.0403L161.306 88.0403C161.545 88.4294 161.656 88.8827 161.622 89.3381L161.623 89.3391C161.613 89.5208 161.579 89.7005 161.523 89.8733L161.521 89.8811L156.892 103.728L156.892 103.729L156.365 105.303L156.364 105.302C156.235 105.693 156.024 106.051 155.743 106.353L155.739 106.359L155.624 106.473C155.364 106.719 155.058 106.913 154.725 107.046L154.726 107.047L152.792 107.825L152.791 107.826L150.312 108.823L148.719 109.464C148.295 111.486 147.553 113.431 146.519 115.222C143.933 119.711 139.674 122.988 134.677 124.33C129.836 125.631 124.688 125.012 120.297 122.615L119.874 122.378C115.394 119.785 112.126 115.514 110.788 110.507C109.492 105.657 110.109 100.499 112.5 96.0999L112.738 95.676C113.848 93.7451 115.281 92.0214 116.97 90.5774L116.795 89.3987L116.387 86.6624L116.095 84.7004L116.095 84.6995C116.033 84.2877 116.062 83.8672 116.181 83.468L116.23 83.3176C116.352 82.975 116.54 82.6586 116.783 82.387L117.636 81.425L117.637 81.425L127.407 70.4094C127.412 70.4033 127.416 70.397 127.42 70.3909L127.486 70.2981L127.567 70.218C127.801 69.9843 128.083 69.8029 128.393 69.6858L128.395 69.6848L128.632 69.6096C128.872 69.5475 129.122 69.524 129.37 69.5403ZM143.892 92.1028C144.293 92.5337 144.677 92.9825 145.038 93.4495L145.406 93.2805C145.261 93.1628 145.116 93.0462 144.97 92.9299L144.933 92.9094L144.849 92.842C144.58 92.6273 144.305 92.4159 144.036 92.2112L143.892 92.1028ZM132.663 86.1321C132.906 86.1703 133.148 86.2146 133.389 86.262C133.349 86.2466 133.31 86.2303 133.271 86.2151L133.205 86.1907L132.711 86.0051L132.711 86.0042L132.652 85.9827L132.663 86.1321Z" stroke="#460860" stroke-width="2.65808"/>
</g>
<path d="M160.199 88.7809C160.024 88.7284 159.89 88.6014 159.696 88.6881L158.543 89.2216L151.731 92.363L148.233 93.9783L147.846 93.6255C147.81 93.588 147.772 93.5533 147.731 93.5217C147.609 93.3996 147.457 93.2775 147.345 93.1737C146.834 92.7253 146.306 92.2825 145.762 91.8454L145.678 91.7978C145.395 91.5719 145.109 91.3521 144.836 91.1446C141.841 88.8822 138.58 86.9961 135.127 85.5284C134.942 85.4466 134.762 85.3733 134.573 85.3001C134.384 85.2268 134.207 85.1487 134.019 85.0779L133.462 84.8642C133.057 84.7128 132.651 84.5639 132.244 84.4271C131.923 84.316 131.608 84.2122 131.286 84.1097L131.196 84.0816L130.691 83.9253L130.401 80.1271L129.822 72.6929L129.729 71.422C129.708 71.2438 129.638 71.0748 129.528 70.9336C129.874 70.9653 130.221 71.0008 130.569 71.0398L130.615 71.0459C130.956 71.085 131.3 71.1265 131.641 71.179L131.657 71.1888C131.955 71.2291 132.25 71.2754 132.55 71.3292C132.646 71.3438 132.74 71.3597 132.831 71.3792C133.033 71.4147 133.24 71.45 133.44 71.4928C133.64 71.5355 133.746 71.5502 133.899 71.5856C134.191 71.643 134.489 71.7077 134.783 71.7785C135.378 71.9128 135.971 72.0646 136.564 72.2339C140.158 73.2419 143.61 74.7023 146.837 76.5803C150.026 78.429 152.961 80.6863 155.568 83.2953C157.234 84.9522 158.754 86.7495 160.113 88.6673L160.131 88.6783L160.199 88.7809Z" fill="#3354A9"/>
<path d="M160.199 88.7809C160.024 88.7284 159.89 88.6014 159.696 88.6881L158.543 89.2216C158.442 89.0885 158.34 88.9555 158.236 88.8285C156.983 87.2152 155.607 85.7027 154.119 84.305C149.055 79.5702 142.973 76.0651 136.343 74.0603C134.366 73.4644 132.346 73.0263 130.301 72.7503C130.134 72.7234 129.967 72.7063 129.802 72.6844L129.708 71.4134C129.687 71.2352 129.617 71.0662 129.507 70.925C129.851 70.9568 130.198 70.9922 130.548 71.0313L130.595 71.0374C130.934 71.0777 131.278 71.1192 131.62 71.1717L131.635 71.1802C131.934 71.2205 132.229 71.2669 132.529 71.3206C132.625 71.3353 132.719 71.3524 132.809 71.3707C133.012 71.4061 133.218 71.4427 133.418 71.4854C133.618 71.5282 133.724 71.5416 133.877 71.577C134.17 71.6344 134.467 71.6991 134.76 71.7699C135.355 71.9042 135.949 72.056 136.542 72.2253C140.136 73.2335 143.588 74.6944 146.815 76.573C150.004 78.4189 152.939 80.6738 155.546 83.2807C157.211 84.9375 158.731 86.7348 160.09 88.6527L160.109 88.6637L160.199 88.7809Z" fill="#6DA8FF"/>
<path d="M151.734 92.3607L148.232 93.9723C143.209 89.3388 137.209 85.9004 130.677 83.9132L130.387 80.115C131.113 80.2892 131.83 80.48 132.536 80.6876C139.067 82.6753 145.068 86.1121 150.092 90.743C150.661 91.2721 151.208 91.8113 151.734 92.3607Z" fill="url(#paint1_linear_120_1988)"/>
<path d="M135.115 85.5162C133.664 84.9003 132.18 84.364 130.671 83.9094L129.697 71.3988C129.673 71.2209 129.603 71.0524 129.494 70.9104C131.876 71.1195 134.234 71.5524 136.536 72.2034L135.115 85.5162Z" fill="url(#paint2_linear_120_1988)"/>
<path d="M160.199 88.7807C159.658 89.1177 159.872 88.633 159.696 88.6879L158.543 89.2202L151.731 92.3629L148.233 93.9769L147.846 93.6241C147.81 93.5874 147.772 93.5531 147.731 93.5215C147.61 93.3994 147.478 93.2883 147.345 93.1736C146.832 92.7251 146.304 92.2823 145.762 91.8452L145.678 91.7976C145.395 91.5717 145.109 91.352 144.836 91.1444L147.921 88.8772L154.125 84.3232L155.555 83.2756C157.22 84.9323 158.74 86.7296 160.098 88.6476L160.116 88.6586L160.199 88.7807Z" fill="url(#paint3_linear_120_1988)"/>
<path d="M132.873 97.1285L121.216 110.042L118.11 89.2011L117.701 86.465L117.409 84.503C117.375 84.2822 117.391 84.0564 117.455 83.8425C117.518 83.6289 117.629 83.4323 117.778 83.2674L118.631 82.3054L128.478 71.2049C128.485 71.1886 128.494 71.173 128.504 71.1585C128.606 71.057 128.728 70.9784 128.862 70.9277C128.996 70.8773 129.14 70.8561 129.283 70.8654C129.426 70.8756 129.566 70.9173 129.692 70.9875C129.819 71.0544 129.929 71.1477 130.017 71.261C130.124 71.3989 130.193 71.5628 130.216 71.7359L131.005 81.8988L131.152 83.8034L131.37 86.6286L132.873 97.1285Z" fill="url(#paint4_linear_120_1988)"/>
<path d="M132.874 97.1281L121.216 110.042L118.11 89.2007L117.702 86.4647C121.487 83.4954 126.157 81.8853 130.964 81.8924L131.003 81.8924L131.15 83.797L131.368 86.6222L132.874 97.1281Z" fill="url(#paint5_linear_120_1988)"/>
<path d="M160.304 89.2594C160.3 89.3255 160.288 89.3907 160.267 89.4536L155.639 103.3L155.111 104.875C155.042 105.086 154.929 105.279 154.777 105.441C154.626 105.601 154.441 105.726 154.237 105.808L152.302 106.587L149.822 107.584L130.119 115.52L135.59 98.6983L145.406 94.745L148.095 93.5033L149.679 92.7708L159.149 88.4036C159.325 88.3313 159.52 88.3202 159.703 88.3718C159.89 88.4281 160.051 88.5471 160.16 88.7088C160.27 88.8702 160.321 89.0648 160.304 89.2594Z" fill="url(#paint6_linear_120_1988)"/>
<path d="M152.519 103.499C152.52 104.534 152.447 105.567 152.3 106.592L149.82 107.589L130.117 115.525L135.587 98.7034L145.404 94.7501L148.093 93.5084L149.676 92.7759C151.544 96.0394 152.524 99.737 152.519 103.499Z" fill="url(#paint7_linear_120_1988)"/>
<path d="M120.545 121.227C124.72 123.642 129.681 124.296 134.337 123.045C138.993 121.794 142.963 118.74 145.373 114.556C146.567 112.484 147.342 110.196 147.654 107.824C147.965 105.452 147.808 103.042 147.191 100.731C146.573 98.4197 145.507 96.2532 144.054 94.3549C142.601 92.4566 140.79 90.8638 138.723 89.6674C134.548 87.252 129.586 86.5978 124.93 87.8489C120.274 89.0999 116.304 92.1537 113.894 96.3384C111.483 100.523 110.83 105.496 112.077 110.163C113.324 114.831 116.37 118.81 120.545 121.227Z" fill="url(#paint8_linear_120_1988)"/>
<path d="M147.007 102.53C146.855 100.992 146.49 99.4823 145.923 98.0452C129.507 94.9991 119.325 100.409 113.666 105.509C113.745 106.513 113.915 107.507 114.173 108.48C115.499 112.282 118.133 115.485 121.603 117.515C125.077 119.544 129.158 120.266 133.115 119.549C137.072 118.832 140.644 116.724 143.189 113.603C145.735 110.485 147.089 106.559 147.007 102.53ZM145.07 96.1809C145.29 96.5863 145.491 96.9965 145.679 97.4177C145.477 96.9916 145.26 96.5692 145.07 96.1846L145.07 96.1809ZM113.899 101.201C113.972 100.789 114.063 100.378 114.169 99.9718C114.051 100.373 113.955 100.781 113.883 101.193L113.899 101.201ZM114.169 99.9718C114.274 99.5763 114.392 99.177 114.528 98.7839C114.379 99.1689 114.254 99.5628 114.155 99.9633L114.169 99.9718Z" fill="#FFFFF4"/>
<path d="M145.922 98.0452C129.507 94.999 119.325 100.409 113.666 105.509C113.355 101.502 114.488 97.516 116.861 94.2762C119.233 91.0372 122.685 88.7586 126.591 87.8542C130.496 86.9506 134.595 87.4817 138.143 89.3511C141.691 91.2214 144.452 94.3065 145.922 98.0452Z" fill="#FFFFF4"/>
<path d="M144.847 112.588C143.191 115.468 140.719 117.79 137.745 119.26C134.77 120.73 131.427 121.28 128.139 120.841C124.852 120.403 121.769 118.995 119.282 116.797C116.794 114.599 115.013 111.709 114.166 108.495C113.907 107.522 113.738 106.527 113.66 105.524C113.646 105.32 113.641 105.099 113.621 104.913C113.602 104.727 113.615 104.494 113.607 104.303C113.598 104.111 113.607 103.89 113.616 103.684C113.626 103.477 113.638 103.281 113.646 103.104C113.653 102.927 113.675 102.657 113.703 102.437C113.731 102.217 113.742 102.071 113.767 101.895C113.767 101.844 113.782 101.791 113.789 101.741C113.816 101.567 113.844 101.388 113.877 101.217C113.95 100.803 114.04 100.397 114.147 99.9867C114.255 99.5765 114.37 99.1919 114.506 98.7988C114.515 98.7804 114.525 98.7633 114.536 98.7462C114.603 98.557 114.671 98.369 114.747 98.181C114.822 97.9929 114.856 97.8965 114.916 97.7573C114.92 97.7473 114.925 97.7379 114.932 97.7292C114.966 97.6413 115.004 97.5546 115.044 97.4704C115.106 97.3617 115.143 97.2421 115.191 97.142C115.233 97.0733 115.267 96.9999 115.292 96.9234C115.383 96.7684 115.453 96.6023 115.536 96.4351C115.54 96.4249 115.545 96.4155 115.552 96.407L115.869 95.8576C118.09 92.0054 121.746 89.1949 126.033 88.0437C130.321 86.8921 134.889 87.4947 138.734 89.7188L139.108 89.9361L139.473 90.1461C139.734 90.2963 139.974 90.4807 140.216 90.654L140.524 90.8872C140.638 90.9607 140.745 91.0423 140.847 91.1314C141.031 91.2792 141.212 91.4342 141.405 91.5978L141.664 91.8273C141.757 91.9116 141.846 91.9958 141.931 92.0813L142.175 92.3194C142.342 92.4817 142.505 92.6502 142.662 92.8236L142.881 93.0678C142.965 93.1581 143.046 93.2546 143.125 93.3523C143.27 93.5232 143.41 93.6966 143.549 93.8711L143.585 93.9163C143.717 94.0884 143.847 94.263 143.974 94.4401C144.1 94.6171 144.217 94.7819 144.332 94.9577L144.381 95.031C144.502 95.2202 144.617 95.4083 144.73 95.5987C144.843 95.7892 144.963 95.998 145.066 96.2092C145.286 96.6096 145.488 97.0248 145.675 97.4448C145.766 97.6547 145.85 97.8599 145.94 98.0772C146.863 100.426 147.246 102.954 147.06 105.472C146.875 107.99 146.126 110.433 144.868 112.619L144.847 112.588Z" fill="url(#paint9_linear_120_1988)"/>
<path opacity="0.75" d="M145.922 98.0452C129.507 94.999 119.325 100.409 113.666 105.509C113.355 101.502 114.488 97.516 116.861 94.2762C119.233 91.0372 122.685 88.7586 126.591 87.8542C130.496 86.9506 134.595 87.4817 138.143 89.3511C141.691 91.2214 144.452 94.3065 145.922 98.0452Z" fill="#FFF076"/>
<path d="M124.15 114.974C125.579 115.801 127.156 116.338 128.792 116.554C130.428 116.77 132.09 116.66 133.684 116.232C135.278 115.804 136.772 115.066 138.081 114.059C139.39 113.052 140.488 111.796 141.313 110.364C142.98 107.471 143.431 104.034 142.569 100.807C141.707 97.5804 139.601 94.8294 136.715 93.159C133.83 91.4912 130.402 91.0402 127.185 91.9049C123.968 92.7696 121.225 94.8793 119.559 97.7704C117.892 100.662 117.439 104.099 118.3 107.325C119.161 110.551 121.265 113.303 124.15 114.974Z" fill="url(#paint10_linear_120_1988)"/>
<path d="M141.136 110.411C139.732 113.941 132.758 118.723 125.545 115.838C118.836 113.152 116.706 104.43 118.001 101.176C120.21 95.6354 127.359 94.705 133.06 96.9857C138.76 99.2664 143.347 104.868 141.136 110.411Z" fill="url(#paint11_linear_120_1988)"/>
<path d="M133.52 117.669C126.219 119.405 120.111 112.932 119.038 109.334C119.082 109.55 118.973 109.114 119.038 109.334C121.596 114.339 126.277 117.973 133.28 116.309C140.814 114.513 143.2 107.431 142.961 104.109C143.038 104.307 142.76 103.318 142.822 103.528C143.988 107.453 141.385 115.815 133.52 117.669Z" fill="url(#paint12_linear_120_1988)"/>
<path d="M135.339 99.0695L135.776 102.398C135.824 102.766 135.977 103.112 136.217 103.395L138.393 105.949C138.583 106.173 138.719 106.437 138.791 106.722C138.863 107.007 138.869 107.305 138.808 107.593C138.748 107.88 138.623 108.15 138.443 108.381C138.261 108.612 138.029 108.798 137.764 108.925L134.742 110.371C134.408 110.532 134.127 110.787 133.935 111.104L132.181 113.968C132.028 114.22 131.82 114.433 131.572 114.591C131.323 114.748 131.043 114.846 130.751 114.878C130.458 114.909 130.163 114.872 129.887 114.77C129.61 114.669 129.359 114.504 129.156 114.289L126.842 111.854C126.591 111.587 126.268 111.401 125.913 111.316L122.651 110.527C122.365 110.457 122.1 110.324 121.874 110.136C121.648 109.947 121.468 109.709 121.349 109.44C121.23 109.171 121.174 108.879 121.185 108.585C121.197 108.291 121.277 108.003 121.418 107.744L123.02 104.792C123.194 104.465 123.272 104.096 123.245 103.726L122.981 100.377C122.958 100.084 123.003 99.7894 123.112 99.5164C123.221 99.2433 123.391 98.9989 123.609 98.8021C123.828 98.606 124.088 98.4624 124.371 98.3822C124.653 98.3028 124.95 98.2894 125.239 98.3431L128.528 98.9535C128.891 99.0175 129.266 98.9751 129.606 98.8314L132.713 97.5531C132.983 97.443 133.275 97.3963 133.566 97.4164C133.857 97.436 134.139 97.5225 134.391 97.6692C134.644 97.8152 134.861 98.0173 135.024 98.2601C135.189 98.5022 135.297 98.7791 135.339 99.0695Z" fill="url(#paint13_linear_120_1988)"/>
<path d="M136.285 97.4275L136.721 100.756C136.77 101.124 136.924 101.469 137.164 101.752L139.339 104.307C139.529 104.531 139.666 104.795 139.737 105.08C139.81 105.365 139.815 105.663 139.753 105.951C139.693 106.238 139.568 106.507 139.388 106.738C139.207 106.97 138.974 107.156 138.709 107.282L135.687 108.729C135.352 108.889 135.071 109.144 134.879 109.462L133.127 112.323C132.975 112.574 132.766 112.788 132.518 112.945C132.27 113.103 131.989 113.201 131.697 113.232C131.405 113.263 131.109 113.226 130.833 113.124C130.556 113.022 130.306 112.858 130.103 112.644L127.788 110.202C127.536 109.939 127.214 109.752 126.86 109.664L123.597 108.877C123.311 108.808 123.045 108.674 122.819 108.485C122.593 108.297 122.413 108.059 122.294 107.791C122.175 107.522 122.119 107.23 122.131 106.936C122.143 106.641 122.222 106.354 122.363 106.095L123.962 103.146C124.138 102.82 124.217 102.45 124.189 102.08L123.925 98.7315C123.902 98.4382 123.947 98.1436 124.056 97.8707C124.165 97.5974 124.335 97.353 124.553 97.1565C124.771 96.9597 125.032 96.816 125.314 96.7365C125.597 96.6571 125.894 96.6437 126.183 96.6974L129.472 97.3079C129.836 97.3719 130.21 97.3295 130.551 97.1858L133.648 95.9026C133.918 95.7908 134.21 95.7423 134.501 95.761C134.794 95.7801 135.079 95.8666 135.333 96.0137C135.587 96.1608 135.804 96.3647 135.968 96.6095C136.134 96.8542 136.243 97.1341 136.285 97.4275Z" fill="url(#paint14_linear_120_1988)"/>
<path opacity="0.75" d="M137.121 101.691C136.905 101.421 136.767 101.098 136.721 100.756L136.285 97.4275C136.246 97.1359 136.142 96.857 135.979 96.6119C135.816 96.3671 135.599 96.1632 135.345 96.0161C135.091 95.869 134.806 95.7826 134.513 95.7634C134.222 95.7448 133.93 95.7932 133.66 95.905L130.563 97.1882C130.222 97.3319 129.848 97.3743 129.484 97.3103L126.195 96.6998C125.906 96.6462 125.609 96.6595 125.326 96.7389C125.044 96.8184 124.783 96.9621 124.565 97.1589C124.347 97.3554 124.177 97.5999 124.068 97.8732C123.959 98.146 123.914 98.4407 123.937 98.7339L124.201 102.083C124.229 102.453 124.15 102.822 123.974 103.149L122.375 106.097C122.267 106.299 122.195 106.519 122.163 106.746C125.448 103.931 130.598 100.955 137.121 101.691Z" fill="#FFF076"/>
<path d="M147.076 103.792C146.92 102.268 146.551 100.774 145.98 99.3537C145.895 99.1425 145.811 98.9313 145.713 98.7262C145.531 98.309 145.328 97.9015 145.104 97.5053C144.996 97.3063 144.881 97.1036 144.768 96.8948C144.655 96.686 144.541 96.5151 144.42 96.3332L144.371 96.2587C144.256 96.0853 144.15 95.9242 144.006 95.7447L143.616 95.2246L143.579 95.1794C143.442 95.0036 143.301 94.8315 143.157 94.6654C143.075 94.5714 142.993 94.475 142.913 94.3834L142.692 94.1392C142.535 93.9695 142.372 93.801 142.205 93.6374L141.962 93.3993L141.692 93.1491L141.432 92.9195C141.254 92.7632 141.066 92.607 140.874 92.4556C140.762 92.3798 140.654 92.2983 140.55 92.2114L140.245 91.9806C140.002 91.8073 139.758 91.6351 139.502 91.4728L139.137 91.2627L138.765 91.0478C130.771 86.4218 120.604 89.0822 116.051 96.9876L115.74 97.5285C115.733 97.5365 115.728 97.5456 115.724 97.5553C115.63 97.7091 115.549 97.8699 115.48 98.0363C115.438 98.1032 115.405 98.1755 115.381 98.2512C115.361 98.3306 115.278 98.4735 115.233 98.5797C115.188 98.6859 115.157 98.7481 115.123 98.836C115.116 98.8438 115.111 98.8529 115.107 98.8629C115.049 98.9996 114.993 99.1401 114.941 99.2805C114.888 99.4209 114.802 99.6467 114.735 99.8396L114.705 99.8897C114.574 100.277 114.456 100.667 114.357 101.062C114.258 101.456 114.165 101.87 114.095 102.283C114.062 102.455 114.036 102.629 114.011 102.802C114.004 102.85 113.994 102.903 113.99 102.952C113.965 103.131 113.942 103.308 113.93 103.488C113.917 103.667 113.884 103.925 113.872 104.146C113.86 104.367 113.843 104.543 113.848 104.72C113.853 104.897 113.839 105.129 113.848 105.33C113.856 105.532 113.848 105.745 113.866 105.941C113.884 106.136 113.88 106.362 113.909 106.551C113.992 107.545 114.166 108.528 114.429 109.49C113.613 107.226 113.3 104.812 113.512 102.415C113.723 100.017 114.455 97.6948 115.656 95.6104C120.251 87.6305 130.516 84.9457 138.58 89.6133C141.092 91.0511 143.193 93.111 144.683 95.5957C146.166 98.0778 146.99 100.9 147.076 103.792Z" fill="url(#paint15_linear_120_1988)"/>
</g>
<path d="M188.493 105V89.49H198.635V91.734H191.309V96.112H198.173V98.356H191.309V105H188.493ZM204.822 105.22C204.044 105.22 203.348 105.073 202.732 104.78C202.13 104.472 201.654 104.061 201.302 103.548C200.964 103.035 200.796 102.455 200.796 101.81C200.796 101.018 201.001 100.395 201.412 99.94C201.822 99.4707 202.49 99.1333 203.414 98.928C204.338 98.7227 205.577 98.62 207.132 98.62H208.232V100.204H207.154C206.464 100.204 205.885 100.233 205.416 100.292C204.946 100.336 204.565 100.417 204.272 100.534C203.993 100.637 203.788 100.783 203.656 100.974C203.538 101.165 203.48 101.399 203.48 101.678C203.48 102.162 203.648 102.558 203.986 102.866C204.323 103.174 204.792 103.328 205.394 103.328C205.878 103.328 206.303 103.218 206.67 102.998C207.051 102.763 207.352 102.448 207.572 102.052C207.792 101.656 207.902 101.201 207.902 100.688V98.158C207.902 97.4247 207.74 96.8967 207.418 96.574C207.095 96.2513 206.552 96.09 205.79 96.09C205.188 96.09 204.572 96.1853 203.942 96.376C203.311 96.552 202.673 96.8307 202.028 97.212L201.236 95.342C201.617 95.078 202.064 94.8507 202.578 94.66C203.106 94.4547 203.656 94.3007 204.228 94.198C204.814 94.0807 205.364 94.022 205.878 94.022C206.934 94.022 207.799 94.1833 208.474 94.506C209.163 94.8287 209.676 95.32 210.014 95.98C210.351 96.6253 210.52 97.4613 210.52 98.488V105H207.946V102.712H208.122C208.019 103.225 207.814 103.673 207.506 104.054C207.212 104.421 206.838 104.707 206.384 104.912C205.929 105.117 205.408 105.22 204.822 105.22ZM214.482 105V94.242H217.166V96.398H216.924C217.115 95.8993 217.379 95.474 217.716 95.122C218.053 94.77 218.457 94.4987 218.926 94.308C219.395 94.1173 219.916 94.022 220.488 94.022C221.353 94.022 222.065 94.2273 222.622 94.638C223.179 95.0487 223.568 95.6793 223.788 96.53H223.48C223.773 95.7527 224.257 95.144 224.932 94.704C225.607 94.2493 226.384 94.022 227.264 94.022C228.085 94.022 228.76 94.1833 229.288 94.506C229.831 94.8287 230.234 95.32 230.498 95.98C230.762 96.6253 230.894 97.4467 230.894 98.444V105H228.144V98.554C228.144 97.7327 228.005 97.1313 227.726 96.75C227.462 96.3687 227.007 96.178 226.362 96.178C225.893 96.178 225.482 96.2953 225.13 96.53C224.778 96.75 224.507 97.0727 224.316 97.498C224.14 97.9233 224.052 98.4367 224.052 99.038V105H221.302V98.554C221.302 97.7327 221.163 97.1313 220.884 96.75C220.62 96.3687 220.173 96.178 219.542 96.178C219.058 96.178 218.64 96.2953 218.288 96.53C217.951 96.75 217.687 97.0727 217.496 97.498C217.32 97.9233 217.232 98.4367 217.232 99.038V105H214.482ZM234.682 91.932V89.248H237.762V91.932H234.682ZM234.858 105V94.242H237.608V105H234.858ZM245.333 105.22C244.057 105.22 243.111 104.875 242.495 104.186C241.893 103.482 241.593 102.455 241.593 101.106V89.49H244.343V100.974C244.343 101.399 244.401 101.766 244.519 102.074C244.651 102.367 244.841 102.587 245.091 102.734C245.34 102.881 245.648 102.954 246.015 102.954C246.176 102.954 246.337 102.947 246.499 102.932C246.66 102.917 246.814 102.888 246.961 102.844L246.917 105.022C246.653 105.081 246.389 105.125 246.125 105.154C245.875 105.198 245.611 105.22 245.333 105.22ZM250.434 108.96L252.678 104.01V105.154L247.948 94.242H250.874L254.218 102.58H253.558L256.968 94.242H259.74L253.272 108.96H250.434ZM276.71 105.22C275.097 105.22 273.711 104.897 272.552 104.252C271.408 103.592 270.528 102.668 269.912 101.48C269.296 100.277 268.988 98.862 268.988 97.234C268.988 95.606 269.296 94.198 269.912 93.01C270.528 91.822 271.408 90.9053 272.552 90.26C273.711 89.6 275.097 89.27 276.71 89.27C277.752 89.27 278.734 89.4313 279.658 89.754C280.597 90.0767 281.367 90.5387 281.968 91.14L281.044 93.384C280.384 92.8267 279.71 92.4233 279.02 92.174C278.331 91.91 277.59 91.778 276.798 91.778C275.229 91.778 274.034 92.2547 273.212 93.208C272.391 94.1467 271.98 95.4887 271.98 97.234C271.98 98.9793 272.391 100.329 273.212 101.282C274.034 102.235 275.229 102.712 276.798 102.712C277.59 102.712 278.331 102.587 279.02 102.338C279.71 102.074 280.384 101.663 281.044 101.106L281.968 103.35C281.367 103.937 280.597 104.399 279.658 104.736C278.734 105.059 277.752 105.22 276.71 105.22ZM285.289 105V89.49H288.039V96.398H287.731C288.054 95.6207 288.552 95.034 289.227 94.638C289.916 94.2273 290.694 94.022 291.559 94.022C292.424 94.022 293.136 94.1833 293.693 94.506C294.25 94.8287 294.668 95.32 294.947 95.98C295.226 96.6253 295.365 97.4467 295.365 98.444V105H292.615V98.576C292.615 98.0187 292.542 97.564 292.395 97.212C292.263 96.86 292.05 96.6033 291.757 96.442C291.478 96.266 291.119 96.178 290.679 96.178C290.151 96.178 289.689 96.2953 289.293 96.53C288.897 96.75 288.589 97.0727 288.369 97.498C288.149 97.9087 288.039 98.3927 288.039 98.95V105H285.289ZM302.827 105.22C302.05 105.22 301.353 105.073 300.737 104.78C300.136 104.472 299.659 104.061 299.307 103.548C298.97 103.035 298.801 102.455 298.801 101.81C298.801 101.018 299.007 100.395 299.417 99.94C299.828 99.4707 300.495 99.1333 301.419 98.928C302.343 98.7227 303.583 98.62 305.137 98.62H306.237V100.204H305.159C304.47 100.204 303.891 100.233 303.421 100.292C302.952 100.336 302.571 100.417 302.277 100.534C301.999 100.637 301.793 100.783 301.661 100.974C301.544 101.165 301.485 101.399 301.485 101.678C301.485 102.162 301.654 102.558 301.991 102.866C302.329 103.174 302.798 103.328 303.399 103.328C303.883 103.328 304.309 103.218 304.675 102.998C305.057 102.763 305.357 102.448 305.577 102.052C305.797 101.656 305.907 101.201 305.907 100.688V98.158C305.907 97.4247 305.746 96.8967 305.423 96.574C305.101 96.2513 304.558 96.09 303.795 96.09C303.194 96.09 302.578 96.1853 301.947 96.376C301.317 96.552 300.679 96.8307 300.033 97.212L299.241 95.342C299.623 95.078 300.07 94.8507 300.583 94.66C301.111 94.4547 301.661 94.3007 302.233 94.198C302.82 94.0807 303.37 94.022 303.883 94.022C304.939 94.022 305.805 94.1833 306.479 94.506C307.169 94.8287 307.682 95.32 308.019 95.98C308.357 96.6253 308.525 97.4613 308.525 98.488V105H305.951V102.712H306.127C306.025 103.225 305.819 103.673 305.511 104.054C305.218 104.421 304.844 104.707 304.389 104.912C303.935 105.117 303.414 105.22 302.827 105.22ZM312.488 105V94.242H315.172V96.398H314.93C315.12 95.8993 315.384 95.474 315.722 95.122C316.059 94.77 316.462 94.4987 316.932 94.308C317.401 94.1173 317.922 94.022 318.494 94.022C319.359 94.022 320.07 94.2273 320.628 94.638C321.185 95.0487 321.574 95.6793 321.794 96.53H321.486C321.779 95.7527 322.263 95.144 322.938 94.704C323.612 94.2493 324.39 94.022 325.27 94.022C326.091 94.022 326.766 94.1833 327.294 94.506C327.836 94.8287 328.24 95.32 328.504 95.98C328.768 96.6253 328.9 97.4467 328.9 98.444V105H326.15V98.554C326.15 97.7327 326.01 97.1313 325.732 96.75C325.468 96.3687 325.013 96.178 324.368 96.178C323.898 96.178 323.488 96.2953 323.136 96.53C322.784 96.75 322.512 97.0727 322.322 97.498C322.146 97.9233 322.058 98.4367 322.058 99.038V105H319.308V98.554C319.308 97.7327 319.168 97.1313 318.89 96.75C318.626 96.3687 318.178 96.178 317.548 96.178C317.064 96.178 316.646 96.2953 316.294 96.53C315.956 96.75 315.692 97.0727 315.502 97.498C315.326 97.9233 315.238 98.4367 315.238 99.038V105H312.488ZM332.864 108.96V94.242H335.548V96.508H335.328C335.548 95.76 335.995 95.1587 336.67 94.704C337.359 94.2493 338.158 94.022 339.068 94.022C340.006 94.022 340.828 94.2493 341.532 94.704C342.25 95.1587 342.808 95.804 343.204 96.64C343.6 97.4613 343.798 98.4513 343.798 99.61C343.798 100.754 343.6 101.751 343.204 102.602C342.808 103.438 342.258 104.083 341.554 104.538C340.85 104.993 340.021 105.22 339.068 105.22C338.173 105.22 337.388 105 336.714 104.56C336.039 104.105 335.584 103.519 335.35 102.8H335.614V108.96H332.864ZM338.298 103.13C339.119 103.13 339.779 102.837 340.278 102.25C340.776 101.649 341.026 100.769 341.026 99.61C341.026 98.4367 340.776 97.564 340.278 96.992C339.779 96.4053 339.119 96.112 338.298 96.112C337.476 96.112 336.816 96.4053 336.318 96.992C335.819 97.564 335.57 98.4367 335.57 99.61C335.57 100.769 335.819 101.649 336.318 102.25C336.816 102.837 337.476 103.13 338.298 103.13ZM346.532 105V101.942H349.612V105H346.532Z" fill="#202224"/>
<mask id="mask0_120_1988" style="mask-type:alpha" maskUnits="userSpaceOnUse" x="54" y="54" width="60" height="88">
<path d="M55.8684 68.98C55.8684 61.8113 61.6798 56 68.8484 56H86.8859C100.683 56 111.868 67.185 111.868 80.9825V115.018C111.868 128.815 100.683 140 86.8859 140H68.8484C61.6798 140 55.8684 134.189 55.8684 127.02V68.98Z" fill="white" stroke="url(#paint16_linear_120_1988)" stroke-opacity="0.3" stroke-width="2.60316"/>
</mask>
<g mask="url(#mask0_120_1988)">
<rect x="53.8684" y="54.3848" width="28" height="87.2308" fill="#587ED7"/>
</g>
<defs>
<filter id="filter0_d_120_1988" x="0.462972" y="0.594686" width="430.337" height="208.337" filterUnits="userSpaceOnUse" color-interpolation-filters="sRGB">
<feFlood flood-opacity="0" result="BackgroundImageFix"/>
<feColorMatrix in="SourceAlpha" type="matrix" values="0 0 0 0 0 0 0 0 0 0 0 0 0 0 0 0 0 0 127 0" result="hardAlpha"/>
<feOffset dx="6.76297" dy="6.76297"/>
<feGaussianBlur stdDeviation="30.4334"/>
<feColorMatrix type="matrix" values="0 0 0 0 0 0 0 0 0 0 0 0 0 0 0 0 0 0 0.05 0"/>
<feBlend mode="normal" in2="BackgroundImageFix" result="effect1_dropShadow_120_1988"/>
<feBlend mode="normal" in="SourceGraphic" in2="effect1_dropShadow_120_1988" result="shape"/>
</filter>
<filter id="filter1_d_120_1988" x="104.938" y="67.0696" width="61.8607" height="64.3979" filterUnits="userSpaceOnUse" color-interpolation-filters="sRGB">
<feFlood flood-opacity="0" result="BackgroundImageFix"/>
<feColorMatrix in="SourceAlpha" type="matrix" values="0 0 0 0 0 0 0 0 0 0 0 0 0 0 0 0 0 0 127 0" result="hardAlpha"/>
<feOffset dy="2.53726"/>
<feComposite in2="hardAlpha" operator="out"/>
<feColorMatrix type="matrix" values="0 0 0 0 0.176471 0 0 0 0 0.0352941 0 0 0 0 0.262745 0 0 0 1 0"/>
<feBlend mode="normal" in2="BackgroundImageFix" result="effect1_dropShadow_120_1988"/>
<feBlend mode="normal" in="SourceGraphic" in2="effect1_dropShadow_120_1988" result="shape"/>
</filter>
<filter id="filter2_d_120_1988" x="108.795" y="68.2065" width="54.1641" height="59.8109" filterUnits="userSpaceOnUse" color-interpolation-filters="sRGB">
<feFlood flood-opacity="0" result="BackgroundImageFix"/>
<feColorMatrix in="SourceAlpha" type="matrix" values="0 0 0 0 0 0 0 0 0 0 0 0 0 0 0 0 0 0 127 0" result="hardAlpha"/>
<feOffset dy="1.6915"/>
<feComposite in2="hardAlpha" operator="out"/>
<feColorMatrix type="matrix" values="0 0 0 0 0.176471 0 0 0 0 0.0352941 0 0 0 0 0.262745 0 0 0 1 0"/>
<feBlend mode="normal" in2="BackgroundImageFix" result="effect1_dropShadow_120_1988"/>
<feBlend mode="normal" in="SourceGraphic" in2="effect1_dropShadow_120_1988" result="shape"/>
</filter>
<linearGradient id="paint0_linear_120_1988" x1="125.643" y1="25.6597" x2="273.636" y2="197.283" gradientUnits="userSpaceOnUse">
<stop stop-color="#F1F1F1"/>
<stop offset="1" stop-color="#E1E1E1"/>
</linearGradient>
<linearGradient id="paint1_linear_120_1988" x1="141.848" y1="84.8704" x2="140.112" y2="87.8691" gradientUnits="userSpaceOnUse">
<stop stop-color="#232C7B" stop-opacity="0"/>
<stop offset="1" stop-color="#232C7B"/>
</linearGradient>
<linearGradient id="paint2_linear_120_1988" x1="134.502" y1="78.0186" x2="131.106" y2="78.3126" gradientUnits="userSpaceOnUse">
<stop stop-color="#232C7B" stop-opacity="0"/>
<stop offset="1" stop-color="#232C7B"/>
</linearGradient>
<linearGradient id="paint3_linear_120_1988" x1="151.624" y1="88.064" x2="152.97" y2="90.9039" gradientUnits="userSpaceOnUse">
<stop stop-color="#232C7B" stop-opacity="0"/>
<stop offset="1" stop-color="#232C7B"/>
</linearGradient>
<linearGradient id="paint4_linear_120_1988" x1="135.681" y1="80.6803" x2="114.378" y2="100.115" gradientUnits="userSpaceOnUse">
<stop offset="0.86" stop-color="#3986E6"/>
<stop offset="1" stop-color="#6DA8FF"/>
</linearGradient>
<linearGradient id="paint5_linear_120_1988" x1="134.039" y1="92.1077" x2="120.056" y2="97.4967" gradientUnits="userSpaceOnUse">
<stop stop-color="#232C7B" stop-opacity="0"/>
<stop offset="1" stop-color="#232C7B"/>
</linearGradient>
<linearGradient id="paint6_linear_120_1988" x1="127.636" y1="107.788" x2="162.835" y2="95.7785" gradientUnits="userSpaceOnUse">
<stop offset="0.83" stop-color="#3986E6"/>
<stop offset="1" stop-color="#6DA8FF"/>
</linearGradient>
<linearGradient id="paint7_linear_120_1988" x1="138.357" y1="97.3665" x2="141.515" y2="108.678" gradientUnits="userSpaceOnUse">
<stop stop-color="#232C7B" stop-opacity="0"/>
<stop offset="1" stop-color="#232C7B"/>
</linearGradient>
<linearGradient id="paint8_linear_120_1988" x1="136.397" y1="93.3802" x2="121.103" y2="120.539" gradientUnits="userSpaceOnUse">
<stop offset="0.04" stop-color="#FF6400"/>
<stop offset="0.44" stop-color="#F52600"/>
<stop offset="0.49" stop-color="#EF2B00"/>
<stop offset="0.76" stop-color="#D64001"/>
<stop offset="0.92" stop-color="#CC4801"/>
</linearGradient>
<linearGradient id="paint9_linear_120_1988" x1="128.955" y1="98.3201" x2="133.952" y2="119.158" gradientUnits="userSpaceOnUse">
<stop stop-color="#FED635"/>
<stop offset="1" stop-color="#FFA800"/>
</linearGradient>
<linearGradient id="paint10_linear_120_1988" x1="130.016" y1="104.789" x2="138.521" y2="90.0923" gradientUnits="userSpaceOnUse">
<stop offset="0.45" stop-color="#FF6400"/>
<stop offset="1" stop-color="#F52600"/>
</linearGradient>
<linearGradient id="paint11_linear_120_1988" x1="127.496" y1="110.013" x2="135.895" y2="92.9638" gradientUnits="userSpaceOnUse">
<stop stop-color="#F59C0C"/>
<stop offset="1" stop-color="#F38700"/>
</linearGradient>
<linearGradient id="paint12_linear_120_1988" x1="122.827" y1="110.901" x2="143.204" y2="110.653" gradientUnits="userSpaceOnUse">
<stop stop-color="#FFF4B4" stop-opacity="0"/>
<stop offset="0.26" stop-color="#FFF4B4"/>
<stop offset="0.82" stop-color="#FFF4B4" stop-opacity="0.54"/>
<stop offset="1" stop-color="#FFF4B4" stop-opacity="0"/>
</linearGradient>
<linearGradient id="paint13_linear_120_1988" x1="126.544" y1="111.495" x2="134.204" y2="97.9067" gradientUnits="userSpaceOnUse">
<stop offset="0.04" stop-color="#FF6400"/>
<stop offset="0.44" stop-color="#F52600"/>
<stop offset="0.49" stop-color="#EF2B00"/>
<stop offset="0.76" stop-color="#D64001"/>
<stop offset="0.92" stop-color="#CC4801"/>
</linearGradient>
<linearGradient id="paint14_linear_120_1988" x1="130.112" y1="104.268" x2="132.624" y2="110.174" gradientUnits="userSpaceOnUse">
<stop stop-color="#FED635"/>
<stop offset="1" stop-color="#FFA800"/>
</linearGradient>
<linearGradient id="paint15_linear_120_1988" x1="124.224" y1="88.3472" x2="132.392" y2="109.47" gradientUnits="userSpaceOnUse">
<stop stop-color="#FFF4B4" stop-opacity="0"/>
<stop offset="0.26" stop-color="#FFF4B4"/>
<stop offset="0.82" stop-color="#FFF4B4" stop-opacity="0.54"/>
<stop offset="1" stop-color="#FFF4B4" stop-opacity="0"/>
</linearGradient>
<linearGradient id="paint16_linear_120_1988" x1="68.6376" y1="25.6597" x2="129.407" y2="38.5566" gradientUnits="userSpaceOnUse">
<stop stop-color="#F1F1F1"/>
<stop offset="1" stop-color="#E1E1E1"/>
</linearGradient>
</defs>
</svg>
