<svg width="431" height="209" viewBox="0 0 431 209" fill="none" xmlns="http://www.w3.org/2000/svg">
<g filter="url(#filter0_d_120_1997)">
<rect x="55.8684" y="56" width="306" height="84" rx="12.98" fill="white"/>
<rect x="55.8684" y="56" width="306" height="84" rx="12.98" stroke="url(#paint0_linear_120_1997)" stroke-opacity="0.3" stroke-width="2.60316"/>
</g>
<g filter="url(#filter1_d_120_1997)">
<path d="M152.764 73.6857C152.333 73.4821 150.633 72.6761 150.197 72.4646C148.884 71.8376 147.384 71.7531 146.024 72.2295C145.929 72.2637 145.834 72.301 145.741 72.3405C145.712 72.3519 145.683 72.3663 145.653 72.3797L145.465 72.4673L145.367 72.5171L145.197 72.6093L145.101 72.6664L144.932 72.7718L144.852 72.8312L144.668 72.9682L144.612 73.0095C144.531 73.0697 144.449 73.1308 144.376 73.2012L144.358 73.2144C144.289 73.2745 144.222 73.3369 144.153 73.402L144.088 73.4697C144.039 73.518 143.99 73.5691 143.947 73.6163L143.91 73.6444L143.841 73.7235L143.784 73.7904C143.74 73.8424 143.699 73.8958 143.656 73.9501L143.625 73.9891C143.575 74.0561 143.526 74.1242 143.478 74.1946L143.437 74.255L143.337 74.4118L143.291 74.4875L143.202 74.6411L143.161 74.7174C143.13 74.7735 143.103 74.829 143.075 74.8864L143.04 74.9539C143.003 75.0338 142.967 75.1149 142.932 75.1971C142.736 75.6874 142.441 76.1302 142.064 76.4975C141.688 76.8647 141.238 77.1485 140.744 77.3307C140.248 77.5068 139.718 77.5718 139.19 77.5211L131.809 76.8377C131.037 76.7646 130.261 76.8615 129.535 77.1217V77.1217C129.434 77.1569 129.335 77.1974 129.237 77.2391L129.149 77.2783C129.081 77.3097 129.012 77.3419 128.946 77.3756L128.848 77.4253C128.785 77.4584 128.726 77.4921 128.661 77.53L128.564 77.5859L128.386 77.7009L128.321 77.7496L128.094 77.9189L127.983 78.0014L127.886 78.0732C127.85 78.1005 127.813 78.1277 127.782 78.1647C127.714 78.2151 127.658 78.2781 127.598 78.3366L122.368 83.527C121.996 83.9003 121.546 84.186 121.049 84.364C120.551 84.5356 120.022 84.6013 119.495 84.5568C118.968 84.5123 118.455 84.3587 117.987 84.1055C117.329 83.7556 116.607 83.5458 115.868 83.4896C115.129 83.4335 114.388 83.532 113.693 83.7791V83.7791C112.339 84.2733 111.241 85.2861 110.637 86.5978C110.325 87.2799 110.152 88.019 110.128 88.7725C110.103 89.5259 110.228 90.2788 110.494 90.9876L113.986 100.523C114.101 100.836 114.219 101.143 114.333 101.453C114.366 101.535 114.4 101.618 114.432 101.701C114.531 101.95 114.633 102.197 114.736 102.443C114.761 102.501 114.784 102.561 114.81 102.621C114.937 102.918 115.066 103.211 115.197 103.502C115.223 103.561 115.251 103.619 115.279 103.679C115.387 103.916 115.497 104.151 115.611 104.384L115.716 104.601C115.853 104.881 115.994 105.16 116.135 105.433C116.15 105.453 116.158 105.476 116.17 105.497C116.271 105.689 116.372 105.881 116.476 106.069C116.508 106.128 116.541 106.184 116.572 106.243C116.604 106.301 116.65 106.382 116.689 106.451C116.834 106.707 116.981 106.962 117.13 107.214C117.142 107.23 117.156 107.248 117.168 107.265C117.309 107.501 117.453 107.734 117.6 107.963C117.645 108.024 117.68 108.092 117.722 108.155C117.874 108.392 118.028 108.626 118.187 108.858C118.221 108.904 118.255 108.95 118.29 108.996C118.424 109.19 118.559 109.383 118.694 109.569C118.74 109.631 118.785 109.692 118.83 109.753C118.992 109.97 119.152 110.184 119.311 110.398C119.353 110.454 119.394 110.51 119.436 110.567C119.577 110.745 119.72 110.922 119.864 111.096C119.902 111.146 119.94 111.197 119.985 111.242C120.157 111.447 120.334 111.65 120.511 111.848C120.549 111.9 120.598 111.944 120.64 111.992C120.812 112.181 120.985 112.369 121.162 112.554L121.208 112.602C121.403 112.806 121.594 112.996 121.79 113.187C121.832 113.227 121.873 113.269 121.915 113.308C122.114 113.499 122.313 113.688 122.516 113.87C123.466 114.727 124.481 115.509 125.551 116.208C128.767 118.412 132.634 120.445 134.13 120.816C140.596 122.422 147.149 120.645 147.374 120.58L147.545 120.53L147.709 120.46C147.925 120.368 153.022 118.157 156.95 112.836C159.269 109.709 160.76 106.036 161.286 102.155C161.952 97.3669 161.251 92.1023 159.202 86.5073L155.709 76.9707C155.456 76.2577 155.066 75.6003 154.56 75.0365C154.055 74.4726 153.444 74.0135 152.764 73.6857V73.6857Z" fill="#1F1F1F"/>
<path d="M109.316 85.6091C110.071 84.1601 111.306 83.0212 112.811 82.386L113.138 82.2573L113.149 82.2534L113.494 82.1406C114.302 81.9004 115.149 81.8102 115.992 81.8743C116.836 81.9384 117.661 82.1557 118.427 82.5136L118.752 82.6757L118.761 82.6812L118.97 82.7802C119.183 82.8682 119.408 82.9225 119.635 82.9411C119.937 82.9658 120.237 82.9269 120.518 82.8296C120.786 82.7318 121.03 82.5773 121.232 82.3759L121.235 82.3728L126.463 77.1828L126.738 76.923C127.396 76.3377 128.161 75.8843 128.992 75.5873L128.993 75.5867C129.945 75.2456 130.961 75.1189 131.969 75.2145L131.968 75.2151L139.347 75.8982L139.352 75.899L139.571 75.908C139.783 75.9052 139.993 75.8673 140.192 75.7981C140.471 75.6947 140.724 75.5352 140.936 75.3284C141.149 75.1207 141.317 74.8692 141.428 74.5896L141.433 74.579L141.579 74.2473C141.938 73.4835 142.433 72.7908 143.043 72.2054C143.653 71.6201 144.364 71.1531 145.142 70.8268L145.479 70.6961L145.491 70.6917L145.825 70.5835C147.501 70.0887 149.307 70.234 150.896 70.9906L153.467 72.2146L153.476 72.218L153.799 72.384C154.542 72.789 155.211 73.3197 155.776 73.9522C156.423 74.675 156.922 75.5179 157.245 76.432L157.244 76.4318L160.731 85.9505C162.85 91.7361 163.608 97.2704 162.899 102.376L162.9 102.376C162.338 106.526 160.742 110.456 158.259 113.804L158.261 113.804C154.081 119.466 148.673 121.819 148.351 121.957L148.346 121.96L148.182 122.029L148.097 122.065L148.007 122.092L147.836 122.142L147.825 122.145C147.525 122.231 140.632 124.109 133.74 122.397L133.74 122.396C133.061 122.228 132.157 121.85 131.211 121.395C130.232 120.924 129.107 120.322 127.953 119.649C125.664 118.313 123.159 116.638 121.431 115.081L121.072 114.751C117.394 111.316 114.509 106.689 112.46 101.087L108.968 91.5519C108.631 90.6483 108.472 89.6879 108.504 88.725C108.535 87.7575 108.757 86.8063 109.159 85.9275L109.16 85.9242L109.316 85.6091Z" fill="#837886" stroke="#460860" stroke-width="3.25227"/>
<path d="M138.952 80.5773L131.571 79.8939C131.24 79.8623 130.907 79.9035 130.596 80.0146C130.284 80.1257 130.002 80.3039 129.768 80.537L124.538 85.7274C122.46 87.7982 119.317 88.2313 116.617 86.8314C114.614 85.7916 112.562 87.7687 113.366 89.9647L116.858 99.5002L135.316 92.9041L153.774 86.308L150.282 76.7726C149.477 74.5754 146.62 74.3534 145.752 76.42C144.585 79.2013 141.891 80.8487 138.952 80.5773Z" fill="#A72518"/>
<path d="M135.312 92.8996L116.854 99.4957C125.062 121.91 143.916 116.402 143.916 116.402C143.916 116.402 161.976 108.715 153.768 86.3012L135.312 92.8996Z" fill="#214BA2"/>
<path d="M134.859 79.2881L130.843 81.7253C130.565 81.6894 130.283 81.7197 130.02 81.8137C129.757 81.9077 129.521 82.0629 129.33 82.2665L125.015 86.8228C123.297 88.6351 120.648 88.962 118.332 87.6439C116.612 86.6656 114.917 88.3997 115.647 90.3922L118.814 99.0452L134.302 93.5104L149.79 87.9755L146.622 79.3224C145.892 77.33 143.468 77.0689 142.779 78.908C141.851 81.3905 137.35 79.5993 134.859 79.2881Z" fill="#FF3E29"/>
<path d="M134.299 93.5111L118.811 99.0459C125.698 117.853 141.52 113.233 141.52 113.233C141.52 113.233 156.672 106.784 149.786 87.9762L134.299 93.5111Z" fill="#0066F6"/>
<path d="M151.406 73.2439C150.463 73.0621 149.492 73.1338 148.592 73.4517C148.067 73.6381 147.576 73.9079 147.138 74.251C146.416 74.8196 145.854 75.5652 145.502 76.4176L145.496 76.4225C145.299 76.9111 145.004 77.3523 144.628 77.7182C144.252 78.0841 143.804 78.3669 143.311 78.5486C142.815 78.7254 142.284 78.7904 141.757 78.739L134.375 78.0545C133.604 77.9845 132.83 78.0837 132.106 78.3452C131.379 78.6039 130.72 79.0199 130.173 79.5639L124.943 84.7542C124.571 85.1275 124.121 85.4132 123.624 85.5912C123.127 85.7632 122.597 85.8292 122.07 85.7848C121.543 85.7405 121.029 85.5868 120.561 85.3336C119.903 84.983 119.182 84.7729 118.442 84.7167C117.703 84.6605 116.962 84.7594 116.267 85.0071C114.913 85.4999 113.815 86.5122 113.211 87.8239C112.899 88.5059 112.726 89.245 112.702 89.9985C112.677 90.7521 112.802 91.505 113.069 92.2137L116.56 101.749C118.608 107.345 121.481 111.832 125.092 115.094C126.466 116.333 127.975 117.412 129.589 118.308C130.625 118.725 131.687 119.069 132.768 119.338C139.233 120.943 144.584 119.42 144.808 119.355L144.98 119.306L145.144 119.236C145.359 119.144 150.457 116.933 154.386 111.613C156.705 108.485 158.195 104.812 158.72 100.93C159.387 96.1429 158.687 90.8775 156.638 85.2824L153.147 75.7462C152.796 74.7749 152.195 73.9113 151.406 73.2439V73.2439ZM156.336 87.5346C160.439 98.7415 157.978 106.267 154.493 110.986C151.008 115.706 146.49 117.631 146.49 117.631C146.49 117.631 138.645 119.921 130.873 115.533C126.599 113.122 122.339 108.68 119.425 100.723L115.934 91.1871C115.389 89.7013 116.153 88.3149 117.324 87.8974C117.627 87.7915 117.948 87.7507 118.269 87.7777C118.59 87.8048 118.903 87.8989 119.187 88.0541C120.048 88.5039 120.989 88.7739 121.952 88.8477C122.88 88.917 123.809 88.7923 124.682 88.4814C125.593 88.1548 126.42 87.6322 127.105 86.9498L132.335 81.7594C132.569 81.526 132.852 81.3472 133.164 81.2354C133.475 81.1247 133.807 81.0837 134.137 81.1152L141.52 81.7977C142.488 81.8903 143.461 81.7698 144.373 81.4445C145.291 81.1152 146.125 80.5873 146.814 79.8977C147.457 79.2516 147.968 78.486 148.32 77.6424C148.448 77.3315 148.639 77.0511 148.88 76.8182C149.101 76.6089 149.363 76.4478 149.65 76.345C149.773 76.3011 149.899 76.2683 150.028 76.2468C150.162 76.2242 150.297 76.2134 150.433 76.2144C151.413 76.2176 152.423 76.83 152.849 77.9939L156.336 87.5346Z" fill="#A49CA6"/>
<path d="M151.406 73.2441C151.038 72.9328 150.632 72.6708 150.197 72.4647C148.883 71.8378 147.383 71.7536 146.023 72.2305C145.328 72.4799 144.695 72.8724 144.163 73.383C143.631 73.8936 143.212 74.5111 142.933 75.1964C142.738 75.6867 142.442 76.1295 142.066 76.4967C141.689 76.864 141.24 77.1477 140.746 77.33C140.249 77.5067 139.718 77.5719 139.191 77.5212L131.808 76.8367C131.037 76.7636 130.261 76.8609 129.536 77.1218C128.809 77.3802 128.15 77.7959 127.604 78.3396L122.374 83.53C122.002 83.9032 121.551 84.1889 121.055 84.3669C120.557 84.5387 120.028 84.6045 119.501 84.5602C118.974 84.5158 118.46 84.3623 117.992 84.1093C117.334 83.7592 116.612 83.5493 115.872 83.4929C115.133 83.4365 114.392 83.5349 113.696 83.7817C112.343 84.276 111.245 85.2887 110.64 86.6004C110.329 87.2825 110.156 88.0217 110.132 88.7751C110.107 89.5286 110.232 90.2815 110.498 90.9903L113.99 100.526C116.039 106.121 118.911 110.609 122.522 113.869C124.602 115.756 126.995 117.259 129.589 118.309C130.625 118.725 131.687 119.069 132.768 119.338C139.233 120.943 144.584 119.42 144.808 119.355L144.98 119.306L145.144 119.236C145.359 119.144 150.456 116.933 154.386 111.613C156.705 108.486 158.195 104.812 158.72 100.93C159.387 96.1431 158.686 90.8777 156.637 85.2827L153.147 75.7464C152.796 74.7751 152.195 73.9115 151.406 73.2441V73.2441ZM116.858 99.5006L113.366 89.9651C112.821 88.4793 113.584 87.0937 114.756 86.6753C115.058 86.5693 115.38 86.5286 115.701 86.5557C116.022 86.5829 116.334 86.6773 116.618 86.8329C117.479 87.2837 118.421 87.5542 119.386 87.6279C120.314 87.6975 121.243 87.5728 122.115 87.2617C123.027 86.9352 123.854 86.4121 124.538 85.7289L129.769 80.5397C130.003 80.3065 130.285 80.128 130.596 80.0165C130.908 79.9055 131.24 79.8642 131.571 79.8954L138.953 80.5788C139.921 80.6706 140.895 80.5497 141.806 80.2247C142.694 79.9018 143.503 79.3974 144.182 78.7429C144.862 78.0885 145.397 77.2983 145.755 76.4218C145.883 76.1111 146.073 75.8309 146.314 75.5985C146.534 75.3892 146.796 75.2284 147.082 75.126C147.623 74.9445 148.212 74.9574 148.75 75.1626C149.287 75.3677 149.74 75.7525 150.031 76.2515C150.134 76.4176 150.219 76.5939 150.285 76.7775L153.777 86.3129C157.88 97.5199 155.418 105.046 151.934 109.765C148.45 114.483 143.93 116.41 143.93 116.41C143.93 116.41 137.724 118.221 130.882 115.534C125.791 113.537 120.355 109.056 116.858 99.5006V99.5006Z" fill="white"/>
<path d="M151.406 73.244C151.038 72.9327 150.631 72.6707 150.197 72.4646C148.883 71.8377 147.383 71.7535 146.023 72.2304C145.211 72.5186 144.486 73.004 143.911 73.6436C143.501 74.1021 143.171 74.6268 142.933 75.1963C142.738 75.6866 142.442 76.1294 142.066 76.4966C141.689 76.8639 141.24 77.1476 140.746 77.3299C140.249 77.5066 139.718 77.5718 139.191 77.5211L131.808 76.8366C131.037 76.7635 130.261 76.8608 129.535 77.1216C129.104 77.2753 128.694 77.4849 128.318 77.7451C128.063 77.9224 127.824 78.1213 127.604 78.3395L122.374 83.5299C122.002 83.9031 121.551 84.1888 121.055 84.3668C120.557 84.5386 120.028 84.6044 119.501 84.56C118.973 84.5157 118.46 84.3622 117.992 84.1092C117.333 83.7591 116.612 83.5492 115.872 83.4928C115.133 83.4364 114.392 83.5348 113.696 83.7816C112.343 84.2759 111.245 85.2886 110.64 86.6003C110.329 87.2824 110.156 88.0216 110.131 88.775C110.107 89.5285 110.232 90.2813 110.498 90.9902L113.99 100.526C114.681 102.432 115.515 104.285 116.484 106.069C118.173 109.157 120.193 111.769 122.522 113.869C124.602 115.756 126.995 117.259 129.589 118.309C130.171 118.543 130.764 118.754 131.366 118.943C131.828 119.089 132.296 119.22 132.769 119.337C139.234 120.942 144.585 119.419 144.809 119.354L144.981 119.305L145.145 119.235C145.36 119.143 150.457 116.932 154.387 111.612C156.706 108.485 158.196 104.811 158.721 100.929C159.388 96.1422 158.687 90.8768 156.638 85.2817L153.148 75.7454C152.796 74.7743 152.195 73.9111 151.406 73.244V73.244ZM153.773 86.3083C157.877 97.5153 155.414 105.041 151.931 109.76C148.447 114.479 143.927 116.405 143.927 116.405C143.927 116.405 140.419 117.43 135.772 116.794C134.1 116.569 132.458 116.144 130.881 115.527C126.898 113.962 122.697 110.871 119.383 105.006C118.393 103.241 117.551 101.397 116.865 99.4947L113.373 89.9592C112.829 88.4734 113.592 87.0878 114.764 86.6694C115.066 86.5634 115.388 86.5227 115.709 86.5498C116.029 86.577 116.342 86.6714 116.625 86.8271C117.484 87.2788 118.424 87.5513 119.386 87.6278C120.314 87.6974 121.243 87.5727 122.115 87.2615C123.027 86.9351 123.853 86.412 124.538 85.7288L129.769 80.5395C129.872 80.4365 129.985 80.3441 130.107 80.2638C130.259 80.1611 130.423 80.078 130.596 80.0164C130.908 79.9054 131.24 79.8641 131.571 79.8953L138.952 80.5787C139.921 80.6705 140.895 80.5496 141.806 80.2246C143.45 79.628 144.795 78.4173 145.563 76.8424C145.633 76.7047 145.701 76.5648 145.755 76.4217C145.883 76.111 146.073 75.8308 146.314 75.5984C146.534 75.3891 146.796 75.2283 147.082 75.1259C147.623 74.9444 148.212 74.9573 148.75 75.1625C149.287 75.3676 149.74 75.7524 150.031 76.2514C150.134 76.4174 150.219 76.5938 150.285 76.7774L153.773 86.3083Z" fill="#E3DFD4"/>
<path d="M155.457 88.8385L118.095 102.19L117.131 99.5603L154.592 86.174L155.457 88.8385Z" fill="#A49CA6"/>
<path d="M115.891 98.3696L116.854 101L154.254 87.6365L153.291 85.0066L115.891 98.3696Z" fill="#E3DFD4"/>
<g style="mix-blend-mode:overlay" opacity="0.25">
<path d="M133.898 95.786C131.411 105.484 117.4 105.759 116.484 106.069C115.515 104.285 114.681 102.432 113.99 100.526L110.498 90.9904C110.232 90.2816 110.107 89.5287 110.132 88.7752C110.156 88.0218 110.329 87.2826 110.64 86.6005C111.245 85.2888 112.343 84.2761 113.696 83.7818C114.392 83.535 115.133 83.4366 115.872 83.493C116.612 83.5494 117.334 83.7593 117.992 84.1094C118.461 84.3625 118.975 84.5158 119.503 84.5595C120.031 84.6033 120.561 84.5366 121.059 84.3637C121.556 84.1857 122.006 83.9 122.378 83.5268L127.608 78.3364C127.829 78.1182 128.068 77.9194 128.322 77.742C128.948 78.5243 136.779 84.565 133.898 95.786Z" fill="#E5E5E5"/>
</g>
<path d="M150.433 76.2144C150.297 76.2134 150.162 76.2242 150.028 76.2468C149.899 76.2683 149.773 76.3012 149.65 76.345C149.363 76.4478 149.101 76.6089 148.88 76.8183C148.639 77.0511 148.448 77.3316 148.32 77.6424C147.968 78.486 147.457 79.2517 146.814 79.8977L145.562 76.84L145.498 76.4259L145.505 76.421C145.856 75.5686 146.419 74.823 147.14 74.2544L149.715 74.5295L150.098 75.5774L150.433 76.2144Z" fill="#958D96"/>
<path d="M149.226 86.4589L150.189 89.0889L154.445 87.568L153.483 84.9381L149.226 86.4589Z" fill="#D1C0C1"/>
<path d="M150.189 89.0744L150.621 90.5669L155.428 88.8809L154.766 87.4395L150.189 89.0744Z" fill="#958D96"/>
<path d="M153.15 75.7475L156.64 85.2838C158.689 90.8789 159.386 96.1475 158.723 100.932C158.198 104.813 156.708 108.487 154.389 111.614C150.459 116.934 145.362 119.145 145.147 119.237L144.983 119.307L144.811 119.356C144.587 119.421 139.236 120.944 132.771 119.339C132.3 119.224 131.832 119.093 131.368 118.945C132.903 118.229 134.37 117.518 135.765 116.8C140.414 117.434 143.919 116.411 143.919 116.411L143.931 116.403L143.97 116.386C144.479 116.157 148.651 114.192 151.923 109.766C155.099 105.466 157.426 98.8389 154.723 89.2207C154.457 88.2768 154.142 87.3052 153.777 86.3056L150.285 76.7702C150.219 76.5866 150.134 76.4103 150.032 76.2442C149.74 75.7452 149.288 75.3605 148.75 75.1553C148.213 74.9501 147.623 74.9372 147.083 75.1188C146.796 75.2211 146.535 75.3819 146.314 75.5912C146.073 75.8237 145.883 76.1039 145.755 76.4145C145.692 76.5612 145.631 76.6992 145.563 76.8352C145.068 75.7426 144.517 74.6756 143.913 73.6387C144.488 72.9991 145.213 72.5137 146.025 72.2255C147.385 71.7486 148.885 71.8328 150.199 72.4597C150.633 72.6658 151.04 72.9278 151.408 73.2391C152.198 73.9081 152.799 74.7739 153.15 75.7475V75.7475Z" fill="#D1C0C1"/>
<path style="mix-blend-mode:overlay" d="M143.974 116.386C144.482 116.158 148.655 114.193 151.927 109.766C155.103 105.467 157.429 98.8397 154.727 89.2214C154.72 89.2233 165.176 107.403 143.974 116.386Z" fill="url(#paint1_linear_120_1997)"/>
<path style="mix-blend-mode:overlay" d="M116.354 98.1643L153.294 84.9958C153.294 84.9958 149.091 88.2278 134.302 93.5124C119.512 98.797 116.354 98.1643 116.354 98.1643Z" fill="url(#paint2_linear_120_1997)"/>
</g>
<path d="M190.106 105V89.49H200.248V91.734H192.922V96.112H199.786V98.356H192.922V105H190.106ZM206.435 105.22C205.657 105.22 204.961 105.073 204.345 104.78C203.743 104.472 203.267 104.061 202.915 103.548C202.577 103.035 202.409 102.455 202.409 101.81C202.409 101.018 202.614 100.395 203.025 99.94C203.435 99.4707 204.103 99.1333 205.027 98.928C205.951 98.7227 207.19 98.62 208.745 98.62H209.845V100.204H208.767C208.077 100.204 207.498 100.233 207.029 100.292C206.559 100.336 206.178 100.417 205.885 100.534C205.606 100.637 205.401 100.783 205.269 100.974C205.151 101.165 205.093 101.399 205.093 101.678C205.093 102.162 205.261 102.558 205.599 102.866C205.936 103.174 206.405 103.328 207.007 103.328C207.491 103.328 207.916 103.218 208.283 102.998C208.664 102.763 208.965 102.448 209.185 102.052C209.405 101.656 209.515 101.201 209.515 100.688V98.158C209.515 97.4247 209.353 96.8967 209.031 96.574C208.708 96.2513 208.165 96.09 207.403 96.09C206.801 96.09 206.185 96.1853 205.555 96.376C204.924 96.552 204.286 96.8307 203.641 97.212L202.849 95.342C203.23 95.078 203.677 94.8507 204.191 94.66C204.719 94.4547 205.269 94.3007 205.841 94.198C206.427 94.0807 206.977 94.022 207.491 94.022C208.547 94.022 209.412 94.1833 210.087 94.506C210.776 94.8287 211.289 95.32 211.627 95.98C211.964 96.6253 212.133 97.4613 212.133 98.488V105H209.559V102.712H209.735C209.632 103.225 209.427 103.673 209.119 104.054C208.825 104.421 208.451 104.707 207.997 104.912C207.542 105.117 207.021 105.22 206.435 105.22ZM216.095 105V94.242H218.779V96.398H218.537C218.728 95.8993 218.992 95.474 219.329 95.122C219.666 94.77 220.07 94.4987 220.539 94.308C221.008 94.1173 221.529 94.022 222.101 94.022C222.966 94.022 223.678 94.2273 224.235 94.638C224.792 95.0487 225.181 95.6793 225.401 96.53H225.093C225.386 95.7527 225.87 95.144 226.545 94.704C227.22 94.2493 227.997 94.022 228.877 94.022C229.698 94.022 230.373 94.1833 230.901 94.506C231.444 94.8287 231.847 95.32 232.111 95.98C232.375 96.6253 232.507 97.4467 232.507 98.444V105H229.757V98.554C229.757 97.7327 229.618 97.1313 229.339 96.75C229.075 96.3687 228.62 96.178 227.975 96.178C227.506 96.178 227.095 96.2953 226.743 96.53C226.391 96.75 226.12 97.0727 225.929 97.498C225.753 97.9233 225.665 98.4367 225.665 99.038V105H222.915V98.554C222.915 97.7327 222.776 97.1313 222.497 96.75C222.233 96.3687 221.786 96.178 221.155 96.178C220.671 96.178 220.253 96.2953 219.901 96.53C219.564 96.75 219.3 97.0727 219.109 97.498C218.933 97.9233 218.845 98.4367 218.845 99.038V105H216.095ZM236.295 91.932V89.248H239.375V91.932H236.295ZM236.471 105V94.242H239.221V105H236.471ZM246.946 105.22C245.67 105.22 244.724 104.875 244.108 104.186C243.506 103.482 243.206 102.455 243.206 101.106V89.49H245.956V100.974C245.956 101.399 246.014 101.766 246.132 102.074C246.264 102.367 246.454 102.587 246.704 102.734C246.953 102.881 247.261 102.954 247.628 102.954C247.789 102.954 247.95 102.947 248.112 102.932C248.273 102.917 248.427 102.888 248.574 102.844L248.53 105.022C248.266 105.081 248.002 105.125 247.738 105.154C247.488 105.198 247.224 105.22 246.946 105.22ZM252.047 108.96L254.291 104.01V105.154L249.561 94.242H252.487L255.831 102.58H255.171L258.581 94.242H261.353L254.885 108.96H252.047ZM271.107 105V89.49H277.839C279.54 89.49 280.853 89.9007 281.777 90.722C282.701 91.5287 283.163 92.6653 283.163 94.132C283.163 95.0853 282.95 95.9067 282.525 96.596C282.114 97.2853 281.513 97.8133 280.721 98.18C279.929 98.5467 278.968 98.73 277.839 98.73L278.037 98.4H278.763C279.364 98.4 279.885 98.5467 280.325 98.84C280.78 99.1333 281.176 99.5953 281.513 100.226L284.109 105H281.007L278.323 100.05C278.147 99.7273 277.949 99.478 277.729 99.302C277.509 99.1113 277.26 98.9793 276.981 98.906C276.702 98.8327 276.38 98.796 276.013 98.796H273.923V105H271.107ZM273.923 96.706H277.355C278.367 96.706 279.13 96.5007 279.643 96.09C280.171 95.6647 280.435 95.034 280.435 94.198C280.435 93.3767 280.171 92.7607 279.643 92.35C279.13 91.9247 278.367 91.712 277.355 91.712H273.923V96.706ZM291.679 105.22C290.564 105.22 289.596 104.993 288.775 104.538C287.954 104.083 287.316 103.438 286.861 102.602C286.406 101.751 286.179 100.754 286.179 99.61C286.179 98.466 286.406 97.476 286.861 96.64C287.316 95.804 287.954 95.1587 288.775 94.704C289.596 94.2493 290.564 94.022 291.679 94.022C292.794 94.022 293.762 94.2493 294.583 94.704C295.404 95.1587 296.042 95.804 296.497 96.64C296.952 97.476 297.179 98.466 297.179 99.61C297.179 100.754 296.952 101.751 296.497 102.602C296.042 103.438 295.404 104.083 294.583 104.538C293.762 104.993 292.794 105.22 291.679 105.22ZM291.679 103.13C292.5 103.13 293.16 102.837 293.659 102.25C294.158 101.649 294.407 100.769 294.407 99.61C294.407 98.4367 294.158 97.564 293.659 96.992C293.16 96.4053 292.5 96.112 291.679 96.112C290.858 96.112 290.198 96.4053 289.699 96.992C289.2 97.564 288.951 98.4367 288.951 99.61C288.951 100.769 289.2 101.649 289.699 102.25C290.198 102.837 290.858 103.13 291.679 103.13ZM304.118 105.22C303.341 105.22 302.644 105.073 302.028 104.78C301.427 104.472 300.95 104.061 300.598 103.548C300.261 103.035 300.092 102.455 300.092 101.81C300.092 101.018 300.297 100.395 300.708 99.94C301.119 99.4707 301.786 99.1333 302.71 98.928C303.634 98.7227 304.873 98.62 306.428 98.62H307.528V100.204H306.45C305.761 100.204 305.181 100.233 304.712 100.292C304.243 100.336 303.861 100.417 303.568 100.534C303.289 100.637 303.084 100.783 302.952 100.974C302.835 101.165 302.776 101.399 302.776 101.678C302.776 102.162 302.945 102.558 303.282 102.866C303.619 103.174 304.089 103.328 304.69 103.328C305.174 103.328 305.599 103.218 305.966 102.998C306.347 102.763 306.648 102.448 306.868 102.052C307.088 101.656 307.198 101.201 307.198 100.688V98.158C307.198 97.4247 307.037 96.8967 306.714 96.574C306.391 96.2513 305.849 96.09 305.086 96.09C304.485 96.09 303.869 96.1853 303.238 96.376C302.607 96.552 301.969 96.8307 301.324 97.212L300.532 95.342C300.913 95.078 301.361 94.8507 301.874 94.66C302.402 94.4547 302.952 94.3007 303.524 94.198C304.111 94.0807 304.661 94.022 305.174 94.022C306.23 94.022 307.095 94.1833 307.77 94.506C308.459 94.8287 308.973 95.32 309.31 95.98C309.647 96.6253 309.816 97.4613 309.816 98.488V105H307.242V102.712H307.418C307.315 103.225 307.11 103.673 306.802 104.054C306.509 104.421 306.135 104.707 305.68 104.912C305.225 105.117 304.705 105.22 304.118 105.22ZM317.87 105.22C316.932 105.22 316.103 104.993 315.384 104.538C314.68 104.083 314.13 103.438 313.734 102.602C313.338 101.751 313.14 100.754 313.14 99.61C313.14 98.4513 313.338 97.4613 313.734 96.64C314.13 95.804 314.68 95.1587 315.384 94.704C316.103 94.2493 316.932 94.022 317.87 94.022C318.765 94.022 319.542 94.242 320.202 94.682C320.877 95.122 321.332 95.7013 321.566 96.42H321.324V89.49H324.074V105H321.39V102.712H321.588C321.368 103.475 320.921 104.083 320.246 104.538C319.572 104.993 318.78 105.22 317.87 105.22ZM318.64 103.13C319.462 103.13 320.122 102.837 320.62 102.25C321.119 101.649 321.368 100.769 321.368 99.61C321.368 98.4367 321.119 97.564 320.62 96.992C320.122 96.4053 319.462 96.112 318.64 96.112C317.819 96.112 317.159 96.4053 316.66 96.992C316.162 97.564 315.912 98.4367 315.912 99.61C315.912 100.769 316.162 101.649 316.66 102.25C317.159 102.837 317.819 103.13 318.64 103.13ZM340.038 105.22C338.6 105.22 337.53 104.861 336.826 104.142C336.122 103.423 335.77 102.375 335.77 100.996V96.31H333.702V94.242H335.77V91.03H338.52V94.242H341.776V96.31H338.52V100.842C338.52 101.546 338.674 102.074 338.982 102.426C339.29 102.778 339.788 102.954 340.478 102.954C340.683 102.954 340.896 102.932 341.116 102.888C341.336 102.829 341.563 102.771 341.798 102.712L342.216 104.736C341.952 104.883 341.614 105 341.204 105.088C340.808 105.176 340.419 105.22 340.038 105.22ZM344.825 105V101.942H347.905V105H344.825Z" fill="#202224"/>
<mask id="mask0_120_1997" style="mask-type:alpha" maskUnits="userSpaceOnUse" x="54" y="54" width="60" height="88">
<path d="M55.8684 68.98C55.8684 61.8113 61.6798 56 68.8484 56H86.8859C100.683 56 111.868 67.185 111.868 80.9825V115.018C111.868 128.815 100.683 140 86.8859 140H68.8484C61.6798 140 55.8684 134.189 55.8684 127.02V68.98Z" fill="white" stroke="url(#paint3_linear_120_1997)" stroke-opacity="0.3" stroke-width="2.60316"/>
</mask>
<g mask="url(#mask0_120_1997)">
<rect x="53.8684" y="54.3848" width="28" height="87.2308" fill="#587ED7"/>
</g>
<defs>
<filter id="filter0_d_120_1997" x="0.462972" y="0.594686" width="430.337" height="208.337" filterUnits="userSpaceOnUse" color-interpolation-filters="sRGB">
<feFlood flood-opacity="0" result="BackgroundImageFix"/>
<feColorMatrix in="SourceAlpha" type="matrix" values="0 0 0 0 0 0 0 0 0 0 0 0 0 0 0 0 0 0 127 0" result="hardAlpha"/>
<feOffset dx="6.76297" dy="6.76297"/>
<feGaussianBlur stdDeviation="30.4334"/>
<feColorMatrix type="matrix" values="0 0 0 0 0 0 0 0 0 0 0 0 0 0 0 0 0 0 0.05 0"/>
<feBlend mode="normal" in2="BackgroundImageFix" result="effect1_dropShadow_120_1997"/>
<feBlend mode="normal" in="SourceGraphic" in2="effect1_dropShadow_120_1997" result="shape"/>
</filter>
<filter id="filter1_d_120_1997" x="104.412" y="66" width="64" height="66.3388" filterUnits="userSpaceOnUse" color-interpolation-filters="sRGB">
<feFlood flood-opacity="0" result="BackgroundImageFix"/>
<feColorMatrix in="SourceAlpha" type="matrix" values="0 0 0 0 0 0 0 0 0 0 0 0 0 0 0 0 0 0 127 0" result="hardAlpha"/>
<feOffset dy="2.33876"/>
<feComposite in2="hardAlpha" operator="out"/>
<feColorMatrix type="matrix" values="0 0 0 0 0.176466 0 0 0 0 0.0360937 0 0 0 0 0.2625 0 0 0 1 0"/>
<feBlend mode="normal" in2="BackgroundImageFix" result="effect1_dropShadow_120_1997"/>
<feBlend mode="normal" in="SourceGraphic" in2="effect1_dropShadow_120_1997" result="shape"/>
</filter>
<linearGradient id="paint0_linear_120_1997" x1="125.643" y1="25.6597" x2="273.636" y2="197.283" gradientUnits="userSpaceOnUse">
<stop stop-color="#F1F1F1"/>
<stop offset="1" stop-color="#E1E1E1"/>
</linearGradient>
<linearGradient id="paint1_linear_120_1997" x1="149.989" y1="111.115" x2="156.594" y2="92.5615" gradientUnits="userSpaceOnUse">
<stop stop-color="white" stop-opacity="0"/>
<stop offset="0.55" stop-color="white"/>
<stop offset="0.99" stop-color="white" stop-opacity="0"/>
</linearGradient>
<linearGradient id="paint2_linear_120_1997" x1="117.982" y1="98.3757" x2="153.04" y2="85.6664" gradientUnits="userSpaceOnUse">
<stop stop-color="white" stop-opacity="0"/>
<stop offset="0.55" stop-color="white"/>
<stop offset="0.99" stop-color="white" stop-opacity="0"/>
</linearGradient>
<linearGradient id="paint3_linear_120_1997" x1="68.6376" y1="25.6597" x2="129.407" y2="38.5566" gradientUnits="userSpaceOnUse">
<stop stop-color="#F1F1F1"/>
<stop offset="1" stop-color="#E1E1E1"/>
</linearGradient>
</defs>
</svg>
