<svg width="432" height="209" viewBox="0 0 432 209" fill="none" xmlns="http://www.w3.org/2000/svg">
<g filter="url(#filter0_d_120_1917)">
<rect x="56.3948" y="56" width="306" height="84" rx="12.98" fill="white"/>
<rect x="56.3948" y="56" width="306" height="84" rx="12.98" stroke="url(#paint0_linear_120_1917)" stroke-opacity="0.3" stroke-width="2.60316"/>
</g>
<g filter="url(#filter1_di_120_1917)">
<mask id="path-3-outside-1_120_1917" maskUnits="userSpaceOnUse" x="108.047" y="62.1116" width="72" height="71" fill="black">
<rect fill="white" x="108.047" y="62.1116" width="72" height="71"/>
<path d="M136.423 69.8872C136.863 67.4016 139.234 65.7427 141.72 66.1821L172.989 71.7114C175.475 72.1509 177.134 74.5225 176.694 77.0083L169.071 120.122C168.632 122.607 166.26 124.266 163.775 123.827L151.817 121.712C149.339 124.704 145.977 127.015 141.962 128.204C131.062 131.43 119.49 125.167 116.116 114.215C114.425 108.727 115.114 103.102 117.594 98.4507L112.349 85.1968C111.478 82.9964 112.556 80.5061 114.756 79.6352L136.199 71.1489L136.423 69.8872Z"/>
</mask>
<path d="M136.423 69.8872C136.863 67.4016 139.234 65.7427 141.72 66.1821L172.989 71.7114C175.475 72.1509 177.134 74.5225 176.694 77.0083L169.071 120.122C168.632 122.607 166.26 124.266 163.775 123.827L151.817 121.712C149.339 124.704 145.977 127.015 141.962 128.204C131.062 131.43 119.49 125.167 116.116 114.215C114.425 108.727 115.114 103.102 117.594 98.4507L112.349 85.1968C111.478 82.9964 112.556 80.5061 114.756 79.6352L136.199 71.1489L136.423 69.8872Z" fill="url(#paint1_linear_120_1917)"/>
<path d="M136.423 69.8872L139.592 70.4488L139.592 70.4476L136.423 69.8872ZM141.72 66.1821L142.28 63.0132L142.28 63.0131L141.72 66.1821ZM172.989 71.7114L172.429 74.8803L172.429 74.8803L172.989 71.7114ZM176.694 77.0083L173.526 76.4479L173.526 76.448L176.694 77.0083ZM169.071 120.122L172.24 120.682L172.24 120.682L169.071 120.122ZM163.775 123.827L163.214 126.996L163.214 126.996L163.775 123.827ZM151.817 121.712L152.378 118.543L150.534 118.217L149.34 119.659L151.817 121.712ZM141.962 128.204L142.875 131.289L142.875 131.289L141.962 128.204ZM116.116 114.215L113.041 115.163L113.041 115.163L116.116 114.215ZM117.594 98.4507L120.434 99.9645L121.134 98.6507L120.586 97.2665L117.594 98.4507ZM112.349 85.1968L109.356 86.3809L109.356 86.3809L112.349 85.1968ZM114.756 79.6352L113.572 76.6429L113.572 76.643L114.756 79.6352ZM136.199 71.1489L137.384 74.1412L139.054 73.4799L139.368 71.7105L136.199 71.1489ZM136.423 69.8872L139.592 70.4476C139.722 69.7122 140.424 69.221 141.16 69.3511L141.72 66.1821L142.28 63.0131C138.044 62.2645 134.003 65.0909 133.254 69.3268L136.423 69.8872ZM141.72 66.1821L141.159 69.351L172.429 74.8803L172.989 71.7114L173.55 68.5425L142.28 63.0132L141.72 66.1821ZM172.989 71.7114L172.429 74.8803C173.165 75.0104 173.656 75.7123 173.526 76.4479L176.694 77.0083L179.863 77.5686C180.612 73.3327 177.786 69.2915 173.55 68.5425L172.989 71.7114ZM176.694 77.0083L173.526 76.448L165.902 119.561L169.071 120.122L172.24 120.682L179.863 77.5686L176.694 77.0083ZM169.071 120.122L165.902 119.561C165.772 120.297 165.071 120.788 164.335 120.658L163.775 123.827L163.214 126.996C167.45 127.744 171.491 124.918 172.24 120.682L169.071 120.122ZM163.775 123.827L164.335 120.658L152.378 118.543L151.817 121.712L151.257 124.881L163.214 126.996L163.775 123.827ZM151.817 121.712L149.34 119.659C147.256 122.173 144.433 124.116 141.049 125.118L141.962 128.204L142.875 131.289C147.521 129.914 151.421 127.234 154.295 123.766L151.817 121.712ZM141.962 128.204L141.049 125.118C131.863 127.837 122.054 122.557 119.192 113.268L116.116 114.215L113.041 115.163C116.927 127.777 130.262 135.023 142.875 131.289L141.962 128.204ZM116.116 114.215L119.192 113.268C117.761 108.623 118.345 103.883 120.434 99.9645L117.594 98.4507L114.754 96.9369C111.883 102.322 111.09 108.831 113.041 115.163L116.116 114.215ZM117.594 98.4507L120.586 97.2665L115.341 84.0126L112.349 85.1968L109.356 86.3809L114.602 99.6348L117.594 98.4507ZM112.349 85.1968L115.341 84.0126C115.124 83.4642 115.393 82.8441 115.94 82.6275L114.756 79.6352L113.572 76.643C109.718 78.168 107.832 82.5285 109.356 86.3809L112.349 85.1968ZM114.756 79.6352L115.94 82.6275L137.384 74.1412L136.199 71.1489L135.015 68.1566L113.572 76.6429L114.756 79.6352ZM136.199 71.1489L139.368 71.7105L139.592 70.4488L136.423 69.8872L133.254 69.3255L133.031 70.5873L136.199 71.1489Z" fill="#460860" mask="url(#path-3-outside-1_120_1917)"/>
</g>
<g filter="url(#filter2_i_120_1917)">
<rect x="110.739" y="81.2061" width="37.6763" height="48.7575" rx="4.28487" transform="rotate(-21.5906 110.739 81.2061)" fill="url(#paint2_linear_120_1917)"/>
</g>
<rect x="113.615" y="82.4512" width="33.2438" height="44.325" rx="1.91692" transform="rotate(-21.5906 113.615 82.4512)" fill="#E74342"/>
<mask id="mask0_120_1917" style="mask-type:alpha" maskUnits="userSpaceOnUse" x="114" y="70" width="47" height="54">
<rect x="113.615" y="82.4512" width="33.2438" height="44.325" rx="1.91692" transform="rotate(-21.5906 113.615 82.4512)" fill="url(#paint3_linear_120_1917)"/>
</mask>
<g mask="url(#mask0_120_1917)">
<path d="M146.113 102.652C146.856 100.938 148.847 100.15 150.562 100.892L156.587 103.5C158.301 104.243 159.089 106.235 158.347 107.949L155.739 113.974C154.997 115.689 153.005 116.477 151.29 115.735L145.265 113.126C143.551 112.384 142.763 110.392 143.505 108.678L146.113 102.652ZM130.129 108.979C130.872 107.264 132.862 106.477 134.577 107.219L140.602 109.826C142.316 110.569 143.104 112.56 142.362 114.275L139.754 120.3C139.011 122.014 137.02 122.802 135.306 122.06L129.281 119.452C127.566 118.709 126.778 116.718 127.52 115.003L130.129 108.979ZM148.883 109.083C147.83 109.499 147.315 110.69 147.731 111.743C148.147 112.795 149.339 113.311 150.391 112.895C151.444 112.478 151.959 111.287 151.543 110.234C151.126 109.182 149.935 108.666 148.883 109.083ZM133.932 112.258C132.879 112.675 132.364 113.867 132.78 114.919C133.197 115.971 134.388 116.487 135.441 116.071C136.493 115.654 137.01 114.463 136.593 113.41C136.177 112.358 134.984 111.841 133.932 112.258ZM151.29 103.721C150.238 104.137 149.722 105.328 150.139 106.381C150.555 107.433 151.746 107.949 152.799 107.533C153.852 107.116 154.367 105.925 153.951 104.872C153.534 103.82 152.343 103.304 151.29 103.721ZM124.007 93.5098C124.749 91.7953 126.741 91.0071 128.455 91.7494L134.48 94.357C136.194 95.0992 136.982 97.091 136.24 98.8055L133.632 104.831C132.889 106.545 130.898 107.333 129.183 106.591L123.159 103.982C121.445 103.24 120.656 101.248 121.399 99.5337L124.007 93.5098ZM139.991 87.183C140.734 85.4687 142.726 84.6804 144.44 85.4225L150.465 88.031C152.179 88.7733 152.968 90.7651 152.226 92.4795L149.617 98.5047C148.875 100.219 146.883 101.007 145.168 100.265L139.143 97.6566C137.429 96.9143 136.641 94.9225 137.383 93.2081L139.991 87.183ZM129.65 101.439C128.598 101.855 128.082 103.047 128.499 104.1C128.915 105.152 130.107 105.668 131.159 105.252C132.212 104.835 132.728 103.644 132.312 102.591C131.895 101.538 130.703 101.022 129.65 101.439ZM144.112 91.3065C143.06 91.7233 142.545 92.9151 142.961 93.9676C143.378 95.02 144.569 95.5355 145.621 95.1194C146.674 94.7028 147.189 93.5118 146.773 92.4591C146.356 91.4065 145.165 90.8899 144.112 91.3065ZM132.512 95.4202C131.46 95.8369 130.944 97.0279 131.361 98.0805C131.777 99.1331 132.969 99.6495 134.021 99.2331C135.074 98.8164 135.589 97.6246 135.173 96.5719C134.756 95.5195 133.565 95.0037 132.512 95.4202ZM123.651 98.9271C122.599 99.3438 122.083 100.535 122.499 101.587C122.916 102.64 124.107 103.155 125.159 102.739C126.212 102.322 126.729 101.131 126.312 100.078C125.895 99.026 124.703 98.5105 123.651 98.9271ZM126.388 93.1963C125.336 93.6131 124.82 94.8041 125.237 95.8566C125.653 96.909 126.844 97.4244 127.897 97.0083C128.95 96.5917 129.466 95.4004 129.05 94.3477C128.633 93.2951 127.441 92.7797 126.388 93.1963ZM117.885 78.0404C118.627 76.3259 120.619 75.5377 122.333 76.2799L128.358 78.8875C130.072 79.6298 130.861 81.6216 130.118 83.336L127.51 89.3612C126.768 91.0756 124.776 91.8639 123.061 91.1217L117.037 88.5128C115.323 87.7705 114.534 85.7788 115.277 84.0643L117.885 78.0404ZM133.87 71.7144C134.612 70.0001 136.604 69.2117 138.318 69.954L144.343 72.5628C146.057 73.3051 146.845 75.2969 146.103 77.0114L143.495 83.0353C142.753 84.7498 140.761 85.538 139.047 84.7957L133.022 82.1881C131.307 81.4459 130.519 79.4541 131.261 77.7396L133.87 71.7144ZM139.545 79.7661C138.493 80.1828 137.978 81.3739 138.394 82.4264C138.81 83.479 140.002 83.9953 141.054 83.579C142.107 83.1624 142.622 81.9706 142.206 80.9179C141.789 79.8656 140.598 79.3496 139.545 79.7661ZM123.412 85.6741C122.359 86.0908 121.844 87.2827 122.26 88.3352C122.677 89.3877 123.868 89.9033 124.92 89.487C125.973 89.0703 126.489 87.8794 126.072 86.8267C125.655 85.7742 124.464 85.2576 123.412 85.6741ZM133.093 77.3151C132.041 77.732 131.525 78.9229 131.941 79.9754C132.358 81.0277 133.549 81.5431 134.602 81.1271C135.654 80.7105 136.171 79.5192 135.754 78.4665C135.338 77.4139 134.146 76.8985 133.093 77.3151ZM137.833 75.4384C136.78 75.8552 136.265 77.0471 136.681 78.0996C137.098 79.1519 138.289 79.6674 139.342 79.2513C140.394 78.8347 140.911 77.6433 140.494 76.5907C140.078 75.5381 138.885 75.0218 137.833 75.4384ZM142.574 73.5623C141.521 73.9789 141.005 75.1712 141.421 76.2238C141.838 77.2762 143.03 77.7915 144.083 77.3751C145.135 76.9584 145.651 75.7674 145.234 74.7149C144.818 73.6624 143.626 73.1459 142.574 73.5623ZM120.435 78.1528C119.383 78.5695 118.867 79.7605 119.283 80.813C119.7 81.8656 120.891 82.381 121.944 81.9647C122.996 81.5481 123.512 80.3572 123.095 79.3045C122.679 78.252 121.488 77.7362 120.435 78.1528ZM136.12 71.1116C135.068 71.5283 134.552 72.7193 134.969 73.7718C135.385 74.8244 136.576 75.3398 137.629 74.9235C138.682 74.5069 139.197 73.3161 138.781 72.2633C138.364 71.2108 137.173 70.695 136.12 71.1116Z" fill="#FFA09F" style="mix-blend-mode:overlay"/>
</g>
<mask id="mask1_120_1917" style="mask-type:alpha" maskUnits="userSpaceOnUse" x="112" y="68" width="51" height="58">
<rect x="110.741" y="81.2053" width="37.6763" height="48.7575" rx="4.28487" transform="rotate(-21.5906 110.741 81.2053)" fill="url(#paint4_linear_120_1917)"/>
</mask>
<g mask="url(#mask1_120_1917)">
<path d="M131.187 106.283L128.775 67.9242L136.934 64.3613L158.416 93.2889L157.279 115.094L138.855 120.082L131.187 106.283Z" fill="#A56363" style="mix-blend-mode:multiply"/>
</g>
<g filter="url(#filter3_i_120_1917)">
<rect x="137.186" y="65.3801" width="40.8958" height="52.924" rx="4.57071" transform="rotate(10.0275 137.186 65.3801)" fill="url(#paint5_linear_120_1917)"/>
</g>
<rect x="139.136" y="68.168" width="36.0846" height="48.1128" rx="2.04479" transform="rotate(10.0275 139.136 68.168)" fill="#E74342"/>
<mask id="mask2_120_1917" style="mask-type:alpha" maskUnits="userSpaceOnUse" x="131" y="68" width="44" height="54">
<rect x="139.136" y="68.168" width="36.0846" height="48.1128" rx="2.04479" transform="rotate(10.0275 139.136 68.168)" fill="url(#paint6_linear_120_1917)"/>
</mask>
<g mask="url(#mask2_120_1917)">
<path d="M139.357 102.049C140.99 100.907 143.24 101.305 144.383 102.938L148.54 108.881C149.682 110.514 149.283 112.764 147.651 113.907L141.708 118.063C140.075 119.206 137.825 118.808 136.682 117.175L132.525 111.232C131.383 109.599 131.781 107.349 133.413 106.207L139.357 102.049ZM157.732 105.297C159.365 104.155 161.615 104.553 162.757 106.186L166.914 112.129C168.057 113.762 167.659 116.013 166.026 117.155L160.082 121.312C158.449 122.454 156.2 122.057 155.058 120.424L150.9 114.48C149.758 112.847 150.156 110.597 151.789 109.455L157.732 105.297ZM156.581 112.853C155.371 112.639 154.217 113.446 154.003 114.656C153.789 115.866 154.596 117.021 155.806 117.235C157.016 117.449 158.171 116.641 158.385 115.431C158.599 114.221 157.791 113.067 156.581 112.853ZM140.954 107.28C139.744 107.066 138.59 107.875 138.376 109.084C138.162 110.294 138.969 111.448 140.179 111.662C141.389 111.876 142.544 111.069 142.758 109.859C142.972 108.649 142.164 107.494 140.954 107.28ZM161.857 109.266C160.647 109.052 159.492 109.86 159.278 111.07C159.064 112.28 159.872 113.435 161.082 113.649C162.292 113.862 163.446 113.054 163.66 111.845C163.874 110.635 163.067 109.48 161.857 109.266ZM142.501 84.2664C144.134 83.1241 146.385 83.5222 147.527 85.155L151.684 91.0984C152.826 92.7315 152.428 94.9807 150.795 96.123L144.852 100.281C143.219 101.423 140.969 101.025 139.827 99.3921L135.669 93.4485C134.528 91.8156 134.925 89.5661 136.558 88.4239L142.501 84.2664ZM160.876 87.5153C162.509 86.3731 164.759 86.7711 165.901 88.4039L170.059 94.3476C171.201 95.9804 170.803 98.2299 169.17 99.3721L163.227 103.53C161.594 104.672 159.343 104.274 158.201 102.641L154.044 96.6974C152.902 95.0646 153.299 92.8151 154.932 91.6728L160.876 87.5153ZM143.153 94.8432C141.943 94.6295 140.789 95.4376 140.575 96.6474C140.361 97.8573 141.168 99.0112 142.378 99.2254C143.588 99.4391 144.743 98.6321 144.957 97.4223C145.171 96.2124 144.363 95.0573 143.153 94.8432ZM162.287 93.7072C161.077 93.4935 159.923 94.3007 159.709 95.5105C159.495 96.7205 160.302 97.8752 161.512 98.0894C162.722 98.3031 163.877 97.4954 164.091 96.2853C164.305 95.0755 163.497 93.9213 162.287 93.7072ZM139.038 89.1074C137.828 88.8935 136.673 89.7016 136.459 90.9115C136.245 92.1216 137.053 93.2766 138.263 93.4906C139.473 93.7041 140.627 92.8962 140.841 91.6864C141.055 90.4766 140.248 89.3217 139.038 89.1074ZM149.224 90.9085C148.014 90.6945 146.859 91.5026 146.645 92.7125C146.431 93.9227 147.239 95.0777 148.449 95.2917C149.659 95.5051 150.813 94.6973 151.027 93.4874C151.241 92.2777 150.434 91.1228 149.224 90.9085ZM144.829 85.3681C143.619 85.1543 142.465 85.9617 142.251 87.1714C142.037 88.3815 142.844 89.5362 144.054 89.7503C145.264 89.964 146.419 89.1563 146.633 87.9462C146.846 86.7365 146.038 85.5822 144.829 85.3681ZM145.646 66.4836C147.279 65.3415 149.529 65.7395 150.671 67.3723L154.829 73.3159C155.971 74.9489 155.573 77.1992 153.94 78.3414L147.997 82.4989C146.364 83.6411 144.113 83.2431 142.971 81.6103L138.814 75.6667C137.672 74.0337 138.069 71.7834 139.702 70.6411L145.646 66.4836ZM164.02 69.7326C165.653 68.5904 167.903 68.9884 169.046 70.6212L173.203 76.5648C174.345 78.1978 173.947 80.4481 172.314 81.5904L166.371 85.7469C164.738 86.8892 162.488 86.4913 161.345 84.8583L157.188 78.9156C156.046 77.2827 156.444 75.0324 158.076 73.8901L164.02 69.7326ZM164.632 80.4413C163.423 80.2276 162.268 81.0357 162.054 82.2455C161.841 83.4554 162.648 84.6094 163.858 84.8235C165.067 85.0372 166.222 84.2302 166.437 83.0204C166.65 81.8105 165.842 80.6554 164.632 80.4413ZM146.358 76.721C145.148 76.5073 143.994 77.3155 143.779 78.5252C143.565 79.7352 144.373 80.89 145.582 81.1041C146.793 81.3179 147.948 80.5101 148.162 79.3001C148.375 78.0902 147.567 76.9351 146.358 76.721ZM160.064 74.5023C158.854 74.2886 157.7 75.0968 157.485 76.3065C157.271 77.5166 158.079 78.6713 159.289 78.8855C160.499 79.0992 161.654 78.2914 161.868 77.0814C162.081 75.8715 161.273 74.7164 160.064 74.5023ZM165.512 75.4667C164.302 75.2528 163.148 76.0611 162.934 77.2709C162.72 78.4809 163.527 79.6349 164.737 79.8489C165.947 80.0626 167.102 79.2556 167.316 78.0458C167.53 76.8359 166.722 75.6808 165.512 75.4667ZM170.961 76.4301C169.751 76.2164 168.597 77.0238 168.383 78.2334C168.169 79.4435 168.976 80.5983 170.186 80.8124C171.396 81.0261 172.551 80.2183 172.765 79.0083C172.978 77.7986 172.17 76.6443 170.961 76.4301ZM147.887 68.075C146.677 67.861 145.523 68.6683 145.308 69.8781C145.094 71.0883 145.902 72.2432 147.112 72.4572C148.322 72.6707 149.477 71.8629 149.691 70.653C149.904 69.4433 149.097 68.2893 147.887 68.075ZM166.392 70.4921C165.182 70.2784 164.028 71.0866 163.814 72.2964C163.6 73.5062 164.407 74.6602 165.617 74.8743C166.827 75.088 167.982 74.281 168.196 73.0712C168.409 71.8613 167.602 70.7063 166.392 70.4921Z" fill="#FFA09F" style="mix-blend-mode:overlay"/>
</g>
<mask id="mask3_120_1917" style="mask-type:alpha" maskUnits="userSpaceOnUse" x="115" y="87" width="42" height="43">
<ellipse cx="20.5823" cy="20.7496" rx="20.5823" ry="20.7496" transform="matrix(0.958878 -0.283819 0.294432 0.955673 109.974 94.3789)" fill="url(#paint7_radial_120_1917)"/>
</mask>
<g mask="url(#mask3_120_1917)">
<g filter="url(#filter4_i_120_1917)">
<ellipse cx="20.5823" cy="20.7496" rx="20.5823" ry="20.7496" transform="matrix(0.958878 -0.283819 0.294432 0.955673 109.974 94.3789)" fill="url(#paint8_radial_120_1917)"/>
</g>
<ellipse cx="12.2656" cy="12.4293" rx="12.2656" ry="12.4293" transform="matrix(0.624618 -0.780931 0.778705 0.62739 117.481 106.905)" fill="url(#paint9_linear_120_1917)"/>
<path d="M124.836 97.0801C129.206 91.6169 137.217 90.7999 142.728 95.2395C148.238 99.6792 149.175 107.705 144.805 113.169C140.435 118.632 132.425 119.449 126.915 115.01C121.404 110.57 120.467 102.543 124.836 97.0801Z" stroke="black" stroke-opacity="0.36" stroke-width="0.785189"/>
<path d="M135.207 113.513C134.395 113.65 133.889 113.191 133.735 112.396L133.469 111.169C133.282 110.305 133.687 109.849 134.552 109.662C135.261 109.488 136.128 109.163 136.814 108.507C137.64 107.716 138.084 106.315 137.091 105.278C136.15 104.294 134.733 104.538 133.591 105.632C133.187 106.018 132.902 106.425 132.705 106.782C132.365 107.377 132.047 107.783 131.422 108.044L131.161 108.159C130.432 108.453 129.833 108.319 129.347 107.706L125.125 102.555C124.589 101.889 124.62 101.253 125.235 100.665L130.367 95.7537C131 95.1483 131.653 95.1626 132.259 95.7953L132.932 96.4983C133.537 97.131 133.523 97.7845 132.89 98.39L129.498 101.636L130.538 102.863C130.773 103.109 130.938 103.423 130.938 103.423L130.973 103.389C130.973 103.389 131.295 102.846 131.77 102.391C134.757 99.5322 138.052 99.9487 140.221 102.216C142.71 104.817 142.594 108.531 139.853 111.155C138.165 112.769 136.381 113.332 135.207 113.513Z" fill="url(#paint10_linear_120_1917)"/>
</g>
<g style="mix-blend-mode:overlay">
<path d="M123.515 95.1351C130.08 88.8533 139.644 88.1938 144.878 93.6626C150.112 99.1317 149.033 108.659 142.469 114.941C135.904 121.222 126.34 121.881 121.106 116.412C115.873 110.943 116.951 101.417 123.515 95.1351Z" fill="url(#paint11_linear_120_1917)"/>
</g>
<path d="M192.052 105V89.49H202.194V91.734H194.868V96.112H201.732V98.356H194.868V105H192.052ZM208.381 105.22C207.604 105.22 206.907 105.073 206.291 104.78C205.69 104.472 205.213 104.061 204.861 103.548C204.524 103.035 204.355 102.455 204.355 101.81C204.355 101.018 204.561 100.395 204.971 99.94C205.382 99.4707 206.049 99.1333 206.973 98.928C207.897 98.7227 209.137 98.62 210.691 98.62H211.791V100.204H210.713C210.024 100.204 209.445 100.233 208.975 100.292C208.506 100.336 208.125 100.417 207.831 100.534C207.553 100.637 207.347 100.783 207.215 100.974C207.098 101.165 207.039 101.399 207.039 101.678C207.039 102.162 207.208 102.558 207.545 102.866C207.883 103.174 208.352 103.328 208.953 103.328C209.437 103.328 209.863 103.218 210.229 102.998C210.611 102.763 210.911 102.448 211.131 102.052C211.351 101.656 211.461 101.201 211.461 100.688V98.158C211.461 97.4247 211.3 96.8967 210.977 96.574C210.655 96.2513 210.112 96.09 209.349 96.09C208.748 96.09 208.132 96.1853 207.501 96.376C206.871 96.552 206.233 96.8307 205.587 97.212L204.795 95.342C205.177 95.078 205.624 94.8507 206.137 94.66C206.665 94.4547 207.215 94.3007 207.787 94.198C208.374 94.0807 208.924 94.022 209.437 94.022C210.493 94.022 211.359 94.1833 212.033 94.506C212.723 94.8287 213.236 95.32 213.573 95.98C213.911 96.6253 214.079 97.4613 214.079 98.488V105H211.505V102.712H211.681C211.579 103.225 211.373 103.673 211.065 104.054C210.772 104.421 210.398 104.707 209.943 104.912C209.489 105.117 208.968 105.22 208.381 105.22ZM218.042 105V94.242H220.726V96.398H220.484C220.674 95.8993 220.938 95.474 221.276 95.122C221.613 94.77 222.016 94.4987 222.486 94.308C222.955 94.1173 223.476 94.022 224.048 94.022C224.913 94.022 225.624 94.2273 226.182 94.638C226.739 95.0487 227.128 95.6793 227.348 96.53H227.04C227.333 95.7527 227.817 95.144 228.492 94.704C229.166 94.2493 229.944 94.022 230.824 94.022C231.645 94.022 232.32 94.1833 232.848 94.506C233.39 94.8287 233.794 95.32 234.058 95.98C234.322 96.6253 234.454 97.4467 234.454 98.444V105H231.704V98.554C231.704 97.7327 231.564 97.1313 231.286 96.75C231.022 96.3687 230.567 96.178 229.922 96.178C229.452 96.178 229.042 96.2953 228.69 96.53C228.338 96.75 228.066 97.0727 227.876 97.498C227.7 97.9233 227.612 98.4367 227.612 99.038V105H224.862V98.554C224.862 97.7327 224.722 97.1313 224.444 96.75C224.18 96.3687 223.732 96.178 223.102 96.178C222.618 96.178 222.2 96.2953 221.848 96.53C221.51 96.75 221.246 97.0727 221.056 97.498C220.88 97.9233 220.792 98.4367 220.792 99.038V105H218.042ZM238.242 91.932V89.248H241.322V91.932H238.242ZM238.418 105V94.242H241.168V105H238.418ZM248.893 105.22C247.617 105.22 246.671 104.875 246.055 104.186C245.453 103.482 245.153 102.455 245.153 101.106V89.49H247.903V100.974C247.903 101.399 247.961 101.766 248.079 102.074C248.211 102.367 248.401 102.587 248.651 102.734C248.9 102.881 249.208 102.954 249.575 102.954C249.736 102.954 249.897 102.947 250.059 102.932C250.22 102.917 250.374 102.888 250.521 102.844L250.477 105.022C250.213 105.081 249.949 105.125 249.685 105.154C249.435 105.198 249.171 105.22 248.893 105.22ZM253.994 108.96L256.238 104.01V105.154L251.508 94.242H254.434L257.778 102.58H257.118L260.528 94.242H263.3L256.832 108.96H253.994ZM280.512 105.22C278.796 105.22 277.344 104.897 276.156 104.252C274.983 103.607 274.088 102.69 273.472 101.502C272.856 100.314 272.548 98.906 272.548 97.278C272.548 95.6353 272.863 94.22 273.494 93.032C274.125 91.8293 275.034 90.9053 276.222 90.26C277.41 89.6 278.833 89.27 280.49 89.27C281.223 89.27 281.92 89.3433 282.58 89.49C283.255 89.622 283.878 89.82 284.45 90.084C285.022 90.348 285.513 90.6707 285.924 91.052L284.978 93.252C284.289 92.7093 283.585 92.3207 282.866 92.086C282.147 91.8513 281.355 91.734 280.49 91.734C278.847 91.734 277.601 92.2107 276.75 93.164C275.914 94.1173 275.496 95.4887 275.496 97.278C275.496 99.082 275.929 100.453 276.794 101.392C277.659 102.331 278.943 102.8 280.644 102.8C281.231 102.8 281.825 102.741 282.426 102.624C283.027 102.507 283.614 102.345 284.186 102.14L283.636 103.394V98.708H280.072V96.618H285.99V104.076C285.521 104.311 284.978 104.516 284.362 104.692C283.761 104.853 283.13 104.978 282.47 105.066C281.81 105.169 281.157 105.22 280.512 105.22ZM293.658 105.22C292.881 105.22 292.184 105.073 291.568 104.78C290.967 104.472 290.49 104.061 290.138 103.548C289.801 103.035 289.632 102.455 289.632 101.81C289.632 101.018 289.838 100.395 290.248 99.94C290.659 99.4707 291.326 99.1333 292.25 98.928C293.174 98.7227 294.414 98.62 295.968 98.62H297.068V100.204H295.99C295.301 100.204 294.722 100.233 294.252 100.292C293.783 100.336 293.402 100.417 293.108 100.534C292.83 100.637 292.624 100.783 292.492 100.974C292.375 101.165 292.316 101.399 292.316 101.678C292.316 102.162 292.485 102.558 292.822 102.866C293.16 103.174 293.629 103.328 294.23 103.328C294.714 103.328 295.14 103.218 295.506 102.998C295.888 102.763 296.188 102.448 296.408 102.052C296.628 101.656 296.738 101.201 296.738 100.688V98.158C296.738 97.4247 296.577 96.8967 296.254 96.574C295.932 96.2513 295.389 96.09 294.626 96.09C294.025 96.09 293.409 96.1853 292.778 96.376C292.148 96.552 291.51 96.8307 290.864 97.212L290.072 95.342C290.454 95.078 290.901 94.8507 291.414 94.66C291.942 94.4547 292.492 94.3007 293.064 94.198C293.651 94.0807 294.201 94.022 294.714 94.022C295.77 94.022 296.636 94.1833 297.31 94.506C298 94.8287 298.513 95.32 298.85 95.98C299.188 96.6253 299.356 97.4613 299.356 98.488V105H296.782V102.712H296.958C296.856 103.225 296.65 103.673 296.342 104.054C296.049 104.421 295.675 104.707 295.22 104.912C294.766 105.117 294.245 105.22 293.658 105.22ZM303.319 105V94.242H306.003V96.398H305.761C305.951 95.8993 306.215 95.474 306.553 95.122C306.89 94.77 307.293 94.4987 307.763 94.308C308.232 94.1173 308.753 94.022 309.325 94.022C310.19 94.022 310.901 94.2273 311.459 94.638C312.016 95.0487 312.405 95.6793 312.625 96.53H312.317C312.61 95.7527 313.094 95.144 313.769 94.704C314.443 94.2493 315.221 94.022 316.101 94.022C316.922 94.022 317.597 94.1833 318.125 94.506C318.667 94.8287 319.071 95.32 319.335 95.98C319.599 96.6253 319.731 97.4467 319.731 98.444V105H316.981V98.554C316.981 97.7327 316.841 97.1313 316.563 96.75C316.299 96.3687 315.844 96.178 315.199 96.178C314.729 96.178 314.319 96.2953 313.967 96.53C313.615 96.75 313.343 97.0727 313.153 97.498C312.977 97.9233 312.889 98.4367 312.889 99.038V105H310.139V98.554C310.139 97.7327 309.999 97.1313 309.721 96.75C309.457 96.3687 309.009 96.178 308.379 96.178C307.895 96.178 307.477 96.2953 307.125 96.53C306.787 96.75 306.523 97.0727 306.333 97.498C306.157 97.9233 306.069 98.4367 306.069 99.038V105H303.319ZM328.997 105.22C327.779 105.22 326.731 104.993 325.851 104.538C324.971 104.083 324.289 103.438 323.805 102.602C323.335 101.766 323.101 100.776 323.101 99.632C323.101 98.5173 323.328 97.542 323.783 96.706C324.252 95.87 324.89 95.2173 325.697 94.748C326.518 94.264 327.449 94.022 328.491 94.022C329.517 94.022 330.397 94.242 331.131 94.682C331.864 95.122 332.429 95.7453 332.825 96.552C333.235 97.3587 333.441 98.3193 333.441 99.434V100.248H325.323V98.664H331.505L331.153 98.994C331.153 97.9967 330.933 97.234 330.493 96.706C330.053 96.1633 329.422 95.892 328.601 95.892C327.985 95.892 327.457 96.0387 327.017 96.332C326.591 96.6107 326.261 97.014 326.027 97.542C325.807 98.0553 325.697 98.6713 325.697 99.39V99.544C325.697 100.351 325.821 101.018 326.071 101.546C326.32 102.074 326.694 102.47 327.193 102.734C327.691 102.998 328.307 103.13 329.041 103.13C329.642 103.13 330.243 103.042 330.845 102.866C331.446 102.675 331.996 102.382 332.495 101.986L333.265 103.834C332.751 104.259 332.106 104.597 331.329 104.846C330.551 105.095 329.774 105.22 328.997 105.22ZM340.684 105.22C340.082 105.22 339.496 105.169 338.924 105.066C338.366 104.963 337.853 104.824 337.384 104.648C336.914 104.457 336.504 104.223 336.152 103.944L336.856 102.14C337.222 102.375 337.618 102.58 338.044 102.756C338.469 102.932 338.909 103.064 339.364 103.152C339.818 103.24 340.266 103.284 340.706 103.284C341.41 103.284 341.93 103.167 342.268 102.932C342.62 102.683 342.796 102.36 342.796 101.964C342.796 101.627 342.678 101.37 342.444 101.194C342.224 101.003 341.886 100.864 341.432 100.776L339.232 100.358C338.322 100.182 337.626 99.852 337.142 99.368C336.672 98.8693 336.438 98.2313 336.438 97.454C336.438 96.75 336.628 96.1413 337.01 95.628C337.406 95.1147 337.948 94.7187 338.638 94.44C339.327 94.1613 340.119 94.022 341.014 94.022C341.527 94.022 342.026 94.0733 342.51 94.176C342.994 94.264 343.448 94.4033 343.874 94.594C344.314 94.77 344.695 95.0047 345.018 95.298L344.27 97.102C343.991 96.8673 343.668 96.6693 343.302 96.508C342.935 96.332 342.554 96.2 342.158 96.112C341.776 96.0093 341.402 95.958 341.036 95.958C340.317 95.958 339.782 96.0827 339.43 96.332C339.092 96.5813 338.924 96.9113 338.924 97.322C338.924 97.63 339.026 97.8867 339.232 98.092C339.437 98.2973 339.752 98.4367 340.178 98.51L342.378 98.928C343.331 99.104 344.05 99.4267 344.534 99.896C345.032 100.365 345.282 100.996 345.282 101.788C345.282 102.507 345.091 103.123 344.71 103.636C344.328 104.149 343.793 104.545 343.104 104.824C342.414 105.088 341.608 105.22 340.684 105.22Z" fill="#202224"/>
<mask id="mask4_120_1917" style="mask-type:alpha" maskUnits="userSpaceOnUse" x="55" y="54" width="59" height="88">
<path d="M56.3948 68.98C56.3948 61.8113 62.2061 56 69.3748 56H87.4123C101.21 56 112.395 67.185 112.395 80.9825V115.018C112.395 128.815 101.21 140 87.4123 140H69.3748C62.2061 140 56.3948 134.189 56.3948 127.02V68.98Z" fill="white" stroke="url(#paint12_linear_120_1917)" stroke-opacity="0.3" stroke-width="2.60316"/>
</mask>
<g mask="url(#mask4_120_1917)">
<rect x="54.3948" y="54.3848" width="28" height="87.2308" fill="#587ED7"/>
</g>
<defs>
<filter id="filter0_d_120_1917" x="0.9894" y="0.594686" width="430.337" height="208.337" filterUnits="userSpaceOnUse" color-interpolation-filters="sRGB">
<feFlood flood-opacity="0" result="BackgroundImageFix"/>
<feColorMatrix in="SourceAlpha" type="matrix" values="0 0 0 0 0 0 0 0 0 0 0 0 0 0 0 0 0 0 127 0" result="hardAlpha"/>
<feOffset dx="6.76297" dy="6.76297"/>
<feGaussianBlur stdDeviation="30.4334"/>
<feColorMatrix type="matrix" values="0 0 0 0 0 0 0 0 0 0 0 0 0 0 0 0 0 0 0.05 0"/>
<feBlend mode="normal" in2="BackgroundImageFix" result="effect1_dropShadow_120_1917"/>
<feBlend mode="normal" in="SourceGraphic" in2="effect1_dropShadow_120_1917" result="shape"/>
</filter>
<filter id="filter1_di_120_1917" x="108.828" y="62.8928" width="71.1556" height="72.45" filterUnits="userSpaceOnUse" color-interpolation-filters="sRGB">
<feFlood flood-opacity="0" result="BackgroundImageFix"/>
<feColorMatrix in="SourceAlpha" type="matrix" values="0 0 0 0 0 0 0 0 0 0 0 0 0 0 0 0 0 0 127 0" result="hardAlpha"/>
<feOffset dy="3.07182"/>
<feComposite in2="hardAlpha" operator="out"/>
<feColorMatrix type="matrix" values="0 0 0 0 0.176471 0 0 0 0 0.0352941 0 0 0 0 0.262745 0 0 0 1 0"/>
<feBlend mode="normal" in2="BackgroundImageFix" result="effect1_dropShadow_120_1917"/>
<feBlend mode="normal" in="SourceGraphic" in2="effect1_dropShadow_120_1917" result="shape"/>
<feColorMatrix in="SourceAlpha" type="matrix" values="0 0 0 0 0 0 0 0 0 0 0 0 0 0 0 0 0 0 127 0" result="hardAlpha"/>
<feOffset dx="0.481127" dy="-0.841973"/>
<feComposite in2="hardAlpha" operator="arithmetic" k2="-1" k3="1"/>
<feColorMatrix type="matrix" values="0 0 0 0 0 0 0 0 0 0 0 0 0 0 0 0 0 0 0.25 0"/>
<feBlend mode="normal" in2="shape" result="effect2_innerShadow_120_1917"/>
</filter>
<filter id="filter2_i_120_1917" x="112.014" y="68.6172" width="50.4244" height="56.6504" filterUnits="userSpaceOnUse" color-interpolation-filters="sRGB">
<feFlood flood-opacity="0" result="BackgroundImageFix"/>
<feBlend mode="normal" in="SourceGraphic" in2="BackgroundImageFix" result="shape"/>
<feColorMatrix in="SourceAlpha" type="matrix" values="0 0 0 0 0 0 0 0 0 0 0 0 0 0 0 0 0 0 127 0" result="hardAlpha"/>
<feOffset dx="0.451039" dy="-0.789319"/>
<feComposite in2="hardAlpha" operator="arithmetic" k2="-1" k3="1"/>
<feColorMatrix type="matrix" values="0 0 0 0 0 0 0 0 0 0 0 0 0 0 0 0 0 0 0.25 0"/>
<feBlend mode="normal" in2="shape" result="effect1_innerShadow_120_1917"/>
</filter>
<filter id="filter3_i_120_1917" x="128.696" y="66.1055" width="48.0358" height="57.7859" filterUnits="userSpaceOnUse" color-interpolation-filters="sRGB">
<feFlood flood-opacity="0" result="BackgroundImageFix"/>
<feBlend mode="normal" in="SourceGraphic" in2="BackgroundImageFix" result="shape"/>
<feColorMatrix in="SourceAlpha" type="matrix" values="0 0 0 0 0 0 0 0 0 0 0 0 0 0 0 0 0 0 127 0" result="hardAlpha"/>
<feOffset dx="0.481127" dy="-0.841973"/>
<feComposite in2="hardAlpha" operator="arithmetic" k2="-1" k3="1"/>
<feColorMatrix type="matrix" values="0 0 0 0 0 0 0 0 0 0 0 0 0 0 0 0 0 0 0.25 0"/>
<feBlend mode="normal" in2="shape" result="effect1_innerShadow_120_1917"/>
</filter>
<filter id="filter4_i_120_1917" x="115.154" y="85.5954" width="41.3308" height="43.4495" filterUnits="userSpaceOnUse" color-interpolation-filters="sRGB">
<feFlood flood-opacity="0" result="BackgroundImageFix"/>
<feBlend mode="normal" in="SourceGraphic" in2="BackgroundImageFix" result="shape"/>
<feColorMatrix in="SourceAlpha" type="matrix" values="0 0 0 0 0 0 0 0 0 0 0 0 0 0 0 0 0 0 127 0" result="hardAlpha"/>
<feOffset dy="-2.09384"/>
<feGaussianBlur stdDeviation="3.53335"/>
<feComposite in2="hardAlpha" operator="arithmetic" k2="-1" k3="1"/>
<feColorMatrix type="matrix" values="0 0 0 0 0 0 0 0 0 0 0 0 0 0 0 0 0 0 0.35 0"/>
<feBlend mode="normal" in2="shape" result="effect1_innerShadow_120_1917"/>
</filter>
<linearGradient id="paint0_linear_120_1917" x1="126.169" y1="25.6597" x2="274.163" y2="197.283" gradientUnits="userSpaceOnUse">
<stop stop-color="#F1F1F1"/>
<stop offset="1" stop-color="#E1E1E1"/>
</linearGradient>
<linearGradient id="paint1_linear_120_1917" x1="157.355" y1="68.9468" x2="148.139" y2="121.063" gradientUnits="userSpaceOnUse">
<stop stop-color="#FFF9E2"/>
<stop offset="1" stop-color="#FCE5C3"/>
</linearGradient>
<linearGradient id="paint2_linear_120_1917" x1="129.577" y1="81.2061" x2="129.577" y2="129.964" gradientUnits="userSpaceOnUse">
<stop stop-color="#FFF9E2"/>
<stop offset="1" stop-color="#FCE5C3"/>
</linearGradient>
<linearGradient id="paint3_linear_120_1917" x1="130.237" y1="82.4512" x2="130.237" y2="126.776" gradientUnits="userSpaceOnUse">
<stop stop-color="#E74443"/>
<stop offset="1" stop-color="#CC0A09"/>
</linearGradient>
<linearGradient id="paint4_linear_120_1917" x1="129.579" y1="81.2053" x2="129.579" y2="129.963" gradientUnits="userSpaceOnUse">
<stop stop-color="#FFF9E2"/>
<stop offset="1" stop-color="#FCE5C3"/>
</linearGradient>
<linearGradient id="paint5_linear_120_1917" x1="157.634" y1="65.3801" x2="157.634" y2="118.304" gradientUnits="userSpaceOnUse">
<stop stop-color="#FFF9E2"/>
<stop offset="1" stop-color="#FCE5C3"/>
</linearGradient>
<linearGradient id="paint6_linear_120_1917" x1="157.179" y1="68.168" x2="157.179" y2="116.281" gradientUnits="userSpaceOnUse">
<stop stop-color="#E74443"/>
<stop offset="1" stop-color="#CC0A09"/>
</linearGradient>
<radialGradient id="paint7_radial_120_1917" cx="0" cy="0" r="1" gradientUnits="userSpaceOnUse" gradientTransform="translate(20.4529 12.3976) rotate(75.3868) scale(33.6726 33.5786)">
<stop offset="0.135417" stop-color="#00E0FF"/>
<stop offset="1" stop-color="#0055A3"/>
</radialGradient>
<radialGradient id="paint8_radial_120_1917" cx="0" cy="0" r="1" gradientUnits="userSpaceOnUse" gradientTransform="translate(20.4529 12.3976) rotate(75.3868) scale(33.6726 33.5786)">
<stop offset="0.135417" stop-color="#00E0FF"/>
<stop offset="1" stop-color="#0055A3"/>
</radialGradient>
<linearGradient id="paint9_linear_120_1917" x1="12.2656" y1="0" x2="12.2656" y2="24.8586" gradientUnits="userSpaceOnUse">
<stop stop-color="white"/>
<stop offset="1" stop-color="#C6C6C6" stop-opacity="0.47"/>
</linearGradient>
<linearGradient id="paint10_linear_120_1917" x1="124.078" y1="94.0111" x2="152.889" y2="124.369" gradientUnits="userSpaceOnUse">
<stop stop-color="#1A3699"/>
<stop offset="1" stop-color="#1A4C99" stop-opacity="0"/>
</linearGradient>
<linearGradient id="paint11_linear_120_1917" x1="123.516" y1="95.1348" x2="142.469" y2="114.94" gradientUnits="userSpaceOnUse">
<stop stop-color="white"/>
<stop offset="1" stop-color="#D9D9D9" stop-opacity="0"/>
</linearGradient>
<linearGradient id="paint12_linear_120_1917" x1="69.164" y1="25.6597" x2="129.934" y2="38.5566" gradientUnits="userSpaceOnUse">
<stop stop-color="#F1F1F1"/>
<stop offset="1" stop-color="#E1E1E1"/>
</linearGradient>
</defs>
</svg>
