<svg width="602" height="209" viewBox="0 0 602 209" fill="none" xmlns="http://www.w3.org/2000/svg">
<g filter="url(#filter0_d_120_1872)">
<rect x="55.8684" y="56" width="476.533" height="83.7568" rx="12.98" fill="white"/>
<rect x="55.8684" y="56" width="476.533" height="83.7568" rx="12.98" stroke="url(#paint0_linear_120_1872)" stroke-opacity="0.3" stroke-width="2.60316"/>
</g>
<path d="M104.919 105L111.937 89.49H114.247L121.265 105H118.405L116.535 100.644L117.723 101.414H108.439L109.627 100.644L107.779 105H104.919ZM113.059 92.548L109.979 99.874L109.407 99.17H116.755L116.205 99.874L113.103 92.548H113.059ZM124.69 106.562L122.622 105.946L128.32 88.28L130.388 88.896L124.69 106.562ZM132.779 105V89.49H139.555C141.183 89.49 142.445 89.8493 143.339 90.568C144.234 91.272 144.681 92.2547 144.681 93.516C144.681 94.4547 144.41 95.2467 143.867 95.892C143.325 96.5373 142.584 96.97 141.645 97.19V96.86C142.364 96.9627 142.98 97.1827 143.493 97.52C144.007 97.8573 144.395 98.29 144.659 98.818C144.938 99.346 145.077 99.962 145.077 100.666C145.077 101.575 144.865 102.36 144.439 103.02C144.029 103.665 143.427 104.157 142.635 104.494C141.843 104.831 140.897 105 139.797 105H132.779ZM135.485 102.866H139.445C139.841 102.866 140.193 102.837 140.501 102.778C140.824 102.719 141.095 102.631 141.315 102.514C141.55 102.382 141.741 102.221 141.887 102.03C142.049 101.839 142.166 101.619 142.239 101.37C142.313 101.121 142.349 100.842 142.349 100.534C142.349 100.211 142.313 99.9253 142.239 99.676C142.166 99.4267 142.049 99.214 141.887 99.038C141.741 98.8473 141.55 98.6933 141.315 98.576C141.095 98.444 140.824 98.3487 140.501 98.29C140.193 98.2313 139.841 98.202 139.445 98.202H135.485V102.866ZM135.485 96.068H139.071C140.039 96.068 140.758 95.8847 141.227 95.518C141.711 95.1367 141.953 94.5793 141.953 93.846C141.953 93.1127 141.711 92.5627 141.227 92.196C140.758 91.8147 140.039 91.624 139.071 91.624H135.485V96.068ZM159.85 105V91.844H154.526V89.49H167.99V91.844H162.666V105H159.85ZM174.22 105.22C173.003 105.22 171.954 104.993 171.074 104.538C170.194 104.083 169.512 103.438 169.028 102.602C168.559 101.766 168.324 100.776 168.324 99.632C168.324 98.5173 168.552 97.542 169.006 96.706C169.476 95.87 170.114 95.2173 170.92 94.748C171.742 94.264 172.673 94.022 173.714 94.022C174.741 94.022 175.621 94.242 176.354 94.682C177.088 95.122 177.652 95.7453 178.048 96.552C178.459 97.3587 178.664 98.3193 178.664 99.434V100.248H170.546V98.664H176.728L176.376 98.994C176.376 97.9967 176.156 97.234 175.716 96.706C175.276 96.1633 174.646 95.892 173.824 95.892C173.208 95.892 172.68 96.0387 172.24 96.332C171.815 96.6107 171.485 97.014 171.25 97.542C171.03 98.0553 170.92 98.6713 170.92 99.39V99.544C170.92 100.351 171.045 101.018 171.294 101.546C171.544 102.074 171.918 102.47 172.416 102.734C172.915 102.998 173.531 103.13 174.264 103.13C174.866 103.13 175.467 103.042 176.068 102.866C176.67 102.675 177.22 102.382 177.718 101.986L178.488 103.834C177.975 104.259 177.33 104.597 176.552 104.846C175.775 105.095 174.998 105.22 174.22 105.22ZM185.907 105.22C185.306 105.22 184.719 105.169 184.147 105.066C183.59 104.963 183.077 104.824 182.607 104.648C182.138 104.457 181.727 104.223 181.375 103.944L182.079 102.14C182.446 102.375 182.842 102.58 183.267 102.756C183.693 102.932 184.133 103.064 184.587 103.152C185.042 103.24 185.489 103.284 185.929 103.284C186.633 103.284 187.154 103.167 187.491 102.932C187.843 102.683 188.019 102.36 188.019 101.964C188.019 101.627 187.902 101.37 187.667 101.194C187.447 101.003 187.11 100.864 186.655 100.776L184.455 100.358C183.546 100.182 182.849 99.852 182.365 99.368C181.896 98.8693 181.661 98.2313 181.661 97.454C181.661 96.75 181.852 96.1413 182.233 95.628C182.629 95.1147 183.172 94.7187 183.861 94.44C184.551 94.1613 185.343 94.022 186.237 94.022C186.751 94.022 187.249 94.0733 187.733 94.176C188.217 94.264 188.672 94.4033 189.097 94.594C189.537 94.77 189.919 95.0047 190.241 95.298L189.493 97.102C189.215 96.8673 188.892 96.6693 188.525 96.508C188.159 96.332 187.777 96.2 187.381 96.112C187 96.0093 186.626 95.958 186.259 95.958C185.541 95.958 185.005 96.0827 184.653 96.332C184.316 96.5813 184.147 96.9113 184.147 97.322C184.147 97.63 184.25 97.8867 184.455 98.092C184.661 98.2973 184.976 98.4367 185.401 98.51L187.601 98.928C188.555 99.104 189.273 99.4267 189.757 99.896C190.256 100.365 190.505 100.996 190.505 101.788C190.505 102.507 190.315 103.123 189.933 103.636C189.552 104.149 189.017 104.545 188.327 104.824C187.638 105.088 186.831 105.22 185.907 105.22ZM198.659 105.22C197.222 105.22 196.151 104.861 195.447 104.142C194.743 103.423 194.391 102.375 194.391 100.996V96.31H192.323V94.242H194.391V91.03H197.141V94.242H200.397V96.31H197.141V100.842C197.141 101.546 197.295 102.074 197.603 102.426C197.911 102.778 198.41 102.954 199.099 102.954C199.305 102.954 199.517 102.932 199.737 102.888C199.957 102.829 200.185 102.771 200.419 102.712L200.837 104.736C200.573 104.883 200.236 105 199.825 105.088C199.429 105.176 199.041 105.22 198.659 105.22ZM215.661 105.22C214.443 105.22 213.395 104.993 212.515 104.538C211.635 104.083 210.953 103.438 210.469 102.602C209.999 101.766 209.765 100.776 209.765 99.632C209.765 98.5173 209.992 97.542 210.447 96.706C210.916 95.87 211.554 95.2173 212.361 94.748C213.182 94.264 214.113 94.022 215.155 94.022C216.181 94.022 217.061 94.242 217.795 94.682C218.528 95.122 219.093 95.7453 219.489 96.552C219.899 97.3587 220.105 98.3193 220.105 99.434V100.248H211.987V98.664H218.169L217.817 98.994C217.817 97.9967 217.597 97.234 217.157 96.706C216.717 96.1633 216.086 95.892 215.265 95.892C214.649 95.892 214.121 96.0387 213.681 96.332C213.255 96.6107 212.925 97.014 212.691 97.542C212.471 98.0553 212.361 98.6713 212.361 99.39V99.544C212.361 100.351 212.485 101.018 212.735 101.546C212.984 102.074 213.358 102.47 213.857 102.734C214.355 102.998 214.971 103.13 215.705 103.13C216.306 103.13 216.907 103.042 217.509 102.866C218.11 102.675 218.66 102.382 219.159 101.986L219.929 103.834C219.415 104.259 218.77 104.597 217.993 104.846C217.215 105.095 216.438 105.22 215.661 105.22ZM221.849 105L226.887 98.796V100.094L222.135 94.242H225.347L228.427 98.18H227.459L230.539 94.242H233.751L228.999 100.072V98.84L234.037 105H230.803L227.459 100.776H228.383L225.061 105H221.849ZM239.96 105.22C239.182 105.22 238.486 105.073 237.87 104.78C237.268 104.472 236.792 104.061 236.44 103.548C236.102 103.035 235.934 102.455 235.934 101.81C235.934 101.018 236.139 100.395 236.55 99.94C236.96 99.4707 237.628 99.1333 238.552 98.928C239.476 98.7227 240.715 98.62 242.27 98.62H243.37V100.204H242.292C241.602 100.204 241.023 100.233 240.554 100.292C240.084 100.336 239.703 100.417 239.41 100.534C239.131 100.637 238.926 100.783 238.794 100.974C238.676 101.165 238.618 101.399 238.618 101.678C238.618 102.162 238.786 102.558 239.124 102.866C239.461 103.174 239.93 103.328 240.532 103.328C241.016 103.328 241.441 103.218 241.808 102.998C242.189 102.763 242.49 102.448 242.71 102.052C242.93 101.656 243.04 101.201 243.04 100.688V98.158C243.04 97.4247 242.878 96.8967 242.556 96.574C242.233 96.2513 241.69 96.09 240.928 96.09C240.326 96.09 239.71 96.1853 239.08 96.376C238.449 96.552 237.811 96.8307 237.166 97.212L236.374 95.342C236.755 95.078 237.202 94.8507 237.716 94.66C238.244 94.4547 238.794 94.3007 239.366 94.198C239.952 94.0807 240.502 94.022 241.016 94.022C242.072 94.022 242.937 94.1833 243.612 94.506C244.301 94.8287 244.814 95.32 245.152 95.98C245.489 96.6253 245.658 97.4613 245.658 98.488V105H243.084V102.712H243.26C243.157 103.225 242.952 103.673 242.644 104.054C242.35 104.421 241.976 104.707 241.522 104.912C241.067 105.117 240.546 105.22 239.96 105.22ZM249.62 105V94.242H252.304V96.398H252.062C252.253 95.8993 252.517 95.474 252.854 95.122C253.191 94.77 253.595 94.4987 254.064 94.308C254.533 94.1173 255.054 94.022 255.626 94.022C256.491 94.022 257.203 94.2273 257.76 94.638C258.317 95.0487 258.706 95.6793 258.926 96.53H258.618C258.911 95.7527 259.395 95.144 260.07 94.704C260.745 94.2493 261.522 94.022 262.402 94.022C263.223 94.022 263.898 94.1833 264.426 94.506C264.969 94.8287 265.372 95.32 265.636 95.98C265.9 96.6253 266.032 97.4467 266.032 98.444V105H263.282V98.554C263.282 97.7327 263.143 97.1313 262.864 96.75C262.6 96.3687 262.145 96.178 261.5 96.178C261.031 96.178 260.62 96.2953 260.268 96.53C259.916 96.75 259.645 97.0727 259.454 97.498C259.278 97.9233 259.19 98.4367 259.19 99.038V105H256.44V98.554C256.44 97.7327 256.301 97.1313 256.022 96.75C255.758 96.3687 255.311 96.178 254.68 96.178C254.196 96.178 253.778 96.2953 253.426 96.53C253.089 96.75 252.825 97.0727 252.634 97.498C252.458 97.9233 252.37 98.4367 252.37 99.038V105H249.62ZM269.996 108.96V94.242H272.68V96.508H272.46C272.68 95.76 273.128 95.1587 273.802 94.704C274.492 94.2493 275.291 94.022 276.2 94.022C277.139 94.022 277.96 94.2493 278.664 94.704C279.383 95.1587 279.94 95.804 280.336 96.64C280.732 97.4613 280.93 98.4513 280.93 99.61C280.93 100.754 280.732 101.751 280.336 102.602C279.94 103.438 279.39 104.083 278.686 104.538C277.982 104.993 277.154 105.22 276.2 105.22C275.306 105.22 274.521 105 273.846 104.56C273.172 104.105 272.717 103.519 272.482 102.8H272.746V108.96H269.996ZM275.43 103.13C276.252 103.13 276.912 102.837 277.41 102.25C277.909 101.649 278.158 100.769 278.158 99.61C278.158 98.4367 277.909 97.564 277.41 96.992C276.912 96.4053 276.252 96.112 275.43 96.112C274.609 96.112 273.949 96.4053 273.45 96.992C272.952 97.564 272.702 98.4367 272.702 99.61C272.702 100.769 272.952 101.649 273.45 102.25C273.949 102.837 274.609 103.13 275.43 103.13ZM288.055 105.22C286.779 105.22 285.833 104.875 285.217 104.186C284.615 103.482 284.315 102.455 284.315 101.106V89.49H287.065V100.974C287.065 101.399 287.123 101.766 287.241 102.074C287.373 102.367 287.563 102.587 287.813 102.734C288.062 102.881 288.37 102.954 288.737 102.954C288.898 102.954 289.059 102.947 289.221 102.932C289.382 102.917 289.536 102.888 289.683 102.844L289.639 105.022C289.375 105.081 289.111 105.125 288.847 105.154C288.597 105.198 288.333 105.22 288.055 105.22ZM297.662 105.22C296.445 105.22 295.396 104.993 294.516 104.538C293.636 104.083 292.954 103.438 292.47 102.602C292.001 101.766 291.766 100.776 291.766 99.632C291.766 98.5173 291.993 97.542 292.448 96.706C292.917 95.87 293.555 95.2173 294.362 94.748C295.183 94.264 296.115 94.022 297.156 94.022C298.183 94.022 299.063 94.242 299.796 94.682C300.529 95.122 301.094 95.7453 301.49 96.552C301.901 97.3587 302.106 98.3193 302.106 99.434V100.248H293.988V98.664H300.17L299.818 98.994C299.818 97.9967 299.598 97.234 299.158 96.706C298.718 96.1633 298.087 95.892 297.266 95.892C296.65 95.892 296.122 96.0387 295.682 96.332C295.257 96.6107 294.927 97.014 294.692 97.542C294.472 98.0553 294.362 98.6713 294.362 99.39V99.544C294.362 100.351 294.487 101.018 294.736 101.546C294.985 102.074 295.359 102.47 295.858 102.734C296.357 102.998 296.973 103.13 297.706 103.13C298.307 103.13 298.909 103.042 299.51 102.866C300.111 102.675 300.661 102.382 301.16 101.986L301.93 103.834C301.417 104.259 300.771 104.597 299.994 104.846C299.217 105.095 298.439 105.22 297.662 105.22ZM317.638 105.22C316.42 105.22 315.386 104.912 314.536 104.296C313.7 103.665 313.062 102.756 312.622 101.568C312.196 100.38 311.984 98.928 311.984 97.212C311.984 95.4813 312.196 94.0293 312.622 92.856C313.062 91.668 313.7 90.7733 314.536 90.172C315.386 89.5707 316.42 89.27 317.638 89.27C318.87 89.27 319.904 89.5707 320.74 90.172C321.59 90.7733 322.228 91.6607 322.654 92.834C323.079 94.0073 323.292 95.4593 323.292 97.19C323.292 98.906 323.072 100.365 322.632 101.568C322.206 102.756 321.576 103.665 320.74 104.296C319.904 104.912 318.87 105.22 317.638 105.22ZM317.638 102.91C318.635 102.91 319.368 102.455 319.838 101.546C320.322 100.622 320.564 99.17 320.564 97.19C320.564 95.2247 320.322 93.802 319.838 92.922C319.368 92.0273 318.635 91.58 317.638 91.58C316.655 91.58 315.922 92.0273 315.438 92.922C314.954 93.802 314.712 95.232 314.712 97.212C314.712 99.1773 314.954 100.622 315.438 101.546C315.922 102.455 316.655 102.91 317.638 102.91ZM327.754 105V102.668H331.252V91.866H332.616L328.546 94.33L327.446 92.262L332.066 89.49H334.068V102.668H337.346V105H327.754Z" fill="#202224"/>
<path d="M384.724 108.03V90.9976H385.925V108.03H384.724ZM393.471 104.5V103.572L398.766 98.3857C399.251 97.9126 399.615 97.5001 399.858 97.1483C400.101 96.7844 400.264 96.4447 400.349 96.1293C400.434 95.8138 400.477 95.5166 400.477 95.2376C400.477 94.4976 400.222 93.9153 399.712 93.4907C399.215 93.0661 398.475 92.8538 397.492 92.8538C396.74 92.8538 396.073 92.969 395.491 93.1995C394.92 93.43 394.429 93.7879 394.017 94.2731L393.089 93.4725C393.586 92.8902 394.223 92.4413 394.999 92.1259C395.776 91.8105 396.643 91.6527 397.602 91.6527C398.463 91.6527 399.209 91.7923 399.84 92.0713C400.471 92.3382 400.956 92.7324 401.296 93.2541C401.647 93.7758 401.823 94.3884 401.823 95.092C401.823 95.5045 401.763 95.9109 401.641 96.3112C401.532 96.7116 401.326 97.1362 401.023 97.585C400.731 98.0218 400.301 98.5192 399.731 99.0772L394.872 103.845L394.508 103.335H402.406V104.5H393.471ZM408.017 91.6527C409.145 91.6527 410.097 91.9075 410.874 92.417C411.65 92.9144 412.239 93.6362 412.639 94.5825C413.039 95.5288 413.239 96.6752 413.239 98.0218C413.239 99.4533 412.991 100.66 412.493 101.643C412.008 102.626 411.329 103.366 410.455 103.863C409.582 104.36 408.569 104.609 407.416 104.609C406.846 104.609 406.3 104.555 405.779 104.445C405.269 104.336 404.808 104.16 404.396 103.918L404.923 102.862C405.251 103.081 405.627 103.238 406.052 103.335C406.488 103.42 406.937 103.463 407.398 103.463C408.769 103.463 409.861 103.026 410.674 102.153C411.499 101.279 411.911 99.975 411.911 98.2401C411.911 97.9611 411.893 97.6275 411.857 97.2393C411.832 96.8511 411.766 96.4629 411.656 96.0747L412.111 96.4204C411.99 97.0513 411.729 97.5911 411.329 98.04C410.941 98.4767 410.455 98.8103 409.873 99.0408C409.303 99.2713 408.666 99.3866 407.962 99.3866C407.125 99.3866 406.379 99.2289 405.724 98.9134C405.081 98.598 404.578 98.1552 404.214 97.585C403.85 97.0149 403.668 96.3416 403.668 95.5652C403.668 94.7645 403.856 94.073 404.232 93.4907C404.608 92.9084 405.124 92.4595 405.779 92.1441C406.446 91.8165 407.192 91.6527 408.017 91.6527ZM408.071 92.7628C407.465 92.7628 406.925 92.878 406.452 93.1085C405.991 93.3269 405.627 93.6423 405.36 94.0548C405.093 94.4673 404.96 94.9586 404.96 95.5288C404.96 96.3658 405.245 97.0331 405.815 97.5305C406.397 98.0278 407.18 98.2765 408.162 98.2765C408.818 98.2765 409.388 98.1552 409.873 97.9126C410.37 97.67 410.753 97.3364 411.019 96.9117C411.298 96.4871 411.438 96.014 411.438 95.4924C411.438 95.0192 411.311 94.5764 411.056 94.164C410.801 93.7515 410.425 93.4179 409.928 93.1631C409.43 92.8962 408.812 92.7628 408.071 92.7628ZM421.03 104.5V91.7619H422.14L427.963 101.698H427.38L433.149 91.7619H434.259V104.5H432.967V93.7818H433.276L427.963 102.88H427.326L421.976 93.7818H422.322V104.5H421.03ZM436.371 104.5L442.194 91.7619H443.523L449.346 104.5H447.927L442.577 92.5444H443.123L437.773 104.5H436.371ZM438.664 101.097L439.065 100.005H446.471L446.871 101.097H438.664ZM453.746 104.5V99.7687L454.055 100.606L448.65 91.7619H450.088L454.838 99.5322H454.073L458.823 91.7619H460.169L454.765 100.606L455.074 99.7687V104.5H453.746ZM460.706 100.133V99.0044H465.474V100.133H460.706ZM472.874 104.609C471.746 104.609 470.793 104.36 470.017 103.863C469.241 103.354 468.652 102.626 468.252 101.679C467.852 100.721 467.651 99.5746 467.651 98.2401C467.651 96.7965 467.894 95.5894 468.379 94.6189C468.877 93.6362 469.562 92.8962 470.436 92.3988C471.309 91.9014 472.322 91.6527 473.475 91.6527C474.045 91.6527 474.591 91.7073 475.112 91.8165C475.634 91.9257 476.095 92.1016 476.495 92.3442L475.968 93.3997C475.64 93.1813 475.264 93.0297 474.839 92.9447C474.415 92.8477 473.966 92.7992 473.493 92.7992C472.122 92.7992 471.024 93.2359 470.199 94.1094C469.386 94.9828 468.98 96.287 468.98 98.0218C468.98 98.2887 468.992 98.6223 469.016 99.0226C469.053 99.4108 469.125 99.799 469.235 100.187L468.78 99.8415C468.913 99.2107 469.174 98.6769 469.562 98.2401C469.95 97.7913 470.436 97.4516 471.018 97.2211C471.6 96.9906 472.237 96.8754 472.929 96.8754C473.778 96.8754 474.524 97.0331 475.167 97.3485C475.81 97.6639 476.313 98.1067 476.677 98.6769C477.041 99.2471 477.223 99.9204 477.223 100.697C477.223 101.485 477.035 102.177 476.659 102.771C476.283 103.354 475.761 103.809 475.094 104.136C474.439 104.451 473.699 104.609 472.874 104.609ZM472.819 103.499C473.426 103.499 473.96 103.39 474.421 103.172C474.894 102.941 475.264 102.62 475.531 102.207C475.798 101.783 475.931 101.291 475.931 100.733C475.931 99.8961 475.64 99.2289 475.058 98.7315C474.487 98.2341 473.711 97.9854 472.728 97.9854C472.073 97.9854 471.503 98.1067 471.018 98.3493C470.533 98.592 470.15 98.9256 469.871 99.3502C469.592 99.7627 469.453 100.236 469.453 100.77C469.453 101.231 469.58 101.673 469.835 102.098C470.09 102.51 470.466 102.85 470.963 103.117C471.473 103.372 472.092 103.499 472.819 103.499ZM485.996 104.609C485.28 104.609 484.607 104.451 483.976 104.136C483.357 103.821 482.86 103.372 482.484 102.789L483.266 101.88C483.618 102.389 484.025 102.777 484.486 103.044C484.947 103.311 485.456 103.445 486.014 103.445C487.591 103.445 488.38 102.51 488.38 100.642V92.9266H483.721V91.7619H489.708V100.588C489.708 101.934 489.393 102.941 488.762 103.608C488.143 104.276 487.221 104.609 485.996 104.609ZM498.879 104.609C497.254 104.609 495.974 104.142 495.04 103.208C494.105 102.274 493.638 100.891 493.638 99.059V91.7619H494.985V99.0044C494.985 100.509 495.325 101.619 496.004 102.335C496.683 103.05 497.642 103.408 498.879 103.408C500.129 103.408 501.093 103.05 501.773 102.335C502.452 101.619 502.792 100.509 502.792 99.0044V91.7619H504.102V99.059C504.102 100.891 503.635 102.274 502.701 103.208C501.779 104.142 500.505 104.609 498.879 104.609ZM508.16 104.5V91.7619H509.27L518.059 102.826H517.477V91.7619H518.805V104.5H517.695L508.924 93.4361H509.506V104.5H508.16Z" fill="#7A7A7A"/>
<mask id="mask0_120_1872" style="mask-type:alpha" maskUnits="userSpaceOnUse" x="54" y="54" width="60" height="88">
<path d="M55.8684 68.98C55.8684 61.8113 61.6798 56 68.8484 56H86.8859C100.683 56 111.868 67.185 111.868 80.9825V115.018C111.868 128.815 100.683 140 86.8859 140H68.8484C61.6798 140 55.8684 134.189 55.8684 127.02V68.98Z" fill="white" stroke="url(#paint1_linear_120_1872)" stroke-opacity="0.3" stroke-width="2.60316"/>
</mask>
<g mask="url(#mask0_120_1872)">
<rect x="53.8684" y="54.3848" width="28" height="87.2308" fill="#587ED7"/>
</g>
<defs>
<filter id="filter0_d_120_1872" x="0.463029" y="0.594686" width="600.87" height="208.093" filterUnits="userSpaceOnUse" color-interpolation-filters="sRGB">
<feFlood flood-opacity="0" result="BackgroundImageFix"/>
<feColorMatrix in="SourceAlpha" type="matrix" values="0 0 0 0 0 0 0 0 0 0 0 0 0 0 0 0 0 0 127 0" result="hardAlpha"/>
<feOffset dx="6.76297" dy="6.76297"/>
<feGaussianBlur stdDeviation="30.4334"/>
<feColorMatrix type="matrix" values="0 0 0 0 0 0 0 0 0 0 0 0 0 0 0 0 0 0 0.05 0"/>
<feBlend mode="normal" in2="BackgroundImageFix" result="effect1_dropShadow_120_1872"/>
<feBlend mode="normal" in="SourceGraphic" in2="effect1_dropShadow_120_1872" result="shape"/>
</filter>
<linearGradient id="paint0_linear_120_1872" x1="164.528" y1="25.7476" x2="290.781" y2="254.414" gradientUnits="userSpaceOnUse">
<stop stop-color="#F1F1F1"/>
<stop offset="1" stop-color="#E1E1E1"/>
</linearGradient>
<linearGradient id="paint1_linear_120_1872" x1="68.6376" y1="25.6597" x2="129.407" y2="38.5566" gradientUnits="userSpaceOnUse">
<stop stop-color="#F1F1F1"/>
<stop offset="1" stop-color="#E1E1E1"/>
</linearGradient>
</defs>
</svg>
