<svg width="431" height="209" viewBox="0 0 431 209" fill="none" xmlns="http://www.w3.org/2000/svg">
<g filter="url(#filter0_d_120_1960)">
<rect x="55.8684" y="56" width="306" height="84" rx="12.98" fill="white"/>
<rect x="55.8684" y="56" width="306" height="84" rx="12.98" stroke="url(#paint0_linear_120_1960)" stroke-opacity="0.3" stroke-width="2.60316"/>
</g>
<g filter="url(#filter1_d_120_1960)">
<mask id="path-3-outside-1_120_1960" maskUnits="userSpaceOnUse" x="105.745" y="67.0186" width="74" height="61" fill="black">
<rect fill="white" x="105.745" y="67.0186" width="74" height="61"/>
<path fill-rule="evenodd" clip-rule="evenodd" d="M163.756 75.7006L164.084 74.9521L164.25 75.0249L164.37 75.1614C165.635 76.6023 166.509 79.0785 167.078 81.9451C167.597 84.5598 167.884 87.611 167.94 90.7479C169.498 89.5437 170.846 88.264 171.667 87.0058C171.9 86.6493 172.369 86.4975 172.725 86.7315C179.607 91.2585 176.187 103.535 173.234 104.929C172.854 105.109 173.292 105.88 173.639 106.39C173.84 106.687 173.914 107.058 173.782 107.391C172.209 111.362 166.805 118.722 163.004 117.671L163.262 118.53C163.331 118.761 163.268 119.014 163.091 119.179C160.172 121.917 156.464 122.987 154.156 120.567C149.34 123.544 144.382 125.461 142.522 125.461C140.737 125.461 135.708 123.84 130.918 121.125C128.604 122.787 125.284 121.677 122.621 119.179C122.444 119.014 122.381 118.761 122.451 118.53L122.709 117.671C118.907 118.722 113.503 111.362 111.93 107.391C111.798 107.058 111.872 106.687 112.074 106.39C112.42 105.88 112.858 105.109 112.478 104.929C109.525 103.535 106.105 91.2584 112.988 86.7315C113.343 86.4975 113.812 86.6493 114.045 87.0058C114.842 88.2254 116.133 89.4653 117.63 90.637C117.612 87.4933 117.792 84.445 118.209 81.8444C118.661 79.0309 119.411 76.5896 120.617 75.1714L120.739 75.0267L120.914 74.951L121.239 75.7006C120.914 74.951 120.914 74.951 120.914 74.9509L120.924 74.9467L120.95 74.9354C120.973 74.9256 121.006 74.9114 121.05 74.893C121.137 74.8561 121.265 74.8027 121.431 74.7349C121.763 74.5994 122.247 74.4067 122.858 74.1759C124.08 73.7145 125.814 73.0999 127.867 72.4853C131.962 71.2595 137.376 70.0186 142.545 70.0186C147.715 70.0186 153.105 71.2596 157.177 72.4857C159.219 73.1004 160.941 73.7151 162.154 74.1766C162.761 74.4075 163.241 74.6002 163.57 74.7358C163.735 74.8036 163.862 74.8571 163.949 74.8939C163.992 74.9123 164.025 74.9266 164.048 74.9364L164.057 74.9401L164.074 74.9477L164.081 74.9507L164.084 74.9519C164.084 74.952 164.084 74.9521 163.756 75.7006ZM163.756 75.7006C163.756 75.7006 163.756 75.7006 163.756 75.7006C163.756 75.7006 152.654 70.8358 142.545 70.8358C132.437 70.8358 121.239 75.7006 121.239 75.7006C119.171 78.1345 118.359 84.4913 118.453 91.2602C118.453 91.2602 118.453 91.2602 118.453 91.2602C118.359 84.4914 119.171 78.1346 121.239 75.7006C121.239 75.7006 132.437 70.8358 142.546 70.8358C152.639 70.8358 163.724 75.6864 163.756 75.7006Z"/>
</mask>
<path fill-rule="evenodd" clip-rule="evenodd" d="M163.756 75.7006L164.084 74.9521L164.25 75.0249L164.37 75.1614C165.635 76.6023 166.509 79.0785 167.078 81.9451C167.597 84.5598 167.884 87.611 167.94 90.7479C169.498 89.5437 170.846 88.264 171.667 87.0058C171.9 86.6493 172.369 86.4975 172.725 86.7315C179.607 91.2585 176.187 103.535 173.234 104.929C172.854 105.109 173.292 105.88 173.639 106.39C173.84 106.687 173.914 107.058 173.782 107.391C172.209 111.362 166.805 118.722 163.004 117.671L163.262 118.53C163.331 118.761 163.268 119.014 163.091 119.179C160.172 121.917 156.464 122.987 154.156 120.567C149.34 123.544 144.382 125.461 142.522 125.461C140.737 125.461 135.708 123.84 130.918 121.125C128.604 122.787 125.284 121.677 122.621 119.179C122.444 119.014 122.381 118.761 122.451 118.53L122.709 117.671C118.907 118.722 113.503 111.362 111.93 107.391C111.798 107.058 111.872 106.687 112.074 106.39C112.42 105.88 112.858 105.109 112.478 104.929C109.525 103.535 106.105 91.2584 112.988 86.7315C113.343 86.4975 113.812 86.6493 114.045 87.0058C114.842 88.2254 116.133 89.4653 117.63 90.637C117.612 87.4933 117.792 84.445 118.209 81.8444C118.661 79.0309 119.411 76.5896 120.617 75.1714L120.739 75.0267L120.914 74.951L121.239 75.7006C120.914 74.951 120.914 74.951 120.914 74.9509L120.924 74.9467L120.95 74.9354C120.973 74.9256 121.006 74.9114 121.05 74.893C121.137 74.8561 121.265 74.8027 121.431 74.7349C121.763 74.5994 122.247 74.4067 122.858 74.1759C124.08 73.7145 125.814 73.0999 127.867 72.4853C131.962 71.2595 137.376 70.0186 142.545 70.0186C147.715 70.0186 153.105 71.2596 157.177 72.4857C159.219 73.1004 160.941 73.7151 162.154 74.1766C162.761 74.4075 163.241 74.6002 163.57 74.7358C163.735 74.8036 163.862 74.8571 163.949 74.8939C163.992 74.9123 164.025 74.9266 164.048 74.9364L164.057 74.9401L164.074 74.9477L164.081 74.9507L164.084 74.9519C164.084 74.952 164.084 74.9521 163.756 75.7006ZM163.756 75.7006C163.756 75.7006 163.756 75.7006 163.756 75.7006C163.756 75.7006 152.654 70.8358 142.545 70.8358C132.437 70.8358 121.239 75.7006 121.239 75.7006C119.171 78.1345 118.359 84.4913 118.453 91.2602C118.453 91.2602 118.453 91.2602 118.453 91.2602C118.359 84.4914 119.171 78.1346 121.239 75.7006C121.239 75.7006 132.437 70.8358 142.546 70.8358C152.639 70.8358 163.724 75.6864 163.756 75.7006Z" fill="#D9D9D9"/>
<path d="M164.084 74.9521L161.909 73.9988L162.862 71.8235L165.037 72.7767L164.084 74.9521ZM164.25 75.0249L165.204 72.8496L165.687 73.0614L166.035 73.458L164.25 75.0249ZM164.37 75.1614L166.155 73.5945L166.155 73.5945L164.37 75.1614ZM167.078 81.9451L164.749 82.4078L164.749 82.4078L167.078 81.9451ZM167.94 90.7479L169.393 92.6267L165.65 95.5208L165.566 90.7903L167.94 90.7479ZM171.667 87.0058L169.679 85.707L169.679 85.707L171.667 87.0058ZM172.725 86.7315L174.03 84.7472L174.03 84.7472L172.725 86.7315ZM173.234 104.929L172.22 102.782L172.22 102.782L173.234 104.929ZM173.639 106.39L175.603 105.055L175.603 105.055L173.639 106.39ZM173.782 107.391L171.574 106.516L171.574 106.516L173.782 107.391ZM163.004 117.671L160.729 118.354L159.493 114.236L163.637 115.382L163.004 117.671ZM163.262 118.53L165.536 117.847L165.536 117.847L163.262 118.53ZM163.091 119.179L164.716 120.912L164.716 120.912L163.091 119.179ZM154.156 120.567L152.907 118.547L154.546 117.534L155.875 118.928L154.156 120.567ZM130.918 121.125L129.533 119.196L130.767 118.309L132.089 119.059L130.918 121.125ZM122.621 119.179L120.996 120.912L120.996 120.912L122.621 119.179ZM122.451 118.53L120.176 117.847L120.176 117.847L122.451 118.53ZM122.709 117.671L122.076 115.382L126.22 114.236L124.983 118.354L122.709 117.671ZM111.93 107.391L109.722 108.266L109.722 108.266L111.93 107.391ZM112.074 106.39L114.038 107.725L114.038 107.725L112.074 106.39ZM112.478 104.929L113.492 102.782L113.492 102.782L112.478 104.929ZM112.988 86.7315L111.683 84.7472L111.683 84.7472L112.988 86.7315ZM114.045 87.0058L112.056 88.3046L112.056 88.3046L114.045 87.0058ZM117.63 90.637L120.005 90.6238L120.032 95.5334L116.166 92.5073L117.63 90.637ZM118.209 81.8444L115.864 81.4682L115.864 81.4682L118.209 81.8444ZM120.617 75.1714L118.807 73.6336L118.807 73.6336L120.617 75.1714ZM120.739 75.0267L118.93 73.4889L119.287 73.0683L119.793 72.8484L120.739 75.0267ZM120.914 74.951L119.967 72.7727L122.146 71.8263L123.092 74.0047L120.914 74.951ZM120.914 74.9509L119.971 72.7713L119.971 72.7711L120.914 74.9509ZM120.924 74.9467L119.981 72.7668L119.986 72.7645L120.924 74.9467ZM120.95 74.9354L120.013 72.7533L120.015 72.7521L120.95 74.9354ZM121.05 74.893L120.127 72.7046L120.127 72.7046L121.05 74.893ZM121.431 74.7349L120.534 72.536L120.534 72.536L121.431 74.7349ZM122.858 74.1759L122.019 71.9541L122.019 71.9541L122.858 74.1759ZM127.867 72.4853L128.548 74.7605L128.548 74.7605L127.867 72.4853ZM157.177 72.4857L157.862 70.2115L157.862 70.2115L157.177 72.4857ZM162.154 74.1766L162.999 71.9569L162.999 71.9569L162.154 74.1766ZM163.57 74.7358L162.667 76.9322L162.667 76.9322L163.57 74.7358ZM163.949 74.8939L163.019 77.0795L163.019 77.0795L163.949 74.8939ZM164.048 74.9364L164.989 72.756L164.99 72.7563L164.048 74.9364ZM164.057 74.9401L164.999 72.7601L165.002 72.7613L164.057 74.9401ZM164.074 74.9477L165.019 72.7688L165.023 72.7704L164.074 74.9477ZM164.081 74.9507L165.03 72.7735L165.032 72.7746L164.081 74.9507ZM164.084 74.9519L165.035 72.7757L165.036 72.7763L164.084 74.9519ZM163.756 75.7006L165.492 74.0801L162.803 77.8761L163.756 75.7006ZM118.453 91.2602L117.028 93.1602L116.094 92.46L116.078 91.2931L118.453 91.2602ZM118.453 91.2602L120.828 91.2273L120.895 96.0604L117.028 93.1602L118.453 91.2602ZM121.239 75.7006L119.43 74.1628L119.787 73.7422L120.293 73.5223L121.239 75.7006ZM164.084 74.9521L166.259 75.9053L165.931 76.6538L163.756 75.7006L161.581 74.7474L161.909 73.9988L164.084 74.9521ZM164.25 75.0249L163.297 77.2003L163.131 77.1274L164.084 74.9521L165.037 72.7767L165.204 72.8496L164.25 75.0249ZM164.37 75.1614L162.585 76.7283L162.466 76.5919L164.25 75.0249L166.035 73.458L166.155 73.5945L164.37 75.1614ZM167.078 81.9451L164.749 82.4078C164.194 79.6166 163.414 77.6724 162.585 76.7283L164.37 75.1614L166.155 73.5945C167.856 75.5322 168.823 78.5403 169.408 81.4825L167.078 81.9451ZM167.94 90.7479L165.566 90.7903C165.511 87.7597 165.234 84.8535 164.749 82.4078L167.078 81.9451L169.408 81.4825C169.961 84.266 170.257 87.4623 170.315 90.7054L167.94 90.7479ZM167.94 90.7479L166.487 88.869C167.965 87.7265 169.071 86.6383 169.679 85.707L171.667 87.0058L173.656 88.3047C172.621 89.8897 171.03 91.3608 169.393 92.6267L167.94 90.7479ZM171.667 87.0058L169.679 85.707C170.461 84.5104 172.333 83.6309 174.03 84.7472L172.725 86.7315L171.42 88.7158C171.876 89.0157 172.391 89.0458 172.789 88.9347C173.165 88.8296 173.464 88.5981 173.656 88.3047L171.667 87.0058ZM172.725 86.7315L174.03 84.7472C178.554 87.7231 179.431 93.0571 179.032 97.231C178.827 99.3776 178.276 101.434 177.54 103.097C177.171 103.928 176.735 104.709 176.235 105.368C175.757 105.998 175.103 106.674 174.249 107.077L173.234 104.929L172.22 102.782C172.104 102.837 172.203 102.824 172.451 102.497C172.676 102.201 172.937 101.759 173.197 101.172C173.717 99.9989 174.145 98.4421 174.304 96.7794C174.633 93.3346 173.778 90.2669 171.42 88.7158L172.725 86.7315ZM173.234 104.929L174.249 107.077C174.601 106.911 174.93 106.633 175.161 106.252C175.379 105.891 175.443 105.547 175.458 105.319C175.473 105.096 175.445 104.929 175.428 104.849C175.41 104.763 175.391 104.71 175.386 104.697C175.379 104.677 175.389 104.708 175.438 104.794C175.483 104.872 175.54 104.962 175.603 105.055L173.639 106.39L171.674 107.725C171.48 107.438 171.151 106.927 170.942 106.374C170.847 106.121 170.678 105.614 170.719 105.004C170.769 104.246 171.174 103.276 172.22 102.782L173.234 104.929ZM173.639 106.39L175.603 105.055C176.148 105.856 176.471 107.051 175.99 108.266L173.782 107.391L171.574 106.516C171.357 107.064 171.533 107.517 171.674 107.725L173.639 106.39ZM173.782 107.391L175.99 108.266C175.087 110.547 173.178 113.623 170.979 116.02C169.875 117.223 168.603 118.361 167.242 119.132C165.906 119.89 164.179 120.46 162.371 119.96L163.004 117.671L163.637 115.382C163.729 115.407 164.104 115.451 164.899 115C165.67 114.563 166.559 113.811 167.479 112.809C169.325 110.796 170.905 108.207 171.574 106.516L173.782 107.391ZM163.004 117.671L165.278 116.988L165.536 117.847L163.262 118.53L160.987 119.212L160.729 118.354L163.004 117.671ZM163.262 118.53L165.536 117.847C165.854 118.906 165.577 120.105 164.716 120.912L163.091 119.179L161.467 117.447C160.959 117.923 160.808 118.617 160.987 119.212L163.262 118.53ZM163.091 119.179L164.716 120.912C163.034 122.489 160.989 123.722 158.848 124.139C156.621 124.572 154.247 124.104 152.437 122.206L154.156 120.567L155.875 118.928C156.373 119.451 157.007 119.658 157.941 119.476C158.961 119.278 160.229 118.607 161.467 117.447L163.091 119.179ZM154.156 120.567L155.405 122.587C152.888 124.143 150.329 125.426 148.132 126.328C147.034 126.778 146.002 127.144 145.092 127.401C144.224 127.645 143.316 127.836 142.522 127.836V125.461V123.086C142.657 123.086 143.066 123.037 143.802 122.829C144.495 122.633 145.352 122.334 146.329 121.933C148.28 121.132 150.608 119.968 152.907 118.547L154.156 120.567ZM142.522 125.461V127.836C141.182 127.836 139.14 127.297 137.046 126.547C134.847 125.759 132.268 124.62 129.747 123.191L130.918 121.125L132.089 119.059C134.359 120.345 136.688 121.373 138.648 122.075C140.712 122.815 142.076 123.086 142.522 123.086V125.461ZM130.918 121.125L132.304 123.054C130.437 124.394 128.255 124.524 126.297 124.009C124.37 123.502 122.537 122.356 120.996 120.912L122.621 119.179L124.245 117.447C125.368 118.5 126.527 119.158 127.505 119.415C128.45 119.663 129.085 119.517 129.533 119.196L130.918 121.125ZM122.621 119.179L120.996 120.912C120.136 120.105 119.858 118.906 120.176 117.847L122.451 118.53L124.725 119.212C124.904 118.616 124.753 117.923 124.245 117.447L122.621 119.179ZM122.451 118.53L120.176 117.847L120.434 116.988L122.709 117.671L124.983 118.354L124.725 119.212L122.451 118.53ZM122.709 117.671L123.342 119.96C121.533 120.46 119.807 119.89 118.471 119.132C117.11 118.361 115.837 117.223 114.734 116.02C112.534 113.623 110.626 110.547 109.722 108.266L111.93 107.391L114.138 106.516C114.808 108.207 116.387 110.796 118.234 112.809C119.153 113.811 120.042 114.563 120.813 115C121.609 115.451 121.983 115.407 122.076 115.382L122.709 117.671ZM111.93 107.391L109.722 108.266C109.241 107.051 109.564 105.856 110.11 105.055L112.074 106.39L114.038 107.725C114.179 107.517 114.355 107.064 114.138 106.516L111.93 107.391ZM112.074 106.39L110.109 105.055C110.172 104.962 110.229 104.872 110.274 104.794C110.323 104.708 110.334 104.677 110.326 104.697C110.321 104.71 110.302 104.763 110.284 104.849C110.267 104.929 110.239 105.096 110.254 105.319C110.269 105.547 110.333 105.891 110.551 106.252C110.782 106.633 111.112 106.911 111.464 107.077L112.478 104.929L113.492 102.782C114.538 103.276 114.943 104.246 114.994 105.004C115.034 105.614 114.866 106.121 114.77 106.374C114.562 106.927 114.233 107.438 114.038 107.725L112.074 106.39ZM112.478 104.929L111.464 107.077C110.609 106.674 109.955 105.998 109.478 105.368C108.977 104.709 108.541 103.928 108.173 103.097C107.436 101.434 106.885 99.3776 106.68 97.2309C106.282 93.0571 107.158 87.723 111.683 84.7472L112.988 86.7315L114.293 88.7157C111.934 90.2669 111.08 93.3346 111.409 96.7794C111.567 98.442 111.995 99.9988 112.515 101.172C112.775 101.759 113.037 102.201 113.262 102.497C113.509 102.824 113.608 102.837 113.492 102.782L112.478 104.929ZM112.988 86.7315L111.683 84.7472C113.38 83.6309 115.252 84.5104 116.033 85.707L114.045 87.0058L112.056 88.3046C112.248 88.5981 112.547 88.8296 112.923 88.9346C113.321 89.0458 113.837 89.0157 114.293 88.7157L112.988 86.7315ZM114.045 87.0058L116.033 85.707C116.622 86.6077 117.678 87.6588 119.094 88.7668L117.63 90.637L116.166 92.5073C114.587 91.2718 113.061 89.8432 112.056 88.3046L114.045 87.0058ZM118.209 81.8444L120.554 82.2206C120.164 84.6556 119.988 87.5669 120.005 90.6238L117.63 90.637L115.255 90.6502C115.237 87.4197 115.42 84.2344 115.864 81.4682L118.209 81.8444ZM120.617 75.1714L122.426 76.7093C121.675 77.5941 120.997 79.4621 120.554 82.2206L118.209 81.8444L115.864 81.4682C116.324 78.5998 117.148 75.5851 118.807 73.6336L120.617 75.1714ZM120.739 75.0267L122.549 76.5645L122.426 76.7093L120.617 75.1714L118.807 73.6336L118.93 73.4889L120.739 75.0267ZM120.914 74.951L121.86 77.1293L121.686 77.205L120.739 75.0267L119.793 72.8484L119.967 72.7727L120.914 74.951ZM121.239 75.7006L119.061 76.647L118.735 75.8974L120.914 74.951L123.092 74.0047L123.418 74.7542L121.239 75.7006ZM121.239 75.7006L119.061 76.647C118.898 76.2723 118.817 76.0841 118.775 75.9895C118.755 75.9431 118.744 75.9164 118.737 75.9007C118.735 75.8968 118.728 75.8802 118.721 75.8625C118.719 75.857 118.714 75.846 118.709 75.8322C118.705 75.823 118.692 75.7896 118.676 75.7464C118.669 75.725 118.653 75.6813 118.637 75.6251C118.625 75.5854 118.586 75.4534 118.562 75.2795C118.55 75.1943 118.456 74.6101 118.757 73.9561C119.169 73.0636 119.972 72.7705 119.971 72.7713L120.914 74.9509L121.857 77.1304C121.82 77.1467 122.063 77.0514 122.309 76.873C122.614 76.652 122.888 76.3414 123.071 75.9456C123.372 75.2917 123.278 74.7075 123.266 74.6224C123.242 74.4484 123.203 74.3165 123.191 74.2768C123.175 74.2207 123.16 74.1771 123.152 74.1558C123.137 74.1127 123.123 74.0796 123.12 74.0708C123.115 74.0574 123.11 74.047 123.108 74.0422C123.102 74.0275 123.098 74.0168 123.101 74.0246C123.104 74.0324 123.113 74.0525 123.133 74.0999C123.174 74.1927 123.255 74.3793 123.418 74.7542L121.239 75.7006ZM120.914 74.9509L119.971 72.7711L119.981 72.7668L120.924 74.9467L121.867 77.1265L121.857 77.1307L120.914 74.9509ZM120.924 74.9467L119.986 72.7645L120.013 72.7533L120.95 74.9354L121.888 77.1175L121.861 77.1288L120.924 74.9467ZM120.95 74.9354L120.015 72.7521C120.042 72.7407 120.079 72.7248 120.127 72.7046L121.05 74.893L121.973 77.0813C121.933 77.098 121.904 77.1105 121.885 77.1187L120.95 74.9354ZM121.05 74.893L120.127 72.7046C120.222 72.6644 120.359 72.6074 120.534 72.536L121.431 74.7349L122.329 76.9338C122.172 76.998 122.052 77.0479 121.973 77.0813L121.05 74.893ZM121.431 74.7349L120.534 72.536C120.884 72.3933 121.387 72.1929 122.019 71.9541L122.858 74.1759L123.697 76.3978C123.107 76.6206 122.643 76.8055 122.329 76.9338L121.431 74.7349ZM122.858 74.1759L122.019 71.9541C123.282 71.477 125.07 70.8436 127.186 70.21L127.867 72.4853L128.548 74.7605C126.558 75.3562 124.878 75.9519 123.697 76.3978L122.858 74.1759ZM127.867 72.4853L127.186 70.21C131.374 68.9564 137.042 67.6436 142.545 67.6436V70.0186V72.3936C137.71 72.3936 132.55 73.5626 128.548 74.7605L127.867 72.4853ZM142.545 70.0186V67.6436C148.05 67.6436 153.695 68.9569 157.862 70.2115L157.177 72.4857L156.492 74.7598C152.516 73.5623 147.38 72.3936 142.545 72.3936V70.0186ZM157.177 72.4857L157.862 70.2115C159.967 70.8455 161.744 71.4794 162.999 71.9569L162.154 74.1766L161.309 76.3964C160.138 75.9508 158.47 75.3553 156.492 74.7598L157.177 72.4857ZM162.154 74.1766L162.999 71.9569C163.627 72.1959 164.127 72.3965 164.474 72.5394L163.57 74.7358L162.667 76.9322C162.355 76.804 161.895 76.6191 161.309 76.3964L162.154 74.1766ZM163.57 74.7358L164.474 72.5394C164.648 72.6109 164.783 72.668 164.878 72.7083L163.949 74.8939L163.019 77.0795C162.941 77.0461 162.822 76.9962 162.667 76.9322L163.57 74.7358ZM163.949 74.8939L164.878 72.7083C164.926 72.7285 164.963 72.7445 164.989 72.756L164.048 74.9364L163.106 77.1167C163.088 77.1087 163.058 77.0961 163.019 77.0795L163.949 74.8939ZM164.048 74.9364L164.99 72.7563L164.999 72.7601L164.057 74.9401L163.114 77.1201L163.106 77.1164L164.048 74.9364ZM164.057 74.9401L165.002 72.7613L165.019 72.7688L164.074 74.9477L163.129 77.1265L163.111 77.1189L164.057 74.9401ZM164.074 74.9477L165.023 72.7704L165.03 72.7735L164.081 74.9507L163.132 77.128L163.125 77.1249L164.074 74.9477ZM164.081 74.9507L165.032 72.7746L165.035 72.7757L164.084 74.9519L163.132 77.1281L163.13 77.1269L164.081 74.9507ZM164.084 74.9519L165.036 72.7763C165.033 72.775 165.832 73.0699 166.241 73.959C166.542 74.6136 166.448 75.1979 166.435 75.2847C166.411 75.4595 166.371 75.592 166.359 75.6319C166.342 75.6883 166.327 75.7323 166.319 75.7537C166.304 75.7972 166.29 75.8307 166.286 75.8399C166.281 75.8538 166.276 75.8648 166.274 75.8703C166.267 75.888 166.259 75.9047 166.258 75.9086C166.251 75.9242 166.239 75.9509 166.219 75.9972C166.178 76.0917 166.095 76.2797 165.931 76.6538L163.756 75.7006L161.581 74.7474C161.745 74.373 161.826 74.1866 161.867 74.0939C161.888 74.0466 161.896 74.0265 161.9 74.0187C161.903 74.0109 161.898 74.0217 161.892 74.0365C161.89 74.0413 161.886 74.0517 161.88 74.0652C161.877 74.074 161.864 74.1072 161.848 74.1505C161.84 74.1718 161.825 74.2157 161.808 74.272C161.796 74.3119 161.757 74.4444 161.732 74.6191C161.72 74.706 161.625 75.2902 161.926 75.9449C162.335 76.8339 163.134 77.1288 163.131 77.1275L164.084 74.9519ZM163.756 75.7006L165.492 74.0801C165.52 74.1098 165.542 74.1347 165.555 74.1501C165.562 74.158 165.567 74.1644 165.571 74.1683C165.572 74.1703 165.574 74.1719 165.574 74.1729C165.575 74.1734 165.575 74.1738 165.575 74.174C165.576 74.1741 165.576 74.1742 165.576 74.1743C165.576 74.1743 165.576 74.1743 165.576 74.1744C165.576 74.1744 165.576 74.1744 165.576 74.1744C165.576 74.1744 165.576 74.1744 165.576 74.1744C165.576 74.1744 165.576 74.1744 165.576 74.1744C165.576 74.1749 165.574 74.1718 165.571 74.1683C165.567 74.1644 165.562 74.158 165.555 74.1501C165.542 74.1347 165.52 74.1098 165.492 74.0801L163.756 75.7006L162.02 77.3211C161.992 77.2914 161.97 77.2665 161.957 77.251C161.95 77.2432 161.945 77.2368 161.941 77.2329C161.94 77.2309 161.938 77.2293 161.938 77.2283C161.937 77.2278 161.937 77.2274 161.937 77.2272C161.937 77.227 161.936 77.2269 161.936 77.2269C161.936 77.2269 161.936 77.2268 161.936 77.2268C161.936 77.2268 161.936 77.2268 161.936 77.2268C161.936 77.2268 161.936 77.2268 161.936 77.2268C161.936 77.2268 161.936 77.2268 161.936 77.2268C161.936 77.2263 161.938 77.2293 161.941 77.2329C161.945 77.2368 161.95 77.2432 161.957 77.251C161.97 77.2665 161.992 77.2913 162.02 77.3211L163.756 75.7006ZM163.756 75.7006C162.803 77.8759 162.803 77.876 162.803 77.8762C162.803 77.8762 162.804 77.8763 162.804 77.8763C162.804 77.8764 162.804 77.8763 162.804 77.8763C162.803 77.8761 162.802 77.8756 162.8 77.8749C162.797 77.8734 162.791 77.8707 162.782 77.867C162.765 77.8595 162.737 77.8476 162.699 77.8315C162.624 77.7994 162.508 77.7507 162.356 77.6879C162.05 77.5622 161.597 77.3801 161.019 77.1602C159.862 76.7201 158.212 76.1312 156.257 75.5423C152.312 74.3547 147.265 73.2108 142.545 73.2108V70.8358V68.4608C147.935 68.4608 153.492 69.7493 157.626 70.994C159.71 71.6214 161.467 72.2487 162.708 72.7207C163.329 72.9569 163.822 73.1548 164.163 73.2952C164.334 73.3654 164.466 73.4212 164.558 73.4604C164.604 73.4799 164.64 73.4953 164.665 73.5062C164.678 73.5117 164.688 73.516 164.695 73.5192C164.699 73.5208 164.702 73.5221 164.704 73.5231C164.706 73.5236 164.707 73.5241 164.707 73.5244C164.708 73.5246 164.708 73.5248 164.708 73.5249C164.709 73.5251 164.709 73.5253 163.756 75.7006ZM142.545 70.8358V73.2108C137.825 73.2108 132.753 74.3551 128.783 75.5434C126.814 76.1326 125.152 76.7218 123.986 77.1623C123.403 77.3823 122.946 77.5646 122.638 77.6904C122.484 77.7533 122.367 77.8021 122.29 77.8343C122.252 77.8504 122.224 77.8623 122.207 77.8699C122.198 77.8736 122.192 77.8763 122.188 77.8778C122.186 77.8786 122.185 77.879 122.185 77.8792C122.185 77.8793 122.185 77.8793 122.185 77.8793C122.185 77.8792 122.185 77.8791 122.185 77.8791C122.185 77.879 122.186 77.8789 121.239 75.7006C120.293 73.5223 120.293 73.5221 120.294 73.5219C120.294 73.5218 120.294 73.5216 120.295 73.5214C120.296 73.5211 120.297 73.5207 120.298 73.5202C120.3 73.5192 120.303 73.5179 120.307 73.5163C120.314 73.5131 120.324 73.5088 120.337 73.5034C120.362 73.4925 120.398 73.4771 120.445 73.4576C120.537 73.4186 120.671 73.3628 120.843 73.2926C121.186 73.1524 121.683 72.9547 122.308 72.7186C123.557 72.2469 125.326 71.6199 127.421 70.9929C131.576 69.7489 137.157 68.4608 142.545 68.4608V70.8358ZM118.453 91.2602L116.078 91.2931C116.03 87.8185 116.212 84.3892 116.692 81.47C117.151 78.6727 117.946 75.9082 119.429 74.1627L121.239 75.7006L123.049 77.2384C122.464 77.9269 121.819 79.5578 121.379 82.2396C120.959 84.7995 120.782 87.933 120.828 91.2272L118.453 91.2602ZM118.453 91.2602L119.878 89.3602C119.872 89.3556 119.867 89.352 119.864 89.35C119.862 89.3481 119.86 89.3465 119.86 89.3468C119.86 89.3468 119.86 89.3468 119.86 89.3468C119.86 89.3468 119.86 89.3468 119.86 89.3468C119.86 89.3468 119.86 89.3468 119.86 89.3468C119.86 89.3468 119.86 89.3468 119.86 89.3468C119.86 89.3469 119.86 89.3469 119.86 89.347C119.86 89.3471 119.861 89.3473 119.861 89.3476C119.862 89.3481 119.863 89.3489 119.864 89.35C119.867 89.352 119.872 89.3557 119.878 89.3602L118.453 91.2602L117.028 93.1602C117.034 93.1648 117.039 93.1684 117.042 93.1704C117.044 93.1723 117.047 93.1739 117.046 93.1736C117.046 93.1736 117.046 93.1736 117.046 93.1736C117.046 93.1736 117.046 93.1736 117.046 93.1736C117.046 93.1736 117.046 93.1736 117.046 93.1736C117.046 93.1736 117.046 93.1736 117.046 93.1736C117.046 93.1735 117.046 93.1735 117.046 93.1734C117.046 93.1733 117.045 93.1731 117.045 93.1728C117.044 93.1723 117.043 93.1715 117.042 93.1704C117.039 93.1684 117.034 93.1648 117.028 93.1602L118.453 91.2602ZM118.453 91.2602L116.078 91.2932C116.03 87.8185 116.213 84.3893 116.692 81.4701C117.151 78.6728 117.946 75.9083 119.43 74.1628L121.239 75.7006L123.049 77.2385C122.464 77.927 121.819 79.5578 121.379 82.2397C120.959 84.7995 120.782 87.9331 120.828 91.2273L118.453 91.2602ZM121.239 75.7006C120.293 73.5223 120.293 73.5222 120.294 73.522C120.294 73.5219 120.295 73.5217 120.295 73.5215C120.296 73.5211 120.297 73.5207 120.298 73.5202C120.3 73.5192 120.303 73.5179 120.307 73.5163C120.314 73.5132 120.324 73.5089 120.337 73.5034C120.362 73.4926 120.398 73.4772 120.445 73.4577C120.537 73.4186 120.671 73.3628 120.843 73.2927C121.186 73.1525 121.683 72.9547 122.308 72.7187C123.557 72.247 125.326 71.62 127.421 70.993C131.577 69.749 137.157 68.4608 142.546 68.4608V70.8358V73.2108C137.825 73.2108 132.753 74.3551 128.783 75.5435C126.815 76.1327 125.152 76.7219 123.986 77.1624C123.403 77.3824 122.946 77.5647 122.638 77.6905C122.484 77.7534 122.367 77.8021 122.291 77.8343C122.252 77.8504 122.224 77.8624 122.207 77.8699C122.198 77.8737 122.192 77.8763 122.188 77.8779C122.186 77.8786 122.185 77.8791 122.185 77.8793C122.185 77.8794 122.185 77.8794 122.185 77.8793C122.185 77.8793 122.185 77.8792 122.185 77.8792C122.185 77.8791 122.186 77.8789 121.239 75.7006ZM142.546 70.8358V68.4608C153.188 68.4608 164.682 73.5134 164.709 73.525L163.756 75.7006L162.803 77.8761C162.84 77.8923 160.155 76.7151 156.24 75.5372C152.298 74.3513 147.258 73.2108 142.546 73.2108V70.8358Z" fill="#1F1F1F" mask="url(#path-3-outside-1_120_1960)"/>
</g>
<mask id="mask0_120_1960" style="mask-type:alpha" maskUnits="userSpaceOnUse" x="108" y="70" width="69" height="56">
<path fill-rule="evenodd" clip-rule="evenodd" d="M163.756 75.7006L164.084 74.9521L164.25 75.0249L164.37 75.1614C165.635 76.6023 166.509 79.0785 167.078 81.9451C167.598 84.5598 167.884 87.611 167.94 90.7479C169.498 89.5437 170.846 88.264 171.668 87.0058C171.9 86.6493 172.369 86.4975 172.725 86.7315C179.607 91.2585 176.188 103.535 173.235 104.929C172.855 105.109 173.292 105.88 173.639 106.39C173.84 106.687 173.914 107.058 173.782 107.391C172.209 111.362 166.806 118.722 163.004 117.671L163.262 118.53C163.331 118.761 163.268 119.014 163.092 119.179C160.172 121.917 156.464 122.987 154.156 120.567C149.34 123.544 144.382 125.461 142.522 125.461C140.737 125.461 135.708 123.84 130.918 121.125C128.604 122.786 125.284 121.677 122.621 119.179C122.444 119.014 122.381 118.761 122.451 118.53L122.709 117.671C118.907 118.722 113.503 111.362 111.93 107.391C111.798 107.058 111.872 106.687 112.074 106.39C112.42 105.88 112.858 105.109 112.478 104.929C109.525 103.535 106.105 91.2584 112.988 86.7315C113.344 86.4975 113.812 86.6493 114.045 87.0058C114.842 88.2254 116.133 89.4653 117.63 90.637C117.612 87.4933 117.792 84.445 118.209 81.8444C118.661 79.0309 119.412 76.5896 120.617 75.1714L120.74 75.0267L120.914 74.951L121.239 75.7006C120.914 74.951 120.914 74.951 120.914 74.9509L120.924 74.9467L120.95 74.9354C120.973 74.9256 121.006 74.9114 121.05 74.893C121.137 74.8561 121.265 74.8027 121.431 74.7349C121.763 74.5994 122.247 74.4067 122.858 74.1759C124.08 73.7145 125.814 73.0999 127.867 72.4853C131.962 71.2595 137.376 70.0186 142.546 70.0186C147.715 70.0186 153.106 71.2596 157.177 72.4857C159.219 73.1004 160.941 73.7151 162.154 74.1766C162.761 74.4075 163.241 74.6002 163.57 74.7358C163.735 74.8036 163.862 74.8571 163.949 74.8939C163.992 74.9123 164.025 74.9266 164.048 74.9364L164.057 74.9401L164.074 74.9477L164.081 74.9507L164.084 74.9519C164.084 74.952 164.084 74.9521 163.756 75.7006ZM167.131 91.3539C167.073 84.5918 165.938 78.1862 163.756 75.7006C163.756 75.7006 152.654 70.8358 142.546 70.8358C132.437 70.8358 121.239 75.7006 121.239 75.7006C121.239 75.7006 121.239 75.7006 121.239 75.7006C121.239 75.7006 132.437 70.8358 142.545 70.8358C152.654 70.8358 163.756 75.7006 163.756 75.7006C165.938 78.1862 167.073 84.5919 167.131 91.3539C167.131 91.3539 167.131 91.3539 167.131 91.3539Z" fill="#D9D9D9"/>
</mask>
<g mask="url(#mask0_120_1960)">
<path d="M171.668 87.0062C169.93 89.6664 165.84 92.4229 162.392 94.3587C158.131 100.466 150.871 113.326 152.85 118.42C154.778 123.381 159.524 122.525 163.091 119.18C163.268 119.014 163.331 118.762 163.262 118.53L163.004 117.671C166.805 118.722 172.209 111.363 173.782 107.391C173.914 107.058 173.84 106.687 173.639 106.39C173.292 105.88 172.854 105.109 173.234 104.93C176.187 103.535 179.607 91.2588 172.725 86.7318C172.369 86.4978 171.9 86.6496 171.668 87.0062Z" fill="url(#paint1_linear_120_1960)"/>
<path d="M114.045 87.0062C115.783 89.6664 119.873 92.4229 123.32 94.3587C127.581 100.466 134.842 113.326 132.862 118.42C130.934 123.381 126.189 122.525 122.621 119.18C122.444 119.014 122.381 118.762 122.451 118.53L122.709 117.671C118.907 118.722 113.503 111.363 111.93 107.391C111.798 107.058 111.872 106.687 112.074 106.39C112.42 105.88 112.858 105.109 112.478 104.93C109.525 103.535 106.105 91.2588 112.988 86.7318C113.344 86.4978 113.812 86.6496 114.045 87.0062Z" fill="url(#paint2_linear_120_1960)"/>
<mask id="mask1_120_1960" style="mask-type:alpha" maskUnits="userSpaceOnUse" x="108" y="86" width="69" height="36">
<path d="M172.724 86.7322C172.368 86.4984 171.9 86.6501 171.668 87.0066C169.93 89.6668 165.839 92.4233 162.392 94.3591C158.131 100.467 150.871 113.326 152.85 118.42C154.778 123.38 159.524 122.525 163.091 119.18C163.268 119.015 163.331 118.762 163.261 118.53L163.003 117.672C166.805 118.723 172.209 111.362 173.782 107.391C173.914 107.058 173.84 106.687 173.638 106.39C173.292 105.881 172.855 105.11 173.234 104.93C176.187 103.536 179.607 91.2591 172.724 86.7322ZM114.044 87.0066C113.812 86.6501 113.344 86.4983 112.988 86.7322C106.105 91.2591 109.525 103.536 112.478 104.93C112.858 105.11 112.42 105.88 112.074 106.39C111.872 106.687 111.798 107.058 111.93 107.391C113.503 111.362 118.907 118.723 122.709 117.672L122.451 118.53C122.381 118.762 122.444 119.015 122.621 119.18C126.188 122.525 130.934 123.38 132.862 118.42C134.841 113.326 127.581 100.467 123.32 94.3591C119.873 92.4233 115.782 89.6668 114.044 87.0066Z" fill="url(#paint3_linear_120_1960)"/>
</mask>
<g mask="url(#mask1_120_1960)">
<path d="M170.549 106.629C173.546 106.411 175.203 103.496 175.657 102.066L178.449 95.6643C177.496 96.4134 174.689 99.9313 171.775 101.112C169.255 102.134 165.873 101.521 165.374 101.112L163.807 105.948C164.806 106.266 167.553 106.847 170.549 106.629Z" fill="url(#paint4_linear_120_1960)"/>
<path d="M161.831 117.577C164.095 118.762 166.6 117.398 167.569 116.567L172.456 113.19C171.431 113.305 167.825 114.59 165.19 114.138C162.91 113.748 160.739 111.789 160.561 111.269L157.262 114.063C157.842 114.741 159.567 116.392 161.831 117.577Z" fill="url(#paint5_linear_120_1960)"/>
<path d="M153.417 122.342C155.281 124.091 158.059 123.446 159.216 122.906L164.829 120.961C163.811 120.797 159.992 121.07 157.574 119.929C155.482 118.942 153.915 116.473 153.883 115.925L149.956 117.734C150.333 118.541 151.553 120.594 153.417 122.342Z" fill="url(#paint6_linear_120_1960)"/>
<path d="M175.363 88.317L172.805 86.2455L167.03 87.0797C166.007 89.1666 164.416 93.4719 166.238 93.9983C168.059 94.5247 173.08 90.4301 175.363 88.317Z" fill="#15B2D7"/>
<path d="M165.373 105.879C166.299 106.384 171.961 105.894 173.272 104.994C174.138 105.337 174.394 106.959 173.272 107.582C172.176 108.191 167.091 107.735 164.829 107.582C164.546 106.931 164.695 105.509 165.373 105.879Z" fill="#15B2D7"/>
<path d="M159.844 114.352C159.885 115.093 162.017 117.441 163.417 117.852C163.537 118.49 163.321 119.063 162.377 119.091C161.589 119.115 159.312 116.095 159.099 114.819C159.399 114.381 159.814 113.809 159.844 114.352Z" fill="#15B2D7"/>
<path d="M115.177 106.629C112.18 106.411 110.523 103.496 110.069 102.066L107.277 95.6643C108.23 96.4134 111.037 99.9313 113.951 101.112C116.47 102.134 119.853 101.521 120.352 101.112L121.919 105.948C120.92 106.266 118.173 106.847 115.177 106.629Z" fill="url(#paint7_linear_120_1960)"/>
<path d="M123.895 117.577C121.631 118.762 119.126 117.398 118.157 116.567L113.27 113.19C114.295 113.305 117.901 114.59 120.536 114.138C122.816 113.748 124.987 111.789 125.164 111.269L128.464 114.063C127.884 114.741 126.159 116.392 123.895 117.577Z" fill="url(#paint8_linear_120_1960)"/>
<path d="M132.309 122.342C130.445 124.091 127.667 123.446 126.51 122.906L120.897 120.961C121.915 120.797 125.734 121.07 128.152 119.929C130.244 118.942 131.811 116.473 131.843 115.925L135.77 117.734C135.393 118.541 134.173 120.594 132.309 122.342Z" fill="url(#paint9_linear_120_1960)"/>
<path d="M110.362 88.317L112.921 86.2455L118.696 87.0797C119.719 89.1666 121.309 93.4719 119.488 93.9983C117.667 94.5247 112.645 90.4301 110.362 88.317Z" fill="#15B2D7"/>
<path d="M120.352 105.879C119.427 106.384 113.764 105.894 112.454 104.994C111.588 105.337 111.332 106.959 112.454 107.582C113.55 108.191 118.635 107.735 120.897 107.582C121.18 106.931 121.031 105.509 120.352 105.879Z" fill="#15B2D7"/>
<path d="M125.882 114.352C125.841 115.093 123.708 117.441 122.308 117.852C122.189 118.49 122.405 119.063 123.349 119.091C124.136 119.115 126.413 116.095 126.626 114.819C126.327 114.381 125.912 113.809 125.882 114.352Z" fill="#15B2D7"/>
<path d="M165.503 112.078C160.596 120.241 146.189 127.059 142.582 127.059C138.975 127.059 123.087 120.797 119.609 112.078C116.131 103.359 115.127 86.3543 119.609 74.6837C122.092 74.083 130.226 73.9529 131.927 74.8001C134.361 72.319 140.317 69.1726 142.608 69.1726C144.899 69.1726 151.216 72.3014 153.185 74.8001C154.886 73.9529 163.846 74.1628 165.503 74.6837C170.053 86.4223 170.411 103.915 165.503 112.078Z" fill="#8BAEC0" style="mix-blend-mode:multiply"/>
</g>
<path d="M163.756 111.865C159.21 119.273 145.864 125.461 142.522 125.461C139.18 125.461 124.461 119.778 121.239 111.865C118.018 103.952 117.043 82.8656 121.239 77.9273C121.239 77.9273 132.437 73.0625 142.545 73.0625C152.654 73.0625 163.756 77.9273 163.756 77.9273C168.215 83.0067 168.302 104.456 163.756 111.865Z" fill="#CA4B00"/>
<path d="M142.545 70.4277C137.434 70.4277 132.064 71.656 127.985 72.877C125.943 73.4883 124.217 74.0998 123.002 74.5586C122.395 74.788 121.914 74.979 121.585 75.1133C121.421 75.1804 121.294 75.2333 121.208 75.2695C121.166 75.2876 121.133 75.302 121.111 75.3115C121.1 75.3162 121.091 75.3198 121.085 75.3223C121.083 75.3234 121.08 75.3246 121.079 75.3252H121.078L121.077 75.3262L120.99 75.3643L120.928 75.4365C119.801 76.7629 119.063 79.1051 118.613 81.9092C118.159 84.735 117.988 88.1069 118.049 91.5615C118.168 98.2413 119.157 105.31 120.708 109.405L120.861 109.792C121.699 111.851 123.273 113.739 125.185 115.408C127.1 117.079 129.374 118.549 131.642 119.764C133.912 120.979 136.186 121.946 138.106 122.609C140.009 123.267 141.612 123.643 142.522 123.643C143.441 123.642 144.965 123.229 146.758 122.532C148.571 121.828 150.713 120.815 152.89 119.569C157.095 117.164 161.492 113.859 163.879 110.206L164.104 109.852C165.28 107.936 166.139 105.147 166.704 101.996C167.27 98.8365 167.547 95.2769 167.542 91.7949C167.536 88.3136 167.248 84.8971 166.677 82.0244C166.11 79.1708 165.253 76.7859 164.063 75.4307L164.003 75.3633L163.92 75.3262L163.756 75.7012L163.919 75.3262L163.917 75.3252C163.916 75.3245 163.913 75.3235 163.911 75.3223C163.905 75.3198 163.897 75.3161 163.886 75.3115C163.864 75.302 163.831 75.2886 163.789 75.2705C163.703 75.2343 163.578 75.1814 163.415 75.1143C163.088 74.98 162.611 74.788 162.008 74.5586C160.802 74.0998 159.089 73.4883 157.059 72.877C153.004 71.6559 147.657 70.4277 142.545 70.4277Z" fill="url(#paint10_linear_120_1960)" stroke="url(#paint11_linear_120_1960)" stroke-width="0.817223"/>
<mask id="mask2_120_1960" style="mask-type:alpha" maskUnits="userSpaceOnUse" x="118" y="70" width="50" height="54">
<path d="M163.756 109.638C159.21 117.047 145.864 123.234 142.522 123.234C139.18 123.234 124.461 117.551 121.239 109.638C118.018 101.725 117.043 80.639 121.239 75.7007C121.239 75.7007 132.437 70.8359 142.545 70.8359C152.654 70.8359 163.756 75.7007 163.756 75.7007C168.215 80.7801 168.302 102.23 163.756 109.638Z" fill="url(#paint12_linear_120_1960)"/>
</mask>
<g mask="url(#mask2_120_1960)">
<path d="M142.355 67.2659V83.8827H148.689L154.545 69.7175L142.355 67.2659Z" fill="#FFFFCB"/>
<g filter="url(#filter2_i_120_1960)">
<path d="M158.279 105.76C154.953 111.237 145.187 115.812 142.742 115.812C140.297 115.812 129.527 111.61 127.17 105.76C124.812 99.9091 124.099 84.3185 127.17 80.6672C127.17 80.6672 135.363 77.0703 142.759 77.0703C150.156 77.0703 158.279 80.6672 158.279 80.6672C161.542 84.4228 161.606 100.282 158.279 105.76Z" fill="url(#paint13_linear_120_1960)"/>
</g>
<path d="M142.759 76.3281C138.956 76.3281 134.978 77.2502 131.976 78.1582C130.47 78.6138 129.197 79.0699 128.3 79.4121C127.852 79.5831 127.497 79.7256 127.253 79.8262C127.131 79.8765 127.037 79.9169 126.972 79.9443C126.94 79.9579 126.916 79.9683 126.899 79.9756C126.891 79.9792 126.884 79.9824 126.879 79.9844C126.877 79.9854 126.875 79.9858 126.874 79.9863L126.872 79.9873L126.712 80.0576L126.601 80.1895C125.693 81.2689 125.141 83.1069 124.81 85.1895C124.473 87.3114 124.347 89.8308 124.392 92.4014C124.476 97.1984 125.158 102.304 126.256 105.438L126.481 106.037C127.129 107.646 128.334 109.096 129.762 110.355C131.195 111.619 132.889 112.723 134.57 113.633C136.252 114.543 137.937 115.267 139.364 115.766C140.76 116.253 141.995 116.555 142.742 116.555C143.506 116.555 144.69 116.219 146.004 115.703C147.353 115.174 148.94 114.414 150.551 113.482C153.647 111.693 156.94 109.207 158.744 106.416L158.914 106.146C159.815 104.661 160.456 102.536 160.873 100.186C161.292 97.8202 161.497 95.1624 161.493 92.5664C161.489 89.9714 161.276 87.4166 160.852 85.2588C160.435 83.1357 159.79 81.2748 158.839 80.1807L158.731 80.0557L158.58 79.9883H158.579L158.578 79.9873C158.576 79.9867 158.574 79.9863 158.572 79.9854C158.567 79.9834 158.561 79.9802 158.552 79.9766C158.535 79.9692 158.511 79.9589 158.479 79.9453C158.415 79.9179 158.322 79.8775 158.201 79.8271C157.959 79.7265 157.606 79.5833 157.161 79.4121C156.27 79.0699 155.007 78.6148 153.509 78.1592C150.524 77.2509 146.563 76.3281 142.759 76.3281Z" stroke="url(#paint14_linear_120_1960)" stroke-width="1.48438"/>
<path d="M142.759 77.4414C139.114 77.4414 135.257 78.3289 132.298 79.2236C130.822 79.6702 129.575 80.1174 128.698 80.4521C128.259 80.6195 127.913 80.7583 127.677 80.8555C127.559 80.904 127.469 80.942 127.409 80.9678C127.407 80.9685 127.405 80.969 127.404 80.9697C126.732 81.8141 126.228 83.3558 125.91 85.3633C125.586 87.4019 125.461 89.8533 125.505 92.3818C125.589 97.1349 126.267 102.096 127.302 105.057L127.514 105.621C128.074 107.011 129.144 108.325 130.499 109.521C131.851 110.714 133.47 111.772 135.099 112.653C136.728 113.535 138.359 114.235 139.731 114.714C141.118 115.198 142.198 115.441 142.742 115.441C143.277 115.441 144.288 115.181 145.598 114.667C146.891 114.16 148.428 113.424 149.995 112.519C153.043 110.756 156.148 108.379 157.806 105.815L157.962 105.567C158.759 104.256 159.368 102.29 159.776 99.9912C160.182 97.7003 160.383 95.1094 160.379 92.5684C160.375 90.0266 160.166 87.5455 159.759 85.4736C159.358 83.4326 158.775 81.8468 158.05 80.9717C158.047 80.9703 158.043 80.9693 158.04 80.9678C157.98 80.942 157.89 80.904 157.773 80.8555C157.539 80.7583 157.196 80.6184 156.761 80.4512C155.891 80.1165 154.653 79.6701 153.185 79.2236C150.245 78.3289 146.405 77.4414 142.759 77.4414Z" stroke="url(#paint15_linear_120_1960)" stroke-width="0.742188"/>
<g filter="url(#filter3_d_120_1960)">
<path d="M142.824 104.234C138.03 104.234 132.239 103.502 130.374 101.372C128.51 99.2413 127.845 89.5455 129.11 88.2806C130.374 87.8623 135.567 90.9088 135.567 93.1266C135.801 89.5258 139.439 85.9657 141.886 84.2195C142.449 83.8171 143.198 83.8171 143.762 84.2195C146.208 85.9657 149.846 89.5258 150.08 93.1266C150.08 91.2714 154.939 87.9348 156.538 88.2806C157.803 89.5455 157.137 99.2413 155.273 101.372C153.409 103.502 147.617 104.234 142.824 104.234Z" fill="url(#paint16_linear_120_1960)"/>
<path d="M143.878 83.7754C143.182 83.3565 142.303 83.3867 141.632 83.8652L141.151 84.2207C139.999 85.0989 138.672 86.31 137.557 87.7061C136.632 88.8648 135.835 90.1765 135.422 91.5498C135.313 91.3927 135.194 91.2396 135.067 91.0918C134.528 90.4629 133.806 89.8621 133.057 89.3545C132.307 88.8462 131.51 88.4195 130.811 88.1445C130.462 88.0073 130.127 87.9038 129.828 87.8496C129.575 87.804 129.31 87.7858 129.073 87.8398L128.973 87.8672L128.875 87.8994L128.802 87.9727C128.557 88.2182 128.405 88.6067 128.302 89.0117C128.195 89.4349 128.122 89.9526 128.078 90.5264C127.989 91.6759 128.013 93.0976 128.135 94.5381C128.257 95.9791 128.479 97.4541 128.791 98.71C129.077 99.8664 129.455 100.903 129.947 101.537L130.047 101.658C130.575 102.261 131.353 102.738 132.264 103.119C133.18 103.502 134.259 103.801 135.417 104.029C137.443 104.429 139.745 104.62 141.907 104.661L142.824 104.67C145.239 104.67 147.915 104.486 150.231 104.029C151.389 103.801 152.468 103.502 153.383 103.119C154.18 102.786 154.876 102.379 155.391 101.879L155.6 101.658C156.141 101.04 156.551 99.9435 156.857 98.71C157.169 97.4541 157.39 95.9791 157.512 94.5381C157.634 93.0976 157.658 91.6759 157.57 90.5264C157.526 89.9526 157.453 89.4349 157.345 89.0117C157.242 88.6067 157.091 88.2182 156.845 87.9727L156.755 87.8828L156.63 87.8555C156.345 87.7938 156.025 87.8195 155.709 87.8877C155.388 87.9571 155.04 88.0774 154.682 88.2314C153.967 88.5396 153.182 88.9993 152.455 89.5254C151.728 90.0511 151.041 90.6544 150.532 91.2568C150.432 91.3749 150.338 91.4976 150.249 91.6211C149.842 90.2217 149.032 88.885 148.09 87.7061C146.816 86.1107 145.264 84.757 144.015 83.8652L143.878 83.7754Z" stroke="#FF421F" stroke-width="0.870421"/>
</g>
<path fill-rule="evenodd" clip-rule="evenodd" d="M130.374 100.066C132.239 102.196 138.03 102.929 142.824 102.929C147.617 102.929 153.409 102.196 155.273 100.066C156.405 98.7726 157.095 94.6907 157.179 91.3999C157.276 94.8188 156.561 99.9001 155.273 101.372C153.409 103.502 147.617 104.234 142.824 104.234C138.03 104.234 132.239 103.502 130.374 101.372C129.087 99.9001 128.371 94.8189 128.468 91.4C128.553 94.6908 129.243 98.7726 130.374 100.066Z" fill="#FFDCC6" style="mix-blend-mode:multiply"/>
<mask id="mask3_120_1960" style="mask-type:alpha" maskUnits="userSpaceOnUse" x="128" y="83" width="30" height="22">
<path d="M142.824 104.234C138.03 104.234 132.239 103.502 130.374 101.372C128.51 99.2413 127.845 89.5455 129.11 88.2806C130.374 87.8623 135.567 90.9088 135.567 93.1266C135.801 89.5258 139.439 85.9657 141.886 84.2195C142.449 83.8171 143.198 83.8171 143.762 84.2195C146.208 85.9657 149.846 89.5258 150.08 93.1266C150.08 91.2714 154.939 87.9348 156.538 88.2806C157.803 89.5455 157.137 99.2413 155.273 101.372C153.409 103.502 147.617 104.234 142.824 104.234Z" fill="url(#paint17_linear_120_1960)"/>
</mask>
<g mask="url(#mask3_120_1960)">
<path fill-rule="evenodd" clip-rule="evenodd" d="M157.16 93.2499C157.09 91.9475 156.888 90.9518 156.538 90.6017C155.211 90.3146 151.886 92.1657 150.588 94.1962C150.494 94.3427 149.898 94.2768 149.854 94.1086C148.981 90.7906 145.891 87.114 143.74 85.3916C143.199 84.9587 142.449 84.9587 141.908 85.3916C139.747 87.1216 136.64 90.8229 135.782 94.1522C135.739 94.32 135.142 94.3957 135.045 94.2525C133.683 92.2523 130.162 90.2538 129.11 90.6017C128.759 90.9518 128.557 91.9475 128.487 93.2499C128.382 90.888 128.571 88.8195 129.11 88.2807C130.374 87.8623 135.567 90.9088 135.567 93.1266C135.802 89.5149 139.462 85.0292 141.908 83.0705C142.449 82.6376 143.199 82.6376 143.74 83.0705C146.186 85.0292 149.846 89.5149 150.08 93.1266C150.08 91.2715 154.939 87.9348 156.538 88.2807C157.077 88.8195 157.265 90.888 157.16 93.2499Z" fill="#FFFF85"/>
<path d="M139.292 105.989C136.331 99.5486 136.048 87.2271 139.489 83.5571L125.926 83.4376L126.526 105.876L139.292 105.989Z" fill="#FFDCC6" style="mix-blend-mode:multiply"/>
<path d="M135.283 106.93C131.672 100.83 130.118 88.604 133.162 84.5981L119.659 85.8804L122.574 108.137L135.283 106.93Z" fill="#FFDCC6" style="mix-blend-mode:multiply"/>
<path d="M147.977 105.989C150.937 99.5486 151.221 87.2271 147.779 83.5571L161.342 83.4376L160.742 105.876L147.977 105.989Z" fill="#FFDCC6" style="mix-blend-mode:multiply"/>
<path d="M151.045 106.573C154.347 100.301 155.291 88.0125 152.052 84.1631L165.602 84.7718L163.798 107.146L151.045 106.573Z" fill="#FFDCC6" style="mix-blend-mode:multiply"/>
<path d="M144.04 87.3611C143.361 86.7832 142.371 86.8059 141.711 87.4005L141.574 87.5365C141.039 88.1305 140.368 88.9011 139.726 89.7193C139.137 90.4699 138.661 91.1625 138.308 91.7136L137.995 92.2149C137.662 92.7659 137.667 93.4585 138.066 93.9868C138.407 94.4387 138.945 95.0837 139.748 95.8872C140.351 96.4905 140.91 96.9885 141.374 97.3766L141.806 97.7281C142.429 98.2225 143.291 98.2119 143.911 97.7198C144.461 97.2821 145.209 96.6494 145.971 95.8872C146.788 95.0698 147.361 94.366 147.713 93.8922C148.059 93.4279 148.124 92.8179 147.854 92.2943C147.558 91.7201 147.026 90.8293 146.129 89.7172C145.415 88.8314 144.724 88.0674 144.18 87.4944L144.04 87.3611Z" fill="url(#paint18_linear_120_1960)" stroke="#740015" stroke-width="0.572689"/>
<mask id="mask4_120_1960" style="mask-type:alpha" maskUnits="userSpaceOnUse" x="138" y="87" width="10" height="11">
<path d="M147.483 93.7214C147.767 93.3405 147.817 92.8472 147.6 92.4253C147.312 91.868 146.79 90.9937 145.906 89.8966C145.198 89.0182 144.513 88.2605 143.973 87.6917C143.369 87.0559 142.374 87.077 141.787 87.7281C141.253 88.3192 140.588 89.085 139.951 89.8966C139.174 90.8866 138.597 91.774 138.24 92.3635C137.962 92.8219 137.972 93.3865 138.294 93.8143C138.627 94.2553 139.156 94.8902 139.951 95.6849C140.746 96.4802 141.461 97.0892 141.984 97.5033C142.501 97.9136 143.216 97.9068 143.733 97.4958C144.277 97.0627 145.016 96.4374 145.769 95.6849C146.575 94.8783 147.138 94.1853 147.483 93.7214Z" fill="#D9D9D9"/>
</mask>
<g mask="url(#mask4_120_1960)">
<g filter="url(#filter4_d_120_1960)">
<path d="M147.745 93.6287C148.035 93.2385 148.087 92.7332 147.864 92.301C147.569 91.73 147.035 90.8344 146.129 89.7106C145.404 88.8107 144.702 88.0345 144.148 87.4519C143.53 86.8005 142.511 86.8222 141.909 87.4892C141.363 88.0947 140.681 88.8792 140.029 89.7106C139.233 90.7247 138.642 91.6338 138.276 92.2376C137.991 92.7073 138.001 93.2856 138.332 93.7239C138.673 94.1756 139.215 94.826 140.029 95.6401C140.843 96.4548 141.576 97.0786 142.111 97.5029C142.641 97.9232 143.373 97.9162 143.903 97.4952C144.461 97.0516 145.217 96.4109 145.988 95.6401C146.815 94.8139 147.391 94.1039 147.745 93.6287Z" fill="#D9D9D9"/>
<path d="M144.312 87.2972C143.645 86.5958 142.574 86.5752 141.876 87.2039L141.741 87.3386C141.193 87.9464 140.509 88.7352 139.852 89.5718C139.049 90.5945 138.452 91.5114 138.083 92.1212C137.775 92.6295 137.762 93.258 138.083 93.7606L138.152 93.86C138.5 94.3203 139.049 94.9781 139.87 95.799C140.486 96.4151 141.056 96.9232 141.53 97.3196L141.971 97.6793C142.585 98.1657 143.433 98.1559 144.043 97.6711C144.606 97.2238 145.369 96.5773 146.147 95.799C146.982 94.9643 147.566 94.2456 147.925 93.7626L148.04 93.5859C148.276 93.1592 148.295 92.646 148.063 92.1979C147.762 91.6136 147.219 90.7054 146.304 89.5697L145.763 88.9144C145.231 88.2854 144.729 87.7366 144.312 87.2972Z" stroke="#1F1F1F" stroke-width="0.449951"/>
</g>
<path d="M144.22 87.3835C143.561 86.6901 142.475 86.7148 141.836 87.4235C141.289 88.0301 140.605 88.8161 139.951 89.6498C139.352 90.4131 138.868 91.1171 138.509 91.6772L138.191 92.1868C137.907 92.657 137.897 93.2331 138.191 93.6929L138.254 93.7833C138.597 94.2388 139.142 94.893 139.959 95.7099C140.573 96.3233 141.14 96.8286 141.612 97.2229L142.05 97.5799C142.617 98.029 143.399 98.021 143.964 97.5723C144.524 97.1271 145.284 96.4841 146.058 95.7099C146.888 94.88 147.468 94.1659 147.824 93.6874C148.135 93.2685 148.193 92.723 147.951 92.2559C147.654 91.6791 147.116 90.7775 146.206 89.6484C145.478 88.7461 144.775 87.9676 144.22 87.3835Z" fill="url(#paint19_linear_120_1960)" stroke="#AE060C" stroke-width="0.196854"/>
<mask id="mask5_120_1960" style="mask-type:alpha" maskUnits="userSpaceOnUse" x="138" y="86" width="11" height="12">
<path d="M147.745 93.6287C148.035 93.2385 148.087 92.7332 147.864 92.301C147.569 91.73 147.035 90.8344 146.129 89.7106C145.404 88.8107 144.702 88.0345 144.148 87.4519C143.53 86.8005 142.511 86.8222 141.909 87.4892C141.363 88.0947 140.681 88.8792 140.029 89.7106C139.233 90.7247 138.642 91.6338 138.276 92.2376C137.991 92.7073 138.001 93.2856 138.332 93.7239C138.673 94.1756 139.215 94.826 140.029 95.6401C140.843 96.4548 141.576 97.0786 142.111 97.5029C142.641 97.9232 143.373 97.9162 143.903 97.4952C144.461 97.0516 145.217 96.4109 145.988 95.6401C146.815 94.8139 147.391 94.1039 147.745 93.6287Z" fill="#D9D9D9"/>
</mask>
<g mask="url(#mask5_120_1960)">
<rect x="137.504" y="86.5845" width="5.31505" height="6.13058" fill="#FF6C88"/>
<rect x="142.819" y="92.7151" width="5.31505" height="6.13058" fill="#CA134A"/>
<rect x="143.49" y="86.5845" width="5.31505" height="6.13058" fill="#D51342"/>
<path d="M143.8 86.0217H142.225L142.787 89.2558H143.237L143.8 86.0217Z" fill="url(#paint20_linear_120_1960)"/>
<path d="M143.8 98.958H142.225L142.787 95.724H143.237L143.8 98.958Z" fill="url(#paint21_linear_120_1960)"/>
<path d="M149.199 91.9556L149.199 93.5304L145.965 92.968L145.965 92.518L149.199 91.9556Z" fill="url(#paint22_linear_120_1960)"/>
<path d="M136.994 91.9556L136.994 93.5304L140.228 92.968L140.228 92.518L136.994 91.9556Z" fill="url(#paint23_linear_120_1960)"/>
<path d="M146.148 92.4758C146.148 92.4758 146.003 91.9761 144.963 90.6858C144.17 89.7022 143.633 89.0101 143.322 88.7075C143.225 88.6131 142.773 88.6513 142.689 88.7075C142.604 88.7637 141.958 89.5219 141.044 90.6858C140.131 91.8497 139.834 92.5321 139.834 92.5321L139.772 93.0102C139.954 93.2784 140.341 93.7916 141.044 94.495C141.783 95.2342 142.417 95.7288 142.737 95.963C142.879 96.0669 143.265 96.0052 143.265 96.0052C143.265 96.0052 143.899 95.4691 144.873 94.495C145.495 93.8729 145.911 93.3185 146.12 93.0242C146.238 92.8577 146.148 92.4758 146.148 92.4758Z" fill="url(#paint24_linear_120_1960)"/>
<path d="M146.08 92.3159C146.074 92.3905 146.058 92.462 146.021 92.5132C145.812 92.8075 145.396 93.3618 144.774 93.9839C144.267 94.4917 143.851 94.8804 143.57 95.1362C143.309 95.3737 142.924 95.6599 142.64 95.4517C142.32 95.2175 141.686 94.7231 140.946 93.9839C140.493 93.5304 140.171 93.1562 139.95 92.8755C139.874 92.7789 139.816 92.6716 139.771 92.5591V93.0103C139.954 93.2785 140.341 93.7915 141.044 94.4946C141.783 95.2337 142.417 95.7282 142.737 95.9624C142.879 96.0663 143.266 96.0054 143.266 96.0054C143.271 96.001 143.903 95.4648 144.873 94.4946C145.495 93.8726 145.911 93.3182 146.12 93.0239C146.236 92.8595 146.15 92.4863 146.147 92.4761C146.147 92.4761 146.133 92.4256 146.08 92.3159Z" fill="#EBA9B1" style="mix-blend-mode:overlay"/>
<path d="M142.674 88.6934C142.773 88.5975 143.227 88.6317 143.312 88.6875C143.343 88.7084 143.452 88.8278 143.623 89.0283C143.402 88.8834 143.122 88.7877 142.977 88.9453C142.661 89.2528 142.17 89.8931 141.364 90.8906C140.305 92.1994 139.8 92.8539 139.799 92.9815C139.799 93.0057 139.806 93.0359 139.817 93.0703L139.816 93.0694C139.698 92.9025 139.792 92.5166 139.792 92.5166C139.798 92.4991 139.961 91.9892 141.002 90.7022C141.81 89.7039 142.358 89.0014 142.674 88.6934Z" fill="url(#paint25_linear_120_1960)"/>
<ellipse cx="7.16208" cy="5.61322" rx="7.16208" ry="5.61322" transform="matrix(-1 0 0 1 150.109 80.6787)" fill="#B9ABA0" style="mix-blend-mode:overlay"/>
<g filter="url(#filter5_i_120_1960)">
<path d="M138.28 93.6287C137.99 93.2385 137.938 92.7332 138.161 92.301C138.456 91.73 138.99 90.8344 139.896 89.7106C140.622 88.8107 141.323 88.0345 141.877 87.4519C142.495 86.8005 143.514 86.8222 144.116 87.4892C144.662 88.0947 145.344 88.8792 145.996 89.7106C146.792 90.7247 147.383 91.6338 147.749 92.2376C148.034 92.7073 148.024 93.2856 147.693 93.7239C147.352 94.1756 146.81 94.826 145.996 95.6401C145.182 96.4548 144.449 97.0786 143.914 97.5029C143.384 97.9232 142.652 97.9162 142.122 97.4952C141.564 97.0516 140.808 96.4109 140.037 95.6401C139.21 94.8139 138.634 94.1039 138.28 93.6287Z" fill="#D9D9D9" fill-opacity="0.01"/>
</g>
</g>
</g>
<path d="M151.88 86.7669C151.638 93.6821 148.57 100.051 147.142 100.119C144.332 99.9924 142.586 89.5001 142.566 85.4823C142.526 77.6415 152.122 79.8517 151.88 86.7669Z" fill="url(#paint26_linear_120_1960)" style="mix-blend-mode:lighten"/>
</g>
</g>
<ellipse cx="36.5924" cy="22.7101" rx="36.5924" ry="22.7101" transform="matrix(-1 0 0 1 179.539 54.5989)" fill="#AFAFAF" style="mix-blend-mode:overlay"/>
</g>
<path d="M202.632 105V89.49H209.364C210.508 89.49 211.476 89.6807 212.268 90.062C213.06 90.4433 213.661 90.9933 214.072 91.712C214.483 92.4307 214.688 93.3033 214.688 94.33C214.688 95.342 214.483 96.2147 214.072 96.948C213.661 97.6667 213.06 98.224 212.268 98.62C211.476 99.0013 210.508 99.192 209.364 99.192H205.448V105H202.632ZM205.448 96.97H208.924C209.921 96.97 210.677 96.75 211.19 96.31C211.703 95.8553 211.96 95.1953 211.96 94.33C211.96 93.4647 211.703 92.812 211.19 92.372C210.677 91.932 209.921 91.712 208.924 91.712H205.448V96.97ZM217.632 105V94.242H220.316V96.838H220.096C220.301 95.958 220.705 95.2907 221.306 94.836C221.907 94.3667 222.707 94.0953 223.704 94.022L224.54 93.956L224.716 96.288L223.132 96.442C222.237 96.53 221.563 96.8087 221.108 97.278C220.653 97.7327 220.426 98.378 220.426 99.214V105H217.632ZM227.198 91.932V89.248H230.278V91.932H227.198ZM227.374 105V94.242H230.124V105H227.374ZM233.757 105V103.218L239.829 95.65V96.31H233.757V94.242H242.293V96.024L236.155 103.658V102.932H242.535V105H233.757ZM250.743 105.22C249.526 105.22 248.477 104.993 247.597 104.538C246.717 104.083 246.035 103.438 245.551 102.602C245.082 101.766 244.847 100.776 244.847 99.632C244.847 98.5173 245.074 97.542 245.529 96.706C245.998 95.87 246.636 95.2173 247.443 94.748C248.264 94.264 249.196 94.022 250.237 94.022C251.264 94.022 252.144 94.242 252.877 94.682C253.61 95.122 254.175 95.7453 254.571 96.552C254.982 97.3587 255.187 98.3193 255.187 99.434V100.248H247.069V98.664H253.251L252.899 98.994C252.899 97.9967 252.679 97.234 252.239 96.706C251.799 96.1633 251.168 95.892 250.347 95.892C249.731 95.892 249.203 96.0387 248.763 96.332C248.338 96.6107 248.008 97.014 247.773 97.542C247.553 98.0553 247.443 98.6713 247.443 99.39V99.544C247.443 100.351 247.568 101.018 247.817 101.546C248.066 102.074 248.44 102.47 248.939 102.734C249.438 102.998 250.054 103.13 250.787 103.13C251.388 103.13 251.99 103.042 252.591 102.866C253.192 102.675 253.742 102.382 254.241 101.986L255.011 103.834C254.498 104.259 253.852 104.597 253.075 104.846C252.298 105.095 251.52 105.22 250.743 105.22ZM265.813 105V89.49H272.545C273.689 89.49 274.657 89.6807 275.449 90.062C276.241 90.4433 276.842 90.9933 277.253 91.712C277.664 92.4307 277.869 93.3033 277.869 94.33C277.869 95.342 277.664 96.2147 277.253 96.948C276.842 97.6667 276.241 98.224 275.449 98.62C274.657 99.0013 273.689 99.192 272.545 99.192H268.629V105H265.813ZM268.629 96.97H272.105C273.102 96.97 273.858 96.75 274.371 96.31C274.884 95.8553 275.141 95.1953 275.141 94.33C275.141 93.4647 274.884 92.812 274.371 92.372C273.858 91.932 273.102 91.712 272.105 91.712H268.629V96.97ZM284.054 105.22C283.277 105.22 282.58 105.073 281.964 104.78C281.363 104.472 280.886 104.061 280.534 103.548C280.197 103.035 280.028 102.455 280.028 101.81C280.028 101.018 280.233 100.395 280.644 99.94C281.055 99.4707 281.722 99.1333 282.646 98.928C283.57 98.7227 284.809 98.62 286.364 98.62H287.464V100.204H286.386C285.697 100.204 285.117 100.233 284.648 100.292C284.179 100.336 283.797 100.417 283.504 100.534C283.225 100.637 283.02 100.783 282.888 100.974C282.771 101.165 282.712 101.399 282.712 101.678C282.712 102.162 282.881 102.558 283.218 102.866C283.555 103.174 284.025 103.328 284.626 103.328C285.11 103.328 285.535 103.218 285.902 102.998C286.283 102.763 286.584 102.448 286.804 102.052C287.024 101.656 287.134 101.201 287.134 100.688V98.158C287.134 97.4247 286.973 96.8967 286.65 96.574C286.327 96.2513 285.785 96.09 285.022 96.09C284.421 96.09 283.805 96.1853 283.174 96.376C282.543 96.552 281.905 96.8307 281.26 97.212L280.468 95.342C280.849 95.078 281.297 94.8507 281.81 94.66C282.338 94.4547 282.888 94.3007 283.46 94.198C284.047 94.0807 284.597 94.022 285.11 94.022C286.166 94.022 287.031 94.1833 287.706 94.506C288.395 94.8287 288.909 95.32 289.246 95.98C289.583 96.6253 289.752 97.4613 289.752 98.488V105H287.178V102.712H287.354C287.251 103.225 287.046 103.673 286.738 104.054C286.445 104.421 286.071 104.707 285.616 104.912C285.161 105.117 284.641 105.22 284.054 105.22ZM297.608 105.22C297.007 105.22 296.42 105.169 295.848 105.066C295.291 104.963 294.778 104.824 294.308 104.648C293.839 104.457 293.428 104.223 293.076 103.944L293.78 102.14C294.147 102.375 294.543 102.58 294.968 102.756C295.394 102.932 295.834 103.064 296.288 103.152C296.743 103.24 297.19 103.284 297.63 103.284C298.334 103.284 298.855 103.167 299.192 102.932C299.544 102.683 299.72 102.36 299.72 101.964C299.72 101.627 299.603 101.37 299.368 101.194C299.148 101.003 298.811 100.864 298.356 100.776L296.156 100.358C295.247 100.182 294.55 99.852 294.066 99.368C293.597 98.8693 293.362 98.2313 293.362 97.454C293.362 96.75 293.553 96.1413 293.934 95.628C294.33 95.1147 294.873 94.7187 295.562 94.44C296.252 94.1613 297.044 94.022 297.938 94.022C298.452 94.022 298.95 94.0733 299.434 94.176C299.918 94.264 300.373 94.4033 300.798 94.594C301.238 94.77 301.62 95.0047 301.942 95.298L301.194 97.102C300.916 96.8673 300.593 96.6693 300.226 96.508C299.86 96.332 299.478 96.2 299.082 96.112C298.701 96.0093 298.327 95.958 297.96 95.958C297.242 95.958 296.706 96.0827 296.354 96.332C296.017 96.5813 295.848 96.9113 295.848 97.322C295.848 97.63 295.951 97.8867 296.156 98.092C296.362 98.2973 296.677 98.4367 297.102 98.51L299.302 98.928C300.256 99.104 300.974 99.4267 301.458 99.896C301.957 100.365 302.206 100.996 302.206 101.788C302.206 102.507 302.016 103.123 301.634 103.636C301.253 104.149 300.718 104.545 300.028 104.824C299.339 105.088 298.532 105.22 297.608 105.22ZM309.478 105.22C308.876 105.22 308.29 105.169 307.718 105.066C307.16 104.963 306.647 104.824 306.178 104.648C305.708 104.457 305.298 104.223 304.946 103.944L305.65 102.14C306.016 102.375 306.412 102.58 306.838 102.756C307.263 102.932 307.703 103.064 308.158 103.152C308.612 103.24 309.06 103.284 309.5 103.284C310.204 103.284 310.724 103.167 311.062 102.932C311.414 102.683 311.59 102.36 311.59 101.964C311.59 101.627 311.472 101.37 311.238 101.194C311.018 101.003 310.68 100.864 310.226 100.776L308.026 100.358C307.116 100.182 306.42 99.852 305.936 99.368C305.466 98.8693 305.232 98.2313 305.232 97.454C305.232 96.75 305.422 96.1413 305.804 95.628C306.2 95.1147 306.742 94.7187 307.432 94.44C308.121 94.1613 308.913 94.022 309.808 94.022C310.321 94.022 310.82 94.0733 311.304 94.176C311.788 94.264 312.242 94.4033 312.668 94.594C313.108 94.77 313.489 95.0047 313.812 95.298L313.064 97.102C312.785 96.8673 312.462 96.6693 312.096 96.508C311.729 96.332 311.348 96.2 310.952 96.112C310.57 96.0093 310.196 95.958 309.83 95.958C309.111 95.958 308.576 96.0827 308.224 96.332C307.886 96.5813 307.718 96.9113 307.718 97.322C307.718 97.63 307.82 97.8867 308.026 98.092C308.231 98.2973 308.546 98.4367 308.972 98.51L311.172 98.928C312.125 99.104 312.844 99.4267 313.328 99.896C313.826 100.365 314.076 100.996 314.076 101.788C314.076 102.507 313.885 103.123 313.504 103.636C313.122 104.149 312.587 104.545 311.898 104.824C311.208 105.088 310.402 105.22 309.478 105.22Z" fill="#202224"/>
<mask id="mask6_120_1960" style="mask-type:alpha" maskUnits="userSpaceOnUse" x="54" y="54" width="60" height="88">
<path d="M55.8684 68.98C55.8684 61.8113 61.6798 56 68.8484 56H86.8859C100.683 56 111.868 67.185 111.868 80.9825V115.018C111.868 128.815 100.683 140 86.8859 140H68.8484C61.6798 140 55.8684 134.189 55.8684 127.02V68.98Z" fill="white" stroke="url(#paint27_linear_120_1960)" stroke-opacity="0.3" stroke-width="2.60316"/>
</mask>
<g mask="url(#mask6_120_1960)">
<rect x="53.8684" y="54.3848" width="28" height="87.2308" fill="#587ED7"/>
</g>
<defs>
<filter id="filter0_d_120_1960" x="0.462972" y="0.594686" width="430.337" height="208.337" filterUnits="userSpaceOnUse" color-interpolation-filters="sRGB">
<feFlood flood-opacity="0" result="BackgroundImageFix"/>
<feColorMatrix in="SourceAlpha" type="matrix" values="0 0 0 0 0 0 0 0 0 0 0 0 0 0 0 0 0 0 127 0" result="hardAlpha"/>
<feOffset dx="6.76297" dy="6.76297"/>
<feGaussianBlur stdDeviation="30.4334"/>
<feColorMatrix type="matrix" values="0 0 0 0 0 0 0 0 0 0 0 0 0 0 0 0 0 0 0.05 0"/>
<feBlend mode="normal" in2="BackgroundImageFix" result="effect1_dropShadow_120_1960"/>
<feBlend mode="normal" in="SourceGraphic" in2="effect1_dropShadow_120_1960" result="shape"/>
</filter>
<filter id="filter1_d_120_1960" x="106.594" y="67.6436" width="73.7113" height="61.9736" filterUnits="userSpaceOnUse" color-interpolation-filters="sRGB">
<feFlood flood-opacity="0" result="BackgroundImageFix"/>
<feColorMatrix in="SourceAlpha" type="matrix" values="0 0 0 0 0 0 0 0 0 0 0 0 0 0 0 0 0 0 127 0" result="hardAlpha"/>
<feOffset dx="1.1875" dy="1.78125"/>
<feColorMatrix type="matrix" values="0 0 0 0 0 0 0 0 0 0 0 0 0 0 0 0 0 0 0.25 0"/>
<feBlend mode="normal" in2="BackgroundImageFix" result="effect1_dropShadow_120_1960"/>
<feBlend mode="normal" in="SourceGraphic" in2="effect1_dropShadow_120_1960" result="shape"/>
</filter>
<filter id="filter2_i_120_1960" x="123.641" y="75.5859" width="38.5938" height="41.7109" filterUnits="userSpaceOnUse" color-interpolation-filters="sRGB">
<feFlood flood-opacity="0" result="BackgroundImageFix"/>
<feBlend mode="normal" in="SourceGraphic" in2="BackgroundImageFix" result="shape"/>
<feColorMatrix in="SourceAlpha" type="matrix" values="0 0 0 0 0 0 0 0 0 0 0 0 0 0 0 0 0 0 127 0" result="hardAlpha"/>
<feOffset dy="3.71038"/>
<feComposite in2="hardAlpha" operator="arithmetic" k2="-1" k3="1"/>
<feColorMatrix type="matrix" values="0 0 0 0 0.0460938 0 0 0 0 0.462769 0 0 0 0 0.7375 0 0 0 1 0"/>
<feBlend mode="normal" in2="shape" result="effect1_innerShadow_120_1960"/>
</filter>
<filter id="filter3_d_120_1960" x="127.589" y="83.0474" width="30.4692" height="23.5081" filterUnits="userSpaceOnUse" color-interpolation-filters="sRGB">
<feFlood flood-opacity="0" result="BackgroundImageFix"/>
<feColorMatrix in="SourceAlpha" type="matrix" values="0 0 0 0 0 0 0 0 0 0 0 0 0 0 0 0 0 0 127 0" result="hardAlpha"/>
<feOffset dy="1.4507"/>
<feComposite in2="hardAlpha" operator="out"/>
<feColorMatrix type="matrix" values="0 0 0 0 0 0 0 0 0 0.247059 0 0 0 0 0.384314 0 0 0 1 0"/>
<feBlend mode="normal" in2="BackgroundImageFix" result="effect1_dropShadow_120_1960"/>
<feBlend mode="normal" in="SourceGraphic" in2="effect1_dropShadow_120_1960" result="shape"/>
</filter>
<filter id="filter4_d_120_1960" x="137.622" y="86.5259" width="11.0547" height="12.076" filterUnits="userSpaceOnUse" color-interpolation-filters="sRGB">
<feFlood flood-opacity="0" result="BackgroundImageFix"/>
<feColorMatrix in="SourceAlpha" type="matrix" values="0 0 0 0 0 0 0 0 0 0 0 0 0 0 0 0 0 0 127 0" result="hardAlpha"/>
<feOffset dx="0.224976" dy="0.337463"/>
<feColorMatrix type="matrix" values="0 0 0 0 0 0 0 0 0 0 0 0 0 0 0 0 0 0 0.25 0"/>
<feBlend mode="normal" in2="BackgroundImageFix" result="effect1_dropShadow_120_1960"/>
<feBlend mode="normal" in="SourceGraphic" in2="effect1_dropShadow_120_1960" result="shape"/>
</filter>
<filter id="filter5_i_120_1960" x="138.023" y="86.9758" width="9.92981" height="10.9511" filterUnits="userSpaceOnUse" color-interpolation-filters="sRGB">
<feFlood flood-opacity="0" result="BackgroundImageFix"/>
<feBlend mode="normal" in="SourceGraphic" in2="BackgroundImageFix" result="shape"/>
<feColorMatrix in="SourceAlpha" type="matrix" values="0 0 0 0 0 0 0 0 0 0 0 0 0 0 0 0 0 0 127 0" result="hardAlpha"/>
<feOffset dy="0.112488"/>
<feGaussianBlur stdDeviation="0.421829"/>
<feComposite in2="hardAlpha" operator="arithmetic" k2="-1" k3="1"/>
<feColorMatrix type="matrix" values="0 0 0 0 1 0 0 0 0 0.4125 0 0 0 0 0.4125 0 0 0 1 0"/>
<feBlend mode="lighten" in2="shape" result="effect1_innerShadow_120_1960"/>
</filter>
<linearGradient id="paint0_linear_120_1960" x1="125.643" y1="25.6597" x2="273.636" y2="197.283" gradientUnits="userSpaceOnUse">
<stop stop-color="#F1F1F1"/>
<stop offset="1" stop-color="#E1E1E1"/>
</linearGradient>
<linearGradient id="paint1_linear_120_1960" x1="165.075" y1="86.1773" x2="164.224" y2="123.946" gradientUnits="userSpaceOnUse">
<stop stop-color="#098ECA"/>
<stop offset="1" stop-color="#006096"/>
</linearGradient>
<linearGradient id="paint2_linear_120_1960" x1="120.638" y1="86.1773" x2="121.488" y2="123.946" gradientUnits="userSpaceOnUse">
<stop stop-color="#098ECA"/>
<stop offset="1" stop-color="#006096"/>
</linearGradient>
<linearGradient id="paint3_linear_120_1960" x1="120.638" y1="86.1777" x2="121.488" y2="123.946" gradientUnits="userSpaceOnUse">
<stop stop-color="#098ECA"/>
<stop offset="1" stop-color="#006096"/>
</linearGradient>
<linearGradient id="paint4_linear_120_1960" x1="168.983" y1="106.629" x2="170.822" y2="98.3884" gradientUnits="userSpaceOnUse">
<stop stop-color="#014879"/>
<stop offset="1" stop-color="#014879" stop-opacity="0"/>
</linearGradient>
<linearGradient id="paint5_linear_120_1960" x1="160.699" y1="116.875" x2="165.721" y2="111.742" gradientUnits="userSpaceOnUse">
<stop stop-color="#014879"/>
<stop offset="1" stop-color="#014879" stop-opacity="0"/>
</linearGradient>
<linearGradient id="paint6_linear_120_1960" x1="152.514" y1="121.363" x2="158.727" y2="117.762" gradientUnits="userSpaceOnUse">
<stop stop-color="#014879"/>
<stop offset="1" stop-color="#014879" stop-opacity="0"/>
</linearGradient>
<linearGradient id="paint7_linear_120_1960" x1="116.743" y1="106.629" x2="114.904" y2="98.3884" gradientUnits="userSpaceOnUse">
<stop stop-color="#014879"/>
<stop offset="1" stop-color="#014879" stop-opacity="0"/>
</linearGradient>
<linearGradient id="paint8_linear_120_1960" x1="125.027" y1="116.875" x2="120.005" y2="111.742" gradientUnits="userSpaceOnUse">
<stop stop-color="#014879"/>
<stop offset="1" stop-color="#014879" stop-opacity="0"/>
</linearGradient>
<linearGradient id="paint9_linear_120_1960" x1="133.212" y1="121.363" x2="126.998" y2="117.762" gradientUnits="userSpaceOnUse">
<stop stop-color="#014879"/>
<stop offset="1" stop-color="#014879" stop-opacity="0"/>
</linearGradient>
<linearGradient id="paint10_linear_120_1960" x1="142.534" y1="70.968" x2="142.534" y2="123.234" gradientUnits="userSpaceOnUse">
<stop stop-color="#FFFF5A"/>
<stop offset="0.375" stop-color="#FFEE53"/>
<stop offset="1" stop-color="#FF9736"/>
</linearGradient>
<linearGradient id="paint11_linear_120_1960" x1="142.534" y1="70.968" x2="142.534" y2="123.234" gradientUnits="userSpaceOnUse">
<stop stop-color="#FF8F12"/>
<stop offset="1" stop-color="#FF341C"/>
</linearGradient>
<linearGradient id="paint12_linear_120_1960" x1="142.534" y1="70.968" x2="142.534" y2="123.234" gradientUnits="userSpaceOnUse">
<stop stop-color="#FFFF5A"/>
<stop offset="0.375" stop-color="#FFEE53"/>
<stop offset="1" stop-color="#FF9736"/>
</linearGradient>
<linearGradient id="paint13_linear_120_1960" x1="142.938" y1="77.0711" x2="139.268" y2="118.439" gradientUnits="userSpaceOnUse">
<stop stop-color="#29D0ED"/>
<stop offset="1" stop-color="#055F9C"/>
</linearGradient>
<linearGradient id="paint14_linear_120_1960" x1="142.938" y1="77.0703" x2="142.938" y2="115.812" gradientUnits="userSpaceOnUse">
<stop stop-color="#FF5A46"/>
<stop offset="1" stop-color="#FFF258"/>
</linearGradient>
<linearGradient id="paint15_linear_120_1960" x1="142.938" y1="77.0703" x2="142.938" y2="115.812" gradientUnits="userSpaceOnUse">
<stop stop-color="#0C76BC"/>
<stop offset="1" stop-color="#003D60"/>
</linearGradient>
<linearGradient id="paint16_linear_120_1960" x1="128.459" y1="96.3874" x2="156.317" y2="96.7683" gradientUnits="userSpaceOnUse">
<stop stop-color="#FFC242"/>
<stop offset="0.432949" stop-color="#FFFD62"/>
<stop offset="0.706146" stop-color="#FFFA61"/>
<stop offset="1" stop-color="#FFC241"/>
</linearGradient>
<linearGradient id="paint17_linear_120_1960" x1="128.459" y1="96.3874" x2="156.317" y2="96.7683" gradientUnits="userSpaceOnUse">
<stop stop-color="#FFC242"/>
<stop offset="0.432949" stop-color="#FFFD62"/>
<stop offset="0.706146" stop-color="#FFFA61"/>
<stop offset="1" stop-color="#FFC241"/>
</linearGradient>
<linearGradient id="paint18_linear_120_1960" x1="145.872" y1="89.5742" x2="139.856" y2="95.5898" gradientUnits="userSpaceOnUse">
<stop stop-color="#E41245"/>
<stop offset="1" stop-color="#D41342"/>
</linearGradient>
<linearGradient id="paint19_linear_120_1960" x1="146.094" y1="89.3803" x2="139.931" y2="95.5427" gradientUnits="userSpaceOnUse">
<stop stop-color="#E41245"/>
<stop offset="1" stop-color="#D41342"/>
</linearGradient>
<linearGradient id="paint20_linear_120_1960" x1="143.012" y1="87.6528" x2="143.012" y2="89.2558" gradientUnits="userSpaceOnUse">
<stop stop-color="#FF829A"/>
<stop offset="0.338542" stop-color="#FEA6B2"/>
<stop offset="0.65625" stop-color="#FFCED8"/>
</linearGradient>
<linearGradient id="paint21_linear_120_1960" x1="143.392" y1="95.9068" x2="143.406" y2="98.6487" gradientUnits="userSpaceOnUse">
<stop offset="0.00520833" stop-color="#FF8383"/>
<stop offset="0.229167" stop-color="#F23C5C"/>
<stop offset="1" stop-color="#F23C5C" stop-opacity="0"/>
</linearGradient>
<linearGradient id="paint22_linear_120_1960" x1="149.199" y1="92.743" x2="145.965" y2="92.743" gradientUnits="userSpaceOnUse">
<stop stop-color="#F23C5C" stop-opacity="0"/>
<stop offset="0.890625" stop-color="#F74961"/>
</linearGradient>
<linearGradient id="paint23_linear_120_1960" x1="136.994" y1="92.743" x2="140.228" y2="92.743" gradientUnits="userSpaceOnUse">
<stop offset="0.5" stop-color="#FF92A7"/>
<stop offset="0.911458" stop-color="#FFCED8"/>
</linearGradient>
<linearGradient id="paint24_linear_120_1960" x1="142.112" y1="89.7199" x2="144.46" y2="94.9225" gradientUnits="userSpaceOnUse">
<stop stop-color="#F23C5C"/>
<stop offset="0.802083" stop-color="#FF616A"/>
<stop offset="1" stop-color="#FF8383"/>
</linearGradient>
<linearGradient id="paint25_linear_120_1960" x1="141.55" y1="88.6785" x2="140.33" y2="94.0024" gradientUnits="userSpaceOnUse">
<stop stop-color="#FFCED8"/>
<stop offset="1" stop-color="#FF92A7"/>
</linearGradient>
<linearGradient id="paint26_linear_120_1960" x1="148.034" y1="87.4582" x2="144.552" y2="93.0616" gradientUnits="userSpaceOnUse">
<stop stop-color="#FFECEC"/>
<stop offset="1" stop-color="#FFF3F3" stop-opacity="0"/>
</linearGradient>
<linearGradient id="paint27_linear_120_1960" x1="68.6376" y1="25.6597" x2="129.407" y2="38.5566" gradientUnits="userSpaceOnUse">
<stop stop-color="#F1F1F1"/>
<stop offset="1" stop-color="#E1E1E1"/>
</linearGradient>
</defs>
</svg>
