<svg width="432" height="209" viewBox="0 0 432 209" fill="none" xmlns="http://www.w3.org/2000/svg">
<g filter="url(#filter0_d_120_2024)">
<rect x="56.3948" y="56" width="306" height="84" rx="12.98" fill="white"/>
<rect x="56.3948" y="56" width="306" height="84" rx="12.98" stroke="url(#paint0_linear_120_2024)" stroke-opacity="0.3" stroke-width="2.60316"/>
</g>
<g filter="url(#filter1_di_120_2024)">
<path d="M132.989 67.4239C136.486 65.4439 140.775 65.4802 144.238 67.5191L162.127 78.0503C165.591 80.0892 167.703 83.821 167.669 87.8399L167.493 108.598C167.459 112.617 165.284 116.312 161.786 118.292L143.722 128.519C140.224 130.499 135.936 130.463 132.473 128.424L114.583 117.893C111.12 115.854 109.007 112.122 109.041 108.103L109.217 87.3451C109.251 83.3261 111.427 79.6307 114.924 77.6507L132.989 67.4239Z" fill="url(#paint1_linear_120_2024)"/>
<path d="M132.052 65.769C136.141 63.4543 141.154 63.4968 145.203 65.8803L163.092 76.4111C167.141 78.7946 169.61 83.1577 169.57 87.856L169.395 108.614C169.355 113.312 166.812 117.632 162.723 119.947L144.659 130.174C140.57 132.489 135.557 132.446 131.508 130.063L113.619 119.531C109.57 117.147 107.1 112.785 107.14 108.087L107.316 87.329C107.356 82.6307 109.899 78.3101 113.987 75.9954L132.052 65.769Z" stroke="url(#paint2_linear_120_2024)" stroke-width="3.80321"/>
</g>
<path d="M132.988 67.4239C136.485 65.4439 140.773 65.4802 144.237 67.5191L162.126 78.0503C165.589 80.0892 167.702 83.821 167.668 87.8399L167.492 108.598C167.458 112.617 165.283 116.312 161.785 118.292L143.72 128.519C140.223 130.499 135.935 130.463 132.471 128.424L114.582 117.893C111.119 115.854 109.006 112.122 109.04 108.103L109.216 87.3451C109.25 83.3261 111.425 79.6307 114.923 77.6507L132.988 67.4239Z" fill="url(#paint3_linear_120_2024)"/>
<path d="M132.512 69.6841C136.254 67.5681 140.835 67.5867 144.559 69.7328L160.833 79.1105C162.916 80.3109 162.94 83.3085 160.877 84.5427L144.109 94.5734C140.536 96.7114 136.062 96.653 132.545 94.4223L116.349 84.1497C114.34 82.8754 114.414 79.9192 116.485 78.748L132.512 69.6841Z" fill="url(#paint4_linear_120_2024)"/>
<path d="M137.168 106.344C137.202 102.126 135.045 98.1921 131.471 95.9519L116.292 86.4372C114.241 85.1516 111.566 86.5639 111.471 88.9827L110.737 107.701C110.575 111.846 112.753 115.731 116.373 117.756L132.34 126.683C134.43 127.851 137.008 126.353 137.027 123.959L137.168 106.344Z" fill="url(#paint5_linear_120_2024)"/>
<g filter="url(#filter2_i_120_2024)">
<ellipse cx="153.694" cy="106.539" rx="5.73724" ry="6.86219" transform="rotate(10.2543 153.694 106.539)" fill="#C4B295" style="mix-blend-mode:multiply"/>
</g>
<g filter="url(#filter3_i_120_2024)">
<path d="M131.906 114.964C134.323 115.715 135.673 118.283 134.923 120.7C134.172 123.116 131.604 124.467 129.188 123.716C126.771 122.965 125.42 120.397 126.171 117.981C126.922 115.564 129.49 114.214 131.906 114.964ZM125.607 102.986C128.023 103.736 129.373 106.303 128.622 108.719C127.871 111.136 125.304 112.487 122.888 111.736C120.471 110.985 119.121 108.417 119.872 106.001C120.623 103.584 123.19 102.235 125.607 102.986ZM119.513 91.7088C121.929 92.4597 123.28 95.0275 122.529 97.444C121.778 99.8605 119.21 101.211 116.794 100.46C114.377 99.7095 113.027 97.1416 113.778 94.7251C114.529 92.3085 117.096 90.958 119.513 91.7088Z" fill="#C4B295" style="mix-blend-mode:multiply"/>
</g>
<g filter="url(#filter4_i_120_2024)">
<path d="M150.113 79.9555C153.614 79.9853 156.437 81.9493 156.416 84.3421C156.396 86.7348 153.541 88.6508 150.039 88.6212C146.537 88.5916 143.715 86.6275 143.735 84.2347C143.756 81.8419 146.611 79.9259 150.113 79.9555ZM127.12 74.4775C130.622 74.5072 133.445 76.4241 133.425 78.7586C133.405 81.0928 130.55 82.9609 127.048 82.9313C123.547 82.9017 120.724 80.9855 120.744 78.6512C120.763 76.3167 123.618 74.4479 127.12 74.4775Z" fill="#C4B295" style="mix-blend-mode:multiply"/>
</g>
<path d="M162.791 85.8311L143.277 97.2598V101.063L162.727 89.5889C163.117 89.3588 163.61 89.6399 163.61 90.0928V115.106L166.755 112.546V88.1032C166.755 86.069 164.546 84.8031 162.791 85.8311Z" fill="url(#paint6_radial_120_2024)"/>
<path d="M193.035 105V89.49H199.767C200.911 89.49 201.879 89.6807 202.671 90.062C203.463 90.4433 204.065 90.9933 204.475 91.712C204.886 92.4307 205.091 93.3033 205.091 94.33C205.091 95.342 204.886 96.2147 204.475 96.948C204.065 97.6667 203.463 98.224 202.671 98.62C201.879 99.0013 200.911 99.192 199.767 99.192H195.851V105H193.035ZM195.851 96.97H199.327C200.325 96.97 201.08 96.75 201.593 96.31C202.107 95.8553 202.363 95.1953 202.363 94.33C202.363 93.4647 202.107 92.812 201.593 92.372C201.08 91.932 200.325 91.712 199.327 91.712H195.851V96.97ZM213.486 105L206.578 89.49H209.592L215.202 102.492H214.256L219.844 89.49H222.748L215.84 105H213.486ZM225.325 105V89.49H232.057C233.201 89.49 234.169 89.6807 234.961 90.062C235.753 90.4433 236.354 90.9933 236.765 91.712C237.175 92.4307 237.381 93.3033 237.381 94.33C237.381 95.342 237.175 96.2147 236.765 96.948C236.354 97.6667 235.753 98.224 234.961 98.62C234.169 99.0013 233.201 99.192 232.057 99.192H228.141V105H225.325ZM228.141 96.97H231.617C232.614 96.97 233.369 96.75 233.883 96.31C234.396 95.8553 234.653 95.1953 234.653 94.33C234.653 93.4647 234.396 92.812 233.883 92.372C233.369 91.932 232.614 91.712 231.617 91.712H228.141V96.97ZM252.788 105.22C251.688 105.22 250.735 105.044 249.928 104.692C249.122 104.34 248.498 103.856 248.058 103.24C247.633 102.609 247.42 101.876 247.42 101.04C247.42 100.38 247.545 99.7787 247.794 99.236C248.044 98.6787 248.403 98.1727 248.872 97.718C249.342 97.2487 249.906 96.8233 250.566 96.442L251.314 96.002L250.918 96.596C250.273 95.9507 249.804 95.342 249.51 94.77C249.232 94.1833 249.092 93.582 249.092 92.966C249.092 92.2327 249.268 91.5873 249.62 91.03C249.972 90.4727 250.471 90.04 251.116 89.732C251.762 89.424 252.517 89.27 253.382 89.27C254.189 89.27 254.878 89.4093 255.45 89.688C256.037 89.9667 256.492 90.3627 256.814 90.876C257.137 91.3747 257.298 91.9687 257.298 92.658C257.298 93.2153 257.188 93.7433 256.968 94.242C256.748 94.7407 256.396 95.2173 255.912 95.672C255.428 96.1267 254.783 96.574 253.976 97.014L253.998 96.354L257.738 100.336H257.144C257.496 99.7347 257.775 99.0307 257.98 98.224C258.186 97.4173 258.31 96.574 258.354 95.694H260.642C260.598 96.8967 260.408 98.0333 260.07 99.104C259.748 100.175 259.3 101.121 258.728 101.942L258.706 101.26L262.424 105H259.08L257.188 102.998H257.826C257.181 103.687 256.418 104.23 255.538 104.626C254.673 105.022 253.756 105.22 252.788 105.22ZM252.942 103.042C253.646 103.042 254.27 102.91 254.812 102.646C255.37 102.367 255.876 101.957 256.33 101.414L256.264 102.118L251.732 97.432L252.876 97.542L252.238 97.916C251.74 98.2093 251.336 98.5027 251.028 98.796C250.72 99.0747 250.493 99.3827 250.346 99.72C250.214 100.043 250.148 100.409 250.148 100.82C250.148 101.509 250.39 102.052 250.874 102.448C251.358 102.844 252.048 103.042 252.942 103.042ZM253.382 91.228C252.854 91.228 252.429 91.382 252.106 91.69C251.784 91.9833 251.622 92.3867 251.622 92.9C251.622 93.1787 251.666 93.4427 251.754 93.692C251.842 93.9267 251.996 94.1907 252.216 94.484C252.436 94.7627 252.737 95.1073 253.118 95.518L252.502 95.474C253.118 95.122 253.602 94.8067 253.954 94.528C254.321 94.2493 254.585 93.9707 254.746 93.692C254.908 93.4133 254.988 93.1053 254.988 92.768C254.988 92.2693 254.842 91.888 254.548 91.624C254.255 91.36 253.866 91.228 253.382 91.228ZM272.007 105V89.49H274.823V95.958H282.809V89.49H285.625V105H282.809V98.312H274.823V105H272.007ZM290.15 105V89.49H296.882C298.583 89.49 299.896 89.9007 300.82 90.722C301.744 91.5287 302.206 92.6653 302.206 94.132C302.206 95.0853 301.993 95.9067 301.568 96.596C301.157 97.2853 300.556 97.8133 299.764 98.18C298.972 98.5467 298.011 98.73 296.882 98.73L297.08 98.4H297.806C298.407 98.4 298.928 98.5467 299.368 98.84C299.823 99.1333 300.219 99.5953 300.556 100.226L303.152 105H300.05L297.366 100.05C297.19 99.7273 296.992 99.478 296.772 99.302C296.552 99.1113 296.303 98.9793 296.024 98.906C295.745 98.8327 295.423 98.796 295.056 98.796H292.966V105H290.15ZM292.966 96.706H296.398C297.41 96.706 298.173 96.5007 298.686 96.09C299.214 95.6647 299.478 95.034 299.478 94.198C299.478 93.3767 299.214 92.7607 298.686 92.35C298.173 91.9247 297.41 91.712 296.398 91.712H292.966V96.706Z" fill="#202224"/>
<mask id="mask0_120_2024" style="mask-type:alpha" maskUnits="userSpaceOnUse" x="55" y="54" width="59" height="88">
<path d="M56.3948 68.98C56.3948 61.8113 62.2061 56 69.3748 56H87.4123C101.21 56 112.395 67.185 112.395 80.9825V115.018C112.395 128.815 101.21 140 87.4123 140H69.3748C62.2061 140 56.3948 134.189 56.3948 127.02V68.98Z" fill="white" stroke="url(#paint7_linear_120_2024)" stroke-opacity="0.3" stroke-width="2.60316"/>
</mask>
<g mask="url(#mask0_120_2024)">
<rect x="54.3948" y="54.3848" width="28" height="87.2308" fill="#587ED7"/>
</g>
<defs>
<filter id="filter0_d_120_2024" x="0.989339" y="0.594686" width="430.337" height="208.337" filterUnits="userSpaceOnUse" color-interpolation-filters="sRGB">
<feFlood flood-opacity="0" result="BackgroundImageFix"/>
<feColorMatrix in="SourceAlpha" type="matrix" values="0 0 0 0 0 0 0 0 0 0 0 0 0 0 0 0 0 0 127 0" result="hardAlpha"/>
<feOffset dx="6.76297" dy="6.76297"/>
<feGaussianBlur stdDeviation="30.4334"/>
<feColorMatrix type="matrix" values="0 0 0 0 0 0 0 0 0 0 0 0 0 0 0 0 0 0 0.05 0"/>
<feBlend mode="normal" in2="BackgroundImageFix" result="effect1_dropShadow_120_2024"/>
<feBlend mode="normal" in="SourceGraphic" in2="effect1_dropShadow_120_2024" result="shape"/>
</filter>
<filter id="filter1_di_120_2024" x="105.238" y="62.1609" width="66.235" height="73.9615" filterUnits="userSpaceOnUse" color-interpolation-filters="sRGB">
<feFlood flood-opacity="0" result="BackgroundImageFix"/>
<feColorMatrix in="SourceAlpha" type="matrix" values="0 0 0 0 0 0 0 0 0 0 0 0 0 0 0 0 0 0 127 0" result="hardAlpha"/>
<feOffset dy="2.34044"/>
<feComposite in2="hardAlpha" operator="out"/>
<feColorMatrix type="matrix" values="0 0 0 0 0 0 0 0 0 0.137255 0 0 0 0 0.203922 0 0 0 1 0"/>
<feBlend mode="normal" in2="BackgroundImageFix" result="effect1_dropShadow_120_2024"/>
<feBlend mode="normal" in="SourceGraphic" in2="effect1_dropShadow_120_2024" result="shape"/>
<feColorMatrix in="SourceAlpha" type="matrix" values="0 0 0 0 0 0 0 0 0 0 0 0 0 0 0 0 0 0 127 0" result="hardAlpha"/>
<feOffset dy="4.12399"/>
<feComposite in2="hardAlpha" operator="arithmetic" k2="-1" k3="1"/>
<feColorMatrix type="matrix" values="0 0 0 0 1 0 0 0 0 1 0 0 0 0 1 0 0 0 0.55 0"/>
<feBlend mode="normal" in2="shape" result="effect2_innerShadow_120_2024"/>
</filter>
<filter id="filter2_i_120_2024" x="147.917" y="99.7085" width="11.5549" height="13.6606" filterUnits="userSpaceOnUse" color-interpolation-filters="sRGB">
<feFlood flood-opacity="0" result="BackgroundImageFix"/>
<feBlend mode="normal" in="SourceGraphic" in2="BackgroundImageFix" result="shape"/>
<feColorMatrix in="SourceAlpha" type="matrix" values="0 0 0 0 0 0 0 0 0 0 0 0 0 0 0 0 0 0 127 0" result="hardAlpha"/>
<feOffset dy="0.89996"/>
<feComposite in2="hardAlpha" operator="arithmetic" k2="-1" k3="1"/>
<feColorMatrix type="matrix" values="0 0 0 0 0 0 0 0 0 0 0 0 0 0 0 0 0 0 0.15 0"/>
<feBlend mode="normal" in2="shape" result="effect1_innerShadow_120_2024"/>
</filter>
<filter id="filter3_i_120_2024" x="113.57" y="91.5012" width="21.5599" height="32.4221" filterUnits="userSpaceOnUse" color-interpolation-filters="sRGB">
<feFlood flood-opacity="0" result="BackgroundImageFix"/>
<feBlend mode="normal" in="SourceGraphic" in2="BackgroundImageFix" result="shape"/>
<feColorMatrix in="SourceAlpha" type="matrix" values="0 0 0 0 0 0 0 0 0 0 0 0 0 0 0 0 0 0 127 0" result="hardAlpha"/>
<feOffset dy="0.89996"/>
<feComposite in2="hardAlpha" operator="arithmetic" k2="-1" k3="1"/>
<feColorMatrix type="matrix" values="0 0 0 0 0 0 0 0 0 0 0 0 0 0 0 0 0 0 0.15 0"/>
<feBlend mode="normal" in2="shape" result="effect1_innerShadow_120_2024"/>
</filter>
<filter id="filter4_i_120_2024" x="120.744" y="74.4771" width="35.6731" height="14.1445" filterUnits="userSpaceOnUse" color-interpolation-filters="sRGB">
<feFlood flood-opacity="0" result="BackgroundImageFix"/>
<feBlend mode="normal" in="SourceGraphic" in2="BackgroundImageFix" result="shape"/>
<feColorMatrix in="SourceAlpha" type="matrix" values="0 0 0 0 0 0 0 0 0 0 0 0 0 0 0 0 0 0 127 0" result="hardAlpha"/>
<feOffset dy="0.89996"/>
<feComposite in2="hardAlpha" operator="arithmetic" k2="-1" k3="1"/>
<feColorMatrix type="matrix" values="0 0 0 0 0 0 0 0 0 0 0 0 0 0 0 0 0 0 0.15 0"/>
<feBlend mode="normal" in2="shape" result="effect1_innerShadow_120_2024"/>
</filter>
<linearGradient id="paint0_linear_120_2024" x1="126.169" y1="25.6597" x2="274.163" y2="197.283" gradientUnits="userSpaceOnUse">
<stop stop-color="#F1F1F1"/>
<stop offset="1" stop-color="#E1E1E1"/>
</linearGradient>
<linearGradient id="paint1_linear_120_2024" x1="138.641" y1="64.2242" x2="141.325" y2="150.668" gradientUnits="userSpaceOnUse">
<stop offset="0.149706" stop-color="#FFB1F3"/>
<stop offset="1" stop-color="#A101ED"/>
</linearGradient>
<linearGradient id="paint2_linear_120_2024" x1="138.641" y1="64.2242" x2="138.07" y2="131.719" gradientUnits="userSpaceOnUse">
<stop offset="0.270331" stop-color="#017772"/>
<stop offset="0.851711" stop-color="#014E5F"/>
</linearGradient>
<linearGradient id="paint3_linear_120_2024" x1="144.659" y1="75.5755" x2="109.345" y2="123.908" gradientUnits="userSpaceOnUse">
<stop stop-color="#F1FBE0"/>
<stop offset="0.177083" stop-color="#C6E314"/>
<stop offset="0.375971" stop-color="#DFE314"/>
<stop offset="1" stop-color="#A6861F"/>
</linearGradient>
<linearGradient id="paint4_linear_120_2024" x1="139.59" y1="99.5015" x2="134.784" y2="69.4282" gradientUnits="userSpaceOnUse">
<stop stop-color="#96E415"/>
<stop offset="1" stop-color="#F1FBE0"/>
</linearGradient>
<linearGradient id="paint5_linear_120_2024" x1="141.83" y1="99.2395" x2="130.556" y2="126.833" gradientUnits="userSpaceOnUse">
<stop stop-color="#CABA39"/>
<stop offset="0.978825" stop-color="#DCD00F"/>
</linearGradient>
<radialGradient id="paint6_radial_120_2024" cx="0" cy="0" r="1" gradientUnits="userSpaceOnUse" gradientTransform="translate(165.511 85.4114) rotate(120.329) scale(24.9123 19.1892)">
<stop stop-color="#F1FBE0"/>
<stop offset="1" stop-color="#F1FBE0" stop-opacity="0"/>
</radialGradient>
<linearGradient id="paint7_linear_120_2024" x1="69.164" y1="25.6597" x2="129.934" y2="38.5566" gradientUnits="userSpaceOnUse">
<stop stop-color="#F1F1F1"/>
<stop offset="1" stop-color="#E1E1E1"/>
</linearGradient>
</defs>
</svg>
