<svg width="431" height="209" viewBox="0 0 431 209" fill="none" xmlns="http://www.w3.org/2000/svg">
<g filter="url(#filter0_d_120_1979)">
<rect x="55.8684" y="56" width="306" height="84" rx="12.98" fill="white"/>
<rect x="55.8684" y="56" width="306" height="84" rx="12.98" stroke="url(#paint0_linear_120_1979)" stroke-opacity="0.3" stroke-width="2.60316"/>
</g>
<g filter="url(#filter1_d_120_1979)">
<mask id="path-3-outside-1_120_1979" maskUnits="userSpaceOnUse" x="108.692" y="63.8107" width="61.3183" height="67.8647" fill="black">
<rect fill="white" x="108.692" y="63.8107" width="61.3183" height="67.8647"/>
<path d="M131.977 74.8085C133.531 73.0497 138.716 70.0752 145.406 71.6663C145.589 71.7107 145.682 72.2339 145.228 73.0249C145.127 73.2009 145.257 73.4425 145.46 73.452C146.867 73.5177 148.379 74.2478 148.447 75.1898C148.504 75.9765 146.911 80.2675 146.29 83.4275C149.207 81.4125 152.313 80.6394 153.91 80.3583C154.584 80.2399 155.231 80.5669 155.613 81.1546C156.422 82.4025 155.694 84.1887 154.295 84.601C153.257 84.9065 152.065 85.3182 150.898 85.8548C154.519 86.6979 157.285 88.6393 158.59 89.7005C159.12 90.1322 159.297 90.8355 159.102 91.5083C158.688 92.9372 156.861 93.557 155.633 92.7685C154.154 91.819 152.198 90.7473 150.205 90.1834C154.322 93.0698 159.663 98.0671 163.107 107.005C165.185 112.4 161.94 118.198 156.519 120.208C146.844 123.796 140.636 124.742 132.149 123.987C125.663 123.409 119.772 118.776 119.62 112.266C119.479 106.236 121.407 99.124 128.484 91.8644C128.502 91.792 128.524 91.7217 128.546 91.6518C128.461 91.5255 128.384 91.3993 128.314 91.2732C127.654 90.0832 129.18 88.2733 129.415 88.0064C129.376 87.9506 129.333 87.8975 129.285 87.8482C128.123 86.6602 126.663 84.5894 123.539 83.5124C120.145 82.3426 124.183 77.8415 126.947 76.5172C129.711 75.1933 131.262 75.617 131.977 74.8085Z"/>
</mask>
<path d="M131.977 74.8085C133.531 73.0497 138.716 70.0752 145.406 71.6663C145.589 71.7107 145.682 72.2339 145.228 73.0249C145.127 73.2009 145.257 73.4425 145.46 73.452C146.867 73.5177 148.379 74.2478 148.447 75.1898C148.504 75.9765 146.911 80.2675 146.29 83.4275C149.207 81.4125 152.313 80.6394 153.91 80.3583C154.584 80.2399 155.231 80.5669 155.613 81.1546C156.422 82.4025 155.694 84.1887 154.295 84.601C153.257 84.9065 152.065 85.3182 150.898 85.8548C154.519 86.6979 157.285 88.6393 158.59 89.7005C159.12 90.1322 159.297 90.8355 159.102 91.5083C158.688 92.9372 156.861 93.557 155.633 92.7685C154.154 91.819 152.198 90.7473 150.205 90.1834C154.322 93.0698 159.663 98.0671 163.107 107.005C165.185 112.4 161.94 118.198 156.519 120.208C146.844 123.796 140.636 124.742 132.149 123.987C125.663 123.409 119.772 118.776 119.62 112.266C119.479 106.236 121.407 99.124 128.484 91.8644C128.502 91.792 128.524 91.7217 128.546 91.6518C128.461 91.5255 128.384 91.3993 128.314 91.2732C127.654 90.0832 129.18 88.2733 129.415 88.0064C129.376 87.9506 129.333 87.8975 129.285 87.8482C128.123 86.6602 126.663 84.5894 123.539 83.5124C120.145 82.3426 124.183 77.8415 126.947 76.5172C129.711 75.1933 131.262 75.617 131.977 74.8085Z" fill="#67F4FF" fill-opacity="0.5" shape-rendering="crispEdges"/>
<path d="M131.977 74.8085L134.566 77.0992L134.567 77.098L131.977 74.8085ZM145.406 71.6663L146.219 68.306L146.206 68.3028L145.406 71.6663ZM145.228 73.0249L148.226 74.746L148.226 74.7459L145.228 73.0249ZM145.46 73.452L145.297 76.9054L145.299 76.9055L145.46 73.452ZM148.447 75.1898L151.896 74.9409L151.896 74.9388L148.447 75.1898ZM146.29 83.4275L142.898 82.7614L141.26 91.1042L148.255 86.2721L146.29 83.4275ZM153.91 80.3583L153.312 76.9532L153.311 76.9534L153.91 80.3583ZM155.613 81.1546L158.513 79.2735L158.513 79.2732L155.613 81.1546ZM154.295 84.601L155.271 87.9175L155.271 87.9174L154.295 84.601ZM150.898 85.8548L149.453 82.7138L140.281 86.9327L150.114 89.222L150.898 85.8548ZM158.59 89.7005L160.772 87.0189L160.771 87.0185L158.59 89.7005ZM159.102 91.5083L162.423 92.4694L162.423 92.4689L159.102 91.5083ZM155.633 92.7685L157.501 89.8593L157.501 89.8593L155.633 92.7685ZM150.205 90.1834L151.147 86.8568L148.22 93.0141L150.205 90.1834ZM163.107 107.005L166.333 105.762L166.333 105.762L163.107 107.005ZM156.519 120.208L155.317 116.967L155.317 116.967L156.519 120.208ZM132.149 123.987L131.843 127.43L131.843 127.43L132.149 123.987ZM119.62 112.266L116.163 112.347L116.163 112.347L119.62 112.266ZM128.484 91.8644L130.959 94.2777L131.613 93.6066L131.839 92.6969L128.484 91.8644ZM128.546 91.6518L131.853 92.6582L132.33 91.0894L131.418 89.7272L128.546 91.6518ZM128.314 91.2732L125.29 92.9496L125.291 92.9504L128.314 91.2732ZM129.415 88.0064L132.013 90.2875L133.79 88.2636L132.262 86.0454L129.415 88.0064ZM129.285 87.8482L131.757 85.4311L131.756 85.4308L129.285 87.8482ZM123.539 83.5124L122.412 86.7809L122.412 86.7809L123.539 83.5124ZM126.947 76.5172L125.453 73.3993L125.453 73.3993L126.947 76.5172ZM131.977 74.8085L134.567 77.098C135.315 76.2519 139.213 73.7472 144.606 75.0297L145.406 71.6663L146.206 68.3028C138.218 66.4033 131.748 69.8475 129.386 72.5189L131.977 74.8085ZM145.406 71.6663L144.592 75.0264C143.116 74.669 142.5 73.5424 142.314 73.0824C142.1 72.5536 142.093 72.1171 142.102 71.9079C142.123 71.456 142.26 71.2505 142.229 71.3039L145.228 73.0249L148.226 74.7459C148.649 74.0083 148.967 73.1456 149.01 72.2233C149.03 71.7788 148.993 71.1538 148.724 70.4897C148.484 69.8944 147.788 68.6857 146.219 68.3061L145.406 71.6663ZM145.228 73.0249L142.229 71.3038C141.487 72.5977 141.671 73.9913 142.191 74.9494C142.711 75.9087 143.788 76.8344 145.297 76.9054L145.46 73.452L145.622 69.9986C146.929 70.0601 147.839 70.8602 148.269 71.6523C148.698 72.4432 148.868 73.628 148.226 74.746L145.228 73.0249ZM145.46 73.452L145.299 76.9055C145.388 76.9097 145.497 76.926 145.606 76.9555C145.717 76.9857 145.781 77.0167 145.793 77.0236C145.819 77.0377 145.694 76.9779 145.526 76.7821C145.351 76.5773 145.049 76.1238 144.999 75.4409L148.447 75.1898L151.896 74.9388C151.73 72.6677 149.993 71.4406 149.118 70.961C148.056 70.3785 146.806 70.0538 145.621 69.9985L145.46 73.452ZM148.447 75.1898L144.999 75.4387C144.97 75.0312 145.042 74.7821 145.005 74.9688C144.988 75.0568 144.95 75.216 144.883 75.4673C144.748 75.9705 144.552 76.6221 144.311 77.4272C143.853 78.9581 143.246 80.9866 142.898 82.7614L146.29 83.4275L149.683 84.0936C149.955 82.7084 150.456 81.0114 150.935 79.4101C151.163 78.6491 151.393 77.8831 151.56 77.2616C151.644 76.9507 151.727 76.6209 151.788 76.3113C151.83 76.1004 151.939 75.5451 151.896 74.9409L148.447 75.1898ZM146.29 83.4275L148.255 86.2721C150.605 84.649 153.17 83.999 154.51 83.7632L153.91 80.3583L153.311 76.9534C151.456 77.2799 147.81 78.176 144.326 80.5829L146.29 83.4275ZM153.91 80.3583L154.509 83.7634C153.629 83.9179 152.977 83.4446 152.712 83.036L155.613 81.1546L158.513 79.2732C157.486 77.6892 155.539 76.5619 153.312 76.9532L153.91 80.3583ZM155.613 81.1546L152.712 83.0357C152.419 82.5844 152.478 82.148 152.562 81.9323C152.642 81.7288 152.858 81.4201 153.318 81.2846L154.295 84.601L155.271 87.9174C158.754 86.8917 160.656 82.578 158.513 79.2735L155.613 81.1546ZM154.295 84.601L153.318 81.2845C152.17 81.6224 150.813 82.0887 149.453 82.7138L150.898 85.8548L152.343 88.9958C153.317 88.5478 154.343 88.1906 155.271 87.9175L154.295 84.601ZM150.898 85.8548L150.114 89.222C153.019 89.8984 155.31 91.4889 156.408 92.3825L158.59 89.7005L160.771 87.0185C159.261 85.7897 156.019 83.4973 151.682 82.4876L150.898 85.8548ZM158.59 89.7005L156.407 92.382C155.714 91.818 155.646 91.0146 155.781 90.5478L159.102 91.5083L162.423 92.4689C162.947 90.6564 162.526 88.4464 160.772 87.0189L158.59 89.7005ZM159.102 91.5083L155.781 90.5473C155.931 90.0305 156.299 89.7892 156.516 89.7118C156.722 89.6389 157.097 89.5998 157.501 89.8593L155.633 92.7685L153.765 95.6777C156.821 97.6399 161.328 96.2524 162.423 92.4694L159.102 91.5083ZM155.633 92.7685L157.501 89.8593C155.896 88.8289 153.61 87.5541 151.147 86.8568L150.205 90.1834L149.264 93.51C150.785 93.9405 152.412 94.809 153.765 95.6777L155.633 92.7685ZM150.205 90.1834L148.22 93.0141C151.911 95.6021 156.738 100.091 159.881 108.248L163.107 107.005L166.333 105.762C162.589 96.0435 156.732 90.5375 152.19 87.3528L150.205 90.1834ZM163.107 107.005L159.881 108.248C161.144 111.526 159.27 115.501 155.317 116.967L156.519 120.208L157.721 123.45C164.611 120.895 169.227 113.274 166.333 105.762L163.107 107.005ZM156.519 120.208L155.317 116.967C146.031 120.41 140.34 121.244 132.456 120.543L132.149 123.987L131.843 127.43C140.932 128.239 147.658 127.181 157.721 123.45L156.519 120.208ZM132.149 123.987L132.456 120.543C127.127 120.069 123.174 116.398 123.076 112.185L119.62 112.266L116.163 112.347C116.369 121.155 124.199 126.75 131.843 127.43L132.149 123.987ZM119.62 112.266L123.076 112.185C122.957 107.08 124.534 100.869 130.959 94.2777L128.484 91.8644L126.008 89.4511C118.279 97.3794 116.001 105.391 116.163 112.347L119.62 112.266ZM128.484 91.8644L131.839 92.6969C131.834 92.7169 131.83 92.7317 131.828 92.74C131.826 92.7481 131.824 92.7516 131.826 92.748C131.827 92.7438 131.829 92.7369 131.834 92.7209C131.835 92.717 131.836 92.7132 131.838 92.7086C131.839 92.7042 131.841 92.6992 131.842 92.6941C131.845 92.6838 131.849 92.6715 131.853 92.6582L128.546 91.6518L125.238 90.6454C125.235 90.6561 125.232 90.6649 125.225 90.6877C125.219 90.7069 125.21 90.7351 125.201 90.7663C125.183 90.8282 125.155 90.9216 125.128 91.0319L128.484 91.8644ZM128.546 91.6518L131.418 89.7272C131.385 89.6786 131.359 89.6349 131.337 89.596L128.314 91.2732L125.291 92.9504C125.409 93.1638 125.537 93.3724 125.674 93.5764L128.546 91.6518ZM128.314 91.2732L131.337 89.5968C131.651 90.1625 131.617 90.6626 131.589 90.8385C131.565 90.9932 131.532 91.0131 131.599 90.8827C131.657 90.7713 131.742 90.6385 131.838 90.5078C131.93 90.3828 132.002 90.2993 132.013 90.2875L129.415 88.0064L126.817 85.7253C126.634 85.9337 125.978 86.7 125.459 87.7046C125.074 88.4486 124.036 90.688 125.29 92.9496L128.314 91.2732ZM129.415 88.0064L132.262 86.0454C132.117 85.8353 131.95 85.6284 131.757 85.4311L129.285 87.8482L126.813 90.2653C126.717 90.1666 126.635 90.0659 126.567 89.9673L129.415 88.0064ZM129.285 87.8482L131.756 85.4308C130.939 84.5951 128.774 81.6599 124.665 80.2439L123.539 83.5124L122.412 86.7809C124.553 87.519 125.307 88.7253 126.813 90.2656L129.285 87.8482ZM123.539 83.5124L124.665 80.2439C124.653 80.2397 124.911 80.3256 125.193 80.6471C125.504 81 125.66 81.4275 125.694 81.7974C125.744 82.3497 125.514 82.4486 125.835 81.9522C126.088 81.5621 126.514 81.074 127.051 80.6035C127.59 80.1302 128.1 79.7982 128.441 79.6351L126.947 76.5172L125.453 73.3993C123.503 74.3339 121.312 76.2161 120.032 78.1933C119.423 79.134 118.646 80.6602 118.808 82.4268C118.897 83.404 119.273 84.3853 120.001 85.2135C120.702 86.0102 121.576 86.4926 122.412 86.7809L123.539 83.5124ZM126.947 76.5172L128.441 79.6351C129.429 79.1617 130.171 79.0037 130.893 78.8627C131.2 78.8026 131.809 78.6941 132.353 78.5161C132.98 78.3109 133.837 77.9234 134.566 77.0992L131.977 74.8085L129.388 72.5177C129.759 72.0978 130.154 71.9605 130.202 71.9447C130.217 71.9398 130.187 71.9506 130.065 71.9771C129.937 72.0049 129.799 72.0312 129.567 72.0764C128.644 72.2567 127.229 72.5488 125.453 73.3993L126.947 76.5172Z" fill="url(#paint1_linear_120_1979)" mask="url(#path-3-outside-1_120_1979)"/>
</g>
<path d="M141.958 95.2222L139.582 91.5599C139.582 91.5599 141.618 86.8569 145.884 83.7155C148.914 81.4839 152.239 80.6528 153.91 80.3586C154.584 80.24 155.232 80.5671 155.613 81.1549V81.1549C156.422 82.4028 155.695 84.1896 154.295 84.6018C152.434 85.1497 150.078 86.0388 148.259 87.3777C144.72 89.9837 141.958 95.2222 141.958 95.2222Z" fill="#723D31"/>
<mask id="mask0_120_1979" style="mask-type:alpha" maskUnits="userSpaceOnUse" x="139" y="80" width="17" height="16">
<path d="M141.958 95.2222L139.582 91.5599C139.582 91.5599 141.618 86.8569 145.884 83.7155C148.914 81.4839 152.239 80.6528 153.91 80.3586C154.584 80.24 155.232 80.5671 155.613 81.1549V81.1549C156.422 82.4028 155.695 84.1896 154.295 84.6018C152.434 85.1497 150.078 86.0388 148.259 87.3777C144.72 89.9837 141.958 95.2222 141.958 95.2222Z" fill="#522920"/>
</mask>
<g mask="url(#mask0_120_1979)">
<path d="M150.053 81.8398C150.29 80.0658 152.642 79.1281 152.642 79.1281L156.442 76.8679C157.268 78.561 158.626 82.26 156.636 82.9331C154.149 83.7744 149.898 83.0083 150.053 81.8398Z" fill="#A15443"/>
</g>
<path d="M139.529 90.395L140.742 86.2018C140.742 86.2018 145.63 84.6618 150.798 85.8304C154.468 86.6605 157.273 88.6296 158.589 89.7006C159.12 90.1323 159.297 90.8359 159.102 91.5089V91.5089C158.689 92.9378 156.862 93.5576 155.634 92.7691C154.001 91.7208 151.787 90.5217 149.584 90.0236C145.297 89.0542 139.529 90.395 139.529 90.395Z" fill="#A15443"/>
<mask id="mask1_120_1979" style="mask-type:alpha" maskUnits="userSpaceOnUse" x="139" y="85" width="21" height="9">
<path d="M139.529 90.395L140.742 86.2018C140.742 86.2018 145.63 84.6618 150.798 85.8304C154.468 86.6605 157.273 88.6296 158.589 89.7006C159.12 90.1323 159.297 90.8359 159.102 91.5089V91.5089C158.689 92.9378 156.862 93.5576 155.634 92.7691C154.001 91.7208 151.787 90.5217 149.584 90.0236C145.297 89.0542 139.529 90.395 139.529 90.395Z" fill="#A15443"/>
</mask>
<g mask="url(#mask1_120_1979)">
<path d="M151.088 87.7024C150.99 88.5321 152.138 90.8321 153.047 91.4945L150.635 91.3666L135.878 88.6134L148.936 81.3721C151.802 83.6949 157.097 88.1638 155.351 87.4562C153.168 86.5717 151.21 86.6652 151.088 87.7024Z" fill="#723D31"/>
</g>
<path d="M128.484 91.8641C121.407 99.1238 119.479 106.235 119.62 112.266C119.772 118.776 125.663 123.41 132.15 123.987C140.636 124.742 146.844 123.796 156.519 120.208C161.94 118.198 165.186 112.4 163.107 107.005C157.021 91.2072 145.004 87.7181 144.306 86.4416C143.485 84.941 140.332 85.5349 141.401 83.1666C142.469 80.7983 141.943 81.4955 137.55 80.274C134.225 79.3496 133.426 79.6017 133.359 84.5334C131.493 83.5385 127.247 79.6803 128.583 85.3452C134.659 87.8114 129.39 88.2112 128.484 91.8641Z" fill="#FF902F"/>
<mask id="mask2_120_1979" style="mask-type:alpha" maskUnits="userSpaceOnUse" x="119" y="79" width="45" height="46">
<path d="M128.484 91.8641C121.407 99.1238 119.479 106.235 119.62 112.266C119.772 118.776 125.663 123.41 132.15 123.987C140.636 124.742 146.844 123.796 156.519 120.208C161.94 118.198 165.186 112.4 163.107 107.005C157.021 91.2072 145.004 87.7181 144.306 86.4416C143.485 84.941 140.332 85.5349 141.401 83.1666C142.469 80.7983 141.943 81.4955 137.55 80.274C134.225 79.3496 133.426 79.6017 133.359 84.5334C131.493 83.5385 127.247 79.6803 128.583 85.3452C134.659 87.8114 129.39 88.2112 128.484 91.8641Z" fill="#FF902F"/>
</mask>
<g mask="url(#mask2_120_1979)">
<path d="M140.108 118.782C147.477 118.524 154.946 115.146 158.562 108.985C162.178 102.825 153.846 92.8575 152.385 90.2275C156.548 89.5199 164.027 100.007 166.203 106.251C168.924 114.056 158.79 121.167 148.367 124.715C137.945 128.262 115.763 123.765 115.271 114.907C114.966 109.405 121.578 95.2185 125.215 88.7825L131.5 90.7151C131.155 91.2131 150.702 87.436 150.272 88.164C150.772 93.1192 140.478 95.3543 134.459 95.5728C133.009 95.6255 128.987 97.5689 128.536 98.9478C127.571 101.901 127.064 105.094 127.125 107.638C127.251 112.871 132.739 119.04 140.108 118.782Z" fill="url(#paint2_linear_120_1979)"/>
</g>
<path d="M129.999 90.6048C131.029 92.8648 133.996 92.5931 138.297 91.856C141.45 91.3158 146.429 88.3048 146.429 88.3048C146.429 88.3048 147.114 87.7314 146.306 86.6183C145.098 84.9532 148.531 76.3367 148.447 75.1895C148.378 74.2475 146.867 73.5179 145.46 73.4521C145.257 73.4427 145.127 73.201 145.228 73.025C145.682 72.2333 145.589 71.7096 145.405 71.6659C138.715 70.0749 133.532 73.0493 131.977 74.808C131.262 75.6171 129.711 75.1933 126.947 76.5176C124.183 77.8419 120.145 82.343 123.539 83.5127C126.663 84.5898 128.123 86.66 129.285 87.848C129.47 88.0377 129.589 88.2787 129.596 88.5443C129.609 89.0425 129.649 89.8361 129.999 90.6048Z" fill="#FF902F"/>
<mask id="mask3_120_1979" style="mask-type:alpha" maskUnits="userSpaceOnUse" x="122" y="71" width="27" height="22">
<path d="M129.999 90.6048C131.029 92.8648 133.996 92.5931 138.297 91.856C141.45 91.3158 146.429 88.3048 146.429 88.3048C146.429 88.3048 147.114 87.7314 146.306 86.6183C145.098 84.9532 148.531 76.3367 148.447 75.1895C148.378 74.2475 146.867 73.5179 145.46 73.4521C145.257 73.4427 145.127 73.201 145.228 73.025C145.682 72.2333 145.589 71.7096 145.405 71.6659C138.715 70.0749 133.532 73.0493 131.977 74.808C131.262 75.6171 129.711 75.1933 126.947 76.5176C124.183 77.8419 120.145 82.343 123.539 83.5127C126.663 84.5898 128.123 86.66 129.285 87.848C129.47 88.0377 129.589 88.2787 129.596 88.5443C129.609 89.0425 129.649 89.8361 129.999 90.6048Z" fill="#FF902F"/>
</mask>
<g mask="url(#mask3_120_1979)">
<path d="M133.139 84.4215C131.361 85.1445 127.036 84.7162 125.804 84.4125L128.329 89.1621C132.804 90.5979 141.835 92.7927 142.156 90.0856C142.476 87.3785 140.629 82.9481 138.424 81.691C137.514 82.2539 134.918 83.6985 133.139 84.4215Z" fill="url(#paint3_linear_120_1979)"/>
<path d="M140.003 89.1826C140.09 86.5871 138.036 83.2066 136.998 81.8408C138.091 82.1848 140.351 83.3276 140.652 85.1467C141.04 83.748 145.161 81.4039 147.173 80.4067L148.021 85.2675C145.312 87.6539 139.916 91.778 140.003 89.1826Z" fill="url(#paint4_linear_120_1979)"/>
<path d="M140.185 80.8865C140.185 80.8865 140.288 79.6431 140.058 79.0556C140.351 79.6383 140.666 79.8482 140.185 80.8865C139.117 79.9124 138.446 79.4523 137.787 79.4416C137.127 79.4309 136.658 79.4702 135.705 80.0531C134.851 80.575 133.598 81.3418 131.717 82.3204C128.12 83.774 125.054 83.9007 123.681 83.6862L122.208 84.1632L120.888 79.7847L130.54 72.1756L135.087 71.5735L139.859 69.4392L146.039 69.2497L149.141 73.5509L148.299 76.2191C147.409 76.962 146.408 77.1705 144.891 77.5694C143.083 78.2416 140.185 80.8865 140.185 80.8865Z" fill="#FFBD57"/>
<path d="M137.636 77.6117C136.328 77.3008 132.663 81.169 125.178 81.9251C124.891 81.9541 124.639 81.7269 124.688 81.4424C125.155 78.7687 129.252 77.4236 129.369 77.4038C130.125 77.2754 132.483 77.1713 134.324 75.2463C136.303 73.176 142.418 71.8549 142.95 72.8836C142.876 73.1937 142.688 73.4959 142.459 73.7687C142.281 73.9804 142.58 74.6305 142.854 74.5998C143.935 74.4787 145.359 74.4603 146.67 74.8871C146.993 74.9922 146.956 75.4184 146.63 75.5161C143.394 76.4857 140.931 77.6608 140.062 79.116C139.769 78.5336 138.974 77.9299 137.636 77.6117Z" fill="url(#paint5_linear_120_1979)"/>
</g>
<path d="M137.055 89.7427C133.802 90.2767 131.165 89.3623 129.447 88.204C129.447 88.204 127.219 89.7264 128.001 91.8653C128.783 94.0041 130.27 94.8795 137.126 94.3748C143.983 93.87 146.649 91.8794 147.965 89.7278C148.946 88.123 147.239 85.5194 145.902 85.5533C143.593 88.4517 141.823 88.9599 137.055 89.7427Z" fill="#522920"/>
<path d="M137.049 89.3315C133.795 89.8187 131.16 89.006 129.444 87.9723C129.444 87.9723 127.6 89.9862 128.314 91.2734C129.028 92.5607 130.255 93.9537 137.112 93.4833C143.969 93.0128 145.968 91.4195 147.286 89.4875C148.27 88.0465 147.239 85.5192 145.902 85.5531C143.588 88.1572 141.818 88.6173 137.049 89.3315Z" fill="#723D31"/>
<mask id="mask4_120_1979" style="mask-type:alpha" maskUnits="userSpaceOnUse" x="128" y="85" width="20" height="9">
<path d="M137.049 89.3315C133.795 89.8187 131.16 89.006 129.444 87.9723C129.444 87.9723 127.6 89.9862 128.314 91.2734C129.028 92.5607 130.255 93.9537 137.113 93.4833C143.97 93.0128 145.968 91.4195 147.286 89.4875C148.27 88.0465 147.239 85.5192 145.903 85.5531C143.589 88.1572 141.818 88.6173 137.049 89.3315Z" fill="#723D31"/>
</mask>
<g mask="url(#mask4_120_1979)">
<path d="M130.733 91.7595C130.447 90.0744 131.319 88.9896 132.187 88.7026L131.695 86.5142L123.851 87.8475L124.383 93.7953L133.026 93.6417C132.202 93.4828 130.964 93.116 130.733 91.7595Z" fill="#522920"/>
<path d="M145.515 87.2165C144.811 87.9675 140.598 89.6503 138.181 89.8497C135.764 90.0491 137.139 91.4591 138.514 91.8121C139.889 92.1652 143.612 91.4585 145.891 89.4253C147.595 87.9044 146.219 86.4655 145.515 87.2165Z" fill="#A15443"/>
</g>
<path d="M143.303 94.5593C144.47 94.2991 145.485 93.9401 146.541 93.2981C147.897 92.4739 149.652 92.3196 150.851 93.3584C166.226 106.679 151.894 117.713 151.877 113.097C151.829 99.8282 146.564 98.4073 143.032 95.5345C142.662 95.233 142.837 94.6633 143.303 94.5593Z" fill="url(#paint6_linear_120_1979)" style="mix-blend-mode:overlay"/>
<g filter="url(#filter2_i_120_1979)">
<path d="M139.511 113.271C148.255 114.584 152.395 111.55 152.804 106.813C153.213 102.076 148.923 100.746 146.535 100.47C144.148 100.194 144.391 101.19 142.172 100.513C140.499 100.002 139.874 98.7822 138.663 98.2462C134.048 96.2024 130.747 98.2835 129.441 101.412C127.967 104.942 130.768 111.959 139.511 113.271Z" fill="#A15443"/>
</g>
<path d="M133.05 98.4269C131.739 98.9761 130.731 100.043 130.111 101.37L129.992 101.639C128.719 104.688 131.064 111.217 139.203 112.63L139.595 112.694C143.898 113.339 146.97 112.9 148.99 111.799C150.857 110.783 151.888 109.171 152.166 107.164L152.212 106.757C152.397 104.605 151.531 103.281 150.368 102.437C149.318 101.673 147.998 101.285 146.919 101.112L146.472 101.05C145.393 100.925 144.944 101.082 144.444 101.208C144.166 101.278 143.854 101.344 143.449 101.337C143.15 101.331 142.817 101.285 142.421 101.187L142.002 101.07C141.047 100.779 140.397 100.283 139.86 99.83C139.372 99.4184 139.024 99.0931 138.607 98.8685L138.424 98.7783C136.242 97.8118 134.437 97.8454 133.05 98.4269Z" stroke="#723D31" stroke-width="1.17881"/>
<path d="M139.003 102.072C140.091 103.202 142.652 103.843 143.93 103.626" stroke="#CC6C57" stroke-width="3.41854" stroke-linecap="round"/>
<path d="M201.593 105.22C200.786 105.22 200.009 105.147 199.261 105C198.527 104.868 197.845 104.67 197.215 104.406C196.599 104.142 196.049 103.827 195.565 103.46L196.423 101.238C196.907 101.575 197.413 101.869 197.941 102.118C198.483 102.353 199.055 102.536 199.657 102.668C200.273 102.785 200.918 102.844 201.593 102.844C202.751 102.844 203.595 102.653 204.123 102.272C204.651 101.876 204.915 101.37 204.915 100.754C204.915 100.417 204.834 100.131 204.673 99.896C204.511 99.6467 204.247 99.434 203.881 99.258C203.514 99.082 203.03 98.9353 202.429 98.818L200.009 98.312C198.615 98.0187 197.574 97.5273 196.885 96.838C196.21 96.134 195.873 95.21 195.873 94.066C195.873 93.098 196.129 92.2547 196.643 91.536C197.156 90.8173 197.867 90.26 198.777 89.864C199.686 89.468 200.735 89.27 201.923 89.27C202.627 89.27 203.301 89.3433 203.947 89.49C204.607 89.622 205.208 89.8273 205.751 90.106C206.308 90.37 206.792 90.6927 207.203 91.074L206.345 93.186C205.729 92.6727 205.054 92.2913 204.321 92.042C203.587 91.778 202.781 91.646 201.901 91.646C201.226 91.646 200.647 91.7413 200.163 91.932C199.679 92.1227 199.305 92.394 199.041 92.746C198.791 93.0833 198.667 93.4867 198.667 93.956C198.667 94.484 198.843 94.9093 199.195 95.232C199.547 95.54 200.148 95.782 200.999 95.958L203.397 96.464C204.849 96.772 205.927 97.256 206.631 97.916C207.349 98.576 207.709 99.456 207.709 100.556C207.709 101.48 207.459 102.294 206.961 102.998C206.462 103.702 205.751 104.252 204.827 104.648C203.917 105.029 202.839 105.22 201.593 105.22ZM215.895 105.22C214.78 105.22 213.812 104.993 212.991 104.538C212.169 104.083 211.531 103.438 211.077 102.602C210.622 101.751 210.395 100.754 210.395 99.61C210.395 98.466 210.622 97.476 211.077 96.64C211.531 95.804 212.169 95.1587 212.991 94.704C213.812 94.2493 214.78 94.022 215.895 94.022C217.009 94.022 217.977 94.2493 218.799 94.704C219.62 95.1587 220.258 95.804 220.713 96.64C221.167 97.476 221.395 98.466 221.395 99.61C221.395 100.754 221.167 101.751 220.713 102.602C220.258 103.438 219.62 104.083 218.799 104.538C217.977 104.993 217.009 105.22 215.895 105.22ZM215.895 103.13C216.716 103.13 217.376 102.837 217.875 102.25C218.373 101.649 218.623 100.769 218.623 99.61C218.623 98.4367 218.373 97.564 217.875 96.992C217.376 96.4053 216.716 96.112 215.895 96.112C215.073 96.112 214.413 96.4053 213.915 96.992C213.416 97.564 213.167 98.4367 213.167 99.61C213.167 100.769 213.416 101.649 213.915 102.25C214.413 102.837 215.073 103.13 215.895 103.13ZM228.532 105.22C227.256 105.22 226.31 104.875 225.694 104.186C225.092 103.482 224.792 102.455 224.792 101.106V89.49H227.542V100.974C227.542 101.399 227.6 101.766 227.718 102.074C227.85 102.367 228.04 102.587 228.29 102.734C228.539 102.881 228.847 102.954 229.214 102.954C229.375 102.954 229.536 102.947 229.698 102.932C229.859 102.917 230.013 102.888 230.16 102.844L230.116 105.022C229.852 105.081 229.588 105.125 229.324 105.154C229.074 105.198 228.81 105.22 228.532 105.22ZM237.743 105.22C236.628 105.22 235.66 104.993 234.839 104.538C234.017 104.083 233.379 103.438 232.925 102.602C232.47 101.751 232.243 100.754 232.243 99.61C232.243 98.466 232.47 97.476 232.925 96.64C233.379 95.804 234.017 95.1587 234.839 94.704C235.66 94.2493 236.628 94.022 237.743 94.022C238.857 94.022 239.825 94.2493 240.647 94.704C241.468 95.1587 242.106 95.804 242.561 96.64C243.015 97.476 243.243 98.466 243.243 99.61C243.243 100.754 243.015 101.751 242.561 102.602C242.106 103.438 241.468 104.083 240.647 104.538C239.825 104.993 238.857 105.22 237.743 105.22ZM237.743 103.13C238.564 103.13 239.224 102.837 239.723 102.25C240.221 101.649 240.471 100.769 240.471 99.61C240.471 98.4367 240.221 97.564 239.723 96.992C239.224 96.4053 238.564 96.112 237.743 96.112C236.921 96.112 236.261 96.4053 235.763 96.992C235.264 97.564 235.015 98.4367 235.015 99.61C235.015 100.769 235.264 101.649 235.763 102.25C236.261 102.837 236.921 103.13 237.743 103.13ZM258.999 105.22C257.781 105.22 256.733 104.993 255.853 104.538C254.973 104.083 254.291 103.438 253.807 102.602C253.337 101.766 253.103 100.776 253.103 99.632C253.103 98.5173 253.33 97.542 253.785 96.706C254.254 95.87 254.892 95.2173 255.699 94.748C256.52 94.264 257.451 94.022 258.493 94.022C259.519 94.022 260.399 94.242 261.133 94.682C261.866 95.122 262.431 95.7453 262.827 96.552C263.237 97.3587 263.443 98.3193 263.443 99.434V100.248H255.325V98.664H261.507L261.155 98.994C261.155 97.9967 260.935 97.234 260.495 96.706C260.055 96.1633 259.424 95.892 258.603 95.892C257.987 95.892 257.459 96.0387 257.019 96.332C256.593 96.6107 256.263 97.014 256.029 97.542C255.809 98.0553 255.699 98.6713 255.699 99.39V99.544C255.699 100.351 255.823 101.018 256.073 101.546C256.322 102.074 256.696 102.47 257.195 102.734C257.693 102.998 258.309 103.13 259.043 103.13C259.644 103.13 260.245 103.042 260.847 102.866C261.448 102.675 261.998 102.382 262.497 101.986L263.267 103.834C262.753 104.259 262.108 104.597 261.331 104.846C260.553 105.095 259.776 105.22 258.999 105.22ZM269.744 105L265.08 94.242H268.006L271.328 102.58H270.668L274.1 94.242H276.85L272.12 105H269.744ZM284.392 105.22C283.174 105.22 282.126 104.993 281.246 104.538C280.366 104.083 279.684 103.438 279.2 102.602C278.73 101.766 278.496 100.776 278.496 99.632C278.496 98.5173 278.723 97.542 279.178 96.706C279.647 95.87 280.285 95.2173 281.092 94.748C281.913 94.264 282.844 94.022 283.886 94.022C284.912 94.022 285.792 94.242 286.526 94.682C287.259 95.122 287.824 95.7453 288.22 96.552C288.63 97.3587 288.836 98.3193 288.836 99.434V100.248H280.718V98.664H286.9L286.548 98.994C286.548 97.9967 286.328 97.234 285.888 96.706C285.448 96.1633 284.817 95.892 283.996 95.892C283.38 95.892 282.852 96.0387 282.412 96.332C281.986 96.6107 281.656 97.014 281.422 97.542C281.202 98.0553 281.092 98.6713 281.092 99.39V99.544C281.092 100.351 281.216 101.018 281.466 101.546C281.715 102.074 282.089 102.47 282.588 102.734C283.086 102.998 283.702 103.13 284.436 103.13C285.037 103.13 285.638 103.042 286.24 102.866C286.841 102.675 287.391 102.382 287.89 101.986L288.66 103.834C288.146 104.259 287.501 104.597 286.724 104.846C285.946 105.095 285.169 105.22 284.392 105.22ZM292.141 105V94.242H294.825V96.398H294.583C294.905 95.6207 295.404 95.034 296.079 94.638C296.768 94.2273 297.545 94.022 298.411 94.022C299.276 94.022 299.987 94.1833 300.545 94.506C301.102 94.8287 301.52 95.32 301.799 95.98C302.077 96.6253 302.217 97.4467 302.217 98.444V105H299.467V98.576C299.467 98.0187 299.393 97.564 299.247 97.212C299.115 96.86 298.902 96.6033 298.609 96.442C298.33 96.266 297.971 96.178 297.531 96.178C297.003 96.178 296.541 96.2953 296.145 96.53C295.749 96.75 295.441 97.0727 295.221 97.498C295.001 97.9087 294.891 98.3927 294.891 98.95V105H292.141ZM311.065 105.22C309.628 105.22 308.557 104.861 307.853 104.142C307.149 103.423 306.797 102.375 306.797 100.996V96.31H304.729V94.242H306.797V91.03H309.547V94.242H312.803V96.31H309.547V100.842C309.547 101.546 309.701 102.074 310.009 102.426C310.317 102.778 310.816 102.954 311.505 102.954C311.71 102.954 311.923 102.932 312.143 102.888C312.363 102.829 312.59 102.771 312.825 102.712L313.243 104.736C312.979 104.883 312.642 105 312.231 105.088C311.835 105.176 311.446 105.22 311.065 105.22ZM319.645 105.22C319.044 105.22 318.457 105.169 317.885 105.066C317.328 104.963 316.815 104.824 316.345 104.648C315.876 104.457 315.465 104.223 315.113 103.944L315.817 102.14C316.184 102.375 316.58 102.58 317.005 102.756C317.431 102.932 317.871 103.064 318.325 103.152C318.78 103.24 319.227 103.284 319.667 103.284C320.371 103.284 320.892 103.167 321.229 102.932C321.581 102.683 321.757 102.36 321.757 101.964C321.757 101.627 321.64 101.37 321.405 101.194C321.185 101.003 320.848 100.864 320.393 100.776L318.193 100.358C317.284 100.182 316.587 99.852 316.103 99.368C315.634 98.8693 315.399 98.2313 315.399 97.454C315.399 96.75 315.59 96.1413 315.971 95.628C316.367 95.1147 316.91 94.7187 317.599 94.44C318.289 94.1613 319.081 94.022 319.975 94.022C320.489 94.022 320.987 94.0733 321.471 94.176C321.955 94.264 322.41 94.4033 322.835 94.594C323.275 94.77 323.657 95.0047 323.979 95.298L323.231 97.102C322.953 96.8673 322.63 96.6693 322.263 96.508C321.897 96.332 321.515 96.2 321.119 96.112C320.738 96.0093 320.364 95.958 319.997 95.958C319.279 95.958 318.743 96.0827 318.391 96.332C318.054 96.5813 317.885 96.9113 317.885 97.322C317.885 97.63 317.988 97.8867 318.193 98.092C318.399 98.2973 318.714 98.4367 319.139 98.51L321.339 98.928C322.293 99.104 323.011 99.4267 323.495 99.896C323.994 100.365 324.243 100.996 324.243 101.788C324.243 102.507 324.053 103.123 323.671 103.636C323.29 104.149 322.755 104.545 322.065 104.824C321.376 105.088 320.569 105.22 319.645 105.22Z" fill="#202224"/>
<mask id="mask5_120_1979" style="mask-type:alpha" maskUnits="userSpaceOnUse" x="54" y="54" width="60" height="88">
<path d="M55.8684 68.98C55.8684 61.8113 61.6798 56 68.8484 56H86.8859C100.683 56 111.868 67.185 111.868 80.9825V115.018C111.868 128.815 100.683 140 86.8859 140H68.8484C61.6798 140 55.8684 134.189 55.8684 127.02V68.98Z" fill="white" stroke="url(#paint7_linear_120_1979)" stroke-opacity="0.3" stroke-width="2.60316"/>
</mask>
<g mask="url(#mask5_120_1979)">
<rect x="53.8684" y="54.3848" width="28" height="87.2308" fill="#587ED7"/>
</g>
<defs>
<filter id="filter0_d_120_1979" x="0.462972" y="0.594686" width="430.337" height="208.337" filterUnits="userSpaceOnUse" color-interpolation-filters="sRGB">
<feFlood flood-opacity="0" result="BackgroundImageFix"/>
<feColorMatrix in="SourceAlpha" type="matrix" values="0 0 0 0 0 0 0 0 0 0 0 0 0 0 0 0 0 0 127 0" result="hardAlpha"/>
<feOffset dx="6.76297" dy="6.76297"/>
<feGaussianBlur stdDeviation="30.4334"/>
<feColorMatrix type="matrix" values="0 0 0 0 0 0 0 0 0 0 0 0 0 0 0 0 0 0 0.05 0"/>
<feBlend mode="normal" in2="BackgroundImageFix" result="effect1_dropShadow_120_1979"/>
<feBlend mode="normal" in="SourceGraphic" in2="effect1_dropShadow_120_1979" result="shape"/>
</filter>
<filter id="filter1_d_120_1979" x="116.155" y="67.7554" width="52.7845" height="63.3358" filterUnits="userSpaceOnUse" color-interpolation-filters="sRGB">
<feFlood flood-opacity="0" result="BackgroundImageFix"/>
<feColorMatrix in="SourceAlpha" type="matrix" values="0 0 0 0 0 0 0 0 0 0 0 0 0 0 0 0 0 0 127 0" result="hardAlpha"/>
<feOffset dx="1.72863" dy="3.40588"/>
<feComposite in2="hardAlpha" operator="out"/>
<feColorMatrix type="matrix" values="0 0 0 0 0.313726 0 0 0 0 0.0431373 0 0 0 0 0.0431373 0 0 0 1 0"/>
<feBlend mode="normal" in2="BackgroundImageFix" result="effect1_dropShadow_120_1979"/>
<feBlend mode="normal" in="SourceGraphic" in2="effect1_dropShadow_120_1979" result="shape"/>
</filter>
<filter id="filter2_i_120_1979" x="129.068" y="95.5812" width="25.5308" height="17.997" filterUnits="userSpaceOnUse" color-interpolation-filters="sRGB">
<feFlood flood-opacity="0" result="BackgroundImageFix"/>
<feBlend mode="normal" in="SourceGraphic" in2="BackgroundImageFix" result="shape"/>
<feColorMatrix in="SourceAlpha" type="matrix" values="0 0 0 0 0 0 0 0 0 0 0 0 0 0 0 0 0 0 127 0" result="hardAlpha"/>
<feOffset dx="1.76821" dy="-2.4755"/>
<feGaussianBlur stdDeviation="0.925364"/>
<feComposite in2="hardAlpha" operator="arithmetic" k2="-1" k3="1"/>
<feColorMatrix type="matrix" values="0 0 0 0 0.0891668 0 0 0 0 0 0 0 0 0 0 0 0 0 0.25 0"/>
<feBlend mode="normal" in2="shape" result="effect1_innerShadow_120_1979"/>
</filter>
<linearGradient id="paint0_linear_120_1979" x1="125.643" y1="25.6597" x2="273.636" y2="197.283" gradientUnits="userSpaceOnUse">
<stop stop-color="#F1F1F1"/>
<stop offset="1" stop-color="#E1E1E1"/>
</linearGradient>
<linearGradient id="paint1_linear_120_1979" x1="135.023" y1="72.1058" x2="143.8" y2="123.746" gradientUnits="userSpaceOnUse">
<stop stop-color="#A80908"/>
<stop offset="1" stop-color="#730606"/>
</linearGradient>
<linearGradient id="paint2_linear_120_1979" x1="122.513" y1="116.919" x2="154.449" y2="99.1477" gradientUnits="userSpaceOnUse">
<stop stop-color="#D03E1D"/>
<stop offset="1" stop-color="#D03E1D" stop-opacity="0"/>
</linearGradient>
<linearGradient id="paint3_linear_120_1979" x1="138.569" y1="91.3277" x2="136.001" y2="80.0412" gradientUnits="userSpaceOnUse">
<stop offset="0.286458" stop-color="#D03E1D"/>
<stop offset="1" stop-color="#FF7F63" stop-opacity="0"/>
</linearGradient>
<linearGradient id="paint4_linear_120_1979" x1="147.191" y1="88.1274" x2="141.148" y2="79.6231" gradientUnits="userSpaceOnUse">
<stop offset="0.286458" stop-color="#D03E1D"/>
<stop offset="1" stop-color="#FF7F63" stop-opacity="0"/>
</linearGradient>
<linearGradient id="paint5_linear_120_1979" x1="130.81" y1="71.2799" x2="134.178" y2="80.2507" gradientUnits="userSpaceOnUse">
<stop offset="0.531412" stop-color="#FF902F"/>
<stop offset="1" stop-color="#D2411E"/>
</linearGradient>
<linearGradient id="paint6_linear_120_1979" x1="151.352" y1="95.5851" x2="152.58" y2="113.36" gradientUnits="userSpaceOnUse">
<stop stop-color="#FFBD57"/>
<stop offset="1" stop-color="#FFBD57" stop-opacity="0"/>
</linearGradient>
<linearGradient id="paint7_linear_120_1979" x1="68.6376" y1="25.6597" x2="129.407" y2="38.5566" gradientUnits="userSpaceOnUse">
<stop stop-color="#F1F1F1"/>
<stop offset="1" stop-color="#E1E1E1"/>
</linearGradient>
</defs>
</svg>
