<svg width="432" height="209" viewBox="0 0 432 209" fill="none" xmlns="http://www.w3.org/2000/svg">
<g filter="url(#filter0_d_120_1899)">
<rect x="56.3948" y="56" width="306" height="84" rx="12.98" fill="white"/>
<rect x="56.3948" y="56" width="306" height="84" rx="12.98" stroke="url(#paint0_linear_120_1899)" stroke-opacity="0.3" stroke-width="2.60316"/>
</g>
<g filter="url(#filter1_d_120_1899)">
<mask id="path-3-outside-1_120_1899" maskUnits="userSpaceOnUse" x="108.406" y="64.9973" width="53.8607" height="64.3036" fill="black">
<rect fill="white" x="108.406" y="64.9973" width="53.8607" height="64.3036"/>
<path d="M146.825 72.9306C148.501 73.3435 150.031 74.1774 151.24 75.3371C152.45 76.497 153.289 77.9361 153.661 79.4884C154.033 81.0405 153.924 82.6434 153.345 84.1134C152.767 85.5836 151.742 86.8616 150.39 87.8003C150.31 87.8556 150.228 87.9093 150.146 87.962C149.979 88.1123 148.052 89.5494 147.749 91.4167C147.662 92.0136 147.672 92.6218 147.778 93.2218C147.907 94.0241 148.713 95.7064 148.848 95.9276C150.739 99.0367 152.343 103.041 152.925 106.871C153.948 113.601 152.426 116.835 152.032 117.803C152.031 117.805 152.03 117.807 152.029 117.809C151.27 120.328 145.584 121.45 138.839 120.453L138.183 120.35C138.17 120.348 138.157 120.345 138.144 120.343C138.129 120.341 138.114 120.338 138.099 120.336L137.781 120.282L137.779 120.281C137.776 120.281 137.773 120.28 137.77 120.279C137.758 120.277 137.746 120.275 137.735 120.273C137.724 120.271 137.713 120.269 137.701 120.267C137.698 120.266 137.695 120.265 137.692 120.265L137.69 120.265C137.584 120.245 137.478 120.225 137.373 120.205C137.358 120.202 137.343 120.199 137.328 120.196C137.315 120.194 137.302 120.191 137.289 120.189L137.29 120.189C136.134 119.964 135.025 119.69 133.98 119.378C132.761 119.939 131.337 120.434 129.785 120.81L129.299 120.922C129.29 120.925 129.28 120.926 129.27 120.929C129.259 120.931 129.249 120.934 129.238 120.936L129.001 120.988L129 120.988C128.998 120.988 128.995 120.989 128.993 120.99C128.985 120.992 128.975 120.993 128.967 120.995C128.959 120.996 128.95 120.999 128.942 121C128.939 121.001 128.937 121.001 128.935 121.001L128.933 121.002C128.854 121.019 128.775 121.033 128.696 121.049C128.685 121.051 128.674 121.053 128.663 121.056C128.653 121.057 128.644 121.06 128.634 121.062L128.634 121.061C123.392 122.079 118.867 121.338 118.251 119.367C118.25 119.366 118.25 119.364 118.249 119.362C117.943 118.63 116.767 116.188 117.452 111.032C117.842 108.097 118.994 105.011 120.372 102.604C120.469 102.433 121.053 101.134 121.14 100.519C121.212 100.059 121.212 99.5936 121.14 99.1393C120.892 97.7197 119.435 96.6578 119.307 96.5452C119.245 96.5064 119.183 96.466 119.122 96.4251C118.101 95.733 117.321 94.7771 116.871 93.6662C116.421 92.5551 116.319 91.3339 116.577 90.143C116.836 88.9521 117.445 87.8394 118.333 86.9321C119.221 86.0247 120.354 85.3595 121.601 85.0126C121.622 85.0068 122.364 84.8513 122.381 84.8488C123.661 84.6672 124.954 84.8254 126.112 85.3056C127.271 85.7858 128.248 86.5692 128.931 87.5646C129.613 88.5599 129.975 89.7279 129.973 90.934C129.971 92.1402 129.606 93.3356 128.92 94.384C128.879 94.446 128.838 94.5084 128.795 94.5693C128.719 94.7242 127.769 96.2871 128.067 97.6962C128.169 98.1442 128.342 98.5732 128.58 98.9685C128.774 99.3032 129.251 99.8069 129.616 100.166C131.391 97.6401 133.633 95.3306 135.849 93.5854C136.053 93.4247 137.397 92.1305 137.799 91.4238C138.109 90.8987 138.331 90.3317 138.458 89.7417C138.828 87.8869 137.525 85.8688 137.421 85.6695C137.362 85.5911 137.305 85.5117 137.249 85.4318C136.311 84.0816 135.799 82.5287 135.771 80.9509C135.743 79.3729 136.2 77.8336 137.091 76.5095C137.981 75.1855 139.268 74.1303 140.804 73.4641C142.341 72.798 144.065 72.5477 145.779 72.7428C145.816 72.7475 146.803 72.9251 146.825 72.9306Z"/>
</mask>
<path d="M146.825 72.9306C148.501 73.3435 150.031 74.1774 151.24 75.3371C152.45 76.497 153.289 77.9361 153.661 79.4884C154.033 81.0405 153.924 82.6434 153.345 84.1134C152.767 85.5836 151.742 86.8616 150.39 87.8003C150.31 87.8556 150.228 87.9093 150.146 87.962C149.979 88.1123 148.052 89.5494 147.749 91.4167C147.662 92.0136 147.672 92.6218 147.778 93.2218C147.907 94.0241 148.713 95.7064 148.848 95.9276C150.739 99.0367 152.343 103.041 152.925 106.871C153.948 113.601 152.426 116.835 152.032 117.803C152.031 117.805 152.03 117.807 152.029 117.809C151.27 120.328 145.584 121.45 138.839 120.453L138.183 120.35C138.17 120.348 138.157 120.345 138.144 120.343C138.129 120.341 138.114 120.338 138.099 120.336L137.781 120.282L137.779 120.281C137.776 120.281 137.773 120.28 137.77 120.279C137.758 120.277 137.746 120.275 137.735 120.273C137.724 120.271 137.713 120.269 137.701 120.267C137.698 120.266 137.695 120.265 137.692 120.265L137.69 120.265C137.584 120.245 137.478 120.225 137.373 120.205C137.358 120.202 137.343 120.199 137.328 120.196C137.315 120.194 137.302 120.191 137.289 120.189L137.29 120.189C136.134 119.964 135.025 119.69 133.98 119.378C132.761 119.939 131.337 120.434 129.785 120.81L129.299 120.922C129.29 120.925 129.28 120.926 129.27 120.929C129.259 120.931 129.249 120.934 129.238 120.936L129.001 120.988L129 120.988C128.998 120.988 128.995 120.989 128.993 120.99C128.985 120.992 128.975 120.993 128.967 120.995C128.959 120.996 128.95 120.999 128.942 121C128.939 121.001 128.937 121.001 128.935 121.001L128.933 121.002C128.854 121.019 128.775 121.033 128.696 121.049C128.685 121.051 128.674 121.053 128.663 121.056C128.653 121.057 128.644 121.06 128.634 121.062L128.634 121.061C123.392 122.079 118.867 121.338 118.251 119.367C118.25 119.366 118.25 119.364 118.249 119.362C117.943 118.63 116.767 116.188 117.452 111.032C117.842 108.097 118.994 105.011 120.372 102.604C120.469 102.433 121.053 101.134 121.14 100.519C121.212 100.059 121.212 99.5936 121.14 99.1393C120.892 97.7197 119.435 96.6578 119.307 96.5452C119.245 96.5064 119.183 96.466 119.122 96.4251C118.101 95.733 117.321 94.7771 116.871 93.6662C116.421 92.5551 116.319 91.3339 116.577 90.143C116.836 88.9521 117.445 87.8394 118.333 86.9321C119.221 86.0247 120.354 85.3595 121.601 85.0126C121.622 85.0068 122.364 84.8513 122.381 84.8488C123.661 84.6672 124.954 84.8254 126.112 85.3056C127.271 85.7858 128.248 86.5692 128.931 87.5646C129.613 88.5599 129.975 89.7279 129.973 90.934C129.971 92.1402 129.606 93.3356 128.92 94.384C128.879 94.446 128.838 94.5084 128.795 94.5693C128.719 94.7242 127.769 96.2871 128.067 97.6962C128.169 98.1442 128.342 98.5732 128.58 98.9685C128.774 99.3032 129.251 99.8069 129.616 100.166C131.391 97.6401 133.633 95.3306 135.849 93.5854C136.053 93.4247 137.397 92.1305 137.799 91.4238C138.109 90.8987 138.331 90.3317 138.458 89.7417C138.828 87.8869 137.525 85.8688 137.421 85.6695C137.362 85.5911 137.305 85.5117 137.249 85.4318C136.311 84.0816 135.799 82.5287 135.771 80.9509C135.743 79.3729 136.2 77.8336 137.091 76.5095C137.981 75.1855 139.268 74.1303 140.804 73.4641C142.341 72.798 144.065 72.5477 145.779 72.7428C145.816 72.7475 146.803 72.9251 146.825 72.9306Z" fill="#D9D9D9"/>
<path d="M146.825 72.9306L147.583 69.8521L147.58 69.8514L146.825 72.9306ZM151.24 75.3371L153.435 73.0491L153.435 73.049L151.24 75.3371ZM153.661 79.4884L156.744 78.7493L156.744 78.7491L153.661 79.4884ZM153.345 84.1134L156.296 85.2743L156.296 85.2743L153.345 84.1134ZM150.39 87.8003L152.191 90.4099L152.198 90.4049L150.39 87.8003ZM150.146 87.962L148.438 85.2906L148.218 85.4313L148.024 85.606L150.146 87.962ZM147.749 91.4167L144.62 90.9099L144.616 90.9335L144.612 90.9572L147.749 91.4167ZM147.778 93.2218L150.908 92.7199L150.904 92.6941L150.9 92.6684L147.778 93.2218ZM148.848 95.9276L146.138 97.574L146.139 97.5753L148.848 95.9276ZM152.925 106.871L149.79 107.348L149.79 107.348L152.925 106.871ZM152.032 117.803L154.914 119.126L154.942 119.063L154.968 118.999L152.032 117.803ZM152.029 117.809L149.285 116.222L149.1 116.541L148.994 116.893L152.029 117.809ZM138.839 120.453L138.345 123.585L138.36 123.588L138.375 123.59L138.839 120.453ZM138.183 120.35L137.658 123.477L137.674 123.479L137.689 123.482L138.183 120.35ZM138.144 120.343L138.669 117.216L138.666 117.216L138.144 120.343ZM138.099 120.336L137.569 123.462L137.57 123.462L138.099 120.336ZM137.781 120.282L138.311 117.156L138.24 117.144L138.169 117.135L137.781 120.282ZM137.779 120.281L137.217 123.402L137.304 123.417L137.392 123.428L137.779 120.281ZM137.77 120.279L137.208 123.4L137.21 123.4L137.77 120.279ZM137.735 120.273L138.333 117.159L138.297 117.153L138.262 117.147L137.735 120.273ZM137.701 120.267L137.139 123.387L137.139 123.387L137.701 120.267ZM137.692 120.265L138.256 117.145L138.168 117.129L138.079 117.118L137.692 120.265ZM137.69 120.265L137.125 123.384L137.213 123.4L137.302 123.411L137.69 120.265ZM137.373 120.205L137.973 117.092L137.97 117.091L137.373 120.205ZM137.328 120.196L136.726 123.309L136.728 123.31L137.328 120.196ZM137.289 120.189L137.677 117.042L136.693 123.303L137.289 120.189ZM137.29 120.189L136.902 123.335L137.894 117.076L137.29 120.189ZM133.98 119.378L134.888 116.34L133.741 115.997L132.655 116.498L133.98 119.378ZM129.785 120.81L130.5 123.899L130.516 123.895L130.531 123.891L129.785 120.81ZM129.299 120.922L129.983 124.018L129.999 124.015L130.015 124.011L129.299 120.922ZM129.27 120.929L128.586 117.833L128.583 117.833L129.27 120.929ZM129.238 120.936L129.913 124.034L129.918 124.033L129.238 120.936ZM129.001 120.988L128.614 124.135L129.149 124.201L129.676 124.086L129.001 120.988ZM129 120.988L129.388 117.841L128.867 117.777L128.354 117.884L129 120.988ZM128.993 120.99L129.64 124.094L129.643 124.093L128.993 120.99ZM128.967 120.995L128.356 117.883L128.32 117.89L128.284 117.898L128.967 120.995ZM128.942 121L129.583 124.105L129.588 124.104L128.942 121ZM128.935 121.001L128.288 117.897L127.566 118.048L126.984 118.502L128.935 121.001ZM128.933 121.002L129.577 124.107L130.301 123.957L130.884 123.501L128.933 121.002ZM128.696 121.049L128.088 117.937L128.084 117.938L128.696 121.049ZM128.663 121.056L129.269 124.168L129.271 124.167L128.663 121.056ZM128.634 121.062L125.487 120.674L124.952 125.018L129.246 124.173L128.634 121.062ZM128.634 121.061L131.781 121.448L132.314 117.116L128.03 117.948L128.634 121.061ZM118.251 119.367L121.277 118.42L121.167 118.071L120.982 117.756L118.251 119.367ZM118.249 119.362L115.324 120.586L115.342 120.627L115.36 120.668L118.249 119.362ZM117.452 111.032L120.595 111.449L120.595 111.449L117.452 111.032ZM120.372 102.604L123.123 104.178L123.124 104.178L120.372 102.604ZM121.14 100.519L118.008 100.026L118.004 100.051L118.001 100.076L121.14 100.519ZM121.14 99.1393L124.271 98.6399L124.267 98.6166L124.263 98.5934L121.14 99.1393ZM119.307 96.5452L121.404 94.1672L121.205 93.9916L120.98 93.8516L119.307 96.5452ZM119.122 96.4251L117.344 99.0497L117.347 99.0521L119.122 96.4251ZM116.871 93.6662L113.932 94.8565L113.932 94.8565L116.871 93.6662ZM116.577 90.143L113.479 89.4701L113.479 89.4702L116.577 90.143ZM118.333 86.9321L116.067 84.7141L116.067 84.7142L118.333 86.9321ZM121.601 85.0126L120.754 81.9573L120.751 81.958L121.601 85.0126ZM122.381 84.8488L121.935 81.7098L121.932 81.7102L122.381 84.8488ZM126.112 85.3056L127.327 82.3767L127.326 82.3767L126.112 85.3056ZM128.931 87.5646L131.545 85.7714L131.545 85.7712L128.931 87.5646ZM129.973 90.934L133.143 90.9388L133.143 90.9386L129.973 90.934ZM128.92 94.384L131.569 96.1264L131.574 96.1193L128.92 94.384ZM128.795 94.5693L126.208 92.7357L126.06 92.9443L125.948 93.1739L128.795 94.5693ZM128.067 97.6962L124.966 98.3532L124.971 98.3765L124.976 98.3996L128.067 97.6962ZM128.58 98.9685L131.323 97.3794L131.31 97.357L131.297 97.3349L128.58 98.9685ZM129.616 100.166L127.392 102.426L130.059 105.05L132.21 101.989L129.616 100.166ZM135.849 93.5854L137.811 96.0763L137.813 96.0748L135.849 93.5854ZM137.799 91.4238L135.068 89.8128L135.055 89.8354L135.042 89.8581L137.799 91.4238ZM138.458 89.7417L141.557 90.4094L141.562 90.386L141.567 90.3626L138.458 89.7417ZM137.421 85.6695L140.233 84.2036L140.111 83.9702L139.952 83.76L137.421 85.6695ZM137.249 85.4318L134.645 87.24L134.647 87.2435L137.249 85.4318ZM135.771 80.9509L132.601 81.0071L132.601 81.0071L135.771 80.9509ZM137.091 76.5095L134.459 74.7407L134.459 74.7407L137.091 76.5095ZM140.804 73.4641L139.543 70.5552L139.543 70.5552L140.804 73.4641ZM145.779 72.7428L146.188 69.5986L146.163 69.5954L146.138 69.5926L145.779 72.7428ZM146.825 72.9306L146.066 76.0091C147.22 76.2933 148.251 76.8626 149.046 77.6252L151.24 75.3371L153.435 73.049C151.812 71.4922 149.782 70.3937 147.583 69.8521L146.825 72.9306ZM151.24 75.3371L149.046 77.6251C149.84 78.3867 150.355 79.2965 150.578 80.2278L153.661 79.4884L156.744 78.7491C156.223 76.5758 155.06 74.6073 153.435 73.0491L151.24 75.3371ZM153.661 79.4884L150.578 80.2276C150.8 81.1545 150.733 82.0938 150.395 82.9526L153.345 84.1134L156.296 85.2743C157.115 83.1931 157.266 80.9266 156.744 78.7493L153.661 79.4884ZM153.345 84.1134L150.395 82.9525C150.056 83.8136 149.442 84.5987 148.582 85.1956L150.39 87.8003L152.198 90.4049C154.043 89.1246 155.478 87.3536 156.296 85.2743L153.345 84.1134ZM150.39 87.8003L148.589 85.1906C148.547 85.2202 148.497 85.253 148.438 85.2906L150.146 87.962L151.853 90.6335C151.959 90.5656 152.073 90.491 152.191 90.4099L150.39 87.8003ZM150.146 87.962L148.024 85.606C148.173 85.4722 147.321 86.1556 146.623 86.9457C145.922 87.7391 144.911 89.1107 144.62 90.9099L147.749 91.4167L150.879 91.9235C150.89 91.8553 150.994 91.5747 151.374 91.1452C151.757 90.7124 151.952 90.6021 152.267 90.3181L150.146 87.962ZM147.749 91.4167L144.612 90.9572C144.475 91.8938 144.491 92.8439 144.656 93.7751L147.778 93.2218L150.9 92.6684C150.852 92.3996 150.849 92.1334 150.886 91.8761L147.749 91.4167ZM147.778 93.2218L144.647 93.7237C144.781 94.5603 145.171 95.515 145.395 96.0393C145.633 96.5953 145.944 97.2538 146.138 97.574L148.848 95.9276L151.557 94.2811C151.606 94.361 151.624 94.4007 151.591 94.3363C151.571 94.2972 151.54 94.2354 151.501 94.1535C151.422 93.9899 151.324 93.7753 151.226 93.5459C151.126 93.3133 151.038 93.0908 150.973 92.9053C150.897 92.6875 150.896 92.6413 150.908 92.7199L147.778 93.2218ZM148.848 95.9276L146.139 97.5753C147.846 100.382 149.281 103.992 149.79 107.348L152.925 106.871L156.06 106.395C155.406 102.09 153.632 97.6918 151.556 94.2798L148.848 95.9276ZM152.925 106.871L149.79 107.348C150.254 110.4 150.126 112.549 149.884 113.965C149.647 115.359 149.293 116.124 149.096 116.607L152.032 117.803L154.968 118.999C155.166 118.515 155.769 117.178 156.135 115.031C156.498 112.905 156.618 110.073 156.06 106.395L152.925 106.871ZM152.032 117.803L149.15 116.481C149.145 116.493 149.139 116.505 149.141 116.502C149.141 116.502 149.141 116.501 149.142 116.5C149.142 116.499 149.143 116.497 149.144 116.495C149.146 116.491 149.149 116.485 149.152 116.477C149.159 116.462 149.173 116.433 149.191 116.396C149.208 116.362 149.24 116.299 149.285 116.222L152.029 117.809L154.774 119.396C154.819 119.318 154.851 119.255 154.869 119.219C154.888 119.182 154.902 119.151 154.909 119.136C154.913 119.127 154.916 119.12 154.918 119.116C154.92 119.111 154.922 119.108 154.922 119.107C154.924 119.103 154.919 119.114 154.914 119.126L152.032 117.803ZM152.029 117.809L148.994 116.893C149.112 116.501 149.32 116.495 148.974 116.701C148.64 116.9 148.023 117.148 147.058 117.34C145.143 117.722 142.415 117.777 139.302 117.317L138.839 120.453L138.375 123.59C142.008 124.126 145.495 124.118 148.299 123.559C149.695 123.28 151.063 122.837 152.219 122.149C153.363 121.467 154.567 120.376 155.065 118.724L152.029 117.809ZM138.839 120.453L139.332 117.321L138.677 117.218L138.183 120.35L137.689 123.482L138.345 123.585L138.839 120.453ZM138.183 120.35L138.708 117.223C138.713 117.224 138.715 117.224 138.716 117.224C138.716 117.224 138.715 117.224 138.711 117.224C138.709 117.223 138.703 117.222 138.696 117.221C138.689 117.22 138.68 117.218 138.669 117.216L138.144 120.343L137.619 123.47C137.614 123.469 137.611 123.469 137.611 123.469C137.611 123.469 137.612 123.469 137.615 123.469C137.618 123.47 137.624 123.471 137.631 123.472C137.638 123.473 137.647 123.475 137.658 123.477L138.183 120.35ZM138.144 120.343L138.666 117.216C138.649 117.213 138.639 117.211 138.629 117.21L138.099 120.336L137.57 123.462C137.589 123.465 137.609 123.468 137.622 123.47L138.144 120.343ZM138.099 120.336L138.629 117.21L138.311 117.156L137.781 120.282L137.251 123.408L137.569 123.462L138.099 120.336ZM137.781 120.282L138.169 117.135L138.167 117.135L137.779 120.281L137.392 123.428L137.394 123.428L137.781 120.282ZM137.779 120.281L138.342 117.161C138.376 117.167 138.406 117.173 138.431 117.179C138.456 117.184 138.477 117.189 138.494 117.193C138.51 117.196 138.523 117.199 138.531 117.201C138.535 117.202 138.538 117.203 138.54 117.204C138.541 117.204 138.543 117.204 138.542 117.204C138.542 117.204 138.54 117.204 138.538 117.203C138.536 117.203 138.532 117.202 138.527 117.201C138.519 117.198 138.505 117.195 138.487 117.191C138.47 117.187 138.448 117.182 138.422 117.176C138.395 117.171 138.365 117.165 138.33 117.159L137.77 120.279L137.21 123.4C137.176 123.394 137.146 123.388 137.12 123.383C137.095 123.377 137.074 123.372 137.057 123.369C137.041 123.365 137.027 123.362 137.019 123.36C137.015 123.359 137.012 123.358 137.01 123.357C137.008 123.357 137.007 123.357 137.007 123.357C137.007 123.357 137.007 123.357 137.007 123.357C137.008 123.357 137.008 123.357 137.008 123.357C137.009 123.357 137.01 123.357 137.011 123.358C137.013 123.358 137.016 123.359 137.021 123.36C137.029 123.362 137.043 123.365 137.06 123.369C137.077 123.373 137.1 123.378 137.126 123.384C137.152 123.389 137.182 123.396 137.217 123.402L137.779 120.281ZM137.77 120.279L138.332 117.159C138.323 117.157 138.316 117.156 138.312 117.155C138.31 117.155 138.308 117.155 138.307 117.155C138.306 117.154 138.305 117.154 138.305 117.154C138.305 117.154 138.307 117.155 138.312 117.155C138.316 117.156 138.323 117.158 138.333 117.159L137.735 120.273L137.137 123.387C137.166 123.392 137.19 123.397 137.2 123.398C137.203 123.399 137.205 123.399 137.207 123.399C137.209 123.4 137.21 123.4 137.211 123.4C137.212 123.4 137.211 123.4 137.208 123.4L137.77 120.279ZM137.735 120.273L138.262 117.147C138.273 117.148 138.282 117.15 138.287 117.151C138.29 117.151 138.292 117.152 138.294 117.152C138.295 117.152 138.296 117.153 138.296 117.153C138.296 117.153 138.296 117.153 138.295 117.152C138.295 117.152 138.295 117.152 138.294 117.152C138.293 117.152 138.29 117.152 138.288 117.151C138.283 117.15 138.274 117.149 138.264 117.147L137.701 120.267L137.139 123.387C137.134 123.386 137.131 123.386 137.132 123.386C137.132 123.386 137.132 123.386 137.134 123.386C137.136 123.387 137.138 123.387 137.141 123.388C137.15 123.389 137.177 123.394 137.208 123.4L137.735 120.273ZM137.701 120.267L138.264 117.147C138.297 117.153 138.327 117.159 138.352 117.164C138.377 117.169 138.398 117.174 138.414 117.178C138.43 117.181 138.443 117.184 138.451 117.186C138.455 117.187 138.458 117.188 138.46 117.189C138.462 117.189 138.463 117.189 138.463 117.189C138.463 117.189 138.462 117.189 138.462 117.189C138.461 117.189 138.46 117.189 138.459 117.188C138.457 117.188 138.453 117.187 138.449 117.186C138.441 117.184 138.427 117.181 138.41 117.177C138.393 117.173 138.372 117.168 138.346 117.162C138.321 117.157 138.29 117.151 138.256 117.145L137.692 120.265L137.128 123.385C137.094 123.379 137.065 123.373 137.04 123.368C137.015 123.362 136.994 123.358 136.978 123.354C136.962 123.35 136.949 123.347 136.942 123.345C136.938 123.344 136.935 123.344 136.933 123.343C136.932 123.343 136.93 123.342 136.931 123.343C136.931 123.343 136.931 123.343 136.932 123.343C136.932 123.343 136.933 123.343 136.935 123.343C136.937 123.344 136.94 123.345 136.945 123.346C136.953 123.348 136.967 123.351 136.984 123.355C137.001 123.359 137.023 123.364 137.049 123.37C137.074 123.375 137.105 123.381 137.139 123.387L137.701 120.267ZM137.692 120.265L138.079 117.118L138.078 117.118L137.69 120.265L137.302 123.411L137.304 123.412L137.692 120.265ZM137.69 120.265L138.255 117.145C138.167 117.129 138.076 117.111 137.973 117.092L137.373 120.205L136.772 123.318C136.88 123.339 137 123.362 137.125 123.384L137.69 120.265ZM137.373 120.205L137.97 117.091C137.957 117.089 137.944 117.086 137.938 117.085C137.935 117.084 137.933 117.084 137.931 117.084C137.929 117.083 137.929 117.083 137.929 117.083L137.328 120.196L136.728 123.31C136.742 123.312 136.755 123.315 136.762 123.316C136.772 123.318 136.774 123.318 136.776 123.319L137.373 120.205ZM137.328 120.196L137.931 117.084C137.935 117.084 137.938 117.085 137.938 117.085C137.939 117.085 137.938 117.085 137.937 117.085C137.936 117.085 137.935 117.085 137.933 117.084C137.93 117.083 137.923 117.082 137.916 117.081C137.908 117.079 137.897 117.077 137.885 117.075L137.289 120.189L136.693 123.303C136.687 123.302 136.683 123.301 136.682 123.3C136.681 123.3 136.681 123.3 136.684 123.301C136.686 123.301 136.692 123.303 136.699 123.304C136.705 123.305 136.715 123.307 136.726 123.309L137.328 120.196ZM137.289 120.189L136.901 123.335L136.902 123.335L137.29 120.189L137.678 117.042L137.677 117.042L137.289 120.189ZM137.29 120.189L137.894 117.076C136.84 116.872 135.833 116.622 134.888 116.34L133.98 119.378L133.073 122.416C134.217 122.757 135.427 123.057 136.686 123.301L137.29 120.189ZM133.98 119.378L132.655 116.498C131.637 116.966 130.409 117.397 129.039 117.728L129.785 120.81L130.531 123.891C132.265 123.471 133.885 122.912 135.306 122.258L133.98 119.378ZM129.785 120.81L129.069 117.721L128.584 117.834L129.299 120.922L130.015 124.011L130.5 123.899L129.785 120.81ZM129.299 120.922L128.616 117.827C128.625 117.824 128.633 117.823 128.636 117.822C128.639 117.821 128.641 117.821 128.638 117.822C128.636 117.822 128.629 117.824 128.621 117.825C128.613 117.827 128.601 117.83 128.586 117.833L129.27 120.929L129.954 124.025C129.944 124.027 129.937 124.028 129.934 124.029C129.931 124.03 129.929 124.03 129.932 124.029C129.934 124.029 129.941 124.027 129.949 124.026C129.957 124.024 129.969 124.021 129.983 124.018L129.299 120.922ZM129.27 120.929L128.583 117.833C128.552 117.84 128.527 117.846 128.511 117.85C128.503 117.852 128.496 117.854 128.492 117.855C128.488 117.856 128.484 117.857 128.483 117.857C128.482 117.857 128.483 117.857 128.485 117.857C128.488 117.856 128.492 117.855 128.498 117.853C128.51 117.851 128.531 117.846 128.558 117.84L129.238 120.936L129.918 124.033C129.95 124.026 129.976 124.02 129.993 124.016C130.002 124.014 130.009 124.012 130.014 124.011C130.019 124.009 130.024 124.008 130.025 124.008C130.027 124.007 130.026 124.008 130.024 124.008C130.023 124.009 130.018 124.01 130.013 124.011C130.003 124.013 129.983 124.018 129.957 124.024L129.27 120.929ZM129.238 120.936L128.563 117.839L128.326 117.89L129.001 120.988L129.676 124.086L129.913 124.034L129.238 120.936ZM129.001 120.988L129.389 117.841L129.388 117.841L129 120.988L128.613 124.135L128.614 124.135L129.001 120.988ZM129 120.988L128.354 117.884C128.293 117.897 128.24 117.909 128.196 117.921C128.152 117.932 128.115 117.943 128.087 117.952C128.059 117.96 128.036 117.967 128.023 117.972C128.016 117.974 128.01 117.976 128.006 117.977C128.005 117.978 128.003 117.978 128.002 117.978C128.002 117.978 128.001 117.979 128.001 117.979C128.001 117.979 128.001 117.979 128.001 117.979C128 117.979 128.003 117.978 128.005 117.977C128.009 117.976 128.014 117.974 128.021 117.972C128.034 117.968 128.055 117.961 128.083 117.953C128.11 117.945 128.147 117.934 128.189 117.923C128.232 117.912 128.284 117.899 128.343 117.887L128.993 120.99L129.643 124.093C129.702 124.081 129.755 124.068 129.798 124.056C129.842 124.045 129.879 124.034 129.907 124.026C129.935 124.018 129.957 124.01 129.971 124.006C129.978 124.004 129.983 124.002 129.987 124.001C129.989 124 129.99 124 129.991 123.999C129.991 123.999 129.992 123.999 129.992 123.999C129.992 123.999 129.992 123.999 129.992 123.999C129.993 123.999 129.991 124 129.988 124.001C129.985 124.002 129.979 124.003 129.972 124.006C129.959 124.01 129.937 124.017 129.91 124.025C129.882 124.033 129.846 124.044 129.802 124.055C129.759 124.067 129.707 124.079 129.647 124.092L129 120.988ZM128.993 120.99L128.346 117.886C128.366 117.882 128.383 117.879 128.397 117.876C128.411 117.873 128.423 117.871 128.432 117.87C128.441 117.868 128.448 117.867 128.453 117.866C128.455 117.865 128.457 117.865 128.459 117.865C128.46 117.865 128.461 117.865 128.461 117.865C128.461 117.865 128.461 117.865 128.461 117.865C128.46 117.865 128.46 117.865 128.46 117.865C128.459 117.865 128.457 117.865 128.455 117.865C128.451 117.866 128.444 117.867 128.436 117.869C128.428 117.87 128.417 117.872 128.403 117.874C128.39 117.877 128.374 117.88 128.356 117.883L128.967 120.995L129.577 124.106C129.546 124.112 129.522 124.116 129.511 124.118C129.504 124.119 129.5 124.12 129.498 124.12C129.498 124.12 129.495 124.121 129.499 124.12C129.503 124.119 129.52 124.117 129.541 124.113C129.563 124.109 129.598 124.103 129.64 124.094L128.993 120.99ZM128.967 120.995L128.284 117.898C128.267 117.902 128.254 117.905 128.246 117.907C128.242 117.908 128.239 117.909 128.237 117.909C128.237 117.909 128.236 117.909 128.235 117.909C128.235 117.91 128.235 117.91 128.235 117.91C128.235 117.91 128.242 117.908 128.251 117.906C128.26 117.904 128.276 117.9 128.295 117.896L128.942 121L129.588 124.104C129.612 124.099 129.631 124.095 129.645 124.092C129.658 124.089 129.669 124.086 129.673 124.085C129.674 124.085 129.676 124.085 129.676 124.085C129.677 124.085 129.677 124.085 129.678 124.084C129.678 124.084 129.677 124.085 129.675 124.085C129.672 124.086 129.662 124.088 129.649 124.091L128.967 120.995ZM128.942 121L128.3 117.895C128.337 117.888 128.37 117.882 128.398 117.877C128.426 117.872 128.45 117.868 128.468 117.865C128.486 117.863 128.501 117.861 128.51 117.859C128.514 117.859 128.518 117.858 128.52 117.858C128.522 117.858 128.523 117.858 128.523 117.858C128.523 117.858 128.522 117.858 128.521 117.858C128.521 117.858 128.52 117.858 128.518 117.858C128.516 117.859 128.512 117.859 128.507 117.86C128.497 117.861 128.482 117.863 128.462 117.866C128.443 117.869 128.418 117.873 128.39 117.878C128.361 117.883 128.327 117.889 128.288 117.897L128.935 121.001L129.581 124.105C129.543 124.113 129.51 124.119 129.481 124.124C129.453 124.129 129.429 124.133 129.41 124.136C129.392 124.139 129.377 124.141 129.368 124.142C129.363 124.143 129.359 124.143 129.357 124.144C129.355 124.144 129.353 124.144 129.354 124.144C129.354 124.144 129.354 124.144 129.354 124.144C129.354 124.144 129.354 124.144 129.354 124.144C129.354 124.144 129.354 124.144 129.354 124.144C129.354 124.144 129.354 124.144 129.354 124.144C129.355 124.144 129.356 124.144 129.357 124.144C129.36 124.143 129.363 124.143 129.368 124.142C129.377 124.141 129.393 124.139 129.411 124.136C129.43 124.133 129.455 124.129 129.483 124.124C129.512 124.119 129.545 124.113 129.583 124.105L128.942 121ZM128.935 121.001L126.984 118.502L126.982 118.503L128.933 121.002L130.884 123.501L130.886 123.501L128.935 121.001ZM128.933 121.002L128.29 117.898C128.231 117.91 128.219 117.911 128.088 117.937L128.696 121.049L129.303 124.16C129.33 124.155 129.477 124.128 129.577 124.107L128.933 121.002ZM128.696 121.049L128.084 117.938C128.059 117.943 128.038 117.947 128.024 117.95C128.017 117.951 128.012 117.953 128.008 117.954C128.004 117.954 128 117.955 128 117.955C127.998 117.956 127.999 117.955 128 117.955C128.002 117.955 128.005 117.954 128.01 117.953C128.019 117.951 128.035 117.948 128.056 117.944L128.663 121.056L129.271 124.167C129.297 124.162 129.318 124.158 129.333 124.155C129.346 124.152 129.358 124.149 129.359 124.149C129.361 124.149 129.36 124.149 129.359 124.149C129.358 124.149 129.355 124.15 129.351 124.151C129.342 124.153 129.327 124.156 129.307 124.16L128.696 121.049ZM128.663 121.056L128.057 117.943C128.03 117.949 128.007 117.954 127.992 117.957C127.984 117.958 127.978 117.96 127.973 117.961C127.969 117.962 127.965 117.963 127.964 117.963C127.962 117.963 127.963 117.963 127.964 117.963C127.966 117.962 127.969 117.962 127.974 117.961C127.983 117.959 128 117.955 128.022 117.951L128.634 121.062L129.246 124.173C129.273 124.167 129.295 124.163 129.308 124.16C129.315 124.158 129.321 124.157 129.325 124.156C129.329 124.155 129.332 124.155 129.333 124.154C129.334 124.154 129.333 124.154 129.331 124.155C129.329 124.155 129.325 124.156 129.32 124.157C129.31 124.159 129.292 124.163 129.269 124.168L128.663 121.056ZM128.634 121.062L131.781 121.449L131.781 121.448L128.634 121.061L125.487 120.673L125.487 120.674L128.634 121.062ZM128.634 121.061L128.03 117.948C125.679 118.405 123.626 118.436 122.219 118.206C121.508 118.09 121.107 117.93 120.941 117.838C120.764 117.739 121.104 117.869 121.277 118.42L118.251 119.367L115.225 120.313C115.705 121.85 116.842 122.812 117.851 123.375C118.87 123.944 120.044 124.276 121.197 124.464C123.516 124.843 126.346 124.735 129.238 124.173L128.634 121.061ZM118.251 119.367L120.982 117.756C121.055 117.881 121.11 117.993 121.149 118.081C121.188 118.169 121.217 118.245 121.236 118.3C121.256 118.356 121.271 118.401 121.279 118.429C121.288 118.457 121.294 118.478 121.295 118.482C121.299 118.494 121.294 118.477 121.291 118.468C121.287 118.454 121.279 118.427 121.268 118.393C121.247 118.327 121.205 118.205 121.138 118.056L118.249 119.362L115.36 120.668C115.293 120.521 115.252 120.399 115.231 120.335C115.22 120.301 115.212 120.273 115.208 120.26C115.206 120.251 115.201 120.234 115.205 120.247C115.206 120.252 115.212 120.273 115.221 120.301C115.23 120.329 115.244 120.375 115.264 120.431C115.284 120.486 115.313 120.562 115.352 120.651C115.391 120.739 115.446 120.852 115.519 120.977L118.251 119.367ZM118.249 119.362L121.174 118.139C121.021 117.774 120.776 117.261 120.597 116.285C120.415 115.286 120.293 113.721 120.595 111.449L117.452 111.032L114.309 110.614C113.926 113.499 114.05 115.733 114.36 117.427C114.675 119.145 115.171 120.219 115.324 120.586L118.249 119.362ZM117.452 111.032L120.595 111.449C120.923 108.979 121.919 106.283 123.123 104.178L120.372 102.604L117.62 101.029C116.069 103.739 114.761 107.214 114.309 110.614L117.452 111.032ZM120.372 102.604L123.124 104.178C123.292 103.883 123.532 103.335 123.704 102.905C123.864 102.505 124.176 101.697 124.279 100.962L121.14 100.519L118.001 100.076C118.012 99.9975 118.022 99.9621 118.016 99.9851C118.012 100.002 118.001 100.04 117.981 100.101C117.941 100.225 117.884 100.381 117.816 100.551C117.749 100.718 117.682 100.875 117.629 100.993C117.602 101.052 117.582 101.094 117.571 101.118C117.565 101.13 117.565 101.131 117.568 101.124C117.57 101.12 117.575 101.111 117.582 101.098C117.588 101.086 117.601 101.062 117.62 101.029L120.372 102.604ZM121.14 100.519L124.272 101.012C124.396 100.226 124.396 99.4258 124.271 98.6399L121.14 99.1393L118.009 99.6387C118.028 99.7615 118.029 99.8915 118.008 100.026L121.14 100.519ZM121.14 99.1393L124.263 98.5934C123.99 97.0311 123.114 95.8746 122.535 95.2317C121.962 94.5944 121.236 94.0186 121.404 94.1672L119.307 96.5452L117.21 98.9233C117.281 98.9858 117.353 99.0433 117.356 99.0453C117.385 99.0688 117.393 99.0749 117.416 99.0937C117.451 99.1222 117.49 99.1543 117.534 99.1921C117.623 99.27 117.725 99.366 117.821 99.4726C117.92 99.5823 117.984 99.6726 118.02 99.7341C118.056 99.7963 118.033 99.7786 118.017 99.6853L121.14 99.1393ZM119.307 96.5452L120.98 93.8516C120.959 93.8388 120.932 93.8214 120.898 93.798L119.122 96.4251L117.347 99.0521C117.434 99.1106 117.531 99.174 117.635 99.2389L119.307 96.5452ZM119.122 96.4251L120.901 93.8004C120.383 93.4495 120.016 92.9857 119.809 92.4758L116.871 93.6662L113.932 94.8565C114.625 96.5686 115.819 98.0165 117.344 99.0497L119.122 96.4251ZM116.871 93.6662L119.809 92.4759C119.603 91.9658 119.55 91.3945 119.676 90.8157L116.577 90.143L113.479 89.4702C113.088 91.2733 113.238 93.1444 113.932 94.8565L116.871 93.6662ZM116.577 90.143L119.676 90.8158C119.802 90.2338 120.109 89.6502 120.598 89.15L118.333 86.9321L116.067 84.7142C114.78 86.0287 113.87 87.6704 113.479 89.4701L116.577 90.143ZM118.333 86.9321L120.598 89.1501C121.089 88.6494 121.73 88.2676 122.451 88.0671L121.601 85.0126L120.751 81.958C118.978 82.4514 117.354 83.4001 116.067 84.7141L118.333 86.9321ZM121.601 85.0126L122.448 88.0678C122.394 88.0828 122.351 88.093 122.346 88.0943C122.332 88.0977 122.321 88.1003 122.316 88.1014C122.305 88.1038 122.298 88.1054 122.298 88.1055C122.296 88.1059 122.298 88.1053 122.308 88.1033C122.325 88.0996 122.351 88.0939 122.387 88.0865C122.456 88.0717 122.549 88.0522 122.643 88.0325C122.737 88.0128 122.83 87.9934 122.899 87.9789C122.934 87.9716 122.961 87.966 122.979 87.9624C122.988 87.9605 122.992 87.9599 122.991 87.9601C122.99 87.9602 122.989 87.9605 122.987 87.9609C122.985 87.9613 122.981 87.9621 122.975 87.9631C122.971 87.9639 122.96 87.966 122.946 87.9686C122.939 87.9698 122.927 87.972 122.912 87.9746C122.9 87.9766 122.869 87.9818 122.829 87.9875L122.381 84.8488L121.932 81.7102C121.788 81.7308 121.413 81.8113 121.341 81.8265C121.265 81.8424 120.893 81.9185 120.754 81.9573L121.601 85.0126ZM122.381 84.8488L122.826 87.9879C123.562 87.8834 124.281 87.9787 124.898 88.2345L126.112 85.3056L127.326 82.3767C125.627 81.6722 123.759 81.4509 121.935 81.7098L122.381 84.8488ZM126.112 85.3056L124.898 88.2345C125.513 88.4892 125.994 88.8885 126.316 89.3579L128.931 87.5646L131.545 85.7712C130.502 84.2498 129.029 83.0825 127.327 82.3767L126.112 85.3056ZM128.931 87.5646L126.316 89.3577C126.636 89.8243 126.803 90.3656 126.802 90.9295L129.973 90.934L133.143 90.9386C133.146 89.0902 132.591 87.2954 131.545 85.7714L128.931 87.5646ZM129.973 90.934L126.802 90.9293C126.801 91.4947 126.63 92.0927 126.267 92.6486L128.92 94.384L131.574 96.1193C132.581 94.5786 133.141 92.7857 133.143 90.9388L129.973 90.934ZM128.92 94.384L126.271 92.6415C126.228 92.7069 126.215 92.7258 126.208 92.7357L128.795 94.5693L131.382 96.4028C131.461 96.291 131.53 96.1852 131.569 96.1264L128.92 94.384ZM128.795 94.5693L125.948 93.1739C126.044 92.9784 125.594 93.7869 125.305 94.5945C125.016 95.4044 124.638 96.8078 124.966 98.3532L128.067 97.6962L131.169 97.0391C131.189 97.1314 131.174 97.152 131.185 97.0718C131.196 96.9934 131.224 96.8771 131.276 96.7304C131.327 96.5878 131.388 96.4534 131.443 96.3421C131.47 96.2881 131.495 96.2415 131.518 96.2002C131.532 96.173 131.537 96.1641 131.555 96.1309C131.557 96.1273 131.601 96.0479 131.642 95.9646L128.795 94.5693ZM128.067 97.6962L124.976 98.3996C125.153 99.1767 125.452 99.9195 125.862 100.602L128.58 98.9685L131.297 97.3349C131.232 97.2268 131.186 97.1116 131.159 96.9927L128.067 97.6962ZM128.58 98.9685L125.836 100.558C126.281 101.326 127.084 102.122 127.392 102.426L129.616 100.166L131.84 97.9058C131.687 97.7556 131.529 97.5929 131.402 97.4501C131.339 97.3793 131.297 97.3288 131.274 97.299C131.244 97.2601 131.272 97.2914 131.323 97.3794L128.58 98.9685ZM129.616 100.166L132.21 101.989C133.8 99.727 135.825 97.6398 137.811 96.0763L135.849 93.5854L133.887 91.0946C131.441 93.0215 128.982 95.5533 127.022 98.3426L129.616 100.166ZM135.849 93.5854L137.813 96.0748C138.106 95.8432 138.627 95.3354 139.045 94.8971C139.438 94.4842 140.137 93.7262 140.556 92.9895L137.799 91.4238L135.042 89.8581C135.081 89.789 135.064 89.832 134.916 90.0095C134.79 90.1607 134.63 90.3384 134.455 90.5217C134.283 90.7023 134.115 90.8691 133.984 90.9951C133.919 91.0581 133.868 91.1054 133.836 91.1352C133.782 91.1839 133.813 91.1535 133.885 91.0961L135.849 93.5854ZM137.799 91.4238L140.53 93.0348C141.011 92.2195 141.358 91.3344 141.557 90.4094L138.458 89.7417L135.358 89.0741C135.303 89.329 135.207 89.5778 135.068 89.8128L137.799 91.4238ZM138.458 89.7417L141.567 90.3626C141.924 88.5749 141.457 86.9367 141.077 85.9481C140.699 84.964 140.14 84.0258 140.233 84.2036L137.421 85.6695L134.61 87.1354C134.807 87.5124 134.951 87.683 135.158 88.2215C135.363 88.7555 135.362 89.0538 135.348 89.1209L138.458 89.7417ZM137.421 85.6695L139.952 83.76C139.917 83.7124 139.883 83.6656 139.851 83.62L137.249 85.4318L134.647 87.2435C134.727 87.3578 134.808 87.4697 134.89 87.5789L137.421 85.6695ZM137.249 85.4318L139.853 83.6235C139.257 82.7654 138.957 81.8179 138.941 80.8946L135.771 80.9509L132.601 81.0071C132.641 83.2396 133.365 85.3977 134.645 87.24L137.249 85.4318ZM135.771 80.9509L138.941 80.8946C138.925 79.9736 139.19 79.0701 139.722 78.2783L137.091 76.5095L134.459 74.7407C133.211 76.5972 132.561 78.7722 132.601 81.0071L135.771 80.9509ZM137.091 76.5095L139.722 78.2784C140.256 77.4836 141.056 76.8108 142.065 76.373L140.804 73.4641L139.543 70.5552C137.48 71.4498 135.705 72.8874 134.459 74.7407L137.091 76.5095ZM140.804 73.4641L142.065 76.3731C143.077 75.9344 144.242 75.7588 145.421 75.893L145.779 72.7428L146.138 69.5926C143.889 69.3366 141.604 69.6615 139.543 70.5552L140.804 73.4641ZM145.779 72.7428L145.371 75.8869C145.336 75.8823 145.309 75.8782 145.302 75.8772C145.291 75.8755 145.283 75.8742 145.279 75.8736C145.275 75.8729 145.272 75.8724 145.27 75.8721C145.27 75.872 145.269 75.8719 145.269 75.8718C145.269 75.8718 145.268 75.8718 145.268 75.8718C145.268 75.8717 145.268 75.8717 145.268 75.8717C145.268 75.8717 145.268 75.8717 145.268 75.8718C145.268 75.8718 145.268 75.8718 145.269 75.8718C145.269 75.8719 145.269 75.8719 145.27 75.872C145.271 75.8722 145.272 75.8725 145.274 75.8728C145.278 75.8735 145.283 75.8743 145.289 75.8754C145.315 75.8799 145.353 75.8865 145.401 75.895C145.496 75.9119 145.621 75.9343 145.746 75.9569C145.872 75.9795 145.996 76.002 146.09 76.019C146.137 76.0276 146.174 76.0344 146.199 76.039C146.205 76.0401 146.21 76.041 146.214 76.0417C146.216 76.042 146.217 76.0423 146.218 76.0425C146.219 76.0427 146.22 76.0428 146.22 76.0428C146.22 76.0428 146.22 76.0427 146.219 76.0427C146.219 76.0426 146.218 76.0425 146.217 76.0423C146.216 76.042 146.212 76.0414 146.207 76.0404C146.204 76.0396 146.193 76.0376 146.18 76.0349C146.18 76.0348 146.13 76.0248 146.069 76.0097L146.825 72.9306L147.58 69.8514C147.441 69.8171 147.008 69.741 146.869 69.7159C146.699 69.6853 146.308 69.6143 146.188 69.5986L145.779 72.7428Z" fill="url(#paint1_linear_120_1899)" mask="url(#path-3-outside-1_120_1899)"/>
</g>
<path d="M152.987 106.955C152.405 103.125 150.801 99.1206 148.91 96.0113C148.776 95.7911 147.968 94.1078 147.839 93.3052C147.733 92.705 147.724 92.0966 147.811 91.4995C148.113 89.6322 150.041 88.196 150.208 88.0458C150.291 87.993 150.372 87.9389 150.453 87.8834C151.805 86.9448 152.829 85.6671 153.408 84.197C153.986 82.7268 154.095 81.1237 153.723 79.5714C153.351 78.0191 152.512 76.5805 151.303 75.4206C150.094 74.2607 148.563 73.4264 146.887 73.0134C146.865 73.008 145.869 72.8294 145.841 72.8261C144.127 72.631 142.403 72.8809 140.866 73.547C139.33 74.2132 138.043 75.2688 137.153 76.5929C136.262 77.917 135.805 79.4562 135.833 81.0342C135.861 82.6121 136.373 84.1651 137.311 85.5154C137.367 85.5953 137.424 85.6745 137.483 85.7529C137.587 85.9518 138.89 87.9702 138.52 89.8253C138.393 90.4152 138.171 90.9819 137.861 91.5071C137.459 92.2141 136.113 93.5094 135.911 93.669C133.05 95.922 130.145 99.1136 128.259 102.499C124.944 108.447 125.237 112.008 125.268 113.052C125.268 113.055 125.268 113.057 125.268 113.058C125.092 115.768 130.355 118.915 137.352 120.272L137.351 120.272C137.365 120.275 137.378 120.277 137.391 120.28C137.405 120.283 137.42 120.285 137.435 120.288C137.54 120.309 137.646 120.329 137.752 120.348L137.752 120.348L137.754 120.349C137.757 120.349 137.76 120.35 137.763 120.35C137.775 120.352 137.786 120.354 137.798 120.356C137.809 120.358 137.82 120.361 137.832 120.363C137.835 120.363 137.838 120.364 137.841 120.364L137.843 120.365L137.843 120.365C137.95 120.384 138.056 120.402 138.161 120.419C138.176 120.422 138.191 120.424 138.206 120.427C138.219 120.429 138.232 120.431 138.245 120.433L138.245 120.433C145.275 121.603 151.308 120.492 152.092 117.892C152.093 117.89 152.093 117.888 152.094 117.886C152.488 116.918 154.01 113.685 152.987 106.955Z" fill="url(#paint2_linear_120_1899)"/>
<path d="M151.457 106.294C151.001 102.581 149.639 98.7143 148.008 95.722C147.892 95.5101 147.201 93.8868 147.1 93.1088C147.015 92.524 147.016 91.9339 147.103 91.3544C147.4 89.5349 149.135 88.1091 149.285 87.9605C149.36 87.9079 149.433 87.854 149.505 87.7988C151.062 86.6045 152.197 84.847 152.574 82.7613C153.316 78.6533 150.891 74.9297 147.013 73.7348C146.731 73.6495 146.444 73.5779 146.154 73.5203C145.884 73.4728 145.447 73.4317 145.293 73.4224C141.234 73.1782 137.33 75.7658 136.587 79.8805C136.21 81.9662 136.832 84.0404 137.872 85.7026C137.92 85.7795 137.97 85.8555 138.021 85.9308C138.11 86.1225 139.236 88.0637 138.878 89.8723C138.757 90.4456 138.551 90.9989 138.267 91.5171C137.899 92.2105 136.683 93.4903 136.501 93.6486C133.925 95.8828 131.295 99.03 129.567 102.35C126.531 108.182 126.736 111.638 126.746 112.652C126.746 112.655 126.746 112.657 126.746 112.658C126.547 115.295 131.172 118.27 137.364 119.48L137.364 119.481C137.375 119.483 137.387 119.485 137.398 119.487C137.411 119.49 137.424 119.492 137.437 119.495C137.531 119.513 137.624 119.531 137.718 119.548L137.718 119.548L137.72 119.548C137.723 119.549 137.725 119.549 137.728 119.55C137.738 119.552 137.748 119.553 137.759 119.555C137.769 119.557 137.779 119.559 137.789 119.561C137.792 119.561 137.795 119.562 137.797 119.562L137.799 119.563L137.799 119.563C137.893 119.579 137.987 119.595 138.081 119.611C138.094 119.613 138.107 119.615 138.12 119.617C138.131 119.619 138.143 119.621 138.155 119.623L138.155 119.623C144.379 120.65 149.754 119.477 150.491 116.937C150.492 116.935 150.492 116.933 150.493 116.931C150.858 115.985 152.26 112.818 151.457 106.294Z" fill="url(#paint3_linear_120_1899)"/>
<g style="mix-blend-mode:overlay">
<path d="M151.558 106.278C151.101 102.565 149.739 98.6981 148.108 95.7059C147.993 95.4939 147.302 93.8706 147.2 93.0926C147.115 92.5078 147.116 91.9177 147.203 91.3382C147.501 89.5188 149.236 88.0929 149.386 87.9444C149.46 87.8917 149.534 87.8378 149.606 87.7827C151.162 86.5883 152.298 84.8309 152.675 82.7452C153.447 78.4746 150.758 74.3844 146.613 73.3723L146.615 73.3622C146.517 73.341 146.42 73.3212 146.321 73.3033C146.287 73.2973 146.254 73.2922 146.22 73.2866C146.187 73.2802 146.154 73.2733 146.12 73.2673C146.021 73.2494 145.923 73.2338 145.824 73.2197L145.822 73.2298C141.585 72.7315 137.633 75.6252 136.861 79.8957C136.484 81.9815 136.933 84.0242 137.973 85.6865C138.021 85.7633 138.071 85.8394 138.122 85.9146C138.211 86.1063 139.337 88.0476 138.979 89.8562C138.857 90.4295 138.652 90.9827 138.367 91.5009C138 92.1944 136.784 93.4742 136.602 93.6325C134.026 95.8667 131.396 99.0138 129.668 102.334C126.632 108.166 126.836 111.622 126.847 112.636C126.847 112.638 126.847 112.641 126.847 112.642C126.648 115.279 131.273 118.254 137.464 119.464L137.464 119.464C137.476 119.467 137.488 119.469 137.499 119.471C137.512 119.474 137.525 119.476 137.538 119.479C137.631 119.497 137.725 119.515 137.819 119.532L137.819 119.532L137.82 119.532C137.823 119.533 137.826 119.533 137.829 119.534C137.839 119.536 137.849 119.537 137.859 119.539C137.869 119.541 137.879 119.543 137.889 119.545C137.892 119.545 137.895 119.546 137.898 119.546L137.899 119.546L137.9 119.546C137.994 119.563 138.088 119.579 138.181 119.595C138.194 119.597 138.207 119.599 138.22 119.601C138.232 119.603 138.244 119.605 138.255 119.607L138.255 119.607C144.48 120.634 149.855 119.46 150.592 116.921C150.592 116.919 150.593 116.917 150.594 116.915C150.959 115.968 152.361 112.802 151.558 106.278Z" fill="url(#paint4_radial_120_1899)"/>
</g>
<path d="M151.559 106.274C151.102 102.561 149.74 98.6941 148.109 95.7019C147.993 95.4899 147.303 93.8666 147.201 93.0886C147.116 92.5038 147.117 91.9137 147.204 91.3342C147.502 89.5148 149.236 88.0889 149.387 87.9404C149.461 87.8877 149.534 87.8338 149.606 87.7787C151.163 86.5843 152.298 84.8269 152.675 82.7412C153.44 78.5076 150.805 74.4512 146.721 73.3953C146.685 73.3861 145.777 73.2205 145.754 73.218C141.543 72.7588 137.63 75.6443 136.862 79.8917C136.485 81.9775 136.933 84.0202 137.973 85.6825C138.022 85.7593 138.071 85.8354 138.123 85.9106C138.212 86.1023 139.337 88.0436 138.979 89.8522C138.858 90.4255 138.652 90.9787 138.368 91.4969C138 92.1904 136.785 93.4702 136.602 93.6285C134.026 95.8627 131.397 99.0098 129.669 102.33C126.632 108.162 126.837 111.618 126.848 112.632C126.848 112.634 126.847 112.637 126.848 112.638C126.649 115.275 131.273 118.25 137.465 119.46L137.465 119.46C137.477 119.463 137.488 119.465 137.5 119.467C137.513 119.47 137.526 119.472 137.539 119.475C137.632 119.493 137.725 119.511 137.819 119.528L137.82 119.528L137.821 119.528C137.824 119.529 137.827 119.529 137.83 119.53C137.84 119.532 137.85 119.533 137.86 119.535C137.87 119.537 137.88 119.539 137.89 119.541C137.893 119.541 137.896 119.542 137.899 119.542L137.9 119.542L137.9 119.542C137.994 119.559 138.088 119.575 138.182 119.591C138.195 119.593 138.208 119.595 138.221 119.597C138.233 119.599 138.244 119.601 138.256 119.603L138.256 119.603C144.481 120.63 149.856 119.456 150.592 116.917C150.593 116.915 150.593 116.913 150.594 116.911C150.96 115.964 152.361 112.798 151.559 106.274Z" fill="url(#paint5_radial_120_1899)"/>
<path d="M149.487 115.965C149.487 115.966 149.486 115.968 149.485 115.97C148.819 118.248 143.887 119.282 138.166 118.335L138.166 118.336L138.134 118.33C138.122 118.328 138.11 118.326 138.098 118.324C138.012 118.31 137.926 118.295 137.839 118.28L137.765 118.266C137.678 118.251 137.592 118.234 137.507 118.217C137.495 118.215 137.483 118.213 137.471 118.21L137.439 118.205L137.439 118.204C131.748 117.094 127.489 114.404 127.662 112.037C127.662 112.036 127.662 112.034 127.662 112.032C127.659 111.772 127.639 111.333 127.678 110.717C130.531 113.607 133.91 115.235 137.349 115.025C142.885 114.687 147.93 109.582 149.481 102.504C149.871 103.789 150.156 105.097 150.332 106.416C151.094 112.278 149.819 115.116 149.487 115.965Z" fill="url(#paint6_linear_120_1899)"/>
<g style="mix-blend-mode:overlay">
<path d="M137.823 80.3001C137.986 79.3961 138.343 78.5362 138.874 77.7694C139.404 77.0026 140.098 76.3439 140.915 75.8311C141.732 75.3182 142.656 74.9612 143.635 74.7803C144.613 74.5995 145.628 74.5984 146.619 74.7771" stroke="#FFF8B1" stroke-width="1.52118" stroke-linecap="round" stroke-linejoin="round"/>
</g>
<path d="M128.273 110.662C129.584 103.409 133.36 97.5314 137.243 94.7812" stroke="#FAEE88" stroke-width="1.16325" stroke-linecap="round" stroke-linejoin="round"/>
<path d="M149.127 88.3398C149.201 88.2871 149.275 88.2332 149.347 88.1781C150.903 86.9837 152.039 85.2263 152.416 83.1406C153.158 79.0326 150.733 75.309 146.855 74.1141C146.572 74.0288 146.285 73.9572 145.995 73.8996C145.725 73.8521 145.288 73.811 145.135 73.8017C141.076 73.5575 137.172 76.1451 136.428 80.2598C136.051 82.3455 136.674 84.4196 137.714 86.0819C137.762 86.1587 137.812 86.2348 137.863 86.31C137.945 86.4877 138.918 88.1681 138.775 89.8529C138.926 89.8847 139.078 89.9152 139.231 89.9429C142.263 90.4891 145.908 89.814 149.02 88.4374C149.073 88.3899 149.11 88.3564 149.127 88.3398Z" fill="url(#paint7_linear_120_1899)"/>
<path d="M141.773 81.1537C142.405 81.2676 143.063 80.5607 143.241 79.5747C143.419 78.5887 143.051 77.697 142.418 77.5831C141.786 77.4691 141.129 78.176 140.95 79.162C140.772 80.148 141.14 81.0397 141.773 81.1537Z" fill="#F7EA69"/>
<path d="M141.81 80.9471C142.443 81.0611 143.1 80.3542 143.278 79.3682C143.456 78.3822 143.088 77.4905 142.456 77.3765C141.823 77.2626 141.166 77.9695 140.988 78.9555C140.809 79.9415 141.178 80.8332 141.81 80.9471Z" fill="#F28422"/>
<path d="M142.456 77.3765C141.823 77.2626 141.166 77.9695 140.988 78.9555C140.977 79.0137 140.969 79.0717 140.962 79.1291C141.181 78.2342 141.798 77.6147 142.393 77.7219C142.988 77.8292 143.349 78.6249 143.241 79.5399C143.255 79.4837 143.268 79.4265 143.278 79.3682C143.456 78.3822 143.088 77.4905 142.456 77.3765Z" fill="#C45C00"/>
<path d="M148.056 82.2858C148.688 82.3997 149.346 81.6928 149.524 80.7068C149.702 79.7208 149.334 78.8291 148.701 78.7151C148.069 78.6012 147.412 79.3081 147.233 80.2941C147.055 81.2801 147.423 82.1718 148.056 82.2858Z" fill="#F7EA69"/>
<path d="M148.093 82.0792C148.726 82.1932 149.383 81.4863 149.561 80.5003C149.739 79.5143 149.371 78.6226 148.739 78.5086C148.106 78.3946 147.449 79.1016 147.271 80.0875C147.093 81.0735 147.461 81.9652 148.093 82.0792Z" fill="#F28422"/>
<path d="M148.739 78.5086C148.106 78.3946 147.449 79.1015 147.271 80.0875C147.26 80.1458 147.252 80.2037 147.245 80.2612C147.464 79.3663 148.081 78.7468 148.676 78.854C149.271 78.9612 149.632 79.757 149.525 80.672C149.538 80.6158 149.551 80.5585 149.561 80.5003C149.739 79.5143 149.371 78.6226 148.739 78.5086Z" fill="#C45C00"/>
<path d="M147.02 84.5693C146.262 85.0457 145.318 85.2201 144.397 85.0541C143.475 84.888 142.652 84.3953 142.108 83.6841" stroke="#F7EA6B" stroke-width="1.96858" stroke-linecap="round" stroke-linejoin="round"/>
<path d="M147.052 84.4426C146.294 84.919 145.35 85.0934 144.428 84.9273C143.507 84.7613 142.684 84.2685 142.14 83.5574" stroke="#F28422" stroke-width="1.96858" stroke-linecap="round" stroke-linejoin="round"/>
<path d="M141.872 83.3842C141.962 83.3275 142.075 83.3067 142.185 83.3265C142.294 83.3463 142.392 83.405 142.457 83.4897C142.695 83.7999 142.995 84.0661 143.341 84.2732C143.687 84.4802 144.071 84.6241 144.473 84.6965C144.875 84.7689 145.286 84.7684 145.682 84.6952C146.079 84.6219 146.453 84.4772 146.784 84.2694C146.829 84.2413 146.88 84.2218 146.933 84.2119C146.987 84.2019 147.043 84.2019 147.097 84.2117C147.151 84.2215 147.203 84.2409 147.25 84.2689C147.297 84.2969 147.338 84.333 147.37 84.3749C147.419 84.4392 147.448 84.5841 147.448 84.5842L147.448 84.5844C147.48 84.5082 147.485 84.4235 147.461 84.343C147.437 84.2625 147.385 84.1905 147.314 84.1377C147.242 84.0848 147.155 84.054 147.065 84.0499C146.974 84.0457 146.886 84.0684 146.812 84.1145C146.482 84.3223 146.107 84.4669 145.71 84.5402C145.314 84.6135 144.903 84.6139 144.501 84.5415C144.099 84.4691 143.715 84.3253 143.369 84.1182C143.023 83.9112 142.723 83.6449 142.485 83.3348C142.433 83.2659 142.358 83.2138 142.272 83.1862C142.185 83.1585 142.093 83.1569 142.007 83.1815C141.922 83.206 141.848 83.2555 141.798 83.3225C141.747 83.3895 141.722 83.4705 141.726 83.5533C141.755 83.4845 141.806 83.4258 141.872 83.3842V83.3842Z" fill="#C45C00"/>
<path opacity="0.4" d="M152.958 105.592C149.119 108.836 144.276 110.41 139.39 109.529C134.892 108.719 131.158 105.974 128.673 102.128C128.605 102.245 128.539 102.362 128.473 102.479C125.159 108.427 125.452 111.987 125.483 113.032C125.483 113.034 125.482 113.036 125.483 113.038C125.306 115.748 130.57 118.894 137.566 120.252L137.566 120.252C137.579 120.254 137.592 120.257 137.605 120.259C137.62 120.262 137.635 120.265 137.649 120.268C137.755 120.288 137.86 120.308 137.966 120.328L137.967 120.328L137.968 120.328C137.972 120.329 137.975 120.329 137.978 120.33C137.99 120.332 138.001 120.334 138.012 120.336C138.024 120.338 138.035 120.34 138.046 120.342C138.05 120.343 138.053 120.343 138.056 120.344L138.058 120.344L138.058 120.344C138.164 120.363 138.27 120.381 138.376 120.399C138.391 120.401 138.406 120.404 138.42 120.406C138.433 120.408 138.447 120.411 138.46 120.413L138.46 120.413C145.49 121.583 151.523 120.472 152.307 117.871C152.307 117.87 152.308 117.868 152.309 117.866C152.703 116.898 154.224 113.664 153.202 106.935C153.134 106.489 153.053 106.041 152.958 105.592Z" fill="url(#paint8_linear_120_1899)"/>
<path d="M135.884 107.715C134.463 105.027 132.25 102.486 130.059 100.688C129.904 100.56 128.877 99.5282 128.574 98.9666C128.34 98.5495 128.175 98.0999 128.084 97.6324C127.819 96.1627 128.853 94.5727 128.936 94.4159C128.983 94.3542 129.028 94.2919 129.072 94.2289C129.816 93.1647 130.232 91.9375 130.272 90.6881C130.312 89.4387 129.975 88.2176 129.299 87.1649C128.624 86.1122 127.637 85.2704 126.452 84.7363C125.267 84.2021 123.932 83.997 122.601 84.1446C122.583 84.1466 121.81 84.2836 121.788 84.2889C120.486 84.6087 119.292 85.2618 118.343 86.1734C117.394 87.0851 116.728 88.2185 116.423 89.4439C116.117 90.6693 116.183 91.9371 116.614 93.1022C117.045 94.2673 117.823 95.2826 118.859 96.0319C118.92 96.0762 118.983 96.1195 119.046 96.1617C119.174 96.2814 120.651 97.4281 120.863 98.9072C120.923 99.38 120.908 99.8614 120.819 100.336C120.709 100.97 120.063 102.298 119.957 102.471C118.454 104.921 117.162 108.081 116.665 111.108C115.792 116.427 116.932 118.994 117.226 119.762C117.226 119.763 117.227 119.765 117.227 119.766C117.803 121.828 122.466 122.739 127.928 121.851L127.928 121.851C127.938 121.85 127.949 121.848 127.959 121.846C127.97 121.844 127.982 121.843 127.993 121.841C128.075 121.827 128.158 121.814 128.24 121.799L128.241 121.799L128.242 121.799C128.244 121.799 128.247 121.798 128.249 121.798C128.258 121.796 128.267 121.794 128.276 121.793C128.285 121.791 128.294 121.79 128.302 121.788C128.305 121.788 128.308 121.787 128.31 121.787L128.311 121.787L128.312 121.787C128.394 121.772 128.476 121.757 128.558 121.741C128.569 121.739 128.581 121.737 128.592 121.735C128.602 121.733 128.613 121.731 128.623 121.729L128.623 121.729C134.061 120.692 138.178 118.231 138.074 116.086C138.075 116.085 138.074 116.083 138.075 116.081C138.111 115.255 138.381 112.44 135.884 107.715Z" fill="url(#paint9_linear_120_1899)"/>
<path d="M134.595 107.638C133.295 105.002 131.295 102.498 129.326 100.716C129.186 100.59 128.259 99.5711 127.983 99.0204C127.769 98.6089 127.616 98.1701 127.529 97.7158C127.273 96.2829 128.169 94.753 128.24 94.6018C128.281 94.5426 128.32 94.4826 128.359 94.4221C129.185 93.1125 129.557 91.4986 129.29 89.8463C128.763 86.592 126.024 84.4824 122.881 84.6456C122.652 84.6589 122.424 84.6834 122.197 84.7192C121.988 84.7572 121.658 84.845 121.543 84.8799C118.515 85.7988 116.337 88.7802 116.864 92.0397C117.132 93.692 118.126 95.0647 119.317 96.0181C119.373 96.0621 119.429 96.1052 119.486 96.1472C119.601 96.2656 120.928 97.403 121.137 98.8442C121.197 99.3032 121.191 99.7701 121.118 100.232C121.03 100.847 120.475 102.128 120.383 102.295C119.083 104.654 117.981 107.706 117.582 110.641C116.881 115.799 117.93 118.312 118.201 119.063C118.202 119.064 118.202 119.066 118.203 119.067C118.743 121.081 122.895 122.038 127.731 121.259L127.731 121.259C127.74 121.257 127.749 121.256 127.758 121.254C127.769 121.253 127.779 121.251 127.789 121.249C127.862 121.238 127.935 121.226 128.008 121.213L128.008 121.213L128.009 121.213C128.011 121.212 128.013 121.212 128.016 121.212C128.024 121.21 128.031 121.209 128.039 121.207C128.047 121.206 128.055 121.205 128.063 121.203C128.065 121.203 128.067 121.202 128.069 121.202L128.07 121.202L128.071 121.202C128.144 121.189 128.216 121.175 128.289 121.161C128.299 121.159 128.309 121.157 128.319 121.155C128.328 121.154 128.337 121.152 128.346 121.15L128.346 121.15C133.159 120.226 136.779 117.897 136.657 115.81C136.657 115.808 136.657 115.807 136.657 115.805C136.678 115.002 136.878 112.269 134.595 107.638Z" fill="url(#paint10_linear_120_1899)"/>
<g style="mix-blend-mode:overlay">
<path d="M134.664 107.6C133.364 104.964 131.364 102.46 129.395 100.678C129.255 100.552 128.328 99.5326 128.052 98.982C127.838 98.5704 127.685 98.1316 127.598 97.6773C127.342 96.2444 128.238 94.7146 128.309 94.5633C128.35 94.5041 128.389 94.4442 128.428 94.3836C129.254 93.074 129.626 91.4602 129.359 89.8079C128.812 86.4248 125.784 84.1141 122.494 84.4856L122.493 84.4776C122.416 84.4882 122.339 84.5 122.262 84.5136C122.236 84.5182 122.211 84.5234 122.185 84.5283C122.159 84.5326 122.133 84.5365 122.107 84.5411C122.03 84.5547 121.954 84.5698 121.878 84.5861L121.879 84.5941C118.655 85.3726 116.522 88.5944 117.069 91.9774C117.336 93.6297 118.195 95.0263 119.386 95.9797C119.442 96.0237 119.498 96.0667 119.555 96.1088C119.67 96.2271 120.997 97.3646 121.206 98.8057C121.266 99.2647 121.26 99.7316 121.187 100.194C121.099 100.809 120.544 102.09 120.452 102.257C119.152 104.615 118.05 107.667 117.651 110.603C116.95 115.761 117.999 118.273 118.27 119.024C118.271 119.026 118.271 119.028 118.272 119.029C118.812 121.042 122.964 122 127.8 121.22L127.8 121.22C127.809 121.219 127.818 121.217 127.827 121.216C127.838 121.214 127.848 121.213 127.858 121.211C127.931 121.199 128.004 121.187 128.077 121.174L128.077 121.174L128.078 121.174C128.08 121.174 128.082 121.173 128.085 121.173C128.093 121.172 128.1 121.17 128.108 121.169C128.116 121.167 128.124 121.166 128.132 121.165C128.134 121.164 128.136 121.164 128.138 121.164L128.139 121.163L128.14 121.163C128.213 121.15 128.285 121.137 128.358 121.123C128.368 121.121 128.378 121.119 128.388 121.117C128.397 121.115 128.406 121.114 128.415 121.112L128.415 121.112C133.228 120.188 136.848 117.858 136.726 115.771C136.726 115.77 136.726 115.768 136.726 115.766C136.747 114.964 136.947 112.231 134.664 107.6Z" fill="url(#paint11_radial_120_1899)"/>
</g>
<path d="M134.663 107.596C133.364 104.96 131.364 102.456 129.394 100.674C129.255 100.548 128.328 99.529 128.052 98.9784C127.837 98.5669 127.685 98.128 127.597 97.6738C127.342 96.2408 128.238 94.711 128.309 94.5598C128.349 94.5005 128.389 94.4406 128.427 94.3801C129.253 93.0704 129.625 91.4566 129.358 89.8043C128.816 86.4505 125.836 84.1505 122.579 84.4729C122.551 84.4758 121.844 84.599 121.827 84.6034C118.632 85.4039 116.524 88.6091 117.068 91.9738C117.336 93.6261 118.194 95.0227 119.386 95.9761C119.441 96.0201 119.497 96.0631 119.554 96.1052C119.669 96.2235 120.996 97.361 121.205 98.8022C121.266 99.2611 121.259 99.7281 121.186 100.19C121.098 100.805 120.543 102.086 120.451 102.253C119.151 104.612 118.049 107.664 117.651 110.599C116.95 115.757 117.998 118.27 118.27 119.021C118.271 119.022 118.271 119.024 118.271 119.025C118.812 121.039 122.963 121.996 127.8 121.217L127.8 121.217C127.809 121.215 127.818 121.214 127.827 121.212C127.837 121.211 127.847 121.209 127.857 121.207C127.93 121.196 128.003 121.184 128.076 121.171L128.077 121.171L128.078 121.171C128.08 121.17 128.082 121.17 128.084 121.17C128.092 121.168 128.1 121.167 128.108 121.165C128.116 121.164 128.123 121.163 128.131 121.161C128.134 121.161 128.136 121.16 128.138 121.16L128.139 121.16L128.139 121.16C128.212 121.147 128.285 121.133 128.358 121.119C128.368 121.117 128.378 121.115 128.388 121.113C128.397 121.112 128.406 121.11 128.415 121.108L128.415 121.108C133.228 120.184 136.848 117.855 136.726 115.768C136.726 115.766 136.726 115.765 136.726 115.763C136.746 114.96 136.946 112.227 134.663 107.596Z" fill="url(#paint12_radial_120_1899)"/>
<g style="mix-blend-mode:overlay">
<path d="M117.876 92.017C117.76 91.3009 117.798 90.565 117.986 89.8513C118.174 89.1376 118.509 88.4601 118.972 87.8575C119.435 87.2549 120.017 86.739 120.685 86.3392C121.353 85.9394 122.093 85.6636 122.864 85.5276" stroke="#FFF8B1" stroke-width="1.66591" stroke-linecap="round" stroke-linejoin="round"/>
</g>
<path d="M118.798 117.171C117.87 111.426 119.098 106.034 121.219 102.937" stroke="#FAEE88" stroke-width="1.27393" stroke-linecap="round" stroke-linejoin="round"/>
<path d="M128.223 94.9277C128.264 94.8685 128.303 94.8086 128.341 94.748C129.167 93.4384 129.539 91.8245 129.272 90.1723C128.746 86.918 126.006 84.8083 122.864 84.9715C122.635 84.9848 122.407 85.0094 122.18 85.0452C121.97 85.0831 121.641 85.171 121.526 85.2058C118.498 86.1248 116.32 89.1061 116.847 92.3657C117.114 94.0179 118.108 95.3907 119.3 96.344C119.355 96.3881 119.412 96.4311 119.469 96.4731C119.575 96.5828 120.722 97.5681 121.056 98.8589C121.175 98.8416 121.294 98.823 121.413 98.8019C123.769 98.386 126.255 96.8962 128.17 95.0293C128.196 94.9798 128.215 94.9447 128.223 94.9277Z" fill="url(#paint13_linear_120_1899)"/>
<path d="M120.983 91.5811C121.474 91.4944 121.771 90.7908 121.644 90.0097C121.518 89.2286 121.017 88.6658 120.526 88.7525C120.034 88.8393 119.738 89.5429 119.864 90.324C119.99 91.105 120.491 91.6679 120.983 91.5811Z" fill="#F7EA69"/>
<path d="M120.956 91.4173C121.448 91.3305 121.744 90.627 121.618 89.8459C121.492 89.0648 120.991 88.502 120.499 88.5887C120.008 88.6755 119.711 89.379 119.838 90.1601C119.964 90.9412 120.465 91.5041 120.956 91.4173Z" fill="#F28422"/>
<path d="M120.499 88.5887C120.008 88.6755 119.711 89.379 119.838 90.1601C119.845 90.2063 119.854 90.2516 119.864 90.2962C119.791 89.5717 120.081 88.944 120.543 88.8623C121.006 88.7807 121.476 89.2742 121.636 89.9834C121.631 89.9379 121.625 89.8921 121.618 89.8459C121.492 89.0648 120.991 88.502 120.499 88.5887Z" fill="#C45C00"/>
<path d="M125.866 90.7181C126.358 90.6313 126.654 89.9278 126.528 89.1467C126.401 88.3656 125.9 87.8027 125.409 87.8895C124.917 87.9763 124.621 88.6798 124.747 89.4609C124.874 90.242 125.375 90.8049 125.866 90.7181Z" fill="#F7EA69"/>
<path d="M125.84 90.5555C126.331 90.4687 126.627 89.7652 126.501 88.9841C126.375 88.203 125.874 87.6401 125.382 87.7269C124.891 87.8137 124.595 88.5172 124.721 89.2983C124.847 90.0794 125.348 90.6423 125.84 90.5555Z" fill="#F28422"/>
<path d="M125.382 87.7269C124.891 87.8137 124.595 88.5172 124.721 89.2983C124.728 89.3445 124.737 89.3898 124.747 89.4344C124.675 88.7099 124.964 88.0822 125.427 88.0005C125.889 87.9189 126.36 88.4124 126.519 89.1216C126.514 89.0761 126.509 89.0303 126.501 88.9841C126.375 88.203 125.874 87.6401 125.382 87.7269Z" fill="#C45C00"/>
<path d="M125.728 92.6417C125.311 93.3408 124.668 93.8058 123.94 93.9343C123.212 94.0628 122.458 93.8444 121.845 93.3271" stroke="#F7EA6B" stroke-width="1.80703" stroke-linecap="round" stroke-linejoin="round"/>
<path d="M125.714 92.5099C125.297 93.209 124.654 93.6739 123.926 93.8025C123.198 93.931 122.444 93.7126 121.831 93.1953" stroke="#F28422" stroke-width="1.80703" stroke-linecap="round" stroke-linejoin="round"/>
<path d="M121.582 93.1115C121.632 93.0282 121.708 92.9728 121.795 92.9575C121.882 92.9422 121.971 92.9682 122.045 93.0298C122.312 93.2555 122.613 93.4188 122.929 93.5106C123.246 93.6023 123.572 93.6207 123.89 93.5646C124.207 93.5086 124.51 93.3792 124.78 93.1838C125.05 92.9885 125.283 92.731 125.465 92.4261C125.489 92.3848 125.521 92.35 125.557 92.3236C125.594 92.2971 125.635 92.2796 125.678 92.272C125.721 92.2645 125.765 92.267 125.808 92.2794C125.851 92.2918 125.891 92.3139 125.927 92.3444C125.983 92.3912 126.047 92.5223 126.047 92.5225L126.047 92.5226C126.049 92.4386 126.027 92.3552 125.985 92.2849C125.943 92.2146 125.884 92.1611 125.815 92.1324C125.747 92.1037 125.673 92.1013 125.606 92.1257C125.538 92.15 125.479 92.1997 125.439 92.2674C125.257 92.5723 125.025 92.8297 124.755 93.0251C124.484 93.2205 124.182 93.3499 123.864 93.4059C123.547 93.462 123.22 93.4436 122.904 93.3519C122.587 93.2601 122.286 93.0967 122.019 92.8711C121.96 92.821 121.889 92.7941 121.817 92.7944C121.745 92.7947 121.677 92.8222 121.621 92.8728C121.566 92.9234 121.526 92.9943 121.509 93.0751C121.491 93.1559 121.497 93.2421 121.525 93.321C121.526 93.2453 121.546 93.1724 121.582 93.1115V93.1115Z" fill="#C45C00"/>
<path d="M191.015 105.22C190.209 105.22 189.431 105.147 188.683 105C187.95 104.868 187.268 104.67 186.637 104.406C186.021 104.142 185.471 103.827 184.987 103.46L185.845 101.238C186.329 101.575 186.835 101.869 187.363 102.118C187.906 102.353 188.478 102.536 189.079 102.668C189.695 102.785 190.341 102.844 191.015 102.844C192.174 102.844 193.017 102.653 193.545 102.272C194.073 101.876 194.337 101.37 194.337 100.754C194.337 100.417 194.257 100.131 194.095 99.896C193.934 99.6467 193.67 99.434 193.303 99.258C192.937 99.082 192.453 98.9353 191.851 98.818L189.431 98.312C188.038 98.0187 186.997 97.5273 186.307 96.838C185.633 96.134 185.295 95.21 185.295 94.066C185.295 93.098 185.552 92.2547 186.065 91.536C186.579 90.8173 187.29 90.26 188.199 89.864C189.109 89.468 190.157 89.27 191.345 89.27C192.049 89.27 192.724 89.3433 193.369 89.49C194.029 89.622 194.631 89.8273 195.173 90.106C195.731 90.37 196.215 90.6927 196.625 91.074L195.767 93.186C195.151 92.6727 194.477 92.2913 193.743 92.042C193.01 91.778 192.203 91.646 191.323 91.646C190.649 91.646 190.069 91.7413 189.585 91.932C189.101 92.1227 188.727 92.394 188.463 92.746C188.214 93.0833 188.089 93.4867 188.089 93.956C188.089 94.484 188.265 94.9093 188.617 95.232C188.969 95.54 189.571 95.782 190.421 95.958L192.819 96.464C194.271 96.772 195.349 97.256 196.053 97.916C196.772 98.576 197.131 99.456 197.131 100.556C197.131 101.48 196.882 102.294 196.383 102.998C195.885 103.702 195.173 104.252 194.249 104.648C193.34 105.029 192.262 105.22 191.015 105.22ZM204.305 105.22C203.411 105.22 202.67 105.059 202.083 104.736C201.497 104.399 201.057 103.9 200.763 103.24C200.485 102.58 200.345 101.759 200.345 100.776V94.242H203.095V100.82C203.095 101.319 203.161 101.737 203.293 102.074C203.44 102.411 203.653 102.661 203.931 102.822C204.225 102.983 204.591 103.064 205.031 103.064C205.53 103.064 205.963 102.954 206.329 102.734C206.711 102.499 207.004 102.177 207.209 101.766C207.429 101.341 207.539 100.849 207.539 100.292V94.242H210.289V105H207.605V102.756H207.913C207.605 103.548 207.136 104.157 206.505 104.582C205.889 105.007 205.156 105.22 204.305 105.22ZM214.279 105V94.242H216.963V96.838H216.743C216.948 95.958 217.351 95.2907 217.953 94.836C218.554 94.3667 219.353 94.0953 220.351 94.022L221.187 93.956L221.363 96.288L219.779 96.442C218.884 96.53 218.209 96.8087 217.755 97.278C217.3 97.7327 217.073 98.378 217.073 99.214V105H214.279ZM227.855 105L223.191 94.242H226.117L229.439 102.58H228.779L232.211 94.242H234.961L230.231 105H227.855ZM237.24 91.932V89.248H240.32V91.932H237.24ZM237.416 105V94.242H240.166V105H237.416ZM247.318 105L242.654 94.242H245.58L248.902 102.58H248.242L251.674 94.242H254.424L249.694 105H247.318ZM261.57 105.22C260.456 105.22 259.488 104.993 258.666 104.538C257.845 104.083 257.207 103.438 256.752 102.602C256.298 101.751 256.07 100.754 256.07 99.61C256.07 98.466 256.298 97.476 256.752 96.64C257.207 95.804 257.845 95.1587 258.666 94.704C259.488 94.2493 260.456 94.022 261.57 94.022C262.685 94.022 263.653 94.2493 264.474 94.704C265.296 95.1587 265.934 95.804 266.388 96.64C266.843 97.476 267.07 98.466 267.07 99.61C267.07 100.754 266.843 101.751 266.388 102.602C265.934 103.438 265.296 104.083 264.474 104.538C263.653 104.993 262.685 105.22 261.57 105.22ZM261.57 103.13C262.392 103.13 263.052 102.837 263.55 102.25C264.049 101.649 264.298 100.769 264.298 99.61C264.298 98.4367 264.049 97.564 263.55 96.992C263.052 96.4053 262.392 96.112 261.57 96.112C260.749 96.112 260.089 96.4053 259.59 96.992C259.092 97.564 258.842 98.4367 258.842 99.61C258.842 100.769 259.092 101.649 259.59 102.25C260.089 102.837 260.749 103.13 261.57 103.13ZM270.467 105V94.242H273.151V96.838H272.931C273.137 95.958 273.54 95.2907 274.141 94.836C274.743 94.3667 275.542 94.0953 276.539 94.022L277.375 93.956L277.551 96.288L275.967 96.442C275.073 96.53 274.398 96.8087 273.943 97.278C273.489 97.7327 273.261 98.378 273.261 99.214V105H270.467Z" fill="#202224"/>
<mask id="mask0_120_1899" style="mask-type:alpha" maskUnits="userSpaceOnUse" x="55" y="54" width="59" height="88">
<path d="M56.3948 68.98C56.3948 61.8113 62.2061 56 69.3748 56H87.4123C101.21 56 112.395 67.185 112.395 80.9825V115.018C112.395 128.815 101.21 140 87.4123 140H69.3748C62.2061 140 56.3948 134.189 56.3948 127.02V68.98Z" fill="white" stroke="url(#paint14_linear_120_1899)" stroke-opacity="0.3" stroke-width="2.60316"/>
</mask>
<g mask="url(#mask0_120_1899)">
<rect x="54.3948" y="54.3848" width="28" height="87.2308" fill="#587ED7"/>
</g>
<defs>
<filter id="filter0_d_120_1899" x="0.9894" y="0.594686" width="430.337" height="208.337" filterUnits="userSpaceOnUse" color-interpolation-filters="sRGB">
<feFlood flood-opacity="0" result="BackgroundImageFix"/>
<feColorMatrix in="SourceAlpha" type="matrix" values="0 0 0 0 0 0 0 0 0 0 0 0 0 0 0 0 0 0 127 0" result="hardAlpha"/>
<feOffset dx="6.76297" dy="6.76297"/>
<feGaussianBlur stdDeviation="30.4334"/>
<feColorMatrix type="matrix" values="0 0 0 0 0 0 0 0 0 0 0 0 0 0 0 0 0 0 0.05 0"/>
<feBlend mode="normal" in2="BackgroundImageFix" result="effect1_dropShadow_120_1899"/>
<feBlend mode="normal" in="SourceGraphic" in2="effect1_dropShadow_120_1899" result="shape"/>
</filter>
<filter id="filter1_d_120_1899" x="113.267" y="69.5078" width="43.7809" height="58.3923" filterUnits="userSpaceOnUse" color-interpolation-filters="sRGB">
<feFlood flood-opacity="0" result="BackgroundImageFix"/>
<feColorMatrix in="SourceAlpha" type="matrix" values="0 0 0 0 0 0 0 0 0 0 0 0 0 0 0 0 0 0 127 0" result="hardAlpha"/>
<feOffset dy="2.88231"/>
<feComposite in2="hardAlpha" operator="out"/>
<feColorMatrix type="matrix" values="0 0 0 0 0.0823333 0 0 0 0 0 0 0 0 0 0.316667 0 0 0 1 0"/>
<feBlend mode="normal" in2="BackgroundImageFix" result="effect1_dropShadow_120_1899"/>
<feBlend mode="normal" in="SourceGraphic" in2="effect1_dropShadow_120_1899" result="shape"/>
</filter>
<linearGradient id="paint0_linear_120_1899" x1="126.169" y1="25.6597" x2="274.163" y2="197.283" gradientUnits="userSpaceOnUse">
<stop stop-color="#F1F1F1"/>
<stop offset="1" stop-color="#E1E1E1"/>
</linearGradient>
<linearGradient id="paint1_linear_120_1899" x1="136.249" y1="77.5561" x2="139.488" y2="115.799" gradientUnits="userSpaceOnUse">
<stop stop-color="#995BFC"/>
<stop offset="0.510417" stop-color="#5E18D7"/>
<stop offset="1" stop-color="#5D0F72"/>
<stop offset="1" stop-color="#5E1072"/>
</linearGradient>
<linearGradient id="paint2_linear_120_1899" x1="142.939" y1="124.326" x2="139.026" y2="71.5355" gradientUnits="userSpaceOnUse">
<stop stop-color="#DF3E00"/>
<stop offset="1" stop-color="#FFA100"/>
</linearGradient>
<linearGradient id="paint3_linear_120_1899" x1="142.953" y1="123.216" x2="139.174" y2="72.234" gradientUnits="userSpaceOnUse">
<stop stop-color="#FF8A00"/>
<stop offset="1" stop-color="#FFE600"/>
</linearGradient>
<radialGradient id="paint4_radial_120_1899" cx="0" cy="0" r="1" gradientUnits="userSpaceOnUse" gradientTransform="translate(143.666 79.9416) rotate(10.2147) scale(12.9463 11.8019)">
<stop stop-color="white"/>
<stop offset="0.09619" stop-color="#FFED3B" stop-opacity="0.8"/>
<stop offset="0.71251" stop-color="#F6D146" stop-opacity="0"/>
<stop offset="1" stop-color="#F6D146" stop-opacity="0"/>
</radialGradient>
<radialGradient id="paint5_radial_120_1899" cx="0" cy="0" r="1" gradientUnits="userSpaceOnUse" gradientTransform="translate(138.877 101.168) rotate(10.2147) scale(21.358 19.6072)">
<stop stop-color="#FFE800"/>
<stop offset="0.71251" stop-color="#FFC900" stop-opacity="0"/>
</radialGradient>
<linearGradient id="paint6_linear_120_1899" x1="142.786" y1="118.642" x2="130.859" y2="77.9472" gradientUnits="userSpaceOnUse">
<stop offset="0.00149" stop-color="#FF8A00"/>
<stop offset="0.71251" stop-color="#FFC900" stop-opacity="0"/>
</linearGradient>
<linearGradient id="paint7_linear_120_1899" x1="153.405" y1="92.6203" x2="133.401" y2="66.5587" gradientUnits="userSpaceOnUse">
<stop offset="0.00149" stop-color="#FF8A00"/>
<stop offset="0.71251" stop-color="#F6D146" stop-opacity="0"/>
</linearGradient>
<linearGradient id="paint8_linear_120_1899" x1="140.87" y1="122.538" x2="139.25" y2="100.674" gradientUnits="userSpaceOnUse">
<stop offset="0.00269" stop-color="#6F0100"/>
<stop offset="0.96044" stop-color="#FF9E00" stop-opacity="0.09"/>
</linearGradient>
<linearGradient id="paint9_linear_120_1899" x1="133.063" y1="123.349" x2="115.712" y2="85.5275" gradientUnits="userSpaceOnUse">
<stop stop-color="#DF3E00"/>
<stop offset="1" stop-color="#FFA100"/>
</linearGradient>
<linearGradient id="paint10_linear_120_1899" x1="132.785" y1="122.52" x2="116.028" y2="85.9936" gradientUnits="userSpaceOnUse">
<stop stop-color="#FF8A00"/>
<stop offset="1" stop-color="#FFE600"/>
</linearGradient>
<radialGradient id="paint11_radial_120_1899" cx="0" cy="0" r="1" gradientUnits="userSpaceOnUse" gradientTransform="translate(122.05 90.1668) rotate(-10.0113) scale(10.0554 9.31862)">
<stop stop-color="white"/>
<stop offset="0.09619" stop-color="#FFED3B" stop-opacity="0.8"/>
<stop offset="0.71251" stop-color="#F6D146" stop-opacity="0"/>
<stop offset="1" stop-color="#F6D146" stop-opacity="0"/>
</radialGradient>
<radialGradient id="paint12_radial_120_1899" cx="0" cy="0" r="1" gradientUnits="userSpaceOnUse" gradientTransform="translate(124.074 107.239) rotate(-10.0113) scale(16.5887 15.4816)">
<stop stop-color="#FFE800"/>
<stop offset="0.71251" stop-color="#FFC900" stop-opacity="0"/>
</radialGradient>
<linearGradient id="paint13_linear_120_1899" x1="132.461" y1="96.949" x2="110.866" y2="83.3317" gradientUnits="userSpaceOnUse">
<stop offset="0.00149" stop-color="#FF8A00"/>
<stop offset="0.71251" stop-color="#F6D146" stop-opacity="0"/>
</linearGradient>
<linearGradient id="paint14_linear_120_1899" x1="69.164" y1="25.6597" x2="129.934" y2="38.5566" gradientUnits="userSpaceOnUse">
<stop stop-color="#F1F1F1"/>
<stop offset="1" stop-color="#E1E1E1"/>
</linearGradient>
</defs>
</svg>
