<svg width="432" height="209" viewBox="0 0 432 209" fill="none" xmlns="http://www.w3.org/2000/svg">
<g filter="url(#filter0_d_120_1908)">
<rect x="56.3948" y="56" width="306" height="84" rx="12.98" fill="white"/>
<rect x="56.3948" y="56" width="306" height="84" rx="12.98" stroke="url(#paint0_linear_120_1908)" stroke-opacity="0.3" stroke-width="2.60316"/>
</g>
<g filter="url(#filter1_d_120_1908)">
<mask id="path-3-outside-1_120_1908" maskUnits="userSpaceOnUse" x="105.079" y="72.6123" width="59" height="51" fill="black">
<rect fill="white" x="105.079" y="72.6123" width="59" height="51"/>
<path d="M108.097 80.8127C107.878 77.741 118.483 73.9375 121.151 76.4055V80.8489L123.734 76.9221C127.695 78.231 136.96 80.8489 142.333 80.8489C145.582 80.8488 149.897 79.8392 153.569 78.3518C156.777 77.0521 161.335 78.8016 160.881 82.2336C159.094 95.7328 153.755 118.294 152.769 118.977C151.426 119.907 145.123 122.18 134.79 118.46C133.964 117.138 133.206 116.325 132.93 116.084L132.071 115.802L131.173 114.74L129.417 117.323C127.143 116.498 122.246 115.231 118.162 115.611L118.05 117.314C117.914 119.372 116.372 120.9 114.443 120.168C113.303 119.736 112.125 119.161 111.163 118.654C109.833 117.951 109.028 116.578 108.964 115.074C108.69 108.608 107.982 90.6728 108.144 81.4309C108.105 81.2931 108.083 81.1547 108.079 81.0168C108.081 80.9524 108.096 80.8186 108.097 80.8127Z"/>
</mask>
<path d="M108.097 80.8127C107.878 77.741 118.483 73.9375 121.151 76.4055V80.8489L123.734 76.9221C127.695 78.231 136.96 80.8489 142.333 80.8489C145.582 80.8488 149.897 79.8392 153.569 78.3518C156.777 77.0521 161.335 78.8016 160.881 82.2336C159.094 95.7328 153.755 118.294 152.769 118.977C151.426 119.907 145.123 122.18 134.79 118.46C133.964 117.138 133.206 116.325 132.93 116.084L132.071 115.802L131.173 114.74L129.417 117.323C127.143 116.498 122.246 115.231 118.162 115.611L118.05 117.314C117.914 119.372 116.372 120.9 114.443 120.168C113.303 119.736 112.125 119.161 111.163 118.654C109.833 117.951 109.028 116.578 108.964 115.074C108.69 108.608 107.982 90.6728 108.144 81.4309C108.105 81.2931 108.083 81.1547 108.079 81.0168C108.081 80.9524 108.096 80.8186 108.097 80.8127Z" fill="url(#paint1_linear_120_1908)"/>
<path d="M108.097 80.8127L111.005 81.1547L111.037 80.88L111.018 80.6041L108.097 80.8127ZM121.151 76.4055H124.079V75.1253L123.139 74.256L121.151 76.4055ZM121.151 80.8489H118.222V90.6288L123.597 82.4581L121.151 80.8489ZM123.734 76.9221L124.652 74.1417L122.521 73.4374L121.287 75.3129L123.734 76.9221ZM142.333 80.8489L142.333 83.7771L142.333 83.7771L142.333 80.8489ZM153.569 78.3518L154.668 81.0659L154.668 81.0658L153.569 78.3518ZM160.881 82.2336L163.784 82.6179L163.784 82.6179L160.881 82.2336ZM152.769 118.977L154.436 121.384L154.436 121.384L152.769 118.977ZM134.79 118.46L132.307 120.012L132.845 120.872L133.799 121.215L134.79 118.46ZM132.93 116.084L134.858 113.881L134.41 113.488L133.844 113.302L132.93 116.084ZM132.071 115.802L129.834 117.693L130.37 118.325L131.157 118.584L132.071 115.802ZM131.173 114.74L133.409 112.85L130.919 109.905L128.751 113.094L131.173 114.74ZM129.417 117.323L128.418 120.076L130.559 120.853L131.839 118.97L129.417 117.323ZM118.162 115.611L117.892 112.695L115.405 112.926L115.241 115.418L118.162 115.611ZM118.05 117.314L120.972 117.507L120.972 117.506L118.05 117.314ZM114.443 120.168L113.404 122.906L113.404 122.906L114.443 120.168ZM111.163 118.654L109.796 121.243L109.796 121.243L111.163 118.654ZM108.964 115.074L106.039 115.199L106.039 115.199L108.964 115.074ZM108.144 81.4309L111.072 81.482L111.079 81.0497L110.961 80.6337L108.144 81.4309ZM108.079 81.0168L105.152 80.9553L105.15 81.0289L105.152 81.1026L108.079 81.0168ZM108.097 80.8127L111.018 80.6041C111.054 81.1061 110.85 81.3685 110.887 81.3153C110.923 81.2646 111.07 81.0896 111.42 80.828C112.117 80.3081 113.214 79.7449 114.501 79.2981C115.782 78.8537 117.064 78.5893 118.078 78.5466C119.269 78.4965 119.396 78.771 119.162 78.555L121.151 76.4055L123.139 74.256C121.572 72.806 119.373 72.6304 117.832 72.6953C116.113 72.7676 114.258 73.1833 112.581 73.7653C110.911 74.3448 109.231 75.1543 107.918 76.1343C107.263 76.6227 106.597 77.2295 106.084 77.9651C105.572 78.6982 105.085 79.7514 105.176 81.0214L108.097 80.8127ZM121.151 76.4055H118.222V80.8489H121.151H124.079V76.4055H121.151ZM121.151 80.8489L123.597 82.4581L126.18 78.5314L123.734 76.9221L121.287 75.3129L118.704 79.2396L121.151 80.8489ZM123.734 76.9221L122.815 79.7025C124.869 80.3812 128.259 81.3872 131.834 82.227C135.352 83.0532 139.289 83.7771 142.333 83.7771V80.8489V77.9206C140.005 77.9206 136.622 77.3356 133.173 76.5256C129.783 75.7293 126.56 74.7719 124.652 74.1417L123.734 76.9221ZM142.333 80.8489L142.333 83.7771C146.066 83.777 150.763 82.6475 154.668 81.0659L153.569 78.3518L152.469 75.6378C149.03 77.0308 145.097 77.9206 142.333 77.9206L142.333 80.8489ZM153.569 78.3518L154.668 81.0658C155.47 80.741 156.558 80.7911 157.343 81.1639C157.71 81.3377 157.878 81.5193 157.938 81.6099C157.971 81.6607 157.997 81.7065 157.978 81.8494L160.881 82.2336L163.784 82.6179C164.229 79.2565 162.092 76.9345 159.854 75.8727C157.672 74.8376 154.876 74.6628 152.469 75.6378L153.569 78.3518ZM160.881 82.2336L157.978 81.8494C157.102 88.4728 155.342 97.3903 153.669 104.764C152.834 108.445 152.029 111.704 151.378 114.068C151.051 115.257 150.773 116.179 150.558 116.803C150.449 117.121 150.375 117.305 150.337 117.388C150.317 117.432 150.332 117.392 150.384 117.308C150.384 117.308 150.61 116.91 151.102 116.569L152.769 118.977L154.436 121.384C154.989 121.001 155.285 120.518 155.364 120.391C155.494 120.181 155.595 119.974 155.668 119.812C155.818 119.483 155.962 119.099 156.096 118.709C156.369 117.915 156.685 116.857 157.024 115.624C157.707 113.144 158.534 109.791 159.381 106.059C161.071 98.6063 162.874 89.4937 163.784 82.6179L160.881 82.2336ZM152.769 118.977L151.102 116.569C151.124 116.554 151.047 116.608 150.837 116.702C150.639 116.791 150.359 116.899 149.995 117.01C149.269 117.23 148.247 117.447 146.939 117.542C144.334 117.73 140.584 117.434 135.782 115.705L134.79 118.46L133.799 121.215C144.769 125.165 152.118 122.989 154.436 121.384L152.769 118.977ZM134.79 118.46L137.273 116.908C136.334 115.405 135.399 114.354 134.858 113.881L132.93 116.084L131.002 118.288C130.976 118.266 131.122 118.398 131.391 118.725C131.641 119.031 131.963 119.462 132.307 120.012L134.79 118.46ZM132.93 116.084L133.844 113.302L132.984 113.02L132.071 115.802L131.157 118.584L132.016 118.866L132.93 116.084ZM132.071 115.802L134.307 113.911L133.409 112.85L131.173 114.74L128.937 116.631L129.834 117.693L132.071 115.802ZM131.173 114.74L128.751 113.094L126.996 115.677L129.417 117.323L131.839 118.97L133.595 116.387L131.173 114.74ZM129.417 117.323L130.417 114.571C127.967 113.681 122.597 112.258 117.892 112.695L118.162 115.611L118.433 118.526C121.896 118.205 126.32 119.314 128.418 120.076L129.417 117.323ZM118.162 115.611L115.241 115.418L115.128 117.121L118.05 117.314L120.972 117.506L121.084 115.803L118.162 115.611ZM118.05 117.314L115.128 117.12C115.116 117.299 115.076 117.429 115.04 117.507C115.003 117.587 114.983 117.59 115.021 117.557C115.066 117.519 115.163 117.459 115.301 117.435C115.442 117.411 115.515 117.443 115.481 117.43L114.443 120.168L113.404 122.906C115.369 123.651 117.361 123.256 118.816 122.017C120.17 120.866 120.862 119.174 120.972 117.507L118.05 117.314ZM114.443 120.168L115.481 117.43C114.5 117.058 113.44 116.544 112.53 116.064L111.163 118.654L109.796 121.243C110.81 121.778 112.106 122.414 113.404 122.906L114.443 120.168ZM111.163 118.654L112.53 116.064C112.193 115.886 111.913 115.498 111.89 114.95L108.964 115.074L106.039 115.199C106.143 117.658 107.472 120.016 109.796 121.243L111.163 118.654ZM108.964 115.074L111.89 114.95C111.614 108.457 110.912 90.6177 111.072 81.482L108.144 81.4309L105.216 81.3798C105.053 90.7279 105.765 108.76 106.039 115.199L108.964 115.074ZM108.144 81.4309L110.961 80.6337C110.986 80.7211 111.003 80.8216 111.006 80.9311L108.079 81.0168L105.152 81.1026C105.164 81.4878 105.223 81.865 105.326 82.2281L108.144 81.4309ZM108.079 81.0168L111.007 81.0784C111.006 81.1153 111.005 81.1426 111.004 81.155C111.003 81.169 111.003 81.1783 111.002 81.1817C111.002 81.1877 111.002 81.1869 111.003 81.1784C111.003 81.1711 111.004 81.1633 111.005 81.1569C111.006 81.1501 111.006 81.1484 111.005 81.1547L108.097 80.8127L105.189 80.4708C105.187 80.4852 105.181 80.5401 105.174 80.6073C105.171 80.6438 105.155 80.7968 105.152 80.9553L108.079 81.0168Z" fill="url(#paint2_linear_120_1908)" mask="url(#path-3-outside-1_120_1908)"/>
</g>
<g filter="url(#filter2_ii_120_1908)">
<path fill-rule="evenodd" clip-rule="evenodd" d="M108.08 81.0171C108.081 80.9514 108.083 80.8489 108.083 80.8489C108.079 80.9049 108.078 80.961 108.08 81.0171Z" fill="url(#paint3_linear_120_1908)"/>
<path d="M108.338 81.8822C110.074 84.858 114.077 86.7041 116.074 86.4286L115.733 116.084C120.079 114.679 126.666 116.325 129.417 117.324L131.174 114.741L132.103 117.84L132.93 116.084C133.206 116.325 133.963 117.138 134.79 118.46C145.123 122.18 151.426 119.907 152.769 118.977C153.756 118.294 159.092 95.6415 160.872 82.1091C161.323 78.6767 156.787 76.9544 153.59 78.2805C149.915 79.8043 145.59 80.8489 142.333 80.8489C136.96 80.8489 127.695 78.2312 123.734 76.9224L121.151 80.8489V76.4057C118.524 74.2482 108.318 77.456 108.083 80.8489L108.08 81.0171C108.088 81.3058 108.171 81.5952 108.338 81.8822Z" fill="url(#paint4_linear_120_1908)"/>
</g>
<path d="M134.491 106.252C135.183 106.558 135.495 107.367 135.189 108.059L134.282 110.108C133.976 110.8 133.167 111.112 132.476 110.806L130.484 109.924C129.918 109.674 129.257 109.93 129.006 110.495L127.937 112.908C127.631 113.6 126.823 113.913 126.131 113.607L124.082 112.701C123.391 112.395 123.078 111.586 123.384 110.894L124.452 108.48C124.703 107.915 124.447 107.253 123.881 107.002L121.32 105.869C120.628 105.563 120.315 104.755 120.621 104.063L121.528 102.013C121.834 101.322 122.643 101.01 123.334 101.316L125.897 102.449C126.463 102.699 127.124 102.443 127.374 101.877L128.356 99.6576C128.662 98.9661 129.471 98.6537 130.163 98.9597L132.211 99.8664C132.903 100.172 133.216 100.981 132.91 101.673L131.928 103.893C131.678 104.459 131.934 105.12 132.499 105.371L134.491 106.252Z" fill="url(#paint5_linear_120_1908)" style="mix-blend-mode:multiply"/>
<path d="M123.383 80.593C123.649 82.6518 133.827 88.2731 136.31 88.2731C140.423 88.2731 151.307 82.5718 153.809 93.3926C155.417 100.35 144.228 111.969 136.31 101.813" stroke="#DAC5AE" stroke-width="2.73881" stroke-linecap="round" stroke-dasharray="6.22 6.22" style="mix-blend-mode:multiply"/>
<g filter="url(#filter3_i_120_1908)">
<path d="M108.513 81.1715C110.191 83.2476 113.257 84.5216 116.192 84.5476C117.776 84.5616 119.412 85.7544 119.347 87.3368L118.246 114.362L118.043 117.421C117.911 119.416 116.418 120.904 114.545 120.206C113.374 119.769 112.153 119.176 111.163 118.653C109.832 117.95 109.028 116.577 108.964 115.074C108.678 108.341 107.921 89.1724 108.166 80.332C108.178 80.6122 108.288 80.893 108.513 81.1715Z" fill="url(#paint6_linear_120_1908)"/>
</g>
<path opacity="0.8" d="M139.235 83.2495L137.107 116.497C137.089 116.78 137.234 117.052 137.497 117.16C139.928 118.161 144.74 117.887 146.361 116.846C146.513 116.749 146.597 116.581 146.618 116.401L150.664 82.6696C150.739 82.0401 149.989 81.5532 149.394 81.773C146.868 82.7068 142.962 82.9249 140.1 82.5541C139.666 82.4978 139.263 82.8122 139.235 83.2495Z" fill="url(#paint7_linear_120_1908)"/>
<path d="M109.371 85.0432L110.113 114.974C110.133 115.788 110.575 116.534 111.28 116.942L113.672 118.327C113.961 118.494 114.323 118.29 114.331 117.957L115.037 86.604C115.042 86.3863 114.885 86.198 114.671 86.1599C112.294 85.7371 111.097 85.3178 110.228 84.6631C109.898 84.4147 109.361 84.6306 109.371 85.0432Z" fill="url(#paint8_linear_120_1908)"/>
<path d="M189.409 105V91.844H184.085V89.49H197.549V91.844H192.225V105H189.409ZM198.478 105V94.242H201.162V96.838H200.942C201.147 95.958 201.55 95.2907 202.152 94.836C202.753 94.3667 203.552 94.0953 204.55 94.022L205.386 93.956L205.562 96.288L203.978 96.442C203.083 96.53 202.408 96.8087 201.954 97.278C201.499 97.7327 201.272 98.378 201.272 99.214V105H198.478ZM213.35 105.22C212.133 105.22 211.084 104.993 210.204 104.538C209.324 104.083 208.642 103.438 208.158 102.602C207.689 101.766 207.454 100.776 207.454 99.632C207.454 98.5173 207.682 97.542 208.136 96.706C208.606 95.87 209.244 95.2173 210.05 94.748C210.872 94.264 211.803 94.022 212.844 94.022C213.871 94.022 214.751 94.242 215.484 94.682C216.218 95.122 216.782 95.7453 217.178 96.552C217.589 97.3587 217.794 98.3193 217.794 99.434V100.248H209.676V98.664H215.858L215.506 98.994C215.506 97.9967 215.286 97.234 214.846 96.706C214.406 96.1633 213.776 95.892 212.954 95.892C212.338 95.892 211.81 96.0387 211.37 96.332C210.945 96.6107 210.615 97.014 210.38 97.542C210.16 98.0553 210.05 98.6713 210.05 99.39V99.544C210.05 100.351 210.175 101.018 210.424 101.546C210.674 102.074 211.048 102.47 211.546 102.734C212.045 102.998 212.661 103.13 213.394 103.13C213.996 103.13 214.597 103.042 215.198 102.866C215.8 102.675 216.35 102.382 216.848 101.986L217.618 103.834C217.105 104.259 216.46 104.597 215.682 104.846C214.905 105.095 214.128 105.22 213.35 105.22ZM224.641 105.22C223.864 105.22 223.167 105.073 222.551 104.78C221.95 104.472 221.473 104.061 221.121 103.548C220.784 103.035 220.615 102.455 220.615 101.81C220.615 101.018 220.821 100.395 221.231 99.94C221.642 99.4707 222.309 99.1333 223.233 98.928C224.157 98.7227 225.397 98.62 226.951 98.62H228.051V100.204H226.973C226.284 100.204 225.705 100.233 225.235 100.292C224.766 100.336 224.385 100.417 224.091 100.534C223.813 100.637 223.607 100.783 223.475 100.974C223.358 101.165 223.299 101.399 223.299 101.678C223.299 102.162 223.468 102.558 223.805 102.866C224.143 103.174 224.612 103.328 225.213 103.328C225.697 103.328 226.123 103.218 226.489 102.998C226.871 102.763 227.171 102.448 227.391 102.052C227.611 101.656 227.721 101.201 227.721 100.688V98.158C227.721 97.4247 227.56 96.8967 227.237 96.574C226.915 96.2513 226.372 96.09 225.609 96.09C225.008 96.09 224.392 96.1853 223.761 96.376C223.131 96.552 222.493 96.8307 221.847 97.212L221.055 95.342C221.437 95.078 221.884 94.8507 222.397 94.66C222.925 94.4547 223.475 94.3007 224.047 94.198C224.634 94.0807 225.184 94.022 225.697 94.022C226.753 94.022 227.619 94.1833 228.293 94.506C228.983 94.8287 229.496 95.32 229.833 95.98C230.171 96.6253 230.339 97.4613 230.339 98.488V105H227.765V102.712H227.941C227.839 103.225 227.633 103.673 227.325 104.054C227.032 104.421 226.658 104.707 226.203 104.912C225.749 105.117 225.228 105.22 224.641 105.22ZM238.196 105.22C237.594 105.22 237.008 105.169 236.436 105.066C235.878 104.963 235.365 104.824 234.896 104.648C234.426 104.457 234.016 104.223 233.664 103.944L234.368 102.14C234.734 102.375 235.13 102.58 235.556 102.756C235.981 102.932 236.421 103.064 236.876 103.152C237.33 103.24 237.778 103.284 238.218 103.284C238.922 103.284 239.442 103.167 239.78 102.932C240.132 102.683 240.308 102.36 240.308 101.964C240.308 101.627 240.19 101.37 239.956 101.194C239.736 101.003 239.398 100.864 238.944 100.776L236.744 100.358C235.834 100.182 235.138 99.852 234.654 99.368C234.184 98.8693 233.95 98.2313 233.95 97.454C233.95 96.75 234.14 96.1413 234.522 95.628C234.918 95.1147 235.46 94.7187 236.15 94.44C236.839 94.1613 237.631 94.022 238.526 94.022C239.039 94.022 239.538 94.0733 240.022 94.176C240.506 94.264 240.96 94.4033 241.386 94.594C241.826 94.77 242.207 95.0047 242.53 95.298L241.782 97.102C241.503 96.8673 241.18 96.6693 240.814 96.508C240.447 96.332 240.066 96.2 239.67 96.112C239.288 96.0093 238.914 95.958 238.548 95.958C237.829 95.958 237.294 96.0827 236.942 96.332C236.604 96.5813 236.436 96.9113 236.436 97.322C236.436 97.63 236.538 97.8867 236.744 98.092C236.949 98.2973 237.264 98.4367 237.69 98.51L239.89 98.928C240.843 99.104 241.562 99.4267 242.046 99.896C242.544 100.365 242.794 100.996 242.794 101.788C242.794 102.507 242.603 103.123 242.222 103.636C241.84 104.149 241.305 104.545 240.616 104.824C239.926 105.088 239.12 105.22 238.196 105.22ZM250.021 105.22C249.126 105.22 248.386 105.059 247.799 104.736C247.212 104.399 246.772 103.9 246.479 103.24C246.2 102.58 246.061 101.759 246.061 100.776V94.242H248.811V100.82C248.811 101.319 248.877 101.737 249.009 102.074C249.156 102.411 249.368 102.661 249.647 102.822C249.94 102.983 250.307 103.064 250.747 103.064C251.246 103.064 251.678 102.954 252.045 102.734C252.426 102.499 252.72 102.177 252.925 101.766C253.145 101.341 253.255 100.849 253.255 100.292V94.242H256.005V105H253.321V102.756H253.629C253.321 103.548 252.852 104.157 252.221 104.582C251.605 105.007 250.872 105.22 250.021 105.22ZM259.994 105V94.242H262.678V96.838H262.458C262.664 95.958 263.067 95.2907 263.668 94.836C264.27 94.3667 265.069 94.0953 266.066 94.022L266.902 93.956L267.078 96.288L265.494 96.442C264.6 96.53 263.925 96.8087 263.47 97.278C263.016 97.7327 262.788 98.378 262.788 99.214V105H259.994ZM274.867 105.22C273.65 105.22 272.601 104.993 271.721 104.538C270.841 104.083 270.159 103.438 269.675 102.602C269.206 101.766 268.971 100.776 268.971 99.632C268.971 98.5173 269.198 97.542 269.653 96.706C270.122 95.87 270.76 95.2173 271.567 94.748C272.388 94.264 273.32 94.022 274.361 94.022C275.388 94.022 276.268 94.242 277.001 94.682C277.734 95.122 278.299 95.7453 278.695 96.552C279.106 97.3587 279.311 98.3193 279.311 99.434V100.248H271.193V98.664H277.375L277.023 98.994C277.023 97.9967 276.803 97.234 276.363 96.706C275.923 96.1633 275.292 95.892 274.471 95.892C273.855 95.892 273.327 96.0387 272.887 96.332C272.462 96.6107 272.132 97.014 271.897 97.542C271.677 98.0553 271.567 98.6713 271.567 99.39V99.544C271.567 100.351 271.692 101.018 271.941 101.546C272.19 102.074 272.564 102.47 273.063 102.734C273.562 102.998 274.178 103.13 274.911 103.13C275.512 103.13 276.114 103.042 276.715 102.866C277.316 102.675 277.866 102.382 278.365 101.986L279.135 103.834C278.622 104.259 277.976 104.597 277.199 104.846C276.422 105.095 275.644 105.22 274.867 105.22ZM289.937 105V89.49H292.753V95.958H300.739V89.49H303.555V105H300.739V98.312H292.753V105H289.937ZM311.71 105.22C310.815 105.22 310.074 105.059 309.488 104.736C308.901 104.399 308.461 103.9 308.168 103.24C307.889 102.58 307.75 101.759 307.75 100.776V94.242H310.5V100.82C310.5 101.319 310.566 101.737 310.698 102.074C310.844 102.411 311.057 102.661 311.336 102.822C311.629 102.983 311.996 103.064 312.436 103.064C312.934 103.064 313.367 102.954 313.734 102.734C314.115 102.499 314.408 102.177 314.614 101.766C314.834 101.341 314.944 100.849 314.944 100.292V94.242H317.694V105H315.01V102.756H315.318C315.01 103.548 314.54 104.157 313.91 104.582C313.294 105.007 312.56 105.22 311.71 105.22ZM321.683 105V94.242H324.367V96.398H324.125C324.448 95.6207 324.946 95.034 325.621 94.638C326.31 94.2273 327.088 94.022 327.953 94.022C328.818 94.022 329.53 94.1833 330.087 94.506C330.644 94.8287 331.062 95.32 331.341 95.98C331.62 96.6253 331.759 97.4467 331.759 98.444V105H329.009V98.576C329.009 98.0187 328.936 97.564 328.789 97.212C328.657 96.86 328.444 96.6033 328.151 96.442C327.872 96.266 327.513 96.178 327.073 96.178C326.545 96.178 326.083 96.2953 325.687 96.53C325.291 96.75 324.983 97.0727 324.763 97.498C324.543 97.9087 324.433 98.3927 324.433 98.95V105H321.683ZM340.607 105.22C339.17 105.22 338.099 104.861 337.395 104.142C336.691 103.423 336.339 102.375 336.339 100.996V96.31H334.271V94.242H336.339V91.03H339.089V94.242H342.345V96.31H339.089V100.842C339.089 101.546 339.243 102.074 339.551 102.426C339.859 102.778 340.358 102.954 341.047 102.954C341.253 102.954 341.465 102.932 341.685 102.888C341.905 102.829 342.133 102.771 342.367 102.712L342.785 104.736C342.521 104.883 342.184 105 341.773 105.088C341.377 105.176 340.989 105.22 340.607 105.22Z" fill="#202224"/>
<mask id="mask0_120_1908" style="mask-type:alpha" maskUnits="userSpaceOnUse" x="55" y="54" width="59" height="88">
<path d="M56.3948 68.98C56.3948 61.8113 62.2061 56 69.3748 56H87.4123C101.21 56 112.395 67.185 112.395 80.9825V115.018C112.395 128.815 101.21 140 87.4123 140H69.3748C62.2061 140 56.3948 134.189 56.3948 127.02V68.98Z" fill="white" stroke="url(#paint9_linear_120_1908)" stroke-opacity="0.3" stroke-width="2.60316"/>
</mask>
<g mask="url(#mask0_120_1908)">
<rect x="54.3948" y="54.3848" width="28" height="87.2308" fill="#587ED7"/>
</g>
<defs>
<filter id="filter0_d_120_1908" x="0.9894" y="0.594686" width="430.337" height="208.337" filterUnits="userSpaceOnUse" color-interpolation-filters="sRGB">
<feFlood flood-opacity="0" result="BackgroundImageFix"/>
<feColorMatrix in="SourceAlpha" type="matrix" values="0 0 0 0 0 0 0 0 0 0 0 0 0 0 0 0 0 0 127 0" result="hardAlpha"/>
<feOffset dx="6.76297" dy="6.76297"/>
<feGaussianBlur stdDeviation="30.4334"/>
<feColorMatrix type="matrix" values="0 0 0 0 0 0 0 0 0 0 0 0 0 0 0 0 0 0 0.05 0"/>
<feBlend mode="normal" in2="BackgroundImageFix" result="effect1_dropShadow_120_1908"/>
<feBlend mode="normal" in="SourceGraphic" in2="effect1_dropShadow_120_1908" result="shape"/>
</filter>
<filter id="filter1_d_120_1908" x="105.15" y="72.6841" width="58.693" height="53.9327" filterUnits="userSpaceOnUse" color-interpolation-filters="sRGB">
<feFlood flood-opacity="0" result="BackgroundImageFix"/>
<feColorMatrix in="SourceAlpha" type="matrix" values="0 0 0 0 0 0 0 0 0 0 0 0 0 0 0 0 0 0 127 0" result="hardAlpha"/>
<feOffset dy="3.17028"/>
<feComposite in2="hardAlpha" operator="out"/>
<feColorMatrix type="matrix" values="0 0 0 0 0.233333 0 0 0 0 0.0835391 0 0 0 0 0 0 0 0 1 0"/>
<feBlend mode="normal" in2="BackgroundImageFix" result="effect1_dropShadow_120_1908"/>
<feBlend mode="normal" in="SourceGraphic" in2="effect1_dropShadow_120_1908" result="shape"/>
</filter>
<filter id="filter2_ii_120_1908" x="108.079" y="75.7053" width="52.8242" height="44.8142" filterUnits="userSpaceOnUse" color-interpolation-filters="sRGB">
<feFlood flood-opacity="0" result="BackgroundImageFix"/>
<feBlend mode="normal" in="SourceGraphic" in2="BackgroundImageFix" result="shape"/>
<feColorMatrix in="SourceAlpha" type="matrix" values="0 0 0 0 0 0 0 0 0 0 0 0 0 0 0 0 0 0 127 0" result="hardAlpha"/>
<feOffset dy="1.23994"/>
<feComposite in2="hardAlpha" operator="arithmetic" k2="-1" k3="1"/>
<feColorMatrix type="matrix" values="0 0 0 0 0.952941 0 0 0 0 0.933333 0 0 0 0 0.85098 0 0 0 1 0"/>
<feBlend mode="normal" in2="shape" result="effect1_innerShadow_120_1908"/>
<feColorMatrix in="SourceAlpha" type="matrix" values="0 0 0 0 0 0 0 0 0 0 0 0 0 0 0 0 0 0 127 0" result="hardAlpha"/>
<feOffset dx="0.206657" dy="-1.03328"/>
<feComposite in2="hardAlpha" operator="arithmetic" k2="-1" k3="1"/>
<feColorMatrix type="matrix" values="0 0 0 0 0.780392 0 0 0 0 0.587059 0 0 0 0 0.447059 0 0 0 1 0"/>
<feBlend mode="normal" in2="effect1_innerShadow_120_1908" result="effect2_innerShadow_120_1908"/>
</filter>
<filter id="filter3_i_120_1908" x="106.749" y="80.332" width="12.6005" height="41.1688" filterUnits="userSpaceOnUse" color-interpolation-filters="sRGB">
<feFlood flood-opacity="0" result="BackgroundImageFix"/>
<feBlend mode="normal" in="SourceGraphic" in2="BackgroundImageFix" result="shape"/>
<feColorMatrix in="SourceAlpha" type="matrix" values="0 0 0 0 0 0 0 0 0 0 0 0 0 0 0 0 0 0 127 0" result="hardAlpha"/>
<feOffset dx="-1.3694" dy="1.12042"/>
<feGaussianBlur stdDeviation="2.30309"/>
<feComposite in2="hardAlpha" operator="arithmetic" k2="-1" k3="1"/>
<feColorMatrix type="matrix" values="0 0 0 0 0 0 0 0 0 0 0 0 0 0 0 0 0 0 0.25 0"/>
<feBlend mode="normal" in2="shape" result="effect1_innerShadow_120_1908"/>
</filter>
<linearGradient id="paint0_linear_120_1908" x1="126.169" y1="25.6597" x2="274.163" y2="197.283" gradientUnits="userSpaceOnUse">
<stop stop-color="#F1F1F1"/>
<stop offset="1" stop-color="#E1E1E1"/>
</linearGradient>
<linearGradient id="paint1_linear_120_1908" x1="113.744" y1="82.9049" x2="113.744" y2="120.519" gradientUnits="userSpaceOnUse">
<stop stop-color="#B07B5D"/>
<stop offset="1" stop-color="#C79672"/>
</linearGradient>
<linearGradient id="paint2_linear_120_1908" x1="141.969" y1="82.4913" x2="130.118" y2="116.522" gradientUnits="userSpaceOnUse">
<stop offset="0.000323348" stop-color="#AB633B"/>
<stop offset="0.116401" stop-color="#9F582F"/>
<stop offset="0.784832" stop-color="#692905"/>
<stop offset="0.953012" stop-color="#632503"/>
</linearGradient>
<linearGradient id="paint3_linear_120_1908" x1="134.747" y1="72.4792" x2="134.747" y2="122.755" gradientUnits="userSpaceOnUse">
<stop stop-color="#F0DCA1"/>
<stop offset="1" stop-color="#D9AF64"/>
</linearGradient>
<linearGradient id="paint4_linear_120_1908" x1="134.747" y1="72.4792" x2="134.747" y2="122.755" gradientUnits="userSpaceOnUse">
<stop stop-color="#F0DCA1"/>
<stop offset="1" stop-color="#D9AF64"/>
</linearGradient>
<linearGradient id="paint5_linear_120_1908" x1="135.359" y1="107.145" x2="120.405" y2="105.358" gradientUnits="userSpaceOnUse">
<stop stop-color="#AD6981"/>
<stop offset="0.484375" stop-color="#D92F58"/>
<stop offset="1" stop-color="#C93939"/>
</linearGradient>
<linearGradient id="paint6_linear_120_1908" x1="113.801" y1="80.332" x2="113.801" y2="120.837" gradientUnits="userSpaceOnUse">
<stop stop-color="#B07B5D"/>
<stop offset="1" stop-color="#C79672"/>
</linearGradient>
<linearGradient id="paint7_linear_120_1908" x1="107" y1="72.694" x2="150.612" y2="100.627" gradientUnits="userSpaceOnUse">
<stop stop-color="white"/>
<stop offset="1" stop-color="white" stop-opacity="0"/>
</linearGradient>
<linearGradient id="paint8_linear_120_1908" x1="74.0147" y1="76.0586" x2="119.946" y2="106.631" gradientUnits="userSpaceOnUse">
<stop stop-color="#5F3E21"/>
<stop offset="1" stop-color="#5F3E21" stop-opacity="0"/>
</linearGradient>
<linearGradient id="paint9_linear_120_1908" x1="69.164" y1="25.6597" x2="129.934" y2="38.5566" gradientUnits="userSpaceOnUse">
<stop stop-color="#F1F1F1"/>
<stop offset="1" stop-color="#E1E1E1"/>
</linearGradient>
</defs>
</svg>
