<svg width="432" height="209" viewBox="0 0 432 209" fill="none" xmlns="http://www.w3.org/2000/svg">
<g filter="url(#filter0_d_120_1890)">
<rect x="56.3948" y="56" width="306" height="84" rx="12.98" fill="white"/>
<rect x="56.3948" y="56" width="306" height="84" rx="12.98" stroke="url(#paint0_linear_120_1890)" stroke-opacity="0.3" stroke-width="2.60316"/>
</g>
<g filter="url(#filter1_d_120_1890)">
<path d="M121.138 106.307L118.241 104.75C116.978 104.068 115.916 103.068 115.16 101.849L115.018 101.611L114.881 101.359C114.799 101.204 114.722 101.048 114.65 100.889C114.215 99.9178 113.971 98.8682 113.936 97.7963L113.552 85.311C113.51 83.8769 113.614 82.4436 114.293 81.1783C114.348 81.0741 114.443 80.8339 114.503 80.7348L114.763 80.3952V80.3952C115.289 79.5764 115.89 78.8339 115.946 77.8627L116.027 76.4873C116.05 76.1034 116.105 75.722 116.194 75.3477L116.218 75.2484L116.287 75.0435V75.0435C116.353 74.7018 116.596 74.4119 116.833 74.1572C116.99 73.9885 117.189 73.8155 117.408 73.6532C117.52 73.59 117.632 73.5387 117.744 73.4971C118.817 73.0978 119.995 73.6431 120.991 74.2076L122.398 75.0047C122.675 75.1618 123 75.2162 123.308 75.136C126.161 74.3933 129.665 72.2369 132.451 72.1512C133.278 72.1258 134.101 72.226 134.892 72.4456C139.074 73.6025 142.93 75.6224 146.986 77.1729C148.249 77.8535 149.428 79.2347 150.184 80.4541C150.939 81.6753 151.098 83.1408 151.145 84.5747L151.145 90.5953C151.145 91.7653 151.327 92.4953 152.149 93.3283V93.3283C152.631 93.8168 153.167 94.9376 153.167 95.6238L153.167 104.033C153.188 104.719 150.985 106.133 150.279 106.39C150.213 106.414 150.154 106.42 150.085 106.406V106.406C149.903 106.369 149.696 106.367 149.536 106.272L147.192 104.874C146.932 104.718 146.606 104.721 146.347 104.881V104.881C145.837 105.197 145.833 105.937 146.339 106.259L147.752 107.157C148.096 107.339 148.385 107.609 148.59 107.94C148.794 108.272 148.906 108.652 148.914 109.042L148.915 109.062C148.921 109.235 148.921 109.721 148.909 110.271C148.899 110.738 148.88 111.251 148.848 111.664C148.834 111.843 148.815 111.919 148.796 112.049C148.789 112.188 148.746 112.274 148.724 112.322C148.715 112.354 148.681 112.391 148.671 112.41C148.476 112.726 148.521 112.612 148.189 112.815L137.915 119.402C137.748 119.506 137.577 119.603 137.404 119.697C137.208 119.802 137.008 119.9 136.805 119.989C136.254 120.234 135.681 120.423 135.093 120.556L134.786 120.62L134.555 120.661C134.164 120.724 133.768 120.763 133.37 120.775C131.761 120.825 130.451 120.618 129.033 119.853L118.486 114.17C118.144 113.986 117.857 113.713 117.653 113.384C117.559 113.231 117.468 112.582 117.398 111.891C117.316 111.089 117.26 110.232 117.254 110.024C117.242 109.635 117.332 109.25 117.515 108.907C117.699 108.564 117.969 108.276 118.298 108.07L121.138 106.307Z" fill="url(#paint1_linear_120_1890)"/>
<path d="M121.138 106.307L118.241 104.75C116.978 104.068 115.916 103.068 115.16 101.849L115.018 101.611L114.881 101.359C114.799 101.204 114.722 101.048 114.65 100.889C114.215 99.9178 113.971 98.8682 113.936 97.7963L113.552 85.311C113.51 83.8769 113.614 82.4436 114.293 81.1783C114.348 81.0741 114.443 80.8339 114.503 80.7348L114.763 80.3952V80.3952C115.289 79.5764 115.89 78.8339 115.946 77.8627L116.027 76.4873C116.05 76.1034 116.105 75.722 116.194 75.3477L116.218 75.2484L116.287 75.0435V75.0435C116.353 74.7018 116.596 74.4119 116.833 74.1572C116.99 73.9885 117.189 73.8155 117.408 73.6532C117.52 73.59 117.632 73.5387 117.744 73.4971C118.817 73.0978 119.995 73.6431 120.991 74.2076L122.398 75.0047C122.675 75.1618 123 75.2162 123.308 75.136C126.161 74.3933 129.665 72.2369 132.451 72.1512C133.278 72.1258 134.101 72.226 134.892 72.4456C139.074 73.6025 142.93 75.6224 146.986 77.1729C148.249 77.8535 149.428 79.2347 150.184 80.4541C150.939 81.6753 151.098 83.1408 151.145 84.5747L151.145 90.5953C151.145 91.7653 151.327 92.4953 152.149 93.3283V93.3283C152.631 93.8168 153.167 94.9376 153.167 95.6238L153.167 104.033C153.188 104.719 150.985 106.133 150.279 106.39C150.213 106.414 150.154 106.42 150.085 106.406V106.406C149.903 106.369 149.696 106.367 149.536 106.272L147.192 104.874C146.932 104.718 146.606 104.721 146.347 104.881V104.881C145.837 105.197 145.833 105.937 146.339 106.259L147.752 107.157C148.096 107.339 148.385 107.609 148.59 107.94C148.794 108.272 148.906 108.652 148.914 109.042L148.915 109.062C148.921 109.235 148.921 109.721 148.909 110.271C148.899 110.738 148.88 111.251 148.848 111.664C148.834 111.843 148.815 111.919 148.796 112.049C148.789 112.188 148.746 112.274 148.724 112.322C148.715 112.354 148.681 112.391 148.671 112.41C148.476 112.726 148.521 112.612 148.189 112.815L137.915 119.402C137.748 119.506 137.577 119.603 137.404 119.697C137.208 119.802 137.008 119.9 136.805 119.989C136.254 120.234 135.681 120.423 135.093 120.556L134.786 120.62L134.555 120.661C134.164 120.724 133.768 120.763 133.37 120.775C131.761 120.825 130.451 120.618 129.033 119.853L118.486 114.17C118.144 113.986 117.857 113.713 117.653 113.384C117.559 113.231 117.468 112.582 117.398 111.891C117.316 111.089 117.26 110.232 117.254 110.024C117.242 109.635 117.332 109.25 117.515 108.907C117.699 108.564 117.969 108.276 118.298 108.07L121.138 106.307Z" fill="#C42222" fill-opacity="0.43"/>
<path d="M132.409 70.7954C133.373 70.7658 134.333 70.8828 135.255 71.1387L135.254 71.1398C137.431 71.7423 139.506 72.5628 141.514 73.4122C143.294 74.165 144.989 74.9244 146.724 75.6144L147.47 75.9061L147.552 75.9378L147.629 75.9794C148.996 76.7158 150.187 78.0385 151.008 79.2364L151.337 79.7402L151.337 79.7412L151.508 80.0339C152.313 81.5099 152.456 83.1612 152.5 84.5309L152.501 84.5748L152.501 90.5953C152.501 91.1216 152.545 91.4234 152.622 91.6487C152.692 91.8513 152.816 92.0735 153.114 92.3761C153.506 92.7736 153.841 93.33 154.073 93.8405C154.271 94.2752 154.467 94.8343 154.513 95.3872L154.523 95.6234L154.523 104.033L154.521 104.032C154.524 104.451 154.372 104.789 154.257 104.991C154.128 105.217 153.969 105.413 153.821 105.573C153.525 105.895 153.155 106.201 152.803 106.462C152.209 106.902 151.485 107.344 150.957 107.578L150.743 107.664C150.52 107.746 150.274 107.784 150.012 107.762C150.17 108.155 150.259 108.574 150.27 109.001L150.271 109.001L150.271 109.016L150.275 109.529C150.274 109.754 150.271 110.023 150.265 110.301C150.254 110.777 150.235 111.319 150.2 111.769L150.2 111.77C150.185 111.972 150.154 112.145 150.142 112.217C150.126 112.375 150.095 112.514 150.057 112.633C150.018 112.755 149.969 112.862 149.965 112.871C149.939 112.931 149.914 112.979 149.896 113.012C149.869 113.06 149.841 113.098 149.823 113.125L149.824 113.126C149.778 113.201 149.71 113.308 149.634 113.406C149.537 113.532 149.409 113.667 149.233 113.784C149.16 113.832 149.095 113.867 149.059 113.886C149.033 113.899 148.987 113.922 148.985 113.923C148.965 113.933 148.943 113.943 148.907 113.965L138.647 120.543L138.632 120.553C138.435 120.676 138.239 120.786 138.05 120.889L138.044 120.892C137.822 121.011 137.591 121.124 137.355 121.228L137.356 121.229C136.723 121.51 136.065 121.727 135.393 121.879L135.381 121.882L135.371 121.884L135.063 121.948L135.042 121.953L135.021 121.956L134.791 121.996L134.781 121.999L134.771 122C134.324 122.072 133.87 122.117 133.411 122.131C131.743 122.182 130.267 121.981 128.703 121.21L128.389 121.047L117.842 115.364C117.289 115.066 116.828 114.627 116.5 114.098L116.499 114.097C116.352 113.858 116.289 113.599 116.266 113.506C116.231 113.363 116.202 113.207 116.178 113.056C116.153 112.903 116.13 112.735 116.108 112.561L116.049 112.029C115.965 111.209 115.906 110.317 115.898 110.065C115.879 109.439 116.024 108.819 116.319 108.268C116.615 107.714 117.051 107.251 117.579 106.921L117.583 106.918L118.429 106.391L117.599 105.945L117.597 105.943C116.126 105.149 114.887 103.985 114.007 102.564L114.002 102.554L113.995 102.544L113.853 102.307L113.84 102.284L113.826 102.26L113.69 102.008L113.686 102.001L113.682 101.994C113.587 101.814 113.497 101.632 113.413 101.447L113.412 101.444C112.968 100.453 112.696 99.3929 112.608 98.3068L112.581 97.8406L112.196 85.3505L112.188 84.7792C112.188 83.4248 112.352 81.9284 113.096 80.5403C113.098 80.5353 113.101 80.5277 113.106 80.5175C113.12 80.4853 113.135 80.4524 113.157 80.4026C113.177 80.3588 113.202 80.3028 113.228 80.248C113.251 80.2002 113.291 80.1177 113.341 80.0344L113.38 79.9697L113.426 79.9097L113.656 79.6085C113.955 79.146 114.153 78.8787 114.339 78.5372C114.507 78.2301 114.58 77.9998 114.593 77.783L114.673 76.4078L114.701 76.062C114.736 75.7165 114.795 75.373 114.875 75.0347L114.898 74.9363L114.913 74.8733L114.933 74.8121L114.983 74.667C115.158 73.9631 115.629 73.4611 115.84 73.2337C116.067 72.9903 116.332 72.7626 116.601 72.5635L116.668 72.5136L116.74 72.4732C116.917 72.373 117.095 72.2918 117.271 72.2263L117.438 72.1684C118.274 71.9045 119.087 71.9929 119.767 72.1857C120.481 72.3885 121.14 72.7327 121.66 73.0273L123.032 73.8039C124.326 73.4576 125.754 72.8074 127.394 72.1407C128.961 71.5037 130.742 70.8467 132.409 70.7954Z" stroke="#820604" stroke-width="2.71255"/>
</g>
<path d="M149.088 108.771C149.104 109.161 149.085 111.808 148.901 112.152C148.717 112.495 148.445 112.783 148.113 112.985L137.935 119.307C136.567 120.157 134.999 120.631 133.39 120.68C131.781 120.73 130.187 120.353 128.769 119.589L118.222 113.904C117.881 113.72 117.593 113.449 117.389 113.118C117.185 112.787 117.002 110.148 116.99 109.759C116.978 109.37 117.068 108.985 117.252 108.642C117.435 108.299 117.705 108.011 118.035 107.806L128.212 101.484C129.581 100.633 131.148 100.16 132.757 100.11C134.366 100.061 135.96 100.437 137.378 101.202L147.925 106.886C148.269 107.067 148.559 107.338 148.763 107.669C148.968 108.001 149.08 108.381 149.088 108.771Z" fill="#E57904"/>
<path d="M149.088 108.771C149.104 109.161 149.085 111.808 148.901 112.152C148.717 112.495 148.445 112.783 148.113 112.985L137.935 119.307C136.567 120.157 134.999 120.631 133.39 120.68C131.781 120.73 130.187 120.353 128.769 119.589L118.222 113.904C117.881 113.72 117.593 113.449 117.389 113.118C117.185 112.787 117.002 110.148 116.99 109.759C116.978 109.37 117.068 108.985 117.252 108.642C117.435 108.299 117.705 108.011 118.035 107.806L128.212 101.484C129.581 100.633 131.148 100.16 132.757 100.11C134.366 100.061 135.96 100.437 137.378 101.202L147.925 106.886C148.269 107.067 148.559 107.338 148.763 107.669C148.968 108.001 149.08 108.381 149.088 108.771Z" fill="url(#paint2_linear_120_1890)"/>
<path fill-rule="evenodd" clip-rule="evenodd" d="M119.937 73.1755C116.817 72.7132 116.262 75.1109 116.285 75.8349L117.495 82.0526C117.518 82.8067 117.917 83.5015 118.558 83.9007L150.815 104.035C151.135 104.234 151.504 104.207 151.78 104.032C152.033 103.871 152.209 103.586 152.198 103.24L151.891 93.2549C151.868 92.5009 151.469 91.8061 150.828 91.4069L119.937 73.1755ZM121.473 77.2955C120.859 76.9114 120.066 77.3671 120.088 78.0893L120.194 81.5418C120.218 82.2959 120.615 82.9872 121.254 83.3882L146.479 99.1874C146.819 99.3997 147.215 99.3557 147.496 99.1509C147.721 98.9848 147.874 98.715 147.864 98.3936L147.757 94.9411C147.734 94.1871 147.337 93.4958 146.698 93.0948L121.473 77.2955Z" fill="#FFC40E"/>
<path d="M116.112 76.4101C116.153 75.4176 117.23 74.8203 118.093 75.3126L148.992 92.953C149.675 93.3433 150.107 94.061 150.131 94.8476L150.436 104.775C150.458 105.497 149.666 105.953 149.053 105.57L116.886 85.4912C116.196 85.0607 115.791 84.2933 115.824 83.481L116.112 76.4101ZM119.922 78.3711C119.309 77.9871 118.516 78.4421 118.538 79.165L118.644 82.6165C118.667 83.3704 119.065 84.0633 119.704 84.4637L144.93 100.263C145.543 100.647 146.335 100.191 146.313 99.4682L146.207 96.0176C146.184 95.2639 145.787 94.5708 145.148 94.1704L119.922 78.3711Z" fill="#FD9800"/>
<mask id="mask0_120_1890" style="mask-type:alpha" maskUnits="userSpaceOnUse" x="116" y="100" width="34" height="21">
<path d="M149.088 108.771C149.104 109.161 149.085 111.808 148.901 112.152C148.717 112.495 148.445 112.783 148.113 112.985L137.935 119.307C136.567 120.157 134.999 120.631 133.39 120.68C131.781 120.73 130.187 120.353 128.769 119.589L118.222 113.904C117.881 113.72 117.593 113.449 117.389 113.118C117.185 112.787 117.002 110.148 116.99 109.759C116.978 109.37 117.068 108.985 117.252 108.642C117.435 108.299 117.705 108.011 118.035 107.806L128.212 101.484C129.581 100.633 131.148 100.16 132.757 100.11C134.366 100.061 135.96 100.437 137.378 101.202L147.925 106.886C148.269 107.067 148.559 107.338 148.763 107.669C148.968 108.001 149.08 108.381 149.088 108.771Z" fill="#E57904"/>
<path d="M149.088 108.771C149.104 109.161 149.085 111.808 148.901 112.152C148.717 112.495 148.445 112.783 148.113 112.985L137.935 119.307C136.567 120.157 134.999 120.631 133.39 120.68C131.781 120.73 130.187 120.353 128.769 119.589L118.222 113.904C117.881 113.72 117.593 113.449 117.389 113.118C117.185 112.787 117.002 110.148 116.99 109.759C116.978 109.37 117.068 108.985 117.252 108.642C117.435 108.299 117.705 108.011 118.035 107.806L128.212 101.484C129.581 100.633 131.148 100.16 132.757 100.11C134.366 100.061 135.96 100.437 137.378 101.202L147.925 106.886C148.269 107.067 148.559 107.338 148.763 107.669C148.968 108.001 149.08 108.381 149.088 108.771Z" fill="url(#paint3_linear_120_1890)"/>
</mask>
<g mask="url(#mask0_120_1890)">
<path d="M132.476 108.774L157.364 102.858L157.364 122.735L134.087 121.999L134.087 118.978L132.476 108.774Z" fill="url(#paint4_linear_120_1890)"/>
</g>
<g filter="url(#filter2_i_120_1890)">
<path d="M149.088 108.771C149.104 109.161 149.085 111.808 148.901 112.152C148.717 112.495 148.445 112.783 148.113 112.985L137.935 119.307C136.567 120.157 134.999 120.631 133.39 120.68C131.781 120.73 130.187 120.353 128.769 119.589L118.222 113.904C117.881 113.72 117.593 113.449 117.389 113.118C117.185 112.787 117.002 110.148 116.99 109.759C116.978 109.37 117.068 108.985 117.252 108.642C117.435 108.299 117.705 108.011 118.035 107.806L128.212 101.484C129.581 100.633 131.148 100.16 132.757 100.11C134.366 100.061 135.96 100.437 137.378 101.202L147.925 106.886C148.269 107.067 148.559 107.338 148.763 107.669C148.968 108.001 149.08 108.381 149.088 108.771Z" fill="#D9D9D9" fill-opacity="0.01"/>
</g>
<g filter="url(#filter3_d_120_1890)">
<path d="M131.813 72.2025C136.704 72.0523 142.426 75.383 146.956 76.9258C148.219 77.6067 149.282 78.6074 150.037 79.8275C150.792 81.0476 151.214 82.4446 151.261 83.8787L151.645 96.364C151.686 97.7983 151.351 99.2187 150.672 100.483C149.993 101.747 148.994 102.811 147.775 103.568L137.155 110.143C135.935 110.898 134.537 111.319 133.102 111.364C131.667 111.408 130.246 111.073 128.981 110.395L117.977 104.485C116.714 103.804 115.652 102.803 114.896 101.583C114.141 100.363 113.719 98.9661 113.672 97.532L113.288 85.0467C113.247 83.6124 113.582 82.1921 114.261 80.9279C114.351 80.7607 114.446 80.5965 114.547 80.4365C114.596 80.2753 114.675 80.1182 114.782 79.971C114.888 79.8271 115.018 79.6948 115.169 79.5771C115.731 78.8979 116.403 78.3115 117.158 77.8423C121.53 76.0199 126.968 72.3516 131.813 72.2025Z" fill="url(#paint5_linear_120_1890)"/>
</g>
<path d="M117.154 86.8988C114.781 85.7707 113.018 83.2568 114.261 80.9421V80.9421C114.94 79.6779 115.939 78.614 117.158 77.8566C118.422 77.3298 119.775 76.6488 121.176 75.9431C124.624 74.2075 128.368 72.323 131.813 72.217C135.281 72.1103 139.167 73.754 142.75 75.2695C144.22 75.8912 145.638 76.4913 146.956 76.9401C148.219 77.6211 149.282 78.6216 150.037 79.8417V79.8417C151.428 82.0881 149.855 84.7351 147.589 86.0932L139.912 90.6938C137.831 91.7023 135.453 92.2727 133.017 92.3476C130.581 92.4226 128.173 91.9994 126.034 91.1207L117.154 86.8988Z" fill="url(#paint6_linear_120_1890)"/>
<path d="M151.372 89.0081C151.414 90.1708 151.078 91.3219 150.399 92.3468C149.72 93.3718 148.721 94.2351 147.502 94.8493L136.881 100.182C135.66 100.794 134.261 101.135 132.827 101.171C131.392 101.207 129.971 100.937 128.707 100.387L121.139 97.2009C119.876 96.649 118.814 95.8379 118.059 94.849C117.894 94.6338 117.747 94.411 117.615 94.1833C117.645 94.1968 117.673 94.2131 117.704 94.2262L128.707 99.0157C129.971 99.5658 131.393 99.8359 132.827 99.8003C134.262 99.7639 135.66 99.4229 136.88 98.8105L147.502 93.4782C148.721 92.8641 149.72 92.0016 150.399 90.9767C150.936 90.1668 151.256 89.2775 151.347 88.3665L151.372 89.0081Z" fill="#D35F00"/>
<path d="M129.791 83.8635L135.577 83.6855L136.165 102.788C136.197 103.828 135.38 104.697 134.34 104.729L132.318 104.791C131.279 104.823 130.41 104.006 130.378 102.966L129.791 83.8635Z" fill="url(#paint7_linear_120_1890)"/>
<path opacity="0.4" d="M144.605 77.7204C144.614 77.9118 144.542 78.1027 144.396 78.2731C144.249 78.4436 144.034 78.5874 143.774 78.6896L135.784 81.887C134.71 82.3169 133.484 82.5636 132.229 82.6022C130.974 82.6408 129.735 82.4699 128.637 82.1069L120.466 79.4065C120.201 79.319 119.98 79.1883 119.824 79.0274C119.668 78.8666 119.582 78.6814 119.576 78.4904C119.57 78.2993 119.644 78.1092 119.79 77.9391C119.936 77.769 120.149 77.6249 120.408 77.5213L128.397 74.3239C129.472 73.8938 130.698 73.6471 131.952 73.6085C133.207 73.5699 134.446 73.7408 135.545 74.104L143.716 76.8044C143.982 76.8903 144.205 77.0206 144.362 77.1817C144.518 77.3429 144.602 77.5289 144.605 77.7204Z" fill="url(#paint8_linear_120_1890)"/>
<path opacity="0.45" d="M132.04 76.4669C133.295 76.4283 134.534 76.5994 135.633 76.9626L142.454 79.2167L135.785 81.8871C134.71 82.317 133.484 82.5641 132.23 82.6027C130.975 82.6413 129.736 82.47 128.637 82.107L121.814 79.8519L128.485 77.1825C129.559 76.7524 130.786 76.5055 132.04 76.4669Z" fill="#D00000"/>
<path d="M113.492 91.8813L116.402 93.3741L115.804 94.5157L113.532 93.2568L113.492 91.8813Z" fill="#D35F00"/>
<g filter="url(#filter4_d_120_1890)">
<path d="M120.067 89.3659C121.078 88.4531 122.67 88.6806 123.386 89.8402L128.671 98.404C129.28 99.3912 129.01 100.682 128.057 101.344L124.268 103.971C123.257 104.672 121.868 104.4 121.196 103.37L116.047 95.4736C115.461 94.5737 115.616 93.3807 116.414 92.6611L120.067 89.3659Z" fill="#D35F00"/>
<path d="M120.128 89.4351C121.097 88.5614 122.621 88.7791 123.306 89.8892L128.591 98.4524C129.175 99.3974 128.917 100.635 128.004 101.268L124.215 103.895C123.247 104.565 121.917 104.305 121.274 103.319L116.125 95.4229C115.564 94.5614 115.712 93.4189 116.476 92.73L120.128 89.4351Z" stroke="black" stroke-opacity="0.24" stroke-width="0.186397"/>
</g>
<g filter="url(#filter5_d_120_1890)">
<ellipse cx="121.796" cy="91.9765" rx="1.17017" ry="1.63684" transform="rotate(144.144 121.796 91.9765)" fill="#FDB90E"/>
</g>
<g filter="url(#filter6_d_120_1890)">
<ellipse cx="122.131" cy="96.5883" rx="1.17017" ry="1.63684" transform="rotate(144.144 122.131 96.5883)" fill="#FDB90E"/>
</g>
<g filter="url(#filter7_d_120_1890)">
<ellipse cx="118.194" cy="94.7804" rx="1.17017" ry="1.63684" transform="rotate(144.144 118.194 94.7804)" fill="#FDB90E"/>
</g>
<g filter="url(#filter8_d_120_1890)">
<ellipse cx="122.183" cy="101.215" rx="1.17017" ry="1.63684" transform="rotate(144.144 122.183 101.215)" fill="#FDB90E"/>
</g>
<g filter="url(#filter9_d_120_1890)">
<ellipse cx="126.213" cy="98.3881" rx="1.17017" ry="1.63684" transform="rotate(144.144 126.213 98.3881)" fill="#FDB90E"/>
</g>
<rect x="142.535" y="91.7791" width="3.05912" height="10.4615" fill="black" fill-opacity="0.22"/>
<path d="M143.191 100.218C142.366 100.751 142.393 101.966 143.24 102.463L149.919 106.377C150.532 106.76 153.194 104.836 153.172 104.114L153.172 95.0874C153.148 94.3322 152.672 92.3905 150.716 91.4896L146.722 89.5654C146.071 89.2518 145.319 89.2222 144.645 89.4838L143.579 89.8976C141.433 90.7306 142.077 93.9226 144.378 93.8585L147.171 93.7808C147.81 94.1811 148.208 94.8739 148.231 95.6278L148.337 99.0791C148.36 99.8022 146.717 99.6561 146.104 99.2721V99.2721C145.627 99.0051 145.042 99.0235 144.583 99.3199L143.191 100.218Z" fill="url(#paint9_linear_120_1890)"/>
<g filter="url(#filter10_d_120_1890)">
<path d="M142.404 101.45C142.418 101.878 142.651 102.268 143.021 102.482L149.526 106.243C150.139 106.625 150.931 106.169 150.909 105.447L150.602 95.4623C150.579 94.7065 150.18 94.0135 149.539 93.6125L144.475 90.6731C143.409 90.0544 142.078 90.8481 142.116 92.08V92.08C142.134 92.6429 142.451 93.1535 142.948 93.4183L145.62 94.8413C146.26 95.2424 146.657 95.9354 146.68 96.6895L146.786 100.14C146.808 100.862 146.015 101.318 145.402 100.934L144.211 100.315C143.373 99.8793 142.375 100.506 142.404 101.45V101.45Z" fill="#E0660D"/>
<path d="M142.404 101.45C142.418 101.878 142.651 102.268 143.021 102.482L149.526 106.243C150.139 106.625 150.931 106.169 150.909 105.447L150.602 95.4623C150.579 94.7065 150.18 94.0135 149.539 93.6125L144.475 90.6731C143.409 90.0544 142.078 90.8481 142.116 92.08V92.08C142.134 92.6429 142.451 93.1535 142.948 93.4183L145.62 94.8413C146.26 95.2424 146.657 95.9354 146.68 96.6895L146.786 100.14C146.808 100.862 146.015 101.318 145.402 100.934L144.211 100.315C143.373 99.8793 142.375 100.506 142.404 101.45V101.45Z" fill="url(#paint10_linear_120_1890)"/>
</g>
<path d="M189.409 105V91.844H184.085V89.49H197.549V91.844H192.225V105H189.409ZM203.384 105.22C202.269 105.22 201.301 104.993 200.48 104.538C199.658 104.083 199.02 103.438 198.566 102.602C198.111 101.751 197.884 100.754 197.884 99.61C197.884 98.466 198.111 97.476 198.566 96.64C199.02 95.804 199.658 95.1587 200.48 94.704C201.301 94.2493 202.269 94.022 203.384 94.022C204.498 94.022 205.466 94.2493 206.288 94.704C207.109 95.1587 207.747 95.804 208.202 96.64C208.656 97.476 208.884 98.466 208.884 99.61C208.884 100.754 208.656 101.751 208.202 102.602C207.747 103.438 207.109 104.083 206.288 104.538C205.466 104.993 204.498 105.22 203.384 105.22ZM203.384 103.13C204.205 103.13 204.865 102.837 205.364 102.25C205.862 101.649 206.112 100.769 206.112 99.61C206.112 98.4367 205.862 97.564 205.364 96.992C204.865 96.4053 204.205 96.112 203.384 96.112C202.562 96.112 201.902 96.4053 201.404 96.992C200.905 97.564 200.656 98.4367 200.656 99.61C200.656 100.769 200.905 101.649 201.404 102.25C201.902 102.837 202.562 103.13 203.384 103.13ZM216.175 105.22C215.28 105.22 214.539 105.059 213.953 104.736C213.366 104.399 212.926 103.9 212.633 103.24C212.354 102.58 212.215 101.759 212.215 100.776V94.242H214.965V100.82C214.965 101.319 215.031 101.737 215.163 102.074C215.309 102.411 215.522 102.661 215.801 102.822C216.094 102.983 216.461 103.064 216.901 103.064C217.399 103.064 217.832 102.954 218.199 102.734C218.58 102.499 218.873 102.177 219.079 101.766C219.299 101.341 219.409 100.849 219.409 100.292V94.242H222.159V105H219.475V102.756H219.783C219.475 103.548 219.005 104.157 218.375 104.582C217.759 105.007 217.025 105.22 216.175 105.22ZM226.148 105V94.242H228.832V96.838H228.612C228.817 95.958 229.221 95.2907 229.822 94.836C230.423 94.3667 231.223 94.0953 232.22 94.022L233.056 93.956L233.232 96.288L231.648 96.442C230.753 96.53 230.079 96.8087 229.624 97.278C229.169 97.7327 228.942 98.378 228.942 99.214V105H226.148ZM235.89 105V94.242H238.574V96.398H238.332C238.655 95.6207 239.154 95.034 239.828 94.638C240.518 94.2273 241.295 94.022 242.16 94.022C243.026 94.022 243.737 94.1833 244.294 94.506C244.852 94.8287 245.27 95.32 245.548 95.98C245.827 96.6253 245.966 97.4467 245.966 98.444V105H243.216V98.576C243.216 98.0187 243.143 97.564 242.996 97.212C242.864 96.86 242.652 96.6033 242.358 96.442C242.08 96.266 241.72 96.178 241.28 96.178C240.752 96.178 240.29 96.2953 239.894 96.53C239.498 96.75 239.19 97.0727 238.97 97.498C238.75 97.9087 238.64 98.3927 238.64 98.95V105H235.89ZM253.429 105.22C252.651 105.22 251.955 105.073 251.339 104.78C250.737 104.472 250.261 104.061 249.909 103.548C249.571 103.035 249.403 102.455 249.403 101.81C249.403 101.018 249.608 100.395 250.019 99.94C250.429 99.4707 251.097 99.1333 252.021 98.928C252.945 98.7227 254.184 98.62 255.739 98.62H256.839V100.204H255.761C255.071 100.204 254.492 100.233 254.023 100.292C253.553 100.336 253.172 100.417 252.879 100.534C252.6 100.637 252.395 100.783 252.263 100.974C252.145 101.165 252.087 101.399 252.087 101.678C252.087 102.162 252.255 102.558 252.593 102.866C252.93 103.174 253.399 103.328 254.001 103.328C254.485 103.328 254.91 103.218 255.277 102.998C255.658 102.763 255.959 102.448 256.179 102.052C256.399 101.656 256.509 101.201 256.509 100.688V98.158C256.509 97.4247 256.347 96.8967 256.025 96.574C255.702 96.2513 255.159 96.09 254.397 96.09C253.795 96.09 253.179 96.1853 252.549 96.376C251.918 96.552 251.28 96.8307 250.635 97.212L249.843 95.342C250.224 95.078 250.671 94.8507 251.185 94.66C251.713 94.4547 252.263 94.3007 252.835 94.198C253.421 94.0807 253.971 94.022 254.485 94.022C255.541 94.022 256.406 94.1833 257.081 94.506C257.77 94.8287 258.283 95.32 258.621 95.98C258.958 96.6253 259.127 97.4613 259.127 98.488V105H256.553V102.712H256.729C256.626 103.225 256.421 103.673 256.113 104.054C255.819 104.421 255.445 104.707 254.991 104.912C254.536 105.117 254.015 105.22 253.429 105.22ZM263.089 105V94.242H265.773V96.398H265.531C265.722 95.8993 265.986 95.474 266.323 95.122C266.661 94.77 267.064 94.4987 267.533 94.308C268.003 94.1173 268.523 94.022 269.095 94.022C269.961 94.022 270.672 94.2273 271.229 94.638C271.787 95.0487 272.175 95.6793 272.395 96.53H272.087C272.381 95.7527 272.865 95.144 273.539 94.704C274.214 94.2493 274.991 94.022 275.871 94.022C276.693 94.022 277.367 94.1833 277.895 94.506C278.438 94.8287 278.841 95.32 279.105 95.98C279.369 96.6253 279.501 97.4467 279.501 98.444V105H276.751V98.554C276.751 97.7327 276.612 97.1313 276.333 96.75C276.069 96.3687 275.615 96.178 274.969 96.178C274.5 96.178 274.089 96.2953 273.737 96.53C273.385 96.75 273.114 97.0727 272.923 97.498C272.747 97.9233 272.659 98.4367 272.659 99.038V105H269.909V98.554C269.909 97.7327 269.77 97.1313 269.491 96.75C269.227 96.3687 268.78 96.178 268.149 96.178C267.665 96.178 267.247 96.2953 266.895 96.53C266.558 96.75 266.294 97.0727 266.103 97.498C265.927 97.9233 265.839 98.4367 265.839 99.038V105H263.089ZM288.767 105.22C287.55 105.22 286.501 104.993 285.621 104.538C284.741 104.083 284.059 103.438 283.575 102.602C283.106 101.766 282.871 100.776 282.871 99.632C282.871 98.5173 283.099 97.542 283.553 96.706C284.023 95.87 284.661 95.2173 285.467 94.748C286.289 94.264 287.22 94.022 288.261 94.022C289.288 94.022 290.168 94.242 290.901 94.682C291.635 95.122 292.199 95.7453 292.595 96.552C293.006 97.3587 293.211 98.3193 293.211 99.434V100.248H285.093V98.664H291.275L290.923 98.994C290.923 97.9967 290.703 97.234 290.263 96.706C289.823 96.1633 289.193 95.892 288.371 95.892C287.755 95.892 287.227 96.0387 286.787 96.332C286.362 96.6107 286.032 97.014 285.797 97.542C285.577 98.0553 285.467 98.6713 285.467 99.39V99.544C285.467 100.351 285.592 101.018 285.841 101.546C286.091 102.074 286.465 102.47 286.963 102.734C287.462 102.998 288.078 103.13 288.811 103.13C289.413 103.13 290.014 103.042 290.615 102.866C291.217 102.675 291.767 102.382 292.265 101.986L293.035 103.834C292.522 104.259 291.877 104.597 291.099 104.846C290.322 105.095 289.545 105.22 288.767 105.22ZM296.516 105V94.242H299.2V96.398H298.958C299.281 95.6207 299.78 95.034 300.454 94.638C301.144 94.2273 301.921 94.022 302.786 94.022C303.652 94.022 304.363 94.1833 304.92 94.506C305.478 94.8287 305.896 95.32 306.174 95.98C306.453 96.6253 306.592 97.4467 306.592 98.444V105H303.842V98.576C303.842 98.0187 303.769 97.564 303.622 97.212C303.49 96.86 303.278 96.6033 302.984 96.442C302.706 96.266 302.346 96.178 301.906 96.178C301.378 96.178 300.916 96.2953 300.52 96.53C300.124 96.75 299.816 97.0727 299.596 97.498C299.376 97.9087 299.266 98.3927 299.266 98.95V105H296.516ZM315.441 105.22C314.003 105.22 312.933 104.861 312.229 104.142C311.525 103.423 311.173 102.375 311.173 100.996V96.31H309.105V94.242H311.173V91.03H313.923V94.242H317.179V96.31H313.923V100.842C313.923 101.546 314.077 102.074 314.385 102.426C314.693 102.778 315.191 102.954 315.881 102.954C316.086 102.954 316.299 102.932 316.519 102.888C316.739 102.829 316.966 102.771 317.201 102.712L317.619 104.736C317.355 104.883 317.017 105 316.607 105.088C316.211 105.176 315.822 105.22 315.441 105.22ZM324.021 105.22C323.42 105.22 322.833 105.169 322.261 105.066C321.704 104.963 321.19 104.824 320.721 104.648C320.252 104.457 319.841 104.223 319.489 103.944L320.193 102.14C320.56 102.375 320.956 102.58 321.381 102.756C321.806 102.932 322.246 103.064 322.701 103.152C323.156 103.24 323.603 103.284 324.043 103.284C324.747 103.284 325.268 103.167 325.605 102.932C325.957 102.683 326.133 102.36 326.133 101.964C326.133 101.627 326.016 101.37 325.781 101.194C325.561 101.003 325.224 100.864 324.769 100.776L322.569 100.358C321.66 100.182 320.963 99.852 320.479 99.368C320.01 98.8693 319.775 98.2313 319.775 97.454C319.775 96.75 319.966 96.1413 320.347 95.628C320.743 95.1147 321.286 94.7187 321.975 94.44C322.664 94.1613 323.456 94.022 324.351 94.022C324.864 94.022 325.363 94.0733 325.847 94.176C326.331 94.264 326.786 94.4033 327.211 94.594C327.651 94.77 328.032 95.0047 328.355 95.298L327.607 97.102C327.328 96.8673 327.006 96.6693 326.639 96.508C326.272 96.332 325.891 96.2 325.495 96.112C325.114 96.0093 324.74 95.958 324.373 95.958C323.654 95.958 323.119 96.0827 322.767 96.332C322.43 96.5813 322.261 96.9113 322.261 97.322C322.261 97.63 322.364 97.8867 322.569 98.092C322.774 98.2973 323.09 98.4367 323.515 98.51L325.715 98.928C326.668 99.104 327.387 99.4267 327.871 99.896C328.37 100.365 328.619 100.996 328.619 101.788C328.619 102.507 328.428 103.123 328.047 103.636C327.666 104.149 327.13 104.545 326.441 104.824C325.752 105.088 324.945 105.22 324.021 105.22Z" fill="#202224"/>
<mask id="mask1_120_1890" style="mask-type:alpha" maskUnits="userSpaceOnUse" x="55" y="54" width="59" height="88">
<path d="M56.3948 68.98C56.3948 61.8113 62.2061 56 69.3748 56H87.4123C101.21 56 112.395 67.185 112.395 80.9825V115.018C112.395 128.815 101.21 140 87.4123 140H69.3748C62.2061 140 56.3948 134.189 56.3948 127.02V68.98Z" fill="white" stroke="url(#paint11_linear_120_1890)" stroke-opacity="0.3" stroke-width="2.60316"/>
</mask>
<g mask="url(#mask1_120_1890)">
<rect x="54.3948" y="54.3848" width="28" height="87.2308" fill="#587ED7"/>
</g>
<defs>
<filter id="filter0_d_120_1890" x="0.9894" y="0.594686" width="430.337" height="208.337" filterUnits="userSpaceOnUse" color-interpolation-filters="sRGB">
<feFlood flood-opacity="0" result="BackgroundImageFix"/>
<feColorMatrix in="SourceAlpha" type="matrix" values="0 0 0 0 0 0 0 0 0 0 0 0 0 0 0 0 0 0 127 0" result="hardAlpha"/>
<feOffset dx="6.76297" dy="6.76297"/>
<feGaussianBlur stdDeviation="30.4334"/>
<feColorMatrix type="matrix" values="0 0 0 0 0 0 0 0 0 0 0 0 0 0 0 0 0 0 0.05 0"/>
<feBlend mode="normal" in2="BackgroundImageFix" result="effect1_dropShadow_120_1890"/>
<feBlend mode="normal" in="SourceGraphic" in2="effect1_dropShadow_120_1890" result="shape"/>
</filter>
<filter id="filter1_d_120_1890" x="110.831" y="69.4348" width="45.048" height="56.6796" filterUnits="userSpaceOnUse" color-interpolation-filters="sRGB">
<feFlood flood-opacity="0" result="BackgroundImageFix"/>
<feColorMatrix in="SourceAlpha" type="matrix" values="0 0 0 0 0 0 0 0 0 0 0 0 0 0 0 0 0 0 127 0" result="hardAlpha"/>
<feOffset dy="2.61975"/>
<feComposite in2="hardAlpha" operator="out"/>
<feColorMatrix type="matrix" values="0 0 0 0 0.263166 0 0 0 0 0.00521065 0 0 0 0 0.00105008 0 0 0 1 0"/>
<feBlend mode="normal" in2="BackgroundImageFix" result="effect1_dropShadow_120_1890"/>
<feBlend mode="normal" in="SourceGraphic" in2="effect1_dropShadow_120_1890" result="shape"/>
</filter>
<filter id="filter2_i_120_1890" x="116.989" y="100.106" width="32.1036" height="20.5786" filterUnits="userSpaceOnUse" color-interpolation-filters="sRGB">
<feFlood flood-opacity="0" result="BackgroundImageFix"/>
<feBlend mode="normal" in="SourceGraphic" in2="BackgroundImageFix" result="shape"/>
<feColorMatrix in="SourceAlpha" type="matrix" values="0 0 0 0 0 0 0 0 0 0 0 0 0 0 0 0 0 0 127 0" result="hardAlpha"/>
<feOffset dy="-1.67757"/>
<feComposite in2="hardAlpha" operator="arithmetic" k2="-1" k3="1"/>
<feColorMatrix type="matrix" values="0 0 0 0 1 0 0 0 0 0.849187 0 0 0 0 0.0574204 0 0 0 0.33 0"/>
<feBlend mode="normal" in2="shape" result="effect1_innerShadow_120_1890"/>
</filter>
<filter id="filter3_d_120_1890" x="113.285" y="72.1975" width="38.3632" height="42.1697" filterUnits="userSpaceOnUse" color-interpolation-filters="sRGB">
<feFlood flood-opacity="0" result="BackgroundImageFix"/>
<feColorMatrix in="SourceAlpha" type="matrix" values="0 0 0 0 0 0 0 0 0 0 0 0 0 0 0 0 0 0 127 0" result="hardAlpha"/>
<feOffset dy="2.99931"/>
<feComposite in2="hardAlpha" operator="out"/>
<feColorMatrix type="matrix" values="0 0 0 0 0.244828 0 0 0 0 0.127311 0 0 0 0 0 0 0 0 0.51 0"/>
<feBlend mode="normal" in2="BackgroundImageFix" result="effect1_dropShadow_120_1890"/>
<feBlend mode="normal" in="SourceGraphic" in2="effect1_dropShadow_120_1890" result="shape"/>
</filter>
<filter id="filter4_d_120_1890" x="115.693" y="88.8037" width="13.3031" height="15.7433" filterUnits="userSpaceOnUse" color-interpolation-filters="sRGB">
<feFlood flood-opacity="0" result="BackgroundImageFix"/>
<feColorMatrix in="SourceAlpha" type="matrix" values="0 0 0 0 0 0 0 0 0 0 0 0 0 0 0 0 0 0 127 0" result="hardAlpha"/>
<feOffset dy="0.186397"/>
<feComposite in2="hardAlpha" operator="out"/>
<feColorMatrix type="matrix" values="0 0 0 0 1 0 0 0 0 1 0 0 0 0 1 0 0 0 0.25 0"/>
<feBlend mode="normal" in2="BackgroundImageFix" result="effect1_dropShadow_120_1890"/>
<feBlend mode="normal" in="SourceGraphic" in2="effect1_dropShadow_120_1890" result="shape"/>
</filter>
<filter id="filter5_d_120_1890" x="120.447" y="90.4829" width="2.6972" height="3.17346" filterUnits="userSpaceOnUse" color-interpolation-filters="sRGB">
<feFlood flood-opacity="0" result="BackgroundImageFix"/>
<feColorMatrix in="SourceAlpha" type="matrix" values="0 0 0 0 0 0 0 0 0 0 0 0 0 0 0 0 0 0 127 0" result="hardAlpha"/>
<feOffset dy="0.186397"/>
<feComposite in2="hardAlpha" operator="out"/>
<feColorMatrix type="matrix" values="0 0 0 0 0 0 0 0 0 0 0 0 0 0 0 0 0 0 0.25 0"/>
<feBlend mode="normal" in2="BackgroundImageFix" result="effect1_dropShadow_120_1890"/>
<feBlend mode="normal" in="SourceGraphic" in2="effect1_dropShadow_120_1890" result="shape"/>
</filter>
<filter id="filter6_d_120_1890" x="120.782" y="95.0947" width="2.6972" height="3.17346" filterUnits="userSpaceOnUse" color-interpolation-filters="sRGB">
<feFlood flood-opacity="0" result="BackgroundImageFix"/>
<feColorMatrix in="SourceAlpha" type="matrix" values="0 0 0 0 0 0 0 0 0 0 0 0 0 0 0 0 0 0 127 0" result="hardAlpha"/>
<feOffset dy="0.186397"/>
<feComposite in2="hardAlpha" operator="out"/>
<feColorMatrix type="matrix" values="0 0 0 0 0 0 0 0 0 0 0 0 0 0 0 0 0 0 0.25 0"/>
<feBlend mode="normal" in2="BackgroundImageFix" result="effect1_dropShadow_120_1890"/>
<feBlend mode="normal" in="SourceGraphic" in2="effect1_dropShadow_120_1890" result="shape"/>
</filter>
<filter id="filter7_d_120_1890" x="116.846" y="93.2869" width="2.6972" height="3.17346" filterUnits="userSpaceOnUse" color-interpolation-filters="sRGB">
<feFlood flood-opacity="0" result="BackgroundImageFix"/>
<feColorMatrix in="SourceAlpha" type="matrix" values="0 0 0 0 0 0 0 0 0 0 0 0 0 0 0 0 0 0 127 0" result="hardAlpha"/>
<feOffset dy="0.186397"/>
<feComposite in2="hardAlpha" operator="out"/>
<feColorMatrix type="matrix" values="0 0 0 0 0 0 0 0 0 0 0 0 0 0 0 0 0 0 0.25 0"/>
<feBlend mode="normal" in2="BackgroundImageFix" result="effect1_dropShadow_120_1890"/>
<feBlend mode="normal" in="SourceGraphic" in2="effect1_dropShadow_120_1890" result="shape"/>
</filter>
<filter id="filter8_d_120_1890" x="120.834" y="99.7214" width="2.6972" height="3.17346" filterUnits="userSpaceOnUse" color-interpolation-filters="sRGB">
<feFlood flood-opacity="0" result="BackgroundImageFix"/>
<feColorMatrix in="SourceAlpha" type="matrix" values="0 0 0 0 0 0 0 0 0 0 0 0 0 0 0 0 0 0 127 0" result="hardAlpha"/>
<feOffset dy="0.186397"/>
<feComposite in2="hardAlpha" operator="out"/>
<feColorMatrix type="matrix" values="0 0 0 0 0 0 0 0 0 0 0 0 0 0 0 0 0 0 0.25 0"/>
<feBlend mode="normal" in2="BackgroundImageFix" result="effect1_dropShadow_120_1890"/>
<feBlend mode="normal" in="SourceGraphic" in2="effect1_dropShadow_120_1890" result="shape"/>
</filter>
<filter id="filter9_d_120_1890" x="124.865" y="96.8945" width="2.6972" height="3.17346" filterUnits="userSpaceOnUse" color-interpolation-filters="sRGB">
<feFlood flood-opacity="0" result="BackgroundImageFix"/>
<feColorMatrix in="SourceAlpha" type="matrix" values="0 0 0 0 0 0 0 0 0 0 0 0 0 0 0 0 0 0 127 0" result="hardAlpha"/>
<feOffset dy="0.186397"/>
<feComposite in2="hardAlpha" operator="out"/>
<feColorMatrix type="matrix" values="0 0 0 0 0 0 0 0 0 0 0 0 0 0 0 0 0 0 0.25 0"/>
<feBlend mode="normal" in2="BackgroundImageFix" result="effect1_dropShadow_120_1890"/>
<feBlend mode="normal" in="SourceGraphic" in2="effect1_dropShadow_120_1890" result="shape"/>
</filter>
<filter id="filter10_d_120_1890" x="142.115" y="90.4583" width="8.79401" height="16.6684" filterUnits="userSpaceOnUse" color-interpolation-filters="sRGB">
<feFlood flood-opacity="0" result="BackgroundImageFix"/>
<feColorMatrix in="SourceAlpha" type="matrix" values="0 0 0 0 0 0 0 0 0 0 0 0 0 0 0 0 0 0 127 0" result="hardAlpha"/>
<feOffset dy="0.745588"/>
<feComposite in2="hardAlpha" operator="out"/>
<feColorMatrix type="matrix" values="0 0 0 0 0 0 0 0 0 0 0 0 0 0 0 0 0 0 0.25 0"/>
<feBlend mode="normal" in2="BackgroundImageFix" result="effect1_dropShadow_120_1890"/>
<feBlend mode="normal" in="SourceGraphic" in2="effect1_dropShadow_120_1890" result="shape"/>
</filter>
<linearGradient id="paint0_linear_120_1890" x1="126.169" y1="25.6597" x2="274.163" y2="197.283" gradientUnits="userSpaceOnUse">
<stop stop-color="#F1F1F1"/>
<stop offset="1" stop-color="#E1E1E1"/>
</linearGradient>
<linearGradient id="paint1_linear_120_1890" x1="127.752" y1="72.4527" x2="147.745" y2="115.503" gradientUnits="userSpaceOnUse">
<stop stop-color="#FDFD57"/>
<stop offset="1" stop-color="#FFA600"/>
</linearGradient>
<linearGradient id="paint2_linear_120_1890" x1="132.226" y1="83.6491" x2="155.369" y2="100.044" gradientUnits="userSpaceOnUse">
<stop stop-color="#FFAE10"/>
<stop offset="1" stop-color="#F86800"/>
</linearGradient>
<linearGradient id="paint3_linear_120_1890" x1="132.226" y1="83.6491" x2="155.369" y2="100.044" gradientUnits="userSpaceOnUse">
<stop stop-color="#FFAE10"/>
<stop offset="1" stop-color="#F86800"/>
</linearGradient>
<linearGradient id="paint4_linear_120_1890" x1="133.846" y1="116.837" x2="149.409" y2="108.64" gradientUnits="userSpaceOnUse">
<stop stop-color="#FFB800"/>
<stop offset="1" stop-color="#E76304"/>
</linearGradient>
<linearGradient id="paint5_linear_120_1890" x1="130.977" y1="67.3301" x2="131.079" y2="124.357" gradientUnits="userSpaceOnUse">
<stop stop-color="#FFF6A5"/>
<stop offset="0.869792" stop-color="#FF7507"/>
<stop offset="1" stop-color="#F8862B"/>
</linearGradient>
<linearGradient id="paint6_linear_120_1890" x1="131.897" y1="72.2144" x2="132.494" y2="92.3637" gradientUnits="userSpaceOnUse">
<stop stop-color="#FFFCD2"/>
<stop offset="0.315" stop-color="#FDED04"/>
<stop offset="1" stop-color="#FDED04" stop-opacity="0"/>
</linearGradient>
<linearGradient id="paint7_linear_120_1890" x1="132.684" y1="83.7745" x2="133.329" y2="104.76" gradientUnits="userSpaceOnUse">
<stop stop-color="#FBD211"/>
<stop offset="1" stop-color="#FBD211" stop-opacity="0"/>
</linearGradient>
<linearGradient id="paint8_linear_120_1890" x1="131.953" y1="73.6085" x2="132.229" y2="82.6022" gradientUnits="userSpaceOnUse">
<stop stop-color="#FF8933"/>
<stop offset="1" stop-color="#E98019"/>
</linearGradient>
<linearGradient id="paint9_linear_120_1890" x1="142.681" y1="89.1666" x2="152.492" y2="107.011" gradientUnits="userSpaceOnUse">
<stop stop-color="#CCB22A"/>
<stop offset="0.16637" stop-color="#FFD600"/>
<stop offset="0.389385" stop-color="#F3FFAA"/>
<stop offset="1" stop-color="#F54710"/>
</linearGradient>
<linearGradient id="paint10_linear_120_1890" x1="146.483" y1="105.812" x2="150.994" y2="95.5123" gradientUnits="userSpaceOnUse">
<stop stop-color="#FF9F10"/>
<stop offset="1" stop-color="#FFC226"/>
</linearGradient>
<linearGradient id="paint11_linear_120_1890" x1="69.164" y1="25.6597" x2="129.934" y2="38.5566" gradientUnits="userSpaceOnUse">
<stop stop-color="#F1F1F1"/>
<stop offset="1" stop-color="#E1E1E1"/>
</linearGradient>
</defs>
</svg>
