<svg width="432" height="209" viewBox="0 0 432 209" fill="none" xmlns="http://www.w3.org/2000/svg">
<g filter="url(#filter0_d_120_1942)">
<rect x="56.3948" y="56" width="306" height="84" rx="12.98" fill="white"/>
<rect x="56.3948" y="56" width="306" height="84" rx="12.98" stroke="url(#paint0_linear_120_1942)" stroke-opacity="0.3" stroke-width="2.60316"/>
</g>
<g filter="url(#filter1_d_120_1942)">
<mask id="path-3-outside-1_120_1942" maskUnits="userSpaceOnUse" x="108.124" y="68.5518" width="53" height="57" fill="black">
<rect fill="white" x="108.124" y="68.5518" width="53" height="57"/>
<path fill-rule="evenodd" clip-rule="evenodd" d="M136.493 71.9286C135.881 71.6854 135.214 71.5518 134.515 71.5518C133.331 71.5518 132.237 71.9359 131.35 72.5862C130.149 73.4662 129.328 74.8342 129.179 76.3982C129.117 76.4124 129.055 76.4268 128.994 76.4415C128.326 75.9602 127.506 75.6767 126.62 75.6767C125.623 75.6767 124.71 76.0354 124.003 76.6308C123.294 77.2278 122.792 78.0626 122.62 79.0123C115.74 83.0623 111.124 90.5446 111.124 99.1051C111.124 111.973 121.555 122.405 134.423 122.405C147.291 122.405 157.723 111.973 157.723 99.1051C157.723 90.1272 152.645 82.3352 145.204 78.4447C144.663 76.8356 143.142 75.6767 141.35 75.6767C140.8 75.6767 140.275 75.786 139.797 75.9841C139.473 74.1312 138.198 72.6054 136.493 71.9286Z"/>
</mask>
<path fill-rule="evenodd" clip-rule="evenodd" d="M136.493 71.9286C135.881 71.6854 135.214 71.5518 134.515 71.5518C133.331 71.5518 132.237 71.9359 131.35 72.5862C130.149 73.4662 129.328 74.8342 129.179 76.3982C129.117 76.4124 129.055 76.4268 128.994 76.4415C128.326 75.9602 127.506 75.6767 126.62 75.6767C125.623 75.6767 124.71 76.0354 124.003 76.6308C123.294 77.2278 122.792 78.0626 122.62 79.0123C115.74 83.0623 111.124 90.5446 111.124 99.1051C111.124 111.973 121.555 122.405 134.423 122.405C147.291 122.405 157.723 111.973 157.723 99.1051C157.723 90.1272 152.645 82.3352 145.204 78.4447C144.663 76.8356 143.142 75.6767 141.35 75.6767C140.8 75.6767 140.275 75.786 139.797 75.9841C139.473 74.1312 138.198 72.6054 136.493 71.9286Z" fill="black"/>
<path d="M134.515 71.5518L134.515 68.9592L134.515 68.9592L134.515 71.5518ZM136.493 71.9286L135.535 74.3379L135.536 74.3382L136.493 71.9286ZM131.35 72.5862L132.882 74.6774L132.883 74.677L131.35 72.5862ZM129.179 76.3982L129.76 78.9248L131.582 78.5057L131.759 76.6444L129.179 76.3982ZM128.994 76.4415L127.478 78.5449L128.441 79.2388L129.596 78.9632L128.994 76.4415ZM124.003 76.6308L125.673 78.6142L125.673 78.614L124.003 76.6308ZM122.62 79.0123L123.935 81.2465L124.959 80.6438L125.171 79.4749L122.62 79.0123ZM145.204 78.4447L142.747 79.2714L143.079 80.2592L144.003 80.7421L145.204 78.4447ZM139.797 75.9841L137.243 76.4305L137.8 79.6166L140.788 78.3796L139.797 75.9841ZM134.515 71.5518V74.1443C134.881 74.1443 135.223 74.2138 135.535 74.3379L136.493 71.9286L137.451 69.5194C136.539 69.1571 135.547 68.9592 134.515 68.9592V71.5518ZM131.35 72.5862L132.883 74.677C133.34 74.3416 133.901 74.1444 134.515 74.1443L134.515 71.5518L134.515 68.9592C132.761 68.9593 131.133 69.5301 129.817 70.4953L131.35 72.5862ZM129.179 76.3982L131.759 76.6444C131.836 75.8433 132.256 75.1362 132.882 74.6774L131.35 72.5862L129.817 70.495C128.041 71.7963 126.82 73.8251 126.598 76.152L129.179 76.3982ZM128.994 76.4415L129.596 78.9632C129.65 78.9502 129.705 78.9374 129.76 78.9248L129.179 76.3982L128.597 73.8716C128.529 73.8874 128.46 73.9034 128.392 73.9197L128.994 76.4415ZM126.62 75.6767V78.2693C126.944 78.2693 127.237 78.371 127.478 78.5449L128.994 76.4415L130.51 74.3381C129.415 73.5494 128.068 73.0841 126.62 73.0841V75.6767ZM124.003 76.6308L125.673 78.614C125.93 78.3974 126.257 78.2693 126.62 78.2693V75.6767V73.0841C124.99 73.0841 123.49 73.6734 122.333 74.6477L124.003 76.6308ZM122.62 79.0123L125.171 79.4749C125.232 79.1374 125.411 78.8343 125.673 78.6142L124.003 76.6308L122.333 74.6475C121.177 75.6213 120.352 76.9879 120.069 78.5498L122.62 79.0123ZM111.124 99.1051H113.716C113.716 91.5003 117.814 84.8498 123.935 81.2465L122.62 79.0123L121.304 76.7782C113.666 81.2748 108.531 89.5888 108.531 99.1051H111.124ZM134.423 122.405V119.812C122.987 119.812 113.716 110.541 113.716 99.1051H111.124H108.531C108.531 113.405 120.123 124.997 134.423 124.997V122.405ZM157.723 99.1051H155.13C155.13 110.541 145.859 119.812 134.423 119.812V122.405V124.997C148.723 124.997 160.315 113.405 160.315 99.1051H157.723ZM145.204 78.4447L144.003 80.7421C150.622 84.2032 155.13 91.1298 155.13 99.1051H157.723H160.315C160.315 89.1245 154.667 80.4673 146.406 76.1472L145.204 78.4447ZM141.35 75.6767V78.2693C141.995 78.2693 142.55 78.6855 142.747 79.2714L145.204 78.4447L147.661 77.6179C146.776 74.9857 144.289 73.0841 141.35 73.0841V75.6767ZM139.797 75.9841L140.788 78.3796C140.958 78.3093 141.146 78.2693 141.35 78.2693V75.6767V73.0841C140.454 73.0841 139.593 73.2627 138.805 73.5887L139.797 75.9841ZM136.493 71.9286L135.536 74.3382C136.419 74.6886 137.077 75.481 137.243 76.4305L139.797 75.9841L142.351 75.5378C141.869 72.7814 139.976 70.5222 137.45 69.519L136.493 71.9286Z" fill="url(#paint1_linear_120_1942)" mask="url(#path-3-outside-1_120_1942)"/>
</g>
<g opacity="0.4" filter="url(#filter2_f_120_1942)">
<path d="M129.178 76.3983C129.437 73.6791 131.728 71.5522 134.515 71.5522C137.159 71.5522 139.356 73.4662 139.796 75.9843C140.275 75.7861 140.8 75.6768 141.35 75.6768C143.142 75.6768 144.662 76.8357 145.204 78.4447C152.644 82.3353 157.722 90.1272 157.722 99.1052C157.722 111.973 147.291 122.405 134.423 122.405C121.555 122.405 111.123 111.973 111.123 99.1052C111.123 90.5445 115.74 83.0621 122.62 79.0122C122.964 77.1153 124.624 75.6768 126.62 75.6768C127.506 75.6768 128.326 75.9603 128.994 76.4416C129.055 76.4269 129.116 76.4125 129.178 76.3983Z" fill="black"/>
<path d="M134.515 71.1987C137.189 71.1987 139.432 73.0351 140.056 75.5151C140.465 75.3899 140.9 75.3238 141.35 75.3237C143.247 75.3237 144.861 76.5194 145.487 78.1968C152.974 82.1668 158.075 90.039 158.075 99.105C158.075 112.168 147.486 122.758 134.423 122.758C121.36 122.758 110.77 112.168 110.77 99.105C110.77 90.4715 115.396 82.9198 122.303 78.7905C122.738 76.8074 124.505 75.3238 126.619 75.3237C127.446 75.3237 128.22 75.5522 128.882 75.9478C129.341 73.2514 131.688 71.1989 134.515 71.1987Z" stroke="black" stroke-width="0.707064"/>
</g>
<path d="M134.423 122.405C147.291 122.405 157.722 111.973 157.722 99.1052C157.722 86.2372 147.291 75.8057 134.423 75.8057C121.555 75.8057 111.123 86.2372 111.123 99.1052C111.123 111.973 121.555 122.405 134.423 122.405Z" fill="url(#paint2_linear_120_1942)"/>
<g filter="url(#filter3_i_120_1942)">
<path d="M134.457 120.693C146.367 120.693 156.022 111.038 156.022 99.1277C156.022 87.2174 146.367 77.5623 134.457 77.5623C122.546 77.5623 112.891 87.2174 112.891 99.1277C112.891 111.038 122.546 120.693 134.457 120.693Z" fill="url(#paint3_linear_120_1942)"/>
</g>
<path d="M134.457 117.511C144.61 117.511 152.84 109.281 152.84 99.1276C152.84 88.9745 144.61 80.7439 134.457 80.7439C124.304 80.7439 116.073 88.9745 116.073 99.1276C116.073 109.281 124.304 117.511 134.457 117.511Z" fill="url(#paint4_linear_120_1942)"/>
<path d="M134.457 117.511C144.61 117.511 152.84 109.281 152.84 99.1276C152.84 88.9745 144.61 80.7439 134.457 80.7439C124.304 80.7439 116.073 88.9745 116.073 99.1276C116.073 109.281 124.304 117.511 134.457 117.511Z" fill="#FF0000" fill-opacity="0.31"/>
<path d="M134.423 82.512C143.587 82.5121 151.017 89.9413 151.017 99.1057C151.017 108.27 143.587 115.699 134.423 115.699C125.259 115.699 117.83 108.27 117.829 99.1057C117.829 89.9412 125.259 82.512 134.423 82.512Z" fill="url(#paint5_linear_120_1942)" stroke="url(#paint6_linear_120_1942)" stroke-width="1.17844"/>
<path d="M134.515 71.5518C137.159 71.5518 139.354 73.4669 139.794 75.9854C140.273 75.7866 140.799 75.6768 141.35 75.6768C143.595 75.6768 145.415 77.497 145.415 79.7422C145.415 81.9872 143.595 83.8066 141.35 83.8066C139.657 83.8065 138.206 82.7716 137.595 81.2998C136.723 81.913 135.662 82.2754 134.515 82.2754C132.969 82.2753 131.577 81.6199 130.599 80.5732C130.215 82.4196 128.579 83.8066 126.619 83.8066C124.374 83.8065 122.554 81.9871 122.554 79.7422C122.554 77.4971 124.374 75.6769 126.619 75.6768C127.583 75.6768 128.468 76.0127 129.165 76.5732C129.341 73.7709 131.668 71.5519 134.515 71.5518Z" fill="url(#paint7_linear_120_1942)"/>
<g filter="url(#filter4_d_120_1942)">
<path d="M126.62 83.8071C128.865 83.8071 130.685 81.9871 130.685 79.742C130.685 77.4968 128.865 75.6768 126.62 75.6768C124.374 75.6768 122.554 77.4968 122.554 79.742C122.554 81.9871 124.374 83.8071 126.62 83.8071Z" fill="url(#paint8_linear_120_1942)"/>
<path d="M126.62 83.8071C128.865 83.8071 130.685 81.9871 130.685 79.742C130.685 77.4968 128.865 75.6768 126.62 75.6768C124.374 75.6768 122.554 77.4968 122.554 79.742C122.554 81.9871 124.374 83.8071 126.62 83.8071Z" fill="url(#paint9_linear_120_1942)"/>
</g>
<g filter="url(#filter5_i_120_1942)">
<path d="M126.62 82.4313C128.224 82.4313 129.524 81.131 129.524 79.5271C129.524 77.9231 128.224 76.6228 126.62 76.6228C125.016 76.6228 123.715 77.9231 123.715 79.5271C123.715 81.131 125.016 82.4313 126.62 82.4313Z" fill="url(#paint10_linear_120_1942)"/>
</g>
<g filter="url(#filter6_d_120_1942)">
<path d="M141.35 83.8071C143.595 83.8071 145.415 81.9871 145.415 79.742C145.415 77.4968 143.595 75.6768 141.35 75.6768C139.105 75.6768 137.285 77.4968 137.285 79.742C137.285 81.9871 139.105 83.8071 141.35 83.8071Z" fill="url(#paint11_linear_120_1942)"/>
</g>
<g filter="url(#filter7_i_120_1942)">
<path d="M141.35 82.4313C142.954 82.4313 144.254 81.131 144.254 79.5271C144.254 77.9231 142.954 76.6228 141.35 76.6228C139.746 76.6228 138.446 77.9231 138.446 79.5271C138.446 81.131 139.746 82.4313 141.35 82.4313Z" fill="url(#paint12_linear_120_1942)"/>
</g>
<g filter="url(#filter8_d_120_1942)">
<path d="M134.515 82.2752C137.476 82.2752 139.877 79.8748 139.877 76.9137C139.877 73.9527 137.476 71.5522 134.515 71.5522C131.554 71.5522 129.154 73.9527 129.154 76.9137C129.154 79.8748 131.554 82.2752 134.515 82.2752Z" fill="url(#paint13_linear_120_1942)"/>
</g>
<g filter="url(#filter9_i_120_1942)">
<path d="M134.515 80.743C136.89 80.743 138.816 78.8174 138.816 76.4422C138.816 74.0669 136.89 72.1414 134.515 72.1414C132.14 72.1414 130.214 74.0669 130.214 76.4422C130.214 78.8174 132.14 80.743 134.515 80.743Z" fill="url(#paint14_linear_120_1942)"/>
</g>
<path d="M129.895 88.7297C130.917 87.3748 129.813 85.6495 128.286 86.3897V86.3897C128.03 86.5137 127.818 86.6985 127.646 86.9254L121.212 95.4527C120.81 95.9848 120.521 96.5983 120.435 97.2593C120.356 97.8633 120.315 98.4793 120.315 99.1048V99.1048C120.315 99.8935 121.273 100.154 121.749 99.5246L129.895 88.7297Z" fill="url(#paint15_linear_120_1942)"/>
<path d="M123.753 104.309C123.046 105.247 121.622 105.162 121.21 104.062V104.062C121.024 103.567 121.125 103.009 121.444 102.586L134.217 85.6585C134.536 85.2363 135.052 84.9868 135.579 85.029V85.029C136.75 85.1227 137.217 86.4669 136.509 87.4048L123.753 104.309Z" fill="url(#paint16_linear_120_1942)"/>
<path d="M126.251 108.44C125.693 109.179 124.62 109.298 123.996 108.614V108.614C123.512 108.082 123.516 107.282 123.949 106.707L138.872 86.9319C139.305 86.3571 140.078 86.1353 140.723 86.4563V86.4563C141.552 86.869 141.727 87.9316 141.169 88.6706L126.251 108.44Z" fill="url(#paint17_linear_120_1942)"/>
<path d="M129.801 111.176C129.362 111.758 128.576 111.977 127.929 111.641V111.641C127.117 111.218 126.952 110.168 127.504 109.438L142.47 89.6045C143.021 88.8737 144.079 88.7479 144.708 89.4137V89.4137C145.208 89.9438 145.211 90.7557 144.772 91.3376L129.801 111.176Z" fill="url(#paint18_linear_120_1942)"/>
<path d="M134.395 112.529C134.071 112.959 133.543 113.209 133.007 113.155V113.155C131.853 113.039 131.404 111.709 132.103 110.783L145.028 93.6554C145.726 92.7301 147.13 92.8013 147.559 93.8782V93.8782C147.759 94.3789 147.661 94.9491 147.337 95.3795L134.395 112.529Z" fill="url(#paint19_linear_120_1942)"/>
<path d="M140.798 111.485C140.617 111.726 140.388 111.918 140.112 112.039V112.039C138.606 112.701 137.553 111.003 138.544 109.69L146.891 98.6271C147.445 97.8931 148.558 98.1854 148.558 99.1048V99.1048C148.558 99.5329 148.539 99.9565 148.502 100.375C148.438 101.092 148.136 101.762 147.702 102.336L140.798 111.485Z" fill="url(#paint20_linear_120_1942)"/>
<g style="mix-blend-mode:overlay" opacity="0.6">
<path d="M134.515 71.5518C137.159 71.5519 139.357 73.4664 139.797 75.9844C140.275 75.7863 140.8 75.6768 141.35 75.6768C143.142 75.6769 144.662 76.8355 145.204 78.4443C152.644 82.3349 157.722 90.1275 157.722 99.1055C157.722 100.038 157.665 100.957 157.558 101.86C151.311 104.493 143.253 106.08 134.456 106.08C125.626 106.08 117.54 104.481 111.283 101.831C111.179 100.937 111.123 100.028 111.123 99.1055C111.123 90.5448 115.74 83.0617 122.62 79.0117C122.964 77.1151 124.624 75.6768 126.62 75.6768C127.506 75.6768 128.326 75.9602 128.994 76.4414C129.055 76.4268 129.117 76.4126 129.179 76.3984C129.438 73.6792 131.728 71.5518 134.515 71.5518Z" fill="white"/>
</g>
<path d="M137.762 91.9828L134.558 88.3348C133.345 86.9534 131.093 87.3943 130.49 89.1311L128.898 93.7179C128.85 93.8562 128.746 93.9679 128.611 94.0258L124.152 95.9458C123.472 96.2383 123.021 96.7819 122.82 97.3995C122.8 97.4631 122.777 97.5259 122.754 97.5887C122.625 97.9385 122.62 98.329 122.746 98.685C122.768 98.7488 122.791 98.8127 122.811 98.8773C122.952 99.3255 123.23 99.7418 123.652 100.061L127.522 102.993C127.639 103.081 127.713 103.215 127.726 103.361L128.174 108.195C128.218 108.666 128.388 109.08 128.642 109.416C128.725 109.527 128.801 109.644 128.877 109.76C129.25 110.336 129.975 110.622 130.649 110.43C130.782 110.392 130.916 110.354 131.052 110.326C131.355 110.263 131.654 110.137 131.934 109.942L135.918 107.168C136.038 107.084 136.188 107.055 136.331 107.087L141.067 108.155C141.399 108.23 141.724 108.233 142.029 108.178C142.165 108.153 142.303 108.137 142.441 108.122C143.138 108.046 143.701 107.508 143.83 106.833C143.856 106.697 143.882 106.561 143.918 106.427C144.026 106.019 144.028 105.572 143.891 105.119L142.483 100.472C142.44 100.332 142.459 100.181 142.533 100.055L145.013 95.8803C145.283 95.4253 145.383 94.9351 145.345 94.4667C145.339 94.3993 145.336 94.3316 145.333 94.264C145.315 93.8868 145.163 93.5273 144.912 93.2518C144.867 93.2024 144.822 93.1528 144.779 93.1018C144.36 92.6054 143.738 92.2718 142.998 92.257L138.144 92.16C137.997 92.1571 137.859 92.0928 137.762 91.9828Z" fill="#FF7400"/>
<path d="M129.784 88.6431C130.703 86.4819 133.601 85.9808 135.185 87.7842L138.297 91.3275L143.015 91.4231L143.199 91.4319C144.112 91.5002 144.887 91.9362 145.416 92.5641C145.448 92.6018 145.484 92.6409 145.529 92.6904L145.664 92.852C145.92 93.1869 146.089 93.5867 146.147 94.0114L146.167 94.2254L146.177 94.3986C146.222 94.9554 146.123 95.5334 145.855 96.0765L145.73 96.306L143.321 100.362L144.689 104.877L144.749 105.104C144.852 105.556 144.855 106.006 144.772 106.43L144.724 106.641L144.65 106.99C144.466 107.951 143.706 108.731 142.73 108.922L142.532 108.952L142.178 108.998C141.815 109.064 141.435 109.069 141.049 109.002L140.884 108.969L136.281 107.931L132.41 110.627C132.038 110.886 131.635 111.056 131.223 111.142L130.877 111.233C129.907 111.509 128.881 111.142 128.289 110.373L128.176 110.214L127.976 109.919C127.63 109.461 127.402 108.9 127.343 108.272L126.907 103.574L123.148 100.726C122.655 100.352 122.304 99.8751 122.096 99.3536L122.016 99.1274L121.959 98.9644C121.766 98.4211 121.777 97.8298 121.971 97.3013L122.027 97.142L122.081 96.9861C122.375 96.2174 122.967 95.5478 123.821 95.1798L128.154 93.3128L129.702 88.8573L129.784 88.6431Z" stroke="url(#paint21_linear_120_1942)" stroke-opacity="0.8" stroke-width="1.66877"/>
<path d="M130.319 89.5432C130.941 87.7514 133.265 87.2966 134.517 88.7217L137.076 91.6353C137.534 92.1573 138.191 92.4625 138.886 92.4764L142.763 92.5538C144.659 92.5917 145.81 94.6611 144.841 96.2918L142.861 99.6259C142.506 100.223 142.419 100.942 142.62 101.607L143.745 105.318C144.295 107.134 142.682 108.867 140.832 108.45L137.049 107.597C136.371 107.444 135.66 107.583 135.09 107.98L131.908 110.197C130.352 111.281 128.205 110.283 128.03 108.394L127.672 104.533C127.608 103.841 127.256 103.208 126.702 102.789L123.611 100.447C122.099 99.3018 122.385 96.9514 124.127 96.2014L127.688 94.668C128.327 94.3933 128.82 93.8629 129.048 93.2065L130.319 89.5432Z" fill="url(#paint22_linear_120_1942)"/>
<path d="M130.447 89.1342C131.01 87.5134 133.111 87.1019 134.244 88.391L137.15 91.7006C137.565 92.1728 138.159 92.4487 138.788 92.4613L143.191 92.5492C144.907 92.5835 145.948 94.4557 145.072 95.9311L143.583 98.4369C139.852 99.2235 135.608 99.6723 131.106 99.6723C128.089 99.6722 125.188 99.4686 122.479 99.1C122.15 98.0636 122.603 96.8429 123.727 96.3588L127.772 94.6176C128.349 94.369 128.796 93.8891 129.003 93.2953L130.447 89.1342Z" fill="url(#paint23_linear_120_1942)"/>
<path d="M190.641 105L183.733 89.49H186.747L192.357 102.492H191.411L196.999 89.49H199.903L192.995 105H190.641ZM202.04 91.932V89.248H205.12V91.932H202.04ZM202.216 105V94.242H204.966V105H202.216ZM213.923 105.22C212.793 105.22 211.811 104.993 210.975 104.538C210.139 104.069 209.493 103.409 209.039 102.558C208.584 101.707 208.357 100.71 208.357 99.566C208.357 98.422 208.584 97.4393 209.039 96.618C209.493 95.782 210.139 95.144 210.975 94.704C211.811 94.2493 212.793 94.022 213.923 94.022C214.612 94.022 215.294 94.132 215.969 94.352C216.643 94.572 217.201 94.88 217.641 95.276L216.827 97.19C216.445 96.8527 216.013 96.596 215.529 96.42C215.059 96.244 214.605 96.156 214.165 96.156C213.211 96.156 212.471 96.4567 211.943 97.058C211.429 97.6447 211.173 98.488 211.173 99.588C211.173 100.673 211.429 101.531 211.943 102.162C212.471 102.778 213.211 103.086 214.165 103.086C214.59 103.086 215.045 102.998 215.529 102.822C216.013 102.646 216.445 102.382 216.827 102.03L217.641 103.966C217.201 104.347 216.636 104.655 215.947 104.89C215.272 105.11 214.597 105.22 213.923 105.22ZM225.426 105.22C223.988 105.22 222.918 104.861 222.214 104.142C221.51 103.423 221.158 102.375 221.158 100.996V96.31H219.09V94.242H221.158V91.03H223.908V94.242H227.164V96.31H223.908V100.842C223.908 101.546 224.062 102.074 224.37 102.426C224.678 102.778 225.176 102.954 225.866 102.954C226.071 102.954 226.284 102.932 226.504 102.888C226.724 102.829 226.951 102.771 227.186 102.712L227.604 104.736C227.34 104.883 227.002 105 226.592 105.088C226.196 105.176 225.807 105.22 225.426 105.22ZM234.867 105.22C233.752 105.22 232.784 104.993 231.963 104.538C231.142 104.083 230.504 103.438 230.049 102.602C229.594 101.751 229.367 100.754 229.367 99.61C229.367 98.466 229.594 97.476 230.049 96.64C230.504 95.804 231.142 95.1587 231.963 94.704C232.784 94.2493 233.752 94.022 234.867 94.022C235.982 94.022 236.95 94.2493 237.771 94.704C238.592 95.1587 239.23 95.804 239.685 96.64C240.14 97.476 240.367 98.466 240.367 99.61C240.367 100.754 240.14 101.751 239.685 102.602C239.23 103.438 238.592 104.083 237.771 104.538C236.95 104.993 235.982 105.22 234.867 105.22ZM234.867 103.13C235.688 103.13 236.348 102.837 236.847 102.25C237.346 101.649 237.595 100.769 237.595 99.61C237.595 98.4367 237.346 97.564 236.847 96.992C236.348 96.4053 235.688 96.112 234.867 96.112C234.046 96.112 233.386 96.4053 232.887 96.992C232.388 97.564 232.139 98.4367 232.139 99.61C232.139 100.769 232.388 101.649 232.887 102.25C233.386 102.837 234.046 103.13 234.867 103.13ZM243.764 105V94.242H246.448V96.838H246.228C246.433 95.958 246.836 95.2907 247.438 94.836C248.039 94.3667 248.838 94.0953 249.836 94.022L250.672 93.956L250.848 96.288L249.264 96.442C248.369 96.53 247.694 96.8087 247.24 97.278C246.785 97.7327 246.558 98.378 246.558 99.214V105H243.764ZM255.14 108.96L257.384 104.01V105.154L252.654 94.242H255.58L258.924 102.58H258.264L261.674 94.242H264.446L257.978 108.96H255.14ZM274.2 105V89.49H280.932C282.634 89.49 283.946 89.9007 284.87 90.722C285.794 91.5287 286.256 92.6653 286.256 94.132C286.256 95.0853 286.044 95.9067 285.618 96.596C285.208 97.2853 284.606 97.8133 283.814 98.18C283.022 98.5467 282.062 98.73 280.932 98.73L281.13 98.4H281.856C282.458 98.4 282.978 98.5467 283.418 98.84C283.873 99.1333 284.269 99.5953 284.606 100.226L287.202 105H284.1L281.416 100.05C281.24 99.7273 281.042 99.478 280.822 99.302C280.602 99.1113 280.353 98.9793 280.074 98.906C279.796 98.8327 279.473 98.796 279.106 98.796H277.016V105H274.2ZM277.016 96.706H280.448C281.46 96.706 282.223 96.5007 282.736 96.09C283.264 95.6647 283.528 95.034 283.528 94.198C283.528 93.3767 283.264 92.7607 282.736 92.35C282.223 91.9247 281.46 91.712 280.448 91.712H277.016V96.706ZM294.04 105.22C293.145 105.22 292.404 105.059 291.818 104.736C291.231 104.399 290.791 103.9 290.498 103.24C290.219 102.58 290.08 101.759 290.08 100.776V94.242H292.83V100.82C292.83 101.319 292.896 101.737 293.028 102.074C293.174 102.411 293.387 102.661 293.666 102.822C293.959 102.983 294.326 103.064 294.766 103.064C295.264 103.064 295.697 102.954 296.064 102.734C296.445 102.499 296.738 102.177 296.944 101.766C297.164 101.341 297.274 100.849 297.274 100.292V94.242H300.024V105H297.34V102.756H297.648C297.34 103.548 296.87 104.157 296.24 104.582C295.624 105.007 294.89 105.22 294.04 105.22ZM307.951 105.22C307.35 105.22 306.763 105.169 306.191 105.066C305.634 104.963 305.12 104.824 304.651 104.648C304.182 104.457 303.771 104.223 303.419 103.944L304.123 102.14C304.49 102.375 304.886 102.58 305.311 102.756C305.736 102.932 306.176 103.064 306.631 103.152C307.086 103.24 307.533 103.284 307.973 103.284C308.677 103.284 309.198 103.167 309.535 102.932C309.887 102.683 310.063 102.36 310.063 101.964C310.063 101.627 309.946 101.37 309.711 101.194C309.491 101.003 309.154 100.864 308.699 100.776L306.499 100.358C305.59 100.182 304.893 99.852 304.409 99.368C303.94 98.8693 303.705 98.2313 303.705 97.454C303.705 96.75 303.896 96.1413 304.277 95.628C304.673 95.1147 305.216 94.7187 305.905 94.44C306.594 94.1613 307.386 94.022 308.281 94.022C308.794 94.022 309.293 94.0733 309.777 94.176C310.261 94.264 310.716 94.4033 311.141 94.594C311.581 94.77 311.962 95.0047 312.285 95.298L311.537 97.102C311.258 96.8673 310.936 96.6693 310.569 96.508C310.202 96.332 309.821 96.2 309.425 96.112C309.044 96.0093 308.67 95.958 308.303 95.958C307.584 95.958 307.049 96.0827 306.697 96.332C306.36 96.5813 306.191 96.9113 306.191 97.322C306.191 97.63 306.294 97.8867 306.499 98.092C306.704 98.2973 307.02 98.4367 307.445 98.51L309.645 98.928C310.598 99.104 311.317 99.4267 311.801 99.896C312.3 100.365 312.549 100.996 312.549 101.788C312.549 102.507 312.358 103.123 311.977 103.636C311.596 104.149 311.06 104.545 310.371 104.824C309.682 105.088 308.875 105.22 307.951 105.22ZM315.882 105V89.49H318.632V96.398H318.324C318.647 95.6207 319.146 95.034 319.82 94.638C320.51 94.2273 321.287 94.022 322.152 94.022C323.018 94.022 323.729 94.1833 324.286 94.506C324.844 94.8287 325.262 95.32 325.54 95.98C325.819 96.6253 325.958 97.4467 325.958 98.444V105H323.208V98.576C323.208 98.0187 323.135 97.564 322.988 97.212C322.856 96.86 322.644 96.6033 322.35 96.442C322.072 96.266 321.712 96.178 321.272 96.178C320.744 96.178 320.282 96.2953 319.886 96.53C319.49 96.75 319.182 97.0727 318.962 97.498C318.742 97.9087 318.632 98.3927 318.632 98.95V105H315.882Z" fill="#202224"/>
<mask id="mask0_120_1942" style="mask-type:alpha" maskUnits="userSpaceOnUse" x="55" y="54" width="59" height="88">
<path d="M56.3948 68.98C56.3948 61.8113 62.2061 56 69.3748 56H87.4123C101.21 56 112.395 67.185 112.395 80.9825V115.018C112.395 128.815 101.21 140 87.4123 140H69.3748C62.2061 140 56.3948 134.189 56.3948 127.02V68.98Z" fill="white" stroke="url(#paint24_linear_120_1942)" stroke-opacity="0.3" stroke-width="2.60316"/>
</mask>
<g mask="url(#mask0_120_1942)">
<rect x="54.3948" y="54.3848" width="28" height="87.2308" fill="#587ED7"/>
</g>
<defs>
<filter id="filter0_d_120_1942" x="0.9894" y="0.594686" width="430.337" height="208.337" filterUnits="userSpaceOnUse" color-interpolation-filters="sRGB">
<feFlood flood-opacity="0" result="BackgroundImageFix"/>
<feColorMatrix in="SourceAlpha" type="matrix" values="0 0 0 0 0 0 0 0 0 0 0 0 0 0 0 0 0 0 127 0" result="hardAlpha"/>
<feOffset dx="6.76297" dy="6.76297"/>
<feGaussianBlur stdDeviation="30.4334"/>
<feColorMatrix type="matrix" values="0 0 0 0 0 0 0 0 0 0 0 0 0 0 0 0 0 0 0.05 0"/>
<feBlend mode="normal" in2="BackgroundImageFix" result="effect1_dropShadow_120_1942"/>
<feBlend mode="normal" in="SourceGraphic" in2="effect1_dropShadow_120_1942" result="shape"/>
</filter>
<filter id="filter1_d_120_1942" x="108.531" y="68.9592" width="51.7841" height="57.5698" filterUnits="userSpaceOnUse" color-interpolation-filters="sRGB">
<feFlood flood-opacity="0" result="BackgroundImageFix"/>
<feColorMatrix in="SourceAlpha" type="matrix" values="0 0 0 0 0 0 0 0 0 0 0 0 0 0 0 0 0 0 127 0" result="hardAlpha"/>
<feOffset dy="1.53197"/>
<feComposite in2="hardAlpha" operator="out"/>
<feColorMatrix type="matrix" values="0 0 0 0 0.266667 0 0 0 0 0.0196078 0 0 0 0 0.0196078 0 0 0 1 0"/>
<feBlend mode="normal" in2="BackgroundImageFix" result="effect1_dropShadow_120_1942"/>
<feBlend mode="normal" in="SourceGraphic" in2="effect1_dropShadow_120_1942" result="shape"/>
</filter>
<filter id="filter2_f_120_1942" x="109.002" y="69.4311" width="50.8414" height="55.0949" filterUnits="userSpaceOnUse" color-interpolation-filters="sRGB">
<feFlood flood-opacity="0" result="BackgroundImageFix"/>
<feBlend mode="normal" in="SourceGraphic" in2="BackgroundImageFix" result="shape"/>
<feGaussianBlur stdDeviation="0.707064" result="effect1_foregroundBlur_120_1942"/>
</filter>
<filter id="filter3_i_120_1942" x="112.891" y="77.5623" width="43.1309" height="43.1309" filterUnits="userSpaceOnUse" color-interpolation-filters="sRGB">
<feFlood flood-opacity="0" result="BackgroundImageFix"/>
<feBlend mode="normal" in="SourceGraphic" in2="BackgroundImageFix" result="shape"/>
<feColorMatrix in="SourceAlpha" type="matrix" values="0 0 0 0 0 0 0 0 0 0 0 0 0 0 0 0 0 0 127 0" result="hardAlpha"/>
<feOffset dy="6.59926"/>
<feComposite in2="hardAlpha" operator="arithmetic" k2="-1" k3="1"/>
<feColorMatrix type="matrix" values="0 0 0 0 0.993306 0 0 0 0 1 0 0 0 0 0.575 0 0 0 0.29 0"/>
<feBlend mode="normal" in2="shape" result="effect1_innerShadow_120_1942"/>
</filter>
<filter id="filter4_d_120_1942" x="122.554" y="75.6768" width="8.13037" height="8.93454" filterUnits="userSpaceOnUse" color-interpolation-filters="sRGB">
<feFlood flood-opacity="0" result="BackgroundImageFix"/>
<feColorMatrix in="SourceAlpha" type="matrix" values="0 0 0 0 0 0 0 0 0 0 0 0 0 0 0 0 0 0 127 0" result="hardAlpha"/>
<feOffset dy="0.804168"/>
<feComposite in2="hardAlpha" operator="out"/>
<feColorMatrix type="matrix" values="0 0 0 0 0.886275 0 0 0 0 0.380392 0 0 0 0 0.0196078 0 0 0 1 0"/>
<feBlend mode="normal" in2="BackgroundImageFix" result="effect1_dropShadow_120_1942"/>
<feBlend mode="normal" in="SourceGraphic" in2="effect1_dropShadow_120_1942" result="shape"/>
</filter>
<filter id="filter5_i_120_1942" x="123.715" y="76.6228" width="5.80847" height="5.80859" filterUnits="userSpaceOnUse" color-interpolation-filters="sRGB">
<feFlood flood-opacity="0" result="BackgroundImageFix"/>
<feBlend mode="normal" in="SourceGraphic" in2="BackgroundImageFix" result="shape"/>
<feColorMatrix in="SourceAlpha" type="matrix" values="0 0 0 0 0 0 0 0 0 0 0 0 0 0 0 0 0 0 127 0" result="hardAlpha"/>
<feOffset dy="2.71041"/>
<feComposite in2="hardAlpha" operator="arithmetic" k2="-1" k3="1"/>
<feColorMatrix type="matrix" values="0 0 0 0 1 0 0 0 0 0.976471 0 0 0 0 0.168627 0 0 0 1 0"/>
<feBlend mode="normal" in2="shape" result="effect1_innerShadow_120_1942"/>
</filter>
<filter id="filter6_d_120_1942" x="137.285" y="75.6768" width="8.13037" height="8.93454" filterUnits="userSpaceOnUse" color-interpolation-filters="sRGB">
<feFlood flood-opacity="0" result="BackgroundImageFix"/>
<feColorMatrix in="SourceAlpha" type="matrix" values="0 0 0 0 0 0 0 0 0 0 0 0 0 0 0 0 0 0 127 0" result="hardAlpha"/>
<feOffset dy="0.804168"/>
<feComposite in2="hardAlpha" operator="out"/>
<feColorMatrix type="matrix" values="0 0 0 0 0.886275 0 0 0 0 0.380392 0 0 0 0 0.0196078 0 0 0 1 0"/>
<feBlend mode="normal" in2="BackgroundImageFix" result="effect1_dropShadow_120_1942"/>
<feBlend mode="normal" in="SourceGraphic" in2="effect1_dropShadow_120_1942" result="shape"/>
</filter>
<filter id="filter7_i_120_1942" x="138.446" y="76.6228" width="5.80847" height="5.80859" filterUnits="userSpaceOnUse" color-interpolation-filters="sRGB">
<feFlood flood-opacity="0" result="BackgroundImageFix"/>
<feBlend mode="normal" in="SourceGraphic" in2="BackgroundImageFix" result="shape"/>
<feColorMatrix in="SourceAlpha" type="matrix" values="0 0 0 0 0 0 0 0 0 0 0 0 0 0 0 0 0 0 127 0" result="hardAlpha"/>
<feOffset dy="2.71041"/>
<feComposite in2="hardAlpha" operator="arithmetic" k2="-1" k3="1"/>
<feColorMatrix type="matrix" values="0 0 0 0 1 0 0 0 0 0.976471 0 0 0 0 0.168627 0 0 0 1 0"/>
<feBlend mode="normal" in2="shape" result="effect1_innerShadow_120_1942"/>
</filter>
<filter id="filter8_d_120_1942" x="129.154" y="71.5522" width="10.7229" height="11.7835" filterUnits="userSpaceOnUse" color-interpolation-filters="sRGB">
<feFlood flood-opacity="0" result="BackgroundImageFix"/>
<feColorMatrix in="SourceAlpha" type="matrix" values="0 0 0 0 0 0 0 0 0 0 0 0 0 0 0 0 0 0 127 0" result="hardAlpha"/>
<feOffset dy="1.0606"/>
<feComposite in2="hardAlpha" operator="out"/>
<feColorMatrix type="matrix" values="0 0 0 0 0.886275 0 0 0 0 0.380392 0 0 0 0 0.0196078 0 0 0 1 0"/>
<feBlend mode="normal" in2="BackgroundImageFix" result="effect1_dropShadow_120_1942"/>
<feBlend mode="normal" in="SourceGraphic" in2="effect1_dropShadow_120_1942" result="shape"/>
</filter>
<filter id="filter9_i_120_1942" x="130.214" y="72.1414" width="8.60156" height="8.60156" filterUnits="userSpaceOnUse" color-interpolation-filters="sRGB">
<feFlood flood-opacity="0" result="BackgroundImageFix"/>
<feBlend mode="normal" in="SourceGraphic" in2="BackgroundImageFix" result="shape"/>
<feColorMatrix in="SourceAlpha" type="matrix" values="0 0 0 0 0 0 0 0 0 0 0 0 0 0 0 0 0 0 127 0" result="hardAlpha"/>
<feOffset dy="2.71041"/>
<feComposite in2="hardAlpha" operator="arithmetic" k2="-1" k3="1"/>
<feColorMatrix type="matrix" values="0 0 0 0 1 0 0 0 0 0.976471 0 0 0 0 0.168627 0 0 0 1 0"/>
<feBlend mode="normal" in2="shape" result="effect1_innerShadow_120_1942"/>
</filter>
<linearGradient id="paint0_linear_120_1942" x1="126.169" y1="25.6597" x2="274.163" y2="197.283" gradientUnits="userSpaceOnUse">
<stop stop-color="#F1F1F1"/>
<stop offset="1" stop-color="#E1E1E1"/>
</linearGradient>
<linearGradient id="paint1_linear_120_1942" x1="134.423" y1="71.5518" x2="134.423" y2="122.405" gradientUnits="userSpaceOnUse">
<stop stop-color="#EF7E65"/>
<stop offset="1" stop-color="#771614"/>
</linearGradient>
<linearGradient id="paint2_linear_120_1942" x1="138.228" y1="80.7441" x2="139.877" y2="116.569" gradientUnits="userSpaceOnUse">
<stop stop-color="#FBFF01"/>
<stop offset="1" stop-color="#ED5528"/>
</linearGradient>
<linearGradient id="paint3_linear_120_1942" x1="128.27" y1="87.1665" x2="128.8" y2="134.127" gradientUnits="userSpaceOnUse">
<stop stop-color="#FFF854"/>
<stop offset="0.256068" stop-color="#FFF500"/>
<stop offset="1" stop-color="#FF1700"/>
</linearGradient>
<linearGradient id="paint4_linear_120_1942" x1="134.457" y1="85.5122" x2="131.689" y2="125.972" gradientUnits="userSpaceOnUse">
<stop stop-color="#F7DF0A"/>
<stop offset="1" stop-color="#ED4520"/>
</linearGradient>
<linearGradient id="paint5_linear_120_1942" x1="134.423" y1="83.1008" x2="132.807" y2="129.414" gradientUnits="userSpaceOnUse">
<stop stop-color="#FF7A00"/>
<stop offset="1" stop-color="#B10000"/>
</linearGradient>
<linearGradient id="paint6_linear_120_1942" x1="134.423" y1="83.1008" x2="134.423" y2="115.11" gradientUnits="userSpaceOnUse">
<stop stop-color="#CC2901" stop-opacity="0.49"/>
<stop offset="1" stop-color="#CC2901"/>
</linearGradient>
<linearGradient id="paint7_linear_120_1942" x1="134.515" y1="71.5518" x2="134.515" y2="82.2747" gradientUnits="userSpaceOnUse">
<stop stop-color="#F7CA0A"/>
<stop offset="1" stop-color="#FA9508"/>
</linearGradient>
<linearGradient id="paint8_linear_120_1942" x1="126.62" y1="75.6768" x2="126.62" y2="83.8071" gradientUnits="userSpaceOnUse">
<stop stop-color="#F7CA0A"/>
<stop offset="1" stop-color="#FA9508"/>
</linearGradient>
<linearGradient id="paint9_linear_120_1942" x1="126.62" y1="75.6768" x2="126.62" y2="83.8071" gradientUnits="userSpaceOnUse">
<stop stop-color="#F7CA0A"/>
<stop offset="1" stop-color="#FD6E08"/>
</linearGradient>
<linearGradient id="paint10_linear_120_1942" x1="126.62" y1="76.6228" x2="126.62" y2="82.4313" gradientUnits="userSpaceOnUse">
<stop stop-color="#FAFF00"/>
<stop offset="1" stop-color="#FAB608"/>
</linearGradient>
<linearGradient id="paint11_linear_120_1942" x1="141.35" y1="75.6768" x2="141.35" y2="83.8071" gradientUnits="userSpaceOnUse">
<stop stop-color="#F7CA0A"/>
<stop offset="1" stop-color="#FD6E08"/>
</linearGradient>
<linearGradient id="paint12_linear_120_1942" x1="141.35" y1="76.6228" x2="141.35" y2="82.4313" gradientUnits="userSpaceOnUse">
<stop stop-color="#FAFF00"/>
<stop offset="1" stop-color="#FAB608"/>
</linearGradient>
<linearGradient id="paint13_linear_120_1942" x1="134.515" y1="71.5522" x2="134.515" y2="82.2752" gradientUnits="userSpaceOnUse">
<stop stop-color="#F7CA0A"/>
<stop offset="1" stop-color="#FD6E08"/>
</linearGradient>
<linearGradient id="paint14_linear_120_1942" x1="134.515" y1="72.1414" x2="134.515" y2="80.743" gradientUnits="userSpaceOnUse">
<stop stop-color="#FAFF00"/>
<stop offset="1" stop-color="#FAB608"/>
</linearGradient>
<linearGradient id="paint15_linear_120_1942" x1="134.437" y1="84.9863" x2="134.437" y2="113.215" gradientUnits="userSpaceOnUse">
<stop stop-color="#FFA800"/>
<stop offset="0.96875" stop-color="#FF4300" stop-opacity="0"/>
</linearGradient>
<linearGradient id="paint16_linear_120_1942" x1="134.437" y1="84.9863" x2="134.437" y2="113.215" gradientUnits="userSpaceOnUse">
<stop stop-color="#FFA800"/>
<stop offset="0.96875" stop-color="#FF4300" stop-opacity="0"/>
</linearGradient>
<linearGradient id="paint17_linear_120_1942" x1="134.437" y1="84.9863" x2="134.437" y2="113.215" gradientUnits="userSpaceOnUse">
<stop stop-color="#FFA800"/>
<stop offset="0.96875" stop-color="#FF4300" stop-opacity="0"/>
</linearGradient>
<linearGradient id="paint18_linear_120_1942" x1="134.437" y1="84.9863" x2="134.437" y2="113.215" gradientUnits="userSpaceOnUse">
<stop stop-color="#FFA800"/>
<stop offset="0.96875" stop-color="#FF4300" stop-opacity="0"/>
</linearGradient>
<linearGradient id="paint19_linear_120_1942" x1="134.437" y1="84.9863" x2="134.437" y2="113.215" gradientUnits="userSpaceOnUse">
<stop stop-color="#FFA800"/>
<stop offset="0.96875" stop-color="#FF4300" stop-opacity="0"/>
</linearGradient>
<linearGradient id="paint20_linear_120_1942" x1="134.437" y1="84.9863" x2="134.437" y2="113.215" gradientUnits="userSpaceOnUse">
<stop stop-color="#FFA800"/>
<stop offset="0.96875" stop-color="#FF4300" stop-opacity="0"/>
</linearGradient>
<linearGradient id="paint21_linear_120_1942" x1="132.295" y1="87.5636" x2="136.546" y2="109.281" gradientUnits="userSpaceOnUse">
<stop stop-color="#F68B02"/>
<stop offset="1" stop-color="#CB2901"/>
</linearGradient>
<linearGradient id="paint22_linear_120_1942" x1="131.713" y1="85.5293" x2="137.226" y2="113.694" gradientUnits="userSpaceOnUse">
<stop stop-color="#FFEB00"/>
<stop offset="1" stop-color="#FF8E00"/>
</linearGradient>
<linearGradient id="paint23_linear_120_1942" x1="133.882" y1="87.6289" x2="134.736" y2="107.321" gradientUnits="userSpaceOnUse">
<stop stop-color="white"/>
<stop offset="1" stop-color="#FFE600" stop-opacity="0"/>
</linearGradient>
<linearGradient id="paint24_linear_120_1942" x1="69.164" y1="25.6597" x2="129.934" y2="38.5566" gradientUnits="userSpaceOnUse">
<stop stop-color="#F1F1F1"/>
<stop offset="1" stop-color="#E1E1E1"/>
</linearGradient>
</defs>
</svg>
