<svg width="263" height="134" viewBox="0 0 263 134" fill="none" xmlns="http://www.w3.org/2000/svg">
<g filter="url(#filter0_d_135_4530)">
<rect x="33" y="33" width="189.657" height="60.3753" rx="14.5452" fill="url(#paint0_linear_135_4530)"/>
<rect x="33" y="33" width="189.657" height="60.3753" rx="14.5452" stroke="url(#paint1_linear_135_4530)" stroke-opacity="0.3" stroke-width="1.5156"/>
</g>
<rect x="43.5411" y="33" width="179.323" height="60.5506" rx="14.5452" fill="url(#paint2_linear_135_4530)"/>
<path d="M56.6813 67.7754L61.4962 57.1342H63.0811L67.896 67.7754H65.9338L64.6508 64.7868L65.4659 65.3151H59.0963L59.9114 64.7868L58.6435 67.7754H56.6813ZM62.266 59.2323L60.1529 64.2585L59.7604 63.7755H64.8018L64.4244 64.2585L62.2962 59.2323H62.266ZM70.1283 68.8471L68.7095 68.4244L72.6188 56.3041L74.0376 56.7267L70.1283 68.8471ZM75.5614 67.7754V57.1342H80.2103C81.3272 57.1342 82.1926 57.3808 82.8064 57.8738C83.4202 58.3568 83.7271 59.031 83.7271 59.8964C83.7271 60.5404 83.541 61.0838 83.1687 61.5265C82.7963 61.9693 82.2882 62.2661 81.6442 62.4171V62.1907C82.1372 62.2611 82.5599 62.412 82.9121 62.6435C83.2643 62.8749 83.5309 63.1718 83.712 63.534C83.9032 63.8963 83.9988 64.3189 83.9988 64.8019C83.9988 65.4258 83.8529 65.9641 83.5611 66.4169C83.2793 66.8597 82.8668 67.1968 82.3234 67.4282C81.78 67.6597 81.131 67.7754 80.3763 67.7754H75.5614ZM77.4179 66.3113H80.1348C80.4065 66.3113 80.648 66.2912 80.8593 66.2509C81.0807 66.2107 81.2668 66.1503 81.4178 66.0698C81.5788 65.9792 81.7096 65.8685 81.8102 65.7377C81.9209 65.6069 82.0014 65.456 82.0517 65.2849C82.102 65.1138 82.1272 64.9227 82.1272 64.7113C82.1272 64.49 82.102 64.2937 82.0517 64.1227C82.0014 63.9516 81.9209 63.8057 81.8102 63.685C81.7096 63.5541 81.5788 63.4485 81.4178 63.368C81.2668 63.2774 81.0807 63.212 80.8593 63.1718C80.648 63.1315 80.4065 63.1114 80.1348 63.1114H77.4179V66.3113ZM77.4179 61.6473H79.8782C80.5423 61.6473 81.0354 61.5215 81.3574 61.2699C81.6895 61.0083 81.8555 60.6259 81.8555 60.1228C81.8555 59.6197 81.6895 59.2423 81.3574 58.9908C81.0354 58.7292 80.5423 58.5983 79.8782 58.5983H77.4179V61.6473ZM93.8998 67.7754V58.7493H90.2471V57.1342H99.4846V58.7493H95.8318V67.7754H93.8998ZM101.365 67.7754V57.1342H108.444V58.6738H103.221V61.602H108.112V63.1416H103.221V66.2358H108.444V67.7754H101.365ZM114.548 67.9263C113.994 67.9263 113.461 67.876 112.948 67.7754C112.445 67.6848 111.977 67.549 111.544 67.3679C111.121 67.1867 110.744 66.9704 110.412 66.7188L111.001 65.1943C111.333 65.4258 111.68 65.627 112.042 65.7981C112.414 65.9591 112.807 66.0849 113.219 66.1754C113.642 66.2559 114.085 66.2962 114.548 66.2962C115.343 66.2962 115.921 66.1654 116.283 65.9038C116.646 65.6321 116.827 65.2849 116.827 64.8623C116.827 64.6308 116.771 64.4346 116.661 64.2736C116.55 64.1026 116.369 63.9567 116.117 63.8359C115.866 63.7152 115.534 63.6145 115.121 63.534L113.461 63.1869C112.505 62.9856 111.791 62.6485 111.318 62.1756C110.855 61.6926 110.623 61.0586 110.623 60.2738C110.623 59.6096 110.799 59.031 111.152 58.538C111.504 58.0449 111.992 57.6625 112.616 57.3908C113.24 57.1191 113.959 56.9833 114.774 56.9833C115.257 56.9833 115.72 57.0336 116.163 57.1342C116.616 57.2248 117.028 57.3657 117.4 57.5569C117.783 57.738 118.115 57.9594 118.397 58.221L117.808 59.67C117.385 59.3178 116.922 59.0562 116.419 58.8851C115.916 58.704 115.363 58.6134 114.759 58.6134C114.296 58.6134 113.899 58.6788 113.567 58.8097C113.234 58.9405 112.978 59.1266 112.797 59.3681C112.626 59.5996 112.54 59.8763 112.54 60.1983C112.54 60.5605 112.661 60.8524 112.902 61.0737C113.144 61.285 113.556 61.4511 114.14 61.5718L115.785 61.919C116.782 62.1303 117.521 62.4624 118.004 62.9152C118.497 63.368 118.744 63.9717 118.744 64.7264C118.744 65.3604 118.573 65.9188 118.231 66.4019C117.888 66.8849 117.4 67.2622 116.766 67.5339C116.143 67.7955 115.403 67.9263 114.548 67.9263ZM123.403 67.7754V58.7493H119.75V57.1342H128.988V58.7493H125.335V67.7754H123.403Z" fill="white"/>
<path d="M201.208 43.5879C209.544 43.5879 216.301 50.3456 216.302 58.6816V67.8691C216.302 76.2052 209.544 82.9629 201.208 82.9629H192.02C183.684 82.9628 176.927 76.2052 176.927 67.8691V58.6816C176.927 50.3456 183.684 43.5879 192.02 43.5879H201.208Z" fill="white"/>
<path d="M193.786 77.2036V74.4536H186.911C186.155 74.4536 185.508 74.1846 184.97 73.6465C184.432 73.1084 184.162 72.4608 184.161 71.7036V52.4536C184.161 51.6974 184.431 51.0502 184.97 50.5121C185.509 49.974 186.156 49.7045 186.911 49.7036H193.786V46.9536H196.536V77.2036H193.786ZM186.911 70.3286H193.786V62.0786L186.911 70.3286ZM199.286 74.4536V62.0786L206.161 70.3286V52.4536H199.286V49.7036H206.161C206.918 49.7036 207.565 49.9731 208.104 50.5121C208.643 51.0511 208.912 51.6983 208.911 52.4536V71.7036C208.911 72.4599 208.642 73.1075 208.104 73.6465C207.566 74.1855 206.918 74.4545 206.161 74.4536H199.286Z" fill="#5C79CF"/>
<defs>
<filter id="filter0_d_135_4530" x="0.742018" y="0.742018" width="262.048" height="132.766" filterUnits="userSpaceOnUse" color-interpolation-filters="sRGB">
<feFlood flood-opacity="0" result="BackgroundImageFix"/>
<feColorMatrix in="SourceAlpha" type="matrix" values="0 0 0 0 0 0 0 0 0 0 0 0 0 0 0 0 0 0 127 0" result="hardAlpha"/>
<feOffset dx="3.93752" dy="3.93752"/>
<feGaussianBlur stdDeviation="17.7188"/>
<feColorMatrix type="matrix" values="0 0 0 0 0 0 0 0 0 0 0 0 0 0 0 0 0 0 0.05 0"/>
<feBlend mode="normal" in2="BackgroundImageFix" result="effect1_dropShadow_135_4530"/>
<feBlend mode="normal" in="SourceGraphic" in2="effect1_dropShadow_135_4530" result="shape"/>
</filter>
<linearGradient id="paint0_linear_135_4530" x1="33" y1="63.1877" x2="222.657" y2="63.1877" gradientUnits="userSpaceOnUse">
<stop stop-color="#4F6ECA"/>
<stop offset="1" stop-color="#6782D3"/>
</linearGradient>
<linearGradient id="paint1_linear_135_4530" x1="76.2459" y1="11.1928" x2="183.786" y2="118.733" gradientUnits="userSpaceOnUse">
<stop stop-color="#F1F1F1"/>
<stop offset="1" stop-color="#E1E1E1"/>
</linearGradient>
<linearGradient id="paint2_linear_135_4530" x1="43.5411" y1="63.2753" x2="222.864" y2="63.2753" gradientUnits="userSpaceOnUse">
<stop stop-color="#4F6ECA"/>
<stop offset="1" stop-color="#6782D3"/>
</linearGradient>
</defs>
</svg>
