<svg width="263" height="134" viewBox="0 0 263 134" fill="none" xmlns="http://www.w3.org/2000/svg">
<g filter="url(#filter0_d_134_4422)">
<rect x="32.6385" y="33" width="189.657" height="60.3753" rx="14.5452" fill="url(#paint0_linear_134_4422)"/>
<rect x="32.6385" y="33" width="189.657" height="60.3753" rx="14.5452" stroke="url(#paint1_linear_134_4422)" stroke-opacity="0.3" stroke-width="1.5156"/>
</g>
<rect x="43.1797" y="33" width="179.323" height="60.5506" rx="14.5452" fill="url(#paint2_linear_134_4422)"/>
<path d="M57.467 67.7754V57.1342H61.4216C62.609 57.1342 63.6153 57.3405 64.4404 57.7531C65.2756 58.1657 65.9095 58.7694 66.3422 59.5643C66.785 60.3492 67.0063 61.3102 67.0063 62.4473C67.0063 63.5843 66.785 64.5503 66.3422 65.3453C65.9095 66.1402 65.2756 66.744 64.4404 67.1565C63.6153 67.5691 62.609 67.7754 61.4216 67.7754H57.467ZM59.399 66.1754H61.3009C62.5386 66.1754 63.4593 65.8685 64.063 65.2547C64.6769 64.6308 64.9838 63.695 64.9838 62.4473C64.9838 61.1995 64.6769 60.2687 64.063 59.6549C63.4492 59.0411 62.5285 58.7342 61.3009 58.7342H59.399V66.1754ZM68.2523 67.7754L73.0672 57.1342H74.6521L79.467 67.7754H77.5048L76.2219 64.7868L77.0369 65.3151H70.6673L71.4824 64.7868L70.2145 67.7754H68.2523ZM73.837 59.2323L71.7239 64.2585L71.3315 63.7755H76.3728L75.9954 64.2585L73.8672 59.2323H73.837ZM81.2876 67.7754V57.1342H83.2196V67.7754H81.2876ZM86.189 67.7754V57.1342H88.121V66.1302H93.2227V67.7754H86.189ZM96.073 67.7754V62.2963L96.4806 63.4586L91.9826 57.1342H94.2316L97.2805 61.4662H96.8579L99.922 57.1342H102.08L97.6126 63.4586L98.005 62.2963V67.7754H96.073ZM108.248 67.7754V57.1342H112.867C114.034 57.1342 114.935 57.416 115.569 57.9795C116.203 58.5329 116.52 59.3128 116.52 60.319C116.52 60.9731 116.374 61.5366 116.082 62.0095C115.8 62.4825 115.388 62.8447 114.845 63.0963C114.301 63.3479 113.642 63.4736 112.867 63.4736L113.003 63.2472H113.501C113.914 63.2472 114.271 63.3479 114.573 63.5491C114.885 63.7504 115.156 64.0673 115.388 64.5L117.169 67.7754H115.041L113.199 64.3793C113.079 64.1579 112.943 63.9868 112.792 63.8661C112.641 63.7353 112.47 63.6447 112.279 63.5944C112.087 63.5441 111.866 63.5189 111.614 63.5189H110.181V67.7754H108.248ZM110.181 62.085H112.535C113.229 62.085 113.753 61.9441 114.105 61.6624C114.467 61.3706 114.648 60.9379 114.648 60.3643C114.648 59.8008 114.467 59.3782 114.105 59.0964C113.753 58.8046 113.229 58.6587 112.535 58.6587H110.181V62.085ZM119.252 67.7754V57.1342H126.331V58.6738H121.109V61.602H125.999V63.1416H121.109V66.2358H126.331V67.7754H119.252ZM128.915 67.7754V57.1342H133.533C134.318 57.1342 134.982 57.2651 135.526 57.5267C136.069 57.7883 136.482 58.1657 136.764 58.6587C137.045 59.1518 137.186 59.7505 137.186 60.4549C137.186 61.1492 137.045 61.7479 136.764 62.251C136.482 62.7441 136.069 63.1265 135.526 63.3982C134.982 63.6598 134.318 63.7906 133.533 63.7906H130.847V67.7754H128.915ZM130.847 62.2661H133.232C133.916 62.2661 134.434 62.1152 134.786 61.8133C135.138 61.5014 135.314 61.0486 135.314 60.4549C135.314 59.8612 135.138 59.4134 134.786 59.1115C134.434 58.8097 133.916 58.6587 133.232 58.6587H130.847V62.2661ZM144.113 67.9263C143.338 67.9263 142.634 67.8005 142 67.549C141.376 67.2874 140.838 66.915 140.385 66.432C139.942 65.949 139.6 65.3704 139.359 64.6962C139.117 64.0221 138.996 63.2724 138.996 62.4473C138.996 61.6121 139.117 60.8624 139.359 60.1983C139.6 59.5241 139.942 58.9505 140.385 58.4776C140.838 57.9946 141.376 57.6273 142 57.3757C142.634 57.1141 143.338 56.9833 144.113 56.9833C144.888 56.9833 145.587 57.1141 146.211 57.3757C146.845 57.6273 147.384 57.9896 147.826 58.4625C148.279 58.9354 148.626 59.509 148.868 60.1832C149.109 60.8473 149.23 61.597 149.23 62.4322C149.23 63.2674 149.109 64.0221 148.868 64.6962C148.626 65.3704 148.279 65.949 147.826 66.432C147.384 66.915 146.845 67.2874 146.211 67.549C145.587 67.8005 144.888 67.9263 144.113 67.9263ZM144.113 66.266C144.767 66.266 145.321 66.1151 145.774 65.8132C146.236 65.5113 146.589 65.0736 146.83 64.5C147.082 63.9265 147.208 63.2422 147.208 62.4473C147.208 61.6423 147.087 60.958 146.845 60.3945C146.604 59.8209 146.252 59.3883 145.789 59.0964C145.326 58.7946 144.767 58.6436 144.113 58.6436C143.469 58.6436 142.916 58.7946 142.453 59.0964C141.99 59.3883 141.633 59.8209 141.381 60.3945C141.14 60.958 141.019 61.6423 141.019 62.4473C141.019 63.2422 141.14 63.9265 141.381 64.5C141.633 65.0736 141.99 65.5113 142.453 65.8132C142.916 66.1151 143.469 66.266 144.113 66.266ZM151.851 67.7754V57.1342H156.47C157.637 57.1342 158.537 57.416 159.171 57.9795C159.805 58.5329 160.122 59.3128 160.122 60.319C160.122 60.9731 159.976 61.5366 159.685 62.0095C159.403 62.4825 158.99 62.8447 158.447 63.0963C157.904 63.3479 157.244 63.4736 156.47 63.4736L156.605 63.2472H157.104C157.516 63.2472 157.873 63.3479 158.175 63.5491C158.487 63.7504 158.759 64.0673 158.99 64.5L160.771 67.7754H158.643L156.802 64.3793C156.681 64.1579 156.545 63.9868 156.394 63.8661C156.243 63.7353 156.072 63.6447 155.881 63.5944C155.69 63.5441 155.468 63.5189 155.217 63.5189H153.783V67.7754H151.851ZM153.783 62.085H156.138C156.832 62.085 157.355 61.9441 157.707 61.6624C158.07 61.3706 158.251 60.9379 158.251 60.3643C158.251 59.8008 158.07 59.3782 157.707 59.0964C157.355 58.8046 156.832 58.6587 156.138 58.6587H153.783V62.085ZM165.126 67.7754V58.7493H161.473V57.1342H170.711V58.7493H167.058V67.7754H165.126Z" fill="white"/>
<path d="M200.846 43.5879C209.182 43.5879 215.94 50.3456 215.94 58.6816V67.8691C215.94 76.2052 209.182 82.9629 200.846 82.9629H191.659C183.323 82.9628 176.565 76.2052 176.565 67.8691V58.6816C176.565 50.3456 183.323 43.5879 191.659 43.5879H200.846Z" fill="white"/>
<path d="M188.919 70.9999H204.046M188.919 66.187H204.046M200.173 47.6781C200.79 47.8706 202.77 48.6558 205.63 51.4452C208.326 54.0737 209.197 55.9404 209.452 56.65C209.51 58.1908 209.546 59.9853 209.546 62.0617C209.546 67.6069 209.288 71.1402 209.053 73.2097C208.881 74.7237 207.745 75.8555 206.232 76.0322C204.297 76.2584 201.135 76.5004 196.482 76.5004C191.83 76.5004 188.668 76.2584 186.733 76.0328C185.22 75.8555 184.084 74.7237 183.912 73.2097C183.677 71.1402 183.419 67.6062 183.419 62.0617C183.419 56.5173 183.677 52.9832 183.912 50.9137C184.084 49.3997 185.22 48.268 186.733 48.0906C188.668 47.8658 191.83 47.623 196.482 47.623C197.837 47.623 199.065 47.6437 200.173 47.6781Z" stroke="#5C79CF" stroke-width="2.06267" stroke-linecap="round" stroke-linejoin="round"/>
<path d="M188.919 61.2834C190.688 58.5813 192.163 57.3946 192.973 56.8968C193.356 56.661 193.819 56.815 194.018 57.2186C194.474 58.1433 194.905 59.414 195.213 60.4226C195.394 61.0139 196.258 61.1411 196.638 60.6529C198.168 58.6893 200.264 56.9051 200.264 56.9051M203.06 58.1564C203.363 56.5585 203.374 55.1566 203.349 54.414C203.345 54.2578 203.281 54.1091 203.17 53.9985C203.06 53.8879 202.911 53.8238 202.755 53.8193C201.501 53.7813 200.246 53.8781 199.012 54.1081C198.494 54.2064 198.322 54.8383 198.696 55.2116L201.957 58.4741C202.331 58.8474 202.962 58.6748 203.06 58.1564Z" stroke="#5C79CF" stroke-width="2.06267" stroke-linecap="round" stroke-linejoin="round"/>
<defs>
<filter id="filter0_d_134_4422" x="0.380567" y="0.742018" width="262.048" height="132.766" filterUnits="userSpaceOnUse" color-interpolation-filters="sRGB">
<feFlood flood-opacity="0" result="BackgroundImageFix"/>
<feColorMatrix in="SourceAlpha" type="matrix" values="0 0 0 0 0 0 0 0 0 0 0 0 0 0 0 0 0 0 127 0" result="hardAlpha"/>
<feOffset dx="3.93752" dy="3.93752"/>
<feGaussianBlur stdDeviation="17.7188"/>
<feColorMatrix type="matrix" values="0 0 0 0 0 0 0 0 0 0 0 0 0 0 0 0 0 0 0.05 0"/>
<feBlend mode="normal" in2="BackgroundImageFix" result="effect1_dropShadow_134_4422"/>
<feBlend mode="normal" in="SourceGraphic" in2="effect1_dropShadow_134_4422" result="shape"/>
</filter>
<linearGradient id="paint0_linear_134_4422" x1="32.6385" y1="63.1877" x2="222.296" y2="63.1877" gradientUnits="userSpaceOnUse">
<stop stop-color="#4F6ECA"/>
<stop offset="1" stop-color="#6782D3"/>
</linearGradient>
<linearGradient id="paint1_linear_134_4422" x1="75.8845" y1="11.1928" x2="183.425" y2="118.733" gradientUnits="userSpaceOnUse">
<stop stop-color="#F1F1F1"/>
<stop offset="1" stop-color="#E1E1E1"/>
</linearGradient>
<linearGradient id="paint2_linear_134_4422" x1="43.1797" y1="63.2753" x2="222.503" y2="63.2753" gradientUnits="userSpaceOnUse">
<stop stop-color="#4F6ECA"/>
<stop offset="1" stop-color="#6782D3"/>
</linearGradient>
</defs>
</svg>
