<svg width="263" height="134" viewBox="0 0 263 134" fill="none" xmlns="http://www.w3.org/2000/svg">
<g filter="url(#filter0_d_132_4347)">
<rect x="32.6385" y="32.8198" width="189.657" height="60.3753" rx="14.5452" fill="url(#paint0_linear_132_4347)"/>
<rect x="32.6385" y="32.8198" width="189.657" height="60.3753" rx="14.5452" stroke="url(#paint1_linear_132_4347)" stroke-opacity="0.3" stroke-width="1.5156"/>
</g>
<rect x="43.1797" y="32.8198" width="179.323" height="60.5506" rx="14.5452" fill="url(#paint2_linear_132_4347)"/>
<path d="M57.467 67.5952V56.9541H59.399V65.95H64.5008V67.5952H57.467ZM66.5988 67.5952V56.9541H68.5308V67.5952H66.5988ZM74.9114 67.5952L70.172 56.9541H72.2398L76.0887 65.8745H75.4397L79.2735 56.9541H81.2659L76.5265 67.5952H74.9114ZM82.9167 67.5952V56.9541H89.9957V58.4936H84.7733V61.4218H89.6637V62.9614H84.7733V66.0556H89.9957V67.5952H82.9167ZM96.1565 67.5952L100.971 56.9541H102.556L107.371 67.5952H105.409L104.126 64.6066L104.941 65.1349H98.5716L99.3866 64.6066L98.1187 67.5952H96.1565ZM101.741 59.0521L99.6281 64.0784L99.2357 63.5953H104.277L103.9 64.0784L101.771 59.0521H101.741ZM109.192 67.5952V56.9541H110.641L116.754 64.8934H116.361V56.9541H118.158V67.5952H116.724L110.611 59.6408H110.988V67.5952H109.192ZM119.992 67.5952L124.807 56.9541H126.392L131.207 67.5952H129.244L127.961 64.6066L128.776 65.1349H122.407L123.222 64.6066L121.954 67.5952H119.992ZM125.577 59.0521L123.463 64.0784L123.071 63.5953H128.112L127.735 64.0784L125.607 59.0521H125.577ZM133.027 67.5952V56.9541H134.959V65.95H140.061V67.5952H133.027ZM142.911 67.5952V62.1162L143.319 63.2784L138.821 56.9541H141.07L144.119 61.286H143.696L146.76 56.9541H148.919L144.451 63.2784L144.843 62.1162V67.5952H142.911ZM153.676 67.7462C153.123 67.7462 152.589 67.6958 152.076 67.5952C151.573 67.5047 151.105 67.3688 150.673 67.1877C150.25 67.0066 149.873 66.7902 149.54 66.5386L150.129 65.0142C150.461 65.2456 150.808 65.4469 151.171 65.6179C151.543 65.7789 151.935 65.9047 152.348 65.9953C152.771 66.0758 153.213 66.116 153.676 66.116C154.471 66.116 155.05 65.9852 155.412 65.7236C155.774 65.4519 155.955 65.1047 155.955 64.6821C155.955 64.4507 155.9 64.2544 155.789 64.0934C155.679 63.9224 155.498 63.7765 155.246 63.6557C154.994 63.535 154.662 63.4343 154.25 63.3538L152.589 63.0067C151.633 62.8054 150.919 62.4683 150.446 61.9954C149.983 61.5124 149.752 60.8785 149.752 60.0936C149.752 59.4295 149.928 58.8509 150.28 58.3578C150.632 57.8647 151.12 57.4823 151.744 57.2107C152.368 56.939 153.088 56.8031 153.903 56.8031C154.386 56.8031 154.848 56.8534 155.291 56.9541C155.744 57.0446 156.157 57.1855 156.529 57.3767C156.911 57.5578 157.243 57.7792 157.525 58.0408L156.936 59.4898C156.514 59.1376 156.051 58.876 155.548 58.7049C155.045 58.5238 154.491 58.4333 153.888 58.4333C153.425 58.4333 153.027 58.4987 152.695 58.6295C152.363 58.7603 152.106 58.9464 151.925 59.188C151.754 59.4194 151.669 59.6961 151.669 60.0181C151.669 60.3804 151.789 60.6722 152.031 60.8936C152.272 61.1049 152.685 61.2709 153.269 61.3917L154.914 61.7388C155.91 61.9501 156.65 62.2822 157.133 62.735C157.626 63.1878 157.872 63.7916 157.872 64.5463C157.872 65.1802 157.701 65.7387 157.359 66.2217C157.017 66.7047 156.529 67.082 155.895 67.3537C155.271 67.6153 154.532 67.7462 153.676 67.7462ZM160.187 67.5952V56.9541H162.119V67.5952H160.187ZM168.756 67.7462C168.202 67.7462 167.669 67.6958 167.156 67.5952C166.653 67.5047 166.185 67.3688 165.752 67.1877C165.33 67.0066 164.952 66.7902 164.62 66.5386L165.209 65.0142C165.541 65.2456 165.888 65.4469 166.25 65.6179C166.623 65.7789 167.015 65.9047 167.428 65.9953C167.85 66.0758 168.293 66.116 168.756 66.116C169.551 66.116 170.129 65.9852 170.492 65.7236C170.854 65.4519 171.035 65.1047 171.035 64.6821C171.035 64.4507 170.98 64.2544 170.869 64.0934C170.758 63.9224 170.577 63.7765 170.326 63.6557C170.074 63.535 169.742 63.4343 169.329 63.3538L167.669 63.0067C166.713 62.8054 165.999 62.4683 165.526 61.9954C165.063 61.5124 164.832 60.8785 164.832 60.0936C164.832 59.4295 165.008 58.8509 165.36 58.3578C165.712 57.8647 166.2 57.4823 166.824 57.2107C167.448 56.939 168.167 56.8031 168.982 56.8031C169.465 56.8031 169.928 56.8534 170.371 56.9541C170.824 57.0446 171.236 57.1855 171.609 57.3767C171.991 57.5578 172.323 57.7792 172.605 58.0408L172.016 59.4898C171.594 59.1376 171.131 58.876 170.628 58.7049C170.124 58.5238 169.571 58.4333 168.967 58.4333C168.504 58.4333 168.107 58.4987 167.775 58.6295C167.443 58.7603 167.186 58.9464 167.005 59.188C166.834 59.4194 166.748 59.6961 166.748 60.0181C166.748 60.3804 166.869 60.6722 167.111 60.8936C167.352 61.1049 167.765 61.2709 168.348 61.3917L169.994 61.7388C170.99 61.9501 171.729 62.2822 172.212 62.735C172.705 63.1878 172.952 63.7916 172.952 64.5463C172.952 65.1802 172.781 65.7387 172.439 66.2217C172.097 66.7047 171.609 67.082 170.975 67.3537C170.351 67.6153 169.611 67.7462 168.756 67.7462Z" fill="white"/>
<path d="M200.846 43.4077C209.182 43.4077 215.94 50.1654 215.94 58.5015V67.689C215.94 76.0251 209.182 82.7827 200.846 82.7827H191.659C183.323 82.7827 176.565 76.025 176.565 67.689V58.5015C176.565 50.1654 183.323 43.4078 191.659 43.4077H200.846Z" fill="white"/>
<path d="M183.913 73.6284L183.675 72.7552L185.975 70.4835V73.6284H183.913ZM190.101 73.6284V66.3568L191.476 64.9816V73.6284H190.101ZM195.601 73.6284V64.9816L196.976 66.3911V73.6284H195.601ZM201.102 73.6284V66.3911L202.477 65.016V73.6284H201.102ZM206.602 73.6284V60.8563L207.977 59.4812V73.6284H206.602ZM184.6 65.5344V63.6038L193.538 54.6656L199.039 60.166L207.977 51.2278V53.1571L199.039 62.0953L193.538 56.5948L184.6 65.5344Z" fill="#5C79CF"/>
<defs>
<filter id="filter0_d_132_4347" x="0.380567" y="0.561842" width="262.048" height="132.766" filterUnits="userSpaceOnUse" color-interpolation-filters="sRGB">
<feFlood flood-opacity="0" result="BackgroundImageFix"/>
<feColorMatrix in="SourceAlpha" type="matrix" values="0 0 0 0 0 0 0 0 0 0 0 0 0 0 0 0 0 0 127 0" result="hardAlpha"/>
<feOffset dx="3.93752" dy="3.93752"/>
<feGaussianBlur stdDeviation="17.7188"/>
<feColorMatrix type="matrix" values="0 0 0 0 0 0 0 0 0 0 0 0 0 0 0 0 0 0 0.05 0"/>
<feBlend mode="normal" in2="BackgroundImageFix" result="effect1_dropShadow_132_4347"/>
<feBlend mode="normal" in="SourceGraphic" in2="effect1_dropShadow_132_4347" result="shape"/>
</filter>
<linearGradient id="paint0_linear_132_4347" x1="32.6385" y1="63.0075" x2="222.296" y2="63.0075" gradientUnits="userSpaceOnUse">
<stop stop-color="#4F6ECA"/>
<stop offset="1" stop-color="#6782D3"/>
</linearGradient>
<linearGradient id="paint1_linear_132_4347" x1="75.8845" y1="11.0126" x2="183.425" y2="118.553" gradientUnits="userSpaceOnUse">
<stop stop-color="#F1F1F1"/>
<stop offset="1" stop-color="#E1E1E1"/>
</linearGradient>
<linearGradient id="paint2_linear_132_4347" x1="43.1797" y1="63.0951" x2="222.503" y2="63.0951" gradientUnits="userSpaceOnUse">
<stop stop-color="#4F6ECA"/>
<stop offset="1" stop-color="#6782D3"/>
</linearGradient>
</defs>
</svg>
