<svg width="263" height="134" viewBox="0 0 263 134" fill="none" xmlns="http://www.w3.org/2000/svg">
<g filter="url(#filter0_d_134_4438)">
<rect x="32.6385" y="33" width="189.657" height="60.3753" rx="14.5452" fill="url(#paint0_linear_134_4438)"/>
<rect x="32.6385" y="33" width="189.657" height="60.3753" rx="14.5452" stroke="url(#paint1_linear_134_4438)" stroke-opacity="0.3" stroke-width="1.5156"/>
</g>
<rect x="43.1797" y="33" width="179.323" height="60.5506" rx="14.5452" fill="url(#paint2_linear_134_4438)"/>
<path d="M60.8782 57.2754L56.1388 46.6342H58.2066L62.0556 55.5547H61.4065L65.2404 46.6342H67.2327L62.4933 57.2754H60.8782ZM68.8835 57.2754V46.6342H75.9625V48.1738H70.7401V51.102H75.6305V52.6416H70.7401V55.7358H75.9625V57.2754H68.8835ZM78.546 57.2754V46.6342H83.1647C84.3319 46.6342 85.2325 46.916 85.8665 47.4795C86.5004 48.0329 86.8174 48.8128 86.8174 49.819C86.8174 50.4731 86.6715 51.0366 86.3797 51.5095C86.0979 51.9825 85.6854 52.3447 85.142 52.5963C84.5986 52.8479 83.9395 52.9736 83.1647 52.9736L83.3005 52.7472H83.7986C84.2112 52.7472 84.5684 52.8479 84.8703 53.0491C85.1822 53.2504 85.4539 53.5673 85.6854 54L87.4664 57.2754H85.3382L83.4968 53.8793C83.376 53.6579 83.2402 53.4868 83.0892 53.3661C82.9383 53.2353 82.7672 53.1447 82.576 53.0944C82.3848 53.0441 82.1635 53.0189 81.9119 53.0189H80.478V57.2754H78.546ZM80.478 51.585H82.8326C83.5269 51.585 84.0502 51.4441 84.4024 51.1624C84.7646 50.8706 84.9458 50.4379 84.9458 49.8643C84.9458 49.3008 84.7646 48.8782 84.4024 48.5964C84.0502 48.3046 83.5269 48.1587 82.8326 48.1587H80.478V51.585ZM93.1881 57.4263C92.6346 57.4263 92.1013 57.376 91.5881 57.2754C91.085 57.1848 90.6171 57.049 90.1844 56.8679C89.7618 56.6867 89.3844 56.4704 89.0524 56.2188L89.641 54.6943C89.9731 54.9258 90.3202 55.127 90.6825 55.2981C91.0548 55.4591 91.4473 55.5849 91.8598 55.6754C92.2824 55.7559 92.7252 55.7962 93.1881 55.7962C93.983 55.7962 94.5616 55.6654 94.9239 55.4038C95.2861 55.1321 95.4672 54.7849 95.4672 54.3623C95.4672 54.1308 95.4119 53.9346 95.3012 53.7736C95.1905 53.6026 95.0094 53.4567 94.7578 53.3359C94.5063 53.2152 94.1742 53.1145 93.7616 53.034L92.1013 52.6869C91.1454 52.4856 90.4309 52.1485 89.958 51.6756C89.4951 51.1926 89.2637 50.5586 89.2637 49.7738C89.2637 49.1096 89.4398 48.531 89.792 48.038C90.1442 47.5449 90.6322 47.1625 91.2561 46.8908C91.8799 46.6191 92.5994 46.4833 93.4145 46.4833C93.8975 46.4833 94.3604 46.5336 94.8031 46.6342C95.2559 46.7248 95.6685 46.8657 96.0408 47.0569C96.4232 47.238 96.7553 47.4594 97.037 47.721L96.4483 49.17C96.0257 48.8178 95.5628 48.5562 95.0597 48.3851C94.5566 48.204 94.0031 48.1134 93.3994 48.1134C92.9365 48.1134 92.539 48.1788 92.207 48.3097C91.8749 48.4405 91.6183 48.6266 91.4372 48.8681C91.2661 49.0996 91.1806 49.3763 91.1806 49.6983C91.1806 50.0605 91.3013 50.3524 91.5428 50.5737C91.7844 50.785 92.1969 50.9511 92.7805 51.0718L94.4258 51.419C95.422 51.6303 96.1616 51.9624 96.6446 52.4152C97.1376 52.868 97.3842 53.4717 97.3842 54.2264C97.3842 54.8604 97.2131 55.4188 96.871 55.9019C96.5288 56.3849 96.0408 56.7622 95.4069 57.0339C94.783 57.2955 94.0434 57.4263 93.1881 57.4263ZM99.6986 57.2754V46.6342H101.631V57.2754H99.6986ZM109.37 57.4263C108.595 57.4263 107.89 57.3005 107.257 57.049C106.633 56.7874 106.094 56.415 105.641 55.932C105.199 55.449 104.857 54.8704 104.615 54.1962C104.374 53.5221 104.253 52.7724 104.253 51.9473C104.253 51.1121 104.374 50.3624 104.615 49.6983C104.857 49.0241 105.199 48.4505 105.641 47.9776C106.094 47.4946 106.633 47.1273 107.257 46.8757C107.89 46.6141 108.595 46.4833 109.37 46.4833C110.144 46.4833 110.844 46.6141 111.468 46.8757C112.102 47.1273 112.64 47.4896 113.083 47.9625C113.536 48.4354 113.883 49.009 114.124 49.6832C114.366 50.3473 114.486 51.097 114.486 51.9322C114.486 52.7674 114.366 53.5221 114.124 54.1962C113.883 54.8704 113.536 55.449 113.083 55.932C112.64 56.415 112.102 56.7874 111.468 57.049C110.844 57.3005 110.144 57.4263 109.37 57.4263ZM109.37 55.766C110.024 55.766 110.577 55.6151 111.03 55.3132C111.493 55.0113 111.845 54.5736 112.087 54C112.338 53.4265 112.464 52.7422 112.464 51.9473C112.464 51.1423 112.343 50.458 112.102 49.8945C111.86 49.3209 111.508 48.8883 111.045 48.5964C110.582 48.2946 110.024 48.1436 109.37 48.1436C108.726 48.1436 108.172 48.2946 107.709 48.5964C107.246 48.8883 106.889 49.3209 106.638 49.8945C106.396 50.458 106.275 51.1423 106.275 51.9473C106.275 52.7422 106.396 53.4265 106.638 54C106.889 54.5736 107.246 55.0113 107.709 55.3132C108.172 55.6151 108.726 55.766 109.37 55.766ZM117.107 57.2754V46.6342H118.556L124.669 54.5736H124.277V46.6342H126.073V57.2754H124.639L118.526 49.3209H118.903V57.2754H117.107ZM57.467 78.2754V67.6342H62.0857C63.253 67.6342 64.1536 67.916 64.7875 68.4795C65.4215 69.0329 65.7385 69.8128 65.7385 70.819C65.7385 71.4731 65.5925 72.0366 65.3007 72.5095C65.019 72.9825 64.6064 73.3447 64.063 73.5963C63.5197 73.8479 62.8606 73.9736 62.0857 73.9736L62.2216 73.7472H62.7197C63.1323 73.7472 63.4895 73.8479 63.7914 74.0491C64.1033 74.2504 64.375 74.5673 64.6064 75L66.3875 78.2754H64.2593L62.4178 74.8793C62.2971 74.6579 62.1612 74.4868 62.0103 74.3661C61.8593 74.2353 61.6883 74.1447 61.4971 74.0944C61.3059 74.0441 61.0845 74.0189 60.833 74.0189H59.399V78.2754H57.467ZM59.399 72.585H61.7537C62.448 72.585 62.9713 72.4441 63.3234 72.1624C63.6857 71.8706 63.8668 71.4379 63.8668 70.8643C63.8668 70.3008 63.6857 69.8782 63.3234 69.5964C62.9713 69.3046 62.448 69.1587 61.7537 69.1587H59.399V72.585ZM68.4708 78.2754V67.6342H75.5498V69.1738H70.3274V72.102H75.2178V73.6416H70.3274V76.7358H75.5498V78.2754H68.4708ZM78.1333 78.2754V67.6342H80.0653V76.6302H85.167V78.2754H78.1333ZM87.265 78.2754V67.6342H94.3441V69.1738H89.1216V72.102H94.012V73.6416H89.1216V76.7358H94.3441V78.2754H87.265ZM95.5887 78.2754L100.404 67.6342H101.989L106.803 78.2754H104.841L103.558 75.2868L104.373 75.8151H98.0037L98.8188 75.2868L97.5509 78.2754H95.5887ZM101.173 69.7323L99.0603 74.7585L98.6679 74.2755H103.709L103.332 74.7585L101.204 69.7323H101.173ZM112.174 78.4263C111.62 78.4263 111.087 78.376 110.574 78.2754C110.071 78.1848 109.603 78.049 109.17 77.8679C108.748 77.6867 108.37 77.4704 108.038 77.2188L108.627 75.6943C108.959 75.9258 109.306 76.127 109.668 76.2981C110.041 76.4591 110.433 76.5849 110.846 76.6754C111.268 76.7559 111.711 76.7962 112.174 76.7962C112.969 76.7962 113.547 76.6654 113.91 76.4038C114.272 76.1321 114.453 75.7849 114.453 75.3623C114.453 75.1308 114.398 74.9346 114.287 74.7736C114.176 74.6026 113.995 74.4567 113.744 74.3359C113.492 74.2152 113.16 74.1145 112.747 74.034L111.087 73.6869C110.131 73.4856 109.417 73.1485 108.944 72.6756C108.481 72.1926 108.25 71.5586 108.25 70.7738C108.25 70.1096 108.426 69.531 108.778 69.038C109.13 68.5449 109.618 68.1625 110.242 67.8908C110.866 67.6191 111.585 67.4833 112.4 67.4833C112.883 67.4833 113.346 67.5336 113.789 67.6342C114.242 67.7248 114.654 67.8657 115.027 68.0569C115.409 68.238 115.741 68.4594 116.023 68.721L115.434 70.17C115.012 69.8178 114.549 69.5562 114.046 69.3851C113.542 69.204 112.989 69.1134 112.385 69.1134C111.922 69.1134 111.525 69.1788 111.193 69.3097C110.861 69.4405 110.604 69.6266 110.423 69.8681C110.252 70.0996 110.166 70.3763 110.166 70.6983C110.166 71.0605 110.287 71.3524 110.529 71.5737C110.77 71.785 111.183 71.9511 111.766 72.0718L113.412 72.419C114.408 72.6303 115.147 72.9624 115.63 73.4152C116.123 73.868 116.37 74.4717 116.37 75.2264C116.37 75.8604 116.199 76.4188 115.857 76.9019C115.515 77.3849 115.027 77.7622 114.393 78.0339C113.769 78.2955 113.029 78.4263 112.174 78.4263ZM118.684 78.2754V67.6342H125.763V69.1738H120.541V72.102H125.431V73.6416H120.541V76.7358H125.763V78.2754H118.684Z" fill="white"/>
<path d="M200.846 43.5879C209.182 43.5879 215.94 50.3456 215.94 58.6816V67.8691C215.94 76.2052 209.182 82.9629 200.846 82.9629H191.659C183.323 82.9628 176.565 76.2052 176.565 67.8691V58.6816C176.565 50.3456 183.323 43.5879 191.659 43.5879H200.846Z" fill="white"/>
<path d="M191.863 72.7595C191.507 71.6766 191.202 70.5742 190.949 69.4524C190.697 68.3305 190.513 67.1931 190.397 66.0402L188.253 67.4997C188.107 67.6074 187.997 67.7307 187.923 67.8696C187.849 68.0084 187.812 68.1628 187.813 68.3327V74.0591C187.813 74.1657 187.85 74.2407 187.923 74.284C187.996 74.3273 188.075 74.3273 188.16 74.284L191.863 72.7595ZM196.462 50.4756C194.817 52.4038 193.641 54.3937 192.934 56.4452C192.227 58.4967 191.873 60.7359 191.873 63.1629C191.873 64.8934 192.023 66.5567 192.323 68.1528C192.623 69.7489 193.019 71.2201 193.51 72.5663H200.056C200.547 71.2212 200.942 69.75 201.242 68.1528C201.542 66.5556 201.692 64.8923 201.692 63.1629C201.692 60.7359 201.339 58.4967 200.632 56.4452C199.925 54.3937 198.749 52.4032 197.103 50.4739C197.042 50.4117 196.99 50.3656 196.948 50.3356C196.904 50.3045 196.849 50.289 196.783 50.289C196.716 50.289 196.661 50.3045 196.617 50.3356C196.574 50.3667 196.522 50.4128 196.462 50.4739M196.783 63.4028C196.092 63.4028 195.511 63.1618 195.038 62.6797C194.565 62.1988 194.328 61.6067 194.328 60.9036C194.328 60.2006 194.565 59.6085 195.038 59.1276C195.512 58.6466 196.093 58.4056 196.783 58.4045C197.472 58.4034 198.054 58.6444 198.527 59.1276C199.001 59.6085 199.237 60.2006 199.237 60.9036C199.237 61.6067 199.001 62.1988 198.527 62.6797C198.054 63.1606 197.472 63.4017 196.783 63.4028ZM201.702 72.7912L205.405 74.3157C205.489 74.359 205.568 74.3534 205.643 74.299C205.716 74.2457 205.752 74.1657 205.752 74.0591V68.3677C205.752 68.1967 205.715 68.0367 205.641 67.8879C205.568 67.738 205.458 67.6097 205.31 67.503L203.168 66.0419C203.053 67.1948 202.868 68.3377 202.615 69.4707C202.363 70.6025 202.059 71.7082 201.702 72.7912ZM197.737 48.8311C199.649 50.7882 201.059 52.968 201.967 55.3706C202.875 57.7731 203.329 60.4294 203.329 63.3395C203.329 63.4672 203.334 63.6005 203.345 63.7393C203.356 63.8782 203.35 64.0226 203.329 64.1725L206.168 66.1202C206.547 66.3612 206.846 66.6833 207.063 67.0865C207.28 67.4897 207.389 67.9162 207.389 68.3661V74.9138C207.389 75.3914 207.192 75.7646 206.799 76.0334C206.406 76.3022 205.988 76.3466 205.548 76.1667L200.884 74.2324H192.651L187.987 76.1351C187.546 76.315 187.134 76.2706 186.751 76.0018C186.368 75.733 186.177 75.3603 186.178 74.8838V68.3344C186.178 67.8857 186.281 67.4592 186.488 67.0549C186.694 66.6517 186.987 66.3295 187.366 66.0885L190.237 64.1392V63.3395C190.237 60.4294 190.691 57.7731 191.598 55.3706C192.505 52.968 193.915 50.7882 195.829 48.8311C195.956 48.6923 196.103 48.5918 196.27 48.5296C196.437 48.4674 196.608 48.4363 196.783 48.4363C196.957 48.4363 197.128 48.4674 197.295 48.5296C197.462 48.5918 197.609 48.6934 197.737 48.8311Z" fill="#5C79CF"/>
<defs>
<filter id="filter0_d_134_4438" x="0.380567" y="0.742018" width="262.048" height="132.766" filterUnits="userSpaceOnUse" color-interpolation-filters="sRGB">
<feFlood flood-opacity="0" result="BackgroundImageFix"/>
<feColorMatrix in="SourceAlpha" type="matrix" values="0 0 0 0 0 0 0 0 0 0 0 0 0 0 0 0 0 0 127 0" result="hardAlpha"/>
<feOffset dx="3.93752" dy="3.93752"/>
<feGaussianBlur stdDeviation="17.7188"/>
<feColorMatrix type="matrix" values="0 0 0 0 0 0 0 0 0 0 0 0 0 0 0 0 0 0 0.05 0"/>
<feBlend mode="normal" in2="BackgroundImageFix" result="effect1_dropShadow_134_4438"/>
<feBlend mode="normal" in="SourceGraphic" in2="effect1_dropShadow_134_4438" result="shape"/>
</filter>
<linearGradient id="paint0_linear_134_4438" x1="32.6385" y1="63.1877" x2="222.296" y2="63.1877" gradientUnits="userSpaceOnUse">
<stop stop-color="#4F6ECA"/>
<stop offset="1" stop-color="#6782D3"/>
</linearGradient>
<linearGradient id="paint1_linear_134_4438" x1="75.8845" y1="11.1928" x2="183.425" y2="118.733" gradientUnits="userSpaceOnUse">
<stop stop-color="#F1F1F1"/>
<stop offset="1" stop-color="#E1E1E1"/>
</linearGradient>
<linearGradient id="paint2_linear_134_4438" x1="43.1797" y1="63.2753" x2="222.503" y2="63.2753" gradientUnits="userSpaceOnUse">
<stop stop-color="#4F6ECA"/>
<stop offset="1" stop-color="#6782D3"/>
</linearGradient>
</defs>
</svg>
