<svg width="210" height="107" viewBox="0 0 210 107" fill="none" xmlns="http://www.w3.org/2000/svg">
<g filter="url(#filter0_d_118_2467)">
<rect x="26" y="26" width="151.726" height="48.3003" rx="11.6362" fill="white"/>
<rect x="26" y="26" width="151.726" height="48.3003" rx="11.6362" stroke="url(#paint0_linear_118_2467)" stroke-opacity="0.3" stroke-width="1.21248"/>
</g>
<path d="M44.9449 54.2202L48.7969 45.7073H50.0648L53.9167 54.2202H52.347L51.3206 51.8294L51.9726 52.252H46.8769L47.529 51.8294L46.5147 54.2202H44.9449ZM49.4127 47.3857L47.7222 51.4067L47.4082 51.0203H51.4413L51.1394 51.4067L49.4369 47.3857H49.4127ZM55.3732 54.2202V45.7073H59.0682C59.6961 45.7073 60.2274 45.8119 60.6621 46.0212C61.0968 46.2305 61.4268 46.5324 61.6522 46.9269C61.8776 47.3213 61.9903 47.8003 61.9903 48.3638C61.9903 48.9193 61.8776 49.3982 61.6522 49.8007C61.4268 50.1952 61.0968 50.5011 60.6621 50.7184C60.2274 50.9277 59.6961 51.0324 59.0682 51.0324H56.9188V54.2202H55.3732ZM56.9188 49.8128H58.8267C59.3741 49.8128 59.7886 49.6921 60.0704 49.4506C60.3521 49.201 60.493 48.8388 60.493 48.3638C60.493 47.8889 60.3521 47.5306 60.0704 47.2891C59.7886 47.0476 59.3741 46.9269 58.8267 46.9269H56.9188V49.8128ZM63.7753 54.2202V45.7073H67.4703C68.0982 45.7073 68.6295 45.8119 69.0642 46.0212C69.4989 46.2305 69.8289 46.5324 70.0543 46.9269C70.2797 47.3213 70.3924 47.8003 70.3924 48.3638C70.3924 48.9193 70.2797 49.3982 70.0543 49.8007C69.8289 50.1952 69.4989 50.5011 69.0642 50.7184C68.6295 50.9277 68.0982 51.0324 67.4703 51.0324H65.3209V54.2202H63.7753ZM65.3209 49.8128H67.2288C67.7762 49.8128 68.1907 49.6921 68.4725 49.4506C68.7542 49.201 68.8951 48.8388 68.8951 48.3638C68.8951 47.8889 68.7542 47.5306 68.4725 47.2891C68.1907 47.0476 67.7762 46.9269 67.2288 46.9269H65.3209V49.8128ZM75.957 54.2202V45.7073H79.652C80.5858 45.7073 81.3062 45.9327 81.8134 46.3835C82.3206 46.8262 82.5741 47.4501 82.5741 48.2551C82.5741 48.7784 82.4574 49.2292 82.224 49.6075C81.9985 49.9859 81.6685 50.2757 81.2338 50.4769C80.7991 50.6782 80.2718 50.7788 79.652 50.7788L79.7606 50.5977H80.1591C80.4892 50.5977 80.7749 50.6782 81.0164 50.8392C81.266 51.0002 81.4833 51.2538 81.6685 51.5999L83.0934 54.2202H81.3908L79.9176 51.5033C79.821 51.3262 79.7123 51.1894 79.5916 51.0928C79.4708 50.9881 79.334 50.9157 79.181 50.8754C79.0281 50.8352 78.851 50.815 78.6497 50.815H77.5026V54.2202H75.957ZM77.5026 49.6679H79.3863C79.9418 49.6679 80.3604 49.5552 80.6421 49.3298C80.9319 49.0964 81.0768 48.7502 81.0768 48.2914C81.0768 47.8406 80.9319 47.5025 80.6421 47.2771C80.3604 47.0436 79.9418 46.9269 79.3863 46.9269H77.5026V49.6679ZM84.76 54.2202V45.7073H90.4232V46.939H86.2453V49.2815H90.1576V50.5132H86.2453V52.9886H90.4232V54.2202H84.76ZM92.49 54.2202V45.7073H96.1849C96.8128 45.7073 97.3441 45.8119 97.7788 46.0212C98.2135 46.2305 98.5436 46.5324 98.769 46.9269C98.9944 47.3213 99.1071 47.8003 99.1071 48.3638C99.1071 48.9193 98.9944 49.3982 98.769 49.8007C98.5436 50.1952 98.2135 50.5011 97.7788 50.7184C97.3441 50.9277 96.8128 51.0324 96.1849 51.0324H94.0356V54.2202H92.49ZM94.0356 49.8128H95.9434C96.4908 49.8128 96.9054 49.6921 97.1872 49.4506C97.4689 49.201 97.6098 48.8388 97.6098 48.3638C97.6098 47.8889 97.4689 47.5306 97.1872 47.2891C96.9054 47.0476 96.4908 46.9269 95.9434 46.9269H94.0356V49.8128ZM104.649 54.341C104.029 54.341 103.465 54.2403 102.958 54.0391C102.459 53.8298 102.029 53.5319 101.666 53.1455C101.312 52.7591 101.038 52.2963 100.845 51.7569C100.652 51.2175 100.555 50.6178 100.555 49.9577C100.555 49.2896 100.652 48.6898 100.845 48.1585C101.038 47.6192 101.312 47.1603 101.666 46.782C102.029 46.3956 102.459 46.1017 102.958 45.9005C103.465 45.6912 104.029 45.5865 104.649 45.5865C105.269 45.5865 105.828 45.6912 106.327 45.9005C106.834 46.1017 107.265 46.3915 107.619 46.7699C107.982 47.1483 108.259 47.6071 108.452 48.1465C108.646 48.6778 108.742 49.2775 108.742 49.9456C108.742 50.6138 108.646 51.2175 108.452 51.7569C108.259 52.2963 107.982 52.7591 107.619 53.1455C107.265 53.5319 106.834 53.8298 106.327 54.0391C105.828 54.2403 105.269 54.341 104.649 54.341ZM104.649 53.0127C105.172 53.0127 105.615 52.892 105.977 52.6505C106.347 52.409 106.629 52.0588 106.822 51.5999C107.024 51.1411 107.124 50.5937 107.124 49.9577C107.124 49.3137 107.028 48.7663 106.834 48.3155C106.641 47.8567 106.359 47.5105 105.989 47.2771C105.619 47.0356 105.172 46.9148 104.649 46.9148C104.134 46.9148 103.691 47.0356 103.321 47.2771C102.95 47.5105 102.664 47.8567 102.463 48.3155C102.27 48.7663 102.173 49.3137 102.173 49.9577C102.173 50.5937 102.27 51.1411 102.463 51.5999C102.664 52.0588 102.95 52.409 103.321 52.6505C103.691 52.892 104.134 53.0127 104.649 53.0127ZM110.839 54.2202V45.7073H114.534C115.468 45.7073 116.188 45.9327 116.695 46.3835C117.202 46.8262 117.456 47.4501 117.456 48.2551C117.456 48.7784 117.339 49.2292 117.106 49.6075C116.88 49.9859 116.55 50.2757 116.116 50.4769C115.681 50.6782 115.154 50.7788 114.534 50.7788L114.643 50.5977H115.041C115.371 50.5977 115.657 50.6782 115.898 50.8392C116.148 51.0002 116.365 51.2538 116.55 51.5999L117.975 54.2202H116.273L114.8 51.5033C114.703 51.3262 114.594 51.1894 114.474 51.0928C114.353 50.9881 114.216 50.9157 114.063 50.8754C113.91 50.8352 113.733 50.815 113.532 50.815H112.385V54.2202H110.839ZM112.385 49.6679H114.268C114.824 49.6679 115.242 49.5552 115.524 49.3298C115.814 49.0964 115.959 48.7502 115.959 48.2914C115.959 47.8406 115.814 47.5025 115.524 47.2771C115.242 47.0436 114.824 46.9269 114.268 46.9269H112.385V49.6679ZM121.459 54.2202V46.9993H118.537V45.7073H125.927V46.9993H123.004V54.2202H121.459Z" fill="#202224"/>
<path opacity="0.3" d="M160.566 34.4705C167.235 34.4705 172.641 39.8768 172.641 46.5457V53.8953C172.641 60.5641 167.235 65.9705 160.566 65.9705H153.217C146.548 65.9705 141.141 60.5641 141.141 53.8953V46.5457C141.141 39.8768 146.548 34.4705 153.217 34.4705H160.566Z" fill="#1F2CB3"/>
<g clip-path="url(#clip0_118_2467)">
<path d="M161.92 39.3416H151.652C151.263 39.3416 150.89 39.4961 150.615 39.7712C150.34 40.0462 150.186 40.4193 150.186 40.8083V58.4098C150.186 58.7988 150.34 59.1719 150.615 59.4469C150.89 59.722 151.263 59.8765 151.652 59.8765H161.92C162.309 59.8765 162.682 59.722 162.957 59.4469C163.232 59.1719 163.387 58.7988 163.387 58.4098V40.8083C163.387 40.4193 163.232 40.0462 162.957 39.7712C162.682 39.4961 162.309 39.3416 161.92 39.3416ZM157.519 58.4098H156.053V56.943H157.519V58.4098ZM151.652 55.4762V40.8083H161.92V55.4762H151.652Z" fill="white"/>
</g>
<defs>
<filter id="filter0_d_118_2467" x="0.193664" y="0.193664" width="209.639" height="106.213" filterUnits="userSpaceOnUse" color-interpolation-filters="sRGB">
<feFlood flood-opacity="0" result="BackgroundImageFix"/>
<feColorMatrix in="SourceAlpha" type="matrix" values="0 0 0 0 0 0 0 0 0 0 0 0 0 0 0 0 0 0 127 0" result="hardAlpha"/>
<feOffset dx="3.15002" dy="3.15002"/>
<feGaussianBlur stdDeviation="14.1751"/>
<feColorMatrix type="matrix" values="0 0 0 0 0 0 0 0 0 0 0 0 0 0 0 0 0 0 0.05 0"/>
<feBlend mode="normal" in2="BackgroundImageFix" result="effect1_dropShadow_118_2467"/>
<feBlend mode="normal" in="SourceGraphic" in2="effect1_dropShadow_118_2467" result="shape"/>
</filter>
<linearGradient id="paint0_linear_118_2467" x1="60.5967" y1="8.55425" x2="146.629" y2="94.5863" gradientUnits="userSpaceOnUse">
<stop stop-color="#F1F1F1"/>
<stop offset="1" stop-color="#E1E1E1"/>
</linearGradient>
<clipPath id="clip0_118_2467">
<rect width="26.4021" height="26.4021" fill="white" transform="translate(143.585 36.408)"/>
</clipPath>
</defs>
</svg>
