<svg width="210" height="107" viewBox="0 0 210 107" fill="none" xmlns="http://www.w3.org/2000/svg">
<g filter="url(#filter0_d_118_2504)">
<rect x="26" y="26" width="151.726" height="48.3003" rx="11.6362" fill="white"/>
<rect x="26" y="26" width="151.726" height="48.3003" rx="11.6362" stroke="url(#paint0_linear_118_2504)" stroke-opacity="0.3" stroke-width="1.21248"/>
</g>
<path d="M45.8626 54.2202V45.7073H47.4082V52.904H51.4896V54.2202H45.8626ZM53.1681 54.2202V45.7073H54.7137V54.2202H53.1681ZM59.8182 54.2202L56.0266 45.7073H57.6809L60.76 52.8437H60.2408L63.3078 45.7073H64.9018L61.1102 54.2202H59.8182ZM66.2224 54.2202V45.7073H71.8856V46.939H67.7076V49.2815H71.6199V50.5132H67.7076V52.9886H71.8856V54.2202H66.2224ZM77.732 54.2202V45.7073H80.8956C81.8455 45.7073 82.6505 45.8723 83.3106 46.2024C83.9788 46.5324 84.4859 47.0154 84.8321 47.6514C85.1863 48.2793 85.3634 49.0481 85.3634 49.9577C85.3634 50.8674 85.1863 51.6402 84.8321 52.2761C84.4859 52.9121 83.9788 53.3951 83.3106 53.7251C82.6505 54.0552 81.8455 54.2202 80.8956 54.2202H77.732ZM79.2776 52.9403H80.799C81.7892 52.9403 82.5258 52.6947 83.0088 52.2037C83.4998 51.7046 83.7453 50.9559 83.7453 49.9577C83.7453 48.9595 83.4998 48.2149 83.0088 47.7238C82.5177 47.2328 81.7811 46.9873 80.799 46.9873H79.2776V52.9403ZM86.3602 54.2202L90.2121 45.7073H91.48L95.3319 54.2202H93.7622L92.7358 51.8294L93.3879 52.252H88.2922L88.9442 51.8294L87.9299 54.2202H86.3602ZM90.8279 47.3857L89.1374 51.4067L88.8235 51.0203H92.8566L92.5547 51.4067L90.8521 47.3857H90.8279ZM99.6283 54.341C99.1856 54.341 98.7589 54.3007 98.3484 54.2202C97.9459 54.1478 97.5715 54.0391 97.2254 53.8942C96.8873 53.7493 96.5854 53.5762 96.3198 53.375L96.7907 52.1554C97.0563 52.3405 97.3341 52.5015 97.6239 52.6384C97.9217 52.7672 98.2357 52.8678 98.5657 52.9403C98.9038 53.0047 99.258 53.0369 99.6283 53.0369C100.264 53.0369 100.727 52.9322 101.017 52.7229C101.307 52.5056 101.452 52.2278 101.452 51.8897C101.452 51.7046 101.407 51.5476 101.319 51.4188C101.23 51.2819 101.085 51.1652 100.884 51.0686C100.683 50.972 100.417 50.8915 100.087 50.8271L98.7589 50.5494C97.9942 50.3884 97.4226 50.1187 97.0443 49.7404C96.674 49.354 96.4888 48.8468 96.4888 48.2189C96.4888 47.6876 96.6297 47.2247 96.9114 46.8303C97.1932 46.4358 97.5836 46.1299 98.0827 45.9126C98.5818 45.6952 99.1574 45.5865 99.8095 45.5865C100.196 45.5865 100.566 45.6268 100.92 45.7073C101.283 45.7797 101.613 45.8924 101.911 46.0454C102.216 46.1903 102.482 46.3674 102.707 46.5767L102.237 47.7359C101.898 47.4542 101.528 47.2449 101.126 47.108C100.723 46.9631 100.28 46.8906 99.7974 46.8906C99.4271 46.8906 99.1091 46.943 98.8435 47.0476C98.5778 47.1523 98.3725 47.3012 98.2276 47.4944C98.0908 47.6796 98.0223 47.9009 98.0223 48.1585C98.0223 48.4483 98.1189 48.6818 98.3121 48.8589C98.5053 49.0279 98.8354 49.1608 99.3023 49.2574L100.618 49.5351C101.415 49.7041 102.007 49.9698 102.394 50.332C102.788 50.6943 102.985 51.1773 102.985 51.7811C102.985 52.2882 102.848 52.735 102.575 53.1214C102.301 53.5078 101.911 53.8097 101.403 54.027C100.904 54.2363 100.313 54.341 99.6283 54.341ZM104.837 54.2202V45.7073H106.382V49.2574H110.766V45.7073H112.311V54.2202H110.766V50.5494H106.382V54.2202H104.837ZM114.701 54.2202V45.7073H118.42C119.314 45.7073 120.006 45.9045 120.497 46.299C120.988 46.6854 121.234 47.2247 121.234 47.917C121.234 48.4322 121.085 48.8669 120.787 49.2211C120.489 49.5753 120.083 49.8128 119.567 49.9336V49.7524C119.962 49.8088 120.3 49.9295 120.582 50.1147C120.863 50.2998 121.077 50.5373 121.222 50.8271C121.375 51.1169 121.451 51.455 121.451 51.8414C121.451 52.3405 121.334 52.7712 121.101 53.1335C120.875 53.4877 120.545 53.7573 120.111 53.9425C119.676 54.1276 119.157 54.2202 118.553 54.2202H114.701ZM116.186 53.0489H118.36C118.577 53.0489 118.77 53.0328 118.939 53.0006C119.117 52.9684 119.265 52.9201 119.386 52.8557C119.515 52.7833 119.62 52.6947 119.7 52.5901C119.789 52.4854 119.853 52.3647 119.893 52.2278C119.934 52.091 119.954 51.938 119.954 51.769C119.954 51.5919 119.934 51.4349 119.893 51.298C119.853 51.1612 119.789 51.0445 119.7 50.9479C119.62 50.8432 119.515 50.7587 119.386 50.6943C119.265 50.6218 119.117 50.5695 118.939 50.5373C118.77 50.5051 118.577 50.489 118.36 50.489H116.186V53.0489ZM116.186 49.3177H118.155C118.686 49.3177 119.08 49.2171 119.338 49.0159C119.604 48.8066 119.736 48.5007 119.736 48.0982C119.736 47.6957 119.604 47.3938 119.338 47.1925C119.08 46.9832 118.686 46.8786 118.155 46.8786H116.186V49.3177ZM123.167 54.2202V52.5418H124.858V54.2202H123.167Z" fill="#202224"/>
<path opacity="0.3" d="M160.566 34.4705C167.235 34.4705 172.641 39.8768 172.641 46.5457V53.8953C172.641 60.5641 167.235 65.9705 160.566 65.9705H153.217C146.548 65.9705 141.141 60.5641 141.141 53.8953V46.5457C141.141 39.8768 146.548 34.4705 153.217 34.4705H160.566Z" fill="#1F2CB3"/>
<path d="M157.886 46.3088V39.7083H166.687V46.3088H157.886ZM146.885 50.7091V39.7083H155.686V50.7091H146.885ZM157.886 59.5099V48.509H166.687V59.5099H157.886ZM146.885 59.5099V52.9093H155.686V59.5099H146.885Z" fill="white"/>
<defs>
<filter id="filter0_d_118_2504" x="0.193664" y="0.193664" width="209.639" height="106.213" filterUnits="userSpaceOnUse" color-interpolation-filters="sRGB">
<feFlood flood-opacity="0" result="BackgroundImageFix"/>
<feColorMatrix in="SourceAlpha" type="matrix" values="0 0 0 0 0 0 0 0 0 0 0 0 0 0 0 0 0 0 127 0" result="hardAlpha"/>
<feOffset dx="3.15002" dy="3.15002"/>
<feGaussianBlur stdDeviation="14.1751"/>
<feColorMatrix type="matrix" values="0 0 0 0 0 0 0 0 0 0 0 0 0 0 0 0 0 0 0.05 0"/>
<feBlend mode="normal" in2="BackgroundImageFix" result="effect1_dropShadow_118_2504"/>
<feBlend mode="normal" in="SourceGraphic" in2="effect1_dropShadow_118_2504" result="shape"/>
</filter>
<linearGradient id="paint0_linear_118_2504" x1="60.5967" y1="8.55425" x2="146.629" y2="94.5863" gradientUnits="userSpaceOnUse">
<stop stop-color="#F1F1F1"/>
<stop offset="1" stop-color="#E1E1E1"/>
</linearGradient>
</defs>
</svg>
