<svg width="210" height="107" viewBox="0 0 210 107" fill="none" xmlns="http://www.w3.org/2000/svg">
<g filter="url(#filter0_d_118_2479)">
<rect x="26" y="26" width="151.726" height="48.3003" rx="11.6362" fill="white"/>
<rect x="26" y="26" width="151.726" height="48.3003" rx="11.6362" stroke="url(#paint0_linear_118_2479)" stroke-opacity="0.3" stroke-width="1.21248"/>
</g>
<path d="M48.5917 54.2202L44.8002 45.7073H46.4544L49.5336 52.8437H49.0144L52.0814 45.7073H53.6753L49.8838 54.2202H48.5917ZM54.996 54.2202V45.7073H60.6592V46.939H56.4812V49.2815H60.3935V50.5132H56.4812V52.9886H60.6592V54.2202H54.996ZM62.7259 54.2202V45.7073H66.4209C67.3547 45.7073 68.0752 45.9327 68.5823 46.3835C69.0895 46.8262 69.3431 47.4501 69.3431 48.2551C69.3431 48.7784 69.2263 49.2292 68.9929 49.6075C68.7675 49.9859 68.4374 50.2757 68.0027 50.4769C67.568 50.6782 67.0407 50.7788 66.4209 50.7788L66.5296 50.5977H66.928C67.2581 50.5977 67.5439 50.6782 67.7854 50.8392C68.0349 51.0002 68.2523 51.2538 68.4374 51.5999L69.8623 54.2202H68.1597L66.6865 51.5033C66.5899 51.3262 66.4813 51.1894 66.3605 51.0928C66.2398 50.9881 66.1029 50.9157 65.95 50.8754C65.797 50.8352 65.6199 50.815 65.4187 50.815H64.2715V54.2202H62.7259ZM64.2715 49.6679H66.1552C66.7107 49.6679 67.1293 49.5552 67.411 49.3298C67.7008 49.0964 67.8457 48.7502 67.8457 48.2914C67.8457 47.8406 67.7008 47.5025 67.411 47.2771C67.1293 47.0436 66.7107 46.9269 66.1552 46.9269H64.2715V49.6679ZM71.2866 54.2202V52.5418H72.9771V54.2202H71.2866ZM78.8641 54.2202V45.7073H82.5591C83.4929 45.7073 84.2134 45.9327 84.7205 46.3835C85.2277 46.8262 85.4812 47.4501 85.4812 48.2551C85.4812 48.7784 85.3645 49.2292 85.1311 49.6075C84.9057 49.9859 84.5756 50.2757 84.1409 50.4769C83.7062 50.6782 83.1789 50.7788 82.5591 50.7788L82.6678 50.5977H83.0662C83.3963 50.5977 83.6821 50.6782 83.9236 50.8392C84.1731 51.0002 84.3905 51.2538 84.5756 51.5999L86.0005 54.2202H84.2979L82.8247 51.5033C82.7281 51.3262 82.6195 51.1894 82.4987 51.0928C82.378 50.9881 82.2411 50.9157 82.0882 50.8754C81.9352 50.8352 81.7581 50.815 81.5569 50.815H80.4097V54.2202H78.8641ZM80.4097 49.6679H82.2934C82.8489 49.6679 83.2675 49.5552 83.5492 49.3298C83.839 49.0964 83.9839 48.7502 83.9839 48.2914C83.9839 47.8406 83.839 47.5025 83.5492 47.2771C83.2675 47.0436 82.8489 46.9269 82.2934 46.9269H80.4097V49.6679ZM87.6671 54.2202V45.7073H93.3303V46.939H89.1524V49.2815H93.0647V50.5132H89.1524V52.9886H93.3303V54.2202H87.6671ZM95.3971 54.2202V45.7073H96.9427V52.904H101.024V54.2202H95.3971ZM102.703 54.2202V45.7073H108.366V46.939H104.188V49.2815H108.1V50.5132H104.188V52.9886H108.366V54.2202H102.703ZM109.361 54.2202L113.213 45.7073H114.481L118.333 54.2202H116.763L115.737 51.8294L116.389 52.252H111.293L111.946 51.8294L110.931 54.2202H109.361ZM113.829 47.3857L112.139 51.4067L111.825 51.0203H115.858L115.556 51.4067L113.853 47.3857H113.829ZM122.63 54.341C122.187 54.341 121.76 54.3007 121.35 54.2202C120.947 54.1478 120.573 54.0391 120.227 53.8942C119.889 53.7493 119.587 53.5762 119.321 53.375L119.792 52.1554C120.058 52.3405 120.335 52.5015 120.625 52.6384C120.923 52.7672 121.237 52.8678 121.567 52.9403C121.905 53.0047 122.259 53.0369 122.63 53.0369C123.266 53.0369 123.728 52.9322 124.018 52.7229C124.308 52.5056 124.453 52.2278 124.453 51.8897C124.453 51.7046 124.409 51.5476 124.32 51.4188C124.232 51.2819 124.087 51.1652 123.885 51.0686C123.684 50.972 123.419 50.8915 123.088 50.8271L121.76 50.5494C120.995 50.3884 120.424 50.1187 120.046 49.7404C119.675 49.354 119.49 48.8468 119.49 48.2189C119.49 47.6876 119.631 47.2247 119.913 46.8303C120.194 46.4358 120.585 46.1299 121.084 45.9126C121.583 45.6952 122.159 45.5865 122.811 45.5865C123.197 45.5865 123.567 45.6268 123.922 45.7073C124.284 45.7797 124.614 45.8924 124.912 46.0454C125.218 46.1903 125.483 46.3674 125.709 46.5767L125.238 47.7359C124.9 47.4542 124.529 47.2449 124.127 47.108C123.724 46.9631 123.282 46.8906 122.799 46.8906C122.428 46.8906 122.11 46.943 121.845 47.0476C121.579 47.1523 121.374 47.3012 121.229 47.4944C121.092 47.6796 121.024 47.9009 121.024 48.1585C121.024 48.4483 121.12 48.6818 121.313 48.8589C121.507 49.0279 121.837 49.1608 122.304 49.2574L123.62 49.5351C124.417 49.7041 125.008 49.9698 125.395 50.332C125.789 50.6943 125.986 51.1773 125.986 51.7811C125.986 52.2882 125.85 52.735 125.576 53.1214C125.302 53.5078 124.912 53.8097 124.405 54.027C123.906 54.2363 123.314 54.341 122.63 54.341ZM127.838 54.2202V45.7073H133.501V46.939H129.323V49.2815H133.236V50.5132H129.323V52.9886H133.501V54.2202H127.838Z" fill="#202224"/>
<path opacity="0.3" d="M160.566 34.4705C167.235 34.4705 172.641 39.8768 172.641 46.5457V53.8953C172.641 60.5641 167.235 65.9705 160.566 65.9705H153.217C146.548 65.9705 141.141 60.5641 141.141 53.8953V46.5457C141.141 39.8768 146.548 34.4705 153.217 34.4705H160.566Z" fill="#1F2CB3"/>
<path d="M153.289 57.3482C153.019 56.5313 152.789 55.6997 152.598 54.8534C152.408 54.0072 152.27 53.1492 152.182 52.2795L150.565 53.3804C150.455 53.4617 150.372 53.5547 150.316 53.6594C150.26 53.7642 150.232 53.8806 150.233 54.0088V58.3285C150.233 58.4089 150.261 58.4655 150.316 58.4982C150.371 58.5308 150.431 58.5308 150.495 58.4982L153.289 57.3482ZM156.757 40.5383C155.516 41.9929 154.629 43.4939 154.096 45.0415C153.563 46.589 153.296 48.2782 153.296 50.109C153.296 51.4144 153.409 52.6691 153.635 53.8731C153.862 55.0771 154.16 56.1869 154.53 57.2024H159.468C159.839 56.1877 160.137 55.078 160.363 53.8731C160.59 52.6682 160.703 51.4135 160.703 50.109C160.703 48.2782 160.436 46.589 159.903 45.0415C159.37 43.4939 158.482 41.9925 157.241 40.5371C157.195 40.4902 157.156 40.4554 157.124 40.4328C157.091 40.4093 157.05 40.3976 156.999 40.3976C156.949 40.3976 156.908 40.4093 156.875 40.4328C156.842 40.4562 156.803 40.491 156.757 40.5371M156.999 50.2899C156.478 50.2899 156.04 50.1081 155.683 49.7445C155.326 49.3817 155.148 48.9351 155.148 48.4047C155.148 47.8743 155.326 47.4278 155.683 47.065C156.041 46.7022 156.479 46.5203 156.999 46.5195C157.52 46.5187 157.958 46.7005 158.315 47.065C158.673 47.4278 158.851 47.8743 158.851 48.4047C158.851 48.9351 158.673 49.3817 158.315 49.7445C157.958 50.1073 157.52 50.2891 156.999 50.2899ZM160.71 57.3721L163.504 58.522C163.567 58.5547 163.627 58.5505 163.683 58.5095C163.738 58.4693 163.766 58.4089 163.766 58.3285V54.0352C163.766 53.9062 163.738 53.7855 163.682 53.6733C163.626 53.5602 163.543 53.4634 163.432 53.3829L161.816 52.2807C161.729 53.1504 161.59 54.0126 161.399 54.8672C161.209 55.721 160.979 56.5551 160.71 57.3721ZM157.719 39.2979C159.162 40.7742 160.225 42.4185 160.91 44.2308C161.595 46.0432 161.937 48.0469 161.937 50.2422C161.937 50.3385 161.941 50.4391 161.95 50.5438C161.958 50.6485 161.954 50.7575 161.937 50.8706L164.079 52.3398C164.365 52.5216 164.591 52.7646 164.754 53.0687C164.918 53.3729 165 53.6946 165 54.034V58.9732C165 59.3335 164.852 59.615 164.556 59.8178C164.258 60.0206 163.944 60.0541 163.611 59.9184L160.093 58.4592H153.882L150.364 59.8945C150.032 60.0302 149.721 59.9967 149.432 59.7939C149.143 59.5912 148.999 59.3101 149 58.9506V54.0101C149 53.6716 149.078 53.3498 149.233 53.0449C149.389 52.7407 149.61 52.4977 149.896 52.3159L152.061 50.8454V50.2422C152.061 48.0469 152.404 46.0432 153.089 44.2308C153.772 42.4185 154.836 40.7742 156.28 39.2979C156.376 39.1931 156.487 39.1173 156.613 39.0704C156.739 39.0235 156.868 39 156.999 39C157.131 39 157.26 39.0235 157.386 39.0704C157.512 39.1173 157.623 39.194 157.719 39.2979Z" fill="white"/>
<defs>
<filter id="filter0_d_118_2479" x="0.193664" y="0.193664" width="209.639" height="106.213" filterUnits="userSpaceOnUse" color-interpolation-filters="sRGB">
<feFlood flood-opacity="0" result="BackgroundImageFix"/>
<feColorMatrix in="SourceAlpha" type="matrix" values="0 0 0 0 0 0 0 0 0 0 0 0 0 0 0 0 0 0 127 0" result="hardAlpha"/>
<feOffset dx="3.15002" dy="3.15002"/>
<feGaussianBlur stdDeviation="14.1751"/>
<feColorMatrix type="matrix" values="0 0 0 0 0 0 0 0 0 0 0 0 0 0 0 0 0 0 0.05 0"/>
<feBlend mode="normal" in2="BackgroundImageFix" result="effect1_dropShadow_118_2479"/>
<feBlend mode="normal" in="SourceGraphic" in2="effect1_dropShadow_118_2479" result="shape"/>
</filter>
<linearGradient id="paint0_linear_118_2479" x1="60.5967" y1="8.55425" x2="146.629" y2="94.5863" gradientUnits="userSpaceOnUse">
<stop stop-color="#F1F1F1"/>
<stop offset="1" stop-color="#E1E1E1"/>
</linearGradient>
</defs>
</svg>
