<svg width="263" height="134" viewBox="0 0 263 134" fill="none" xmlns="http://www.w3.org/2000/svg">
<g filter="url(#filter0_d_132_4391)">
<rect x="33" y="32.5505" width="189.657" height="60.3753" rx="14.5452" fill="white"/>
<rect x="33" y="32.5505" width="189.657" height="60.3753" rx="14.5452" stroke="url(#paint0_linear_132_4391)" stroke-opacity="0.3" stroke-width="1.5156"/>
</g>
<path d="M57.8285 67.3259V56.6848H61.7831C62.9705 56.6848 63.9767 56.8911 64.8018 57.3036C65.637 57.7162 66.271 58.3199 66.7037 59.1149C67.1464 59.8998 67.3678 60.8607 67.3678 61.9978C67.3678 63.1349 67.1464 64.1009 66.7037 64.8958C66.271 65.6908 65.637 66.2945 64.8018 66.7071C63.9767 67.1196 62.9705 67.3259 61.7831 67.3259H57.8285ZM59.7605 65.726H61.6623C62.9 65.726 63.8207 65.4191 64.4245 64.8053C65.0383 64.1814 65.3452 63.2456 65.3452 61.9978C65.3452 60.75 65.0383 59.8193 64.4245 59.2054C63.8107 58.5916 62.8899 58.2847 61.6623 58.2847H59.7605V65.726ZM68.6138 67.3259L73.4287 56.6848H75.0135L79.8285 67.3259H77.8663L76.5833 64.3373L77.3984 64.8656H71.0288L71.8438 64.3373L70.576 67.3259H68.6138ZM74.1985 58.7828L72.0853 63.8091L71.6929 63.3261H76.7342L76.3569 63.8091L74.2287 58.7828H74.1985ZM81.6491 67.3259V56.6848H83.5811V67.3259H81.6491ZM86.5505 67.3259V56.6848H88.4825V65.6807H93.5842V67.3259H86.5505ZM96.4345 67.3259V61.8469L96.842 63.0091L92.3441 56.6848H94.593L97.642 61.0167H97.2194L100.283 56.6848H102.442L97.9741 63.0091L98.3665 61.8469V67.3259H96.4345ZM108.61 67.3259V56.6848H113.229C114.396 56.6848 115.297 56.9665 115.93 57.53C116.564 58.0835 116.881 58.8633 116.881 59.8696C116.881 60.5236 116.735 61.0871 116.444 61.5601C116.162 62.033 115.749 62.3953 115.206 62.6468C114.663 62.8984 114.003 63.0242 113.229 63.0242L113.365 62.7978H113.863C114.275 62.7978 114.632 62.8984 114.934 63.0997C115.246 63.3009 115.518 63.6179 115.749 64.0506L117.53 67.3259H115.402L113.561 63.9298C113.44 63.7084 113.304 63.5374 113.153 63.4166C113.002 63.2858 112.831 63.1952 112.64 63.1449C112.449 63.0946 112.227 63.0695 111.976 63.0695H110.542V67.3259H108.61ZM110.542 61.6356H112.897C113.591 61.6356 114.114 61.4947 114.466 61.2129C114.829 60.9211 115.01 60.4884 115.01 59.9149C115.01 59.3514 114.829 58.9287 114.466 58.647C114.114 58.3552 113.591 58.2093 112.897 58.2093H110.542V61.6356ZM119.614 67.3259V56.6848H126.693V58.2243H121.47V61.1526H126.361V62.6921H121.47V65.7864H126.693V67.3259H119.614ZM129.276 67.3259V56.6848H133.895C134.68 56.6848 135.344 56.8156 135.887 57.0772C136.431 57.3388 136.843 57.7162 137.125 58.2093C137.407 58.7023 137.548 59.301 137.548 60.0054C137.548 60.6997 137.407 61.2985 137.125 61.8016C136.843 62.2947 136.431 62.677 135.887 62.9487C135.344 63.2103 134.68 63.3412 133.895 63.3412H131.208V67.3259H129.276ZM131.208 61.8167H133.593C134.277 61.8167 134.795 61.6657 135.148 61.3639C135.5 61.0519 135.676 60.5991 135.676 60.0054C135.676 59.4117 135.5 58.9639 135.148 58.6621C134.795 58.3602 134.277 58.2093 133.593 58.2093H131.208V61.8167ZM144.475 67.4769C143.7 67.4769 142.996 67.3511 142.362 67.0995C141.738 66.8379 141.199 66.4656 140.747 65.9826C140.304 65.4996 139.962 64.921 139.72 64.2468C139.479 63.5726 139.358 62.8229 139.358 61.9978C139.358 61.1626 139.479 60.413 139.72 59.7488C139.962 59.0746 140.304 58.5011 140.747 58.0281C141.199 57.5451 141.738 57.1778 142.362 56.9263C142.996 56.6647 143.7 56.5338 144.475 56.5338C145.25 56.5338 145.949 56.6647 146.573 56.9263C147.207 57.1778 147.745 57.5401 148.188 58.013C148.641 58.486 148.988 59.0595 149.229 59.7337C149.471 60.3979 149.592 61.1475 149.592 61.9827C149.592 62.8179 149.471 63.5726 149.229 64.2468C148.988 64.921 148.641 65.4996 148.188 65.9826C147.745 66.4656 147.207 66.8379 146.573 67.0995C145.949 67.3511 145.25 67.4769 144.475 67.4769ZM144.475 65.8165C145.129 65.8165 145.682 65.6656 146.135 65.3637C146.598 65.0619 146.95 64.6241 147.192 64.0506C147.443 63.477 147.569 62.7927 147.569 61.9978C147.569 61.1928 147.448 60.5085 147.207 59.945C146.965 59.3715 146.613 58.9388 146.15 58.647C145.687 58.3451 145.129 58.1942 144.475 58.1942C143.831 58.1942 143.277 58.3451 142.814 58.647C142.352 58.9388 141.994 59.3715 141.743 59.945C141.501 60.5085 141.381 61.1928 141.381 61.9978C141.381 62.7927 141.501 63.477 141.743 64.0506C141.994 64.6241 142.352 65.0619 142.814 65.3637C143.277 65.6656 143.831 65.8165 144.475 65.8165ZM152.212 67.3259V56.6848H156.831C157.998 56.6848 158.899 56.9665 159.533 57.53C160.167 58.0835 160.484 58.8633 160.484 59.8696C160.484 60.5236 160.338 61.0871 160.046 61.5601C159.764 62.033 159.352 62.3953 158.808 62.6468C158.265 62.8984 157.606 63.0242 156.831 63.0242L156.967 62.7978H157.465C157.878 62.7978 158.235 62.8984 158.537 63.0997C158.849 63.3009 159.12 63.6179 159.352 64.0506L161.133 67.3259H159.005L157.163 63.9298C157.042 63.7084 156.907 63.5374 156.756 63.4166C156.605 63.2858 156.434 63.1952 156.242 63.1449C156.051 63.0946 155.83 63.0695 155.578 63.0695H154.144V67.3259H152.212ZM154.144 61.6356H156.499C157.193 61.6356 157.717 61.4947 158.069 61.2129C158.431 60.9211 158.612 60.4884 158.612 59.9149C158.612 59.3514 158.431 58.9287 158.069 58.647C157.717 58.3552 157.193 58.2093 156.499 58.2093H154.144V61.6356ZM165.487 67.3259V58.2998H161.835V56.6848H171.072V58.2998H167.419V67.3259H165.487Z" fill="#202224"/>
<path opacity="0.3" d="M201.208 43.1384C209.544 43.1384 216.301 49.8961 216.302 58.2322V67.4197C216.302 75.7558 209.544 82.5134 201.208 82.5134H192.02C183.684 82.5134 176.927 75.7557 176.927 67.4197V58.2322C176.927 49.8961 183.684 43.1385 192.02 43.1384H201.208Z" fill="#1F2CB3"/>
<path d="M188.919 70.9999H204.045M188.919 66.187H204.045M200.173 47.6781C200.79 47.8706 202.77 48.6558 205.63 51.4452C208.326 54.0737 209.197 55.9404 209.452 56.65C209.509 58.1908 209.546 59.9853 209.546 62.0617C209.546 67.6069 209.288 71.1402 209.053 73.2097C208.881 74.7237 207.745 75.8555 206.232 76.0322C204.296 76.2584 201.135 76.5004 196.482 76.5004C191.83 76.5004 188.668 76.2584 186.733 76.0328C185.22 75.8555 184.084 74.7237 183.912 73.2097C183.677 71.1402 183.419 67.6062 183.419 62.0617C183.419 56.5173 183.677 52.9832 183.912 50.9137C184.084 49.3997 185.22 48.268 186.733 48.0906C188.668 47.8658 191.83 47.623 196.482 47.623C197.837 47.623 199.065 47.6437 200.173 47.6781Z" stroke="white" stroke-width="2.06267" stroke-linecap="round" stroke-linejoin="round"/>
<path d="M188.919 61.2834C190.688 58.5813 192.163 57.3946 192.973 56.8968C193.356 56.661 193.819 56.815 194.018 57.2186C194.474 58.1433 194.905 59.414 195.213 60.4226C195.394 61.0139 196.258 61.1411 196.638 60.6529C198.168 58.6893 200.264 56.9051 200.264 56.9051M203.06 58.1564C203.363 56.5585 203.374 55.1566 203.349 54.414C203.345 54.2578 203.281 54.1091 203.17 53.9985C203.06 53.8879 202.911 53.8238 202.755 53.8193C201.501 53.7813 200.246 53.8781 199.012 54.1081C198.494 54.2064 198.322 54.8383 198.696 55.2116L201.957 58.4741C202.331 58.8474 202.962 58.6748 203.06 58.1564Z" stroke="white" stroke-width="2.06267" stroke-linecap="round" stroke-linejoin="round"/>
<defs>
<filter id="filter0_d_132_4391" x="0.742018" y="0.292555" width="262.048" height="132.766" filterUnits="userSpaceOnUse" color-interpolation-filters="sRGB">
<feFlood flood-opacity="0" result="BackgroundImageFix"/>
<feColorMatrix in="SourceAlpha" type="matrix" values="0 0 0 0 0 0 0 0 0 0 0 0 0 0 0 0 0 0 127 0" result="hardAlpha"/>
<feOffset dx="3.93752" dy="3.93752"/>
<feGaussianBlur stdDeviation="17.7188"/>
<feColorMatrix type="matrix" values="0 0 0 0 0 0 0 0 0 0 0 0 0 0 0 0 0 0 0.05 0"/>
<feBlend mode="normal" in2="BackgroundImageFix" result="effect1_dropShadow_132_4391"/>
<feBlend mode="normal" in="SourceGraphic" in2="effect1_dropShadow_132_4391" result="shape"/>
</filter>
<linearGradient id="paint0_linear_132_4391" x1="76.2459" y1="10.7433" x2="183.786" y2="118.283" gradientUnits="userSpaceOnUse">
<stop stop-color="#F1F1F1"/>
<stop offset="1" stop-color="#E1E1E1"/>
</linearGradient>
</defs>
</svg>
