<svg width="263" height="134" viewBox="0 0 263 134" fill="none" xmlns="http://www.w3.org/2000/svg">
<g filter="url(#filter0_d_132_4358)">
<rect x="32.3885" y="33.0698" width="189.657" height="60.3753" rx="14.5452" fill="white"/>
<rect x="32.3885" y="33.0698" width="189.657" height="60.3753" rx="14.5452" stroke="url(#paint0_linear_132_4358)" stroke-opacity="0.3" stroke-width="1.5156"/>
</g>
<path d="M60.6284 57.3452L55.8889 46.7041H57.9568L61.8057 55.6245H61.1566L64.9905 46.7041H66.9829L62.2434 57.3452H60.6284ZM68.6337 57.3452V46.7041H75.7127V48.2436H70.4902V51.1718H75.3806V52.7114H70.4902V55.8056H75.7127V57.3452H68.6337ZM78.2961 57.3452V46.7041H82.9148C84.0821 46.7041 84.9827 46.9858 85.6166 47.5493C86.2505 48.1028 86.5675 48.8826 86.5675 49.8889C86.5675 50.5429 86.4216 51.1064 86.1298 51.5794C85.848 52.0523 85.4355 52.4146 84.8921 52.6661C84.3487 52.9177 83.6896 53.0435 82.9148 53.0435L83.0507 52.8171H83.5488C83.9613 52.8171 84.3185 52.9177 84.6204 53.1189C84.9324 53.3202 85.204 53.6372 85.4355 54.0699L87.2166 57.3452H85.0883L83.2469 53.9491C83.1261 53.7277 82.9903 53.5567 82.8393 53.4359C82.6884 53.3051 82.5173 53.2145 82.3262 53.1642C82.135 53.1139 81.9136 53.0888 81.662 53.0888H80.2281V57.3452H78.2961ZM80.2281 51.6548H82.5827C83.2771 51.6548 83.8003 51.514 84.1525 51.2322C84.5148 50.9404 84.6959 50.5077 84.6959 49.9341C84.6959 49.3706 84.5148 48.948 84.1525 48.6663C83.8003 48.3744 83.2771 48.2285 82.5827 48.2285H80.2281V51.6548ZM92.9382 57.4962C92.3848 57.4962 91.8514 57.4458 91.3383 57.3452C90.8351 57.2547 90.3672 57.1188 89.9345 56.9377C89.5119 56.7566 89.1346 56.5402 88.8025 56.2886L89.3911 54.7642C89.7232 54.9956 90.0704 55.1969 90.4326 55.3679C90.8049 55.5289 91.1974 55.6547 91.6099 55.7453C92.0326 55.8258 92.4753 55.866 92.9382 55.866C93.7331 55.866 94.3117 55.7352 94.674 55.4736C95.0362 55.2019 95.2174 54.8547 95.2174 54.4321C95.2174 54.2007 95.162 54.0044 95.0513 53.8434C94.9406 53.6724 94.7595 53.5265 94.508 53.4057C94.2564 53.285 93.9243 53.1843 93.5118 53.1038L91.8514 52.7567C90.8955 52.5554 90.1811 52.2183 89.7081 51.7454C89.2452 51.2624 89.0138 50.6285 89.0138 49.8436C89.0138 49.1795 89.1899 48.6009 89.5421 48.1078C89.8943 47.6147 90.3823 47.2323 91.0062 46.9607C91.6301 46.689 92.3495 46.5531 93.1646 46.5531C93.6476 46.5531 94.1105 46.6034 94.5532 46.7041C95.0061 46.7946 95.4186 46.9355 95.7909 47.1267C96.1733 47.3078 96.5054 47.5292 96.7871 47.7908L96.1985 49.2398C95.7758 48.8876 95.313 48.626 94.8098 48.4549C94.3067 48.2738 93.7533 48.1833 93.1495 48.1833C92.6866 48.1833 92.2892 48.2487 91.9571 48.3795C91.625 48.5103 91.3684 48.6964 91.1873 48.938C91.0163 49.1694 90.9307 49.4461 90.9307 49.7681C90.9307 50.1304 91.0515 50.4222 91.293 50.6436C91.5345 50.8549 91.947 51.0209 92.5307 51.1417L94.1759 51.4888C95.1721 51.7001 95.9117 52.0322 96.3947 52.485C96.8878 52.9378 97.1343 53.5416 97.1343 54.2963C97.1343 54.9302 96.9632 55.4887 96.6211 55.9717C96.279 56.4547 95.7909 56.832 95.157 57.1037C94.5331 57.3653 93.7935 57.4962 92.9382 57.4962ZM99.4487 57.3452V46.7041H101.381V57.3452H99.4487ZM109.12 57.4962C108.345 57.4962 107.641 57.3704 107.007 57.1188C106.383 56.8572 105.844 56.4849 105.392 56.0019C104.949 55.5189 104.607 54.9403 104.365 54.2661C104.124 53.5919 104.003 52.8422 104.003 52.0171C104.003 51.1819 104.124 50.4322 104.365 49.7681C104.607 49.0939 104.949 48.5204 105.392 48.0474C105.844 47.5644 106.383 47.1971 107.007 46.9456C107.641 46.6839 108.345 46.5531 109.12 46.5531C109.895 46.5531 110.594 46.6839 111.218 46.9456C111.852 47.1971 112.39 47.5594 112.833 48.0323C113.286 48.5053 113.633 49.0788 113.874 49.753C114.116 50.4171 114.237 51.1668 114.237 52.002C114.237 52.8372 114.116 53.5919 113.874 54.2661C113.633 54.9403 113.286 55.5189 112.833 56.0019C112.39 56.4849 111.852 56.8572 111.218 57.1188C110.594 57.3704 109.895 57.4962 109.12 57.4962ZM109.12 55.8358C109.774 55.8358 110.327 55.6849 110.78 55.383C111.243 55.0811 111.595 54.6434 111.837 54.0699C112.088 53.4963 112.214 52.812 112.214 52.0171C112.214 51.2121 112.093 50.5278 111.852 49.9643C111.61 49.3908 111.258 48.9581 110.795 48.6663C110.332 48.3644 109.774 48.2134 109.12 48.2134C108.476 48.2134 107.922 48.3644 107.459 48.6663C106.997 48.9581 106.639 49.3908 106.388 49.9643C106.146 50.5278 106.026 51.2121 106.026 52.0171C106.026 52.812 106.146 53.4963 106.388 54.0699C106.639 54.6434 106.997 55.0811 107.459 55.383C107.922 55.6849 108.476 55.8358 109.12 55.8358ZM116.857 57.3452V46.7041H118.306L124.419 54.6434H124.027V46.7041H125.823V57.3452H124.389L118.276 49.3908H118.654V57.3452H116.857ZM57.2172 78.3452V67.7041H61.8359C63.0031 67.7041 63.9037 67.9858 64.5377 68.5493C65.1716 69.1028 65.4886 69.8826 65.4886 70.8889C65.4886 71.5429 65.3427 72.1064 65.0509 72.5794C64.7691 73.0523 64.3565 73.4146 63.8132 73.6661C63.2698 73.9177 62.6107 74.0435 61.8359 74.0435L61.9717 73.8171H62.4698C62.8824 73.8171 63.2396 73.9177 63.5415 74.1189C63.8534 74.3202 64.1251 74.6372 64.3565 75.0699L66.1376 78.3452H64.0094L62.1679 74.9491C62.0472 74.7277 61.9113 74.5567 61.7604 74.4359C61.6095 74.3051 61.4384 74.2145 61.2472 74.1642C61.056 74.1139 60.8346 74.0888 60.5831 74.0888H59.1492V78.3452H57.2172ZM59.1492 72.6548H61.5038C62.1981 72.6548 62.7214 72.514 63.0736 72.2322C63.4358 71.9404 63.6169 71.5077 63.6169 70.9341C63.6169 70.3706 63.4358 69.948 63.0736 69.6663C62.7214 69.3744 62.1981 69.2285 61.5038 69.2285H59.1492V72.6548ZM68.2209 78.3452V67.7041H75.2999V69.2436H70.0775V72.1718H74.9679V73.7114H70.0775V76.8056H75.2999V78.3452H68.2209ZM77.8834 78.3452V67.7041H79.8154V76.7H84.9171V78.3452H77.8834ZM87.0152 78.3452V67.7041H94.0942V69.2436H88.8717V72.1718H93.7621V73.7114H88.8717V76.8056H94.0942V78.3452H87.0152ZM95.3389 78.3452L100.154 67.7041H101.739L106.554 78.3452H104.591L103.308 75.3566L104.123 75.8849H97.7539L98.5689 75.3566L97.301 78.3452H95.3389ZM100.924 69.8021L98.8104 74.8284L98.418 74.3453H103.459L103.082 74.8284L100.954 69.8021H100.924ZM111.924 78.4962C111.371 78.4962 110.837 78.4458 110.324 78.3452C109.821 78.2547 109.353 78.1188 108.92 77.9377C108.498 77.7566 108.12 77.5402 107.788 77.2886L108.377 75.7642C108.709 75.9956 109.056 76.1969 109.418 76.3679C109.791 76.5289 110.183 76.6547 110.596 76.7453C111.018 76.8258 111.461 76.866 111.924 76.866C112.719 76.866 113.298 76.7352 113.66 76.4736C114.022 76.2019 114.203 75.8547 114.203 75.4321C114.203 75.2007 114.148 75.0044 114.037 74.8434C113.926 74.6724 113.745 74.5265 113.494 74.4057C113.242 74.285 112.91 74.1843 112.498 74.1038L110.837 73.7567C109.881 73.5554 109.167 73.2183 108.694 72.7454C108.231 72.2624 108 71.6285 108 70.8436C108 70.1795 108.176 69.6009 108.528 69.1078C108.88 68.6147 109.368 68.2323 109.992 67.9607C110.616 67.689 111.335 67.5531 112.15 67.5531C112.633 67.5531 113.096 67.6034 113.539 67.7041C113.992 67.7946 114.404 67.9355 114.777 68.1267C115.159 68.3078 115.491 68.5292 115.773 68.7908L115.184 70.2398C114.762 69.8876 114.299 69.626 113.796 69.4549C113.293 69.2738 112.739 69.1833 112.135 69.1833C111.672 69.1833 111.275 69.2487 110.943 69.3795C110.611 69.5103 110.354 69.6964 110.173 69.938C110.002 70.1694 109.917 70.4461 109.917 70.7681C109.917 71.1304 110.037 71.4222 110.279 71.6436C110.52 71.8549 110.933 72.0209 111.517 72.1417L113.162 72.4888C114.158 72.7001 114.898 73.0322 115.381 73.485C115.874 73.9378 116.12 74.5416 116.12 75.2963C116.12 75.9302 115.949 76.4887 115.607 76.9717C115.265 77.4547 114.777 77.832 114.143 78.1037C113.519 78.3653 112.779 78.4962 111.924 78.4962ZM118.435 78.3452V67.7041H125.514V69.2436H120.291V72.1718H125.182V73.7114H120.291V76.8056H125.514V78.3452H118.435Z" fill="#202224"/>
<path opacity="0.3" d="M200.596 43.6577C208.933 43.6577 215.69 50.4154 215.69 58.7515V67.939C215.69 76.2751 208.933 83.0327 200.596 83.0327H191.409C183.073 83.0327 176.315 76.275 176.315 67.939V58.7515C176.315 50.4154 183.073 43.6578 191.409 43.6577H200.596Z" fill="#1F2CB3"/>
<path d="M191.499 72.2548C191.163 71.2336 190.875 70.1942 190.636 69.1363C190.399 68.0785 190.225 67.006 190.116 65.9189L188.095 67.2951C187.957 67.3967 187.853 67.513 187.783 67.6439C187.713 67.7748 187.679 67.9204 187.68 68.0806V73.4802C187.68 73.5807 187.714 73.6514 187.783 73.6923C187.852 73.7331 187.927 73.7331 188.007 73.6923L191.499 72.2548ZM195.835 51.2425C194.284 53.0607 193.175 54.937 192.508 56.8714C191.842 58.8059 191.508 60.9173 191.508 63.2058C191.508 64.8375 191.65 66.4059 191.933 67.911C192.216 69.416 192.588 70.8032 193.051 72.0726H199.224C199.687 70.8042 200.06 69.417 200.342 67.911C200.625 66.4049 200.767 64.8365 200.767 63.2058C200.767 60.9173 200.433 58.8059 199.767 56.8714C199.1 54.937 197.991 53.0602 196.44 51.2409C196.382 51.1823 196.334 51.1388 196.293 51.1105C196.252 51.0812 196.2 51.0665 196.138 51.0665C196.075 51.0665 196.023 51.0812 195.982 51.1105C195.941 51.1399 195.892 51.1833 195.835 51.2409M196.138 63.432C195.486 63.432 194.938 63.2047 194.493 62.7502C194.046 62.2967 193.823 61.7384 193.823 61.0755C193.823 60.4125 194.046 59.8543 194.493 59.4008C194.939 58.9473 195.487 58.72 196.138 58.719C196.788 58.7179 197.336 58.9452 197.782 59.4008C198.229 59.8543 198.452 60.4125 198.452 61.0755C198.452 61.7384 198.229 62.2967 197.782 62.7502C197.336 63.2037 196.788 63.4309 196.138 63.432ZM200.776 72.2847L204.268 73.7221C204.347 73.763 204.422 73.7577 204.492 73.7064C204.561 73.6562 204.595 73.5807 204.595 73.4802V68.1136C204.595 67.9523 204.56 67.8015 204.49 67.6612C204.421 67.5198 204.317 67.3988 204.179 67.2983L202.159 65.9205C202.05 67.0076 201.876 68.0853 201.637 69.1536C201.399 70.2209 201.112 71.2635 200.776 72.2847ZM197.037 49.6919C198.841 51.5373 200.17 53.5927 201.026 55.8581C201.882 58.1235 202.31 60.6283 202.31 63.3723C202.31 63.4927 202.315 63.6184 202.325 63.7493C202.336 63.8803 202.33 64.0164 202.31 64.1578L204.987 65.9943C205.345 66.2216 205.627 66.5253 205.831 66.9055C206.036 67.2857 206.138 67.6879 206.138 68.112V74.2861C206.138 74.7365 205.953 75.0884 205.583 75.3418C205.211 75.5953 204.818 75.6372 204.402 75.4675L200.005 73.6436H192.241L187.843 75.4377C187.428 75.6073 187.039 75.5655 186.678 75.312C186.317 75.0585 186.137 74.7072 186.138 74.2578V68.0822C186.138 67.6591 186.236 67.2569 186.43 66.8757C186.624 66.4955 186.901 66.1917 187.259 65.9645L189.965 64.1264V63.3723C189.965 60.6283 190.393 58.1235 191.249 55.8581C192.104 53.5927 193.434 51.5373 195.238 49.6919C195.358 49.561 195.497 49.4662 195.655 49.4076C195.812 49.3489 195.973 49.3196 196.138 49.3196C196.302 49.3196 196.463 49.3489 196.621 49.4076C196.778 49.4662 196.917 49.562 197.037 49.6919Z" fill="white"/>
<defs>
<filter id="filter0_d_132_4358" x="0.130567" y="0.811842" width="262.048" height="132.766" filterUnits="userSpaceOnUse" color-interpolation-filters="sRGB">
<feFlood flood-opacity="0" result="BackgroundImageFix"/>
<feColorMatrix in="SourceAlpha" type="matrix" values="0 0 0 0 0 0 0 0 0 0 0 0 0 0 0 0 0 0 127 0" result="hardAlpha"/>
<feOffset dx="3.93752" dy="3.93752"/>
<feGaussianBlur stdDeviation="17.7188"/>
<feColorMatrix type="matrix" values="0 0 0 0 0 0 0 0 0 0 0 0 0 0 0 0 0 0 0.05 0"/>
<feBlend mode="normal" in2="BackgroundImageFix" result="effect1_dropShadow_132_4358"/>
<feBlend mode="normal" in="SourceGraphic" in2="effect1_dropShadow_132_4358" result="shape"/>
</filter>
<linearGradient id="paint0_linear_132_4358" x1="75.6345" y1="11.2626" x2="183.175" y2="118.803" gradientUnits="userSpaceOnUse">
<stop stop-color="#F1F1F1"/>
<stop offset="1" stop-color="#E1E1E1"/>
</linearGradient>
</defs>
</svg>
